%TF.GenerationSoftware,KiCad,Pcbnew,7.0.11+dfsg-1build4*%
%TF.CreationDate,2026-03-01T17:54:03-05:00*%
%TF.ProjectId,bm,626d2e6b-6963-4616-945f-706362585858,rev?*%
%TF.SameCoordinates,Original*%
%TF.FileFunction,Copper,L2,Bot*%
%TF.FilePolarity,Positive*%
%FSLAX46Y46*%
G04 Gerber Fmt 4.6, Leading zero omitted, Abs format (unit mm)*
G04 Created by KiCad (PCBNEW 7.0.11+dfsg-1build4) date 2026-03-01 17:54:03*
%MOMM*%
%LPD*%
G01*
G04 APERTURE LIST*
%TA.AperFunction,ComponentPad*%
%ADD10R,1.600000X1.600000*%
%TD*%
%TA.AperFunction,ComponentPad*%
%ADD11C,1.600000*%
%TD*%
%TA.AperFunction,ComponentPad*%
%ADD12R,1.050000X1.500000*%
%TD*%
%TA.AperFunction,ComponentPad*%
%ADD13O,1.050000X1.500000*%
%TD*%
%TA.AperFunction,ComponentPad*%
%ADD14O,1.600000X1.600000*%
%TD*%
%TA.AperFunction,ComponentPad*%
%ADD15R,1.800000X1.800000*%
%TD*%
%TA.AperFunction,ComponentPad*%
%ADD16O,1.800000X1.800000*%
%TD*%
%TA.AperFunction,ComponentPad*%
%ADD17R,1.700000X1.700000*%
%TD*%
%TA.AperFunction,ComponentPad*%
%ADD18O,1.700000X1.700000*%
%TD*%
%TA.AperFunction,ComponentPad*%
%ADD19C,2.340000*%
%TD*%
%TA.AperFunction,ViaPad*%
%ADD20C,0.800000*%
%TD*%
%TA.AperFunction,Conductor*%
%ADD21C,0.250000*%
%TD*%
G04 APERTURE END LIST*
D10*
%TO.P,C4,1*%
%TO.N,Net-(C4-Pad1)*%
X121000000Y-104250000D03*
D11*
%TO.P,C4,2*%
%TO.N,Net-(C4-Pad2)*%
X123500000Y-104250000D03*
%TD*%
%TO.P,C5,1*%
%TO.N,Net-(U2A--)*%
X158750000Y-128750000D03*
%TO.P,C5,2*%
%TO.N,Net-(C4-Pad1)*%
X153750000Y-128750000D03*
%TD*%
D12*
%TO.P,Q1,1,E*%
%TO.N,Net-(Q1-E)*%
X137210000Y-103750000D03*
D13*
%TO.P,Q1,2,B*%
%TO.N,Net-(Q1-B)*%
X138480000Y-103750000D03*
%TO.P,Q1,3,C*%
%TO.N,+9V*%
X139750000Y-103750000D03*
%TD*%
D10*
%TO.P,U2,1*%
%TO.N,Net-(C4-Pad1)*%
X103000000Y-111130000D03*
D14*
%TO.P,U2,2,-*%
%TO.N,Net-(U2A--)*%
X103000000Y-113670000D03*
%TO.P,U2,3,+*%
%TO.N,Net-(U2A-+)*%
X103000000Y-116210000D03*
%TO.P,U2,4,V-*%
%TO.N,GND*%
X103000000Y-118750000D03*
%TO.P,U2,5,+*%
%TO.N,Net-(U2B-+)*%
X110620000Y-118750000D03*
%TO.P,U2,6,-*%
%TO.N,vb*%
X110620000Y-116210000D03*
%TO.P,U2,7*%
X110620000Y-113670000D03*
%TO.P,U2,8,V+*%
%TO.N,+9V*%
X110620000Y-111130000D03*
%TD*%
D11*
%TO.P,R6,1*%
%TO.N,Net-(U1B-+)*%
X113920000Y-119500000D03*
D14*
%TO.P,R6,2*%
%TO.N,Net-(D3-K)*%
X124080000Y-119500000D03*
%TD*%
D11*
%TO.P,C12,1*%
%TO.N,vb*%
X133800000Y-131900000D03*
%TO.P,C12,2*%
%TO.N,Net-(C12-Pad2)*%
X128800000Y-131900000D03*
%TD*%
D10*
%TO.P,C3,1*%
%TO.N,+9V*%
X118500000Y-135500000D03*
D11*
%TO.P,C3,2*%
%TO.N,GND*%
X121000000Y-135500000D03*
%TD*%
%TO.P,C6,1*%
%TO.N,Net-(Q1-B)*%
X153750000Y-124000000D03*
%TO.P,C6,2*%
%TO.N,Net-(C10-Pad2)*%
X158750000Y-124000000D03*
%TD*%
%TO.P,R13,1*%
%TO.N,Net-(Q1-E)*%
X139090000Y-116750000D03*
D14*
%TO.P,R13,2*%
%TO.N,Net-(C10-Pad2)*%
X149250000Y-116750000D03*
%TD*%
D15*
%TO.P,D4,1,K*%
%TO.N,Net-(D3-A)*%
X102940000Y-122500000D03*
D16*
%TO.P,D4,2,A*%
%TO.N,Net-(D3-K)*%
X110560000Y-122500000D03*
%TD*%
D11*
%TO.P,C9,1*%
%TO.N,GND*%
X127250000Y-114250000D03*
%TO.P,C9,2*%
%TO.N,Net-(U1B-+)*%
X132250000Y-114250000D03*
%TD*%
%TO.P,R1,1*%
%TO.N,Net-(U1B--)*%
X113920000Y-129250000D03*
D14*
%TO.P,R1,2*%
%TO.N,Net-(R1-Pad2)*%
X124080000Y-129250000D03*
%TD*%
D11*
%TO.P,R10,1*%
%TO.N,GND*%
X139170000Y-113250000D03*
D14*
%TO.P,R10,2*%
%TO.N,Net-(U2B-+)*%
X149330000Y-113250000D03*
%TD*%
D17*
%TO.P,J1,1,Pin_1*%
%TO.N,+9V*%
X125880000Y-138250000D03*
D18*
%TO.P,J1,2,Pin_2*%
%TO.N,out*%
X128420000Y-138250000D03*
%TO.P,J1,3,Pin_3*%
%TO.N,IN*%
X130960000Y-138250000D03*
%TO.P,J1,4,Pin_4*%
%TO.N,GND*%
X133500000Y-138250000D03*
%TD*%
D11*
%TO.P,R8,1*%
%TO.N,Net-(U2A-+)*%
X139090000Y-129750000D03*
D14*
%TO.P,R8,2*%
%TO.N,Net-(R1-Pad2)*%
X149250000Y-129750000D03*
%TD*%
D11*
%TO.P,R3,1*%
%TO.N,vb*%
X113920000Y-109750000D03*
D14*
%TO.P,R3,2*%
%TO.N,IN*%
X124080000Y-109750000D03*
%TD*%
D11*
%TO.P,C10,1*%
%TO.N,Net-(C10-Pad1)*%
X126900000Y-124500000D03*
%TO.P,C10,2*%
%TO.N,Net-(C10-Pad2)*%
X131900000Y-124500000D03*
%TD*%
%TO.P,R2,1*%
%TO.N,GND*%
X113920000Y-126000000D03*
D14*
%TO.P,R2,2*%
%TO.N,Net-(C1-Pad2)*%
X124080000Y-126000000D03*
%TD*%
D11*
%TO.P,R11,1*%
%TO.N,Net-(C4-Pad1)*%
X139090000Y-120000000D03*
D14*
%TO.P,R11,2*%
%TO.N,Net-(U2A--)*%
X149250000Y-120000000D03*
%TD*%
D11*
%TO.P,C8,1*%
%TO.N,Net-(D3-A)*%
X127000000Y-109000000D03*
%TO.P,C8,2*%
%TO.N,Net-(D3-K)*%
X132000000Y-109000000D03*
%TD*%
%TO.P,C1,1*%
%TO.N,Net-(C1-Pad1)*%
X127000000Y-120250000D03*
%TO.P,C1,2*%
%TO.N,Net-(C1-Pad2)*%
X132000000Y-120250000D03*
%TD*%
D15*
%TO.P,D3,1,K*%
%TO.N,Net-(D3-K)*%
X103000000Y-126000000D03*
D16*
%TO.P,D3,2,A*%
%TO.N,Net-(D3-A)*%
X110620000Y-126000000D03*
%TD*%
D11*
%TO.P,R12,1*%
%TO.N,Net-(Q1-E)*%
X139090000Y-123250000D03*
D14*
%TO.P,R12,2*%
%TO.N,GND*%
X149250000Y-123250000D03*
%TD*%
D10*
%TO.P,C11,1*%
%TO.N,vb*%
X102750000Y-135500000D03*
D11*
%TO.P,C11,2*%
%TO.N,GND*%
X105250000Y-135500000D03*
%TD*%
%TO.P,R7,1*%
%TO.N,vb*%
X113920000Y-122750000D03*
D14*
%TO.P,R7,2*%
%TO.N,Net-(U1B-+)*%
X124080000Y-122750000D03*
%TD*%
D10*
%TO.P,U1,1*%
%TO.N,Net-(D3-K)*%
X152200000Y-110450000D03*
D14*
%TO.P,U1,2,-*%
%TO.N,Net-(D3-A)*%
X152200000Y-112990000D03*
%TO.P,U1,3,+*%
%TO.N,Net-(U1A-+)*%
X152200000Y-115530000D03*
%TO.P,U1,4,V-*%
%TO.N,GND*%
X152200000Y-118070000D03*
%TO.P,U1,5,+*%
%TO.N,Net-(U1B-+)*%
X159820000Y-118070000D03*
%TO.P,U1,6,-*%
%TO.N,Net-(U1B--)*%
X159820000Y-115530000D03*
%TO.P,U1,7*%
%TO.N,Net-(R1-Pad2)*%
X159820000Y-112990000D03*
%TO.P,U1,8,V+*%
%TO.N,+9V*%
X159820000Y-110450000D03*
%TD*%
D11*
%TO.P,R15,1*%
%TO.N,Net-(C12-Pad2)*%
X126420000Y-128200000D03*
D14*
%TO.P,R15,2*%
%TO.N,Net-(D3-A)*%
X136580000Y-128200000D03*
%TD*%
D11*
%TO.P,R5,1*%
%TO.N,Net-(R5-Pad1)*%
X113920000Y-116250000D03*
D14*
%TO.P,R5,2*%
%TO.N,Net-(D3-A)*%
X124080000Y-116250000D03*
%TD*%
D11*
%TO.P,R14,1*%
%TO.N,vb*%
X139090000Y-126500000D03*
D14*
%TO.P,R14,2*%
%TO.N,Net-(Q1-B)*%
X149250000Y-126500000D03*
%TD*%
D10*
%TO.P,C2,1*%
%TO.N,Net-(U2B-+)*%
X110250000Y-135500000D03*
D11*
%TO.P,C2,2*%
%TO.N,GND*%
X112750000Y-135500000D03*
%TD*%
%TO.P,R4,1*%
%TO.N,vb*%
X113920000Y-113000000D03*
D14*
%TO.P,R4,2*%
%TO.N,Net-(U1A-+)*%
X124080000Y-113000000D03*
%TD*%
D11*
%TO.P,R9,1*%
%TO.N,Net-(U2B-+)*%
X139090000Y-133000000D03*
D14*
%TO.P,R9,2*%
%TO.N,+9V*%
X149250000Y-133000000D03*
%TD*%
D19*
%TO.P,RV1,1,1*%
%TO.N,Net-(U1B-+)*%
X157750000Y-102650000D03*
%TO.P,RV1,2,2*%
%TO.N,Net-(C1-Pad1)*%
X152750000Y-102650000D03*
%TO.P,RV1,3,3*%
%TO.N,Net-(U1B--)*%
X147750000Y-102650000D03*
%TD*%
D11*
%TO.P,C7,1*%
%TO.N,IN*%
X127000000Y-103500000D03*
%TO.P,C7,2*%
%TO.N,Net-(U1A-+)*%
X132000000Y-103500000D03*
%TD*%
D19*
%TO.P,RV3,1,1*%
%TO.N,Net-(D3-K)*%
X147750000Y-105850000D03*
%TO.P,RV3,2,2*%
%TO.N,Net-(R5-Pad1)*%
X152750000Y-105850000D03*
%TO.P,RV3,3,3*%
X157750000Y-105850000D03*
%TD*%
%TO.P,RV4,1,1*%
%TO.N,Net-(U2A-+)*%
X114250000Y-102400000D03*
%TO.P,RV4,2,2*%
%TO.N,Net-(C10-Pad1)*%
X109250000Y-102400000D03*
%TO.P,RV4,3,3*%
%TO.N,Net-(U2A--)*%
X104250000Y-102400000D03*
%TD*%
%TO.P,RV2,1,1*%
%TO.N,GND*%
X104250000Y-105600000D03*
%TO.P,RV2,2,2*%
%TO.N,out*%
X109250000Y-105600000D03*
%TO.P,RV2,3,3*%
%TO.N,Net-(C4-Pad2)*%
X114250000Y-105600000D03*
%TD*%
D20*
%TO.N,Net-(C4-Pad1)*%
X120850800Y-113008900D03*
X144296600Y-126660400D03*
%TO.N,Net-(Q1-B)*%
X146844600Y-124835700D03*
%TO.N,IN*%
X135807000Y-104571400D03*
%TO.N,Net-(D3-A)*%
X107868500Y-117888700D03*
%TO.N,Net-(U1B-+)*%
X133668000Y-101530700D03*
%TO.N,Net-(U1B--)*%
X150068000Y-131799800D03*
%TD*%
D21*
%TO.N,Net-(C1-Pad1)*%
X134803900Y-113357200D02*
X127911100Y-120250000D01*
X152750000Y-102650000D02*
X151183500Y-101083500D01*
X134803900Y-104347800D02*
X134803900Y-113357200D01*
X127911100Y-120250000D02*
X127000000Y-120250000D01*
X151183500Y-101083500D02*
X138068200Y-101083500D01*
X138068200Y-101083500D02*
X134803900Y-104347800D01*
%TO.N,Net-(U2B-+)*%
X111845000Y-134405000D02*
X111000000Y-135250000D01*
X110620000Y-119876900D02*
X111845000Y-121101900D01*
X111845000Y-121101900D02*
X111845000Y-134405000D01*
X139708300Y-133000000D02*
X147571500Y-125136800D01*
X147571500Y-116135400D02*
X149330000Y-114376900D01*
X147571500Y-125136800D02*
X147571500Y-116135400D01*
X149330000Y-113250000D02*
X149330000Y-114376900D01*
X110620000Y-118750000D02*
X110620000Y-119876900D01*
X139090000Y-133000000D02*
X139708300Y-133000000D01*
%TO.N,GND*%
X149250000Y-124430991D02*
X149250000Y-123250000D01*
X101715000Y-120035000D02*
X103000000Y-118750000D01*
X139170000Y-113252200D02*
X139170000Y-113250000D01*
X133500000Y-138250000D02*
X135430991Y-138250000D01*
X101715000Y-131965000D02*
X101715000Y-120035000D01*
X104620900Y-105970900D02*
X104250000Y-105600000D01*
X105250000Y-135500000D02*
X101715000Y-131965000D01*
X135430991Y-138250000D02*
X149250000Y-124430991D01*
%TO.N,+9V*%
X115046900Y-118962900D02*
X113959000Y-117875000D01*
X118250000Y-130913700D02*
X115046900Y-127710600D01*
X110620000Y-111130000D02*
X110620000Y-112256900D01*
X115046900Y-127710600D02*
X115046900Y-118962900D01*
X118250000Y-135500000D02*
X118250000Y-130913700D01*
X113959000Y-117875000D02*
X113886600Y-117875000D01*
X121000000Y-138250000D02*
X118250000Y-135500000D01*
X110901800Y-112256900D02*
X110620000Y-112256900D01*
X111746900Y-115735300D02*
X111746900Y-113102000D01*
X125880000Y-138250000D02*
X121000000Y-138250000D01*
X111746900Y-113102000D02*
X110901800Y-112256900D01*
X113886600Y-117875000D02*
X111746900Y-115735300D01*
%TO.N,Net-(C4-Pad1)*%
X144644200Y-127008000D02*
X144296600Y-126660400D01*
X139090000Y-120000000D02*
X144296600Y-125206600D01*
X120850800Y-104399200D02*
X120850800Y-113008900D01*
X144296600Y-126660400D02*
X144644200Y-127008000D01*
X121000000Y-104250000D02*
X120850800Y-104399200D01*
X144296600Y-125206600D02*
X144296600Y-126660400D01*
%TO.N,Net-(U2A--)*%
X104250000Y-102400000D02*
X102742700Y-103907300D01*
X104137400Y-112140700D02*
X103735000Y-112543100D01*
X102742700Y-103907300D02*
X102742700Y-107997200D01*
X102742700Y-107997200D02*
X104137400Y-109391900D01*
X103735000Y-112543100D02*
X103000000Y-112543100D01*
X103000000Y-113670000D02*
X103000000Y-112543100D01*
X104137400Y-109391900D02*
X104137400Y-112140700D01*
%TO.N,Net-(Q1-B)*%
X138480000Y-103750000D02*
X138480000Y-104826900D01*
X146844600Y-124835700D02*
X146844600Y-113191500D01*
X146844600Y-113191500D02*
X138480000Y-104826900D01*
%TO.N,IN*%
X124080000Y-109750000D02*
X124080000Y-106420000D01*
X124080000Y-106420000D02*
X127000000Y-103500000D01*
X135652700Y-104571400D02*
X135807000Y-104571400D01*
X135807000Y-122183991D02*
X135807000Y-104571400D01*
X135807000Y-104571400D02*
X135652700Y-104571400D01*
X130960000Y-137073100D02*
X132600000Y-135433100D01*
X130960000Y-138250000D02*
X130960000Y-137073100D01*
X132600000Y-135433100D02*
X132600000Y-125390991D01*
X132600000Y-125390991D02*
X135807000Y-122183991D01*
%TO.N,Net-(U1A-+)*%
X132000000Y-103500000D02*
X132000000Y-106206900D01*
X132000000Y-106206900D02*
X125206900Y-113000000D01*
X124080000Y-113000000D02*
X125206900Y-113000000D01*
%TO.N,Net-(D3-A)*%
X124080000Y-116250000D02*
X124080000Y-115123100D01*
X124046600Y-111375000D02*
X124625000Y-111375000D01*
X122941500Y-112480100D02*
X124046600Y-111375000D01*
X102940000Y-122500000D02*
X104166900Y-122500000D01*
X124625000Y-111375000D02*
X127000000Y-109000000D01*
X104166900Y-122500000D02*
X104166900Y-121590300D01*
X124080000Y-115123100D02*
X122941500Y-113984600D01*
X122941500Y-113984600D02*
X122941500Y-112480100D01*
X104166900Y-121590300D02*
X107868500Y-117888700D01*
%TO.N,Net-(D3-K)*%
X103000000Y-126000000D02*
X105833100Y-126000000D01*
X124080000Y-119500000D02*
X124080000Y-118373100D01*
X132000000Y-111167600D02*
X124794500Y-118373100D01*
X151223100Y-109323100D02*
X152200000Y-109323100D01*
X105833100Y-126000000D02*
X109333100Y-122500000D01*
X152200000Y-110450000D02*
X152200000Y-109323100D01*
X124794500Y-118373100D02*
X124080000Y-118373100D01*
X110560000Y-122500000D02*
X109333100Y-122500000D01*
X132000000Y-109000000D02*
X132000000Y-111167600D01*
X147750000Y-105850000D02*
X151223100Y-109323100D01*
%TO.N,Net-(U1B-+)*%
X132250000Y-114250000D02*
X133668000Y-112832000D01*
X161402400Y-106302400D02*
X157750000Y-102650000D01*
X133668000Y-112832000D02*
X133668000Y-101530700D01*
X132250000Y-114250000D02*
X131383700Y-114250000D01*
X124080000Y-121553700D02*
X124080000Y-122750000D01*
X133668000Y-101530700D02*
X134081400Y-101117300D01*
X134081400Y-101117300D02*
X133668000Y-101530700D01*
X131383700Y-114250000D02*
X124080000Y-121553700D01*
X159820000Y-118070000D02*
X161402400Y-116487600D01*
X161402400Y-116487600D02*
X161402400Y-106302400D01*
%TO.N,Net-(C10-Pad1)*%
X121600000Y-123500000D02*
X122600000Y-124500000D01*
X109250000Y-102400000D02*
X109250000Y-103335700D01*
X109250000Y-103335700D02*
X121600000Y-115685700D01*
X126900000Y-124500000D02*
X127000000Y-124600000D01*
X121600000Y-115685700D02*
X121600000Y-123500000D01*
X122600000Y-124500000D02*
X126900000Y-124500000D01*
%TO.N,vb*%
X113875000Y-135965991D02*
X113215991Y-136625000D01*
X103875000Y-136625000D02*
X102750000Y-135500000D01*
X110808200Y-117266900D02*
X112309500Y-118768200D01*
X139090000Y-127641370D02*
X139090000Y-126500000D01*
X113215991Y-136625000D02*
X103875000Y-136625000D01*
X113920000Y-122750000D02*
X112795000Y-123875000D01*
X134931370Y-131800000D02*
X139090000Y-127641370D01*
X133800000Y-131800000D02*
X134931370Y-131800000D01*
X112795000Y-133954009D02*
X113875000Y-135034009D01*
X113920000Y-122235900D02*
X113920000Y-122750000D01*
X112795000Y-123875000D02*
X112795000Y-133954009D01*
X110620000Y-116210000D02*
X110620000Y-117266900D01*
X110620000Y-113670000D02*
X110620000Y-116210000D01*
X112309500Y-118768200D02*
X112309500Y-120625400D01*
X110620000Y-117266900D02*
X110808200Y-117266900D01*
X113875000Y-135034009D02*
X113875000Y-135965991D01*
X112309500Y-120625400D02*
X113920000Y-122235900D01*
%TO.N,out*%
X128420000Y-138250000D02*
X128420000Y-137073100D01*
X115998500Y-113419900D02*
X114405400Y-111826800D01*
X114316500Y-111826800D02*
X109250000Y-106760300D01*
X128420000Y-137073100D02*
X115998500Y-124651600D01*
X114405400Y-111826800D02*
X114316500Y-111826800D01*
X115998500Y-124651600D02*
X115998500Y-113419900D01*
X109250000Y-106760300D02*
X109250000Y-105600000D01*
%TO.N,Net-(Q1-E)*%
X140366200Y-111660200D02*
X140366200Y-115473800D01*
X139090000Y-123250000D02*
X137915000Y-122075000D01*
X137210000Y-108504000D02*
X140366200Y-111660200D01*
X137210000Y-103750000D02*
X137210000Y-108504000D01*
X140366200Y-115473800D02*
X139090000Y-116750000D01*
X137915000Y-117925000D02*
X139090000Y-116750000D01*
X137915000Y-122075000D02*
X137915000Y-117925000D01*
%TO.N,Net-(U1B--)*%
X160950500Y-112466500D02*
X160950500Y-114399500D01*
X152325400Y-131799800D02*
X150068000Y-131799800D01*
X147750000Y-102650000D02*
X147750000Y-102984900D01*
X156250100Y-127875100D02*
X152325400Y-131799800D01*
X160204000Y-111720000D02*
X160950500Y-112466500D01*
X156485100Y-111720000D02*
X160204000Y-111720000D01*
X147750000Y-102984900D02*
X156485100Y-111720000D01*
X156250100Y-119099900D02*
X156250100Y-127875100D01*
X150068000Y-131799800D02*
X152325400Y-131799800D01*
X160950500Y-114399500D02*
X159820000Y-115530000D01*
X152325400Y-131799800D02*
X150068000Y-131799800D01*
X159820000Y-115530000D02*
X156250100Y-119099900D01*
%TO.N,Net-(R1-Pad2)*%
X159820000Y-113835200D02*
X151374600Y-122280600D01*
X151374600Y-126498500D02*
X149250000Y-128623100D01*
X151374600Y-122280600D02*
X151374600Y-126498500D01*
X159820000Y-112990000D02*
X159820000Y-113835200D01*
X149250000Y-128623100D02*
X149250000Y-129750000D01*
%TO.N,Net-(R5-Pad1)*%
X157750000Y-105850000D02*
X152750000Y-105850000D01*
%TO.N,Net-(U2A-+)*%
X101838100Y-115048100D02*
X101838100Y-102634800D01*
X112699100Y-100849100D02*
X114250000Y-102400000D01*
X103623800Y-100849100D02*
X112699100Y-100849100D01*
X101838100Y-102634800D02*
X103623800Y-100849100D01*
X103000000Y-116210000D02*
X101838100Y-115048100D01*
%TO.N,Net-(C12-Pad2)*%
X128800000Y-131800000D02*
X128800000Y-130580000D01*
X128800000Y-130580000D02*
X126420000Y-128200000D01*
%TD*%
%TA.AperFunction,Conductor*%
%TO.N,GND*%
G36*
X103463242Y-100020185D02*
G01*
X103508997Y-100072989D01*
X103518941Y-100142147D01*
X103489916Y-100205703D01*
X103441844Y-100239795D01*
X103423795Y-100246940D01*
X103412751Y-100250721D01*
X103370206Y-100263082D01*
X103352633Y-100273474D01*
X103335170Y-100282029D01*
X103316185Y-100289546D01*
X103316184Y-100289547D01*
X103280343Y-100315587D01*
X103270581Y-100321999D01*
X103232437Y-100344558D01*
X103217996Y-100358998D01*
X103203208Y-100371627D01*
X103186697Y-100383623D01*
X103186692Y-100383628D01*
X103158452Y-100417763D01*
X103150592Y-100426401D01*
X101449279Y-102127714D01*
X101436920Y-102137618D01*
X101437093Y-102137827D01*
X101431082Y-102142800D01*
X101384438Y-102192469D01*
X101381733Y-102195260D01*
X101361973Y-102215021D01*
X101361958Y-102215038D01*
X101359417Y-102218313D01*
X101351853Y-102227167D01*
X101321520Y-102259471D01*
X101321512Y-102259481D01*
X101311679Y-102277367D01*
X101301003Y-102293620D01*
X101288486Y-102309757D01*
X101288485Y-102309760D01*
X101270885Y-102350429D01*
X101265748Y-102360915D01*
X101244403Y-102399741D01*
X101244403Y-102399742D01*
X101239325Y-102419520D01*
X101233025Y-102437922D01*
X101224918Y-102456657D01*
X101217988Y-102500409D01*
X101215620Y-102511845D01*
X101204600Y-102554765D01*
X101204600Y-102575184D01*
X101203073Y-102594583D01*
X101199880Y-102614741D01*
X101199880Y-102614742D01*
X101204050Y-102658857D01*
X101204600Y-102670526D01*
X101204600Y-114964466D01*
X101202861Y-114980213D01*
X101203132Y-114980239D01*
X101202398Y-114988005D01*
X101204539Y-115056116D01*
X101204600Y-115060012D01*
X101204600Y-115087959D01*
X101205118Y-115092058D01*
X101206034Y-115103698D01*
X101207426Y-115147989D01*
X101207427Y-115147991D01*
X101213122Y-115167595D01*
X101217067Y-115186642D01*
X101219626Y-115206897D01*
X101219627Y-115206900D01*
X101219628Y-115206904D01*
X101235938Y-115248100D01*
X101239721Y-115259149D01*
X101252081Y-115301692D01*
X101262472Y-115319262D01*
X101271032Y-115336735D01*
X101278547Y-115355717D01*
X101304591Y-115391563D01*
X101311005Y-115401327D01*
X101331807Y-115436502D01*
X101333558Y-115439462D01*
X101333562Y-115439466D01*
X101347989Y-115453893D01*
X101360626Y-115468688D01*
X101372628Y-115485207D01*
X101383084Y-115493857D01*
X101406768Y-115513450D01*
X101415409Y-115521313D01*
X101691664Y-115797569D01*
X101725149Y-115858892D01*
X101723758Y-115917343D01*
X101706458Y-115981907D01*
X101706456Y-115981918D01*
X101686502Y-116209998D01*
X101686502Y-116210001D01*
X101706456Y-116438081D01*
X101706457Y-116438089D01*
X101765714Y-116659238D01*
X101765718Y-116659249D01*
X101842330Y-116823543D01*
X101862477Y-116866749D01*
X101993802Y-117054300D01*
X102155700Y-117216198D01*
X102329392Y-117337819D01*
X102343251Y-117347523D01*
X102396401Y-117372307D01*
X102448840Y-117418479D01*
X102467992Y-117485673D01*
X102447776Y-117552554D01*
X102396401Y-117597071D01*
X102347517Y-117619865D01*
X102161179Y-117750342D01*
X102000342Y-117911179D01*
X101869865Y-118097517D01*
X101773734Y-118303673D01*
X101773730Y-118303682D01*
X101721127Y-118499999D01*
X101721128Y-118500000D01*
X102684314Y-118500000D01*
X102672359Y-118511955D01*
X102614835Y-118624852D01*
X102595014Y-118750000D01*
X102614835Y-118875148D01*
X102672359Y-118988045D01*
X102684314Y-119000000D01*
X101721128Y-119000000D01*
X101773730Y-119196317D01*
X101773734Y-119196326D01*
X101869865Y-119402482D01*
X102000342Y-119588820D01*
X102161179Y-119749657D01*
X102347517Y-119880134D01*
X102553673Y-119976265D01*
X102553682Y-119976269D01*
X102749999Y-120028872D01*
X102750000Y-120028871D01*
X102750000Y-119065686D01*
X102761955Y-119077641D01*
X102874852Y-119135165D01*
X102968519Y-119150000D01*
X103031481Y-119150000D01*
X103125148Y-119135165D01*
X103238045Y-119077641D01*
X103250000Y-119065686D01*
X103250000Y-120028872D01*
X103446317Y-119976269D01*
X103446326Y-119976265D01*
X103652482Y-119880134D01*
X103838820Y-119749657D01*
X103999657Y-119588820D01*
X104130134Y-119402482D01*
X104226265Y-119196326D01*
X104226269Y-119196317D01*
X104278872Y-119000000D01*
X103315686Y-119000000D01*
X103327641Y-118988045D01*
X103385165Y-118875148D01*
X103404986Y-118750000D01*
X103385165Y-118624852D01*
X103327641Y-118511955D01*
X103315686Y-118500000D01*
X104278872Y-118500000D01*
X104278872Y-118499999D01*
X104226269Y-118303682D01*
X104226265Y-118303673D01*
X104130134Y-118097517D01*
X103999657Y-117911179D01*
X103838820Y-117750342D01*
X103652481Y-117619865D01*
X103652479Y-117619864D01*
X103603599Y-117597071D01*
X103551159Y-117550899D01*
X103532007Y-117483706D01*
X103552223Y-117416824D01*
X103603599Y-117372307D01*
X103656749Y-117347523D01*
X103844300Y-117216198D01*
X104006198Y-117054300D01*
X104137523Y-116866749D01*
X104234284Y-116659243D01*
X104293543Y-116438087D01*
X104313498Y-116210000D01*
X104311463Y-116186745D01*
X104297043Y-116021918D01*
X104293543Y-115981913D01*
X104234284Y-115760757D01*
X104228189Y-115747687D01*
X104180700Y-115645845D01*
X104137523Y-115553251D01*
X104006198Y-115365700D01*
X103844300Y-115203802D01*
X103656749Y-115072477D01*
X103621662Y-115056116D01*
X103613655Y-115052382D01*
X103561215Y-115006210D01*
X103542063Y-114939017D01*
X103562278Y-114872136D01*
X103613655Y-114827618D01*
X103616882Y-114826112D01*
X103656749Y-114807523D01*
X103844300Y-114676198D01*
X104006198Y-114514300D01*
X104137523Y-114326749D01*
X104234284Y-114119243D01*
X104293543Y-113898087D01*
X104313498Y-113670000D01*
X104311463Y-113646745D01*
X104306473Y-113589703D01*
X104293543Y-113441913D01*
X104234284Y-113220757D01*
X104181721Y-113108035D01*
X104171230Y-113038962D01*
X104198557Y-112976597D01*
X104200359Y-112974419D01*
X104208203Y-112965799D01*
X104526215Y-112647787D01*
X104538580Y-112637883D01*
X104538406Y-112637673D01*
X104544412Y-112632703D01*
X104544418Y-112632700D01*
X104591106Y-112582980D01*
X104593755Y-112580247D01*
X104613535Y-112560469D01*
X104616070Y-112557199D01*
X104623659Y-112548315D01*
X104630753Y-112540761D01*
X104653986Y-112516021D01*
X104663820Y-112498130D01*
X104674498Y-112481874D01*
X104687014Y-112465740D01*
X104704609Y-112425078D01*
X104709750Y-112414585D01*
X104714638Y-112405695D01*
X104731095Y-112375760D01*
X104736174Y-112355974D01*
X104742472Y-112337582D01*
X104750581Y-112318845D01*
X104757513Y-112275072D01*
X104759878Y-112263653D01*
X104770900Y-112220730D01*
X104770900Y-112200315D01*
X104772427Y-112180914D01*
X104775620Y-112160757D01*
X104771450Y-112116642D01*
X104770900Y-112104973D01*
X104770900Y-109475532D01*
X104772639Y-109459780D01*
X104772368Y-109459755D01*
X104773100Y-109451999D01*
X104773102Y-109451992D01*
X104770961Y-109383868D01*
X104770900Y-109379973D01*
X104770900Y-109352047D01*
X104770900Y-109352044D01*
X104770382Y-109347947D01*
X104769465Y-109336298D01*
X104768348Y-109300750D01*
X104768074Y-109292011D01*
X104762374Y-109272392D01*
X104758431Y-109253346D01*
X104755874Y-109233104D01*
X104755874Y-109233103D01*
X104739556Y-109191890D01*
X104735786Y-109180875D01*
X104723419Y-109138307D01*
X104713020Y-109120724D01*
X104704466Y-109103263D01*
X104696952Y-109084283D01*
X104670908Y-109048437D01*
X104664498Y-109038678D01*
X104661857Y-109034212D01*
X104641942Y-109000538D01*
X104627508Y-108986104D01*
X104614871Y-108971309D01*
X104602872Y-108954793D01*
X104602869Y-108954791D01*
X104602869Y-108954790D01*
X104568725Y-108926543D01*
X104560085Y-108918681D01*
X103412519Y-107771114D01*
X103379034Y-107709791D01*
X103376200Y-107683433D01*
X103376200Y-107230104D01*
X103395885Y-107163065D01*
X103448689Y-107117310D01*
X103517847Y-107107366D01*
X103554002Y-107118384D01*
X103638169Y-107158917D01*
X103877346Y-107232694D01*
X103877352Y-107232696D01*
X104124843Y-107269999D01*
X104124852Y-107270000D01*
X104375148Y-107270000D01*
X104375156Y-107269999D01*
X104622647Y-107232696D01*
X104622653Y-107232694D01*
X104861833Y-107158916D01*
X105087334Y-107050322D01*
X105087344Y-107050315D01*
X105241595Y-106945148D01*
X104497533Y-106201086D01*
X104565629Y-106174126D01*
X104698492Y-106077595D01*
X104803175Y-105951055D01*
X104851631Y-105848079D01*
X105595197Y-106591645D01*
X105595198Y-106591644D01*
X105633690Y-106543379D01*
X105758836Y-106326618D01*
X105850279Y-106093626D01*
X105850285Y-106093607D01*
X105905978Y-105849599D01*
X105905978Y-105849597D01*
X105924683Y-105600004D01*
X105924683Y-105599995D01*
X105905978Y-105350402D01*
X105905978Y-105350400D01*
X105850285Y-105106392D01*
X105850279Y-105106373D01*
X105758836Y-104873381D01*
X105633688Y-104656618D01*
X105633681Y-104656607D01*
X105595199Y-104608354D01*
X105595198Y-104608353D01*
X104852546Y-105351004D01*
X104842812Y-105321044D01*
X104754814Y-105182381D01*
X104635097Y-105069960D01*
X104500488Y-104995957D01*
X105241595Y-104254850D01*
X105087335Y-104149678D01*
X105087334Y-104149677D01*
X105018308Y-104116437D01*
X104966448Y-104069615D01*
X104948135Y-104002188D01*
X104969182Y-103935564D01*
X105018306Y-103892998D01*
X105091604Y-103857700D01*
X105299462Y-103715984D01*
X105483878Y-103544872D01*
X105640731Y-103348184D01*
X105766517Y-103130316D01*
X105858427Y-102896134D01*
X105914407Y-102650869D01*
X105925229Y-102506454D01*
X105933207Y-102400004D01*
X105933207Y-102399995D01*
X105917655Y-102192469D01*
X105914407Y-102149131D01*
X105858427Y-101903866D01*
X105766517Y-101669684D01*
X105765893Y-101668604D01*
X105765788Y-101668170D01*
X105764502Y-101665499D01*
X105765073Y-101665223D01*
X105749418Y-101600706D01*
X105772267Y-101534678D01*
X105827186Y-101491485D01*
X105873278Y-101482600D01*
X107626722Y-101482600D01*
X107693761Y-101502285D01*
X107739516Y-101555089D01*
X107749460Y-101624247D01*
X107735226Y-101665368D01*
X107735498Y-101665499D01*
X107734372Y-101667837D01*
X107734106Y-101668603D01*
X107733670Y-101669359D01*
X107733481Y-101669687D01*
X107642205Y-101902256D01*
X107641574Y-101903865D01*
X107641570Y-101903877D01*
X107585592Y-102149133D01*
X107566793Y-102399995D01*
X107566793Y-102400004D01*
X107585592Y-102650866D01*
X107641570Y-102896122D01*
X107641573Y-102896134D01*
X107733483Y-103130316D01*
X107859269Y-103348184D01*
X108016122Y-103544872D01*
X108200538Y-103715984D01*
X108408397Y-103857700D01*
X108408400Y-103857701D01*
X108408401Y-103857702D01*
X108471897Y-103888280D01*
X108523756Y-103935102D01*
X108542069Y-104002529D01*
X108521021Y-104069153D01*
X108471897Y-104111720D01*
X108408401Y-104142297D01*
X108200537Y-104284016D01*
X108016123Y-104455126D01*
X108016122Y-104455128D01*
X107859269Y-104651816D01*
X107733483Y-104869683D01*
X107641575Y-105103860D01*
X107641570Y-105103877D01*
X107585592Y-105349133D01*
X107566793Y-105599995D01*
X107566793Y-105600004D01*
X107585592Y-105850866D01*
X107641304Y-106094957D01*
X107641573Y-106096134D01*
X107733483Y-106330316D01*
X107859269Y-106548184D01*
X108016122Y-106744872D01*
X108200538Y-106915984D01*
X108408397Y-107057700D01*
X108635055Y-107166853D01*
X108635064Y-107166855D01*
X108635067Y-107166857D01*
X108721192Y-107193422D01*
X108787282Y-107213808D01*
X108838414Y-107244618D01*
X111359451Y-109765656D01*
X111392936Y-109826979D01*
X111387952Y-109896671D01*
X111346080Y-109952604D01*
X111280616Y-109977021D01*
X111219366Y-109965719D01*
X111069243Y-109895716D01*
X111069240Y-109895715D01*
X111069238Y-109895714D01*
X110848089Y-109836457D01*
X110848081Y-109836456D01*
X110620002Y-109816502D01*
X110619998Y-109816502D01*
X110391918Y-109836456D01*
X110391910Y-109836457D01*
X110170761Y-109895714D01*
X110170750Y-109895718D01*
X109963254Y-109992475D01*
X109963252Y-109992476D01*
X109892856Y-110041767D01*
X109775700Y-110123802D01*
X109775698Y-110123803D01*
X109775695Y-110123806D01*
X109613806Y-110285695D01*
X109613803Y-110285698D01*
X109613802Y-110285700D01*
X109541433Y-110389054D01*
X109482476Y-110473252D01*
X109482475Y-110473254D01*
X109385718Y-110680750D01*
X109385714Y-110680761D01*
X109326457Y-110901910D01*
X109326456Y-110901918D01*
X109306502Y-111129998D01*
X109306502Y-111130001D01*
X109326456Y-111358081D01*
X109326457Y-111358089D01*
X109385714Y-111579238D01*
X109385718Y-111579249D01*
X109468413Y-111756588D01*
X109482477Y-111786749D01*
X109613802Y-111974300D01*
X109775700Y-112136198D01*
X109938075Y-112249895D01*
X109981700Y-112304472D01*
X109990706Y-112343679D01*
X109992775Y-112376549D01*
X109995379Y-112384563D01*
X110000470Y-112407337D01*
X110002504Y-112423434D01*
X109999245Y-112423845D01*
X109997350Y-112478663D01*
X109957567Y-112536101D01*
X109950775Y-112541212D01*
X109775699Y-112663802D01*
X109613806Y-112825695D01*
X109613803Y-112825698D01*
X109613802Y-112825700D01*
X109539354Y-112932022D01*
X109482476Y-113013252D01*
X109482475Y-113013254D01*
X109385718Y-113220750D01*
X109385714Y-113220761D01*
X109326457Y-113441910D01*
X109326456Y-113441918D01*
X109306502Y-113669998D01*
X109306502Y-113670001D01*
X109326456Y-113898081D01*
X109326457Y-113898089D01*
X109385714Y-114119238D01*
X109385718Y-114119249D01*
X109466573Y-114292642D01*
X109482477Y-114326749D01*
X109613802Y-114514300D01*
X109775700Y-114676198D01*
X109933625Y-114786779D01*
X109977249Y-114841354D01*
X109986500Y-114888352D01*
X109986500Y-114991647D01*
X109966815Y-115058686D01*
X109933624Y-115093221D01*
X109775699Y-115203802D01*
X109613806Y-115365695D01*
X109613803Y-115365698D01*
X109613802Y-115365700D01*
X109550254Y-115456456D01*
X109482476Y-115553252D01*
X109482475Y-115553254D01*
X109385718Y-115760750D01*
X109385714Y-115760761D01*
X109326457Y-115981910D01*
X109326456Y-115981918D01*
X109306502Y-116209998D01*
X109306502Y-116210001D01*
X109326456Y-116438081D01*
X109326457Y-116438089D01*
X109385714Y-116659238D01*
X109385718Y-116659249D01*
X109462330Y-116823543D01*
X109482477Y-116866749D01*
X109613802Y-117054300D01*
X109775700Y-117216198D01*
X109949396Y-117337821D01*
X109993019Y-117392396D01*
X110001293Y-117423851D01*
X110001525Y-117425693D01*
X110001527Y-117425701D01*
X110015195Y-117460222D01*
X110021571Y-117529800D01*
X109989317Y-117591780D01*
X109967394Y-117608955D01*
X109967686Y-117609372D01*
X109963252Y-117612476D01*
X109963251Y-117612477D01*
X109775700Y-117743802D01*
X109775698Y-117743803D01*
X109775695Y-117743806D01*
X109613806Y-117905695D01*
X109613803Y-117905698D01*
X109613802Y-117905700D01*
X109544158Y-118005162D01*
X109482476Y-118093252D01*
X109482475Y-118093254D01*
X109385718Y-118300750D01*
X109385714Y-118300761D01*
X109326457Y-118521910D01*
X109326456Y-118521918D01*
X109306502Y-118749998D01*
X109306502Y-118750001D01*
X109326456Y-118978081D01*
X109326457Y-118978089D01*
X109385714Y-119199238D01*
X109385718Y-119199249D01*
X109481988Y-119405700D01*
X109482477Y-119406749D01*
X109613802Y-119594300D01*
X109775700Y-119756198D01*
X109936181Y-119868568D01*
X109979805Y-119923145D01*
X109988995Y-119966243D01*
X109989326Y-119976788D01*
X109989327Y-119976791D01*
X109995022Y-119996395D01*
X109998967Y-120015442D01*
X110001526Y-120035697D01*
X110001527Y-120035700D01*
X110001528Y-120035704D01*
X110017838Y-120076900D01*
X110021621Y-120087949D01*
X110033981Y-120130492D01*
X110044372Y-120148062D01*
X110052932Y-120165535D01*
X110060447Y-120184517D01*
X110086491Y-120220363D01*
X110092905Y-120230127D01*
X110115456Y-120268259D01*
X110115458Y-120268262D01*
X110115462Y-120268266D01*
X110129889Y-120282693D01*
X110142526Y-120297488D01*
X110154528Y-120314007D01*
X110187207Y-120341042D01*
X110188668Y-120342250D01*
X110197309Y-120350113D01*
X110727015Y-120879819D01*
X110760500Y-120941142D01*
X110755516Y-121010834D01*
X110713644Y-121066767D01*
X110648180Y-121091184D01*
X110639334Y-121091500D01*
X110443288Y-121091500D01*
X110426485Y-121094304D01*
X110213045Y-121129920D01*
X109992280Y-121205710D01*
X109992266Y-121205716D01*
X109786988Y-121316806D01*
X109786985Y-121316808D01*
X109602781Y-121460181D01*
X109602776Y-121460185D01*
X109444686Y-121631916D01*
X109444684Y-121631918D01*
X109326096Y-121813430D01*
X109272950Y-121858786D01*
X109240622Y-121866241D01*
X109240918Y-121868106D01*
X109233208Y-121869327D01*
X109213605Y-121875022D01*
X109194559Y-121878966D01*
X109174303Y-121881526D01*
X109174301Y-121881526D01*
X109133107Y-121897835D01*
X109122064Y-121901616D01*
X109079504Y-121913982D01*
X109079503Y-121913983D01*
X109061924Y-121924378D01*
X109044464Y-121932932D01*
X109025484Y-121940447D01*
X109025482Y-121940448D01*
X108989645Y-121966485D01*
X108979885Y-121972896D01*
X108941738Y-121995456D01*
X108927296Y-122009898D01*
X108912508Y-122022527D01*
X108895997Y-122034523D01*
X108895992Y-122034528D01*
X108867752Y-122068663D01*
X108859892Y-122077301D01*
X105607014Y-125330181D01*
X105545691Y-125363666D01*
X105519333Y-125366500D01*
X104532500Y-125366500D01*
X104465461Y-125346815D01*
X104419706Y-125294011D01*
X104408500Y-125242500D01*
X104408500Y-125051362D01*
X104408499Y-125051345D01*
X104403688Y-125006605D01*
X104401989Y-124990799D01*
X104398800Y-124982250D01*
X104370740Y-124907018D01*
X104350889Y-124853796D01*
X104263261Y-124736739D01*
X104146204Y-124649111D01*
X104118983Y-124638958D01*
X104009203Y-124598011D01*
X103948654Y-124591500D01*
X103948638Y-124591500D01*
X102051362Y-124591500D01*
X102051345Y-124591500D01*
X101990797Y-124598011D01*
X101990795Y-124598011D01*
X101853795Y-124649111D01*
X101736739Y-124736739D01*
X101649111Y-124853795D01*
X101598011Y-124990795D01*
X101598011Y-124990797D01*
X101591500Y-125051345D01*
X101591500Y-126948654D01*
X101598011Y-127009202D01*
X101598011Y-127009204D01*
X101645873Y-127137523D01*
X101649111Y-127146204D01*
X101736739Y-127263261D01*
X101853796Y-127350889D01*
X101990799Y-127401989D01*
X102018050Y-127404918D01*
X102051345Y-127408499D01*
X102051362Y-127408500D01*
X103948638Y-127408500D01*
X103948654Y-127408499D01*
X103975692Y-127405591D01*
X104009201Y-127401989D01*
X104146204Y-127350889D01*
X104263261Y-127263261D01*
X104350889Y-127146204D01*
X104401989Y-127009201D01*
X104406664Y-126965714D01*
X104408499Y-126948654D01*
X104408500Y-126948637D01*
X104408500Y-126757500D01*
X104428185Y-126690461D01*
X104480989Y-126644706D01*
X104532500Y-126633500D01*
X105749466Y-126633500D01*
X105765213Y-126635238D01*
X105765239Y-126634968D01*
X105773005Y-126635701D01*
X105773009Y-126635702D01*
X105841117Y-126633560D01*
X105845013Y-126633500D01*
X105872958Y-126633500D01*
X105872960Y-126633499D01*
X105874362Y-126633322D01*
X105877049Y-126632983D01*
X105888708Y-126632064D01*
X105932989Y-126630673D01*
X105952581Y-126624980D01*
X105971638Y-126621032D01*
X105991897Y-126618474D01*
X106033106Y-126602157D01*
X106044143Y-126598379D01*
X106086693Y-126586018D01*
X106104265Y-126575625D01*
X106121732Y-126567068D01*
X106140717Y-126559552D01*
X106176561Y-126533508D01*
X106186330Y-126527092D01*
X106224462Y-126504542D01*
X106238902Y-126490100D01*
X106253692Y-126477470D01*
X106270207Y-126465472D01*
X106298459Y-126431319D01*
X106306303Y-126422699D01*
X109313154Y-123415848D01*
X109374475Y-123382365D01*
X109444167Y-123387349D01*
X109492062Y-123419548D01*
X109599119Y-123535841D01*
X109602780Y-123539818D01*
X109786983Y-123683190D01*
X109786985Y-123683191D01*
X109786988Y-123683193D01*
X109818045Y-123700000D01*
X109992273Y-123794287D01*
X110072762Y-123821919D01*
X110213045Y-123870079D01*
X110213047Y-123870079D01*
X110213049Y-123870080D01*
X110443288Y-123908500D01*
X110443289Y-123908500D01*
X110676711Y-123908500D01*
X110676712Y-123908500D01*
X110906951Y-123870080D01*
X111047238Y-123821918D01*
X111117035Y-123818769D01*
X111177456Y-123853855D01*
X111209317Y-123916037D01*
X111211500Y-123939200D01*
X111211500Y-124540200D01*
X111191815Y-124607239D01*
X111139011Y-124652994D01*
X111069853Y-124662938D01*
X111047238Y-124657482D01*
X110966951Y-124629919D01*
X110769636Y-124596994D01*
X110736712Y-124591500D01*
X110503288Y-124591500D01*
X110464270Y-124598011D01*
X110273045Y-124629920D01*
X110052280Y-124705710D01*
X110052266Y-124705716D01*
X109846988Y-124816806D01*
X109846985Y-124816808D01*
X109662781Y-124960181D01*
X109662776Y-124960185D01*
X109504686Y-125131915D01*
X109377015Y-125327331D01*
X109283251Y-125541092D01*
X109225948Y-125767377D01*
X109206673Y-125999994D01*
X109206673Y-126000005D01*
X109225948Y-126232622D01*
X109283251Y-126458907D01*
X109377015Y-126672668D01*
X109504686Y-126868084D01*
X109655536Y-127031949D01*
X109662780Y-127039818D01*
X109846983Y-127183190D01*
X109846985Y-127183191D01*
X109846988Y-127183193D01*
X109873137Y-127197344D01*
X110052273Y-127294287D01*
X110166914Y-127333643D01*
X110273045Y-127370079D01*
X110273047Y-127370079D01*
X110273049Y-127370080D01*
X110503288Y-127408500D01*
X110503289Y-127408500D01*
X110736711Y-127408500D01*
X110736712Y-127408500D01*
X110966951Y-127370080D01*
X110966954Y-127370079D01*
X111047237Y-127342518D01*
X111117035Y-127339368D01*
X111177457Y-127374454D01*
X111209317Y-127436636D01*
X111211500Y-127459799D01*
X111211500Y-134067500D01*
X111191815Y-134134539D01*
X111139011Y-134180294D01*
X111087500Y-134191500D01*
X109401345Y-134191500D01*
X109340797Y-134198011D01*
X109340795Y-134198011D01*
X109203795Y-134249111D01*
X109086739Y-134336739D01*
X108999111Y-134453795D01*
X108948011Y-134590795D01*
X108948011Y-134590797D01*
X108941500Y-134651345D01*
X108941500Y-135867500D01*
X108921815Y-135934539D01*
X108869011Y-135980294D01*
X108817500Y-135991500D01*
X106625763Y-135991500D01*
X106558724Y-135971815D01*
X106512969Y-135919011D01*
X106503025Y-135849853D01*
X106505988Y-135835407D01*
X106535139Y-135726610D01*
X106535141Y-135726599D01*
X106554966Y-135500002D01*
X106554966Y-135499997D01*
X106535141Y-135273400D01*
X106535139Y-135273389D01*
X106476269Y-135053682D01*
X106476264Y-135053668D01*
X106380136Y-134847521D01*
X106380132Y-134847513D01*
X106329025Y-134774526D01*
X105647953Y-135455597D01*
X105635165Y-135374852D01*
X105577641Y-135261955D01*
X105488045Y-135172359D01*
X105375148Y-135114835D01*
X105294401Y-135102046D01*
X105975472Y-134420974D01*
X105902478Y-134369863D01*
X105696331Y-134273735D01*
X105696317Y-134273730D01*
X105476610Y-134214860D01*
X105476599Y-134214858D01*
X105250002Y-134195034D01*
X105249998Y-134195034D01*
X105023400Y-134214858D01*
X105023389Y-134214860D01*
X104803682Y-134273730D01*
X104803673Y-134273734D01*
X104597516Y-134369866D01*
X104597512Y-134369868D01*
X104524526Y-134420973D01*
X104524526Y-134420974D01*
X105205599Y-135102046D01*
X105124852Y-135114835D01*
X105011955Y-135172359D01*
X104922359Y-135261955D01*
X104864835Y-135374852D01*
X104852046Y-135455599D01*
X104162910Y-134766463D01*
X104124805Y-134758804D01*
X104074623Y-134710188D01*
X104059965Y-134654600D01*
X104058959Y-134654653D01*
X104058856Y-134654665D01*
X104058855Y-134654659D01*
X104058677Y-134654669D01*
X104058499Y-134651345D01*
X104054143Y-134610833D01*
X104051989Y-134590799D01*
X104049134Y-134583145D01*
X104026898Y-134523528D01*
X104000889Y-134453796D01*
X103913261Y-134336739D01*
X103796204Y-134249111D01*
X103659203Y-134198011D01*
X103598654Y-134191500D01*
X103598638Y-134191500D01*
X101901362Y-134191500D01*
X101901345Y-134191500D01*
X101840797Y-134198011D01*
X101840795Y-134198011D01*
X101703795Y-134249111D01*
X101586739Y-134336739D01*
X101499111Y-134453795D01*
X101448011Y-134590795D01*
X101448011Y-134590797D01*
X101441500Y-134651345D01*
X101441500Y-136348654D01*
X101448011Y-136409202D01*
X101448011Y-136409204D01*
X101499111Y-136546204D01*
X101586739Y-136663261D01*
X101703796Y-136750889D01*
X101805248Y-136788729D01*
X101833361Y-136799215D01*
X101840799Y-136801989D01*
X101868050Y-136804918D01*
X101901345Y-136808499D01*
X101901362Y-136808500D01*
X103111234Y-136808500D01*
X103178273Y-136828185D01*
X103198915Y-136844819D01*
X103367910Y-137013814D01*
X103377816Y-137026178D01*
X103378026Y-137026005D01*
X103382997Y-137032013D01*
X103383000Y-137032018D01*
X103432701Y-137078690D01*
X103435465Y-137081369D01*
X103455230Y-137101134D01*
X103458504Y-137103673D01*
X103467370Y-137111247D01*
X103499678Y-137141586D01*
X103517567Y-137151420D01*
X103533833Y-137162104D01*
X103549959Y-137174613D01*
X103590616Y-137192207D01*
X103601107Y-137197346D01*
X103639940Y-137218695D01*
X103659718Y-137223773D01*
X103678119Y-137230073D01*
X103696855Y-137238181D01*
X103740630Y-137245113D01*
X103752045Y-137247478D01*
X103794970Y-137258500D01*
X103815384Y-137258500D01*
X103834783Y-137260027D01*
X103854943Y-137263220D01*
X103899057Y-137259050D01*
X103910726Y-137258500D01*
X113132357Y-137258500D01*
X113148104Y-137260238D01*
X113148130Y-137259968D01*
X113155896Y-137260701D01*
X113155900Y-137260702D01*
X113224008Y-137258560D01*
X113227904Y-137258500D01*
X113255849Y-137258500D01*
X113255851Y-137258499D01*
X113257253Y-137258322D01*
X113259940Y-137257983D01*
X113271599Y-137257064D01*
X113315880Y-137255673D01*
X113335472Y-137249980D01*
X113354529Y-137246032D01*
X113374788Y-137243474D01*
X113415997Y-137227157D01*
X113427034Y-137223379D01*
X113469584Y-137211018D01*
X113487156Y-137200625D01*
X113504623Y-137192068D01*
X113523608Y-137184552D01*
X113559452Y-137158508D01*
X113569221Y-137152092D01*
X113570357Y-137151420D01*
X113607353Y-137129542D01*
X113621793Y-137115100D01*
X113636583Y-137102470D01*
X113653098Y-137090472D01*
X113681350Y-137056319D01*
X113689194Y-137047699D01*
X114263815Y-136473078D01*
X114276180Y-136463174D01*
X114276006Y-136462964D01*
X114282009Y-136457996D01*
X114282018Y-136457991D01*
X114328677Y-136408302D01*
X114331356Y-136405537D01*
X114351134Y-136385761D01*
X114353660Y-136382503D01*
X114361246Y-136373620D01*
X114391586Y-136341312D01*
X114401423Y-136323415D01*
X114412097Y-136307165D01*
X114424613Y-136291032D01*
X114442207Y-136250371D01*
X114447341Y-136239891D01*
X114468695Y-136201051D01*
X114473774Y-136181265D01*
X114480072Y-136162873D01*
X114488181Y-136144136D01*
X114495112Y-136100366D01*
X114497476Y-136088953D01*
X114508500Y-136046021D01*
X114508500Y-136025600D01*
X114510027Y-136006200D01*
X114513219Y-135986048D01*
X114509050Y-135941940D01*
X114508500Y-135930272D01*
X114508500Y-135117641D01*
X114510239Y-135101889D01*
X114509968Y-135101864D01*
X114510700Y-135094108D01*
X114510702Y-135094101D01*
X114508561Y-135025977D01*
X114508500Y-135022082D01*
X114508500Y-134994156D01*
X114508500Y-134994153D01*
X114507982Y-134990056D01*
X114507065Y-134978407D01*
X114505674Y-134934122D01*
X114505674Y-134934120D01*
X114499974Y-134914501D01*
X114496031Y-134895455D01*
X114493474Y-134875213D01*
X114493474Y-134875212D01*
X114477156Y-134833999D01*
X114473386Y-134822984D01*
X114461019Y-134780416D01*
X114450620Y-134762833D01*
X114442066Y-134745372D01*
X114434552Y-134726392D01*
X114408508Y-134690546D01*
X114402098Y-134680787D01*
X114379543Y-134642649D01*
X114379542Y-134642647D01*
X114365108Y-134628213D01*
X114352471Y-134613418D01*
X114340472Y-134596902D01*
X114340469Y-134596900D01*
X114340469Y-134596899D01*
X114306325Y-134568652D01*
X114297685Y-134560790D01*
X113464819Y-133727923D01*
X113431334Y-133666600D01*
X113428500Y-133640242D01*
X113428500Y-130634561D01*
X113448185Y-130567522D01*
X113500989Y-130521767D01*
X113570147Y-130511823D01*
X113584582Y-130514783D01*
X113691913Y-130543543D01*
X113854832Y-130557796D01*
X113919998Y-130563498D01*
X113920000Y-130563498D01*
X113920002Y-130563498D01*
X113977021Y-130558509D01*
X114148087Y-130543543D01*
X114369243Y-130484284D01*
X114576749Y-130387523D01*
X114764300Y-130256198D01*
X114926198Y-130094300D01*
X115057523Y-129906749D01*
X115154284Y-129699243D01*
X115213543Y-129478087D01*
X115233498Y-129250000D01*
X115219384Y-129088682D01*
X115233150Y-129020186D01*
X115281765Y-128970003D01*
X115349794Y-128954069D01*
X115415638Y-128977444D01*
X115430593Y-128990197D01*
X117580181Y-131139785D01*
X117613666Y-131201108D01*
X117616500Y-131227466D01*
X117616500Y-134102330D01*
X117596815Y-134169369D01*
X117544011Y-134215124D01*
X117535835Y-134218511D01*
X117453795Y-134249111D01*
X117336739Y-134336739D01*
X117249111Y-134453795D01*
X117198011Y-134590795D01*
X117198011Y-134590797D01*
X117191500Y-134651345D01*
X117191500Y-136348654D01*
X117198011Y-136409202D01*
X117198011Y-136409204D01*
X117249111Y-136546204D01*
X117336739Y-136663261D01*
X117453796Y-136750889D01*
X117555248Y-136788729D01*
X117583361Y-136799215D01*
X117590799Y-136801989D01*
X117618050Y-136804918D01*
X117651345Y-136808499D01*
X117651362Y-136808500D01*
X118611234Y-136808500D01*
X118678273Y-136828185D01*
X118698915Y-136844819D01*
X120492910Y-138638814D01*
X120502816Y-138651178D01*
X120503026Y-138651005D01*
X120507997Y-138657013D01*
X120508000Y-138657018D01*
X120557701Y-138703690D01*
X120560465Y-138706369D01*
X120580230Y-138726134D01*
X120583504Y-138728673D01*
X120592370Y-138736247D01*
X120624678Y-138766586D01*
X120642567Y-138776420D01*
X120658833Y-138787104D01*
X120674959Y-138799613D01*
X120715616Y-138817207D01*
X120726107Y-138822346D01*
X120764940Y-138843695D01*
X120784718Y-138848773D01*
X120803119Y-138855073D01*
X120821855Y-138863181D01*
X120865630Y-138870113D01*
X120877045Y-138872478D01*
X120919970Y-138883500D01*
X120940384Y-138883500D01*
X120959783Y-138885027D01*
X120979943Y-138888220D01*
X121024057Y-138884050D01*
X121035726Y-138883500D01*
X124397500Y-138883500D01*
X124464539Y-138903185D01*
X124510294Y-138955989D01*
X124521500Y-139007500D01*
X124521500Y-139148654D01*
X124528011Y-139209202D01*
X124528011Y-139209204D01*
X124579111Y-139346204D01*
X124666739Y-139463261D01*
X124783796Y-139550889D01*
X124920799Y-139601989D01*
X124948050Y-139604918D01*
X124981345Y-139608499D01*
X124981362Y-139608500D01*
X126778638Y-139608500D01*
X126778654Y-139608499D01*
X126805692Y-139605591D01*
X126839201Y-139601989D01*
X126976204Y-139550889D01*
X127093261Y-139463261D01*
X127180889Y-139346204D01*
X127226138Y-139224887D01*
X127268009Y-139168956D01*
X127333474Y-139144539D01*
X127401746Y-139159391D01*
X127433545Y-139184236D01*
X127496760Y-139252906D01*
X127674424Y-139391189D01*
X127674425Y-139391189D01*
X127674427Y-139391191D01*
X127734314Y-139423600D01*
X127872426Y-139498342D01*
X128085365Y-139571444D01*
X128307431Y-139608500D01*
X128532569Y-139608500D01*
X128754635Y-139571444D01*
X128967574Y-139498342D01*
X129165576Y-139391189D01*
X129343240Y-139252906D01*
X129464594Y-139121082D01*
X129495715Y-139087276D01*
X129495715Y-139087275D01*
X129495722Y-139087268D01*
X129586193Y-138948790D01*
X129639338Y-138903437D01*
X129708569Y-138894013D01*
X129771905Y-138923515D01*
X129793804Y-138948787D01*
X129884278Y-139087268D01*
X129884283Y-139087273D01*
X129884284Y-139087276D01*
X130010968Y-139224889D01*
X130036760Y-139252906D01*
X130214424Y-139391189D01*
X130214425Y-139391189D01*
X130214427Y-139391191D01*
X130274314Y-139423600D01*
X130412426Y-139498342D01*
X130625365Y-139571444D01*
X130847431Y-139608500D01*
X131072569Y-139608500D01*
X131294635Y-139571444D01*
X131507574Y-139498342D01*
X131705576Y-139391189D01*
X131883240Y-139252906D01*
X132004594Y-139121082D01*
X132035715Y-139087276D01*
X132035715Y-139087275D01*
X132035722Y-139087268D01*
X132129749Y-138943347D01*
X132182894Y-138897994D01*
X132252125Y-138888570D01*
X132315461Y-138918072D01*
X132335130Y-138940048D01*
X132461890Y-139121078D01*
X132628917Y-139288105D01*
X132822421Y-139423600D01*
X133036507Y-139523429D01*
X133036516Y-139523433D01*
X133250000Y-139580634D01*
X133250000Y-138685501D01*
X133357685Y-138734680D01*
X133464237Y-138750000D01*
X133535763Y-138750000D01*
X133642315Y-138734680D01*
X133750000Y-138685501D01*
X133750000Y-139580633D01*
X133963483Y-139523433D01*
X133963492Y-139523429D01*
X134177578Y-139423600D01*
X134371082Y-139288105D01*
X134538105Y-139121082D01*
X134673600Y-138927578D01*
X134773429Y-138713492D01*
X134773432Y-138713486D01*
X134830636Y-138500000D01*
X133933686Y-138500000D01*
X133959493Y-138459844D01*
X134000000Y-138321889D01*
X134000000Y-138178111D01*
X133959493Y-138040156D01*
X133933686Y-138000000D01*
X134830636Y-138000000D01*
X134830635Y-137999999D01*
X134773432Y-137786513D01*
X134773429Y-137786507D01*
X134673600Y-137572422D01*
X134673599Y-137572420D01*
X134538113Y-137378926D01*
X134538108Y-137378920D01*
X134371082Y-137211894D01*
X134177578Y-137076399D01*
X133963492Y-136976570D01*
X133963486Y-136976567D01*
X133750000Y-136919364D01*
X133750000Y-137814498D01*
X133642315Y-137765320D01*
X133535763Y-137750000D01*
X133464237Y-137750000D01*
X133357685Y-137765320D01*
X133250000Y-137814498D01*
X133250000Y-136919364D01*
X133249999Y-136919364D01*
X133036513Y-136976567D01*
X133036507Y-136976570D01*
X132822422Y-137076399D01*
X132822420Y-137076400D01*
X132628926Y-137211886D01*
X132628920Y-137211891D01*
X132461891Y-137378920D01*
X132461890Y-137378922D01*
X132335131Y-137559952D01*
X132280554Y-137603577D01*
X132211055Y-137610769D01*
X132148701Y-137579247D01*
X132129752Y-137556656D01*
X132035722Y-137412732D01*
X132035715Y-137412725D01*
X132035715Y-137412723D01*
X131883243Y-137247097D01*
X131883239Y-137247093D01*
X131882302Y-137246364D01*
X131880836Y-137245223D01*
X131880107Y-137244210D01*
X131879464Y-137243618D01*
X131879585Y-137243485D01*
X131840022Y-137188515D01*
X131836345Y-137118742D01*
X131869313Y-137059689D01*
X132988815Y-135940187D01*
X133001180Y-135930283D01*
X133001006Y-135930073D01*
X133007009Y-135925105D01*
X133007018Y-135925100D01*
X133053677Y-135875411D01*
X133056356Y-135872646D01*
X133076134Y-135852870D01*
X133078660Y-135849612D01*
X133086246Y-135840729D01*
X133116586Y-135808421D01*
X133126423Y-135790524D01*
X133137097Y-135774274D01*
X133149613Y-135758141D01*
X133167207Y-135717480D01*
X133172341Y-135707000D01*
X133193695Y-135668160D01*
X133198774Y-135648374D01*
X133205072Y-135629982D01*
X133213181Y-135611245D01*
X133220113Y-135567472D01*
X133222478Y-135556053D01*
X133233500Y-135513130D01*
X133233500Y-135492715D01*
X133235027Y-135473314D01*
X133238220Y-135453157D01*
X133234050Y-135409042D01*
X133233500Y-135397373D01*
X133233500Y-133264465D01*
X133253185Y-133197426D01*
X133305989Y-133151671D01*
X133375147Y-133141727D01*
X133389587Y-133144688D01*
X133571913Y-133193543D01*
X133734832Y-133207796D01*
X133799998Y-133213498D01*
X133800000Y-133213498D01*
X133800002Y-133213498D01*
X133857021Y-133208509D01*
X134028087Y-133193543D01*
X134249243Y-133134284D01*
X134456749Y-133037523D01*
X134644300Y-132906198D01*
X134806198Y-132744300D01*
X134937523Y-132556749D01*
X134967065Y-132493393D01*
X135013233Y-132440957D01*
X135044850Y-132426723D01*
X135050867Y-132424975D01*
X135069908Y-132421032D01*
X135090167Y-132418474D01*
X135131376Y-132402157D01*
X135142413Y-132398379D01*
X135184963Y-132386018D01*
X135202535Y-132375625D01*
X135220002Y-132367068D01*
X135238987Y-132359552D01*
X135274831Y-132333508D01*
X135284600Y-132327092D01*
X135284938Y-132326892D01*
X135322732Y-132304542D01*
X135337172Y-132290100D01*
X135351962Y-132277470D01*
X135368477Y-132265472D01*
X135396729Y-132231319D01*
X135404573Y-132222699D01*
X137613470Y-130013803D01*
X137674789Y-129980321D01*
X137744481Y-129985305D01*
X137800414Y-130027177D01*
X137820922Y-130069393D01*
X137855714Y-130199237D01*
X137855718Y-130199249D01*
X137915013Y-130326407D01*
X137952477Y-130406749D01*
X138083802Y-130594300D01*
X138245700Y-130756198D01*
X138433251Y-130887523D01*
X138472230Y-130905699D01*
X138640750Y-130984281D01*
X138640752Y-130984281D01*
X138640757Y-130984284D01*
X138861913Y-131043543D01*
X139024832Y-131057796D01*
X139089998Y-131063498D01*
X139090000Y-131063498D01*
X139090002Y-131063498D01*
X139147021Y-131058509D01*
X139318087Y-131043543D01*
X139539243Y-130984284D01*
X139746749Y-130887523D01*
X139934300Y-130756198D01*
X140096198Y-130594300D01*
X140227523Y-130406749D01*
X140324284Y-130199243D01*
X140383543Y-129978087D01*
X140403498Y-129750000D01*
X140383543Y-129521913D01*
X140324284Y-129300757D01*
X140227523Y-129093251D01*
X140096198Y-128905700D01*
X139934300Y-128743802D01*
X139746749Y-128612477D01*
X139743335Y-128610885D01*
X139539249Y-128515718D01*
X139539237Y-128515714D01*
X139409394Y-128480922D01*
X139349733Y-128444556D01*
X139319205Y-128381709D01*
X139327500Y-128312334D01*
X139353804Y-128273469D01*
X139478817Y-128148456D01*
X139491178Y-128138555D01*
X139491004Y-128138345D01*
X139497014Y-128133372D01*
X139497018Y-128133370D01*
X139499150Y-128131100D01*
X139543659Y-128083702D01*
X139546373Y-128080901D01*
X139555307Y-128071967D01*
X139566135Y-128061140D01*
X139568672Y-128057868D01*
X139576251Y-128048994D01*
X139606586Y-128016691D01*
X139616419Y-127998802D01*
X139627102Y-127982539D01*
X139639614Y-127966411D01*
X139657207Y-127925751D01*
X139662350Y-127915255D01*
X139683693Y-127876434D01*
X139683693Y-127876433D01*
X139683695Y-127876430D01*
X139688774Y-127856643D01*
X139695070Y-127838255D01*
X139703181Y-127819515D01*
X139710113Y-127775742D01*
X139712478Y-127764323D01*
X139723500Y-127721400D01*
X139723500Y-127718352D01*
X139724175Y-127716051D01*
X139724478Y-127713658D01*
X139724864Y-127713706D01*
X139743185Y-127651313D01*
X139776373Y-127616779D01*
X139934300Y-127506198D01*
X140096198Y-127344300D01*
X140227523Y-127156749D01*
X140324284Y-126949243D01*
X140383543Y-126728087D01*
X140401128Y-126527092D01*
X140403498Y-126500001D01*
X140403498Y-126499998D01*
X140393451Y-126385165D01*
X140383543Y-126271913D01*
X140324284Y-126050757D01*
X140312590Y-126025680D01*
X140250001Y-125891456D01*
X140227523Y-125843251D01*
X140096198Y-125655700D01*
X139934300Y-125493802D01*
X139746749Y-125362477D01*
X139746745Y-125362475D01*
X139539249Y-125265718D01*
X139539238Y-125265714D01*
X139318089Y-125206457D01*
X139318081Y-125206456D01*
X139090002Y-125186502D01*
X139089998Y-125186502D01*
X138861918Y-125206456D01*
X138861910Y-125206457D01*
X138640761Y-125265714D01*
X138640750Y-125265718D01*
X138433254Y-125362475D01*
X138433252Y-125362476D01*
X138419845Y-125371864D01*
X138245700Y-125493802D01*
X138245698Y-125493803D01*
X138245695Y-125493806D01*
X138083806Y-125655695D01*
X138083803Y-125655698D01*
X138083802Y-125655700D01*
X138049452Y-125704757D01*
X137952476Y-125843252D01*
X137952475Y-125843254D01*
X137855718Y-126050750D01*
X137855714Y-126050761D01*
X137796457Y-126271910D01*
X137796456Y-126271918D01*
X137776502Y-126499998D01*
X137776502Y-126500001D01*
X137796456Y-126728081D01*
X137796457Y-126728089D01*
X137855714Y-126949238D01*
X137855718Y-126949249D01*
X137943512Y-127137523D01*
X137952477Y-127156749D01*
X138083802Y-127344300D01*
X138083806Y-127344304D01*
X138199802Y-127460300D01*
X138233287Y-127521623D01*
X138228303Y-127591315D01*
X138199802Y-127635662D01*
X138023299Y-127812164D01*
X137961976Y-127845649D01*
X137892284Y-127840665D01*
X137836351Y-127798793D01*
X137815842Y-127756571D01*
X137814286Y-127750765D01*
X137814285Y-127750761D01*
X137814284Y-127750757D01*
X137806603Y-127734286D01*
X137754794Y-127623179D01*
X137717523Y-127543251D01*
X137586198Y-127355700D01*
X137424300Y-127193802D01*
X137236749Y-127062477D01*
X137236745Y-127062475D01*
X137029249Y-126965718D01*
X137029238Y-126965714D01*
X136808089Y-126906457D01*
X136808081Y-126906456D01*
X136580002Y-126886502D01*
X136579998Y-126886502D01*
X136351918Y-126906456D01*
X136351910Y-126906457D01*
X136130761Y-126965714D01*
X136130750Y-126965718D01*
X135923254Y-127062475D01*
X135923252Y-127062476D01*
X135923251Y-127062477D01*
X135735700Y-127193802D01*
X135735698Y-127193803D01*
X135735695Y-127193806D01*
X135573806Y-127355695D01*
X135573803Y-127355698D01*
X135573802Y-127355700D01*
X135541391Y-127401988D01*
X135442476Y-127543252D01*
X135442475Y-127543254D01*
X135345718Y-127750750D01*
X135345714Y-127750761D01*
X135286457Y-127971910D01*
X135286456Y-127971918D01*
X135266502Y-128199998D01*
X135266502Y-128200001D01*
X135286456Y-128428081D01*
X135286457Y-128428089D01*
X135345714Y-128649238D01*
X135345718Y-128649249D01*
X135442475Y-128856745D01*
X135442477Y-128856749D01*
X135573802Y-129044300D01*
X135735700Y-129206198D01*
X135923251Y-129337523D01*
X136048091Y-129395736D01*
X136130750Y-129434281D01*
X136130751Y-129434281D01*
X136130757Y-129434284D01*
X136133633Y-129435054D01*
X136136571Y-129435842D01*
X136196233Y-129472204D01*
X136226765Y-129535049D01*
X136218474Y-129604425D01*
X136192164Y-129643299D01*
X134880662Y-130954802D01*
X134819339Y-130988287D01*
X134749647Y-130983303D01*
X134705300Y-130954802D01*
X134644304Y-130893806D01*
X134644303Y-130893805D01*
X134644300Y-130893802D01*
X134456749Y-130762477D01*
X134443273Y-130756193D01*
X134249249Y-130665718D01*
X134249238Y-130665714D01*
X134028089Y-130606457D01*
X134028081Y-130606456D01*
X133800002Y-130586502D01*
X133799998Y-130586502D01*
X133571918Y-130606456D01*
X133571907Y-130606458D01*
X133389593Y-130655309D01*
X133319743Y-130653646D01*
X133261881Y-130614483D01*
X133234377Y-130550255D01*
X133233500Y-130535534D01*
X133233500Y-125704757D01*
X133253185Y-125637718D01*
X133269819Y-125617076D01*
X134705354Y-124181541D01*
X136195817Y-122691077D01*
X136208178Y-122681176D01*
X136208004Y-122680966D01*
X136214013Y-122675993D01*
X136214018Y-122675991D01*
X136260690Y-122626288D01*
X136263339Y-122623555D01*
X136283135Y-122603761D01*
X136285672Y-122600489D01*
X136293251Y-122591615D01*
X136323586Y-122559312D01*
X136333419Y-122541423D01*
X136344102Y-122525160D01*
X136356614Y-122509032D01*
X136374207Y-122468372D01*
X136379350Y-122457876D01*
X136400693Y-122419055D01*
X136400693Y-122419054D01*
X136400695Y-122419051D01*
X136405774Y-122399264D01*
X136412070Y-122380876D01*
X136420181Y-122362136D01*
X136427113Y-122318363D01*
X136429478Y-122306944D01*
X136440500Y-122264021D01*
X136440500Y-122243606D01*
X136442027Y-122224205D01*
X136445220Y-122204048D01*
X136441050Y-122159933D01*
X136440500Y-122148264D01*
X136440500Y-108904281D01*
X136460185Y-108837242D01*
X136512989Y-108791487D01*
X136582147Y-108781543D01*
X136645703Y-108810568D01*
X136664819Y-108831397D01*
X136676492Y-108847464D01*
X136682905Y-108857227D01*
X136705458Y-108895362D01*
X136705462Y-108895366D01*
X136719889Y-108909793D01*
X136732526Y-108924588D01*
X136744528Y-108941107D01*
X136761068Y-108954790D01*
X136778668Y-108969350D01*
X136787309Y-108977213D01*
X139586210Y-111776114D01*
X139619695Y-111837437D01*
X139614711Y-111907129D01*
X139572839Y-111963062D01*
X139507375Y-111987479D01*
X139466436Y-111983570D01*
X139396610Y-111964860D01*
X139396599Y-111964858D01*
X139170002Y-111945034D01*
X139169998Y-111945034D01*
X138943400Y-111964858D01*
X138943389Y-111964860D01*
X138723682Y-112023730D01*
X138723673Y-112023734D01*
X138517516Y-112119866D01*
X138517512Y-112119868D01*
X138444526Y-112170973D01*
X138444526Y-112170974D01*
X139125599Y-112852046D01*
X139044852Y-112864835D01*
X138931955Y-112922359D01*
X138842359Y-113011955D01*
X138784835Y-113124852D01*
X138772046Y-113205598D01*
X138090974Y-112524526D01*
X138090973Y-112524526D01*
X138039868Y-112597512D01*
X138039866Y-112597516D01*
X137943734Y-112803673D01*
X137943730Y-112803682D01*
X137884860Y-113023389D01*
X137884858Y-113023400D01*
X137865034Y-113249997D01*
X137865034Y-113250002D01*
X137884858Y-113476599D01*
X137884860Y-113476610D01*
X137943730Y-113696317D01*
X137943735Y-113696331D01*
X138039863Y-113902478D01*
X138090974Y-113975472D01*
X138772046Y-113294400D01*
X138784835Y-113375148D01*
X138842359Y-113488045D01*
X138931955Y-113577641D01*
X139044852Y-113635165D01*
X139125597Y-113647953D01*
X138444526Y-114329025D01*
X138517513Y-114380132D01*
X138517521Y-114380136D01*
X138723668Y-114476264D01*
X138723682Y-114476269D01*
X138943389Y-114535139D01*
X138943400Y-114535141D01*
X139169998Y-114554966D01*
X139170002Y-114554966D01*
X139396599Y-114535141D01*
X139396606Y-114535140D01*
X139576606Y-114486909D01*
X139646456Y-114488572D01*
X139704319Y-114527734D01*
X139731823Y-114591963D01*
X139732700Y-114606684D01*
X139732700Y-115160032D01*
X139713015Y-115227071D01*
X139696381Y-115247713D01*
X139502429Y-115441664D01*
X139441106Y-115475149D01*
X139382655Y-115473758D01*
X139318087Y-115456457D01*
X139318085Y-115456456D01*
X139318081Y-115456456D01*
X139090002Y-115436502D01*
X139089998Y-115436502D01*
X138861918Y-115456456D01*
X138861910Y-115456457D01*
X138640761Y-115515714D01*
X138640750Y-115515718D01*
X138433254Y-115612475D01*
X138433252Y-115612476D01*
X138376885Y-115651945D01*
X138245700Y-115743802D01*
X138245698Y-115743803D01*
X138245695Y-115743806D01*
X138083806Y-115905695D01*
X138083803Y-115905698D01*
X138083802Y-115905700D01*
X138018146Y-115999466D01*
X137952476Y-116093252D01*
X137952475Y-116093254D01*
X137855718Y-116300750D01*
X137855714Y-116300761D01*
X137796457Y-116521910D01*
X137796456Y-116521918D01*
X137776502Y-116749998D01*
X137776502Y-116750001D01*
X137796456Y-116978081D01*
X137796458Y-116978091D01*
X137813758Y-117042655D01*
X137812095Y-117112504D01*
X137781664Y-117162429D01*
X137526179Y-117417914D01*
X137513820Y-117427818D01*
X137513993Y-117428027D01*
X137507982Y-117433000D01*
X137461337Y-117482670D01*
X137458632Y-117485461D01*
X137438873Y-117505221D01*
X137438858Y-117505238D01*
X137436317Y-117508513D01*
X137428753Y-117517367D01*
X137398420Y-117549671D01*
X137398412Y-117549681D01*
X137388579Y-117567567D01*
X137377903Y-117583820D01*
X137365386Y-117599957D01*
X137365385Y-117599960D01*
X137347785Y-117640629D01*
X137342648Y-117651115D01*
X137321303Y-117689941D01*
X137321303Y-117689942D01*
X137316225Y-117709720D01*
X137309925Y-117728122D01*
X137301818Y-117746857D01*
X137294888Y-117790609D01*
X137292520Y-117802045D01*
X137281500Y-117844965D01*
X137281500Y-117865384D01*
X137279972Y-117884783D01*
X137276780Y-117904943D01*
X137277742Y-117915121D01*
X137280950Y-117949057D01*
X137281500Y-117960726D01*
X137281500Y-121991366D01*
X137279761Y-122007113D01*
X137280032Y-122007139D01*
X137279298Y-122014905D01*
X137279298Y-122014908D01*
X137279298Y-122014909D01*
X137279637Y-122025683D01*
X137281439Y-122083016D01*
X137281500Y-122086912D01*
X137281500Y-122114859D01*
X137282018Y-122118958D01*
X137282934Y-122130598D01*
X137284326Y-122174889D01*
X137284327Y-122174891D01*
X137290022Y-122194495D01*
X137293967Y-122213542D01*
X137296526Y-122233797D01*
X137296527Y-122233800D01*
X137296528Y-122233804D01*
X137312838Y-122275000D01*
X137316621Y-122286049D01*
X137328981Y-122328592D01*
X137339372Y-122346162D01*
X137347932Y-122363635D01*
X137355447Y-122382617D01*
X137381491Y-122418463D01*
X137387905Y-122428227D01*
X137410458Y-122466362D01*
X137410462Y-122466366D01*
X137424889Y-122480793D01*
X137437526Y-122495588D01*
X137449528Y-122512107D01*
X137465299Y-122525154D01*
X137483668Y-122540350D01*
X137492309Y-122548213D01*
X137781664Y-122837569D01*
X137815149Y-122898892D01*
X137813758Y-122957343D01*
X137796458Y-123021907D01*
X137796456Y-123021918D01*
X137776502Y-123249998D01*
X137776502Y-123250001D01*
X137796456Y-123478081D01*
X137796457Y-123478089D01*
X137855714Y-123699238D01*
X137855718Y-123699249D01*
X137950257Y-123901988D01*
X137952477Y-123906749D01*
X138083802Y-124094300D01*
X138245700Y-124256198D01*
X138433251Y-124387523D01*
X138558091Y-124445736D01*
X138640750Y-124484281D01*
X138640752Y-124484281D01*
X138640757Y-124484284D01*
X138861913Y-124543543D01*
X139024832Y-124557796D01*
X139089998Y-124563498D01*
X139090000Y-124563498D01*
X139090002Y-124563498D01*
X139147021Y-124558509D01*
X139318087Y-124543543D01*
X139539243Y-124484284D01*
X139746749Y-124387523D01*
X139934300Y-124256198D01*
X140096198Y-124094300D01*
X140227523Y-123906749D01*
X140324284Y-123699243D01*
X140383543Y-123478087D01*
X140403498Y-123250000D01*
X140399688Y-123206457D01*
X140392549Y-123124852D01*
X140383543Y-123021913D01*
X140324284Y-122800757D01*
X140227523Y-122593251D01*
X140096198Y-122405700D01*
X139934300Y-122243802D01*
X139746749Y-122112477D01*
X139746745Y-122112475D01*
X139539249Y-122015718D01*
X139539238Y-122015714D01*
X139318089Y-121956457D01*
X139318081Y-121956456D01*
X139090002Y-121936502D01*
X139089998Y-121936502D01*
X138861918Y-121956456D01*
X138861907Y-121956458D01*
X138797343Y-121973758D01*
X138727493Y-121972095D01*
X138677569Y-121941664D01*
X138584819Y-121848914D01*
X138551334Y-121787591D01*
X138548500Y-121761233D01*
X138548500Y-121371164D01*
X138568185Y-121304125D01*
X138620989Y-121258370D01*
X138690147Y-121248426D01*
X138704590Y-121251388D01*
X138861913Y-121293543D01*
X139024832Y-121307796D01*
X139089998Y-121313498D01*
X139090000Y-121313498D01*
X139090002Y-121313498D01*
X139149013Y-121308335D01*
X139318087Y-121293543D01*
X139382657Y-121276241D01*
X139452506Y-121277904D01*
X139502431Y-121308335D01*
X143626781Y-125432685D01*
X143660266Y-125494008D01*
X143663100Y-125520366D01*
X143663100Y-125958641D01*
X143643415Y-126025680D01*
X143631250Y-126041613D01*
X143557563Y-126123450D01*
X143557558Y-126123457D01*
X143462073Y-126288843D01*
X143462070Y-126288850D01*
X143403059Y-126470468D01*
X143403058Y-126470472D01*
X143383096Y-126660400D01*
X143403058Y-126850328D01*
X143403059Y-126850331D01*
X143462070Y-127031949D01*
X143462073Y-127031956D01*
X143557560Y-127197344D01*
X143685347Y-127339266D01*
X143839848Y-127451518D01*
X144014312Y-127529194D01*
X144014317Y-127529195D01*
X144020492Y-127531202D01*
X144019975Y-127532790D01*
X144074144Y-127562022D01*
X144107931Y-127623179D01*
X144103292Y-127692895D01*
X144074578Y-127737817D01*
X139939818Y-131872575D01*
X139878495Y-131906060D01*
X139808803Y-131901076D01*
X139781014Y-131886469D01*
X139746753Y-131862480D01*
X139746749Y-131862477D01*
X139746745Y-131862475D01*
X139539249Y-131765718D01*
X139539238Y-131765714D01*
X139318089Y-131706457D01*
X139318081Y-131706456D01*
X139090002Y-131686502D01*
X139089998Y-131686502D01*
X138861918Y-131706456D01*
X138861910Y-131706457D01*
X138640761Y-131765714D01*
X138640750Y-131765718D01*
X138433254Y-131862475D01*
X138433252Y-131862476D01*
X138398987Y-131886469D01*
X138245700Y-131993802D01*
X138245698Y-131993803D01*
X138245695Y-131993806D01*
X138083806Y-132155695D01*
X138083803Y-132155698D01*
X138083802Y-132155700D01*
X138034138Y-132226627D01*
X137952476Y-132343252D01*
X137952475Y-132343254D01*
X137855718Y-132550750D01*
X137855714Y-132550761D01*
X137796457Y-132771910D01*
X137796456Y-132771918D01*
X137776502Y-132999998D01*
X137776502Y-133000001D01*
X137796456Y-133228081D01*
X137796457Y-133228089D01*
X137855714Y-133449238D01*
X137855718Y-133449249D01*
X137944780Y-133640242D01*
X137952477Y-133656749D01*
X138083802Y-133844300D01*
X138245700Y-134006198D01*
X138433251Y-134137523D01*
X138549006Y-134191500D01*
X138640750Y-134234281D01*
X138640752Y-134234281D01*
X138640757Y-134234284D01*
X138861913Y-134293543D01*
X139024832Y-134307796D01*
X139089998Y-134313498D01*
X139090000Y-134313498D01*
X139090002Y-134313498D01*
X139147021Y-134308509D01*
X139318087Y-134293543D01*
X139539243Y-134234284D01*
X139746749Y-134137523D01*
X139934300Y-134006198D01*
X140096198Y-133844300D01*
X140227523Y-133656749D01*
X140324284Y-133449243D01*
X140377662Y-133250033D01*
X140409754Y-133194448D01*
X147931313Y-125672890D01*
X147992634Y-125639407D01*
X148062326Y-125644391D01*
X148118259Y-125686263D01*
X148142676Y-125751727D01*
X148127824Y-125820000D01*
X148120569Y-125831694D01*
X148112477Y-125843250D01*
X148112475Y-125843254D01*
X148015718Y-126050750D01*
X148015714Y-126050761D01*
X147956457Y-126271910D01*
X147956456Y-126271918D01*
X147936502Y-126499998D01*
X147936502Y-126500001D01*
X147956456Y-126728081D01*
X147956457Y-126728089D01*
X148015714Y-126949238D01*
X148015718Y-126949249D01*
X148103512Y-127137523D01*
X148112477Y-127156749D01*
X148243802Y-127344300D01*
X148405700Y-127506198D01*
X148593251Y-127637523D01*
X148644514Y-127661427D01*
X148800750Y-127734281D01*
X148800752Y-127734281D01*
X148800757Y-127734284D01*
X148942015Y-127772134D01*
X149001676Y-127808499D01*
X149032205Y-127871346D01*
X149023910Y-127940721D01*
X148997603Y-127979590D01*
X148861179Y-128116014D01*
X148848820Y-128125918D01*
X148848993Y-128126127D01*
X148842982Y-128131100D01*
X148796337Y-128180770D01*
X148793632Y-128183561D01*
X148773873Y-128203321D01*
X148773858Y-128203338D01*
X148771317Y-128206613D01*
X148763753Y-128215467D01*
X148733420Y-128247771D01*
X148733412Y-128247781D01*
X148723579Y-128265667D01*
X148712903Y-128281920D01*
X148700386Y-128298057D01*
X148700385Y-128298060D01*
X148682785Y-128338729D01*
X148677648Y-128349215D01*
X148656303Y-128388041D01*
X148656303Y-128388042D01*
X148651225Y-128407820D01*
X148644925Y-128426222D01*
X148636818Y-128444957D01*
X148629888Y-128488709D01*
X148627520Y-128500145D01*
X148616499Y-128543069D01*
X148616023Y-128546842D01*
X148614827Y-128549582D01*
X148614560Y-128550625D01*
X148614391Y-128550581D01*
X148588089Y-128610885D01*
X148564125Y-128632870D01*
X148405699Y-128743802D01*
X148243806Y-128905695D01*
X148243803Y-128905698D01*
X148243802Y-128905700D01*
X148163638Y-129020186D01*
X148112476Y-129093252D01*
X148112475Y-129093254D01*
X148015718Y-129300750D01*
X148015714Y-129300761D01*
X147956457Y-129521910D01*
X147956456Y-129521918D01*
X147936502Y-129749998D01*
X147936502Y-129750001D01*
X147956456Y-129978081D01*
X147956457Y-129978089D01*
X148015714Y-130199238D01*
X148015718Y-130199249D01*
X148075013Y-130326407D01*
X148112477Y-130406749D01*
X148243802Y-130594300D01*
X148405700Y-130756198D01*
X148593251Y-130887523D01*
X148632230Y-130905699D01*
X148800750Y-130984281D01*
X148800752Y-130984281D01*
X148800757Y-130984284D01*
X149021913Y-131043543D01*
X149242091Y-131062806D01*
X149307160Y-131088258D01*
X149348139Y-131144849D01*
X149352017Y-131214611D01*
X149331601Y-131259220D01*
X149328961Y-131262852D01*
X149233473Y-131428243D01*
X149233470Y-131428250D01*
X149172450Y-131616052D01*
X149169953Y-131615240D01*
X149142282Y-131666451D01*
X149081107Y-131700206D01*
X149065024Y-131702685D01*
X149021917Y-131706456D01*
X149021910Y-131706457D01*
X148800761Y-131765714D01*
X148800750Y-131765718D01*
X148593254Y-131862475D01*
X148593252Y-131862476D01*
X148558987Y-131886469D01*
X148405700Y-131993802D01*
X148405698Y-131993803D01*
X148405695Y-131993806D01*
X148243806Y-132155695D01*
X148243803Y-132155698D01*
X148243802Y-132155700D01*
X148194138Y-132226627D01*
X148112476Y-132343252D01*
X148112475Y-132343254D01*
X148015718Y-132550750D01*
X148015714Y-132550761D01*
X147956457Y-132771910D01*
X147956456Y-132771918D01*
X147936502Y-132999998D01*
X147936502Y-133000001D01*
X147956456Y-133228081D01*
X147956457Y-133228089D01*
X148015714Y-133449238D01*
X148015718Y-133449249D01*
X148104780Y-133640242D01*
X148112477Y-133656749D01*
X148243802Y-133844300D01*
X148405700Y-134006198D01*
X148593251Y-134137523D01*
X148709006Y-134191500D01*
X148800750Y-134234281D01*
X148800752Y-134234281D01*
X148800757Y-134234284D01*
X149021913Y-134293543D01*
X149184832Y-134307796D01*
X149249998Y-134313498D01*
X149250000Y-134313498D01*
X149250002Y-134313498D01*
X149307021Y-134308509D01*
X149478087Y-134293543D01*
X149699243Y-134234284D01*
X149906749Y-134137523D01*
X150094300Y-134006198D01*
X150256198Y-133844300D01*
X150387523Y-133656749D01*
X150484284Y-133449243D01*
X150543543Y-133228087D01*
X150563498Y-133000000D01*
X150543543Y-132771913D01*
X150521943Y-132691301D01*
X150523606Y-132621452D01*
X150562768Y-132563589D01*
X150568788Y-132558923D01*
X150679253Y-132478666D01*
X150683160Y-132474327D01*
X150742646Y-132437679D01*
X150775309Y-132433300D01*
X152241766Y-132433300D01*
X152257513Y-132435038D01*
X152257539Y-132434768D01*
X152265305Y-132435501D01*
X152265309Y-132435502D01*
X152333417Y-132433360D01*
X152337313Y-132433300D01*
X152365258Y-132433300D01*
X152365260Y-132433299D01*
X152366662Y-132433122D01*
X152369349Y-132432783D01*
X152381008Y-132431864D01*
X152425289Y-132430473D01*
X152444881Y-132424780D01*
X152463938Y-132420832D01*
X152484197Y-132418274D01*
X152525406Y-132401957D01*
X152536443Y-132398179D01*
X152578993Y-132385818D01*
X152596565Y-132375425D01*
X152614032Y-132366868D01*
X152633017Y-132359352D01*
X152668861Y-132333308D01*
X152678630Y-132326892D01*
X152716420Y-132304544D01*
X152716762Y-132304342D01*
X152731202Y-132289900D01*
X152745992Y-132277270D01*
X152762507Y-132265272D01*
X152790759Y-132231119D01*
X152798603Y-132222499D01*
X156271102Y-128750001D01*
X157436502Y-128750001D01*
X157456456Y-128978081D01*
X157456457Y-128978089D01*
X157515714Y-129199238D01*
X157515718Y-129199249D01*
X157580197Y-129337524D01*
X157612477Y-129406749D01*
X157743802Y-129594300D01*
X157905700Y-129756198D01*
X158093251Y-129887523D01*
X158134482Y-129906749D01*
X158300750Y-129984281D01*
X158300752Y-129984281D01*
X158300757Y-129984284D01*
X158521913Y-130043543D01*
X158684832Y-130057796D01*
X158749998Y-130063498D01*
X158750000Y-130063498D01*
X158750002Y-130063498D01*
X158807021Y-130058509D01*
X158978087Y-130043543D01*
X159199243Y-129984284D01*
X159406749Y-129887523D01*
X159594300Y-129756198D01*
X159756198Y-129594300D01*
X159887523Y-129406749D01*
X159984284Y-129199243D01*
X160043543Y-128978087D01*
X160063498Y-128750000D01*
X160043543Y-128521913D01*
X159984284Y-128300757D01*
X159983026Y-128298060D01*
X159937301Y-128200001D01*
X159887523Y-128093251D01*
X159756198Y-127905700D01*
X159594300Y-127743802D01*
X159406749Y-127612477D01*
X159361367Y-127591315D01*
X159199249Y-127515718D01*
X159199238Y-127515714D01*
X158978089Y-127456457D01*
X158978081Y-127456456D01*
X158750002Y-127436502D01*
X158749998Y-127436502D01*
X158521918Y-127456456D01*
X158521910Y-127456457D01*
X158300761Y-127515714D01*
X158300750Y-127515718D01*
X158093254Y-127612475D01*
X158093252Y-127612476D01*
X158038936Y-127650509D01*
X157905700Y-127743802D01*
X157905698Y-127743803D01*
X157905695Y-127743806D01*
X157743806Y-127905695D01*
X157743803Y-127905698D01*
X157743802Y-127905700D01*
X157666769Y-128015714D01*
X157612476Y-128093252D01*
X157612475Y-128093254D01*
X157515718Y-128300750D01*
X157515714Y-128300761D01*
X157456457Y-128521910D01*
X157456456Y-128521918D01*
X157436502Y-128749998D01*
X157436502Y-128750001D01*
X156271102Y-128750001D01*
X156638917Y-128382186D01*
X156651278Y-128372285D01*
X156651104Y-128372075D01*
X156657113Y-128367102D01*
X156657118Y-128367100D01*
X156703790Y-128317397D01*
X156706439Y-128314664D01*
X156726235Y-128294870D01*
X156728772Y-128291598D01*
X156736351Y-128282724D01*
X156766686Y-128250421D01*
X156776519Y-128232532D01*
X156787202Y-128216269D01*
X156799714Y-128200141D01*
X156817307Y-128159481D01*
X156822450Y-128148985D01*
X156843793Y-128110164D01*
X156843793Y-128110163D01*
X156843795Y-128110160D01*
X156848874Y-128090373D01*
X156855170Y-128071985D01*
X156863281Y-128053245D01*
X156870213Y-128009472D01*
X156872578Y-127998053D01*
X156883600Y-127955130D01*
X156883600Y-127934715D01*
X156885127Y-127915314D01*
X156888320Y-127895157D01*
X156884150Y-127851042D01*
X156883600Y-127839373D01*
X156883600Y-124000001D01*
X157436502Y-124000001D01*
X157456456Y-124228081D01*
X157456457Y-124228089D01*
X157515714Y-124449238D01*
X157515718Y-124449249D01*
X157607358Y-124645772D01*
X157612477Y-124656749D01*
X157743802Y-124844300D01*
X157905700Y-125006198D01*
X158093251Y-125137523D01*
X158198620Y-125186657D01*
X158300750Y-125234281D01*
X158300752Y-125234281D01*
X158300757Y-125234284D01*
X158521913Y-125293543D01*
X158684832Y-125307796D01*
X158749998Y-125313498D01*
X158750000Y-125313498D01*
X158750002Y-125313498D01*
X158807021Y-125308509D01*
X158978087Y-125293543D01*
X159199243Y-125234284D01*
X159406749Y-125137523D01*
X159594300Y-125006198D01*
X159756198Y-124844300D01*
X159887523Y-124656749D01*
X159984284Y-124449243D01*
X160043543Y-124228087D01*
X160063498Y-124000000D01*
X160062571Y-123989409D01*
X160051818Y-123866500D01*
X160043543Y-123771913D01*
X159984284Y-123550757D01*
X159966170Y-123511912D01*
X159928960Y-123432113D01*
X159887523Y-123343251D01*
X159756198Y-123155700D01*
X159594300Y-122993802D01*
X159406749Y-122862477D01*
X159396432Y-122857666D01*
X159199249Y-122765718D01*
X159199238Y-122765714D01*
X158978089Y-122706457D01*
X158978081Y-122706456D01*
X158750002Y-122686502D01*
X158749998Y-122686502D01*
X158521918Y-122706456D01*
X158521910Y-122706457D01*
X158300761Y-122765714D01*
X158300750Y-122765718D01*
X158093254Y-122862475D01*
X158093252Y-122862476D01*
X158093251Y-122862477D01*
X157905700Y-122993802D01*
X157905698Y-122993803D01*
X157905695Y-122993806D01*
X157743806Y-123155695D01*
X157743803Y-123155698D01*
X157743802Y-123155700D01*
X157686458Y-123237595D01*
X157612476Y-123343252D01*
X157612475Y-123343254D01*
X157515718Y-123550750D01*
X157515714Y-123550761D01*
X157456457Y-123771910D01*
X157456456Y-123771918D01*
X157436502Y-123999998D01*
X157436502Y-124000001D01*
X156883600Y-124000001D01*
X156883600Y-119413665D01*
X156903285Y-119346626D01*
X156919914Y-119325989D01*
X158297298Y-117948604D01*
X158358619Y-117915121D01*
X158428311Y-117920105D01*
X158484244Y-117961977D01*
X158508661Y-118027441D01*
X158508505Y-118047091D01*
X158506502Y-118069993D01*
X158506502Y-118070001D01*
X158526456Y-118298081D01*
X158526457Y-118298089D01*
X158585714Y-118519238D01*
X158585718Y-118519249D01*
X158680487Y-118722482D01*
X158682477Y-118726749D01*
X158813802Y-118914300D01*
X158975700Y-119076198D01*
X159163251Y-119207523D01*
X159288091Y-119265736D01*
X159370750Y-119304281D01*
X159370752Y-119304281D01*
X159370757Y-119304284D01*
X159591913Y-119363543D01*
X159754832Y-119377796D01*
X159819998Y-119383498D01*
X159820000Y-119383498D01*
X159820002Y-119383498D01*
X159877021Y-119378509D01*
X160048087Y-119363543D01*
X160269243Y-119304284D01*
X160476749Y-119207523D01*
X160664300Y-119076198D01*
X160826198Y-118914300D01*
X160957523Y-118726749D01*
X161054284Y-118519243D01*
X161113543Y-118298087D01*
X161133498Y-118070000D01*
X161133497Y-118069993D01*
X161123938Y-117960726D01*
X161113543Y-117841913D01*
X161098740Y-117786669D01*
X161096241Y-117777341D01*
X161097904Y-117707491D01*
X161128333Y-117657569D01*
X161787819Y-116998084D01*
X161849142Y-116964599D01*
X161918834Y-116969583D01*
X161974767Y-117011455D01*
X161999184Y-117076919D01*
X161999500Y-117085765D01*
X161999500Y-139875500D01*
X161979815Y-139942539D01*
X161927011Y-139988294D01*
X161875500Y-139999500D01*
X100124500Y-139999500D01*
X100057461Y-139979815D01*
X100011706Y-139927011D01*
X100000500Y-139875500D01*
X100000500Y-123448654D01*
X101531500Y-123448654D01*
X101538011Y-123509202D01*
X101538011Y-123509204D01*
X101569753Y-123594304D01*
X101589111Y-123646204D01*
X101676739Y-123763261D01*
X101793796Y-123850889D01*
X101930799Y-123901989D01*
X101958050Y-123904918D01*
X101991345Y-123908499D01*
X101991362Y-123908500D01*
X103888638Y-123908500D01*
X103888654Y-123908499D01*
X103915692Y-123905591D01*
X103949201Y-123901989D01*
X104086204Y-123850889D01*
X104203261Y-123763261D01*
X104290889Y-123646204D01*
X104341989Y-123509201D01*
X104345591Y-123475692D01*
X104348499Y-123448654D01*
X104348500Y-123448637D01*
X104348500Y-123197187D01*
X104368185Y-123130148D01*
X104420989Y-123084393D01*
X104434173Y-123079259D01*
X104438775Y-123077764D01*
X104445885Y-123073251D01*
X104466684Y-123062652D01*
X104474517Y-123059552D01*
X104520004Y-123026502D01*
X104526421Y-123022141D01*
X104573918Y-122992000D01*
X104579689Y-122985853D01*
X104597194Y-122970421D01*
X104604007Y-122965472D01*
X104639870Y-122922119D01*
X104644970Y-122916335D01*
X104683486Y-122875321D01*
X104687542Y-122867940D01*
X104700659Y-122848638D01*
X104706033Y-122842144D01*
X104729981Y-122791249D01*
X104733488Y-122784365D01*
X104760595Y-122735060D01*
X104762690Y-122726897D01*
X104770601Y-122704929D01*
X104774183Y-122697318D01*
X104784722Y-122642065D01*
X104786408Y-122634522D01*
X104800400Y-122580030D01*
X104800400Y-122571605D01*
X104802596Y-122548374D01*
X104804175Y-122540094D01*
X104804175Y-122540091D01*
X104800645Y-122483984D01*
X104800400Y-122476198D01*
X104800400Y-121904066D01*
X104820085Y-121837027D01*
X104836719Y-121816385D01*
X107819586Y-118833519D01*
X107880909Y-118800034D01*
X107907267Y-118797200D01*
X107963987Y-118797200D01*
X108150788Y-118757494D01*
X108325252Y-118679818D01*
X108479753Y-118567566D01*
X108607540Y-118425644D01*
X108703027Y-118260256D01*
X108762042Y-118078628D01*
X108782004Y-117888700D01*
X108762042Y-117698772D01*
X108705092Y-117523498D01*
X108703029Y-117517150D01*
X108703028Y-117517149D01*
X108703027Y-117517144D01*
X108607540Y-117351756D01*
X108479753Y-117209834D01*
X108325252Y-117097582D01*
X108150788Y-117019906D01*
X108150786Y-117019905D01*
X107963987Y-116980200D01*
X107773013Y-116980200D01*
X107586214Y-117019905D01*
X107411746Y-117097583D01*
X107257245Y-117209835D01*
X107129459Y-117351757D01*
X107033973Y-117517143D01*
X107033970Y-117517150D01*
X106977827Y-117689941D01*
X106974958Y-117698772D01*
X106959913Y-117841918D01*
X106957519Y-117864695D01*
X106930934Y-117929309D01*
X106921879Y-117939414D01*
X103806114Y-121055181D01*
X103744791Y-121088666D01*
X103718433Y-121091500D01*
X101991345Y-121091500D01*
X101930797Y-121098011D01*
X101930795Y-121098011D01*
X101793795Y-121149111D01*
X101676739Y-121236739D01*
X101589111Y-121353795D01*
X101538011Y-121490795D01*
X101538011Y-121490797D01*
X101531500Y-121551345D01*
X101531500Y-123448654D01*
X100000500Y-123448654D01*
X100000500Y-100124500D01*
X100020185Y-100057461D01*
X100072989Y-100011706D01*
X100124500Y-100000500D01*
X103396203Y-100000500D01*
X103463242Y-100020185D01*
G37*
%TD.AperFunction*%
%TA.AperFunction,Conductor*%
G36*
X115885603Y-125435053D02*
G01*
X115892080Y-125441084D01*
X121710215Y-131259220D01*
X127510683Y-137059688D01*
X127544168Y-137121011D01*
X127539184Y-137190703D01*
X127500428Y-137243501D01*
X127500536Y-137243618D01*
X127499939Y-137244166D01*
X127499166Y-137245221D01*
X127496763Y-137247090D01*
X127496762Y-137247092D01*
X127496760Y-137247093D01*
X127496760Y-137247094D01*
X127486736Y-137257983D01*
X127433548Y-137315760D01*
X127373661Y-137351750D01*
X127303823Y-137349649D01*
X127246207Y-137310124D01*
X127226138Y-137275110D01*
X127180889Y-137153796D01*
X127162734Y-137129544D01*
X127093261Y-137036739D01*
X126976204Y-136949111D01*
X126963126Y-136944233D01*
X126839203Y-136898011D01*
X126778654Y-136891500D01*
X126778638Y-136891500D01*
X124981362Y-136891500D01*
X124981345Y-136891500D01*
X124920797Y-136898011D01*
X124920795Y-136898011D01*
X124783795Y-136949111D01*
X124666739Y-137036739D01*
X124579111Y-137153795D01*
X124528011Y-137290795D01*
X124528011Y-137290797D01*
X124521500Y-137351345D01*
X124521500Y-137492500D01*
X124501815Y-137559539D01*
X124449011Y-137605294D01*
X124397500Y-137616500D01*
X121313767Y-137616500D01*
X121246728Y-137596815D01*
X121226086Y-137580181D01*
X120632967Y-136987062D01*
X120599482Y-136925739D01*
X120604466Y-136856047D01*
X120646338Y-136800114D01*
X120711802Y-136775697D01*
X120752744Y-136779607D01*
X120773389Y-136785139D01*
X120773400Y-136785141D01*
X120999998Y-136804966D01*
X121000002Y-136804966D01*
X121226599Y-136785141D01*
X121226610Y-136785139D01*
X121446317Y-136726269D01*
X121446331Y-136726264D01*
X121652478Y-136630136D01*
X121725471Y-136579024D01*
X121044400Y-135897953D01*
X121125148Y-135885165D01*
X121238045Y-135827641D01*
X121327641Y-135738045D01*
X121385165Y-135625148D01*
X121397953Y-135544400D01*
X122079024Y-136225471D01*
X122130136Y-136152478D01*
X122226264Y-135946331D01*
X122226269Y-135946317D01*
X122285139Y-135726610D01*
X122285141Y-135726599D01*
X122304966Y-135500002D01*
X122304966Y-135499997D01*
X122285141Y-135273400D01*
X122285139Y-135273389D01*
X122226269Y-135053682D01*
X122226264Y-135053668D01*
X122130136Y-134847521D01*
X122130132Y-134847513D01*
X122079025Y-134774526D01*
X121397953Y-135455598D01*
X121385165Y-135374852D01*
X121327641Y-135261955D01*
X121238045Y-135172359D01*
X121125148Y-135114835D01*
X121044401Y-135102046D01*
X121725472Y-134420974D01*
X121652478Y-134369863D01*
X121446331Y-134273735D01*
X121446317Y-134273730D01*
X121226610Y-134214860D01*
X121226599Y-134214858D01*
X121000002Y-134195034D01*
X120999998Y-134195034D01*
X120773400Y-134214858D01*
X120773389Y-134214860D01*
X120553682Y-134273730D01*
X120553673Y-134273734D01*
X120347516Y-134369866D01*
X120347512Y-134369868D01*
X120274526Y-134420973D01*
X120274526Y-134420974D01*
X120955599Y-135102046D01*
X120874852Y-135114835D01*
X120761955Y-135172359D01*
X120672359Y-135261955D01*
X120614835Y-135374852D01*
X120602046Y-135455599D01*
X119912910Y-134766463D01*
X119874805Y-134758804D01*
X119824623Y-134710188D01*
X119809965Y-134654600D01*
X119808959Y-134654653D01*
X119808856Y-134654665D01*
X119808855Y-134654659D01*
X119808677Y-134654669D01*
X119808499Y-134651345D01*
X119804143Y-134610833D01*
X119801989Y-134590799D01*
X119799134Y-134583145D01*
X119776898Y-134523528D01*
X119750889Y-134453796D01*
X119663261Y-134336739D01*
X119546204Y-134249111D01*
X119409203Y-134198011D01*
X119348654Y-134191500D01*
X119348638Y-134191500D01*
X119007500Y-134191500D01*
X118940461Y-134171815D01*
X118894706Y-134119011D01*
X118883500Y-134067500D01*
X118883500Y-130997326D01*
X118885238Y-130981581D01*
X118884967Y-130981556D01*
X118885701Y-130973793D01*
X118883561Y-130905699D01*
X118883500Y-130901804D01*
X118883500Y-130873850D01*
X118883500Y-130873844D01*
X118882980Y-130869731D01*
X118882064Y-130858089D01*
X118880673Y-130813809D01*
X118874979Y-130794214D01*
X118871032Y-130775157D01*
X118868474Y-130754903D01*
X118852165Y-130713711D01*
X118848380Y-130702658D01*
X118836018Y-130660106D01*
X118825625Y-130642533D01*
X118817063Y-130625055D01*
X118809552Y-130606083D01*
X118809550Y-130606080D01*
X118809549Y-130606078D01*
X118783512Y-130570241D01*
X118777098Y-130560478D01*
X118765074Y-130540146D01*
X118754542Y-130522337D01*
X118740108Y-130507903D01*
X118727469Y-130493106D01*
X118721060Y-130484284D01*
X118715472Y-130476593D01*
X118681336Y-130448353D01*
X118672696Y-130440491D01*
X115716719Y-127484514D01*
X115683234Y-127423191D01*
X115680400Y-127396833D01*
X115680400Y-125528766D01*
X115700085Y-125461727D01*
X115752889Y-125415972D01*
X115822047Y-125406028D01*
X115885603Y-125435053D01*
G37*
%TD.AperFunction*%
%TA.AperFunction,Conductor*%
G36*
X150665912Y-123535841D02*
G01*
X150719790Y-123580326D01*
X150741065Y-123646878D01*
X150741100Y-123649829D01*
X150741100Y-126067332D01*
X150721415Y-126134371D01*
X150668611Y-126180126D01*
X150599453Y-126190070D01*
X150535897Y-126161045D01*
X150498123Y-126102267D01*
X150497325Y-126099426D01*
X150484285Y-126050761D01*
X150484281Y-126050750D01*
X150410001Y-125891456D01*
X150387523Y-125843251D01*
X150256198Y-125655700D01*
X150094300Y-125493802D01*
X149906749Y-125362477D01*
X149906745Y-125362475D01*
X149699249Y-125265718D01*
X149699238Y-125265714D01*
X149478089Y-125206457D01*
X149478081Y-125206456D01*
X149250002Y-125186502D01*
X149249998Y-125186502D01*
X149021918Y-125206456D01*
X149021910Y-125206457D01*
X148800761Y-125265714D01*
X148800750Y-125265718D01*
X148593254Y-125362475D01*
X148593252Y-125362476D01*
X148405698Y-125493803D01*
X148339272Y-125560230D01*
X148277948Y-125593714D01*
X148208257Y-125588729D01*
X148152323Y-125546858D01*
X148127907Y-125481393D01*
X148137794Y-125423292D01*
X148138721Y-125421150D01*
X148143850Y-125410685D01*
X148165193Y-125371864D01*
X148165193Y-125371863D01*
X148165195Y-125371860D01*
X148170274Y-125352073D01*
X148176570Y-125333685D01*
X148184681Y-125314945D01*
X148191613Y-125271172D01*
X148193978Y-125259753D01*
X148205000Y-125216830D01*
X148205000Y-125196415D01*
X148206527Y-125177014D01*
X148209720Y-125156857D01*
X148205550Y-125112742D01*
X148205000Y-125101073D01*
X148205000Y-124342571D01*
X148224685Y-124275532D01*
X148277489Y-124229777D01*
X148346647Y-124219833D01*
X148406669Y-124246670D01*
X148406750Y-124246556D01*
X148407346Y-124246973D01*
X148408707Y-124247582D01*
X148411185Y-124249661D01*
X148597517Y-124380134D01*
X148803673Y-124476265D01*
X148803682Y-124476269D01*
X148999999Y-124528872D01*
X149000000Y-124528871D01*
X149000000Y-123565686D01*
X149011955Y-123577641D01*
X149124852Y-123635165D01*
X149218519Y-123650000D01*
X149281481Y-123650000D01*
X149375148Y-123635165D01*
X149488045Y-123577641D01*
X149500000Y-123565686D01*
X149500000Y-124528872D01*
X149696317Y-124476269D01*
X149696326Y-124476265D01*
X149902482Y-124380134D01*
X150088820Y-124249657D01*
X150249657Y-124088820D01*
X150380134Y-123902482D01*
X150476265Y-123696326D01*
X150476269Y-123696317D01*
X150497325Y-123617736D01*
X150533690Y-123558075D01*
X150596537Y-123527546D01*
X150665912Y-123535841D01*
G37*
%TD.AperFunction*%
%TA.AperFunction,Conductor*%
G36*
X146202767Y-101736685D02*
G01*
X146248522Y-101789489D01*
X146258466Y-101858647D01*
X146243116Y-101902999D01*
X146233482Y-101919685D01*
X146143293Y-102149483D01*
X146141574Y-102153865D01*
X146141570Y-102153877D01*
X146085592Y-102399133D01*
X146066793Y-102649995D01*
X146066793Y-102650004D01*
X146085592Y-102900866D01*
X146141570Y-103146122D01*
X146141573Y-103146134D01*
X146233483Y-103380316D01*
X146359269Y-103598184D01*
X146516122Y-103794872D01*
X146516123Y-103794873D01*
X146522469Y-103800761D01*
X146700538Y-103965984D01*
X146908397Y-104107700D01*
X146908400Y-104107701D01*
X146908401Y-104107702D01*
X146971897Y-104138280D01*
X147023756Y-104185102D01*
X147042069Y-104252529D01*
X147021021Y-104319153D01*
X146971897Y-104361720D01*
X146908401Y-104392297D01*
X146700537Y-104534016D01*
X146516123Y-104705126D01*
X146516122Y-104705128D01*
X146359269Y-104901816D01*
X146233483Y-105119683D01*
X146141575Y-105353860D01*
X146141570Y-105353877D01*
X146085592Y-105599133D01*
X146066793Y-105849995D01*
X146066793Y-105850004D01*
X146085592Y-106100866D01*
X146139148Y-106335510D01*
X146141573Y-106346134D01*
X146233483Y-106580316D01*
X146359269Y-106798184D01*
X146516122Y-106994872D01*
X146700538Y-107165984D01*
X146908397Y-107307700D01*
X147135055Y-107416853D01*
X147375451Y-107491005D01*
X147375452Y-107491005D01*
X147375455Y-107491006D01*
X147624206Y-107528499D01*
X147624211Y-107528499D01*
X147624214Y-107528500D01*
X147624215Y-107528500D01*
X147875785Y-107528500D01*
X147875786Y-107528500D01*
X147875793Y-107528499D01*
X148124544Y-107491006D01*
X148124545Y-107491005D01*
X148124549Y-107491005D01*
X148336351Y-107425672D01*
X148406211Y-107424723D01*
X148460578Y-107456482D01*
X149590204Y-108586109D01*
X150716012Y-109711917D01*
X150725916Y-109724278D01*
X150726126Y-109724105D01*
X150731097Y-109730113D01*
X150731100Y-109730118D01*
X150780785Y-109776775D01*
X150783549Y-109779454D01*
X150803323Y-109799229D01*
X150803327Y-109799232D01*
X150803330Y-109799235D01*
X150806612Y-109801781D01*
X150815472Y-109809349D01*
X150847779Y-109839686D01*
X150852383Y-109844009D01*
X150887778Y-109904250D01*
X150891500Y-109934402D01*
X150891500Y-111298654D01*
X150898011Y-111359202D01*
X150898011Y-111359204D01*
X150935687Y-111460213D01*
X150949111Y-111496204D01*
X151036739Y-111613261D01*
X151153796Y-111700889D01*
X151232226Y-111730142D01*
X151290793Y-111751987D01*
X151290799Y-111751989D01*
X151305499Y-111753569D01*
X151370048Y-111780305D01*
X151409897Y-111837696D01*
X151412393Y-111907521D01*
X151376742Y-111967611D01*
X151363377Y-111978425D01*
X151355700Y-111983802D01*
X151355696Y-111983805D01*
X151193806Y-112145695D01*
X151193803Y-112145698D01*
X151193802Y-112145700D01*
X151124242Y-112245042D01*
X151062476Y-112333252D01*
X151062475Y-112333254D01*
X150965718Y-112540750D01*
X150965714Y-112540761D01*
X150906457Y-112761910D01*
X150906456Y-112761918D01*
X150886502Y-112989998D01*
X150886502Y-112990001D01*
X150906456Y-113218081D01*
X150906457Y-113218089D01*
X150965714Y-113439238D01*
X150965718Y-113439249D01*
X151039518Y-113597513D01*
X151062477Y-113646749D01*
X151193802Y-113834300D01*
X151355700Y-113996198D01*
X151528540Y-114117222D01*
X151543251Y-114127523D01*
X151586345Y-114147618D01*
X151638784Y-114193791D01*
X151657936Y-114260984D01*
X151637720Y-114327865D01*
X151586345Y-114372382D01*
X151543251Y-114392476D01*
X151423591Y-114476264D01*
X151355700Y-114523802D01*
X151355698Y-114523803D01*
X151355695Y-114523806D01*
X151193806Y-114685695D01*
X151193803Y-114685698D01*
X151193802Y-114685700D01*
X151134858Y-114769881D01*
X151062476Y-114873252D01*
X151062475Y-114873254D01*
X150965718Y-115080750D01*
X150965714Y-115080761D01*
X150906457Y-115301910D01*
X150906456Y-115301918D01*
X150886502Y-115529998D01*
X150886502Y-115530001D01*
X150906456Y-115758081D01*
X150906457Y-115758089D01*
X150965714Y-115979238D01*
X150965718Y-115979249D01*
X151062475Y-116186745D01*
X151062477Y-116186749D01*
X151193802Y-116374300D01*
X151355700Y-116536198D01*
X151469969Y-116616210D01*
X151543251Y-116667523D01*
X151596401Y-116692307D01*
X151648840Y-116738479D01*
X151667992Y-116805673D01*
X151647776Y-116872554D01*
X151596401Y-116917071D01*
X151547517Y-116939865D01*
X151361179Y-117070342D01*
X151200342Y-117231179D01*
X151069865Y-117417517D01*
X150973734Y-117623673D01*
X150973730Y-117623682D01*
X150921127Y-117819999D01*
X150921128Y-117820000D01*
X151884314Y-117820000D01*
X151872359Y-117831955D01*
X151814835Y-117944852D01*
X151795014Y-118070000D01*
X151814835Y-118195148D01*
X151872359Y-118308045D01*
X151884314Y-118320000D01*
X150921128Y-118320000D01*
X150973730Y-118516317D01*
X150973734Y-118516326D01*
X151069865Y-118722482D01*
X151200342Y-118908820D01*
X151361179Y-119069657D01*
X151547517Y-119200134D01*
X151753673Y-119296265D01*
X151753682Y-119296269D01*
X151949999Y-119348872D01*
X151950000Y-119348871D01*
X151950000Y-118385686D01*
X151961955Y-118397641D01*
X152074852Y-118455165D01*
X152168519Y-118470000D01*
X152231481Y-118470000D01*
X152325148Y-118455165D01*
X152438045Y-118397641D01*
X152450000Y-118385686D01*
X152450000Y-119348872D01*
X152646317Y-119296269D01*
X152646326Y-119296265D01*
X152852482Y-119200134D01*
X153038820Y-119069657D01*
X153199657Y-118908820D01*
X153330134Y-118722482D01*
X153426265Y-118516326D01*
X153426269Y-118516317D01*
X153478872Y-118320000D01*
X152515686Y-118320000D01*
X152527641Y-118308045D01*
X152585165Y-118195148D01*
X152604986Y-118070000D01*
X152585165Y-117944852D01*
X152527641Y-117831955D01*
X152515686Y-117820000D01*
X153478872Y-117820000D01*
X153478872Y-117819999D01*
X153426269Y-117623682D01*
X153426265Y-117623673D01*
X153330134Y-117417517D01*
X153199657Y-117231179D01*
X153038820Y-117070342D01*
X152852481Y-116939865D01*
X152852479Y-116939864D01*
X152803599Y-116917071D01*
X152751159Y-116870899D01*
X152732007Y-116803706D01*
X152752223Y-116736824D01*
X152803599Y-116692307D01*
X152856749Y-116667523D01*
X153044300Y-116536198D01*
X153206198Y-116374300D01*
X153337523Y-116186749D01*
X153434284Y-115979243D01*
X153493543Y-115758087D01*
X153511464Y-115553251D01*
X153513498Y-115530001D01*
X153513498Y-115529998D01*
X153507064Y-115456456D01*
X153493543Y-115301913D01*
X153434284Y-115080757D01*
X153430825Y-115073340D01*
X153367017Y-114936502D01*
X153337523Y-114873251D01*
X153206198Y-114685700D01*
X153044300Y-114523802D01*
X152856749Y-114392477D01*
X152830283Y-114380136D01*
X152813655Y-114372382D01*
X152761215Y-114326210D01*
X152742063Y-114259017D01*
X152762278Y-114192136D01*
X152813655Y-114147618D01*
X152822713Y-114143394D01*
X152856749Y-114127523D01*
X153044300Y-113996198D01*
X153206198Y-113834300D01*
X153337523Y-113646749D01*
X153434284Y-113439243D01*
X153493543Y-113218087D01*
X153511577Y-113011955D01*
X153513498Y-112990001D01*
X153513498Y-112989998D01*
X153501889Y-112857305D01*
X153493543Y-112761913D01*
X153434284Y-112540757D01*
X153426715Y-112524526D01*
X153375449Y-112414585D01*
X153337523Y-112333251D01*
X153206198Y-112145700D01*
X153044300Y-111983802D01*
X153036627Y-111978429D01*
X152993006Y-111923853D01*
X152985814Y-111854355D01*
X153017338Y-111792001D01*
X153077568Y-111756588D01*
X153094489Y-111753570D01*
X153109201Y-111751989D01*
X153246204Y-111700889D01*
X153363261Y-111613261D01*
X153450889Y-111496204D01*
X153501989Y-111359201D01*
X153507063Y-111312008D01*
X153508499Y-111298654D01*
X153508500Y-111298637D01*
X153508500Y-109938666D01*
X153528185Y-109871627D01*
X153580989Y-109825872D01*
X153650147Y-109815928D01*
X153713703Y-109844953D01*
X153720179Y-109850983D01*
X154853273Y-110984078D01*
X155978012Y-112108817D01*
X155987916Y-112121178D01*
X155988126Y-112121005D01*
X155993097Y-112127013D01*
X155993100Y-112127018D01*
X156042785Y-112173675D01*
X156045549Y-112176354D01*
X156065323Y-112196129D01*
X156065327Y-112196132D01*
X156065330Y-112196135D01*
X156068612Y-112198681D01*
X156077472Y-112206249D01*
X156109779Y-112236586D01*
X156109781Y-112236587D01*
X156127662Y-112246417D01*
X156143929Y-112257102D01*
X156160060Y-112269615D01*
X156170807Y-112274265D01*
X156200725Y-112287210D01*
X156211204Y-112292344D01*
X156250040Y-112313695D01*
X156269816Y-112318772D01*
X156288223Y-112325074D01*
X156306955Y-112333181D01*
X156350730Y-112340113D01*
X156362145Y-112342478D01*
X156405070Y-112353500D01*
X156425484Y-112353500D01*
X156444883Y-112355027D01*
X156465043Y-112358220D01*
X156509157Y-112354050D01*
X156520826Y-112353500D01*
X158478395Y-112353500D01*
X158545434Y-112373185D01*
X158591189Y-112425989D01*
X158601133Y-112495147D01*
X158590777Y-112529903D01*
X158589577Y-112532477D01*
X158585716Y-112540755D01*
X158585714Y-112540761D01*
X158526457Y-112761910D01*
X158526456Y-112761918D01*
X158506502Y-112989998D01*
X158506502Y-112990001D01*
X158526456Y-113218081D01*
X158526457Y-113218089D01*
X158585714Y-113439238D01*
X158585718Y-113439249D01*
X158659518Y-113597513D01*
X158682477Y-113646749D01*
X158792357Y-113803673D01*
X158799915Y-113814467D01*
X158822242Y-113880674D01*
X158805232Y-113948441D01*
X158786021Y-113973272D01*
X150985779Y-121773514D01*
X150973420Y-121783418D01*
X150973593Y-121783627D01*
X150967582Y-121788600D01*
X150920938Y-121838269D01*
X150918233Y-121841060D01*
X150898473Y-121860821D01*
X150898458Y-121860838D01*
X150895917Y-121864113D01*
X150888353Y-121872967D01*
X150858020Y-121905271D01*
X150858012Y-121905281D01*
X150848179Y-121923167D01*
X150837503Y-121939420D01*
X150824986Y-121955557D01*
X150824985Y-121955560D01*
X150807385Y-121996229D01*
X150802248Y-122006715D01*
X150780903Y-122045541D01*
X150780903Y-122045542D01*
X150775825Y-122065320D01*
X150769525Y-122083722D01*
X150761418Y-122102457D01*
X150754488Y-122146209D01*
X150752120Y-122157645D01*
X150741100Y-122200565D01*
X150741100Y-122220984D01*
X150739573Y-122240383D01*
X150736380Y-122260541D01*
X150736380Y-122260542D01*
X150740550Y-122304657D01*
X150741100Y-122316326D01*
X150741100Y-122850170D01*
X150721415Y-122917209D01*
X150668611Y-122962964D01*
X150599453Y-122972908D01*
X150535897Y-122943883D01*
X150498123Y-122885105D01*
X150497325Y-122882264D01*
X150476268Y-122803679D01*
X150476265Y-122803673D01*
X150380134Y-122597517D01*
X150249657Y-122411179D01*
X150088820Y-122250342D01*
X149902482Y-122119865D01*
X149696328Y-122023734D01*
X149500000Y-121971127D01*
X149500000Y-122934314D01*
X149488045Y-122922359D01*
X149375148Y-122864835D01*
X149281481Y-122850000D01*
X149218519Y-122850000D01*
X149124852Y-122864835D01*
X149011955Y-122922359D01*
X149000000Y-122934314D01*
X149000000Y-121971127D01*
X148803671Y-122023734D01*
X148597517Y-122119865D01*
X148411177Y-122250343D01*
X148408698Y-122252424D01*
X148407388Y-122252997D01*
X148406750Y-122253444D01*
X148406660Y-122253315D01*
X148344688Y-122280432D01*
X148275697Y-122269387D01*
X148223629Y-122222796D01*
X148205000Y-122157428D01*
X148205000Y-121103708D01*
X148224685Y-121036669D01*
X148277489Y-120990914D01*
X148346647Y-120980970D01*
X148400032Y-121004852D01*
X148401266Y-121003092D01*
X148405695Y-121006193D01*
X148405700Y-121006198D01*
X148593251Y-121137523D01*
X148680868Y-121178379D01*
X148800750Y-121234281D01*
X148800752Y-121234281D01*
X148800757Y-121234284D01*
X149021913Y-121293543D01*
X149184832Y-121307796D01*
X149249998Y-121313498D01*
X149250000Y-121313498D01*
X149250002Y-121313498D01*
X149309013Y-121308335D01*
X149478087Y-121293543D01*
X149699243Y-121234284D01*
X149906749Y-121137523D01*
X150094300Y-121006198D01*
X150256198Y-120844300D01*
X150387523Y-120656749D01*
X150484284Y-120449243D01*
X150543543Y-120228087D01*
X150563498Y-120000000D01*
X150561467Y-119976791D01*
X150557796Y-119934832D01*
X150543543Y-119771913D01*
X150484284Y-119550757D01*
X150471422Y-119523175D01*
X150417131Y-119406747D01*
X150387523Y-119343251D01*
X150256198Y-119155700D01*
X150094300Y-118993802D01*
X149906749Y-118862477D01*
X149865521Y-118843252D01*
X149699249Y-118765718D01*
X149699238Y-118765714D01*
X149478089Y-118706457D01*
X149478081Y-118706456D01*
X149250002Y-118686502D01*
X149249998Y-118686502D01*
X149021918Y-118706456D01*
X149021910Y-118706457D01*
X148800761Y-118765714D01*
X148800750Y-118765718D01*
X148593254Y-118862475D01*
X148593252Y-118862476D01*
X148593251Y-118862477D01*
X148405700Y-118993802D01*
X148405695Y-118993806D01*
X148401266Y-118996908D01*
X148399996Y-118995095D01*
X148344682Y-119019295D01*
X148275691Y-119008247D01*
X148223626Y-118961653D01*
X148205000Y-118896291D01*
X148205000Y-117853708D01*
X148224685Y-117786669D01*
X148277489Y-117740914D01*
X148346647Y-117730970D01*
X148400032Y-117754852D01*
X148401266Y-117753092D01*
X148405695Y-117756193D01*
X148405700Y-117756198D01*
X148593251Y-117887523D01*
X148663124Y-117920105D01*
X148800750Y-117984281D01*
X148800752Y-117984281D01*
X148800757Y-117984284D01*
X149021913Y-118043543D01*
X149184832Y-118057796D01*
X149249998Y-118063498D01*
X149250000Y-118063498D01*
X149250002Y-118063498D01*
X149309013Y-118058335D01*
X149478087Y-118043543D01*
X149699243Y-117984284D01*
X149906749Y-117887523D01*
X150094300Y-117756198D01*
X150256198Y-117594300D01*
X150387523Y-117406749D01*
X150484284Y-117199243D01*
X150543543Y-116978087D01*
X150563498Y-116750000D01*
X150543543Y-116521913D01*
X150484284Y-116300757D01*
X150387523Y-116093251D01*
X150256198Y-115905700D01*
X150094300Y-115743802D01*
X149906749Y-115612477D01*
X149906745Y-115612475D01*
X149699249Y-115515718D01*
X149699238Y-115515714D01*
X149478089Y-115456457D01*
X149478082Y-115456456D01*
X149437939Y-115452944D01*
X149372870Y-115427490D01*
X149331893Y-115370899D01*
X149328016Y-115301137D01*
X149361065Y-115241737D01*
X149718815Y-114883987D01*
X149731180Y-114874083D01*
X149731006Y-114873873D01*
X149737012Y-114868903D01*
X149737018Y-114868900D01*
X149783706Y-114819180D01*
X149786355Y-114816447D01*
X149806135Y-114796669D01*
X149808670Y-114793399D01*
X149816259Y-114784515D01*
X149825281Y-114774908D01*
X149846586Y-114752221D01*
X149856420Y-114734330D01*
X149867098Y-114718074D01*
X149879614Y-114701940D01*
X149897209Y-114661278D01*
X149902350Y-114650785D01*
X149910938Y-114635165D01*
X149923695Y-114611960D01*
X149928774Y-114592174D01*
X149935072Y-114573782D01*
X149943181Y-114555045D01*
X149950113Y-114511272D01*
X149952478Y-114499853D01*
X149963500Y-114456930D01*
X149963500Y-114456926D01*
X149963976Y-114453162D01*
X149965170Y-114450423D01*
X149965440Y-114449373D01*
X149965609Y-114449416D01*
X149991907Y-114389118D01*
X150015867Y-114367133D01*
X150174300Y-114256198D01*
X150336198Y-114094300D01*
X150467523Y-113906749D01*
X150564284Y-113699243D01*
X150623543Y-113478087D01*
X150643498Y-113250000D01*
X150640705Y-113218081D01*
X150632113Y-113119866D01*
X150623543Y-113021913D01*
X150564284Y-112800757D01*
X150563995Y-112800138D01*
X150512312Y-112689302D01*
X150467523Y-112593251D01*
X150336198Y-112405700D01*
X150174300Y-112243802D01*
X149986749Y-112112477D01*
X149970245Y-112104781D01*
X149779249Y-112015718D01*
X149779238Y-112015714D01*
X149558089Y-111956457D01*
X149558081Y-111956456D01*
X149330002Y-111936502D01*
X149329998Y-111936502D01*
X149101918Y-111956456D01*
X149101910Y-111956457D01*
X148880761Y-112015714D01*
X148880750Y-112015718D01*
X148673254Y-112112475D01*
X148673252Y-112112476D01*
X148625811Y-112145695D01*
X148485700Y-112243802D01*
X148485698Y-112243803D01*
X148485695Y-112243806D01*
X148323806Y-112405695D01*
X148323803Y-112405698D01*
X148323802Y-112405700D01*
X148250788Y-112509975D01*
X148192476Y-112593252D01*
X148192475Y-112593254D01*
X148095718Y-112800750D01*
X148095714Y-112800761D01*
X148036457Y-113021910D01*
X148036456Y-113021918D01*
X148016502Y-113249998D01*
X148016502Y-113250001D01*
X148036456Y-113478081D01*
X148036457Y-113478089D01*
X148095714Y-113699238D01*
X148095718Y-113699249D01*
X148180318Y-113880674D01*
X148192477Y-113906749D01*
X148323802Y-114094300D01*
X148323806Y-114094304D01*
X148432567Y-114203065D01*
X148466052Y-114264388D01*
X148461068Y-114334080D01*
X148432567Y-114378427D01*
X147689781Y-115121214D01*
X147628458Y-115154699D01*
X147558767Y-115149715D01*
X147502833Y-115107843D01*
X147478416Y-115042379D01*
X147478100Y-115033533D01*
X147478100Y-113275132D01*
X147479839Y-113259380D01*
X147479568Y-113259355D01*
X147480300Y-113251599D01*
X147480302Y-113251592D01*
X147478161Y-113183468D01*
X147478100Y-113179573D01*
X147478100Y-113151647D01*
X147478100Y-113151644D01*
X147477582Y-113147547D01*
X147476665Y-113135898D01*
X147476519Y-113131256D01*
X147475274Y-113091611D01*
X147469576Y-113071999D01*
X147465633Y-113052966D01*
X147463074Y-113032703D01*
X147446763Y-112991507D01*
X147442981Y-112980459D01*
X147433167Y-112946681D01*
X147430618Y-112937907D01*
X147420225Y-112920334D01*
X147411666Y-112902862D01*
X147411330Y-112902013D01*
X147404152Y-112883883D01*
X147378110Y-112848039D01*
X147371699Y-112838281D01*
X147349142Y-112800138D01*
X147334708Y-112785704D01*
X147322071Y-112770909D01*
X147310072Y-112754393D01*
X147310069Y-112754391D01*
X147310069Y-112754390D01*
X147275925Y-112726143D01*
X147267285Y-112718281D01*
X139764702Y-105215698D01*
X139731217Y-105154375D01*
X139736201Y-105084683D01*
X139778073Y-105028750D01*
X139840229Y-105004614D01*
X139851860Y-105003468D01*
X139952601Y-104993546D01*
X140147417Y-104934450D01*
X140326960Y-104838482D01*
X140484331Y-104709331D01*
X140613482Y-104551960D01*
X140709450Y-104372417D01*
X140768546Y-104177601D01*
X140783500Y-104025775D01*
X140783500Y-103474225D01*
X140768546Y-103322399D01*
X140709450Y-103127583D01*
X140701375Y-103112475D01*
X140613485Y-102948045D01*
X140613483Y-102948043D01*
X140613482Y-102948040D01*
X140570874Y-102896122D01*
X140484331Y-102790668D01*
X140326961Y-102661519D01*
X140326954Y-102661514D01*
X140147424Y-102565553D01*
X140147421Y-102565552D01*
X140147420Y-102565551D01*
X140147417Y-102565550D01*
X139952601Y-102506454D01*
X139952599Y-102506453D01*
X139952601Y-102506453D01*
X139750000Y-102486499D01*
X139547400Y-102506453D01*
X139432374Y-102541345D01*
X139352583Y-102565550D01*
X139352580Y-102565551D01*
X139352578Y-102565552D01*
X139352575Y-102565553D01*
X139173453Y-102661296D01*
X139105050Y-102675538D01*
X139056547Y-102661296D01*
X138877424Y-102565553D01*
X138877421Y-102565552D01*
X138877420Y-102565551D01*
X138877417Y-102565550D01*
X138682601Y-102506454D01*
X138682599Y-102506453D01*
X138682601Y-102506453D01*
X138480000Y-102486499D01*
X138277400Y-102506453D01*
X138086126Y-102564475D01*
X138016259Y-102565098D01*
X137989745Y-102551975D01*
X137988988Y-102553362D01*
X137981209Y-102549115D01*
X137981204Y-102549111D01*
X137939363Y-102533505D01*
X137844204Y-102498011D01*
X137835878Y-102497116D01*
X137771328Y-102470376D01*
X137731482Y-102412982D01*
X137728991Y-102343157D01*
X137761455Y-102286148D01*
X138294285Y-101753319D01*
X138355608Y-101719834D01*
X138381966Y-101717000D01*
X146135728Y-101717000D01*
X146202767Y-101736685D01*
G37*
%TD.AperFunction*%
%TA.AperFunction,Conductor*%
G36*
X130647708Y-108557608D02*
G01*
X130703641Y-108599480D01*
X130728058Y-108664944D01*
X130724149Y-108705882D01*
X130706459Y-108771904D01*
X130706456Y-108771918D01*
X130686502Y-108999998D01*
X130686502Y-109000001D01*
X130706456Y-109228081D01*
X130706457Y-109228089D01*
X130765714Y-109449238D01*
X130765718Y-109449249D01*
X130840593Y-109609819D01*
X130862477Y-109656749D01*
X130993802Y-109844300D01*
X131155700Y-110006198D01*
X131313625Y-110116779D01*
X131357249Y-110171354D01*
X131366500Y-110218352D01*
X131366500Y-110853832D01*
X131346815Y-110920871D01*
X131330181Y-110941513D01*
X128598865Y-113672828D01*
X128537542Y-113706313D01*
X128467850Y-113701329D01*
X128411917Y-113659457D01*
X128398801Y-113637550D01*
X128380133Y-113597515D01*
X128380132Y-113597513D01*
X128329025Y-113524526D01*
X127647953Y-114205598D01*
X127635165Y-114124852D01*
X127577641Y-114011955D01*
X127488045Y-113922359D01*
X127375148Y-113864835D01*
X127294401Y-113852046D01*
X127975472Y-113170974D01*
X127902478Y-113119863D01*
X127696331Y-113023735D01*
X127696317Y-113023730D01*
X127476610Y-112964860D01*
X127476599Y-112964858D01*
X127250002Y-112945034D01*
X127249998Y-112945034D01*
X127023400Y-112964858D01*
X127023389Y-112964860D01*
X126803682Y-113023730D01*
X126803673Y-113023734D01*
X126597516Y-113119866D01*
X126597512Y-113119868D01*
X126524526Y-113170973D01*
X126524526Y-113170974D01*
X127205599Y-113852046D01*
X127124852Y-113864835D01*
X127011955Y-113922359D01*
X126922359Y-114011955D01*
X126864835Y-114124852D01*
X126852046Y-114205598D01*
X126170974Y-113524526D01*
X126170973Y-113524526D01*
X126119868Y-113597512D01*
X126119866Y-113597516D01*
X126023734Y-113803673D01*
X126023730Y-113803682D01*
X125964860Y-114023389D01*
X125964858Y-114023400D01*
X125945034Y-114249997D01*
X125945034Y-114250002D01*
X125964858Y-114476599D01*
X125964860Y-114476610D01*
X126023730Y-114696317D01*
X126023735Y-114696331D01*
X126119863Y-114902478D01*
X126170974Y-114975472D01*
X126852046Y-114294400D01*
X126864835Y-114375148D01*
X126922359Y-114488045D01*
X127011955Y-114577641D01*
X127124852Y-114635165D01*
X127205599Y-114647953D01*
X126524526Y-115329025D01*
X126597513Y-115380132D01*
X126597515Y-115380133D01*
X126637550Y-115398801D01*
X126689990Y-115444973D01*
X126709143Y-115512166D01*
X126688928Y-115579047D01*
X126672828Y-115598865D01*
X125547019Y-116724675D01*
X125485696Y-116758160D01*
X125416004Y-116753176D01*
X125360071Y-116711304D01*
X125335654Y-116645840D01*
X125339563Y-116604900D01*
X125373543Y-116478087D01*
X125393498Y-116250000D01*
X125389998Y-116210000D01*
X125387796Y-116184832D01*
X125373543Y-116021913D01*
X125314284Y-115800757D01*
X125312797Y-115797569D01*
X125253623Y-115670669D01*
X125217523Y-115593251D01*
X125086198Y-115405700D01*
X124924300Y-115243802D01*
X124900406Y-115227071D01*
X124763819Y-115131431D01*
X124720194Y-115076854D01*
X124711004Y-115033750D01*
X124710997Y-115033533D01*
X124710673Y-115023210D01*
X124704977Y-115003608D01*
X124701032Y-114984557D01*
X124698474Y-114964303D01*
X124693290Y-114951211D01*
X124682162Y-114923104D01*
X124678377Y-114912050D01*
X124676121Y-114904284D01*
X124666018Y-114869507D01*
X124655622Y-114851929D01*
X124647066Y-114834462D01*
X124639552Y-114815483D01*
X124613510Y-114779639D01*
X124607099Y-114769881D01*
X124596655Y-114752221D01*
X124584542Y-114731738D01*
X124570108Y-114717304D01*
X124557471Y-114702509D01*
X124545472Y-114685993D01*
X124545469Y-114685991D01*
X124545469Y-114685990D01*
X124511325Y-114657743D01*
X124502685Y-114649881D01*
X124332395Y-114479590D01*
X124298910Y-114418267D01*
X124303894Y-114348575D01*
X124345766Y-114292642D01*
X124387979Y-114272135D01*
X124529243Y-114234284D01*
X124736749Y-114137523D01*
X124924300Y-114006198D01*
X125086198Y-113844300D01*
X125198570Y-113683816D01*
X125253144Y-113640195D01*
X125296248Y-113631004D01*
X125306789Y-113630673D01*
X125326381Y-113624980D01*
X125345438Y-113621032D01*
X125365697Y-113618474D01*
X125406906Y-113602157D01*
X125417943Y-113598379D01*
X125460493Y-113586018D01*
X125478065Y-113575625D01*
X125495532Y-113567068D01*
X125514517Y-113559552D01*
X125550361Y-113533508D01*
X125560130Y-113527092D01*
X125564469Y-113524526D01*
X125598262Y-113504542D01*
X125612702Y-113490100D01*
X125627492Y-113477470D01*
X125644007Y-113465472D01*
X125672259Y-113431319D01*
X125680103Y-113422699D01*
X130516695Y-108586107D01*
X130578016Y-108552624D01*
X130647708Y-108557608D01*
G37*
%TD.AperFunction*%
%TD*%
M02*
