%TF.GenerationSoftware,KiCad,Pcbnew,7.0.11+dfsg-1build4*%
%TF.CreationDate,2026-03-01T17:54:03-05:00*%
%TF.ProjectId,bm,626d2e6b-6963-4616-945f-706362585858,rev?*%
%TF.SameCoordinates,Original*%
%TF.FileFunction,Copper,L1,Top*%
%TF.FilePolarity,Positive*%
%FSLAX46Y46*%
G04 Gerber Fmt 4.6, Leading zero omitted, Abs format (unit mm)*
G04 Created by KiCad (PCBNEW 7.0.11+dfsg-1build4) date 2026-03-01 17:54:03*
%MOMM*%
%LPD*%
G01*
G04 APERTURE LIST*
%TA.AperFunction,ComponentPad*%
%ADD10R,1.600000X1.600000*%
%TD*%
%TA.AperFunction,ComponentPad*%
%ADD11C,1.600000*%
%TD*%
%TA.AperFunction,ComponentPad*%
%ADD12R,1.050000X1.500000*%
%TD*%
%TA.AperFunction,ComponentPad*%
%ADD13O,1.050000X1.500000*%
%TD*%
%TA.AperFunction,ComponentPad*%
%ADD14O,1.600000X1.600000*%
%TD*%
%TA.AperFunction,ComponentPad*%
%ADD15R,1.800000X1.800000*%
%TD*%
%TA.AperFunction,ComponentPad*%
%ADD16O,1.800000X1.800000*%
%TD*%
%TA.AperFunction,ComponentPad*%
%ADD17R,1.700000X1.700000*%
%TD*%
%TA.AperFunction,ComponentPad*%
%ADD18O,1.700000X1.700000*%
%TD*%
%TA.AperFunction,ComponentPad*%
%ADD19C,2.340000*%
%TD*%
%TA.AperFunction,ViaPad*%
%ADD20C,0.800000*%
%TD*%
%TA.AperFunction,Conductor*%
%ADD21C,0.250000*%
%TD*%
G04 APERTURE END LIST*
D10*
%TO.P,C4,1*%
%TO.N,Net-(C4-Pad1)*%
X121000000Y-104250000D03*
D11*
%TO.P,C4,2*%
%TO.N,Net-(C4-Pad2)*%
X123500000Y-104250000D03*
%TD*%
%TO.P,C5,1*%
%TO.N,Net-(U2A--)*%
X158750000Y-128750000D03*
%TO.P,C5,2*%
%TO.N,Net-(C4-Pad1)*%
X153750000Y-128750000D03*
%TD*%
D12*
%TO.P,Q1,1,E*%
%TO.N,Net-(Q1-E)*%
X137210000Y-103750000D03*
D13*
%TO.P,Q1,2,B*%
%TO.N,Net-(Q1-B)*%
X138480000Y-103750000D03*
%TO.P,Q1,3,C*%
%TO.N,+9V*%
X139750000Y-103750000D03*
%TD*%
D10*
%TO.P,U2,1*%
%TO.N,Net-(C4-Pad1)*%
X103000000Y-111130000D03*
D14*
%TO.P,U2,2,-*%
%TO.N,Net-(U2A--)*%
X103000000Y-113670000D03*
%TO.P,U2,3,+*%
%TO.N,Net-(U2A-+)*%
X103000000Y-116210000D03*
%TO.P,U2,4,V-*%
%TO.N,GND*%
X103000000Y-118750000D03*
%TO.P,U2,5,+*%
%TO.N,Net-(U2B-+)*%
X110620000Y-118750000D03*
%TO.P,U2,6,-*%
%TO.N,vb*%
X110620000Y-116210000D03*
%TO.P,U2,7*%
X110620000Y-113670000D03*
%TO.P,U2,8,V+*%
%TO.N,+9V*%
X110620000Y-111130000D03*
%TD*%
D11*
%TO.P,R6,1*%
%TO.N,Net-(U1B-+)*%
X113920000Y-119500000D03*
D14*
%TO.P,R6,2*%
%TO.N,Net-(D3-K)*%
X124080000Y-119500000D03*
%TD*%
D11*
%TO.P,C12,1*%
%TO.N,vb*%
X133800000Y-131900000D03*
%TO.P,C12,2*%
%TO.N,Net-(C12-Pad2)*%
X128800000Y-131900000D03*
%TD*%
D10*
%TO.P,C3,1*%
%TO.N,+9V*%
X118500000Y-135500000D03*
D11*
%TO.P,C3,2*%
%TO.N,GND*%
X121000000Y-135500000D03*
%TD*%
%TO.P,C6,1*%
%TO.N,Net-(Q1-B)*%
X153750000Y-124000000D03*
%TO.P,C6,2*%
%TO.N,Net-(C10-Pad2)*%
X158750000Y-124000000D03*
%TD*%
%TO.P,R13,1*%
%TO.N,Net-(Q1-E)*%
X139090000Y-116750000D03*
D14*
%TO.P,R13,2*%
%TO.N,Net-(C10-Pad2)*%
X149250000Y-116750000D03*
%TD*%
D15*
%TO.P,D4,1,K*%
%TO.N,Net-(D3-A)*%
X102940000Y-122500000D03*
D16*
%TO.P,D4,2,A*%
%TO.N,Net-(D3-K)*%
X110560000Y-122500000D03*
%TD*%
D11*
%TO.P,C9,1*%
%TO.N,GND*%
X127250000Y-114250000D03*
%TO.P,C9,2*%
%TO.N,Net-(U1B-+)*%
X132250000Y-114250000D03*
%TD*%
%TO.P,R1,1*%
%TO.N,Net-(U1B--)*%
X113920000Y-129250000D03*
D14*
%TO.P,R1,2*%
%TO.N,Net-(R1-Pad2)*%
X124080000Y-129250000D03*
%TD*%
D11*
%TO.P,R10,1*%
%TO.N,GND*%
X139170000Y-113250000D03*
D14*
%TO.P,R10,2*%
%TO.N,Net-(U2B-+)*%
X149330000Y-113250000D03*
%TD*%
D17*
%TO.P,J1,1,Pin_1*%
%TO.N,+9V*%
X125880000Y-138250000D03*
D18*
%TO.P,J1,2,Pin_2*%
%TO.N,out*%
X128420000Y-138250000D03*
%TO.P,J1,3,Pin_3*%
%TO.N,IN*%
X130960000Y-138250000D03*
%TO.P,J1,4,Pin_4*%
%TO.N,GND*%
X133500000Y-138250000D03*
%TD*%
D11*
%TO.P,R8,1*%
%TO.N,Net-(U2A-+)*%
X139090000Y-129750000D03*
D14*
%TO.P,R8,2*%
%TO.N,Net-(R1-Pad2)*%
X149250000Y-129750000D03*
%TD*%
D11*
%TO.P,R3,1*%
%TO.N,vb*%
X113920000Y-109750000D03*
D14*
%TO.P,R3,2*%
%TO.N,IN*%
X124080000Y-109750000D03*
%TD*%
D11*
%TO.P,C10,1*%
%TO.N,Net-(C10-Pad1)*%
X126900000Y-124500000D03*
%TO.P,C10,2*%
%TO.N,Net-(C10-Pad2)*%
X131900000Y-124500000D03*
%TD*%
%TO.P,R2,1*%
%TO.N,GND*%
X113920000Y-126000000D03*
D14*
%TO.P,R2,2*%
%TO.N,Net-(C1-Pad2)*%
X124080000Y-126000000D03*
%TD*%
D11*
%TO.P,R11,1*%
%TO.N,Net-(C4-Pad1)*%
X139090000Y-120000000D03*
D14*
%TO.P,R11,2*%
%TO.N,Net-(U2A--)*%
X149250000Y-120000000D03*
%TD*%
D11*
%TO.P,C8,1*%
%TO.N,Net-(D3-A)*%
X127000000Y-109000000D03*
%TO.P,C8,2*%
%TO.N,Net-(D3-K)*%
X132000000Y-109000000D03*
%TD*%
%TO.P,C1,1*%
%TO.N,Net-(C1-Pad1)*%
X127000000Y-120250000D03*
%TO.P,C1,2*%
%TO.N,Net-(C1-Pad2)*%
X132000000Y-120250000D03*
%TD*%
D15*
%TO.P,D3,1,K*%
%TO.N,Net-(D3-K)*%
X103000000Y-126000000D03*
D16*
%TO.P,D3,2,A*%
%TO.N,Net-(D3-A)*%
X110620000Y-126000000D03*
%TD*%
D11*
%TO.P,R12,1*%
%TO.N,Net-(Q1-E)*%
X139090000Y-123250000D03*
D14*
%TO.P,R12,2*%
%TO.N,GND*%
X149250000Y-123250000D03*
%TD*%
D10*
%TO.P,C11,1*%
%TO.N,vb*%
X102750000Y-135500000D03*
D11*
%TO.P,C11,2*%
%TO.N,GND*%
X105250000Y-135500000D03*
%TD*%
%TO.P,R7,1*%
%TO.N,vb*%
X113920000Y-122750000D03*
D14*
%TO.P,R7,2*%
%TO.N,Net-(U1B-+)*%
X124080000Y-122750000D03*
%TD*%
D10*
%TO.P,U1,1*%
%TO.N,Net-(D3-K)*%
X152200000Y-110450000D03*
D14*
%TO.P,U1,2,-*%
%TO.N,Net-(D3-A)*%
X152200000Y-112990000D03*
%TO.P,U1,3,+*%
%TO.N,Net-(U1A-+)*%
X152200000Y-115530000D03*
%TO.P,U1,4,V-*%
%TO.N,GND*%
X152200000Y-118070000D03*
%TO.P,U1,5,+*%
%TO.N,Net-(U1B-+)*%
X159820000Y-118070000D03*
%TO.P,U1,6,-*%
%TO.N,Net-(U1B--)*%
X159820000Y-115530000D03*
%TO.P,U1,7*%
%TO.N,Net-(R1-Pad2)*%
X159820000Y-112990000D03*
%TO.P,U1,8,V+*%
%TO.N,+9V*%
X159820000Y-110450000D03*
%TD*%
D11*
%TO.P,R15,1*%
%TO.N,Net-(C12-Pad2)*%
X126420000Y-128200000D03*
D14*
%TO.P,R15,2*%
%TO.N,Net-(D3-A)*%
X136580000Y-128200000D03*
%TD*%
D11*
%TO.P,R5,1*%
%TO.N,Net-(R5-Pad1)*%
X113920000Y-116250000D03*
D14*
%TO.P,R5,2*%
%TO.N,Net-(D3-A)*%
X124080000Y-116250000D03*
%TD*%
D11*
%TO.P,R14,1*%
%TO.N,vb*%
X139090000Y-126500000D03*
D14*
%TO.P,R14,2*%
%TO.N,Net-(Q1-B)*%
X149250000Y-126500000D03*
%TD*%
D10*
%TO.P,C2,1*%
%TO.N,Net-(U2B-+)*%
X110250000Y-135500000D03*
D11*
%TO.P,C2,2*%
%TO.N,GND*%
X112750000Y-135500000D03*
%TD*%
%TO.P,R4,1*%
%TO.N,vb*%
X113920000Y-113000000D03*
D14*
%TO.P,R4,2*%
%TO.N,Net-(U1A-+)*%
X124080000Y-113000000D03*
%TD*%
D11*
%TO.P,R9,1*%
%TO.N,Net-(U2B-+)*%
X139090000Y-133000000D03*
D14*
%TO.P,R9,2*%
%TO.N,+9V*%
X149250000Y-133000000D03*
%TD*%
D19*
%TO.P,RV1,1,1*%
%TO.N,Net-(U1B-+)*%
X157750000Y-102650000D03*
%TO.P,RV1,2,2*%
%TO.N,Net-(C1-Pad1)*%
X152750000Y-102650000D03*
%TO.P,RV1,3,3*%
%TO.N,Net-(U1B--)*%
X147750000Y-102650000D03*
%TD*%
D11*
%TO.P,C7,1*%
%TO.N,IN*%
X127000000Y-103500000D03*
%TO.P,C7,2*%
%TO.N,Net-(U1A-+)*%
X132000000Y-103500000D03*
%TD*%
D19*
%TO.P,RV3,1,1*%
%TO.N,Net-(D3-K)*%
X147750000Y-105850000D03*
%TO.P,RV3,2,2*%
%TO.N,Net-(R5-Pad1)*%
X152750000Y-105850000D03*
%TO.P,RV3,3,3*%
X157750000Y-105850000D03*
%TD*%
%TO.P,RV4,1,1*%
%TO.N,Net-(U2A-+)*%
X114250000Y-102400000D03*
%TO.P,RV4,2,2*%
%TO.N,Net-(C10-Pad1)*%
X109250000Y-102400000D03*
%TO.P,RV4,3,3*%
%TO.N,Net-(U2A--)*%
X104250000Y-102400000D03*
%TD*%
%TO.P,RV2,1,1*%
%TO.N,GND*%
X104250000Y-105600000D03*
%TO.P,RV2,2,2*%
%TO.N,out*%
X109250000Y-105600000D03*
%TO.P,RV2,3,3*%
%TO.N,Net-(C4-Pad2)*%
X114250000Y-105600000D03*
%TD*%
D20*
%TO.N,Net-(C4-Pad1)*%
X120850800Y-113008900D03*
X144296600Y-126660400D03*
%TO.N,Net-(Q1-B)*%
X146844600Y-124835700D03*
%TO.N,IN*%
X135807000Y-104571400D03*
%TO.N,Net-(D3-A)*%
X107868500Y-117888700D03*
%TO.N,Net-(U1B-+)*%
X133668000Y-101530700D03*
%TO.N,Net-(U1B--)*%
X150068000Y-131799800D03*
%TD*%
D21*
%TO.N,Net-(C1-Pad2)*%
X132000000Y-121200000D02*
X132000000Y-120250000D01*
X127200000Y-126000000D02*
X132000000Y-121200000D01*
X124080000Y-126000000D02*
X127200000Y-126000000D01*
%TO.N,Net-(U2B-+)*%
X112350000Y-133900000D02*
X111000000Y-135250000D01*
X139090000Y-133000000D02*
X138190000Y-133900000D01*
X138190000Y-133900000D02*
X112350000Y-133900000D01*
%TO.N,GND*%
X112243100Y-124323100D02*
X109823100Y-124323100D01*
X109823100Y-124323100D02*
X104250000Y-118750000D01*
X104250000Y-118750000D02*
X103000000Y-118750000D01*
X138999300Y-113079300D02*
X139170000Y-113250000D01*
X113920000Y-126000000D02*
X112243100Y-124323100D01*
%TO.N,+9V*%
X148123100Y-133000000D02*
X144050000Y-137073100D01*
X136579400Y-104827000D02*
X136579400Y-104826900D01*
X149250000Y-133000000D02*
X148123100Y-133000000D01*
X136108100Y-105298300D02*
X136579400Y-104827000D01*
X125880000Y-138250000D02*
X127056900Y-138250000D01*
X139750000Y-103750000D02*
X139750000Y-104826900D01*
X125536700Y-107968100D02*
X128206500Y-105298300D01*
X144050000Y-137073100D02*
X127865900Y-137073100D01*
X127865900Y-137073100D02*
X127056900Y-137882100D01*
X158693100Y-110450000D02*
X158693100Y-109604800D01*
X111746900Y-110250600D02*
X114029400Y-107968100D01*
X158693100Y-109604800D02*
X153338300Y-104250000D01*
X127056900Y-137882100D02*
X127056900Y-138250000D01*
X141101900Y-104250000D02*
X140601900Y-103750000D01*
X110620000Y-111130000D02*
X111746900Y-111130000D01*
X153338300Y-104250000D02*
X141101900Y-104250000D01*
X136579400Y-104826900D02*
X139750000Y-104826900D01*
X111746900Y-111130000D02*
X111746900Y-110250600D01*
X159820000Y-110450000D02*
X158693100Y-110450000D01*
X128206500Y-105298300D02*
X136108100Y-105298300D01*
X139750000Y-103750000D02*
X140601900Y-103750000D01*
X114029400Y-107968100D02*
X125536700Y-107968100D01*
%TO.N,Net-(C4-Pad1)*%
X144296600Y-126660400D02*
X145761200Y-128125000D01*
X122479600Y-113008900D02*
X127346100Y-117875400D01*
X120850800Y-113008900D02*
X122479600Y-113008900D01*
X108077100Y-107179800D02*
X104126900Y-111130000D01*
X121000000Y-104250000D02*
X118070200Y-107179800D01*
X145761200Y-128125000D02*
X153125000Y-128125000D01*
X136965400Y-117875400D02*
X139090000Y-120000000D01*
X153125000Y-128125000D02*
X153750000Y-128750000D01*
X144644200Y-127008000D02*
X144296600Y-126660400D01*
X103000000Y-111130000D02*
X104126900Y-111130000D01*
X127346100Y-117875400D02*
X136965400Y-117875400D01*
X118070200Y-107179800D02*
X108077100Y-107179800D01*
X144296600Y-126660400D02*
X144644200Y-127008000D01*
%TO.N,Net-(C4-Pad2)*%
X116850000Y-103000000D02*
X122000000Y-103000000D01*
X123000000Y-104000000D02*
X123000000Y-104250000D01*
X114250000Y-105600000D02*
X116850000Y-103000000D01*
X122000000Y-103000000D02*
X123000000Y-104000000D01*
%TO.N,Net-(U2A--)*%
X159902600Y-127597400D02*
X158750000Y-128750000D01*
X149250000Y-120000000D02*
X153331800Y-120000000D01*
X105396900Y-114940000D02*
X111027600Y-114940000D01*
X153331800Y-115050300D02*
X153331800Y-120000000D01*
X140764200Y-111600100D02*
X143541000Y-114376900D01*
X113426500Y-117424900D02*
X115352200Y-117424900D01*
X104126900Y-113670000D02*
X105396900Y-114940000D01*
X111027600Y-114940000D02*
X111774100Y-115686500D01*
X111774100Y-115772500D02*
X113426500Y-117424900D01*
X115352200Y-117424900D02*
X121177000Y-111600100D01*
X152658400Y-114376900D02*
X153331800Y-115050300D01*
X156405000Y-120000000D02*
X159902600Y-123497600D01*
X111774100Y-115686500D02*
X111774100Y-115772500D01*
X143541000Y-114376900D02*
X152658400Y-114376900D01*
X103000000Y-113670000D02*
X104126900Y-113670000D01*
X121177000Y-111600100D02*
X140764200Y-111600100D01*
X159902600Y-123497600D02*
X159902600Y-127597400D01*
X153331800Y-120000000D02*
X156405000Y-120000000D01*
%TO.N,Net-(Q1-B)*%
X148123100Y-126500000D02*
X148123100Y-126114200D01*
X151250000Y-126500000D02*
X153750000Y-124000000D01*
X148123100Y-126114200D02*
X146844600Y-124835700D01*
X149250000Y-126500000D02*
X151250000Y-126500000D01*
X149250000Y-126500000D02*
X148123100Y-126500000D01*
%TO.N,Net-(C10-Pad2)*%
X148079800Y-119047100D02*
X148079800Y-122068400D01*
X149250000Y-116750000D02*
X149250000Y-117876900D01*
X149250000Y-117876900D02*
X148079800Y-119047100D01*
X156818400Y-122068400D02*
X148079800Y-122068400D01*
X158750000Y-124000000D02*
X156818400Y-122068400D01*
X134331600Y-122068400D02*
X132000000Y-124400000D01*
X148079800Y-122068400D02*
X134331600Y-122068400D01*
%TO.N,IN*%
X135807000Y-104571400D02*
X135720300Y-104658100D01*
X135720300Y-104658100D02*
X128158100Y-104658100D01*
X128158100Y-104658100D02*
X127000000Y-103500000D01*
%TO.N,Net-(U1A-+)*%
X124080000Y-113000000D02*
X125206900Y-113000000D01*
X151073100Y-115530000D02*
X150462000Y-114918900D01*
X142507000Y-114918900D02*
X139679400Y-112091300D01*
X150462000Y-114918900D02*
X142507000Y-114918900D01*
X139679400Y-112091300D02*
X126115600Y-112091300D01*
X126115600Y-112091300D02*
X125206900Y-113000000D01*
X152200000Y-115530000D02*
X151073100Y-115530000D01*
%TO.N,Net-(D3-A)*%
X121326300Y-117876800D02*
X122953100Y-116250000D01*
X133125000Y-120775000D02*
X133125000Y-119725000D01*
X152200000Y-112990000D02*
X151073100Y-112990000D01*
X130775000Y-123125000D02*
X133125000Y-120775000D01*
X133125000Y-119725000D02*
X131725400Y-118325400D01*
X126155400Y-118325400D02*
X124080000Y-116250000D01*
X112550100Y-117594400D02*
X112832500Y-117876800D01*
X124080000Y-116250000D02*
X122953100Y-116250000D01*
X112832500Y-117876800D02*
X121326300Y-117876800D01*
X136580000Y-128200000D02*
X134009009Y-128200000D01*
X134009009Y-128200000D02*
X130775000Y-124965991D01*
X110620000Y-126000000D02*
X109393100Y-126000000D01*
X128645300Y-110645300D02*
X148728400Y-110645300D01*
X130775000Y-124965991D02*
X130775000Y-123125000D01*
X102940000Y-122500000D02*
X105893100Y-122500000D01*
X148728400Y-110645300D02*
X151073100Y-112990000D01*
X107868500Y-117888700D02*
X108162800Y-117594400D01*
X127000000Y-109000000D02*
X128645300Y-110645300D01*
X131725400Y-118325400D02*
X126155400Y-118325400D01*
X105893100Y-122500000D02*
X109393100Y-126000000D01*
X108162800Y-117594400D02*
X112550100Y-117594400D01*
%TO.N,Net-(D3-K)*%
X110560000Y-122500000D02*
X111786900Y-122500000D01*
X122953100Y-119500000D02*
X121826200Y-120626900D01*
X113660000Y-120626900D02*
X111786900Y-122500000D01*
X124080000Y-119500000D02*
X122953100Y-119500000D01*
X121826200Y-120626900D02*
X113660000Y-120626900D01*
X144600000Y-109000000D02*
X132000000Y-109000000D01*
X147750000Y-105850000D02*
X144600000Y-109000000D01*
%TO.N,Net-(U1B-+)*%
X125210900Y-120492200D02*
X125210900Y-118989500D01*
X124587200Y-118365800D02*
X115054200Y-118365800D01*
X124080000Y-121623100D02*
X125210900Y-120492200D01*
X133668000Y-101530700D02*
X134081400Y-101117300D01*
X156217300Y-101117300D02*
X157750000Y-102650000D01*
X115054200Y-118365800D02*
X113920000Y-119500000D01*
X134081400Y-101117300D02*
X156217300Y-101117300D01*
X133668000Y-101530700D02*
X134081400Y-101117300D01*
X125210900Y-118989500D02*
X124587200Y-118365800D01*
X134081400Y-101117300D02*
X133668000Y-101530700D01*
X124080000Y-122750000D02*
X124080000Y-121623100D01*
%TO.N,vb*%
X110620000Y-113670000D02*
X111746900Y-113670000D01*
X139090000Y-126500000D02*
X139090000Y-127280991D01*
X137045991Y-129325000D02*
X125954009Y-129325000D01*
X113920000Y-109750000D02*
X113920000Y-113000000D01*
X118343100Y-127173100D02*
X113920000Y-122750000D01*
X125954009Y-129325000D02*
X123802109Y-127173100D01*
X113920000Y-113000000D02*
X112416900Y-113000000D01*
X112416900Y-113000000D02*
X111746900Y-113670000D01*
X139090000Y-127280991D02*
X137045991Y-129325000D01*
X123802109Y-127173100D02*
X118343100Y-127173100D01*
%TO.N,Net-(U1B--)*%
X118120000Y-133450000D02*
X113920000Y-129250000D01*
X137049009Y-133450000D02*
X118120000Y-133450000D01*
X150068000Y-131799800D02*
X152325400Y-131799800D01*
X150068000Y-131799800D02*
X138699209Y-131799800D01*
X138699209Y-131799800D02*
X137049009Y-133450000D01*
X152325400Y-131799800D02*
X150068000Y-131799800D01*
%TO.N,Net-(R1-Pad2)*%
X148125000Y-128625000D02*
X149250000Y-129750000D01*
X136924009Y-130325000D02*
X138624009Y-128625000D01*
X126281900Y-130325000D02*
X136924009Y-130325000D01*
X125206900Y-129250000D02*
X126281900Y-130325000D01*
X124080000Y-129250000D02*
X125206900Y-129250000D01*
X138624009Y-128625000D02*
X148125000Y-128625000D01*
%TO.N,Net-(R5-Pad1)*%
X126541400Y-107864900D02*
X125357100Y-109049200D01*
X125357100Y-109049200D02*
X125357100Y-110095200D01*
X148423100Y-110176900D02*
X130866200Y-110176900D01*
X124543600Y-110908700D02*
X119261300Y-110908700D01*
X152750000Y-105850000D02*
X148423100Y-110176900D01*
X119261300Y-110908700D02*
X113920000Y-116250000D01*
X130866200Y-110176900D02*
X128554200Y-107864900D01*
X128554200Y-107864900D02*
X126541400Y-107864900D01*
X125357100Y-110095200D02*
X124543600Y-110908700D01*
%TO.N,Net-(U2A-+)*%
X112340800Y-126084900D02*
X112340800Y-125888000D01*
X104751900Y-120141600D02*
X102793200Y-120141600D01*
X109383400Y-124773100D02*
X104751900Y-120141600D01*
X113499700Y-127171200D02*
X113427100Y-127171200D01*
X102793200Y-120141600D02*
X101871600Y-119220000D01*
X113427100Y-127171200D02*
X112340800Y-126084900D01*
X101871600Y-119220000D02*
X101871600Y-117338400D01*
X138065000Y-130775000D02*
X117103500Y-130775000D01*
X117103500Y-130775000D02*
X113499700Y-127171200D01*
X111225900Y-124773100D02*
X109383400Y-124773100D01*
X139090000Y-129750000D02*
X138065000Y-130775000D01*
X112340800Y-125888000D02*
X111225900Y-124773100D01*
X101871600Y-117338400D02*
X103000000Y-116210000D01*
%TD*%
%TA.AperFunction,Conductor*%
%TO.N,GND*%
G36*
X112535510Y-122749806D02*
G01*
X112591443Y-122791678D01*
X112615704Y-122855180D01*
X112626456Y-122978082D01*
X112626457Y-122978089D01*
X112685714Y-123199238D01*
X112685718Y-123199249D01*
X112778262Y-123397710D01*
X112782477Y-123406749D01*
X112913802Y-123594300D01*
X113075700Y-123756198D01*
X113263251Y-123887523D01*
X113348339Y-123927200D01*
X113470750Y-123984281D01*
X113470752Y-123984281D01*
X113470757Y-123984284D01*
X113691913Y-124043543D01*
X113854832Y-124057796D01*
X113919998Y-124063498D01*
X113920000Y-124063498D01*
X113920002Y-124063498D01*
X113979013Y-124058335D01*
X114148087Y-124043543D01*
X114212657Y-124026241D01*
X114282506Y-124027904D01*
X114332430Y-124058334D01*
X116087719Y-125813624D01*
X117836012Y-127561917D01*
X117845916Y-127574278D01*
X117846126Y-127574105D01*
X117851097Y-127580113D01*
X117851100Y-127580118D01*
X117900785Y-127626775D01*
X117903549Y-127629454D01*
X117923323Y-127649229D01*
X117923327Y-127649232D01*
X117923330Y-127649235D01*
X117926612Y-127651781D01*
X117935472Y-127659349D01*
X117967779Y-127689686D01*
X117967781Y-127689687D01*
X117985662Y-127699517D01*
X118001929Y-127710202D01*
X118018060Y-127722715D01*
X118032743Y-127729068D01*
X118058725Y-127740310D01*
X118069204Y-127745444D01*
X118108040Y-127766795D01*
X118127816Y-127771872D01*
X118146223Y-127778174D01*
X118164955Y-127786281D01*
X118208730Y-127793213D01*
X118220145Y-127795578D01*
X118263070Y-127806600D01*
X118283484Y-127806600D01*
X118302883Y-127808127D01*
X118323043Y-127811320D01*
X118367157Y-127807150D01*
X118378826Y-127806600D01*
X123488343Y-127806600D01*
X123555382Y-127826285D01*
X123576024Y-127842919D01*
X123586053Y-127852948D01*
X123619538Y-127914271D01*
X123614554Y-127983963D01*
X123572682Y-128039896D01*
X123550777Y-128053011D01*
X123423251Y-128112476D01*
X123298258Y-128199998D01*
X123235700Y-128243802D01*
X123235698Y-128243803D01*
X123235695Y-128243806D01*
X123073806Y-128405695D01*
X123073803Y-128405698D01*
X123073802Y-128405700D01*
X123021903Y-128479819D01*
X122942476Y-128593252D01*
X122942475Y-128593254D01*
X122845718Y-128800750D01*
X122845714Y-128800761D01*
X122786457Y-129021910D01*
X122786456Y-129021918D01*
X122766502Y-129249998D01*
X122766502Y-129250001D01*
X122786456Y-129478081D01*
X122786457Y-129478089D01*
X122845714Y-129699238D01*
X122845718Y-129699249D01*
X122942475Y-129906745D01*
X122942481Y-129906755D01*
X122970224Y-129946376D01*
X122992552Y-130012582D01*
X122975542Y-130080349D01*
X122924595Y-130128163D01*
X122868650Y-130141500D01*
X117417266Y-130141500D01*
X117350227Y-130121815D01*
X117329585Y-130105181D01*
X114548580Y-127324175D01*
X114515095Y-127262852D01*
X114520079Y-127193160D01*
X114561951Y-127137227D01*
X114568870Y-127132664D01*
X114645471Y-127079024D01*
X113964400Y-126397953D01*
X114045148Y-126385165D01*
X114158045Y-126327641D01*
X114247641Y-126238045D01*
X114305165Y-126125148D01*
X114317953Y-126044400D01*
X114999024Y-126725471D01*
X115050136Y-126652478D01*
X115146264Y-126446331D01*
X115146269Y-126446317D01*
X115205139Y-126226610D01*
X115205141Y-126226599D01*
X115224966Y-126000002D01*
X115224966Y-125999997D01*
X115205141Y-125773400D01*
X115205139Y-125773389D01*
X115146269Y-125553682D01*
X115146264Y-125553668D01*
X115050136Y-125347521D01*
X115050132Y-125347513D01*
X114999025Y-125274526D01*
X114317953Y-125955598D01*
X114305165Y-125874852D01*
X114247641Y-125761955D01*
X114158045Y-125672359D01*
X114045148Y-125614835D01*
X113964401Y-125602046D01*
X114645472Y-124920974D01*
X114572478Y-124869863D01*
X114366331Y-124773735D01*
X114366317Y-124773730D01*
X114146610Y-124714860D01*
X114146599Y-124714858D01*
X113920002Y-124695034D01*
X113919998Y-124695034D01*
X113693400Y-124714858D01*
X113693389Y-124714860D01*
X113473682Y-124773730D01*
X113473673Y-124773734D01*
X113267516Y-124869866D01*
X113267512Y-124869868D01*
X113194526Y-124920973D01*
X113194526Y-124920974D01*
X113875599Y-125602046D01*
X113794852Y-125614835D01*
X113681955Y-125672359D01*
X113592359Y-125761955D01*
X113534835Y-125874852D01*
X113522046Y-125955598D01*
X112840974Y-125274526D01*
X112840972Y-125274526D01*
X112836059Y-125281544D01*
X112781482Y-125325168D01*
X112711983Y-125332360D01*
X112649629Y-125300837D01*
X112646804Y-125298100D01*
X112244753Y-124896049D01*
X111732988Y-124384283D01*
X111723087Y-124371923D01*
X111722877Y-124372098D01*
X111717902Y-124366086D01*
X111717900Y-124366082D01*
X111668231Y-124319440D01*
X111665434Y-124316729D01*
X111645666Y-124296961D01*
X111642404Y-124294431D01*
X111633519Y-124286843D01*
X111601221Y-124256514D01*
X111601219Y-124256512D01*
X111583331Y-124246678D01*
X111567070Y-124235997D01*
X111550939Y-124223484D01*
X111510275Y-124205888D01*
X111499785Y-124200749D01*
X111460960Y-124179405D01*
X111460956Y-124179404D01*
X111441187Y-124174328D01*
X111422781Y-124168026D01*
X111404044Y-124159918D01*
X111404045Y-124159918D01*
X111360283Y-124152987D01*
X111348847Y-124150619D01*
X111325607Y-124144652D01*
X111305932Y-124139600D01*
X111305930Y-124139600D01*
X111285516Y-124139600D01*
X111266117Y-124138073D01*
X111245958Y-124134880D01*
X111245957Y-124134880D01*
X111201843Y-124139050D01*
X111190174Y-124139600D01*
X110788264Y-124139600D01*
X110721225Y-124119915D01*
X110675470Y-124067111D01*
X110665526Y-123997953D01*
X110694551Y-123934397D01*
X110753329Y-123896623D01*
X110767851Y-123893291D01*
X110906951Y-123870080D01*
X111127727Y-123794287D01*
X111333017Y-123683190D01*
X111517220Y-123539818D01*
X111675314Y-123368083D01*
X111793902Y-123186569D01*
X111847048Y-123141213D01*
X111879382Y-123133778D01*
X111879084Y-123131894D01*
X111886786Y-123130673D01*
X111886789Y-123130673D01*
X111906381Y-123124980D01*
X111925438Y-123121032D01*
X111945697Y-123118474D01*
X111986906Y-123102157D01*
X111997943Y-123098379D01*
X112040493Y-123086018D01*
X112058065Y-123075625D01*
X112075532Y-123067068D01*
X112094517Y-123059552D01*
X112130361Y-123033508D01*
X112140130Y-123027092D01*
X112178262Y-123004542D01*
X112192702Y-122990100D01*
X112207492Y-122977470D01*
X112224007Y-122965472D01*
X112252259Y-122931319D01*
X112260103Y-122922699D01*
X112404497Y-122778305D01*
X112465818Y-122744822D01*
X112535510Y-122749806D01*
G37*
%TD.AperFunction*%
%TA.AperFunction,Conductor*%
G36*
X137787643Y-122721585D02*
G01*
X137833398Y-122774389D01*
X137843342Y-122843547D01*
X137840379Y-122857993D01*
X137796458Y-123021907D01*
X137796456Y-123021918D01*
X137776502Y-123249998D01*
X137776502Y-123250001D01*
X137796456Y-123478081D01*
X137796457Y-123478089D01*
X137855714Y-123699238D01*
X137855718Y-123699249D01*
X137935378Y-123870080D01*
X137952477Y-123906749D01*
X138083802Y-124094300D01*
X138245700Y-124256198D01*
X138433251Y-124387523D01*
X138558091Y-124445736D01*
X138640750Y-124484281D01*
X138640752Y-124484281D01*
X138640757Y-124484284D01*
X138861913Y-124543543D01*
X139024832Y-124557796D01*
X139089998Y-124563498D01*
X139090000Y-124563498D01*
X139090002Y-124563498D01*
X139147021Y-124558509D01*
X139318087Y-124543543D01*
X139539243Y-124484284D01*
X139746749Y-124387523D01*
X139934300Y-124256198D01*
X140096198Y-124094300D01*
X140227523Y-123906749D01*
X140324284Y-123699243D01*
X140383543Y-123478087D01*
X140403498Y-123250000D01*
X140400701Y-123218035D01*
X140393330Y-123133778D01*
X140383543Y-123021913D01*
X140356956Y-122922688D01*
X140339621Y-122857993D01*
X140341284Y-122788143D01*
X140380447Y-122730281D01*
X140444675Y-122702777D01*
X140459396Y-122701900D01*
X147889403Y-122701900D01*
X147956442Y-122721585D01*
X148002197Y-122774389D01*
X148012141Y-122843547D01*
X148009178Y-122857993D01*
X147971127Y-122999999D01*
X147971128Y-123000000D01*
X148934314Y-123000000D01*
X148922359Y-123011955D01*
X148864835Y-123124852D01*
X148845014Y-123250000D01*
X148864835Y-123375148D01*
X148922359Y-123488045D01*
X148934314Y-123500000D01*
X147971128Y-123500000D01*
X148023730Y-123696317D01*
X148023734Y-123696326D01*
X148119865Y-123902482D01*
X148250342Y-124088820D01*
X148411179Y-124249657D01*
X148597517Y-124380134D01*
X148803673Y-124476265D01*
X148803682Y-124476269D01*
X148999999Y-124528872D01*
X149000000Y-124528871D01*
X149000000Y-123565686D01*
X149011955Y-123577641D01*
X149124852Y-123635165D01*
X149218519Y-123650000D01*
X149281481Y-123650000D01*
X149375148Y-123635165D01*
X149488045Y-123577641D01*
X149500000Y-123565686D01*
X149500000Y-124528872D01*
X149696317Y-124476269D01*
X149696326Y-124476265D01*
X149902482Y-124380134D01*
X150088820Y-124249657D01*
X150249657Y-124088820D01*
X150380134Y-123902482D01*
X150476265Y-123696326D01*
X150476269Y-123696317D01*
X150528872Y-123500000D01*
X149565686Y-123500000D01*
X149577641Y-123488045D01*
X149635165Y-123375148D01*
X149654986Y-123250000D01*
X149635165Y-123124852D01*
X149577641Y-123011955D01*
X149565686Y-123000000D01*
X150528872Y-123000000D01*
X150528872Y-122999999D01*
X150490822Y-122857993D01*
X150492485Y-122788143D01*
X150531648Y-122730281D01*
X150595876Y-122702777D01*
X150610597Y-122701900D01*
X152929302Y-122701900D01*
X152996341Y-122721585D01*
X153042096Y-122774389D01*
X153052040Y-122843547D01*
X153023015Y-122907103D01*
X153000431Y-122927470D01*
X152905700Y-122993802D01*
X152905698Y-122993803D01*
X152905695Y-122993806D01*
X152743806Y-123155695D01*
X152743803Y-123155698D01*
X152743802Y-123155700D01*
X152696147Y-123223758D01*
X152612476Y-123343252D01*
X152612475Y-123343254D01*
X152515718Y-123550750D01*
X152515714Y-123550761D01*
X152456457Y-123771910D01*
X152456456Y-123771918D01*
X152436502Y-123999998D01*
X152436502Y-124000001D01*
X152454514Y-124205888D01*
X152456457Y-124228087D01*
X152468198Y-124271907D01*
X152473758Y-124292655D01*
X152472095Y-124362504D01*
X152441664Y-124412429D01*
X151023914Y-125830181D01*
X150962591Y-125863666D01*
X150936233Y-125866500D01*
X150468352Y-125866500D01*
X150401313Y-125846815D01*
X150366779Y-125813626D01*
X150256198Y-125655700D01*
X150094300Y-125493802D01*
X149906749Y-125362477D01*
X149906745Y-125362475D01*
X149699249Y-125265718D01*
X149699238Y-125265714D01*
X149478089Y-125206457D01*
X149478081Y-125206456D01*
X149250002Y-125186502D01*
X149249998Y-125186502D01*
X149021918Y-125206456D01*
X149021910Y-125206457D01*
X148800761Y-125265714D01*
X148800750Y-125265718D01*
X148593254Y-125362475D01*
X148593246Y-125362480D01*
X148486758Y-125437043D01*
X148420552Y-125459370D01*
X148352784Y-125442360D01*
X148327954Y-125423149D01*
X147791220Y-124886415D01*
X147757735Y-124825092D01*
X147755582Y-124811712D01*
X147738142Y-124645772D01*
X147679127Y-124464144D01*
X147583640Y-124298756D01*
X147455853Y-124156834D01*
X147301352Y-124044582D01*
X147126888Y-123966906D01*
X147126886Y-123966905D01*
X146940087Y-123927200D01*
X146749113Y-123927200D01*
X146562314Y-123966905D01*
X146387846Y-124044583D01*
X146233345Y-124156835D01*
X146105559Y-124298757D01*
X146010073Y-124464143D01*
X146010070Y-124464150D01*
X145951059Y-124645768D01*
X145951058Y-124645772D01*
X145931096Y-124835700D01*
X145951058Y-125025628D01*
X145951059Y-125025631D01*
X146010070Y-125207249D01*
X146010073Y-125207256D01*
X146105560Y-125372644D01*
X146233347Y-125514566D01*
X146387848Y-125626818D01*
X146562312Y-125704494D01*
X146749113Y-125744200D01*
X146805834Y-125744200D01*
X146872873Y-125763885D01*
X146893515Y-125780519D01*
X147453281Y-126340285D01*
X147486766Y-126401608D01*
X147489600Y-126427966D01*
X147489600Y-126428393D01*
X147487404Y-126451628D01*
X147485825Y-126459903D01*
X147485825Y-126459906D01*
X147487725Y-126490114D01*
X147489355Y-126516014D01*
X147489600Y-126523800D01*
X147489600Y-126539862D01*
X147491612Y-126555788D01*
X147492343Y-126563535D01*
X147495875Y-126619650D01*
X147497607Y-126624981D01*
X147498479Y-126627663D01*
X147503570Y-126650437D01*
X147504625Y-126658794D01*
X147504627Y-126658801D01*
X147525321Y-126711068D01*
X147527959Y-126718395D01*
X147545336Y-126771876D01*
X147549850Y-126778988D01*
X147560446Y-126799782D01*
X147563549Y-126807619D01*
X147596597Y-126853107D01*
X147600974Y-126859548D01*
X147631098Y-126907016D01*
X147631099Y-126907017D01*
X147631100Y-126907018D01*
X147637245Y-126912788D01*
X147652679Y-126930296D01*
X147657628Y-126937107D01*
X147700960Y-126972954D01*
X147706786Y-126978091D01*
X147747780Y-127016587D01*
X147747784Y-127016590D01*
X147755159Y-127020644D01*
X147774462Y-127033761D01*
X147780956Y-127039133D01*
X147831827Y-127063071D01*
X147838759Y-127066602D01*
X147888040Y-127093695D01*
X147896202Y-127095790D01*
X147918159Y-127103696D01*
X147925782Y-127107283D01*
X147981019Y-127117819D01*
X147988616Y-127119518D01*
X148043070Y-127133500D01*
X148043077Y-127133500D01*
X148046839Y-127133976D01*
X148049579Y-127135171D01*
X148050626Y-127135440D01*
X148050582Y-127135608D01*
X148110883Y-127161909D01*
X148132869Y-127185872D01*
X148210246Y-127296378D01*
X148232573Y-127362582D01*
X148215563Y-127430350D01*
X148164615Y-127478163D01*
X148108671Y-127491500D01*
X146074967Y-127491500D01*
X146007928Y-127471815D01*
X145987286Y-127455181D01*
X145243220Y-126711115D01*
X145209735Y-126649792D01*
X145207582Y-126636412D01*
X145190142Y-126470472D01*
X145131127Y-126288844D01*
X145035640Y-126123456D01*
X144907853Y-125981534D01*
X144753352Y-125869282D01*
X144578888Y-125791606D01*
X144578886Y-125791605D01*
X144392087Y-125751900D01*
X144201113Y-125751900D01*
X144014314Y-125791605D01*
X143839846Y-125869283D01*
X143685345Y-125981535D01*
X143557559Y-126123457D01*
X143462073Y-126288843D01*
X143462070Y-126288850D01*
X143404682Y-126465474D01*
X143403058Y-126470472D01*
X143383096Y-126660400D01*
X143403058Y-126850328D01*
X143403059Y-126850331D01*
X143462070Y-127031949D01*
X143462073Y-127031956D01*
X143557560Y-127197344D01*
X143685347Y-127339266D01*
X143839848Y-127451518D01*
X144014312Y-127529194D01*
X144201113Y-127568900D01*
X144257834Y-127568900D01*
X144324873Y-127588585D01*
X144345515Y-127605219D01*
X144520115Y-127779819D01*
X144553600Y-127841142D01*
X144548616Y-127910834D01*
X144506744Y-127966767D01*
X144441280Y-127991184D01*
X144432434Y-127991500D01*
X139577309Y-127991500D01*
X139510270Y-127971815D01*
X139464515Y-127919011D01*
X139454571Y-127849853D01*
X139483596Y-127786297D01*
X139494866Y-127775282D01*
X139497016Y-127772992D01*
X139497018Y-127772991D01*
X139512441Y-127756566D01*
X139550429Y-127729068D01*
X139590887Y-127710202D01*
X139746749Y-127637523D01*
X139934300Y-127506198D01*
X140096198Y-127344300D01*
X140227523Y-127156749D01*
X140324284Y-126949243D01*
X140383543Y-126728087D01*
X140402097Y-126516014D01*
X140403498Y-126500001D01*
X140403498Y-126499998D01*
X140392702Y-126376604D01*
X140383543Y-126271913D01*
X140324284Y-126050757D01*
X140292005Y-125981535D01*
X140285736Y-125968091D01*
X140227523Y-125843251D01*
X140096198Y-125655700D01*
X139934300Y-125493802D01*
X139746749Y-125362477D01*
X139746745Y-125362475D01*
X139539249Y-125265718D01*
X139539238Y-125265714D01*
X139318089Y-125206457D01*
X139318081Y-125206456D01*
X139090002Y-125186502D01*
X139089998Y-125186502D01*
X138861918Y-125206456D01*
X138861910Y-125206457D01*
X138640761Y-125265714D01*
X138640750Y-125265718D01*
X138433254Y-125362475D01*
X138433252Y-125362476D01*
X138362856Y-125411767D01*
X138245700Y-125493802D01*
X138245698Y-125493803D01*
X138245695Y-125493806D01*
X138083806Y-125655695D01*
X138083803Y-125655698D01*
X138083802Y-125655700D01*
X138016442Y-125751900D01*
X137952476Y-125843252D01*
X137952475Y-125843254D01*
X137855718Y-126050750D01*
X137855714Y-126050761D01*
X137796457Y-126271910D01*
X137796456Y-126271918D01*
X137776502Y-126499998D01*
X137776502Y-126500001D01*
X137796456Y-126728081D01*
X137796457Y-126728089D01*
X137855714Y-126949238D01*
X137855718Y-126949249D01*
X137942815Y-127136028D01*
X137952477Y-127156749D01*
X138043472Y-127286703D01*
X138065799Y-127352908D01*
X138048789Y-127420676D01*
X138029578Y-127445508D01*
X137910234Y-127564851D01*
X137848911Y-127598335D01*
X137779219Y-127593351D01*
X137723286Y-127551479D01*
X137720735Y-127547610D01*
X137720628Y-127547686D01*
X137698244Y-127515718D01*
X137586198Y-127355700D01*
X137424300Y-127193802D01*
X137236749Y-127062477D01*
X137236745Y-127062475D01*
X137029249Y-126965718D01*
X137029238Y-126965714D01*
X136808089Y-126906457D01*
X136808081Y-126906456D01*
X136580002Y-126886502D01*
X136579998Y-126886502D01*
X136351918Y-126906456D01*
X136351910Y-126906457D01*
X136130761Y-126965714D01*
X136130750Y-126965718D01*
X135923254Y-127062475D01*
X135923252Y-127062476D01*
X135871981Y-127098377D01*
X135735700Y-127193802D01*
X135735698Y-127193803D01*
X135735695Y-127193806D01*
X135573806Y-127355695D01*
X135573803Y-127355698D01*
X135573802Y-127355700D01*
X135463220Y-127513625D01*
X135408646Y-127557249D01*
X135361648Y-127566500D01*
X134322776Y-127566500D01*
X134255737Y-127546815D01*
X134235095Y-127530181D01*
X132535149Y-125830235D01*
X132501664Y-125768912D01*
X132506648Y-125699220D01*
X132548520Y-125643287D01*
X132552388Y-125640735D01*
X132552314Y-125640628D01*
X132556746Y-125637523D01*
X132556749Y-125637523D01*
X132744300Y-125506198D01*
X132906198Y-125344300D01*
X133037523Y-125156749D01*
X133134284Y-124949243D01*
X133193543Y-124728087D01*
X133213498Y-124500000D01*
X133211421Y-124476265D01*
X133207796Y-124434832D01*
X133193543Y-124271913D01*
X133176241Y-124207341D01*
X133177904Y-124137491D01*
X133208333Y-124087569D01*
X134557685Y-122738219D01*
X134619008Y-122704734D01*
X134645366Y-122701900D01*
X137720604Y-122701900D01*
X137787643Y-122721585D01*
G37*
%TD.AperFunction*%
%TA.AperFunction,Conductor*%
G36*
X104084081Y-114538931D02*
G01*
X104128428Y-114567432D01*
X104889810Y-115328814D01*
X104899716Y-115341178D01*
X104899926Y-115341005D01*
X104904897Y-115347013D01*
X104904900Y-115347018D01*
X104954601Y-115393690D01*
X104957365Y-115396369D01*
X104977130Y-115416134D01*
X104980404Y-115418673D01*
X104989270Y-115426247D01*
X105021578Y-115456586D01*
X105039467Y-115466420D01*
X105055733Y-115477104D01*
X105071859Y-115489613D01*
X105112516Y-115507207D01*
X105123007Y-115512346D01*
X105161840Y-115533695D01*
X105181618Y-115538773D01*
X105200019Y-115545073D01*
X105218755Y-115553181D01*
X105262530Y-115560113D01*
X105273945Y-115562478D01*
X105316870Y-115573500D01*
X105337284Y-115573500D01*
X105356683Y-115575027D01*
X105376843Y-115578220D01*
X105420957Y-115574050D01*
X105432626Y-115573500D01*
X109278395Y-115573500D01*
X109345434Y-115593185D01*
X109391189Y-115645989D01*
X109401133Y-115715147D01*
X109390777Y-115749903D01*
X109388828Y-115754082D01*
X109385716Y-115760755D01*
X109385714Y-115760761D01*
X109326457Y-115981910D01*
X109326456Y-115981918D01*
X109306502Y-116209998D01*
X109306502Y-116210001D01*
X109326456Y-116438081D01*
X109326457Y-116438089D01*
X109385714Y-116659238D01*
X109385715Y-116659240D01*
X109385716Y-116659243D01*
X109444122Y-116784495D01*
X109454614Y-116853573D01*
X109426094Y-116917357D01*
X109367618Y-116955596D01*
X109331740Y-116960900D01*
X108246434Y-116960900D01*
X108230686Y-116959161D01*
X108230661Y-116959432D01*
X108222894Y-116958698D01*
X108222891Y-116958698D01*
X108154783Y-116960839D01*
X108150887Y-116960900D01*
X108122936Y-116960900D01*
X108118840Y-116961418D01*
X108107202Y-116962334D01*
X108062912Y-116963726D01*
X108062909Y-116963727D01*
X108043306Y-116969422D01*
X108024260Y-116973366D01*
X108004003Y-116975926D01*
X108004001Y-116975926D01*
X108003990Y-116975928D01*
X108002159Y-116976398D01*
X107997610Y-116976734D01*
X107996267Y-116976904D01*
X107996258Y-116976834D01*
X107970485Y-116978739D01*
X107970485Y-116980200D01*
X107773013Y-116980200D01*
X107586214Y-117019905D01*
X107586212Y-117019906D01*
X107487620Y-117063802D01*
X107411746Y-117097583D01*
X107257245Y-117209835D01*
X107129459Y-117351757D01*
X107033973Y-117517143D01*
X107033970Y-117517150D01*
X106979486Y-117684835D01*
X106974958Y-117698772D01*
X106954996Y-117888700D01*
X106974958Y-118078628D01*
X106974959Y-118078631D01*
X107033970Y-118260249D01*
X107033973Y-118260256D01*
X107129460Y-118425644D01*
X107222148Y-118528585D01*
X107246022Y-118555100D01*
X107257247Y-118567566D01*
X107411748Y-118679818D01*
X107586212Y-118757494D01*
X107773013Y-118797200D01*
X107963987Y-118797200D01*
X108150788Y-118757494D01*
X108325252Y-118679818D01*
X108479753Y-118567566D01*
X108607540Y-118425644D01*
X108685912Y-118289900D01*
X108736479Y-118241684D01*
X108793299Y-118227900D01*
X109243638Y-118227900D01*
X109310677Y-118247585D01*
X109356432Y-118300389D01*
X109366376Y-118369547D01*
X109363414Y-118383986D01*
X109352046Y-118426414D01*
X109326457Y-118521911D01*
X109326456Y-118521918D01*
X109306502Y-118749998D01*
X109306502Y-118750001D01*
X109326456Y-118978081D01*
X109326457Y-118978089D01*
X109385714Y-119199238D01*
X109385718Y-119199249D01*
X109481988Y-119405700D01*
X109482477Y-119406749D01*
X109613802Y-119594300D01*
X109775700Y-119756198D01*
X109963251Y-119887523D01*
X110088091Y-119945736D01*
X110170750Y-119984281D01*
X110170752Y-119984281D01*
X110170757Y-119984284D01*
X110391913Y-120043543D01*
X110554832Y-120057796D01*
X110619998Y-120063498D01*
X110620000Y-120063498D01*
X110620002Y-120063498D01*
X110677021Y-120058509D01*
X110848087Y-120043543D01*
X111069243Y-119984284D01*
X111276749Y-119887523D01*
X111464300Y-119756198D01*
X111626198Y-119594300D01*
X111757523Y-119406749D01*
X111854284Y-119199243D01*
X111913543Y-118978087D01*
X111933498Y-118750000D01*
X111931463Y-118726745D01*
X111917537Y-118567564D01*
X111913543Y-118521913D01*
X111876587Y-118383992D01*
X111878250Y-118314144D01*
X111917412Y-118256281D01*
X111981641Y-118228777D01*
X111996362Y-118227900D01*
X112236333Y-118227900D01*
X112303372Y-118247585D01*
X112324014Y-118264219D01*
X112325413Y-118265618D01*
X112335322Y-118277985D01*
X112335532Y-118277812D01*
X112340501Y-118283820D01*
X112361653Y-118303682D01*
X112390186Y-118330475D01*
X112392951Y-118333156D01*
X112412723Y-118352929D01*
X112412727Y-118352932D01*
X112412730Y-118352935D01*
X112416012Y-118355481D01*
X112424872Y-118363049D01*
X112457179Y-118393386D01*
X112457181Y-118393387D01*
X112475062Y-118403217D01*
X112491329Y-118413902D01*
X112507460Y-118426415D01*
X112527657Y-118435154D01*
X112548125Y-118444010D01*
X112558604Y-118449144D01*
X112597440Y-118470495D01*
X112617216Y-118475572D01*
X112635623Y-118481874D01*
X112654355Y-118489981D01*
X112698130Y-118496913D01*
X112709545Y-118499278D01*
X112752470Y-118510300D01*
X112772884Y-118510300D01*
X112792267Y-118511824D01*
X112796350Y-118512471D01*
X112859485Y-118542396D01*
X112896420Y-118601705D01*
X112895426Y-118671568D01*
X112878533Y-118706068D01*
X112782479Y-118843246D01*
X112782475Y-118843254D01*
X112685718Y-119050750D01*
X112685714Y-119050761D01*
X112626457Y-119271910D01*
X112626456Y-119271918D01*
X112606502Y-119499998D01*
X112606502Y-119500001D01*
X112626456Y-119728081D01*
X112626457Y-119728089D01*
X112685714Y-119949238D01*
X112685718Y-119949249D01*
X112782475Y-120156745D01*
X112782477Y-120156749D01*
X112847772Y-120250000D01*
X112908852Y-120337230D01*
X112931179Y-120403436D01*
X112914169Y-120471204D01*
X112894958Y-120496035D01*
X111806845Y-121584148D01*
X111745522Y-121617633D01*
X111675830Y-121612649D01*
X111627936Y-121580451D01*
X111517220Y-121460182D01*
X111333017Y-121316810D01*
X111333015Y-121316809D01*
X111333014Y-121316808D01*
X111333011Y-121316806D01*
X111127733Y-121205716D01*
X111127730Y-121205715D01*
X111127727Y-121205713D01*
X111127721Y-121205711D01*
X111127719Y-121205710D01*
X110906954Y-121129920D01*
X110734271Y-121101105D01*
X110676712Y-121091500D01*
X110443288Y-121091500D01*
X110426485Y-121094304D01*
X110213045Y-121129920D01*
X109992280Y-121205710D01*
X109992266Y-121205716D01*
X109786988Y-121316806D01*
X109786985Y-121316808D01*
X109602781Y-121460181D01*
X109602776Y-121460185D01*
X109444686Y-121631915D01*
X109317015Y-121827331D01*
X109223251Y-122041092D01*
X109165948Y-122267377D01*
X109146673Y-122499994D01*
X109146673Y-122500005D01*
X109165948Y-122732622D01*
X109223251Y-122958907D01*
X109317015Y-123172668D01*
X109444686Y-123368084D01*
X109602776Y-123539814D01*
X109602780Y-123539818D01*
X109786983Y-123683190D01*
X109786985Y-123683191D01*
X109786988Y-123683193D01*
X109831614Y-123707343D01*
X109992273Y-123794287D01*
X110106914Y-123833643D01*
X110213045Y-123870079D01*
X110213047Y-123870079D01*
X110213049Y-123870080D01*
X110352146Y-123893291D01*
X110415031Y-123923742D01*
X110451470Y-123983356D01*
X110449895Y-124053208D01*
X110410805Y-124111120D01*
X110346612Y-124138704D01*
X110331736Y-124139600D01*
X109697166Y-124139600D01*
X109630127Y-124119915D01*
X109609485Y-124103281D01*
X105258988Y-119752783D01*
X105249087Y-119740423D01*
X105248877Y-119740598D01*
X105243901Y-119734584D01*
X105243900Y-119734582D01*
X105194215Y-119687925D01*
X105191450Y-119685245D01*
X105171666Y-119665461D01*
X105168404Y-119662931D01*
X105159519Y-119655343D01*
X105141253Y-119638191D01*
X105127221Y-119625014D01*
X105127219Y-119625012D01*
X105109331Y-119615178D01*
X105093070Y-119604497D01*
X105076939Y-119591984D01*
X105036275Y-119574388D01*
X105025785Y-119569249D01*
X104986960Y-119547905D01*
X104986956Y-119547904D01*
X104967187Y-119542828D01*
X104948781Y-119536526D01*
X104930044Y-119528418D01*
X104930045Y-119528418D01*
X104886283Y-119521487D01*
X104874847Y-119519119D01*
X104854715Y-119513950D01*
X104831932Y-119508100D01*
X104831930Y-119508100D01*
X104811516Y-119508100D01*
X104792117Y-119506573D01*
X104771958Y-119503380D01*
X104771957Y-119503380D01*
X104727843Y-119507550D01*
X104716174Y-119508100D01*
X104275525Y-119508100D01*
X104208486Y-119488415D01*
X104162731Y-119435611D01*
X104152787Y-119366453D01*
X104163143Y-119331695D01*
X104226265Y-119196326D01*
X104226269Y-119196317D01*
X104278872Y-119000000D01*
X103315686Y-119000000D01*
X103327641Y-118988045D01*
X103385165Y-118875148D01*
X103404986Y-118750000D01*
X103385165Y-118624852D01*
X103327641Y-118511955D01*
X103315686Y-118500000D01*
X104278872Y-118500000D01*
X104278872Y-118499999D01*
X104226269Y-118303682D01*
X104226265Y-118303673D01*
X104130134Y-118097517D01*
X103999657Y-117911179D01*
X103838820Y-117750342D01*
X103652481Y-117619865D01*
X103652479Y-117619864D01*
X103603599Y-117597071D01*
X103551159Y-117550899D01*
X103532007Y-117483706D01*
X103552223Y-117416824D01*
X103603599Y-117372307D01*
X103656749Y-117347523D01*
X103844300Y-117216198D01*
X104006198Y-117054300D01*
X104137523Y-116866749D01*
X104234284Y-116659243D01*
X104293543Y-116438087D01*
X104313498Y-116210000D01*
X104311463Y-116186745D01*
X104300996Y-116067102D01*
X104293543Y-115981913D01*
X104234284Y-115760757D01*
X104232813Y-115757603D01*
X104183390Y-115651613D01*
X104137523Y-115553251D01*
X104006198Y-115365700D01*
X103844300Y-115203802D01*
X103656749Y-115072477D01*
X103613655Y-115052382D01*
X103561215Y-115006210D01*
X103542063Y-114939017D01*
X103562278Y-114872136D01*
X103613655Y-114827618D01*
X103616882Y-114826112D01*
X103656749Y-114807523D01*
X103844300Y-114676198D01*
X103953066Y-114567432D01*
X104014389Y-114533947D01*
X104084081Y-114538931D01*
G37*
%TD.AperFunction*%
%TA.AperFunction,Conductor*%
G36*
X127044473Y-112744485D02*
G01*
X127090228Y-112797289D01*
X127100172Y-112866447D01*
X127071147Y-112930003D01*
X127012369Y-112967777D01*
X127009527Y-112968575D01*
X126803682Y-113023730D01*
X126803673Y-113023734D01*
X126597516Y-113119866D01*
X126597512Y-113119868D01*
X126524526Y-113170973D01*
X126524526Y-113170974D01*
X127205599Y-113852046D01*
X127124852Y-113864835D01*
X127011955Y-113922359D01*
X126922359Y-114011955D01*
X126864835Y-114124852D01*
X126852046Y-114205598D01*
X126170974Y-113524526D01*
X126170973Y-113524526D01*
X126119868Y-113597512D01*
X126119866Y-113597516D01*
X126023734Y-113803673D01*
X126023730Y-113803682D01*
X125964860Y-114023389D01*
X125964858Y-114023400D01*
X125945034Y-114249997D01*
X125945034Y-114250002D01*
X125964858Y-114476599D01*
X125964860Y-114476610D01*
X126023730Y-114696317D01*
X126023735Y-114696331D01*
X126119863Y-114902478D01*
X126170974Y-114975472D01*
X126852046Y-114294400D01*
X126864835Y-114375148D01*
X126922359Y-114488045D01*
X127011955Y-114577641D01*
X127124852Y-114635165D01*
X127205599Y-114647953D01*
X126524526Y-115329025D01*
X126597513Y-115380132D01*
X126597521Y-115380136D01*
X126803668Y-115476264D01*
X126803682Y-115476269D01*
X127023389Y-115535139D01*
X127023400Y-115535141D01*
X127249998Y-115554966D01*
X127250002Y-115554966D01*
X127476599Y-115535141D01*
X127476610Y-115535139D01*
X127696317Y-115476269D01*
X127696331Y-115476264D01*
X127902478Y-115380136D01*
X127975471Y-115329024D01*
X127294400Y-114647953D01*
X127375148Y-114635165D01*
X127488045Y-114577641D01*
X127577641Y-114488045D01*
X127635165Y-114375148D01*
X127647953Y-114294400D01*
X128329024Y-114975471D01*
X128380136Y-114902478D01*
X128476264Y-114696331D01*
X128476269Y-114696317D01*
X128535139Y-114476610D01*
X128535141Y-114476599D01*
X128554966Y-114250002D01*
X128554966Y-114249997D01*
X128535141Y-114023400D01*
X128535139Y-114023389D01*
X128476269Y-113803682D01*
X128476264Y-113803668D01*
X128380136Y-113597521D01*
X128380132Y-113597513D01*
X128329025Y-113524526D01*
X127647953Y-114205598D01*
X127635165Y-114124852D01*
X127577641Y-114011955D01*
X127488045Y-113922359D01*
X127375148Y-113864835D01*
X127294401Y-113852046D01*
X127975472Y-113170974D01*
X127902478Y-113119863D01*
X127696331Y-113023735D01*
X127696317Y-113023730D01*
X127490473Y-112968575D01*
X127430812Y-112932210D01*
X127400283Y-112869363D01*
X127408578Y-112799987D01*
X127453063Y-112746110D01*
X127519615Y-112724835D01*
X127522566Y-112724800D01*
X131944595Y-112724800D01*
X132011634Y-112744485D01*
X132057389Y-112797289D01*
X132067333Y-112866447D01*
X132038308Y-112930003D01*
X131979530Y-112967777D01*
X131976702Y-112968571D01*
X131948364Y-112976164D01*
X131800761Y-113015714D01*
X131800750Y-113015718D01*
X131593254Y-113112475D01*
X131593252Y-113112476D01*
X131564088Y-113132897D01*
X131405700Y-113243802D01*
X131405698Y-113243803D01*
X131405695Y-113243806D01*
X131243806Y-113405695D01*
X131243803Y-113405698D01*
X131243802Y-113405700D01*
X131173161Y-113506586D01*
X131112476Y-113593252D01*
X131112475Y-113593254D01*
X131015718Y-113800750D01*
X131015714Y-113800761D01*
X130956457Y-114021910D01*
X130956456Y-114021918D01*
X130936502Y-114249998D01*
X130936502Y-114250001D01*
X130956456Y-114478081D01*
X130956457Y-114478089D01*
X131015714Y-114699238D01*
X131015718Y-114699249D01*
X131112475Y-114906745D01*
X131112477Y-114906749D01*
X131243802Y-115094300D01*
X131405700Y-115256198D01*
X131593251Y-115387523D01*
X131714796Y-115444200D01*
X131800750Y-115484281D01*
X131800752Y-115484281D01*
X131800757Y-115484284D01*
X132021913Y-115543543D01*
X132177088Y-115557119D01*
X132249998Y-115563498D01*
X132250000Y-115563498D01*
X132250002Y-115563498D01*
X132307021Y-115558509D01*
X132478087Y-115543543D01*
X132699243Y-115484284D01*
X132906749Y-115387523D01*
X133094300Y-115256198D01*
X133256198Y-115094300D01*
X133387523Y-114906749D01*
X133484284Y-114699243D01*
X133543543Y-114478087D01*
X133562709Y-114259017D01*
X133563498Y-114250001D01*
X133563498Y-114249998D01*
X133553658Y-114137524D01*
X133543543Y-114021913D01*
X133484284Y-113800757D01*
X133483939Y-113800018D01*
X133437420Y-113700257D01*
X133387523Y-113593251D01*
X133256198Y-113405700D01*
X133094300Y-113243802D01*
X132906749Y-113112477D01*
X132885971Y-113102788D01*
X132699249Y-113015718D01*
X132699238Y-113015714D01*
X132560688Y-112978590D01*
X132523310Y-112968574D01*
X132463651Y-112932210D01*
X132433122Y-112869363D01*
X132441417Y-112799987D01*
X132485902Y-112746109D01*
X132552454Y-112724835D01*
X132555405Y-112724800D01*
X137803267Y-112724800D01*
X137870306Y-112744485D01*
X137916061Y-112797289D01*
X137926005Y-112866447D01*
X137923042Y-112880893D01*
X137884860Y-113023389D01*
X137884858Y-113023400D01*
X137865034Y-113249997D01*
X137865034Y-113250002D01*
X137884858Y-113476599D01*
X137884860Y-113476610D01*
X137943730Y-113696317D01*
X137943735Y-113696331D01*
X138039863Y-113902478D01*
X138090974Y-113975472D01*
X138772046Y-113294400D01*
X138784835Y-113375148D01*
X138842359Y-113488045D01*
X138931955Y-113577641D01*
X139044852Y-113635165D01*
X139125599Y-113647953D01*
X138444526Y-114329025D01*
X138517513Y-114380132D01*
X138517521Y-114380136D01*
X138723668Y-114476264D01*
X138723682Y-114476269D01*
X138943389Y-114535139D01*
X138943400Y-114535141D01*
X139169998Y-114554966D01*
X139170002Y-114554966D01*
X139396599Y-114535141D01*
X139396610Y-114535139D01*
X139616317Y-114476269D01*
X139616331Y-114476264D01*
X139822478Y-114380136D01*
X139895471Y-114329024D01*
X139214400Y-113647953D01*
X139295148Y-113635165D01*
X139408045Y-113577641D01*
X139497641Y-113488045D01*
X139555165Y-113375148D01*
X139567953Y-113294400D01*
X140249024Y-113975471D01*
X140300131Y-113902487D01*
X140300135Y-113902480D01*
X140318962Y-113862106D01*
X140365134Y-113809666D01*
X140432327Y-113790514D01*
X140499208Y-113810729D01*
X140519025Y-113826829D01*
X141999910Y-115307714D01*
X142009816Y-115320078D01*
X142010026Y-115319905D01*
X142014997Y-115325913D01*
X142015000Y-115325918D01*
X142064701Y-115372590D01*
X142067465Y-115375269D01*
X142087230Y-115395034D01*
X142090504Y-115397573D01*
X142099370Y-115405147D01*
X142131678Y-115435486D01*
X142149567Y-115445320D01*
X142165833Y-115456004D01*
X142181959Y-115468513D01*
X142222616Y-115486107D01*
X142233107Y-115491246D01*
X142271940Y-115512595D01*
X142291718Y-115517673D01*
X142310119Y-115523973D01*
X142328855Y-115532081D01*
X142372630Y-115539013D01*
X142384045Y-115541378D01*
X142426970Y-115552400D01*
X142447384Y-115552400D01*
X142466783Y-115553927D01*
X142486943Y-115557120D01*
X142531057Y-115552950D01*
X142542726Y-115552400D01*
X148297740Y-115552400D01*
X148364779Y-115572085D01*
X148410534Y-115624889D01*
X148420478Y-115694047D01*
X148391453Y-115757603D01*
X148385421Y-115764081D01*
X148243806Y-115905695D01*
X148243803Y-115905698D01*
X148243802Y-115905700D01*
X148171698Y-116008675D01*
X148112476Y-116093252D01*
X148112475Y-116093254D01*
X148015718Y-116300750D01*
X148015714Y-116300761D01*
X147956457Y-116521910D01*
X147956456Y-116521918D01*
X147936502Y-116749998D01*
X147936502Y-116750001D01*
X147956456Y-116978081D01*
X147956457Y-116978089D01*
X148015714Y-117199238D01*
X148015718Y-117199249D01*
X148108985Y-117399261D01*
X148112477Y-117406749D01*
X148243802Y-117594300D01*
X148306615Y-117657113D01*
X148352567Y-117703065D01*
X148386051Y-117764388D01*
X148381067Y-117834080D01*
X148352566Y-117878427D01*
X147690979Y-118540014D01*
X147678620Y-118549918D01*
X147678793Y-118550127D01*
X147672782Y-118555100D01*
X147626137Y-118604770D01*
X147623432Y-118607561D01*
X147603673Y-118627321D01*
X147603658Y-118627338D01*
X147601117Y-118630613D01*
X147593553Y-118639467D01*
X147563220Y-118671771D01*
X147563212Y-118671781D01*
X147553379Y-118689667D01*
X147542703Y-118705920D01*
X147530186Y-118722057D01*
X147530185Y-118722060D01*
X147512585Y-118762729D01*
X147507448Y-118773215D01*
X147486103Y-118812041D01*
X147486103Y-118812042D01*
X147481025Y-118831820D01*
X147474725Y-118850222D01*
X147466618Y-118868957D01*
X147459688Y-118912709D01*
X147457320Y-118924145D01*
X147446300Y-118967065D01*
X147446300Y-118987484D01*
X147444773Y-119006883D01*
X147441816Y-119025556D01*
X147441580Y-119027043D01*
X147442992Y-119041977D01*
X147445750Y-119071157D01*
X147446300Y-119082826D01*
X147446300Y-121310900D01*
X147426615Y-121377939D01*
X147373811Y-121423694D01*
X147322300Y-121434900D01*
X139668348Y-121434900D01*
X139601309Y-121415215D01*
X139555554Y-121362411D01*
X139545610Y-121293253D01*
X139574635Y-121229697D01*
X139615944Y-121198518D01*
X139640902Y-121186880D01*
X139746749Y-121137523D01*
X139934300Y-121006198D01*
X140096198Y-120844300D01*
X140227523Y-120656749D01*
X140324284Y-120449243D01*
X140383543Y-120228087D01*
X140403498Y-120000000D01*
X140383543Y-119771913D01*
X140324284Y-119550757D01*
X140322232Y-119546357D01*
X140279087Y-119453832D01*
X140227523Y-119343251D01*
X140096198Y-119155700D01*
X139934300Y-118993802D01*
X139746749Y-118862477D01*
X139705525Y-118843254D01*
X139539249Y-118765718D01*
X139539238Y-118765714D01*
X139318089Y-118706457D01*
X139318081Y-118706456D01*
X139090002Y-118686502D01*
X139089998Y-118686502D01*
X138861918Y-118706456D01*
X138861907Y-118706458D01*
X138797343Y-118723758D01*
X138727493Y-118722095D01*
X138677569Y-118691664D01*
X137472488Y-117486583D01*
X137462587Y-117474223D01*
X137462377Y-117474398D01*
X137457402Y-117468386D01*
X137457400Y-117468382D01*
X137407731Y-117421740D01*
X137404934Y-117419029D01*
X137385166Y-117399261D01*
X137381904Y-117396731D01*
X137373019Y-117389143D01*
X137340721Y-117358814D01*
X137340719Y-117358812D01*
X137322831Y-117348978D01*
X137306570Y-117338297D01*
X137290439Y-117325784D01*
X137249775Y-117308188D01*
X137239285Y-117303049D01*
X137200460Y-117281705D01*
X137200456Y-117281704D01*
X137180687Y-117276628D01*
X137162281Y-117270326D01*
X137143544Y-117262218D01*
X137143545Y-117262218D01*
X137099783Y-117255287D01*
X137088347Y-117252919D01*
X137073593Y-117249131D01*
X137045432Y-117241900D01*
X137045430Y-117241900D01*
X137025016Y-117241900D01*
X137005617Y-117240373D01*
X136985458Y-117237180D01*
X136985457Y-117237180D01*
X136941343Y-117241350D01*
X136929674Y-117241900D01*
X127659867Y-117241900D01*
X127592828Y-117222215D01*
X127572186Y-117205581D01*
X127116606Y-116750001D01*
X137776502Y-116750001D01*
X137796456Y-116978081D01*
X137796457Y-116978089D01*
X137855714Y-117199238D01*
X137855718Y-117199249D01*
X137948985Y-117399261D01*
X137952477Y-117406749D01*
X138083802Y-117594300D01*
X138245700Y-117756198D01*
X138433251Y-117887523D01*
X138483982Y-117911179D01*
X138640750Y-117984281D01*
X138640752Y-117984281D01*
X138640757Y-117984284D01*
X138861913Y-118043543D01*
X139024832Y-118057796D01*
X139089998Y-118063498D01*
X139090000Y-118063498D01*
X139090002Y-118063498D01*
X139147021Y-118058509D01*
X139318087Y-118043543D01*
X139539243Y-117984284D01*
X139746749Y-117887523D01*
X139934300Y-117756198D01*
X140096198Y-117594300D01*
X140227523Y-117406749D01*
X140324284Y-117199243D01*
X140383543Y-116978087D01*
X140403498Y-116750000D01*
X140383543Y-116521913D01*
X140324284Y-116300757D01*
X140227523Y-116093251D01*
X140096198Y-115905700D01*
X139934300Y-115743802D01*
X139746749Y-115612477D01*
X139741017Y-115609804D01*
X139539249Y-115515718D01*
X139539238Y-115515714D01*
X139318089Y-115456457D01*
X139318081Y-115456456D01*
X139090002Y-115436502D01*
X139089998Y-115436502D01*
X138861918Y-115456456D01*
X138861910Y-115456457D01*
X138640761Y-115515714D01*
X138640750Y-115515718D01*
X138433254Y-115612475D01*
X138433252Y-115612476D01*
X138385391Y-115645989D01*
X138245700Y-115743802D01*
X138245698Y-115743803D01*
X138245695Y-115743806D01*
X138083806Y-115905695D01*
X138083803Y-115905698D01*
X138083802Y-115905700D01*
X138011698Y-116008675D01*
X137952476Y-116093252D01*
X137952475Y-116093254D01*
X137855718Y-116300750D01*
X137855714Y-116300761D01*
X137796457Y-116521910D01*
X137796456Y-116521918D01*
X137776502Y-116749998D01*
X137776502Y-116750001D01*
X127116606Y-116750001D01*
X124703326Y-114336721D01*
X124669841Y-114275398D01*
X124674825Y-114205706D01*
X124716697Y-114149773D01*
X124732211Y-114140485D01*
X124732063Y-114140228D01*
X124736738Y-114137527D01*
X124736749Y-114137523D01*
X124924300Y-114006198D01*
X125086198Y-113844300D01*
X125198570Y-113683816D01*
X125253144Y-113640195D01*
X125296248Y-113631004D01*
X125306789Y-113630673D01*
X125326381Y-113624980D01*
X125345438Y-113621032D01*
X125365697Y-113618474D01*
X125406906Y-113602157D01*
X125417943Y-113598379D01*
X125460493Y-113586018D01*
X125478065Y-113575625D01*
X125495532Y-113567068D01*
X125514517Y-113559552D01*
X125550361Y-113533508D01*
X125560130Y-113527092D01*
X125570225Y-113521122D01*
X125598262Y-113504542D01*
X125612702Y-113490100D01*
X125627492Y-113477470D01*
X125644007Y-113465472D01*
X125672259Y-113431319D01*
X125680103Y-113422699D01*
X126341686Y-112761119D01*
X126403009Y-112727634D01*
X126429367Y-112724800D01*
X126977434Y-112724800D01*
X127044473Y-112744485D01*
G37*
%TD.AperFunction*%
%TA.AperFunction,Conductor*%
G36*
X150558365Y-115913622D02*
G01*
X150576489Y-115931445D01*
X150581097Y-115937015D01*
X150581099Y-115937017D01*
X150581100Y-115937018D01*
X150630786Y-115983675D01*
X150633551Y-115986356D01*
X150653323Y-116006129D01*
X150653327Y-116006132D01*
X150653330Y-116006135D01*
X150656612Y-116008681D01*
X150665472Y-116016249D01*
X150697779Y-116046586D01*
X150697781Y-116046587D01*
X150715662Y-116056417D01*
X150731929Y-116067102D01*
X150748060Y-116079615D01*
X150768257Y-116088354D01*
X150788725Y-116097210D01*
X150799204Y-116102344D01*
X150838040Y-116123695D01*
X150857816Y-116128772D01*
X150876223Y-116135074D01*
X150894955Y-116143181D01*
X150938730Y-116150113D01*
X150950145Y-116152478D01*
X150993070Y-116163500D01*
X150993071Y-116163500D01*
X150996839Y-116163976D01*
X150999578Y-116165170D01*
X151000627Y-116165440D01*
X151000583Y-116165609D01*
X151060883Y-116191909D01*
X151082869Y-116215872D01*
X151193802Y-116374300D01*
X151355700Y-116536198D01*
X151531435Y-116659249D01*
X151543251Y-116667523D01*
X151596401Y-116692307D01*
X151648840Y-116738479D01*
X151667992Y-116805673D01*
X151647776Y-116872554D01*
X151596401Y-116917071D01*
X151547517Y-116939865D01*
X151361179Y-117070342D01*
X151200342Y-117231179D01*
X151069865Y-117417517D01*
X150973734Y-117623673D01*
X150973730Y-117623682D01*
X150921127Y-117819999D01*
X150921128Y-117820000D01*
X151884314Y-117820000D01*
X151872359Y-117831955D01*
X151814835Y-117944852D01*
X151795014Y-118070000D01*
X151814835Y-118195148D01*
X151872359Y-118308045D01*
X151884314Y-118320000D01*
X150921128Y-118320000D01*
X150973730Y-118516317D01*
X150973734Y-118516326D01*
X151069865Y-118722482D01*
X151200342Y-118908820D01*
X151361179Y-119069657D01*
X151462959Y-119140925D01*
X151506584Y-119195503D01*
X151513776Y-119265001D01*
X151482254Y-119327356D01*
X151422024Y-119362769D01*
X151391835Y-119366500D01*
X150468352Y-119366500D01*
X150401313Y-119346815D01*
X150366779Y-119313626D01*
X150256198Y-119155700D01*
X150094300Y-118993802D01*
X149906749Y-118862477D01*
X149865525Y-118843254D01*
X149699249Y-118765718D01*
X149699237Y-118765714D01*
X149557981Y-118727864D01*
X149498321Y-118691498D01*
X149467792Y-118628651D01*
X149476087Y-118559276D01*
X149502391Y-118520411D01*
X149638815Y-118383987D01*
X149651180Y-118374083D01*
X149651006Y-118373873D01*
X149657012Y-118368903D01*
X149657018Y-118368900D01*
X149703706Y-118319180D01*
X149706355Y-118316447D01*
X149726135Y-118296669D01*
X149728670Y-118293399D01*
X149736259Y-118284515D01*
X149742554Y-118277812D01*
X149766586Y-118252221D01*
X149776420Y-118234329D01*
X149787103Y-118218067D01*
X149799614Y-118201941D01*
X149817207Y-118161281D01*
X149822350Y-118150785D01*
X149843693Y-118111964D01*
X149843693Y-118111963D01*
X149843695Y-118111960D01*
X149848774Y-118092173D01*
X149855070Y-118073785D01*
X149863181Y-118055045D01*
X149870113Y-118011272D01*
X149872478Y-117999853D01*
X149883500Y-117956930D01*
X149883500Y-117956926D01*
X149883976Y-117953162D01*
X149885170Y-117950423D01*
X149885440Y-117949373D01*
X149885609Y-117949416D01*
X149911907Y-117889118D01*
X149935867Y-117867133D01*
X150094300Y-117756198D01*
X150256198Y-117594300D01*
X150387523Y-117406749D01*
X150484284Y-117199243D01*
X150543543Y-116978087D01*
X150563498Y-116750000D01*
X150543543Y-116521913D01*
X150484284Y-116300757D01*
X150387523Y-116093251D01*
X150379369Y-116081606D01*
X150357042Y-116015402D01*
X150374051Y-115947635D01*
X150424998Y-115899821D01*
X150493708Y-115887142D01*
X150558365Y-115913622D01*
G37*
%TD.AperFunction*%
%TA.AperFunction,Conductor*%
G36*
X161942539Y-100020185D02*
G01*
X161988294Y-100072989D01*
X161999500Y-100124500D01*
X161999500Y-139875500D01*
X161979815Y-139942539D01*
X161927011Y-139988294D01*
X161875500Y-139999500D01*
X100124500Y-139999500D01*
X100057461Y-139979815D01*
X100011706Y-139927011D01*
X100000500Y-139875500D01*
X100000500Y-136348654D01*
X101441500Y-136348654D01*
X101448011Y-136409202D01*
X101448011Y-136409204D01*
X101484126Y-136506028D01*
X101499111Y-136546204D01*
X101586739Y-136663261D01*
X101703796Y-136750889D01*
X101840799Y-136801989D01*
X101868050Y-136804918D01*
X101901345Y-136808499D01*
X101901362Y-136808500D01*
X103598638Y-136808500D01*
X103598654Y-136808499D01*
X103625692Y-136805591D01*
X103659201Y-136801989D01*
X103796204Y-136750889D01*
X103913261Y-136663261D01*
X104000889Y-136546204D01*
X104051989Y-136409201D01*
X104055591Y-136375692D01*
X104058499Y-136348654D01*
X104058677Y-136345331D01*
X104058855Y-136345340D01*
X104058856Y-136345335D01*
X104058959Y-136345346D01*
X104060128Y-136345408D01*
X104078185Y-136283915D01*
X104130989Y-136238160D01*
X104163967Y-136232479D01*
X104852046Y-135544400D01*
X104864835Y-135625148D01*
X104922359Y-135738045D01*
X105011955Y-135827641D01*
X105124852Y-135885165D01*
X105205599Y-135897953D01*
X104524526Y-136579025D01*
X104597513Y-136630132D01*
X104597521Y-136630136D01*
X104803668Y-136726264D01*
X104803682Y-136726269D01*
X105023389Y-136785139D01*
X105023400Y-136785141D01*
X105249998Y-136804966D01*
X105250002Y-136804966D01*
X105476599Y-136785141D01*
X105476610Y-136785139D01*
X105696317Y-136726269D01*
X105696331Y-136726264D01*
X105902478Y-136630136D01*
X105975471Y-136579024D01*
X105294400Y-135897953D01*
X105375148Y-135885165D01*
X105488045Y-135827641D01*
X105577641Y-135738045D01*
X105635165Y-135625148D01*
X105647953Y-135544400D01*
X106329024Y-136225471D01*
X106380136Y-136152478D01*
X106476264Y-135946331D01*
X106476269Y-135946317D01*
X106535139Y-135726610D01*
X106535141Y-135726599D01*
X106554966Y-135500002D01*
X106554966Y-135499997D01*
X106535141Y-135273400D01*
X106535139Y-135273389D01*
X106476269Y-135053682D01*
X106476264Y-135053668D01*
X106380136Y-134847521D01*
X106380132Y-134847513D01*
X106329025Y-134774526D01*
X105647953Y-135455598D01*
X105635165Y-135374852D01*
X105577641Y-135261955D01*
X105488045Y-135172359D01*
X105375148Y-135114835D01*
X105294401Y-135102046D01*
X105975472Y-134420974D01*
X105902478Y-134369863D01*
X105696331Y-134273735D01*
X105696317Y-134273730D01*
X105476610Y-134214860D01*
X105476599Y-134214858D01*
X105250002Y-134195034D01*
X105249998Y-134195034D01*
X105023400Y-134214858D01*
X105023389Y-134214860D01*
X104803682Y-134273730D01*
X104803673Y-134273734D01*
X104597516Y-134369866D01*
X104597512Y-134369868D01*
X104524526Y-134420973D01*
X104524526Y-134420974D01*
X105205599Y-135102046D01*
X105124852Y-135114835D01*
X105011955Y-135172359D01*
X104922359Y-135261955D01*
X104864835Y-135374852D01*
X104852046Y-135455598D01*
X104162910Y-134766463D01*
X104124805Y-134758804D01*
X104074623Y-134710188D01*
X104059965Y-134654600D01*
X104058959Y-134654653D01*
X104058856Y-134654665D01*
X104058855Y-134654659D01*
X104058677Y-134654669D01*
X104058499Y-134651345D01*
X104053622Y-134605989D01*
X104051989Y-134590799D01*
X104000889Y-134453796D01*
X103913261Y-134336739D01*
X103796204Y-134249111D01*
X103659203Y-134198011D01*
X103598654Y-134191500D01*
X103598638Y-134191500D01*
X101901362Y-134191500D01*
X101901345Y-134191500D01*
X101840797Y-134198011D01*
X101840795Y-134198011D01*
X101703795Y-134249111D01*
X101586739Y-134336739D01*
X101499111Y-134453795D01*
X101448011Y-134590795D01*
X101448011Y-134590797D01*
X101441500Y-134651345D01*
X101441500Y-136348654D01*
X100000500Y-136348654D01*
X100000500Y-126948654D01*
X101591500Y-126948654D01*
X101598011Y-127009202D01*
X101598011Y-127009204D01*
X101645763Y-127137227D01*
X101649111Y-127146204D01*
X101736739Y-127263261D01*
X101853796Y-127350889D01*
X101990799Y-127401989D01*
X102018050Y-127404918D01*
X102051345Y-127408499D01*
X102051362Y-127408500D01*
X103948638Y-127408500D01*
X103948654Y-127408499D01*
X103975692Y-127405591D01*
X104009201Y-127401989D01*
X104146204Y-127350889D01*
X104263261Y-127263261D01*
X104350889Y-127146204D01*
X104401989Y-127009201D01*
X104406690Y-126965472D01*
X104408499Y-126948654D01*
X104408500Y-126948637D01*
X104408500Y-125051362D01*
X104408499Y-125051345D01*
X104404048Y-125009949D01*
X104401989Y-124990799D01*
X104386491Y-124949249D01*
X104367415Y-124898104D01*
X104350889Y-124853796D01*
X104263261Y-124736739D01*
X104146204Y-124649111D01*
X104137241Y-124645768D01*
X104009203Y-124598011D01*
X103948654Y-124591500D01*
X103948638Y-124591500D01*
X102051362Y-124591500D01*
X102051345Y-124591500D01*
X101990797Y-124598011D01*
X101990795Y-124598011D01*
X101853795Y-124649111D01*
X101736739Y-124736739D01*
X101649111Y-124853795D01*
X101598011Y-124990795D01*
X101598011Y-124990797D01*
X101591500Y-125051345D01*
X101591500Y-126948654D01*
X100000500Y-126948654D01*
X100000500Y-117318342D01*
X101233380Y-117318342D01*
X101237550Y-117362457D01*
X101238100Y-117374126D01*
X101238100Y-119136366D01*
X101236361Y-119152113D01*
X101236632Y-119152139D01*
X101235898Y-119159905D01*
X101235898Y-119159908D01*
X101235898Y-119159909D01*
X101238039Y-119228016D01*
X101238100Y-119231912D01*
X101238100Y-119259859D01*
X101238618Y-119263958D01*
X101239534Y-119275598D01*
X101240926Y-119319889D01*
X101240927Y-119319891D01*
X101246622Y-119339495D01*
X101250567Y-119358542D01*
X101253126Y-119378797D01*
X101253127Y-119378800D01*
X101253128Y-119378804D01*
X101269438Y-119420000D01*
X101273221Y-119431049D01*
X101285581Y-119473592D01*
X101295972Y-119491162D01*
X101304532Y-119508635D01*
X101312047Y-119527617D01*
X101338091Y-119563463D01*
X101344505Y-119573227D01*
X101366536Y-119610479D01*
X101367058Y-119611362D01*
X101367062Y-119611366D01*
X101381489Y-119625793D01*
X101394126Y-119640588D01*
X101406128Y-119657107D01*
X101428047Y-119675240D01*
X101440268Y-119685350D01*
X101448909Y-119693213D01*
X102286110Y-120530414D01*
X102296016Y-120542778D01*
X102296226Y-120542605D01*
X102301197Y-120548613D01*
X102301200Y-120548618D01*
X102350901Y-120595290D01*
X102353665Y-120597969D01*
X102373430Y-120617734D01*
X102376704Y-120620273D01*
X102385570Y-120627847D01*
X102417878Y-120658186D01*
X102435767Y-120668020D01*
X102452033Y-120678704D01*
X102468159Y-120691213D01*
X102508816Y-120708807D01*
X102519307Y-120713946D01*
X102558140Y-120735295D01*
X102577918Y-120740373D01*
X102596319Y-120746673D01*
X102615055Y-120754781D01*
X102658830Y-120761713D01*
X102670245Y-120764078D01*
X102713170Y-120775100D01*
X102733584Y-120775100D01*
X102752983Y-120776627D01*
X102773143Y-120779820D01*
X102817257Y-120775650D01*
X102828926Y-120775100D01*
X104438134Y-120775100D01*
X104505173Y-120794785D01*
X104525815Y-120811419D01*
X105369215Y-121654819D01*
X105402700Y-121716142D01*
X105397716Y-121785834D01*
X105355844Y-121841767D01*
X105290380Y-121866184D01*
X105281534Y-121866500D01*
X104472500Y-121866500D01*
X104405461Y-121846815D01*
X104359706Y-121794011D01*
X104348500Y-121742500D01*
X104348500Y-121551362D01*
X104348499Y-121551345D01*
X104344668Y-121515716D01*
X104341989Y-121490799D01*
X104341209Y-121488709D01*
X104313797Y-121415215D01*
X104290889Y-121353796D01*
X104203261Y-121236739D01*
X104086204Y-121149111D01*
X103949203Y-121098011D01*
X103888654Y-121091500D01*
X103888638Y-121091500D01*
X101991362Y-121091500D01*
X101991345Y-121091500D01*
X101930797Y-121098011D01*
X101930795Y-121098011D01*
X101793795Y-121149111D01*
X101676739Y-121236739D01*
X101589111Y-121353795D01*
X101538011Y-121490795D01*
X101538011Y-121490797D01*
X101531500Y-121551345D01*
X101531500Y-123448654D01*
X101538011Y-123509202D01*
X101538011Y-123509204D01*
X101569753Y-123594304D01*
X101589111Y-123646204D01*
X101676739Y-123763261D01*
X101793796Y-123850889D01*
X101930799Y-123901989D01*
X101958050Y-123904918D01*
X101991345Y-123908499D01*
X101991362Y-123908500D01*
X103888638Y-123908500D01*
X103888654Y-123908499D01*
X103915692Y-123905591D01*
X103949201Y-123901989D01*
X104086204Y-123850889D01*
X104203261Y-123763261D01*
X104290889Y-123646204D01*
X104341989Y-123509201D01*
X104345591Y-123475692D01*
X104348499Y-123448654D01*
X104348500Y-123448637D01*
X104348500Y-123257500D01*
X104368185Y-123190461D01*
X104420989Y-123144706D01*
X104472500Y-123133500D01*
X105579334Y-123133500D01*
X105646373Y-123153185D01*
X105667015Y-123169819D01*
X108886010Y-126388814D01*
X108895916Y-126401178D01*
X108896126Y-126401005D01*
X108901097Y-126407013D01*
X108901100Y-126407018D01*
X108950801Y-126453690D01*
X108953565Y-126456369D01*
X108973330Y-126476134D01*
X108976604Y-126478673D01*
X108985470Y-126486247D01*
X109017778Y-126516586D01*
X109035667Y-126526420D01*
X109051933Y-126537104D01*
X109068059Y-126549613D01*
X109108716Y-126567207D01*
X109119207Y-126572346D01*
X109158040Y-126593695D01*
X109177818Y-126598773D01*
X109196221Y-126605074D01*
X109214952Y-126613180D01*
X109214953Y-126613180D01*
X109214955Y-126613181D01*
X109258718Y-126620111D01*
X109270151Y-126622480D01*
X109279892Y-126624981D01*
X109312520Y-126633358D01*
X109372557Y-126669095D01*
X109385491Y-126685641D01*
X109504686Y-126868084D01*
X109653808Y-127030072D01*
X109662780Y-127039818D01*
X109846983Y-127183190D01*
X109846985Y-127183191D01*
X109846988Y-127183193D01*
X109873137Y-127197344D01*
X110052273Y-127294287D01*
X110139333Y-127324175D01*
X110273045Y-127370079D01*
X110273047Y-127370079D01*
X110273049Y-127370080D01*
X110503288Y-127408500D01*
X110503289Y-127408500D01*
X110736711Y-127408500D01*
X110736712Y-127408500D01*
X110966951Y-127370080D01*
X111187727Y-127294287D01*
X111393017Y-127183190D01*
X111577220Y-127039818D01*
X111735314Y-126868083D01*
X111846518Y-126697871D01*
X111899664Y-126652515D01*
X111968896Y-126643091D01*
X112032231Y-126672593D01*
X112038008Y-126678012D01*
X112920010Y-127560014D01*
X112929916Y-127572378D01*
X112930126Y-127572205D01*
X112935097Y-127578213D01*
X112935100Y-127578218D01*
X112984801Y-127624890D01*
X112987565Y-127627569D01*
X113007330Y-127647334D01*
X113010604Y-127649873D01*
X113019470Y-127657447D01*
X113051778Y-127687786D01*
X113069667Y-127697620D01*
X113085933Y-127708304D01*
X113102059Y-127720813D01*
X113142716Y-127738407D01*
X113153206Y-127743546D01*
X113188680Y-127763048D01*
X113216620Y-127784025D01*
X113330228Y-127897633D01*
X113363712Y-127958953D01*
X113358728Y-128028645D01*
X113316857Y-128084579D01*
X113294953Y-128097693D01*
X113263254Y-128112475D01*
X113263251Y-128112476D01*
X113263251Y-128112477D01*
X113075700Y-128243802D01*
X113075698Y-128243803D01*
X113075695Y-128243806D01*
X112913806Y-128405695D01*
X112913803Y-128405698D01*
X112913802Y-128405700D01*
X112861903Y-128479819D01*
X112782476Y-128593252D01*
X112782475Y-128593254D01*
X112685718Y-128800750D01*
X112685714Y-128800761D01*
X112626457Y-129021910D01*
X112626456Y-129021918D01*
X112606502Y-129249998D01*
X112606502Y-129250001D01*
X112626456Y-129478081D01*
X112626457Y-129478089D01*
X112685714Y-129699238D01*
X112685718Y-129699249D01*
X112712274Y-129756198D01*
X112782477Y-129906749D01*
X112913802Y-130094300D01*
X113075700Y-130256198D01*
X113263251Y-130387523D01*
X113304482Y-130406749D01*
X113470750Y-130484281D01*
X113470752Y-130484281D01*
X113470757Y-130484284D01*
X113691913Y-130543543D01*
X113854832Y-130557796D01*
X113919998Y-130563498D01*
X113920000Y-130563498D01*
X113920002Y-130563498D01*
X113979013Y-130558335D01*
X114148087Y-130543543D01*
X114212657Y-130526241D01*
X114282506Y-130527904D01*
X114332431Y-130558335D01*
X116828914Y-133054819D01*
X116862399Y-133116142D01*
X116857415Y-133185834D01*
X116815543Y-133241767D01*
X116750079Y-133266184D01*
X116741233Y-133266500D01*
X112433634Y-133266500D01*
X112417886Y-133264761D01*
X112417861Y-133265032D01*
X112410094Y-133264298D01*
X112410091Y-133264298D01*
X112341983Y-133266439D01*
X112338087Y-133266500D01*
X112310136Y-133266500D01*
X112306040Y-133267018D01*
X112294402Y-133267934D01*
X112250111Y-133269326D01*
X112250108Y-133269327D01*
X112230505Y-133275022D01*
X112211459Y-133278966D01*
X112191203Y-133281526D01*
X112191201Y-133281526D01*
X112191199Y-133281527D01*
X112149998Y-133297839D01*
X112138951Y-133301621D01*
X112096406Y-133313982D01*
X112078833Y-133324374D01*
X112061370Y-133332929D01*
X112042385Y-133340446D01*
X112042384Y-133340447D01*
X112006543Y-133366487D01*
X111996781Y-133372899D01*
X111958637Y-133395458D01*
X111944196Y-133409898D01*
X111929408Y-133422527D01*
X111912897Y-133434523D01*
X111912892Y-133434528D01*
X111884652Y-133468663D01*
X111876792Y-133477301D01*
X111198336Y-134155757D01*
X111137013Y-134189242D01*
X111101990Y-134191128D01*
X111101961Y-134191678D01*
X111098639Y-134191500D01*
X111098638Y-134191500D01*
X109401362Y-134191500D01*
X109401345Y-134191500D01*
X109340797Y-134198011D01*
X109340795Y-134198011D01*
X109203795Y-134249111D01*
X109086739Y-134336739D01*
X108999111Y-134453795D01*
X108948011Y-134590795D01*
X108948011Y-134590797D01*
X108941500Y-134651345D01*
X108941500Y-136348654D01*
X108948011Y-136409202D01*
X108948011Y-136409204D01*
X108984126Y-136506028D01*
X108999111Y-136546204D01*
X109086739Y-136663261D01*
X109203796Y-136750889D01*
X109340799Y-136801989D01*
X109368050Y-136804918D01*
X109401345Y-136808499D01*
X109401362Y-136808500D01*
X111098638Y-136808500D01*
X111098654Y-136808499D01*
X111125692Y-136805591D01*
X111159201Y-136801989D01*
X111296204Y-136750889D01*
X111413261Y-136663261D01*
X111500889Y-136546204D01*
X111551989Y-136409201D01*
X111555591Y-136375692D01*
X111558499Y-136348654D01*
X111558677Y-136345331D01*
X111558855Y-136345340D01*
X111558856Y-136345335D01*
X111558959Y-136345346D01*
X111560128Y-136345408D01*
X111578185Y-136283915D01*
X111630989Y-136238160D01*
X111663967Y-136232479D01*
X112352046Y-135544400D01*
X112364835Y-135625148D01*
X112422359Y-135738045D01*
X112511955Y-135827641D01*
X112624852Y-135885165D01*
X112705599Y-135897953D01*
X112024526Y-136579025D01*
X112097513Y-136630132D01*
X112097521Y-136630136D01*
X112303668Y-136726264D01*
X112303682Y-136726269D01*
X112523389Y-136785139D01*
X112523400Y-136785141D01*
X112749998Y-136804966D01*
X112750002Y-136804966D01*
X112976599Y-136785141D01*
X112976610Y-136785139D01*
X113196317Y-136726269D01*
X113196331Y-136726264D01*
X113402478Y-136630136D01*
X113475471Y-136579024D01*
X112794400Y-135897953D01*
X112875148Y-135885165D01*
X112988045Y-135827641D01*
X113077641Y-135738045D01*
X113135165Y-135625148D01*
X113147953Y-135544400D01*
X113829024Y-136225471D01*
X113880136Y-136152478D01*
X113976264Y-135946331D01*
X113976269Y-135946317D01*
X114035139Y-135726610D01*
X114035141Y-135726599D01*
X114054966Y-135500002D01*
X114054966Y-135499997D01*
X114035141Y-135273400D01*
X114035139Y-135273389D01*
X113976269Y-135053682D01*
X113976265Y-135053673D01*
X113880134Y-134847517D01*
X113796883Y-134728624D01*
X113774556Y-134662418D01*
X113791566Y-134594650D01*
X113842514Y-134546837D01*
X113898458Y-134533500D01*
X117067500Y-134533500D01*
X117134539Y-134553185D01*
X117180294Y-134605989D01*
X117191500Y-134657500D01*
X117191500Y-136348654D01*
X117198011Y-136409202D01*
X117198011Y-136409204D01*
X117234126Y-136506028D01*
X117249111Y-136546204D01*
X117336739Y-136663261D01*
X117453796Y-136750889D01*
X117590799Y-136801989D01*
X117618050Y-136804918D01*
X117651345Y-136808499D01*
X117651362Y-136808500D01*
X119348638Y-136808500D01*
X119348654Y-136808499D01*
X119375692Y-136805591D01*
X119409201Y-136801989D01*
X119546204Y-136750889D01*
X119663261Y-136663261D01*
X119750889Y-136546204D01*
X119801989Y-136409201D01*
X119805591Y-136375692D01*
X119808499Y-136348654D01*
X119808677Y-136345331D01*
X119808855Y-136345340D01*
X119808856Y-136345335D01*
X119808959Y-136345346D01*
X119810128Y-136345408D01*
X119828185Y-136283915D01*
X119880989Y-136238160D01*
X119913967Y-136232479D01*
X120602046Y-135544400D01*
X120614835Y-135625148D01*
X120672359Y-135738045D01*
X120761955Y-135827641D01*
X120874852Y-135885165D01*
X120955599Y-135897953D01*
X120274526Y-136579025D01*
X120347513Y-136630132D01*
X120347521Y-136630136D01*
X120553668Y-136726264D01*
X120553682Y-136726269D01*
X120773389Y-136785139D01*
X120773400Y-136785141D01*
X120999998Y-136804966D01*
X121000002Y-136804966D01*
X121226599Y-136785141D01*
X121226610Y-136785139D01*
X121446317Y-136726269D01*
X121446331Y-136726264D01*
X121652478Y-136630136D01*
X121725471Y-136579024D01*
X121044400Y-135897953D01*
X121125148Y-135885165D01*
X121238045Y-135827641D01*
X121327641Y-135738045D01*
X121385165Y-135625148D01*
X121397953Y-135544400D01*
X122079024Y-136225471D01*
X122130136Y-136152478D01*
X122226264Y-135946331D01*
X122226269Y-135946317D01*
X122285139Y-135726610D01*
X122285141Y-135726599D01*
X122304966Y-135500002D01*
X122304966Y-135499997D01*
X122285141Y-135273400D01*
X122285139Y-135273389D01*
X122226269Y-135053682D01*
X122226265Y-135053673D01*
X122130134Y-134847517D01*
X122046883Y-134728624D01*
X122024556Y-134662418D01*
X122041566Y-134594650D01*
X122092514Y-134546837D01*
X122148458Y-134533500D01*
X138106366Y-134533500D01*
X138122113Y-134535238D01*
X138122139Y-134534968D01*
X138129905Y-134535701D01*
X138129909Y-134535702D01*
X138198017Y-134533560D01*
X138201913Y-134533500D01*
X138229858Y-134533500D01*
X138229860Y-134533499D01*
X138231262Y-134533322D01*
X138233949Y-134532983D01*
X138245608Y-134532064D01*
X138289889Y-134530673D01*
X138309481Y-134524980D01*
X138328538Y-134521032D01*
X138348797Y-134518474D01*
X138390006Y-134502157D01*
X138401043Y-134498379D01*
X138443593Y-134486018D01*
X138461165Y-134475625D01*
X138478632Y-134467068D01*
X138497617Y-134459552D01*
X138533461Y-134433508D01*
X138543230Y-134427092D01*
X138581362Y-134404542D01*
X138595802Y-134390100D01*
X138610592Y-134377470D01*
X138627107Y-134365472D01*
X138655359Y-134331319D01*
X138663203Y-134322699D01*
X138677569Y-134308333D01*
X138738890Y-134274850D01*
X138797341Y-134276241D01*
X138815979Y-134281234D01*
X138861913Y-134293543D01*
X139024832Y-134307796D01*
X139089998Y-134313498D01*
X139090000Y-134313498D01*
X139090002Y-134313498D01*
X139149013Y-134308335D01*
X139318087Y-134293543D01*
X139539243Y-134234284D01*
X139746749Y-134137523D01*
X139934300Y-134006198D01*
X140096198Y-133844300D01*
X140227523Y-133656749D01*
X140324284Y-133449243D01*
X140383543Y-133228087D01*
X140403498Y-133000000D01*
X140383543Y-132771913D01*
X140357536Y-132674853D01*
X140334637Y-132589393D01*
X140336300Y-132519544D01*
X140375463Y-132461681D01*
X140439691Y-132434177D01*
X140454412Y-132433300D01*
X147494532Y-132433300D01*
X147561571Y-132452985D01*
X147607326Y-132505789D01*
X147617270Y-132574947D01*
X147588245Y-132638503D01*
X147582213Y-132644981D01*
X143823914Y-136403281D01*
X143762591Y-136436766D01*
X143736233Y-136439600D01*
X127949532Y-136439600D01*
X127933780Y-136437860D01*
X127933755Y-136438132D01*
X127925993Y-136437398D01*
X127925992Y-136437398D01*
X127902638Y-136438132D01*
X127857870Y-136439539D01*
X127853975Y-136439600D01*
X127826044Y-136439600D01*
X127826041Y-136439600D01*
X127826025Y-136439601D01*
X127821932Y-136440118D01*
X127810304Y-136441033D01*
X127766013Y-136442425D01*
X127766007Y-136442426D01*
X127746400Y-136448122D01*
X127727361Y-136452065D01*
X127707111Y-136454624D01*
X127707105Y-136454625D01*
X127707103Y-136454626D01*
X127696325Y-136458892D01*
X127665906Y-136470936D01*
X127654860Y-136474717D01*
X127612313Y-136487079D01*
X127612307Y-136487081D01*
X127594733Y-136497474D01*
X127577272Y-136506028D01*
X127558286Y-136513546D01*
X127558285Y-136513546D01*
X127522435Y-136539592D01*
X127512676Y-136546002D01*
X127474537Y-136568557D01*
X127460101Y-136582994D01*
X127445315Y-136595623D01*
X127428793Y-136607628D01*
X127428791Y-136607629D01*
X127428791Y-136607630D01*
X127428788Y-136607633D01*
X127400542Y-136641774D01*
X127392683Y-136650411D01*
X127118022Y-136925072D01*
X127056699Y-136958557D01*
X126987007Y-136953573D01*
X126981843Y-136951214D01*
X126839203Y-136898011D01*
X126778654Y-136891500D01*
X126778638Y-136891500D01*
X124981362Y-136891500D01*
X124981345Y-136891500D01*
X124920797Y-136898011D01*
X124920795Y-136898011D01*
X124783795Y-136949111D01*
X124666739Y-137036739D01*
X124579111Y-137153795D01*
X124528011Y-137290795D01*
X124528011Y-137290797D01*
X124521500Y-137351345D01*
X124521500Y-139148654D01*
X124528011Y-139209202D01*
X124528011Y-139209204D01*
X124579111Y-139346204D01*
X124666739Y-139463261D01*
X124783796Y-139550889D01*
X124920799Y-139601989D01*
X124948050Y-139604918D01*
X124981345Y-139608499D01*
X124981362Y-139608500D01*
X126778638Y-139608500D01*
X126778654Y-139608499D01*
X126805692Y-139605591D01*
X126839201Y-139601989D01*
X126976204Y-139550889D01*
X127093261Y-139463261D01*
X127180889Y-139346204D01*
X127226138Y-139224887D01*
X127268009Y-139168956D01*
X127333474Y-139144539D01*
X127401746Y-139159391D01*
X127433545Y-139184236D01*
X127496760Y-139252906D01*
X127674424Y-139391189D01*
X127674425Y-139391189D01*
X127674427Y-139391191D01*
X127734314Y-139423600D01*
X127872426Y-139498342D01*
X128085365Y-139571444D01*
X128307431Y-139608500D01*
X128532569Y-139608500D01*
X128754635Y-139571444D01*
X128967574Y-139498342D01*
X129165576Y-139391189D01*
X129343240Y-139252906D01*
X129464594Y-139121082D01*
X129495715Y-139087276D01*
X129495715Y-139087275D01*
X129495722Y-139087268D01*
X129586193Y-138948790D01*
X129639338Y-138903437D01*
X129708569Y-138894013D01*
X129771905Y-138923515D01*
X129793804Y-138948787D01*
X129884278Y-139087268D01*
X129884283Y-139087273D01*
X129884284Y-139087276D01*
X130010968Y-139224889D01*
X130036760Y-139252906D01*
X130214424Y-139391189D01*
X130214425Y-139391189D01*
X130214427Y-139391191D01*
X130274314Y-139423600D01*
X130412426Y-139498342D01*
X130625365Y-139571444D01*
X130847431Y-139608500D01*
X131072569Y-139608500D01*
X131294635Y-139571444D01*
X131507574Y-139498342D01*
X131705576Y-139391189D01*
X131883240Y-139252906D01*
X132004594Y-139121082D01*
X132035715Y-139087276D01*
X132035715Y-139087275D01*
X132035722Y-139087268D01*
X132129749Y-138943347D01*
X132182894Y-138897994D01*
X132252125Y-138888570D01*
X132315461Y-138918072D01*
X132335130Y-138940048D01*
X132461890Y-139121078D01*
X132628917Y-139288105D01*
X132822421Y-139423600D01*
X133036507Y-139523429D01*
X133036516Y-139523433D01*
X133250000Y-139580634D01*
X133250000Y-138685501D01*
X133357685Y-138734680D01*
X133464237Y-138750000D01*
X133535763Y-138750000D01*
X133642315Y-138734680D01*
X133750000Y-138685501D01*
X133750000Y-139580633D01*
X133963483Y-139523433D01*
X133963492Y-139523429D01*
X134177578Y-139423600D01*
X134371082Y-139288105D01*
X134538105Y-139121082D01*
X134673600Y-138927578D01*
X134773429Y-138713492D01*
X134773432Y-138713486D01*
X134830636Y-138500000D01*
X133933686Y-138500000D01*
X133959493Y-138459844D01*
X134000000Y-138321889D01*
X134000000Y-138178111D01*
X133959493Y-138040156D01*
X133933686Y-138000000D01*
X134830636Y-138000000D01*
X134830635Y-137999999D01*
X134793845Y-137862694D01*
X134795508Y-137792844D01*
X134834670Y-137734981D01*
X134898899Y-137707477D01*
X134913620Y-137706600D01*
X143966366Y-137706600D01*
X143982113Y-137708338D01*
X143982139Y-137708068D01*
X143989905Y-137708801D01*
X143989909Y-137708802D01*
X144058017Y-137706660D01*
X144061913Y-137706600D01*
X144089858Y-137706600D01*
X144089860Y-137706599D01*
X144091262Y-137706422D01*
X144093949Y-137706083D01*
X144105608Y-137705164D01*
X144149889Y-137703773D01*
X144169481Y-137698080D01*
X144188538Y-137694132D01*
X144208797Y-137691574D01*
X144250006Y-137675257D01*
X144261043Y-137671479D01*
X144303593Y-137659118D01*
X144321165Y-137648725D01*
X144338632Y-137640168D01*
X144357617Y-137632652D01*
X144393461Y-137606608D01*
X144403230Y-137600192D01*
X144441362Y-137577642D01*
X144455802Y-137563200D01*
X144470592Y-137550570D01*
X144487107Y-137538572D01*
X144515359Y-137504419D01*
X144523203Y-137495799D01*
X148121573Y-133897429D01*
X148182894Y-133863946D01*
X148252586Y-133868930D01*
X148296933Y-133897431D01*
X148405700Y-134006198D01*
X148593251Y-134137523D01*
X148708208Y-134191128D01*
X148800750Y-134234281D01*
X148800752Y-134234281D01*
X148800757Y-134234284D01*
X149021913Y-134293543D01*
X149184832Y-134307796D01*
X149249998Y-134313498D01*
X149250000Y-134313498D01*
X149250002Y-134313498D01*
X149309013Y-134308335D01*
X149478087Y-134293543D01*
X149699243Y-134234284D01*
X149906749Y-134137523D01*
X150094300Y-134006198D01*
X150256198Y-133844300D01*
X150387523Y-133656749D01*
X150484284Y-133449243D01*
X150543543Y-133228087D01*
X150563498Y-133000000D01*
X150543543Y-132771913D01*
X150521943Y-132691301D01*
X150523606Y-132621452D01*
X150562768Y-132563589D01*
X150568788Y-132558923D01*
X150679253Y-132478666D01*
X150683160Y-132474327D01*
X150742646Y-132437679D01*
X150775309Y-132433300D01*
X152365254Y-132433300D01*
X152365256Y-132433300D01*
X152365261Y-132433299D01*
X152365265Y-132433299D01*
X152378160Y-132431669D01*
X152484197Y-132418274D01*
X152633017Y-132359352D01*
X152762507Y-132265272D01*
X152864533Y-132141944D01*
X152932683Y-131997118D01*
X152962675Y-131839894D01*
X152952625Y-131680150D01*
X152903164Y-131527925D01*
X152817400Y-131392782D01*
X152817395Y-131392777D01*
X152700724Y-131283216D01*
X152700716Y-131283210D01*
X152560463Y-131206106D01*
X152560453Y-131206103D01*
X152405433Y-131166300D01*
X152405430Y-131166300D01*
X150775309Y-131166300D01*
X150708270Y-131146615D01*
X150683160Y-131125273D01*
X150679254Y-131120935D01*
X150664431Y-131110165D01*
X150524752Y-131008682D01*
X150350288Y-130931006D01*
X150350286Y-130931005D01*
X150350285Y-130931005D01*
X150218397Y-130902971D01*
X150156915Y-130869778D01*
X150123139Y-130808615D01*
X150127791Y-130738901D01*
X150156493Y-130694004D01*
X150256198Y-130594300D01*
X150387523Y-130406749D01*
X150484284Y-130199243D01*
X150543543Y-129978087D01*
X150563498Y-129750000D01*
X150543543Y-129521913D01*
X150484284Y-129300757D01*
X150387523Y-129093251D01*
X150289753Y-128953621D01*
X150267427Y-128887418D01*
X150284437Y-128819650D01*
X150335385Y-128771837D01*
X150391329Y-128758500D01*
X152323621Y-128758500D01*
X152390660Y-128778185D01*
X152436415Y-128830989D01*
X152447149Y-128871693D01*
X152456456Y-128978081D01*
X152456457Y-128978089D01*
X152515714Y-129199238D01*
X152515718Y-129199249D01*
X152603823Y-129388191D01*
X152612477Y-129406749D01*
X152743802Y-129594300D01*
X152905700Y-129756198D01*
X153093251Y-129887523D01*
X153218091Y-129945736D01*
X153300750Y-129984281D01*
X153300752Y-129984281D01*
X153300757Y-129984284D01*
X153521913Y-130043543D01*
X153684832Y-130057796D01*
X153749998Y-130063498D01*
X153750000Y-130063498D01*
X153750002Y-130063498D01*
X153807021Y-130058509D01*
X153978087Y-130043543D01*
X154199243Y-129984284D01*
X154406749Y-129887523D01*
X154594300Y-129756198D01*
X154756198Y-129594300D01*
X154887523Y-129406749D01*
X154984284Y-129199243D01*
X155043543Y-128978087D01*
X155063498Y-128750000D01*
X155043543Y-128521913D01*
X154984284Y-128300757D01*
X154957727Y-128243806D01*
X154937301Y-128200001D01*
X154887523Y-128093251D01*
X154756198Y-127905700D01*
X154594300Y-127743802D01*
X154406749Y-127612477D01*
X154391184Y-127605219D01*
X154199249Y-127515718D01*
X154199238Y-127515714D01*
X153978089Y-127456457D01*
X153978081Y-127456456D01*
X153750002Y-127436502D01*
X153749998Y-127436502D01*
X153521918Y-127456456D01*
X153521907Y-127456458D01*
X153336241Y-127506207D01*
X153284749Y-127508905D01*
X153259382Y-127504887D01*
X153247947Y-127502519D01*
X153233193Y-127498731D01*
X153205032Y-127491500D01*
X153205030Y-127491500D01*
X153184616Y-127491500D01*
X153165217Y-127489973D01*
X153145058Y-127486780D01*
X153145057Y-127486780D01*
X153100943Y-127490950D01*
X153089274Y-127491500D01*
X150391329Y-127491500D01*
X150324290Y-127471815D01*
X150278535Y-127419011D01*
X150268591Y-127349853D01*
X150289752Y-127296378D01*
X150366779Y-127186374D01*
X150421354Y-127142752D01*
X150468352Y-127133500D01*
X151166366Y-127133500D01*
X151182113Y-127135238D01*
X151182139Y-127134968D01*
X151189905Y-127135701D01*
X151189909Y-127135702D01*
X151258017Y-127133560D01*
X151261913Y-127133500D01*
X151289858Y-127133500D01*
X151289860Y-127133499D01*
X151291262Y-127133322D01*
X151293949Y-127132983D01*
X151305608Y-127132064D01*
X151349889Y-127130673D01*
X151369481Y-127124980D01*
X151388538Y-127121032D01*
X151408797Y-127118474D01*
X151450006Y-127102157D01*
X151461043Y-127098379D01*
X151503593Y-127086018D01*
X151521165Y-127075625D01*
X151538632Y-127067068D01*
X151557617Y-127059552D01*
X151593461Y-127033508D01*
X151603230Y-127027092D01*
X151641362Y-127004542D01*
X151655802Y-126990100D01*
X151670592Y-126977470D01*
X151687107Y-126965472D01*
X151715359Y-126931319D01*
X151723203Y-126922699D01*
X153337570Y-125308333D01*
X153398891Y-125274850D01*
X153457341Y-125276240D01*
X153521913Y-125293543D01*
X153684832Y-125307796D01*
X153749998Y-125313498D01*
X153750000Y-125313498D01*
X153750002Y-125313498D01*
X153809013Y-125308335D01*
X153978087Y-125293543D01*
X154199243Y-125234284D01*
X154406749Y-125137523D01*
X154594300Y-125006198D01*
X154756198Y-124844300D01*
X154887523Y-124656749D01*
X154984284Y-124449243D01*
X155043543Y-124228087D01*
X155063498Y-124000000D01*
X155043543Y-123771913D01*
X154984284Y-123550757D01*
X154957727Y-123493806D01*
X154917131Y-123406747D01*
X154887523Y-123343251D01*
X154756198Y-123155700D01*
X154594300Y-122993802D01*
X154499572Y-122927472D01*
X154455949Y-122872898D01*
X154448757Y-122803399D01*
X154480279Y-122741045D01*
X154540509Y-122705631D01*
X154570698Y-122701900D01*
X156504634Y-122701900D01*
X156571673Y-122721585D01*
X156592315Y-122738219D01*
X157441664Y-123587569D01*
X157475149Y-123648892D01*
X157473758Y-123707343D01*
X157456458Y-123771907D01*
X157456456Y-123771918D01*
X157436502Y-123999998D01*
X157436502Y-124000001D01*
X157456456Y-124228081D01*
X157456457Y-124228089D01*
X157515714Y-124449238D01*
X157515718Y-124449249D01*
X157607358Y-124645772D01*
X157612477Y-124656749D01*
X157743802Y-124844300D01*
X157905700Y-125006198D01*
X158093251Y-125137523D01*
X158218091Y-125195736D01*
X158300750Y-125234281D01*
X158300752Y-125234281D01*
X158300757Y-125234284D01*
X158521913Y-125293543D01*
X158684832Y-125307796D01*
X158749998Y-125313498D01*
X158750000Y-125313498D01*
X158750002Y-125313498D01*
X158809013Y-125308335D01*
X158978087Y-125293543D01*
X159113007Y-125257391D01*
X159182856Y-125259054D01*
X159240719Y-125298216D01*
X159268223Y-125362445D01*
X159269100Y-125377166D01*
X159269100Y-127283631D01*
X159249415Y-127350670D01*
X159232781Y-127371313D01*
X159162429Y-127441664D01*
X159101105Y-127475148D01*
X159042656Y-127473757D01*
X158978095Y-127456459D01*
X158978092Y-127456458D01*
X158978087Y-127456457D01*
X158978084Y-127456456D01*
X158978081Y-127456456D01*
X158750002Y-127436502D01*
X158749998Y-127436502D01*
X158521918Y-127456456D01*
X158521910Y-127456457D01*
X158300761Y-127515714D01*
X158300750Y-127515718D01*
X158093254Y-127612475D01*
X158093252Y-127612476D01*
X158057480Y-127637524D01*
X157905700Y-127743802D01*
X157905698Y-127743803D01*
X157905695Y-127743806D01*
X157743806Y-127905695D01*
X157743803Y-127905698D01*
X157743802Y-127905700D01*
X157668035Y-128013906D01*
X157612476Y-128093252D01*
X157612475Y-128093254D01*
X157515718Y-128300750D01*
X157515714Y-128300761D01*
X157456457Y-128521910D01*
X157456456Y-128521918D01*
X157436502Y-128749998D01*
X157436502Y-128750001D01*
X157456456Y-128978081D01*
X157456457Y-128978089D01*
X157515714Y-129199238D01*
X157515718Y-129199249D01*
X157603823Y-129388191D01*
X157612477Y-129406749D01*
X157743802Y-129594300D01*
X157905700Y-129756198D01*
X158093251Y-129887523D01*
X158218091Y-129945736D01*
X158300750Y-129984281D01*
X158300752Y-129984281D01*
X158300757Y-129984284D01*
X158521913Y-130043543D01*
X158684832Y-130057796D01*
X158749998Y-130063498D01*
X158750000Y-130063498D01*
X158750002Y-130063498D01*
X158807021Y-130058509D01*
X158978087Y-130043543D01*
X159199243Y-129984284D01*
X159406749Y-129887523D01*
X159594300Y-129756198D01*
X159756198Y-129594300D01*
X159887523Y-129406749D01*
X159984284Y-129199243D01*
X160043543Y-128978087D01*
X160063498Y-128750000D01*
X160043543Y-128521913D01*
X160026241Y-128457341D01*
X160027904Y-128387491D01*
X160058333Y-128337569D01*
X160291415Y-128104487D01*
X160303780Y-128094583D01*
X160303606Y-128094373D01*
X160309612Y-128089403D01*
X160309618Y-128089400D01*
X160356306Y-128039680D01*
X160358955Y-128036947D01*
X160378735Y-128017169D01*
X160381270Y-128013899D01*
X160388859Y-128005015D01*
X160389415Y-128004422D01*
X160419186Y-127972721D01*
X160429020Y-127954830D01*
X160439698Y-127938574D01*
X160452214Y-127922440D01*
X160469809Y-127881778D01*
X160474950Y-127871285D01*
X160496291Y-127832467D01*
X160496295Y-127832460D01*
X160501374Y-127812674D01*
X160507672Y-127794282D01*
X160515781Y-127775545D01*
X160522713Y-127731772D01*
X160525078Y-127720353D01*
X160536100Y-127677430D01*
X160536100Y-127657015D01*
X160537627Y-127637614D01*
X160540820Y-127617457D01*
X160536650Y-127573342D01*
X160536100Y-127561673D01*
X160536100Y-123581226D01*
X160537838Y-123565481D01*
X160537567Y-123565456D01*
X160538301Y-123557693D01*
X160536161Y-123489599D01*
X160536100Y-123485704D01*
X160536100Y-123457750D01*
X160536100Y-123457744D01*
X160535580Y-123453631D01*
X160534664Y-123441989D01*
X160533273Y-123397709D01*
X160527579Y-123378114D01*
X160523632Y-123359057D01*
X160521074Y-123338803D01*
X160504762Y-123297605D01*
X160500977Y-123286550D01*
X160494924Y-123265716D01*
X160488618Y-123244007D01*
X160478223Y-123226431D01*
X160469664Y-123208956D01*
X160462154Y-123189988D01*
X160462154Y-123189987D01*
X160462153Y-123189985D01*
X160462152Y-123189983D01*
X160436104Y-123154131D01*
X160429700Y-123144383D01*
X160407142Y-123106237D01*
X160392706Y-123091801D01*
X160380069Y-123077006D01*
X160368072Y-123060493D01*
X160366933Y-123059551D01*
X160333936Y-123032253D01*
X160325296Y-123024391D01*
X156912088Y-119611183D01*
X156902187Y-119598823D01*
X156901977Y-119598998D01*
X156897001Y-119592984D01*
X156897000Y-119592982D01*
X156847315Y-119546325D01*
X156844550Y-119543645D01*
X156824766Y-119523861D01*
X156821504Y-119521331D01*
X156812619Y-119513743D01*
X156807179Y-119508635D01*
X156780321Y-119483414D01*
X156780319Y-119483412D01*
X156762431Y-119473578D01*
X156746170Y-119462897D01*
X156730039Y-119450384D01*
X156689375Y-119432788D01*
X156678885Y-119427649D01*
X156640060Y-119406305D01*
X156640056Y-119406304D01*
X156620287Y-119401228D01*
X156601881Y-119394926D01*
X156583144Y-119386818D01*
X156583145Y-119386818D01*
X156539383Y-119379887D01*
X156527947Y-119377519D01*
X156506148Y-119371922D01*
X156485032Y-119366500D01*
X156485030Y-119366500D01*
X156464616Y-119366500D01*
X156445217Y-119364973D01*
X156425058Y-119361780D01*
X156425057Y-119361780D01*
X156380943Y-119365950D01*
X156369274Y-119366500D01*
X154089300Y-119366500D01*
X154022261Y-119346815D01*
X153976506Y-119294011D01*
X153965300Y-119242500D01*
X153965300Y-115133926D01*
X153967038Y-115118181D01*
X153966767Y-115118156D01*
X153967501Y-115110393D01*
X153965361Y-115042299D01*
X153965300Y-115038404D01*
X153965300Y-115010450D01*
X153965300Y-115010444D01*
X153964780Y-115006331D01*
X153963864Y-114994689D01*
X153963206Y-114973758D01*
X153962473Y-114950410D01*
X153956777Y-114930808D01*
X153952832Y-114911757D01*
X153950274Y-114891503D01*
X153933965Y-114850311D01*
X153930180Y-114839258D01*
X153917818Y-114796706D01*
X153907425Y-114779133D01*
X153898863Y-114761655D01*
X153891352Y-114742683D01*
X153891350Y-114742680D01*
X153891349Y-114742678D01*
X153865312Y-114706841D01*
X153858898Y-114697078D01*
X153852166Y-114685695D01*
X153836342Y-114658937D01*
X153821908Y-114644503D01*
X153809269Y-114629706D01*
X153797271Y-114613192D01*
X153763136Y-114584953D01*
X153754496Y-114577091D01*
X153196632Y-114019227D01*
X153163147Y-113957904D01*
X153168131Y-113888212D01*
X153196631Y-113843866D01*
X153206198Y-113834300D01*
X153337523Y-113646749D01*
X153434284Y-113439243D01*
X153493543Y-113218087D01*
X153513498Y-112990000D01*
X153493543Y-112761913D01*
X153434284Y-112540757D01*
X153431380Y-112534530D01*
X153386601Y-112438500D01*
X153337523Y-112333251D01*
X153206198Y-112145700D01*
X153044300Y-111983802D01*
X153036627Y-111978429D01*
X152993006Y-111923853D01*
X152985814Y-111854355D01*
X153017338Y-111792001D01*
X153077568Y-111756588D01*
X153094489Y-111753570D01*
X153109201Y-111751989D01*
X153246204Y-111700889D01*
X153363261Y-111613261D01*
X153450889Y-111496204D01*
X153501989Y-111359201D01*
X153507974Y-111303533D01*
X153508499Y-111298654D01*
X153508500Y-111298637D01*
X153508500Y-109601362D01*
X153508499Y-109601345D01*
X153505157Y-109570270D01*
X153501989Y-109540799D01*
X153501902Y-109540566D01*
X153465812Y-109443806D01*
X153450889Y-109403796D01*
X153363261Y-109286739D01*
X153246204Y-109199111D01*
X153245925Y-109199007D01*
X153109203Y-109148011D01*
X153048654Y-109141500D01*
X153048638Y-109141500D01*
X151351362Y-109141500D01*
X151351345Y-109141500D01*
X151290797Y-109148011D01*
X151290795Y-109148011D01*
X151153795Y-109199111D01*
X151036739Y-109286739D01*
X150949111Y-109403795D01*
X150898011Y-109540795D01*
X150898011Y-109540797D01*
X150891500Y-109601345D01*
X150891500Y-111298654D01*
X150898011Y-111359202D01*
X150898011Y-111359204D01*
X150934189Y-111456198D01*
X150949111Y-111496204D01*
X151036739Y-111613261D01*
X151153796Y-111700889D01*
X151231872Y-111730010D01*
X151290793Y-111751987D01*
X151290799Y-111751989D01*
X151305499Y-111753569D01*
X151370048Y-111780305D01*
X151409897Y-111837696D01*
X151412393Y-111907521D01*
X151376742Y-111967611D01*
X151363377Y-111978425D01*
X151357251Y-111982716D01*
X151355696Y-111983805D01*
X151246932Y-112092568D01*
X151185609Y-112126052D01*
X151115917Y-112121067D01*
X151071571Y-112092567D01*
X150243487Y-111264483D01*
X149325132Y-110346127D01*
X149291649Y-110284807D01*
X149296633Y-110215115D01*
X149325132Y-110170770D01*
X152039421Y-107456481D01*
X152100742Y-107422998D01*
X152163648Y-107425672D01*
X152375451Y-107491005D01*
X152375452Y-107491005D01*
X152375455Y-107491006D01*
X152624206Y-107528499D01*
X152624211Y-107528499D01*
X152624214Y-107528500D01*
X152624215Y-107528500D01*
X152875785Y-107528500D01*
X152875786Y-107528500D01*
X152875793Y-107528499D01*
X153124544Y-107491006D01*
X153124545Y-107491005D01*
X153124549Y-107491005D01*
X153364945Y-107416853D01*
X153549872Y-107327797D01*
X153591596Y-107307704D01*
X153591596Y-107307703D01*
X153591604Y-107307700D01*
X153799462Y-107165984D01*
X153983878Y-106994872D01*
X154140731Y-106798184D01*
X154266517Y-106580316D01*
X154339998Y-106393089D01*
X154382814Y-106337876D01*
X154448684Y-106314575D01*
X154516694Y-106330586D01*
X154543107Y-106350711D01*
X158023281Y-109830885D01*
X158056766Y-109892208D01*
X158059600Y-109918566D01*
X158059600Y-110378393D01*
X158057404Y-110401628D01*
X158055825Y-110409903D01*
X158055825Y-110409906D01*
X158059355Y-110466014D01*
X158059600Y-110473800D01*
X158059600Y-110489862D01*
X158061612Y-110505788D01*
X158062344Y-110513536D01*
X158065875Y-110569649D01*
X158068479Y-110577663D01*
X158073570Y-110600437D01*
X158074625Y-110608794D01*
X158074627Y-110608801D01*
X158095321Y-110661068D01*
X158097959Y-110668395D01*
X158115336Y-110721876D01*
X158119850Y-110728988D01*
X158130446Y-110749782D01*
X158133549Y-110757619D01*
X158166597Y-110803107D01*
X158170974Y-110809548D01*
X158201098Y-110857016D01*
X158201099Y-110857017D01*
X158201100Y-110857018D01*
X158207245Y-110862788D01*
X158222679Y-110880296D01*
X158227628Y-110887107D01*
X158270960Y-110922954D01*
X158276786Y-110928091D01*
X158317780Y-110966587D01*
X158317784Y-110966590D01*
X158325159Y-110970644D01*
X158344462Y-110983761D01*
X158350956Y-110989133D01*
X158401827Y-111013071D01*
X158408759Y-111016602D01*
X158458040Y-111043695D01*
X158466202Y-111045790D01*
X158488159Y-111053696D01*
X158495782Y-111057283D01*
X158551019Y-111067819D01*
X158558616Y-111069518D01*
X158613070Y-111083500D01*
X158613077Y-111083500D01*
X158616839Y-111083976D01*
X158619579Y-111085171D01*
X158620626Y-111085440D01*
X158620582Y-111085608D01*
X158680883Y-111111909D01*
X158702869Y-111135872D01*
X158813802Y-111294300D01*
X158975700Y-111456198D01*
X159150392Y-111578519D01*
X159163251Y-111587523D01*
X159206345Y-111607618D01*
X159258784Y-111653791D01*
X159277936Y-111720984D01*
X159257720Y-111787865D01*
X159206345Y-111832382D01*
X159163251Y-111852476D01*
X159084640Y-111907521D01*
X158975700Y-111983802D01*
X158975698Y-111983803D01*
X158975695Y-111983806D01*
X158813806Y-112145695D01*
X158813803Y-112145698D01*
X158813802Y-112145700D01*
X158752254Y-112233600D01*
X158682476Y-112333252D01*
X158682475Y-112333254D01*
X158585718Y-112540750D01*
X158585714Y-112540761D01*
X158526457Y-112761910D01*
X158526456Y-112761918D01*
X158506502Y-112989998D01*
X158506502Y-112990001D01*
X158526456Y-113218081D01*
X158526457Y-113218089D01*
X158585714Y-113439238D01*
X158585718Y-113439249D01*
X158669292Y-113618473D01*
X158682477Y-113646749D01*
X158813802Y-113834300D01*
X158975700Y-113996198D01*
X159151435Y-114119249D01*
X159163251Y-114127523D01*
X159206345Y-114147618D01*
X159258784Y-114193791D01*
X159277936Y-114260984D01*
X159257720Y-114327865D01*
X159206345Y-114372382D01*
X159163251Y-114392476D01*
X159047311Y-114473659D01*
X158975700Y-114523802D01*
X158975698Y-114523803D01*
X158975695Y-114523806D01*
X158813806Y-114685695D01*
X158813803Y-114685698D01*
X158813802Y-114685700D01*
X158773903Y-114742682D01*
X158682476Y-114873252D01*
X158682475Y-114873254D01*
X158585718Y-115080750D01*
X158585714Y-115080761D01*
X158526457Y-115301910D01*
X158526456Y-115301918D01*
X158506502Y-115529998D01*
X158506502Y-115530001D01*
X158526456Y-115758081D01*
X158526457Y-115758089D01*
X158585714Y-115979238D01*
X158585718Y-115979249D01*
X158672619Y-116165609D01*
X158682477Y-116186749D01*
X158813802Y-116374300D01*
X158975700Y-116536198D01*
X159151435Y-116659249D01*
X159163251Y-116667523D01*
X159206345Y-116687618D01*
X159258784Y-116733791D01*
X159277936Y-116800984D01*
X159257720Y-116867865D01*
X159206345Y-116912382D01*
X159163251Y-116932476D01*
X159047743Y-117013357D01*
X158975700Y-117063802D01*
X158975698Y-117063803D01*
X158975695Y-117063806D01*
X158813806Y-117225695D01*
X158813803Y-117225698D01*
X158813802Y-117225700D01*
X158743722Y-117325784D01*
X158682476Y-117413252D01*
X158682475Y-117413254D01*
X158585718Y-117620750D01*
X158585714Y-117620761D01*
X158526457Y-117841910D01*
X158526456Y-117841918D01*
X158506502Y-118069998D01*
X158506502Y-118070001D01*
X158526456Y-118298081D01*
X158526457Y-118298089D01*
X158585714Y-118519238D01*
X158585718Y-118519249D01*
X158666947Y-118693445D01*
X158682477Y-118726749D01*
X158813802Y-118914300D01*
X158975700Y-119076198D01*
X159163251Y-119207523D01*
X159275045Y-119259653D01*
X159370750Y-119304281D01*
X159370752Y-119304281D01*
X159370757Y-119304284D01*
X159591913Y-119363543D01*
X159743567Y-119376811D01*
X159819998Y-119383498D01*
X159820000Y-119383498D01*
X159820002Y-119383498D01*
X159877021Y-119378509D01*
X160048087Y-119363543D01*
X160269243Y-119304284D01*
X160476749Y-119207523D01*
X160664300Y-119076198D01*
X160826198Y-118914300D01*
X160957523Y-118726749D01*
X161054284Y-118519243D01*
X161113543Y-118298087D01*
X161132743Y-118078628D01*
X161133498Y-118070001D01*
X161133498Y-118069998D01*
X161122948Y-117949416D01*
X161113543Y-117841913D01*
X161054284Y-117620757D01*
X161040246Y-117590653D01*
X161001571Y-117507712D01*
X160957523Y-117413251D01*
X160826198Y-117225700D01*
X160664300Y-117063802D01*
X160476749Y-116932477D01*
X160433655Y-116912382D01*
X160381215Y-116866210D01*
X160362063Y-116799017D01*
X160382278Y-116732136D01*
X160433655Y-116687618D01*
X160436882Y-116686112D01*
X160476749Y-116667523D01*
X160664300Y-116536198D01*
X160826198Y-116374300D01*
X160957523Y-116186749D01*
X161054284Y-115979243D01*
X161113543Y-115758087D01*
X161133498Y-115530000D01*
X161132248Y-115515718D01*
X161124071Y-115422249D01*
X161113543Y-115301913D01*
X161054284Y-115080757D01*
X160957523Y-114873251D01*
X160826198Y-114685700D01*
X160664300Y-114523802D01*
X160476749Y-114392477D01*
X160450283Y-114380136D01*
X160433655Y-114372382D01*
X160381215Y-114326210D01*
X160362063Y-114259017D01*
X160382278Y-114192136D01*
X160433655Y-114147618D01*
X160436882Y-114146112D01*
X160476749Y-114127523D01*
X160664300Y-113996198D01*
X160826198Y-113834300D01*
X160957523Y-113646749D01*
X161054284Y-113439243D01*
X161113543Y-113218087D01*
X161133498Y-112990000D01*
X161113543Y-112761913D01*
X161054284Y-112540757D01*
X161051380Y-112534530D01*
X161006601Y-112438500D01*
X160957523Y-112333251D01*
X160826198Y-112145700D01*
X160664300Y-111983802D01*
X160476749Y-111852477D01*
X160474943Y-111851635D01*
X160433655Y-111832382D01*
X160381215Y-111786210D01*
X160362063Y-111719017D01*
X160382278Y-111652136D01*
X160433655Y-111607618D01*
X160449108Y-111600412D01*
X160476749Y-111587523D01*
X160664300Y-111456198D01*
X160826198Y-111294300D01*
X160957523Y-111106749D01*
X161054284Y-110899243D01*
X161113543Y-110678087D01*
X161133498Y-110450000D01*
X161130894Y-110420241D01*
X161124674Y-110349146D01*
X161113543Y-110221913D01*
X161054284Y-110000757D01*
X161047900Y-109987067D01*
X160995773Y-109875279D01*
X160957523Y-109793251D01*
X160826198Y-109605700D01*
X160664300Y-109443802D01*
X160476749Y-109312477D01*
X160451624Y-109300761D01*
X160269249Y-109215718D01*
X160269238Y-109215714D01*
X160048089Y-109156457D01*
X160048081Y-109156456D01*
X159820002Y-109136502D01*
X159819998Y-109136502D01*
X159591918Y-109156456D01*
X159591910Y-109156457D01*
X159370761Y-109215714D01*
X159370759Y-109215715D01*
X159370757Y-109215716D01*
X159332937Y-109233351D01*
X159263861Y-109243842D01*
X159200077Y-109215321D01*
X159192858Y-109208654D01*
X159183204Y-109199000D01*
X159170571Y-109184209D01*
X159158572Y-109167693D01*
X159158569Y-109167691D01*
X159158569Y-109167690D01*
X159124425Y-109139443D01*
X159115785Y-109131581D01*
X157724386Y-107740181D01*
X157690901Y-107678858D01*
X157695885Y-107609166D01*
X157737757Y-107553233D01*
X157803221Y-107528816D01*
X157812067Y-107528500D01*
X157875785Y-107528500D01*
X157875786Y-107528500D01*
X157875793Y-107528499D01*
X158124544Y-107491006D01*
X158124545Y-107491005D01*
X158124549Y-107491005D01*
X158364945Y-107416853D01*
X158549872Y-107327797D01*
X158591596Y-107307704D01*
X158591596Y-107307703D01*
X158591604Y-107307700D01*
X158799462Y-107165984D01*
X158983878Y-106994872D01*
X159140731Y-106798184D01*
X159266517Y-106580316D01*
X159358427Y-106346134D01*
X159414407Y-106100869D01*
X159426967Y-105933268D01*
X159433207Y-105850004D01*
X159433207Y-105849995D01*
X159414407Y-105599133D01*
X159414407Y-105599131D01*
X159358427Y-105353866D01*
X159266517Y-105119684D01*
X159140731Y-104901816D01*
X158983878Y-104705128D01*
X158977535Y-104699243D01*
X158911018Y-104637524D01*
X158799462Y-104534016D01*
X158758653Y-104506193D01*
X158591607Y-104392302D01*
X158591596Y-104392295D01*
X158528104Y-104361720D01*
X158476244Y-104314898D01*
X158457931Y-104247471D01*
X158478978Y-104180847D01*
X158528104Y-104138280D01*
X158591596Y-104107704D01*
X158591596Y-104107703D01*
X158591604Y-104107700D01*
X158799462Y-103965984D01*
X158983878Y-103794872D01*
X159140731Y-103598184D01*
X159266517Y-103380316D01*
X159358427Y-103146134D01*
X159414407Y-102900869D01*
X159426833Y-102735055D01*
X159433207Y-102650004D01*
X159433207Y-102649995D01*
X159415520Y-102413982D01*
X159414407Y-102399131D01*
X159358427Y-102153866D01*
X159266517Y-101919684D01*
X159140731Y-101701816D01*
X158983878Y-101505128D01*
X158799462Y-101334016D01*
X158683752Y-101255126D01*
X158591607Y-101192302D01*
X158591596Y-101192295D01*
X158372000Y-101086544D01*
X158364947Y-101083148D01*
X158364949Y-101083148D01*
X158124550Y-101008995D01*
X158124544Y-101008993D01*
X157875793Y-100971500D01*
X157875786Y-100971500D01*
X157624214Y-100971500D01*
X157624206Y-100971500D01*
X157375455Y-101008993D01*
X157375445Y-101008996D01*
X157163650Y-101074325D01*
X157093787Y-101075275D01*
X157039420Y-101043515D01*
X156724388Y-100728483D01*
X156714487Y-100716123D01*
X156714277Y-100716298D01*
X156709302Y-100710286D01*
X156709300Y-100710282D01*
X156659631Y-100663640D01*
X156656834Y-100660929D01*
X156637066Y-100641161D01*
X156633804Y-100638631D01*
X156624919Y-100631043D01*
X156592621Y-100600714D01*
X156592619Y-100600712D01*
X156574731Y-100590878D01*
X156558470Y-100580197D01*
X156542339Y-100567684D01*
X156501675Y-100550088D01*
X156491185Y-100544949D01*
X156452360Y-100523605D01*
X156452356Y-100523604D01*
X156432587Y-100518528D01*
X156414181Y-100512226D01*
X156395444Y-100504118D01*
X156395445Y-100504118D01*
X156351683Y-100497187D01*
X156340247Y-100494819D01*
X156325493Y-100491031D01*
X156297332Y-100483800D01*
X156297330Y-100483800D01*
X156276916Y-100483800D01*
X156257517Y-100482273D01*
X156237358Y-100479080D01*
X156237357Y-100479080D01*
X156193243Y-100483250D01*
X156181574Y-100483800D01*
X134165031Y-100483800D01*
X134149279Y-100482060D01*
X134149254Y-100482332D01*
X134141492Y-100481598D01*
X134141491Y-100481598D01*
X134118137Y-100482332D01*
X134073369Y-100483739D01*
X134069474Y-100483800D01*
X134041544Y-100483800D01*
X134041541Y-100483800D01*
X134041525Y-100483801D01*
X134037432Y-100484318D01*
X134025804Y-100485233D01*
X133981513Y-100486625D01*
X133981507Y-100486626D01*
X133961900Y-100492322D01*
X133942861Y-100496265D01*
X133922611Y-100498824D01*
X133922605Y-100498825D01*
X133922603Y-100498826D01*
X133911825Y-100503092D01*
X133881406Y-100515136D01*
X133870360Y-100518917D01*
X133827813Y-100531279D01*
X133827807Y-100531281D01*
X133810233Y-100541674D01*
X133792772Y-100550228D01*
X133773786Y-100557746D01*
X133773785Y-100557746D01*
X133737935Y-100583792D01*
X133728179Y-100590200D01*
X133703276Y-100604929D01*
X133640150Y-100622200D01*
X133572513Y-100622200D01*
X133385714Y-100661905D01*
X133211246Y-100739583D01*
X133056745Y-100851835D01*
X132928959Y-100993757D01*
X132833473Y-101159143D01*
X132833470Y-101159150D01*
X132776654Y-101334013D01*
X132774458Y-101340772D01*
X132754496Y-101530700D01*
X132774458Y-101720628D01*
X132774459Y-101720631D01*
X132833470Y-101902249D01*
X132833473Y-101902256D01*
X132928960Y-102067644D01*
X133031290Y-102181294D01*
X133053947Y-102206457D01*
X133056747Y-102209566D01*
X133211248Y-102321818D01*
X133385712Y-102399494D01*
X133572513Y-102439200D01*
X133763487Y-102439200D01*
X133950288Y-102399494D01*
X134124752Y-102321818D01*
X134279253Y-102209566D01*
X134407040Y-102067644D01*
X134502527Y-101902256D01*
X134523898Y-101836483D01*
X134563335Y-101778807D01*
X134627693Y-101751608D01*
X134641829Y-101750800D01*
X146117891Y-101750800D01*
X146184930Y-101770485D01*
X146230685Y-101823289D01*
X146240629Y-101892447D01*
X146233319Y-101920102D01*
X146143431Y-102149133D01*
X146141574Y-102153865D01*
X146141570Y-102153877D01*
X146085592Y-102399133D01*
X146066793Y-102649995D01*
X146066793Y-102650004D01*
X146085592Y-102900866D01*
X146139447Y-103136819D01*
X146141573Y-103146134D01*
X146141575Y-103146139D01*
X146233482Y-103380314D01*
X146262457Y-103430501D01*
X146278929Y-103498401D01*
X146256076Y-103564428D01*
X146201154Y-103607618D01*
X146155069Y-103616500D01*
X141415666Y-103616500D01*
X141348627Y-103596815D01*
X141327985Y-103580181D01*
X141222657Y-103474853D01*
X141108987Y-103361182D01*
X141099080Y-103348816D01*
X141098871Y-103348990D01*
X141093903Y-103342984D01*
X141044231Y-103296340D01*
X141041433Y-103293628D01*
X141021666Y-103273861D01*
X141018404Y-103271331D01*
X141009519Y-103263743D01*
X140977221Y-103233414D01*
X140977219Y-103233412D01*
X140959331Y-103223578D01*
X140943070Y-103212897D01*
X140926939Y-103200384D01*
X140886275Y-103182788D01*
X140875785Y-103177649D01*
X140836960Y-103156305D01*
X140836956Y-103156304D01*
X140817187Y-103151228D01*
X140798781Y-103144926D01*
X140780044Y-103136818D01*
X140780047Y-103136818D01*
X140769208Y-103135102D01*
X140706073Y-103105171D01*
X140679250Y-103071082D01*
X140613483Y-102948041D01*
X140613480Y-102948037D01*
X140484331Y-102790668D01*
X140326961Y-102661519D01*
X140326954Y-102661514D01*
X140147424Y-102565553D01*
X140147421Y-102565552D01*
X140147420Y-102565551D01*
X140147417Y-102565550D01*
X139952601Y-102506454D01*
X139952599Y-102506453D01*
X139952601Y-102506453D01*
X139750000Y-102486499D01*
X139547400Y-102506453D01*
X139454850Y-102534528D01*
X139352583Y-102565550D01*
X139352580Y-102565551D01*
X139352578Y-102565552D01*
X139352575Y-102565553D01*
X139173453Y-102661296D01*
X139105050Y-102675538D01*
X139056547Y-102661296D01*
X138877424Y-102565553D01*
X138877421Y-102565552D01*
X138877420Y-102565551D01*
X138877417Y-102565550D01*
X138682601Y-102506454D01*
X138682599Y-102506453D01*
X138682601Y-102506453D01*
X138480000Y-102486499D01*
X138277400Y-102506453D01*
X138086126Y-102564475D01*
X138016259Y-102565098D01*
X137989745Y-102551975D01*
X137988988Y-102553362D01*
X137981209Y-102549115D01*
X137981204Y-102549111D01*
X137913507Y-102523861D01*
X137844203Y-102498011D01*
X137783654Y-102491500D01*
X137783638Y-102491500D01*
X136636362Y-102491500D01*
X136636345Y-102491500D01*
X136575797Y-102498011D01*
X136575795Y-102498011D01*
X136438795Y-102549111D01*
X136321739Y-102636739D01*
X136234111Y-102753795D01*
X136183011Y-102890795D01*
X136183011Y-102890797D01*
X136176500Y-102951345D01*
X136176500Y-103568016D01*
X136156815Y-103635055D01*
X136104011Y-103680810D01*
X136034853Y-103690754D01*
X136026719Y-103689306D01*
X135902487Y-103662900D01*
X135711513Y-103662900D01*
X135524714Y-103702605D01*
X135494664Y-103715984D01*
X135401418Y-103757500D01*
X135350246Y-103780283D01*
X135195744Y-103892536D01*
X135195741Y-103892538D01*
X135113776Y-103983572D01*
X135054290Y-104020221D01*
X135021626Y-104024600D01*
X133375693Y-104024600D01*
X133308654Y-104004915D01*
X133262899Y-103952111D01*
X133252955Y-103882953D01*
X133255918Y-103868507D01*
X133279557Y-103780282D01*
X133293543Y-103728087D01*
X133313498Y-103500000D01*
X133293543Y-103271913D01*
X133234284Y-103050757D01*
X133137523Y-102843251D01*
X133006198Y-102655700D01*
X132844300Y-102493802D01*
X132656749Y-102362477D01*
X132656745Y-102362475D01*
X132449249Y-102265718D01*
X132449238Y-102265714D01*
X132228089Y-102206457D01*
X132228081Y-102206456D01*
X132000002Y-102186502D01*
X131999998Y-102186502D01*
X131771918Y-102206456D01*
X131771910Y-102206457D01*
X131550761Y-102265714D01*
X131550750Y-102265718D01*
X131343254Y-102362475D01*
X131343252Y-102362476D01*
X131308487Y-102386819D01*
X131155700Y-102493802D01*
X131155698Y-102493803D01*
X131155695Y-102493806D01*
X130993806Y-102655695D01*
X130993803Y-102655698D01*
X130993802Y-102655700D01*
X130956376Y-102709150D01*
X130862476Y-102843252D01*
X130862475Y-102843254D01*
X130765718Y-103050750D01*
X130765714Y-103050761D01*
X130706457Y-103271910D01*
X130706456Y-103271918D01*
X130686502Y-103499998D01*
X130686502Y-103500001D01*
X130706456Y-103728081D01*
X130706458Y-103728092D01*
X130744082Y-103868507D01*
X130742419Y-103938357D01*
X130703256Y-103996219D01*
X130639028Y-104023723D01*
X130624307Y-104024600D01*
X128471867Y-104024600D01*
X128404828Y-104004915D01*
X128384185Y-103988281D01*
X128308334Y-103912429D01*
X128274850Y-103851105D01*
X128276242Y-103792652D01*
X128279557Y-103780283D01*
X128293543Y-103728087D01*
X128313498Y-103500000D01*
X128293543Y-103271913D01*
X128234284Y-103050757D01*
X128137523Y-102843251D01*
X128006198Y-102655700D01*
X127844300Y-102493802D01*
X127656749Y-102362477D01*
X127656745Y-102362475D01*
X127449249Y-102265718D01*
X127449238Y-102265714D01*
X127228089Y-102206457D01*
X127228081Y-102206456D01*
X127000002Y-102186502D01*
X126999998Y-102186502D01*
X126771918Y-102206456D01*
X126771910Y-102206457D01*
X126550761Y-102265714D01*
X126550750Y-102265718D01*
X126343254Y-102362475D01*
X126343252Y-102362476D01*
X126308487Y-102386819D01*
X126155700Y-102493802D01*
X126155698Y-102493803D01*
X126155695Y-102493806D01*
X125993806Y-102655695D01*
X125993803Y-102655698D01*
X125993802Y-102655700D01*
X125956376Y-102709150D01*
X125862476Y-102843252D01*
X125862475Y-102843254D01*
X125765718Y-103050750D01*
X125765714Y-103050761D01*
X125706457Y-103271910D01*
X125706456Y-103271918D01*
X125686502Y-103499998D01*
X125686502Y-103500001D01*
X125706456Y-103728081D01*
X125706457Y-103728089D01*
X125765714Y-103949238D01*
X125765718Y-103949249D01*
X125843679Y-104116437D01*
X125862477Y-104156749D01*
X125993802Y-104344300D01*
X126155700Y-104506198D01*
X126343251Y-104637523D01*
X126419399Y-104673031D01*
X126550750Y-104734281D01*
X126550752Y-104734281D01*
X126550757Y-104734284D01*
X126771913Y-104793543D01*
X126925613Y-104806990D01*
X126999998Y-104813498D01*
X127000000Y-104813498D01*
X127000002Y-104813498D01*
X127031614Y-104810732D01*
X127228087Y-104793543D01*
X127292654Y-104776242D01*
X127362504Y-104777903D01*
X127412430Y-104808335D01*
X127518813Y-104914718D01*
X127552298Y-104976041D01*
X127547314Y-105045733D01*
X127518813Y-105090080D01*
X125310614Y-107298281D01*
X125249291Y-107331766D01*
X125222933Y-107334600D01*
X119110666Y-107334600D01*
X119043627Y-107314915D01*
X118997872Y-107262111D01*
X118987928Y-107192953D01*
X119016953Y-107129397D01*
X119022985Y-107122919D01*
X119717705Y-106428200D01*
X120551086Y-105594819D01*
X120612409Y-105561334D01*
X120638767Y-105558500D01*
X121848638Y-105558500D01*
X121848654Y-105558499D01*
X121875692Y-105555591D01*
X121909201Y-105551989D01*
X122046204Y-105500889D01*
X122163261Y-105413261D01*
X122250889Y-105296204D01*
X122285943Y-105202222D01*
X122304300Y-105153007D01*
X122346171Y-105097073D01*
X122411636Y-105072657D01*
X122479909Y-105087509D01*
X122508162Y-105108660D01*
X122655700Y-105256198D01*
X122843251Y-105387523D01*
X122898445Y-105413260D01*
X123050750Y-105484281D01*
X123050752Y-105484281D01*
X123050757Y-105484284D01*
X123271913Y-105543543D01*
X123434832Y-105557796D01*
X123499998Y-105563498D01*
X123500000Y-105563498D01*
X123500002Y-105563498D01*
X123557139Y-105558499D01*
X123728087Y-105543543D01*
X123949243Y-105484284D01*
X124156749Y-105387523D01*
X124344300Y-105256198D01*
X124506198Y-105094300D01*
X124637523Y-104906749D01*
X124734284Y-104699243D01*
X124793543Y-104478087D01*
X124813498Y-104250000D01*
X124793543Y-104021913D01*
X124734284Y-103800757D01*
X124731540Y-103794873D01*
X124673227Y-103669819D01*
X124637523Y-103593251D01*
X124506198Y-103405700D01*
X124344300Y-103243802D01*
X124156749Y-103112477D01*
X124156745Y-103112475D01*
X123949249Y-103015718D01*
X123949238Y-103015714D01*
X123728089Y-102956457D01*
X123728081Y-102956456D01*
X123500002Y-102936502D01*
X123499998Y-102936502D01*
X123271918Y-102956456D01*
X123271910Y-102956457D01*
X123050760Y-103015715D01*
X123050759Y-103015715D01*
X123050757Y-103015716D01*
X123042197Y-103019707D01*
X123034552Y-103023272D01*
X122965474Y-103033760D01*
X122901691Y-103005237D01*
X122894472Y-102998568D01*
X122507091Y-102611187D01*
X122497188Y-102598825D01*
X122496978Y-102599000D01*
X122491999Y-102592981D01*
X122442331Y-102546340D01*
X122439534Y-102543629D01*
X122419766Y-102523861D01*
X122416504Y-102521331D01*
X122407619Y-102513743D01*
X122403524Y-102509898D01*
X122375321Y-102483414D01*
X122375319Y-102483412D01*
X122357431Y-102473578D01*
X122341170Y-102462897D01*
X122325039Y-102450384D01*
X122284375Y-102432788D01*
X122273885Y-102427649D01*
X122235060Y-102406305D01*
X122235056Y-102406304D01*
X122215287Y-102401228D01*
X122196881Y-102394926D01*
X122178144Y-102386818D01*
X122178145Y-102386818D01*
X122134383Y-102379887D01*
X122122947Y-102377519D01*
X122108193Y-102373731D01*
X122080032Y-102366500D01*
X122080030Y-102366500D01*
X122059616Y-102366500D01*
X122040217Y-102364973D01*
X122020058Y-102361780D01*
X122020057Y-102361780D01*
X121975943Y-102365950D01*
X121964274Y-102366500D01*
X116933634Y-102366500D01*
X116917886Y-102364761D01*
X116917861Y-102365032D01*
X116910094Y-102364298D01*
X116910091Y-102364298D01*
X116841983Y-102366439D01*
X116838087Y-102366500D01*
X116810136Y-102366500D01*
X116806040Y-102367018D01*
X116794402Y-102367934D01*
X116750111Y-102369326D01*
X116750108Y-102369327D01*
X116730505Y-102375022D01*
X116711459Y-102378966D01*
X116691203Y-102381526D01*
X116691201Y-102381526D01*
X116691199Y-102381527D01*
X116649998Y-102397839D01*
X116638951Y-102401621D01*
X116596406Y-102413982D01*
X116578833Y-102424374D01*
X116561370Y-102432929D01*
X116542385Y-102440446D01*
X116542384Y-102440447D01*
X116506543Y-102466487D01*
X116496781Y-102472899D01*
X116458637Y-102495458D01*
X116444196Y-102509898D01*
X116429408Y-102522527D01*
X116412897Y-102534523D01*
X116412892Y-102534528D01*
X116384652Y-102568663D01*
X116376792Y-102577301D01*
X116103764Y-102850329D01*
X116042441Y-102883814D01*
X115972749Y-102878830D01*
X115916816Y-102836958D01*
X115892399Y-102771494D01*
X115895192Y-102735055D01*
X115914407Y-102650869D01*
X115925229Y-102506454D01*
X115933207Y-102400004D01*
X115933207Y-102399995D01*
X115918703Y-102206456D01*
X115914407Y-102149131D01*
X115858427Y-101903866D01*
X115766517Y-101669684D01*
X115640731Y-101451816D01*
X115483878Y-101255128D01*
X115299462Y-101084016D01*
X115298187Y-101083147D01*
X115091607Y-100942302D01*
X115091596Y-100942295D01*
X114864947Y-100833148D01*
X114864949Y-100833148D01*
X114624550Y-100758995D01*
X114624544Y-100758993D01*
X114375793Y-100721500D01*
X114375786Y-100721500D01*
X114124214Y-100721500D01*
X114124206Y-100721500D01*
X113875455Y-100758993D01*
X113875449Y-100758995D01*
X113635054Y-100833147D01*
X113408401Y-100942297D01*
X113200537Y-101084016D01*
X113016123Y-101255126D01*
X113016122Y-101255128D01*
X112859269Y-101451816D01*
X112733483Y-101669683D01*
X112641575Y-101903860D01*
X112641570Y-101903877D01*
X112585592Y-102149133D01*
X112566793Y-102399995D01*
X112566793Y-102400004D01*
X112585592Y-102650866D01*
X112631118Y-102850329D01*
X112641573Y-102896134D01*
X112733483Y-103130316D01*
X112859269Y-103348184D01*
X113016122Y-103544872D01*
X113016123Y-103544873D01*
X113093319Y-103616500D01*
X113200538Y-103715984D01*
X113408397Y-103857700D01*
X113408400Y-103857701D01*
X113408401Y-103857702D01*
X113471897Y-103888280D01*
X113523756Y-103935102D01*
X113542069Y-104002529D01*
X113521021Y-104069153D01*
X113471897Y-104111720D01*
X113408401Y-104142297D01*
X113200537Y-104284016D01*
X113016123Y-104455126D01*
X113016122Y-104455128D01*
X112859269Y-104651816D01*
X112733483Y-104869683D01*
X112641575Y-105103860D01*
X112641574Y-105103865D01*
X112641570Y-105103877D01*
X112585592Y-105349133D01*
X112566793Y-105599995D01*
X112566793Y-105600004D01*
X112585592Y-105850866D01*
X112641570Y-106096122D01*
X112641573Y-106096134D01*
X112654880Y-106130040D01*
X112733483Y-106330316D01*
X112750794Y-106360300D01*
X112767267Y-106428200D01*
X112744414Y-106494227D01*
X112689493Y-106537418D01*
X112643407Y-106546300D01*
X110856593Y-106546300D01*
X110789554Y-106526615D01*
X110743799Y-106473811D01*
X110733855Y-106404653D01*
X110749206Y-106360300D01*
X110754742Y-106350711D01*
X110766517Y-106330316D01*
X110858427Y-106096134D01*
X110914407Y-105850869D01*
X110933207Y-105600000D01*
X110930309Y-105561334D01*
X110914761Y-105353860D01*
X110914407Y-105349131D01*
X110858427Y-105103866D01*
X110766517Y-104869684D01*
X110640731Y-104651816D01*
X110483878Y-104455128D01*
X110299462Y-104284016D01*
X110298187Y-104283147D01*
X110091607Y-104142302D01*
X110091596Y-104142295D01*
X110028104Y-104111720D01*
X109976244Y-104064898D01*
X109957931Y-103997471D01*
X109978978Y-103930847D01*
X110028104Y-103888280D01*
X110091596Y-103857704D01*
X110091596Y-103857703D01*
X110091604Y-103857700D01*
X110299462Y-103715984D01*
X110483878Y-103544872D01*
X110640731Y-103348184D01*
X110766517Y-103130316D01*
X110858427Y-102896134D01*
X110914407Y-102650869D01*
X110925229Y-102506454D01*
X110933207Y-102400004D01*
X110933207Y-102399995D01*
X110918703Y-102206456D01*
X110914407Y-102149131D01*
X110858427Y-101903866D01*
X110766517Y-101669684D01*
X110640731Y-101451816D01*
X110483878Y-101255128D01*
X110299462Y-101084016D01*
X110298187Y-101083147D01*
X110091607Y-100942302D01*
X110091596Y-100942295D01*
X109864947Y-100833148D01*
X109864949Y-100833148D01*
X109624550Y-100758995D01*
X109624544Y-100758993D01*
X109375793Y-100721500D01*
X109375786Y-100721500D01*
X109124214Y-100721500D01*
X109124206Y-100721500D01*
X108875455Y-100758993D01*
X108875449Y-100758995D01*
X108635054Y-100833147D01*
X108408401Y-100942297D01*
X108200537Y-101084016D01*
X108016123Y-101255126D01*
X108016122Y-101255128D01*
X107859269Y-101451816D01*
X107733483Y-101669683D01*
X107641575Y-101903860D01*
X107641570Y-101903877D01*
X107585592Y-102149133D01*
X107566793Y-102399995D01*
X107566793Y-102400004D01*
X107585592Y-102650866D01*
X107631118Y-102850329D01*
X107641573Y-102896134D01*
X107733483Y-103130316D01*
X107859269Y-103348184D01*
X108016122Y-103544872D01*
X108016123Y-103544873D01*
X108093319Y-103616500D01*
X108200538Y-103715984D01*
X108408397Y-103857700D01*
X108408400Y-103857701D01*
X108408401Y-103857702D01*
X108471897Y-103888280D01*
X108523756Y-103935102D01*
X108542069Y-104002529D01*
X108521021Y-104069153D01*
X108471897Y-104111720D01*
X108408401Y-104142297D01*
X108200537Y-104284016D01*
X108016123Y-104455126D01*
X108016122Y-104455128D01*
X107859269Y-104651816D01*
X107733483Y-104869683D01*
X107641575Y-105103860D01*
X107641574Y-105103865D01*
X107641570Y-105103877D01*
X107585592Y-105349133D01*
X107566793Y-105599995D01*
X107566793Y-105600004D01*
X107585592Y-105850866D01*
X107641570Y-106096122D01*
X107641573Y-106096134D01*
X107654880Y-106130040D01*
X107733483Y-106330316D01*
X107806222Y-106456304D01*
X107822695Y-106524204D01*
X107799842Y-106590231D01*
X107771719Y-106618623D01*
X107733646Y-106646284D01*
X107723885Y-106652696D01*
X107685738Y-106675256D01*
X107671296Y-106689698D01*
X107656508Y-106702327D01*
X107639997Y-106714323D01*
X107639992Y-106714328D01*
X107611752Y-106748463D01*
X107603892Y-106757101D01*
X104363341Y-109997652D01*
X104302018Y-110031137D01*
X104232326Y-110026153D01*
X104176394Y-109984282D01*
X104163261Y-109966739D01*
X104046204Y-109879111D01*
X104035930Y-109875279D01*
X103909203Y-109828011D01*
X103848654Y-109821500D01*
X103848638Y-109821500D01*
X102151362Y-109821500D01*
X102151345Y-109821500D01*
X102090797Y-109828011D01*
X102090795Y-109828011D01*
X101953795Y-109879111D01*
X101836739Y-109966739D01*
X101749111Y-110083795D01*
X101698011Y-110220795D01*
X101698011Y-110220797D01*
X101691500Y-110281345D01*
X101691500Y-111978654D01*
X101698011Y-112039202D01*
X101698011Y-112039204D01*
X101737733Y-112145700D01*
X101749111Y-112176204D01*
X101836739Y-112293261D01*
X101953796Y-112380889D01*
X102025681Y-112407701D01*
X102090793Y-112431987D01*
X102090799Y-112431989D01*
X102105499Y-112433569D01*
X102170048Y-112460305D01*
X102209897Y-112517696D01*
X102212393Y-112587521D01*
X102176742Y-112647611D01*
X102163377Y-112658425D01*
X102163371Y-112658431D01*
X102155696Y-112663805D01*
X101993806Y-112825695D01*
X101993803Y-112825698D01*
X101993802Y-112825700D01*
X101920768Y-112930003D01*
X101862476Y-113013252D01*
X101862475Y-113013254D01*
X101765718Y-113220750D01*
X101765714Y-113220761D01*
X101706457Y-113441910D01*
X101706456Y-113441918D01*
X101686502Y-113669998D01*
X101686502Y-113670001D01*
X101706456Y-113898081D01*
X101706457Y-113898089D01*
X101765714Y-114119238D01*
X101765718Y-114119249D01*
X101850472Y-114301004D01*
X101862477Y-114326749D01*
X101993802Y-114514300D01*
X102155700Y-114676198D01*
X102327803Y-114796706D01*
X102343251Y-114807523D01*
X102386345Y-114827618D01*
X102438784Y-114873791D01*
X102457936Y-114940984D01*
X102437720Y-115007865D01*
X102386345Y-115052382D01*
X102343251Y-115072476D01*
X102255493Y-115133926D01*
X102155700Y-115203802D01*
X102155698Y-115203803D01*
X102155695Y-115203806D01*
X101993806Y-115365695D01*
X101993803Y-115365698D01*
X101993802Y-115365700D01*
X101946746Y-115432903D01*
X101862476Y-115553252D01*
X101862475Y-115553254D01*
X101765718Y-115760750D01*
X101765714Y-115760761D01*
X101706457Y-115981910D01*
X101706456Y-115981918D01*
X101686502Y-116209998D01*
X101686502Y-116210001D01*
X101706456Y-116438081D01*
X101706458Y-116438091D01*
X101723758Y-116502655D01*
X101722095Y-116572504D01*
X101691664Y-116622429D01*
X101482779Y-116831314D01*
X101470420Y-116841218D01*
X101470593Y-116841427D01*
X101464582Y-116846400D01*
X101417937Y-116896070D01*
X101415232Y-116898861D01*
X101395473Y-116918621D01*
X101395458Y-116918638D01*
X101392917Y-116921913D01*
X101385353Y-116930767D01*
X101355020Y-116963071D01*
X101355012Y-116963081D01*
X101345179Y-116980967D01*
X101334503Y-116997220D01*
X101321986Y-117013357D01*
X101321985Y-117013360D01*
X101304385Y-117054029D01*
X101299248Y-117064515D01*
X101277903Y-117103341D01*
X101277903Y-117103342D01*
X101272825Y-117123120D01*
X101266525Y-117141522D01*
X101258418Y-117160257D01*
X101251488Y-117204009D01*
X101249120Y-117215445D01*
X101238100Y-117258365D01*
X101238100Y-117278784D01*
X101236573Y-117298183D01*
X101233380Y-117318341D01*
X101233380Y-117318342D01*
X100000500Y-117318342D01*
X100000500Y-102400004D01*
X102566793Y-102400004D01*
X102585592Y-102650866D01*
X102631118Y-102850329D01*
X102641573Y-102896134D01*
X102733483Y-103130316D01*
X102859269Y-103348184D01*
X103016122Y-103544872D01*
X103016123Y-103544873D01*
X103093319Y-103616500D01*
X103200538Y-103715984D01*
X103408397Y-103857700D01*
X103480730Y-103892534D01*
X103481692Y-103892997D01*
X103533551Y-103939819D01*
X103551864Y-104007246D01*
X103530816Y-104073870D01*
X103481692Y-104116437D01*
X103412659Y-104149681D01*
X103412651Y-104149686D01*
X103258403Y-104254849D01*
X104002466Y-104998912D01*
X103934371Y-105025874D01*
X103801508Y-105122405D01*
X103696825Y-105248945D01*
X103648367Y-105351921D01*
X102904800Y-104608354D01*
X102866311Y-104656617D01*
X102741163Y-104873381D01*
X102649720Y-105106373D01*
X102649714Y-105106392D01*
X102594021Y-105350400D01*
X102594021Y-105350402D01*
X102575317Y-105599995D01*
X102575317Y-105600004D01*
X102594021Y-105849597D01*
X102594021Y-105849599D01*
X102649714Y-106093607D01*
X102649720Y-106093626D01*
X102741163Y-106326618D01*
X102866311Y-106543381D01*
X102866318Y-106543392D01*
X102904799Y-106591645D01*
X102904800Y-106591645D01*
X103647452Y-105848993D01*
X103657188Y-105878956D01*
X103745186Y-106017619D01*
X103864903Y-106130040D01*
X103999510Y-106204041D01*
X103258403Y-106945148D01*
X103412658Y-107050317D01*
X103412666Y-107050322D01*
X103638167Y-107158916D01*
X103638165Y-107158916D01*
X103877346Y-107232694D01*
X103877352Y-107232696D01*
X104124843Y-107269999D01*
X104124852Y-107270000D01*
X104375148Y-107270000D01*
X104375156Y-107269999D01*
X104622647Y-107232696D01*
X104622653Y-107232694D01*
X104861833Y-107158916D01*
X105087334Y-107050322D01*
X105087344Y-107050315D01*
X105241595Y-106945148D01*
X104497534Y-106201086D01*
X104565629Y-106174126D01*
X104698492Y-106077595D01*
X104803175Y-105951055D01*
X104851631Y-105848079D01*
X105595197Y-106591645D01*
X105595198Y-106591644D01*
X105633690Y-106543379D01*
X105758836Y-106326618D01*
X105850279Y-106093626D01*
X105850285Y-106093607D01*
X105905978Y-105849599D01*
X105905978Y-105849597D01*
X105924683Y-105600004D01*
X105924683Y-105599995D01*
X105905978Y-105350402D01*
X105905978Y-105350400D01*
X105850285Y-105106392D01*
X105850279Y-105106373D01*
X105758836Y-104873381D01*
X105633688Y-104656618D01*
X105633681Y-104656607D01*
X105595199Y-104608354D01*
X105595198Y-104608353D01*
X104852546Y-105351004D01*
X104842812Y-105321044D01*
X104754814Y-105182381D01*
X104635097Y-105069960D01*
X104500488Y-104995957D01*
X105241595Y-104254850D01*
X105087335Y-104149678D01*
X105087334Y-104149677D01*
X105018308Y-104116437D01*
X104966448Y-104069615D01*
X104948135Y-104002188D01*
X104969182Y-103935564D01*
X105018306Y-103892998D01*
X105091604Y-103857700D01*
X105299462Y-103715984D01*
X105483878Y-103544872D01*
X105640731Y-103348184D01*
X105766517Y-103130316D01*
X105858427Y-102896134D01*
X105914407Y-102650869D01*
X105925229Y-102506454D01*
X105933207Y-102400004D01*
X105933207Y-102399995D01*
X105918703Y-102206456D01*
X105914407Y-102149131D01*
X105858427Y-101903866D01*
X105766517Y-101669684D01*
X105640731Y-101451816D01*
X105483878Y-101255128D01*
X105299462Y-101084016D01*
X105298187Y-101083147D01*
X105091607Y-100942302D01*
X105091596Y-100942295D01*
X104864947Y-100833148D01*
X104864949Y-100833148D01*
X104624550Y-100758995D01*
X104624544Y-100758993D01*
X104375793Y-100721500D01*
X104375786Y-100721500D01*
X104124214Y-100721500D01*
X104124206Y-100721500D01*
X103875455Y-100758993D01*
X103875449Y-100758995D01*
X103635054Y-100833147D01*
X103408401Y-100942297D01*
X103200537Y-101084016D01*
X103016123Y-101255126D01*
X103016122Y-101255128D01*
X102859269Y-101451816D01*
X102733483Y-101669683D01*
X102641575Y-101903860D01*
X102641570Y-101903877D01*
X102585592Y-102149133D01*
X102566793Y-102399995D01*
X102566793Y-102400004D01*
X100000500Y-102400004D01*
X100000500Y-100124500D01*
X100020185Y-100057461D01*
X100072989Y-100011706D01*
X100124500Y-100000500D01*
X161875500Y-100000500D01*
X161942539Y-100020185D01*
G37*
%TD.AperFunction*%
%TD*%
M02*
