M48
; DRILL file {KiCad 7.0.11+dfsg-1build4} date Sun 01 Mar 2026 05:54:10 PM EST
; FORMAT={-:-/ absolute / metric / decimal}
; #@! TF.CreationDate,2026-03-01T17:54:10-05:00
; #@! TF.GenerationSoftware,Kicad,Pcbnew,7.0.11+dfsg-1build4
; #@! TF.FileFunction,Plated,1,2,PTH
FMAT,2
METRIC
; #@! TA.AperFunction,Plated,PTH,ViaDrill
T1C0.400
; #@! TA.AperFunction,Plated,PTH,ComponentDrill
T2C0.750
; #@! TA.AperFunction,Plated,PTH,ComponentDrill
T3C0.800
; #@! TA.AperFunction,Plated,PTH,ComponentDrill
T4C0.900
; #@! TA.AperFunction,Plated,PTH,ComponentDrill
T5C1.000
; #@! TA.AperFunction,Plated,PTH,ComponentDrill
T6C1.300
%
G90
G05
T1
X107.868Y-117.889
X120.851Y-113.009
X133.668Y-101.531
X135.807Y-104.571
X144.297Y-126.66
X146.845Y-124.836
X150.068Y-131.8
T2
X137.21Y-103.75
X138.48Y-103.75
X139.75Y-103.75
T3
X102.75Y-135.5
X103.0Y-111.13
X103.0Y-113.67
X103.0Y-116.21
X103.0Y-118.75
X105.25Y-135.5
X110.25Y-135.5
X110.62Y-111.13
X110.62Y-113.67
X110.62Y-116.21
X110.62Y-118.75
X112.75Y-135.5
X113.92Y-109.75
X113.92Y-113.0
X113.92Y-116.25
X113.92Y-119.5
X113.92Y-122.75
X113.92Y-126.0
X113.92Y-129.25
X118.5Y-135.5
X121.0Y-104.25
X121.0Y-135.5
X123.5Y-104.25
X124.08Y-109.75
X124.08Y-113.0
X124.08Y-116.25
X124.08Y-119.5
X124.08Y-122.75
X124.08Y-126.0
X124.08Y-129.25
X126.42Y-128.2
X126.9Y-124.5
X127.0Y-103.5
X127.0Y-109.0
X127.0Y-120.25
X127.25Y-114.25
X128.8Y-131.9
X131.9Y-124.5
X132.0Y-103.5
X132.0Y-109.0
X132.0Y-120.25
X132.25Y-114.25
X133.8Y-131.9
X136.58Y-128.2
X139.09Y-116.75
X139.09Y-120.0
X139.09Y-123.25
X139.09Y-126.5
X139.09Y-129.75
X139.09Y-133.0
X139.17Y-113.25
X149.25Y-116.75
X149.25Y-120.0
X149.25Y-123.25
X149.25Y-126.5
X149.25Y-129.75
X149.25Y-133.0
X149.33Y-113.25
X152.2Y-110.45
X152.2Y-112.99
X152.2Y-115.53
X152.2Y-118.07
X153.75Y-124.0
X153.75Y-128.75
X158.75Y-124.0
X158.75Y-128.75
X159.82Y-110.45
X159.82Y-112.99
X159.82Y-115.53
X159.82Y-118.07
T4
X102.94Y-122.5
X103.0Y-126.0
X110.56Y-122.5
X110.62Y-126.0
T5
X125.88Y-138.25
X128.42Y-138.25
X130.96Y-138.25
X133.5Y-138.25
T6
X104.25Y-102.4
X104.25Y-105.6
X109.25Y-102.4
X109.25Y-105.6
X114.25Y-102.4
X114.25Y-105.6
X147.75Y-102.65
X147.75Y-105.85
X152.75Y-102.65
X152.75Y-105.85
X157.75Y-102.65
X157.75Y-105.85
M30
