%TF.GenerationSoftware,KiCad,Pcbnew,7.0.11+dfsg-1build4*%
%TF.CreationDate,2026-06-25T11:06:13-04:00*%
%TF.ProjectId,ejfuzzface,656a6675-7a7a-4666-9163-652e6b696361,rev?*%
%TF.SameCoordinates,Original*%
%TF.FileFunction,Copper,L2,Bot*%
%TF.FilePolarity,Positive*%
%FSLAX46Y46*%
G04 Gerber Fmt 4.6, Leading zero omitted, Abs format (unit mm)*
G04 Created by KiCad (PCBNEW 7.0.11+dfsg-1build4) date 2026-06-25 11:06:13*
%MOMM*%
%LPD*%
G01*
G04 APERTURE LIST*
%TA.AperFunction,ComponentPad*%
%ADD10C,1.600000*%
%TD*%
%TA.AperFunction,ComponentPad*%
%ADD11O,1.600000X1.600000*%
%TD*%
%TA.AperFunction,ComponentPad*%
%ADD12R,1.600000X1.600000*%
%TD*%
%TA.AperFunction,ComponentPad*%
%ADD13R,1.050000X1.500000*%
%TD*%
%TA.AperFunction,ComponentPad*%
%ADD14O,1.050000X1.500000*%
%TD*%
%TA.AperFunction,ComponentPad*%
%ADD15R,1.700000X1.700000*%
%TD*%
%TA.AperFunction,ComponentPad*%
%ADD16O,1.700000X1.700000*%
%TD*%
%TA.AperFunction,ComponentPad*%
%ADD17R,1.560000X1.560000*%
%TD*%
%TA.AperFunction,ComponentPad*%
%ADD18C,1.560000*%
%TD*%
%TA.AperFunction,ComponentPad*%
%ADD19C,2.340000*%
%TD*%
%TA.AperFunction,ViaPad*%
%ADD20C,0.600000*%
%TD*%
%TA.AperFunction,Conductor*%
%ADD21C,0.200000*%
%TD*%
G04 APERTURE END LIST*
D10*
%TO.P,R3,1*%
%TO.N,Net-(R3-Pad1)*%
X139710000Y-110220000D03*
D11*
%TO.P,R3,2*%
%TO.N,Net-(C3-Pad1)*%
X149870000Y-110220000D03*
%TD*%
D10*
%TO.P,C1,1*%
%TO.N,in*%
X105610000Y-109940000D03*
%TO.P,C1,2*%
%TO.N,Net-(Q1-B)*%
X110610000Y-109940000D03*
%TD*%
D12*
%TO.P,C3,1*%
%TO.N,Net-(C3-Pad1)*%
X146080000Y-116950000D03*
D10*
%TO.P,C3,2*%
%TO.N,GND*%
X148580000Y-116950000D03*
%TD*%
%TO.P,R6,1*%
%TO.N,Net-(Q1-B)*%
X120350000Y-122260000D03*
D11*
%TO.P,R6,2*%
%TO.N,Net-(Q2-E)*%
X130510000Y-122260000D03*
%TD*%
D10*
%TO.P,C2,1*%
%TO.N,Net-(Q1-C)*%
X124410000Y-116820000D03*
%TO.P,C2,2*%
%TO.N,Net-(Q2-C)*%
X126910000Y-116820000D03*
%TD*%
%TO.P,R1,1*%
%TO.N,+9V*%
X102460000Y-117850000D03*
D11*
%TO.P,R1,2*%
%TO.N,Net-(R1-Pad2)*%
X112620000Y-117850000D03*
%TD*%
D10*
%TO.P,R7,1*%
%TO.N,in*%
X102370000Y-122130000D03*
D11*
%TO.P,R7,2*%
%TO.N,GND*%
X112530000Y-122130000D03*
%TD*%
D13*
%TO.P,Q1,1,E*%
%TO.N,GND*%
X117780000Y-116720000D03*
D14*
%TO.P,Q1,2,B*%
%TO.N,Net-(Q1-B)*%
X119050000Y-116720000D03*
%TO.P,Q1,3,C*%
%TO.N,Net-(Q1-C)*%
X120320000Y-116720000D03*
%TD*%
D12*
%TO.P,C5,1*%
%TO.N,+9V*%
X146310000Y-124770000D03*
D10*
%TO.P,C5,2*%
%TO.N,GND*%
X148810000Y-124770000D03*
%TD*%
%TO.P,R5,1*%
%TO.N,Net-(C4-Pad1)*%
X120120000Y-110870000D03*
D11*
%TO.P,R5,2*%
%TO.N,Net-(R5-Pad2)*%
X130280000Y-110870000D03*
%TD*%
D10*
%TO.P,R4,1*%
%TO.N,+9V*%
X139760000Y-106740000D03*
D11*
%TO.P,R4,2*%
%TO.N,Net-(C4-Pad1)*%
X149920000Y-106740000D03*
%TD*%
D15*
%TO.P,J1,1,Pin_1*%
%TO.N,+9V*%
X103210000Y-128050000D03*
D16*
%TO.P,J1,2,Pin_2*%
%TO.N,out*%
X105750000Y-128050000D03*
%TO.P,J1,3,Pin_3*%
%TO.N,in*%
X108290000Y-128050000D03*
%TO.P,J1,4,Pin_4*%
%TO.N,GND*%
X110830000Y-128050000D03*
%TD*%
D17*
%TO.P,RV1,1,1*%
%TO.N,Net-(R5-Pad2)*%
X142280000Y-123370000D03*
D18*
%TO.P,RV1,2,2*%
%TO.N,Net-(Q2-C)*%
X139780000Y-118370000D03*
%TO.P,RV1,3,3*%
X137280000Y-123370000D03*
%TD*%
D19*
%TO.P,RV2,1,1*%
%TO.N,GND*%
X146330000Y-102570000D03*
%TO.P,RV2,2,2*%
%TO.N,Net-(R3-Pad1)*%
X141330000Y-102570000D03*
%TO.P,RV2,3,3*%
%TO.N,Net-(Q2-E)*%
X136330000Y-102570000D03*
%TD*%
%TO.P,RV3,1,1*%
%TO.N,GND*%
X115520000Y-102420000D03*
%TO.P,RV3,2,2*%
%TO.N,out*%
X110520000Y-102420000D03*
%TO.P,RV3,3,3*%
%TO.N,Net-(C4-Pad2)*%
X105520000Y-102420000D03*
%TD*%
D10*
%TO.P,R2,1*%
%TO.N,Net-(R1-Pad2)*%
X102410000Y-113770000D03*
D11*
%TO.P,R2,2*%
%TO.N,Net-(Q1-C)*%
X112570000Y-113770000D03*
%TD*%
D10*
%TO.P,C4,1*%
%TO.N,Net-(C4-Pad1)*%
X105660000Y-106550000D03*
%TO.P,C4,2*%
%TO.N,Net-(C4-Pad2)*%
X110660000Y-106550000D03*
%TD*%
D13*
%TO.P,Q2,1,E*%
%TO.N,Net-(Q2-E)*%
X131380000Y-116750000D03*
D14*
%TO.P,Q2,2,B*%
%TO.N,Net-(Q1-C)*%
X132650000Y-116750000D03*
%TO.P,Q2,3,C*%
%TO.N,Net-(Q2-C)*%
X133920000Y-116750000D03*
%TD*%
D20*
%TO.N,Net-(R5-Pad2)*%
X139050000Y-112323500D03*
%TD*%
D21*
%TO.N,in*%
X105235300Y-129201900D02*
X104434400Y-128401000D01*
X104434400Y-124194400D02*
X102370000Y-122130000D01*
X104434400Y-128401000D02*
X104434400Y-124194400D01*
X107236200Y-128240000D02*
X106274300Y-129201900D01*
X105610000Y-118890000D02*
X102370000Y-122130000D01*
X108290000Y-128050000D02*
X108100000Y-128240000D01*
X106274300Y-129201900D02*
X105235300Y-129201900D01*
X108100000Y-128240000D02*
X107236200Y-128240000D01*
X105610000Y-109940000D02*
X105610000Y-118890000D01*
%TO.N,Net-(Q1-B)*%
X120350000Y-122260000D02*
X119050000Y-120960000D01*
X119050000Y-120960000D02*
X119050000Y-117815900D01*
X116671300Y-117322100D02*
X116671300Y-116001300D01*
X116671300Y-116001300D02*
X110610000Y-109940000D01*
X119050000Y-117815900D02*
X117165100Y-117815900D01*
X117165100Y-117815900D02*
X116671300Y-117322100D01*
X119050000Y-117815900D02*
X119050000Y-116720000D01*
%TO.N,Net-(Q2-C)*%
X137280000Y-120870000D02*
X137280000Y-123370000D01*
X139780000Y-118370000D02*
X137280000Y-120870000D01*
%TO.N,Net-(C3-Pad1)*%
X149870000Y-112058100D02*
X149870000Y-110220000D01*
X146080000Y-115848100D02*
X149870000Y-112058100D01*
X146080000Y-116950000D02*
X146080000Y-115848100D01*
%TO.N,+9V*%
X139760000Y-106740000D02*
X143360400Y-110340400D01*
X103210000Y-128050000D02*
X103210000Y-126898100D01*
X101214500Y-119095500D02*
X102460000Y-117850000D01*
X143360400Y-110340400D02*
X143360400Y-120718500D01*
X103210000Y-126898100D02*
X101214500Y-124902600D01*
X101214500Y-124902600D02*
X101214500Y-119095500D01*
X143360400Y-120718500D02*
X146310000Y-123668100D01*
X146310000Y-124770000D02*
X146310000Y-123668100D01*
%TO.N,out*%
X106901900Y-106038100D02*
X110520000Y-102420000D01*
X105750000Y-126898100D02*
X106901900Y-125746200D01*
X105750000Y-128050000D02*
X105750000Y-126898100D01*
X106901900Y-125746200D02*
X106901900Y-106038100D01*
%TO.N,Net-(Q2-E)*%
X131380000Y-111953700D02*
X136330000Y-107003700D01*
X136330000Y-107003700D02*
X136330000Y-102570000D01*
X130510000Y-121158100D02*
X131380000Y-120288100D01*
X130510000Y-122260000D02*
X130510000Y-121158100D01*
X131380000Y-116750000D02*
X131380000Y-111953700D01*
X131380000Y-120288100D02*
X131380000Y-116750000D01*
%TO.N,Net-(R3-Pad1)*%
X138622800Y-109132800D02*
X138622800Y-105277200D01*
X139710000Y-110220000D02*
X138622800Y-109132800D01*
X138622800Y-105277200D02*
X141330000Y-102570000D01*
%TO.N,Net-(R5-Pad2)*%
X142280000Y-115553500D02*
X139050000Y-112323500D01*
X142280000Y-123370000D02*
X142280000Y-115553500D01*
%TD*%
%TA.AperFunction,Conductor*%
%TO.N,GND*%
G36*
X151442539Y-100520185D02*
G01*
X151488294Y-100572989D01*
X151499500Y-100624500D01*
X151499500Y-129375500D01*
X151479815Y-129442539D01*
X151427011Y-129488294D01*
X151375500Y-129499500D01*
X111475237Y-129499500D01*
X111408198Y-129479815D01*
X111362443Y-129427011D01*
X111352499Y-129357853D01*
X111381524Y-129294297D01*
X111422832Y-129263118D01*
X111507578Y-129223600D01*
X111701082Y-129088105D01*
X111868105Y-128921082D01*
X112003600Y-128727578D01*
X112103429Y-128513492D01*
X112103432Y-128513486D01*
X112160636Y-128300000D01*
X111263686Y-128300000D01*
X111289493Y-128259844D01*
X111330000Y-128121889D01*
X111330000Y-127978111D01*
X111289493Y-127840156D01*
X111263686Y-127800000D01*
X112160636Y-127800000D01*
X112160635Y-127799999D01*
X112103432Y-127586513D01*
X112103429Y-127586507D01*
X112003600Y-127372422D01*
X112003599Y-127372420D01*
X111868113Y-127178926D01*
X111868108Y-127178920D01*
X111701082Y-127011894D01*
X111507578Y-126876399D01*
X111293492Y-126776570D01*
X111293486Y-126776567D01*
X111080000Y-126719364D01*
X111080000Y-127614498D01*
X110972315Y-127565320D01*
X110865763Y-127550000D01*
X110794237Y-127550000D01*
X110687685Y-127565320D01*
X110580000Y-127614498D01*
X110580000Y-126719364D01*
X110579999Y-126719364D01*
X110366513Y-126776567D01*
X110366507Y-126776570D01*
X110152422Y-126876399D01*
X110152420Y-126876400D01*
X109958926Y-127011886D01*
X109958920Y-127011891D01*
X109791891Y-127178920D01*
X109791890Y-127178922D01*
X109661880Y-127364595D01*
X109607303Y-127408219D01*
X109537804Y-127415412D01*
X109475450Y-127383890D01*
X109458730Y-127364594D01*
X109328494Y-127178597D01*
X109161402Y-127011506D01*
X109161395Y-127011501D01*
X108967834Y-126875967D01*
X108967830Y-126875965D01*
X108925094Y-126856037D01*
X108753663Y-126776097D01*
X108753659Y-126776096D01*
X108753655Y-126776094D01*
X108525413Y-126714938D01*
X108525403Y-126714936D01*
X108290001Y-126694341D01*
X108289999Y-126694341D01*
X108054596Y-126714936D01*
X108054586Y-126714938D01*
X107826344Y-126776094D01*
X107826335Y-126776098D01*
X107612171Y-126875964D01*
X107612169Y-126875965D01*
X107418597Y-127011505D01*
X107251505Y-127178597D01*
X107121575Y-127364158D01*
X107066998Y-127407783D01*
X106997500Y-127414977D01*
X106935145Y-127383454D01*
X106918425Y-127364158D01*
X106788494Y-127178597D01*
X106641296Y-127031399D01*
X106607811Y-126970076D01*
X106612795Y-126900384D01*
X106641294Y-126856039D01*
X107292943Y-126204390D01*
X107305123Y-126193709D01*
X107330182Y-126174482D01*
X107426436Y-126049041D01*
X107486944Y-125902962D01*
X107502400Y-125785561D01*
X107507582Y-125746200D01*
X107503461Y-125714897D01*
X107502400Y-125698712D01*
X107502400Y-121879999D01*
X111251127Y-121879999D01*
X111251128Y-121880000D01*
X112214314Y-121880000D01*
X112202359Y-121891955D01*
X112144835Y-122004852D01*
X112125014Y-122130000D01*
X112144835Y-122255148D01*
X112202359Y-122368045D01*
X112214314Y-122380000D01*
X111251128Y-122380000D01*
X111303730Y-122576317D01*
X111303734Y-122576326D01*
X111399865Y-122782482D01*
X111530342Y-122968820D01*
X111691179Y-123129657D01*
X111877517Y-123260134D01*
X112083673Y-123356265D01*
X112083682Y-123356269D01*
X112279999Y-123408872D01*
X112280000Y-123408871D01*
X112280000Y-122445686D01*
X112291955Y-122457641D01*
X112404852Y-122515165D01*
X112498519Y-122530000D01*
X112561481Y-122530000D01*
X112655148Y-122515165D01*
X112768045Y-122457641D01*
X112780000Y-122445686D01*
X112780000Y-123408872D01*
X112976317Y-123356269D01*
X112976326Y-123356265D01*
X113182482Y-123260134D01*
X113368820Y-123129657D01*
X113529657Y-122968820D01*
X113660134Y-122782482D01*
X113756265Y-122576326D01*
X113756269Y-122576317D01*
X113808872Y-122380000D01*
X112845686Y-122380000D01*
X112857641Y-122368045D01*
X112915165Y-122255148D01*
X112934986Y-122130000D01*
X112915165Y-122004852D01*
X112857641Y-121891955D01*
X112845686Y-121880000D01*
X113808872Y-121880000D01*
X113808872Y-121879999D01*
X113756269Y-121683682D01*
X113756265Y-121683673D01*
X113660134Y-121477517D01*
X113529657Y-121291179D01*
X113368820Y-121130342D01*
X113182482Y-120999865D01*
X112976328Y-120903734D01*
X112780000Y-120851127D01*
X112780000Y-121814314D01*
X112768045Y-121802359D01*
X112655148Y-121744835D01*
X112561481Y-121730000D01*
X112498519Y-121730000D01*
X112404852Y-121744835D01*
X112291955Y-121802359D01*
X112280000Y-121814314D01*
X112280000Y-120851127D01*
X112083671Y-120903734D01*
X111877517Y-120999865D01*
X111691179Y-121130342D01*
X111530342Y-121291179D01*
X111399865Y-121477517D01*
X111303734Y-121683673D01*
X111303730Y-121683682D01*
X111251127Y-121879999D01*
X107502400Y-121879999D01*
X107502400Y-117850001D01*
X111314532Y-117850001D01*
X111334364Y-118076686D01*
X111334366Y-118076697D01*
X111393258Y-118296488D01*
X111393261Y-118296497D01*
X111489431Y-118502732D01*
X111489432Y-118502734D01*
X111619954Y-118689141D01*
X111780858Y-118850045D01*
X111780861Y-118850047D01*
X111967266Y-118980568D01*
X112173504Y-119076739D01*
X112393308Y-119135635D01*
X112555230Y-119149801D01*
X112619998Y-119155468D01*
X112620000Y-119155468D01*
X112620002Y-119155468D01*
X112676673Y-119150509D01*
X112846692Y-119135635D01*
X113066496Y-119076739D01*
X113272734Y-118980568D01*
X113459139Y-118850047D01*
X113620047Y-118689139D01*
X113750568Y-118502734D01*
X113846739Y-118296496D01*
X113905635Y-118076692D01*
X113925468Y-117850000D01*
X113922847Y-117820047D01*
X113916753Y-117750383D01*
X113905635Y-117623308D01*
X113846739Y-117403504D01*
X113750568Y-117197266D01*
X113630210Y-117025376D01*
X113620045Y-117010858D01*
X113459141Y-116849954D01*
X113272734Y-116719432D01*
X113272732Y-116719431D01*
X113066497Y-116623261D01*
X113066488Y-116623258D01*
X112846697Y-116564366D01*
X112846693Y-116564365D01*
X112846692Y-116564365D01*
X112846691Y-116564364D01*
X112846686Y-116564364D01*
X112620002Y-116544532D01*
X112619998Y-116544532D01*
X112393313Y-116564364D01*
X112393302Y-116564366D01*
X112173511Y-116623258D01*
X112173502Y-116623261D01*
X111967267Y-116719431D01*
X111967265Y-116719432D01*
X111780858Y-116849954D01*
X111619954Y-117010858D01*
X111489432Y-117197265D01*
X111489431Y-117197267D01*
X111393261Y-117403502D01*
X111393258Y-117403511D01*
X111334366Y-117623302D01*
X111334364Y-117623313D01*
X111314532Y-117849998D01*
X111314532Y-117850001D01*
X107502400Y-117850001D01*
X107502400Y-109940001D01*
X109304532Y-109940001D01*
X109324364Y-110166686D01*
X109324366Y-110166697D01*
X109383258Y-110386488D01*
X109383261Y-110386497D01*
X109479431Y-110592732D01*
X109479432Y-110592734D01*
X109609954Y-110779141D01*
X109770858Y-110940045D01*
X109770861Y-110940047D01*
X109957266Y-111070568D01*
X110163504Y-111166739D01*
X110383308Y-111225635D01*
X110545230Y-111239801D01*
X110609998Y-111245468D01*
X110610000Y-111245468D01*
X110610002Y-111245468D01*
X110666673Y-111240509D01*
X110836692Y-111225635D01*
X110932932Y-111199847D01*
X111002781Y-111201510D01*
X111052706Y-111231941D01*
X112162314Y-112341549D01*
X112195799Y-112402872D01*
X112190815Y-112472564D01*
X112148943Y-112528497D01*
X112127039Y-112541612D01*
X111917264Y-112639433D01*
X111730858Y-112769954D01*
X111569954Y-112930858D01*
X111439432Y-113117265D01*
X111439431Y-113117267D01*
X111343261Y-113323502D01*
X111343258Y-113323511D01*
X111284366Y-113543302D01*
X111284364Y-113543313D01*
X111264532Y-113769998D01*
X111264532Y-113770001D01*
X111284364Y-113996686D01*
X111284366Y-113996697D01*
X111343258Y-114216488D01*
X111343261Y-114216497D01*
X111439431Y-114422732D01*
X111439432Y-114422734D01*
X111569954Y-114609141D01*
X111730858Y-114770045D01*
X111730861Y-114770047D01*
X111917266Y-114900568D01*
X112123504Y-114996739D01*
X112343308Y-115055635D01*
X112505230Y-115069801D01*
X112569998Y-115075468D01*
X112570000Y-115075468D01*
X112570002Y-115075468D01*
X112626673Y-115070509D01*
X112796692Y-115055635D01*
X113016496Y-114996739D01*
X113222734Y-114900568D01*
X113409139Y-114770047D01*
X113570047Y-114609139D01*
X113700568Y-114422734D01*
X113796739Y-114216496D01*
X113796739Y-114216493D01*
X113798387Y-114212961D01*
X113844559Y-114160522D01*
X113911753Y-114141370D01*
X113978634Y-114161586D01*
X113998450Y-114177685D01*
X116034481Y-116213716D01*
X116067966Y-116275039D01*
X116070800Y-116301397D01*
X116070800Y-117274612D01*
X116069738Y-117290797D01*
X116065618Y-117322100D01*
X116073889Y-117384926D01*
X116074034Y-117386023D01*
X116086256Y-117478861D01*
X116086256Y-117478862D01*
X116146089Y-117623313D01*
X116146764Y-117624941D01*
X116243018Y-117750382D01*
X116243019Y-117750383D01*
X116268069Y-117769604D01*
X116280264Y-117780299D01*
X116706899Y-118206934D01*
X116717593Y-118219128D01*
X116736815Y-118244179D01*
X116736816Y-118244180D01*
X116736818Y-118244182D01*
X116862259Y-118340436D01*
X117008338Y-118400944D01*
X117086719Y-118411263D01*
X117165099Y-118421582D01*
X117165100Y-118421582D01*
X117196402Y-118417460D01*
X117212587Y-118416400D01*
X118325500Y-118416400D01*
X118392539Y-118436085D01*
X118438294Y-118488889D01*
X118449500Y-118540400D01*
X118449500Y-120912512D01*
X118448439Y-120928697D01*
X118444318Y-120959998D01*
X118444318Y-120960000D01*
X118449500Y-120999360D01*
X118449500Y-120999361D01*
X118464955Y-121116760D01*
X118464956Y-121116762D01*
X118525464Y-121262841D01*
X118621718Y-121388282D01*
X118621719Y-121388283D01*
X118646769Y-121407504D01*
X118658964Y-121418199D01*
X119058058Y-121817293D01*
X119091543Y-121878616D01*
X119090152Y-121937067D01*
X119064366Y-122033302D01*
X119064364Y-122033313D01*
X119044532Y-122259998D01*
X119044532Y-122260001D01*
X119064364Y-122486686D01*
X119064366Y-122486697D01*
X119123258Y-122706488D01*
X119123261Y-122706497D01*
X119219431Y-122912732D01*
X119219432Y-122912734D01*
X119349954Y-123099141D01*
X119510858Y-123260045D01*
X119526955Y-123271316D01*
X119697266Y-123390568D01*
X119903504Y-123486739D01*
X120123308Y-123545635D01*
X120285230Y-123559801D01*
X120349998Y-123565468D01*
X120350000Y-123565468D01*
X120350002Y-123565468D01*
X120406673Y-123560509D01*
X120576692Y-123545635D01*
X120796496Y-123486739D01*
X121002734Y-123390568D01*
X121189139Y-123260047D01*
X121350047Y-123099139D01*
X121480568Y-122912734D01*
X121576739Y-122706496D01*
X121635635Y-122486692D01*
X121655468Y-122260000D01*
X121635635Y-122033308D01*
X121576739Y-121813504D01*
X121480568Y-121607266D01*
X121350047Y-121420861D01*
X121350045Y-121420858D01*
X121189141Y-121259954D01*
X121002734Y-121129432D01*
X121002732Y-121129431D01*
X120796497Y-121033261D01*
X120796488Y-121033258D01*
X120576697Y-120974366D01*
X120576693Y-120974365D01*
X120576692Y-120974365D01*
X120576691Y-120974364D01*
X120576686Y-120974364D01*
X120350002Y-120954532D01*
X120349998Y-120954532D01*
X120123313Y-120974364D01*
X120123302Y-120974366D01*
X120027067Y-121000152D01*
X119957217Y-120998489D01*
X119907293Y-120968058D01*
X119686819Y-120747584D01*
X119653334Y-120686261D01*
X119650500Y-120659903D01*
X119650500Y-117956828D01*
X119670185Y-117889789D01*
X119722989Y-117844034D01*
X119792147Y-117834090D01*
X119832949Y-117847468D01*
X119925659Y-117897023D01*
X120118967Y-117955662D01*
X120320000Y-117975462D01*
X120521033Y-117955662D01*
X120714341Y-117897023D01*
X120892494Y-117801798D01*
X121048647Y-117673647D01*
X121176798Y-117517494D01*
X121247658Y-117384925D01*
X121272021Y-117339345D01*
X121272021Y-117339344D01*
X121272023Y-117339341D01*
X121330662Y-117146033D01*
X121345500Y-116995380D01*
X121345500Y-116820001D01*
X123104532Y-116820001D01*
X123124364Y-117046686D01*
X123124366Y-117046697D01*
X123183258Y-117266488D01*
X123183261Y-117266497D01*
X123279431Y-117472732D01*
X123279432Y-117472734D01*
X123409954Y-117659141D01*
X123570858Y-117820045D01*
X123570861Y-117820047D01*
X123757266Y-117950568D01*
X123963504Y-118046739D01*
X124183308Y-118105635D01*
X124345230Y-118119801D01*
X124409998Y-118125468D01*
X124410000Y-118125468D01*
X124410002Y-118125468D01*
X124466673Y-118120509D01*
X124636692Y-118105635D01*
X124856496Y-118046739D01*
X125062734Y-117950568D01*
X125249139Y-117820047D01*
X125410047Y-117659139D01*
X125540568Y-117472734D01*
X125547618Y-117457614D01*
X125593789Y-117405176D01*
X125660982Y-117386023D01*
X125727864Y-117406238D01*
X125772381Y-117457614D01*
X125779432Y-117472733D01*
X125779432Y-117472734D01*
X125909954Y-117659141D01*
X126070858Y-117820045D01*
X126070861Y-117820047D01*
X126257266Y-117950568D01*
X126463504Y-118046739D01*
X126683308Y-118105635D01*
X126845230Y-118119801D01*
X126909998Y-118125468D01*
X126910000Y-118125468D01*
X126910002Y-118125468D01*
X126966673Y-118120509D01*
X127136692Y-118105635D01*
X127356496Y-118046739D01*
X127562734Y-117950568D01*
X127749139Y-117820047D01*
X127910047Y-117659139D01*
X128040568Y-117472734D01*
X128136739Y-117266496D01*
X128195635Y-117046692D01*
X128215468Y-116820000D01*
X128214884Y-116813330D01*
X128203972Y-116688605D01*
X128195635Y-116593308D01*
X128136739Y-116373504D01*
X128040568Y-116167266D01*
X127910047Y-115980861D01*
X127910045Y-115980858D01*
X127749141Y-115819954D01*
X127562734Y-115689432D01*
X127562732Y-115689431D01*
X127356497Y-115593261D01*
X127356488Y-115593258D01*
X127136697Y-115534366D01*
X127136693Y-115534365D01*
X127136692Y-115534365D01*
X127136691Y-115534364D01*
X127136686Y-115534364D01*
X126910002Y-115514532D01*
X126909998Y-115514532D01*
X126683313Y-115534364D01*
X126683302Y-115534366D01*
X126463511Y-115593258D01*
X126463502Y-115593261D01*
X126257267Y-115689431D01*
X126257265Y-115689432D01*
X126070858Y-115819954D01*
X125909954Y-115980858D01*
X125805064Y-116130659D01*
X125779432Y-116167266D01*
X125772380Y-116182387D01*
X125726209Y-116234825D01*
X125659015Y-116253976D01*
X125592134Y-116233760D01*
X125547619Y-116182387D01*
X125540568Y-116167266D01*
X125410047Y-115980861D01*
X125410045Y-115980858D01*
X125249141Y-115819954D01*
X125062734Y-115689432D01*
X125062732Y-115689431D01*
X124856497Y-115593261D01*
X124856488Y-115593258D01*
X124636697Y-115534366D01*
X124636693Y-115534365D01*
X124636692Y-115534365D01*
X124636691Y-115534364D01*
X124636686Y-115534364D01*
X124410002Y-115514532D01*
X124409998Y-115514532D01*
X124183313Y-115534364D01*
X124183302Y-115534366D01*
X123963511Y-115593258D01*
X123963502Y-115593261D01*
X123757267Y-115689431D01*
X123757265Y-115689432D01*
X123570858Y-115819954D01*
X123409954Y-115980858D01*
X123279432Y-116167265D01*
X123279431Y-116167267D01*
X123183261Y-116373502D01*
X123183258Y-116373511D01*
X123124366Y-116593302D01*
X123124364Y-116593313D01*
X123104532Y-116819998D01*
X123104532Y-116820001D01*
X121345500Y-116820001D01*
X121345500Y-116444620D01*
X121330662Y-116293967D01*
X121272023Y-116100659D01*
X121272021Y-116100656D01*
X121272021Y-116100654D01*
X121176801Y-115922511D01*
X121176799Y-115922509D01*
X121176798Y-115922506D01*
X121092636Y-115819954D01*
X121048647Y-115766352D01*
X120897675Y-115642454D01*
X120892494Y-115638202D01*
X120892492Y-115638201D01*
X120892488Y-115638198D01*
X120714345Y-115542978D01*
X120521031Y-115484337D01*
X120320000Y-115464538D01*
X120118968Y-115484337D01*
X119925654Y-115542978D01*
X119743453Y-115640367D01*
X119675050Y-115654609D01*
X119626547Y-115640367D01*
X119444345Y-115542978D01*
X119251031Y-115484337D01*
X119050000Y-115464538D01*
X118848968Y-115484337D01*
X118711371Y-115526076D01*
X118655659Y-115542977D01*
X118655657Y-115542977D01*
X118653982Y-115543486D01*
X118584115Y-115544109D01*
X118555414Y-115529902D01*
X118554872Y-115530897D01*
X118547086Y-115526645D01*
X118412379Y-115476403D01*
X118412372Y-115476401D01*
X118352844Y-115470000D01*
X118030000Y-115470000D01*
X118030000Y-116382684D01*
X118029403Y-116394837D01*
X118025370Y-116435779D01*
X117960948Y-116385637D01*
X117842576Y-116345000D01*
X117748927Y-116345000D01*
X117656554Y-116360414D01*
X117546486Y-116419981D01*
X117530000Y-116437889D01*
X117530000Y-115470000D01*
X117207155Y-115470000D01*
X117147627Y-115476401D01*
X117147620Y-115476403D01*
X117111587Y-115489842D01*
X117041895Y-115494825D01*
X116980575Y-115461340D01*
X112389236Y-110870001D01*
X118814532Y-110870001D01*
X118834364Y-111096686D01*
X118834366Y-111096697D01*
X118893258Y-111316488D01*
X118893261Y-111316497D01*
X118989431Y-111522732D01*
X118989432Y-111522734D01*
X119119954Y-111709141D01*
X119280858Y-111870045D01*
X119280861Y-111870047D01*
X119467266Y-112000568D01*
X119673504Y-112096739D01*
X119673509Y-112096740D01*
X119673511Y-112096741D01*
X119726415Y-112110916D01*
X119893308Y-112155635D01*
X120055230Y-112169801D01*
X120119998Y-112175468D01*
X120120000Y-112175468D01*
X120120002Y-112175468D01*
X120176673Y-112170509D01*
X120346692Y-112155635D01*
X120566496Y-112096739D01*
X120772734Y-112000568D01*
X120959139Y-111870047D01*
X121120047Y-111709139D01*
X121250568Y-111522734D01*
X121346739Y-111316496D01*
X121405635Y-111096692D01*
X121425468Y-110870001D01*
X128974532Y-110870001D01*
X128994364Y-111096686D01*
X128994366Y-111096697D01*
X129053258Y-111316488D01*
X129053261Y-111316497D01*
X129149431Y-111522732D01*
X129149432Y-111522734D01*
X129279954Y-111709141D01*
X129440858Y-111870045D01*
X129440861Y-111870047D01*
X129627266Y-112000568D01*
X129833504Y-112096739D01*
X129833509Y-112096740D01*
X129833511Y-112096741D01*
X129886415Y-112110916D01*
X130053308Y-112155635D01*
X130215230Y-112169801D01*
X130279998Y-112175468D01*
X130280000Y-112175468D01*
X130280002Y-112175468D01*
X130336673Y-112170509D01*
X130506692Y-112155635D01*
X130623408Y-112124361D01*
X130693256Y-112126024D01*
X130751119Y-112165186D01*
X130778623Y-112229415D01*
X130779500Y-112244136D01*
X130779500Y-115407884D01*
X130759815Y-115474923D01*
X130707011Y-115520678D01*
X130698834Y-115524066D01*
X130612669Y-115556203D01*
X130612664Y-115556206D01*
X130497455Y-115642452D01*
X130497452Y-115642455D01*
X130411206Y-115757664D01*
X130411202Y-115757671D01*
X130360908Y-115892517D01*
X130354501Y-115952116D01*
X130354500Y-115952135D01*
X130354500Y-117547870D01*
X130354501Y-117547876D01*
X130360908Y-117607483D01*
X130411202Y-117742328D01*
X130411206Y-117742335D01*
X130497452Y-117857544D01*
X130497455Y-117857547D01*
X130612664Y-117943793D01*
X130612671Y-117943797D01*
X130698833Y-117975933D01*
X130754766Y-118017804D01*
X130779184Y-118083268D01*
X130779500Y-118092115D01*
X130779500Y-119988002D01*
X130759815Y-120055041D01*
X130743181Y-120075683D01*
X130118965Y-120699898D01*
X130106774Y-120710590D01*
X130081718Y-120729817D01*
X130057549Y-120761313D01*
X130057550Y-120761314D01*
X129985464Y-120855258D01*
X129985461Y-120855263D01*
X129924956Y-121001336D01*
X129920254Y-121037049D01*
X129891986Y-121100945D01*
X129861670Y-121126284D01*
X129861701Y-121126327D01*
X129861198Y-121126678D01*
X129859332Y-121128239D01*
X129857267Y-121129431D01*
X129670858Y-121259954D01*
X129509954Y-121420858D01*
X129379432Y-121607265D01*
X129379431Y-121607267D01*
X129283261Y-121813502D01*
X129283258Y-121813511D01*
X129224366Y-122033302D01*
X129224364Y-122033313D01*
X129204532Y-122259998D01*
X129204532Y-122260001D01*
X129224364Y-122486686D01*
X129224366Y-122486697D01*
X129283258Y-122706488D01*
X129283261Y-122706497D01*
X129379431Y-122912732D01*
X129379432Y-122912734D01*
X129509954Y-123099141D01*
X129670858Y-123260045D01*
X129686955Y-123271316D01*
X129857266Y-123390568D01*
X130063504Y-123486739D01*
X130283308Y-123545635D01*
X130445230Y-123559801D01*
X130509998Y-123565468D01*
X130510000Y-123565468D01*
X130510002Y-123565468D01*
X130566673Y-123560509D01*
X130736692Y-123545635D01*
X130956496Y-123486739D01*
X131162734Y-123390568D01*
X131192107Y-123370001D01*
X135994609Y-123370001D01*
X136014136Y-123593200D01*
X136014137Y-123593208D01*
X136072126Y-123809625D01*
X136072127Y-123809627D01*
X136072128Y-123809630D01*
X136126126Y-123925429D01*
X136166819Y-124012696D01*
X136166821Y-124012700D01*
X136295329Y-124196228D01*
X136295334Y-124196234D01*
X136453765Y-124354665D01*
X136453771Y-124354670D01*
X136637299Y-124483178D01*
X136637301Y-124483179D01*
X136637304Y-124483181D01*
X136840370Y-124577872D01*
X137056794Y-124635863D01*
X137216226Y-124649811D01*
X137279998Y-124655391D01*
X137280000Y-124655391D01*
X137280002Y-124655391D01*
X137335927Y-124650498D01*
X137503206Y-124635863D01*
X137719630Y-124577872D01*
X137922696Y-124483181D01*
X138106233Y-124354667D01*
X138264667Y-124196233D01*
X138393181Y-124012696D01*
X138487872Y-123809630D01*
X138545863Y-123593206D01*
X138565391Y-123370000D01*
X138565346Y-123369490D01*
X138555771Y-123260045D01*
X138545863Y-123146794D01*
X138487872Y-122930370D01*
X138393181Y-122727305D01*
X138264667Y-122543767D01*
X138106233Y-122385333D01*
X137933376Y-122264297D01*
X137889752Y-122209720D01*
X137880500Y-122162722D01*
X137880500Y-121170096D01*
X137900185Y-121103057D01*
X137916814Y-121082420D01*
X139353625Y-119645608D01*
X139414946Y-119612125D01*
X139473399Y-119613517D01*
X139556786Y-119635861D01*
X139556787Y-119635861D01*
X139556794Y-119635863D01*
X139746758Y-119652482D01*
X139779998Y-119655391D01*
X139780000Y-119655391D01*
X139780002Y-119655391D01*
X139835801Y-119650509D01*
X140003206Y-119635863D01*
X140219630Y-119577872D01*
X140422696Y-119483181D01*
X140606233Y-119354667D01*
X140764667Y-119196233D01*
X140893181Y-119012696D01*
X140987872Y-118809630D01*
X141045863Y-118593206D01*
X141065391Y-118370000D01*
X141062804Y-118340436D01*
X141052191Y-118219128D01*
X141045863Y-118146794D01*
X140987872Y-117930370D01*
X140893181Y-117727305D01*
X140767544Y-117547876D01*
X140764668Y-117543768D01*
X140693632Y-117472732D01*
X140606233Y-117385333D01*
X140606229Y-117385330D01*
X140606228Y-117385329D01*
X140422700Y-117256821D01*
X140422696Y-117256819D01*
X140333872Y-117215400D01*
X140219630Y-117162128D01*
X140219627Y-117162127D01*
X140219625Y-117162126D01*
X140003208Y-117104137D01*
X140003200Y-117104136D01*
X139780002Y-117084609D01*
X139779998Y-117084609D01*
X139556799Y-117104136D01*
X139556791Y-117104137D01*
X139340374Y-117162126D01*
X139340368Y-117162129D01*
X139137306Y-117256818D01*
X139137304Y-117256819D01*
X138953764Y-117385334D01*
X138795334Y-117543764D01*
X138666819Y-117727304D01*
X138666818Y-117727306D01*
X138572129Y-117930368D01*
X138572126Y-117930374D01*
X138514137Y-118146791D01*
X138514136Y-118146799D01*
X138494609Y-118369998D01*
X138494609Y-118370001D01*
X138514136Y-118593200D01*
X138514138Y-118593211D01*
X138536482Y-118676601D01*
X138534819Y-118746451D01*
X138504388Y-118796375D01*
X136888965Y-120411798D01*
X136876775Y-120422489D01*
X136851716Y-120441718D01*
X136782659Y-120531717D01*
X136755464Y-120567158D01*
X136755461Y-120567163D01*
X136694957Y-120713234D01*
X136694955Y-120713239D01*
X136676258Y-120855263D01*
X136674318Y-120870000D01*
X136676799Y-120888846D01*
X136678439Y-120901301D01*
X136679500Y-120917487D01*
X136679500Y-122162723D01*
X136659815Y-122229762D01*
X136626623Y-122264298D01*
X136453765Y-122385333D01*
X136295334Y-122543764D01*
X136166819Y-122727304D01*
X136166818Y-122727306D01*
X136072129Y-122930368D01*
X136072126Y-122930374D01*
X136014137Y-123146791D01*
X136014136Y-123146799D01*
X135994609Y-123369998D01*
X135994609Y-123370001D01*
X131192107Y-123370001D01*
X131349139Y-123260047D01*
X131510047Y-123099139D01*
X131640568Y-122912734D01*
X131736739Y-122706496D01*
X131795635Y-122486692D01*
X131815468Y-122260000D01*
X131795635Y-122033308D01*
X131736739Y-121813504D01*
X131640568Y-121607266D01*
X131510047Y-121420861D01*
X131510045Y-121420858D01*
X131390941Y-121301754D01*
X131357456Y-121240431D01*
X131362440Y-121170739D01*
X131390939Y-121126394D01*
X131771043Y-120746290D01*
X131783223Y-120735609D01*
X131808282Y-120716382D01*
X131904536Y-120590941D01*
X131965044Y-120444862D01*
X131980500Y-120327461D01*
X131985682Y-120288100D01*
X131981561Y-120256797D01*
X131980500Y-120240612D01*
X131980500Y-118092114D01*
X132000185Y-118025075D01*
X132052989Y-117979320D01*
X132061141Y-117975942D01*
X132147331Y-117943796D01*
X132147335Y-117943792D01*
X132155118Y-117939544D01*
X132156252Y-117941621D01*
X132209715Y-117921671D01*
X132254576Y-117926694D01*
X132255656Y-117927021D01*
X132255659Y-117927023D01*
X132448967Y-117985662D01*
X132650000Y-118005462D01*
X132851033Y-117985662D01*
X133044341Y-117927023D01*
X133222494Y-117831798D01*
X133222498Y-117831794D01*
X133226546Y-117829631D01*
X133294949Y-117815389D01*
X133343454Y-117829631D01*
X133347502Y-117831794D01*
X133347506Y-117831798D01*
X133525659Y-117927023D01*
X133718967Y-117985662D01*
X133920000Y-118005462D01*
X134121033Y-117985662D01*
X134314341Y-117927023D01*
X134492494Y-117831798D01*
X134648647Y-117703647D01*
X134776798Y-117547494D01*
X134853759Y-117403511D01*
X134872021Y-117369345D01*
X134872021Y-117369344D01*
X134872023Y-117369341D01*
X134930662Y-117176033D01*
X134945500Y-117025380D01*
X134945500Y-116474620D01*
X134930662Y-116323967D01*
X134872023Y-116130659D01*
X134872021Y-116130656D01*
X134872021Y-116130654D01*
X134776801Y-115952511D01*
X134776799Y-115952509D01*
X134776798Y-115952506D01*
X134737824Y-115905016D01*
X134648647Y-115796352D01*
X134492495Y-115668203D01*
X134492488Y-115668198D01*
X134314345Y-115572978D01*
X134121031Y-115514337D01*
X133920000Y-115494538D01*
X133718968Y-115514337D01*
X133525654Y-115572978D01*
X133343453Y-115670367D01*
X133275050Y-115684609D01*
X133226547Y-115670367D01*
X133044345Y-115572978D01*
X132851031Y-115514337D01*
X132650000Y-115494538D01*
X132448968Y-115514337D01*
X132310956Y-115556203D01*
X132255659Y-115572977D01*
X132255658Y-115572977D01*
X132254575Y-115573306D01*
X132184708Y-115573929D01*
X132155618Y-115559529D01*
X132155114Y-115560454D01*
X132147330Y-115556203D01*
X132061166Y-115524066D01*
X132005233Y-115482194D01*
X131980816Y-115416730D01*
X131980500Y-115407884D01*
X131980500Y-112253796D01*
X132000185Y-112186757D01*
X132016814Y-112166120D01*
X135050133Y-109132800D01*
X138017118Y-109132800D01*
X138022300Y-109172160D01*
X138022300Y-109172161D01*
X138037755Y-109289560D01*
X138037756Y-109289562D01*
X138098264Y-109435641D01*
X138142664Y-109493504D01*
X138194519Y-109561083D01*
X138219569Y-109580304D01*
X138231764Y-109590999D01*
X138418058Y-109777293D01*
X138451543Y-109838616D01*
X138450152Y-109897067D01*
X138424366Y-109993302D01*
X138424364Y-109993313D01*
X138404532Y-110219998D01*
X138404532Y-110220001D01*
X138424364Y-110446686D01*
X138424366Y-110446697D01*
X138483258Y-110666488D01*
X138483261Y-110666497D01*
X138579431Y-110872732D01*
X138579432Y-110872734D01*
X138709954Y-111059141D01*
X138870857Y-111220044D01*
X138870860Y-111220046D01*
X138870861Y-111220047D01*
X138993544Y-111305950D01*
X139037169Y-111360525D01*
X139044363Y-111430023D01*
X139012841Y-111492378D01*
X138952611Y-111527793D01*
X138936306Y-111530744D01*
X138870748Y-111538131D01*
X138870745Y-111538131D01*
X138700476Y-111597711D01*
X138547737Y-111693684D01*
X138420184Y-111821237D01*
X138324211Y-111973976D01*
X138264631Y-112144245D01*
X138264630Y-112144250D01*
X138244435Y-112323496D01*
X138244435Y-112323503D01*
X138264630Y-112502749D01*
X138264631Y-112502754D01*
X138324211Y-112673023D01*
X138385117Y-112769953D01*
X138420184Y-112825762D01*
X138547738Y-112953316D01*
X138700478Y-113049289D01*
X138870745Y-113108868D01*
X138957669Y-113118661D01*
X139022080Y-113145726D01*
X139031465Y-113154200D01*
X141643181Y-115765916D01*
X141676666Y-115827239D01*
X141679500Y-115853597D01*
X141679500Y-121965500D01*
X141659815Y-122032539D01*
X141607011Y-122078294D01*
X141555501Y-122089500D01*
X141452130Y-122089500D01*
X141452123Y-122089501D01*
X141392516Y-122095908D01*
X141257671Y-122146202D01*
X141257664Y-122146206D01*
X141142455Y-122232452D01*
X141142452Y-122232455D01*
X141056206Y-122347664D01*
X141056202Y-122347671D01*
X141005908Y-122482517D01*
X140999501Y-122542116D01*
X140999501Y-122542123D01*
X140999500Y-122542135D01*
X140999500Y-124197870D01*
X140999501Y-124197876D01*
X141005908Y-124257483D01*
X141056202Y-124392328D01*
X141056206Y-124392335D01*
X141142452Y-124507544D01*
X141142455Y-124507547D01*
X141257664Y-124593793D01*
X141257671Y-124593797D01*
X141392517Y-124644091D01*
X141392516Y-124644091D01*
X141399444Y-124644835D01*
X141452127Y-124650500D01*
X143107872Y-124650499D01*
X143167483Y-124644091D01*
X143302331Y-124593796D01*
X143417546Y-124507546D01*
X143503796Y-124392331D01*
X143554091Y-124257483D01*
X143560500Y-124197873D01*
X143560499Y-122542128D01*
X143554091Y-122482517D01*
X143507161Y-122356692D01*
X143503797Y-122347671D01*
X143503793Y-122347664D01*
X143417547Y-122232455D01*
X143417544Y-122232452D01*
X143302335Y-122146206D01*
X143302328Y-122146202D01*
X143167482Y-122095908D01*
X143167483Y-122095908D01*
X143107883Y-122089501D01*
X143107881Y-122089500D01*
X143107873Y-122089500D01*
X143107865Y-122089500D01*
X143004500Y-122089500D01*
X142937461Y-122069815D01*
X142891706Y-122017011D01*
X142880500Y-121965500D01*
X142880500Y-121387197D01*
X142900185Y-121320158D01*
X142952989Y-121274403D01*
X143022147Y-121264459D01*
X143085703Y-121293484D01*
X143092181Y-121299516D01*
X145195760Y-123403095D01*
X145229245Y-123464418D01*
X145224261Y-123534110D01*
X145182393Y-123590041D01*
X145178163Y-123593208D01*
X145152454Y-123612454D01*
X145152453Y-123612455D01*
X145152452Y-123612456D01*
X145066206Y-123727664D01*
X145066202Y-123727671D01*
X145015908Y-123862517D01*
X145009501Y-123922116D01*
X145009501Y-123922123D01*
X145009500Y-123922135D01*
X145009500Y-125617870D01*
X145009501Y-125617876D01*
X145015908Y-125677483D01*
X145066202Y-125812328D01*
X145066206Y-125812335D01*
X145152452Y-125927544D01*
X145152455Y-125927547D01*
X145267664Y-126013793D01*
X145267671Y-126013797D01*
X145402517Y-126064091D01*
X145402516Y-126064091D01*
X145409444Y-126064835D01*
X145462127Y-126070500D01*
X147157872Y-126070499D01*
X147217483Y-126064091D01*
X147352331Y-126013796D01*
X147467546Y-125927546D01*
X147553796Y-125812331D01*
X147604091Y-125677483D01*
X147610500Y-125617873D01*
X147610499Y-125617845D01*
X147610678Y-125614547D01*
X147612183Y-125614627D01*
X147630112Y-125553326D01*
X147682868Y-125507514D01*
X147726465Y-125499981D01*
X148412046Y-124814400D01*
X148424835Y-124895148D01*
X148482359Y-125008045D01*
X148571955Y-125097641D01*
X148684852Y-125155165D01*
X148765599Y-125167953D01*
X148084526Y-125849025D01*
X148157513Y-125900132D01*
X148157521Y-125900136D01*
X148363668Y-125996264D01*
X148363682Y-125996269D01*
X148583389Y-126055139D01*
X148583400Y-126055141D01*
X148809998Y-126074966D01*
X148810002Y-126074966D01*
X149036599Y-126055141D01*
X149036610Y-126055139D01*
X149256317Y-125996269D01*
X149256331Y-125996264D01*
X149462478Y-125900136D01*
X149535471Y-125849024D01*
X148854400Y-125167953D01*
X148935148Y-125155165D01*
X149048045Y-125097641D01*
X149137641Y-125008045D01*
X149195165Y-124895148D01*
X149207953Y-124814400D01*
X149889024Y-125495471D01*
X149940136Y-125422478D01*
X150036264Y-125216331D01*
X150036269Y-125216317D01*
X150095139Y-124996610D01*
X150095141Y-124996599D01*
X150114966Y-124770002D01*
X150114966Y-124769997D01*
X150095141Y-124543400D01*
X150095139Y-124543389D01*
X150036269Y-124323682D01*
X150036264Y-124323668D01*
X149940136Y-124117521D01*
X149940132Y-124117513D01*
X149889025Y-124044526D01*
X149207953Y-124725598D01*
X149195165Y-124644852D01*
X149137641Y-124531955D01*
X149048045Y-124442359D01*
X148935148Y-124384835D01*
X148854401Y-124372046D01*
X149535472Y-123690974D01*
X149462478Y-123639863D01*
X149256331Y-123543735D01*
X149256317Y-123543730D01*
X149036610Y-123484860D01*
X149036599Y-123484858D01*
X148810002Y-123465034D01*
X148809998Y-123465034D01*
X148583400Y-123484858D01*
X148583389Y-123484860D01*
X148363682Y-123543730D01*
X148363673Y-123543734D01*
X148157516Y-123639866D01*
X148157512Y-123639868D01*
X148084526Y-123690973D01*
X148084526Y-123690974D01*
X148765599Y-124372046D01*
X148684852Y-124384835D01*
X148571955Y-124442359D01*
X148482359Y-124531955D01*
X148424835Y-124644852D01*
X148412046Y-124725598D01*
X147725799Y-124039351D01*
X147676805Y-124029505D01*
X147626622Y-123980889D01*
X147611981Y-123925366D01*
X147610900Y-123925423D01*
X147610854Y-123925429D01*
X147610853Y-123925426D01*
X147610676Y-123925436D01*
X147610499Y-123922135D01*
X147610499Y-123922128D01*
X147604091Y-123862517D01*
X147584365Y-123809630D01*
X147553797Y-123727671D01*
X147553793Y-123727664D01*
X147467547Y-123612455D01*
X147467544Y-123612452D01*
X147352335Y-123526206D01*
X147352328Y-123526202D01*
X147217482Y-123475908D01*
X147217483Y-123475908D01*
X147157883Y-123469501D01*
X147157881Y-123469500D01*
X147157873Y-123469500D01*
X147157865Y-123469500D01*
X146960568Y-123469500D01*
X146893529Y-123449815D01*
X146847774Y-123397011D01*
X146846007Y-123392952D01*
X146834537Y-123365260D01*
X146834535Y-123365258D01*
X146827634Y-123356265D01*
X146762450Y-123271315D01*
X146748761Y-123253475D01*
X146738281Y-123239816D01*
X146713229Y-123220594D01*
X146701034Y-123209899D01*
X143997219Y-120506084D01*
X143963734Y-120444761D01*
X143960900Y-120418403D01*
X143960900Y-117797870D01*
X144779500Y-117797870D01*
X144779501Y-117797876D01*
X144785908Y-117857483D01*
X144836202Y-117992328D01*
X144836206Y-117992335D01*
X144922452Y-118107544D01*
X144922455Y-118107547D01*
X145037664Y-118193793D01*
X145037671Y-118193797D01*
X145172517Y-118244091D01*
X145172516Y-118244091D01*
X145173335Y-118244179D01*
X145232127Y-118250500D01*
X146927872Y-118250499D01*
X146987483Y-118244091D01*
X147122331Y-118193796D01*
X147237546Y-118107546D01*
X147323796Y-117992331D01*
X147374091Y-117857483D01*
X147380500Y-117797873D01*
X147380499Y-117797845D01*
X147380678Y-117794547D01*
X147382183Y-117794627D01*
X147400112Y-117733326D01*
X147452868Y-117687514D01*
X147496465Y-117679981D01*
X148182046Y-116994400D01*
X148194835Y-117075148D01*
X148252359Y-117188045D01*
X148341955Y-117277641D01*
X148454852Y-117335165D01*
X148535599Y-117347953D01*
X147854526Y-118029025D01*
X147927513Y-118080132D01*
X147927521Y-118080136D01*
X148133668Y-118176264D01*
X148133682Y-118176269D01*
X148353389Y-118235139D01*
X148353400Y-118235141D01*
X148579998Y-118254966D01*
X148580002Y-118254966D01*
X148806599Y-118235141D01*
X148806610Y-118235139D01*
X149026317Y-118176269D01*
X149026331Y-118176264D01*
X149232478Y-118080136D01*
X149305471Y-118029024D01*
X148624400Y-117347953D01*
X148705148Y-117335165D01*
X148818045Y-117277641D01*
X148907641Y-117188045D01*
X148965165Y-117075148D01*
X148977953Y-116994400D01*
X149659024Y-117675471D01*
X149710136Y-117602478D01*
X149806264Y-117396331D01*
X149806269Y-117396317D01*
X149865139Y-117176610D01*
X149865141Y-117176599D01*
X149884966Y-116950002D01*
X149884966Y-116949997D01*
X149865141Y-116723400D01*
X149865139Y-116723389D01*
X149806269Y-116503682D01*
X149806264Y-116503668D01*
X149710136Y-116297521D01*
X149710132Y-116297513D01*
X149659025Y-116224526D01*
X148977953Y-116905598D01*
X148965165Y-116824852D01*
X148907641Y-116711955D01*
X148818045Y-116622359D01*
X148705148Y-116564835D01*
X148624401Y-116552046D01*
X149305472Y-115870974D01*
X149232478Y-115819863D01*
X149026331Y-115723735D01*
X149026317Y-115723730D01*
X148806610Y-115664860D01*
X148806599Y-115664858D01*
X148580002Y-115645034D01*
X148579998Y-115645034D01*
X148353400Y-115664858D01*
X148353389Y-115664860D01*
X148133682Y-115723730D01*
X148133673Y-115723734D01*
X147927516Y-115819866D01*
X147927512Y-115819868D01*
X147854526Y-115870973D01*
X147854526Y-115870974D01*
X148535599Y-116552046D01*
X148454852Y-116564835D01*
X148341955Y-116622359D01*
X148252359Y-116711955D01*
X148194835Y-116824852D01*
X148182046Y-116905598D01*
X147495799Y-116219351D01*
X147446805Y-116209505D01*
X147396622Y-116160889D01*
X147381981Y-116105366D01*
X147380900Y-116105423D01*
X147380854Y-116105429D01*
X147380853Y-116105426D01*
X147380676Y-116105436D01*
X147380499Y-116102135D01*
X147380499Y-116102128D01*
X147374091Y-116042517D01*
X147340518Y-115952504D01*
X147323797Y-115907671D01*
X147323793Y-115907664D01*
X147263586Y-115827239D01*
X147237546Y-115792454D01*
X147207606Y-115770041D01*
X147165737Y-115714109D01*
X147160753Y-115644417D01*
X147194236Y-115583097D01*
X150261043Y-112516290D01*
X150273223Y-112505609D01*
X150298282Y-112486382D01*
X150394536Y-112360941D01*
X150455044Y-112214862D01*
X150470500Y-112097461D01*
X150475682Y-112058100D01*
X150471561Y-112026797D01*
X150470500Y-112010612D01*
X150470500Y-111451692D01*
X150490185Y-111384653D01*
X150523374Y-111350119D01*
X150709139Y-111220047D01*
X150870047Y-111059139D01*
X151000568Y-110872734D01*
X151096739Y-110666496D01*
X151155635Y-110446692D01*
X151175468Y-110220000D01*
X151155635Y-109993308D01*
X151096739Y-109773504D01*
X151000568Y-109567266D01*
X150870047Y-109380861D01*
X150870045Y-109380858D01*
X150709141Y-109219954D01*
X150522734Y-109089432D01*
X150522732Y-109089431D01*
X150316497Y-108993261D01*
X150316488Y-108993258D01*
X150096697Y-108934366D01*
X150096693Y-108934365D01*
X150096692Y-108934365D01*
X150096691Y-108934364D01*
X150096686Y-108934364D01*
X149870002Y-108914532D01*
X149869998Y-108914532D01*
X149643313Y-108934364D01*
X149643302Y-108934366D01*
X149423511Y-108993258D01*
X149423502Y-108993261D01*
X149217267Y-109089431D01*
X149217265Y-109089432D01*
X149030858Y-109219954D01*
X148869954Y-109380858D01*
X148739432Y-109567265D01*
X148739431Y-109567267D01*
X148643261Y-109773502D01*
X148643258Y-109773511D01*
X148584366Y-109993302D01*
X148584364Y-109993313D01*
X148564532Y-110219998D01*
X148564532Y-110220001D01*
X148584364Y-110446686D01*
X148584366Y-110446697D01*
X148643258Y-110666488D01*
X148643261Y-110666497D01*
X148739431Y-110872732D01*
X148739432Y-110872734D01*
X148869954Y-111059141D01*
X149030858Y-111220045D01*
X149047848Y-111231941D01*
X149216624Y-111350118D01*
X149260248Y-111404693D01*
X149269500Y-111451692D01*
X149269500Y-111758002D01*
X149249815Y-111825041D01*
X149233181Y-111845683D01*
X145688965Y-115389898D01*
X145676775Y-115400589D01*
X145651717Y-115419818D01*
X145619857Y-115461340D01*
X145588298Y-115502470D01*
X145579044Y-115514530D01*
X145579042Y-115514532D01*
X145555464Y-115545257D01*
X145555463Y-115545259D01*
X145543990Y-115572957D01*
X145500147Y-115627359D01*
X145433853Y-115649421D01*
X145429432Y-115649500D01*
X145232130Y-115649500D01*
X145232123Y-115649501D01*
X145172516Y-115655908D01*
X145037671Y-115706202D01*
X145037664Y-115706206D01*
X144922455Y-115792452D01*
X144922452Y-115792455D01*
X144836206Y-115907664D01*
X144836202Y-115907671D01*
X144785908Y-116042517D01*
X144779658Y-116100654D01*
X144779501Y-116102123D01*
X144779500Y-116102135D01*
X144779500Y-117797870D01*
X143960900Y-117797870D01*
X143960900Y-110387894D01*
X143961961Y-110371708D01*
X143966083Y-110340400D01*
X143966083Y-110340399D01*
X143945444Y-110183638D01*
X143884936Y-110037560D01*
X143884936Y-110037559D01*
X143844089Y-109984326D01*
X143788682Y-109912118D01*
X143788680Y-109912116D01*
X143788679Y-109912115D01*
X143763628Y-109892893D01*
X143751434Y-109882199D01*
X141051941Y-107182706D01*
X141018456Y-107121383D01*
X141019847Y-107062931D01*
X141045635Y-106966692D01*
X141065468Y-106740001D01*
X148614532Y-106740001D01*
X148634364Y-106966686D01*
X148634366Y-106966697D01*
X148693258Y-107186488D01*
X148693261Y-107186497D01*
X148789431Y-107392732D01*
X148789432Y-107392734D01*
X148919954Y-107579141D01*
X149080858Y-107740045D01*
X149080861Y-107740047D01*
X149267266Y-107870568D01*
X149473504Y-107966739D01*
X149693308Y-108025635D01*
X149855230Y-108039801D01*
X149919998Y-108045468D01*
X149920000Y-108045468D01*
X149920002Y-108045468D01*
X149976673Y-108040509D01*
X150146692Y-108025635D01*
X150366496Y-107966739D01*
X150572734Y-107870568D01*
X150759139Y-107740047D01*
X150920047Y-107579139D01*
X151050568Y-107392734D01*
X151146739Y-107186496D01*
X151205635Y-106966692D01*
X151225468Y-106740000D01*
X151205635Y-106513308D01*
X151146739Y-106293504D01*
X151050568Y-106087266D01*
X150920047Y-105900861D01*
X150920045Y-105900858D01*
X150759141Y-105739954D01*
X150572734Y-105609432D01*
X150572732Y-105609431D01*
X150366497Y-105513261D01*
X150366488Y-105513258D01*
X150146697Y-105454366D01*
X150146693Y-105454365D01*
X150146692Y-105454365D01*
X150146691Y-105454364D01*
X150146686Y-105454364D01*
X149920002Y-105434532D01*
X149919998Y-105434532D01*
X149693313Y-105454364D01*
X149693302Y-105454366D01*
X149473511Y-105513258D01*
X149473502Y-105513261D01*
X149267267Y-105609431D01*
X149267265Y-105609432D01*
X149080858Y-105739954D01*
X148919954Y-105900858D01*
X148789432Y-106087265D01*
X148789431Y-106087267D01*
X148693261Y-106293502D01*
X148693258Y-106293511D01*
X148634366Y-106513302D01*
X148634364Y-106513313D01*
X148614532Y-106739998D01*
X148614532Y-106740001D01*
X141065468Y-106740001D01*
X141065468Y-106740000D01*
X141045635Y-106513308D01*
X140986739Y-106293504D01*
X140890568Y-106087266D01*
X140760047Y-105900861D01*
X140760045Y-105900858D01*
X140599141Y-105739954D01*
X140412734Y-105609432D01*
X140412732Y-105609431D01*
X140206497Y-105513261D01*
X140206488Y-105513258D01*
X139986697Y-105454366D01*
X139986693Y-105454365D01*
X139986692Y-105454365D01*
X139986691Y-105454364D01*
X139986686Y-105454364D01*
X139760002Y-105434532D01*
X139759998Y-105434532D01*
X139611398Y-105447532D01*
X139542898Y-105433765D01*
X139492715Y-105385150D01*
X139476782Y-105317121D01*
X139500158Y-105251277D01*
X139512899Y-105236335D01*
X140590153Y-104159080D01*
X140651474Y-104125597D01*
X140714382Y-104128272D01*
X140717981Y-104129382D01*
X140717987Y-104129385D01*
X140957236Y-104203184D01*
X140957237Y-104203184D01*
X140957240Y-104203185D01*
X141204805Y-104240499D01*
X141204810Y-104240499D01*
X141204813Y-104240500D01*
X141204814Y-104240500D01*
X141455186Y-104240500D01*
X141455187Y-104240500D01*
X141455194Y-104240499D01*
X141702759Y-104203185D01*
X141702760Y-104203184D01*
X141702764Y-104203184D01*
X141942013Y-104129385D01*
X142167592Y-104020752D01*
X142374460Y-103879712D01*
X142557997Y-103709414D01*
X142714102Y-103513665D01*
X142839289Y-103296835D01*
X142930760Y-103063769D01*
X142986474Y-102819673D01*
X142989930Y-102773553D01*
X143005184Y-102570004D01*
X144655317Y-102570004D01*
X144674021Y-102819597D01*
X144674021Y-102819599D01*
X144729714Y-103063607D01*
X144729720Y-103063626D01*
X144821163Y-103296618D01*
X144946311Y-103513381D01*
X144946318Y-103513392D01*
X144984799Y-103561645D01*
X144984800Y-103561645D01*
X145727452Y-102818993D01*
X145737188Y-102848956D01*
X145825186Y-102987619D01*
X145944903Y-103100040D01*
X146079510Y-103174041D01*
X145338403Y-103915148D01*
X145492658Y-104020317D01*
X145492666Y-104020322D01*
X145718167Y-104128916D01*
X145718165Y-104128916D01*
X145957346Y-104202694D01*
X145957352Y-104202696D01*
X146204843Y-104239999D01*
X146204852Y-104240000D01*
X146455148Y-104240000D01*
X146455156Y-104239999D01*
X146702647Y-104202696D01*
X146702653Y-104202694D01*
X146941833Y-104128916D01*
X147167334Y-104020322D01*
X147167344Y-104020315D01*
X147321595Y-103915148D01*
X146577534Y-103171086D01*
X146645629Y-103144126D01*
X146778492Y-103047595D01*
X146883175Y-102921055D01*
X146931631Y-102818079D01*
X147675197Y-103561645D01*
X147675198Y-103561644D01*
X147713690Y-103513379D01*
X147838836Y-103296618D01*
X147930279Y-103063626D01*
X147930285Y-103063607D01*
X147985978Y-102819599D01*
X147985978Y-102819597D01*
X148004683Y-102570004D01*
X148004683Y-102569995D01*
X147985978Y-102320402D01*
X147985978Y-102320400D01*
X147930285Y-102076392D01*
X147930279Y-102076373D01*
X147838836Y-101843381D01*
X147713688Y-101626618D01*
X147713681Y-101626607D01*
X147675199Y-101578354D01*
X147675198Y-101578353D01*
X146932546Y-102321004D01*
X146922812Y-102291044D01*
X146834814Y-102152381D01*
X146715097Y-102039960D01*
X146580488Y-101965957D01*
X147321595Y-101224850D01*
X147167335Y-101119678D01*
X147167334Y-101119677D01*
X146941832Y-101011083D01*
X146941834Y-101011083D01*
X146702653Y-100937305D01*
X146702647Y-100937303D01*
X146455156Y-100900000D01*
X146204843Y-100900000D01*
X145957352Y-100937303D01*
X145957346Y-100937305D01*
X145718166Y-101011083D01*
X145492664Y-101119679D01*
X145492651Y-101119686D01*
X145338403Y-101224849D01*
X146082466Y-101968912D01*
X146014371Y-101995874D01*
X145881508Y-102092405D01*
X145776825Y-102218945D01*
X145728367Y-102321921D01*
X144984800Y-101578354D01*
X144946311Y-101626617D01*
X144821163Y-101843381D01*
X144729720Y-102076373D01*
X144729714Y-102076392D01*
X144674021Y-102320400D01*
X144674021Y-102320402D01*
X144655317Y-102569995D01*
X144655317Y-102570004D01*
X143005184Y-102570004D01*
X143005184Y-102569995D01*
X142986475Y-102320336D01*
X142986474Y-102320331D01*
X142986474Y-102320327D01*
X142930760Y-102076231D01*
X142839289Y-101843165D01*
X142714102Y-101626335D01*
X142557997Y-101430586D01*
X142557996Y-101430585D01*
X142557993Y-101430581D01*
X142374460Y-101260288D01*
X142322480Y-101224849D01*
X142167592Y-101119248D01*
X142167588Y-101119246D01*
X142167585Y-101119244D01*
X142167584Y-101119243D01*
X141942015Y-101010616D01*
X141942017Y-101010616D01*
X141702765Y-100936816D01*
X141702759Y-100936814D01*
X141455194Y-100899500D01*
X141455187Y-100899500D01*
X141204813Y-100899500D01*
X141204805Y-100899500D01*
X140957240Y-100936814D01*
X140957234Y-100936816D01*
X140717983Y-101010616D01*
X140492415Y-101119243D01*
X140492414Y-101119244D01*
X140285539Y-101260288D01*
X140102006Y-101430581D01*
X139945898Y-101626335D01*
X139820711Y-101843164D01*
X139729242Y-102076225D01*
X139729236Y-102076244D01*
X139673525Y-102320331D01*
X139673524Y-102320336D01*
X139654816Y-102569995D01*
X139654816Y-102570004D01*
X139673524Y-102819663D01*
X139673525Y-102819668D01*
X139729239Y-103063767D01*
X139772227Y-103173302D01*
X139778395Y-103242899D01*
X139745956Y-103304782D01*
X139744479Y-103306284D01*
X138231765Y-104818998D01*
X138219574Y-104829690D01*
X138194518Y-104848917D01*
X138170349Y-104880413D01*
X138170350Y-104880414D01*
X138098264Y-104974358D01*
X138098261Y-104974363D01*
X138037757Y-105120434D01*
X138037755Y-105120439D01*
X138017118Y-105277198D01*
X138017118Y-105277199D01*
X138021239Y-105308501D01*
X138022300Y-105324687D01*
X138022300Y-109085312D01*
X138021239Y-109101497D01*
X138017118Y-109132798D01*
X138017118Y-109132800D01*
X135050133Y-109132800D01*
X136721044Y-107461889D01*
X136733222Y-107451210D01*
X136758282Y-107431982D01*
X136854536Y-107306541D01*
X136915044Y-107160462D01*
X136930500Y-107043061D01*
X136935682Y-107003700D01*
X136931561Y-106972397D01*
X136930500Y-106956212D01*
X136930500Y-104212844D01*
X136950185Y-104145805D01*
X137000698Y-104101124D01*
X137100248Y-104053183D01*
X137167592Y-104020752D01*
X137374460Y-103879712D01*
X137557997Y-103709414D01*
X137714102Y-103513665D01*
X137839289Y-103296835D01*
X137930760Y-103063769D01*
X137986474Y-102819673D01*
X137989930Y-102773553D01*
X138005184Y-102570004D01*
X138005184Y-102569995D01*
X137986475Y-102320336D01*
X137986474Y-102320331D01*
X137986474Y-102320327D01*
X137930760Y-102076231D01*
X137839289Y-101843165D01*
X137714102Y-101626335D01*
X137557997Y-101430586D01*
X137557996Y-101430585D01*
X137557993Y-101430581D01*
X137374460Y-101260288D01*
X137322480Y-101224849D01*
X137167592Y-101119248D01*
X137167588Y-101119246D01*
X137167585Y-101119244D01*
X137167584Y-101119243D01*
X136942015Y-101010616D01*
X136942017Y-101010616D01*
X136702765Y-100936816D01*
X136702759Y-100936814D01*
X136455194Y-100899500D01*
X136455187Y-100899500D01*
X136204813Y-100899500D01*
X136204805Y-100899500D01*
X135957240Y-100936814D01*
X135957234Y-100936816D01*
X135717983Y-101010616D01*
X135492415Y-101119243D01*
X135492414Y-101119244D01*
X135285539Y-101260288D01*
X135102006Y-101430581D01*
X134945898Y-101626335D01*
X134820711Y-101843164D01*
X134729242Y-102076225D01*
X134729236Y-102076244D01*
X134673525Y-102320331D01*
X134673524Y-102320336D01*
X134654816Y-102569995D01*
X134654816Y-102570004D01*
X134673524Y-102819663D01*
X134673525Y-102819668D01*
X134729236Y-103063755D01*
X134729238Y-103063764D01*
X134729240Y-103063769D01*
X134820711Y-103296835D01*
X134945898Y-103513665D01*
X134984161Y-103561645D01*
X135102006Y-103709418D01*
X135275264Y-103870177D01*
X135285540Y-103879712D01*
X135492408Y-104020752D01*
X135492411Y-104020753D01*
X135492412Y-104020754D01*
X135659302Y-104101124D01*
X135711161Y-104147946D01*
X135729500Y-104212844D01*
X135729500Y-106703602D01*
X135709815Y-106770641D01*
X135693181Y-106791283D01*
X131775368Y-110709095D01*
X131714045Y-110742580D01*
X131644353Y-110737596D01*
X131588420Y-110695724D01*
X131567893Y-110648307D01*
X131567036Y-110648537D01*
X131506741Y-110423511D01*
X131506738Y-110423502D01*
X131482586Y-110371708D01*
X131410568Y-110217266D01*
X131280047Y-110030861D01*
X131280045Y-110030858D01*
X131119141Y-109869954D01*
X130932734Y-109739432D01*
X130932732Y-109739431D01*
X130726497Y-109643261D01*
X130726488Y-109643258D01*
X130506697Y-109584366D01*
X130506693Y-109584365D01*
X130506692Y-109584365D01*
X130506691Y-109584364D01*
X130506686Y-109584364D01*
X130280002Y-109564532D01*
X130279998Y-109564532D01*
X130053313Y-109584364D01*
X130053302Y-109584366D01*
X129833511Y-109643258D01*
X129833502Y-109643261D01*
X129627267Y-109739431D01*
X129627265Y-109739432D01*
X129440858Y-109869954D01*
X129279954Y-110030858D01*
X129149432Y-110217265D01*
X129149431Y-110217267D01*
X129053261Y-110423502D01*
X129053258Y-110423511D01*
X128994366Y-110643302D01*
X128994364Y-110643313D01*
X128974532Y-110869998D01*
X128974532Y-110870001D01*
X121425468Y-110870001D01*
X121425468Y-110870000D01*
X121405635Y-110643308D01*
X121346739Y-110423504D01*
X121250568Y-110217266D01*
X121120047Y-110030861D01*
X121120045Y-110030858D01*
X120959141Y-109869954D01*
X120772734Y-109739432D01*
X120772732Y-109739431D01*
X120566497Y-109643261D01*
X120566488Y-109643258D01*
X120346697Y-109584366D01*
X120346693Y-109584365D01*
X120346692Y-109584365D01*
X120346691Y-109584364D01*
X120346686Y-109584364D01*
X120120002Y-109564532D01*
X120119998Y-109564532D01*
X119893313Y-109584364D01*
X119893302Y-109584366D01*
X119673511Y-109643258D01*
X119673502Y-109643261D01*
X119467267Y-109739431D01*
X119467265Y-109739432D01*
X119280858Y-109869954D01*
X119119954Y-110030858D01*
X118989432Y-110217265D01*
X118989431Y-110217267D01*
X118893261Y-110423502D01*
X118893258Y-110423511D01*
X118834366Y-110643302D01*
X118834364Y-110643313D01*
X118814532Y-110869998D01*
X118814532Y-110870001D01*
X112389236Y-110870001D01*
X111901941Y-110382706D01*
X111868456Y-110321383D01*
X111869847Y-110262931D01*
X111895635Y-110166692D01*
X111915468Y-109940000D01*
X111895635Y-109713308D01*
X111836739Y-109493504D01*
X111740568Y-109287266D01*
X111610047Y-109100861D01*
X111610045Y-109100858D01*
X111449141Y-108939954D01*
X111262734Y-108809432D01*
X111262732Y-108809431D01*
X111056497Y-108713261D01*
X111056488Y-108713258D01*
X110836697Y-108654366D01*
X110836693Y-108654365D01*
X110836692Y-108654365D01*
X110836691Y-108654364D01*
X110836686Y-108654364D01*
X110610002Y-108634532D01*
X110609998Y-108634532D01*
X110383313Y-108654364D01*
X110383302Y-108654366D01*
X110163511Y-108713258D01*
X110163502Y-108713261D01*
X109957267Y-108809431D01*
X109957265Y-108809432D01*
X109770858Y-108939954D01*
X109609954Y-109100858D01*
X109479432Y-109287265D01*
X109479431Y-109287267D01*
X109383261Y-109493502D01*
X109383258Y-109493511D01*
X109324366Y-109713302D01*
X109324364Y-109713313D01*
X109304532Y-109939998D01*
X109304532Y-109940001D01*
X107502400Y-109940001D01*
X107502400Y-106550001D01*
X109354532Y-106550001D01*
X109374364Y-106776686D01*
X109374366Y-106776697D01*
X109433258Y-106996488D01*
X109433261Y-106996497D01*
X109529431Y-107202732D01*
X109529432Y-107202734D01*
X109659954Y-107389141D01*
X109820858Y-107550045D01*
X109820861Y-107550047D01*
X110007266Y-107680568D01*
X110213504Y-107776739D01*
X110433308Y-107835635D01*
X110595230Y-107849801D01*
X110659998Y-107855468D01*
X110660000Y-107855468D01*
X110660002Y-107855468D01*
X110716673Y-107850509D01*
X110886692Y-107835635D01*
X111106496Y-107776739D01*
X111312734Y-107680568D01*
X111499139Y-107550047D01*
X111660047Y-107389139D01*
X111790568Y-107202734D01*
X111886739Y-106996496D01*
X111945635Y-106776692D01*
X111965468Y-106550000D01*
X111945635Y-106323308D01*
X111886739Y-106103504D01*
X111790568Y-105897266D01*
X111660047Y-105710861D01*
X111660045Y-105710858D01*
X111499141Y-105549954D01*
X111312734Y-105419432D01*
X111312732Y-105419431D01*
X111106497Y-105323261D01*
X111106488Y-105323258D01*
X110886697Y-105264366D01*
X110886693Y-105264365D01*
X110886692Y-105264365D01*
X110886691Y-105264364D01*
X110886686Y-105264364D01*
X110660002Y-105244532D01*
X110659998Y-105244532D01*
X110433313Y-105264364D01*
X110433302Y-105264366D01*
X110213511Y-105323258D01*
X110213502Y-105323261D01*
X110007267Y-105419431D01*
X110007265Y-105419432D01*
X109820858Y-105549954D01*
X109659954Y-105710858D01*
X109529432Y-105897265D01*
X109529431Y-105897267D01*
X109433261Y-106103502D01*
X109433258Y-106103511D01*
X109374366Y-106323302D01*
X109374364Y-106323313D01*
X109354532Y-106549998D01*
X109354532Y-106550001D01*
X107502400Y-106550001D01*
X107502400Y-106338196D01*
X107522085Y-106271157D01*
X107538714Y-106250520D01*
X109780153Y-104009080D01*
X109841474Y-103975597D01*
X109904382Y-103978272D01*
X109907981Y-103979382D01*
X109907987Y-103979385D01*
X110147236Y-104053184D01*
X110147237Y-104053184D01*
X110147240Y-104053185D01*
X110394805Y-104090499D01*
X110394810Y-104090499D01*
X110394813Y-104090500D01*
X110394814Y-104090500D01*
X110645186Y-104090500D01*
X110645187Y-104090500D01*
X110645194Y-104090499D01*
X110892759Y-104053185D01*
X110892760Y-104053184D01*
X110892764Y-104053184D01*
X111132013Y-103979385D01*
X111310264Y-103893543D01*
X111357584Y-103870756D01*
X111357584Y-103870755D01*
X111357592Y-103870752D01*
X111564460Y-103729712D01*
X111747997Y-103559414D01*
X111904102Y-103363665D01*
X112029289Y-103146835D01*
X112120760Y-102913769D01*
X112176474Y-102669673D01*
X112176480Y-102669597D01*
X112195184Y-102420004D01*
X113845317Y-102420004D01*
X113864021Y-102669597D01*
X113864021Y-102669599D01*
X113919714Y-102913607D01*
X113919720Y-102913626D01*
X114011163Y-103146618D01*
X114136311Y-103363381D01*
X114136318Y-103363392D01*
X114174799Y-103411645D01*
X114174800Y-103411645D01*
X114917452Y-102668993D01*
X114927188Y-102698956D01*
X115015186Y-102837619D01*
X115134903Y-102950040D01*
X115269510Y-103024041D01*
X114528403Y-103765148D01*
X114682658Y-103870317D01*
X114682666Y-103870322D01*
X114908167Y-103978916D01*
X114908165Y-103978916D01*
X115147346Y-104052694D01*
X115147352Y-104052696D01*
X115394843Y-104089999D01*
X115394852Y-104090000D01*
X115645148Y-104090000D01*
X115645156Y-104089999D01*
X115892647Y-104052696D01*
X115892653Y-104052694D01*
X116131833Y-103978916D01*
X116357334Y-103870322D01*
X116357344Y-103870315D01*
X116511595Y-103765148D01*
X115767534Y-103021086D01*
X115835629Y-102994126D01*
X115968492Y-102897595D01*
X116073175Y-102771055D01*
X116121631Y-102668079D01*
X116865197Y-103411645D01*
X116865198Y-103411644D01*
X116903690Y-103363379D01*
X117028836Y-103146618D01*
X117120279Y-102913626D01*
X117120285Y-102913607D01*
X117175978Y-102669599D01*
X117175978Y-102669597D01*
X117194683Y-102420004D01*
X117194683Y-102419995D01*
X117175978Y-102170402D01*
X117175978Y-102170400D01*
X117120285Y-101926392D01*
X117120279Y-101926373D01*
X117028836Y-101693381D01*
X116903688Y-101476618D01*
X116903681Y-101476607D01*
X116865199Y-101428354D01*
X116865198Y-101428353D01*
X116122546Y-102171004D01*
X116112812Y-102141044D01*
X116024814Y-102002381D01*
X115905097Y-101889960D01*
X115770488Y-101815957D01*
X116511595Y-101074850D01*
X116357335Y-100969678D01*
X116357334Y-100969677D01*
X116131832Y-100861083D01*
X116131834Y-100861083D01*
X115892653Y-100787305D01*
X115892647Y-100787303D01*
X115645156Y-100750000D01*
X115394843Y-100750000D01*
X115147352Y-100787303D01*
X115147346Y-100787305D01*
X114908166Y-100861083D01*
X114682664Y-100969679D01*
X114682651Y-100969686D01*
X114528403Y-101074849D01*
X115272466Y-101818912D01*
X115204371Y-101845874D01*
X115071508Y-101942405D01*
X114966825Y-102068945D01*
X114918367Y-102171921D01*
X114174800Y-101428354D01*
X114136311Y-101476617D01*
X114011163Y-101693381D01*
X113919720Y-101926373D01*
X113919714Y-101926392D01*
X113864021Y-102170400D01*
X113864021Y-102170402D01*
X113845317Y-102419995D01*
X113845317Y-102420004D01*
X112195184Y-102420004D01*
X112195184Y-102419995D01*
X112176475Y-102170336D01*
X112176474Y-102170331D01*
X112176474Y-102170327D01*
X112120760Y-101926231D01*
X112029289Y-101693165D01*
X111904102Y-101476335D01*
X111747997Y-101280586D01*
X111747996Y-101280585D01*
X111747993Y-101280581D01*
X111564460Y-101110288D01*
X111512480Y-101074849D01*
X111357592Y-100969248D01*
X111357588Y-100969246D01*
X111357585Y-100969244D01*
X111357584Y-100969243D01*
X111132015Y-100860616D01*
X111132017Y-100860616D01*
X110892765Y-100786816D01*
X110892759Y-100786814D01*
X110645194Y-100749500D01*
X110645187Y-100749500D01*
X110394813Y-100749500D01*
X110394805Y-100749500D01*
X110147240Y-100786814D01*
X110147234Y-100786816D01*
X109907983Y-100860616D01*
X109682415Y-100969243D01*
X109682414Y-100969244D01*
X109475539Y-101110288D01*
X109292006Y-101280581D01*
X109135898Y-101476335D01*
X109010711Y-101693164D01*
X108919242Y-101926225D01*
X108919236Y-101926244D01*
X108863525Y-102170331D01*
X108863524Y-102170336D01*
X108844816Y-102419995D01*
X108844816Y-102420004D01*
X108863524Y-102669663D01*
X108863525Y-102669668D01*
X108919239Y-102913767D01*
X108962227Y-103023302D01*
X108968395Y-103092899D01*
X108935956Y-103154782D01*
X108934479Y-103156284D01*
X106597222Y-105493541D01*
X106535899Y-105527026D01*
X106466207Y-105522042D01*
X106438419Y-105507436D01*
X106333204Y-105433765D01*
X106312734Y-105419432D01*
X106239217Y-105385150D01*
X106106497Y-105323261D01*
X106106488Y-105323258D01*
X105886697Y-105264366D01*
X105886693Y-105264365D01*
X105886692Y-105264365D01*
X105886691Y-105264364D01*
X105886686Y-105264364D01*
X105660002Y-105244532D01*
X105659998Y-105244532D01*
X105433313Y-105264364D01*
X105433302Y-105264366D01*
X105213511Y-105323258D01*
X105213502Y-105323261D01*
X105007267Y-105419431D01*
X105007265Y-105419432D01*
X104820858Y-105549954D01*
X104659954Y-105710858D01*
X104529432Y-105897265D01*
X104529431Y-105897267D01*
X104433261Y-106103502D01*
X104433258Y-106103511D01*
X104374366Y-106323302D01*
X104374364Y-106323313D01*
X104354532Y-106549998D01*
X104354532Y-106550001D01*
X104374364Y-106776686D01*
X104374366Y-106776697D01*
X104433258Y-106996488D01*
X104433261Y-106996497D01*
X104529431Y-107202732D01*
X104529432Y-107202734D01*
X104659954Y-107389141D01*
X104820858Y-107550045D01*
X104820861Y-107550047D01*
X105007266Y-107680568D01*
X105213504Y-107776739D01*
X105433308Y-107835635D01*
X105595230Y-107849801D01*
X105659998Y-107855468D01*
X105660000Y-107855468D01*
X105660002Y-107855468D01*
X105716673Y-107850509D01*
X105886692Y-107835635D01*
X106106496Y-107776739D01*
X106124995Y-107768112D01*
X106194070Y-107757620D01*
X106257855Y-107786138D01*
X106296095Y-107844614D01*
X106301400Y-107880494D01*
X106301400Y-108632821D01*
X106281715Y-108699860D01*
X106228911Y-108745615D01*
X106159753Y-108755559D01*
X106124995Y-108745203D01*
X106056496Y-108713261D01*
X106056492Y-108713260D01*
X106056488Y-108713258D01*
X105836697Y-108654366D01*
X105836693Y-108654365D01*
X105836692Y-108654365D01*
X105836691Y-108654364D01*
X105836686Y-108654364D01*
X105610002Y-108634532D01*
X105609998Y-108634532D01*
X105383313Y-108654364D01*
X105383302Y-108654366D01*
X105163511Y-108713258D01*
X105163502Y-108713261D01*
X104957267Y-108809431D01*
X104957265Y-108809432D01*
X104770858Y-108939954D01*
X104609954Y-109100858D01*
X104479432Y-109287265D01*
X104479431Y-109287267D01*
X104383261Y-109493502D01*
X104383258Y-109493511D01*
X104324366Y-109713302D01*
X104324364Y-109713313D01*
X104304532Y-109939998D01*
X104304532Y-109940001D01*
X104324364Y-110166686D01*
X104324366Y-110166697D01*
X104383258Y-110386488D01*
X104383261Y-110386497D01*
X104479431Y-110592732D01*
X104479432Y-110592734D01*
X104609954Y-110779141D01*
X104770858Y-110940045D01*
X104770861Y-110940047D01*
X104956624Y-111070118D01*
X105000248Y-111124693D01*
X105009500Y-111171692D01*
X105009500Y-118589902D01*
X104989815Y-118656941D01*
X104973181Y-118677583D01*
X102812705Y-120838058D01*
X102751382Y-120871543D01*
X102692931Y-120870152D01*
X102596697Y-120844366D01*
X102596693Y-120844365D01*
X102596692Y-120844365D01*
X102596691Y-120844364D01*
X102596686Y-120844364D01*
X102370002Y-120824532D01*
X102369998Y-120824532D01*
X102143313Y-120844364D01*
X102143302Y-120844366D01*
X101971093Y-120890509D01*
X101901243Y-120888846D01*
X101843381Y-120849683D01*
X101815877Y-120785455D01*
X101815000Y-120770734D01*
X101815000Y-119395596D01*
X101834685Y-119328557D01*
X101851310Y-119307924D01*
X102017295Y-119141938D01*
X102078615Y-119108456D01*
X102137066Y-119109847D01*
X102156604Y-119115082D01*
X102233308Y-119135635D01*
X102395230Y-119149801D01*
X102459998Y-119155468D01*
X102460000Y-119155468D01*
X102460002Y-119155468D01*
X102516673Y-119150509D01*
X102686692Y-119135635D01*
X102906496Y-119076739D01*
X103112734Y-118980568D01*
X103299139Y-118850047D01*
X103460047Y-118689139D01*
X103590568Y-118502734D01*
X103686739Y-118296496D01*
X103745635Y-118076692D01*
X103765468Y-117850000D01*
X103762847Y-117820047D01*
X103756753Y-117750383D01*
X103745635Y-117623308D01*
X103686739Y-117403504D01*
X103590568Y-117197266D01*
X103470210Y-117025376D01*
X103460045Y-117010858D01*
X103299141Y-116849954D01*
X103112734Y-116719432D01*
X103112732Y-116719431D01*
X102906497Y-116623261D01*
X102906488Y-116623258D01*
X102686697Y-116564366D01*
X102686693Y-116564365D01*
X102686692Y-116564365D01*
X102686691Y-116564364D01*
X102686686Y-116564364D01*
X102460002Y-116544532D01*
X102459998Y-116544532D01*
X102233313Y-116564364D01*
X102233302Y-116564366D01*
X102013511Y-116623258D01*
X102013502Y-116623261D01*
X101807267Y-116719431D01*
X101807265Y-116719432D01*
X101620858Y-116849954D01*
X101459954Y-117010858D01*
X101329432Y-117197265D01*
X101329431Y-117197267D01*
X101233261Y-117403502D01*
X101233258Y-117403511D01*
X101174366Y-117623302D01*
X101174364Y-117623313D01*
X101154532Y-117849998D01*
X101154532Y-117850001D01*
X101174364Y-118076686D01*
X101174366Y-118076697D01*
X101200152Y-118172931D01*
X101198489Y-118242781D01*
X101168058Y-118292705D01*
X100823465Y-118637298D01*
X100811275Y-118647989D01*
X100786220Y-118667215D01*
X100786218Y-118667218D01*
X100735559Y-118733238D01*
X100735557Y-118733241D01*
X100722874Y-118749769D01*
X100666445Y-118790970D01*
X100596699Y-118795123D01*
X100535780Y-118760910D01*
X100503028Y-118699192D01*
X100500500Y-118674280D01*
X100500500Y-113770001D01*
X101104532Y-113770001D01*
X101124364Y-113996686D01*
X101124366Y-113996697D01*
X101183258Y-114216488D01*
X101183261Y-114216497D01*
X101279431Y-114422732D01*
X101279432Y-114422734D01*
X101409954Y-114609141D01*
X101570858Y-114770045D01*
X101570861Y-114770047D01*
X101757266Y-114900568D01*
X101963504Y-114996739D01*
X102183308Y-115055635D01*
X102345230Y-115069801D01*
X102409998Y-115075468D01*
X102410000Y-115075468D01*
X102410002Y-115075468D01*
X102466673Y-115070509D01*
X102636692Y-115055635D01*
X102856496Y-114996739D01*
X103062734Y-114900568D01*
X103249139Y-114770047D01*
X103410047Y-114609139D01*
X103540568Y-114422734D01*
X103636739Y-114216496D01*
X103695635Y-113996692D01*
X103715468Y-113770000D01*
X103695635Y-113543308D01*
X103636739Y-113323504D01*
X103540568Y-113117266D01*
X103410047Y-112930861D01*
X103410045Y-112930858D01*
X103249141Y-112769954D01*
X103062734Y-112639432D01*
X103062732Y-112639431D01*
X102856497Y-112543261D01*
X102856488Y-112543258D01*
X102636697Y-112484366D01*
X102636693Y-112484365D01*
X102636692Y-112484365D01*
X102636691Y-112484364D01*
X102636686Y-112484364D01*
X102410002Y-112464532D01*
X102409998Y-112464532D01*
X102183313Y-112484364D01*
X102183302Y-112484366D01*
X101963511Y-112543258D01*
X101963502Y-112543261D01*
X101757267Y-112639431D01*
X101757265Y-112639432D01*
X101570858Y-112769954D01*
X101409954Y-112930858D01*
X101279432Y-113117265D01*
X101279431Y-113117267D01*
X101183261Y-113323502D01*
X101183258Y-113323511D01*
X101124366Y-113543302D01*
X101124364Y-113543313D01*
X101104532Y-113769998D01*
X101104532Y-113770001D01*
X100500500Y-113770001D01*
X100500500Y-102420004D01*
X103844816Y-102420004D01*
X103863524Y-102669663D01*
X103863525Y-102669668D01*
X103919236Y-102913755D01*
X103919238Y-102913764D01*
X103919240Y-102913769D01*
X104010711Y-103146835D01*
X104135898Y-103363665D01*
X104174161Y-103411645D01*
X104292006Y-103559418D01*
X104453664Y-103709414D01*
X104475540Y-103729712D01*
X104682408Y-103870752D01*
X104682413Y-103870754D01*
X104682414Y-103870755D01*
X104682415Y-103870756D01*
X104774597Y-103915148D01*
X104907983Y-103979383D01*
X104907984Y-103979383D01*
X104907987Y-103979385D01*
X105147236Y-104053184D01*
X105147237Y-104053184D01*
X105147240Y-104053185D01*
X105394805Y-104090499D01*
X105394810Y-104090499D01*
X105394813Y-104090500D01*
X105394814Y-104090500D01*
X105645186Y-104090500D01*
X105645187Y-104090500D01*
X105645194Y-104090499D01*
X105892759Y-104053185D01*
X105892760Y-104053184D01*
X105892764Y-104053184D01*
X106132013Y-103979385D01*
X106310264Y-103893543D01*
X106357584Y-103870756D01*
X106357584Y-103870755D01*
X106357592Y-103870752D01*
X106564460Y-103729712D01*
X106747997Y-103559414D01*
X106904102Y-103363665D01*
X107029289Y-103146835D01*
X107120760Y-102913769D01*
X107176474Y-102669673D01*
X107176480Y-102669597D01*
X107195184Y-102420004D01*
X107195184Y-102419995D01*
X107176475Y-102170336D01*
X107176474Y-102170331D01*
X107176474Y-102170327D01*
X107120760Y-101926231D01*
X107029289Y-101693165D01*
X106904102Y-101476335D01*
X106747997Y-101280586D01*
X106747996Y-101280585D01*
X106747993Y-101280581D01*
X106564460Y-101110288D01*
X106512480Y-101074849D01*
X106357592Y-100969248D01*
X106357588Y-100969246D01*
X106357585Y-100969244D01*
X106357584Y-100969243D01*
X106132015Y-100860616D01*
X106132017Y-100860616D01*
X105892765Y-100786816D01*
X105892759Y-100786814D01*
X105645194Y-100749500D01*
X105645187Y-100749500D01*
X105394813Y-100749500D01*
X105394805Y-100749500D01*
X105147240Y-100786814D01*
X105147234Y-100786816D01*
X104907983Y-100860616D01*
X104682415Y-100969243D01*
X104682414Y-100969244D01*
X104475539Y-101110288D01*
X104292006Y-101280581D01*
X104135898Y-101476335D01*
X104010711Y-101693164D01*
X103919242Y-101926225D01*
X103919236Y-101926244D01*
X103863525Y-102170331D01*
X103863524Y-102170336D01*
X103844816Y-102419995D01*
X103844816Y-102420004D01*
X100500500Y-102420004D01*
X100500500Y-100624500D01*
X100520185Y-100557461D01*
X100572989Y-100511706D01*
X100624500Y-100500500D01*
X151375500Y-100500500D01*
X151442539Y-100520185D01*
G37*
%TD.AperFunction*%
%TD*%
M02*
