%TF.GenerationSoftware,KiCad,Pcbnew,7.0.11+dfsg-1build4*%
%TF.CreationDate,2026-05-18T23:02:16-04:00*%
%TF.ProjectId,revv-g4,72657676-2d67-4342-9e6b-696361645f70,rev?*%
%TF.SameCoordinates,Original*%
%TF.FileFunction,Drillmap*%
%TF.FilePolarity,Positive*%
%FSLAX45Y45*%
G04 Gerber Fmt 4.5, Leading zero omitted, Abs format (unit mm)*
G04 Created by KiCad (PCBNEW 7.0.11+dfsg-1build4) date 2026-05-18 23:02:16*
%MOMM*%
%LPD*%
G01*
G04 APERTURE LIST*
%ADD10C,0.100000*%
%ADD11C,0.200000*%
G04 APERTURE END LIST*
D10*
X5000000Y-5000000D02*
X10800000Y-5000000D01*
X5000000Y-5000000D02*
X5000000Y-10763000D01*
X10794000Y-10761000D02*
X10800000Y-5000000D01*
X10794000Y-10761000D02*
X5000000Y-10763000D01*
D11*
X5255777Y-11079484D02*
X5255777Y-10879484D01*
X5255777Y-10879484D02*
X5303396Y-10879484D01*
X5303396Y-10879484D02*
X5331967Y-10889008D01*
X5331967Y-10889008D02*
X5351015Y-10908055D01*
X5351015Y-10908055D02*
X5360539Y-10927103D01*
X5360539Y-10927103D02*
X5370063Y-10965198D01*
X5370063Y-10965198D02*
X5370063Y-10993770D01*
X5370063Y-10993770D02*
X5360539Y-11031865D01*
X5360539Y-11031865D02*
X5351015Y-11050912D01*
X5351015Y-11050912D02*
X5331967Y-11069960D01*
X5331967Y-11069960D02*
X5303396Y-11079484D01*
X5303396Y-11079484D02*
X5255777Y-11079484D01*
X5455777Y-11079484D02*
X5455777Y-10946150D01*
X5455777Y-10984246D02*
X5465301Y-10965198D01*
X5465301Y-10965198D02*
X5474824Y-10955674D01*
X5474824Y-10955674D02*
X5493872Y-10946150D01*
X5493872Y-10946150D02*
X5512920Y-10946150D01*
X5579586Y-11079484D02*
X5579586Y-10946150D01*
X5579586Y-10879484D02*
X5570063Y-10889008D01*
X5570063Y-10889008D02*
X5579586Y-10898531D01*
X5579586Y-10898531D02*
X5589110Y-10889008D01*
X5589110Y-10889008D02*
X5579586Y-10879484D01*
X5579586Y-10879484D02*
X5579586Y-10898531D01*
X5703396Y-11079484D02*
X5684348Y-11069960D01*
X5684348Y-11069960D02*
X5674824Y-11050912D01*
X5674824Y-11050912D02*
X5674824Y-10879484D01*
X5808158Y-11079484D02*
X5789110Y-11069960D01*
X5789110Y-11069960D02*
X5779586Y-11050912D01*
X5779586Y-11050912D02*
X5779586Y-10879484D01*
X6036729Y-11079484D02*
X6036729Y-10879484D01*
X6036729Y-10879484D02*
X6103396Y-11022341D01*
X6103396Y-11022341D02*
X6170062Y-10879484D01*
X6170062Y-10879484D02*
X6170062Y-11079484D01*
X6351015Y-11079484D02*
X6351015Y-10974722D01*
X6351015Y-10974722D02*
X6341491Y-10955674D01*
X6341491Y-10955674D02*
X6322443Y-10946150D01*
X6322443Y-10946150D02*
X6284348Y-10946150D01*
X6284348Y-10946150D02*
X6265301Y-10955674D01*
X6351015Y-11069960D02*
X6331967Y-11079484D01*
X6331967Y-11079484D02*
X6284348Y-11079484D01*
X6284348Y-11079484D02*
X6265301Y-11069960D01*
X6265301Y-11069960D02*
X6255777Y-11050912D01*
X6255777Y-11050912D02*
X6255777Y-11031865D01*
X6255777Y-11031865D02*
X6265301Y-11012817D01*
X6265301Y-11012817D02*
X6284348Y-11003293D01*
X6284348Y-11003293D02*
X6331967Y-11003293D01*
X6331967Y-11003293D02*
X6351015Y-10993770D01*
X6446253Y-10946150D02*
X6446253Y-11146150D01*
X6446253Y-10955674D02*
X6465301Y-10946150D01*
X6465301Y-10946150D02*
X6503396Y-10946150D01*
X6503396Y-10946150D02*
X6522443Y-10955674D01*
X6522443Y-10955674D02*
X6531967Y-10965198D01*
X6531967Y-10965198D02*
X6541491Y-10984246D01*
X6541491Y-10984246D02*
X6541491Y-11041389D01*
X6541491Y-11041389D02*
X6531967Y-11060436D01*
X6531967Y-11060436D02*
X6522443Y-11069960D01*
X6522443Y-11069960D02*
X6503396Y-11079484D01*
X6503396Y-11079484D02*
X6465301Y-11079484D01*
X6465301Y-11079484D02*
X6446253Y-11069960D01*
X6627205Y-11060436D02*
X6636729Y-11069960D01*
X6636729Y-11069960D02*
X6627205Y-11079484D01*
X6627205Y-11079484D02*
X6617682Y-11069960D01*
X6617682Y-11069960D02*
X6627205Y-11060436D01*
X6627205Y-11060436D02*
X6627205Y-11079484D01*
X6627205Y-10955674D02*
X6636729Y-10965198D01*
X6636729Y-10965198D02*
X6627205Y-10974722D01*
X6627205Y-10974722D02*
X6617682Y-10965198D01*
X6617682Y-10965198D02*
X6627205Y-10955674D01*
X6627205Y-10955674D02*
X6627205Y-10974722D01*
M02*
