%TF.GenerationSoftware,KiCad,Pcbnew,7.0.11+dfsg-1build4*%
%TF.CreationDate,2025-12-07T17:12:29-05:00*%
%TF.ProjectId,whitefuzz,77686974-6566-4757-9a7a-2e6b69636164,rev?*%
%TF.SameCoordinates,Original*%
%TF.FileFunction,Soldermask,Top*%
%TF.FilePolarity,Negative*%
%FSLAX46Y46*%
G04 Gerber Fmt 4.6, Leading zero omitted, Abs format (unit mm)*
G04 Created by KiCad (PCBNEW 7.0.11+dfsg-1build4) date 2025-12-07 17:12:29*
%MOMM*%
%LPD*%
G01*
G04 APERTURE LIST*
%ADD10C,1.600000*%
%ADD11O,1.600000X1.600000*%
%ADD12C,2.340000*%
%ADD13C,2.000000*%
%ADD14R,1.700000X1.700000*%
%ADD15O,1.700000X1.700000*%
%ADD16R,1.600000X1.600000*%
%ADD17R,1.050000X1.500000*%
%ADD18O,1.050000X1.500000*%
G04 APERTURE END LIST*
D10*
%TO.C,R10*%
X113792000Y-124333000D03*
D11*
X121412000Y-124333000D03*
%TD*%
D10*
%TO.C,R9*%
X113792000Y-120777000D03*
D11*
X121412000Y-120777000D03*
%TD*%
D12*
%TO.C,RV1*%
X148684000Y-102971600D03*
X143684000Y-102971600D03*
X138684000Y-102971600D03*
%TD*%
D10*
%TO.C,R13*%
X141605000Y-111252000D03*
D11*
X149225000Y-111252000D03*
%TD*%
D13*
%TO.C,C1*%
X125643000Y-107315000D03*
X130643000Y-107315000D03*
%TD*%
D10*
%TO.C,R12*%
X102235000Y-117221000D03*
D11*
X109855000Y-117221000D03*
%TD*%
D14*
%TO.C,J1*%
X129540000Y-127127000D03*
D15*
X132080000Y-127127000D03*
X134620000Y-127127000D03*
X137160000Y-127127000D03*
%TD*%
D13*
%TO.C,C2*%
X125683000Y-111125000D03*
X130683000Y-111125000D03*
%TD*%
%TO.C,C6*%
X125516000Y-118110000D03*
X130516000Y-118110000D03*
%TD*%
D16*
%TO.C,C4*%
X102910000Y-123571000D03*
D10*
X105410000Y-123571000D03*
%TD*%
%TO.C,R8*%
X113792000Y-117221000D03*
D11*
X121412000Y-117221000D03*
%TD*%
D10*
%TO.C,R6*%
X141605000Y-107823000D03*
D11*
X149225000Y-107823000D03*
%TD*%
D10*
%TO.C,R14*%
X141478000Y-115189000D03*
D11*
X149098000Y-115189000D03*
%TD*%
D12*
%TO.C,RV3*%
X131208800Y-102971600D03*
X126208800Y-102971600D03*
X121208800Y-102971600D03*
%TD*%
D10*
%TO.C,R7*%
X113665000Y-113792000D03*
D11*
X121285000Y-113792000D03*
%TD*%
D10*
%TO.C,R4*%
X102235000Y-110363000D03*
D11*
X109855000Y-110363000D03*
%TD*%
D17*
%TO.C,Q3*%
X134239000Y-109326000D03*
D18*
X135509000Y-109326000D03*
X136779000Y-109326000D03*
%TD*%
D16*
%TO.C,C7*%
X119920000Y-108204000D03*
D10*
X121920000Y-108204000D03*
%TD*%
%TO.C,R16*%
X141478000Y-123289000D03*
D11*
X149098000Y-123289000D03*
%TD*%
D10*
%TO.C,R3*%
X102235000Y-107061000D03*
D11*
X109855000Y-107061000D03*
%TD*%
D10*
%TO.C,R5*%
X102235000Y-113665000D03*
D11*
X109855000Y-113665000D03*
%TD*%
D10*
%TO.C,R11*%
X124841000Y-121793000D03*
D11*
X132461000Y-121793000D03*
%TD*%
D13*
%TO.C,C5*%
X125683000Y-114681000D03*
X130683000Y-114681000D03*
%TD*%
D10*
%TO.C,R15*%
X141478000Y-119239000D03*
D11*
X149098000Y-119239000D03*
%TD*%
D16*
%TO.C,C3*%
X134525000Y-116078000D03*
D10*
X136525000Y-116078000D03*
%TD*%
D17*
%TO.C,Q2*%
X113411000Y-108437000D03*
D18*
X114681000Y-108437000D03*
X115951000Y-108437000D03*
%TD*%
D12*
%TO.C,RV2*%
X113792000Y-102971600D03*
X108792000Y-102971600D03*
X103792000Y-102971600D03*
%TD*%
M02*
