M48
; DRILL file {KiCad 7.0.11+dfsg-1build4} date Sun 07 Dec 2025 05:12:27 PM EST
; FORMAT={-:-/ absolute / metric / decimal}
; #@! TF.CreationDate,2025-12-07T17:12:27-05:00
; #@! TF.GenerationSoftware,Kicad,Pcbnew,7.0.11+dfsg-1build4
; #@! TF.FileFunction,Plated,1,2,PTH
FMAT,2
METRIC
; #@! TA.AperFunction,Plated,PTH,ComponentDrill
T1C0.750
; #@! TA.AperFunction,Plated,PTH,ComponentDrill
T2C0.800
; #@! TA.AperFunction,Plated,PTH,ComponentDrill
T3C1.000
; #@! TA.AperFunction,Plated,PTH,ComponentDrill
T4C1.300
%
G90
G05
T1
X113.411Y-108.437
X114.681Y-108.437
X115.951Y-108.437
X134.239Y-109.326
X135.509Y-109.326
X136.779Y-109.326
T2
X102.235Y-107.061
X102.235Y-110.363
X102.235Y-113.665
X102.235Y-117.221
X102.91Y-123.571
X105.41Y-123.571
X109.855Y-107.061
X109.855Y-110.363
X109.855Y-113.665
X109.855Y-117.221
X113.665Y-113.792
X113.792Y-117.221
X113.792Y-120.777
X113.792Y-124.333
X119.92Y-108.204
X121.285Y-113.792
X121.412Y-117.221
X121.412Y-120.777
X121.412Y-124.333
X121.92Y-108.204
X124.841Y-121.793
X132.461Y-121.793
X134.525Y-116.078
X136.525Y-116.078
X141.478Y-115.189
X141.478Y-119.239
X141.478Y-123.289
X141.605Y-107.823
X141.605Y-111.252
X149.098Y-115.189
X149.098Y-119.239
X149.098Y-123.289
X149.225Y-107.823
X149.225Y-111.252
T3
X125.516Y-118.11
X125.643Y-107.315
X125.683Y-111.125
X125.683Y-114.681
X129.54Y-127.127
X130.516Y-118.11
X130.643Y-107.315
X130.683Y-111.125
X130.683Y-114.681
X132.08Y-127.127
X134.62Y-127.127
X137.16Y-127.127
T4
X103.792Y-102.972
X108.792Y-102.972
X113.792Y-102.972
X121.209Y-102.972
X126.209Y-102.972
X131.209Y-102.972
X138.684Y-102.972
X143.684Y-102.972
X148.684Y-102.972
M30
