%TF.GenerationSoftware,KiCad,Pcbnew,7.0.11+dfsg-1build4*%
%TF.CreationDate,2025-11-16T21:21:00-05:00*%
%TF.ProjectId,Distortion-01-BMP,44697374-6f72-4746-996f-6e2d30312d42,rev?*%
%TF.SameCoordinates,Original*%
%TF.FileFunction,Copper,L1,Top*%
%TF.FilePolarity,Positive*%
%FSLAX46Y46*%
G04 Gerber Fmt 4.6, Leading zero omitted, Abs format (unit mm)*
G04 Created by KiCad (PCBNEW 7.0.11+dfsg-1build4) date 2025-11-16 21:21:00*
%MOMM*%
%LPD*%
G01*
G04 APERTURE LIST*
%TA.AperFunction,ComponentPad*%
%ADD10R,1.600000X1.600000*%
%TD*%
%TA.AperFunction,ComponentPad*%
%ADD11C,1.600000*%
%TD*%
%TA.AperFunction,ComponentPad*%
%ADD12C,2.000000*%
%TD*%
%TA.AperFunction,ComponentPad*%
%ADD13O,1.800000X1.800000*%
%TD*%
%TA.AperFunction,ComponentPad*%
%ADD14R,1.800000X1.800000*%
%TD*%
%TA.AperFunction,ComponentPad*%
%ADD15R,1.700000X1.700000*%
%TD*%
%TA.AperFunction,ComponentPad*%
%ADD16O,1.700000X1.700000*%
%TD*%
%TA.AperFunction,ComponentPad*%
%ADD17R,1.050000X1.500000*%
%TD*%
%TA.AperFunction,ComponentPad*%
%ADD18O,1.050000X1.500000*%
%TD*%
%TA.AperFunction,ComponentPad*%
%ADD19O,1.600000X1.600000*%
%TD*%
%TA.AperFunction,ComponentPad*%
%ADD20C,2.340000*%
%TD*%
%TA.AperFunction,ViaPad*%
%ADD21C,0.800000*%
%TD*%
%TA.AperFunction,Conductor*%
%ADD22C,0.250000*%
%TD*%
G04 APERTURE END LIST*
D10*
X150368000Y-53594000D03*
D11*
X152368000Y-53594000D03*
D12*
X151892000Y-62484000D03*
X151892000Y-67484000D03*
D10*
X139954000Y-53340000D03*
D11*
X137954000Y-53340000D03*
D10*
X130810000Y-77978000D03*
D11*
X130810000Y-75978000D03*
D12*
X146050000Y-97536000D03*
X151050000Y-97536000D03*
X136906000Y-86360000D03*
X131906000Y-86360000D03*
D10*
X123952000Y-77978000D03*
D11*
X123952000Y-75978000D03*
D12*
X117094000Y-82296000D03*
X122094000Y-82296000D03*
X121920000Y-86868000D03*
X116920000Y-86868000D03*
X121666000Y-91694000D03*
X116666000Y-91694000D03*
D10*
X103886000Y-69342000D03*
D11*
X101886000Y-69342000D03*
D13*
X152400000Y-93726000D03*
D14*
X144780000Y-93726000D03*
X152400000Y-89916000D03*
D13*
X144780000Y-89916000D03*
D14*
X127254000Y-63500000D03*
D13*
X119634000Y-63500000D03*
D14*
X119380000Y-59690000D03*
D13*
X127000000Y-59690000D03*
D15*
X122936000Y-98552000D03*
D16*
X125476000Y-98552000D03*
X128016000Y-98552000D03*
X130556000Y-98552000D03*
D17*
X144018000Y-53848000D03*
D18*
X145288000Y-53848000D03*
X146558000Y-53848000D03*
X138684000Y-76962000D03*
X137414000Y-76962000D03*
D17*
X136144000Y-76962000D03*
X130048000Y-60706000D03*
D18*
X131318000Y-60706000D03*
X132588000Y-60706000D03*
X118872000Y-76708000D03*
X117602000Y-76708000D03*
D17*
X116332000Y-76708000D03*
D11*
X138176000Y-72136000D03*
D19*
X138176000Y-61976000D03*
D11*
X141732000Y-61976000D03*
D19*
X141732000Y-72136000D03*
D11*
X145034000Y-72136000D03*
D19*
X145034000Y-61976000D03*
D11*
X148336000Y-72136000D03*
D19*
X148336000Y-61976000D03*
D11*
X152908000Y-75184000D03*
D19*
X142748000Y-75184000D03*
D11*
X152908000Y-78740000D03*
D19*
X142748000Y-78740000D03*
D11*
X142748000Y-82296000D03*
D19*
X152908000Y-82296000D03*
D11*
X152908000Y-86106000D03*
D19*
X142748000Y-86106000D03*
D11*
X129540000Y-82550000D03*
D19*
X139700000Y-82550000D03*
D11*
X139700000Y-90678000D03*
D19*
X129540000Y-90678000D03*
D11*
X128778000Y-94742000D03*
D19*
X138938000Y-94742000D03*
D11*
X115570000Y-72136000D03*
D19*
X115570000Y-61976000D03*
D11*
X134112000Y-55880000D03*
D19*
X123952000Y-55880000D03*
D11*
X134112000Y-52070000D03*
D19*
X123952000Y-52070000D03*
D11*
X111506000Y-61976000D03*
D19*
X111506000Y-72136000D03*
D11*
X112522000Y-86868000D03*
D19*
X102362000Y-86868000D03*
D11*
X102362000Y-82550000D03*
D19*
X112522000Y-82550000D03*
X102108000Y-90932000D03*
D11*
X112268000Y-90932000D03*
D19*
X112268000Y-74930000D03*
D11*
X102108000Y-74930000D03*
D19*
X102362000Y-78740000D03*
D11*
X112522000Y-78740000D03*
D20*
X150300000Y-58700000D03*
X145300000Y-58700000D03*
X140300000Y-58700000D03*
X131900000Y-71150000D03*
X126900000Y-71150000D03*
X121900000Y-71150000D03*
X114200000Y-58800000D03*
X109200000Y-58800000D03*
X104200000Y-58800000D03*
D19*
X134112000Y-67056000D03*
D11*
X123952000Y-67056000D03*
D12*
X119554000Y-53340000D03*
X114554000Y-53340000D03*
X107696000Y-67992000D03*
X107696000Y-62992000D03*
D21*
X125730000Y-89408000D03*
X132334000Y-80264000D03*
D22*
X142531999Y-58128001D02*
X145288000Y-55372000D01*
X145034000Y-65278000D02*
X141732000Y-61976000D01*
X145034000Y-72136000D02*
X145034000Y-65278000D01*
X150477787Y-67484000D02*
X151892000Y-67484000D01*
X141732000Y-61976000D02*
X142531999Y-61176001D01*
X145034000Y-72136000D02*
X149686000Y-67484000D01*
X142531999Y-61176001D02*
X142531999Y-58128001D01*
X149686000Y-67484000D02*
X150477787Y-67484000D01*
X145288000Y-55372000D02*
X145288000Y-53848000D01*
X148336000Y-61976000D02*
X147204630Y-61976000D01*
X141004000Y-53340000D02*
X141571010Y-52772990D01*
X145736990Y-52772990D02*
X145796000Y-52832000D01*
X141571010Y-52772990D02*
X145736990Y-52772990D01*
X145796000Y-52832000D02*
X145796000Y-52928905D01*
X147204630Y-61976000D02*
X145034000Y-61976000D01*
X139954000Y-53340000D02*
X141004000Y-53340000D01*
X151892000Y-62484000D02*
X148844000Y-62484000D01*
X148336000Y-54851000D02*
X147333000Y-53848000D01*
X148844000Y-62484000D02*
X148336000Y-61976000D01*
X146558000Y-53690905D02*
X146558000Y-53848000D01*
X147333000Y-53848000D02*
X146558000Y-53848000D01*
X145796000Y-52928905D02*
X146558000Y-53690905D01*
X148336000Y-61976000D02*
X148336000Y-54851000D01*
X140300000Y-58700000D02*
X137954000Y-56354000D01*
X137954000Y-56354000D02*
X137954000Y-53340000D01*
X152400000Y-93726000D02*
X152400000Y-89916000D01*
X152400000Y-96186000D02*
X152400000Y-93726000D01*
X151050000Y-97536000D02*
X152400000Y-96186000D01*
X129540000Y-90678000D02*
X129540000Y-89546630D01*
X136906000Y-86360000D02*
X139700000Y-83566000D01*
X139700000Y-82550000D02*
X139700000Y-77203000D01*
X123952000Y-83958630D02*
X123952000Y-77978000D01*
X139700000Y-83566000D02*
X139700000Y-82550000D01*
X139459000Y-76962000D02*
X138684000Y-76962000D01*
X129540000Y-89546630D02*
X123952000Y-83958630D01*
X139700000Y-77203000D02*
X139459000Y-76962000D01*
X144780000Y-89916000D02*
X149098000Y-89916000D01*
X144780000Y-93726000D02*
X144780000Y-89916000D01*
X149098000Y-89916000D02*
X152908000Y-86106000D01*
X152908000Y-86106000D02*
X152908000Y-82296000D01*
X131906000Y-84916000D02*
X129540000Y-82550000D01*
X131906000Y-86360000D02*
X131906000Y-84916000D01*
X123952000Y-75978000D02*
X123952000Y-74846630D01*
X123952000Y-74846630D02*
X123952000Y-67056000D01*
X114554000Y-56014000D02*
X114554000Y-54754213D01*
X119380000Y-59690000D02*
X118230000Y-59690000D01*
X119634000Y-63500000D02*
X119634000Y-59944000D01*
X119634000Y-59944000D02*
X119380000Y-59690000D01*
X114554000Y-54754213D02*
X114554000Y-53340000D01*
X118230000Y-59690000D02*
X114554000Y-56014000D01*
X130794000Y-57912000D02*
X132588000Y-59706000D01*
X127115370Y-57912000D02*
X130794000Y-57912000D01*
X123952000Y-55880000D02*
X122094000Y-55880000D01*
X117094000Y-82296000D02*
X116840000Y-82296000D01*
X123952000Y-55880000D02*
X125083370Y-55880000D01*
X116920000Y-86868000D02*
X116920000Y-82470000D01*
X111506000Y-61976000D02*
X115570000Y-61976000D01*
X116920000Y-82470000D02*
X117094000Y-82296000D01*
X132588000Y-59706000D02*
X132588000Y-60706000D01*
X125083370Y-55880000D02*
X127115370Y-57912000D01*
X122094000Y-55880000D02*
X119554000Y-53340000D01*
X123074630Y-63500000D02*
X126104000Y-63500000D01*
X115570000Y-71004630D02*
X123074630Y-63500000D01*
X126104000Y-63500000D02*
X127254000Y-63500000D01*
X133312001Y-63970001D02*
X131318000Y-61976000D01*
X131242999Y-59630999D02*
X131318000Y-59706000D01*
X133312001Y-66256001D02*
X133312001Y-63970001D01*
X131318000Y-61976000D02*
X131318000Y-61706000D01*
X127000000Y-59690000D02*
X127000000Y-63246000D01*
X131318000Y-61706000D02*
X131318000Y-60706000D01*
X128331793Y-59630999D02*
X131242999Y-59630999D01*
X115570000Y-72136000D02*
X115570000Y-71004630D01*
X127000000Y-59690000D02*
X128272792Y-59690000D01*
X128272792Y-59690000D02*
X128331793Y-59630999D01*
X134112000Y-67056000D02*
X133312001Y-66256001D01*
X127000000Y-63246000D02*
X127254000Y-63500000D01*
X131318000Y-59706000D02*
X131318000Y-60706000D01*
X112522000Y-86868000D02*
X113847001Y-88193001D01*
X113847001Y-88193001D02*
X120594999Y-88193001D01*
X120594999Y-88193001D02*
X121920000Y-86868000D01*
X142748000Y-75184000D02*
X141732000Y-74168000D01*
X143873001Y-84980999D02*
X143873001Y-79865001D01*
X131826000Y-94742000D02*
X138938000Y-94742000D01*
X142748000Y-90932000D02*
X142748000Y-86106000D01*
X113030001Y-57630001D02*
X113030001Y-52902997D01*
X102108000Y-87122000D02*
X102362000Y-86868000D01*
X103487001Y-79865001D02*
X103161999Y-79539999D01*
X102108000Y-90932000D02*
X102108000Y-87122000D01*
X123152001Y-51270001D02*
X123952000Y-52070000D01*
X114662997Y-51270001D02*
X123152001Y-51270001D01*
X138938000Y-94742000D02*
X142748000Y-90932000D01*
X103161999Y-79539999D02*
X102362000Y-78740000D01*
X141732000Y-74168000D02*
X141732000Y-72136000D01*
X111888000Y-58800000D02*
X114200000Y-58800000D01*
X113030001Y-52902997D02*
X114662997Y-51270001D01*
X128016000Y-98552000D02*
X131826000Y-94742000D01*
X102362000Y-85736630D02*
X103487001Y-84611629D01*
X103487001Y-84611629D02*
X103487001Y-79865001D01*
X142748000Y-78740000D02*
X142748000Y-75184000D01*
X114200000Y-58800000D02*
X113030001Y-57630001D01*
X143873001Y-79865001D02*
X142748000Y-78740000D01*
X102362000Y-86868000D02*
X102362000Y-85736630D01*
X142748000Y-86106000D02*
X143873001Y-84980999D01*
X107696000Y-62992000D02*
X111888000Y-58800000D01*
X113907370Y-73406000D02*
X119644000Y-73406000D01*
X107696000Y-68326000D02*
X107696000Y-67992000D01*
X111506000Y-72136000D02*
X112637370Y-72136000D01*
X111506000Y-72136000D02*
X107696000Y-68326000D01*
X119644000Y-73406000D02*
X121900000Y-71150000D01*
X112637370Y-72136000D02*
X113907370Y-73406000D01*
X111722001Y-83349999D02*
X112522000Y-82550000D01*
X112268000Y-90932000D02*
X115904000Y-90932000D01*
X113321999Y-81750001D02*
X113559999Y-81750001D01*
X112268000Y-89800630D02*
X111396999Y-88929629D01*
X113559999Y-81750001D02*
X117602000Y-77708000D01*
X112522000Y-82550000D02*
X113321999Y-81750001D01*
X111396999Y-88929629D02*
X111396999Y-83675001D01*
X111396999Y-83675001D02*
X111722001Y-83349999D01*
X112268000Y-90932000D02*
X112268000Y-89800630D01*
X115904000Y-90932000D02*
X116666000Y-91694000D01*
X117602000Y-77708000D02*
X117602000Y-76708000D01*
X101886000Y-61114000D02*
X104200000Y-58800000D01*
X101886000Y-69342000D02*
X101886000Y-61114000D01*
X103886000Y-69342000D02*
X106680000Y-69342000D01*
X118094000Y-74930000D02*
X118872000Y-75708000D01*
X106680000Y-69342000D02*
X112268000Y-74930000D01*
X118872000Y-75708000D02*
X118872000Y-76708000D01*
X112268000Y-74930000D02*
X118094000Y-74930000D01*
X100760999Y-58243001D02*
X101699001Y-57304999D01*
X129706001Y-99401999D02*
X129452001Y-99401999D01*
X117507001Y-99727001D02*
X105156000Y-87376000D01*
X105156000Y-87376000D02*
X105156000Y-74930000D01*
X129452001Y-99401999D02*
X129126999Y-99727001D01*
X108030001Y-57630001D02*
X109200000Y-58800000D01*
X105156000Y-74930000D02*
X100760999Y-70534999D01*
X101699001Y-57304999D02*
X107704999Y-57304999D01*
X130556000Y-98552000D02*
X129706001Y-99401999D01*
X107704999Y-57304999D02*
X108030001Y-57630001D01*
X129126999Y-99727001D02*
X117507001Y-99727001D01*
X100760999Y-70534999D02*
X100760999Y-58243001D01*
X101308001Y-75729999D02*
X102108000Y-74930000D01*
X101236999Y-75801001D02*
X101308001Y-75729999D01*
X101236999Y-81424999D02*
X101236999Y-75801001D01*
X102362000Y-82550000D02*
X101236999Y-81424999D01*
X122936000Y-98552000D02*
X122936000Y-92202000D01*
X122936000Y-92202000D02*
X125730000Y-89408000D01*
X132334000Y-80264000D02*
X132334000Y-77978000D01*
X132334000Y-77978000D02*
X138176000Y-72136000D01*
X135369000Y-76962000D02*
X136144000Y-76962000D01*
X134366000Y-89154000D02*
X134366000Y-77965000D01*
X134366000Y-77965000D02*
X135369000Y-76962000D01*
X128778000Y-94742000D02*
X134366000Y-89154000D01*
X114554000Y-76708000D02*
X116332000Y-76708000D01*
X112522000Y-78740000D02*
X114554000Y-76708000D01*
X151782999Y-77614999D02*
X151782999Y-71229001D01*
X153217001Y-69794999D02*
X153217001Y-61617001D01*
X153217001Y-61617001D02*
X151469999Y-59869999D01*
X152908000Y-78740000D02*
X151782999Y-77614999D01*
X151782999Y-71229001D02*
X153217001Y-69794999D01*
X151469999Y-59869999D02*
X150300000Y-58700000D01*
%TA.AperFunction,Conductor*%
G36*
X103417714Y-74088715D02*
G01*
X103428138Y-74098042D01*
X104485595Y-75155499D01*
X104519621Y-75217811D01*
X104522500Y-75244594D01*
X104522500Y-87292146D01*
X104520751Y-87307988D01*
X104521044Y-87308016D01*
X104520298Y-87315907D01*
X104520298Y-87315909D01*
X104520690Y-87328365D01*
X104522438Y-87383984D01*
X104522500Y-87387943D01*
X104522500Y-87415851D01*
X104522501Y-87415869D01*
X104523007Y-87419877D01*
X104523937Y-87431696D01*
X104525326Y-87475888D01*
X104525327Y-87475893D01*
X104530977Y-87495339D01*
X104534986Y-87514697D01*
X104537525Y-87534793D01*
X104537526Y-87534800D01*
X104553800Y-87575903D01*
X104557644Y-87587129D01*
X104569982Y-87629593D01*
X104580294Y-87647031D01*
X104588988Y-87664779D01*
X104596444Y-87683609D01*
X104596450Y-87683620D01*
X104622432Y-87719381D01*
X104628949Y-87729301D01*
X104651458Y-87767362D01*
X104651459Y-87767363D01*
X104651461Y-87767366D01*
X104665779Y-87781684D01*
X104678617Y-87796714D01*
X104690526Y-87813104D01*
X104690530Y-87813109D01*
X104724598Y-87841292D01*
X104733378Y-87849282D01*
X116745000Y-99860905D01*
X116779026Y-99923217D01*
X116773961Y-99994032D01*
X116731414Y-100050868D01*
X116664894Y-100075679D01*
X116655905Y-100076000D01*
X100964000Y-100076000D01*
X100895879Y-100055998D01*
X100849386Y-100002342D01*
X100838000Y-99950000D01*
X100838000Y-91798301D01*
X100858002Y-91730180D01*
X100911658Y-91683687D01*
X100981932Y-91673583D01*
X101046512Y-91703077D01*
X101067213Y-91726030D01*
X101102184Y-91775974D01*
X101102189Y-91775980D01*
X101264019Y-91937810D01*
X101264025Y-91937815D01*
X101451501Y-92069087D01*
X101658926Y-92165811D01*
X101658931Y-92165813D01*
X101854000Y-92218081D01*
X101854000Y-91243686D01*
X101869955Y-91259641D01*
X101982852Y-91317165D01*
X102076519Y-91332000D01*
X102139481Y-91332000D01*
X102233148Y-91317165D01*
X102346045Y-91259641D01*
X102362000Y-91243686D01*
X102362000Y-92218081D01*
X102557068Y-92165813D01*
X102557073Y-92165811D01*
X102764498Y-92069087D01*
X102951974Y-91937815D01*
X102951980Y-91937810D01*
X103113810Y-91775980D01*
X103113815Y-91775974D01*
X103245087Y-91588498D01*
X103341811Y-91381073D01*
X103341813Y-91381068D01*
X103394082Y-91186000D01*
X102419686Y-91186000D01*
X102435641Y-91170045D01*
X102493165Y-91057148D01*
X102512986Y-90932000D01*
X102493165Y-90806852D01*
X102435641Y-90693955D01*
X102419686Y-90678000D01*
X103394082Y-90678000D01*
X103341813Y-90482931D01*
X103341811Y-90482926D01*
X103245087Y-90275501D01*
X103113815Y-90088025D01*
X103113810Y-90088019D01*
X102951980Y-89926189D01*
X102951974Y-89926184D01*
X102764498Y-89794912D01*
X102557073Y-89698188D01*
X102557071Y-89698187D01*
X102362000Y-89645917D01*
X102362000Y-90620314D01*
X102346045Y-90604359D01*
X102233148Y-90546835D01*
X102139481Y-90532000D01*
X102076519Y-90532000D01*
X101982852Y-90546835D01*
X101869955Y-90604359D01*
X101854000Y-90620314D01*
X101854000Y-89645917D01*
X101853999Y-89645917D01*
X101658928Y-89698187D01*
X101658926Y-89698188D01*
X101451501Y-89794912D01*
X101264025Y-89926184D01*
X101264019Y-89926189D01*
X101102189Y-90088019D01*
X101102183Y-90088026D01*
X101067213Y-90137969D01*
X101011755Y-90182298D01*
X100941136Y-90189606D01*
X100877776Y-90157575D01*
X100841791Y-90096373D01*
X100838000Y-90065698D01*
X100838000Y-87191144D01*
X100858002Y-87123023D01*
X100911658Y-87076530D01*
X100981932Y-87066426D01*
X101046512Y-87095920D01*
X101084896Y-87155646D01*
X101085707Y-87158533D01*
X101128186Y-87317068D01*
X101128188Y-87317073D01*
X101224912Y-87524498D01*
X101356184Y-87711974D01*
X101356189Y-87711980D01*
X101518019Y-87873810D01*
X101518025Y-87873815D01*
X101705501Y-88005087D01*
X101912926Y-88101811D01*
X101912931Y-88101813D01*
X102108000Y-88154081D01*
X102108000Y-87179686D01*
X102123955Y-87195641D01*
X102236852Y-87253165D01*
X102330519Y-87268000D01*
X102393481Y-87268000D01*
X102487148Y-87253165D01*
X102600045Y-87195641D01*
X102616000Y-87179686D01*
X102616000Y-88154081D01*
X102811068Y-88101813D01*
X102811073Y-88101811D01*
X103018498Y-88005087D01*
X103205974Y-87873815D01*
X103205980Y-87873810D01*
X103367810Y-87711980D01*
X103367815Y-87711974D01*
X103499087Y-87524498D01*
X103595811Y-87317073D01*
X103595813Y-87317068D01*
X103648082Y-87122000D01*
X102673686Y-87122000D01*
X102689641Y-87106045D01*
X102747165Y-86993148D01*
X102766986Y-86868000D01*
X102747165Y-86742852D01*
X102689641Y-86629955D01*
X102673686Y-86614000D01*
X103648082Y-86614000D01*
X103595813Y-86418931D01*
X103595811Y-86418926D01*
X103499087Y-86211501D01*
X103367815Y-86024025D01*
X103367810Y-86024019D01*
X103205980Y-85862189D01*
X103205974Y-85862184D01*
X103018498Y-85730912D01*
X102811073Y-85634188D01*
X102811071Y-85634187D01*
X102616000Y-85581917D01*
X102616000Y-86556314D01*
X102600045Y-86540359D01*
X102487148Y-86482835D01*
X102393481Y-86468000D01*
X102330519Y-86468000D01*
X102236852Y-86482835D01*
X102123955Y-86540359D01*
X102108000Y-86556314D01*
X102108000Y-85581917D01*
X102107999Y-85581917D01*
X101912928Y-85634187D01*
X101912926Y-85634188D01*
X101705501Y-85730912D01*
X101518025Y-85862184D01*
X101518019Y-85862189D01*
X101356189Y-86024019D01*
X101356184Y-86024025D01*
X101224912Y-86211501D01*
X101128188Y-86418926D01*
X101128186Y-86418931D01*
X101085707Y-86577466D01*
X101048755Y-86638089D01*
X100984894Y-86669110D01*
X100914400Y-86660682D01*
X100859653Y-86615479D01*
X100838036Y-86547853D01*
X100838000Y-86544855D01*
X100838000Y-82875073D01*
X100858002Y-82806952D01*
X100911658Y-82760459D01*
X100981932Y-82750355D01*
X101046512Y-82779849D01*
X101084896Y-82839575D01*
X101085693Y-82842412D01*
X101115258Y-82952749D01*
X101127715Y-82999240D01*
X101127717Y-82999246D01*
X101224477Y-83206749D01*
X101347511Y-83382460D01*
X101355802Y-83394300D01*
X101517700Y-83556198D01*
X101705251Y-83687523D01*
X101912757Y-83784284D01*
X102133913Y-83843543D01*
X102362000Y-83863498D01*
X102590087Y-83843543D01*
X102811243Y-83784284D01*
X103018749Y-83687523D01*
X103206300Y-83556198D01*
X103368198Y-83394300D01*
X103499523Y-83206749D01*
X103596284Y-82999243D01*
X103655543Y-82778087D01*
X103675498Y-82550000D01*
X103655543Y-82321913D01*
X103596284Y-82100757D01*
X103499523Y-81893251D01*
X103368198Y-81705700D01*
X103206300Y-81543802D01*
X103018749Y-81412477D01*
X102945589Y-81378362D01*
X102811246Y-81315717D01*
X102811240Y-81315715D01*
X102658864Y-81274886D01*
X102590087Y-81256457D01*
X102362000Y-81236502D01*
X102133913Y-81256457D01*
X102133910Y-81256457D01*
X102133907Y-81256458D01*
X102070457Y-81273459D01*
X101999481Y-81271769D01*
X101948752Y-81240847D01*
X101907404Y-81199499D01*
X101873378Y-81137187D01*
X101870499Y-81110404D01*
X101870499Y-80126650D01*
X101890501Y-80058529D01*
X101944157Y-80012036D01*
X102014431Y-80001932D01*
X102029111Y-80004943D01*
X102108000Y-80026081D01*
X102108000Y-79051686D01*
X102123955Y-79067641D01*
X102236852Y-79125165D01*
X102330519Y-79140000D01*
X102393481Y-79140000D01*
X102487148Y-79125165D01*
X102600045Y-79067641D01*
X102616000Y-79051686D01*
X102616000Y-80026081D01*
X102811068Y-79973813D01*
X102811073Y-79973811D01*
X103018498Y-79877087D01*
X103205974Y-79745815D01*
X103205980Y-79745810D01*
X103367810Y-79583980D01*
X103367815Y-79583974D01*
X103499087Y-79396498D01*
X103595811Y-79189073D01*
X103595813Y-79189068D01*
X103648082Y-78994000D01*
X102673686Y-78994000D01*
X102689641Y-78978045D01*
X102747165Y-78865148D01*
X102766986Y-78740000D01*
X102747165Y-78614852D01*
X102689641Y-78501955D01*
X102673686Y-78486000D01*
X103648082Y-78486000D01*
X103595813Y-78290931D01*
X103595811Y-78290926D01*
X103499087Y-78083501D01*
X103367815Y-77896025D01*
X103367810Y-77896019D01*
X103205980Y-77734189D01*
X103205974Y-77734184D01*
X103018498Y-77602912D01*
X102811073Y-77506188D01*
X102811071Y-77506187D01*
X102616000Y-77453917D01*
X102616000Y-78428314D01*
X102600045Y-78412359D01*
X102487148Y-78354835D01*
X102393481Y-78340000D01*
X102330519Y-78340000D01*
X102236852Y-78354835D01*
X102123955Y-78412359D01*
X102108000Y-78428314D01*
X102108000Y-77453917D01*
X102107998Y-77453916D01*
X102029110Y-77475055D01*
X101958133Y-77473365D01*
X101899338Y-77433571D01*
X101871390Y-77368306D01*
X101870499Y-77353348D01*
X101870499Y-76360224D01*
X101890501Y-76292103D01*
X101944157Y-76245610D01*
X102007478Y-76234703D01*
X102108000Y-76243498D01*
X102336087Y-76223543D01*
X102557243Y-76164284D01*
X102764749Y-76067523D01*
X102952300Y-75936198D01*
X103114198Y-75774300D01*
X103245523Y-75586749D01*
X103342284Y-75379243D01*
X103401543Y-75158087D01*
X103421498Y-74930000D01*
X103401543Y-74701913D01*
X103342284Y-74480757D01*
X103245523Y-74273251D01*
X103235830Y-74259408D01*
X103213142Y-74192135D01*
X103230427Y-74123274D01*
X103282196Y-74074690D01*
X103352014Y-74061806D01*
X103417714Y-74088715D01*
G37*
%TD.AperFunction*%
%TA.AperFunction,Conductor*%
G36*
X153104910Y-51074280D02*
G01*
X153151663Y-51127709D01*
X153163298Y-51179301D01*
X153175196Y-52327548D01*
X153155901Y-52395873D01*
X153102730Y-52442919D01*
X153032565Y-52453751D01*
X152995954Y-52443049D01*
X152817250Y-52359719D01*
X152817246Y-52359717D01*
X152817243Y-52359716D01*
X152817241Y-52359715D01*
X152817240Y-52359715D01*
X152661569Y-52318003D01*
X152596087Y-52300457D01*
X152368000Y-52280502D01*
X152139913Y-52300457D01*
X151918759Y-52359715D01*
X151918753Y-52359717D01*
X151711245Y-52456479D01*
X151711243Y-52456480D01*
X151705785Y-52460303D01*
X151638510Y-52482988D01*
X151569650Y-52465700D01*
X151537664Y-52437080D01*
X151537634Y-52437111D01*
X151537093Y-52436570D01*
X151532650Y-52432595D01*
X151531261Y-52430739D01*
X151531259Y-52430737D01*
X151531258Y-52430736D01*
X151414207Y-52343112D01*
X151414202Y-52343110D01*
X151277204Y-52292011D01*
X151277196Y-52292009D01*
X151216649Y-52285500D01*
X151216638Y-52285500D01*
X149519362Y-52285500D01*
X149519350Y-52285500D01*
X149458803Y-52292009D01*
X149458795Y-52292011D01*
X149321797Y-52343110D01*
X149321792Y-52343112D01*
X149204738Y-52430738D01*
X149117112Y-52547792D01*
X149117110Y-52547797D01*
X149066011Y-52684795D01*
X149066009Y-52684803D01*
X149059500Y-52745350D01*
X149059500Y-54374404D01*
X149039498Y-54442525D01*
X148985842Y-54489018D01*
X148915568Y-54499122D01*
X148850988Y-54469628D01*
X148844405Y-54463499D01*
X148826218Y-54445312D01*
X148813377Y-54430279D01*
X148801471Y-54413892D01*
X148767405Y-54385710D01*
X148758626Y-54377721D01*
X147840244Y-53459339D01*
X147830279Y-53446901D01*
X147830052Y-53447090D01*
X147825001Y-53440984D01*
X147825000Y-53440982D01*
X147775348Y-53394356D01*
X147772505Y-53391600D01*
X147752777Y-53371871D01*
X147752771Y-53371866D01*
X147749567Y-53369380D01*
X147740556Y-53361683D01*
X147708325Y-53331417D01*
X147708319Y-53331413D01*
X147690563Y-53321651D01*
X147674047Y-53310802D01*
X147658041Y-53298386D01*
X147617464Y-53280827D01*
X147606807Y-53275605D01*
X147568065Y-53254307D01*
X147566294Y-53253606D01*
X147565112Y-53252683D01*
X147561116Y-53250487D01*
X147561470Y-53249842D01*
X147510321Y-53209931D01*
X147501558Y-53195851D01*
X147437603Y-53076200D01*
X147421482Y-53046040D01*
X147292331Y-52888669D01*
X147134960Y-52759518D01*
X146955417Y-52663550D01*
X146760601Y-52604454D01*
X146760600Y-52604453D01*
X146760594Y-52604452D01*
X146558003Y-52584499D01*
X146557995Y-52584499D01*
X146480021Y-52592178D01*
X146410268Y-52578949D01*
X146358740Y-52530108D01*
X146357257Y-52527486D01*
X146355554Y-52524389D01*
X146355552Y-52524383D01*
X146329552Y-52488598D01*
X146323059Y-52478714D01*
X146300542Y-52440638D01*
X146286214Y-52426310D01*
X146273384Y-52411289D01*
X146261472Y-52394893D01*
X146261469Y-52394891D01*
X146261469Y-52394890D01*
X146243537Y-52380055D01*
X146234823Y-52371340D01*
X146234769Y-52371398D01*
X146179337Y-52319345D01*
X146176492Y-52316587D01*
X146156767Y-52296861D01*
X146156761Y-52296856D01*
X146153557Y-52294370D01*
X146144546Y-52286673D01*
X146112315Y-52256407D01*
X146112309Y-52256403D01*
X146094553Y-52246641D01*
X146078037Y-52235792D01*
X146062031Y-52223376D01*
X146021454Y-52205817D01*
X146010797Y-52200595D01*
X145972053Y-52179296D01*
X145972050Y-52179295D01*
X145952426Y-52174256D01*
X145933726Y-52167854D01*
X145915135Y-52159809D01*
X145915133Y-52159808D01*
X145915131Y-52159808D01*
X145871464Y-52152891D01*
X145859845Y-52150485D01*
X145817020Y-52139490D01*
X145796766Y-52139490D01*
X145777056Y-52137939D01*
X145757047Y-52134770D01*
X145713029Y-52138931D01*
X145701171Y-52139490D01*
X141654863Y-52139490D01*
X141639021Y-52137740D01*
X141638994Y-52138034D01*
X141631102Y-52137288D01*
X141631101Y-52137288D01*
X141610392Y-52137939D01*
X141563024Y-52139428D01*
X141559065Y-52139490D01*
X141531154Y-52139490D01*
X141531151Y-52139490D01*
X141531136Y-52139491D01*
X141527131Y-52139997D01*
X141515314Y-52140927D01*
X141471122Y-52142316D01*
X141471120Y-52142317D01*
X141451665Y-52147968D01*
X141432312Y-52151976D01*
X141412220Y-52154514D01*
X141412213Y-52154516D01*
X141371106Y-52170791D01*
X141359881Y-52174634D01*
X141330710Y-52183110D01*
X141317417Y-52186972D01*
X141317415Y-52186972D01*
X141317412Y-52186974D01*
X141299973Y-52197287D01*
X141282225Y-52205981D01*
X141261404Y-52214225D01*
X141190703Y-52220706D01*
X141127723Y-52187934D01*
X141122121Y-52181598D01*
X141117263Y-52176740D01*
X141000207Y-52089112D01*
X141000202Y-52089110D01*
X140863204Y-52038011D01*
X140863196Y-52038009D01*
X140802649Y-52031500D01*
X140802638Y-52031500D01*
X139105362Y-52031500D01*
X139105350Y-52031500D01*
X139044803Y-52038009D01*
X139044795Y-52038011D01*
X138907797Y-52089110D01*
X138907792Y-52089112D01*
X138790739Y-52176738D01*
X138789344Y-52178602D01*
X138787479Y-52179997D01*
X138784367Y-52183110D01*
X138783919Y-52182662D01*
X138732506Y-52221145D01*
X138661690Y-52226206D01*
X138616209Y-52206300D01*
X138610749Y-52202477D01*
X138403246Y-52105717D01*
X138403240Y-52105715D01*
X138269950Y-52070000D01*
X138182087Y-52046457D01*
X137954000Y-52026502D01*
X137725913Y-52046457D01*
X137504759Y-52105715D01*
X137504753Y-52105717D01*
X137297250Y-52202477D01*
X137109703Y-52333799D01*
X137109697Y-52333804D01*
X136947804Y-52495697D01*
X136947799Y-52495703D01*
X136816477Y-52683250D01*
X136719717Y-52890753D01*
X136719715Y-52890759D01*
X136713407Y-52914302D01*
X136660457Y-53111913D01*
X136640502Y-53340000D01*
X136660457Y-53568087D01*
X136694670Y-53695771D01*
X136719715Y-53789240D01*
X136719717Y-53789246D01*
X136816477Y-53996749D01*
X136849032Y-54043243D01*
X136947802Y-54184300D01*
X137109700Y-54346198D01*
X137109704Y-54346201D01*
X137109708Y-54346204D01*
X137266770Y-54456180D01*
X137311099Y-54511637D01*
X137320500Y-54559393D01*
X137320500Y-56270146D01*
X137318751Y-56285988D01*
X137319044Y-56286016D01*
X137318298Y-56293907D01*
X137320438Y-56361984D01*
X137320500Y-56365943D01*
X137320500Y-56393851D01*
X137320501Y-56393869D01*
X137321007Y-56397877D01*
X137321937Y-56409696D01*
X137323326Y-56453888D01*
X137323327Y-56453893D01*
X137328977Y-56473339D01*
X137332986Y-56492697D01*
X137335525Y-56512793D01*
X137335526Y-56512800D01*
X137351800Y-56553903D01*
X137355644Y-56565129D01*
X137367982Y-56607593D01*
X137378294Y-56625031D01*
X137386988Y-56642779D01*
X137394444Y-56661609D01*
X137394450Y-56661620D01*
X137420432Y-56697381D01*
X137426949Y-56707301D01*
X137449458Y-56745362D01*
X137449459Y-56745363D01*
X137449461Y-56745366D01*
X137463779Y-56759684D01*
X137476617Y-56774714D01*
X137488526Y-56791104D01*
X137488530Y-56791109D01*
X137522598Y-56819292D01*
X137531378Y-56827282D01*
X138694227Y-57990132D01*
X138728253Y-58052444D01*
X138723188Y-58123260D01*
X138722423Y-58125259D01*
X138691572Y-58203868D01*
X138637497Y-58440790D01*
X138635593Y-58449131D01*
X138616793Y-58700000D01*
X138635593Y-58950869D01*
X138635594Y-58950873D01*
X138691571Y-59196129D01*
X138783479Y-59430309D01*
X138783481Y-59430313D01*
X138909266Y-59648180D01*
X138909268Y-59648183D01*
X138909269Y-59648184D01*
X138926012Y-59669179D01*
X139066125Y-59844876D01*
X139181201Y-59951649D01*
X139250538Y-60015984D01*
X139250544Y-60015988D01*
X139458387Y-60157694D01*
X139458394Y-60157698D01*
X139458397Y-60157700D01*
X139685055Y-60266853D01*
X139685058Y-60266853D01*
X139685063Y-60266856D01*
X139925440Y-60341002D01*
X139925442Y-60341002D01*
X139925451Y-60341005D01*
X140174214Y-60378500D01*
X140174218Y-60378500D01*
X140425782Y-60378500D01*
X140425786Y-60378500D01*
X140674549Y-60341005D01*
X140701068Y-60332825D01*
X140914936Y-60266856D01*
X140914938Y-60266854D01*
X140914945Y-60266853D01*
X141141604Y-60157700D01*
X141349462Y-60015984D01*
X141533878Y-59844872D01*
X141673988Y-59669178D01*
X141732099Y-59628391D01*
X141803036Y-59625494D01*
X141864278Y-59661410D01*
X141896381Y-59724734D01*
X141898499Y-59747738D01*
X141898499Y-60539563D01*
X141878497Y-60607684D01*
X141824841Y-60654177D01*
X141761521Y-60665084D01*
X141732002Y-60662502D01*
X141732001Y-60662502D01*
X141732000Y-60662502D01*
X141565510Y-60677068D01*
X141503913Y-60682457D01*
X141282759Y-60741715D01*
X141282753Y-60741717D01*
X141075250Y-60838477D01*
X140887703Y-60969799D01*
X140887697Y-60969804D01*
X140725804Y-61131697D01*
X140725799Y-61131703D01*
X140594477Y-61319250D01*
X140497717Y-61526753D01*
X140497715Y-61526759D01*
X140456173Y-61681795D01*
X140438457Y-61747913D01*
X140418502Y-61976000D01*
X140438457Y-62204087D01*
X140455459Y-62267538D01*
X140497715Y-62425240D01*
X140497717Y-62425246D01*
X140506964Y-62445076D01*
X140594477Y-62632749D01*
X140725802Y-62820300D01*
X140887700Y-62982198D01*
X141075251Y-63113523D01*
X141282757Y-63210284D01*
X141503913Y-63269543D01*
X141732000Y-63289498D01*
X141960087Y-63269543D01*
X142023541Y-63252540D01*
X142094516Y-63254228D01*
X142145247Y-63285151D01*
X144363595Y-65503499D01*
X144397621Y-65565811D01*
X144400500Y-65592594D01*
X144400500Y-70916606D01*
X144380498Y-70984727D01*
X144346771Y-71019819D01*
X144189703Y-71129799D01*
X144189697Y-71129804D01*
X144027804Y-71291697D01*
X144027799Y-71291703D01*
X143896477Y-71479250D01*
X143799717Y-71686753D01*
X143799715Y-71686759D01*
X143747852Y-71880313D01*
X143740457Y-71907913D01*
X143720502Y-72136000D01*
X143740457Y-72364087D01*
X143774670Y-72491771D01*
X143799715Y-72585240D01*
X143799717Y-72585246D01*
X143852598Y-72698649D01*
X143896477Y-72792749D01*
X144027802Y-72980300D01*
X144189700Y-73142198D01*
X144377251Y-73273523D01*
X144584757Y-73370284D01*
X144805913Y-73429543D01*
X145034000Y-73449498D01*
X145262087Y-73429543D01*
X145483243Y-73370284D01*
X145690749Y-73273523D01*
X145878300Y-73142198D01*
X146040198Y-72980300D01*
X146171523Y-72792749D01*
X146268284Y-72585243D01*
X146327543Y-72364087D01*
X146347498Y-72136000D01*
X147022502Y-72136000D01*
X147042457Y-72364087D01*
X147076670Y-72491771D01*
X147101715Y-72585240D01*
X147101717Y-72585246D01*
X147154598Y-72698649D01*
X147198477Y-72792749D01*
X147329802Y-72980300D01*
X147491700Y-73142198D01*
X147679251Y-73273523D01*
X147886757Y-73370284D01*
X148107913Y-73429543D01*
X148336000Y-73449498D01*
X148564087Y-73429543D01*
X148785243Y-73370284D01*
X148992749Y-73273523D01*
X149180300Y-73142198D01*
X149342198Y-72980300D01*
X149473523Y-72792749D01*
X149570284Y-72585243D01*
X149629543Y-72364087D01*
X149649498Y-72136000D01*
X149629543Y-71907913D01*
X149570284Y-71686757D01*
X149473523Y-71479251D01*
X149342198Y-71291700D01*
X149180300Y-71129802D01*
X149138295Y-71100390D01*
X148992749Y-70998477D01*
X148785246Y-70901717D01*
X148785240Y-70901715D01*
X148672237Y-70871436D01*
X148564087Y-70842457D01*
X148336000Y-70822502D01*
X148107913Y-70842457D01*
X147886759Y-70901715D01*
X147886753Y-70901717D01*
X147679250Y-70998477D01*
X147491703Y-71129799D01*
X147491697Y-71129804D01*
X147329804Y-71291697D01*
X147329799Y-71291703D01*
X147198477Y-71479250D01*
X147101717Y-71686753D01*
X147101715Y-71686759D01*
X147049852Y-71880313D01*
X147042457Y-71907913D01*
X147022502Y-72136000D01*
X146347498Y-72136000D01*
X146327543Y-71907913D01*
X146310540Y-71844457D01*
X146312229Y-71773481D01*
X146343149Y-71722753D01*
X149911499Y-68154405D01*
X149973811Y-68120379D01*
X150000594Y-68117500D01*
X150397757Y-68117500D01*
X150440435Y-68117500D01*
X150508556Y-68137502D01*
X150547865Y-68177662D01*
X150665423Y-68369498D01*
X150667825Y-68373417D01*
X150667826Y-68373419D01*
X150822030Y-68553969D01*
X151002580Y-68708173D01*
X151002584Y-68708176D01*
X151205037Y-68832240D01*
X151424406Y-68923105D01*
X151655289Y-68978535D01*
X151892000Y-68997165D01*
X152128711Y-68978535D01*
X152359594Y-68923105D01*
X152409284Y-68902522D01*
X152479872Y-68894933D01*
X152543359Y-68926712D01*
X152579587Y-68987769D01*
X152583501Y-69018931D01*
X152583501Y-69480403D01*
X152563499Y-69548524D01*
X152546596Y-69569498D01*
X151394335Y-70721758D01*
X151381900Y-70731722D01*
X151382088Y-70731949D01*
X151375978Y-70737003D01*
X151329369Y-70786636D01*
X151326619Y-70789474D01*
X151306862Y-70809232D01*
X151304373Y-70812440D01*
X151296687Y-70821437D01*
X151266417Y-70853674D01*
X151266410Y-70853684D01*
X151256650Y-70871436D01*
X151245802Y-70887951D01*
X151233385Y-70903959D01*
X151215823Y-70944541D01*
X151210603Y-70955196D01*
X151189304Y-70993940D01*
X151189302Y-70993945D01*
X151184266Y-71013560D01*
X151177863Y-71032263D01*
X151169818Y-71050853D01*
X151162900Y-71094526D01*
X151160494Y-71106143D01*
X151149499Y-71148969D01*
X151149499Y-71169224D01*
X151147948Y-71188934D01*
X151144779Y-71208943D01*
X151148940Y-71252962D01*
X151149499Y-71264820D01*
X151149499Y-77531145D01*
X151147750Y-77546987D01*
X151148043Y-77547015D01*
X151147297Y-77554906D01*
X151149437Y-77622983D01*
X151149499Y-77626942D01*
X151149499Y-77654850D01*
X151149500Y-77654868D01*
X151150006Y-77658876D01*
X151150936Y-77670695D01*
X151152325Y-77714887D01*
X151152326Y-77714892D01*
X151157976Y-77734338D01*
X151161985Y-77753696D01*
X151164524Y-77773792D01*
X151164525Y-77773799D01*
X151180799Y-77814902D01*
X151184643Y-77826128D01*
X151196981Y-77868592D01*
X151207293Y-77886030D01*
X151215987Y-77903778D01*
X151223443Y-77922608D01*
X151223449Y-77922619D01*
X151249431Y-77958380D01*
X151255948Y-77968300D01*
X151278457Y-78006361D01*
X151278458Y-78006362D01*
X151278460Y-78006365D01*
X151292778Y-78020683D01*
X151305616Y-78035713D01*
X151317525Y-78052103D01*
X151317529Y-78052108D01*
X151351597Y-78080291D01*
X151360377Y-78088281D01*
X151598847Y-78326751D01*
X151632873Y-78389063D01*
X151631459Y-78448456D01*
X151614458Y-78511907D01*
X151614458Y-78511909D01*
X151614457Y-78511913D01*
X151594502Y-78740000D01*
X151614457Y-78968087D01*
X151641133Y-79067641D01*
X151673715Y-79189240D01*
X151673717Y-79189246D01*
X151770477Y-79396749D01*
X151900034Y-79581776D01*
X151901802Y-79584300D01*
X152063700Y-79746198D01*
X152251251Y-79877523D01*
X152458757Y-79974284D01*
X152679913Y-80033543D01*
X152908000Y-80053498D01*
X153136087Y-80033543D01*
X153304483Y-79988421D01*
X153375457Y-79990111D01*
X153434253Y-80029905D01*
X153462201Y-80095169D01*
X153463085Y-80108822D01*
X153471562Y-80926837D01*
X153452267Y-80995162D01*
X153399096Y-81042208D01*
X153328931Y-81053040D01*
X153312961Y-81049850D01*
X153136087Y-81002457D01*
X152908000Y-80982502D01*
X152679913Y-81002457D01*
X152458759Y-81061715D01*
X152458753Y-81061717D01*
X152251250Y-81158477D01*
X152063703Y-81289799D01*
X152063697Y-81289804D01*
X151901804Y-81451697D01*
X151901799Y-81451703D01*
X151770477Y-81639250D01*
X151673717Y-81846753D01*
X151673716Y-81846757D01*
X151614457Y-82067913D01*
X151594502Y-82296000D01*
X151614457Y-82524087D01*
X151648670Y-82651771D01*
X151673715Y-82745240D01*
X151673717Y-82745246D01*
X151770477Y-82952749D01*
X151803032Y-82999243D01*
X151901802Y-83140300D01*
X152063700Y-83302198D01*
X152063703Y-83302200D01*
X152063708Y-83302204D01*
X152220770Y-83412180D01*
X152265099Y-83467637D01*
X152274500Y-83515393D01*
X152274500Y-84886606D01*
X152254498Y-84954727D01*
X152220771Y-84989819D01*
X152063703Y-85099799D01*
X152063697Y-85099804D01*
X151901804Y-85261697D01*
X151901799Y-85261703D01*
X151770477Y-85449250D01*
X151673717Y-85656753D01*
X151673715Y-85656759D01*
X151614457Y-85877913D01*
X151594502Y-86106000D01*
X151614457Y-86334090D01*
X151631459Y-86397541D01*
X151629769Y-86468518D01*
X151598847Y-86519247D01*
X148872500Y-89245595D01*
X148810188Y-89279621D01*
X148783405Y-89282500D01*
X146116762Y-89282500D01*
X146048641Y-89262498D01*
X146011279Y-89225415D01*
X145895314Y-89047916D01*
X145737225Y-88876186D01*
X145737221Y-88876182D01*
X145612386Y-88779019D01*
X145553017Y-88732810D01*
X145347727Y-88621713D01*
X145347724Y-88621712D01*
X145347723Y-88621711D01*
X145126955Y-88545921D01*
X145126948Y-88545919D01*
X145028411Y-88529476D01*
X144896712Y-88507500D01*
X144663288Y-88507500D01*
X144548066Y-88526727D01*
X144433051Y-88545919D01*
X144433044Y-88545921D01*
X144212276Y-88621711D01*
X144212273Y-88621713D01*
X144024976Y-88723073D01*
X144006985Y-88732809D01*
X144006983Y-88732810D01*
X143822778Y-88876182D01*
X143822774Y-88876186D01*
X143664685Y-89047916D01*
X143537015Y-89243331D01*
X143443252Y-89457089D01*
X143443249Y-89457096D01*
X143385950Y-89683366D01*
X143385949Y-89683372D01*
X143385949Y-89683374D01*
X143366673Y-89916000D01*
X143381619Y-90096373D01*
X143385950Y-90148633D01*
X143443249Y-90374903D01*
X143443252Y-90374910D01*
X143537015Y-90588668D01*
X143664685Y-90784083D01*
X143822774Y-90955813D01*
X143822778Y-90955817D01*
X143888586Y-91007037D01*
X144006983Y-91099190D01*
X144006988Y-91099192D01*
X144006990Y-91099194D01*
X144080468Y-91138958D01*
X144130859Y-91188971D01*
X144146500Y-91249772D01*
X144146500Y-92191500D01*
X144126498Y-92259621D01*
X144072842Y-92306114D01*
X144020500Y-92317500D01*
X143831350Y-92317500D01*
X143770803Y-92324009D01*
X143770795Y-92324011D01*
X143633797Y-92375110D01*
X143633792Y-92375112D01*
X143516738Y-92462738D01*
X143429112Y-92579792D01*
X143429110Y-92579797D01*
X143378011Y-92716795D01*
X143378009Y-92716803D01*
X143371500Y-92777350D01*
X143371500Y-94674649D01*
X143378009Y-94735196D01*
X143378011Y-94735204D01*
X143429110Y-94872202D01*
X143429112Y-94872207D01*
X143516738Y-94989261D01*
X143633792Y-95076887D01*
X143633794Y-95076888D01*
X143633796Y-95076889D01*
X143692875Y-95098924D01*
X143770795Y-95127988D01*
X143770803Y-95127990D01*
X143831350Y-95134499D01*
X143831355Y-95134499D01*
X143831362Y-95134500D01*
X143831368Y-95134500D01*
X145728632Y-95134500D01*
X145728638Y-95134500D01*
X145728645Y-95134499D01*
X145728649Y-95134499D01*
X145789196Y-95127990D01*
X145789199Y-95127989D01*
X145789201Y-95127989D01*
X145926204Y-95076889D01*
X146043261Y-94989261D01*
X146130889Y-94872204D01*
X146181989Y-94735201D01*
X146182694Y-94728652D01*
X146188499Y-94674649D01*
X146188500Y-94674632D01*
X146188500Y-92777367D01*
X146188499Y-92777350D01*
X146181990Y-92716803D01*
X146181988Y-92716795D01*
X146132240Y-92583419D01*
X146130889Y-92579796D01*
X146130888Y-92579794D01*
X146130887Y-92579792D01*
X146043261Y-92462738D01*
X145926207Y-92375112D01*
X145926202Y-92375110D01*
X145789204Y-92324011D01*
X145789196Y-92324009D01*
X145728649Y-92317500D01*
X145728638Y-92317500D01*
X145539500Y-92317500D01*
X145471379Y-92297498D01*
X145424886Y-92243842D01*
X145413500Y-92191500D01*
X145413500Y-91249772D01*
X145433502Y-91181651D01*
X145479532Y-91138958D01*
X145516913Y-91118727D01*
X145553017Y-91099190D01*
X145737220Y-90955818D01*
X145765403Y-90925204D01*
X145895314Y-90784083D01*
X146011279Y-90606585D01*
X146065282Y-90560496D01*
X146116762Y-90549500D01*
X149014147Y-90549500D01*
X149029988Y-90551249D01*
X149030016Y-90550956D01*
X149037902Y-90551700D01*
X149037909Y-90551702D01*
X149105986Y-90549562D01*
X149109945Y-90549500D01*
X149137851Y-90549500D01*
X149137856Y-90549500D01*
X149141867Y-90548992D01*
X149153699Y-90548061D01*
X149197889Y-90546673D01*
X149217347Y-90541019D01*
X149236694Y-90537013D01*
X149256797Y-90534474D01*
X149263046Y-90532000D01*
X149270497Y-90529049D01*
X149297910Y-90518195D01*
X149309130Y-90514353D01*
X149333913Y-90507154D01*
X149351591Y-90502019D01*
X149351595Y-90502017D01*
X149369026Y-90491708D01*
X149386780Y-90483009D01*
X149405617Y-90475552D01*
X149441392Y-90449558D01*
X149451298Y-90443051D01*
X149489362Y-90420542D01*
X149503685Y-90406218D01*
X149518724Y-90393374D01*
X149535107Y-90381472D01*
X149563303Y-90347386D01*
X149571272Y-90338630D01*
X150776405Y-89133498D01*
X150838717Y-89099472D01*
X150909533Y-89104537D01*
X150966368Y-89147084D01*
X150991179Y-89213604D01*
X150991500Y-89222593D01*
X150991500Y-90864649D01*
X150998009Y-90925196D01*
X150998011Y-90925204D01*
X151049110Y-91062202D01*
X151049112Y-91062207D01*
X151136738Y-91179261D01*
X151253792Y-91266887D01*
X151253794Y-91266888D01*
X151253796Y-91266889D01*
X151312875Y-91288924D01*
X151390795Y-91317988D01*
X151390803Y-91317990D01*
X151451350Y-91324499D01*
X151451355Y-91324499D01*
X151451362Y-91324500D01*
X151640500Y-91324500D01*
X151708621Y-91344502D01*
X151755114Y-91398158D01*
X151766500Y-91450500D01*
X151766500Y-92392227D01*
X151746498Y-92460348D01*
X151700470Y-92503040D01*
X151626989Y-92542806D01*
X151626983Y-92542810D01*
X151442778Y-92686182D01*
X151442774Y-92686186D01*
X151284685Y-92857916D01*
X151157015Y-93053331D01*
X151063252Y-93267089D01*
X151063249Y-93267096D01*
X151005950Y-93493366D01*
X151005949Y-93493372D01*
X151005949Y-93493374D01*
X150986673Y-93726000D01*
X151000927Y-93898025D01*
X151005950Y-93958633D01*
X151063249Y-94184903D01*
X151063252Y-94184910D01*
X151157015Y-94398668D01*
X151284685Y-94594083D01*
X151442774Y-94765813D01*
X151442778Y-94765817D01*
X151519588Y-94825600D01*
X151626983Y-94909190D01*
X151626988Y-94909192D01*
X151626990Y-94909194D01*
X151700468Y-94948958D01*
X151750859Y-94998971D01*
X151766500Y-95059772D01*
X151766500Y-95871403D01*
X151746498Y-95939524D01*
X151729595Y-95960499D01*
X151628457Y-96061636D01*
X151566145Y-96095661D01*
X151509948Y-96095059D01*
X151370729Y-96061636D01*
X151286711Y-96041465D01*
X151050000Y-96022835D01*
X150813289Y-96041465D01*
X150582407Y-96096894D01*
X150363038Y-96187759D01*
X150160582Y-96311825D01*
X150160580Y-96311826D01*
X149980030Y-96466030D01*
X149825826Y-96646580D01*
X149825825Y-96646582D01*
X149701759Y-96849038D01*
X149610894Y-97068407D01*
X149571966Y-97230556D01*
X149555465Y-97299289D01*
X149536835Y-97536000D01*
X149550926Y-97715045D01*
X149555465Y-97772710D01*
X149610894Y-98003592D01*
X149701759Y-98222961D01*
X149825825Y-98425417D01*
X149825826Y-98425419D01*
X149980030Y-98605969D01*
X150146469Y-98748121D01*
X150160584Y-98760176D01*
X150363037Y-98884240D01*
X150582406Y-98975105D01*
X150813289Y-99030535D01*
X151050000Y-99049165D01*
X151286711Y-99030535D01*
X151517594Y-98975105D01*
X151736963Y-98884240D01*
X151939416Y-98760176D01*
X152119969Y-98605969D01*
X152274176Y-98425416D01*
X152398240Y-98222963D01*
X152489105Y-98003594D01*
X152544535Y-97772711D01*
X152563165Y-97536000D01*
X152544535Y-97299289D01*
X152490939Y-97076045D01*
X152494486Y-97005140D01*
X152524361Y-96957541D01*
X152788657Y-96693245D01*
X152801092Y-96683284D01*
X152800905Y-96683057D01*
X152807016Y-96678001D01*
X152807015Y-96678001D01*
X152807018Y-96678000D01*
X152853676Y-96628312D01*
X152856367Y-96625535D01*
X152876134Y-96605770D01*
X152878617Y-96602567D01*
X152886308Y-96593562D01*
X152916586Y-96561321D01*
X152926345Y-96543567D01*
X152937197Y-96527046D01*
X152949613Y-96511041D01*
X152967168Y-96470470D01*
X152972392Y-96459808D01*
X152993694Y-96421061D01*
X152993695Y-96421060D01*
X152998733Y-96401435D01*
X153005138Y-96382730D01*
X153013181Y-96364145D01*
X153020096Y-96320481D01*
X153022504Y-96308852D01*
X153033500Y-96266030D01*
X153033500Y-96245775D01*
X153035051Y-96226063D01*
X153038220Y-96206057D01*
X153034059Y-96162036D01*
X153033500Y-96150179D01*
X153033500Y-95059772D01*
X153053502Y-94991651D01*
X153099532Y-94948958D01*
X153136913Y-94928727D01*
X153173017Y-94909190D01*
X153357220Y-94765818D01*
X153396703Y-94722927D01*
X153457556Y-94686357D01*
X153528521Y-94688490D01*
X153587066Y-94728652D01*
X153614605Y-94794090D01*
X153615398Y-94806959D01*
X153651882Y-98327624D01*
X153668508Y-99932068D01*
X153668681Y-99948694D01*
X153649386Y-100017019D01*
X153596215Y-100064065D01*
X153542688Y-100076000D01*
X131055686Y-100076000D01*
X130987565Y-100055998D01*
X130941072Y-100002342D01*
X130930968Y-99932068D01*
X130960462Y-99867488D01*
X131014774Y-99830827D01*
X131103571Y-99800343D01*
X131103570Y-99800343D01*
X131103574Y-99800342D01*
X131301576Y-99693189D01*
X131479240Y-99554906D01*
X131631722Y-99389268D01*
X131754860Y-99200791D01*
X131845296Y-98994616D01*
X131900564Y-98776368D01*
X131919156Y-98552000D01*
X131900564Y-98327632D01*
X131845296Y-98109384D01*
X131754860Y-97903209D01*
X131669601Y-97772710D01*
X131631724Y-97714734D01*
X131631720Y-97714729D01*
X131502220Y-97574057D01*
X131479240Y-97549094D01*
X131479239Y-97549093D01*
X131479237Y-97549091D01*
X131462418Y-97536000D01*
X144536835Y-97536000D01*
X144550926Y-97715045D01*
X144555465Y-97772710D01*
X144610894Y-98003592D01*
X144701759Y-98222961D01*
X144825825Y-98425417D01*
X144825826Y-98425419D01*
X144980030Y-98605969D01*
X145146469Y-98748121D01*
X145160584Y-98760176D01*
X145363037Y-98884240D01*
X145582406Y-98975105D01*
X145813289Y-99030535D01*
X146050000Y-99049165D01*
X146286711Y-99030535D01*
X146517594Y-98975105D01*
X146736963Y-98884240D01*
X146939416Y-98760176D01*
X147119969Y-98605969D01*
X147274176Y-98425416D01*
X147398240Y-98222963D01*
X147489105Y-98003594D01*
X147544535Y-97772711D01*
X147563165Y-97536000D01*
X147544535Y-97299289D01*
X147489105Y-97068406D01*
X147398240Y-96849037D01*
X147274176Y-96646584D01*
X147257368Y-96626904D01*
X147119969Y-96466030D01*
X146939419Y-96311826D01*
X146939417Y-96311825D01*
X146939416Y-96311824D01*
X146736963Y-96187760D01*
X146674860Y-96162036D01*
X146517592Y-96096894D01*
X146345163Y-96055498D01*
X146286711Y-96041465D01*
X146050000Y-96022835D01*
X145813289Y-96041465D01*
X145582407Y-96096894D01*
X145363038Y-96187759D01*
X145160582Y-96311825D01*
X145160580Y-96311826D01*
X144980030Y-96466030D01*
X144825826Y-96646580D01*
X144825825Y-96646582D01*
X144701759Y-96849038D01*
X144610894Y-97068407D01*
X144571966Y-97230556D01*
X144555465Y-97299289D01*
X144536835Y-97536000D01*
X131462418Y-97536000D01*
X131359367Y-97455792D01*
X131301576Y-97410811D01*
X131103574Y-97303658D01*
X131103572Y-97303657D01*
X131103571Y-97303656D01*
X130890639Y-97230557D01*
X130890630Y-97230555D01*
X130813029Y-97217606D01*
X130668569Y-97193500D01*
X130443431Y-97193500D01*
X130298971Y-97217606D01*
X130221369Y-97230555D01*
X130221360Y-97230557D01*
X130008428Y-97303656D01*
X130008426Y-97303658D01*
X129810426Y-97410810D01*
X129810424Y-97410811D01*
X129632762Y-97549091D01*
X129480279Y-97714729D01*
X129391183Y-97851101D01*
X129337179Y-97897189D01*
X129266831Y-97906764D01*
X129202474Y-97876786D01*
X129180217Y-97851100D01*
X129091327Y-97715044D01*
X128938902Y-97549465D01*
X128761301Y-97411232D01*
X128761300Y-97411231D01*
X128563371Y-97304117D01*
X128563369Y-97304116D01*
X128350512Y-97231043D01*
X128350501Y-97231040D01*
X128270000Y-97217606D01*
X128270000Y-98118325D01*
X128158315Y-98067320D01*
X128051763Y-98052000D01*
X127980237Y-98052000D01*
X127873685Y-98067320D01*
X127762000Y-98118325D01*
X127762000Y-97217607D01*
X127761999Y-97217606D01*
X127681498Y-97231040D01*
X127681487Y-97231043D01*
X127468630Y-97304116D01*
X127468628Y-97304117D01*
X127270699Y-97411231D01*
X127270698Y-97411232D01*
X127093097Y-97549465D01*
X126940670Y-97715045D01*
X126851780Y-97851101D01*
X126797776Y-97897189D01*
X126727428Y-97906764D01*
X126663071Y-97876786D01*
X126640816Y-97851101D01*
X126589601Y-97772710D01*
X126551724Y-97714734D01*
X126551720Y-97714729D01*
X126422220Y-97574057D01*
X126399240Y-97549094D01*
X126399239Y-97549093D01*
X126399237Y-97549091D01*
X126279367Y-97455792D01*
X126221576Y-97410811D01*
X126023574Y-97303658D01*
X126023572Y-97303657D01*
X126023571Y-97303656D01*
X125810639Y-97230557D01*
X125810630Y-97230555D01*
X125733029Y-97217606D01*
X125588569Y-97193500D01*
X125363431Y-97193500D01*
X125218971Y-97217606D01*
X125141369Y-97230555D01*
X125141360Y-97230557D01*
X124928428Y-97303656D01*
X124928426Y-97303658D01*
X124730426Y-97410810D01*
X124730424Y-97410811D01*
X124552762Y-97549091D01*
X124491754Y-97615363D01*
X124430901Y-97651933D01*
X124359936Y-97649798D01*
X124301391Y-97609636D01*
X124280999Y-97574057D01*
X124236889Y-97455797D01*
X124236887Y-97455792D01*
X124149261Y-97338738D01*
X124032207Y-97251112D01*
X124032202Y-97251110D01*
X123895204Y-97200011D01*
X123895196Y-97200009D01*
X123834649Y-97193500D01*
X123834638Y-97193500D01*
X123695500Y-97193500D01*
X123627379Y-97173498D01*
X123580886Y-97119842D01*
X123569500Y-97067500D01*
X123569500Y-94742000D01*
X127464502Y-94742000D01*
X127484457Y-94970087D01*
X127543716Y-95191243D01*
X127640477Y-95398749D01*
X127771802Y-95586300D01*
X127933700Y-95748198D01*
X128121251Y-95879523D01*
X128328757Y-95976284D01*
X128549913Y-96035543D01*
X128778000Y-96055498D01*
X129006087Y-96035543D01*
X129227243Y-95976284D01*
X129434749Y-95879523D01*
X129622300Y-95748198D01*
X129784198Y-95586300D01*
X129915523Y-95398749D01*
X130012284Y-95191243D01*
X130071543Y-94970087D01*
X130091498Y-94742000D01*
X130071543Y-94513913D01*
X130064600Y-94488000D01*
X137651917Y-94488000D01*
X138626314Y-94488000D01*
X138610359Y-94503955D01*
X138552835Y-94616852D01*
X138533014Y-94742000D01*
X138552835Y-94867148D01*
X138610359Y-94980045D01*
X138626314Y-94996000D01*
X137651918Y-94996000D01*
X137704186Y-95191068D01*
X137704188Y-95191073D01*
X137800912Y-95398498D01*
X137932184Y-95585974D01*
X137932189Y-95585980D01*
X138094019Y-95747810D01*
X138094025Y-95747815D01*
X138281501Y-95879087D01*
X138488926Y-95975811D01*
X138488931Y-95975813D01*
X138684000Y-96028081D01*
X138684000Y-95053686D01*
X138699955Y-95069641D01*
X138812852Y-95127165D01*
X138906519Y-95142000D01*
X138969481Y-95142000D01*
X139063148Y-95127165D01*
X139176045Y-95069641D01*
X139192000Y-95053686D01*
X139192000Y-96028081D01*
X139387068Y-95975813D01*
X139387073Y-95975811D01*
X139594498Y-95879087D01*
X139781974Y-95747815D01*
X139781980Y-95747810D01*
X139943810Y-95585980D01*
X139943815Y-95585974D01*
X140075087Y-95398498D01*
X140171811Y-95191073D01*
X140171813Y-95191068D01*
X140224082Y-94996000D01*
X139249686Y-94996000D01*
X139265641Y-94980045D01*
X139323165Y-94867148D01*
X139342986Y-94742000D01*
X139323165Y-94616852D01*
X139265641Y-94503955D01*
X139249686Y-94488000D01*
X140224082Y-94488000D01*
X140171813Y-94292931D01*
X140171811Y-94292926D01*
X140075087Y-94085501D01*
X139943815Y-93898025D01*
X139943810Y-93898019D01*
X139781980Y-93736189D01*
X139781974Y-93736184D01*
X139594498Y-93604912D01*
X139387073Y-93508188D01*
X139387071Y-93508187D01*
X139192000Y-93455917D01*
X139192000Y-94430314D01*
X139176045Y-94414359D01*
X139063148Y-94356835D01*
X138969481Y-94342000D01*
X138906519Y-94342000D01*
X138812852Y-94356835D01*
X138699955Y-94414359D01*
X138684000Y-94430314D01*
X138684000Y-93455917D01*
X138683999Y-93455917D01*
X138488928Y-93508187D01*
X138488926Y-93508188D01*
X138281501Y-93604912D01*
X138094025Y-93736184D01*
X138094019Y-93736189D01*
X137932189Y-93898019D01*
X137932184Y-93898025D01*
X137800912Y-94085501D01*
X137704188Y-94292926D01*
X137704186Y-94292931D01*
X137651917Y-94488000D01*
X130064600Y-94488000D01*
X130054540Y-94450457D01*
X130056229Y-94379481D01*
X130087149Y-94328753D01*
X133737902Y-90678000D01*
X138386502Y-90678000D01*
X138406457Y-90906087D01*
X138433507Y-91007037D01*
X138465715Y-91127240D01*
X138465717Y-91127246D01*
X138562477Y-91334749D01*
X138614327Y-91408799D01*
X138693802Y-91522300D01*
X138855700Y-91684198D01*
X139043251Y-91815523D01*
X139250757Y-91912284D01*
X139471913Y-91971543D01*
X139700000Y-91991498D01*
X139928087Y-91971543D01*
X140149243Y-91912284D01*
X140356749Y-91815523D01*
X140544300Y-91684198D01*
X140706198Y-91522300D01*
X140837523Y-91334749D01*
X140934284Y-91127243D01*
X140993543Y-90906087D01*
X141013498Y-90678000D01*
X140993543Y-90449913D01*
X140934284Y-90228757D01*
X140837523Y-90021251D01*
X140706198Y-89833700D01*
X140544300Y-89671802D01*
X140530201Y-89661930D01*
X140356749Y-89540477D01*
X140149246Y-89443717D01*
X140149240Y-89443715D01*
X140052401Y-89417767D01*
X139928087Y-89384457D01*
X139700000Y-89364502D01*
X139471913Y-89384457D01*
X139250759Y-89443715D01*
X139250753Y-89443717D01*
X139043250Y-89540477D01*
X138855703Y-89671799D01*
X138855697Y-89671804D01*
X138693804Y-89833697D01*
X138693799Y-89833703D01*
X138562477Y-90021250D01*
X138465717Y-90228753D01*
X138465715Y-90228759D01*
X138414327Y-90420541D01*
X138406457Y-90449913D01*
X138386502Y-90678000D01*
X133737902Y-90678000D01*
X134754657Y-89661245D01*
X134767092Y-89651284D01*
X134766905Y-89651057D01*
X134773016Y-89646001D01*
X134773015Y-89646001D01*
X134773018Y-89646000D01*
X134819676Y-89596312D01*
X134822367Y-89593535D01*
X134842134Y-89573770D01*
X134844617Y-89570567D01*
X134852308Y-89561562D01*
X134882586Y-89529321D01*
X134892345Y-89511567D01*
X134903197Y-89495046D01*
X134915613Y-89479041D01*
X134933168Y-89438470D01*
X134938392Y-89427808D01*
X134940527Y-89423925D01*
X134959695Y-89389060D01*
X134964733Y-89369435D01*
X134971138Y-89350730D01*
X134979181Y-89332145D01*
X134986096Y-89288476D01*
X134988503Y-89276856D01*
X134993387Y-89257839D01*
X134999500Y-89234030D01*
X134999500Y-89213769D01*
X135001051Y-89194058D01*
X135002767Y-89183222D01*
X135004219Y-89174057D01*
X135000059Y-89130045D01*
X134999500Y-89118188D01*
X134999500Y-78279594D01*
X135019502Y-78211473D01*
X135036400Y-78190503D01*
X135119007Y-78107896D01*
X135181316Y-78073873D01*
X135252132Y-78078937D01*
X135283609Y-78096125D01*
X135372792Y-78162887D01*
X135372794Y-78162888D01*
X135372796Y-78162889D01*
X135405299Y-78175012D01*
X135509795Y-78213988D01*
X135509803Y-78213990D01*
X135570350Y-78220499D01*
X135570355Y-78220499D01*
X135570362Y-78220500D01*
X135570368Y-78220500D01*
X136717632Y-78220500D01*
X136717638Y-78220500D01*
X136717645Y-78220499D01*
X136717649Y-78220499D01*
X136778196Y-78213990D01*
X136778199Y-78213989D01*
X136778201Y-78213989D01*
X136800838Y-78205546D01*
X136915201Y-78162890D01*
X136915200Y-78162890D01*
X136915204Y-78162889D01*
X136915207Y-78162886D01*
X136923113Y-78158570D01*
X136924791Y-78161644D01*
X136975496Y-78142717D01*
X137021092Y-78147817D01*
X137211399Y-78205546D01*
X137211403Y-78205546D01*
X137211405Y-78205547D01*
X137413997Y-78225501D01*
X137414000Y-78225501D01*
X137414003Y-78225501D01*
X137616594Y-78205547D01*
X137616595Y-78205546D01*
X137616601Y-78205546D01*
X137811417Y-78146450D01*
X137989607Y-78051205D01*
X138059109Y-78036734D01*
X138108391Y-78051204D01*
X138286583Y-78146450D01*
X138481399Y-78205546D01*
X138481403Y-78205546D01*
X138481405Y-78205547D01*
X138683997Y-78225501D01*
X138684000Y-78225501D01*
X138684003Y-78225501D01*
X138886594Y-78205547D01*
X138886595Y-78205546D01*
X138886601Y-78205546D01*
X138903924Y-78200290D01*
X138974916Y-78199656D01*
X139034983Y-78237504D01*
X139065052Y-78301819D01*
X139066500Y-78320865D01*
X139066500Y-81330606D01*
X139046498Y-81398727D01*
X139012771Y-81433819D01*
X138855703Y-81543799D01*
X138855697Y-81543804D01*
X138693804Y-81705697D01*
X138693799Y-81705703D01*
X138562477Y-81893250D01*
X138465717Y-82100753D01*
X138465715Y-82100759D01*
X138418479Y-82277045D01*
X138406457Y-82321913D01*
X138386502Y-82550000D01*
X138406457Y-82778087D01*
X138422933Y-82839575D01*
X138465715Y-82999240D01*
X138465717Y-82999246D01*
X138562477Y-83206749D01*
X138693799Y-83394296D01*
X138693804Y-83394302D01*
X138745703Y-83446201D01*
X138779729Y-83508513D01*
X138774664Y-83579328D01*
X138745703Y-83624391D01*
X137484458Y-84885635D01*
X137422146Y-84919661D01*
X137365950Y-84919059D01*
X137142711Y-84865465D01*
X136906000Y-84846835D01*
X136669289Y-84865465D01*
X136438407Y-84920894D01*
X136219038Y-85011759D01*
X136016582Y-85135825D01*
X136016580Y-85135826D01*
X135836030Y-85290030D01*
X135681826Y-85470580D01*
X135681825Y-85470582D01*
X135557759Y-85673038D01*
X135466894Y-85892407D01*
X135435296Y-86024025D01*
X135411465Y-86123289D01*
X135392835Y-86360000D01*
X135411465Y-86596711D01*
X135421399Y-86638089D01*
X135466894Y-86827592D01*
X135517589Y-86949980D01*
X135557760Y-87046963D01*
X135648870Y-87195641D01*
X135681825Y-87249417D01*
X135681826Y-87249419D01*
X135836030Y-87429969D01*
X136016580Y-87584173D01*
X136016584Y-87584176D01*
X136219037Y-87708240D01*
X136438406Y-87799105D01*
X136669289Y-87854535D01*
X136906000Y-87873165D01*
X137142711Y-87854535D01*
X137373594Y-87799105D01*
X137592963Y-87708240D01*
X137795416Y-87584176D01*
X137975969Y-87429969D01*
X138130176Y-87249416D01*
X138254240Y-87046963D01*
X138345105Y-86827594D01*
X138400535Y-86596711D01*
X138419165Y-86360000D01*
X138400535Y-86123289D01*
X138346939Y-85900045D01*
X138349342Y-85852000D01*
X141461917Y-85852000D01*
X142436314Y-85852000D01*
X142420359Y-85867955D01*
X142362835Y-85980852D01*
X142343014Y-86106000D01*
X142362835Y-86231148D01*
X142420359Y-86344045D01*
X142436314Y-86360000D01*
X141461918Y-86360000D01*
X141514186Y-86555068D01*
X141514188Y-86555073D01*
X141610912Y-86762498D01*
X141742184Y-86949974D01*
X141742189Y-86949980D01*
X141904019Y-87111810D01*
X141904025Y-87111815D01*
X142091501Y-87243087D01*
X142298926Y-87339811D01*
X142298931Y-87339813D01*
X142494000Y-87392081D01*
X142494000Y-86417686D01*
X142509955Y-86433641D01*
X142622852Y-86491165D01*
X142716519Y-86506000D01*
X142779481Y-86506000D01*
X142873148Y-86491165D01*
X142986045Y-86433641D01*
X143002000Y-86417686D01*
X143002000Y-87392081D01*
X143197068Y-87339813D01*
X143197073Y-87339811D01*
X143404498Y-87243087D01*
X143591974Y-87111815D01*
X143591980Y-87111810D01*
X143753810Y-86949980D01*
X143753815Y-86949974D01*
X143885087Y-86762498D01*
X143981811Y-86555073D01*
X143981813Y-86555068D01*
X144034082Y-86360000D01*
X143059686Y-86360000D01*
X143075641Y-86344045D01*
X143133165Y-86231148D01*
X143152986Y-86106000D01*
X143133165Y-85980852D01*
X143075641Y-85867955D01*
X143059686Y-85852000D01*
X144034082Y-85852000D01*
X143981813Y-85656931D01*
X143981811Y-85656926D01*
X143885087Y-85449501D01*
X143753815Y-85262025D01*
X143753810Y-85262019D01*
X143591980Y-85100189D01*
X143591974Y-85100184D01*
X143404498Y-84968912D01*
X143197073Y-84872188D01*
X143197071Y-84872187D01*
X143002000Y-84819917D01*
X143002000Y-85794314D01*
X142986045Y-85778359D01*
X142873148Y-85720835D01*
X142779481Y-85706000D01*
X142716519Y-85706000D01*
X142622852Y-85720835D01*
X142509955Y-85778359D01*
X142494000Y-85794314D01*
X142494000Y-84819917D01*
X142493999Y-84819917D01*
X142298928Y-84872187D01*
X142298926Y-84872188D01*
X142091501Y-84968912D01*
X141904025Y-85100184D01*
X141904019Y-85100189D01*
X141742189Y-85262019D01*
X141742184Y-85262025D01*
X141610912Y-85449501D01*
X141514188Y-85656926D01*
X141514186Y-85656931D01*
X141461917Y-85852000D01*
X138349342Y-85852000D01*
X138350486Y-85829140D01*
X138380361Y-85781541D01*
X140088657Y-84073245D01*
X140101092Y-84063284D01*
X140100905Y-84063057D01*
X140107016Y-84058001D01*
X140107015Y-84058001D01*
X140107018Y-84058000D01*
X140153676Y-84008312D01*
X140156367Y-84005535D01*
X140176135Y-83985769D01*
X140178614Y-83982571D01*
X140186299Y-83973571D01*
X140216586Y-83941321D01*
X140226339Y-83923578D01*
X140237193Y-83907051D01*
X140249614Y-83891041D01*
X140267179Y-83850446D01*
X140272384Y-83839822D01*
X140293695Y-83801060D01*
X140298733Y-83781434D01*
X140305133Y-83762740D01*
X140313181Y-83744145D01*
X140313181Y-83744142D01*
X140315236Y-83739395D01*
X140358601Y-83686226D01*
X140380606Y-83670818D01*
X140544300Y-83556198D01*
X140706198Y-83394300D01*
X140837523Y-83206749D01*
X140934284Y-82999243D01*
X140993543Y-82778087D01*
X141013498Y-82550000D01*
X140993543Y-82321913D01*
X140986600Y-82296000D01*
X141434502Y-82296000D01*
X141454457Y-82524087D01*
X141488670Y-82651771D01*
X141513715Y-82745240D01*
X141513717Y-82745246D01*
X141610477Y-82952749D01*
X141643032Y-82999243D01*
X141741802Y-83140300D01*
X141903700Y-83302198D01*
X142091251Y-83433523D01*
X142298757Y-83530284D01*
X142519913Y-83589543D01*
X142748000Y-83609498D01*
X142976087Y-83589543D01*
X143197243Y-83530284D01*
X143404749Y-83433523D01*
X143592300Y-83302198D01*
X143754198Y-83140300D01*
X143885523Y-82952749D01*
X143982284Y-82745243D01*
X144041543Y-82524087D01*
X144061498Y-82296000D01*
X144041543Y-82067913D01*
X143982284Y-81846757D01*
X143885523Y-81639251D01*
X143754198Y-81451700D01*
X143592300Y-81289802D01*
X143584769Y-81284529D01*
X143404749Y-81158477D01*
X143197246Y-81061717D01*
X143197240Y-81061715D01*
X143103771Y-81036670D01*
X142976087Y-81002457D01*
X142748000Y-80982502D01*
X142519913Y-81002457D01*
X142298759Y-81061715D01*
X142298753Y-81061717D01*
X142091250Y-81158477D01*
X141903703Y-81289799D01*
X141903697Y-81289804D01*
X141741804Y-81451697D01*
X141741799Y-81451703D01*
X141610477Y-81639250D01*
X141513717Y-81846753D01*
X141513716Y-81846757D01*
X141454457Y-82067913D01*
X141434502Y-82296000D01*
X140986600Y-82296000D01*
X140934284Y-82100757D01*
X140837523Y-81893251D01*
X140706198Y-81705700D01*
X140544300Y-81543802D01*
X140517288Y-81524888D01*
X140387229Y-81433819D01*
X140342901Y-81378362D01*
X140333500Y-81330606D01*
X140333500Y-78486000D01*
X141461917Y-78486000D01*
X142436314Y-78486000D01*
X142420359Y-78501955D01*
X142362835Y-78614852D01*
X142343014Y-78740000D01*
X142362835Y-78865148D01*
X142420359Y-78978045D01*
X142436314Y-78994000D01*
X141461918Y-78994000D01*
X141514186Y-79189068D01*
X141514188Y-79189073D01*
X141610912Y-79396498D01*
X141742184Y-79583974D01*
X141742189Y-79583980D01*
X141904019Y-79745810D01*
X141904025Y-79745815D01*
X142091501Y-79877087D01*
X142298926Y-79973811D01*
X142298931Y-79973813D01*
X142494000Y-80026081D01*
X142494000Y-79051686D01*
X142509955Y-79067641D01*
X142622852Y-79125165D01*
X142716519Y-79140000D01*
X142779481Y-79140000D01*
X142873148Y-79125165D01*
X142986045Y-79067641D01*
X143002000Y-79051686D01*
X143002000Y-80026081D01*
X143197068Y-79973813D01*
X143197073Y-79973811D01*
X143404498Y-79877087D01*
X143591974Y-79745815D01*
X143591980Y-79745810D01*
X143753810Y-79583980D01*
X143753815Y-79583974D01*
X143885087Y-79396498D01*
X143981811Y-79189073D01*
X143981813Y-79189068D01*
X144034082Y-78994000D01*
X143059686Y-78994000D01*
X143075641Y-78978045D01*
X143133165Y-78865148D01*
X143152986Y-78740000D01*
X143133165Y-78614852D01*
X143075641Y-78501955D01*
X143059686Y-78486000D01*
X144034082Y-78486000D01*
X143981813Y-78290931D01*
X143981811Y-78290926D01*
X143885087Y-78083501D01*
X143753815Y-77896025D01*
X143753810Y-77896019D01*
X143591980Y-77734189D01*
X143591974Y-77734184D01*
X143404498Y-77602912D01*
X143197073Y-77506188D01*
X143197071Y-77506187D01*
X143002000Y-77453917D01*
X143002000Y-78428314D01*
X142986045Y-78412359D01*
X142873148Y-78354835D01*
X142779481Y-78340000D01*
X142716519Y-78340000D01*
X142622852Y-78354835D01*
X142509955Y-78412359D01*
X142494000Y-78428314D01*
X142494000Y-77453917D01*
X142493999Y-77453917D01*
X142298928Y-77506187D01*
X142298926Y-77506188D01*
X142091501Y-77602912D01*
X141904025Y-77734184D01*
X141904019Y-77734189D01*
X141742189Y-77896019D01*
X141742184Y-77896025D01*
X141610912Y-78083501D01*
X141514188Y-78290926D01*
X141514186Y-78290931D01*
X141461917Y-78486000D01*
X140333500Y-78486000D01*
X140333500Y-77286849D01*
X140335249Y-77271012D01*
X140334955Y-77270985D01*
X140335701Y-77263092D01*
X140333562Y-77195031D01*
X140333500Y-77191073D01*
X140333500Y-77163151D01*
X140333500Y-77163144D01*
X140332991Y-77159123D01*
X140332061Y-77147296D01*
X140330673Y-77103110D01*
X140325022Y-77083663D01*
X140321012Y-77064300D01*
X140320025Y-77056485D01*
X140318474Y-77044203D01*
X140302192Y-77003081D01*
X140298358Y-76991882D01*
X140286018Y-76949406D01*
X140275700Y-76931961D01*
X140267005Y-76914209D01*
X140259553Y-76895385D01*
X140259550Y-76895379D01*
X140233564Y-76859613D01*
X140227045Y-76849689D01*
X140204541Y-76811635D01*
X140190218Y-76797312D01*
X140177377Y-76782279D01*
X140165471Y-76765892D01*
X140131405Y-76737710D01*
X140122626Y-76729721D01*
X139966244Y-76573339D01*
X139956279Y-76560901D01*
X139956052Y-76561090D01*
X139951001Y-76554984D01*
X139951000Y-76554982D01*
X139901348Y-76508356D01*
X139898505Y-76505600D01*
X139878777Y-76485871D01*
X139878771Y-76485866D01*
X139875567Y-76483380D01*
X139866556Y-76475683D01*
X139834325Y-76445417D01*
X139834319Y-76445413D01*
X139816563Y-76435651D01*
X139800047Y-76424802D01*
X139784041Y-76412386D01*
X139743464Y-76394827D01*
X139732807Y-76389605D01*
X139694065Y-76368307D01*
X139692294Y-76367606D01*
X139691112Y-76366683D01*
X139687116Y-76364487D01*
X139687470Y-76363842D01*
X139636321Y-76323931D01*
X139627558Y-76309851D01*
X139581425Y-76223543D01*
X139547482Y-76160040D01*
X139418331Y-76002669D01*
X139260960Y-75873518D01*
X139081417Y-75777550D01*
X138886601Y-75718454D01*
X138886600Y-75718453D01*
X138886594Y-75718452D01*
X138684003Y-75698499D01*
X138683997Y-75698499D01*
X138481405Y-75718452D01*
X138286582Y-75777550D01*
X138108396Y-75872793D01*
X138038890Y-75887265D01*
X137989604Y-75872793D01*
X137811417Y-75777550D01*
X137757221Y-75761110D01*
X137616601Y-75718454D01*
X137616600Y-75718453D01*
X137616594Y-75718452D01*
X137414003Y-75698499D01*
X137413997Y-75698499D01*
X137211405Y-75718452D01*
X137021094Y-75776181D01*
X136950100Y-75776814D01*
X136923961Y-75763878D01*
X136923114Y-75765430D01*
X136915203Y-75761110D01*
X136778204Y-75710011D01*
X136778196Y-75710009D01*
X136717649Y-75703500D01*
X136717638Y-75703500D01*
X135808593Y-75703500D01*
X135740472Y-75683498D01*
X135693979Y-75629842D01*
X135683875Y-75559568D01*
X135713369Y-75494988D01*
X135719498Y-75488405D01*
X136277903Y-74930000D01*
X141461917Y-74930000D01*
X142436314Y-74930000D01*
X142420359Y-74945955D01*
X142362835Y-75058852D01*
X142343014Y-75184000D01*
X142362835Y-75309148D01*
X142420359Y-75422045D01*
X142436314Y-75438000D01*
X141461918Y-75438000D01*
X141514186Y-75633068D01*
X141514188Y-75633073D01*
X141610912Y-75840498D01*
X141742184Y-76027974D01*
X141742189Y-76027980D01*
X141904019Y-76189810D01*
X141904025Y-76189815D01*
X142091501Y-76321087D01*
X142298926Y-76417811D01*
X142298931Y-76417813D01*
X142494000Y-76470081D01*
X142494000Y-75495686D01*
X142509955Y-75511641D01*
X142622852Y-75569165D01*
X142716519Y-75584000D01*
X142779481Y-75584000D01*
X142873148Y-75569165D01*
X142986045Y-75511641D01*
X143002000Y-75495686D01*
X143002000Y-76470081D01*
X143197068Y-76417813D01*
X143197073Y-76417811D01*
X143404498Y-76321087D01*
X143591974Y-76189815D01*
X143591980Y-76189810D01*
X143753810Y-76027980D01*
X143753815Y-76027974D01*
X143885087Y-75840498D01*
X143981811Y-75633073D01*
X143981813Y-75633068D01*
X144034082Y-75438000D01*
X143059686Y-75438000D01*
X143075641Y-75422045D01*
X143133165Y-75309148D01*
X143152986Y-75184000D01*
X143133165Y-75058852D01*
X143075641Y-74945955D01*
X143059686Y-74930000D01*
X144034082Y-74930000D01*
X143981813Y-74734931D01*
X143981811Y-74734926D01*
X143885087Y-74527501D01*
X143753815Y-74340025D01*
X143753810Y-74340019D01*
X143591980Y-74178189D01*
X143591974Y-74178184D01*
X143404498Y-74046912D01*
X143197073Y-73950188D01*
X143197071Y-73950187D01*
X143002000Y-73897917D01*
X143002000Y-74872314D01*
X142986045Y-74856359D01*
X142873148Y-74798835D01*
X142779481Y-74784000D01*
X142716519Y-74784000D01*
X142622852Y-74798835D01*
X142509955Y-74856359D01*
X142494000Y-74872314D01*
X142494000Y-73897917D01*
X142493999Y-73897917D01*
X142298928Y-73950187D01*
X142298926Y-73950188D01*
X142091501Y-74046912D01*
X141904025Y-74178184D01*
X141904019Y-74178189D01*
X141742189Y-74340019D01*
X141742184Y-74340025D01*
X141610912Y-74527501D01*
X141514188Y-74734926D01*
X141514186Y-74734931D01*
X141461917Y-74930000D01*
X136277903Y-74930000D01*
X136734304Y-74473599D01*
X137762753Y-73445149D01*
X137825063Y-73411126D01*
X137884457Y-73412539D01*
X137947913Y-73429543D01*
X138176000Y-73449498D01*
X138404087Y-73429543D01*
X138625243Y-73370284D01*
X138832749Y-73273523D01*
X139020300Y-73142198D01*
X139182198Y-72980300D01*
X139313523Y-72792749D01*
X139410284Y-72585243D01*
X139469543Y-72364087D01*
X139489498Y-72136000D01*
X139469543Y-71907913D01*
X139462600Y-71882000D01*
X140445917Y-71882000D01*
X141420314Y-71882000D01*
X141404359Y-71897955D01*
X141346835Y-72010852D01*
X141327014Y-72136000D01*
X141346835Y-72261148D01*
X141404359Y-72374045D01*
X141420314Y-72390000D01*
X140445918Y-72390000D01*
X140498186Y-72585068D01*
X140498188Y-72585073D01*
X140594912Y-72792498D01*
X140726184Y-72979974D01*
X140726189Y-72979980D01*
X140888019Y-73141810D01*
X140888025Y-73141815D01*
X141075501Y-73273087D01*
X141282926Y-73369811D01*
X141282931Y-73369813D01*
X141478000Y-73422081D01*
X141478000Y-72447686D01*
X141493955Y-72463641D01*
X141606852Y-72521165D01*
X141700519Y-72536000D01*
X141763481Y-72536000D01*
X141857148Y-72521165D01*
X141970045Y-72463641D01*
X141986000Y-72447686D01*
X141986000Y-73422081D01*
X142181068Y-73369813D01*
X142181073Y-73369811D01*
X142388498Y-73273087D01*
X142575974Y-73141815D01*
X142575980Y-73141810D01*
X142737810Y-72979980D01*
X142737815Y-72979974D01*
X142869087Y-72792498D01*
X142965811Y-72585073D01*
X142965813Y-72585068D01*
X143018082Y-72390000D01*
X142043686Y-72390000D01*
X142059641Y-72374045D01*
X142117165Y-72261148D01*
X142136986Y-72136000D01*
X142117165Y-72010852D01*
X142059641Y-71897955D01*
X142043686Y-71882000D01*
X143018082Y-71882000D01*
X142965813Y-71686931D01*
X142965811Y-71686926D01*
X142869087Y-71479501D01*
X142737815Y-71292025D01*
X142737810Y-71292019D01*
X142575980Y-71130189D01*
X142575974Y-71130184D01*
X142388498Y-70998912D01*
X142181073Y-70902188D01*
X142181071Y-70902187D01*
X141986000Y-70849917D01*
X141986000Y-71824314D01*
X141970045Y-71808359D01*
X141857148Y-71750835D01*
X141763481Y-71736000D01*
X141700519Y-71736000D01*
X141606852Y-71750835D01*
X141493955Y-71808359D01*
X141478000Y-71824314D01*
X141478000Y-70849917D01*
X141477999Y-70849917D01*
X141282928Y-70902187D01*
X141282926Y-70902188D01*
X141075501Y-70998912D01*
X140888025Y-71130184D01*
X140888019Y-71130189D01*
X140726189Y-71292019D01*
X140726184Y-71292025D01*
X140594912Y-71479501D01*
X140498188Y-71686926D01*
X140498186Y-71686931D01*
X140445917Y-71882000D01*
X139462600Y-71882000D01*
X139410284Y-71686757D01*
X139313523Y-71479251D01*
X139182198Y-71291700D01*
X139020300Y-71129802D01*
X138978295Y-71100390D01*
X138832749Y-70998477D01*
X138625246Y-70901717D01*
X138625240Y-70901715D01*
X138512237Y-70871436D01*
X138404087Y-70842457D01*
X138176000Y-70822502D01*
X137947913Y-70842457D01*
X137726759Y-70901715D01*
X137726753Y-70901717D01*
X137519250Y-70998477D01*
X137331703Y-71129799D01*
X137331697Y-71129804D01*
X137169804Y-71291697D01*
X137169799Y-71291703D01*
X137038477Y-71479250D01*
X136941717Y-71686753D01*
X136941715Y-71686759D01*
X136882457Y-71907913D01*
X136862502Y-72136000D01*
X136882457Y-72364090D01*
X136899459Y-72427541D01*
X136897769Y-72498518D01*
X136866847Y-72549247D01*
X132314546Y-77101548D01*
X132252234Y-77135574D01*
X132181419Y-77130509D01*
X132124583Y-77087962D01*
X132107398Y-77056491D01*
X132060889Y-76931796D01*
X132060887Y-76931793D01*
X132060887Y-76931792D01*
X131973260Y-76814738D01*
X131971405Y-76813349D01*
X131970014Y-76811491D01*
X131966889Y-76808366D01*
X131967338Y-76807916D01*
X131928857Y-76756514D01*
X131923791Y-76685699D01*
X131943699Y-76640209D01*
X131947523Y-76634749D01*
X132044284Y-76427243D01*
X132103543Y-76206087D01*
X132123498Y-75978000D01*
X132103543Y-75749913D01*
X132044284Y-75528757D01*
X131947523Y-75321251D01*
X131816198Y-75133700D01*
X131654300Y-74971802D01*
X131466749Y-74840477D01*
X131402817Y-74810665D01*
X131259246Y-74743717D01*
X131259240Y-74743715D01*
X131103233Y-74701913D01*
X131038087Y-74684457D01*
X130810000Y-74664502D01*
X130581913Y-74684457D01*
X130360759Y-74743715D01*
X130360753Y-74743717D01*
X130153250Y-74840477D01*
X129965703Y-74971799D01*
X129965697Y-74971804D01*
X129803804Y-75133697D01*
X129803799Y-75133703D01*
X129672477Y-75321250D01*
X129575717Y-75528753D01*
X129575715Y-75528759D01*
X129541021Y-75658240D01*
X129516457Y-75749913D01*
X129496502Y-75978000D01*
X129516457Y-76206087D01*
X129527047Y-76245610D01*
X129575715Y-76427240D01*
X129575717Y-76427246D01*
X129672477Y-76634749D01*
X129676300Y-76640209D01*
X129698988Y-76707483D01*
X129681703Y-76776343D01*
X129653080Y-76808337D01*
X129653110Y-76808367D01*
X129652582Y-76808894D01*
X129648602Y-76813344D01*
X129646738Y-76814739D01*
X129559112Y-76931792D01*
X129559110Y-76931797D01*
X129508011Y-77068795D01*
X129508009Y-77068803D01*
X129501500Y-77129350D01*
X129501500Y-78826649D01*
X129508009Y-78887196D01*
X129508011Y-78887204D01*
X129559110Y-79024202D01*
X129559112Y-79024207D01*
X129646738Y-79141261D01*
X129763792Y-79228887D01*
X129763794Y-79228888D01*
X129763796Y-79228889D01*
X129822875Y-79250924D01*
X129900795Y-79279988D01*
X129900803Y-79279990D01*
X129961350Y-79286499D01*
X129961355Y-79286499D01*
X129961362Y-79286500D01*
X129961368Y-79286500D01*
X131574500Y-79286500D01*
X131642621Y-79306502D01*
X131689114Y-79360158D01*
X131700500Y-79412500D01*
X131700500Y-79561474D01*
X131680498Y-79629595D01*
X131668137Y-79645784D01*
X131594957Y-79727059D01*
X131499476Y-79892438D01*
X131499473Y-79892445D01*
X131440457Y-80074072D01*
X131420496Y-80264000D01*
X131440457Y-80453927D01*
X131470526Y-80546470D01*
X131499473Y-80635556D01*
X131499476Y-80635561D01*
X131594958Y-80800941D01*
X131594965Y-80800951D01*
X131722744Y-80942864D01*
X131729483Y-80947760D01*
X131877248Y-81055118D01*
X132051712Y-81132794D01*
X132238513Y-81172500D01*
X132429487Y-81172500D01*
X132616288Y-81132794D01*
X132790752Y-81055118D01*
X132945253Y-80942866D01*
X133022662Y-80856895D01*
X133073034Y-80800951D01*
X133073035Y-80800949D01*
X133073040Y-80800944D01*
X133168527Y-80635556D01*
X133227542Y-80453928D01*
X133247504Y-80264000D01*
X133227542Y-80074072D01*
X133168527Y-79892444D01*
X133073040Y-79727056D01*
X132999863Y-79645784D01*
X132969146Y-79581776D01*
X132967500Y-79561474D01*
X132967500Y-78292593D01*
X132987502Y-78224472D01*
X133004400Y-78203503D01*
X133541676Y-77666227D01*
X133603987Y-77632202D01*
X133674802Y-77637267D01*
X133731638Y-77679814D01*
X133756449Y-77746334D01*
X133753000Y-77778861D01*
X133754059Y-77779029D01*
X133745901Y-77830525D01*
X133743495Y-77842142D01*
X133732500Y-77884968D01*
X133732500Y-77905223D01*
X133730949Y-77924933D01*
X133727780Y-77944943D01*
X133731264Y-77981801D01*
X133731941Y-77988961D01*
X133732500Y-78000819D01*
X133732500Y-88839404D01*
X133712498Y-88907525D01*
X133695595Y-88928499D01*
X129191246Y-93432847D01*
X129128934Y-93466873D01*
X129069540Y-93465459D01*
X129006090Y-93448457D01*
X128778000Y-93428502D01*
X128549913Y-93448457D01*
X128328759Y-93507715D01*
X128328753Y-93507717D01*
X128121250Y-93604477D01*
X127933703Y-93735799D01*
X127933697Y-93735804D01*
X127771804Y-93897697D01*
X127771799Y-93897703D01*
X127640477Y-94085250D01*
X127543717Y-94292753D01*
X127543715Y-94292759D01*
X127501460Y-94450458D01*
X127484457Y-94513913D01*
X127464502Y-94742000D01*
X123569500Y-94742000D01*
X123569500Y-92516594D01*
X123589502Y-92448473D01*
X123606405Y-92427499D01*
X125680499Y-90353405D01*
X125742811Y-90319379D01*
X125769594Y-90316500D01*
X125825487Y-90316500D01*
X126012288Y-90276794D01*
X126186752Y-90199118D01*
X126341253Y-90086866D01*
X126400334Y-90021250D01*
X126469034Y-89944951D01*
X126469035Y-89944949D01*
X126469040Y-89944944D01*
X126564527Y-89779556D01*
X126623542Y-89597928D01*
X126643504Y-89408000D01*
X126623542Y-89218072D01*
X126564527Y-89036444D01*
X126469040Y-88871056D01*
X126469038Y-88871054D01*
X126469034Y-88871048D01*
X126341255Y-88729135D01*
X126186752Y-88616882D01*
X126012288Y-88539206D01*
X125825487Y-88499500D01*
X125634513Y-88499500D01*
X125447711Y-88539206D01*
X125273247Y-88616882D01*
X125118744Y-88729135D01*
X124990965Y-88871048D01*
X124990958Y-88871058D01*
X124899469Y-89029522D01*
X124895473Y-89036444D01*
X124891745Y-89047917D01*
X124836457Y-89218072D01*
X124819092Y-89383292D01*
X124792079Y-89448949D01*
X124782877Y-89459216D01*
X123211158Y-91030935D01*
X123148846Y-91064961D01*
X123078031Y-91059896D01*
X123021195Y-91017349D01*
X123014630Y-91007675D01*
X123014240Y-91007038D01*
X123014240Y-91007037D01*
X122890176Y-90804584D01*
X122890173Y-90804580D01*
X122735969Y-90624030D01*
X122555419Y-90469826D01*
X122555417Y-90469825D01*
X122555416Y-90469824D01*
X122352963Y-90345760D01*
X122289274Y-90319379D01*
X122133592Y-90254894D01*
X121975651Y-90216976D01*
X121902711Y-90199465D01*
X121666000Y-90180835D01*
X121429289Y-90199465D01*
X121198407Y-90254894D01*
X120979038Y-90345759D01*
X120776582Y-90469825D01*
X120776580Y-90469826D01*
X120596030Y-90624030D01*
X120441826Y-90804580D01*
X120441825Y-90804582D01*
X120317759Y-91007038D01*
X120226894Y-91226407D01*
X120189722Y-91381243D01*
X120171465Y-91457289D01*
X120152835Y-91694000D01*
X120171465Y-91930711D01*
X120173263Y-91938200D01*
X120226894Y-92161592D01*
X120315336Y-92375110D01*
X120317760Y-92380963D01*
X120439606Y-92579797D01*
X120441825Y-92583417D01*
X120441826Y-92583419D01*
X120596030Y-92763969D01*
X120776580Y-92918173D01*
X120776584Y-92918176D01*
X120979037Y-93042240D01*
X121198406Y-93133105D01*
X121429289Y-93188535D01*
X121666000Y-93207165D01*
X121902711Y-93188535D01*
X122133594Y-93133105D01*
X122133615Y-93133096D01*
X122137547Y-93131819D01*
X122208514Y-93129782D01*
X122269317Y-93166436D01*
X122300652Y-93230144D01*
X122302500Y-93251647D01*
X122302500Y-97067500D01*
X122282498Y-97135621D01*
X122228842Y-97182114D01*
X122176500Y-97193500D01*
X122037350Y-97193500D01*
X121976803Y-97200009D01*
X121976795Y-97200011D01*
X121839797Y-97251110D01*
X121839792Y-97251112D01*
X121722738Y-97338738D01*
X121635112Y-97455792D01*
X121635110Y-97455797D01*
X121584011Y-97592795D01*
X121584009Y-97592803D01*
X121577500Y-97653350D01*
X121577500Y-98967501D01*
X121557498Y-99035622D01*
X121503842Y-99082115D01*
X121451500Y-99093501D01*
X117821595Y-99093501D01*
X117753474Y-99073499D01*
X117732500Y-99056596D01*
X105826405Y-87150500D01*
X105792379Y-87088188D01*
X105789500Y-87061405D01*
X105789500Y-75013855D01*
X105791249Y-74998014D01*
X105790956Y-74997987D01*
X105791701Y-74990094D01*
X105791702Y-74990091D01*
X105789562Y-74922014D01*
X105789500Y-74918055D01*
X105789500Y-74890149D01*
X105789500Y-74890144D01*
X105788992Y-74886130D01*
X105788061Y-74874297D01*
X105787669Y-74861819D01*
X105786673Y-74830111D01*
X105781022Y-74810664D01*
X105777012Y-74791300D01*
X105776090Y-74784000D01*
X105774474Y-74771203D01*
X105758193Y-74730084D01*
X105754355Y-74718873D01*
X105742018Y-74676407D01*
X105731706Y-74658970D01*
X105723010Y-74641221D01*
X105715552Y-74622383D01*
X105689552Y-74586598D01*
X105683059Y-74576714D01*
X105660542Y-74538638D01*
X105646214Y-74524310D01*
X105633384Y-74509289D01*
X105621472Y-74492893D01*
X105621469Y-74492891D01*
X105621469Y-74492890D01*
X105587394Y-74464700D01*
X105578616Y-74456712D01*
X101977204Y-70855300D01*
X101943178Y-70792988D01*
X101948243Y-70722173D01*
X101990790Y-70665337D01*
X102055315Y-70640684D01*
X102114087Y-70635543D01*
X102335243Y-70576284D01*
X102542749Y-70479523D01*
X102548207Y-70475700D01*
X102615477Y-70453011D01*
X102684338Y-70470293D01*
X102716335Y-70498919D01*
X102716366Y-70498889D01*
X102716916Y-70499439D01*
X102721349Y-70503405D01*
X102722738Y-70505260D01*
X102722739Y-70505261D01*
X102746360Y-70522943D01*
X102839792Y-70592887D01*
X102839794Y-70592888D01*
X102839796Y-70592889D01*
X102876543Y-70606595D01*
X102976795Y-70643988D01*
X102976803Y-70643990D01*
X103037350Y-70650499D01*
X103037355Y-70650499D01*
X103037362Y-70650500D01*
X103037368Y-70650500D01*
X104734632Y-70650500D01*
X104734638Y-70650500D01*
X104734645Y-70650499D01*
X104734649Y-70650499D01*
X104795196Y-70643990D01*
X104795199Y-70643989D01*
X104795201Y-70643989D01*
X104932204Y-70592889D01*
X104942930Y-70584860D01*
X105049261Y-70505261D01*
X105136887Y-70388207D01*
X105136887Y-70388206D01*
X105136889Y-70388204D01*
X105187989Y-70251201D01*
X105188128Y-70249913D01*
X105194499Y-70190649D01*
X105194500Y-70190632D01*
X105194500Y-70101500D01*
X105214502Y-70033379D01*
X105268158Y-69986886D01*
X105320500Y-69975500D01*
X106365406Y-69975500D01*
X106433527Y-69995502D01*
X106454501Y-70012405D01*
X110958847Y-74516751D01*
X110992873Y-74579063D01*
X110991459Y-74638456D01*
X110974458Y-74701907D01*
X110974457Y-74701910D01*
X110974457Y-74701913D01*
X110954502Y-74930000D01*
X110974457Y-75158087D01*
X111008670Y-75285771D01*
X111033715Y-75379240D01*
X111033717Y-75379246D01*
X111130477Y-75586749D01*
X111243853Y-75748667D01*
X111261802Y-75774300D01*
X111423700Y-75936198D01*
X111611251Y-76067523D01*
X111818757Y-76164284D01*
X112039913Y-76223543D01*
X112268000Y-76243498D01*
X112496087Y-76223543D01*
X112717243Y-76164284D01*
X112924749Y-76067523D01*
X113112300Y-75936198D01*
X113274198Y-75774300D01*
X113370226Y-75637158D01*
X113384181Y-75617229D01*
X113439638Y-75572901D01*
X113487394Y-75563500D01*
X115229948Y-75563500D01*
X115298069Y-75583502D01*
X115344562Y-75637158D01*
X115354666Y-75707432D01*
X115348003Y-75733533D01*
X115305011Y-75848795D01*
X115305009Y-75848803D01*
X115298500Y-75909350D01*
X115298500Y-75948500D01*
X115278498Y-76016621D01*
X115224842Y-76063114D01*
X115172500Y-76074500D01*
X114637853Y-76074500D01*
X114622011Y-76072750D01*
X114621984Y-76073044D01*
X114614091Y-76072297D01*
X114546001Y-76074438D01*
X114542043Y-76074500D01*
X114514144Y-76074500D01*
X114514138Y-76074500D01*
X114514132Y-76074501D01*
X114510133Y-76075006D01*
X114498313Y-76075936D01*
X114454114Y-76077325D01*
X114454107Y-76077327D01*
X114434649Y-76082979D01*
X114415304Y-76086985D01*
X114395206Y-76089525D01*
X114395198Y-76089527D01*
X114354090Y-76105802D01*
X114342866Y-76109645D01*
X114300409Y-76121981D01*
X114282964Y-76132297D01*
X114265218Y-76140990D01*
X114246382Y-76148448D01*
X114210610Y-76174437D01*
X114200694Y-76180951D01*
X114162637Y-76203458D01*
X114148311Y-76217784D01*
X114133285Y-76230617D01*
X114116895Y-76242525D01*
X114116893Y-76242527D01*
X114088700Y-76276605D01*
X114080713Y-76285381D01*
X112935246Y-77430847D01*
X112872934Y-77464873D01*
X112813540Y-77463459D01*
X112750090Y-77446457D01*
X112522000Y-77426502D01*
X112293913Y-77446457D01*
X112072759Y-77505715D01*
X112072753Y-77505717D01*
X111865250Y-77602477D01*
X111677703Y-77733799D01*
X111677697Y-77733804D01*
X111515804Y-77895697D01*
X111515799Y-77895703D01*
X111384477Y-78083250D01*
X111287717Y-78290753D01*
X111287715Y-78290759D01*
X111235400Y-78486000D01*
X111228457Y-78511913D01*
X111208502Y-78740000D01*
X111228457Y-78968087D01*
X111255133Y-79067641D01*
X111287715Y-79189240D01*
X111287717Y-79189246D01*
X111384477Y-79396749D01*
X111514034Y-79581776D01*
X111515802Y-79584300D01*
X111677700Y-79746198D01*
X111865251Y-79877523D01*
X112072757Y-79974284D01*
X112293913Y-80033543D01*
X112522000Y-80053498D01*
X112750087Y-80033543D01*
X112971243Y-79974284D01*
X113178749Y-79877523D01*
X113366300Y-79746198D01*
X113528198Y-79584300D01*
X113659523Y-79396749D01*
X113756284Y-79189243D01*
X113815543Y-78968087D01*
X113835498Y-78740000D01*
X113815543Y-78511913D01*
X113798540Y-78448458D01*
X113800229Y-78377483D01*
X113831147Y-78326756D01*
X114779502Y-77378402D01*
X114841812Y-77344379D01*
X114868595Y-77341500D01*
X115172500Y-77341500D01*
X115240621Y-77361502D01*
X115287114Y-77415158D01*
X115298500Y-77467500D01*
X115298500Y-77506649D01*
X115305009Y-77567196D01*
X115305011Y-77567204D01*
X115356110Y-77704202D01*
X115356112Y-77704207D01*
X115443738Y-77821261D01*
X115560792Y-77908887D01*
X115560794Y-77908888D01*
X115560796Y-77908889D01*
X115603811Y-77924933D01*
X115697795Y-77959988D01*
X115697803Y-77959990D01*
X115758350Y-77966499D01*
X115758355Y-77966499D01*
X115758362Y-77966500D01*
X116143406Y-77966500D01*
X116211527Y-77986502D01*
X116258020Y-78040158D01*
X116268124Y-78110432D01*
X116238630Y-78175012D01*
X116232501Y-78181595D01*
X113332400Y-81081694D01*
X113270088Y-81115720D01*
X113247265Y-81118537D01*
X113222109Y-81119327D01*
X113222104Y-81119328D01*
X113202659Y-81124978D01*
X113183301Y-81128987D01*
X113163206Y-81131525D01*
X113163204Y-81131526D01*
X113122082Y-81147806D01*
X113110858Y-81151648D01*
X113068409Y-81163981D01*
X113068403Y-81163983D01*
X113050965Y-81174296D01*
X113033219Y-81182990D01*
X113014380Y-81190449D01*
X112978613Y-81216435D01*
X112968697Y-81222949D01*
X112930633Y-81245460D01*
X112924373Y-81250317D01*
X112922455Y-81247844D01*
X112872873Y-81274886D01*
X112813541Y-81273459D01*
X112750090Y-81256457D01*
X112522000Y-81236502D01*
X112293913Y-81256457D01*
X112072759Y-81315715D01*
X112072753Y-81315717D01*
X111865250Y-81412477D01*
X111677703Y-81543799D01*
X111677697Y-81543804D01*
X111515804Y-81705697D01*
X111515799Y-81705703D01*
X111384477Y-81893250D01*
X111287717Y-82100753D01*
X111287715Y-82100759D01*
X111228457Y-82321913D01*
X111208502Y-82550000D01*
X111228457Y-82778090D01*
X111245459Y-82841540D01*
X111243769Y-82912516D01*
X111212847Y-82963246D01*
X111008335Y-83167758D01*
X110995900Y-83177722D01*
X110996088Y-83177949D01*
X110989978Y-83183003D01*
X110943369Y-83232636D01*
X110940619Y-83235474D01*
X110920862Y-83255232D01*
X110918373Y-83258440D01*
X110910687Y-83267437D01*
X110880417Y-83299674D01*
X110880410Y-83299684D01*
X110870650Y-83317436D01*
X110859802Y-83333951D01*
X110847385Y-83349959D01*
X110829823Y-83390541D01*
X110824603Y-83401196D01*
X110803304Y-83439940D01*
X110798266Y-83459560D01*
X110791863Y-83478263D01*
X110783818Y-83496853D01*
X110776900Y-83540526D01*
X110774494Y-83552143D01*
X110763499Y-83594969D01*
X110763499Y-83615224D01*
X110761948Y-83634934D01*
X110758779Y-83654943D01*
X110762940Y-83698962D01*
X110763499Y-83710820D01*
X110763499Y-88845775D01*
X110761750Y-88861617D01*
X110762043Y-88861645D01*
X110761297Y-88869536D01*
X110761297Y-88869538D01*
X110763437Y-88937613D01*
X110763499Y-88941572D01*
X110763499Y-88969480D01*
X110763500Y-88969498D01*
X110764006Y-88973506D01*
X110764936Y-88985325D01*
X110766325Y-89029517D01*
X110766326Y-89029522D01*
X110771976Y-89048968D01*
X110775985Y-89068326D01*
X110778524Y-89088422D01*
X110778525Y-89088429D01*
X110794799Y-89129532D01*
X110798643Y-89140758D01*
X110810981Y-89183222D01*
X110821293Y-89200660D01*
X110829987Y-89218408D01*
X110837443Y-89237238D01*
X110837449Y-89237249D01*
X110863431Y-89273010D01*
X110869948Y-89282930D01*
X110892457Y-89320991D01*
X110892458Y-89320992D01*
X110892460Y-89320995D01*
X110906778Y-89335313D01*
X110919616Y-89350343D01*
X110931525Y-89366733D01*
X110931529Y-89366738D01*
X110965597Y-89394921D01*
X110974377Y-89402911D01*
X111371388Y-89799922D01*
X111405414Y-89862234D01*
X111400349Y-89933049D01*
X111371389Y-89978112D01*
X111261799Y-90087703D01*
X111130477Y-90275250D01*
X111033717Y-90482753D01*
X111033715Y-90482759D01*
X111000536Y-90606585D01*
X110974457Y-90703913D01*
X110954502Y-90932000D01*
X110974457Y-91160087D01*
X110982197Y-91188971D01*
X111033715Y-91381240D01*
X111033717Y-91381246D01*
X111130477Y-91588749D01*
X111210530Y-91703077D01*
X111261802Y-91776300D01*
X111423700Y-91938198D01*
X111611251Y-92069523D01*
X111818757Y-92166284D01*
X112039913Y-92225543D01*
X112268000Y-92245498D01*
X112496087Y-92225543D01*
X112717243Y-92166284D01*
X112924749Y-92069523D01*
X113112300Y-91938198D01*
X113274198Y-91776300D01*
X113384181Y-91619229D01*
X113439638Y-91574901D01*
X113487394Y-91565500D01*
X115026835Y-91565500D01*
X115094956Y-91585502D01*
X115141449Y-91639158D01*
X115152307Y-91689075D01*
X115152447Y-91689065D01*
X115152527Y-91690085D01*
X115152835Y-91691500D01*
X115152835Y-91693994D01*
X115152835Y-91694000D01*
X115171465Y-91930711D01*
X115173263Y-91938200D01*
X115226894Y-92161592D01*
X115315336Y-92375110D01*
X115317760Y-92380963D01*
X115439606Y-92579797D01*
X115441825Y-92583417D01*
X115441826Y-92583419D01*
X115596030Y-92763969D01*
X115776580Y-92918173D01*
X115776584Y-92918176D01*
X115979037Y-93042240D01*
X116198406Y-93133105D01*
X116429289Y-93188535D01*
X116666000Y-93207165D01*
X116902711Y-93188535D01*
X117133594Y-93133105D01*
X117352963Y-93042240D01*
X117555416Y-92918176D01*
X117735969Y-92763969D01*
X117890176Y-92583416D01*
X118014240Y-92380963D01*
X118105105Y-92161594D01*
X118160535Y-91930711D01*
X118179165Y-91694000D01*
X118160535Y-91457289D01*
X118105105Y-91226406D01*
X118014240Y-91007037D01*
X117890176Y-90804584D01*
X117890173Y-90804580D01*
X117735969Y-90624030D01*
X117555419Y-90469826D01*
X117555417Y-90469825D01*
X117555416Y-90469824D01*
X117352963Y-90345760D01*
X117289274Y-90319379D01*
X117133592Y-90254894D01*
X116975651Y-90216976D01*
X116902711Y-90199465D01*
X116666000Y-90180835D01*
X116429289Y-90199465D01*
X116198401Y-90254896D01*
X116198398Y-90254897D01*
X116090219Y-90299706D01*
X116019630Y-90307295D01*
X116010670Y-90305339D01*
X115984031Y-90298500D01*
X115984030Y-90298500D01*
X115963776Y-90298500D01*
X115944066Y-90296949D01*
X115924057Y-90293780D01*
X115880039Y-90297941D01*
X115868181Y-90298500D01*
X113487394Y-90298500D01*
X113419273Y-90278498D01*
X113384181Y-90244771D01*
X113274426Y-90088026D01*
X113274198Y-90087700D01*
X113112300Y-89925802D01*
X113098301Y-89916000D01*
X112980765Y-89833700D01*
X112952782Y-89814106D01*
X112908455Y-89758650D01*
X112899116Y-89714849D01*
X112898673Y-89700740D01*
X112893022Y-89681293D01*
X112889012Y-89661930D01*
X112886474Y-89641833D01*
X112870192Y-89600711D01*
X112866358Y-89589512D01*
X112854018Y-89547036D01*
X112843700Y-89529591D01*
X112835005Y-89511839D01*
X112827553Y-89493015D01*
X112827550Y-89493009D01*
X112801564Y-89457243D01*
X112795045Y-89447319D01*
X112792914Y-89443716D01*
X112772542Y-89409267D01*
X112772541Y-89409265D01*
X112758218Y-89394942D01*
X112745377Y-89379909D01*
X112733471Y-89363522D01*
X112699405Y-89335340D01*
X112690626Y-89327351D01*
X112067404Y-88704129D01*
X112033378Y-88641817D01*
X112030499Y-88615034D01*
X112030499Y-88255167D01*
X112050501Y-88187046D01*
X112104157Y-88140553D01*
X112174431Y-88130449D01*
X112189092Y-88133456D01*
X112293913Y-88161543D01*
X112522000Y-88181498D01*
X112750087Y-88161543D01*
X112813541Y-88144540D01*
X112884516Y-88146228D01*
X112935247Y-88177151D01*
X113339754Y-88581658D01*
X113349721Y-88594098D01*
X113349948Y-88593911D01*
X113355000Y-88600018D01*
X113355001Y-88600019D01*
X113380966Y-88624402D01*
X113404667Y-88646658D01*
X113407511Y-88649415D01*
X113427227Y-88669132D01*
X113430424Y-88671612D01*
X113439445Y-88679317D01*
X113471680Y-88709587D01*
X113471681Y-88709587D01*
X113471683Y-88709589D01*
X113489430Y-88719345D01*
X113505960Y-88730203D01*
X113521960Y-88742614D01*
X113562537Y-88760173D01*
X113573188Y-88765391D01*
X113611941Y-88786696D01*
X113631563Y-88791734D01*
X113650264Y-88798136D01*
X113668856Y-88806182D01*
X113712523Y-88813097D01*
X113724126Y-88815499D01*
X113766971Y-88826501D01*
X113787232Y-88826501D01*
X113806940Y-88828051D01*
X113826944Y-88831220D01*
X113870955Y-88827059D01*
X113882812Y-88826501D01*
X120511146Y-88826501D01*
X120526987Y-88828250D01*
X120527015Y-88827957D01*
X120534901Y-88828701D01*
X120534908Y-88828703D01*
X120602985Y-88826563D01*
X120606944Y-88826501D01*
X120634850Y-88826501D01*
X120634855Y-88826501D01*
X120638866Y-88825993D01*
X120650698Y-88825062D01*
X120694888Y-88823674D01*
X120714346Y-88818020D01*
X120733693Y-88814014D01*
X120753796Y-88811475D01*
X120794909Y-88795196D01*
X120806129Y-88791354D01*
X120830912Y-88784155D01*
X120848590Y-88779020D01*
X120848594Y-88779018D01*
X120866025Y-88768709D01*
X120883779Y-88760010D01*
X120902616Y-88752553D01*
X120938391Y-88726559D01*
X120948297Y-88720052D01*
X120986361Y-88697543D01*
X121000684Y-88683219D01*
X121015723Y-88670375D01*
X121017434Y-88669132D01*
X121032106Y-88658473D01*
X121060302Y-88624387D01*
X121068271Y-88615631D01*
X121341541Y-88342361D01*
X121403851Y-88308337D01*
X121460045Y-88308938D01*
X121683289Y-88362535D01*
X121920000Y-88381165D01*
X122156711Y-88362535D01*
X122387594Y-88307105D01*
X122606963Y-88216240D01*
X122809416Y-88092176D01*
X122989969Y-87937969D01*
X123144176Y-87757416D01*
X123268240Y-87554963D01*
X123359105Y-87335594D01*
X123414535Y-87104711D01*
X123433165Y-86868000D01*
X123414535Y-86631289D01*
X123359105Y-86400406D01*
X123268240Y-86181037D01*
X123144176Y-85978584D01*
X123070574Y-85892407D01*
X122989969Y-85798030D01*
X122809419Y-85643826D01*
X122809417Y-85643825D01*
X122809416Y-85643824D01*
X122606963Y-85519760D01*
X122488232Y-85470580D01*
X122387592Y-85428894D01*
X122229651Y-85390976D01*
X122156711Y-85373465D01*
X121920000Y-85354835D01*
X121683289Y-85373465D01*
X121452407Y-85428894D01*
X121233038Y-85519759D01*
X121030582Y-85643825D01*
X121030580Y-85643826D01*
X120850030Y-85798030D01*
X120695826Y-85978580D01*
X120695825Y-85978582D01*
X120571759Y-86181038D01*
X120480894Y-86400407D01*
X120447295Y-86540359D01*
X120425465Y-86631289D01*
X120406835Y-86868000D01*
X120425465Y-87104711D01*
X120438628Y-87159538D01*
X120479059Y-87327948D01*
X120475511Y-87398856D01*
X120445637Y-87446456D01*
X120369500Y-87522595D01*
X120307188Y-87556621D01*
X120280403Y-87559501D01*
X118454932Y-87559501D01*
X118386811Y-87539499D01*
X118340318Y-87485843D01*
X118330214Y-87415569D01*
X118338523Y-87385284D01*
X118357162Y-87340284D01*
X118359105Y-87335594D01*
X118414535Y-87104711D01*
X118433165Y-86868000D01*
X118414535Y-86631289D01*
X118359105Y-86400406D01*
X118268240Y-86181037D01*
X118144176Y-85978584D01*
X118070574Y-85892407D01*
X117989969Y-85798030D01*
X117809419Y-85643826D01*
X117809408Y-85643818D01*
X117613665Y-85523866D01*
X117566034Y-85471219D01*
X117553500Y-85416434D01*
X117553500Y-83822648D01*
X117573502Y-83754527D01*
X117627158Y-83708034D01*
X117631259Y-83706248D01*
X117780963Y-83644240D01*
X117983416Y-83520176D01*
X118163969Y-83365969D01*
X118318176Y-83185416D01*
X118442240Y-82982963D01*
X118533105Y-82763594D01*
X118588535Y-82532711D01*
X118607165Y-82296000D01*
X118588535Y-82059289D01*
X118533105Y-81828406D01*
X118442240Y-81609037D01*
X118318176Y-81406584D01*
X118318173Y-81406580D01*
X118163969Y-81226030D01*
X117983419Y-81071826D01*
X117983417Y-81071825D01*
X117983416Y-81071824D01*
X117780963Y-80947760D01*
X117561594Y-80856895D01*
X117561592Y-80856894D01*
X117403651Y-80818976D01*
X117330711Y-80801465D01*
X117094000Y-80782835D01*
X116857289Y-80801465D01*
X116626407Y-80856894D01*
X116407038Y-80947759D01*
X116204582Y-81071825D01*
X116204580Y-81071826D01*
X116024030Y-81226030D01*
X115869826Y-81406580D01*
X115869825Y-81406582D01*
X115745759Y-81609038D01*
X115654894Y-81828407D01*
X115646804Y-81862106D01*
X115599465Y-82059289D01*
X115580835Y-82296000D01*
X115599465Y-82532711D01*
X115603616Y-82550000D01*
X115654894Y-82763592D01*
X115660899Y-82778088D01*
X115745760Y-82982963D01*
X115868345Y-83183003D01*
X115869825Y-83185417D01*
X115869826Y-83185419D01*
X116024030Y-83365969D01*
X116204580Y-83520173D01*
X116204582Y-83520174D01*
X116204584Y-83520176D01*
X116226334Y-83533504D01*
X116273965Y-83586150D01*
X116286500Y-83640937D01*
X116286500Y-85416434D01*
X116266498Y-85484555D01*
X116226335Y-85523866D01*
X116030591Y-85643818D01*
X116030580Y-85643826D01*
X115850030Y-85798030D01*
X115695826Y-85978580D01*
X115695825Y-85978582D01*
X115571759Y-86181038D01*
X115480894Y-86400407D01*
X115447295Y-86540359D01*
X115425465Y-86631289D01*
X115406835Y-86868000D01*
X115425465Y-87104711D01*
X115479160Y-87328365D01*
X115480895Y-87335593D01*
X115480895Y-87335595D01*
X115501477Y-87385284D01*
X115509066Y-87455874D01*
X115477286Y-87519360D01*
X115416228Y-87555587D01*
X115385068Y-87559501D01*
X114161596Y-87559501D01*
X114093475Y-87539499D01*
X114072501Y-87522596D01*
X113831151Y-87281246D01*
X113797125Y-87218934D01*
X113798539Y-87159541D01*
X113815543Y-87096087D01*
X113835498Y-86868000D01*
X113815543Y-86639913D01*
X113756284Y-86418757D01*
X113659523Y-86211251D01*
X113528198Y-86023700D01*
X113366300Y-85861802D01*
X113352301Y-85852000D01*
X113178749Y-85730477D01*
X112971246Y-85633717D01*
X112971240Y-85633715D01*
X112854890Y-85602539D01*
X112750087Y-85574457D01*
X112522000Y-85554502D01*
X112293913Y-85574457D01*
X112189110Y-85602539D01*
X112118133Y-85600849D01*
X112059338Y-85561055D01*
X112031390Y-85495790D01*
X112030499Y-85480832D01*
X112030499Y-83989595D01*
X112050501Y-83921474D01*
X112067399Y-83900504D01*
X112108753Y-83859150D01*
X112171062Y-83825126D01*
X112230457Y-83826539D01*
X112293913Y-83843543D01*
X112522000Y-83863498D01*
X112750087Y-83843543D01*
X112971243Y-83784284D01*
X113178749Y-83687523D01*
X113366300Y-83556198D01*
X113528198Y-83394300D01*
X113659523Y-83206749D01*
X113756284Y-82999243D01*
X113815543Y-82778087D01*
X113835498Y-82550000D01*
X113823851Y-82416879D01*
X113837840Y-82347275D01*
X113875304Y-82303966D01*
X113903401Y-82283552D01*
X113913297Y-82277052D01*
X113951361Y-82254543D01*
X113965684Y-82240219D01*
X113980723Y-82227375D01*
X113997106Y-82215473D01*
X114025302Y-82181387D01*
X114033271Y-82172631D01*
X117990657Y-78215245D01*
X118003092Y-78205284D01*
X118002905Y-78205057D01*
X118009016Y-78200001D01*
X118009015Y-78200001D01*
X118009018Y-78200000D01*
X118055676Y-78150312D01*
X118058367Y-78147535D01*
X118078135Y-78127769D01*
X118080614Y-78124571D01*
X118088299Y-78115571D01*
X118118586Y-78083321D01*
X118128345Y-78065567D01*
X118139204Y-78049038D01*
X118151614Y-78033040D01*
X118169177Y-77992451D01*
X118174396Y-77981801D01*
X118180059Y-77971501D01*
X118195695Y-77943060D01*
X118200733Y-77923435D01*
X118207143Y-77904717D01*
X118207358Y-77904221D01*
X118252780Y-77849658D01*
X118320492Y-77828313D01*
X118382378Y-77843165D01*
X118474583Y-77892450D01*
X118669399Y-77951546D01*
X118669403Y-77951546D01*
X118669405Y-77951547D01*
X118871997Y-77971501D01*
X118872000Y-77971501D01*
X118872003Y-77971501D01*
X119074594Y-77951547D01*
X119074595Y-77951546D01*
X119074601Y-77951546D01*
X119269417Y-77892450D01*
X119448960Y-77796482D01*
X119606331Y-77667331D01*
X119735482Y-77509960D01*
X119831450Y-77330417D01*
X119890546Y-77135601D01*
X119895662Y-77083664D01*
X119904141Y-76997571D01*
X119905500Y-76983775D01*
X119905500Y-76432225D01*
X119894834Y-76323931D01*
X119890547Y-76280405D01*
X119890546Y-76280403D01*
X119890546Y-76280399D01*
X119831450Y-76085583D01*
X119735482Y-75906040D01*
X119606331Y-75748669D01*
X119606325Y-75748664D01*
X119606323Y-75748662D01*
X119548671Y-75701348D01*
X119508702Y-75642671D01*
X119504058Y-75615921D01*
X119503914Y-75615944D01*
X119502673Y-75608116D01*
X119502673Y-75608110D01*
X119497022Y-75588663D01*
X119493012Y-75569300D01*
X119492588Y-75565941D01*
X119490474Y-75549203D01*
X119474195Y-75508090D01*
X119470353Y-75496869D01*
X119458018Y-75454407D01*
X119447706Y-75436970D01*
X119439010Y-75419221D01*
X119431552Y-75400383D01*
X119405552Y-75364598D01*
X119399059Y-75354714D01*
X119376542Y-75316638D01*
X119362214Y-75302310D01*
X119349384Y-75287289D01*
X119337472Y-75270893D01*
X119337469Y-75270891D01*
X119337469Y-75270890D01*
X119303394Y-75242700D01*
X119294616Y-75234712D01*
X118601247Y-74541343D01*
X118591280Y-74528902D01*
X118591053Y-74529091D01*
X118585999Y-74522981D01*
X118536348Y-74476356D01*
X118533504Y-74473599D01*
X118513777Y-74453871D01*
X118513771Y-74453866D01*
X118510567Y-74451380D01*
X118501556Y-74443683D01*
X118469325Y-74413417D01*
X118469319Y-74413413D01*
X118451563Y-74403651D01*
X118435047Y-74392802D01*
X118419041Y-74380386D01*
X118378464Y-74362827D01*
X118367807Y-74357605D01*
X118329063Y-74336306D01*
X118329060Y-74336305D01*
X118309436Y-74331266D01*
X118290736Y-74324864D01*
X118272145Y-74316819D01*
X118272143Y-74316818D01*
X118272141Y-74316818D01*
X118228474Y-74309901D01*
X118216855Y-74307495D01*
X118174030Y-74296500D01*
X118153776Y-74296500D01*
X118134066Y-74294949D01*
X118114057Y-74291780D01*
X118070039Y-74295941D01*
X118058181Y-74296500D01*
X113487394Y-74296500D01*
X113419273Y-74276498D01*
X113384181Y-74242771D01*
X113274200Y-74085703D01*
X113274195Y-74085697D01*
X113112302Y-73923804D01*
X113112296Y-73923799D01*
X112924749Y-73792477D01*
X112717246Y-73695717D01*
X112717240Y-73695715D01*
X112623771Y-73670670D01*
X112496087Y-73636457D01*
X112268000Y-73616502D01*
X112039913Y-73636457D01*
X112039910Y-73636457D01*
X112039907Y-73636458D01*
X111976457Y-73653459D01*
X111905481Y-73651769D01*
X111854752Y-73620847D01*
X111832693Y-73598788D01*
X111798667Y-73536476D01*
X111803732Y-73465661D01*
X111846279Y-73408825D01*
X111889174Y-73387987D01*
X111955243Y-73370284D01*
X112162749Y-73273523D01*
X112350300Y-73142198D01*
X112459887Y-73032611D01*
X112522199Y-72998585D01*
X112593014Y-73003650D01*
X112638077Y-73032611D01*
X113400123Y-73794657D01*
X113410090Y-73807097D01*
X113410317Y-73806910D01*
X113415369Y-73813017D01*
X113415370Y-73813018D01*
X113441335Y-73837401D01*
X113465036Y-73859657D01*
X113467880Y-73862414D01*
X113487596Y-73882131D01*
X113490793Y-73884611D01*
X113499814Y-73892316D01*
X113532049Y-73922586D01*
X113532050Y-73922586D01*
X113532052Y-73922588D01*
X113549799Y-73932344D01*
X113566329Y-73943202D01*
X113582329Y-73955613D01*
X113622906Y-73973172D01*
X113633557Y-73978390D01*
X113672310Y-73999695D01*
X113691932Y-74004733D01*
X113710633Y-74011135D01*
X113723184Y-74016567D01*
X113729222Y-74019180D01*
X113729223Y-74019180D01*
X113729225Y-74019181D01*
X113772900Y-74026098D01*
X113784511Y-74028502D01*
X113827340Y-74039500D01*
X113847594Y-74039500D01*
X113867304Y-74041051D01*
X113869511Y-74041400D01*
X113887313Y-74044220D01*
X113931331Y-74040058D01*
X113943189Y-74039500D01*
X119560147Y-74039500D01*
X119575988Y-74041249D01*
X119576016Y-74040956D01*
X119583902Y-74041700D01*
X119583909Y-74041702D01*
X119651986Y-74039562D01*
X119655945Y-74039500D01*
X119683851Y-74039500D01*
X119683856Y-74039500D01*
X119687867Y-74038992D01*
X119699699Y-74038061D01*
X119743889Y-74036673D01*
X119763347Y-74031019D01*
X119782694Y-74027013D01*
X119802797Y-74024474D01*
X119843910Y-74008195D01*
X119855130Y-74004353D01*
X119879913Y-73997154D01*
X119897591Y-73992019D01*
X119897595Y-73992017D01*
X119915026Y-73981708D01*
X119932780Y-73973009D01*
X119951617Y-73965552D01*
X119987392Y-73939558D01*
X119997298Y-73933051D01*
X120035362Y-73910542D01*
X120049685Y-73896218D01*
X120064724Y-73883374D01*
X120073422Y-73877055D01*
X120081107Y-73871472D01*
X120109303Y-73837386D01*
X120117272Y-73828630D01*
X121188570Y-72757333D01*
X121250880Y-72723309D01*
X121314799Y-72726027D01*
X121496514Y-72782079D01*
X121525444Y-72791003D01*
X121525451Y-72791005D01*
X121774214Y-72828500D01*
X121774218Y-72828500D01*
X122025782Y-72828500D01*
X122025786Y-72828500D01*
X122274549Y-72791005D01*
X122383705Y-72757335D01*
X122514936Y-72716856D01*
X122514938Y-72716854D01*
X122514945Y-72716853D01*
X122741604Y-72607700D01*
X122949462Y-72465984D01*
X123063735Y-72359954D01*
X123106799Y-72319998D01*
X123170340Y-72288327D01*
X123240916Y-72296037D01*
X123296121Y-72340679D01*
X123318427Y-72408080D01*
X123318500Y-72412363D01*
X123318500Y-74758606D01*
X123298498Y-74826727D01*
X123264771Y-74861819D01*
X123107703Y-74971799D01*
X123107697Y-74971804D01*
X122945804Y-75133697D01*
X122945799Y-75133703D01*
X122814477Y-75321250D01*
X122717717Y-75528753D01*
X122717715Y-75528759D01*
X122683021Y-75658240D01*
X122658457Y-75749913D01*
X122638502Y-75978000D01*
X122658457Y-76206087D01*
X122669047Y-76245610D01*
X122717715Y-76427240D01*
X122717717Y-76427246D01*
X122814477Y-76634749D01*
X122818300Y-76640209D01*
X122840988Y-76707483D01*
X122823703Y-76776343D01*
X122795080Y-76808337D01*
X122795110Y-76808367D01*
X122794582Y-76808894D01*
X122790602Y-76813344D01*
X122788738Y-76814739D01*
X122701112Y-76931792D01*
X122701110Y-76931797D01*
X122650011Y-77068795D01*
X122650009Y-77068803D01*
X122643500Y-77129350D01*
X122643500Y-78826649D01*
X122650009Y-78887196D01*
X122650011Y-78887204D01*
X122701110Y-79024202D01*
X122701112Y-79024207D01*
X122788738Y-79141261D01*
X122905792Y-79228887D01*
X122905794Y-79228888D01*
X122905796Y-79228889D01*
X122964875Y-79250924D01*
X123042795Y-79279988D01*
X123042803Y-79279990D01*
X123103350Y-79286499D01*
X123103355Y-79286499D01*
X123103362Y-79286500D01*
X123192500Y-79286500D01*
X123260621Y-79306502D01*
X123307114Y-79360158D01*
X123318500Y-79412500D01*
X123318500Y-81084697D01*
X123298498Y-81152818D01*
X123244842Y-81199311D01*
X123174568Y-81209415D01*
X123110670Y-81180508D01*
X122983419Y-81071826D01*
X122983417Y-81071825D01*
X122983416Y-81071824D01*
X122780963Y-80947760D01*
X122561594Y-80856895D01*
X122561592Y-80856894D01*
X122403651Y-80818976D01*
X122330711Y-80801465D01*
X122094000Y-80782835D01*
X121857289Y-80801465D01*
X121626407Y-80856894D01*
X121407038Y-80947759D01*
X121204582Y-81071825D01*
X121204580Y-81071826D01*
X121024030Y-81226030D01*
X120869826Y-81406580D01*
X120869825Y-81406582D01*
X120745759Y-81609038D01*
X120654894Y-81828407D01*
X120646804Y-81862106D01*
X120599465Y-82059289D01*
X120580835Y-82296000D01*
X120599465Y-82532711D01*
X120603616Y-82550000D01*
X120654894Y-82763592D01*
X120660899Y-82778088D01*
X120745760Y-82982963D01*
X120868345Y-83183003D01*
X120869825Y-83185417D01*
X120869826Y-83185419D01*
X121024030Y-83365969D01*
X121204580Y-83520173D01*
X121204584Y-83520176D01*
X121407037Y-83644240D01*
X121626406Y-83735105D01*
X121857289Y-83790535D01*
X122094000Y-83809165D01*
X122330711Y-83790535D01*
X122561594Y-83735105D01*
X122780963Y-83644240D01*
X122983416Y-83520176D01*
X123110670Y-83411491D01*
X123175459Y-83382460D01*
X123245659Y-83393065D01*
X123298982Y-83439940D01*
X123318500Y-83507302D01*
X123318500Y-83874776D01*
X123316751Y-83890618D01*
X123317044Y-83890646D01*
X123316298Y-83898537D01*
X123318438Y-83966614D01*
X123318500Y-83970573D01*
X123318500Y-83998481D01*
X123318501Y-83998499D01*
X123319007Y-84002507D01*
X123319937Y-84014326D01*
X123321326Y-84058518D01*
X123321327Y-84058523D01*
X123326977Y-84077969D01*
X123330986Y-84097327D01*
X123333525Y-84117423D01*
X123333526Y-84117430D01*
X123349800Y-84158533D01*
X123353644Y-84169759D01*
X123365982Y-84212223D01*
X123376294Y-84229661D01*
X123384988Y-84247409D01*
X123392444Y-84266239D01*
X123392450Y-84266250D01*
X123418432Y-84302011D01*
X123424949Y-84311931D01*
X123447458Y-84349992D01*
X123447459Y-84349993D01*
X123447461Y-84349996D01*
X123461779Y-84364314D01*
X123474617Y-84379344D01*
X123486526Y-84395734D01*
X123486530Y-84395739D01*
X123520598Y-84423922D01*
X123529378Y-84431912D01*
X128643388Y-89545922D01*
X128677414Y-89608234D01*
X128672349Y-89679049D01*
X128643389Y-89724112D01*
X128533799Y-89833703D01*
X128402477Y-90021250D01*
X128305717Y-90228753D01*
X128305715Y-90228759D01*
X128254327Y-90420541D01*
X128246457Y-90449913D01*
X128226502Y-90678000D01*
X128246457Y-90906087D01*
X128273507Y-91007037D01*
X128305715Y-91127240D01*
X128305717Y-91127246D01*
X128402477Y-91334749D01*
X128454327Y-91408799D01*
X128533802Y-91522300D01*
X128695700Y-91684198D01*
X128883251Y-91815523D01*
X129090757Y-91912284D01*
X129311913Y-91971543D01*
X129540000Y-91991498D01*
X129768087Y-91971543D01*
X129989243Y-91912284D01*
X130196749Y-91815523D01*
X130384300Y-91684198D01*
X130546198Y-91522300D01*
X130677523Y-91334749D01*
X130774284Y-91127243D01*
X130833543Y-90906087D01*
X130853498Y-90678000D01*
X130833543Y-90449913D01*
X130774284Y-90228757D01*
X130677523Y-90021251D01*
X130546198Y-89833700D01*
X130384300Y-89671802D01*
X130370201Y-89661930D01*
X130274903Y-89595201D01*
X130224782Y-89560106D01*
X130180455Y-89504650D01*
X130171116Y-89460849D01*
X130170998Y-89457089D01*
X130170673Y-89446740D01*
X130165022Y-89427293D01*
X130161012Y-89407930D01*
X130158474Y-89387833D01*
X130142192Y-89346711D01*
X130138358Y-89335512D01*
X130126018Y-89293036D01*
X130115700Y-89275591D01*
X130107005Y-89257839D01*
X130099553Y-89239015D01*
X130099550Y-89239009D01*
X130073564Y-89203243D01*
X130067045Y-89193319D01*
X130055653Y-89174056D01*
X130044542Y-89155267D01*
X130044541Y-89155265D01*
X130030218Y-89140942D01*
X130017377Y-89125909D01*
X130005471Y-89109522D01*
X129971405Y-89081340D01*
X129962626Y-89073351D01*
X124622405Y-83733130D01*
X124588379Y-83670818D01*
X124585500Y-83644035D01*
X124585500Y-82550000D01*
X128226502Y-82550000D01*
X128246457Y-82778087D01*
X128262933Y-82839575D01*
X128305715Y-82999240D01*
X128305717Y-82999246D01*
X128402477Y-83206749D01*
X128525511Y-83382460D01*
X128533802Y-83394300D01*
X128695700Y-83556198D01*
X128883251Y-83687523D01*
X129090757Y-83784284D01*
X129311913Y-83843543D01*
X129540000Y-83863498D01*
X129768087Y-83843543D01*
X129831541Y-83826540D01*
X129902516Y-83828228D01*
X129953247Y-83859151D01*
X131035843Y-84941747D01*
X131069869Y-85004059D01*
X131064804Y-85074874D01*
X131022257Y-85131710D01*
X131020559Y-85132866D01*
X131020592Y-85132912D01*
X131016580Y-85135826D01*
X130836030Y-85290030D01*
X130681826Y-85470580D01*
X130681825Y-85470582D01*
X130557759Y-85673038D01*
X130466894Y-85892407D01*
X130435296Y-86024025D01*
X130411465Y-86123289D01*
X130392835Y-86360000D01*
X130411465Y-86596711D01*
X130421399Y-86638089D01*
X130466894Y-86827592D01*
X130517589Y-86949980D01*
X130557760Y-87046963D01*
X130648870Y-87195641D01*
X130681825Y-87249417D01*
X130681826Y-87249419D01*
X130836030Y-87429969D01*
X131016580Y-87584173D01*
X131016584Y-87584176D01*
X131219037Y-87708240D01*
X131438406Y-87799105D01*
X131669289Y-87854535D01*
X131906000Y-87873165D01*
X132142711Y-87854535D01*
X132373594Y-87799105D01*
X132592963Y-87708240D01*
X132795416Y-87584176D01*
X132975969Y-87429969D01*
X133130176Y-87249416D01*
X133254240Y-87046963D01*
X133345105Y-86827594D01*
X133400535Y-86596711D01*
X133419165Y-86360000D01*
X133400535Y-86123289D01*
X133345105Y-85892406D01*
X133254240Y-85673037D01*
X133130176Y-85470584D01*
X133130173Y-85470580D01*
X132975969Y-85290030D01*
X132795419Y-85135826D01*
X132795408Y-85135818D01*
X132599805Y-85015952D01*
X132552174Y-84963305D01*
X132539702Y-84912468D01*
X132539562Y-84908002D01*
X132539500Y-84904054D01*
X132539500Y-84876149D01*
X132539500Y-84876144D01*
X132538992Y-84872130D01*
X132538061Y-84860297D01*
X132537638Y-84846835D01*
X132536673Y-84816110D01*
X132531022Y-84796663D01*
X132527012Y-84777300D01*
X132524474Y-84757203D01*
X132508195Y-84716090D01*
X132504353Y-84704869D01*
X132492018Y-84662407D01*
X132481705Y-84644969D01*
X132473010Y-84627222D01*
X132465552Y-84608383D01*
X132439568Y-84572620D01*
X132433051Y-84562699D01*
X132410541Y-84524635D01*
X132396218Y-84510312D01*
X132383377Y-84495279D01*
X132371471Y-84478892D01*
X132337405Y-84450710D01*
X132328626Y-84442721D01*
X130849151Y-82963246D01*
X130815125Y-82900934D01*
X130816540Y-82841540D01*
X130833543Y-82778087D01*
X130853498Y-82550000D01*
X130833543Y-82321913D01*
X130774284Y-82100757D01*
X130677523Y-81893251D01*
X130546198Y-81705700D01*
X130384300Y-81543802D01*
X130196749Y-81412477D01*
X130123589Y-81378362D01*
X129989246Y-81315717D01*
X129989240Y-81315715D01*
X129836864Y-81274886D01*
X129768087Y-81256457D01*
X129540000Y-81236502D01*
X129311913Y-81256457D01*
X129090759Y-81315715D01*
X129090753Y-81315717D01*
X128883250Y-81412477D01*
X128695703Y-81543799D01*
X128695697Y-81543804D01*
X128533804Y-81705697D01*
X128533799Y-81705703D01*
X128402477Y-81893250D01*
X128305717Y-82100753D01*
X128305715Y-82100759D01*
X128258479Y-82277045D01*
X128246457Y-82321913D01*
X128226502Y-82550000D01*
X124585500Y-82550000D01*
X124585500Y-79412500D01*
X124605502Y-79344379D01*
X124659158Y-79297886D01*
X124711500Y-79286500D01*
X124800632Y-79286500D01*
X124800638Y-79286500D01*
X124800645Y-79286499D01*
X124800649Y-79286499D01*
X124861196Y-79279990D01*
X124861199Y-79279989D01*
X124861201Y-79279989D01*
X124998204Y-79228889D01*
X125051399Y-79189068D01*
X125115261Y-79141261D01*
X125202887Y-79024207D01*
X125202887Y-79024206D01*
X125202889Y-79024204D01*
X125253989Y-78887201D01*
X125260500Y-78826638D01*
X125260500Y-77129362D01*
X125257510Y-77101548D01*
X125253990Y-77068803D01*
X125253988Y-77068795D01*
X125202889Y-76931797D01*
X125202887Y-76931792D01*
X125115260Y-76814738D01*
X125113405Y-76813349D01*
X125112014Y-76811491D01*
X125108889Y-76808366D01*
X125109338Y-76807916D01*
X125070857Y-76756514D01*
X125065791Y-76685699D01*
X125085699Y-76640209D01*
X125089523Y-76634749D01*
X125186284Y-76427243D01*
X125245543Y-76206087D01*
X125265498Y-75978000D01*
X125245543Y-75749913D01*
X125186284Y-75528757D01*
X125089523Y-75321251D01*
X124958198Y-75133700D01*
X124796300Y-74971802D01*
X124796296Y-74971799D01*
X124639229Y-74861819D01*
X124594901Y-74806362D01*
X124585500Y-74758606D01*
X124585500Y-71150000D01*
X125216793Y-71150000D01*
X125235593Y-71400869D01*
X125235594Y-71400873D01*
X125291571Y-71646129D01*
X125383479Y-71880309D01*
X125383481Y-71880313D01*
X125509266Y-72098180D01*
X125666125Y-72294876D01*
X125768646Y-72390000D01*
X125850538Y-72465984D01*
X125850544Y-72465988D01*
X126058387Y-72607694D01*
X126058394Y-72607698D01*
X126058397Y-72607700D01*
X126285055Y-72716853D01*
X126285058Y-72716853D01*
X126285063Y-72716856D01*
X126525440Y-72791002D01*
X126525442Y-72791002D01*
X126525451Y-72791005D01*
X126774214Y-72828500D01*
X126774218Y-72828500D01*
X127025782Y-72828500D01*
X127025786Y-72828500D01*
X127274549Y-72791005D01*
X127383705Y-72757335D01*
X127514936Y-72716856D01*
X127514938Y-72716854D01*
X127514945Y-72716853D01*
X127741604Y-72607700D01*
X127949462Y-72465984D01*
X128106798Y-72319998D01*
X128133874Y-72294876D01*
X128133874Y-72294874D01*
X128133878Y-72294872D01*
X128290731Y-72098184D01*
X128416517Y-71880316D01*
X128424544Y-71859865D01*
X128444758Y-71808359D01*
X128508427Y-71646134D01*
X128564407Y-71400869D01*
X128583207Y-71150000D01*
X130216793Y-71150000D01*
X130235593Y-71400869D01*
X130235594Y-71400873D01*
X130291571Y-71646129D01*
X130383479Y-71880309D01*
X130383481Y-71880313D01*
X130509266Y-72098180D01*
X130666125Y-72294876D01*
X130768646Y-72390000D01*
X130850538Y-72465984D01*
X130850544Y-72465988D01*
X131058387Y-72607694D01*
X131058394Y-72607698D01*
X131058397Y-72607700D01*
X131285055Y-72716853D01*
X131285058Y-72716853D01*
X131285063Y-72716856D01*
X131525440Y-72791002D01*
X131525442Y-72791002D01*
X131525451Y-72791005D01*
X131774214Y-72828500D01*
X131774218Y-72828500D01*
X132025782Y-72828500D01*
X132025786Y-72828500D01*
X132274549Y-72791005D01*
X132383705Y-72757335D01*
X132514936Y-72716856D01*
X132514938Y-72716854D01*
X132514945Y-72716853D01*
X132741604Y-72607700D01*
X132949462Y-72465984D01*
X133106798Y-72319998D01*
X133133874Y-72294876D01*
X133133874Y-72294874D01*
X133133878Y-72294872D01*
X133290731Y-72098184D01*
X133416517Y-71880316D01*
X133424544Y-71859865D01*
X133444758Y-71808359D01*
X133508427Y-71646134D01*
X133564407Y-71400869D01*
X133583207Y-71150000D01*
X133564407Y-70899131D01*
X133508856Y-70655747D01*
X133508428Y-70653870D01*
X133508427Y-70653869D01*
X133508427Y-70653866D01*
X133447603Y-70498889D01*
X133416520Y-70419690D01*
X133416518Y-70419686D01*
X133392400Y-70377913D01*
X133353995Y-70311393D01*
X133290733Y-70201819D01*
X133281825Y-70190649D01*
X133133878Y-70005128D01*
X133133877Y-70005127D01*
X133133874Y-70005123D01*
X132949467Y-69834021D01*
X132949461Y-69834015D01*
X132848415Y-69765123D01*
X132741606Y-69692301D01*
X132514949Y-69583148D01*
X132514936Y-69583143D01*
X132274559Y-69508997D01*
X132274551Y-69508995D01*
X132274549Y-69508995D01*
X132025786Y-69471500D01*
X131774214Y-69471500D01*
X131525451Y-69508995D01*
X131525449Y-69508995D01*
X131525440Y-69508997D01*
X131285063Y-69583143D01*
X131285051Y-69583148D01*
X131058394Y-69692301D01*
X131058387Y-69692305D01*
X130850544Y-69834011D01*
X130850532Y-69834021D01*
X130666125Y-70005123D01*
X130509266Y-70201819D01*
X130383481Y-70419686D01*
X130383479Y-70419690D01*
X130291571Y-70653870D01*
X130239555Y-70881772D01*
X130235593Y-70899131D01*
X130216793Y-71150000D01*
X128583207Y-71150000D01*
X128564407Y-70899131D01*
X128508856Y-70655747D01*
X128508428Y-70653870D01*
X128508427Y-70653869D01*
X128508427Y-70653866D01*
X128447603Y-70498889D01*
X128416520Y-70419690D01*
X128416518Y-70419686D01*
X128392400Y-70377913D01*
X128353995Y-70311393D01*
X128290733Y-70201819D01*
X128281825Y-70190649D01*
X128133878Y-70005128D01*
X128133877Y-70005127D01*
X128133874Y-70005123D01*
X127949467Y-69834021D01*
X127949461Y-69834015D01*
X127848415Y-69765123D01*
X127741606Y-69692301D01*
X127514949Y-69583148D01*
X127514936Y-69583143D01*
X127274559Y-69508997D01*
X127274551Y-69508995D01*
X127274549Y-69508995D01*
X127025786Y-69471500D01*
X126774214Y-69471500D01*
X126525451Y-69508995D01*
X126525449Y-69508995D01*
X126525440Y-69508997D01*
X126285063Y-69583143D01*
X126285051Y-69583148D01*
X126058394Y-69692301D01*
X126058387Y-69692305D01*
X125850544Y-69834011D01*
X125850532Y-69834021D01*
X125666125Y-70005123D01*
X125509266Y-70201819D01*
X125383481Y-70419686D01*
X125383479Y-70419690D01*
X125291571Y-70653870D01*
X125239555Y-70881772D01*
X125235593Y-70899131D01*
X125216793Y-71150000D01*
X124585500Y-71150000D01*
X124585500Y-68275393D01*
X124605502Y-68207272D01*
X124639230Y-68172180D01*
X124717321Y-68117500D01*
X124796300Y-68062198D01*
X124958198Y-67900300D01*
X125089523Y-67712749D01*
X125186284Y-67505243D01*
X125245543Y-67284087D01*
X125265498Y-67056000D01*
X125245543Y-66827913D01*
X125186284Y-66606757D01*
X125089523Y-66399251D01*
X124958198Y-66211700D01*
X124796300Y-66049802D01*
X124608749Y-65918477D01*
X124401246Y-65821717D01*
X124401240Y-65821715D01*
X124307771Y-65796670D01*
X124180087Y-65762457D01*
X123952000Y-65742502D01*
X123723913Y-65762457D01*
X123502759Y-65821715D01*
X123502753Y-65821717D01*
X123295250Y-65918477D01*
X123107703Y-66049799D01*
X123107697Y-66049804D01*
X122945804Y-66211697D01*
X122945799Y-66211703D01*
X122814477Y-66399250D01*
X122717717Y-66606753D01*
X122717715Y-66606759D01*
X122658457Y-66827913D01*
X122638502Y-67056000D01*
X122658457Y-67284086D01*
X122717715Y-67505240D01*
X122717717Y-67505246D01*
X122726652Y-67524407D01*
X122814477Y-67712749D01*
X122945802Y-67900300D01*
X123107700Y-68062198D01*
X123107703Y-68062200D01*
X123107708Y-68062204D01*
X123264770Y-68172180D01*
X123309099Y-68227637D01*
X123318500Y-68275393D01*
X123318500Y-69887636D01*
X123298498Y-69955757D01*
X123244842Y-70002250D01*
X123174568Y-70012354D01*
X123109988Y-69982860D01*
X123106799Y-69980001D01*
X122949467Y-69834021D01*
X122949461Y-69834015D01*
X122848415Y-69765123D01*
X122741606Y-69692301D01*
X122514949Y-69583148D01*
X122514936Y-69583143D01*
X122274559Y-69508997D01*
X122274551Y-69508995D01*
X122274549Y-69508995D01*
X122025786Y-69471500D01*
X121774214Y-69471500D01*
X121525451Y-69508995D01*
X121525449Y-69508995D01*
X121525440Y-69508997D01*
X121285063Y-69583143D01*
X121285051Y-69583148D01*
X121058394Y-69692301D01*
X121058387Y-69692305D01*
X120850544Y-69834011D01*
X120850532Y-69834021D01*
X120666125Y-70005123D01*
X120509266Y-70201819D01*
X120383481Y-70419686D01*
X120383479Y-70419690D01*
X120291571Y-70653870D01*
X120239555Y-70881772D01*
X120235593Y-70899131D01*
X120216793Y-71150000D01*
X120235593Y-71400869D01*
X120235594Y-71400873D01*
X120291572Y-71646132D01*
X120291574Y-71646137D01*
X120322422Y-71724737D01*
X120328690Y-71795456D01*
X120295729Y-71858338D01*
X120294228Y-71859865D01*
X119418500Y-72735595D01*
X119356187Y-72769620D01*
X119329404Y-72772500D01*
X116914745Y-72772500D01*
X116846624Y-72752498D01*
X116800131Y-72698842D01*
X116790027Y-72628568D01*
X116800551Y-72593248D01*
X116804284Y-72585243D01*
X116863543Y-72364087D01*
X116883498Y-72136000D01*
X116863543Y-71907913D01*
X116804284Y-71686757D01*
X116707523Y-71479251D01*
X116576198Y-71291700D01*
X116466610Y-71182112D01*
X116432584Y-71119800D01*
X116437649Y-71048985D01*
X116466608Y-71003924D01*
X123300129Y-64170405D01*
X123362441Y-64136379D01*
X123389224Y-64133500D01*
X125719500Y-64133500D01*
X125787621Y-64153502D01*
X125834114Y-64207158D01*
X125845500Y-64259500D01*
X125845500Y-64448649D01*
X125852009Y-64509196D01*
X125852011Y-64509204D01*
X125903110Y-64646202D01*
X125903112Y-64646207D01*
X125990738Y-64763261D01*
X126107792Y-64850887D01*
X126107794Y-64850888D01*
X126107796Y-64850889D01*
X126146428Y-64865298D01*
X126244795Y-64901988D01*
X126244803Y-64901990D01*
X126305350Y-64908499D01*
X126305355Y-64908499D01*
X126305362Y-64908500D01*
X126305368Y-64908500D01*
X128202632Y-64908500D01*
X128202638Y-64908500D01*
X128202645Y-64908499D01*
X128202649Y-64908499D01*
X128263196Y-64901990D01*
X128263199Y-64901989D01*
X128263201Y-64901989D01*
X128400204Y-64850889D01*
X128413559Y-64840892D01*
X128517261Y-64763261D01*
X128604887Y-64646207D01*
X128604887Y-64646206D01*
X128604889Y-64646204D01*
X128655989Y-64509201D01*
X128662500Y-64448638D01*
X128662500Y-62551362D01*
X128659619Y-62524562D01*
X128655990Y-62490803D01*
X128655988Y-62490795D01*
X128618111Y-62389246D01*
X128604889Y-62353796D01*
X128604888Y-62353794D01*
X128604887Y-62353792D01*
X128517261Y-62236738D01*
X128400207Y-62149112D01*
X128400202Y-62149110D01*
X128263204Y-62098011D01*
X128263196Y-62098009D01*
X128202649Y-62091500D01*
X128202638Y-62091500D01*
X127759500Y-62091500D01*
X127691379Y-62071498D01*
X127644886Y-62017842D01*
X127633500Y-61965500D01*
X127633500Y-61023772D01*
X127653502Y-60955651D01*
X127699532Y-60912958D01*
X127750684Y-60885276D01*
X127773017Y-60873190D01*
X127957220Y-60729818D01*
X127985403Y-60699204D01*
X128115314Y-60558083D01*
X128136025Y-60526382D01*
X128232371Y-60378912D01*
X128286373Y-60332825D01*
X128333895Y-60321891D01*
X128372681Y-60320673D01*
X128392139Y-60315019D01*
X128411486Y-60311013D01*
X128431589Y-60308474D01*
X128472714Y-60292190D01*
X128483922Y-60288353D01*
X128526385Y-60276018D01*
X128526392Y-60276013D01*
X128529055Y-60274862D01*
X128533616Y-60273917D01*
X128534000Y-60273806D01*
X128534008Y-60273836D01*
X128579097Y-60264499D01*
X128888500Y-60264499D01*
X128956621Y-60284501D01*
X129003114Y-60338157D01*
X129014500Y-60390499D01*
X129014500Y-61504649D01*
X129021009Y-61565196D01*
X129021011Y-61565204D01*
X129072110Y-61702202D01*
X129072112Y-61702207D01*
X129159738Y-61819261D01*
X129276792Y-61906887D01*
X129276794Y-61906888D01*
X129276796Y-61906889D01*
X129335875Y-61928924D01*
X129413795Y-61957988D01*
X129413803Y-61957990D01*
X129474350Y-61964499D01*
X129474355Y-61964499D01*
X129474362Y-61964500D01*
X129474368Y-61964500D01*
X130562070Y-61964500D01*
X130630191Y-61984502D01*
X130676684Y-62038158D01*
X130686518Y-62070787D01*
X130687325Y-62075887D01*
X130692977Y-62095339D01*
X130696986Y-62114697D01*
X130699525Y-62134793D01*
X130699526Y-62134800D01*
X130715800Y-62175903D01*
X130719644Y-62187129D01*
X130731982Y-62229593D01*
X130742294Y-62247031D01*
X130750988Y-62264779D01*
X130758444Y-62283609D01*
X130758450Y-62283620D01*
X130784432Y-62319381D01*
X130790949Y-62329301D01*
X130813458Y-62367362D01*
X130813459Y-62367363D01*
X130813461Y-62367366D01*
X130827779Y-62381684D01*
X130840617Y-62396714D01*
X130852526Y-62413104D01*
X130852530Y-62413109D01*
X130886598Y-62441292D01*
X130895378Y-62449282D01*
X132641596Y-64195500D01*
X132675622Y-64257812D01*
X132678501Y-64284595D01*
X132678501Y-66172147D01*
X132676752Y-66187989D01*
X132677045Y-66188017D01*
X132676299Y-66195908D01*
X132676299Y-66195910D01*
X132678308Y-66259824D01*
X132678439Y-66263985D01*
X132678501Y-66267944D01*
X132678501Y-66295852D01*
X132678502Y-66295870D01*
X132679008Y-66299878D01*
X132679938Y-66311697D01*
X132681327Y-66355889D01*
X132681328Y-66355894D01*
X132686978Y-66375340D01*
X132690987Y-66394698D01*
X132693526Y-66414794D01*
X132693527Y-66414801D01*
X132709801Y-66455904D01*
X132713645Y-66467130D01*
X132725983Y-66509594D01*
X132736295Y-66527032D01*
X132744989Y-66544780D01*
X132752445Y-66563610D01*
X132752451Y-66563621D01*
X132778433Y-66599382D01*
X132784950Y-66609302D01*
X132807459Y-66647363D01*
X132807460Y-66647364D01*
X132807462Y-66647367D01*
X132812320Y-66653630D01*
X132809838Y-66655554D01*
X132836873Y-66705064D01*
X132835459Y-66764457D01*
X132818458Y-66827907D01*
X132818457Y-66827910D01*
X132818457Y-66827913D01*
X132807168Y-66956948D01*
X132798502Y-67056000D01*
X132818457Y-67284086D01*
X132877715Y-67505240D01*
X132877717Y-67505246D01*
X132886652Y-67524407D01*
X132974477Y-67712749D01*
X133105802Y-67900300D01*
X133267700Y-68062198D01*
X133455251Y-68193523D01*
X133662757Y-68290284D01*
X133883913Y-68349543D01*
X134112000Y-68369498D01*
X134340087Y-68349543D01*
X134561243Y-68290284D01*
X134768749Y-68193523D01*
X134956300Y-68062198D01*
X135118198Y-67900300D01*
X135249523Y-67712749D01*
X135346284Y-67505243D01*
X135405543Y-67284087D01*
X135425498Y-67056000D01*
X135405543Y-66827913D01*
X135346284Y-66606757D01*
X135249523Y-66399251D01*
X135118198Y-66211700D01*
X134956300Y-66049802D01*
X134768749Y-65918477D01*
X134561246Y-65821717D01*
X134561240Y-65821715D01*
X134467771Y-65796670D01*
X134340087Y-65762457D01*
X134112000Y-65742502D01*
X134111998Y-65742502D01*
X134111997Y-65742502D01*
X134082479Y-65745084D01*
X134012875Y-65731093D01*
X133961884Y-65681692D01*
X133945501Y-65619563D01*
X133945501Y-64053856D01*
X133947250Y-64038015D01*
X133946957Y-64037988D01*
X133947702Y-64030095D01*
X133947703Y-64030092D01*
X133945563Y-63962014D01*
X133945501Y-63958055D01*
X133945501Y-63930150D01*
X133945501Y-63930145D01*
X133944993Y-63926131D01*
X133944062Y-63914298D01*
X133943692Y-63902523D01*
X133942674Y-63870111D01*
X133937023Y-63850664D01*
X133933013Y-63831301D01*
X133930475Y-63811204D01*
X133914196Y-63770091D01*
X133910354Y-63758870D01*
X133898019Y-63716408D01*
X133887706Y-63698970D01*
X133879011Y-63681223D01*
X133871553Y-63662384D01*
X133845569Y-63626621D01*
X133839052Y-63616700D01*
X133816542Y-63578636D01*
X133802219Y-63564313D01*
X133789378Y-63549280D01*
X133777472Y-63532893D01*
X133743406Y-63504711D01*
X133734627Y-63496722D01*
X132414829Y-62176924D01*
X132380803Y-62114612D01*
X132385868Y-62043797D01*
X132428415Y-61986961D01*
X132457802Y-61976000D01*
X136862502Y-61976000D01*
X136882457Y-62204087D01*
X136899459Y-62267538D01*
X136941715Y-62425240D01*
X136941717Y-62425246D01*
X136950964Y-62445076D01*
X137038477Y-62632749D01*
X137169802Y-62820300D01*
X137331700Y-62982198D01*
X137519251Y-63113523D01*
X137726757Y-63210284D01*
X137947913Y-63269543D01*
X138176000Y-63289498D01*
X138404087Y-63269543D01*
X138625243Y-63210284D01*
X138832749Y-63113523D01*
X139020300Y-62982198D01*
X139182198Y-62820300D01*
X139313523Y-62632749D01*
X139410284Y-62425243D01*
X139469543Y-62204087D01*
X139489498Y-61976000D01*
X139469543Y-61747913D01*
X139410284Y-61526757D01*
X139313523Y-61319251D01*
X139182198Y-61131700D01*
X139020300Y-60969802D01*
X139010544Y-60962971D01*
X138832749Y-60838477D01*
X138625246Y-60741717D01*
X138625240Y-60741715D01*
X138531771Y-60716670D01*
X138404087Y-60682457D01*
X138176000Y-60662502D01*
X137947913Y-60682457D01*
X137726759Y-60741715D01*
X137726753Y-60741717D01*
X137519250Y-60838477D01*
X137331703Y-60969799D01*
X137331697Y-60969804D01*
X137169804Y-61131697D01*
X137169799Y-61131703D01*
X137038477Y-61319250D01*
X136941717Y-61526753D01*
X136941715Y-61526759D01*
X136900173Y-61681795D01*
X136882457Y-61747913D01*
X136862502Y-61976000D01*
X132457802Y-61976000D01*
X132494935Y-61962150D01*
X132516268Y-61962435D01*
X132588000Y-61969501D01*
X132588003Y-61969501D01*
X132790594Y-61949547D01*
X132790595Y-61949546D01*
X132790601Y-61949546D01*
X132985417Y-61890450D01*
X133164960Y-61794482D01*
X133322331Y-61665331D01*
X133451482Y-61507960D01*
X133547450Y-61328417D01*
X133606546Y-61133601D01*
X133606734Y-61131700D01*
X133615283Y-61044892D01*
X133621500Y-60981775D01*
X133621500Y-60430225D01*
X133609396Y-60307335D01*
X133606547Y-60278405D01*
X133606546Y-60278403D01*
X133606546Y-60278399D01*
X133547450Y-60083583D01*
X133451482Y-59904040D01*
X133322331Y-59746669D01*
X133322325Y-59746664D01*
X133322323Y-59746662D01*
X133264671Y-59699348D01*
X133224702Y-59640671D01*
X133220058Y-59613921D01*
X133219914Y-59613944D01*
X133218673Y-59606116D01*
X133218673Y-59606110D01*
X133213022Y-59586663D01*
X133209012Y-59567300D01*
X133206474Y-59547203D01*
X133190195Y-59506090D01*
X133186353Y-59494869D01*
X133174018Y-59452407D01*
X133163706Y-59434970D01*
X133155010Y-59417221D01*
X133147552Y-59398383D01*
X133121552Y-59362598D01*
X133115059Y-59352714D01*
X133092542Y-59314638D01*
X133078214Y-59300310D01*
X133065384Y-59285289D01*
X133053472Y-59268893D01*
X133053469Y-59268891D01*
X133053469Y-59268890D01*
X133019394Y-59240700D01*
X133010616Y-59232712D01*
X131301244Y-57523339D01*
X131291279Y-57510901D01*
X131291052Y-57511090D01*
X131286001Y-57504984D01*
X131286000Y-57504982D01*
X131236347Y-57458355D01*
X131233504Y-57455599D01*
X131213777Y-57435871D01*
X131213771Y-57435866D01*
X131210567Y-57433380D01*
X131201556Y-57425683D01*
X131169325Y-57395417D01*
X131169319Y-57395413D01*
X131151563Y-57385651D01*
X131135047Y-57374802D01*
X131119041Y-57362386D01*
X131078464Y-57344827D01*
X131067807Y-57339605D01*
X131029063Y-57318306D01*
X131029060Y-57318305D01*
X131009436Y-57313266D01*
X130990736Y-57306864D01*
X130972145Y-57298819D01*
X130972143Y-57298818D01*
X130972141Y-57298818D01*
X130928474Y-57291901D01*
X130916855Y-57289495D01*
X130874030Y-57278500D01*
X130853776Y-57278500D01*
X130834066Y-57276949D01*
X130814057Y-57273780D01*
X130770039Y-57277941D01*
X130758181Y-57278500D01*
X127429964Y-57278500D01*
X127361843Y-57258498D01*
X127340869Y-57241595D01*
X126466575Y-56367301D01*
X125979275Y-55880000D01*
X132798502Y-55880000D01*
X132818457Y-56108087D01*
X132849819Y-56225129D01*
X132877715Y-56329240D01*
X132877717Y-56329246D01*
X132974477Y-56536749D01*
X133102077Y-56718981D01*
X133105802Y-56724300D01*
X133267700Y-56886198D01*
X133455251Y-57017523D01*
X133662757Y-57114284D01*
X133883913Y-57173543D01*
X134112000Y-57193498D01*
X134340087Y-57173543D01*
X134561243Y-57114284D01*
X134768749Y-57017523D01*
X134956300Y-56886198D01*
X135118198Y-56724300D01*
X135249523Y-56536749D01*
X135346284Y-56329243D01*
X135405543Y-56108087D01*
X135425498Y-55880000D01*
X135405543Y-55651913D01*
X135346284Y-55430757D01*
X135249523Y-55223251D01*
X135118198Y-55035700D01*
X134956300Y-54873802D01*
X134926827Y-54853165D01*
X134768749Y-54742477D01*
X134561246Y-54645717D01*
X134561240Y-54645715D01*
X134401206Y-54602834D01*
X134340087Y-54586457D01*
X134112000Y-54566502D01*
X133883913Y-54586457D01*
X133662759Y-54645715D01*
X133662753Y-54645717D01*
X133455250Y-54742477D01*
X133267703Y-54873799D01*
X133267697Y-54873804D01*
X133105804Y-55035697D01*
X133105799Y-55035703D01*
X132974477Y-55223250D01*
X132877717Y-55430753D01*
X132877715Y-55430759D01*
X132835730Y-55587450D01*
X132818457Y-55651913D01*
X132798502Y-55880000D01*
X125979275Y-55880000D01*
X125590614Y-55491339D01*
X125580649Y-55478901D01*
X125580422Y-55479090D01*
X125575371Y-55472984D01*
X125575370Y-55472982D01*
X125525717Y-55426355D01*
X125522874Y-55423599D01*
X125503147Y-55403871D01*
X125503141Y-55403866D01*
X125499937Y-55401380D01*
X125490926Y-55393683D01*
X125458695Y-55363417D01*
X125458689Y-55363413D01*
X125440933Y-55353651D01*
X125424417Y-55342802D01*
X125408411Y-55330386D01*
X125367834Y-55312827D01*
X125357177Y-55307605D01*
X125318433Y-55286306D01*
X125318430Y-55286305D01*
X125298806Y-55281266D01*
X125280106Y-55274864D01*
X125261515Y-55266819D01*
X125261513Y-55266818D01*
X125261511Y-55266818D01*
X125217844Y-55259901D01*
X125206225Y-55257495D01*
X125163396Y-55246499D01*
X125155607Y-55245515D01*
X125090530Y-55217132D01*
X125068187Y-55192780D01*
X124958200Y-55035703D01*
X124958195Y-55035697D01*
X124796302Y-54873804D01*
X124796296Y-54873799D01*
X124608749Y-54742477D01*
X124401246Y-54645717D01*
X124401240Y-54645715D01*
X124241206Y-54602834D01*
X124180087Y-54586457D01*
X123952000Y-54566502D01*
X123723913Y-54586457D01*
X123502759Y-54645715D01*
X123502753Y-54645717D01*
X123295250Y-54742477D01*
X123107703Y-54873799D01*
X123107697Y-54873804D01*
X122945804Y-55035697D01*
X122945799Y-55035703D01*
X122835819Y-55192771D01*
X122780362Y-55237099D01*
X122732606Y-55246500D01*
X122408595Y-55246500D01*
X122340474Y-55226498D01*
X122319500Y-55209595D01*
X121028363Y-53918458D01*
X120994337Y-53856146D01*
X120994938Y-53799955D01*
X121048535Y-53576711D01*
X121067165Y-53340000D01*
X121048535Y-53103289D01*
X120993105Y-52872406D01*
X120902240Y-52653037D01*
X120778176Y-52450584D01*
X120778173Y-52450580D01*
X120623969Y-52270030D01*
X120443419Y-52115826D01*
X120443417Y-52115825D01*
X120443416Y-52115824D01*
X120240963Y-51991760D01*
X120127717Y-51944852D01*
X120021592Y-51900894D01*
X119863651Y-51862976D01*
X119790711Y-51845465D01*
X119554000Y-51826835D01*
X119317289Y-51845465D01*
X119086407Y-51900894D01*
X118867038Y-51991759D01*
X118664582Y-52115825D01*
X118664580Y-52115826D01*
X118484030Y-52270030D01*
X118329826Y-52450580D01*
X118329825Y-52450582D01*
X118205759Y-52653038D01*
X118114894Y-52872407D01*
X118099327Y-52937251D01*
X118059465Y-53103289D01*
X118040835Y-53340000D01*
X118049248Y-53446901D01*
X118059465Y-53576710D01*
X118114894Y-53807592D01*
X118157586Y-53910659D01*
X118205760Y-54026963D01*
X118304831Y-54188632D01*
X118329825Y-54229417D01*
X118329826Y-54229419D01*
X118484030Y-54409969D01*
X118664580Y-54564173D01*
X118664584Y-54564176D01*
X118867037Y-54688240D01*
X119086406Y-54779105D01*
X119317289Y-54834535D01*
X119554000Y-54853165D01*
X119790711Y-54834535D01*
X120013953Y-54780939D01*
X120084858Y-54784486D01*
X120132459Y-54814363D01*
X121586753Y-56268657D01*
X121596720Y-56281097D01*
X121596947Y-56280910D01*
X121601999Y-56287017D01*
X121602000Y-56287018D01*
X121646965Y-56329243D01*
X121651666Y-56333657D01*
X121654510Y-56336414D01*
X121674226Y-56356131D01*
X121677423Y-56358611D01*
X121686444Y-56366316D01*
X121718679Y-56396586D01*
X121718680Y-56396586D01*
X121718682Y-56396588D01*
X121736429Y-56406344D01*
X121752959Y-56417202D01*
X121768959Y-56429613D01*
X121809536Y-56447172D01*
X121820187Y-56452390D01*
X121858940Y-56473695D01*
X121878562Y-56478733D01*
X121897263Y-56485135D01*
X121915855Y-56493181D01*
X121959522Y-56500096D01*
X121971125Y-56502498D01*
X122013970Y-56513500D01*
X122034231Y-56513500D01*
X122053939Y-56515050D01*
X122073943Y-56518219D01*
X122117954Y-56514058D01*
X122129811Y-56513500D01*
X122732606Y-56513500D01*
X122800727Y-56533502D01*
X122835819Y-56567229D01*
X122945799Y-56724296D01*
X122945802Y-56724300D01*
X123107700Y-56886198D01*
X123295251Y-57017523D01*
X123502757Y-57114284D01*
X123723913Y-57173543D01*
X123952000Y-57193498D01*
X124180087Y-57173543D01*
X124401243Y-57114284D01*
X124608749Y-57017523D01*
X124796300Y-56886198D01*
X124905889Y-56776608D01*
X124968197Y-56742586D01*
X125039013Y-56747650D01*
X125084076Y-56776611D01*
X126491215Y-58183750D01*
X126525241Y-58246062D01*
X126520176Y-58316877D01*
X126477629Y-58373713D01*
X126443039Y-58392016D01*
X126432278Y-58395710D01*
X126432273Y-58395712D01*
X126226985Y-58506809D01*
X126226983Y-58506810D01*
X126042778Y-58650182D01*
X126042774Y-58650186D01*
X125884685Y-58821916D01*
X125757015Y-59017331D01*
X125663252Y-59231089D01*
X125663249Y-59231096D01*
X125605950Y-59457366D01*
X125605949Y-59457372D01*
X125605949Y-59457374D01*
X125586673Y-59690000D01*
X125599506Y-59844876D01*
X125605950Y-59922633D01*
X125663249Y-60148903D01*
X125663252Y-60148910D01*
X125757015Y-60362668D01*
X125884685Y-60558083D01*
X126042774Y-60729813D01*
X126042778Y-60729817D01*
X126077197Y-60756606D01*
X126226983Y-60873190D01*
X126226988Y-60873192D01*
X126226990Y-60873194D01*
X126300468Y-60912958D01*
X126350859Y-60962971D01*
X126366500Y-61023772D01*
X126366500Y-61971746D01*
X126346498Y-62039867D01*
X126292842Y-62086360D01*
X126253973Y-62097024D01*
X126244801Y-62098010D01*
X126244795Y-62098011D01*
X126107797Y-62149110D01*
X126107792Y-62149112D01*
X125990738Y-62236738D01*
X125903112Y-62353792D01*
X125903110Y-62353797D01*
X125852011Y-62490795D01*
X125852009Y-62490803D01*
X125845500Y-62551350D01*
X125845500Y-62740500D01*
X125825498Y-62808621D01*
X125771842Y-62855114D01*
X125719500Y-62866500D01*
X123158484Y-62866500D01*
X123142642Y-62864750D01*
X123142615Y-62865044D01*
X123134722Y-62864297D01*
X123066632Y-62866438D01*
X123062674Y-62866500D01*
X123034774Y-62866500D01*
X123034768Y-62866500D01*
X123034762Y-62866501D01*
X123030763Y-62867006D01*
X123018943Y-62867936D01*
X122974741Y-62869325D01*
X122955280Y-62874979D01*
X122935934Y-62878985D01*
X122915834Y-62881525D01*
X122915833Y-62881525D01*
X122874725Y-62897800D01*
X122863500Y-62901643D01*
X122821043Y-62913978D01*
X122821034Y-62913982D01*
X122803592Y-62924297D01*
X122785845Y-62932991D01*
X122767013Y-62940447D01*
X122767011Y-62940448D01*
X122731244Y-62966434D01*
X122721330Y-62972947D01*
X122683266Y-62995459D01*
X122683263Y-62995461D01*
X122668942Y-63009783D01*
X122653913Y-63022619D01*
X122637523Y-63034527D01*
X122609330Y-63068605D01*
X122601343Y-63077381D01*
X115181336Y-70497387D01*
X115168901Y-70507351D01*
X115169089Y-70507578D01*
X115162979Y-70512632D01*
X115116370Y-70562265D01*
X115113620Y-70565103D01*
X115093863Y-70584861D01*
X115091374Y-70588069D01*
X115083688Y-70597066D01*
X115053418Y-70629303D01*
X115053411Y-70629313D01*
X115043651Y-70647065D01*
X115032803Y-70663580D01*
X115020386Y-70679588D01*
X115002824Y-70720170D01*
X114997604Y-70730825D01*
X114976305Y-70769569D01*
X114976303Y-70769574D01*
X114971267Y-70789189D01*
X114964864Y-70807892D01*
X114956819Y-70826482D01*
X114949901Y-70870155D01*
X114947495Y-70881772D01*
X114936499Y-70924600D01*
X114935515Y-70932393D01*
X114907132Y-70997470D01*
X114882780Y-71019813D01*
X114725703Y-71129799D01*
X114725697Y-71129804D01*
X114563804Y-71291697D01*
X114563799Y-71291703D01*
X114432477Y-71479250D01*
X114335717Y-71686753D01*
X114335715Y-71686759D01*
X114283852Y-71880313D01*
X114276457Y-71907913D01*
X114256502Y-72136000D01*
X114276457Y-72364087D01*
X114310670Y-72491771D01*
X114335715Y-72585240D01*
X114335717Y-72585245D01*
X114339449Y-72593248D01*
X114350111Y-72663440D01*
X114321132Y-72728253D01*
X114261713Y-72767110D01*
X114225255Y-72772500D01*
X114221965Y-72772500D01*
X114153844Y-72752498D01*
X114132870Y-72735595D01*
X113144614Y-71747339D01*
X113134649Y-71734901D01*
X113134422Y-71735090D01*
X113129371Y-71728984D01*
X113129370Y-71728982D01*
X113124849Y-71724737D01*
X113079719Y-71682357D01*
X113076875Y-71679600D01*
X113057147Y-71659871D01*
X113057141Y-71659866D01*
X113053937Y-71657380D01*
X113044926Y-71649683D01*
X113012695Y-71619417D01*
X113012689Y-71619413D01*
X112994933Y-71609651D01*
X112978417Y-71598802D01*
X112962411Y-71586386D01*
X112921834Y-71568827D01*
X112911177Y-71563605D01*
X112872433Y-71542306D01*
X112872430Y-71542305D01*
X112852806Y-71537266D01*
X112834106Y-71530864D01*
X112815515Y-71522819D01*
X112815513Y-71522818D01*
X112815511Y-71522818D01*
X112771844Y-71515901D01*
X112760225Y-71513495D01*
X112717396Y-71502499D01*
X112709607Y-71501515D01*
X112644530Y-71473132D01*
X112622187Y-71448780D01*
X112571828Y-71376860D01*
X112512198Y-71291700D01*
X112350300Y-71129802D01*
X112308295Y-71100390D01*
X112162749Y-70998477D01*
X111955246Y-70901717D01*
X111955240Y-70901715D01*
X111842237Y-70871436D01*
X111734087Y-70842457D01*
X111506000Y-70822502D01*
X111277913Y-70842457D01*
X111277910Y-70842457D01*
X111277907Y-70842458D01*
X111214456Y-70859459D01*
X111143479Y-70857769D01*
X111092751Y-70826847D01*
X109074666Y-68808761D01*
X109040640Y-68746449D01*
X109045705Y-68675633D01*
X109047336Y-68671486D01*
X109135105Y-68459594D01*
X109190535Y-68228711D01*
X109209165Y-67992000D01*
X109190535Y-67755289D01*
X109135105Y-67524406D01*
X109044240Y-67305037D01*
X108920176Y-67102584D01*
X108884976Y-67061370D01*
X108765969Y-66922030D01*
X108585419Y-66767826D01*
X108585417Y-66767825D01*
X108585416Y-66767824D01*
X108382963Y-66643760D01*
X108299774Y-66609302D01*
X108163592Y-66552894D01*
X107983232Y-66509594D01*
X107932711Y-66497465D01*
X107696000Y-66478835D01*
X107459289Y-66497465D01*
X107228407Y-66552894D01*
X107009038Y-66643759D01*
X106806582Y-66767825D01*
X106806580Y-66767826D01*
X106626030Y-66922030D01*
X106471826Y-67102580D01*
X106471825Y-67102582D01*
X106347759Y-67305038D01*
X106256894Y-67524407D01*
X106211678Y-67712749D01*
X106201465Y-67755289D01*
X106182835Y-67992000D01*
X106201380Y-68227637D01*
X106201465Y-68228710D01*
X106256894Y-68459592D01*
X106287832Y-68534282D01*
X106295421Y-68604872D01*
X106263641Y-68668359D01*
X106202583Y-68704586D01*
X106171423Y-68708500D01*
X105320500Y-68708500D01*
X105252379Y-68688498D01*
X105205886Y-68634842D01*
X105194500Y-68582500D01*
X105194500Y-68493367D01*
X105194499Y-68493350D01*
X105187990Y-68432803D01*
X105187988Y-68432795D01*
X105136889Y-68295797D01*
X105136887Y-68295792D01*
X105049261Y-68178738D01*
X104932207Y-68091112D01*
X104932202Y-68091110D01*
X104795204Y-68040011D01*
X104795196Y-68040009D01*
X104734649Y-68033500D01*
X104734638Y-68033500D01*
X103037362Y-68033500D01*
X103037350Y-68033500D01*
X102976803Y-68040009D01*
X102976795Y-68040011D01*
X102839797Y-68091110D01*
X102839792Y-68091112D01*
X102721009Y-68180033D01*
X102654489Y-68204844D01*
X102585115Y-68189753D01*
X102534912Y-68139550D01*
X102519500Y-68079165D01*
X102519500Y-62992000D01*
X106183337Y-62992000D01*
X106201960Y-63228632D01*
X106257371Y-63459437D01*
X106348208Y-63678738D01*
X106462896Y-63865890D01*
X106462897Y-63865890D01*
X107211638Y-63117149D01*
X107236507Y-63201844D01*
X107314239Y-63322798D01*
X107422900Y-63416952D01*
X107553685Y-63476680D01*
X107568411Y-63478797D01*
X106822107Y-64225101D01*
X106822108Y-64225102D01*
X107009261Y-64339791D01*
X107228562Y-64430628D01*
X107459367Y-64486039D01*
X107696000Y-64504662D01*
X107932632Y-64486039D01*
X108163437Y-64430628D01*
X108382738Y-64339791D01*
X108569890Y-64225102D01*
X108569891Y-64225102D01*
X107823587Y-63478797D01*
X107838315Y-63476680D01*
X107969100Y-63416952D01*
X108077761Y-63322798D01*
X108155493Y-63201844D01*
X108180361Y-63117150D01*
X108929102Y-63865891D01*
X108929102Y-63865890D01*
X109043791Y-63678738D01*
X109134628Y-63459437D01*
X109190039Y-63228632D01*
X109208662Y-62992000D01*
X109190039Y-62755367D01*
X109134628Y-62524562D01*
X109043791Y-62305261D01*
X108929102Y-62118108D01*
X108929101Y-62118107D01*
X108180360Y-62866848D01*
X108155493Y-62782156D01*
X108077761Y-62661202D01*
X107969100Y-62567048D01*
X107838315Y-62507320D01*
X107823586Y-62505202D01*
X108352787Y-61976000D01*
X110192502Y-61976000D01*
X110212457Y-62204087D01*
X110229459Y-62267538D01*
X110271715Y-62425240D01*
X110271717Y-62425246D01*
X110280964Y-62445076D01*
X110368477Y-62632749D01*
X110499802Y-62820300D01*
X110661700Y-62982198D01*
X110849251Y-63113523D01*
X111056757Y-63210284D01*
X111277913Y-63269543D01*
X111506000Y-63289498D01*
X111734087Y-63269543D01*
X111955243Y-63210284D01*
X112162749Y-63113523D01*
X112350300Y-62982198D01*
X112512198Y-62820300D01*
X112622181Y-62663229D01*
X112677638Y-62618901D01*
X112725394Y-62609500D01*
X114350606Y-62609500D01*
X114418727Y-62629502D01*
X114453819Y-62663229D01*
X114563802Y-62820300D01*
X114725700Y-62982198D01*
X114913251Y-63113523D01*
X115120757Y-63210284D01*
X115341913Y-63269543D01*
X115570000Y-63289498D01*
X115798087Y-63269543D01*
X116019243Y-63210284D01*
X116226749Y-63113523D01*
X116414300Y-62982198D01*
X116576198Y-62820300D01*
X116707523Y-62632749D01*
X116804284Y-62425243D01*
X116863543Y-62204087D01*
X116883498Y-61976000D01*
X116863543Y-61747913D01*
X116804284Y-61526757D01*
X116707523Y-61319251D01*
X116576198Y-61131700D01*
X116414300Y-60969802D01*
X116404544Y-60962971D01*
X116226749Y-60838477D01*
X116019246Y-60741717D01*
X116019240Y-60741715D01*
X115925771Y-60716670D01*
X115798087Y-60682457D01*
X115570000Y-60662502D01*
X115341913Y-60682457D01*
X115120759Y-60741715D01*
X115120753Y-60741717D01*
X114913250Y-60838477D01*
X114725703Y-60969799D01*
X114725697Y-60969804D01*
X114563804Y-61131697D01*
X114563799Y-61131703D01*
X114453819Y-61288771D01*
X114398362Y-61333099D01*
X114350606Y-61342500D01*
X112725394Y-61342500D01*
X112657273Y-61322498D01*
X112622181Y-61288771D01*
X112512200Y-61131703D01*
X112512195Y-61131697D01*
X112350302Y-60969804D01*
X112350296Y-60969799D01*
X112162749Y-60838477D01*
X111955246Y-60741717D01*
X111955240Y-60741715D01*
X111861771Y-60716670D01*
X111734087Y-60682457D01*
X111506000Y-60662502D01*
X111277913Y-60682457D01*
X111056759Y-60741715D01*
X111056753Y-60741717D01*
X110849250Y-60838477D01*
X110661703Y-60969799D01*
X110661697Y-60969804D01*
X110499804Y-61131697D01*
X110499799Y-61131703D01*
X110368477Y-61319250D01*
X110271717Y-61526753D01*
X110271715Y-61526759D01*
X110230173Y-61681795D01*
X110212457Y-61747913D01*
X110192502Y-61976000D01*
X108352787Y-61976000D01*
X108569890Y-61758897D01*
X108569890Y-61758896D01*
X108382738Y-61644208D01*
X108163437Y-61553371D01*
X107932632Y-61497960D01*
X107696000Y-61479337D01*
X107459367Y-61497960D01*
X107228562Y-61553371D01*
X107009266Y-61644206D01*
X106822108Y-61758897D01*
X106822108Y-61758898D01*
X107568412Y-62505202D01*
X107553685Y-62507320D01*
X107422900Y-62567048D01*
X107314239Y-62661202D01*
X107236507Y-62782156D01*
X107211639Y-62866849D01*
X106462898Y-62118108D01*
X106462897Y-62118108D01*
X106348206Y-62305266D01*
X106257371Y-62524562D01*
X106201960Y-62755367D01*
X106183337Y-62992000D01*
X102519500Y-62992000D01*
X102519500Y-61428593D01*
X102539502Y-61360472D01*
X102556395Y-61339508D01*
X103488570Y-60407332D01*
X103550879Y-60373310D01*
X103614799Y-60376027D01*
X103661714Y-60390499D01*
X103825440Y-60441002D01*
X103825442Y-60441002D01*
X103825451Y-60441005D01*
X104074214Y-60478500D01*
X104074218Y-60478500D01*
X104325782Y-60478500D01*
X104325786Y-60478500D01*
X104574549Y-60441005D01*
X104609520Y-60430218D01*
X104814936Y-60366856D01*
X104814938Y-60366854D01*
X104814945Y-60366853D01*
X105041604Y-60257700D01*
X105249462Y-60115984D01*
X105426574Y-59951649D01*
X105433874Y-59944876D01*
X105433874Y-59944874D01*
X105433878Y-59944872D01*
X105590731Y-59748184D01*
X105716517Y-59530316D01*
X105716606Y-59530091D01*
X105747094Y-59452407D01*
X105808427Y-59296134D01*
X105864407Y-59050869D01*
X105883207Y-58800000D01*
X105864407Y-58549131D01*
X105808427Y-58303866D01*
X105732549Y-58110532D01*
X105726281Y-58039812D01*
X105759242Y-57976931D01*
X105820967Y-57941852D01*
X105849839Y-57938499D01*
X107390405Y-57938499D01*
X107458526Y-57958501D01*
X107479500Y-57975404D01*
X107594228Y-58090132D01*
X107628254Y-58152444D01*
X107623189Y-58223259D01*
X107622423Y-58225260D01*
X107591574Y-58303862D01*
X107591572Y-58303867D01*
X107536811Y-58543796D01*
X107535593Y-58549131D01*
X107516793Y-58800000D01*
X107535593Y-59050869D01*
X107535594Y-59050873D01*
X107591571Y-59296129D01*
X107683479Y-59530309D01*
X107683481Y-59530313D01*
X107809266Y-59748180D01*
X107809268Y-59748183D01*
X107809269Y-59748184D01*
X107886375Y-59844872D01*
X107966125Y-59944876D01*
X108042767Y-60015988D01*
X108150538Y-60115984D01*
X108150544Y-60115988D01*
X108358387Y-60257694D01*
X108358394Y-60257698D01*
X108358397Y-60257700D01*
X108585055Y-60366853D01*
X108585058Y-60366853D01*
X108585063Y-60366856D01*
X108825440Y-60441002D01*
X108825442Y-60441002D01*
X108825451Y-60441005D01*
X109074214Y-60478500D01*
X109074218Y-60478500D01*
X109325782Y-60478500D01*
X109325786Y-60478500D01*
X109574549Y-60441005D01*
X109609520Y-60430218D01*
X109814936Y-60366856D01*
X109814938Y-60366854D01*
X109814945Y-60366853D01*
X110041604Y-60257700D01*
X110249462Y-60115984D01*
X110426574Y-59951649D01*
X110433874Y-59944876D01*
X110433874Y-59944874D01*
X110433878Y-59944872D01*
X110590731Y-59748184D01*
X110716517Y-59530316D01*
X110716606Y-59530091D01*
X110747094Y-59452407D01*
X110808427Y-59296134D01*
X110864407Y-59050869D01*
X110883207Y-58800000D01*
X112517295Y-58800000D01*
X112536089Y-59050797D01*
X112592053Y-59295987D01*
X112592054Y-59295989D01*
X112683931Y-59530091D01*
X112683933Y-59530095D01*
X112809682Y-59747899D01*
X112809685Y-59747902D01*
X112846597Y-59794190D01*
X113596065Y-59044723D01*
X113607188Y-59078956D01*
X113695186Y-59217619D01*
X113814903Y-59330040D01*
X113953160Y-59406048D01*
X113206010Y-60153197D01*
X113206010Y-60153199D01*
X113358638Y-60257259D01*
X113358646Y-60257263D01*
X113585235Y-60366384D01*
X113585247Y-60366389D01*
X113825552Y-60440513D01*
X113825564Y-60440515D01*
X114074255Y-60478000D01*
X114325745Y-60478000D01*
X114574435Y-60440515D01*
X114574447Y-60440513D01*
X114814752Y-60366389D01*
X114814765Y-60366384D01*
X115041355Y-60257263D01*
X115193988Y-60153198D01*
X115193988Y-60153197D01*
X114443482Y-59402691D01*
X114515629Y-59374126D01*
X114648492Y-59277595D01*
X114753175Y-59151055D01*
X114803441Y-59044232D01*
X115553399Y-59794190D01*
X115553400Y-59794190D01*
X115590318Y-59747897D01*
X115716066Y-59530095D01*
X115716068Y-59530091D01*
X115807945Y-59295989D01*
X115807946Y-59295987D01*
X115863910Y-59050797D01*
X115882704Y-58800000D01*
X115863910Y-58549206D01*
X115863818Y-58548802D01*
X115863827Y-58548649D01*
X115863208Y-58544540D01*
X115864086Y-58544407D01*
X115868153Y-58477938D01*
X115910111Y-58420667D01*
X115976372Y-58395171D01*
X116045898Y-58409547D01*
X116075751Y-58431656D01*
X117722755Y-60078660D01*
X117732720Y-60091097D01*
X117732947Y-60090910D01*
X117737999Y-60097017D01*
X117787649Y-60143641D01*
X117790493Y-60146398D01*
X117810223Y-60166129D01*
X117810224Y-60166130D01*
X117810228Y-60166133D01*
X117810230Y-60166135D01*
X117813435Y-60168621D01*
X117822442Y-60176314D01*
X117854679Y-60206586D01*
X117872428Y-60216343D01*
X117888954Y-60227199D01*
X117904959Y-60239614D01*
X117909636Y-60242380D01*
X117958090Y-60294271D01*
X117971500Y-60350835D01*
X117971500Y-60638649D01*
X117978009Y-60699196D01*
X117978011Y-60699204D01*
X118029110Y-60836202D01*
X118029112Y-60836207D01*
X118116738Y-60953261D01*
X118233792Y-61040887D01*
X118233794Y-61040888D01*
X118233796Y-61040889D01*
X118292875Y-61062924D01*
X118370795Y-61091988D01*
X118370803Y-61091990D01*
X118431350Y-61098499D01*
X118431355Y-61098499D01*
X118431362Y-61098500D01*
X118874500Y-61098500D01*
X118942621Y-61118502D01*
X118989114Y-61172158D01*
X119000500Y-61224500D01*
X119000500Y-62166227D01*
X118980498Y-62234348D01*
X118934470Y-62277040D01*
X118860989Y-62316806D01*
X118860983Y-62316810D01*
X118676778Y-62460182D01*
X118676774Y-62460186D01*
X118518685Y-62631916D01*
X118391015Y-62827331D01*
X118297252Y-63041089D01*
X118297249Y-63041096D01*
X118239950Y-63267366D01*
X118239949Y-63267372D01*
X118239949Y-63267374D01*
X118220673Y-63500000D01*
X118238605Y-63716408D01*
X118239950Y-63732633D01*
X118297249Y-63958903D01*
X118297252Y-63958910D01*
X118391015Y-64172668D01*
X118518685Y-64368083D01*
X118676774Y-64539813D01*
X118676778Y-64539817D01*
X118742650Y-64591087D01*
X118860983Y-64683190D01*
X119066273Y-64794287D01*
X119287049Y-64870080D01*
X119517288Y-64908500D01*
X119517292Y-64908500D01*
X119750708Y-64908500D01*
X119750712Y-64908500D01*
X119980951Y-64870080D01*
X120201727Y-64794287D01*
X120407017Y-64683190D01*
X120591220Y-64539818D01*
X120619403Y-64509204D01*
X120749314Y-64368083D01*
X120803859Y-64284595D01*
X120876984Y-64172669D01*
X120970749Y-63958907D01*
X121028051Y-63732626D01*
X121047327Y-63500000D01*
X121028051Y-63267374D01*
X121005334Y-63177665D01*
X120970750Y-63041096D01*
X120970747Y-63041089D01*
X120962645Y-63022619D01*
X120876984Y-62827331D01*
X120820255Y-62740500D01*
X120749314Y-62631916D01*
X120591225Y-62460186D01*
X120591221Y-62460182D01*
X120499118Y-62388496D01*
X120407017Y-62316810D01*
X120385686Y-62305266D01*
X120333530Y-62277040D01*
X120283140Y-62227027D01*
X120267500Y-62166227D01*
X120267500Y-61218253D01*
X120287502Y-61150132D01*
X120341158Y-61103639D01*
X120380034Y-61092975D01*
X120389196Y-61091990D01*
X120389199Y-61091989D01*
X120389201Y-61091989D01*
X120526204Y-61040889D01*
X120643261Y-60953261D01*
X120713211Y-60859819D01*
X120730887Y-60836207D01*
X120730887Y-60836206D01*
X120730889Y-60836204D01*
X120781989Y-60699201D01*
X120782524Y-60694230D01*
X120788499Y-60638649D01*
X120788500Y-60638632D01*
X120788500Y-58741367D01*
X120788499Y-58741350D01*
X120781990Y-58680803D01*
X120781988Y-58680795D01*
X120750936Y-58597543D01*
X120730889Y-58543796D01*
X120730888Y-58543794D01*
X120730887Y-58543792D01*
X120643261Y-58426738D01*
X120526207Y-58339112D01*
X120526202Y-58339110D01*
X120389204Y-58288011D01*
X120389196Y-58288009D01*
X120328649Y-58281500D01*
X120328638Y-58281500D01*
X118431362Y-58281500D01*
X118431350Y-58281500D01*
X118370803Y-58288009D01*
X118370795Y-58288011D01*
X118233797Y-58339110D01*
X118233792Y-58339112D01*
X118116739Y-58426738D01*
X118095098Y-58455647D01*
X118038262Y-58498192D01*
X117967446Y-58503256D01*
X117905136Y-58469231D01*
X115224405Y-55788500D01*
X115190379Y-55726188D01*
X115187500Y-55699405D01*
X115187500Y-54791565D01*
X115207502Y-54723444D01*
X115247662Y-54684134D01*
X115443416Y-54564176D01*
X115623969Y-54409969D01*
X115778176Y-54229416D01*
X115902240Y-54026963D01*
X115993105Y-53807594D01*
X116048535Y-53576711D01*
X116067165Y-53340000D01*
X116048535Y-53103289D01*
X115993105Y-52872406D01*
X115902240Y-52653037D01*
X115778176Y-52450584D01*
X115778173Y-52450580D01*
X115623969Y-52270030D01*
X115443419Y-52115826D01*
X115443417Y-52115825D01*
X115443416Y-52115824D01*
X115240963Y-51991760D01*
X115127717Y-51944852D01*
X115021592Y-51900894D01*
X114863651Y-51862976D01*
X114790711Y-51845465D01*
X114554000Y-51826835D01*
X114317289Y-51845465D01*
X114086407Y-51900894D01*
X113867038Y-51991759D01*
X113664582Y-52115825D01*
X113664580Y-52115826D01*
X113484030Y-52270030D01*
X113329826Y-52450580D01*
X113329825Y-52450582D01*
X113205759Y-52653038D01*
X113114894Y-52872407D01*
X113099327Y-52937251D01*
X113059465Y-53103289D01*
X113040835Y-53340000D01*
X113049248Y-53446901D01*
X113059465Y-53576710D01*
X113114894Y-53807592D01*
X113157586Y-53910659D01*
X113205760Y-54026963D01*
X113304831Y-54188632D01*
X113329825Y-54229417D01*
X113329826Y-54229419D01*
X113484030Y-54409969D01*
X113664580Y-54564173D01*
X113664584Y-54564176D01*
X113860337Y-54684134D01*
X113907966Y-54736780D01*
X113920500Y-54791565D01*
X113920500Y-55930146D01*
X113918751Y-55945988D01*
X113919044Y-55946016D01*
X113918298Y-55953907D01*
X113920438Y-56021984D01*
X113920500Y-56025943D01*
X113920500Y-56053851D01*
X113920501Y-56053869D01*
X113921007Y-56057877D01*
X113921937Y-56069696D01*
X113923326Y-56113888D01*
X113923327Y-56113893D01*
X113928977Y-56133339D01*
X113932986Y-56152697D01*
X113935525Y-56172793D01*
X113935526Y-56172800D01*
X113951800Y-56213903D01*
X113955644Y-56225129D01*
X113967982Y-56267593D01*
X113978294Y-56285031D01*
X113986988Y-56302779D01*
X113994444Y-56321609D01*
X113994450Y-56321620D01*
X114020432Y-56357381D01*
X114026949Y-56367301D01*
X114049458Y-56405362D01*
X114049459Y-56405363D01*
X114049461Y-56405366D01*
X114063779Y-56419684D01*
X114076617Y-56434714D01*
X114088526Y-56451104D01*
X114088530Y-56451109D01*
X114122598Y-56479292D01*
X114131378Y-56487282D01*
X114573490Y-56929394D01*
X114607516Y-56991706D01*
X114602451Y-57062521D01*
X114559904Y-57119357D01*
X114493384Y-57144168D01*
X114465616Y-57143082D01*
X114325745Y-57122000D01*
X114074255Y-57122000D01*
X113825564Y-57159484D01*
X113825552Y-57159486D01*
X113585247Y-57233610D01*
X113585234Y-57233615D01*
X113358651Y-57342732D01*
X113206010Y-57446800D01*
X113206010Y-57446801D01*
X113956518Y-58197308D01*
X113884371Y-58225874D01*
X113751508Y-58322405D01*
X113646825Y-58448945D01*
X113596558Y-58555767D01*
X112846598Y-57805807D01*
X112846597Y-57805807D01*
X112809686Y-57852095D01*
X112683933Y-58069904D01*
X112683931Y-58069908D01*
X112592054Y-58304010D01*
X112592053Y-58304012D01*
X112536089Y-58549202D01*
X112517295Y-58800000D01*
X110883207Y-58800000D01*
X110864407Y-58549131D01*
X110808427Y-58303866D01*
X110731533Y-58107944D01*
X110716520Y-58069690D01*
X110716518Y-58069686D01*
X110713729Y-58064856D01*
X110662966Y-57976931D01*
X110590733Y-57851819D01*
X110585700Y-57845508D01*
X110433878Y-57655128D01*
X110433877Y-57655127D01*
X110433874Y-57655123D01*
X110249467Y-57484021D01*
X110249461Y-57484015D01*
X110163904Y-57425683D01*
X110041606Y-57342301D01*
X109814949Y-57233148D01*
X109814936Y-57233143D01*
X109574559Y-57158997D01*
X109574551Y-57158995D01*
X109574549Y-57158995D01*
X109325786Y-57121500D01*
X109074214Y-57121500D01*
X108825451Y-57158995D01*
X108825449Y-57158995D01*
X108825440Y-57158997D01*
X108614802Y-57223970D01*
X108543811Y-57224936D01*
X108488568Y-57192663D01*
X108212243Y-56916338D01*
X108202278Y-56903900D01*
X108202051Y-56904089D01*
X108197000Y-56897983D01*
X108196999Y-56897981D01*
X108184453Y-56886200D01*
X108147348Y-56851356D01*
X108144504Y-56848599D01*
X108124776Y-56828870D01*
X108124770Y-56828865D01*
X108121566Y-56826379D01*
X108112555Y-56818682D01*
X108080324Y-56788416D01*
X108080318Y-56788412D01*
X108062562Y-56778650D01*
X108046046Y-56767801D01*
X108030040Y-56755385D01*
X107997690Y-56741386D01*
X107989463Y-56737826D01*
X107978806Y-56732604D01*
X107940062Y-56711305D01*
X107940059Y-56711304D01*
X107920435Y-56706265D01*
X107901735Y-56699863D01*
X107895999Y-56697381D01*
X107883144Y-56691818D01*
X107883142Y-56691817D01*
X107883140Y-56691817D01*
X107839473Y-56684900D01*
X107827854Y-56682494D01*
X107785029Y-56671499D01*
X107764775Y-56671499D01*
X107745065Y-56669948D01*
X107725056Y-56666779D01*
X107681038Y-56670940D01*
X107669180Y-56671499D01*
X101782854Y-56671499D01*
X101767012Y-56669749D01*
X101766985Y-56670043D01*
X101759093Y-56669297D01*
X101759092Y-56669297D01*
X101738383Y-56669948D01*
X101691015Y-56671437D01*
X101687056Y-56671499D01*
X101659145Y-56671499D01*
X101659142Y-56671499D01*
X101659127Y-56671500D01*
X101655122Y-56672006D01*
X101643305Y-56672936D01*
X101599113Y-56674325D01*
X101599111Y-56674326D01*
X101579656Y-56679977D01*
X101560303Y-56683985D01*
X101540211Y-56686523D01*
X101540204Y-56686525D01*
X101499097Y-56702800D01*
X101487872Y-56706643D01*
X101445408Y-56718981D01*
X101427965Y-56729296D01*
X101410219Y-56737989D01*
X101391383Y-56745447D01*
X101355611Y-56771436D01*
X101345695Y-56777950D01*
X101307638Y-56800457D01*
X101293312Y-56814783D01*
X101278286Y-56827616D01*
X101261896Y-56839524D01*
X101261894Y-56839526D01*
X101233701Y-56873604D01*
X101225715Y-56882380D01*
X101053093Y-57055001D01*
X100990784Y-57089025D01*
X100919968Y-57083961D01*
X100863132Y-57041414D01*
X100838321Y-56974894D01*
X100838000Y-56965905D01*
X100838000Y-51433390D01*
X100858002Y-51365269D01*
X100911658Y-51318776D01*
X100963386Y-51307391D01*
X122720510Y-51201774D01*
X122788727Y-51221446D01*
X122835480Y-51274875D01*
X122845925Y-51345099D01*
X122824336Y-51400043D01*
X122814911Y-51413502D01*
X122718188Y-51620926D01*
X122718186Y-51620931D01*
X122665917Y-51816000D01*
X123640314Y-51816000D01*
X123624359Y-51831955D01*
X123566835Y-51944852D01*
X123547014Y-52070000D01*
X123566835Y-52195148D01*
X123624359Y-52308045D01*
X123640314Y-52324000D01*
X122665918Y-52324000D01*
X122718186Y-52519068D01*
X122718188Y-52519073D01*
X122814912Y-52726498D01*
X122946184Y-52913974D01*
X122946189Y-52913980D01*
X123108019Y-53075810D01*
X123108025Y-53075815D01*
X123295501Y-53207087D01*
X123502926Y-53303811D01*
X123502931Y-53303813D01*
X123698000Y-53356081D01*
X123698000Y-52381686D01*
X123713955Y-52397641D01*
X123826852Y-52455165D01*
X123920519Y-52470000D01*
X123983481Y-52470000D01*
X124077148Y-52455165D01*
X124190045Y-52397641D01*
X124206000Y-52381686D01*
X124206000Y-53356081D01*
X124401068Y-53303813D01*
X124401073Y-53303811D01*
X124608498Y-53207087D01*
X124795974Y-53075815D01*
X124795980Y-53075810D01*
X124957810Y-52913980D01*
X124957815Y-52913974D01*
X125089087Y-52726498D01*
X125185811Y-52519073D01*
X125185813Y-52519068D01*
X125238082Y-52324000D01*
X124263686Y-52324000D01*
X124279641Y-52308045D01*
X124337165Y-52195148D01*
X124356986Y-52070000D01*
X124337165Y-51944852D01*
X124279641Y-51831955D01*
X124263686Y-51816000D01*
X125238082Y-51816000D01*
X125185813Y-51620931D01*
X125185811Y-51620926D01*
X125089087Y-51413501D01*
X125071325Y-51388134D01*
X125048637Y-51320861D01*
X125065922Y-51252000D01*
X125117691Y-51203416D01*
X125173924Y-51189864D01*
X132914552Y-51152288D01*
X132982767Y-51171960D01*
X133029520Y-51225389D01*
X133039965Y-51295613D01*
X133018375Y-51350558D01*
X132974477Y-51413250D01*
X132877717Y-51620753D01*
X132877715Y-51620759D01*
X132825400Y-51816000D01*
X132818457Y-51841913D01*
X132798502Y-52070000D01*
X132818457Y-52298087D01*
X132844396Y-52394893D01*
X132877715Y-52519240D01*
X132877717Y-52519246D01*
X132974477Y-52726749D01*
X132990547Y-52749700D01*
X133105802Y-52914300D01*
X133267700Y-53076198D01*
X133455251Y-53207523D01*
X133662757Y-53304284D01*
X133883913Y-53363543D01*
X134112000Y-53383498D01*
X134340087Y-53363543D01*
X134561243Y-53304284D01*
X134768749Y-53207523D01*
X134956300Y-53076198D01*
X135118198Y-52914300D01*
X135249523Y-52726749D01*
X135346284Y-52519243D01*
X135405543Y-52298087D01*
X135425498Y-52070000D01*
X135405543Y-51841913D01*
X135346284Y-51620757D01*
X135249523Y-51413251D01*
X135205625Y-51350558D01*
X135197516Y-51338977D01*
X135174828Y-51271703D01*
X135192113Y-51202842D01*
X135243883Y-51154258D01*
X135300112Y-51140708D01*
X153036693Y-51054608D01*
X153104910Y-51074280D01*
G37*
%TD.AperFunction*%
M02*
