%FSLAX45Y45*%
G04 Gerber Fmt 4.5, Leading zero omitted, Abs format (unit mm)*
G04 Created by KiCad (PCBNEW 6.0.2+dfsg-1) date 2023-04-09 17:36:26*
%MOMM*%
%LPD*%
G01*
G04 APERTURE LIST*
%TA.AperFunction,Profile*%
%ADD10C,0.100000*%
%TD*%
%ADD11C,0.200000*%
%ADD12C,0.040000*%
%ADD13C,0.060000*%
%ADD14C,0.075000*%
%ADD15C,0.080000*%
%ADD16C,0.090000*%
%ADD17C,0.100000*%
%ADD18C,0.130000*%
G04 APERTURE END LIST*
D10*
X10007600Y-5003800D02*
X9982200Y-5003800D01*
X15468600Y-10083800D02*
X9982200Y-10083800D01*
X15417800Y-4978400D02*
X15443200Y-4978400D01*
X15443200Y-4978400D02*
X15468600Y-10083800D01*
X10007600Y-5003800D02*
X15417800Y-4978400D01*
X9982200Y-10083800D02*
X9982200Y-5003800D01*
D11*
D12*
X10851200Y-5237800D02*
X10891200Y-5277800D01*
X10891200Y-5237800D02*
X10851200Y-5277800D01*
D13*
X10244000Y-6273800D02*
G75*
G03*
X10244000Y-6273800I-30000J0D01*
G01*
X10444000Y-6273800D02*
G75*
G03*
X10444000Y-6273800I-30000J0D01*
G01*
X10726600Y-6299200D02*
G75*
G03*
X10726600Y-6299200I-30000J0D01*
G01*
X10926600Y-6299200D02*
G75*
G03*
X10926600Y-6299200I-30000J0D01*
G01*
X11587000Y-7874000D02*
G75*
G03*
X11587000Y-7874000I-30000J0D01*
G01*
X11787000Y-7874000D02*
G75*
G03*
X11787000Y-7874000I-30000J0D01*
G01*
D14*
X11252200Y-6236300D02*
X11252200Y-6311300D01*
X11214700Y-6273800D02*
X11289700Y-6273800D01*
X11379200Y-6363300D02*
X11379200Y-6438300D01*
X11341700Y-6400800D02*
X11416700Y-6400800D01*
X11506200Y-6236300D02*
X11506200Y-6311300D01*
X11468700Y-6273800D02*
X11543700Y-6273800D01*
X12242800Y-7887300D02*
X12242800Y-7962300D01*
X12205300Y-7924800D02*
X12280300Y-7924800D01*
X12369800Y-8014300D02*
X12369800Y-8089300D01*
X12332300Y-8051800D02*
X12407300Y-8051800D01*
X12496800Y-7887300D02*
X12496800Y-7962300D01*
X12459300Y-7924800D02*
X12534300Y-7924800D01*
X13589000Y-5677500D02*
X13589000Y-5752500D01*
X13551500Y-5715000D02*
X13626500Y-5715000D01*
X13716000Y-5550500D02*
X13716000Y-5625500D01*
X13678500Y-5588000D02*
X13753500Y-5588000D01*
X13843000Y-5677500D02*
X13843000Y-5752500D01*
X13805500Y-5715000D02*
X13880500Y-5715000D01*
D15*
X10188285Y-9375485D02*
X10188285Y-9318916D01*
X10131716Y-9318916D01*
X10131716Y-9375485D01*
X10188285Y-9375485D01*
X10213685Y-7800684D02*
X10213685Y-7744115D01*
X10157116Y-7744115D01*
X10157116Y-7800684D01*
X10213685Y-7800684D01*
X10247085Y-7368884D02*
X10247085Y-7312315D01*
X10190516Y-7312315D01*
X10190516Y-7368884D01*
X10247085Y-7368884D01*
X10264485Y-5311485D02*
X10264485Y-5254916D01*
X10207916Y-5254916D01*
X10207916Y-5311485D01*
X10264485Y-5311485D01*
X10264485Y-5717884D02*
X10264485Y-5661315D01*
X10207916Y-5661315D01*
X10207916Y-5717884D01*
X10264485Y-5717884D01*
X10340685Y-8207084D02*
X10340685Y-8150515D01*
X10284116Y-8150515D01*
X10284116Y-8207084D01*
X10340685Y-8207084D01*
X10340685Y-8461085D02*
X10340685Y-8404516D01*
X10284116Y-8404516D01*
X10284116Y-8461085D01*
X10340685Y-8461085D01*
X10340685Y-8715085D02*
X10340685Y-8658516D01*
X10284116Y-8658516D01*
X10284116Y-8715085D01*
X10340685Y-8715085D01*
X10340685Y-8969085D02*
X10340685Y-8912516D01*
X10284116Y-8912516D01*
X10284116Y-8969085D01*
X10340685Y-8969085D01*
X10372085Y-7368884D02*
X10372085Y-7312315D01*
X10315516Y-7312315D01*
X10315516Y-7368884D01*
X10372085Y-7368884D01*
X10389485Y-5717884D02*
X10389485Y-5661315D01*
X10332916Y-5661315D01*
X10332916Y-5717884D01*
X10389485Y-5717884D01*
X10416885Y-6911684D02*
X10416885Y-6855115D01*
X10360316Y-6855115D01*
X10360316Y-6911684D01*
X10416885Y-6911684D01*
X10475685Y-9756485D02*
X10475685Y-9699916D01*
X10419116Y-9699916D01*
X10419116Y-9756485D01*
X10475685Y-9756485D01*
X10600685Y-9756485D02*
X10600685Y-9699916D01*
X10544116Y-9699916D01*
X10544116Y-9756485D01*
X10600685Y-9756485D01*
X10622085Y-7368884D02*
X10622085Y-7312315D01*
X10565516Y-7312315D01*
X10565516Y-7368884D01*
X10622085Y-7368884D01*
X10639485Y-5717884D02*
X10639485Y-5661315D01*
X10582916Y-5661315D01*
X10582916Y-5717884D01*
X10639485Y-5717884D01*
X10747085Y-7368884D02*
X10747085Y-7312315D01*
X10690516Y-7312315D01*
X10690516Y-7368884D01*
X10747085Y-7368884D01*
X10764485Y-5717884D02*
X10764485Y-5661315D01*
X10707916Y-5661315D01*
X10707916Y-5717884D01*
X10764485Y-5717884D01*
X10850685Y-9756485D02*
X10850685Y-9699916D01*
X10794116Y-9699916D01*
X10794116Y-9756485D01*
X10850685Y-9756485D01*
X10975685Y-9756485D02*
X10975685Y-9699916D01*
X10919116Y-9699916D01*
X10919116Y-9756485D01*
X10975685Y-9756485D01*
X11059885Y-5717884D02*
X11059885Y-5661315D01*
X11003316Y-5661315D01*
X11003316Y-5717884D01*
X11059885Y-5717884D01*
X11059885Y-7368884D02*
X11059885Y-7312315D01*
X11003316Y-7312315D01*
X11003316Y-7368884D01*
X11059885Y-7368884D01*
X11102685Y-8207084D02*
X11102685Y-8150515D01*
X11046116Y-8150515D01*
X11046116Y-8207084D01*
X11102685Y-8207084D01*
X11102685Y-8461085D02*
X11102685Y-8404516D01*
X11046116Y-8404516D01*
X11046116Y-8461085D01*
X11102685Y-8461085D01*
X11102685Y-8715085D02*
X11102685Y-8658516D01*
X11046116Y-8658516D01*
X11046116Y-8715085D01*
X11102685Y-8715085D01*
X11102685Y-8969085D02*
X11102685Y-8912516D01*
X11046116Y-8912516D01*
X11046116Y-8969085D01*
X11102685Y-8969085D01*
X11184884Y-7368884D02*
X11184884Y-7312315D01*
X11128316Y-7312315D01*
X11128316Y-7368884D01*
X11184884Y-7368884D01*
X11204284Y-9375485D02*
X11204284Y-9318916D01*
X11147716Y-9318916D01*
X11147716Y-9375485D01*
X11204284Y-9375485D01*
X11229684Y-7800684D02*
X11229684Y-7744115D01*
X11173116Y-7744115D01*
X11173116Y-7800684D01*
X11229684Y-7800684D01*
X11280484Y-5311485D02*
X11280484Y-5254916D01*
X11223915Y-5254916D01*
X11223915Y-5311485D01*
X11280484Y-5311485D01*
X11432884Y-6911684D02*
X11432884Y-6855115D01*
X11376315Y-6855115D01*
X11376315Y-6911684D01*
X11432884Y-6911684D01*
X11434884Y-7368884D02*
X11434884Y-7312315D01*
X11378315Y-7312315D01*
X11378315Y-7368884D01*
X11434884Y-7368884D01*
X11458284Y-9375485D02*
X11458284Y-9318916D01*
X11401715Y-9318916D01*
X11401715Y-9375485D01*
X11458284Y-9375485D01*
X11491684Y-8461085D02*
X11491684Y-8404516D01*
X11435115Y-8404516D01*
X11435115Y-8461085D01*
X11491684Y-8461085D01*
X11491684Y-8892885D02*
X11491684Y-8836316D01*
X11435115Y-8836316D01*
X11435115Y-8892885D01*
X11491684Y-8892885D01*
X11559884Y-5717884D02*
X11559884Y-5661315D01*
X11503315Y-5661315D01*
X11503315Y-5717884D01*
X11559884Y-5717884D01*
X11559884Y-7368884D02*
X11559884Y-7312315D01*
X11503315Y-7312315D01*
X11503315Y-7368884D01*
X11559884Y-7368884D01*
X11616684Y-8461085D02*
X11616684Y-8404516D01*
X11560115Y-8404516D01*
X11560115Y-8461085D01*
X11616684Y-8461085D01*
X11616684Y-8892885D02*
X11616684Y-8836316D01*
X11560115Y-8836316D01*
X11560115Y-8892885D01*
X11616684Y-8892885D01*
X11864684Y-6606884D02*
X11864684Y-6550315D01*
X11808115Y-6550315D01*
X11808115Y-6606884D01*
X11864684Y-6606884D01*
X11866684Y-8461085D02*
X11866684Y-8404516D01*
X11810115Y-8404516D01*
X11810115Y-8461085D01*
X11866684Y-8461085D01*
X11866684Y-8892885D02*
X11866684Y-8836316D01*
X11810115Y-8836316D01*
X11810115Y-8892885D01*
X11866684Y-8892885D01*
X11915484Y-6987884D02*
X11915484Y-6931315D01*
X11858915Y-6931315D01*
X11858915Y-6987884D01*
X11915484Y-6987884D01*
X11991684Y-8461085D02*
X11991684Y-8404516D01*
X11935115Y-8404516D01*
X11935115Y-8461085D01*
X11991684Y-8461085D01*
X11991684Y-8892885D02*
X11991684Y-8836316D01*
X11935115Y-8836316D01*
X11935115Y-8892885D01*
X11991684Y-8892885D01*
X12042484Y-7394284D02*
X12042484Y-7337715D01*
X11985915Y-7337715D01*
X11985915Y-7394284D01*
X12042484Y-7394284D01*
X12474284Y-9375485D02*
X12474284Y-9318916D01*
X12417715Y-9318916D01*
X12417715Y-9375485D01*
X12474284Y-9375485D01*
X12804484Y-8384884D02*
X12804484Y-8328315D01*
X12747915Y-8328315D01*
X12747915Y-8384884D01*
X12804484Y-8384884D01*
X12829884Y-8740485D02*
X12829884Y-8683916D01*
X12773315Y-8683916D01*
X12773315Y-8740485D01*
X12829884Y-8740485D01*
X12880684Y-6606884D02*
X12880684Y-6550315D01*
X12824115Y-6550315D01*
X12824115Y-6606884D01*
X12880684Y-6606884D01*
X12914084Y-7953084D02*
X12914084Y-7896515D01*
X12857515Y-7896515D01*
X12857515Y-7953084D01*
X12914084Y-7953084D01*
X12931484Y-6987884D02*
X12931484Y-6931315D01*
X12874915Y-6931315D01*
X12874915Y-6987884D01*
X12931484Y-6987884D01*
X12982284Y-6200484D02*
X12982284Y-6143915D01*
X12925715Y-6143915D01*
X12925715Y-6200484D01*
X12982284Y-6200484D01*
X13039084Y-7953084D02*
X13039084Y-7896515D01*
X12982515Y-7896515D01*
X12982515Y-7953084D01*
X13039084Y-7953084D01*
X13058484Y-7394284D02*
X13058484Y-7337715D01*
X13001915Y-7337715D01*
X13001915Y-7394284D01*
X13058484Y-7394284D01*
X13289084Y-7953084D02*
X13289084Y-7896515D01*
X13232515Y-7896515D01*
X13232515Y-7953084D01*
X13289084Y-7953084D01*
X13414084Y-7953084D02*
X13414084Y-7896515D01*
X13357515Y-7896515D01*
X13357515Y-7953084D01*
X13414084Y-7953084D01*
X13820484Y-8384884D02*
X13820484Y-8328315D01*
X13763915Y-8328315D01*
X13763915Y-8384884D01*
X13820484Y-8384884D01*
X13845884Y-8740485D02*
X13845884Y-8683916D01*
X13789315Y-8683916D01*
X13789315Y-8740485D01*
X13845884Y-8740485D01*
X13998284Y-6200484D02*
X13998284Y-6143915D01*
X13941715Y-6143915D01*
X13941715Y-6200484D01*
X13998284Y-6200484D01*
X14277684Y-6581484D02*
X14277684Y-6524915D01*
X14221115Y-6524915D01*
X14221115Y-6581484D01*
X14277684Y-6581484D01*
X14303084Y-5260685D02*
X14303084Y-5204116D01*
X14246515Y-5204116D01*
X14246515Y-5260685D01*
X14303084Y-5260685D01*
X14303084Y-5590885D02*
X14303084Y-5534316D01*
X14246515Y-5534316D01*
X14246515Y-5590885D01*
X14303084Y-5590885D01*
X14303084Y-5921084D02*
X14303084Y-5864515D01*
X14246515Y-5864515D01*
X14246515Y-5921084D01*
X14303084Y-5921084D01*
X14303084Y-6251284D02*
X14303084Y-6194715D01*
X14246515Y-6194715D01*
X14246515Y-6251284D01*
X14303084Y-6251284D01*
X14303084Y-9426285D02*
X14303084Y-9369716D01*
X14246515Y-9369716D01*
X14246515Y-9426285D01*
X14303084Y-9426285D01*
X14303084Y-9832685D02*
X14303084Y-9776116D01*
X14246515Y-9776116D01*
X14246515Y-9832685D01*
X14303084Y-9832685D01*
X14455484Y-7038684D02*
X14455484Y-6982115D01*
X14398915Y-6982115D01*
X14398915Y-7038684D01*
X14455484Y-7038684D01*
X14455484Y-7292684D02*
X14455484Y-7236115D01*
X14398915Y-7236115D01*
X14398915Y-7292684D01*
X14455484Y-7292684D01*
X14455484Y-7546684D02*
X14455484Y-7490115D01*
X14398915Y-7490115D01*
X14398915Y-7546684D01*
X14455484Y-7546684D01*
X14455484Y-7800684D02*
X14455484Y-7744115D01*
X14398915Y-7744115D01*
X14398915Y-7800684D01*
X14455484Y-7800684D01*
X14455484Y-8054684D02*
X14455484Y-7998115D01*
X14398915Y-7998115D01*
X14398915Y-8054684D01*
X14455484Y-8054684D01*
X14455484Y-8308684D02*
X14455484Y-8252115D01*
X14398915Y-8252115D01*
X14398915Y-8308684D01*
X14455484Y-8308684D01*
X14455484Y-8562685D02*
X14455484Y-8506116D01*
X14398915Y-8506116D01*
X14398915Y-8562685D01*
X14455484Y-8562685D01*
X14455484Y-8816685D02*
X14455484Y-8760116D01*
X14398915Y-8760116D01*
X14398915Y-8816685D01*
X14455484Y-8816685D01*
X15217484Y-7038684D02*
X15217484Y-6982115D01*
X15160915Y-6982115D01*
X15160915Y-7038684D01*
X15217484Y-7038684D01*
X15217484Y-7292684D02*
X15217484Y-7236115D01*
X15160915Y-7236115D01*
X15160915Y-7292684D01*
X15217484Y-7292684D01*
X15217484Y-7546684D02*
X15217484Y-7490115D01*
X15160915Y-7490115D01*
X15160915Y-7546684D01*
X15217484Y-7546684D01*
X15217484Y-7800684D02*
X15217484Y-7744115D01*
X15160915Y-7744115D01*
X15160915Y-7800684D01*
X15217484Y-7800684D01*
X15217484Y-8054684D02*
X15217484Y-7998115D01*
X15160915Y-7998115D01*
X15160915Y-8054684D01*
X15217484Y-8054684D01*
X15217484Y-8308684D02*
X15217484Y-8252115D01*
X15160915Y-8252115D01*
X15160915Y-8308684D01*
X15217484Y-8308684D01*
X15217484Y-8562685D02*
X15217484Y-8506116D01*
X15160915Y-8506116D01*
X15160915Y-8562685D01*
X15217484Y-8562685D01*
X15217484Y-8816685D02*
X15217484Y-8760116D01*
X15160915Y-8760116D01*
X15160915Y-8816685D01*
X15217484Y-8816685D01*
X15293684Y-6581484D02*
X15293684Y-6524915D01*
X15237115Y-6524915D01*
X15237115Y-6581484D01*
X15293684Y-6581484D01*
X15319084Y-5260685D02*
X15319084Y-5204116D01*
X15262515Y-5204116D01*
X15262515Y-5260685D01*
X15319084Y-5260685D01*
X15319084Y-5590885D02*
X15319084Y-5534316D01*
X15262515Y-5534316D01*
X15262515Y-5590885D01*
X15319084Y-5590885D01*
X15319084Y-5921084D02*
X15319084Y-5864515D01*
X15262515Y-5864515D01*
X15262515Y-5921084D01*
X15319084Y-5921084D01*
X15319084Y-6251284D02*
X15319084Y-6194715D01*
X15262515Y-6194715D01*
X15262515Y-6251284D01*
X15319084Y-6251284D01*
X15319084Y-9426285D02*
X15319084Y-9369716D01*
X15262515Y-9369716D01*
X15262515Y-9426285D01*
X15319084Y-9426285D01*
X15319084Y-9832685D02*
X15319084Y-9776116D01*
X15262515Y-9776116D01*
X15262515Y-9832685D01*
X15319084Y-9832685D01*
D16*
X11912600Y-6166400D02*
X11957600Y-6121400D01*
X11912600Y-6076400D01*
X11867600Y-6121400D01*
X11912600Y-6166400D01*
X11938000Y-5734600D02*
X11983000Y-5689600D01*
X11938000Y-5644600D01*
X11893000Y-5689600D01*
X11938000Y-5734600D01*
X12674600Y-6166400D02*
X12719600Y-6121400D01*
X12674600Y-6076400D01*
X12629600Y-6121400D01*
X12674600Y-6166400D01*
X12700000Y-5734600D02*
X12745000Y-5689600D01*
X12700000Y-5644600D01*
X12655000Y-5689600D01*
X12700000Y-5734600D01*
D17*
X11862600Y-9830600D02*
X11962600Y-9930600D01*
X11962600Y-9830600D02*
X11862600Y-9930600D01*
X11962600Y-9880600D02*
G75*
G03*
X11962600Y-9880600I-50000J0D01*
G01*
X12116600Y-9830600D02*
X12216600Y-9930600D01*
X12216600Y-9830600D02*
X12116600Y-9930600D01*
X12216600Y-9880600D02*
G75*
G03*
X12216600Y-9880600I-50000J0D01*
G01*
X12370600Y-9830600D02*
X12470600Y-9930600D01*
X12470600Y-9830600D02*
X12370600Y-9930600D01*
X12470600Y-9880600D02*
G75*
G03*
X12470600Y-9880600I-50000J0D01*
G01*
X12624600Y-9830600D02*
X12724600Y-9930600D01*
X12724600Y-9830600D02*
X12624600Y-9930600D01*
X12724600Y-9880600D02*
G75*
G03*
X12724600Y-9880600I-50000J0D01*
G01*
X12878600Y-9830600D02*
X12978600Y-9930600D01*
X12978600Y-9830600D02*
X12878600Y-9930600D01*
X12978600Y-9880600D02*
G75*
G03*
X12978600Y-9880600I-50000J0D01*
G01*
X13343800Y-6960400D02*
X13443800Y-7060400D01*
X13443800Y-6960400D02*
X13343800Y-7060400D01*
X13443800Y-7010400D02*
G75*
G03*
X13443800Y-7010400I-50000J0D01*
G01*
X13343800Y-9398800D02*
X13443800Y-9498800D01*
X13443800Y-9398800D02*
X13343800Y-9498800D01*
X13443800Y-9448800D02*
G75*
G03*
X13443800Y-9448800I-50000J0D01*
G01*
X13843800Y-6960400D02*
X13943800Y-7060400D01*
X13943800Y-6960400D02*
X13843800Y-7060400D01*
X13943800Y-7010400D02*
G75*
G03*
X13943800Y-7010400I-50000J0D01*
G01*
X13843800Y-9398800D02*
X13943800Y-9498800D01*
X13943800Y-9398800D02*
X13843800Y-9498800D01*
X13943800Y-9448800D02*
G75*
G03*
X13943800Y-9448800I-50000J0D01*
G01*
D18*
X12244600Y-5167400D02*
X12374600Y-5297400D01*
X12374600Y-5167400D02*
X12244600Y-5297400D01*
X12309600Y-5167400D02*
X12309600Y-5297400D01*
X12244600Y-5232400D02*
X12374600Y-5232400D01*
X12744600Y-5167400D02*
X12874600Y-5297400D01*
X12874600Y-5167400D02*
X12744600Y-5297400D01*
X12809600Y-5167400D02*
X12809600Y-5297400D01*
X12744600Y-5232400D02*
X12874600Y-5232400D01*
X13244600Y-5167400D02*
X13374600Y-5297400D01*
X13374600Y-5167400D02*
X13244600Y-5297400D01*
X13309600Y-5167400D02*
X13309600Y-5297400D01*
X13244600Y-5232400D02*
X13374600Y-5232400D01*
D11*
X10234819Y-10399276D02*
X10234819Y-10199276D01*
X10282438Y-10199276D01*
X10311010Y-10208800D01*
X10330057Y-10227848D01*
X10339581Y-10246895D01*
X10349105Y-10284990D01*
X10349105Y-10313562D01*
X10339581Y-10351657D01*
X10330057Y-10370705D01*
X10311010Y-10389752D01*
X10282438Y-10399276D01*
X10234819Y-10399276D01*
X10434819Y-10399276D02*
X10434819Y-10265943D01*
X10434819Y-10304038D02*
X10444343Y-10284990D01*
X10453867Y-10275467D01*
X10472914Y-10265943D01*
X10491962Y-10265943D01*
X10558629Y-10399276D02*
X10558629Y-10265943D01*
X10558629Y-10199276D02*
X10549105Y-10208800D01*
X10558629Y-10218324D01*
X10568152Y-10208800D01*
X10558629Y-10199276D01*
X10558629Y-10218324D01*
X10682438Y-10399276D02*
X10663390Y-10389752D01*
X10653867Y-10370705D01*
X10653867Y-10199276D01*
X10787200Y-10399276D02*
X10768152Y-10389752D01*
X10758629Y-10370705D01*
X10758629Y-10199276D01*
X11015771Y-10399276D02*
X11015771Y-10199276D01*
X11082438Y-10342133D01*
X11149105Y-10199276D01*
X11149105Y-10399276D01*
X11330057Y-10399276D02*
X11330057Y-10294514D01*
X11320533Y-10275467D01*
X11301486Y-10265943D01*
X11263390Y-10265943D01*
X11244343Y-10275467D01*
X11330057Y-10389752D02*
X11311009Y-10399276D01*
X11263390Y-10399276D01*
X11244343Y-10389752D01*
X11234819Y-10370705D01*
X11234819Y-10351657D01*
X11244343Y-10332610D01*
X11263390Y-10323086D01*
X11311009Y-10323086D01*
X11330057Y-10313562D01*
X11425295Y-10265943D02*
X11425295Y-10465943D01*
X11425295Y-10275467D02*
X11444343Y-10265943D01*
X11482438Y-10265943D01*
X11501486Y-10275467D01*
X11511009Y-10284990D01*
X11520533Y-10304038D01*
X11520533Y-10361181D01*
X11511009Y-10380229D01*
X11501486Y-10389752D01*
X11482438Y-10399276D01*
X11444343Y-10399276D01*
X11425295Y-10389752D01*
X11606248Y-10380229D02*
X11615771Y-10389752D01*
X11606248Y-10399276D01*
X11596724Y-10389752D01*
X11606248Y-10380229D01*
X11606248Y-10399276D01*
X11606248Y-10275467D02*
X11615771Y-10284990D01*
X11606248Y-10294514D01*
X11596724Y-10284990D01*
X11606248Y-10275467D01*
X11606248Y-10294514D01*
D12*
X9937200Y-10708800D02*
X9977200Y-10748800D01*
X9977200Y-10708800D02*
X9937200Y-10748800D01*
D11*
X10272914Y-10619276D02*
X10291962Y-10619276D01*
X10311010Y-10628800D01*
X10320533Y-10638324D01*
X10330057Y-10657371D01*
X10339581Y-10695467D01*
X10339581Y-10743086D01*
X10330057Y-10781181D01*
X10320533Y-10800229D01*
X10311010Y-10809752D01*
X10291962Y-10819276D01*
X10272914Y-10819276D01*
X10253867Y-10809752D01*
X10244343Y-10800229D01*
X10234819Y-10781181D01*
X10225295Y-10743086D01*
X10225295Y-10695467D01*
X10234819Y-10657371D01*
X10244343Y-10638324D01*
X10253867Y-10628800D01*
X10272914Y-10619276D01*
X10425295Y-10800229D02*
X10434819Y-10809752D01*
X10425295Y-10819276D01*
X10415771Y-10809752D01*
X10425295Y-10800229D01*
X10425295Y-10819276D01*
X10606248Y-10685943D02*
X10606248Y-10819276D01*
X10558629Y-10609752D02*
X10511010Y-10752610D01*
X10634819Y-10752610D01*
X10749105Y-10619276D02*
X10768152Y-10619276D01*
X10787200Y-10628800D01*
X10796724Y-10638324D01*
X10806248Y-10657371D01*
X10815771Y-10695467D01*
X10815771Y-10743086D01*
X10806248Y-10781181D01*
X10796724Y-10800229D01*
X10787200Y-10809752D01*
X10768152Y-10819276D01*
X10749105Y-10819276D01*
X10730057Y-10809752D01*
X10720533Y-10800229D01*
X10711010Y-10781181D01*
X10701486Y-10743086D01*
X10701486Y-10695467D01*
X10711010Y-10657371D01*
X10720533Y-10638324D01*
X10730057Y-10628800D01*
X10749105Y-10619276D01*
X10939581Y-10619276D02*
X10958629Y-10619276D01*
X10977676Y-10628800D01*
X10987200Y-10638324D01*
X10996724Y-10657371D01*
X11006248Y-10695467D01*
X11006248Y-10743086D01*
X10996724Y-10781181D01*
X10987200Y-10800229D01*
X10977676Y-10809752D01*
X10958629Y-10819276D01*
X10939581Y-10819276D01*
X10920533Y-10809752D01*
X10911010Y-10800229D01*
X10901486Y-10781181D01*
X10891962Y-10743086D01*
X10891962Y-10695467D01*
X10901486Y-10657371D01*
X10911010Y-10638324D01*
X10920533Y-10628800D01*
X10939581Y-10619276D01*
X11091962Y-10819276D02*
X11091962Y-10685943D01*
X11091962Y-10704990D02*
X11101486Y-10695467D01*
X11120533Y-10685943D01*
X11149105Y-10685943D01*
X11168152Y-10695467D01*
X11177676Y-10714514D01*
X11177676Y-10819276D01*
X11177676Y-10714514D02*
X11187200Y-10695467D01*
X11206248Y-10685943D01*
X11234819Y-10685943D01*
X11253867Y-10695467D01*
X11263390Y-10714514D01*
X11263390Y-10819276D01*
X11358628Y-10819276D02*
X11358628Y-10685943D01*
X11358628Y-10704990D02*
X11368152Y-10695467D01*
X11387200Y-10685943D01*
X11415771Y-10685943D01*
X11434819Y-10695467D01*
X11444343Y-10714514D01*
X11444343Y-10819276D01*
X11444343Y-10714514D02*
X11453867Y-10695467D01*
X11472914Y-10685943D01*
X11501486Y-10685943D01*
X11520533Y-10695467D01*
X11530057Y-10714514D01*
X11530057Y-10819276D01*
X11920533Y-10609752D02*
X11749105Y-10866895D01*
X12177676Y-10619276D02*
X12196724Y-10619276D01*
X12215771Y-10628800D01*
X12225295Y-10638324D01*
X12234819Y-10657371D01*
X12244343Y-10695467D01*
X12244343Y-10743086D01*
X12234819Y-10781181D01*
X12225295Y-10800229D01*
X12215771Y-10809752D01*
X12196724Y-10819276D01*
X12177676Y-10819276D01*
X12158628Y-10809752D01*
X12149105Y-10800229D01*
X12139581Y-10781181D01*
X12130057Y-10743086D01*
X12130057Y-10695467D01*
X12139581Y-10657371D01*
X12149105Y-10638324D01*
X12158628Y-10628800D01*
X12177676Y-10619276D01*
X12330057Y-10800229D02*
X12339581Y-10809752D01*
X12330057Y-10819276D01*
X12320533Y-10809752D01*
X12330057Y-10800229D01*
X12330057Y-10819276D01*
X12463390Y-10619276D02*
X12482438Y-10619276D01*
X12501486Y-10628800D01*
X12511009Y-10638324D01*
X12520533Y-10657371D01*
X12530057Y-10695467D01*
X12530057Y-10743086D01*
X12520533Y-10781181D01*
X12511009Y-10800229D01*
X12501486Y-10809752D01*
X12482438Y-10819276D01*
X12463390Y-10819276D01*
X12444343Y-10809752D01*
X12434819Y-10800229D01*
X12425295Y-10781181D01*
X12415771Y-10743086D01*
X12415771Y-10695467D01*
X12425295Y-10657371D01*
X12434819Y-10638324D01*
X12444343Y-10628800D01*
X12463390Y-10619276D01*
X12720533Y-10819276D02*
X12606248Y-10819276D01*
X12663390Y-10819276D02*
X12663390Y-10619276D01*
X12644343Y-10647848D01*
X12625295Y-10666895D01*
X12606248Y-10676419D01*
X12901486Y-10619276D02*
X12806248Y-10619276D01*
X12796724Y-10714514D01*
X12806248Y-10704990D01*
X12825295Y-10695467D01*
X12872914Y-10695467D01*
X12891962Y-10704990D01*
X12901486Y-10714514D01*
X12911009Y-10733562D01*
X12911009Y-10781181D01*
X12901486Y-10800229D01*
X12891962Y-10809752D01*
X12872914Y-10819276D01*
X12825295Y-10819276D01*
X12806248Y-10809752D01*
X12796724Y-10800229D01*
X12977676Y-10619276D02*
X13111009Y-10619276D01*
X13025295Y-10819276D01*
X13177676Y-10619276D02*
X13177676Y-10657371D01*
X13253867Y-10619276D02*
X13253867Y-10657371D01*
X13549105Y-10895467D02*
X13539581Y-10885943D01*
X13520533Y-10857371D01*
X13511009Y-10838324D01*
X13501486Y-10809752D01*
X13491962Y-10762133D01*
X13491962Y-10724038D01*
X13501486Y-10676419D01*
X13511009Y-10647848D01*
X13520533Y-10628800D01*
X13539581Y-10600229D01*
X13549105Y-10590705D01*
X13730057Y-10819276D02*
X13615771Y-10819276D01*
X13672914Y-10819276D02*
X13672914Y-10619276D01*
X13653867Y-10647848D01*
X13634819Y-10666895D01*
X13615771Y-10676419D01*
X13968152Y-10819276D02*
X13968152Y-10619276D01*
X14053867Y-10819276D02*
X14053867Y-10714514D01*
X14044343Y-10695467D01*
X14025295Y-10685943D01*
X13996724Y-10685943D01*
X13977676Y-10695467D01*
X13968152Y-10704990D01*
X14177676Y-10819276D02*
X14158628Y-10809752D01*
X14149105Y-10800229D01*
X14139581Y-10781181D01*
X14139581Y-10724038D01*
X14149105Y-10704990D01*
X14158628Y-10695467D01*
X14177676Y-10685943D01*
X14206248Y-10685943D01*
X14225295Y-10695467D01*
X14234819Y-10704990D01*
X14244343Y-10724038D01*
X14244343Y-10781181D01*
X14234819Y-10800229D01*
X14225295Y-10809752D01*
X14206248Y-10819276D01*
X14177676Y-10819276D01*
X14358628Y-10819276D02*
X14339581Y-10809752D01*
X14330057Y-10790705D01*
X14330057Y-10619276D01*
X14511009Y-10809752D02*
X14491962Y-10819276D01*
X14453867Y-10819276D01*
X14434819Y-10809752D01*
X14425295Y-10790705D01*
X14425295Y-10714514D01*
X14434819Y-10695467D01*
X14453867Y-10685943D01*
X14491962Y-10685943D01*
X14511009Y-10695467D01*
X14520533Y-10714514D01*
X14520533Y-10733562D01*
X14425295Y-10752610D01*
X14587200Y-10895467D02*
X14596724Y-10885943D01*
X14615771Y-10857371D01*
X14625295Y-10838324D01*
X14634819Y-10809752D01*
X14644343Y-10762133D01*
X14644343Y-10724038D01*
X14634819Y-10676419D01*
X14625295Y-10647848D01*
X14615771Y-10628800D01*
X14596724Y-10600229D01*
X14587200Y-10590705D01*
D13*
X9977200Y-10992800D02*
G75*
G03*
X9977200Y-10992800I-30000J0D01*
G01*
D11*
X10272914Y-10883276D02*
X10291962Y-10883276D01*
X10311010Y-10892800D01*
X10320533Y-10902324D01*
X10330057Y-10921371D01*
X10339581Y-10959467D01*
X10339581Y-11007086D01*
X10330057Y-11045181D01*
X10320533Y-11064229D01*
X10311010Y-11073752D01*
X10291962Y-11083276D01*
X10272914Y-11083276D01*
X10253867Y-11073752D01*
X10244343Y-11064229D01*
X10234819Y-11045181D01*
X10225295Y-11007086D01*
X10225295Y-10959467D01*
X10234819Y-10921371D01*
X10244343Y-10902324D01*
X10253867Y-10892800D01*
X10272914Y-10883276D01*
X10425295Y-11064229D02*
X10434819Y-11073752D01*
X10425295Y-11083276D01*
X10415771Y-11073752D01*
X10425295Y-11064229D01*
X10425295Y-11083276D01*
X10606248Y-10883276D02*
X10568152Y-10883276D01*
X10549105Y-10892800D01*
X10539581Y-10902324D01*
X10520533Y-10930895D01*
X10511010Y-10968990D01*
X10511010Y-11045181D01*
X10520533Y-11064229D01*
X10530057Y-11073752D01*
X10549105Y-11083276D01*
X10587200Y-11083276D01*
X10606248Y-11073752D01*
X10615771Y-11064229D01*
X10625295Y-11045181D01*
X10625295Y-10997562D01*
X10615771Y-10978514D01*
X10606248Y-10968990D01*
X10587200Y-10959467D01*
X10549105Y-10959467D01*
X10530057Y-10968990D01*
X10520533Y-10978514D01*
X10511010Y-10997562D01*
X10749105Y-10883276D02*
X10768152Y-10883276D01*
X10787200Y-10892800D01*
X10796724Y-10902324D01*
X10806248Y-10921371D01*
X10815771Y-10959467D01*
X10815771Y-11007086D01*
X10806248Y-11045181D01*
X10796724Y-11064229D01*
X10787200Y-11073752D01*
X10768152Y-11083276D01*
X10749105Y-11083276D01*
X10730057Y-11073752D01*
X10720533Y-11064229D01*
X10711010Y-11045181D01*
X10701486Y-11007086D01*
X10701486Y-10959467D01*
X10711010Y-10921371D01*
X10720533Y-10902324D01*
X10730057Y-10892800D01*
X10749105Y-10883276D01*
X10939581Y-10883276D02*
X10958629Y-10883276D01*
X10977676Y-10892800D01*
X10987200Y-10902324D01*
X10996724Y-10921371D01*
X11006248Y-10959467D01*
X11006248Y-11007086D01*
X10996724Y-11045181D01*
X10987200Y-11064229D01*
X10977676Y-11073752D01*
X10958629Y-11083276D01*
X10939581Y-11083276D01*
X10920533Y-11073752D01*
X10911010Y-11064229D01*
X10901486Y-11045181D01*
X10891962Y-11007086D01*
X10891962Y-10959467D01*
X10901486Y-10921371D01*
X10911010Y-10902324D01*
X10920533Y-10892800D01*
X10939581Y-10883276D01*
X11091962Y-11083276D02*
X11091962Y-10949943D01*
X11091962Y-10968990D02*
X11101486Y-10959467D01*
X11120533Y-10949943D01*
X11149105Y-10949943D01*
X11168152Y-10959467D01*
X11177676Y-10978514D01*
X11177676Y-11083276D01*
X11177676Y-10978514D02*
X11187200Y-10959467D01*
X11206248Y-10949943D01*
X11234819Y-10949943D01*
X11253867Y-10959467D01*
X11263390Y-10978514D01*
X11263390Y-11083276D01*
X11358628Y-11083276D02*
X11358628Y-10949943D01*
X11358628Y-10968990D02*
X11368152Y-10959467D01*
X11387200Y-10949943D01*
X11415771Y-10949943D01*
X11434819Y-10959467D01*
X11444343Y-10978514D01*
X11444343Y-11083276D01*
X11444343Y-10978514D02*
X11453867Y-10959467D01*
X11472914Y-10949943D01*
X11501486Y-10949943D01*
X11520533Y-10959467D01*
X11530057Y-10978514D01*
X11530057Y-11083276D01*
X11920533Y-10873752D02*
X11749105Y-11130895D01*
X12177676Y-10883276D02*
X12196724Y-10883276D01*
X12215771Y-10892800D01*
X12225295Y-10902324D01*
X12234819Y-10921371D01*
X12244343Y-10959467D01*
X12244343Y-11007086D01*
X12234819Y-11045181D01*
X12225295Y-11064229D01*
X12215771Y-11073752D01*
X12196724Y-11083276D01*
X12177676Y-11083276D01*
X12158628Y-11073752D01*
X12149105Y-11064229D01*
X12139581Y-11045181D01*
X12130057Y-11007086D01*
X12130057Y-10959467D01*
X12139581Y-10921371D01*
X12149105Y-10902324D01*
X12158628Y-10892800D01*
X12177676Y-10883276D01*
X12330057Y-11064229D02*
X12339581Y-11073752D01*
X12330057Y-11083276D01*
X12320533Y-11073752D01*
X12330057Y-11064229D01*
X12330057Y-11083276D01*
X12463390Y-10883276D02*
X12482438Y-10883276D01*
X12501486Y-10892800D01*
X12511009Y-10902324D01*
X12520533Y-10921371D01*
X12530057Y-10959467D01*
X12530057Y-11007086D01*
X12520533Y-11045181D01*
X12511009Y-11064229D01*
X12501486Y-11073752D01*
X12482438Y-11083276D01*
X12463390Y-11083276D01*
X12444343Y-11073752D01*
X12434819Y-11064229D01*
X12425295Y-11045181D01*
X12415771Y-11007086D01*
X12415771Y-10959467D01*
X12425295Y-10921371D01*
X12434819Y-10902324D01*
X12444343Y-10892800D01*
X12463390Y-10883276D01*
X12606248Y-10902324D02*
X12615771Y-10892800D01*
X12634819Y-10883276D01*
X12682438Y-10883276D01*
X12701486Y-10892800D01*
X12711009Y-10902324D01*
X12720533Y-10921371D01*
X12720533Y-10940419D01*
X12711009Y-10968990D01*
X12596724Y-11083276D01*
X12720533Y-11083276D01*
X12787200Y-10883276D02*
X12911009Y-10883276D01*
X12844343Y-10959467D01*
X12872914Y-10959467D01*
X12891962Y-10968990D01*
X12901486Y-10978514D01*
X12911009Y-10997562D01*
X12911009Y-11045181D01*
X12901486Y-11064229D01*
X12891962Y-11073752D01*
X12872914Y-11083276D01*
X12815771Y-11083276D01*
X12796724Y-11073752D01*
X12787200Y-11064229D01*
X13082438Y-10883276D02*
X13044343Y-10883276D01*
X13025295Y-10892800D01*
X13015771Y-10902324D01*
X12996724Y-10930895D01*
X12987200Y-10968990D01*
X12987200Y-11045181D01*
X12996724Y-11064229D01*
X13006248Y-11073752D01*
X13025295Y-11083276D01*
X13063390Y-11083276D01*
X13082438Y-11073752D01*
X13091962Y-11064229D01*
X13101486Y-11045181D01*
X13101486Y-10997562D01*
X13091962Y-10978514D01*
X13082438Y-10968990D01*
X13063390Y-10959467D01*
X13025295Y-10959467D01*
X13006248Y-10968990D01*
X12996724Y-10978514D01*
X12987200Y-10997562D01*
X13177676Y-10883276D02*
X13177676Y-10921371D01*
X13253867Y-10883276D02*
X13253867Y-10921371D01*
X13549105Y-11159467D02*
X13539581Y-11149943D01*
X13520533Y-11121371D01*
X13511009Y-11102324D01*
X13501486Y-11073752D01*
X13491962Y-11026133D01*
X13491962Y-10988038D01*
X13501486Y-10940419D01*
X13511009Y-10911848D01*
X13520533Y-10892800D01*
X13539581Y-10864229D01*
X13549105Y-10854705D01*
X13711009Y-10883276D02*
X13672914Y-10883276D01*
X13653867Y-10892800D01*
X13644343Y-10902324D01*
X13625295Y-10930895D01*
X13615771Y-10968990D01*
X13615771Y-11045181D01*
X13625295Y-11064229D01*
X13634819Y-11073752D01*
X13653867Y-11083276D01*
X13691962Y-11083276D01*
X13711009Y-11073752D01*
X13720533Y-11064229D01*
X13730057Y-11045181D01*
X13730057Y-10997562D01*
X13720533Y-10978514D01*
X13711009Y-10968990D01*
X13691962Y-10959467D01*
X13653867Y-10959467D01*
X13634819Y-10968990D01*
X13625295Y-10978514D01*
X13615771Y-10997562D01*
X13968152Y-11083276D02*
X13968152Y-10883276D01*
X14053867Y-11083276D02*
X14053867Y-10978514D01*
X14044343Y-10959467D01*
X14025295Y-10949943D01*
X13996724Y-10949943D01*
X13977676Y-10959467D01*
X13968152Y-10968990D01*
X14177676Y-11083276D02*
X14158628Y-11073752D01*
X14149105Y-11064229D01*
X14139581Y-11045181D01*
X14139581Y-10988038D01*
X14149105Y-10968990D01*
X14158628Y-10959467D01*
X14177676Y-10949943D01*
X14206248Y-10949943D01*
X14225295Y-10959467D01*
X14234819Y-10968990D01*
X14244343Y-10988038D01*
X14244343Y-11045181D01*
X14234819Y-11064229D01*
X14225295Y-11073752D01*
X14206248Y-11083276D01*
X14177676Y-11083276D01*
X14358628Y-11083276D02*
X14339581Y-11073752D01*
X14330057Y-11054705D01*
X14330057Y-10883276D01*
X14511009Y-11073752D02*
X14491962Y-11083276D01*
X14453867Y-11083276D01*
X14434819Y-11073752D01*
X14425295Y-11054705D01*
X14425295Y-10978514D01*
X14434819Y-10959467D01*
X14453867Y-10949943D01*
X14491962Y-10949943D01*
X14511009Y-10959467D01*
X14520533Y-10978514D01*
X14520533Y-10997562D01*
X14425295Y-11016610D01*
X14596724Y-11073752D02*
X14615771Y-11083276D01*
X14653867Y-11083276D01*
X14672914Y-11073752D01*
X14682438Y-11054705D01*
X14682438Y-11045181D01*
X14672914Y-11026133D01*
X14653867Y-11016610D01*
X14625295Y-11016610D01*
X14606248Y-11007086D01*
X14596724Y-10988038D01*
X14596724Y-10978514D01*
X14606248Y-10959467D01*
X14625295Y-10949943D01*
X14653867Y-10949943D01*
X14672914Y-10959467D01*
X14749105Y-11159467D02*
X14758628Y-11149943D01*
X14777676Y-11121371D01*
X14787200Y-11102324D01*
X14796724Y-11073752D01*
X14806248Y-11026133D01*
X14806248Y-10988038D01*
X14796724Y-10940419D01*
X14787200Y-10911848D01*
X14777676Y-10892800D01*
X14758628Y-10864229D01*
X14749105Y-10854705D01*
D14*
X9939700Y-11219300D02*
X9939700Y-11294300D01*
X9902200Y-11256800D02*
X9977200Y-11256800D01*
D11*
X10272914Y-11147276D02*
X10291962Y-11147276D01*
X10311010Y-11156800D01*
X10320533Y-11166324D01*
X10330057Y-11185371D01*
X10339581Y-11223467D01*
X10339581Y-11271086D01*
X10330057Y-11309181D01*
X10320533Y-11328228D01*
X10311010Y-11337752D01*
X10291962Y-11347276D01*
X10272914Y-11347276D01*
X10253867Y-11337752D01*
X10244343Y-11328228D01*
X10234819Y-11309181D01*
X10225295Y-11271086D01*
X10225295Y-11223467D01*
X10234819Y-11185371D01*
X10244343Y-11166324D01*
X10253867Y-11156800D01*
X10272914Y-11147276D01*
X10425295Y-11328228D02*
X10434819Y-11337752D01*
X10425295Y-11347276D01*
X10415771Y-11337752D01*
X10425295Y-11328228D01*
X10425295Y-11347276D01*
X10501486Y-11147276D02*
X10634819Y-11147276D01*
X10549105Y-11347276D01*
X10806248Y-11147276D02*
X10711010Y-11147276D01*
X10701486Y-11242514D01*
X10711010Y-11232990D01*
X10730057Y-11223467D01*
X10777676Y-11223467D01*
X10796724Y-11232990D01*
X10806248Y-11242514D01*
X10815771Y-11261562D01*
X10815771Y-11309181D01*
X10806248Y-11328228D01*
X10796724Y-11337752D01*
X10777676Y-11347276D01*
X10730057Y-11347276D01*
X10711010Y-11337752D01*
X10701486Y-11328228D01*
X10939581Y-11147276D02*
X10958629Y-11147276D01*
X10977676Y-11156800D01*
X10987200Y-11166324D01*
X10996724Y-11185371D01*
X11006248Y-11223467D01*
X11006248Y-11271086D01*
X10996724Y-11309181D01*
X10987200Y-11328228D01*
X10977676Y-11337752D01*
X10958629Y-11347276D01*
X10939581Y-11347276D01*
X10920533Y-11337752D01*
X10911010Y-11328228D01*
X10901486Y-11309181D01*
X10891962Y-11271086D01*
X10891962Y-11223467D01*
X10901486Y-11185371D01*
X10911010Y-11166324D01*
X10920533Y-11156800D01*
X10939581Y-11147276D01*
X11091962Y-11347276D02*
X11091962Y-11213943D01*
X11091962Y-11232990D02*
X11101486Y-11223467D01*
X11120533Y-11213943D01*
X11149105Y-11213943D01*
X11168152Y-11223467D01*
X11177676Y-11242514D01*
X11177676Y-11347276D01*
X11177676Y-11242514D02*
X11187200Y-11223467D01*
X11206248Y-11213943D01*
X11234819Y-11213943D01*
X11253867Y-11223467D01*
X11263390Y-11242514D01*
X11263390Y-11347276D01*
X11358628Y-11347276D02*
X11358628Y-11213943D01*
X11358628Y-11232990D02*
X11368152Y-11223467D01*
X11387200Y-11213943D01*
X11415771Y-11213943D01*
X11434819Y-11223467D01*
X11444343Y-11242514D01*
X11444343Y-11347276D01*
X11444343Y-11242514D02*
X11453867Y-11223467D01*
X11472914Y-11213943D01*
X11501486Y-11213943D01*
X11520533Y-11223467D01*
X11530057Y-11242514D01*
X11530057Y-11347276D01*
X11920533Y-11137752D02*
X11749105Y-11394895D01*
X12177676Y-11147276D02*
X12196724Y-11147276D01*
X12215771Y-11156800D01*
X12225295Y-11166324D01*
X12234819Y-11185371D01*
X12244343Y-11223467D01*
X12244343Y-11271086D01*
X12234819Y-11309181D01*
X12225295Y-11328228D01*
X12215771Y-11337752D01*
X12196724Y-11347276D01*
X12177676Y-11347276D01*
X12158628Y-11337752D01*
X12149105Y-11328228D01*
X12139581Y-11309181D01*
X12130057Y-11271086D01*
X12130057Y-11223467D01*
X12139581Y-11185371D01*
X12149105Y-11166324D01*
X12158628Y-11156800D01*
X12177676Y-11147276D01*
X12330057Y-11328228D02*
X12339581Y-11337752D01*
X12330057Y-11347276D01*
X12320533Y-11337752D01*
X12330057Y-11328228D01*
X12330057Y-11347276D01*
X12463390Y-11147276D02*
X12482438Y-11147276D01*
X12501486Y-11156800D01*
X12511009Y-11166324D01*
X12520533Y-11185371D01*
X12530057Y-11223467D01*
X12530057Y-11271086D01*
X12520533Y-11309181D01*
X12511009Y-11328228D01*
X12501486Y-11337752D01*
X12482438Y-11347276D01*
X12463390Y-11347276D01*
X12444343Y-11337752D01*
X12434819Y-11328228D01*
X12425295Y-11309181D01*
X12415771Y-11271086D01*
X12415771Y-11223467D01*
X12425295Y-11185371D01*
X12434819Y-11166324D01*
X12444343Y-11156800D01*
X12463390Y-11147276D01*
X12606248Y-11166324D02*
X12615771Y-11156800D01*
X12634819Y-11147276D01*
X12682438Y-11147276D01*
X12701486Y-11156800D01*
X12711009Y-11166324D01*
X12720533Y-11185371D01*
X12720533Y-11204419D01*
X12711009Y-11232990D01*
X12596724Y-11347276D01*
X12720533Y-11347276D01*
X12815771Y-11347276D02*
X12853867Y-11347276D01*
X12872914Y-11337752D01*
X12882438Y-11328228D01*
X12901486Y-11299657D01*
X12911009Y-11261562D01*
X12911009Y-11185371D01*
X12901486Y-11166324D01*
X12891962Y-11156800D01*
X12872914Y-11147276D01*
X12834819Y-11147276D01*
X12815771Y-11156800D01*
X12806248Y-11166324D01*
X12796724Y-11185371D01*
X12796724Y-11232990D01*
X12806248Y-11252038D01*
X12815771Y-11261562D01*
X12834819Y-11271086D01*
X12872914Y-11271086D01*
X12891962Y-11261562D01*
X12901486Y-11252038D01*
X12911009Y-11232990D01*
X13091962Y-11147276D02*
X12996724Y-11147276D01*
X12987200Y-11242514D01*
X12996724Y-11232990D01*
X13015771Y-11223467D01*
X13063390Y-11223467D01*
X13082438Y-11232990D01*
X13091962Y-11242514D01*
X13101486Y-11261562D01*
X13101486Y-11309181D01*
X13091962Y-11328228D01*
X13082438Y-11337752D01*
X13063390Y-11347276D01*
X13015771Y-11347276D01*
X12996724Y-11337752D01*
X12987200Y-11328228D01*
X13177676Y-11147276D02*
X13177676Y-11185371D01*
X13253867Y-11147276D02*
X13253867Y-11185371D01*
X13549105Y-11423467D02*
X13539581Y-11413943D01*
X13520533Y-11385371D01*
X13511009Y-11366324D01*
X13501486Y-11337752D01*
X13491962Y-11290133D01*
X13491962Y-11252038D01*
X13501486Y-11204419D01*
X13511009Y-11175848D01*
X13520533Y-11156800D01*
X13539581Y-11128229D01*
X13549105Y-11118705D01*
X13634819Y-11347276D02*
X13672914Y-11347276D01*
X13691962Y-11337752D01*
X13701486Y-11328228D01*
X13720533Y-11299657D01*
X13730057Y-11261562D01*
X13730057Y-11185371D01*
X13720533Y-11166324D01*
X13711009Y-11156800D01*
X13691962Y-11147276D01*
X13653867Y-11147276D01*
X13634819Y-11156800D01*
X13625295Y-11166324D01*
X13615771Y-11185371D01*
X13615771Y-11232990D01*
X13625295Y-11252038D01*
X13634819Y-11261562D01*
X13653867Y-11271086D01*
X13691962Y-11271086D01*
X13711009Y-11261562D01*
X13720533Y-11252038D01*
X13730057Y-11232990D01*
X13968152Y-11347276D02*
X13968152Y-11147276D01*
X14053867Y-11347276D02*
X14053867Y-11242514D01*
X14044343Y-11223467D01*
X14025295Y-11213943D01*
X13996724Y-11213943D01*
X13977676Y-11223467D01*
X13968152Y-11232990D01*
X14177676Y-11347276D02*
X14158628Y-11337752D01*
X14149105Y-11328228D01*
X14139581Y-11309181D01*
X14139581Y-11252038D01*
X14149105Y-11232990D01*
X14158628Y-11223467D01*
X14177676Y-11213943D01*
X14206248Y-11213943D01*
X14225295Y-11223467D01*
X14234819Y-11232990D01*
X14244343Y-11252038D01*
X14244343Y-11309181D01*
X14234819Y-11328228D01*
X14225295Y-11337752D01*
X14206248Y-11347276D01*
X14177676Y-11347276D01*
X14358628Y-11347276D02*
X14339581Y-11337752D01*
X14330057Y-11318705D01*
X14330057Y-11147276D01*
X14511009Y-11337752D02*
X14491962Y-11347276D01*
X14453867Y-11347276D01*
X14434819Y-11337752D01*
X14425295Y-11318705D01*
X14425295Y-11242514D01*
X14434819Y-11223467D01*
X14453867Y-11213943D01*
X14491962Y-11213943D01*
X14511009Y-11223467D01*
X14520533Y-11242514D01*
X14520533Y-11261562D01*
X14425295Y-11280609D01*
X14596724Y-11337752D02*
X14615771Y-11347276D01*
X14653867Y-11347276D01*
X14672914Y-11337752D01*
X14682438Y-11318705D01*
X14682438Y-11309181D01*
X14672914Y-11290133D01*
X14653867Y-11280609D01*
X14625295Y-11280609D01*
X14606248Y-11271086D01*
X14596724Y-11252038D01*
X14596724Y-11242514D01*
X14606248Y-11223467D01*
X14625295Y-11213943D01*
X14653867Y-11213943D01*
X14672914Y-11223467D01*
X14749105Y-11423467D02*
X14758628Y-11413943D01*
X14777676Y-11385371D01*
X14787200Y-11366324D01*
X14796724Y-11337752D01*
X14806248Y-11290133D01*
X14806248Y-11252038D01*
X14796724Y-11204419D01*
X14787200Y-11175848D01*
X14777676Y-11156800D01*
X14758628Y-11128229D01*
X14749105Y-11118705D01*
D15*
X9965485Y-11549084D02*
X9965485Y-11492515D01*
X9908916Y-11492515D01*
X9908916Y-11549084D01*
X9965485Y-11549084D01*
D11*
X10272914Y-11411276D02*
X10291962Y-11411276D01*
X10311010Y-11420800D01*
X10320533Y-11430324D01*
X10330057Y-11449371D01*
X10339581Y-11487467D01*
X10339581Y-11535086D01*
X10330057Y-11573181D01*
X10320533Y-11592228D01*
X10311010Y-11601752D01*
X10291962Y-11611276D01*
X10272914Y-11611276D01*
X10253867Y-11601752D01*
X10244343Y-11592228D01*
X10234819Y-11573181D01*
X10225295Y-11535086D01*
X10225295Y-11487467D01*
X10234819Y-11449371D01*
X10244343Y-11430324D01*
X10253867Y-11420800D01*
X10272914Y-11411276D01*
X10425295Y-11592228D02*
X10434819Y-11601752D01*
X10425295Y-11611276D01*
X10415771Y-11601752D01*
X10425295Y-11592228D01*
X10425295Y-11611276D01*
X10549105Y-11496990D02*
X10530057Y-11487467D01*
X10520533Y-11477943D01*
X10511010Y-11458895D01*
X10511010Y-11449371D01*
X10520533Y-11430324D01*
X10530057Y-11420800D01*
X10549105Y-11411276D01*
X10587200Y-11411276D01*
X10606248Y-11420800D01*
X10615771Y-11430324D01*
X10625295Y-11449371D01*
X10625295Y-11458895D01*
X10615771Y-11477943D01*
X10606248Y-11487467D01*
X10587200Y-11496990D01*
X10549105Y-11496990D01*
X10530057Y-11506514D01*
X10520533Y-11516038D01*
X10511010Y-11535086D01*
X10511010Y-11573181D01*
X10520533Y-11592228D01*
X10530057Y-11601752D01*
X10549105Y-11611276D01*
X10587200Y-11611276D01*
X10606248Y-11601752D01*
X10615771Y-11592228D01*
X10625295Y-11573181D01*
X10625295Y-11535086D01*
X10615771Y-11516038D01*
X10606248Y-11506514D01*
X10587200Y-11496990D01*
X10749105Y-11411276D02*
X10768152Y-11411276D01*
X10787200Y-11420800D01*
X10796724Y-11430324D01*
X10806248Y-11449371D01*
X10815771Y-11487467D01*
X10815771Y-11535086D01*
X10806248Y-11573181D01*
X10796724Y-11592228D01*
X10787200Y-11601752D01*
X10768152Y-11611276D01*
X10749105Y-11611276D01*
X10730057Y-11601752D01*
X10720533Y-11592228D01*
X10711010Y-11573181D01*
X10701486Y-11535086D01*
X10701486Y-11487467D01*
X10711010Y-11449371D01*
X10720533Y-11430324D01*
X10730057Y-11420800D01*
X10749105Y-11411276D01*
X10939581Y-11411276D02*
X10958629Y-11411276D01*
X10977676Y-11420800D01*
X10987200Y-11430324D01*
X10996724Y-11449371D01*
X11006248Y-11487467D01*
X11006248Y-11535086D01*
X10996724Y-11573181D01*
X10987200Y-11592228D01*
X10977676Y-11601752D01*
X10958629Y-11611276D01*
X10939581Y-11611276D01*
X10920533Y-11601752D01*
X10911010Y-11592228D01*
X10901486Y-11573181D01*
X10891962Y-11535086D01*
X10891962Y-11487467D01*
X10901486Y-11449371D01*
X10911010Y-11430324D01*
X10920533Y-11420800D01*
X10939581Y-11411276D01*
X11091962Y-11611276D02*
X11091962Y-11477943D01*
X11091962Y-11496990D02*
X11101486Y-11487467D01*
X11120533Y-11477943D01*
X11149105Y-11477943D01*
X11168152Y-11487467D01*
X11177676Y-11506514D01*
X11177676Y-11611276D01*
X11177676Y-11506514D02*
X11187200Y-11487467D01*
X11206248Y-11477943D01*
X11234819Y-11477943D01*
X11253867Y-11487467D01*
X11263390Y-11506514D01*
X11263390Y-11611276D01*
X11358628Y-11611276D02*
X11358628Y-11477943D01*
X11358628Y-11496990D02*
X11368152Y-11487467D01*
X11387200Y-11477943D01*
X11415771Y-11477943D01*
X11434819Y-11487467D01*
X11444343Y-11506514D01*
X11444343Y-11611276D01*
X11444343Y-11506514D02*
X11453867Y-11487467D01*
X11472914Y-11477943D01*
X11501486Y-11477943D01*
X11520533Y-11487467D01*
X11530057Y-11506514D01*
X11530057Y-11611276D01*
X11920533Y-11401752D02*
X11749105Y-11658895D01*
X12177676Y-11411276D02*
X12196724Y-11411276D01*
X12215771Y-11420800D01*
X12225295Y-11430324D01*
X12234819Y-11449371D01*
X12244343Y-11487467D01*
X12244343Y-11535086D01*
X12234819Y-11573181D01*
X12225295Y-11592228D01*
X12215771Y-11601752D01*
X12196724Y-11611276D01*
X12177676Y-11611276D01*
X12158628Y-11601752D01*
X12149105Y-11592228D01*
X12139581Y-11573181D01*
X12130057Y-11535086D01*
X12130057Y-11487467D01*
X12139581Y-11449371D01*
X12149105Y-11430324D01*
X12158628Y-11420800D01*
X12177676Y-11411276D01*
X12330057Y-11592228D02*
X12339581Y-11601752D01*
X12330057Y-11611276D01*
X12320533Y-11601752D01*
X12330057Y-11592228D01*
X12330057Y-11611276D01*
X12463390Y-11411276D02*
X12482438Y-11411276D01*
X12501486Y-11420800D01*
X12511009Y-11430324D01*
X12520533Y-11449371D01*
X12530057Y-11487467D01*
X12530057Y-11535086D01*
X12520533Y-11573181D01*
X12511009Y-11592228D01*
X12501486Y-11601752D01*
X12482438Y-11611276D01*
X12463390Y-11611276D01*
X12444343Y-11601752D01*
X12434819Y-11592228D01*
X12425295Y-11573181D01*
X12415771Y-11535086D01*
X12415771Y-11487467D01*
X12425295Y-11449371D01*
X12434819Y-11430324D01*
X12444343Y-11420800D01*
X12463390Y-11411276D01*
X12596724Y-11411276D02*
X12720533Y-11411276D01*
X12653867Y-11487467D01*
X12682438Y-11487467D01*
X12701486Y-11496990D01*
X12711009Y-11506514D01*
X12720533Y-11525562D01*
X12720533Y-11573181D01*
X12711009Y-11592228D01*
X12701486Y-11601752D01*
X12682438Y-11611276D01*
X12625295Y-11611276D01*
X12606248Y-11601752D01*
X12596724Y-11592228D01*
X12911009Y-11611276D02*
X12796724Y-11611276D01*
X12853867Y-11611276D02*
X12853867Y-11411276D01*
X12834819Y-11439848D01*
X12815771Y-11458895D01*
X12796724Y-11468419D01*
X13091962Y-11411276D02*
X12996724Y-11411276D01*
X12987200Y-11506514D01*
X12996724Y-11496990D01*
X13015771Y-11487467D01*
X13063390Y-11487467D01*
X13082438Y-11496990D01*
X13091962Y-11506514D01*
X13101486Y-11525562D01*
X13101486Y-11573181D01*
X13091962Y-11592228D01*
X13082438Y-11601752D01*
X13063390Y-11611276D01*
X13015771Y-11611276D01*
X12996724Y-11601752D01*
X12987200Y-11592228D01*
X13177676Y-11411276D02*
X13177676Y-11449371D01*
X13253867Y-11411276D02*
X13253867Y-11449371D01*
X13549105Y-11687467D02*
X13539581Y-11677943D01*
X13520533Y-11649371D01*
X13511009Y-11630324D01*
X13501486Y-11601752D01*
X13491962Y-11554133D01*
X13491962Y-11516038D01*
X13501486Y-11468419D01*
X13511009Y-11439848D01*
X13520533Y-11420800D01*
X13539581Y-11392228D01*
X13549105Y-11382705D01*
X13634819Y-11611276D02*
X13672914Y-11611276D01*
X13691962Y-11601752D01*
X13701486Y-11592228D01*
X13720533Y-11563657D01*
X13730057Y-11525562D01*
X13730057Y-11449371D01*
X13720533Y-11430324D01*
X13711009Y-11420800D01*
X13691962Y-11411276D01*
X13653867Y-11411276D01*
X13634819Y-11420800D01*
X13625295Y-11430324D01*
X13615771Y-11449371D01*
X13615771Y-11496990D01*
X13625295Y-11516038D01*
X13634819Y-11525562D01*
X13653867Y-11535086D01*
X13691962Y-11535086D01*
X13711009Y-11525562D01*
X13720533Y-11516038D01*
X13730057Y-11496990D01*
X13853867Y-11411276D02*
X13872914Y-11411276D01*
X13891962Y-11420800D01*
X13901486Y-11430324D01*
X13911009Y-11449371D01*
X13920533Y-11487467D01*
X13920533Y-11535086D01*
X13911009Y-11573181D01*
X13901486Y-11592228D01*
X13891962Y-11601752D01*
X13872914Y-11611276D01*
X13853867Y-11611276D01*
X13834819Y-11601752D01*
X13825295Y-11592228D01*
X13815771Y-11573181D01*
X13806248Y-11535086D01*
X13806248Y-11487467D01*
X13815771Y-11449371D01*
X13825295Y-11430324D01*
X13834819Y-11420800D01*
X13853867Y-11411276D01*
X14158628Y-11611276D02*
X14158628Y-11411276D01*
X14244343Y-11611276D02*
X14244343Y-11506514D01*
X14234819Y-11487467D01*
X14215771Y-11477943D01*
X14187200Y-11477943D01*
X14168152Y-11487467D01*
X14158628Y-11496990D01*
X14368152Y-11611276D02*
X14349105Y-11601752D01*
X14339581Y-11592228D01*
X14330057Y-11573181D01*
X14330057Y-11516038D01*
X14339581Y-11496990D01*
X14349105Y-11487467D01*
X14368152Y-11477943D01*
X14396724Y-11477943D01*
X14415771Y-11487467D01*
X14425295Y-11496990D01*
X14434819Y-11516038D01*
X14434819Y-11573181D01*
X14425295Y-11592228D01*
X14415771Y-11601752D01*
X14396724Y-11611276D01*
X14368152Y-11611276D01*
X14549105Y-11611276D02*
X14530057Y-11601752D01*
X14520533Y-11582705D01*
X14520533Y-11411276D01*
X14701486Y-11601752D02*
X14682438Y-11611276D01*
X14644343Y-11611276D01*
X14625295Y-11601752D01*
X14615771Y-11582705D01*
X14615771Y-11506514D01*
X14625295Y-11487467D01*
X14644343Y-11477943D01*
X14682438Y-11477943D01*
X14701486Y-11487467D01*
X14711009Y-11506514D01*
X14711009Y-11525562D01*
X14615771Y-11544609D01*
X14787200Y-11601752D02*
X14806248Y-11611276D01*
X14844343Y-11611276D01*
X14863390Y-11601752D01*
X14872914Y-11582705D01*
X14872914Y-11573181D01*
X14863390Y-11554133D01*
X14844343Y-11544609D01*
X14815771Y-11544609D01*
X14796724Y-11535086D01*
X14787200Y-11516038D01*
X14787200Y-11506514D01*
X14796724Y-11487467D01*
X14815771Y-11477943D01*
X14844343Y-11477943D01*
X14863390Y-11487467D01*
X14939581Y-11687467D02*
X14949105Y-11677943D01*
X14968152Y-11649371D01*
X14977676Y-11630324D01*
X14987200Y-11601752D01*
X14996724Y-11554133D01*
X14996724Y-11516038D01*
X14987200Y-11468419D01*
X14977676Y-11439848D01*
X14968152Y-11420800D01*
X14949105Y-11392228D01*
X14939581Y-11382705D01*
D16*
X9932200Y-11829800D02*
X9977200Y-11784800D01*
X9932200Y-11739800D01*
X9887200Y-11784800D01*
X9932200Y-11829800D01*
D11*
X10272914Y-11675276D02*
X10291962Y-11675276D01*
X10311010Y-11684800D01*
X10320533Y-11694324D01*
X10330057Y-11713371D01*
X10339581Y-11751467D01*
X10339581Y-11799086D01*
X10330057Y-11837181D01*
X10320533Y-11856228D01*
X10311010Y-11865752D01*
X10291962Y-11875276D01*
X10272914Y-11875276D01*
X10253867Y-11865752D01*
X10244343Y-11856228D01*
X10234819Y-11837181D01*
X10225295Y-11799086D01*
X10225295Y-11751467D01*
X10234819Y-11713371D01*
X10244343Y-11694324D01*
X10253867Y-11684800D01*
X10272914Y-11675276D01*
X10425295Y-11856228D02*
X10434819Y-11865752D01*
X10425295Y-11875276D01*
X10415771Y-11865752D01*
X10425295Y-11856228D01*
X10425295Y-11875276D01*
X10530057Y-11875276D02*
X10568152Y-11875276D01*
X10587200Y-11865752D01*
X10596724Y-11856228D01*
X10615771Y-11827657D01*
X10625295Y-11789562D01*
X10625295Y-11713371D01*
X10615771Y-11694324D01*
X10606248Y-11684800D01*
X10587200Y-11675276D01*
X10549105Y-11675276D01*
X10530057Y-11684800D01*
X10520533Y-11694324D01*
X10511010Y-11713371D01*
X10511010Y-11760990D01*
X10520533Y-11780038D01*
X10530057Y-11789562D01*
X10549105Y-11799086D01*
X10587200Y-11799086D01*
X10606248Y-11789562D01*
X10615771Y-11780038D01*
X10625295Y-11760990D01*
X10749105Y-11675276D02*
X10768152Y-11675276D01*
X10787200Y-11684800D01*
X10796724Y-11694324D01*
X10806248Y-11713371D01*
X10815771Y-11751467D01*
X10815771Y-11799086D01*
X10806248Y-11837181D01*
X10796724Y-11856228D01*
X10787200Y-11865752D01*
X10768152Y-11875276D01*
X10749105Y-11875276D01*
X10730057Y-11865752D01*
X10720533Y-11856228D01*
X10711010Y-11837181D01*
X10701486Y-11799086D01*
X10701486Y-11751467D01*
X10711010Y-11713371D01*
X10720533Y-11694324D01*
X10730057Y-11684800D01*
X10749105Y-11675276D01*
X10939581Y-11675276D02*
X10958629Y-11675276D01*
X10977676Y-11684800D01*
X10987200Y-11694324D01*
X10996724Y-11713371D01*
X11006248Y-11751467D01*
X11006248Y-11799086D01*
X10996724Y-11837181D01*
X10987200Y-11856228D01*
X10977676Y-11865752D01*
X10958629Y-11875276D01*
X10939581Y-11875276D01*
X10920533Y-11865752D01*
X10911010Y-11856228D01*
X10901486Y-11837181D01*
X10891962Y-11799086D01*
X10891962Y-11751467D01*
X10901486Y-11713371D01*
X10911010Y-11694324D01*
X10920533Y-11684800D01*
X10939581Y-11675276D01*
X11091962Y-11875276D02*
X11091962Y-11741943D01*
X11091962Y-11760990D02*
X11101486Y-11751467D01*
X11120533Y-11741943D01*
X11149105Y-11741943D01*
X11168152Y-11751467D01*
X11177676Y-11770514D01*
X11177676Y-11875276D01*
X11177676Y-11770514D02*
X11187200Y-11751467D01*
X11206248Y-11741943D01*
X11234819Y-11741943D01*
X11253867Y-11751467D01*
X11263390Y-11770514D01*
X11263390Y-11875276D01*
X11358628Y-11875276D02*
X11358628Y-11741943D01*
X11358628Y-11760990D02*
X11368152Y-11751467D01*
X11387200Y-11741943D01*
X11415771Y-11741943D01*
X11434819Y-11751467D01*
X11444343Y-11770514D01*
X11444343Y-11875276D01*
X11444343Y-11770514D02*
X11453867Y-11751467D01*
X11472914Y-11741943D01*
X11501486Y-11741943D01*
X11520533Y-11751467D01*
X11530057Y-11770514D01*
X11530057Y-11875276D01*
X11920533Y-11665752D02*
X11749105Y-11922895D01*
X12177676Y-11675276D02*
X12196724Y-11675276D01*
X12215771Y-11684800D01*
X12225295Y-11694324D01*
X12234819Y-11713371D01*
X12244343Y-11751467D01*
X12244343Y-11799086D01*
X12234819Y-11837181D01*
X12225295Y-11856228D01*
X12215771Y-11865752D01*
X12196724Y-11875276D01*
X12177676Y-11875276D01*
X12158628Y-11865752D01*
X12149105Y-11856228D01*
X12139581Y-11837181D01*
X12130057Y-11799086D01*
X12130057Y-11751467D01*
X12139581Y-11713371D01*
X12149105Y-11694324D01*
X12158628Y-11684800D01*
X12177676Y-11675276D01*
X12330057Y-11856228D02*
X12339581Y-11865752D01*
X12330057Y-11875276D01*
X12320533Y-11865752D01*
X12330057Y-11856228D01*
X12330057Y-11875276D01*
X12463390Y-11675276D02*
X12482438Y-11675276D01*
X12501486Y-11684800D01*
X12511009Y-11694324D01*
X12520533Y-11713371D01*
X12530057Y-11751467D01*
X12530057Y-11799086D01*
X12520533Y-11837181D01*
X12511009Y-11856228D01*
X12501486Y-11865752D01*
X12482438Y-11875276D01*
X12463390Y-11875276D01*
X12444343Y-11865752D01*
X12434819Y-11856228D01*
X12425295Y-11837181D01*
X12415771Y-11799086D01*
X12415771Y-11751467D01*
X12425295Y-11713371D01*
X12434819Y-11694324D01*
X12444343Y-11684800D01*
X12463390Y-11675276D01*
X12596724Y-11675276D02*
X12720533Y-11675276D01*
X12653867Y-11751467D01*
X12682438Y-11751467D01*
X12701486Y-11760990D01*
X12711009Y-11770514D01*
X12720533Y-11789562D01*
X12720533Y-11837181D01*
X12711009Y-11856228D01*
X12701486Y-11865752D01*
X12682438Y-11875276D01*
X12625295Y-11875276D01*
X12606248Y-11865752D01*
X12596724Y-11856228D01*
X12901486Y-11675276D02*
X12806248Y-11675276D01*
X12796724Y-11770514D01*
X12806248Y-11760990D01*
X12825295Y-11751467D01*
X12872914Y-11751467D01*
X12891962Y-11760990D01*
X12901486Y-11770514D01*
X12911009Y-11789562D01*
X12911009Y-11837181D01*
X12901486Y-11856228D01*
X12891962Y-11865752D01*
X12872914Y-11875276D01*
X12825295Y-11875276D01*
X12806248Y-11865752D01*
X12796724Y-11856228D01*
X13082438Y-11741943D02*
X13082438Y-11875276D01*
X13034819Y-11665752D02*
X12987200Y-11808609D01*
X13111009Y-11808609D01*
X13177676Y-11675276D02*
X13177676Y-11713371D01*
X13253867Y-11675276D02*
X13253867Y-11713371D01*
X13549105Y-11951467D02*
X13539581Y-11941943D01*
X13520533Y-11913371D01*
X13511009Y-11894324D01*
X13501486Y-11865752D01*
X13491962Y-11818133D01*
X13491962Y-11780038D01*
X13501486Y-11732419D01*
X13511009Y-11703848D01*
X13520533Y-11684800D01*
X13539581Y-11656228D01*
X13549105Y-11646705D01*
X13711009Y-11741943D02*
X13711009Y-11875276D01*
X13663390Y-11665752D02*
X13615771Y-11808609D01*
X13739581Y-11808609D01*
X13968152Y-11875276D02*
X13968152Y-11675276D01*
X14053867Y-11875276D02*
X14053867Y-11770514D01*
X14044343Y-11751467D01*
X14025295Y-11741943D01*
X13996724Y-11741943D01*
X13977676Y-11751467D01*
X13968152Y-11760990D01*
X14177676Y-11875276D02*
X14158628Y-11865752D01*
X14149105Y-11856228D01*
X14139581Y-11837181D01*
X14139581Y-11780038D01*
X14149105Y-11760990D01*
X14158628Y-11751467D01*
X14177676Y-11741943D01*
X14206248Y-11741943D01*
X14225295Y-11751467D01*
X14234819Y-11760990D01*
X14244343Y-11780038D01*
X14244343Y-11837181D01*
X14234819Y-11856228D01*
X14225295Y-11865752D01*
X14206248Y-11875276D01*
X14177676Y-11875276D01*
X14358628Y-11875276D02*
X14339581Y-11865752D01*
X14330057Y-11846705D01*
X14330057Y-11675276D01*
X14511009Y-11865752D02*
X14491962Y-11875276D01*
X14453867Y-11875276D01*
X14434819Y-11865752D01*
X14425295Y-11846705D01*
X14425295Y-11770514D01*
X14434819Y-11751467D01*
X14453867Y-11741943D01*
X14491962Y-11741943D01*
X14511009Y-11751467D01*
X14520533Y-11770514D01*
X14520533Y-11789562D01*
X14425295Y-11808609D01*
X14596724Y-11865752D02*
X14615771Y-11875276D01*
X14653867Y-11875276D01*
X14672914Y-11865752D01*
X14682438Y-11846705D01*
X14682438Y-11837181D01*
X14672914Y-11818133D01*
X14653867Y-11808609D01*
X14625295Y-11808609D01*
X14606248Y-11799086D01*
X14596724Y-11780038D01*
X14596724Y-11770514D01*
X14606248Y-11751467D01*
X14625295Y-11741943D01*
X14653867Y-11741943D01*
X14672914Y-11751467D01*
X14749105Y-11951467D02*
X14758628Y-11941943D01*
X14777676Y-11913371D01*
X14787200Y-11894324D01*
X14796724Y-11865752D01*
X14806248Y-11818133D01*
X14806248Y-11780038D01*
X14796724Y-11732419D01*
X14787200Y-11703848D01*
X14777676Y-11684800D01*
X14758628Y-11656228D01*
X14749105Y-11646705D01*
D17*
X9877200Y-11998800D02*
X9977200Y-12098800D01*
X9977200Y-11998800D02*
X9877200Y-12098800D01*
X9977200Y-12048800D02*
G75*
G03*
X9977200Y-12048800I-50000J0D01*
G01*
D11*
X10339581Y-12139276D02*
X10225295Y-12139276D01*
X10282438Y-12139276D02*
X10282438Y-11939276D01*
X10263390Y-11967848D01*
X10244343Y-11986895D01*
X10225295Y-11996419D01*
X10425295Y-12120228D02*
X10434819Y-12129752D01*
X10425295Y-12139276D01*
X10415771Y-12129752D01*
X10425295Y-12120228D01*
X10425295Y-12139276D01*
X10558629Y-11939276D02*
X10577676Y-11939276D01*
X10596724Y-11948800D01*
X10606248Y-11958324D01*
X10615771Y-11977371D01*
X10625295Y-12015467D01*
X10625295Y-12063086D01*
X10615771Y-12101181D01*
X10606248Y-12120228D01*
X10596724Y-12129752D01*
X10577676Y-12139276D01*
X10558629Y-12139276D01*
X10539581Y-12129752D01*
X10530057Y-12120228D01*
X10520533Y-12101181D01*
X10511010Y-12063086D01*
X10511010Y-12015467D01*
X10520533Y-11977371D01*
X10530057Y-11958324D01*
X10539581Y-11948800D01*
X10558629Y-11939276D01*
X10749105Y-11939276D02*
X10768152Y-11939276D01*
X10787200Y-11948800D01*
X10796724Y-11958324D01*
X10806248Y-11977371D01*
X10815771Y-12015467D01*
X10815771Y-12063086D01*
X10806248Y-12101181D01*
X10796724Y-12120228D01*
X10787200Y-12129752D01*
X10768152Y-12139276D01*
X10749105Y-12139276D01*
X10730057Y-12129752D01*
X10720533Y-12120228D01*
X10711010Y-12101181D01*
X10701486Y-12063086D01*
X10701486Y-12015467D01*
X10711010Y-11977371D01*
X10720533Y-11958324D01*
X10730057Y-11948800D01*
X10749105Y-11939276D01*
X10939581Y-11939276D02*
X10958629Y-11939276D01*
X10977676Y-11948800D01*
X10987200Y-11958324D01*
X10996724Y-11977371D01*
X11006248Y-12015467D01*
X11006248Y-12063086D01*
X10996724Y-12101181D01*
X10987200Y-12120228D01*
X10977676Y-12129752D01*
X10958629Y-12139276D01*
X10939581Y-12139276D01*
X10920533Y-12129752D01*
X10911010Y-12120228D01*
X10901486Y-12101181D01*
X10891962Y-12063086D01*
X10891962Y-12015467D01*
X10901486Y-11977371D01*
X10911010Y-11958324D01*
X10920533Y-11948800D01*
X10939581Y-11939276D01*
X11091962Y-12139276D02*
X11091962Y-12005943D01*
X11091962Y-12024990D02*
X11101486Y-12015467D01*
X11120533Y-12005943D01*
X11149105Y-12005943D01*
X11168152Y-12015467D01*
X11177676Y-12034514D01*
X11177676Y-12139276D01*
X11177676Y-12034514D02*
X11187200Y-12015467D01*
X11206248Y-12005943D01*
X11234819Y-12005943D01*
X11253867Y-12015467D01*
X11263390Y-12034514D01*
X11263390Y-12139276D01*
X11358628Y-12139276D02*
X11358628Y-12005943D01*
X11358628Y-12024990D02*
X11368152Y-12015467D01*
X11387200Y-12005943D01*
X11415771Y-12005943D01*
X11434819Y-12015467D01*
X11444343Y-12034514D01*
X11444343Y-12139276D01*
X11444343Y-12034514D02*
X11453867Y-12015467D01*
X11472914Y-12005943D01*
X11501486Y-12005943D01*
X11520533Y-12015467D01*
X11530057Y-12034514D01*
X11530057Y-12139276D01*
X11920533Y-11929752D02*
X11749105Y-12186895D01*
X12177676Y-11939276D02*
X12196724Y-11939276D01*
X12215771Y-11948800D01*
X12225295Y-11958324D01*
X12234819Y-11977371D01*
X12244343Y-12015467D01*
X12244343Y-12063086D01*
X12234819Y-12101181D01*
X12225295Y-12120228D01*
X12215771Y-12129752D01*
X12196724Y-12139276D01*
X12177676Y-12139276D01*
X12158628Y-12129752D01*
X12149105Y-12120228D01*
X12139581Y-12101181D01*
X12130057Y-12063086D01*
X12130057Y-12015467D01*
X12139581Y-11977371D01*
X12149105Y-11958324D01*
X12158628Y-11948800D01*
X12177676Y-11939276D01*
X12330057Y-12120228D02*
X12339581Y-12129752D01*
X12330057Y-12139276D01*
X12320533Y-12129752D01*
X12330057Y-12120228D01*
X12330057Y-12139276D01*
X12463390Y-11939276D02*
X12482438Y-11939276D01*
X12501486Y-11948800D01*
X12511009Y-11958324D01*
X12520533Y-11977371D01*
X12530057Y-12015467D01*
X12530057Y-12063086D01*
X12520533Y-12101181D01*
X12511009Y-12120228D01*
X12501486Y-12129752D01*
X12482438Y-12139276D01*
X12463390Y-12139276D01*
X12444343Y-12129752D01*
X12434819Y-12120228D01*
X12425295Y-12101181D01*
X12415771Y-12063086D01*
X12415771Y-12015467D01*
X12425295Y-11977371D01*
X12434819Y-11958324D01*
X12444343Y-11948800D01*
X12463390Y-11939276D01*
X12596724Y-11939276D02*
X12720533Y-11939276D01*
X12653867Y-12015467D01*
X12682438Y-12015467D01*
X12701486Y-12024990D01*
X12711009Y-12034514D01*
X12720533Y-12053562D01*
X12720533Y-12101181D01*
X12711009Y-12120228D01*
X12701486Y-12129752D01*
X12682438Y-12139276D01*
X12625295Y-12139276D01*
X12606248Y-12129752D01*
X12596724Y-12120228D01*
X12815771Y-12139276D02*
X12853867Y-12139276D01*
X12872914Y-12129752D01*
X12882438Y-12120228D01*
X12901486Y-12091657D01*
X12911009Y-12053562D01*
X12911009Y-11977371D01*
X12901486Y-11958324D01*
X12891962Y-11948800D01*
X12872914Y-11939276D01*
X12834819Y-11939276D01*
X12815771Y-11948800D01*
X12806248Y-11958324D01*
X12796724Y-11977371D01*
X12796724Y-12024990D01*
X12806248Y-12044038D01*
X12815771Y-12053562D01*
X12834819Y-12063086D01*
X12872914Y-12063086D01*
X12891962Y-12053562D01*
X12901486Y-12044038D01*
X12911009Y-12024990D01*
X13082438Y-12005943D02*
X13082438Y-12139276D01*
X13034819Y-11929752D02*
X12987200Y-12072609D01*
X13111009Y-12072609D01*
X13177676Y-11939276D02*
X13177676Y-11977371D01*
X13253867Y-11939276D02*
X13253867Y-11977371D01*
X13549105Y-12215467D02*
X13539581Y-12205943D01*
X13520533Y-12177371D01*
X13511009Y-12158324D01*
X13501486Y-12129752D01*
X13491962Y-12082133D01*
X13491962Y-12044038D01*
X13501486Y-11996419D01*
X13511009Y-11967848D01*
X13520533Y-11948800D01*
X13539581Y-11920228D01*
X13549105Y-11910705D01*
X13634819Y-12139276D02*
X13672914Y-12139276D01*
X13691962Y-12129752D01*
X13701486Y-12120228D01*
X13720533Y-12091657D01*
X13730057Y-12053562D01*
X13730057Y-11977371D01*
X13720533Y-11958324D01*
X13711009Y-11948800D01*
X13691962Y-11939276D01*
X13653867Y-11939276D01*
X13634819Y-11948800D01*
X13625295Y-11958324D01*
X13615771Y-11977371D01*
X13615771Y-12024990D01*
X13625295Y-12044038D01*
X13634819Y-12053562D01*
X13653867Y-12063086D01*
X13691962Y-12063086D01*
X13711009Y-12053562D01*
X13720533Y-12044038D01*
X13730057Y-12024990D01*
X13968152Y-12139276D02*
X13968152Y-11939276D01*
X14053867Y-12139276D02*
X14053867Y-12034514D01*
X14044343Y-12015467D01*
X14025295Y-12005943D01*
X13996724Y-12005943D01*
X13977676Y-12015467D01*
X13968152Y-12024990D01*
X14177676Y-12139276D02*
X14158628Y-12129752D01*
X14149105Y-12120228D01*
X14139581Y-12101181D01*
X14139581Y-12044038D01*
X14149105Y-12024990D01*
X14158628Y-12015467D01*
X14177676Y-12005943D01*
X14206248Y-12005943D01*
X14225295Y-12015467D01*
X14234819Y-12024990D01*
X14244343Y-12044038D01*
X14244343Y-12101181D01*
X14234819Y-12120228D01*
X14225295Y-12129752D01*
X14206248Y-12139276D01*
X14177676Y-12139276D01*
X14358628Y-12139276D02*
X14339581Y-12129752D01*
X14330057Y-12110705D01*
X14330057Y-11939276D01*
X14511009Y-12129752D02*
X14491962Y-12139276D01*
X14453867Y-12139276D01*
X14434819Y-12129752D01*
X14425295Y-12110705D01*
X14425295Y-12034514D01*
X14434819Y-12015467D01*
X14453867Y-12005943D01*
X14491962Y-12005943D01*
X14511009Y-12015467D01*
X14520533Y-12034514D01*
X14520533Y-12053562D01*
X14425295Y-12072609D01*
X14596724Y-12129752D02*
X14615771Y-12139276D01*
X14653867Y-12139276D01*
X14672914Y-12129752D01*
X14682438Y-12110705D01*
X14682438Y-12101181D01*
X14672914Y-12082133D01*
X14653867Y-12072609D01*
X14625295Y-12072609D01*
X14606248Y-12063086D01*
X14596724Y-12044038D01*
X14596724Y-12034514D01*
X14606248Y-12015467D01*
X14625295Y-12005943D01*
X14653867Y-12005943D01*
X14672914Y-12015467D01*
X14749105Y-12215467D02*
X14758628Y-12205943D01*
X14777676Y-12177371D01*
X14787200Y-12158324D01*
X14796724Y-12129752D01*
X14806248Y-12082133D01*
X14806248Y-12044038D01*
X14796724Y-11996419D01*
X14787200Y-11967848D01*
X14777676Y-11948800D01*
X14758628Y-11920228D01*
X14749105Y-11910705D01*
D18*
X9847200Y-12247800D02*
X9977200Y-12377800D01*
X9977200Y-12247800D02*
X9847200Y-12377800D01*
X9912200Y-12247800D02*
X9912200Y-12377800D01*
X9847200Y-12312800D02*
X9977200Y-12312800D01*
D11*
X10339581Y-12403276D02*
X10225295Y-12403276D01*
X10282438Y-12403276D02*
X10282438Y-12203276D01*
X10263390Y-12231848D01*
X10244343Y-12250895D01*
X10225295Y-12260419D01*
X10425295Y-12384228D02*
X10434819Y-12393752D01*
X10425295Y-12403276D01*
X10415771Y-12393752D01*
X10425295Y-12384228D01*
X10425295Y-12403276D01*
X10501486Y-12203276D02*
X10625295Y-12203276D01*
X10558629Y-12279467D01*
X10587200Y-12279467D01*
X10606248Y-12288990D01*
X10615771Y-12298514D01*
X10625295Y-12317562D01*
X10625295Y-12365181D01*
X10615771Y-12384228D01*
X10606248Y-12393752D01*
X10587200Y-12403276D01*
X10530057Y-12403276D01*
X10511010Y-12393752D01*
X10501486Y-12384228D01*
X10749105Y-12203276D02*
X10768152Y-12203276D01*
X10787200Y-12212800D01*
X10796724Y-12222324D01*
X10806248Y-12241371D01*
X10815771Y-12279467D01*
X10815771Y-12327086D01*
X10806248Y-12365181D01*
X10796724Y-12384228D01*
X10787200Y-12393752D01*
X10768152Y-12403276D01*
X10749105Y-12403276D01*
X10730057Y-12393752D01*
X10720533Y-12384228D01*
X10711010Y-12365181D01*
X10701486Y-12327086D01*
X10701486Y-12279467D01*
X10711010Y-12241371D01*
X10720533Y-12222324D01*
X10730057Y-12212800D01*
X10749105Y-12203276D01*
X10939581Y-12203276D02*
X10958629Y-12203276D01*
X10977676Y-12212800D01*
X10987200Y-12222324D01*
X10996724Y-12241371D01*
X11006248Y-12279467D01*
X11006248Y-12327086D01*
X10996724Y-12365181D01*
X10987200Y-12384228D01*
X10977676Y-12393752D01*
X10958629Y-12403276D01*
X10939581Y-12403276D01*
X10920533Y-12393752D01*
X10911010Y-12384228D01*
X10901486Y-12365181D01*
X10891962Y-12327086D01*
X10891962Y-12279467D01*
X10901486Y-12241371D01*
X10911010Y-12222324D01*
X10920533Y-12212800D01*
X10939581Y-12203276D01*
X11091962Y-12403276D02*
X11091962Y-12269943D01*
X11091962Y-12288990D02*
X11101486Y-12279467D01*
X11120533Y-12269943D01*
X11149105Y-12269943D01*
X11168152Y-12279467D01*
X11177676Y-12298514D01*
X11177676Y-12403276D01*
X11177676Y-12298514D02*
X11187200Y-12279467D01*
X11206248Y-12269943D01*
X11234819Y-12269943D01*
X11253867Y-12279467D01*
X11263390Y-12298514D01*
X11263390Y-12403276D01*
X11358628Y-12403276D02*
X11358628Y-12269943D01*
X11358628Y-12288990D02*
X11368152Y-12279467D01*
X11387200Y-12269943D01*
X11415771Y-12269943D01*
X11434819Y-12279467D01*
X11444343Y-12298514D01*
X11444343Y-12403276D01*
X11444343Y-12298514D02*
X11453867Y-12279467D01*
X11472914Y-12269943D01*
X11501486Y-12269943D01*
X11520533Y-12279467D01*
X11530057Y-12298514D01*
X11530057Y-12403276D01*
X11920533Y-12193752D02*
X11749105Y-12450895D01*
X12177676Y-12203276D02*
X12196724Y-12203276D01*
X12215771Y-12212800D01*
X12225295Y-12222324D01*
X12234819Y-12241371D01*
X12244343Y-12279467D01*
X12244343Y-12327086D01*
X12234819Y-12365181D01*
X12225295Y-12384228D01*
X12215771Y-12393752D01*
X12196724Y-12403276D01*
X12177676Y-12403276D01*
X12158628Y-12393752D01*
X12149105Y-12384228D01*
X12139581Y-12365181D01*
X12130057Y-12327086D01*
X12130057Y-12279467D01*
X12139581Y-12241371D01*
X12149105Y-12222324D01*
X12158628Y-12212800D01*
X12177676Y-12203276D01*
X12330057Y-12384228D02*
X12339581Y-12393752D01*
X12330057Y-12403276D01*
X12320533Y-12393752D01*
X12330057Y-12384228D01*
X12330057Y-12403276D01*
X12463390Y-12203276D02*
X12482438Y-12203276D01*
X12501486Y-12212800D01*
X12511009Y-12222324D01*
X12520533Y-12241371D01*
X12530057Y-12279467D01*
X12530057Y-12327086D01*
X12520533Y-12365181D01*
X12511009Y-12384228D01*
X12501486Y-12393752D01*
X12482438Y-12403276D01*
X12463390Y-12403276D01*
X12444343Y-12393752D01*
X12434819Y-12384228D01*
X12425295Y-12365181D01*
X12415771Y-12327086D01*
X12415771Y-12279467D01*
X12425295Y-12241371D01*
X12434819Y-12222324D01*
X12444343Y-12212800D01*
X12463390Y-12203276D01*
X12711009Y-12203276D02*
X12615771Y-12203276D01*
X12606248Y-12298514D01*
X12615771Y-12288990D01*
X12634819Y-12279467D01*
X12682438Y-12279467D01*
X12701486Y-12288990D01*
X12711009Y-12298514D01*
X12720533Y-12317562D01*
X12720533Y-12365181D01*
X12711009Y-12384228D01*
X12701486Y-12393752D01*
X12682438Y-12403276D01*
X12634819Y-12403276D01*
X12615771Y-12393752D01*
X12606248Y-12384228D01*
X12911009Y-12403276D02*
X12796724Y-12403276D01*
X12853867Y-12403276D02*
X12853867Y-12203276D01*
X12834819Y-12231848D01*
X12815771Y-12250895D01*
X12796724Y-12260419D01*
X12987200Y-12222324D02*
X12996724Y-12212800D01*
X13015771Y-12203276D01*
X13063390Y-12203276D01*
X13082438Y-12212800D01*
X13091962Y-12222324D01*
X13101486Y-12241371D01*
X13101486Y-12260419D01*
X13091962Y-12288990D01*
X12977676Y-12403276D01*
X13101486Y-12403276D01*
X13177676Y-12203276D02*
X13177676Y-12241371D01*
X13253867Y-12203276D02*
X13253867Y-12241371D01*
X13549105Y-12479467D02*
X13539581Y-12469943D01*
X13520533Y-12441371D01*
X13511009Y-12422324D01*
X13501486Y-12393752D01*
X13491962Y-12346133D01*
X13491962Y-12308038D01*
X13501486Y-12260419D01*
X13511009Y-12231848D01*
X13520533Y-12212800D01*
X13539581Y-12184228D01*
X13549105Y-12174705D01*
X13606248Y-12203276D02*
X13730057Y-12203276D01*
X13663390Y-12279467D01*
X13691962Y-12279467D01*
X13711009Y-12288990D01*
X13720533Y-12298514D01*
X13730057Y-12317562D01*
X13730057Y-12365181D01*
X13720533Y-12384228D01*
X13711009Y-12393752D01*
X13691962Y-12403276D01*
X13634819Y-12403276D01*
X13615771Y-12393752D01*
X13606248Y-12384228D01*
X13968152Y-12403276D02*
X13968152Y-12203276D01*
X14053867Y-12403276D02*
X14053867Y-12298514D01*
X14044343Y-12279467D01*
X14025295Y-12269943D01*
X13996724Y-12269943D01*
X13977676Y-12279467D01*
X13968152Y-12288990D01*
X14177676Y-12403276D02*
X14158628Y-12393752D01*
X14149105Y-12384228D01*
X14139581Y-12365181D01*
X14139581Y-12308038D01*
X14149105Y-12288990D01*
X14158628Y-12279467D01*
X14177676Y-12269943D01*
X14206248Y-12269943D01*
X14225295Y-12279467D01*
X14234819Y-12288990D01*
X14244343Y-12308038D01*
X14244343Y-12365181D01*
X14234819Y-12384228D01*
X14225295Y-12393752D01*
X14206248Y-12403276D01*
X14177676Y-12403276D01*
X14358628Y-12403276D02*
X14339581Y-12393752D01*
X14330057Y-12374705D01*
X14330057Y-12203276D01*
X14511009Y-12393752D02*
X14491962Y-12403276D01*
X14453867Y-12403276D01*
X14434819Y-12393752D01*
X14425295Y-12374705D01*
X14425295Y-12298514D01*
X14434819Y-12279467D01*
X14453867Y-12269943D01*
X14491962Y-12269943D01*
X14511009Y-12279467D01*
X14520533Y-12298514D01*
X14520533Y-12317562D01*
X14425295Y-12336609D01*
X14596724Y-12393752D02*
X14615771Y-12403276D01*
X14653867Y-12403276D01*
X14672914Y-12393752D01*
X14682438Y-12374705D01*
X14682438Y-12365181D01*
X14672914Y-12346133D01*
X14653867Y-12336609D01*
X14625295Y-12336609D01*
X14606248Y-12327086D01*
X14596724Y-12308038D01*
X14596724Y-12298514D01*
X14606248Y-12279467D01*
X14625295Y-12269943D01*
X14653867Y-12269943D01*
X14672914Y-12279467D01*
X14749105Y-12479467D02*
X14758628Y-12469943D01*
X14777676Y-12441371D01*
X14787200Y-12422324D01*
X14796724Y-12393752D01*
X14806248Y-12346133D01*
X14806248Y-12308038D01*
X14796724Y-12260419D01*
X14787200Y-12231848D01*
X14777676Y-12212800D01*
X14758628Y-12184228D01*
X14749105Y-12174705D01*
M02*
