G04 #@! TF.GenerationSoftware,KiCad,Pcbnew,7.0.11+dfsg-1build4*
G04 #@! TF.CreationDate,2026-01-25T21:38:33-05:00*
G04 #@! TF.ProjectId,Envelope-01-mutronv,456e7665-6c6f-4706-952d-30312d6d7574,rev?*
G04 #@! TF.SameCoordinates,Original*
G04 #@! TF.FileFunction,Copper,L2,Bot*
G04 #@! TF.FilePolarity,Positive*
%FSLAX46Y46*%
G04 Gerber Fmt 4.6, Leading zero omitted, Abs format (unit mm)*
G04 Created by KiCad (PCBNEW 7.0.11+dfsg-1build4) date 2026-01-25 21:38:33*
%MOMM*%
%LPD*%
G01*
G04 APERTURE LIST*
G04 #@! TA.AperFunction,ComponentPad*
%ADD10C,1.600000*%
G04 #@! TD*
G04 #@! TA.AperFunction,ComponentPad*
%ADD11R,2.000000X2.000000*%
G04 #@! TD*
G04 #@! TA.AperFunction,ComponentPad*
%ADD12C,2.000000*%
G04 #@! TD*
G04 #@! TA.AperFunction,ComponentPad*
%ADD13R,1.200000X1.200000*%
G04 #@! TD*
G04 #@! TA.AperFunction,ComponentPad*
%ADD14C,1.200000*%
G04 #@! TD*
G04 #@! TA.AperFunction,ComponentPad*
%ADD15R,1.800000X1.800000*%
G04 #@! TD*
G04 #@! TA.AperFunction,ComponentPad*
%ADD16O,1.800000X1.800000*%
G04 #@! TD*
G04 #@! TA.AperFunction,ComponentPad*
%ADD17R,1.700000X1.700000*%
G04 #@! TD*
G04 #@! TA.AperFunction,ComponentPad*
%ADD18O,1.700000X1.700000*%
G04 #@! TD*
G04 #@! TA.AperFunction,ComponentPad*
%ADD19R,1.300000X1.300000*%
G04 #@! TD*
G04 #@! TA.AperFunction,ComponentPad*
%ADD20C,1.300000*%
G04 #@! TD*
G04 #@! TA.AperFunction,ComponentPad*
%ADD21O,1.600000X1.600000*%
G04 #@! TD*
G04 #@! TA.AperFunction,ComponentPad*
%ADD22C,2.340000*%
G04 #@! TD*
G04 #@! TA.AperFunction,ComponentPad*
%ADD23R,1.600000X1.600000*%
G04 #@! TD*
G04 #@! TA.AperFunction,ViaPad*
%ADD24C,0.800000*%
G04 #@! TD*
G04 #@! TA.AperFunction,Conductor*
%ADD25C,0.250000*%
G04 #@! TD*
G04 APERTURE END LIST*
D10*
X133858000Y-79248000D03*
X132608000Y-79248000D03*
X130108000Y-79248000D03*
X128858000Y-79248000D03*
D11*
X138938000Y-94488000D03*
D12*
X133938000Y-94488000D03*
D10*
X115316000Y-56896000D03*
X110316000Y-56896000D03*
D11*
X138938000Y-70104000D03*
D12*
X133938000Y-70104000D03*
D13*
X108966000Y-62992000D03*
D14*
X106966000Y-62992000D03*
D10*
X114066000Y-73406000D03*
X115316000Y-73406000D03*
X110316000Y-73406000D03*
X111566000Y-73406000D03*
X103612000Y-56896000D03*
X102362000Y-56896000D03*
X107362000Y-56896000D03*
X106112000Y-56896000D03*
X105938000Y-73406000D03*
X107188000Y-73406000D03*
X102188000Y-73406000D03*
X103438000Y-73406000D03*
D13*
X104140000Y-62738000D03*
D14*
X102140000Y-62738000D03*
D10*
X118384000Y-84328000D03*
X119634000Y-84328000D03*
X115884000Y-84328000D03*
X114634000Y-84328000D03*
X108224000Y-97282000D03*
X109474000Y-97282000D03*
X105724000Y-97282000D03*
X104474000Y-97282000D03*
X119634000Y-88646000D03*
X118384000Y-88646000D03*
X114634000Y-88646000D03*
X115884000Y-88646000D03*
D14*
X117570000Y-78740000D03*
D13*
X115570000Y-78740000D03*
D15*
X127000000Y-56896000D03*
D16*
X119380000Y-56896000D03*
D15*
X119126000Y-61214000D03*
D16*
X126746000Y-61214000D03*
D17*
X129286000Y-98806000D03*
D18*
X126746000Y-98806000D03*
X124206000Y-98806000D03*
X121666000Y-98806000D03*
X119126000Y-98806000D03*
D19*
X124968000Y-79248000D03*
D20*
X123698000Y-80518000D03*
X122428000Y-79248000D03*
D19*
X135890000Y-57150000D03*
D20*
X137160000Y-55880000D03*
X138430000Y-57150000D03*
D10*
X127762000Y-83566000D03*
D21*
X137922000Y-83566000D03*
D10*
X152908000Y-55626000D03*
D21*
X142748000Y-55626000D03*
D10*
X152908000Y-98044000D03*
D21*
X142748000Y-98044000D03*
D10*
X103886000Y-68834000D03*
D21*
X114046000Y-68834000D03*
D10*
X129032000Y-69596000D03*
D21*
X118872000Y-69596000D03*
D10*
X130302000Y-73660000D03*
D21*
X120142000Y-73660000D03*
D10*
X128524000Y-65786000D03*
D21*
X118364000Y-65786000D03*
D10*
X139700000Y-61722000D03*
D21*
X129540000Y-61722000D03*
D10*
X152908000Y-62230000D03*
D21*
X142748000Y-62230000D03*
D10*
X111760000Y-93472000D03*
D21*
X101600000Y-93472000D03*
D10*
X152908000Y-52324000D03*
D21*
X142748000Y-52324000D03*
D10*
X152908000Y-93980000D03*
D21*
X142748000Y-93980000D03*
D10*
X124460000Y-93472000D03*
D21*
X114300000Y-93472000D03*
D10*
X112014000Y-77724000D03*
D21*
X101854000Y-77724000D03*
D10*
X138176000Y-87122000D03*
D21*
X128016000Y-87122000D03*
D22*
X133096000Y-52324000D03*
X128096000Y-52324000D03*
X123096000Y-52324000D03*
D23*
X103124000Y-81788000D03*
D21*
X103124000Y-84328000D03*
X103124000Y-86868000D03*
X103124000Y-89408000D03*
X110744000Y-89408000D03*
X110744000Y-86868000D03*
X110744000Y-84328000D03*
X110744000Y-81788000D03*
D23*
X144272000Y-70104000D03*
D21*
X144272000Y-72644000D03*
X144272000Y-75184000D03*
X144272000Y-77724000D03*
X144272000Y-80264000D03*
X144272000Y-82804000D03*
X144272000Y-85344000D03*
X144272000Y-87884000D03*
X151892000Y-87884000D03*
X151892000Y-85344000D03*
X151892000Y-82804000D03*
X151892000Y-80264000D03*
X151892000Y-77724000D03*
X151892000Y-75184000D03*
X151892000Y-72644000D03*
X151892000Y-70104000D03*
D10*
X152908000Y-58928000D03*
D21*
X142748000Y-58928000D03*
D10*
X152654000Y-65532000D03*
D21*
X142494000Y-65532000D03*
D10*
X112522000Y-52832000D03*
D21*
X102362000Y-52832000D03*
D19*
X115062000Y-62738000D03*
D20*
X113792000Y-64008000D03*
X112522000Y-62738000D03*
D24*
X108712000Y-52578000D03*
D25*
X109190999Y-80234999D02*
X109190999Y-66069001D01*
X111219999Y-94597001D02*
X106426000Y-89803002D01*
X142748000Y-91948000D02*
X142748000Y-93980000D01*
X122118999Y-95813001D02*
X139116999Y-95813001D01*
X139116999Y-95813001D02*
X139192000Y-95738000D01*
X142494000Y-65532000D02*
X143625370Y-65532000D01*
X151892000Y-82804000D02*
X142748000Y-91948000D01*
X106426000Y-86106000D02*
X110744000Y-81788000D01*
X150114000Y-72020630D02*
X150114000Y-81026000D01*
X143625370Y-65532000D02*
X150114000Y-72020630D01*
X110744000Y-81788000D02*
X109190999Y-80234999D01*
X110744000Y-81788000D02*
X119888000Y-81788000D01*
X139192000Y-95738000D02*
X139192000Y-94488000D01*
X119888000Y-81788000D02*
X122428000Y-79248000D01*
X109190999Y-66069001D02*
X111872001Y-63387999D01*
X114917001Y-94597001D02*
X111219999Y-94597001D01*
X119126000Y-98806000D02*
X122118999Y-95813001D01*
X119126000Y-98806000D02*
X114917001Y-94597001D01*
X111872001Y-63387999D02*
X112522000Y-62738000D01*
X106426000Y-89803002D02*
X106426000Y-86106000D01*
X150114000Y-81026000D02*
X151892000Y-82804000D01*
X115962000Y-62738000D02*
X115062000Y-62738000D01*
X104990000Y-62738000D02*
X104140000Y-62738000D01*
X117238999Y-64014999D02*
X115962000Y-62738000D01*
X124968000Y-73660000D02*
X129032000Y-69596000D01*
X105011001Y-62759001D02*
X104990000Y-62738000D01*
X105011001Y-69374001D02*
X105011001Y-62759001D01*
X117238999Y-70756999D02*
X117238999Y-64014999D01*
X104563001Y-85428999D02*
X104563001Y-69822001D01*
X103124000Y-86868000D02*
X104563001Y-85428999D01*
X120142000Y-73660000D02*
X124968000Y-73660000D01*
X120142000Y-73660000D02*
X117238999Y-70756999D01*
X104563001Y-69822001D02*
X105011001Y-69374001D01*
X143002000Y-55626000D02*
X142748000Y-55626000D01*
X141616630Y-55626000D02*
X140895629Y-54904999D01*
X140895629Y-54904999D02*
X117307001Y-54904999D01*
X117307001Y-54904999D02*
X116115999Y-56096001D01*
X142748000Y-55626000D02*
X141616630Y-55626000D01*
X116115999Y-56096001D02*
X115316000Y-56896000D01*
X124968000Y-78348000D02*
X124968000Y-79248000D01*
X112945001Y-74785001D02*
X121405001Y-74785001D01*
X114046000Y-70926000D02*
X114046000Y-68834000D01*
X121405001Y-74785001D02*
X124968000Y-78348000D01*
X111566000Y-73406000D02*
X112945001Y-74785001D01*
X111566000Y-73406000D02*
X114046000Y-70926000D01*
X129540000Y-63291002D02*
X129540000Y-62853370D01*
X118872000Y-69596000D02*
X121666000Y-69596000D01*
X140632999Y-74384001D02*
X129540000Y-63291002D01*
X129540000Y-62853370D02*
X129540000Y-61722000D01*
X143472001Y-74384001D02*
X140632999Y-74384001D01*
X121666000Y-69596000D02*
X129540000Y-61722000D01*
X144272000Y-75184000D02*
X143472001Y-74384001D01*
X141622999Y-94642003D02*
X141622999Y-82913001D01*
X101562001Y-57695999D02*
X102362000Y-56896000D01*
X144526000Y-80264000D02*
X144272000Y-80264000D01*
X102979001Y-79747997D02*
X101998999Y-80727999D01*
X118561999Y-99981001D02*
X136284001Y-99981001D01*
X143472001Y-81063999D02*
X144272000Y-80264000D01*
X102188000Y-73406000D02*
X102188000Y-74537370D01*
X102188000Y-72274630D02*
X101214999Y-71301629D01*
X112014000Y-77724000D02*
X112268000Y-77724000D01*
X101214999Y-58043001D02*
X101562001Y-57695999D01*
X102188000Y-73406000D02*
X102188000Y-72274630D01*
X114737997Y-96156999D02*
X118561999Y-99981001D01*
X101998999Y-89948001D02*
X108207997Y-96156999D01*
X101998999Y-80727999D02*
X101998999Y-89948001D01*
X136284001Y-99981001D02*
X141622999Y-94642003D01*
X108207997Y-96156999D02*
X114737997Y-96156999D01*
X141622999Y-82913001D02*
X143472001Y-81063999D01*
X101214999Y-71301629D02*
X101214999Y-58043001D01*
X102979001Y-75328371D02*
X102979001Y-79747997D01*
X102188000Y-74537370D02*
X102979001Y-75328371D01*
X102140000Y-62738000D02*
X105696000Y-59182000D01*
X105696000Y-59182000D02*
X130810000Y-59182000D01*
X134112000Y-55880000D02*
X137160000Y-55880000D01*
X130810000Y-59182000D02*
X134112000Y-55880000D01*
X111869001Y-85453001D02*
X129318001Y-85453001D01*
X129244003Y-67776003D02*
X124122407Y-67776003D01*
X117746999Y-68068003D02*
X119489001Y-66326001D01*
X129649001Y-67776003D02*
X129244003Y-67776003D01*
X124122407Y-67776003D02*
X121177409Y-70721001D01*
X134983000Y-76675998D02*
X134983000Y-79756000D01*
X119489001Y-62727001D02*
X119126000Y-62364000D01*
X131121990Y-72814988D02*
X134983000Y-76675998D01*
X119126000Y-62364000D02*
X119126000Y-61214000D01*
X119489001Y-66326001D02*
X119489001Y-62727001D01*
X121177409Y-70721001D02*
X118331999Y-70721001D01*
X131121990Y-69145990D02*
X131121990Y-72814988D01*
X129318001Y-85453001D02*
X134983001Y-79788001D01*
X118331999Y-70721001D02*
X117746999Y-70136001D01*
X129244003Y-67776003D02*
X129752003Y-67776003D01*
X110744000Y-84328000D02*
X111869001Y-85453001D01*
X129752003Y-67776003D02*
X131121990Y-69145990D01*
X110744000Y-84328000D02*
X110744000Y-84074000D01*
X117746999Y-70136001D02*
X117746999Y-68068003D01*
X129504402Y-85903010D02*
X135433010Y-79974402D01*
X131572000Y-69699002D02*
X131572000Y-68834000D01*
X111708990Y-85903010D02*
X129504402Y-85903010D01*
X135433010Y-79974402D02*
X135433010Y-73560012D01*
X110744000Y-86868000D02*
X111708990Y-85903010D01*
X131572000Y-68834000D02*
X128524000Y-65786000D01*
X135433010Y-73560012D02*
X131572000Y-69699002D01*
X116186999Y-59727999D02*
X141948001Y-59727999D01*
X152908000Y-98044000D02*
X151782999Y-96918999D01*
X113792000Y-64008000D02*
X113792000Y-62122998D01*
X151782999Y-89658003D02*
X153017001Y-88424001D01*
X113792000Y-62122998D02*
X116186999Y-59727999D01*
X141948001Y-59727999D02*
X142748000Y-58928000D01*
X143547999Y-59727999D02*
X142748000Y-58928000D01*
X153017001Y-69197001D02*
X143547999Y-59727999D01*
X151782999Y-96918999D02*
X151782999Y-89658003D01*
X153017001Y-88424001D02*
X153017001Y-69197001D01*
X153707999Y-66585999D02*
X153453999Y-66331999D01*
X153707999Y-93180001D02*
X153707999Y-66585999D01*
X153453999Y-66331999D02*
X152654000Y-65532000D01*
X152908000Y-93980000D02*
X153707999Y-93180001D01*
X144272000Y-57150000D02*
X138430000Y-57150000D01*
X152654000Y-65532000D02*
X144272000Y-57150000D01*
X124536200Y-54102000D02*
X123096000Y-52661800D01*
X123096000Y-52661800D02*
X123096000Y-52324000D01*
X152908000Y-62230000D02*
X151536400Y-62230000D01*
X143408400Y-54102000D02*
X124536200Y-54102000D01*
X151536400Y-62230000D02*
X143408400Y-54102000D01*
G04 #@! TA.AperFunction,Conductor*
G36*
X154120252Y-50007338D02*
G01*
X154166871Y-50060884D01*
X154178379Y-50113115D01*
X154182450Y-51462804D01*
X154162654Y-51530985D01*
X154109139Y-51577639D01*
X154038896Y-51587955D01*
X153974226Y-51558657D01*
X153953238Y-51535454D01*
X153914204Y-51479708D01*
X153914200Y-51479703D01*
X153914198Y-51479700D01*
X153752300Y-51317802D01*
X153564749Y-51186477D01*
X153548978Y-51179123D01*
X153357246Y-51089717D01*
X153357240Y-51089715D01*
X153263771Y-51064670D01*
X153136087Y-51030457D01*
X152908000Y-51010502D01*
X152679913Y-51030457D01*
X152458759Y-51089715D01*
X152458753Y-51089717D01*
X152251250Y-51186477D01*
X152063703Y-51317799D01*
X152063697Y-51317804D01*
X151901804Y-51479697D01*
X151901799Y-51479703D01*
X151770477Y-51667250D01*
X151673717Y-51874753D01*
X151673715Y-51874759D01*
X151643453Y-51987700D01*
X151614457Y-52095913D01*
X151594502Y-52324000D01*
X151614457Y-52552087D01*
X151620563Y-52574873D01*
X151673715Y-52773240D01*
X151673717Y-52773246D01*
X151770477Y-52980749D01*
X151877897Y-53134161D01*
X151901802Y-53168300D01*
X152063700Y-53330198D01*
X152251251Y-53461523D01*
X152458757Y-53558284D01*
X152679913Y-53617543D01*
X152908000Y-53637498D01*
X153136087Y-53617543D01*
X153357243Y-53558284D01*
X153564749Y-53461523D01*
X153752300Y-53330198D01*
X153914198Y-53168300D01*
X153958411Y-53105157D01*
X154013866Y-53060830D01*
X154084486Y-53053521D01*
X154147846Y-53085551D01*
X154183832Y-53146752D01*
X154187622Y-53177049D01*
X154192454Y-54779091D01*
X154172658Y-54847272D01*
X154119143Y-54893926D01*
X154048900Y-54904242D01*
X153984230Y-54874944D01*
X153963242Y-54851742D01*
X153914200Y-54781703D01*
X153914195Y-54781697D01*
X153752302Y-54619804D01*
X153752296Y-54619799D01*
X153564749Y-54488477D01*
X153357246Y-54391717D01*
X153357240Y-54391715D01*
X153263771Y-54366670D01*
X153136087Y-54332457D01*
X152908000Y-54312502D01*
X152679913Y-54332457D01*
X152458759Y-54391715D01*
X152458753Y-54391717D01*
X152251250Y-54488477D01*
X152063703Y-54619799D01*
X152063697Y-54619804D01*
X151901804Y-54781697D01*
X151901799Y-54781703D01*
X151770477Y-54969250D01*
X151673717Y-55176753D01*
X151673716Y-55176757D01*
X151614457Y-55397913D01*
X151594502Y-55626000D01*
X151614457Y-55854087D01*
X151645917Y-55971498D01*
X151673715Y-56075240D01*
X151673717Y-56075246D01*
X151770477Y-56282749D01*
X151899093Y-56466432D01*
X151901802Y-56470300D01*
X152063700Y-56632198D01*
X152251251Y-56763523D01*
X152458757Y-56860284D01*
X152679913Y-56919543D01*
X152908000Y-56939498D01*
X153136087Y-56919543D01*
X153357243Y-56860284D01*
X153564749Y-56763523D01*
X153752300Y-56632198D01*
X153914198Y-56470300D01*
X153968328Y-56392994D01*
X154023783Y-56348667D01*
X154094403Y-56341358D01*
X154157763Y-56373388D01*
X154193749Y-56434589D01*
X154197539Y-56464886D01*
X154202460Y-58096253D01*
X154182664Y-58164434D01*
X154129149Y-58211088D01*
X154058906Y-58221404D01*
X154015926Y-58201932D01*
X153995098Y-58200110D01*
X153306727Y-58888481D01*
X153293165Y-58802852D01*
X153235641Y-58689955D01*
X153146045Y-58600359D01*
X153033148Y-58542835D01*
X152947517Y-58529272D01*
X153635888Y-57840899D01*
X153635888Y-57840898D01*
X153564501Y-57790913D01*
X153357073Y-57694188D01*
X153357068Y-57694186D01*
X153136000Y-57634951D01*
X153136004Y-57634951D01*
X152908000Y-57615004D01*
X152679997Y-57634951D01*
X152458931Y-57694186D01*
X152458926Y-57694188D01*
X152251500Y-57790913D01*
X152180109Y-57840900D01*
X152868481Y-58529272D01*
X152782852Y-58542835D01*
X152669955Y-58600359D01*
X152580359Y-58689955D01*
X152522835Y-58802852D01*
X152509272Y-58888481D01*
X151820900Y-58200109D01*
X151770913Y-58271500D01*
X151674188Y-58478926D01*
X151674186Y-58478931D01*
X151614951Y-58699997D01*
X151595004Y-58928000D01*
X151614951Y-59156002D01*
X151674186Y-59377068D01*
X151674188Y-59377073D01*
X151770913Y-59584501D01*
X151820899Y-59655888D01*
X152509272Y-58967516D01*
X152522835Y-59053148D01*
X152580359Y-59166045D01*
X152669955Y-59255641D01*
X152782852Y-59313165D01*
X152868482Y-59326727D01*
X152180110Y-60015098D01*
X152180110Y-60015100D01*
X152251498Y-60065086D01*
X152458926Y-60161811D01*
X152458931Y-60161813D01*
X152679999Y-60221048D01*
X152679995Y-60221048D01*
X152908000Y-60240995D01*
X153136002Y-60221048D01*
X153357068Y-60161813D01*
X153357073Y-60161811D01*
X153564497Y-60065088D01*
X153635888Y-60015099D01*
X153635888Y-60015097D01*
X152947518Y-59326727D01*
X153033148Y-59313165D01*
X153146045Y-59255641D01*
X153235641Y-59166045D01*
X153293165Y-59053148D01*
X153306727Y-58967518D01*
X153995097Y-59655888D01*
X154009987Y-59654586D01*
X154033696Y-59635634D01*
X154104315Y-59628323D01*
X154167676Y-59660352D01*
X154203663Y-59721553D01*
X154207454Y-59751852D01*
X154212461Y-61411664D01*
X154192665Y-61479845D01*
X154139150Y-61526499D01*
X154068907Y-61536815D01*
X154004237Y-61507517D01*
X153983249Y-61484315D01*
X153971030Y-61466865D01*
X153914198Y-61385700D01*
X153752300Y-61223802D01*
X153738301Y-61214000D01*
X153564749Y-61092477D01*
X153357246Y-60995717D01*
X153357240Y-60995715D01*
X153263771Y-60970670D01*
X153136087Y-60936457D01*
X152908000Y-60916502D01*
X152679913Y-60936457D01*
X152458759Y-60995715D01*
X152458753Y-60995717D01*
X152251250Y-61092477D01*
X152063703Y-61223799D01*
X151901800Y-61385701D01*
X151858695Y-61447261D01*
X151803238Y-61491589D01*
X151732618Y-61498897D01*
X151669258Y-61466865D01*
X151666388Y-61464084D01*
X147837741Y-57635437D01*
X143915644Y-53713339D01*
X143905679Y-53700901D01*
X143905452Y-53701090D01*
X143900401Y-53694984D01*
X143900400Y-53694982D01*
X143850748Y-53648356D01*
X143847905Y-53645600D01*
X143828177Y-53625871D01*
X143828171Y-53625866D01*
X143824967Y-53623380D01*
X143815956Y-53615683D01*
X143783725Y-53585417D01*
X143783719Y-53585413D01*
X143765963Y-53575651D01*
X143749447Y-53564802D01*
X143733441Y-53552386D01*
X143692864Y-53534827D01*
X143682205Y-53529605D01*
X143642580Y-53507821D01*
X143592521Y-53457475D01*
X143577628Y-53388058D01*
X143602629Y-53321609D01*
X143614172Y-53308325D01*
X143754198Y-53168300D01*
X143885523Y-52980749D01*
X143982284Y-52773243D01*
X144041543Y-52552087D01*
X144061498Y-52324000D01*
X144041543Y-52095913D01*
X143982284Y-51874757D01*
X143885523Y-51667251D01*
X143754198Y-51479700D01*
X143592300Y-51317802D01*
X143404749Y-51186477D01*
X143388978Y-51179123D01*
X143197246Y-51089717D01*
X143197240Y-51089715D01*
X143103771Y-51064670D01*
X142976087Y-51030457D01*
X142748000Y-51010502D01*
X142519913Y-51030457D01*
X142298759Y-51089715D01*
X142298753Y-51089717D01*
X142091250Y-51186477D01*
X141903703Y-51317799D01*
X141903697Y-51317804D01*
X141741804Y-51479697D01*
X141741799Y-51479703D01*
X141610477Y-51667250D01*
X141513717Y-51874753D01*
X141513715Y-51874759D01*
X141483453Y-51987700D01*
X141454457Y-52095913D01*
X141434502Y-52324000D01*
X141454457Y-52552087D01*
X141460563Y-52574873D01*
X141513715Y-52773240D01*
X141513717Y-52773246D01*
X141610477Y-52980749D01*
X141741799Y-53168296D01*
X141741804Y-53168302D01*
X141826907Y-53253405D01*
X141860933Y-53315717D01*
X141855868Y-53386532D01*
X141813321Y-53443368D01*
X141746801Y-53468179D01*
X141737812Y-53468500D01*
X134591289Y-53468500D01*
X134523168Y-53448498D01*
X134476675Y-53394842D01*
X134466571Y-53324568D01*
X134485161Y-53276721D01*
X134484374Y-53276267D01*
X134523212Y-53208995D01*
X134612517Y-53054316D01*
X134704427Y-52820134D01*
X134760407Y-52574869D01*
X134779207Y-52324000D01*
X134760407Y-52073131D01*
X134704427Y-51827866D01*
X134661320Y-51718033D01*
X134612520Y-51593690D01*
X134612518Y-51593686D01*
X134486733Y-51375819D01*
X134440466Y-51317802D01*
X134329878Y-51179128D01*
X134329877Y-51179127D01*
X134329874Y-51179123D01*
X134145467Y-51008021D01*
X134145461Y-51008015D01*
X134076176Y-50960777D01*
X133937606Y-50866301D01*
X133710949Y-50757148D01*
X133710936Y-50757143D01*
X133470559Y-50682997D01*
X133470551Y-50682995D01*
X133470549Y-50682995D01*
X133221786Y-50645500D01*
X132970214Y-50645500D01*
X132721451Y-50682995D01*
X132721449Y-50682995D01*
X132721440Y-50682997D01*
X132481063Y-50757143D01*
X132481051Y-50757148D01*
X132254394Y-50866301D01*
X132254387Y-50866305D01*
X132046544Y-51008011D01*
X132046532Y-51008021D01*
X131862125Y-51179123D01*
X131705266Y-51375819D01*
X131579481Y-51593686D01*
X131579479Y-51593690D01*
X131487571Y-51827870D01*
X131451092Y-51987700D01*
X131431593Y-52073131D01*
X131412793Y-52324000D01*
X131431593Y-52574869D01*
X131431594Y-52574873D01*
X131487571Y-52820129D01*
X131579479Y-53054309D01*
X131579481Y-53054313D01*
X131707626Y-53276267D01*
X131706553Y-53276886D01*
X131726665Y-53339079D01*
X131708519Y-53407718D01*
X131656146Y-53455650D01*
X131600711Y-53468500D01*
X129591289Y-53468500D01*
X129523168Y-53448498D01*
X129476675Y-53394842D01*
X129466571Y-53324568D01*
X129485161Y-53276721D01*
X129484374Y-53276267D01*
X129523212Y-53208995D01*
X129612517Y-53054316D01*
X129704427Y-52820134D01*
X129760407Y-52574869D01*
X129779207Y-52324000D01*
X129760407Y-52073131D01*
X129704427Y-51827866D01*
X129661320Y-51718033D01*
X129612520Y-51593690D01*
X129612518Y-51593686D01*
X129486733Y-51375819D01*
X129440466Y-51317802D01*
X129329878Y-51179128D01*
X129329877Y-51179127D01*
X129329874Y-51179123D01*
X129145467Y-51008021D01*
X129145461Y-51008015D01*
X129076176Y-50960777D01*
X128937606Y-50866301D01*
X128710949Y-50757148D01*
X128710936Y-50757143D01*
X128470559Y-50682997D01*
X128470551Y-50682995D01*
X128470549Y-50682995D01*
X128221786Y-50645500D01*
X127970214Y-50645500D01*
X127721451Y-50682995D01*
X127721449Y-50682995D01*
X127721440Y-50682997D01*
X127481063Y-50757143D01*
X127481051Y-50757148D01*
X127254394Y-50866301D01*
X127254387Y-50866305D01*
X127046544Y-51008011D01*
X127046532Y-51008021D01*
X126862125Y-51179123D01*
X126705266Y-51375819D01*
X126579481Y-51593686D01*
X126579479Y-51593690D01*
X126487571Y-51827870D01*
X126451092Y-51987700D01*
X126431593Y-52073131D01*
X126412793Y-52324000D01*
X126431593Y-52574869D01*
X126431594Y-52574873D01*
X126487571Y-52820129D01*
X126579479Y-53054309D01*
X126579481Y-53054313D01*
X126707626Y-53276267D01*
X126706553Y-53276886D01*
X126726665Y-53339079D01*
X126708519Y-53407718D01*
X126656146Y-53455650D01*
X126600711Y-53468500D01*
X124850795Y-53468500D01*
X124782674Y-53448498D01*
X124761700Y-53431595D01*
X124597393Y-53267288D01*
X124563367Y-53204976D01*
X124568432Y-53134161D01*
X124577366Y-53115198D01*
X124612517Y-53054316D01*
X124704427Y-52820134D01*
X124760407Y-52574869D01*
X124779207Y-52324000D01*
X124760407Y-52073131D01*
X124704427Y-51827866D01*
X124661320Y-51718033D01*
X124612520Y-51593690D01*
X124612518Y-51593686D01*
X124486733Y-51375819D01*
X124440466Y-51317802D01*
X124329878Y-51179128D01*
X124329877Y-51179127D01*
X124329874Y-51179123D01*
X124145467Y-51008021D01*
X124145461Y-51008015D01*
X124076176Y-50960777D01*
X123937606Y-50866301D01*
X123710949Y-50757148D01*
X123710936Y-50757143D01*
X123470559Y-50682997D01*
X123470551Y-50682995D01*
X123470549Y-50682995D01*
X123221786Y-50645500D01*
X122970214Y-50645500D01*
X122721451Y-50682995D01*
X122721449Y-50682995D01*
X122721440Y-50682997D01*
X122481063Y-50757143D01*
X122481051Y-50757148D01*
X122254394Y-50866301D01*
X122254387Y-50866305D01*
X122046544Y-51008011D01*
X122046532Y-51008021D01*
X121862125Y-51179123D01*
X121705266Y-51375819D01*
X121579481Y-51593686D01*
X121579479Y-51593690D01*
X121487571Y-51827870D01*
X121451092Y-51987700D01*
X121431593Y-52073131D01*
X121412793Y-52324000D01*
X121431593Y-52574869D01*
X121431594Y-52574873D01*
X121487571Y-52820129D01*
X121579479Y-53054309D01*
X121579481Y-53054313D01*
X121705266Y-53272180D01*
X121705268Y-53272183D01*
X121705269Y-53272184D01*
X121751535Y-53330200D01*
X121862125Y-53468876D01*
X121965507Y-53564799D01*
X122046538Y-53639984D01*
X122046544Y-53639988D01*
X122254387Y-53781694D01*
X122254394Y-53781698D01*
X122254397Y-53781700D01*
X122481055Y-53890853D01*
X122481058Y-53890853D01*
X122481063Y-53890856D01*
X122721440Y-53965002D01*
X122721442Y-53965002D01*
X122721451Y-53965005D01*
X122970214Y-54002500D01*
X122970218Y-54002500D01*
X123221780Y-54002500D01*
X123221786Y-54002500D01*
X123436117Y-53970194D01*
X123506454Y-53979820D01*
X123543988Y-54005692D01*
X123594700Y-54056404D01*
X123628726Y-54118716D01*
X123623661Y-54189531D01*
X123581114Y-54246367D01*
X123514594Y-54271178D01*
X123505605Y-54271499D01*
X117390854Y-54271499D01*
X117375012Y-54269749D01*
X117374985Y-54270043D01*
X117367093Y-54269297D01*
X117367092Y-54269297D01*
X117343361Y-54270043D01*
X117299015Y-54271437D01*
X117295056Y-54271499D01*
X117267145Y-54271499D01*
X117267142Y-54271499D01*
X117267127Y-54271500D01*
X117263122Y-54272006D01*
X117251305Y-54272936D01*
X117207113Y-54274325D01*
X117207111Y-54274326D01*
X117187656Y-54279977D01*
X117168303Y-54283985D01*
X117148211Y-54286523D01*
X117148204Y-54286525D01*
X117107097Y-54302800D01*
X117095872Y-54306643D01*
X117065213Y-54315551D01*
X117053408Y-54318981D01*
X117053406Y-54318981D01*
X117053403Y-54318983D01*
X117035964Y-54329296D01*
X117018219Y-54337989D01*
X116999380Y-54345448D01*
X116963628Y-54371425D01*
X116953705Y-54377943D01*
X116915641Y-54400453D01*
X116901308Y-54414786D01*
X116886282Y-54427619D01*
X116869896Y-54439524D01*
X116841712Y-54473592D01*
X116833724Y-54482369D01*
X115729247Y-55586847D01*
X115666935Y-55620872D01*
X115607541Y-55619459D01*
X115544090Y-55602457D01*
X115316000Y-55582502D01*
X115087913Y-55602457D01*
X114866759Y-55661715D01*
X114866753Y-55661717D01*
X114659250Y-55758477D01*
X114471703Y-55889799D01*
X114471697Y-55889804D01*
X114309804Y-56051697D01*
X114309799Y-56051703D01*
X114178477Y-56239250D01*
X114081717Y-56446753D01*
X114081715Y-56446759D01*
X114052362Y-56556305D01*
X114022457Y-56667913D01*
X114002502Y-56896000D01*
X114022457Y-57124087D01*
X114039459Y-57187540D01*
X114081715Y-57345240D01*
X114081717Y-57345246D01*
X114178477Y-57552749D01*
X114294158Y-57717959D01*
X114309802Y-57740300D01*
X114471700Y-57902198D01*
X114659251Y-58033523D01*
X114866757Y-58130284D01*
X115087913Y-58189543D01*
X115316000Y-58209498D01*
X115544087Y-58189543D01*
X115765243Y-58130284D01*
X115972749Y-58033523D01*
X116160300Y-57902198D01*
X116322198Y-57740300D01*
X116453523Y-57552749D01*
X116550284Y-57345243D01*
X116609543Y-57124087D01*
X116629498Y-56896000D01*
X116609543Y-56667913D01*
X116592540Y-56604457D01*
X116594230Y-56533481D01*
X116625152Y-56482752D01*
X117532500Y-55575404D01*
X117594812Y-55541378D01*
X117621595Y-55538499D01*
X118463913Y-55538499D01*
X118532034Y-55558501D01*
X118578527Y-55612157D01*
X118588631Y-55682431D01*
X118559137Y-55747011D01*
X118541307Y-55763927D01*
X118508017Y-55789838D01*
X118422778Y-55856182D01*
X118422774Y-55856186D01*
X118264685Y-56027916D01*
X118137015Y-56223331D01*
X118043252Y-56437089D01*
X118043249Y-56437096D01*
X117985950Y-56663366D01*
X117985949Y-56663372D01*
X117985949Y-56663374D01*
X117966673Y-56896000D01*
X117985573Y-57124090D01*
X117985950Y-57128633D01*
X118043249Y-57354903D01*
X118043252Y-57354910D01*
X118137015Y-57568668D01*
X118264685Y-57764083D01*
X118422774Y-57935813D01*
X118422778Y-57935817D01*
X118423377Y-57936283D01*
X118606983Y-58079190D01*
X118812273Y-58190287D01*
X119033049Y-58266080D01*
X119225648Y-58298219D01*
X119289545Y-58329160D01*
X119326573Y-58389736D01*
X119324972Y-58460715D01*
X119285252Y-58519560D01*
X119220023Y-58547590D01*
X119204907Y-58548500D01*
X105779849Y-58548500D01*
X105764010Y-58546751D01*
X105763983Y-58547045D01*
X105756091Y-58546299D01*
X105688033Y-58548438D01*
X105684075Y-58548500D01*
X105656144Y-58548500D01*
X105653957Y-58548776D01*
X105652111Y-58549009D01*
X105640304Y-58549937D01*
X105596110Y-58551326D01*
X105596105Y-58551327D01*
X105576660Y-58556977D01*
X105557302Y-58560986D01*
X105537207Y-58563524D01*
X105537205Y-58563525D01*
X105496083Y-58579805D01*
X105484859Y-58583647D01*
X105442410Y-58595980D01*
X105442404Y-58595982D01*
X105424966Y-58606295D01*
X105407220Y-58614989D01*
X105388381Y-58622448D01*
X105352614Y-58648434D01*
X105342698Y-58654948D01*
X105304636Y-58677458D01*
X105290307Y-58691787D01*
X105275281Y-58704620D01*
X105258895Y-58716525D01*
X105230711Y-58750593D01*
X105222723Y-58759370D01*
X102382252Y-61599841D01*
X102319940Y-61633867D01*
X102270006Y-61634600D01*
X102242718Y-61629500D01*
X102037282Y-61629500D01*
X102029258Y-61631000D01*
X101997650Y-61636908D01*
X101927013Y-61629763D01*
X101871454Y-61585563D01*
X101848610Y-61518342D01*
X101848499Y-61513053D01*
X101848499Y-58357595D01*
X101868501Y-58289474D01*
X101885398Y-58268505D01*
X101948755Y-58205148D01*
X102011063Y-58171126D01*
X102070457Y-58172539D01*
X102133913Y-58189543D01*
X102362000Y-58209498D01*
X102590087Y-58189543D01*
X102811243Y-58130284D01*
X102933750Y-58073157D01*
X103003941Y-58062496D01*
X103040248Y-58073157D01*
X103162757Y-58130284D01*
X103383913Y-58189543D01*
X103612000Y-58209498D01*
X103840087Y-58189543D01*
X104061243Y-58130284D01*
X104268749Y-58033523D01*
X104456300Y-57902198D01*
X104618198Y-57740300D01*
X104749523Y-57552749D01*
X104749523Y-57552748D01*
X104749525Y-57552746D01*
X104752274Y-57547985D01*
X104754245Y-57549122D01*
X104794713Y-57503154D01*
X104862989Y-57483687D01*
X104930951Y-57504223D01*
X104969822Y-57549083D01*
X104971726Y-57547985D01*
X104974474Y-57552746D01*
X105090159Y-57717960D01*
X105105802Y-57740300D01*
X105267700Y-57902198D01*
X105455251Y-58033523D01*
X105662757Y-58130284D01*
X105883913Y-58189543D01*
X106112000Y-58209498D01*
X106340087Y-58189543D01*
X106561243Y-58130284D01*
X106683750Y-58073157D01*
X106753941Y-58062496D01*
X106790248Y-58073157D01*
X106912757Y-58130284D01*
X107133913Y-58189543D01*
X107362000Y-58209498D01*
X107590087Y-58189543D01*
X107811243Y-58130284D01*
X108018749Y-58033523D01*
X108206300Y-57902198D01*
X108368198Y-57740300D01*
X108499523Y-57552749D01*
X108596284Y-57345243D01*
X108655543Y-57124087D01*
X108675498Y-56896000D01*
X109002502Y-56896000D01*
X109022457Y-57124087D01*
X109039459Y-57187540D01*
X109081715Y-57345240D01*
X109081717Y-57345246D01*
X109178477Y-57552749D01*
X109294158Y-57717959D01*
X109309802Y-57740300D01*
X109471700Y-57902198D01*
X109659251Y-58033523D01*
X109866757Y-58130284D01*
X110087913Y-58189543D01*
X110316000Y-58209498D01*
X110544087Y-58189543D01*
X110765243Y-58130284D01*
X110972749Y-58033523D01*
X111160300Y-57902198D01*
X111322198Y-57740300D01*
X111453523Y-57552749D01*
X111550284Y-57345243D01*
X111609543Y-57124087D01*
X111629498Y-56896000D01*
X111609543Y-56667913D01*
X111550284Y-56446757D01*
X111453523Y-56239251D01*
X111322198Y-56051700D01*
X111160300Y-55889802D01*
X111156011Y-55886799D01*
X110972749Y-55758477D01*
X110765246Y-55661717D01*
X110765240Y-55661715D01*
X110612812Y-55620872D01*
X110544087Y-55602457D01*
X110316000Y-55582502D01*
X110087913Y-55602457D01*
X109866759Y-55661715D01*
X109866753Y-55661717D01*
X109659250Y-55758477D01*
X109471703Y-55889799D01*
X109471697Y-55889804D01*
X109309804Y-56051697D01*
X109309799Y-56051703D01*
X109178477Y-56239250D01*
X109081717Y-56446753D01*
X109081715Y-56446759D01*
X109052362Y-56556305D01*
X109022457Y-56667913D01*
X109002502Y-56896000D01*
X108675498Y-56896000D01*
X108655543Y-56667913D01*
X108596284Y-56446757D01*
X108499523Y-56239251D01*
X108368198Y-56051700D01*
X108206300Y-55889802D01*
X108202011Y-55886799D01*
X108018749Y-55758477D01*
X107811246Y-55661717D01*
X107811240Y-55661715D01*
X107658812Y-55620872D01*
X107590087Y-55602457D01*
X107362000Y-55582502D01*
X107133913Y-55602457D01*
X106912759Y-55661715D01*
X106912749Y-55661719D01*
X106790249Y-55718841D01*
X106720058Y-55729502D01*
X106683751Y-55718841D01*
X106561250Y-55661719D01*
X106561246Y-55661717D01*
X106561243Y-55661716D01*
X106561241Y-55661715D01*
X106561240Y-55661715D01*
X106408812Y-55620872D01*
X106340087Y-55602457D01*
X106112000Y-55582502D01*
X105883913Y-55602457D01*
X105662759Y-55661715D01*
X105662753Y-55661717D01*
X105455250Y-55758477D01*
X105267703Y-55889799D01*
X105267697Y-55889804D01*
X105105804Y-56051697D01*
X105105799Y-56051703D01*
X104974474Y-56239253D01*
X104971726Y-56244015D01*
X104969761Y-56242880D01*
X104929255Y-56288865D01*
X104860974Y-56308312D01*
X104793018Y-56287756D01*
X104754168Y-56242921D01*
X104752274Y-56244015D01*
X104749525Y-56239253D01*
X104618200Y-56051703D01*
X104618195Y-56051697D01*
X104456302Y-55889804D01*
X104456296Y-55889799D01*
X104268749Y-55758477D01*
X104061246Y-55661717D01*
X104061240Y-55661715D01*
X103908812Y-55620872D01*
X103840087Y-55602457D01*
X103612000Y-55582502D01*
X103383913Y-55602457D01*
X103162759Y-55661715D01*
X103162749Y-55661719D01*
X103040249Y-55718841D01*
X102970058Y-55729502D01*
X102933751Y-55718841D01*
X102811250Y-55661719D01*
X102811246Y-55661717D01*
X102811243Y-55661716D01*
X102811241Y-55661715D01*
X102811240Y-55661715D01*
X102658812Y-55620872D01*
X102590087Y-55602457D01*
X102362000Y-55582502D01*
X102133913Y-55602457D01*
X101912759Y-55661715D01*
X101912753Y-55661717D01*
X101705250Y-55758477D01*
X101517703Y-55889799D01*
X101517697Y-55889804D01*
X101355804Y-56051697D01*
X101355799Y-56051703D01*
X101224477Y-56239250D01*
X101127717Y-56446753D01*
X101127715Y-56446759D01*
X101068457Y-56667913D01*
X101048502Y-56896000D01*
X101068457Y-57124090D01*
X101085459Y-57187540D01*
X101083769Y-57258516D01*
X101052847Y-57309247D01*
X100826332Y-57535761D01*
X100813900Y-57545721D01*
X100814088Y-57545948D01*
X100807981Y-57551000D01*
X100761369Y-57600636D01*
X100758619Y-57603474D01*
X100738862Y-57623232D01*
X100736373Y-57626440D01*
X100728687Y-57635437D01*
X100698417Y-57667674D01*
X100698410Y-57667684D01*
X100688650Y-57685436D01*
X100677802Y-57701951D01*
X100665385Y-57717959D01*
X100647823Y-57758541D01*
X100642603Y-57769196D01*
X100621304Y-57807940D01*
X100621302Y-57807945D01*
X100616266Y-57827560D01*
X100609863Y-57846263D01*
X100601818Y-57864853D01*
X100594900Y-57908526D01*
X100592494Y-57920143D01*
X100581499Y-57962969D01*
X100581499Y-57983224D01*
X100579948Y-58002934D01*
X100576779Y-58022944D01*
X100578600Y-58042204D01*
X100580940Y-58066962D01*
X100581499Y-58078820D01*
X100581499Y-71217775D01*
X100579750Y-71233617D01*
X100580043Y-71233645D01*
X100579297Y-71241536D01*
X100581437Y-71309613D01*
X100581499Y-71313572D01*
X100581499Y-71341480D01*
X100581500Y-71341498D01*
X100582006Y-71345506D01*
X100582936Y-71357325D01*
X100584325Y-71401517D01*
X100584326Y-71401522D01*
X100589976Y-71420968D01*
X100593985Y-71440326D01*
X100596524Y-71460422D01*
X100596525Y-71460429D01*
X100612799Y-71501532D01*
X100616643Y-71512758D01*
X100628981Y-71555222D01*
X100639293Y-71572660D01*
X100647987Y-71590408D01*
X100655443Y-71609238D01*
X100655449Y-71609249D01*
X100681431Y-71645010D01*
X100687948Y-71654930D01*
X100710457Y-71692991D01*
X100710458Y-71692992D01*
X100710460Y-71692995D01*
X100724778Y-71707313D01*
X100737616Y-71722343D01*
X100749525Y-71738733D01*
X100749529Y-71738738D01*
X100783597Y-71766921D01*
X100792377Y-71774911D01*
X101291388Y-72273922D01*
X101325414Y-72336234D01*
X101320349Y-72407049D01*
X101291389Y-72452112D01*
X101181799Y-72561703D01*
X101050477Y-72749250D01*
X100953717Y-72956753D01*
X100953715Y-72956759D01*
X100916794Y-73094551D01*
X100894457Y-73177913D01*
X100874502Y-73406000D01*
X100894457Y-73634087D01*
X100903687Y-73668533D01*
X100953715Y-73855240D01*
X100953717Y-73855246D01*
X101050477Y-74062749D01*
X101181611Y-74250028D01*
X101181802Y-74250300D01*
X101343700Y-74412198D01*
X101343703Y-74412200D01*
X101343708Y-74412204D01*
X101503215Y-74523892D01*
X101547544Y-74579349D01*
X101556883Y-74623144D01*
X101557326Y-74637258D01*
X101557327Y-74637263D01*
X101562977Y-74656709D01*
X101566986Y-74676067D01*
X101569525Y-74696163D01*
X101569526Y-74696170D01*
X101585800Y-74737273D01*
X101589644Y-74748499D01*
X101601982Y-74790963D01*
X101612294Y-74808401D01*
X101620988Y-74826149D01*
X101628444Y-74844979D01*
X101628450Y-74844990D01*
X101654432Y-74880751D01*
X101660949Y-74890671D01*
X101683458Y-74928732D01*
X101683459Y-74928733D01*
X101683461Y-74928736D01*
X101697779Y-74943054D01*
X101710617Y-74958084D01*
X101722526Y-74974474D01*
X101722530Y-74974479D01*
X101756598Y-75002662D01*
X101765378Y-75010652D01*
X102308596Y-75553870D01*
X102342622Y-75616182D01*
X102345501Y-75642965D01*
X102345501Y-76336832D01*
X102325499Y-76404953D01*
X102271843Y-76451446D01*
X102201569Y-76461550D01*
X102186890Y-76458539D01*
X102160418Y-76451446D01*
X102082087Y-76430457D01*
X101854000Y-76410502D01*
X101625913Y-76430457D01*
X101404759Y-76489715D01*
X101404753Y-76489717D01*
X101197250Y-76586477D01*
X101009703Y-76717799D01*
X101009697Y-76717804D01*
X100847804Y-76879697D01*
X100847799Y-76879703D01*
X100716477Y-77067250D01*
X100619717Y-77274753D01*
X100619716Y-77274757D01*
X100560457Y-77495913D01*
X100540502Y-77724000D01*
X100560457Y-77952087D01*
X100581547Y-78030795D01*
X100619715Y-78173240D01*
X100619717Y-78173246D01*
X100716477Y-78380749D01*
X100732547Y-78403700D01*
X100847802Y-78568300D01*
X101009700Y-78730198D01*
X101197251Y-78861523D01*
X101404757Y-78958284D01*
X101625913Y-79017543D01*
X101854000Y-79037498D01*
X102082087Y-79017543D01*
X102186893Y-78989460D01*
X102257866Y-78991150D01*
X102316662Y-79030944D01*
X102344610Y-79096208D01*
X102345501Y-79111167D01*
X102345501Y-79433402D01*
X102325499Y-79501523D01*
X102308600Y-79522492D01*
X101954486Y-79876607D01*
X101610339Y-80220754D01*
X101597902Y-80230718D01*
X101598090Y-80230945D01*
X101591981Y-80235998D01*
X101545369Y-80285634D01*
X101542619Y-80288472D01*
X101522862Y-80308230D01*
X101520373Y-80311438D01*
X101512687Y-80320435D01*
X101482417Y-80352672D01*
X101482410Y-80352682D01*
X101472650Y-80370434D01*
X101461802Y-80386949D01*
X101449385Y-80402957D01*
X101431823Y-80443539D01*
X101426603Y-80454194D01*
X101405304Y-80492938D01*
X101405302Y-80492943D01*
X101400266Y-80512558D01*
X101393863Y-80531261D01*
X101385818Y-80549851D01*
X101378900Y-80593524D01*
X101376494Y-80605141D01*
X101365499Y-80647967D01*
X101365499Y-80668222D01*
X101363948Y-80687932D01*
X101360779Y-80707941D01*
X101364940Y-80751960D01*
X101365499Y-80763818D01*
X101365499Y-89864147D01*
X101363750Y-89879989D01*
X101364043Y-89880017D01*
X101363297Y-89887908D01*
X101365437Y-89955985D01*
X101365499Y-89959944D01*
X101365499Y-89987852D01*
X101365500Y-89987870D01*
X101366006Y-89991878D01*
X101366936Y-90003697D01*
X101368325Y-90047889D01*
X101368326Y-90047894D01*
X101373976Y-90067340D01*
X101377985Y-90086698D01*
X101380524Y-90106794D01*
X101380525Y-90106801D01*
X101396799Y-90147904D01*
X101400643Y-90159130D01*
X101412981Y-90201594D01*
X101423293Y-90219032D01*
X101431987Y-90236780D01*
X101439443Y-90255610D01*
X101439449Y-90255621D01*
X101465431Y-90291382D01*
X101471948Y-90301302D01*
X101494457Y-90339363D01*
X101494458Y-90339364D01*
X101494460Y-90339367D01*
X101508778Y-90353685D01*
X101521616Y-90368715D01*
X101533525Y-90385105D01*
X101533529Y-90385110D01*
X101567597Y-90413293D01*
X101576377Y-90421283D01*
X107316202Y-96161108D01*
X107350228Y-96223420D01*
X107345163Y-96294235D01*
X107316203Y-96339298D01*
X107217799Y-96437703D01*
X107086474Y-96625253D01*
X107083726Y-96630015D01*
X107081761Y-96628880D01*
X107041255Y-96674865D01*
X106972974Y-96694312D01*
X106905018Y-96673756D01*
X106866168Y-96628921D01*
X106864274Y-96630015D01*
X106861525Y-96625253D01*
X106738376Y-96449380D01*
X106730198Y-96437700D01*
X106568300Y-96275802D01*
X106380749Y-96144477D01*
X106295749Y-96104841D01*
X106173246Y-96047717D01*
X106173240Y-96047715D01*
X106079771Y-96022670D01*
X105952087Y-95988457D01*
X105724000Y-95968502D01*
X105495913Y-95988457D01*
X105274759Y-96047715D01*
X105274749Y-96047719D01*
X105152249Y-96104841D01*
X105082058Y-96115502D01*
X105045751Y-96104841D01*
X104923250Y-96047719D01*
X104923246Y-96047717D01*
X104923243Y-96047716D01*
X104923241Y-96047715D01*
X104923240Y-96047715D01*
X104829771Y-96022670D01*
X104702087Y-95988457D01*
X104474000Y-95968502D01*
X104245913Y-95988457D01*
X104024759Y-96047715D01*
X104024753Y-96047717D01*
X103817250Y-96144477D01*
X103629703Y-96275799D01*
X103629697Y-96275804D01*
X103467804Y-96437697D01*
X103467799Y-96437703D01*
X103336477Y-96625250D01*
X103239717Y-96832753D01*
X103239715Y-96832759D01*
X103189842Y-97018887D01*
X103180457Y-97053913D01*
X103160502Y-97282000D01*
X103180457Y-97510087D01*
X103203145Y-97594759D01*
X103239715Y-97731240D01*
X103239717Y-97731246D01*
X103336477Y-97938749D01*
X103452957Y-98105100D01*
X103467802Y-98126300D01*
X103629700Y-98288198D01*
X103817251Y-98419523D01*
X104024757Y-98516284D01*
X104245913Y-98575543D01*
X104474000Y-98595498D01*
X104702087Y-98575543D01*
X104923243Y-98516284D01*
X105045750Y-98459157D01*
X105115941Y-98448496D01*
X105152248Y-98459157D01*
X105274757Y-98516284D01*
X105495913Y-98575543D01*
X105724000Y-98595498D01*
X105952087Y-98575543D01*
X106173243Y-98516284D01*
X106380749Y-98419523D01*
X106568300Y-98288198D01*
X106730198Y-98126300D01*
X106861523Y-97938749D01*
X106861523Y-97938748D01*
X106861525Y-97938746D01*
X106864274Y-97933985D01*
X106866245Y-97935122D01*
X106906713Y-97889154D01*
X106974989Y-97869687D01*
X107042951Y-97890223D01*
X107081822Y-97935083D01*
X107083726Y-97933985D01*
X107086474Y-97938746D01*
X107202958Y-98105101D01*
X107217802Y-98126300D01*
X107379700Y-98288198D01*
X107567251Y-98419523D01*
X107774757Y-98516284D01*
X107995913Y-98575543D01*
X108224000Y-98595498D01*
X108452087Y-98575543D01*
X108673243Y-98516284D01*
X108795750Y-98459157D01*
X108865941Y-98448496D01*
X108902248Y-98459157D01*
X109024757Y-98516284D01*
X109245913Y-98575543D01*
X109474000Y-98595498D01*
X109702087Y-98575543D01*
X109923243Y-98516284D01*
X110130749Y-98419523D01*
X110318300Y-98288198D01*
X110480198Y-98126300D01*
X110611523Y-97938749D01*
X110708284Y-97731243D01*
X110767543Y-97510087D01*
X110787498Y-97282000D01*
X110767543Y-97053913D01*
X110739461Y-96949110D01*
X110741151Y-96878133D01*
X110780945Y-96819338D01*
X110846210Y-96791390D01*
X110861168Y-96790499D01*
X114423403Y-96790499D01*
X114491524Y-96810501D01*
X114512498Y-96827404D01*
X117977799Y-100292705D01*
X118011825Y-100355017D01*
X118006760Y-100425832D01*
X117964213Y-100482668D01*
X117897693Y-100507479D01*
X117888704Y-100507800D01*
X100252419Y-100507800D01*
X100184298Y-100487798D01*
X100137805Y-100434142D01*
X100126420Y-100382181D01*
X100124158Y-99634695D01*
X100106844Y-93912561D01*
X100126639Y-93844383D01*
X100180154Y-93797728D01*
X100250397Y-93787412D01*
X100315067Y-93816709D01*
X100353631Y-93876319D01*
X100354549Y-93879571D01*
X100365712Y-93921232D01*
X100365717Y-93921246D01*
X100462477Y-94128749D01*
X100518029Y-94208086D01*
X100593802Y-94316300D01*
X100755700Y-94478198D01*
X100943251Y-94609523D01*
X101150757Y-94706284D01*
X101371913Y-94765543D01*
X101600000Y-94785498D01*
X101828087Y-94765543D01*
X102049243Y-94706284D01*
X102256749Y-94609523D01*
X102444300Y-94478198D01*
X102606198Y-94316300D01*
X102737523Y-94128749D01*
X102834284Y-93921243D01*
X102893543Y-93700087D01*
X102913498Y-93472000D01*
X102893543Y-93243913D01*
X102834284Y-93022757D01*
X102737523Y-92815251D01*
X102606198Y-92627700D01*
X102444300Y-92465802D01*
X102256749Y-92334477D01*
X102049246Y-92237717D01*
X102049240Y-92237715D01*
X101887855Y-92194472D01*
X101828087Y-92178457D01*
X101600000Y-92158502D01*
X101371913Y-92178457D01*
X101150759Y-92237715D01*
X101150753Y-92237717D01*
X100943250Y-92334477D01*
X100755703Y-92465799D01*
X100755697Y-92465804D01*
X100593804Y-92627697D01*
X100593799Y-92627703D01*
X100462477Y-92815250D01*
X100365717Y-93022753D01*
X100365713Y-93022764D01*
X100351915Y-93074259D01*
X100314963Y-93134881D01*
X100251102Y-93165902D01*
X100180608Y-93157472D01*
X100125861Y-93112269D01*
X100104245Y-93044643D01*
X100104210Y-93042091D01*
X99982546Y-52832000D01*
X101048502Y-52832000D01*
X101067951Y-53054309D01*
X101068457Y-53060086D01*
X101127715Y-53281240D01*
X101127717Y-53281246D01*
X101224477Y-53488749D01*
X101334305Y-53645600D01*
X101355802Y-53676300D01*
X101517700Y-53838198D01*
X101705251Y-53969523D01*
X101912757Y-54066284D01*
X102133913Y-54125543D01*
X102362000Y-54145498D01*
X102590087Y-54125543D01*
X102811243Y-54066284D01*
X103018749Y-53969523D01*
X103206300Y-53838198D01*
X103368198Y-53676300D01*
X103499523Y-53488749D01*
X103596284Y-53281243D01*
X103655543Y-53060087D01*
X103675498Y-52832000D01*
X111208502Y-52832000D01*
X111227951Y-53054309D01*
X111228457Y-53060086D01*
X111287715Y-53281240D01*
X111287717Y-53281246D01*
X111384477Y-53488749D01*
X111494305Y-53645600D01*
X111515802Y-53676300D01*
X111677700Y-53838198D01*
X111865251Y-53969523D01*
X112072757Y-54066284D01*
X112293913Y-54125543D01*
X112522000Y-54145498D01*
X112750087Y-54125543D01*
X112971243Y-54066284D01*
X113178749Y-53969523D01*
X113366300Y-53838198D01*
X113528198Y-53676300D01*
X113659523Y-53488749D01*
X113756284Y-53281243D01*
X113815543Y-53060087D01*
X113835498Y-52832000D01*
X113815543Y-52603913D01*
X113756284Y-52382757D01*
X113659523Y-52175251D01*
X113528198Y-51987700D01*
X113366300Y-51825802D01*
X113178749Y-51694477D01*
X112971246Y-51597717D01*
X112971240Y-51597715D01*
X112877771Y-51572670D01*
X112750087Y-51538457D01*
X112522000Y-51518502D01*
X112293913Y-51538457D01*
X112072759Y-51597715D01*
X112072753Y-51597717D01*
X111865250Y-51694477D01*
X111677703Y-51825799D01*
X111677697Y-51825804D01*
X111515804Y-51987697D01*
X111515799Y-51987703D01*
X111384477Y-52175250D01*
X111287717Y-52382753D01*
X111287716Y-52382757D01*
X111228457Y-52603913D01*
X111208502Y-52832000D01*
X103675498Y-52832000D01*
X103655543Y-52603913D01*
X103596284Y-52382757D01*
X103499523Y-52175251D01*
X103368198Y-51987700D01*
X103206300Y-51825802D01*
X103018749Y-51694477D01*
X102811246Y-51597717D01*
X102811240Y-51597715D01*
X102717771Y-51572670D01*
X102590087Y-51538457D01*
X102362000Y-51518502D01*
X102133913Y-51538457D01*
X101912759Y-51597715D01*
X101912753Y-51597717D01*
X101705250Y-51694477D01*
X101517703Y-51825799D01*
X101517697Y-51825804D01*
X101355804Y-51987697D01*
X101355799Y-51987703D01*
X101224477Y-52175250D01*
X101127717Y-52382753D01*
X101127716Y-52382757D01*
X101068457Y-52603913D01*
X101048502Y-52832000D01*
X99982546Y-52832000D01*
X99974705Y-50240403D01*
X99994500Y-50172223D01*
X100048015Y-50125568D01*
X100100406Y-50114023D01*
X154052086Y-49987495D01*
X154120252Y-50007338D01*
G37*
G04 #@! TD.AperFunction*
G04 #@! TA.AperFunction,Conductor*
G36*
X151564359Y-85105955D02*
G01*
X151506835Y-85218852D01*
X151487014Y-85344000D01*
X151506835Y-85469148D01*
X151564359Y-85582045D01*
X151580314Y-85598000D01*
X150605918Y-85598000D01*
X150658186Y-85793068D01*
X150658188Y-85793073D01*
X150754912Y-86000498D01*
X150886184Y-86187974D01*
X150886189Y-86187980D01*
X151048019Y-86349810D01*
X151048025Y-86349815D01*
X151235503Y-86481089D01*
X151275641Y-86499806D01*
X151328925Y-86546723D01*
X151348386Y-86615000D01*
X151327844Y-86682960D01*
X151275641Y-86728194D01*
X151235503Y-86746910D01*
X151048025Y-86878184D01*
X151048019Y-86878189D01*
X150886189Y-87040019D01*
X150886184Y-87040025D01*
X150754912Y-87227501D01*
X150658188Y-87434926D01*
X150658186Y-87434931D01*
X150605917Y-87630000D01*
X151580314Y-87630000D01*
X151564359Y-87645955D01*
X151506835Y-87758852D01*
X151487014Y-87884000D01*
X151506835Y-88009148D01*
X151564359Y-88122045D01*
X151580314Y-88138000D01*
X150605918Y-88138000D01*
X150658186Y-88333068D01*
X150658188Y-88333073D01*
X150754912Y-88540498D01*
X150886184Y-88727974D01*
X150886189Y-88727980D01*
X151048019Y-88889810D01*
X151048025Y-88889815D01*
X151235505Y-89021090D01*
X151269170Y-89036788D01*
X151322456Y-89083704D01*
X151341918Y-89151981D01*
X151321377Y-89219941D01*
X151309163Y-89234983D01*
X151309481Y-89235264D01*
X151306863Y-89238232D01*
X151304373Y-89241442D01*
X151296687Y-89250439D01*
X151266417Y-89282676D01*
X151266410Y-89282686D01*
X151256650Y-89300438D01*
X151245802Y-89316953D01*
X151233385Y-89332961D01*
X151215823Y-89373543D01*
X151210603Y-89384198D01*
X151189304Y-89422942D01*
X151189302Y-89422947D01*
X151184266Y-89442562D01*
X151177863Y-89461265D01*
X151169818Y-89479855D01*
X151162900Y-89523528D01*
X151160494Y-89535145D01*
X151149499Y-89577971D01*
X151149499Y-89598226D01*
X151147948Y-89617936D01*
X151144779Y-89637945D01*
X151148940Y-89681964D01*
X151149499Y-89693822D01*
X151149499Y-96835145D01*
X151147750Y-96850987D01*
X151148043Y-96851015D01*
X151147297Y-96858906D01*
X151149437Y-96926983D01*
X151149499Y-96930942D01*
X151149499Y-96958850D01*
X151149500Y-96958868D01*
X151150006Y-96962876D01*
X151150936Y-96974695D01*
X151152325Y-97018887D01*
X151152326Y-97018892D01*
X151157976Y-97038338D01*
X151161985Y-97057696D01*
X151164524Y-97077792D01*
X151164525Y-97077799D01*
X151180799Y-97118902D01*
X151184643Y-97130128D01*
X151196981Y-97172592D01*
X151207293Y-97190030D01*
X151215987Y-97207778D01*
X151223443Y-97226608D01*
X151223449Y-97226619D01*
X151249431Y-97262380D01*
X151255948Y-97272300D01*
X151278457Y-97310361D01*
X151278458Y-97310362D01*
X151278460Y-97310365D01*
X151292778Y-97324683D01*
X151305616Y-97339713D01*
X151317525Y-97356103D01*
X151317529Y-97356108D01*
X151351597Y-97384291D01*
X151360377Y-97392281D01*
X151598847Y-97630751D01*
X151632873Y-97693063D01*
X151631459Y-97752456D01*
X151614458Y-97815907D01*
X151614457Y-97815910D01*
X151614457Y-97815913D01*
X151594502Y-98044000D01*
X151614457Y-98272087D01*
X151623544Y-98306000D01*
X151673715Y-98493240D01*
X151673717Y-98493246D01*
X151721398Y-98595498D01*
X151770477Y-98700749D01*
X151901802Y-98888300D01*
X152063700Y-99050198D01*
X152251251Y-99181523D01*
X152458757Y-99278284D01*
X152679913Y-99337543D01*
X152908000Y-99357498D01*
X153136087Y-99337543D01*
X153357243Y-99278284D01*
X153564749Y-99181523D01*
X153752300Y-99050198D01*
X153914198Y-98888300D01*
X154045523Y-98700749D01*
X154084661Y-98616817D01*
X154131578Y-98563531D01*
X154199855Y-98544070D01*
X154267815Y-98564611D01*
X154313881Y-98618634D01*
X154324855Y-98669686D01*
X154330019Y-100381420D01*
X154310223Y-100449601D01*
X154256708Y-100496255D01*
X154204020Y-100507800D01*
X136957295Y-100507800D01*
X136889174Y-100487798D01*
X136842681Y-100434142D01*
X136832577Y-100363868D01*
X136862071Y-100299288D01*
X136868200Y-100292705D01*
X139116905Y-98044000D01*
X141434502Y-98044000D01*
X141454457Y-98272087D01*
X141463544Y-98306000D01*
X141513715Y-98493240D01*
X141513717Y-98493246D01*
X141561398Y-98595498D01*
X141610477Y-98700749D01*
X141741802Y-98888300D01*
X141903700Y-99050198D01*
X142091251Y-99181523D01*
X142298757Y-99278284D01*
X142519913Y-99337543D01*
X142748000Y-99357498D01*
X142976087Y-99337543D01*
X143197243Y-99278284D01*
X143404749Y-99181523D01*
X143592300Y-99050198D01*
X143754198Y-98888300D01*
X143885523Y-98700749D01*
X143982284Y-98493243D01*
X144041543Y-98272087D01*
X144061498Y-98044000D01*
X144041543Y-97815913D01*
X143982284Y-97594757D01*
X143885523Y-97387251D01*
X143754198Y-97199700D01*
X143592300Y-97037802D01*
X143404749Y-96906477D01*
X143343965Y-96878133D01*
X143197246Y-96809717D01*
X143197240Y-96809715D01*
X143103771Y-96784670D01*
X142976087Y-96750457D01*
X142748000Y-96730502D01*
X142519913Y-96750457D01*
X142298759Y-96809715D01*
X142298753Y-96809717D01*
X142091250Y-96906477D01*
X141903703Y-97037799D01*
X141903697Y-97037804D01*
X141741804Y-97199697D01*
X141741799Y-97199703D01*
X141610477Y-97387250D01*
X141513717Y-97594753D01*
X141513715Y-97594759D01*
X141471460Y-97752456D01*
X141454457Y-97815913D01*
X141434502Y-98044000D01*
X139116905Y-98044000D01*
X139429665Y-97731240D01*
X141996221Y-95164683D01*
X142058531Y-95130659D01*
X142129346Y-95135724D01*
X142138558Y-95139582D01*
X142298757Y-95214284D01*
X142519913Y-95273543D01*
X142748000Y-95293498D01*
X142976087Y-95273543D01*
X143197243Y-95214284D01*
X143404749Y-95117523D01*
X143592300Y-94986198D01*
X143754198Y-94824300D01*
X143885523Y-94636749D01*
X143982284Y-94429243D01*
X144041543Y-94208087D01*
X144061498Y-93980000D01*
X144041543Y-93751913D01*
X143982284Y-93530757D01*
X143885523Y-93323251D01*
X143754198Y-93135700D01*
X143592300Y-92973802D01*
X143525750Y-92927203D01*
X143435229Y-92863819D01*
X143390901Y-92808362D01*
X143381500Y-92760606D01*
X143381500Y-92262593D01*
X143401502Y-92194472D01*
X143418400Y-92173503D01*
X150465000Y-85126903D01*
X150527310Y-85092879D01*
X150554093Y-85090000D01*
X151580314Y-85090000D01*
X151564359Y-85105955D01*
G37*
G04 #@! TD.AperFunction*
G04 #@! TA.AperFunction,Conductor*
G36*
X138686527Y-96466503D02*
G01*
X138733020Y-96520159D01*
X138743124Y-96590433D01*
X138713630Y-96655013D01*
X138707501Y-96661596D01*
X136058501Y-99310596D01*
X135996189Y-99344622D01*
X135969406Y-99347501D01*
X130770000Y-99347501D01*
X130701879Y-99327499D01*
X130655386Y-99273843D01*
X130644000Y-99221501D01*
X130644000Y-99060000D01*
X129717116Y-99060000D01*
X129745493Y-99015844D01*
X129786000Y-98877889D01*
X129786000Y-98734111D01*
X129745493Y-98596156D01*
X129717116Y-98552000D01*
X130644000Y-98552000D01*
X130644000Y-97907414D01*
X130643999Y-97907402D01*
X130637494Y-97846906D01*
X130586444Y-97710035D01*
X130586444Y-97710034D01*
X130498904Y-97593095D01*
X130381965Y-97505555D01*
X130245093Y-97454505D01*
X130184597Y-97448000D01*
X129540000Y-97448000D01*
X129540000Y-98372325D01*
X129428315Y-98321320D01*
X129321763Y-98306000D01*
X129250237Y-98306000D01*
X129143685Y-98321320D01*
X129032000Y-98372325D01*
X129032000Y-97448000D01*
X128387402Y-97448000D01*
X128326906Y-97454505D01*
X128190035Y-97505555D01*
X128190034Y-97505555D01*
X128073095Y-97593095D01*
X127985555Y-97710034D01*
X127985553Y-97710039D01*
X127941184Y-97828996D01*
X127898637Y-97885832D01*
X127832117Y-97910642D01*
X127762743Y-97895550D01*
X127730427Y-97870300D01*
X127668902Y-97803465D01*
X127491301Y-97665232D01*
X127491300Y-97665231D01*
X127293371Y-97558117D01*
X127293369Y-97558116D01*
X127080512Y-97485043D01*
X127080501Y-97485040D01*
X127000000Y-97471606D01*
X127000000Y-98372325D01*
X126888315Y-98321320D01*
X126781763Y-98306000D01*
X126710237Y-98306000D01*
X126603685Y-98321320D01*
X126492000Y-98372325D01*
X126492000Y-97471607D01*
X126491999Y-97471606D01*
X126411498Y-97485040D01*
X126411487Y-97485043D01*
X126198630Y-97558116D01*
X126198628Y-97558117D01*
X126000699Y-97665231D01*
X126000698Y-97665232D01*
X125823097Y-97803465D01*
X125670670Y-97969045D01*
X125581780Y-98105101D01*
X125527776Y-98151189D01*
X125457428Y-98160764D01*
X125393071Y-98130786D01*
X125370816Y-98105101D01*
X125330897Y-98044000D01*
X125281724Y-97968734D01*
X125281720Y-97968729D01*
X125141035Y-97815907D01*
X125129240Y-97803094D01*
X125129239Y-97803093D01*
X125129237Y-97803091D01*
X125009679Y-97710035D01*
X124951576Y-97664811D01*
X124753574Y-97557658D01*
X124753572Y-97557657D01*
X124753571Y-97557656D01*
X124540639Y-97484557D01*
X124540630Y-97484555D01*
X124463029Y-97471606D01*
X124318569Y-97447500D01*
X124093431Y-97447500D01*
X123948971Y-97471606D01*
X123871369Y-97484555D01*
X123871360Y-97484557D01*
X123658428Y-97557656D01*
X123658426Y-97557658D01*
X123460426Y-97664810D01*
X123460424Y-97664811D01*
X123282762Y-97803091D01*
X123130279Y-97968729D01*
X123041483Y-98104643D01*
X122987479Y-98150731D01*
X122917131Y-98160306D01*
X122852774Y-98130329D01*
X122830517Y-98104643D01*
X122741720Y-97968729D01*
X122601035Y-97815907D01*
X122589240Y-97803094D01*
X122589239Y-97803093D01*
X122589237Y-97803091D01*
X122469679Y-97710035D01*
X122411576Y-97664811D01*
X122213574Y-97557658D01*
X122213572Y-97557657D01*
X122213571Y-97557656D01*
X122000639Y-97484557D01*
X122000630Y-97484555D01*
X121923029Y-97471606D01*
X121778569Y-97447500D01*
X121684594Y-97447500D01*
X121616473Y-97427498D01*
X121569980Y-97373842D01*
X121559876Y-97303568D01*
X121589370Y-97238988D01*
X121595499Y-97232404D01*
X121620126Y-97207778D01*
X122344500Y-96483405D01*
X122406812Y-96449380D01*
X122433595Y-96446501D01*
X138618406Y-96446501D01*
X138686527Y-96466503D01*
G37*
G04 #@! TD.AperFunction*
G04 #@! TA.AperFunction,Conductor*
G36*
X128826507Y-98596156D02*
G01*
X128786000Y-98734111D01*
X128786000Y-98877889D01*
X128826507Y-99015844D01*
X128854884Y-99060000D01*
X127177116Y-99060000D01*
X127205493Y-99015844D01*
X127246000Y-98877889D01*
X127246000Y-98734111D01*
X127205493Y-98596156D01*
X127177116Y-98552000D01*
X128854884Y-98552000D01*
X128826507Y-98596156D01*
G37*
G04 #@! TD.AperFunction*
G04 #@! TA.AperFunction,Conductor*
G36*
X135171101Y-70977891D02*
G01*
X135171102Y-70977890D01*
X135285791Y-70790738D01*
X135376628Y-70571437D01*
X135430179Y-70348380D01*
X135465531Y-70286811D01*
X135528558Y-70254128D01*
X135599249Y-70260708D01*
X135641793Y-70288699D01*
X140125752Y-74772658D01*
X140135719Y-74785098D01*
X140135946Y-74784911D01*
X140140998Y-74791018D01*
X140190665Y-74837658D01*
X140193509Y-74840415D01*
X140213230Y-74860136D01*
X140215749Y-74862090D01*
X140216415Y-74862606D01*
X140225445Y-74870318D01*
X140250464Y-74893813D01*
X140257677Y-74900586D01*
X140257681Y-74900589D01*
X140275429Y-74910346D01*
X140291956Y-74921202D01*
X140307959Y-74933615D01*
X140348538Y-74951175D01*
X140359186Y-74956392D01*
X140397933Y-74977693D01*
X140397935Y-74977694D01*
X140397939Y-74977696D01*
X140417561Y-74982734D01*
X140436262Y-74989136D01*
X140448813Y-74994568D01*
X140454851Y-74997181D01*
X140454852Y-74997181D01*
X140454854Y-74997182D01*
X140498529Y-75004099D01*
X140510140Y-75006503D01*
X140552969Y-75017501D01*
X140573223Y-75017501D01*
X140592933Y-75019052D01*
X140595140Y-75019401D01*
X140612942Y-75022221D01*
X140656960Y-75018059D01*
X140668818Y-75017501D01*
X142835564Y-75017501D01*
X142903685Y-75037503D01*
X142950178Y-75091159D01*
X142961084Y-75154480D01*
X142958502Y-75184000D01*
X142978457Y-75412087D01*
X143037716Y-75633243D01*
X143134477Y-75840749D01*
X143265802Y-76028300D01*
X143427700Y-76190198D01*
X143615251Y-76321523D01*
X143650359Y-76337894D01*
X143654457Y-76339805D01*
X143707742Y-76386722D01*
X143727203Y-76454999D01*
X143706661Y-76522959D01*
X143654457Y-76568195D01*
X143615250Y-76586477D01*
X143427703Y-76717799D01*
X143427697Y-76717804D01*
X143265804Y-76879697D01*
X143265799Y-76879703D01*
X143134477Y-77067250D01*
X143037717Y-77274753D01*
X143037716Y-77274757D01*
X142978457Y-77495913D01*
X142958502Y-77724000D01*
X142978457Y-77952087D01*
X142999547Y-78030795D01*
X143037715Y-78173240D01*
X143037717Y-78173246D01*
X143134477Y-78380749D01*
X143150547Y-78403700D01*
X143265802Y-78568300D01*
X143427700Y-78730198D01*
X143615251Y-78861523D01*
X143650359Y-78877894D01*
X143654457Y-78879805D01*
X143707742Y-78926722D01*
X143727203Y-78994999D01*
X143706661Y-79062959D01*
X143654457Y-79108195D01*
X143615250Y-79126477D01*
X143427703Y-79257799D01*
X143427697Y-79257804D01*
X143265804Y-79419697D01*
X143265799Y-79419703D01*
X143134477Y-79607250D01*
X143037717Y-79814753D01*
X143037715Y-79814759D01*
X142978457Y-80035913D01*
X142958502Y-80264000D01*
X142978457Y-80492090D01*
X142995459Y-80555541D01*
X142993769Y-80626518D01*
X142962847Y-80677247D01*
X141234335Y-82405758D01*
X141221900Y-82415722D01*
X141222088Y-82415949D01*
X141215978Y-82421003D01*
X141169369Y-82470636D01*
X141166619Y-82473474D01*
X141146862Y-82493232D01*
X141144373Y-82496440D01*
X141136687Y-82505437D01*
X141106417Y-82537674D01*
X141106410Y-82537684D01*
X141096650Y-82555436D01*
X141085802Y-82571951D01*
X141073385Y-82587959D01*
X141055823Y-82628541D01*
X141050603Y-82639196D01*
X141029304Y-82677940D01*
X141029302Y-82677945D01*
X141024266Y-82697560D01*
X141017863Y-82716263D01*
X141009818Y-82734853D01*
X141002900Y-82778526D01*
X141000494Y-82790143D01*
X140989499Y-82832969D01*
X140989499Y-82853224D01*
X140987948Y-82872934D01*
X140984779Y-82892944D01*
X140987859Y-82925523D01*
X140988940Y-82936962D01*
X140989499Y-82948820D01*
X140989499Y-94327408D01*
X140969497Y-94395529D01*
X140952594Y-94416503D01*
X140661595Y-94707502D01*
X140599283Y-94741528D01*
X140528468Y-94736463D01*
X140471632Y-94693916D01*
X140446821Y-94627396D01*
X140446500Y-94618407D01*
X140446500Y-93439367D01*
X140446499Y-93439350D01*
X140439990Y-93378803D01*
X140439988Y-93378795D01*
X140393775Y-93254896D01*
X140388889Y-93241796D01*
X140388888Y-93241794D01*
X140388887Y-93241792D01*
X140301261Y-93124738D01*
X140184207Y-93037112D01*
X140184202Y-93037110D01*
X140047204Y-92986011D01*
X140047196Y-92986009D01*
X139986649Y-92979500D01*
X139986638Y-92979500D01*
X137889362Y-92979500D01*
X137889350Y-92979500D01*
X137828803Y-92986009D01*
X137828795Y-92986011D01*
X137691797Y-93037110D01*
X137691792Y-93037112D01*
X137574738Y-93124738D01*
X137487112Y-93241792D01*
X137487110Y-93241797D01*
X137436011Y-93378795D01*
X137436009Y-93378803D01*
X137429500Y-93439350D01*
X137429500Y-95053501D01*
X137409498Y-95121622D01*
X137355842Y-95168115D01*
X137303500Y-95179501D01*
X135472391Y-95179501D01*
X135404270Y-95159499D01*
X135357777Y-95105843D01*
X135347673Y-95035569D01*
X135355982Y-95005284D01*
X135376627Y-94955440D01*
X135376627Y-94955438D01*
X135432039Y-94724632D01*
X135450662Y-94488000D01*
X135432039Y-94251367D01*
X135376628Y-94020562D01*
X135285791Y-93801261D01*
X135171102Y-93614108D01*
X135171101Y-93614107D01*
X134422360Y-94362847D01*
X134397493Y-94278156D01*
X134319761Y-94157202D01*
X134211100Y-94063048D01*
X134080315Y-94003320D01*
X134065586Y-94001202D01*
X134811890Y-93254897D01*
X134811890Y-93254896D01*
X134624738Y-93140208D01*
X134405437Y-93049371D01*
X134174632Y-92993960D01*
X133938000Y-92975337D01*
X133701367Y-92993960D01*
X133470562Y-93049371D01*
X133251266Y-93140206D01*
X133064108Y-93254897D01*
X133064108Y-93254898D01*
X133810412Y-94001202D01*
X133795685Y-94003320D01*
X133664900Y-94063048D01*
X133556239Y-94157202D01*
X133478507Y-94278156D01*
X133453639Y-94362849D01*
X132704898Y-93614108D01*
X132704897Y-93614108D01*
X132590206Y-93801266D01*
X132499371Y-94020562D01*
X132443960Y-94251367D01*
X132425337Y-94488000D01*
X132443960Y-94724632D01*
X132499372Y-94955438D01*
X132499372Y-94955440D01*
X132520018Y-95005284D01*
X132527607Y-95075874D01*
X132495827Y-95139361D01*
X132434768Y-95175587D01*
X132403609Y-95179501D01*
X122202853Y-95179501D01*
X122187011Y-95177751D01*
X122186984Y-95178045D01*
X122179091Y-95177298D01*
X122111001Y-95179439D01*
X122107043Y-95179501D01*
X122079143Y-95179501D01*
X122079137Y-95179501D01*
X122079131Y-95179502D01*
X122075132Y-95180007D01*
X122063312Y-95180937D01*
X122019113Y-95182326D01*
X122019106Y-95182328D01*
X121999648Y-95187980D01*
X121980303Y-95191986D01*
X121960205Y-95194526D01*
X121960197Y-95194528D01*
X121919089Y-95210803D01*
X121907865Y-95214646D01*
X121865408Y-95226982D01*
X121847963Y-95237298D01*
X121830217Y-95245991D01*
X121811381Y-95253449D01*
X121775609Y-95279438D01*
X121765693Y-95285952D01*
X121727636Y-95308459D01*
X121713310Y-95322785D01*
X121698284Y-95335618D01*
X121681894Y-95347526D01*
X121681892Y-95347528D01*
X121653699Y-95381606D01*
X121645712Y-95390382D01*
X119583793Y-97452300D01*
X119521481Y-97486326D01*
X119465781Y-97485382D01*
X119465776Y-97485414D01*
X119465563Y-97485378D01*
X119463759Y-97485348D01*
X119460643Y-97484558D01*
X119460635Y-97484556D01*
X119238569Y-97447500D01*
X119013431Y-97447500D01*
X118902496Y-97466011D01*
X118791355Y-97484557D01*
X118788213Y-97485353D01*
X118786889Y-97485303D01*
X118786224Y-97485414D01*
X118786201Y-97485277D01*
X118717267Y-97482675D01*
X118668204Y-97452299D01*
X115470374Y-94254469D01*
X115436348Y-94192157D01*
X115441413Y-94121342D01*
X115445262Y-94112151D01*
X115534284Y-93921243D01*
X115593543Y-93700087D01*
X115613498Y-93472000D01*
X123146502Y-93472000D01*
X123157680Y-93599771D01*
X123166457Y-93700086D01*
X123225715Y-93921240D01*
X123225717Y-93921246D01*
X123322477Y-94128749D01*
X123378029Y-94208086D01*
X123453802Y-94316300D01*
X123615700Y-94478198D01*
X123803251Y-94609523D01*
X124010757Y-94706284D01*
X124231913Y-94765543D01*
X124460000Y-94785498D01*
X124688087Y-94765543D01*
X124909243Y-94706284D01*
X125116749Y-94609523D01*
X125304300Y-94478198D01*
X125466198Y-94316300D01*
X125597523Y-94128749D01*
X125694284Y-93921243D01*
X125753543Y-93700087D01*
X125773498Y-93472000D01*
X125753543Y-93243913D01*
X125694284Y-93022757D01*
X125597523Y-92815251D01*
X125466198Y-92627700D01*
X125304300Y-92465802D01*
X125116749Y-92334477D01*
X124909246Y-92237717D01*
X124909240Y-92237715D01*
X124747855Y-92194472D01*
X124688087Y-92178457D01*
X124460000Y-92158502D01*
X124231913Y-92178457D01*
X124010759Y-92237715D01*
X124010753Y-92237717D01*
X123803250Y-92334477D01*
X123615703Y-92465799D01*
X123615697Y-92465804D01*
X123453804Y-92627697D01*
X123453799Y-92627703D01*
X123322477Y-92815250D01*
X123225717Y-93022753D01*
X123225715Y-93022759D01*
X123195453Y-93135700D01*
X123166457Y-93243913D01*
X123146502Y-93472000D01*
X115613498Y-93472000D01*
X115593543Y-93243913D01*
X115534284Y-93022757D01*
X115437523Y-92815251D01*
X115306198Y-92627700D01*
X115144300Y-92465802D01*
X114956749Y-92334477D01*
X114749246Y-92237717D01*
X114749240Y-92237715D01*
X114587855Y-92194472D01*
X114528087Y-92178457D01*
X114300000Y-92158502D01*
X114071913Y-92178457D01*
X113850759Y-92237715D01*
X113850753Y-92237717D01*
X113643250Y-92334477D01*
X113455703Y-92465799D01*
X113455697Y-92465804D01*
X113293804Y-92627697D01*
X113293799Y-92627703D01*
X113162477Y-92815250D01*
X113144195Y-92854457D01*
X113097278Y-92907742D01*
X113029001Y-92927203D01*
X112961041Y-92906661D01*
X112915805Y-92854457D01*
X112913166Y-92848798D01*
X112897523Y-92815251D01*
X112766198Y-92627700D01*
X112604300Y-92465802D01*
X112416749Y-92334477D01*
X112209246Y-92237717D01*
X112209240Y-92237715D01*
X112047855Y-92194472D01*
X111988087Y-92178457D01*
X111760000Y-92158502D01*
X111531913Y-92178457D01*
X111310759Y-92237715D01*
X111310753Y-92237717D01*
X111103250Y-92334477D01*
X110915703Y-92465799D01*
X110915697Y-92465804D01*
X110753804Y-92627697D01*
X110753795Y-92627708D01*
X110622477Y-92815250D01*
X110622475Y-92815254D01*
X110606833Y-92848798D01*
X110559915Y-92902082D01*
X110491638Y-92921542D01*
X110423678Y-92900999D01*
X110403544Y-92884641D01*
X107096405Y-89577502D01*
X107062379Y-89515190D01*
X107059500Y-89488407D01*
X107059500Y-86420593D01*
X107079502Y-86352472D01*
X107096400Y-86331503D01*
X109217413Y-84210489D01*
X109279723Y-84176466D01*
X109350538Y-84181530D01*
X109407374Y-84224077D01*
X109432185Y-84290597D01*
X109432027Y-84310564D01*
X109430502Y-84328000D01*
X109450457Y-84556087D01*
X109459621Y-84590288D01*
X109509715Y-84777240D01*
X109509717Y-84777246D01*
X109606477Y-84984749D01*
X109691346Y-85105955D01*
X109737802Y-85172300D01*
X109899700Y-85334198D01*
X110087251Y-85465523D01*
X110115844Y-85478856D01*
X110126457Y-85483805D01*
X110179742Y-85530722D01*
X110199203Y-85598999D01*
X110178661Y-85666959D01*
X110126457Y-85712195D01*
X110087250Y-85730477D01*
X109899703Y-85861799D01*
X109899697Y-85861804D01*
X109737804Y-86023697D01*
X109737799Y-86023703D01*
X109606477Y-86211250D01*
X109509717Y-86418753D01*
X109509715Y-86418759D01*
X109460110Y-86603887D01*
X109450457Y-86639913D01*
X109430502Y-86868000D01*
X109450457Y-87096087D01*
X109457401Y-87122001D01*
X109509715Y-87317240D01*
X109509717Y-87317246D01*
X109606477Y-87524749D01*
X109691346Y-87645955D01*
X109737802Y-87712300D01*
X109899700Y-87874198D01*
X110087251Y-88005523D01*
X110122359Y-88021894D01*
X110126457Y-88023805D01*
X110179742Y-88070722D01*
X110199203Y-88138999D01*
X110178661Y-88206959D01*
X110126457Y-88252195D01*
X110087250Y-88270477D01*
X109899703Y-88401799D01*
X109899697Y-88401804D01*
X109737804Y-88563697D01*
X109737799Y-88563703D01*
X109606477Y-88751250D01*
X109509717Y-88958753D01*
X109509715Y-88958759D01*
X109454184Y-89166003D01*
X109450457Y-89179913D01*
X109430502Y-89408000D01*
X109450457Y-89636087D01*
X109465927Y-89693822D01*
X109509715Y-89857240D01*
X109509717Y-89857246D01*
X109606477Y-90064749D01*
X109729263Y-90240106D01*
X109737802Y-90252300D01*
X109899700Y-90414198D01*
X110087251Y-90545523D01*
X110294757Y-90642284D01*
X110515913Y-90701543D01*
X110744000Y-90721498D01*
X110972087Y-90701543D01*
X111193243Y-90642284D01*
X111400749Y-90545523D01*
X111588300Y-90414198D01*
X111750198Y-90252300D01*
X111881523Y-90064749D01*
X111978284Y-89857243D01*
X112037543Y-89636087D01*
X112057498Y-89408000D01*
X112037543Y-89179913D01*
X111978284Y-88958757D01*
X111881523Y-88751251D01*
X111807825Y-88646000D01*
X113320502Y-88646000D01*
X113340457Y-88874087D01*
X113363145Y-88958759D01*
X113399715Y-89095240D01*
X113399717Y-89095246D01*
X113496477Y-89302749D01*
X113626476Y-89488407D01*
X113627802Y-89490300D01*
X113789700Y-89652198D01*
X113977251Y-89783523D01*
X114184757Y-89880284D01*
X114405913Y-89939543D01*
X114634000Y-89959498D01*
X114862087Y-89939543D01*
X115083243Y-89880284D01*
X115205750Y-89823157D01*
X115275941Y-89812496D01*
X115312248Y-89823157D01*
X115434757Y-89880284D01*
X115655913Y-89939543D01*
X115884000Y-89959498D01*
X116112087Y-89939543D01*
X116333243Y-89880284D01*
X116540749Y-89783523D01*
X116728300Y-89652198D01*
X116890198Y-89490300D01*
X117021523Y-89302749D01*
X117021523Y-89302748D01*
X117021525Y-89302746D01*
X117024274Y-89297985D01*
X117026245Y-89299122D01*
X117066713Y-89253154D01*
X117134989Y-89233687D01*
X117202951Y-89254223D01*
X117241822Y-89299083D01*
X117243726Y-89297985D01*
X117246474Y-89302746D01*
X117377799Y-89490296D01*
X117377802Y-89490300D01*
X117539700Y-89652198D01*
X117727251Y-89783523D01*
X117934757Y-89880284D01*
X118155913Y-89939543D01*
X118384000Y-89959498D01*
X118612087Y-89939543D01*
X118833243Y-89880284D01*
X118955750Y-89823157D01*
X119025941Y-89812496D01*
X119062248Y-89823157D01*
X119184757Y-89880284D01*
X119405913Y-89939543D01*
X119634000Y-89959498D01*
X119862087Y-89939543D01*
X120083243Y-89880284D01*
X120290749Y-89783523D01*
X120478300Y-89652198D01*
X120640198Y-89490300D01*
X120771523Y-89302749D01*
X120868284Y-89095243D01*
X120927543Y-88874087D01*
X120947498Y-88646000D01*
X120927543Y-88417913D01*
X120868284Y-88196757D01*
X120771523Y-87989251D01*
X120640198Y-87801700D01*
X120478300Y-87639802D01*
X120464301Y-87630000D01*
X120290749Y-87508477D01*
X120083246Y-87411717D01*
X120083240Y-87411715D01*
X119989771Y-87386670D01*
X119862087Y-87352457D01*
X119634000Y-87332502D01*
X119405913Y-87352457D01*
X119184759Y-87411715D01*
X119184749Y-87411719D01*
X119062249Y-87468841D01*
X118992058Y-87479502D01*
X118955751Y-87468841D01*
X118833250Y-87411719D01*
X118833246Y-87411717D01*
X118833243Y-87411716D01*
X118833241Y-87411715D01*
X118833240Y-87411715D01*
X118739771Y-87386670D01*
X118612087Y-87352457D01*
X118384000Y-87332502D01*
X118155913Y-87352457D01*
X117934759Y-87411715D01*
X117934753Y-87411717D01*
X117727250Y-87508477D01*
X117539703Y-87639799D01*
X117539697Y-87639804D01*
X117377804Y-87801697D01*
X117377799Y-87801703D01*
X117246474Y-87989253D01*
X117243726Y-87994015D01*
X117241761Y-87992880D01*
X117201255Y-88038865D01*
X117132974Y-88058312D01*
X117065018Y-88037756D01*
X117026168Y-87992921D01*
X117024274Y-87994015D01*
X117021525Y-87989253D01*
X116890200Y-87801703D01*
X116890195Y-87801697D01*
X116728302Y-87639804D01*
X116728296Y-87639799D01*
X116540749Y-87508477D01*
X116333246Y-87411717D01*
X116333240Y-87411715D01*
X116239771Y-87386670D01*
X116112087Y-87352457D01*
X115884000Y-87332502D01*
X115655913Y-87352457D01*
X115434759Y-87411715D01*
X115434749Y-87411719D01*
X115312249Y-87468841D01*
X115242058Y-87479502D01*
X115205751Y-87468841D01*
X115083250Y-87411719D01*
X115083246Y-87411717D01*
X115083243Y-87411716D01*
X115083241Y-87411715D01*
X115083240Y-87411715D01*
X114989771Y-87386670D01*
X114862087Y-87352457D01*
X114634000Y-87332502D01*
X114405913Y-87352457D01*
X114184759Y-87411715D01*
X114184753Y-87411717D01*
X113977250Y-87508477D01*
X113789703Y-87639799D01*
X113789697Y-87639804D01*
X113627804Y-87801697D01*
X113627799Y-87801703D01*
X113496477Y-87989250D01*
X113399717Y-88196753D01*
X113399715Y-88196759D01*
X113344775Y-88401799D01*
X113340457Y-88417913D01*
X113320502Y-88646000D01*
X111807825Y-88646000D01*
X111750198Y-88563700D01*
X111588300Y-88401802D01*
X111400749Y-88270477D01*
X111397935Y-88269165D01*
X111361543Y-88252195D01*
X111308258Y-88205279D01*
X111288796Y-88137002D01*
X111309337Y-88069042D01*
X111361543Y-88023805D01*
X111363997Y-88022660D01*
X111400749Y-88005523D01*
X111588300Y-87874198D01*
X111750198Y-87712300D01*
X111881523Y-87524749D01*
X111978284Y-87317243D01*
X112037543Y-87096087D01*
X112057498Y-86868000D01*
X112040480Y-86673489D01*
X112054469Y-86603887D01*
X112103869Y-86552895D01*
X112166001Y-86536510D01*
X126654017Y-86536510D01*
X126722138Y-86556512D01*
X126768631Y-86610168D01*
X126778735Y-86680442D01*
X126775725Y-86695113D01*
X126722457Y-86893913D01*
X126702502Y-87122000D01*
X126722457Y-87350087D01*
X126745190Y-87434926D01*
X126781715Y-87571240D01*
X126781717Y-87571246D01*
X126878477Y-87778749D01*
X126894547Y-87801700D01*
X127009802Y-87966300D01*
X127171700Y-88128198D01*
X127359251Y-88259523D01*
X127566757Y-88356284D01*
X127787913Y-88415543D01*
X128016000Y-88435498D01*
X128244087Y-88415543D01*
X128465243Y-88356284D01*
X128672749Y-88259523D01*
X128860300Y-88128198D01*
X129022198Y-87966300D01*
X129153523Y-87778749D01*
X129250284Y-87571243D01*
X129309543Y-87350087D01*
X129329498Y-87122000D01*
X136863004Y-87122000D01*
X136882951Y-87350002D01*
X136942186Y-87571068D01*
X136942188Y-87571073D01*
X137038913Y-87778501D01*
X137088899Y-87849888D01*
X137777272Y-87161516D01*
X137790835Y-87247148D01*
X137848359Y-87360045D01*
X137937955Y-87449641D01*
X138050852Y-87507165D01*
X138136482Y-87520727D01*
X137448110Y-88209098D01*
X137448110Y-88209100D01*
X137519498Y-88259086D01*
X137726926Y-88355811D01*
X137726931Y-88355813D01*
X137947999Y-88415048D01*
X137947995Y-88415048D01*
X138176000Y-88434995D01*
X138404002Y-88415048D01*
X138625068Y-88355813D01*
X138625073Y-88355811D01*
X138832497Y-88259088D01*
X138903888Y-88209099D01*
X138903888Y-88209097D01*
X138215518Y-87520727D01*
X138301148Y-87507165D01*
X138414045Y-87449641D01*
X138503641Y-87360045D01*
X138561165Y-87247148D01*
X138574727Y-87161518D01*
X139263097Y-87849888D01*
X139263099Y-87849888D01*
X139313088Y-87778497D01*
X139409811Y-87571073D01*
X139409813Y-87571068D01*
X139469048Y-87350002D01*
X139488995Y-87122000D01*
X139469048Y-86893997D01*
X139409813Y-86672931D01*
X139409811Y-86672926D01*
X139313086Y-86465498D01*
X139263100Y-86394110D01*
X139263098Y-86394110D01*
X138574727Y-87082481D01*
X138561165Y-86996852D01*
X138503641Y-86883955D01*
X138414045Y-86794359D01*
X138301148Y-86736835D01*
X138215517Y-86723272D01*
X138903888Y-86034899D01*
X138903888Y-86034898D01*
X138832501Y-85984913D01*
X138625073Y-85888188D01*
X138625068Y-85888186D01*
X138404000Y-85828951D01*
X138404004Y-85828951D01*
X138176000Y-85809004D01*
X137947997Y-85828951D01*
X137726931Y-85888186D01*
X137726926Y-85888188D01*
X137519500Y-85984913D01*
X137448109Y-86034900D01*
X138136481Y-86723272D01*
X138050852Y-86736835D01*
X137937955Y-86794359D01*
X137848359Y-86883955D01*
X137790835Y-86996852D01*
X137777272Y-87082481D01*
X137088900Y-86394109D01*
X137038913Y-86465500D01*
X136942188Y-86672926D01*
X136942186Y-86672931D01*
X136882951Y-86893997D01*
X136863004Y-87122000D01*
X129329498Y-87122000D01*
X129309543Y-86893913D01*
X129256276Y-86695119D01*
X129257966Y-86624145D01*
X129297760Y-86565349D01*
X129363024Y-86537401D01*
X129377983Y-86536510D01*
X129420549Y-86536510D01*
X129436390Y-86538259D01*
X129436418Y-86537966D01*
X129444304Y-86538710D01*
X129444311Y-86538712D01*
X129512388Y-86536572D01*
X129516347Y-86536510D01*
X129544253Y-86536510D01*
X129544258Y-86536510D01*
X129548269Y-86536002D01*
X129560101Y-86535071D01*
X129604291Y-86533683D01*
X129623749Y-86528029D01*
X129643096Y-86524023D01*
X129663199Y-86521484D01*
X129704312Y-86505205D01*
X129715532Y-86501363D01*
X129740315Y-86494164D01*
X129757993Y-86489029D01*
X129757997Y-86489027D01*
X129775428Y-86478718D01*
X129793182Y-86470019D01*
X129812019Y-86462562D01*
X129847794Y-86436568D01*
X129857700Y-86430061D01*
X129895764Y-86407552D01*
X129910087Y-86393228D01*
X129925126Y-86380384D01*
X129941509Y-86368482D01*
X129969705Y-86334396D01*
X129977674Y-86325640D01*
X132737314Y-83566000D01*
X136608502Y-83566000D01*
X136628457Y-83794087D01*
X136651145Y-83878759D01*
X136687715Y-84015240D01*
X136687717Y-84015246D01*
X136714649Y-84073001D01*
X136784477Y-84222749D01*
X136915802Y-84410300D01*
X137077700Y-84572198D01*
X137265251Y-84703523D01*
X137472757Y-84800284D01*
X137693913Y-84859543D01*
X137922000Y-84879498D01*
X138150087Y-84859543D01*
X138371243Y-84800284D01*
X138578749Y-84703523D01*
X138766300Y-84572198D01*
X138928198Y-84410300D01*
X139059523Y-84222749D01*
X139156284Y-84015243D01*
X139215543Y-83794087D01*
X139235498Y-83566000D01*
X139215543Y-83337913D01*
X139156284Y-83116757D01*
X139059523Y-82909251D01*
X138928198Y-82721700D01*
X138766300Y-82559802D01*
X138756414Y-82552880D01*
X138578749Y-82428477D01*
X138371246Y-82331717D01*
X138371240Y-82331715D01*
X138225048Y-82292543D01*
X138150087Y-82272457D01*
X137922000Y-82252502D01*
X137693913Y-82272457D01*
X137472759Y-82331715D01*
X137472753Y-82331717D01*
X137265250Y-82428477D01*
X137077703Y-82559799D01*
X137077697Y-82559804D01*
X136915804Y-82721697D01*
X136915799Y-82721703D01*
X136784477Y-82909250D01*
X136687717Y-83116753D01*
X136687715Y-83116759D01*
X136658017Y-83227595D01*
X136628457Y-83337913D01*
X136608502Y-83566000D01*
X132737314Y-83566000D01*
X135821670Y-80481645D01*
X135834108Y-80471682D01*
X135833920Y-80471455D01*
X135840026Y-80466403D01*
X135840025Y-80466403D01*
X135840028Y-80466402D01*
X135886671Y-80416730D01*
X135889361Y-80413954D01*
X135909145Y-80394172D01*
X135911624Y-80390975D01*
X135919321Y-80381961D01*
X135949596Y-80349723D01*
X135959356Y-80331967D01*
X135970205Y-80315452D01*
X135982624Y-80299443D01*
X136000189Y-80258848D01*
X136005394Y-80248223D01*
X136026705Y-80209462D01*
X136031743Y-80189836D01*
X136038147Y-80171134D01*
X136043019Y-80159877D01*
X136046191Y-80152547D01*
X136053106Y-80108883D01*
X136055514Y-80097254D01*
X136066510Y-80054432D01*
X136066510Y-80034177D01*
X136068061Y-80014465D01*
X136071230Y-79994459D01*
X136067069Y-79950438D01*
X136066510Y-79938581D01*
X136066510Y-73643866D01*
X136068259Y-73628024D01*
X136067966Y-73627997D01*
X136068710Y-73620111D01*
X136068712Y-73620104D01*
X136066572Y-73552012D01*
X136066510Y-73548054D01*
X136066510Y-73520162D01*
X136066510Y-73520156D01*
X136066003Y-73516147D01*
X136065072Y-73504318D01*
X136064569Y-73488300D01*
X136063684Y-73460123D01*
X136058027Y-73440654D01*
X136054022Y-73421310D01*
X136051484Y-73401215D01*
X136035206Y-73360104D01*
X136031366Y-73348889D01*
X136019028Y-73306419D01*
X136008716Y-73288982D01*
X136000020Y-73271233D01*
X135992562Y-73252395D01*
X135966562Y-73216610D01*
X135960069Y-73206726D01*
X135937552Y-73168650D01*
X135923224Y-73154322D01*
X135910394Y-73139301D01*
X135898482Y-73122905D01*
X135898479Y-73122903D01*
X135898479Y-73122902D01*
X135864404Y-73094712D01*
X135855626Y-73086724D01*
X134472376Y-71703473D01*
X134438350Y-71641161D01*
X134443415Y-71570345D01*
X134485962Y-71513510D01*
X134513254Y-71497969D01*
X134624735Y-71451792D01*
X134624738Y-71451791D01*
X134811890Y-71337102D01*
X134811891Y-71337101D01*
X134065587Y-70590797D01*
X134080315Y-70588680D01*
X134211100Y-70528952D01*
X134319761Y-70434798D01*
X134397493Y-70313844D01*
X134422360Y-70229150D01*
X135171101Y-70977891D01*
G37*
G04 #@! TD.AperFunction*
G04 #@! TA.AperFunction,Conductor*
G36*
X108517723Y-74039197D02*
G01*
X108553708Y-74100398D01*
X108557499Y-74131074D01*
X108557499Y-80151145D01*
X108555750Y-80166987D01*
X108556043Y-80167015D01*
X108555297Y-80174906D01*
X108555297Y-80174908D01*
X108555693Y-80187514D01*
X108557437Y-80242983D01*
X108557499Y-80246942D01*
X108557499Y-80274850D01*
X108557500Y-80274868D01*
X108558006Y-80278876D01*
X108558936Y-80290695D01*
X108560325Y-80334887D01*
X108560326Y-80334892D01*
X108565976Y-80354338D01*
X108569985Y-80373696D01*
X108572524Y-80393792D01*
X108572525Y-80393799D01*
X108588799Y-80434902D01*
X108592643Y-80446128D01*
X108604981Y-80488592D01*
X108615293Y-80506030D01*
X108623987Y-80523778D01*
X108631443Y-80542608D01*
X108631449Y-80542619D01*
X108657431Y-80578380D01*
X108663948Y-80588300D01*
X108686457Y-80626361D01*
X108686458Y-80626362D01*
X108686460Y-80626365D01*
X108700778Y-80640683D01*
X108713616Y-80655713D01*
X108725525Y-80672103D01*
X108725529Y-80672108D01*
X108759591Y-80700286D01*
X108768372Y-80708276D01*
X109434848Y-81374753D01*
X109468873Y-81437065D01*
X109467459Y-81496459D01*
X109450457Y-81559909D01*
X109430502Y-81788000D01*
X109450457Y-82016090D01*
X109467459Y-82079540D01*
X109465769Y-82150516D01*
X109434847Y-82201246D01*
X106037336Y-85598757D01*
X106024901Y-85608721D01*
X106025089Y-85608948D01*
X106018979Y-85614002D01*
X105972370Y-85663635D01*
X105969620Y-85666473D01*
X105949863Y-85686231D01*
X105947374Y-85689439D01*
X105939688Y-85698436D01*
X105909418Y-85730673D01*
X105909411Y-85730683D01*
X105899651Y-85748435D01*
X105888803Y-85764950D01*
X105876386Y-85780958D01*
X105858824Y-85821540D01*
X105853604Y-85832195D01*
X105832305Y-85870939D01*
X105832303Y-85870944D01*
X105827267Y-85890559D01*
X105820864Y-85909262D01*
X105812819Y-85927852D01*
X105805901Y-85971525D01*
X105803495Y-85983142D01*
X105792500Y-86025968D01*
X105792500Y-86046223D01*
X105790949Y-86065933D01*
X105787780Y-86085942D01*
X105791941Y-86129961D01*
X105792500Y-86141819D01*
X105792500Y-89719148D01*
X105790751Y-89734990D01*
X105791044Y-89735018D01*
X105790298Y-89742909D01*
X105792438Y-89810986D01*
X105792500Y-89814945D01*
X105792500Y-89842853D01*
X105792501Y-89842871D01*
X105793007Y-89846879D01*
X105793937Y-89858698D01*
X105795326Y-89902890D01*
X105795327Y-89902895D01*
X105800977Y-89922341D01*
X105804986Y-89941699D01*
X105807525Y-89961795D01*
X105807526Y-89961802D01*
X105823800Y-90002905D01*
X105827644Y-90014131D01*
X105839982Y-90056595D01*
X105850294Y-90074033D01*
X105858988Y-90091781D01*
X105866444Y-90110611D01*
X105866450Y-90110622D01*
X105892432Y-90146383D01*
X105898949Y-90156303D01*
X105921458Y-90194364D01*
X105921459Y-90194365D01*
X105921461Y-90194368D01*
X105935779Y-90208686D01*
X105948617Y-90223716D01*
X105960526Y-90240106D01*
X105960530Y-90240111D01*
X105994598Y-90268294D01*
X106003378Y-90276284D01*
X110712752Y-94985658D01*
X110722719Y-94998098D01*
X110722946Y-94997911D01*
X110727998Y-95004018D01*
X110777665Y-95050658D01*
X110780509Y-95053415D01*
X110800225Y-95073132D01*
X110803422Y-95075612D01*
X110812443Y-95083317D01*
X110844678Y-95113587D01*
X110844679Y-95113587D01*
X110844681Y-95113589D01*
X110862428Y-95123345D01*
X110878958Y-95134203D01*
X110894958Y-95146614D01*
X110935535Y-95164173D01*
X110946186Y-95169391D01*
X110984939Y-95190696D01*
X111004561Y-95195734D01*
X111023262Y-95202136D01*
X111041854Y-95210182D01*
X111085521Y-95217097D01*
X111097124Y-95219499D01*
X111139969Y-95230501D01*
X111160230Y-95230501D01*
X111179938Y-95232051D01*
X111199942Y-95235220D01*
X111243953Y-95231059D01*
X111255810Y-95230501D01*
X114602407Y-95230501D01*
X114670528Y-95250503D01*
X114691502Y-95267406D01*
X114732500Y-95308404D01*
X114766526Y-95370716D01*
X114761461Y-95441531D01*
X114718914Y-95498367D01*
X114652394Y-95523178D01*
X114643405Y-95523499D01*
X108522592Y-95523499D01*
X108454471Y-95503497D01*
X108433497Y-95486594D01*
X103710981Y-90764078D01*
X103676955Y-90701766D01*
X103682020Y-90630951D01*
X103724567Y-90574115D01*
X103746829Y-90560787D01*
X103780499Y-90545087D01*
X103967974Y-90413815D01*
X103967980Y-90413810D01*
X104129810Y-90251980D01*
X104129815Y-90251974D01*
X104261087Y-90064498D01*
X104357811Y-89857073D01*
X104357813Y-89857068D01*
X104410082Y-89662000D01*
X103435686Y-89662000D01*
X103451641Y-89646045D01*
X103509165Y-89533148D01*
X103528986Y-89408000D01*
X103509165Y-89282852D01*
X103451641Y-89169955D01*
X103435686Y-89154000D01*
X104410082Y-89154000D01*
X104357813Y-88958931D01*
X104357811Y-88958926D01*
X104261087Y-88751501D01*
X104129815Y-88564025D01*
X104129810Y-88564019D01*
X103967980Y-88402189D01*
X103967974Y-88402184D01*
X103780497Y-88270911D01*
X103740949Y-88252469D01*
X103687665Y-88205551D01*
X103668205Y-88137273D01*
X103688748Y-88069314D01*
X103740950Y-88024081D01*
X103780749Y-88005523D01*
X103968300Y-87874198D01*
X104130198Y-87712300D01*
X104261523Y-87524749D01*
X104358284Y-87317243D01*
X104417543Y-87096087D01*
X104437498Y-86868000D01*
X104417543Y-86639913D01*
X104400540Y-86576458D01*
X104402229Y-86505483D01*
X104433149Y-86454754D01*
X104951661Y-85936242D01*
X104964099Y-85926279D01*
X104963911Y-85926052D01*
X104970017Y-85921000D01*
X104970016Y-85921000D01*
X104970019Y-85920999D01*
X105016663Y-85871326D01*
X105019353Y-85868550D01*
X105039136Y-85848769D01*
X105041615Y-85845572D01*
X105049312Y-85836558D01*
X105079587Y-85804320D01*
X105089347Y-85786564D01*
X105100196Y-85770049D01*
X105112615Y-85754040D01*
X105130180Y-85713445D01*
X105135385Y-85702820D01*
X105156696Y-85664059D01*
X105161734Y-85644433D01*
X105168138Y-85625731D01*
X105175401Y-85608948D01*
X105176182Y-85607144D01*
X105183097Y-85563480D01*
X105185505Y-85551851D01*
X105196501Y-85509029D01*
X105196501Y-85488774D01*
X105198052Y-85469062D01*
X105201221Y-85449056D01*
X105197060Y-85405035D01*
X105196501Y-85393178D01*
X105196501Y-74701783D01*
X105216503Y-74633662D01*
X105270159Y-74587169D01*
X105340433Y-74577065D01*
X105375746Y-74587586D01*
X105488757Y-74640284D01*
X105709913Y-74699543D01*
X105938000Y-74719498D01*
X106166087Y-74699543D01*
X106387243Y-74640284D01*
X106509750Y-74583157D01*
X106579941Y-74572496D01*
X106616248Y-74583157D01*
X106738757Y-74640284D01*
X106959913Y-74699543D01*
X107188000Y-74719498D01*
X107416087Y-74699543D01*
X107637243Y-74640284D01*
X107844749Y-74543523D01*
X108032300Y-74412198D01*
X108194198Y-74250300D01*
X108325523Y-74062749D01*
X108325523Y-74062748D01*
X108328286Y-74058803D01*
X108383743Y-74014475D01*
X108454362Y-74007166D01*
X108517723Y-74039197D01*
G37*
G04 #@! TD.AperFunction*
G04 #@! TA.AperFunction,Conductor*
G36*
X143944359Y-82565955D02*
G01*
X143886835Y-82678852D01*
X143867014Y-82804000D01*
X143886835Y-82929148D01*
X143944359Y-83042045D01*
X143960314Y-83058000D01*
X142985918Y-83058000D01*
X143038186Y-83253068D01*
X143038188Y-83253073D01*
X143134912Y-83460498D01*
X143266184Y-83647974D01*
X143266189Y-83647980D01*
X143428019Y-83809810D01*
X143428025Y-83809815D01*
X143615503Y-83941089D01*
X143655641Y-83959806D01*
X143708925Y-84006723D01*
X143728386Y-84075000D01*
X143707844Y-84142960D01*
X143655641Y-84188194D01*
X143615503Y-84206910D01*
X143428025Y-84338184D01*
X143428019Y-84338189D01*
X143266189Y-84500019D01*
X143266184Y-84500025D01*
X143134912Y-84687501D01*
X143038188Y-84894926D01*
X143038186Y-84894931D01*
X142985917Y-85090000D01*
X143960314Y-85090000D01*
X143944359Y-85105955D01*
X143886835Y-85218852D01*
X143867014Y-85344000D01*
X143886835Y-85469148D01*
X143944359Y-85582045D01*
X143960314Y-85598000D01*
X142985918Y-85598000D01*
X143038186Y-85793068D01*
X143038188Y-85793073D01*
X143134912Y-86000498D01*
X143266184Y-86187974D01*
X143266189Y-86187980D01*
X143428019Y-86349810D01*
X143428025Y-86349815D01*
X143615503Y-86481089D01*
X143655641Y-86499806D01*
X143708925Y-86546723D01*
X143728386Y-86615000D01*
X143707844Y-86682960D01*
X143655641Y-86728194D01*
X143615503Y-86746910D01*
X143428025Y-86878184D01*
X143428019Y-86878189D01*
X143266189Y-87040019D01*
X143266184Y-87040025D01*
X143134912Y-87227501D01*
X143038188Y-87434926D01*
X143038186Y-87434931D01*
X142985917Y-87630000D01*
X143960314Y-87630000D01*
X143944359Y-87645955D01*
X143886835Y-87758852D01*
X143867014Y-87884000D01*
X143886835Y-88009148D01*
X143944359Y-88122045D01*
X143960314Y-88138000D01*
X142985918Y-88138000D01*
X143038186Y-88333068D01*
X143038188Y-88333073D01*
X143134912Y-88540498D01*
X143266184Y-88727974D01*
X143266189Y-88727980D01*
X143428019Y-88889810D01*
X143428025Y-88889815D01*
X143615501Y-89021087D01*
X143822926Y-89117811D01*
X143822931Y-89117813D01*
X144018000Y-89170081D01*
X144018000Y-88195686D01*
X144033955Y-88211641D01*
X144146852Y-88269165D01*
X144240519Y-88284000D01*
X144303481Y-88284000D01*
X144397148Y-88269165D01*
X144510045Y-88211641D01*
X144526000Y-88195686D01*
X144526000Y-89221904D01*
X144505998Y-89290025D01*
X144489095Y-89310999D01*
X142471594Y-91328500D01*
X142409282Y-91362526D01*
X142338467Y-91357461D01*
X142281631Y-91314914D01*
X142256820Y-91248394D01*
X142256499Y-91239405D01*
X142256499Y-83227595D01*
X142276501Y-83159474D01*
X142293398Y-83138505D01*
X142845000Y-82586903D01*
X142907310Y-82552880D01*
X142934093Y-82550000D01*
X143960314Y-82550000D01*
X143944359Y-82565955D01*
G37*
G04 #@! TD.AperFunction*
G04 #@! TA.AperFunction,Conductor*
G36*
X142456457Y-60204539D02*
G01*
X142519913Y-60221543D01*
X142748000Y-60241498D01*
X142976087Y-60221543D01*
X143039541Y-60204540D01*
X143110516Y-60206228D01*
X143161247Y-60237151D01*
X151565715Y-68641619D01*
X151599741Y-68703931D01*
X151594676Y-68774746D01*
X151552129Y-68831582D01*
X151509232Y-68852420D01*
X151442939Y-68870183D01*
X151442926Y-68870188D01*
X151235501Y-68966912D01*
X151048025Y-69098184D01*
X151048019Y-69098189D01*
X150886189Y-69260019D01*
X150886184Y-69260025D01*
X150754912Y-69447501D01*
X150658188Y-69654926D01*
X150658186Y-69654931D01*
X150605917Y-69850000D01*
X151580314Y-69850000D01*
X151564359Y-69865955D01*
X151506835Y-69978852D01*
X151487014Y-70104000D01*
X151506835Y-70229148D01*
X151564359Y-70342045D01*
X151580314Y-70358000D01*
X150605918Y-70358000D01*
X150658186Y-70553068D01*
X150658188Y-70553073D01*
X150754912Y-70760498D01*
X150886184Y-70947974D01*
X150886189Y-70947980D01*
X151048019Y-71109810D01*
X151048025Y-71109815D01*
X151235503Y-71241089D01*
X151275049Y-71259530D01*
X151328334Y-71306447D01*
X151347794Y-71374724D01*
X151327252Y-71442684D01*
X151275049Y-71487918D01*
X151235252Y-71506475D01*
X151047703Y-71637799D01*
X150896059Y-71789443D01*
X150833747Y-71823468D01*
X150762931Y-71818403D01*
X150706096Y-71775856D01*
X150698511Y-71764488D01*
X150689700Y-71749589D01*
X150681005Y-71731839D01*
X150673552Y-71713013D01*
X150647563Y-71677242D01*
X150641052Y-71667330D01*
X150618542Y-71629268D01*
X150604214Y-71614940D01*
X150591384Y-71599919D01*
X150579472Y-71583523D01*
X150579469Y-71583521D01*
X150579469Y-71583520D01*
X150545394Y-71555330D01*
X150536616Y-71547342D01*
X144132614Y-65143339D01*
X144122649Y-65130901D01*
X144122422Y-65131090D01*
X144117371Y-65124984D01*
X144117370Y-65124982D01*
X144067718Y-65078356D01*
X144064875Y-65075600D01*
X144045147Y-65055871D01*
X144045141Y-65055866D01*
X144041937Y-65053380D01*
X144032926Y-65045683D01*
X144000695Y-65015417D01*
X144000689Y-65015413D01*
X143982933Y-65005651D01*
X143966417Y-64994802D01*
X143950411Y-64982386D01*
X143909834Y-64964827D01*
X143899177Y-64959605D01*
X143860433Y-64938306D01*
X143860430Y-64938305D01*
X143840806Y-64933266D01*
X143822106Y-64926864D01*
X143817981Y-64925079D01*
X143803515Y-64918819D01*
X143803513Y-64918818D01*
X143803511Y-64918818D01*
X143759844Y-64911901D01*
X143748225Y-64909495D01*
X143705396Y-64898499D01*
X143697607Y-64897515D01*
X143632530Y-64869132D01*
X143610187Y-64844780D01*
X143500200Y-64687703D01*
X143500195Y-64687697D01*
X143338302Y-64525804D01*
X143338296Y-64525799D01*
X143150749Y-64394477D01*
X142943246Y-64297717D01*
X142943240Y-64297715D01*
X142849771Y-64272670D01*
X142722087Y-64238457D01*
X142494000Y-64218502D01*
X142265913Y-64238457D01*
X142044759Y-64297715D01*
X142044753Y-64297717D01*
X141837250Y-64394477D01*
X141649703Y-64525799D01*
X141649697Y-64525804D01*
X141487804Y-64687697D01*
X141487799Y-64687703D01*
X141356477Y-64875250D01*
X141259717Y-65082753D01*
X141259715Y-65082759D01*
X141217460Y-65240457D01*
X141200457Y-65303913D01*
X141180502Y-65532000D01*
X141200457Y-65760087D01*
X141217459Y-65823538D01*
X141259715Y-65981240D01*
X141259717Y-65981246D01*
X141356477Y-66188749D01*
X141487492Y-66375858D01*
X141487802Y-66376300D01*
X141649700Y-66538198D01*
X141837251Y-66669523D01*
X142044757Y-66766284D01*
X142265913Y-66825543D01*
X142494000Y-66845498D01*
X142722087Y-66825543D01*
X142943243Y-66766284D01*
X143150749Y-66669523D01*
X143338300Y-66538198D01*
X143447887Y-66428611D01*
X143510199Y-66394585D01*
X143581014Y-66399650D01*
X143626077Y-66428611D01*
X149443595Y-72246129D01*
X149477621Y-72308441D01*
X149480500Y-72335224D01*
X149480500Y-80942146D01*
X149478751Y-80957988D01*
X149479044Y-80958016D01*
X149478298Y-80965907D01*
X149480438Y-81033984D01*
X149480500Y-81037943D01*
X149480500Y-81065851D01*
X149480501Y-81065869D01*
X149481007Y-81069877D01*
X149481937Y-81081696D01*
X149483326Y-81125888D01*
X149483327Y-81125893D01*
X149488977Y-81145339D01*
X149492986Y-81164697D01*
X149495525Y-81184793D01*
X149495526Y-81184800D01*
X149511800Y-81225903D01*
X149515644Y-81237129D01*
X149527982Y-81279593D01*
X149538294Y-81297031D01*
X149546988Y-81314779D01*
X149554444Y-81333609D01*
X149554450Y-81333620D01*
X149580432Y-81369381D01*
X149586949Y-81379301D01*
X149609458Y-81417362D01*
X149609459Y-81417363D01*
X149609461Y-81417366D01*
X149623779Y-81431684D01*
X149636617Y-81446714D01*
X149648526Y-81463104D01*
X149648530Y-81463109D01*
X149682598Y-81491292D01*
X149691378Y-81499282D01*
X150582847Y-82390751D01*
X150616873Y-82453063D01*
X150615459Y-82512456D01*
X150598458Y-82575907D01*
X150598457Y-82575910D01*
X150598457Y-82575913D01*
X150586974Y-82707166D01*
X150578502Y-82804000D01*
X150598457Y-83032090D01*
X150615459Y-83095541D01*
X150613769Y-83166518D01*
X150582847Y-83217247D01*
X145698998Y-88101095D01*
X145636686Y-88135121D01*
X145609903Y-88138000D01*
X144583686Y-88138000D01*
X144599641Y-88122045D01*
X144657165Y-88009148D01*
X144676986Y-87884000D01*
X144657165Y-87758852D01*
X144599641Y-87645955D01*
X144583686Y-87630000D01*
X145558082Y-87630000D01*
X145505813Y-87434931D01*
X145505811Y-87434926D01*
X145409087Y-87227501D01*
X145277815Y-87040025D01*
X145277810Y-87040019D01*
X145115980Y-86878189D01*
X145115974Y-86878184D01*
X144928498Y-86746912D01*
X144888359Y-86728195D01*
X144835074Y-86681278D01*
X144815613Y-86613001D01*
X144836155Y-86545041D01*
X144888359Y-86499805D01*
X144928498Y-86481087D01*
X145115974Y-86349815D01*
X145115980Y-86349810D01*
X145277810Y-86187980D01*
X145277815Y-86187974D01*
X145409087Y-86000498D01*
X145505811Y-85793073D01*
X145505813Y-85793068D01*
X145558082Y-85598000D01*
X144583686Y-85598000D01*
X144599641Y-85582045D01*
X144657165Y-85469148D01*
X144676986Y-85344000D01*
X144657165Y-85218852D01*
X144599641Y-85105955D01*
X144583686Y-85090000D01*
X145558082Y-85090000D01*
X145505813Y-84894931D01*
X145505811Y-84894926D01*
X145409087Y-84687501D01*
X145277815Y-84500025D01*
X145277810Y-84500019D01*
X145115980Y-84338189D01*
X145115974Y-84338184D01*
X144928498Y-84206912D01*
X144888359Y-84188195D01*
X144835074Y-84141278D01*
X144815613Y-84073001D01*
X144836155Y-84005041D01*
X144888359Y-83959805D01*
X144928498Y-83941087D01*
X145115974Y-83809815D01*
X145115980Y-83809810D01*
X145277810Y-83647980D01*
X145277815Y-83647974D01*
X145409087Y-83460498D01*
X145505811Y-83253073D01*
X145505813Y-83253068D01*
X145558082Y-83058000D01*
X144583686Y-83058000D01*
X144599641Y-83042045D01*
X144657165Y-82929148D01*
X144676986Y-82804000D01*
X144657165Y-82678852D01*
X144599641Y-82565955D01*
X144583686Y-82550000D01*
X145558082Y-82550000D01*
X145505813Y-82354931D01*
X145505811Y-82354926D01*
X145409087Y-82147501D01*
X145277815Y-81960025D01*
X145277810Y-81960019D01*
X145115980Y-81798189D01*
X145115974Y-81798184D01*
X144928497Y-81666911D01*
X144888949Y-81648469D01*
X144835665Y-81601551D01*
X144816205Y-81533273D01*
X144836748Y-81465314D01*
X144888950Y-81420081D01*
X144928749Y-81401523D01*
X145116300Y-81270198D01*
X145278198Y-81108300D01*
X145409523Y-80920749D01*
X145506284Y-80713243D01*
X145565543Y-80492087D01*
X145585498Y-80264000D01*
X145565543Y-80035913D01*
X145506284Y-79814757D01*
X145409523Y-79607251D01*
X145278198Y-79419700D01*
X145116300Y-79257802D01*
X145111611Y-79254519D01*
X145053998Y-79214177D01*
X144928749Y-79126477D01*
X144895916Y-79111167D01*
X144889543Y-79108195D01*
X144836258Y-79061279D01*
X144816796Y-78993002D01*
X144837337Y-78925042D01*
X144889543Y-78879805D01*
X144891997Y-78878660D01*
X144928749Y-78861523D01*
X145116300Y-78730198D01*
X145278198Y-78568300D01*
X145409523Y-78380749D01*
X145506284Y-78173243D01*
X145565543Y-77952087D01*
X145585498Y-77724000D01*
X145565543Y-77495913D01*
X145506284Y-77274757D01*
X145409523Y-77067251D01*
X145278198Y-76879700D01*
X145116300Y-76717802D01*
X144928749Y-76586477D01*
X144889543Y-76568195D01*
X144836258Y-76521279D01*
X144816796Y-76453002D01*
X144837337Y-76385042D01*
X144889543Y-76339805D01*
X144891997Y-76338660D01*
X144928749Y-76321523D01*
X145116300Y-76190198D01*
X145278198Y-76028300D01*
X145409523Y-75840749D01*
X145506284Y-75633243D01*
X145565543Y-75412087D01*
X145585498Y-75184000D01*
X145565543Y-74955913D01*
X145506284Y-74734757D01*
X145409523Y-74527251D01*
X145278198Y-74339700D01*
X145116300Y-74177802D01*
X145111611Y-74174519D01*
X145049566Y-74131074D01*
X144928749Y-74046477D01*
X144925935Y-74045165D01*
X144889543Y-74028195D01*
X144836258Y-73981279D01*
X144816796Y-73913002D01*
X144837337Y-73845042D01*
X144889543Y-73799805D01*
X144891997Y-73798660D01*
X144928749Y-73781523D01*
X145116300Y-73650198D01*
X145278198Y-73488300D01*
X145409523Y-73300749D01*
X145506284Y-73093243D01*
X145565543Y-72872087D01*
X145585498Y-72644000D01*
X145565543Y-72415913D01*
X145506284Y-72194757D01*
X145409523Y-71987251D01*
X145278198Y-71799700D01*
X145116300Y-71637802D01*
X145116295Y-71637799D01*
X145116292Y-71637796D01*
X145112995Y-71635487D01*
X145068669Y-71580028D01*
X145061363Y-71509409D01*
X145093396Y-71446049D01*
X145154599Y-71410067D01*
X145171801Y-71406999D01*
X145181201Y-71405989D01*
X145318204Y-71354889D01*
X145318640Y-71354563D01*
X145435261Y-71267261D01*
X145522887Y-71150207D01*
X145522887Y-71150206D01*
X145522889Y-71150204D01*
X145573989Y-71013201D01*
X145574270Y-71010592D01*
X145580499Y-70952649D01*
X145580500Y-70952632D01*
X145580500Y-69255367D01*
X145580499Y-69255350D01*
X145573990Y-69194803D01*
X145573988Y-69194795D01*
X145537953Y-69098184D01*
X145522889Y-69057796D01*
X145522888Y-69057794D01*
X145522887Y-69057792D01*
X145435261Y-68940738D01*
X145318207Y-68853112D01*
X145318202Y-68853110D01*
X145181204Y-68802011D01*
X145181196Y-68802009D01*
X145120649Y-68795500D01*
X145120638Y-68795500D01*
X143423362Y-68795500D01*
X143423350Y-68795500D01*
X143362803Y-68802009D01*
X143362795Y-68802011D01*
X143225797Y-68853110D01*
X143225792Y-68853112D01*
X143108738Y-68940738D01*
X143021112Y-69057792D01*
X143021110Y-69057797D01*
X142970011Y-69194795D01*
X142970009Y-69194803D01*
X142963500Y-69255350D01*
X142963500Y-70952649D01*
X142970009Y-71013196D01*
X142970011Y-71013204D01*
X143021110Y-71150202D01*
X143021112Y-71150207D01*
X143108738Y-71267261D01*
X143225792Y-71354887D01*
X143225794Y-71354888D01*
X143225796Y-71354889D01*
X143292137Y-71379633D01*
X143350822Y-71401522D01*
X143362799Y-71405989D01*
X143372191Y-71406998D01*
X143437784Y-71434163D01*
X143478279Y-71492479D01*
X143480817Y-71563430D01*
X143444593Y-71624490D01*
X143431010Y-71635483D01*
X143427708Y-71637795D01*
X143427697Y-71637804D01*
X143265804Y-71799697D01*
X143265799Y-71799703D01*
X143134477Y-71987250D01*
X143037717Y-72194753D01*
X143037715Y-72194759D01*
X142991576Y-72366951D01*
X142978457Y-72415913D01*
X142958502Y-72644000D01*
X142978457Y-72872087D01*
X143001145Y-72956759D01*
X143037715Y-73093240D01*
X143037717Y-73093246D01*
X143134477Y-73300749D01*
X143265799Y-73488296D01*
X143265804Y-73488302D01*
X143312908Y-73535406D01*
X143346934Y-73597718D01*
X143341869Y-73668533D01*
X143299322Y-73725369D01*
X143232802Y-73750180D01*
X143223813Y-73750501D01*
X140947593Y-73750501D01*
X140879472Y-73730499D01*
X140858498Y-73713596D01*
X138972497Y-71827595D01*
X138938471Y-71765283D01*
X138943536Y-71694468D01*
X138986083Y-71637632D01*
X139052603Y-71612821D01*
X139061592Y-71612500D01*
X139986632Y-71612500D01*
X139986638Y-71612500D01*
X139986645Y-71612499D01*
X139986649Y-71612499D01*
X140047196Y-71605990D01*
X140047199Y-71605989D01*
X140047201Y-71605989D01*
X140184204Y-71554889D01*
X140188661Y-71551553D01*
X140301261Y-71467261D01*
X140388887Y-71350207D01*
X140388887Y-71350206D01*
X140388889Y-71350204D01*
X140439989Y-71213201D01*
X140440284Y-71210465D01*
X140446499Y-71152649D01*
X140446500Y-71152632D01*
X140446500Y-69055367D01*
X140446499Y-69055350D01*
X140439990Y-68994803D01*
X140439988Y-68994795D01*
X140406101Y-68903942D01*
X140388889Y-68857796D01*
X140388888Y-68857794D01*
X140388887Y-68857792D01*
X140301261Y-68740738D01*
X140184207Y-68653112D01*
X140184202Y-68653110D01*
X140047204Y-68602011D01*
X140047196Y-68602009D01*
X139986649Y-68595500D01*
X139986638Y-68595500D01*
X137889362Y-68595500D01*
X137889350Y-68595500D01*
X137828803Y-68602009D01*
X137828795Y-68602011D01*
X137691797Y-68653110D01*
X137691792Y-68653112D01*
X137574738Y-68740738D01*
X137487112Y-68857792D01*
X137487110Y-68857797D01*
X137436011Y-68994795D01*
X137436009Y-68994803D01*
X137429500Y-69055350D01*
X137429500Y-69980407D01*
X137409498Y-70048528D01*
X137355842Y-70095021D01*
X137285568Y-70105125D01*
X137220988Y-70075631D01*
X137214405Y-70069502D01*
X130210405Y-63065502D01*
X130176379Y-63003190D01*
X130173500Y-62976407D01*
X130173500Y-62941393D01*
X130193502Y-62873272D01*
X130227230Y-62838180D01*
X130288880Y-62795012D01*
X130384300Y-62728198D01*
X130546198Y-62566300D01*
X130677523Y-62378749D01*
X130774284Y-62171243D01*
X130833543Y-61950087D01*
X130853498Y-61722000D01*
X130833543Y-61493913D01*
X130774284Y-61272757D01*
X130677523Y-61065251D01*
X130546198Y-60877700D01*
X130384300Y-60715802D01*
X130384296Y-60715799D01*
X130205654Y-60590712D01*
X130161326Y-60535255D01*
X130154017Y-60464635D01*
X130186048Y-60401275D01*
X130247249Y-60365290D01*
X130277925Y-60361499D01*
X138962075Y-60361499D01*
X139030196Y-60381501D01*
X139076689Y-60435157D01*
X139086793Y-60505431D01*
X139057299Y-60570011D01*
X139034346Y-60590712D01*
X138855703Y-60715799D01*
X138855697Y-60715804D01*
X138693804Y-60877697D01*
X138693799Y-60877703D01*
X138562477Y-61065250D01*
X138465717Y-61272753D01*
X138465715Y-61272759D01*
X138410227Y-61479845D01*
X138406457Y-61493913D01*
X138386502Y-61722000D01*
X138406457Y-61950087D01*
X138418615Y-61995460D01*
X138465715Y-62171240D01*
X138465717Y-62171246D01*
X138562477Y-62378749D01*
X138692812Y-62564887D01*
X138693802Y-62566300D01*
X138855700Y-62728198D01*
X139043251Y-62859523D01*
X139250757Y-62956284D01*
X139471913Y-63015543D01*
X139700000Y-63035498D01*
X139928087Y-63015543D01*
X140149243Y-62956284D01*
X140356749Y-62859523D01*
X140544300Y-62728198D01*
X140706198Y-62566300D01*
X140837523Y-62378749D01*
X140906885Y-62230000D01*
X141434502Y-62230000D01*
X141454457Y-62458087D01*
X141472175Y-62524210D01*
X141513715Y-62679240D01*
X141513717Y-62679246D01*
X141610477Y-62886749D01*
X141735641Y-63065502D01*
X141741802Y-63074300D01*
X141903700Y-63236198D01*
X142091251Y-63367523D01*
X142298757Y-63464284D01*
X142519913Y-63523543D01*
X142748000Y-63543498D01*
X142976087Y-63523543D01*
X143197243Y-63464284D01*
X143404749Y-63367523D01*
X143592300Y-63236198D01*
X143754198Y-63074300D01*
X143885523Y-62886749D01*
X143982284Y-62679243D01*
X144041543Y-62458087D01*
X144061498Y-62230000D01*
X144041543Y-62001913D01*
X143982284Y-61780757D01*
X143885523Y-61573251D01*
X143754198Y-61385700D01*
X143592300Y-61223802D01*
X143578301Y-61214000D01*
X143404749Y-61092477D01*
X143197246Y-60995717D01*
X143197240Y-60995715D01*
X143103771Y-60970670D01*
X142976087Y-60936457D01*
X142748000Y-60916502D01*
X142519913Y-60936457D01*
X142298759Y-60995715D01*
X142298753Y-60995717D01*
X142091250Y-61092477D01*
X141903703Y-61223799D01*
X141903697Y-61223804D01*
X141741804Y-61385697D01*
X141741799Y-61385703D01*
X141610477Y-61573250D01*
X141513717Y-61780753D01*
X141513715Y-61780759D01*
X141467248Y-61954178D01*
X141454457Y-62001913D01*
X141434502Y-62230000D01*
X140906885Y-62230000D01*
X140934284Y-62171243D01*
X140993543Y-61950087D01*
X141013498Y-61722000D01*
X140993543Y-61493913D01*
X140934284Y-61272757D01*
X140837523Y-61065251D01*
X140706198Y-60877700D01*
X140544300Y-60715802D01*
X140544296Y-60715799D01*
X140365654Y-60590712D01*
X140321326Y-60535255D01*
X140314017Y-60464635D01*
X140346048Y-60401275D01*
X140407249Y-60365290D01*
X140437925Y-60361499D01*
X141864148Y-60361499D01*
X141879989Y-60363248D01*
X141880017Y-60362955D01*
X141887903Y-60363699D01*
X141887910Y-60363701D01*
X141955987Y-60361561D01*
X141959946Y-60361499D01*
X141987852Y-60361499D01*
X141987857Y-60361499D01*
X141991868Y-60360991D01*
X142003700Y-60360060D01*
X142047890Y-60358672D01*
X142067348Y-60353018D01*
X142086695Y-60349012D01*
X142106798Y-60346473D01*
X142147911Y-60330194D01*
X142159131Y-60326352D01*
X142183914Y-60319153D01*
X142201592Y-60314018D01*
X142201596Y-60314016D01*
X142219027Y-60303707D01*
X142236781Y-60295008D01*
X142255618Y-60287551D01*
X142291393Y-60261557D01*
X142301299Y-60255050D01*
X142339363Y-60232541D01*
X142339372Y-60232531D01*
X142345625Y-60227683D01*
X142347555Y-60230171D01*
X142397002Y-60203140D01*
X142456457Y-60204539D01*
G37*
G04 #@! TD.AperFunction*
G04 #@! TA.AperFunction,Conductor*
G36*
X144526000Y-87572314D02*
G01*
X144510045Y-87556359D01*
X144397148Y-87498835D01*
X144303481Y-87484000D01*
X144240519Y-87484000D01*
X144146852Y-87498835D01*
X144033955Y-87556359D01*
X144018000Y-87572314D01*
X144018000Y-85655686D01*
X144033955Y-85671641D01*
X144146852Y-85729165D01*
X144240519Y-85744000D01*
X144303481Y-85744000D01*
X144397148Y-85729165D01*
X144510045Y-85671641D01*
X144526000Y-85655686D01*
X144526000Y-87572314D01*
G37*
G04 #@! TD.AperFunction*
G04 #@! TA.AperFunction,Conductor*
G36*
X152146000Y-87572314D02*
G01*
X152130045Y-87556359D01*
X152017148Y-87498835D01*
X151923481Y-87484000D01*
X151860519Y-87484000D01*
X151766852Y-87498835D01*
X151653955Y-87556359D01*
X151638000Y-87572314D01*
X151638000Y-85655686D01*
X151653955Y-85671641D01*
X151766852Y-85729165D01*
X151860519Y-85744000D01*
X151923481Y-85744000D01*
X152017148Y-85729165D01*
X152130045Y-85671641D01*
X152146000Y-85655686D01*
X152146000Y-87572314D01*
G37*
G04 #@! TD.AperFunction*
G04 #@! TA.AperFunction,Conductor*
G36*
X144526000Y-85032314D02*
G01*
X144510045Y-85016359D01*
X144397148Y-84958835D01*
X144303481Y-84944000D01*
X144240519Y-84944000D01*
X144146852Y-84958835D01*
X144033955Y-85016359D01*
X144018000Y-85032314D01*
X144018000Y-83115686D01*
X144033955Y-83131641D01*
X144146852Y-83189165D01*
X144240519Y-83204000D01*
X144303481Y-83204000D01*
X144397148Y-83189165D01*
X144510045Y-83131641D01*
X144526000Y-83115686D01*
X144526000Y-85032314D01*
G37*
G04 #@! TD.AperFunction*
G04 #@! TA.AperFunction,Conductor*
G36*
X130431449Y-70031616D02*
G01*
X130477515Y-70085638D01*
X130488490Y-70137070D01*
X130488490Y-72225814D01*
X130468488Y-72293935D01*
X130414832Y-72340428D01*
X130351510Y-72351335D01*
X130302000Y-72347004D01*
X130073997Y-72366951D01*
X129852931Y-72426186D01*
X129852926Y-72426188D01*
X129645500Y-72522913D01*
X129574109Y-72572899D01*
X130262483Y-73261272D01*
X130176852Y-73274835D01*
X130063955Y-73332359D01*
X129974359Y-73421955D01*
X129916835Y-73534852D01*
X129903272Y-73620481D01*
X129214900Y-72932109D01*
X129164913Y-73003500D01*
X129068188Y-73210926D01*
X129068186Y-73210931D01*
X129008951Y-73431997D01*
X128989004Y-73660000D01*
X129008951Y-73888002D01*
X129068186Y-74109068D01*
X129068188Y-74109073D01*
X129164913Y-74316501D01*
X129214899Y-74387888D01*
X129903272Y-73699516D01*
X129916835Y-73785148D01*
X129974359Y-73898045D01*
X130063955Y-73987641D01*
X130176852Y-74045165D01*
X130262482Y-74058727D01*
X129574110Y-74747098D01*
X129574110Y-74747100D01*
X129645498Y-74797086D01*
X129852926Y-74893811D01*
X129852931Y-74893813D01*
X130073999Y-74953048D01*
X130073995Y-74953048D01*
X130302000Y-74972995D01*
X130530002Y-74953048D01*
X130751068Y-74893813D01*
X130751073Y-74893811D01*
X130958497Y-74797088D01*
X131029888Y-74747099D01*
X131029888Y-74747097D01*
X130341518Y-74058727D01*
X130427148Y-74045165D01*
X130540045Y-73987641D01*
X130629641Y-73898045D01*
X130687165Y-73785148D01*
X130700727Y-73699517D01*
X131389097Y-74387888D01*
X131389098Y-74387888D01*
X131439087Y-74316497D01*
X131454786Y-74282829D01*
X131501702Y-74229542D01*
X131569979Y-74210079D01*
X131637939Y-74230619D01*
X131658078Y-74246980D01*
X134312595Y-76901497D01*
X134346621Y-76963809D01*
X134349500Y-76990592D01*
X134349500Y-77860832D01*
X134329498Y-77928953D01*
X134275842Y-77975446D01*
X134205568Y-77985550D01*
X134190891Y-77982539D01*
X134086087Y-77954457D01*
X133858000Y-77934502D01*
X133629913Y-77954457D01*
X133408759Y-78013715D01*
X133408749Y-78013719D01*
X133286249Y-78070841D01*
X133216058Y-78081502D01*
X133179751Y-78070841D01*
X133057250Y-78013719D01*
X133057246Y-78013717D01*
X133057243Y-78013716D01*
X133057241Y-78013715D01*
X133057240Y-78013715D01*
X132914418Y-77975446D01*
X132836087Y-77954457D01*
X132608000Y-77934502D01*
X132379913Y-77954457D01*
X132158759Y-78013715D01*
X132158753Y-78013717D01*
X131951250Y-78110477D01*
X131763703Y-78241799D01*
X131763697Y-78241804D01*
X131601804Y-78403697D01*
X131601799Y-78403703D01*
X131470474Y-78591253D01*
X131467726Y-78596015D01*
X131465761Y-78594880D01*
X131425255Y-78640865D01*
X131356974Y-78660312D01*
X131289018Y-78639756D01*
X131250168Y-78594921D01*
X131248274Y-78596015D01*
X131245525Y-78591253D01*
X131114200Y-78403703D01*
X131114195Y-78403697D01*
X130952302Y-78241804D01*
X130952296Y-78241799D01*
X130764749Y-78110477D01*
X130557246Y-78013717D01*
X130557240Y-78013715D01*
X130414418Y-77975446D01*
X130336087Y-77954457D01*
X130108000Y-77934502D01*
X129879913Y-77954457D01*
X129658759Y-78013715D01*
X129658749Y-78013719D01*
X129536249Y-78070841D01*
X129466058Y-78081502D01*
X129429751Y-78070841D01*
X129307250Y-78013719D01*
X129307246Y-78013717D01*
X129307243Y-78013716D01*
X129307241Y-78013715D01*
X129307240Y-78013715D01*
X129164418Y-77975446D01*
X129086087Y-77954457D01*
X128858000Y-77934502D01*
X128629913Y-77954457D01*
X128408759Y-78013715D01*
X128408753Y-78013717D01*
X128201250Y-78110477D01*
X128013703Y-78241799D01*
X128013697Y-78241804D01*
X127851804Y-78403697D01*
X127851799Y-78403703D01*
X127720477Y-78591250D01*
X127623717Y-78798753D01*
X127623715Y-78798759D01*
X127565092Y-79017542D01*
X127564457Y-79019913D01*
X127544502Y-79248000D01*
X127564457Y-79476087D01*
X127592030Y-79578990D01*
X127623715Y-79697240D01*
X127623717Y-79697246D01*
X127720477Y-79904749D01*
X127838314Y-80073038D01*
X127851802Y-80092300D01*
X128013700Y-80254198D01*
X128201251Y-80385523D01*
X128408757Y-80482284D01*
X128629913Y-80541543D01*
X128858000Y-80561498D01*
X129086087Y-80541543D01*
X129307243Y-80482284D01*
X129429750Y-80425157D01*
X129499941Y-80414496D01*
X129536248Y-80425157D01*
X129658757Y-80482284D01*
X129879913Y-80541543D01*
X130108000Y-80561498D01*
X130336087Y-80541543D01*
X130557243Y-80482284D01*
X130764749Y-80385523D01*
X130952300Y-80254198D01*
X131114198Y-80092300D01*
X131245523Y-79904749D01*
X131245523Y-79904748D01*
X131245525Y-79904746D01*
X131248274Y-79899985D01*
X131250245Y-79901122D01*
X131290713Y-79855154D01*
X131358989Y-79835687D01*
X131426951Y-79856223D01*
X131465822Y-79901083D01*
X131467726Y-79899985D01*
X131470474Y-79904746D01*
X131599517Y-80089037D01*
X131601802Y-80092300D01*
X131763700Y-80254198D01*
X131951251Y-80385523D01*
X132158757Y-80482284D01*
X132379913Y-80541543D01*
X132608000Y-80561498D01*
X132836087Y-80541543D01*
X133057243Y-80482284D01*
X133057246Y-80482282D01*
X133061424Y-80481163D01*
X133132400Y-80482853D01*
X133191196Y-80522647D01*
X133219144Y-80587911D01*
X133207371Y-80657925D01*
X133183130Y-80691965D01*
X129092501Y-84782596D01*
X129030189Y-84816621D01*
X129003406Y-84819501D01*
X128652736Y-84819501D01*
X128584615Y-84799499D01*
X128538122Y-84745843D01*
X128528018Y-84675569D01*
X128557512Y-84610989D01*
X128580465Y-84590288D01*
X128582981Y-84588525D01*
X128606300Y-84572198D01*
X128768198Y-84410300D01*
X128899523Y-84222749D01*
X128996284Y-84015243D01*
X129055543Y-83794087D01*
X129075498Y-83566000D01*
X129055543Y-83337913D01*
X128996284Y-83116757D01*
X128899523Y-82909251D01*
X128768198Y-82721700D01*
X128606300Y-82559802D01*
X128596414Y-82552880D01*
X128418749Y-82428477D01*
X128211246Y-82331717D01*
X128211240Y-82331715D01*
X128065048Y-82292543D01*
X127990087Y-82272457D01*
X127762000Y-82252502D01*
X127533913Y-82272457D01*
X127312759Y-82331715D01*
X127312753Y-82331717D01*
X127105250Y-82428477D01*
X126917703Y-82559799D01*
X126917697Y-82559804D01*
X126755804Y-82721697D01*
X126755799Y-82721703D01*
X126624477Y-82909250D01*
X126527717Y-83116753D01*
X126527715Y-83116759D01*
X126498017Y-83227595D01*
X126468457Y-83337913D01*
X126448502Y-83566000D01*
X126468457Y-83794087D01*
X126491145Y-83878759D01*
X126527715Y-84015240D01*
X126527717Y-84015246D01*
X126554649Y-84073001D01*
X126624477Y-84222749D01*
X126755802Y-84410300D01*
X126917700Y-84572198D01*
X126917703Y-84572200D01*
X126943535Y-84590288D01*
X126987863Y-84645745D01*
X126995172Y-84716364D01*
X126963141Y-84779725D01*
X126901940Y-84815710D01*
X126871264Y-84819501D01*
X121021168Y-84819501D01*
X120953047Y-84799499D01*
X120906554Y-84745843D01*
X120896450Y-84675569D01*
X120899461Y-84660890D01*
X120910541Y-84619538D01*
X120927543Y-84556087D01*
X120947498Y-84328000D01*
X120927543Y-84099913D01*
X120868284Y-83878757D01*
X120771523Y-83671251D01*
X120640198Y-83483700D01*
X120478300Y-83321802D01*
X120290749Y-83190477D01*
X120251543Y-83172195D01*
X120083246Y-83093717D01*
X120083240Y-83093715D01*
X119946225Y-83057002D01*
X119862087Y-83034457D01*
X119634000Y-83014502D01*
X119405913Y-83034457D01*
X119184759Y-83093715D01*
X119184749Y-83093719D01*
X119062249Y-83150841D01*
X118992058Y-83161502D01*
X118955751Y-83150841D01*
X118833250Y-83093719D01*
X118833246Y-83093717D01*
X118833243Y-83093716D01*
X118833241Y-83093715D01*
X118833240Y-83093715D01*
X118696225Y-83057002D01*
X118612087Y-83034457D01*
X118384000Y-83014502D01*
X118155913Y-83034457D01*
X117934759Y-83093715D01*
X117934753Y-83093717D01*
X117727250Y-83190477D01*
X117539703Y-83321799D01*
X117539697Y-83321804D01*
X117377804Y-83483697D01*
X117377799Y-83483703D01*
X117246474Y-83671253D01*
X117243726Y-83676015D01*
X117241761Y-83674880D01*
X117201255Y-83720865D01*
X117132974Y-83740312D01*
X117065018Y-83719756D01*
X117026168Y-83674921D01*
X117024274Y-83676015D01*
X117021525Y-83671253D01*
X116890200Y-83483703D01*
X116890195Y-83483697D01*
X116728302Y-83321804D01*
X116728296Y-83321799D01*
X116540749Y-83190477D01*
X116333246Y-83093717D01*
X116333240Y-83093715D01*
X116196225Y-83057002D01*
X116112087Y-83034457D01*
X115884000Y-83014502D01*
X115655913Y-83034457D01*
X115434759Y-83093715D01*
X115434749Y-83093719D01*
X115312249Y-83150841D01*
X115242058Y-83161502D01*
X115205751Y-83150841D01*
X115083250Y-83093719D01*
X115083246Y-83093717D01*
X115083243Y-83093716D01*
X115083241Y-83093715D01*
X115083240Y-83093715D01*
X114946225Y-83057002D01*
X114862087Y-83034457D01*
X114634000Y-83014502D01*
X114405913Y-83034457D01*
X114184759Y-83093715D01*
X114184753Y-83093717D01*
X113977250Y-83190477D01*
X113789703Y-83321799D01*
X113789697Y-83321804D01*
X113627804Y-83483697D01*
X113627799Y-83483703D01*
X113496477Y-83671250D01*
X113399717Y-83878753D01*
X113399715Y-83878759D01*
X113350693Y-84061712D01*
X113340457Y-84099913D01*
X113320502Y-84328000D01*
X113340457Y-84556087D01*
X113349621Y-84590288D01*
X113368539Y-84660890D01*
X113366849Y-84731867D01*
X113327055Y-84790662D01*
X113261790Y-84818610D01*
X113246832Y-84819501D01*
X112183596Y-84819501D01*
X112115475Y-84799499D01*
X112094501Y-84782596D01*
X112053151Y-84741246D01*
X112019125Y-84678934D01*
X112020539Y-84619541D01*
X112037543Y-84556087D01*
X112057498Y-84328000D01*
X112037543Y-84099913D01*
X111978284Y-83878757D01*
X111881523Y-83671251D01*
X111750198Y-83483700D01*
X111588300Y-83321802D01*
X111400749Y-83190477D01*
X111397935Y-83189165D01*
X111361543Y-83172195D01*
X111308258Y-83125279D01*
X111288796Y-83057002D01*
X111309337Y-82989042D01*
X111361543Y-82943805D01*
X111363997Y-82942660D01*
X111400749Y-82925523D01*
X111588300Y-82794198D01*
X111750198Y-82632300D01*
X111839029Y-82505437D01*
X111860181Y-82475229D01*
X111915638Y-82430901D01*
X111963394Y-82421500D01*
X119804147Y-82421500D01*
X119819988Y-82423249D01*
X119820016Y-82422956D01*
X119827902Y-82423700D01*
X119827909Y-82423702D01*
X119895986Y-82421562D01*
X119899945Y-82421500D01*
X119927851Y-82421500D01*
X119927856Y-82421500D01*
X119931867Y-82420992D01*
X119943699Y-82420061D01*
X119987889Y-82418673D01*
X120007347Y-82413019D01*
X120026694Y-82409013D01*
X120046797Y-82406474D01*
X120048606Y-82405758D01*
X120060497Y-82401049D01*
X120087910Y-82390195D01*
X120099130Y-82386353D01*
X120123913Y-82379154D01*
X120141591Y-82374019D01*
X120141595Y-82374017D01*
X120159026Y-82363708D01*
X120176780Y-82355009D01*
X120195617Y-82347552D01*
X120231392Y-82321558D01*
X120241298Y-82315051D01*
X120279362Y-82292542D01*
X120293685Y-82278218D01*
X120308724Y-82265374D01*
X120325107Y-82253472D01*
X120353303Y-82219386D01*
X120361272Y-82210630D01*
X122142891Y-80429011D01*
X122205201Y-80394987D01*
X122255133Y-80394253D01*
X122320649Y-80406500D01*
X122320652Y-80406500D01*
X122409341Y-80406500D01*
X122477462Y-80426502D01*
X122523955Y-80480158D01*
X122534802Y-80520870D01*
X122544593Y-80626518D01*
X122554347Y-80731789D01*
X122613100Y-80938283D01*
X122613103Y-80938291D01*
X122708804Y-81130484D01*
X122814311Y-81270198D01*
X122838191Y-81301821D01*
X122996854Y-81446462D01*
X122996856Y-81446463D01*
X122996857Y-81446464D01*
X123179400Y-81559489D01*
X123287973Y-81601551D01*
X123379598Y-81637047D01*
X123379603Y-81637049D01*
X123590649Y-81676500D01*
X123590651Y-81676500D01*
X123805349Y-81676500D01*
X123805351Y-81676500D01*
X124016397Y-81637049D01*
X124216600Y-81559489D01*
X124399143Y-81446464D01*
X124557810Y-81301820D01*
X124687196Y-81130484D01*
X124782897Y-80938291D01*
X124841653Y-80731786D01*
X124861196Y-80520871D01*
X124887398Y-80454890D01*
X124945115Y-80413546D01*
X124986659Y-80406500D01*
X125666632Y-80406500D01*
X125666638Y-80406500D01*
X125666645Y-80406499D01*
X125666649Y-80406499D01*
X125727196Y-80399990D01*
X125727199Y-80399989D01*
X125727201Y-80399989D01*
X125864204Y-80348889D01*
X125882909Y-80334887D01*
X125981261Y-80261261D01*
X126068887Y-80144207D01*
X126068887Y-80144206D01*
X126068889Y-80144204D01*
X126119989Y-80007201D01*
X126126092Y-79950438D01*
X126126499Y-79946649D01*
X126126500Y-79946632D01*
X126126500Y-78549367D01*
X126126499Y-78549350D01*
X126119990Y-78488803D01*
X126119988Y-78488795D01*
X126090924Y-78410875D01*
X126068889Y-78351796D01*
X126068887Y-78351793D01*
X126068887Y-78351792D01*
X125981261Y-78234738D01*
X125864207Y-78147112D01*
X125864202Y-78147110D01*
X125727204Y-78096011D01*
X125727196Y-78096009D01*
X125666649Y-78089500D01*
X125666638Y-78089500D01*
X125627438Y-78089500D01*
X125559317Y-78069498D01*
X125525502Y-78037561D01*
X125501564Y-78004613D01*
X125495052Y-77994700D01*
X125472542Y-77956638D01*
X125458214Y-77942310D01*
X125445384Y-77927289D01*
X125433472Y-77910893D01*
X125433469Y-77910891D01*
X125433469Y-77910890D01*
X125399394Y-77882700D01*
X125390616Y-77874712D01*
X122024500Y-74508595D01*
X121990474Y-74446283D01*
X121995539Y-74375467D01*
X122038086Y-74318632D01*
X122104606Y-74293821D01*
X122113595Y-74293500D01*
X124884147Y-74293500D01*
X124899988Y-74295249D01*
X124900016Y-74294956D01*
X124907902Y-74295700D01*
X124907909Y-74295702D01*
X124975986Y-74293562D01*
X124979945Y-74293500D01*
X125007851Y-74293500D01*
X125007856Y-74293500D01*
X125011867Y-74292992D01*
X125023699Y-74292061D01*
X125067889Y-74290673D01*
X125087347Y-74285019D01*
X125106694Y-74281013D01*
X125126797Y-74278474D01*
X125167910Y-74262195D01*
X125179130Y-74258353D01*
X125206854Y-74250300D01*
X125221591Y-74246019D01*
X125221595Y-74246017D01*
X125239026Y-74235708D01*
X125256780Y-74227009D01*
X125275617Y-74219552D01*
X125311392Y-74193558D01*
X125321298Y-74187051D01*
X125359362Y-74164542D01*
X125373685Y-74150218D01*
X125388724Y-74137374D01*
X125405107Y-74125472D01*
X125433303Y-74091386D01*
X125441272Y-74082630D01*
X128618754Y-70905149D01*
X128681064Y-70871125D01*
X128740457Y-70872539D01*
X128803913Y-70889543D01*
X129032000Y-70909498D01*
X129260087Y-70889543D01*
X129481243Y-70830284D01*
X129688749Y-70733523D01*
X129876300Y-70602198D01*
X130038198Y-70440300D01*
X130169523Y-70252749D01*
X130248295Y-70083821D01*
X130295212Y-70030535D01*
X130363489Y-70011074D01*
X130431449Y-70031616D01*
G37*
G04 #@! TD.AperFunction*
G04 #@! TA.AperFunction,Conductor*
G36*
X103027769Y-63528342D02*
G01*
X103082579Y-63573468D01*
X103088921Y-63583857D01*
X103089110Y-63584204D01*
X103176738Y-63701261D01*
X103293792Y-63788887D01*
X103293794Y-63788888D01*
X103293796Y-63788889D01*
X103347045Y-63808750D01*
X103430795Y-63839988D01*
X103430803Y-63839990D01*
X103491350Y-63846499D01*
X103491355Y-63846499D01*
X103491362Y-63846500D01*
X104251501Y-63846500D01*
X104319622Y-63866502D01*
X104366115Y-63920158D01*
X104377501Y-63972500D01*
X104377501Y-67447349D01*
X104357499Y-67515470D01*
X104303843Y-67561963D01*
X104233569Y-67572067D01*
X104218890Y-67569056D01*
X104114000Y-67540951D01*
X104114004Y-67540951D01*
X103886000Y-67521004D01*
X103657997Y-67540951D01*
X103436931Y-67600186D01*
X103436926Y-67600188D01*
X103229500Y-67696913D01*
X103158109Y-67746899D01*
X103846483Y-68435272D01*
X103760852Y-68448835D01*
X103647955Y-68506359D01*
X103558359Y-68595955D01*
X103500835Y-68708852D01*
X103487272Y-68794481D01*
X102798900Y-68106109D01*
X102748913Y-68177500D01*
X102652188Y-68384926D01*
X102652186Y-68384931D01*
X102592951Y-68605997D01*
X102573004Y-68834000D01*
X102592951Y-69062002D01*
X102652186Y-69283068D01*
X102652188Y-69283073D01*
X102748913Y-69490501D01*
X102798899Y-69561888D01*
X103487272Y-68873516D01*
X103500835Y-68959148D01*
X103558359Y-69072045D01*
X103647955Y-69161641D01*
X103760852Y-69219165D01*
X103846480Y-69232726D01*
X103158110Y-69921097D01*
X103158110Y-69921100D01*
X103229498Y-69971086D01*
X103436926Y-70067811D01*
X103436931Y-70067813D01*
X103657999Y-70127048D01*
X103657995Y-70127048D01*
X103814482Y-70140738D01*
X103880600Y-70166601D01*
X103922240Y-70224105D01*
X103929501Y-70266259D01*
X103929501Y-72018832D01*
X103909499Y-72086953D01*
X103855843Y-72133446D01*
X103785569Y-72143550D01*
X103770890Y-72140539D01*
X103729539Y-72129459D01*
X103666087Y-72112457D01*
X103438000Y-72092502D01*
X103209913Y-72112457D01*
X102988759Y-72171715D01*
X102988752Y-72171717D01*
X102974734Y-72178254D01*
X102904542Y-72188911D01*
X102839730Y-72159928D01*
X102804339Y-72110442D01*
X102790193Y-72074714D01*
X102786353Y-72063499D01*
X102774018Y-72021037D01*
X102763705Y-72003599D01*
X102755010Y-71985852D01*
X102747552Y-71967013D01*
X102721568Y-71931250D01*
X102715051Y-71921329D01*
X102692541Y-71883265D01*
X102678218Y-71868942D01*
X102665377Y-71853909D01*
X102653471Y-71837522D01*
X102619405Y-71809340D01*
X102610626Y-71801351D01*
X101885404Y-71076129D01*
X101851378Y-71013817D01*
X101848499Y-70987034D01*
X101848499Y-63962946D01*
X101868501Y-63894825D01*
X101922157Y-63848332D01*
X101992431Y-63838228D01*
X101997653Y-63839092D01*
X102037280Y-63846500D01*
X102037282Y-63846500D01*
X102242715Y-63846500D01*
X102242718Y-63846500D01*
X102444655Y-63808751D01*
X102636218Y-63734540D01*
X102810882Y-63626392D01*
X102810884Y-63626389D01*
X102810887Y-63626388D01*
X102893446Y-63551125D01*
X102957262Y-63520013D01*
X103027769Y-63528342D01*
G37*
G04 #@! TD.AperFunction*
G04 #@! TA.AperFunction,Conductor*
G36*
X128858485Y-63403583D02*
G01*
X128915321Y-63446130D01*
X128931606Y-63475258D01*
X128937801Y-63490906D01*
X128941644Y-63502131D01*
X128953982Y-63544595D01*
X128964294Y-63562033D01*
X128972988Y-63579781D01*
X128980444Y-63598611D01*
X128980450Y-63598622D01*
X129006432Y-63634383D01*
X129012949Y-63644303D01*
X129035458Y-63682364D01*
X129035459Y-63682365D01*
X129035461Y-63682368D01*
X129049779Y-63696686D01*
X129062617Y-63711716D01*
X129074526Y-63728106D01*
X129074530Y-63728111D01*
X129108598Y-63756294D01*
X129117378Y-63764284D01*
X133753300Y-68400206D01*
X133787326Y-68462518D01*
X133782261Y-68533333D01*
X133739714Y-68590169D01*
X133693620Y-68611820D01*
X133470561Y-68665372D01*
X133251266Y-68756206D01*
X133064108Y-68870897D01*
X133064108Y-68870898D01*
X133810412Y-69617202D01*
X133795685Y-69619320D01*
X133664900Y-69679048D01*
X133556239Y-69773202D01*
X133478507Y-69894156D01*
X133453639Y-69978849D01*
X132704898Y-69230108D01*
X132704897Y-69230108D01*
X132590206Y-69417266D01*
X132544030Y-69528746D01*
X132499481Y-69584027D01*
X132432118Y-69606448D01*
X132363327Y-69588890D01*
X132338526Y-69569623D01*
X132242405Y-69473502D01*
X132208379Y-69411190D01*
X132205500Y-69384407D01*
X132205500Y-68917853D01*
X132207249Y-68902011D01*
X132206956Y-68901984D01*
X132207702Y-68894091D01*
X132205562Y-68826000D01*
X132205500Y-68822042D01*
X132205500Y-68794150D01*
X132205500Y-68794144D01*
X132204993Y-68790135D01*
X132204062Y-68778306D01*
X132202674Y-68734111D01*
X132197017Y-68714642D01*
X132193012Y-68695298D01*
X132190474Y-68675203D01*
X132174196Y-68634092D01*
X132170356Y-68622877D01*
X132158018Y-68580407D01*
X132147706Y-68562970D01*
X132139010Y-68545221D01*
X132131552Y-68526383D01*
X132105552Y-68490598D01*
X132099059Y-68480714D01*
X132076542Y-68442638D01*
X132062214Y-68428310D01*
X132049384Y-68413289D01*
X132037472Y-68396893D01*
X132037469Y-68396891D01*
X132037469Y-68396890D01*
X132003394Y-68368700D01*
X131994616Y-68360712D01*
X129833151Y-66199246D01*
X129799125Y-66136934D01*
X129800539Y-66077541D01*
X129817543Y-66014087D01*
X129837498Y-65786000D01*
X129817543Y-65557913D01*
X129758284Y-65336757D01*
X129661523Y-65129251D01*
X129530198Y-64941700D01*
X129368300Y-64779802D01*
X129180749Y-64648477D01*
X129120720Y-64620485D01*
X128973246Y-64551717D01*
X128973240Y-64551715D01*
X128856890Y-64520539D01*
X128752087Y-64492457D01*
X128524000Y-64472502D01*
X128295913Y-64492457D01*
X128074759Y-64551715D01*
X128074753Y-64551717D01*
X127867251Y-64648476D01*
X127853405Y-64658172D01*
X127786131Y-64680859D01*
X127717270Y-64663573D01*
X127668687Y-64611803D01*
X127655805Y-64541985D01*
X127682714Y-64476286D01*
X127692040Y-64465863D01*
X128202642Y-63955261D01*
X128725360Y-63432542D01*
X128787670Y-63398519D01*
X128858485Y-63403583D01*
G37*
G04 #@! TD.AperFunction*
M02*
