G04 #@! TF.GenerationSoftware,KiCad,Pcbnew,7.0.11+dfsg-1build4*
G04 #@! TF.CreationDate,2026-01-25T21:38:33-05:00*
G04 #@! TF.ProjectId,Envelope-01-mutronv,456e7665-6c6f-4706-952d-30312d6d7574,rev?*
G04 #@! TF.SameCoordinates,Original*
G04 #@! TF.FileFunction,Copper,L1,Top*
G04 #@! TF.FilePolarity,Positive*
%FSLAX46Y46*%
G04 Gerber Fmt 4.6, Leading zero omitted, Abs format (unit mm)*
G04 Created by KiCad (PCBNEW 7.0.11+dfsg-1build4) date 2026-01-25 21:38:33*
%MOMM*%
%LPD*%
G01*
G04 APERTURE LIST*
G04 #@! TA.AperFunction,ComponentPad*
%ADD10C,1.600000*%
G04 #@! TD*
G04 #@! TA.AperFunction,ComponentPad*
%ADD11R,2.000000X2.000000*%
G04 #@! TD*
G04 #@! TA.AperFunction,ComponentPad*
%ADD12C,2.000000*%
G04 #@! TD*
G04 #@! TA.AperFunction,ComponentPad*
%ADD13R,1.200000X1.200000*%
G04 #@! TD*
G04 #@! TA.AperFunction,ComponentPad*
%ADD14C,1.200000*%
G04 #@! TD*
G04 #@! TA.AperFunction,ComponentPad*
%ADD15R,1.800000X1.800000*%
G04 #@! TD*
G04 #@! TA.AperFunction,ComponentPad*
%ADD16O,1.800000X1.800000*%
G04 #@! TD*
G04 #@! TA.AperFunction,ComponentPad*
%ADD17R,1.700000X1.700000*%
G04 #@! TD*
G04 #@! TA.AperFunction,ComponentPad*
%ADD18O,1.700000X1.700000*%
G04 #@! TD*
G04 #@! TA.AperFunction,ComponentPad*
%ADD19R,1.300000X1.300000*%
G04 #@! TD*
G04 #@! TA.AperFunction,ComponentPad*
%ADD20C,1.300000*%
G04 #@! TD*
G04 #@! TA.AperFunction,ComponentPad*
%ADD21O,1.600000X1.600000*%
G04 #@! TD*
G04 #@! TA.AperFunction,ComponentPad*
%ADD22C,2.340000*%
G04 #@! TD*
G04 #@! TA.AperFunction,ComponentPad*
%ADD23R,1.600000X1.600000*%
G04 #@! TD*
G04 #@! TA.AperFunction,ViaPad*
%ADD24C,0.800000*%
G04 #@! TD*
G04 #@! TA.AperFunction,Conductor*
%ADD25C,0.250000*%
G04 #@! TD*
G04 APERTURE END LIST*
D10*
X133858000Y-79248000D03*
X132608000Y-79248000D03*
X130108000Y-79248000D03*
X128858000Y-79248000D03*
D11*
X138938000Y-94488000D03*
D12*
X133938000Y-94488000D03*
D10*
X115316000Y-56896000D03*
X110316000Y-56896000D03*
D11*
X138938000Y-70104000D03*
D12*
X133938000Y-70104000D03*
D13*
X108966000Y-62992000D03*
D14*
X106966000Y-62992000D03*
D10*
X114066000Y-73406000D03*
X115316000Y-73406000D03*
X110316000Y-73406000D03*
X111566000Y-73406000D03*
X103612000Y-56896000D03*
X102362000Y-56896000D03*
X107362000Y-56896000D03*
X106112000Y-56896000D03*
X105938000Y-73406000D03*
X107188000Y-73406000D03*
X102188000Y-73406000D03*
X103438000Y-73406000D03*
D13*
X104140000Y-62738000D03*
D14*
X102140000Y-62738000D03*
D10*
X118384000Y-84328000D03*
X119634000Y-84328000D03*
X115884000Y-84328000D03*
X114634000Y-84328000D03*
X108224000Y-97282000D03*
X109474000Y-97282000D03*
X105724000Y-97282000D03*
X104474000Y-97282000D03*
X119634000Y-88646000D03*
X118384000Y-88646000D03*
X114634000Y-88646000D03*
X115884000Y-88646000D03*
D14*
X117570000Y-78740000D03*
D13*
X115570000Y-78740000D03*
D15*
X127000000Y-56896000D03*
D16*
X119380000Y-56896000D03*
D15*
X119126000Y-61214000D03*
D16*
X126746000Y-61214000D03*
D17*
X129286000Y-98806000D03*
D18*
X126746000Y-98806000D03*
X124206000Y-98806000D03*
X121666000Y-98806000D03*
X119126000Y-98806000D03*
D19*
X124968000Y-79248000D03*
D20*
X123698000Y-80518000D03*
X122428000Y-79248000D03*
D19*
X135890000Y-57150000D03*
D20*
X137160000Y-55880000D03*
X138430000Y-57150000D03*
D10*
X127762000Y-83566000D03*
D21*
X137922000Y-83566000D03*
D10*
X152908000Y-55626000D03*
D21*
X142748000Y-55626000D03*
D10*
X152908000Y-98044000D03*
D21*
X142748000Y-98044000D03*
D10*
X103886000Y-68834000D03*
D21*
X114046000Y-68834000D03*
D10*
X129032000Y-69596000D03*
D21*
X118872000Y-69596000D03*
D10*
X130302000Y-73660000D03*
D21*
X120142000Y-73660000D03*
D10*
X128524000Y-65786000D03*
D21*
X118364000Y-65786000D03*
D10*
X139700000Y-61722000D03*
D21*
X129540000Y-61722000D03*
D10*
X152908000Y-62230000D03*
D21*
X142748000Y-62230000D03*
D10*
X111760000Y-93472000D03*
D21*
X101600000Y-93472000D03*
D10*
X152908000Y-52324000D03*
D21*
X142748000Y-52324000D03*
D10*
X152908000Y-93980000D03*
D21*
X142748000Y-93980000D03*
D10*
X124460000Y-93472000D03*
D21*
X114300000Y-93472000D03*
D10*
X112014000Y-77724000D03*
D21*
X101854000Y-77724000D03*
D10*
X138176000Y-87122000D03*
D21*
X128016000Y-87122000D03*
D22*
X133096000Y-52324000D03*
X128096000Y-52324000D03*
X123096000Y-52324000D03*
D23*
X103124000Y-81788000D03*
D21*
X103124000Y-84328000D03*
X103124000Y-86868000D03*
X103124000Y-89408000D03*
X110744000Y-89408000D03*
X110744000Y-86868000D03*
X110744000Y-84328000D03*
X110744000Y-81788000D03*
D23*
X144272000Y-70104000D03*
D21*
X144272000Y-72644000D03*
X144272000Y-75184000D03*
X144272000Y-77724000D03*
X144272000Y-80264000D03*
X144272000Y-82804000D03*
X144272000Y-85344000D03*
X144272000Y-87884000D03*
X151892000Y-87884000D03*
X151892000Y-85344000D03*
X151892000Y-82804000D03*
X151892000Y-80264000D03*
X151892000Y-77724000D03*
X151892000Y-75184000D03*
X151892000Y-72644000D03*
X151892000Y-70104000D03*
D10*
X152908000Y-58928000D03*
D21*
X142748000Y-58928000D03*
D10*
X152654000Y-65532000D03*
D21*
X142494000Y-65532000D03*
D10*
X112522000Y-52832000D03*
D21*
X102362000Y-52832000D03*
D19*
X115062000Y-62738000D03*
D20*
X113792000Y-64008000D03*
X112522000Y-62738000D03*
D24*
X108712000Y-52578000D03*
D25*
X130108000Y-92904000D02*
X130108000Y-79248000D01*
X130108000Y-79248000D02*
X128858000Y-79248000D01*
X124206000Y-98806000D02*
X130108000Y-92904000D01*
X133858000Y-79502000D02*
X133858000Y-79248000D01*
X137922000Y-83566000D02*
X133858000Y-79502000D01*
X133858000Y-79248000D02*
X132608000Y-79248000D01*
X138176000Y-87122000D02*
X143510000Y-87122000D01*
X129286000Y-97706000D02*
X132504000Y-94488000D01*
X103124000Y-97597002D02*
X105507999Y-99981001D01*
X151892000Y-75184000D02*
X153017001Y-74058999D01*
X100728999Y-87012999D02*
X100728999Y-71991001D01*
X132504000Y-94488000D02*
X132777787Y-94488000D01*
X151892000Y-87884000D02*
X151892000Y-85344000D01*
X153814999Y-99169001D02*
X154033001Y-98950999D01*
X152691999Y-81063999D02*
X151892000Y-80264000D01*
X152691999Y-75983999D02*
X151892000Y-75184000D01*
X153017001Y-76309001D02*
X152691999Y-75983999D01*
X143472001Y-86143999D02*
X144272000Y-85344000D01*
X151892000Y-80264000D02*
X153017001Y-79138999D01*
X103124000Y-89408000D02*
X100728999Y-87012999D01*
X134192000Y-94488000D02*
X134192000Y-95902213D01*
X153017001Y-81389001D02*
X152691999Y-81063999D01*
X151892000Y-70104000D02*
X151892000Y-68972630D01*
X125896001Y-99655999D02*
X126746000Y-98806000D01*
X134192000Y-94488000D02*
X138176000Y-90504000D01*
X151892000Y-85344000D02*
X153017001Y-84218999D01*
X110998000Y-68834000D02*
X112123001Y-69959001D01*
X152691999Y-88683999D02*
X151892000Y-87884000D01*
X143472001Y-87084001D02*
X143472001Y-86143999D01*
X103086001Y-69633999D02*
X103886000Y-68834000D01*
X130302000Y-73660000D02*
X130302000Y-74168000D01*
X153017001Y-79138999D02*
X153017001Y-76309001D01*
X130382000Y-73660000D02*
X130302000Y-73660000D01*
X126746000Y-98806000D02*
X129286000Y-98806000D01*
X154033001Y-66831629D02*
X154033001Y-60053001D01*
X144272000Y-87884000D02*
X143472001Y-87084001D01*
X144272000Y-84212630D02*
X144272000Y-82804000D01*
X103886000Y-68834000D02*
X110998000Y-68834000D01*
X154033001Y-98950999D02*
X154033001Y-90025001D01*
X114698999Y-69959001D02*
X116332000Y-68326000D01*
X154033001Y-90025001D02*
X152691999Y-88683999D01*
X154033001Y-60053001D02*
X153707999Y-59727999D01*
X105507999Y-99981001D02*
X125570999Y-99981001D01*
X153707999Y-59727999D02*
X152908000Y-58928000D01*
X138176000Y-90504000D02*
X138176000Y-87122000D01*
X153017001Y-71229001D02*
X152691999Y-70903999D01*
X144272000Y-85344000D02*
X144272000Y-84212630D01*
X112123001Y-69959001D02*
X114698999Y-69959001D01*
X139047001Y-85119629D02*
X139047001Y-82405001D01*
X152691999Y-70903999D02*
X151892000Y-70104000D01*
X134192000Y-95902213D02*
X137458788Y-99169001D01*
X132777787Y-94488000D02*
X134192000Y-94488000D01*
X153017001Y-74058999D02*
X153017001Y-71229001D01*
X131101999Y-74459999D02*
X130302000Y-73660000D01*
X125570999Y-99981001D02*
X125896001Y-99655999D01*
X139047001Y-82405001D02*
X131101999Y-74459999D01*
X143510000Y-87122000D02*
X144272000Y-87884000D01*
X151892000Y-68972630D02*
X154033001Y-66831629D01*
X153017001Y-84218999D02*
X153017001Y-81389001D01*
X138176000Y-87122000D02*
X138176000Y-85990630D01*
X103124000Y-89408000D02*
X103124000Y-97597002D01*
X137458788Y-99169001D02*
X153814999Y-99169001D01*
X129286000Y-98806000D02*
X129286000Y-97706000D01*
X116332000Y-68326000D02*
X116332000Y-60198000D01*
X100728999Y-71991001D02*
X103086001Y-69633999D01*
X133938000Y-70104000D02*
X130382000Y-73660000D01*
X116332000Y-60198000D02*
X108712000Y-52578000D01*
X138176000Y-85990630D02*
X139047001Y-85119629D01*
X142748000Y-98044000D02*
X142748000Y-96912630D01*
X139192000Y-94488000D02*
X142240000Y-94488000D01*
X142748000Y-96912630D02*
X142748000Y-93980000D01*
X142240000Y-94488000D02*
X142748000Y-93980000D01*
X108224000Y-97282000D02*
X109474000Y-97282000D01*
X152108001Y-56425999D02*
X152908000Y-55626000D01*
X129032000Y-69596000D02*
X136906000Y-61722000D01*
X136906000Y-61722000D02*
X139700000Y-61722000D01*
X104255370Y-86868000D02*
X103124000Y-86868000D01*
X109474000Y-97282000D02*
X109474000Y-95758000D01*
X115062000Y-61642000D02*
X115062000Y-62738000D01*
X110744000Y-89408000D02*
X108204000Y-86868000D01*
X138938000Y-62484000D02*
X139700000Y-61722000D01*
X139700000Y-61722000D02*
X141333001Y-63355001D01*
X144272000Y-77724000D02*
X138938000Y-72390000D01*
X104140000Y-58868000D02*
X106112000Y-56896000D01*
X109474000Y-95758000D02*
X111760000Y-93472000D01*
X110744000Y-92456000D02*
X110744000Y-89408000D01*
X152908000Y-52324000D02*
X152908000Y-53455370D01*
X138938000Y-70104000D02*
X138938000Y-62484000D01*
X145178999Y-63355001D02*
X152108001Y-56425999D01*
X138938000Y-72390000D02*
X138938000Y-70104000D01*
X110316000Y-56896000D02*
X115062000Y-61642000D01*
X111760000Y-93472000D02*
X110744000Y-92456000D01*
X141333001Y-63355001D02*
X145178999Y-63355001D01*
X108204000Y-86868000D02*
X104255370Y-86868000D01*
X104140000Y-62738000D02*
X104140000Y-58868000D01*
X152908000Y-53455370D02*
X152908000Y-55626000D01*
X107362000Y-56896000D02*
X110316000Y-56896000D01*
X106112000Y-56896000D02*
X107362000Y-56896000D01*
X124714000Y-80518000D02*
X123698000Y-80518000D01*
X117238999Y-59950369D02*
X117238999Y-66326001D01*
X117238999Y-66326001D02*
X123698000Y-72785002D01*
X127762000Y-83566000D02*
X124714000Y-80518000D01*
X123698000Y-79598762D02*
X123698000Y-80518000D01*
X123698000Y-72785002D02*
X123698000Y-79598762D01*
X115316000Y-56896000D02*
X115316000Y-58027370D01*
X115316000Y-58027370D02*
X117238999Y-59950369D01*
X111566000Y-73406000D02*
X110316000Y-73406000D01*
X107565999Y-63591999D02*
X106966000Y-62992000D01*
X107188000Y-73406000D02*
X110316000Y-73406000D01*
X105938000Y-73406000D02*
X107188000Y-73406000D01*
X113246001Y-68034001D02*
X112008001Y-68034001D01*
X112008001Y-68034001D02*
X107565999Y-63591999D01*
X114046000Y-68834000D02*
X113246001Y-68034001D01*
X101562001Y-53631999D02*
X102362000Y-52832000D01*
X103065001Y-59264003D02*
X101236999Y-57436001D01*
X106521999Y-62066999D02*
X104925997Y-63663001D01*
X101236999Y-53957001D02*
X101562001Y-53631999D01*
X108966000Y-62142000D02*
X108890999Y-62066999D01*
X103065001Y-63448003D02*
X103065001Y-59264003D01*
X101236999Y-57436001D02*
X101236999Y-53957001D01*
X108890999Y-62066999D02*
X106521999Y-62066999D01*
X103279999Y-63663001D02*
X103065001Y-63448003D01*
X108966000Y-62992000D02*
X108966000Y-62142000D01*
X104925997Y-63663001D02*
X103279999Y-63663001D01*
X118872000Y-69850000D02*
X118872000Y-69596000D01*
X114066000Y-73406000D02*
X115316000Y-73406000D01*
X116115999Y-74205999D02*
X115316000Y-73406000D01*
X115316000Y-73406000D02*
X118872000Y-69850000D01*
X118384000Y-83196630D02*
X116495001Y-81307631D01*
X119634000Y-84328000D02*
X124460000Y-89154000D01*
X118384000Y-84328000D02*
X119634000Y-84328000D01*
X116495001Y-81307631D02*
X116495001Y-74585001D01*
X118384000Y-84328000D02*
X118384000Y-83196630D01*
X124460000Y-89154000D02*
X124460000Y-93472000D01*
X116495001Y-74585001D02*
X116115999Y-74205999D01*
X102188000Y-73406000D02*
X103438000Y-73406000D01*
X112014000Y-77724000D02*
X107756000Y-77724000D01*
X107756000Y-77724000D02*
X103438000Y-73406000D01*
X102362000Y-56896000D02*
X103612000Y-56896000D01*
X100278989Y-87199399D02*
X100278989Y-64599011D01*
X142748000Y-62230000D02*
X141622999Y-61104999D01*
X100278989Y-64599011D02*
X101540001Y-63337999D01*
X138603002Y-55880000D02*
X138079238Y-55880000D01*
X138079238Y-55880000D02*
X137160000Y-55880000D01*
X101600000Y-93472000D02*
X101600000Y-88520410D01*
X101600000Y-88520410D02*
X100278989Y-87199399D01*
X141622999Y-58899997D02*
X138603002Y-55880000D01*
X101540001Y-63337999D02*
X102140000Y-62738000D01*
X141622999Y-61104999D02*
X141622999Y-58899997D01*
X114634000Y-81708000D02*
X115570000Y-80772000D01*
X113834001Y-83528001D02*
X114634000Y-84328000D01*
X113508999Y-83202999D02*
X113834001Y-83528001D01*
X114634000Y-84328000D02*
X114634000Y-81708000D01*
X114634000Y-84328000D02*
X115884000Y-84328000D01*
X105588999Y-83202999D02*
X113508999Y-83202999D01*
X103124000Y-81788000D02*
X104174000Y-81788000D01*
X115570000Y-80772000D02*
X115570000Y-78740000D01*
X114634000Y-88646000D02*
X115884000Y-88646000D01*
X114300000Y-93472000D02*
X114300000Y-88980000D01*
X114634000Y-84328000D02*
X114634000Y-88646000D01*
X104174000Y-81788000D02*
X105588999Y-83202999D01*
X114300000Y-88980000D02*
X114634000Y-88646000D01*
X118384000Y-88646000D02*
X118384000Y-91053002D01*
X102583999Y-87993001D02*
X101998999Y-87408001D01*
X104474000Y-97282000D02*
X105724000Y-97282000D01*
X102324001Y-85127999D02*
X103124000Y-84328000D01*
X101998999Y-85453001D02*
X102324001Y-85127999D01*
X106849001Y-98407001D02*
X106523999Y-98081999D01*
X104474000Y-97282000D02*
X104474000Y-89092998D01*
X111030001Y-98407001D02*
X106849001Y-98407001D01*
X118384000Y-88646000D02*
X119634000Y-88646000D01*
X106523999Y-98081999D02*
X105724000Y-97282000D01*
X101854000Y-77724000D02*
X101854000Y-83058000D01*
X118384000Y-91053002D02*
X111030001Y-98407001D01*
X101854000Y-83058000D02*
X103124000Y-84328000D01*
X104474000Y-89092998D02*
X103374003Y-87993001D01*
X101998999Y-87408001D02*
X101998999Y-85453001D01*
X103374003Y-87993001D02*
X102583999Y-87993001D01*
X121666000Y-98806000D02*
X128016000Y-92456000D01*
X128016000Y-87122000D02*
X125952000Y-87122000D01*
X125952000Y-87122000D02*
X117570000Y-78740000D01*
X128016000Y-92456000D02*
X128016000Y-87122000D01*
X119126000Y-57150000D02*
X119380000Y-56896000D01*
X119126000Y-61214000D02*
X119126000Y-57150000D01*
X121600999Y-51606399D02*
X121600999Y-53041601D01*
X125850000Y-56896000D02*
X127000000Y-56896000D01*
X134591001Y-58587629D02*
X134591001Y-51606399D01*
X117129002Y-52832000D02*
X121193002Y-56896000D01*
X128524000Y-64654630D02*
X134591001Y-58587629D01*
X121600999Y-53041601D02*
X125455398Y-56896000D01*
X121193002Y-56896000D02*
X127000000Y-56896000D01*
X128524000Y-65786000D02*
X128524000Y-64654630D01*
X133813601Y-50828999D02*
X122378399Y-50828999D01*
X134591001Y-51606399D02*
X133813601Y-50828999D01*
X122378399Y-50828999D02*
X121600999Y-51606399D01*
X112522000Y-52832000D02*
X117129002Y-52832000D01*
X125455398Y-56896000D02*
X125850000Y-56896000D01*
X135890000Y-57150000D02*
X135890000Y-55706998D01*
X135890000Y-55706998D02*
X139272998Y-52324000D01*
X141616630Y-52324000D02*
X142748000Y-52324000D01*
X139272998Y-52324000D02*
X141616630Y-52324000D01*
X148082000Y-70104000D02*
X152654000Y-65532000D01*
X144272000Y-70104000D02*
X148082000Y-70104000D01*
X133096000Y-54787800D02*
X133096000Y-52324000D01*
X118364000Y-65786000D02*
X124256800Y-65786000D01*
X128270000Y-59613800D02*
X133096000Y-54787800D01*
X124256800Y-65786000D02*
X128270000Y-61772800D01*
X128270000Y-61772800D02*
X128270000Y-59613800D01*
X126746000Y-59791600D02*
X128701800Y-57835800D01*
X128701800Y-57835800D02*
X128701800Y-52929800D01*
X128701800Y-52929800D02*
X128096000Y-52324000D01*
X128096000Y-52324000D02*
X123096000Y-52324000D01*
X126746000Y-61214000D02*
X126746000Y-59791600D01*
G04 #@! TA.AperFunction,Conductor*
G36*
X152146000Y-87572314D02*
G01*
X152130045Y-87556359D01*
X152017148Y-87498835D01*
X151923481Y-87484000D01*
X151860519Y-87484000D01*
X151766852Y-87498835D01*
X151653955Y-87556359D01*
X151638000Y-87572314D01*
X151638000Y-85655686D01*
X151653955Y-85671641D01*
X151766852Y-85729165D01*
X151860519Y-85744000D01*
X151923481Y-85744000D01*
X152017148Y-85729165D01*
X152130045Y-85671641D01*
X152146000Y-85655686D01*
X152146000Y-87572314D01*
G37*
G04 #@! TD.AperFunction*
G04 #@! TA.AperFunction,Conductor*
G36*
X154336140Y-55907865D02*
G01*
X154390887Y-55953067D01*
X154412505Y-56020692D01*
X154412539Y-56023065D01*
X154425256Y-58579068D01*
X154405594Y-58647288D01*
X154352170Y-58694047D01*
X154281947Y-58704500D01*
X154217220Y-58675329D01*
X154178540Y-58615794D01*
X154177551Y-58612306D01*
X154141813Y-58478931D01*
X154141811Y-58478926D01*
X154045086Y-58271498D01*
X153995100Y-58200110D01*
X153995098Y-58200110D01*
X153306727Y-58888481D01*
X153293165Y-58802852D01*
X153235641Y-58689955D01*
X153146045Y-58600359D01*
X153033148Y-58542835D01*
X152947517Y-58529272D01*
X153635888Y-57840899D01*
X153635888Y-57840898D01*
X153564501Y-57790913D01*
X153357073Y-57694188D01*
X153357068Y-57694186D01*
X153136000Y-57634951D01*
X153136004Y-57634951D01*
X152908000Y-57615004D01*
X152679997Y-57634951D01*
X152458931Y-57694186D01*
X152458926Y-57694188D01*
X152251500Y-57790913D01*
X152180109Y-57840900D01*
X152868481Y-58529272D01*
X152782852Y-58542835D01*
X152669955Y-58600359D01*
X152580359Y-58689955D01*
X152522835Y-58802852D01*
X152509272Y-58888481D01*
X151820900Y-58200109D01*
X151770913Y-58271500D01*
X151674188Y-58478926D01*
X151674186Y-58478931D01*
X151614951Y-58699997D01*
X151595004Y-58928000D01*
X151614951Y-59156002D01*
X151674186Y-59377068D01*
X151674188Y-59377073D01*
X151770913Y-59584501D01*
X151820899Y-59655888D01*
X152509272Y-58967516D01*
X152522835Y-59053148D01*
X152580359Y-59166045D01*
X152669955Y-59255641D01*
X152782852Y-59313165D01*
X152868482Y-59326727D01*
X152180110Y-60015098D01*
X152180110Y-60015100D01*
X152251498Y-60065086D01*
X152458926Y-60161811D01*
X152458931Y-60161813D01*
X152679999Y-60221048D01*
X152679995Y-60221048D01*
X152908000Y-60240995D01*
X153136002Y-60221048D01*
X153357068Y-60161813D01*
X153357073Y-60161811D01*
X153564497Y-60065088D01*
X153635888Y-60015099D01*
X153635888Y-60015097D01*
X152947518Y-59326727D01*
X153033148Y-59313165D01*
X153146045Y-59255641D01*
X153235641Y-59166045D01*
X153293165Y-59053148D01*
X153306727Y-58967518D01*
X153995097Y-59655888D01*
X153995099Y-59655888D01*
X154045088Y-59584497D01*
X154141811Y-59377073D01*
X154141814Y-59377066D01*
X154180953Y-59230995D01*
X154217904Y-59170372D01*
X154281765Y-59139350D01*
X154352259Y-59147778D01*
X154407006Y-59192980D01*
X154428624Y-59260606D01*
X154428658Y-59262978D01*
X154441985Y-61941572D01*
X154422323Y-62009792D01*
X154368899Y-62056551D01*
X154298676Y-62067004D01*
X154233949Y-62037833D01*
X154195269Y-61978298D01*
X154194293Y-61974856D01*
X154142284Y-61780757D01*
X154045523Y-61573251D01*
X153914198Y-61385700D01*
X153752300Y-61223802D01*
X153743241Y-61217459D01*
X153564749Y-61092477D01*
X153357246Y-60995717D01*
X153357240Y-60995715D01*
X153263771Y-60970670D01*
X153136087Y-60936457D01*
X152908000Y-60916502D01*
X152679913Y-60936457D01*
X152458759Y-60995715D01*
X152458753Y-60995717D01*
X152251250Y-61092477D01*
X152063703Y-61223799D01*
X152063697Y-61223804D01*
X151901804Y-61385697D01*
X151901799Y-61385703D01*
X151770477Y-61573250D01*
X151673717Y-61780753D01*
X151673715Y-61780759D01*
X151627248Y-61954178D01*
X151614457Y-62001913D01*
X151594502Y-62230000D01*
X151614457Y-62458087D01*
X151630998Y-62519819D01*
X151673715Y-62679240D01*
X151673717Y-62679246D01*
X151770477Y-62886749D01*
X151835570Y-62979712D01*
X151901802Y-63074300D01*
X152063700Y-63236198D01*
X152251251Y-63367523D01*
X152458757Y-63464284D01*
X152679913Y-63523543D01*
X152908000Y-63543498D01*
X153136087Y-63523543D01*
X153357243Y-63464284D01*
X153564749Y-63367523D01*
X153752300Y-63236198D01*
X153914198Y-63074300D01*
X154045523Y-62886749D01*
X154142284Y-62679243D01*
X154197093Y-62474691D01*
X154234042Y-62414074D01*
X154297903Y-62383052D01*
X154368397Y-62391480D01*
X154423144Y-62436683D01*
X154444762Y-62504308D01*
X154444796Y-62506680D01*
X154634619Y-100660873D01*
X154614957Y-100729093D01*
X154561533Y-100775852D01*
X154508621Y-100787500D01*
X99998500Y-100787500D01*
X99930379Y-100767498D01*
X99883886Y-100713842D01*
X99872500Y-100661500D01*
X99872500Y-87993004D01*
X99892502Y-87924883D01*
X99946158Y-87878390D01*
X100016432Y-87868286D01*
X100081012Y-87897780D01*
X100087595Y-87903909D01*
X100929595Y-88745909D01*
X100963621Y-88808221D01*
X100966500Y-88835004D01*
X100966500Y-92252606D01*
X100946498Y-92320727D01*
X100912771Y-92355819D01*
X100755703Y-92465799D01*
X100755697Y-92465804D01*
X100593804Y-92627697D01*
X100593799Y-92627703D01*
X100462477Y-92815250D01*
X100365717Y-93022753D01*
X100365715Y-93022759D01*
X100335453Y-93135700D01*
X100306457Y-93243913D01*
X100286502Y-93472000D01*
X100306457Y-93700087D01*
X100320344Y-93751913D01*
X100365715Y-93921240D01*
X100365717Y-93921246D01*
X100462477Y-94128749D01*
X100518029Y-94208086D01*
X100593802Y-94316300D01*
X100755700Y-94478198D01*
X100943251Y-94609523D01*
X101150757Y-94706284D01*
X101371913Y-94765543D01*
X101600000Y-94785498D01*
X101828087Y-94765543D01*
X102049243Y-94706284D01*
X102256749Y-94609523D01*
X102444300Y-94478198D01*
X102606198Y-94316300D01*
X102737523Y-94128749D01*
X102834284Y-93921243D01*
X102893543Y-93700087D01*
X102913498Y-93472000D01*
X102893543Y-93243913D01*
X102834284Y-93022757D01*
X102737523Y-92815251D01*
X102606198Y-92627700D01*
X102444300Y-92465802D01*
X102441704Y-92463984D01*
X102287229Y-92355819D01*
X102242901Y-92300362D01*
X102233500Y-92252606D01*
X102233500Y-90623282D01*
X102253502Y-90555161D01*
X102307158Y-90508668D01*
X102377432Y-90498564D01*
X102431771Y-90520069D01*
X102467501Y-90545087D01*
X102674926Y-90641811D01*
X102674931Y-90641813D01*
X102870000Y-90694081D01*
X102870000Y-89719686D01*
X102885955Y-89735641D01*
X102998852Y-89793165D01*
X103092519Y-89808000D01*
X103155481Y-89808000D01*
X103249148Y-89793165D01*
X103362045Y-89735641D01*
X103378000Y-89719686D01*
X103378000Y-90694081D01*
X103573068Y-90641813D01*
X103573073Y-90641811D01*
X103661250Y-90600694D01*
X103731441Y-90590033D01*
X103796254Y-90619013D01*
X103835111Y-90678432D01*
X103840500Y-90714889D01*
X103840500Y-96062606D01*
X103820498Y-96130727D01*
X103786771Y-96165819D01*
X103629703Y-96275799D01*
X103629697Y-96275804D01*
X103467804Y-96437697D01*
X103467799Y-96437703D01*
X103336477Y-96625250D01*
X103239717Y-96832753D01*
X103239715Y-96832759D01*
X103214244Y-96927819D01*
X103180457Y-97053913D01*
X103160502Y-97282000D01*
X103180457Y-97510087D01*
X103203145Y-97594759D01*
X103239715Y-97731240D01*
X103239717Y-97731246D01*
X103336477Y-97938749D01*
X103452637Y-98104643D01*
X103467802Y-98126300D01*
X103629700Y-98288198D01*
X103817251Y-98419523D01*
X104024757Y-98516284D01*
X104245913Y-98575543D01*
X104474000Y-98595498D01*
X104702087Y-98575543D01*
X104923243Y-98516284D01*
X105045750Y-98459157D01*
X105115941Y-98448496D01*
X105152248Y-98459157D01*
X105274757Y-98516284D01*
X105495913Y-98575543D01*
X105724000Y-98595498D01*
X105952087Y-98575543D01*
X106015541Y-98558540D01*
X106086516Y-98560228D01*
X106137247Y-98591151D01*
X106341754Y-98795658D01*
X106351721Y-98808098D01*
X106351948Y-98807911D01*
X106357000Y-98814018D01*
X106357001Y-98814019D01*
X106382966Y-98838402D01*
X106406667Y-98860658D01*
X106409511Y-98863415D01*
X106429227Y-98883132D01*
X106432424Y-98885612D01*
X106441445Y-98893317D01*
X106473680Y-98923587D01*
X106473681Y-98923587D01*
X106473683Y-98923589D01*
X106491430Y-98933345D01*
X106507960Y-98944203D01*
X106523960Y-98956614D01*
X106564537Y-98974173D01*
X106575188Y-98979391D01*
X106613941Y-99000696D01*
X106633563Y-99005734D01*
X106652264Y-99012136D01*
X106664815Y-99017568D01*
X106670853Y-99020181D01*
X106670854Y-99020181D01*
X106670856Y-99020182D01*
X106714531Y-99027099D01*
X106726142Y-99029503D01*
X106768971Y-99040501D01*
X106789225Y-99040501D01*
X106808935Y-99042052D01*
X106811142Y-99042401D01*
X106828944Y-99045221D01*
X106872962Y-99041059D01*
X106884820Y-99040501D01*
X110946148Y-99040501D01*
X110961989Y-99042250D01*
X110962017Y-99041957D01*
X110969903Y-99042701D01*
X110969910Y-99042703D01*
X111037987Y-99040563D01*
X111041946Y-99040501D01*
X111069852Y-99040501D01*
X111069857Y-99040501D01*
X111073868Y-99039993D01*
X111085700Y-99039062D01*
X111129890Y-99037674D01*
X111149348Y-99032020D01*
X111168695Y-99028014D01*
X111188798Y-99025475D01*
X111229911Y-99009196D01*
X111241131Y-99005354D01*
X111265914Y-98998155D01*
X111283592Y-98993020D01*
X111283596Y-98993018D01*
X111301027Y-98982709D01*
X111318781Y-98974010D01*
X111337618Y-98966553D01*
X111373393Y-98940559D01*
X111383299Y-98934052D01*
X111421363Y-98911543D01*
X111435686Y-98897219D01*
X111450725Y-98884375D01*
X111452436Y-98883132D01*
X111467108Y-98872473D01*
X111495304Y-98838387D01*
X111503273Y-98829631D01*
X118772660Y-91560245D01*
X118785098Y-91550282D01*
X118784910Y-91550055D01*
X118791016Y-91545003D01*
X118791015Y-91545003D01*
X118791018Y-91545002D01*
X118837661Y-91495330D01*
X118840351Y-91492554D01*
X118860135Y-91472772D01*
X118862614Y-91469575D01*
X118870311Y-91460561D01*
X118900586Y-91428323D01*
X118910346Y-91410567D01*
X118921195Y-91394052D01*
X118933614Y-91378043D01*
X118951179Y-91337448D01*
X118956384Y-91326823D01*
X118977695Y-91288062D01*
X118982733Y-91268436D01*
X118989137Y-91249734D01*
X118997180Y-91231149D01*
X118997179Y-91231149D01*
X118997181Y-91231147D01*
X119004096Y-91187483D01*
X119006504Y-91175854D01*
X119017500Y-91133032D01*
X119017500Y-91112777D01*
X119019051Y-91093065D01*
X119022220Y-91073059D01*
X119018059Y-91029038D01*
X119017500Y-91017181D01*
X119017500Y-89999354D01*
X119037502Y-89931233D01*
X119091158Y-89884740D01*
X119161432Y-89874636D01*
X119179368Y-89879139D01*
X119179443Y-89878860D01*
X119184756Y-89880283D01*
X119184757Y-89880284D01*
X119405913Y-89939543D01*
X119634000Y-89959498D01*
X119862087Y-89939543D01*
X120083243Y-89880284D01*
X120290749Y-89783523D01*
X120478300Y-89652198D01*
X120640198Y-89490300D01*
X120771523Y-89302749D01*
X120868284Y-89095243D01*
X120927543Y-88874087D01*
X120947498Y-88646000D01*
X120927543Y-88417913D01*
X120868284Y-88196757D01*
X120771523Y-87989251D01*
X120640198Y-87801700D01*
X120478300Y-87639802D01*
X120476563Y-87638586D01*
X120290749Y-87508477D01*
X120083246Y-87411717D01*
X120083240Y-87411715D01*
X119968659Y-87381013D01*
X119862087Y-87352457D01*
X119634000Y-87332502D01*
X119405913Y-87352457D01*
X119184759Y-87411715D01*
X119184749Y-87411719D01*
X119062249Y-87468841D01*
X118992058Y-87479502D01*
X118955751Y-87468841D01*
X118833250Y-87411719D01*
X118833246Y-87411717D01*
X118833243Y-87411716D01*
X118833241Y-87411715D01*
X118833240Y-87411715D01*
X118718659Y-87381013D01*
X118612087Y-87352457D01*
X118384000Y-87332502D01*
X118155913Y-87352457D01*
X117934759Y-87411715D01*
X117934753Y-87411717D01*
X117727250Y-87508477D01*
X117539703Y-87639799D01*
X117539697Y-87639804D01*
X117377804Y-87801697D01*
X117377799Y-87801703D01*
X117246474Y-87989253D01*
X117243726Y-87994015D01*
X117241761Y-87992880D01*
X117201255Y-88038865D01*
X117132974Y-88058312D01*
X117065018Y-88037756D01*
X117026168Y-87992921D01*
X117024274Y-87994015D01*
X117021525Y-87989253D01*
X116890200Y-87801703D01*
X116890195Y-87801697D01*
X116728302Y-87639804D01*
X116728296Y-87639799D01*
X116540749Y-87508477D01*
X116333246Y-87411717D01*
X116333240Y-87411715D01*
X116218659Y-87381013D01*
X116112087Y-87352457D01*
X115884000Y-87332502D01*
X115655913Y-87352457D01*
X115460460Y-87404829D01*
X115429443Y-87413140D01*
X115429012Y-87411533D01*
X115365716Y-87415544D01*
X115303683Y-87381013D01*
X115270166Y-87318426D01*
X115267500Y-87292645D01*
X115267500Y-85681354D01*
X115287502Y-85613233D01*
X115341158Y-85566740D01*
X115411432Y-85556636D01*
X115429368Y-85561139D01*
X115429443Y-85560860D01*
X115434756Y-85562283D01*
X115434757Y-85562284D01*
X115655913Y-85621543D01*
X115884000Y-85641498D01*
X116112087Y-85621543D01*
X116333243Y-85562284D01*
X116540749Y-85465523D01*
X116728300Y-85334198D01*
X116890198Y-85172300D01*
X117021523Y-84984749D01*
X117021523Y-84984748D01*
X117021525Y-84984746D01*
X117024274Y-84979985D01*
X117026245Y-84981122D01*
X117066713Y-84935154D01*
X117134989Y-84915687D01*
X117202951Y-84936223D01*
X117241822Y-84981083D01*
X117243726Y-84979985D01*
X117246474Y-84984746D01*
X117375170Y-85168541D01*
X117377802Y-85172300D01*
X117539700Y-85334198D01*
X117727251Y-85465523D01*
X117934757Y-85562284D01*
X118155913Y-85621543D01*
X118384000Y-85641498D01*
X118612087Y-85621543D01*
X118833243Y-85562284D01*
X118955750Y-85505157D01*
X119025941Y-85494496D01*
X119062248Y-85505157D01*
X119184757Y-85562284D01*
X119405913Y-85621543D01*
X119634000Y-85641498D01*
X119862087Y-85621543D01*
X119925541Y-85604540D01*
X119996516Y-85606228D01*
X120047247Y-85637151D01*
X123789595Y-89379499D01*
X123823621Y-89441811D01*
X123826500Y-89468594D01*
X123826500Y-92252606D01*
X123806498Y-92320727D01*
X123772771Y-92355819D01*
X123615703Y-92465799D01*
X123615697Y-92465804D01*
X123453804Y-92627697D01*
X123453799Y-92627703D01*
X123322477Y-92815250D01*
X123225717Y-93022753D01*
X123225715Y-93022759D01*
X123195453Y-93135700D01*
X123166457Y-93243913D01*
X123146502Y-93472000D01*
X123166457Y-93700087D01*
X123180344Y-93751913D01*
X123225715Y-93921240D01*
X123225717Y-93921246D01*
X123322477Y-94128749D01*
X123378029Y-94208086D01*
X123453802Y-94316300D01*
X123615700Y-94478198D01*
X123803251Y-94609523D01*
X124010757Y-94706284D01*
X124231913Y-94765543D01*
X124460000Y-94785498D01*
X124477427Y-94783973D01*
X124547031Y-94797960D01*
X124598025Y-94847358D01*
X124614217Y-94916483D01*
X124590467Y-94983389D01*
X124577506Y-94998588D01*
X122123793Y-97452300D01*
X122061481Y-97486326D01*
X122005781Y-97485382D01*
X122005776Y-97485414D01*
X122005563Y-97485378D01*
X122003759Y-97485348D01*
X122000643Y-97484558D01*
X122000635Y-97484556D01*
X121778569Y-97447500D01*
X121553431Y-97447500D01*
X121408971Y-97471606D01*
X121331369Y-97484555D01*
X121331360Y-97484557D01*
X121118428Y-97557656D01*
X121118426Y-97557658D01*
X120920426Y-97664810D01*
X120920424Y-97664811D01*
X120742762Y-97803091D01*
X120590279Y-97968729D01*
X120501483Y-98104643D01*
X120447479Y-98150731D01*
X120377131Y-98160306D01*
X120312774Y-98130329D01*
X120290517Y-98104643D01*
X120201720Y-97968729D01*
X120061041Y-97815913D01*
X120049240Y-97803094D01*
X120049239Y-97803093D01*
X120049237Y-97803091D01*
X119929679Y-97710035D01*
X119871576Y-97664811D01*
X119673574Y-97557658D01*
X119673572Y-97557657D01*
X119673571Y-97557656D01*
X119460639Y-97484557D01*
X119460630Y-97484555D01*
X119383029Y-97471606D01*
X119238569Y-97447500D01*
X119013431Y-97447500D01*
X118868971Y-97471606D01*
X118791369Y-97484555D01*
X118791360Y-97484557D01*
X118578428Y-97557656D01*
X118578426Y-97557658D01*
X118380426Y-97664810D01*
X118380424Y-97664811D01*
X118202762Y-97803091D01*
X118050279Y-97968729D01*
X118050275Y-97968734D01*
X117927141Y-98157206D01*
X117836703Y-98363386D01*
X117836702Y-98363387D01*
X117781437Y-98581624D01*
X117781436Y-98581630D01*
X117781436Y-98581632D01*
X117762844Y-98806000D01*
X117781030Y-99025474D01*
X117781437Y-99030375D01*
X117836702Y-99248612D01*
X117836703Y-99248613D01*
X117836704Y-99248616D01*
X117855155Y-99290680D01*
X117927141Y-99454793D01*
X118050275Y-99643265D01*
X118050279Y-99643270D01*
X118202762Y-99808908D01*
X118257331Y-99851381D01*
X118380424Y-99947189D01*
X118578426Y-100054342D01*
X118578427Y-100054342D01*
X118578428Y-100054343D01*
X118690227Y-100092723D01*
X118791365Y-100127444D01*
X119013431Y-100164500D01*
X119013435Y-100164500D01*
X119238565Y-100164500D01*
X119238569Y-100164500D01*
X119460635Y-100127444D01*
X119673574Y-100054342D01*
X119871576Y-99947189D01*
X120049240Y-99808906D01*
X120201722Y-99643268D01*
X120290518Y-99507354D01*
X120344520Y-99461268D01*
X120414868Y-99451692D01*
X120479225Y-99481669D01*
X120501480Y-99507353D01*
X120534607Y-99558058D01*
X120590275Y-99643265D01*
X120590279Y-99643270D01*
X120742762Y-99808908D01*
X120797331Y-99851381D01*
X120920424Y-99947189D01*
X121118426Y-100054342D01*
X121118427Y-100054342D01*
X121118428Y-100054343D01*
X121230227Y-100092723D01*
X121331365Y-100127444D01*
X121553431Y-100164500D01*
X121553435Y-100164500D01*
X121778565Y-100164500D01*
X121778569Y-100164500D01*
X122000635Y-100127444D01*
X122213574Y-100054342D01*
X122411576Y-99947189D01*
X122589240Y-99808906D01*
X122741722Y-99643268D01*
X122830518Y-99507354D01*
X122884520Y-99461268D01*
X122954868Y-99451692D01*
X123019225Y-99481669D01*
X123041480Y-99507353D01*
X123074607Y-99558058D01*
X123130275Y-99643265D01*
X123130279Y-99643270D01*
X123282762Y-99808908D01*
X123337331Y-99851381D01*
X123460424Y-99947189D01*
X123658426Y-100054342D01*
X123658427Y-100054342D01*
X123658428Y-100054343D01*
X123770227Y-100092723D01*
X123871365Y-100127444D01*
X124093431Y-100164500D01*
X124093435Y-100164500D01*
X124318565Y-100164500D01*
X124318569Y-100164500D01*
X124540635Y-100127444D01*
X124753574Y-100054342D01*
X124951576Y-99947189D01*
X125129240Y-99808906D01*
X125281722Y-99643268D01*
X125370816Y-99506898D01*
X125424819Y-99460810D01*
X125495167Y-99451235D01*
X125559524Y-99481212D01*
X125581782Y-99506898D01*
X125670674Y-99642958D01*
X125823097Y-99808534D01*
X126000698Y-99946767D01*
X126000699Y-99946768D01*
X126198628Y-100053882D01*
X126198630Y-100053883D01*
X126411483Y-100126955D01*
X126411492Y-100126957D01*
X126492000Y-100140391D01*
X126492000Y-99239674D01*
X126603685Y-99290680D01*
X126710237Y-99306000D01*
X126781763Y-99306000D01*
X126888315Y-99290680D01*
X127000000Y-99239674D01*
X127000000Y-100140390D01*
X127080507Y-100126957D01*
X127080516Y-100126955D01*
X127293369Y-100053883D01*
X127293371Y-100053882D01*
X127491300Y-99946768D01*
X127491301Y-99946767D01*
X127668902Y-99808534D01*
X127730426Y-99741700D01*
X127791279Y-99705128D01*
X127862243Y-99707261D01*
X127920789Y-99747422D01*
X127941185Y-99783003D01*
X127985556Y-99901966D01*
X128073095Y-100018904D01*
X128190034Y-100106444D01*
X128326906Y-100157494D01*
X128387402Y-100163999D01*
X128387415Y-100164000D01*
X129032000Y-100164000D01*
X129032000Y-99239674D01*
X129143685Y-99290680D01*
X129250237Y-99306000D01*
X129321763Y-99306000D01*
X129428315Y-99290680D01*
X129540000Y-99239674D01*
X129540000Y-100164000D01*
X130184585Y-100164000D01*
X130184597Y-100163999D01*
X130245093Y-100157494D01*
X130381964Y-100106444D01*
X130381965Y-100106444D01*
X130498904Y-100018904D01*
X130586444Y-99901965D01*
X130586444Y-99901964D01*
X130637494Y-99765093D01*
X130643999Y-99704597D01*
X130644000Y-99704585D01*
X130644000Y-99060000D01*
X129717116Y-99060000D01*
X129745493Y-99015844D01*
X129786000Y-98877889D01*
X129786000Y-98734111D01*
X129745493Y-98596156D01*
X129717116Y-98552000D01*
X130644000Y-98552000D01*
X130644000Y-97907414D01*
X130643999Y-97907402D01*
X130637494Y-97846906D01*
X130586444Y-97710035D01*
X130586444Y-97710034D01*
X130498904Y-97593095D01*
X130381965Y-97505555D01*
X130245093Y-97454505D01*
X130184597Y-97448000D01*
X129540000Y-97448000D01*
X129540000Y-98372325D01*
X129428315Y-98321320D01*
X129321763Y-98306000D01*
X129250237Y-98306000D01*
X129143685Y-98321320D01*
X129032000Y-98372325D01*
X129032000Y-97448000D01*
X128387402Y-97448000D01*
X128326906Y-97454505D01*
X128190035Y-97505555D01*
X128190034Y-97505555D01*
X128073095Y-97593095D01*
X127985555Y-97710034D01*
X127985553Y-97710039D01*
X127941184Y-97828996D01*
X127898637Y-97885832D01*
X127832117Y-97910642D01*
X127762743Y-97895550D01*
X127730427Y-97870300D01*
X127668902Y-97803465D01*
X127491301Y-97665232D01*
X127491300Y-97665231D01*
X127293371Y-97558117D01*
X127293369Y-97558116D01*
X127080512Y-97485043D01*
X127080501Y-97485040D01*
X127000000Y-97471606D01*
X127000000Y-98372325D01*
X126888315Y-98321320D01*
X126781763Y-98306000D01*
X126710237Y-98306000D01*
X126603685Y-98321320D01*
X126492000Y-98372325D01*
X126492000Y-97468092D01*
X126512002Y-97399971D01*
X126528900Y-97379002D01*
X129419902Y-94488000D01*
X132425337Y-94488000D01*
X132443960Y-94724632D01*
X132499371Y-94955437D01*
X132590208Y-95174738D01*
X132704896Y-95361890D01*
X132704897Y-95361890D01*
X133453638Y-94613149D01*
X133478507Y-94697844D01*
X133556239Y-94818798D01*
X133664900Y-94912952D01*
X133795685Y-94972680D01*
X133810411Y-94974797D01*
X133064107Y-95721101D01*
X133064108Y-95721102D01*
X133251261Y-95835791D01*
X133470562Y-95926628D01*
X133701367Y-95982039D01*
X133938000Y-96000662D01*
X134174632Y-95982039D01*
X134405437Y-95926628D01*
X134624738Y-95835791D01*
X134811890Y-95721102D01*
X134811891Y-95721102D01*
X134627438Y-95536649D01*
X137429500Y-95536649D01*
X137436009Y-95597196D01*
X137436011Y-95597204D01*
X137487110Y-95734202D01*
X137487112Y-95734207D01*
X137574738Y-95851261D01*
X137691792Y-95938887D01*
X137691794Y-95938888D01*
X137691796Y-95938889D01*
X137733452Y-95954426D01*
X137828795Y-95989988D01*
X137828803Y-95989990D01*
X137889350Y-95996499D01*
X137889355Y-95996499D01*
X137889362Y-95996500D01*
X137889368Y-95996500D01*
X139986632Y-95996500D01*
X139986638Y-95996500D01*
X139986645Y-95996499D01*
X139986649Y-95996499D01*
X140047196Y-95989990D01*
X140047199Y-95989989D01*
X140047201Y-95989989D01*
X140051309Y-95988457D01*
X140072655Y-95980495D01*
X140184204Y-95938889D01*
X140197889Y-95928645D01*
X140301261Y-95851261D01*
X140388887Y-95734207D01*
X140388887Y-95734206D01*
X140388889Y-95734204D01*
X140439989Y-95597201D01*
X140441855Y-95579852D01*
X140446499Y-95536649D01*
X140446500Y-95536632D01*
X140446500Y-95247500D01*
X140466502Y-95179379D01*
X140520158Y-95132886D01*
X140572500Y-95121500D01*
X141988500Y-95121500D01*
X142056621Y-95141502D01*
X142103114Y-95195158D01*
X142114500Y-95247500D01*
X142114500Y-96824606D01*
X142094498Y-96892727D01*
X142060771Y-96927819D01*
X141903703Y-97037799D01*
X141903697Y-97037804D01*
X141741804Y-97199697D01*
X141741799Y-97199703D01*
X141610477Y-97387250D01*
X141513717Y-97594753D01*
X141513715Y-97594759D01*
X141465821Y-97773501D01*
X141454457Y-97815913D01*
X141434502Y-98044000D01*
X141454457Y-98272087D01*
X141463544Y-98306000D01*
X141513715Y-98493240D01*
X141513717Y-98493246D01*
X141610477Y-98700749D01*
X141739053Y-98884375D01*
X141741802Y-98888300D01*
X141903700Y-99050198D01*
X142091251Y-99181523D01*
X142298757Y-99278284D01*
X142519913Y-99337543D01*
X142748000Y-99357498D01*
X142976087Y-99337543D01*
X143197243Y-99278284D01*
X143404749Y-99181523D01*
X143592300Y-99050198D01*
X143754198Y-98888300D01*
X143885523Y-98700749D01*
X143982284Y-98493243D01*
X144041543Y-98272087D01*
X144061498Y-98044000D01*
X151594502Y-98044000D01*
X151614457Y-98272087D01*
X151623544Y-98306000D01*
X151673715Y-98493240D01*
X151673717Y-98493246D01*
X151770477Y-98700749D01*
X151899053Y-98884375D01*
X151901802Y-98888300D01*
X152063700Y-99050198D01*
X152251251Y-99181523D01*
X152458757Y-99278284D01*
X152679913Y-99337543D01*
X152908000Y-99357498D01*
X153136087Y-99337543D01*
X153357243Y-99278284D01*
X153564749Y-99181523D01*
X153752300Y-99050198D01*
X153914198Y-98888300D01*
X154045523Y-98700749D01*
X154142284Y-98493243D01*
X154201543Y-98272087D01*
X154221498Y-98044000D01*
X154201543Y-97815913D01*
X154142284Y-97594757D01*
X154045523Y-97387251D01*
X153914198Y-97199700D01*
X153752300Y-97037802D01*
X153564749Y-96906477D01*
X153532435Y-96891409D01*
X153357246Y-96809717D01*
X153357240Y-96809715D01*
X153263771Y-96784670D01*
X153136087Y-96750457D01*
X152908000Y-96730502D01*
X152679913Y-96750457D01*
X152458759Y-96809715D01*
X152458753Y-96809717D01*
X152251250Y-96906477D01*
X152063703Y-97037799D01*
X152063697Y-97037804D01*
X151901804Y-97199697D01*
X151901799Y-97199703D01*
X151770477Y-97387250D01*
X151673717Y-97594753D01*
X151673715Y-97594759D01*
X151625821Y-97773501D01*
X151614457Y-97815913D01*
X151594502Y-98044000D01*
X144061498Y-98044000D01*
X144041543Y-97815913D01*
X143982284Y-97594757D01*
X143885523Y-97387251D01*
X143754198Y-97199700D01*
X143592300Y-97037802D01*
X143592296Y-97037799D01*
X143435229Y-96927819D01*
X143390901Y-96872362D01*
X143381500Y-96824606D01*
X143381500Y-95199393D01*
X143401502Y-95131272D01*
X143435230Y-95096180D01*
X143592291Y-94986204D01*
X143592300Y-94986198D01*
X143754198Y-94824300D01*
X143885523Y-94636749D01*
X143982284Y-94429243D01*
X144041543Y-94208087D01*
X144061498Y-93980000D01*
X151594502Y-93980000D01*
X151614457Y-94208086D01*
X151673715Y-94429240D01*
X151673717Y-94429246D01*
X151770477Y-94636749D01*
X151890610Y-94808317D01*
X151901802Y-94824300D01*
X152063700Y-94986198D01*
X152251251Y-95117523D01*
X152458757Y-95214284D01*
X152679913Y-95273543D01*
X152908000Y-95293498D01*
X153136087Y-95273543D01*
X153357243Y-95214284D01*
X153564749Y-95117523D01*
X153752300Y-94986198D01*
X153914198Y-94824300D01*
X154045523Y-94636749D01*
X154142284Y-94429243D01*
X154201543Y-94208087D01*
X154221498Y-93980000D01*
X154201543Y-93751913D01*
X154142284Y-93530757D01*
X154045523Y-93323251D01*
X153914198Y-93135700D01*
X153752300Y-92973802D01*
X153737971Y-92963769D01*
X153564749Y-92842477D01*
X153357246Y-92745717D01*
X153357240Y-92745715D01*
X153222431Y-92709593D01*
X153136087Y-92686457D01*
X152908000Y-92666502D01*
X152679913Y-92686457D01*
X152458759Y-92745715D01*
X152458753Y-92745717D01*
X152251250Y-92842477D01*
X152063703Y-92973799D01*
X152063697Y-92973804D01*
X151901804Y-93135697D01*
X151901799Y-93135703D01*
X151770477Y-93323250D01*
X151673717Y-93530753D01*
X151673715Y-93530759D01*
X151614457Y-93751913D01*
X151594502Y-93980000D01*
X144061498Y-93980000D01*
X144041543Y-93751913D01*
X143982284Y-93530757D01*
X143885523Y-93323251D01*
X143754198Y-93135700D01*
X143592300Y-92973802D01*
X143577971Y-92963769D01*
X143404749Y-92842477D01*
X143197246Y-92745717D01*
X143197240Y-92745715D01*
X143062431Y-92709593D01*
X142976087Y-92686457D01*
X142748000Y-92666502D01*
X142519913Y-92686457D01*
X142298759Y-92745715D01*
X142298753Y-92745717D01*
X142091250Y-92842477D01*
X141903703Y-92973799D01*
X141903697Y-92973804D01*
X141741804Y-93135697D01*
X141741799Y-93135703D01*
X141610477Y-93323250D01*
X141513717Y-93530753D01*
X141513716Y-93530757D01*
X141454457Y-93751913D01*
X141454456Y-93751917D01*
X141453034Y-93757227D01*
X141451534Y-93756825D01*
X141423197Y-93813996D01*
X141362282Y-93850463D01*
X141330642Y-93854500D01*
X140572500Y-93854500D01*
X140504379Y-93834498D01*
X140457886Y-93780842D01*
X140446500Y-93728500D01*
X140446500Y-93439367D01*
X140446499Y-93439350D01*
X140439990Y-93378803D01*
X140439988Y-93378795D01*
X140410924Y-93300875D01*
X140388889Y-93241796D01*
X140388888Y-93241794D01*
X140388887Y-93241792D01*
X140301261Y-93124738D01*
X140184207Y-93037112D01*
X140184202Y-93037110D01*
X140047204Y-92986011D01*
X140047196Y-92986009D01*
X139986649Y-92979500D01*
X139986638Y-92979500D01*
X137889362Y-92979500D01*
X137889350Y-92979500D01*
X137828803Y-92986009D01*
X137828795Y-92986011D01*
X137691797Y-93037110D01*
X137691792Y-93037112D01*
X137574738Y-93124738D01*
X137487112Y-93241792D01*
X137487110Y-93241797D01*
X137436011Y-93378795D01*
X137436009Y-93378803D01*
X137429500Y-93439350D01*
X137429500Y-95536649D01*
X134627438Y-95536649D01*
X134065587Y-94974797D01*
X134080315Y-94972680D01*
X134211100Y-94912952D01*
X134319761Y-94818798D01*
X134397493Y-94697844D01*
X134422361Y-94613150D01*
X135171102Y-95361891D01*
X135171102Y-95361890D01*
X135285791Y-95174738D01*
X135376628Y-94955437D01*
X135432039Y-94724632D01*
X135450662Y-94488000D01*
X135432039Y-94251367D01*
X135376628Y-94020562D01*
X135285791Y-93801261D01*
X135171102Y-93614108D01*
X135171101Y-93614107D01*
X134422360Y-94362848D01*
X134397493Y-94278156D01*
X134319761Y-94157202D01*
X134211100Y-94063048D01*
X134080315Y-94003320D01*
X134065586Y-94001202D01*
X134811890Y-93254897D01*
X134811890Y-93254896D01*
X134624738Y-93140208D01*
X134405437Y-93049371D01*
X134174632Y-92993960D01*
X133938000Y-92975337D01*
X133701367Y-92993960D01*
X133470562Y-93049371D01*
X133251266Y-93140206D01*
X133064108Y-93254897D01*
X133064108Y-93254898D01*
X133810412Y-94001202D01*
X133795685Y-94003320D01*
X133664900Y-94063048D01*
X133556239Y-94157202D01*
X133478507Y-94278156D01*
X133453639Y-94362849D01*
X132704898Y-93614108D01*
X132704897Y-93614108D01*
X132590206Y-93801266D01*
X132499371Y-94020562D01*
X132443960Y-94251367D01*
X132425337Y-94488000D01*
X129419902Y-94488000D01*
X130496657Y-93411245D01*
X130509092Y-93401284D01*
X130508905Y-93401057D01*
X130515016Y-93396001D01*
X130515015Y-93396001D01*
X130515018Y-93396000D01*
X130561676Y-93346312D01*
X130564367Y-93343535D01*
X130584134Y-93323770D01*
X130586617Y-93320567D01*
X130594308Y-93311562D01*
X130624586Y-93279321D01*
X130634345Y-93261567D01*
X130645197Y-93245046D01*
X130657613Y-93229041D01*
X130675168Y-93188470D01*
X130680392Y-93177808D01*
X130701695Y-93139060D01*
X130706733Y-93119435D01*
X130713138Y-93100730D01*
X130721181Y-93082145D01*
X130728096Y-93038476D01*
X130730503Y-93026856D01*
X130740992Y-92986009D01*
X130741500Y-92984030D01*
X130741500Y-92963769D01*
X130743051Y-92944058D01*
X130745391Y-92929282D01*
X130746219Y-92924057D01*
X130742059Y-92880045D01*
X130741500Y-92868188D01*
X130741500Y-87122000D01*
X136863004Y-87122000D01*
X136882951Y-87350002D01*
X136942186Y-87571068D01*
X136942188Y-87571073D01*
X137038913Y-87778501D01*
X137088899Y-87849888D01*
X137777272Y-87161516D01*
X137790835Y-87247148D01*
X137848359Y-87360045D01*
X137937955Y-87449641D01*
X138050852Y-87507165D01*
X138136482Y-87520727D01*
X137448110Y-88209098D01*
X137448110Y-88209100D01*
X137519498Y-88259086D01*
X137726926Y-88355811D01*
X137726931Y-88355813D01*
X137947999Y-88415048D01*
X137947995Y-88415048D01*
X138176000Y-88434995D01*
X138404002Y-88415048D01*
X138625068Y-88355813D01*
X138625073Y-88355811D01*
X138832497Y-88259088D01*
X138903888Y-88209099D01*
X138903888Y-88209097D01*
X138215518Y-87520727D01*
X138301148Y-87507165D01*
X138414045Y-87449641D01*
X138503641Y-87360045D01*
X138561165Y-87247148D01*
X138574727Y-87161518D01*
X139263097Y-87849888D01*
X139263099Y-87849888D01*
X139313088Y-87778497D01*
X139409811Y-87571073D01*
X139409813Y-87571068D01*
X139469048Y-87350002D01*
X139488995Y-87122000D01*
X139469048Y-86893997D01*
X139409813Y-86672931D01*
X139409811Y-86672926D01*
X139313086Y-86465498D01*
X139263100Y-86394110D01*
X139263098Y-86394110D01*
X138574727Y-87082481D01*
X138561165Y-86996852D01*
X138503641Y-86883955D01*
X138414045Y-86794359D01*
X138301148Y-86736835D01*
X138215517Y-86723272D01*
X138903888Y-86034899D01*
X138903888Y-86034898D01*
X138832501Y-85984913D01*
X138625073Y-85888188D01*
X138625068Y-85888186D01*
X138404000Y-85828951D01*
X138404004Y-85828951D01*
X138176000Y-85809004D01*
X137947997Y-85828951D01*
X137726931Y-85888186D01*
X137726926Y-85888188D01*
X137519500Y-85984913D01*
X137448109Y-86034900D01*
X138136481Y-86723272D01*
X138050852Y-86736835D01*
X137937955Y-86794359D01*
X137848359Y-86883955D01*
X137790835Y-86996852D01*
X137777272Y-87082481D01*
X137088900Y-86394109D01*
X137038913Y-86465500D01*
X136942188Y-86672926D01*
X136942186Y-86672931D01*
X136882951Y-86893997D01*
X136863004Y-87122000D01*
X130741500Y-87122000D01*
X130741500Y-80467393D01*
X130761502Y-80399272D01*
X130795230Y-80364180D01*
X130952291Y-80254204D01*
X130952300Y-80254198D01*
X131114198Y-80092300D01*
X131245523Y-79904749D01*
X131245523Y-79904748D01*
X131245525Y-79904746D01*
X131248274Y-79899985D01*
X131250245Y-79901122D01*
X131290713Y-79855154D01*
X131358989Y-79835687D01*
X131426951Y-79856223D01*
X131465822Y-79901083D01*
X131467726Y-79899985D01*
X131470474Y-79904746D01*
X131559453Y-80031820D01*
X131601802Y-80092300D01*
X131763700Y-80254198D01*
X131951251Y-80385523D01*
X132158757Y-80482284D01*
X132379913Y-80541543D01*
X132608000Y-80561498D01*
X132836087Y-80541543D01*
X133057243Y-80482284D01*
X133179750Y-80425157D01*
X133249941Y-80414496D01*
X133286248Y-80425157D01*
X133408757Y-80482284D01*
X133629913Y-80541543D01*
X133858000Y-80561498D01*
X133949900Y-80553457D01*
X134019505Y-80567445D01*
X134049978Y-80589882D01*
X136612847Y-83152752D01*
X136646873Y-83215064D01*
X136645459Y-83274457D01*
X136628458Y-83337907D01*
X136628457Y-83337910D01*
X136628457Y-83337913D01*
X136608502Y-83566000D01*
X136628457Y-83794087D01*
X136651145Y-83878759D01*
X136687715Y-84015240D01*
X136687717Y-84015246D01*
X136715581Y-84075000D01*
X136784477Y-84222749D01*
X136915802Y-84410300D01*
X137077700Y-84572198D01*
X137265251Y-84703523D01*
X137472757Y-84800284D01*
X137693913Y-84859543D01*
X137922000Y-84879498D01*
X138150087Y-84859543D01*
X138371243Y-84800284D01*
X138578749Y-84703523D01*
X138766300Y-84572198D01*
X138928198Y-84410300D01*
X139059523Y-84222749D01*
X139156284Y-84015243D01*
X139215543Y-83794087D01*
X139235498Y-83566000D01*
X139215543Y-83337913D01*
X139156284Y-83116757D01*
X139059523Y-82909251D01*
X138928198Y-82721700D01*
X138766300Y-82559802D01*
X138752301Y-82550000D01*
X138578749Y-82428477D01*
X138371246Y-82331717D01*
X138371240Y-82331715D01*
X138277771Y-82306670D01*
X138150087Y-82272457D01*
X137922000Y-82252502D01*
X137693913Y-82272457D01*
X137693910Y-82272457D01*
X137693907Y-82272458D01*
X137630456Y-82289459D01*
X137559479Y-82287769D01*
X137508751Y-82256847D01*
X135109149Y-79857244D01*
X135075123Y-79794932D01*
X135080188Y-79724116D01*
X135084042Y-79714915D01*
X135092284Y-79697243D01*
X135151543Y-79476087D01*
X135171498Y-79248000D01*
X135151543Y-79019913D01*
X135092284Y-78798757D01*
X134995523Y-78591251D01*
X134864198Y-78403700D01*
X134702300Y-78241802D01*
X134700566Y-78240588D01*
X134514749Y-78110477D01*
X134307246Y-78013717D01*
X134307240Y-78013715D01*
X134213771Y-77988670D01*
X134086087Y-77954457D01*
X133858000Y-77934502D01*
X133629913Y-77954457D01*
X133408759Y-78013715D01*
X133408749Y-78013719D01*
X133286249Y-78070841D01*
X133216058Y-78081502D01*
X133179751Y-78070841D01*
X133057250Y-78013719D01*
X133057246Y-78013717D01*
X133057243Y-78013716D01*
X133057241Y-78013715D01*
X133057240Y-78013715D01*
X132963771Y-77988670D01*
X132836087Y-77954457D01*
X132608000Y-77934502D01*
X132379913Y-77954457D01*
X132158759Y-78013715D01*
X132158753Y-78013717D01*
X131951250Y-78110477D01*
X131763703Y-78241799D01*
X131763697Y-78241804D01*
X131601804Y-78403697D01*
X131601799Y-78403703D01*
X131470474Y-78591253D01*
X131467726Y-78596015D01*
X131465761Y-78594880D01*
X131425255Y-78640865D01*
X131356974Y-78660312D01*
X131289018Y-78639756D01*
X131250168Y-78594921D01*
X131248274Y-78596015D01*
X131245525Y-78591253D01*
X131114200Y-78403703D01*
X131114195Y-78403697D01*
X130952302Y-78241804D01*
X130952296Y-78241799D01*
X130764749Y-78110477D01*
X130557246Y-78013717D01*
X130557240Y-78013715D01*
X130463771Y-77988670D01*
X130336087Y-77954457D01*
X130108000Y-77934502D01*
X129879913Y-77954457D01*
X129658759Y-78013715D01*
X129658749Y-78013719D01*
X129536249Y-78070841D01*
X129466058Y-78081502D01*
X129429751Y-78070841D01*
X129307250Y-78013719D01*
X129307246Y-78013717D01*
X129307243Y-78013716D01*
X129307241Y-78013715D01*
X129307240Y-78013715D01*
X129213771Y-77988670D01*
X129086087Y-77954457D01*
X128858000Y-77934502D01*
X128629913Y-77954457D01*
X128408759Y-78013715D01*
X128408753Y-78013717D01*
X128201250Y-78110477D01*
X128013703Y-78241799D01*
X128013697Y-78241804D01*
X127851804Y-78403697D01*
X127851799Y-78403703D01*
X127720477Y-78591250D01*
X127623717Y-78798753D01*
X127623715Y-78798759D01*
X127564457Y-79019913D01*
X127544502Y-79248000D01*
X127564457Y-79476086D01*
X127623715Y-79697240D01*
X127623717Y-79697246D01*
X127720477Y-79904749D01*
X127805346Y-80025955D01*
X127851802Y-80092300D01*
X128013700Y-80254198D01*
X128201251Y-80385523D01*
X128408757Y-80482284D01*
X128629913Y-80541543D01*
X128858000Y-80561498D01*
X129086087Y-80541543D01*
X129307243Y-80482284D01*
X129307243Y-80482283D01*
X129312557Y-80480860D01*
X129312989Y-80482473D01*
X129376251Y-80478448D01*
X129438294Y-80512962D01*
X129471827Y-80575540D01*
X129474500Y-80601354D01*
X129474500Y-86585239D01*
X129454498Y-86653360D01*
X129400842Y-86699853D01*
X129330568Y-86709957D01*
X129265988Y-86680463D01*
X129234305Y-86638489D01*
X129169636Y-86499806D01*
X129153523Y-86465251D01*
X129022198Y-86277700D01*
X128860300Y-86115802D01*
X128744757Y-86034898D01*
X128672749Y-85984477D01*
X128465246Y-85887717D01*
X128465240Y-85887715D01*
X128368520Y-85861799D01*
X128244087Y-85828457D01*
X128016000Y-85808502D01*
X127787913Y-85828457D01*
X127566759Y-85887715D01*
X127566753Y-85887717D01*
X127359250Y-85984477D01*
X127171703Y-86115799D01*
X127171697Y-86115804D01*
X127009804Y-86277697D01*
X127009799Y-86277703D01*
X126899819Y-86434771D01*
X126844362Y-86479099D01*
X126796606Y-86488500D01*
X126266594Y-86488500D01*
X126198473Y-86468498D01*
X126177499Y-86451595D01*
X118706642Y-78980737D01*
X118672616Y-78918425D01*
X118670274Y-78880019D01*
X118683249Y-78740000D01*
X118664294Y-78535441D01*
X118626810Y-78403700D01*
X118608076Y-78337855D01*
X118608075Y-78337854D01*
X118608074Y-78337848D01*
X118607742Y-78337181D01*
X118516506Y-78153954D01*
X118516502Y-78153949D01*
X118511337Y-78147110D01*
X118461793Y-78081502D01*
X118392702Y-77990009D01*
X118240883Y-77851608D01*
X118066223Y-77743463D01*
X118066222Y-77743462D01*
X118066218Y-77743460D01*
X117925928Y-77689112D01*
X117874656Y-77669249D01*
X117824124Y-77659803D01*
X117672718Y-77631500D01*
X117467282Y-77631500D01*
X117345793Y-77654210D01*
X117277653Y-77666948D01*
X117207017Y-77659803D01*
X117151457Y-77615604D01*
X117128612Y-77548383D01*
X117128501Y-77543093D01*
X117128501Y-74668855D01*
X117130250Y-74653013D01*
X117129957Y-74652986D01*
X117130701Y-74645100D01*
X117130703Y-74645093D01*
X117128563Y-74577001D01*
X117128501Y-74573043D01*
X117128501Y-74545151D01*
X117128501Y-74545145D01*
X117127994Y-74541136D01*
X117127063Y-74529307D01*
X117125675Y-74485112D01*
X117120018Y-74465643D01*
X117116013Y-74446299D01*
X117113475Y-74426204D01*
X117097197Y-74385093D01*
X117093357Y-74373878D01*
X117081019Y-74331408D01*
X117070707Y-74313971D01*
X117062011Y-74296222D01*
X117054553Y-74277384D01*
X117028553Y-74241599D01*
X117022060Y-74231715D01*
X116999543Y-74193639D01*
X116985215Y-74179311D01*
X116972385Y-74164290D01*
X116960473Y-74147894D01*
X116960470Y-74147892D01*
X116960470Y-74147891D01*
X116926397Y-74119703D01*
X116917619Y-74111714D01*
X116625151Y-73819246D01*
X116591125Y-73756934D01*
X116592539Y-73697541D01*
X116602599Y-73660000D01*
X118828502Y-73660000D01*
X118848457Y-73888087D01*
X118875133Y-73987641D01*
X118907715Y-74109240D01*
X118907717Y-74109246D01*
X119004477Y-74316749D01*
X119020547Y-74339700D01*
X119135802Y-74504300D01*
X119297700Y-74666198D01*
X119485251Y-74797523D01*
X119692757Y-74894284D01*
X119913913Y-74953543D01*
X120142000Y-74973498D01*
X120370087Y-74953543D01*
X120591243Y-74894284D01*
X120798749Y-74797523D01*
X120986300Y-74666198D01*
X121148198Y-74504300D01*
X121279523Y-74316749D01*
X121376284Y-74109243D01*
X121435543Y-73888087D01*
X121455498Y-73660000D01*
X121435543Y-73431913D01*
X121376284Y-73210757D01*
X121279523Y-73003251D01*
X121148198Y-72815700D01*
X120986300Y-72653802D01*
X120972301Y-72644000D01*
X120798749Y-72522477D01*
X120591246Y-72425717D01*
X120591240Y-72425715D01*
X120494520Y-72399799D01*
X120370087Y-72366457D01*
X120142000Y-72346502D01*
X119913913Y-72366457D01*
X119692759Y-72425715D01*
X119692753Y-72425717D01*
X119485250Y-72522477D01*
X119297703Y-72653799D01*
X119297697Y-72653804D01*
X119135804Y-72815697D01*
X119135799Y-72815703D01*
X119004477Y-73003250D01*
X118907717Y-73210753D01*
X118907715Y-73210759D01*
X118855400Y-73406000D01*
X118848457Y-73431913D01*
X118828502Y-73660000D01*
X116602599Y-73660000D01*
X116609543Y-73634087D01*
X116629498Y-73406000D01*
X116609543Y-73177913D01*
X116592540Y-73114457D01*
X116594229Y-73043481D01*
X116625149Y-72992753D01*
X118680022Y-70937880D01*
X118742332Y-70903856D01*
X118780097Y-70901457D01*
X118872000Y-70909498D01*
X119100087Y-70889543D01*
X119321243Y-70830284D01*
X119528749Y-70733523D01*
X119716300Y-70602198D01*
X119878198Y-70440300D01*
X120009523Y-70252749D01*
X120016259Y-70238301D01*
X120063171Y-70185018D01*
X120131447Y-70165554D01*
X120199408Y-70186092D01*
X120219549Y-70202455D01*
X123027595Y-73010501D01*
X123061621Y-73072813D01*
X123064500Y-73099596D01*
X123064500Y-78068247D01*
X123044498Y-78136368D01*
X122990842Y-78182861D01*
X122920568Y-78192965D01*
X122892984Y-78185739D01*
X122746399Y-78128951D01*
X122640874Y-78109225D01*
X122535351Y-78089500D01*
X122320649Y-78089500D01*
X122196769Y-78112657D01*
X122109597Y-78128952D01*
X121909408Y-78206507D01*
X121909401Y-78206510D01*
X121726854Y-78319537D01*
X121568191Y-78464178D01*
X121438805Y-78635514D01*
X121343103Y-78827708D01*
X121343100Y-78827716D01*
X121284347Y-79034210D01*
X121264537Y-79248000D01*
X121284347Y-79461789D01*
X121343100Y-79668283D01*
X121343103Y-79668291D01*
X121438804Y-79860484D01*
X121551713Y-80010000D01*
X121568191Y-80031821D01*
X121726854Y-80176462D01*
X121726856Y-80176463D01*
X121726857Y-80176464D01*
X121909400Y-80289489D01*
X122109598Y-80367047D01*
X122109603Y-80367049D01*
X122320649Y-80406500D01*
X122320651Y-80406500D01*
X122409341Y-80406500D01*
X122477462Y-80426502D01*
X122523955Y-80480158D01*
X122534802Y-80520870D01*
X122544428Y-80624738D01*
X122554347Y-80731789D01*
X122613100Y-80938283D01*
X122613103Y-80938291D01*
X122708804Y-81130484D01*
X122827928Y-81288230D01*
X122838191Y-81301821D01*
X122996854Y-81446462D01*
X122996856Y-81446463D01*
X122996857Y-81446464D01*
X123179400Y-81559489D01*
X123205799Y-81569716D01*
X123379598Y-81637047D01*
X123379603Y-81637049D01*
X123590649Y-81676500D01*
X123590651Y-81676500D01*
X123805349Y-81676500D01*
X123805351Y-81676500D01*
X124016397Y-81637049D01*
X124216600Y-81559489D01*
X124399143Y-81446464D01*
X124491973Y-81361837D01*
X124555790Y-81330727D01*
X124626296Y-81339057D01*
X124665953Y-81365857D01*
X125572552Y-82272457D01*
X126452847Y-83152752D01*
X126486873Y-83215064D01*
X126485459Y-83274457D01*
X126468458Y-83337907D01*
X126468457Y-83337910D01*
X126468457Y-83337913D01*
X126448502Y-83566000D01*
X126468457Y-83794087D01*
X126491145Y-83878759D01*
X126527715Y-84015240D01*
X126527717Y-84015246D01*
X126555581Y-84075000D01*
X126624477Y-84222749D01*
X126755802Y-84410300D01*
X126917700Y-84572198D01*
X127105251Y-84703523D01*
X127312757Y-84800284D01*
X127533913Y-84859543D01*
X127762000Y-84879498D01*
X127990087Y-84859543D01*
X128211243Y-84800284D01*
X128418749Y-84703523D01*
X128606300Y-84572198D01*
X128768198Y-84410300D01*
X128899523Y-84222749D01*
X128996284Y-84015243D01*
X129055543Y-83794087D01*
X129075498Y-83566000D01*
X129055543Y-83337913D01*
X128996284Y-83116757D01*
X128899523Y-82909251D01*
X128768198Y-82721700D01*
X128606300Y-82559802D01*
X128592301Y-82550000D01*
X128418749Y-82428477D01*
X128211246Y-82331717D01*
X128211240Y-82331715D01*
X128117771Y-82306670D01*
X127990087Y-82272457D01*
X127762000Y-82252502D01*
X127533913Y-82272457D01*
X127533910Y-82272457D01*
X127533907Y-82272458D01*
X127470456Y-82289459D01*
X127399479Y-82287769D01*
X127348751Y-82256847D01*
X125694451Y-80602546D01*
X125660425Y-80540234D01*
X125665490Y-80469418D01*
X125708037Y-80412583D01*
X125739505Y-80395399D01*
X125864204Y-80348889D01*
X125981261Y-80261261D01*
X125986551Y-80254195D01*
X126068887Y-80144207D01*
X126068887Y-80144206D01*
X126068889Y-80144204D01*
X126119989Y-80007201D01*
X126126500Y-79946638D01*
X126126500Y-78549362D01*
X126126499Y-78549350D01*
X126119990Y-78488803D01*
X126119988Y-78488795D01*
X126090924Y-78410875D01*
X126068889Y-78351796D01*
X126068888Y-78351794D01*
X126068887Y-78351792D01*
X125981261Y-78234738D01*
X125864207Y-78147112D01*
X125864202Y-78147110D01*
X125727204Y-78096011D01*
X125727196Y-78096009D01*
X125666649Y-78089500D01*
X125666638Y-78089500D01*
X124457500Y-78089500D01*
X124389379Y-78069498D01*
X124342886Y-78015842D01*
X124331500Y-77963500D01*
X124331500Y-73660000D01*
X128989004Y-73660000D01*
X129008951Y-73888002D01*
X129068186Y-74109068D01*
X129068188Y-74109073D01*
X129164913Y-74316501D01*
X129214899Y-74387888D01*
X129903272Y-73699516D01*
X129916835Y-73785148D01*
X129974359Y-73898045D01*
X130063955Y-73987641D01*
X130176852Y-74045165D01*
X130262482Y-74058727D01*
X129574110Y-74747098D01*
X129574110Y-74747100D01*
X129645498Y-74797086D01*
X129852926Y-74893811D01*
X129852931Y-74893813D01*
X130073999Y-74953048D01*
X130073995Y-74953048D01*
X130302000Y-74972995D01*
X130530002Y-74953048D01*
X130751068Y-74893813D01*
X130751073Y-74893811D01*
X130958497Y-74797088D01*
X131029888Y-74747099D01*
X131029888Y-74747097D01*
X130341518Y-74058727D01*
X130427148Y-74045165D01*
X130540045Y-73987641D01*
X130629641Y-73898045D01*
X130687165Y-73785148D01*
X130700727Y-73699518D01*
X131389097Y-74387888D01*
X131389099Y-74387888D01*
X131439088Y-74316497D01*
X131535811Y-74109073D01*
X131535813Y-74109068D01*
X131595048Y-73888002D01*
X131614995Y-73660000D01*
X131595048Y-73431997D01*
X131535813Y-73210931D01*
X131535811Y-73210926D01*
X131439086Y-73003498D01*
X131389100Y-72932110D01*
X131389098Y-72932110D01*
X130700727Y-73620481D01*
X130687165Y-73534852D01*
X130629641Y-73421955D01*
X130540045Y-73332359D01*
X130427148Y-73274835D01*
X130341517Y-73261272D01*
X131029888Y-72572899D01*
X131029888Y-72572898D01*
X130958501Y-72522913D01*
X130751073Y-72426188D01*
X130751068Y-72426186D01*
X130530000Y-72366951D01*
X130530004Y-72366951D01*
X130302000Y-72347004D01*
X130073997Y-72366951D01*
X129852931Y-72426186D01*
X129852926Y-72426188D01*
X129645500Y-72522913D01*
X129574109Y-72572900D01*
X130262481Y-73261272D01*
X130176852Y-73274835D01*
X130063955Y-73332359D01*
X129974359Y-73421955D01*
X129916835Y-73534852D01*
X129903272Y-73620481D01*
X129214900Y-72932109D01*
X129164913Y-73003500D01*
X129068188Y-73210926D01*
X129068186Y-73210931D01*
X129008951Y-73431997D01*
X128989004Y-73660000D01*
X124331500Y-73660000D01*
X124331500Y-72868855D01*
X124333249Y-72853013D01*
X124332956Y-72852986D01*
X124333702Y-72845093D01*
X124331562Y-72777002D01*
X124331500Y-72773044D01*
X124331500Y-72745152D01*
X124331500Y-72745146D01*
X124330993Y-72741137D01*
X124330062Y-72729308D01*
X124329731Y-72718771D01*
X124328674Y-72685113D01*
X124323017Y-72665644D01*
X124319012Y-72646300D01*
X124316474Y-72626205D01*
X124300196Y-72585094D01*
X124296356Y-72573879D01*
X124284018Y-72531409D01*
X124273706Y-72513972D01*
X124265010Y-72496223D01*
X124257552Y-72477385D01*
X124231552Y-72441600D01*
X124225059Y-72431716D01*
X124202542Y-72393640D01*
X124188214Y-72379312D01*
X124175384Y-72364291D01*
X124163472Y-72347895D01*
X124163469Y-72347893D01*
X124163469Y-72347892D01*
X124129394Y-72319702D01*
X124120616Y-72311714D01*
X121487198Y-69678296D01*
X118951355Y-67142452D01*
X118917331Y-67080143D01*
X118922396Y-67009328D01*
X118964943Y-66952492D01*
X118987196Y-66939168D01*
X119020749Y-66923523D01*
X119208300Y-66792198D01*
X119370198Y-66630300D01*
X119480181Y-66473229D01*
X119535638Y-66428901D01*
X119583394Y-66419500D01*
X124172947Y-66419500D01*
X124188788Y-66421249D01*
X124188816Y-66420956D01*
X124196702Y-66421700D01*
X124196709Y-66421702D01*
X124264786Y-66419562D01*
X124268745Y-66419500D01*
X124296651Y-66419500D01*
X124296656Y-66419500D01*
X124300667Y-66418992D01*
X124312499Y-66418061D01*
X124356689Y-66416673D01*
X124376147Y-66411019D01*
X124395494Y-66407013D01*
X124415597Y-66404474D01*
X124456710Y-66388195D01*
X124467930Y-66384353D01*
X124495654Y-66376300D01*
X124510391Y-66372019D01*
X124510395Y-66372017D01*
X124527826Y-66361708D01*
X124545580Y-66353009D01*
X124564417Y-66345552D01*
X124600192Y-66319558D01*
X124610098Y-66313051D01*
X124648162Y-66290542D01*
X124662485Y-66276218D01*
X124677524Y-66263374D01*
X124693907Y-66251472D01*
X124722103Y-66217386D01*
X124730072Y-66208630D01*
X128364009Y-62574694D01*
X128426319Y-62540670D01*
X128497135Y-62545735D01*
X128542197Y-62574695D01*
X128695700Y-62728198D01*
X128883251Y-62859523D01*
X128941638Y-62886749D01*
X129088402Y-62955186D01*
X129141687Y-63002103D01*
X129161148Y-63070380D01*
X129140606Y-63138340D01*
X129124247Y-63158476D01*
X128135336Y-64147387D01*
X128122901Y-64157351D01*
X128123089Y-64157578D01*
X128116979Y-64162632D01*
X128070370Y-64212265D01*
X128067620Y-64215103D01*
X128047863Y-64234861D01*
X128045374Y-64238069D01*
X128037688Y-64247066D01*
X128007418Y-64279303D01*
X128007411Y-64279313D01*
X127997651Y-64297065D01*
X127986803Y-64313580D01*
X127974386Y-64329588D01*
X127956824Y-64370170D01*
X127951604Y-64380825D01*
X127930305Y-64419569D01*
X127930303Y-64419574D01*
X127925267Y-64439189D01*
X127918864Y-64457892D01*
X127910819Y-64476482D01*
X127903901Y-64520155D01*
X127901495Y-64531772D01*
X127890499Y-64574600D01*
X127889515Y-64582393D01*
X127861132Y-64647470D01*
X127836780Y-64669813D01*
X127679703Y-64779799D01*
X127679697Y-64779804D01*
X127517804Y-64941697D01*
X127517799Y-64941703D01*
X127386477Y-65129250D01*
X127289717Y-65336753D01*
X127289715Y-65336759D01*
X127230457Y-65557913D01*
X127210502Y-65786000D01*
X127230457Y-66014086D01*
X127289715Y-66235240D01*
X127289717Y-66235246D01*
X127386477Y-66442749D01*
X127500481Y-66605564D01*
X127517802Y-66630300D01*
X127679700Y-66792198D01*
X127867251Y-66923523D01*
X128074757Y-67020284D01*
X128295913Y-67079543D01*
X128524000Y-67099498D01*
X128752087Y-67079543D01*
X128973243Y-67020284D01*
X129180749Y-66923523D01*
X129368300Y-66792198D01*
X129530198Y-66630300D01*
X129661523Y-66442749D01*
X129758284Y-66235243D01*
X129817543Y-66014087D01*
X129837498Y-65786000D01*
X129817543Y-65557913D01*
X129758284Y-65336757D01*
X129661523Y-65129251D01*
X129530198Y-64941700D01*
X129420610Y-64832112D01*
X129386584Y-64769800D01*
X129391649Y-64698985D01*
X129420608Y-64653924D01*
X134979661Y-59094872D01*
X134992099Y-59084909D01*
X134991911Y-59084682D01*
X134998017Y-59079630D01*
X134998016Y-59079630D01*
X134998019Y-59079629D01*
X135044662Y-59029957D01*
X135047352Y-59027181D01*
X135067136Y-59007399D01*
X135069615Y-59004202D01*
X135077312Y-58995188D01*
X135107587Y-58962950D01*
X135117347Y-58945194D01*
X135128196Y-58928679D01*
X135140615Y-58912670D01*
X135158180Y-58872075D01*
X135163385Y-58861450D01*
X135184696Y-58822689D01*
X135189734Y-58803063D01*
X135196138Y-58784361D01*
X135204181Y-58765776D01*
X135204180Y-58765776D01*
X135204182Y-58765774D01*
X135211097Y-58722110D01*
X135213505Y-58710481D01*
X135217725Y-58694047D01*
X135224501Y-58667659D01*
X135224501Y-58647404D01*
X135226052Y-58627692D01*
X135226391Y-58625553D01*
X135229221Y-58607686D01*
X135225060Y-58563665D01*
X135224501Y-58551808D01*
X135224501Y-58434500D01*
X135244503Y-58366379D01*
X135298159Y-58319886D01*
X135350501Y-58308500D01*
X136588632Y-58308500D01*
X136588638Y-58308500D01*
X136588645Y-58308499D01*
X136588649Y-58308499D01*
X136649196Y-58301990D01*
X136649199Y-58301989D01*
X136649201Y-58301989D01*
X136786204Y-58250889D01*
X136791548Y-58246889D01*
X136903261Y-58163261D01*
X136990887Y-58046207D01*
X136990887Y-58046206D01*
X136990889Y-58046204D01*
X137037290Y-57921799D01*
X137041988Y-57909204D01*
X137041990Y-57909196D01*
X137048499Y-57848649D01*
X137048500Y-57848632D01*
X137048500Y-57431104D01*
X137068502Y-57362983D01*
X137122158Y-57316490D01*
X137192432Y-57306386D01*
X137257012Y-57335880D01*
X137295396Y-57395606D01*
X137295690Y-57396623D01*
X137345100Y-57570283D01*
X137345103Y-57570291D01*
X137440804Y-57762484D01*
X137569190Y-57932495D01*
X137570191Y-57933821D01*
X137728854Y-58078462D01*
X137728856Y-58078463D01*
X137728857Y-58078464D01*
X137911400Y-58191489D01*
X138054397Y-58246887D01*
X138111598Y-58269047D01*
X138111603Y-58269049D01*
X138322649Y-58308500D01*
X138322651Y-58308500D01*
X138537349Y-58308500D01*
X138537351Y-58308500D01*
X138748397Y-58269049D01*
X138948600Y-58191489D01*
X139131143Y-58078464D01*
X139289810Y-57933820D01*
X139405247Y-57780955D01*
X139462259Y-57738649D01*
X139533095Y-57733881D01*
X139594891Y-57767793D01*
X140952594Y-59125496D01*
X140986620Y-59187808D01*
X140989499Y-59214591D01*
X140989499Y-60882674D01*
X140969497Y-60950795D01*
X140915841Y-60997288D01*
X140845567Y-61007392D01*
X140780987Y-60977898D01*
X140760286Y-60954945D01*
X140706200Y-60877703D01*
X140706195Y-60877697D01*
X140544302Y-60715804D01*
X140544296Y-60715799D01*
X140356749Y-60584477D01*
X140149246Y-60487717D01*
X140149240Y-60487715D01*
X140055771Y-60462670D01*
X139928087Y-60428457D01*
X139700000Y-60408502D01*
X139471913Y-60428457D01*
X139250759Y-60487715D01*
X139250753Y-60487717D01*
X139043250Y-60584477D01*
X138855703Y-60715799D01*
X138855697Y-60715804D01*
X138693804Y-60877697D01*
X138693799Y-60877703D01*
X138583819Y-61034771D01*
X138528362Y-61079099D01*
X138480606Y-61088500D01*
X136989854Y-61088500D01*
X136974012Y-61086750D01*
X136973985Y-61087044D01*
X136966092Y-61086297D01*
X136898002Y-61088438D01*
X136894044Y-61088500D01*
X136866144Y-61088500D01*
X136866138Y-61088500D01*
X136866132Y-61088501D01*
X136862133Y-61089006D01*
X136850313Y-61089936D01*
X136806111Y-61091325D01*
X136786650Y-61096979D01*
X136767304Y-61100985D01*
X136747204Y-61103525D01*
X136747203Y-61103525D01*
X136706095Y-61119800D01*
X136694870Y-61123643D01*
X136652413Y-61135978D01*
X136652404Y-61135982D01*
X136634962Y-61146297D01*
X136617215Y-61154991D01*
X136598383Y-61162447D01*
X136598381Y-61162448D01*
X136562614Y-61188434D01*
X136552700Y-61194947D01*
X136514636Y-61217459D01*
X136514633Y-61217461D01*
X136500312Y-61231783D01*
X136485283Y-61244619D01*
X136468893Y-61256527D01*
X136440700Y-61290605D01*
X136432713Y-61299381D01*
X129445246Y-68286847D01*
X129382934Y-68320873D01*
X129323540Y-68319459D01*
X129260090Y-68302457D01*
X129032000Y-68282502D01*
X128803913Y-68302457D01*
X128582759Y-68361715D01*
X128582753Y-68361717D01*
X128375250Y-68458477D01*
X128187703Y-68589799D01*
X128187697Y-68589804D01*
X128025804Y-68751697D01*
X128025799Y-68751703D01*
X127894477Y-68939250D01*
X127797717Y-69146753D01*
X127797715Y-69146759D01*
X127738458Y-69367909D01*
X127738457Y-69367913D01*
X127718502Y-69596000D01*
X127738457Y-69824087D01*
X127764452Y-69921100D01*
X127797715Y-70045240D01*
X127797717Y-70045246D01*
X127894477Y-70252749D01*
X127956013Y-70340632D01*
X128025802Y-70440300D01*
X128187700Y-70602198D01*
X128375251Y-70733523D01*
X128582757Y-70830284D01*
X128803913Y-70889543D01*
X129032000Y-70909498D01*
X129260087Y-70889543D01*
X129481243Y-70830284D01*
X129688749Y-70733523D01*
X129876300Y-70602198D01*
X130038198Y-70440300D01*
X130169523Y-70252749D01*
X130238885Y-70104000D01*
X132425337Y-70104000D01*
X132443960Y-70340632D01*
X132499371Y-70571437D01*
X132590208Y-70790738D01*
X132704896Y-70977890D01*
X132704897Y-70977890D01*
X133453638Y-70229149D01*
X133478507Y-70313844D01*
X133556239Y-70434798D01*
X133664900Y-70528952D01*
X133795685Y-70588680D01*
X133810411Y-70590797D01*
X133064107Y-71337101D01*
X133064108Y-71337102D01*
X133251261Y-71451791D01*
X133470562Y-71542628D01*
X133701367Y-71598039D01*
X133938000Y-71616662D01*
X134174632Y-71598039D01*
X134405437Y-71542628D01*
X134624738Y-71451791D01*
X134811890Y-71337102D01*
X134811891Y-71337102D01*
X134065587Y-70590797D01*
X134080315Y-70588680D01*
X134211100Y-70528952D01*
X134319761Y-70434798D01*
X134397493Y-70313844D01*
X134422361Y-70229150D01*
X135171102Y-70977891D01*
X135171102Y-70977890D01*
X135285791Y-70790738D01*
X135376628Y-70571437D01*
X135432039Y-70340632D01*
X135450662Y-70104000D01*
X135432039Y-69867367D01*
X135376628Y-69636562D01*
X135285791Y-69417261D01*
X135171102Y-69230108D01*
X135171101Y-69230107D01*
X134422360Y-69978848D01*
X134397493Y-69894156D01*
X134319761Y-69773202D01*
X134211100Y-69679048D01*
X134080315Y-69619320D01*
X134065586Y-69617202D01*
X134811890Y-68870897D01*
X134811890Y-68870896D01*
X134624738Y-68756208D01*
X134405437Y-68665371D01*
X134174632Y-68609960D01*
X133938000Y-68591337D01*
X133701367Y-68609960D01*
X133470562Y-68665371D01*
X133251266Y-68756206D01*
X133064108Y-68870897D01*
X133064108Y-68870898D01*
X133810412Y-69617202D01*
X133795685Y-69619320D01*
X133664900Y-69679048D01*
X133556239Y-69773202D01*
X133478507Y-69894156D01*
X133453639Y-69978849D01*
X132704898Y-69230108D01*
X132704897Y-69230108D01*
X132590206Y-69417266D01*
X132499371Y-69636562D01*
X132443960Y-69867367D01*
X132425337Y-70104000D01*
X130238885Y-70104000D01*
X130266284Y-70045243D01*
X130325543Y-69824087D01*
X130345498Y-69596000D01*
X130325543Y-69367913D01*
X130308540Y-69304457D01*
X130310229Y-69233481D01*
X130341149Y-69182753D01*
X137131499Y-62392405D01*
X137193811Y-62358379D01*
X137220594Y-62355500D01*
X138174878Y-62355500D01*
X138242999Y-62375502D01*
X138289492Y-62429158D01*
X138300318Y-62469641D01*
X138301039Y-62477261D01*
X138303941Y-62507962D01*
X138304500Y-62519819D01*
X138304500Y-68469500D01*
X138284498Y-68537621D01*
X138230842Y-68584114D01*
X138178500Y-68595500D01*
X137889350Y-68595500D01*
X137828803Y-68602009D01*
X137828795Y-68602011D01*
X137691797Y-68653110D01*
X137691792Y-68653112D01*
X137574738Y-68740738D01*
X137487112Y-68857792D01*
X137487110Y-68857797D01*
X137436011Y-68994795D01*
X137436009Y-68994803D01*
X137429500Y-69055350D01*
X137429500Y-71152649D01*
X137436009Y-71213196D01*
X137436011Y-71213204D01*
X137487110Y-71350202D01*
X137487112Y-71350207D01*
X137574738Y-71467261D01*
X137691792Y-71554887D01*
X137691794Y-71554888D01*
X137691796Y-71554889D01*
X137750875Y-71576924D01*
X137828795Y-71605988D01*
X137828803Y-71605990D01*
X137889350Y-71612499D01*
X137889355Y-71612499D01*
X137889362Y-71612500D01*
X138178500Y-71612500D01*
X138246621Y-71632502D01*
X138293114Y-71686158D01*
X138304500Y-71738500D01*
X138304500Y-72306146D01*
X138302751Y-72321988D01*
X138303044Y-72322016D01*
X138302298Y-72329907D01*
X138304438Y-72397984D01*
X138304500Y-72401943D01*
X138304500Y-72429851D01*
X138304501Y-72429869D01*
X138305007Y-72433877D01*
X138305937Y-72445696D01*
X138307326Y-72489888D01*
X138307327Y-72489893D01*
X138312977Y-72509339D01*
X138316986Y-72528697D01*
X138319525Y-72548793D01*
X138319526Y-72548800D01*
X138335800Y-72589903D01*
X138339644Y-72601129D01*
X138351982Y-72643593D01*
X138362294Y-72661031D01*
X138370988Y-72678779D01*
X138378444Y-72697609D01*
X138378450Y-72697620D01*
X138404432Y-72733381D01*
X138410949Y-72743301D01*
X138433458Y-72781362D01*
X138433459Y-72781363D01*
X138433461Y-72781366D01*
X138447779Y-72795684D01*
X138460617Y-72810714D01*
X138472526Y-72827104D01*
X138472530Y-72827109D01*
X138506598Y-72855292D01*
X138515378Y-72863282D01*
X142962847Y-77310751D01*
X142996873Y-77373063D01*
X142995459Y-77432456D01*
X142978458Y-77495907D01*
X142978457Y-77495910D01*
X142978457Y-77495913D01*
X142958502Y-77724000D01*
X142978457Y-77952087D01*
X142995540Y-78015842D01*
X143037715Y-78173240D01*
X143037717Y-78173246D01*
X143134477Y-78380749D01*
X143150547Y-78403700D01*
X143265802Y-78568300D01*
X143427700Y-78730198D01*
X143615251Y-78861523D01*
X143638500Y-78872364D01*
X143654457Y-78879805D01*
X143707742Y-78926722D01*
X143727203Y-78994999D01*
X143706661Y-79062959D01*
X143654457Y-79108195D01*
X143615250Y-79126477D01*
X143427703Y-79257799D01*
X143427697Y-79257804D01*
X143265804Y-79419697D01*
X143265799Y-79419703D01*
X143134477Y-79607250D01*
X143037717Y-79814753D01*
X143037715Y-79814759D01*
X143004986Y-79936906D01*
X142978457Y-80035913D01*
X142958502Y-80264000D01*
X142978457Y-80492087D01*
X142997056Y-80561498D01*
X143037715Y-80713240D01*
X143037717Y-80713246D01*
X143134477Y-80920749D01*
X143150547Y-80943700D01*
X143265802Y-81108300D01*
X143427700Y-81270198D01*
X143615251Y-81401523D01*
X143655045Y-81420079D01*
X143655047Y-81420080D01*
X143708332Y-81466996D01*
X143727794Y-81535273D01*
X143707253Y-81603233D01*
X143655051Y-81648468D01*
X143615504Y-81666910D01*
X143428025Y-81798184D01*
X143428019Y-81798189D01*
X143266189Y-81960019D01*
X143266184Y-81960025D01*
X143134912Y-82147501D01*
X143038188Y-82354926D01*
X143038186Y-82354931D01*
X142985917Y-82550000D01*
X143960314Y-82550000D01*
X143944359Y-82565955D01*
X143886835Y-82678852D01*
X143867014Y-82804000D01*
X143886835Y-82929148D01*
X143944359Y-83042045D01*
X143960314Y-83058000D01*
X142985918Y-83058000D01*
X143038186Y-83253068D01*
X143038188Y-83253073D01*
X143134912Y-83460498D01*
X143266184Y-83647974D01*
X143266189Y-83647980D01*
X143428019Y-83809810D01*
X143428025Y-83809815D01*
X143615503Y-83941089D01*
X143655641Y-83959806D01*
X143708925Y-84006723D01*
X143728386Y-84075000D01*
X143707844Y-84142960D01*
X143655641Y-84188194D01*
X143615503Y-84206910D01*
X143428025Y-84338184D01*
X143428019Y-84338189D01*
X143266189Y-84500019D01*
X143266184Y-84500025D01*
X143134912Y-84687501D01*
X143038188Y-84894926D01*
X143038186Y-84894931D01*
X142985917Y-85090000D01*
X143960314Y-85090000D01*
X143944359Y-85105955D01*
X143886835Y-85218852D01*
X143867014Y-85344000D01*
X143886835Y-85469148D01*
X143944359Y-85582045D01*
X143960314Y-85598000D01*
X142985918Y-85598000D01*
X143038186Y-85793068D01*
X143038188Y-85793073D01*
X143134912Y-86000498D01*
X143266184Y-86187974D01*
X143266189Y-86187980D01*
X143428019Y-86349810D01*
X143428025Y-86349815D01*
X143615503Y-86481089D01*
X143655641Y-86499806D01*
X143708925Y-86546723D01*
X143728386Y-86615000D01*
X143707844Y-86682960D01*
X143655641Y-86728194D01*
X143615503Y-86746910D01*
X143428025Y-86878184D01*
X143428019Y-86878189D01*
X143266189Y-87040019D01*
X143266184Y-87040025D01*
X143134912Y-87227501D01*
X143038188Y-87434926D01*
X143038186Y-87434931D01*
X142985917Y-87630000D01*
X143960314Y-87630000D01*
X143944359Y-87645955D01*
X143886835Y-87758852D01*
X143867014Y-87884000D01*
X143886835Y-88009148D01*
X143944359Y-88122045D01*
X143960314Y-88138000D01*
X142985918Y-88138000D01*
X143038186Y-88333068D01*
X143038188Y-88333073D01*
X143134912Y-88540498D01*
X143266184Y-88727974D01*
X143266189Y-88727980D01*
X143428019Y-88889810D01*
X143428025Y-88889815D01*
X143615501Y-89021087D01*
X143822926Y-89117811D01*
X143822931Y-89117813D01*
X144018000Y-89170081D01*
X144018000Y-88195686D01*
X144033955Y-88211641D01*
X144146852Y-88269165D01*
X144240519Y-88284000D01*
X144303481Y-88284000D01*
X144397148Y-88269165D01*
X144510045Y-88211641D01*
X144526000Y-88195686D01*
X144526000Y-89170081D01*
X144721068Y-89117813D01*
X144721073Y-89117811D01*
X144928498Y-89021087D01*
X145115974Y-88889815D01*
X145115980Y-88889810D01*
X145277810Y-88727980D01*
X145277815Y-88727974D01*
X145409087Y-88540498D01*
X145505811Y-88333073D01*
X145505813Y-88333068D01*
X145558082Y-88138000D01*
X144583686Y-88138000D01*
X144599641Y-88122045D01*
X144657165Y-88009148D01*
X144676986Y-87884000D01*
X144657165Y-87758852D01*
X144599641Y-87645955D01*
X144583686Y-87630000D01*
X145558082Y-87630000D01*
X145505813Y-87434931D01*
X145505811Y-87434926D01*
X145409087Y-87227501D01*
X145277815Y-87040025D01*
X145277810Y-87040019D01*
X145115980Y-86878189D01*
X145115974Y-86878184D01*
X144928498Y-86746912D01*
X144888359Y-86728195D01*
X144835074Y-86681278D01*
X144815613Y-86613001D01*
X144836155Y-86545041D01*
X144888359Y-86499805D01*
X144928498Y-86481087D01*
X145115974Y-86349815D01*
X145115980Y-86349810D01*
X145277810Y-86187980D01*
X145277815Y-86187974D01*
X145409087Y-86000498D01*
X145505811Y-85793073D01*
X145505813Y-85793068D01*
X145558082Y-85598000D01*
X144583686Y-85598000D01*
X144599641Y-85582045D01*
X144657165Y-85469148D01*
X144676986Y-85344000D01*
X144657165Y-85218852D01*
X144599641Y-85105955D01*
X144583686Y-85090000D01*
X145558082Y-85090000D01*
X145505813Y-84894931D01*
X145505811Y-84894926D01*
X145409087Y-84687501D01*
X145277815Y-84500025D01*
X145277810Y-84500019D01*
X145115980Y-84338189D01*
X145115974Y-84338184D01*
X144928498Y-84206912D01*
X144888359Y-84188195D01*
X144835074Y-84141278D01*
X144815613Y-84073001D01*
X144836155Y-84005041D01*
X144888359Y-83959805D01*
X144928498Y-83941087D01*
X145115974Y-83809815D01*
X145115980Y-83809810D01*
X145277810Y-83647980D01*
X145277815Y-83647974D01*
X145409087Y-83460498D01*
X145505811Y-83253073D01*
X145505813Y-83253068D01*
X145558082Y-83058000D01*
X144583686Y-83058000D01*
X144599641Y-83042045D01*
X144657165Y-82929148D01*
X144676986Y-82804000D01*
X150578502Y-82804000D01*
X150598457Y-83032087D01*
X150621145Y-83116759D01*
X150657715Y-83253240D01*
X150657717Y-83253246D01*
X150754477Y-83460749D01*
X150846143Y-83591662D01*
X150885802Y-83648300D01*
X151047700Y-83810198D01*
X151235251Y-83941523D01*
X151274457Y-83959805D01*
X151275047Y-83960080D01*
X151328332Y-84006996D01*
X151347794Y-84075273D01*
X151327253Y-84143233D01*
X151275051Y-84188468D01*
X151235504Y-84206910D01*
X151048025Y-84338184D01*
X151048019Y-84338189D01*
X150886189Y-84500019D01*
X150886184Y-84500025D01*
X150754912Y-84687501D01*
X150658188Y-84894926D01*
X150658186Y-84894931D01*
X150605917Y-85090000D01*
X151580314Y-85090000D01*
X151564359Y-85105955D01*
X151506835Y-85218852D01*
X151487014Y-85344000D01*
X151506835Y-85469148D01*
X151564359Y-85582045D01*
X151580314Y-85598000D01*
X150605918Y-85598000D01*
X150658186Y-85793068D01*
X150658188Y-85793073D01*
X150754912Y-86000498D01*
X150886184Y-86187974D01*
X150886189Y-86187980D01*
X151048019Y-86349810D01*
X151048025Y-86349815D01*
X151235503Y-86481089D01*
X151275641Y-86499806D01*
X151328925Y-86546723D01*
X151348386Y-86615000D01*
X151327844Y-86682960D01*
X151275641Y-86728194D01*
X151235503Y-86746910D01*
X151048025Y-86878184D01*
X151048019Y-86878189D01*
X150886189Y-87040019D01*
X150886184Y-87040025D01*
X150754912Y-87227501D01*
X150658188Y-87434926D01*
X150658186Y-87434931D01*
X150605917Y-87630000D01*
X151580314Y-87630000D01*
X151564359Y-87645955D01*
X151506835Y-87758852D01*
X151487014Y-87884000D01*
X151506835Y-88009148D01*
X151564359Y-88122045D01*
X151580314Y-88138000D01*
X150605918Y-88138000D01*
X150658186Y-88333068D01*
X150658188Y-88333073D01*
X150754912Y-88540498D01*
X150886184Y-88727974D01*
X150886189Y-88727980D01*
X151048019Y-88889810D01*
X151048025Y-88889815D01*
X151235501Y-89021087D01*
X151442926Y-89117811D01*
X151442931Y-89117813D01*
X151638000Y-89170081D01*
X151638000Y-88195686D01*
X151653955Y-88211641D01*
X151766852Y-88269165D01*
X151860519Y-88284000D01*
X151923481Y-88284000D01*
X152017148Y-88269165D01*
X152130045Y-88211641D01*
X152146000Y-88195686D01*
X152146000Y-89170081D01*
X152341068Y-89117813D01*
X152341073Y-89117811D01*
X152548498Y-89021087D01*
X152735974Y-88889815D01*
X152735980Y-88889810D01*
X152897810Y-88727980D01*
X152897815Y-88727974D01*
X153029087Y-88540498D01*
X153125811Y-88333073D01*
X153125813Y-88333068D01*
X153178082Y-88138000D01*
X152203686Y-88138000D01*
X152219641Y-88122045D01*
X152277165Y-88009148D01*
X152296986Y-87884000D01*
X152277165Y-87758852D01*
X152219641Y-87645955D01*
X152203686Y-87630000D01*
X153178082Y-87630000D01*
X153125813Y-87434931D01*
X153125811Y-87434926D01*
X153029087Y-87227501D01*
X152897815Y-87040025D01*
X152897810Y-87040019D01*
X152735980Y-86878189D01*
X152735974Y-86878184D01*
X152548498Y-86746912D01*
X152508359Y-86728195D01*
X152455074Y-86681278D01*
X152435613Y-86613001D01*
X152456155Y-86545041D01*
X152508359Y-86499805D01*
X152548498Y-86481087D01*
X152735974Y-86349815D01*
X152735980Y-86349810D01*
X152897810Y-86187980D01*
X152897815Y-86187974D01*
X153029087Y-86000498D01*
X153125811Y-85793073D01*
X153125813Y-85793068D01*
X153178082Y-85598000D01*
X152203686Y-85598000D01*
X152219641Y-85582045D01*
X152277165Y-85469148D01*
X152296986Y-85344000D01*
X152277165Y-85218852D01*
X152219641Y-85105955D01*
X152203686Y-85090000D01*
X153178082Y-85090000D01*
X153125813Y-84894931D01*
X153125811Y-84894926D01*
X153029087Y-84687501D01*
X152897815Y-84500025D01*
X152897810Y-84500019D01*
X152735980Y-84338189D01*
X152735974Y-84338184D01*
X152548497Y-84206911D01*
X152508949Y-84188469D01*
X152455665Y-84141551D01*
X152436205Y-84073273D01*
X152456748Y-84005314D01*
X152508950Y-83960081D01*
X152548749Y-83941523D01*
X152736300Y-83810198D01*
X152898198Y-83648300D01*
X153029523Y-83460749D01*
X153126284Y-83253243D01*
X153185543Y-83032087D01*
X153205498Y-82804000D01*
X153185543Y-82575913D01*
X153126284Y-82354757D01*
X153029523Y-82147251D01*
X152898198Y-81959700D01*
X152736300Y-81797802D01*
X152722301Y-81788000D01*
X152548749Y-81666477D01*
X152508951Y-81647919D01*
X152455666Y-81601002D01*
X152436205Y-81532725D01*
X152456747Y-81464765D01*
X152508951Y-81419529D01*
X152548498Y-81401087D01*
X152735974Y-81269815D01*
X152735980Y-81269810D01*
X152897810Y-81107980D01*
X152897815Y-81107974D01*
X153029087Y-80920498D01*
X153125811Y-80713073D01*
X153125813Y-80713068D01*
X153178082Y-80518000D01*
X152203686Y-80518000D01*
X152219641Y-80502045D01*
X152277165Y-80389148D01*
X152296986Y-80264000D01*
X152277165Y-80138852D01*
X152219641Y-80025955D01*
X152203686Y-80010000D01*
X153178082Y-80010000D01*
X153125813Y-79814931D01*
X153125811Y-79814926D01*
X153029087Y-79607501D01*
X152897815Y-79420025D01*
X152897810Y-79420019D01*
X152735980Y-79258189D01*
X152735974Y-79258184D01*
X152548497Y-79126911D01*
X152508949Y-79108469D01*
X152455665Y-79061551D01*
X152436205Y-78993273D01*
X152456748Y-78925314D01*
X152508950Y-78880081D01*
X152548749Y-78861523D01*
X152736300Y-78730198D01*
X152898198Y-78568300D01*
X153029523Y-78380749D01*
X153126284Y-78173243D01*
X153185543Y-77952087D01*
X153205498Y-77724000D01*
X153185543Y-77495913D01*
X153126284Y-77274757D01*
X153029523Y-77067251D01*
X152898198Y-76879700D01*
X152736300Y-76717802D01*
X152548749Y-76586477D01*
X152508951Y-76567919D01*
X152455666Y-76521002D01*
X152436205Y-76452725D01*
X152456747Y-76384765D01*
X152508951Y-76339529D01*
X152548498Y-76321087D01*
X152735974Y-76189815D01*
X152735980Y-76189810D01*
X152897810Y-76027980D01*
X152897815Y-76027974D01*
X153029087Y-75840498D01*
X153125811Y-75633073D01*
X153125813Y-75633068D01*
X153178082Y-75438000D01*
X152203686Y-75438000D01*
X152219641Y-75422045D01*
X152277165Y-75309148D01*
X152296986Y-75184000D01*
X152277165Y-75058852D01*
X152219641Y-74945955D01*
X152203686Y-74930000D01*
X153178082Y-74930000D01*
X153125813Y-74734931D01*
X153125811Y-74734926D01*
X153029087Y-74527501D01*
X152897815Y-74340025D01*
X152897810Y-74340019D01*
X152735980Y-74178189D01*
X152735974Y-74178184D01*
X152548497Y-74046911D01*
X152508949Y-74028469D01*
X152455665Y-73981551D01*
X152436205Y-73913273D01*
X152456748Y-73845314D01*
X152508950Y-73800081D01*
X152548749Y-73781523D01*
X152736300Y-73650198D01*
X152898198Y-73488300D01*
X153029523Y-73300749D01*
X153126284Y-73093243D01*
X153185543Y-72872087D01*
X153205498Y-72644000D01*
X153185543Y-72415913D01*
X153126284Y-72194757D01*
X153029523Y-71987251D01*
X152898198Y-71799700D01*
X152736300Y-71637802D01*
X152736291Y-71637796D01*
X152548749Y-71506477D01*
X152508951Y-71487919D01*
X152455666Y-71441002D01*
X152436205Y-71372725D01*
X152456747Y-71304765D01*
X152508951Y-71259529D01*
X152548498Y-71241087D01*
X152735974Y-71109815D01*
X152735980Y-71109810D01*
X152897810Y-70947980D01*
X152897815Y-70947974D01*
X153029087Y-70760498D01*
X153125811Y-70553073D01*
X153125813Y-70553068D01*
X153178082Y-70358000D01*
X152203686Y-70358000D01*
X152219641Y-70342045D01*
X152277165Y-70229148D01*
X152296986Y-70104000D01*
X152277165Y-69978852D01*
X152219641Y-69865955D01*
X152203686Y-69850000D01*
X153178082Y-69850000D01*
X153125813Y-69654931D01*
X153125811Y-69654926D01*
X153029087Y-69447501D01*
X152897815Y-69260025D01*
X152897810Y-69260019D01*
X152735980Y-69098189D01*
X152735974Y-69098184D01*
X152548498Y-68966912D01*
X152341073Y-68870188D01*
X152341071Y-68870187D01*
X152146000Y-68817917D01*
X152146000Y-69792314D01*
X152130045Y-69776359D01*
X152017148Y-69718835D01*
X151923481Y-69704000D01*
X151860519Y-69704000D01*
X151766852Y-69718835D01*
X151653955Y-69776359D01*
X151638000Y-69792314D01*
X151638000Y-68817917D01*
X151637999Y-68817917D01*
X151442928Y-68870187D01*
X151442926Y-68870188D01*
X151235501Y-68966912D01*
X151048025Y-69098184D01*
X151048019Y-69098189D01*
X150886189Y-69260019D01*
X150886184Y-69260025D01*
X150754912Y-69447501D01*
X150658188Y-69654926D01*
X150658186Y-69654931D01*
X150605917Y-69850000D01*
X151580314Y-69850000D01*
X151564359Y-69865955D01*
X151506835Y-69978852D01*
X151487014Y-70104000D01*
X151506835Y-70229148D01*
X151564359Y-70342045D01*
X151580314Y-70358000D01*
X150605918Y-70358000D01*
X150658186Y-70553068D01*
X150658188Y-70553073D01*
X150754912Y-70760498D01*
X150886184Y-70947974D01*
X150886189Y-70947980D01*
X151048019Y-71109810D01*
X151048025Y-71109815D01*
X151235503Y-71241089D01*
X151275049Y-71259530D01*
X151328334Y-71306447D01*
X151347794Y-71374724D01*
X151327252Y-71442684D01*
X151275049Y-71487918D01*
X151235252Y-71506475D01*
X151047703Y-71637799D01*
X151047697Y-71637804D01*
X150885804Y-71799697D01*
X150885799Y-71799703D01*
X150754477Y-71987250D01*
X150657717Y-72194753D01*
X150657715Y-72194759D01*
X150627869Y-72306146D01*
X150598457Y-72415913D01*
X150578502Y-72644000D01*
X150598457Y-72872087D01*
X150630789Y-72992751D01*
X150657715Y-73093240D01*
X150657717Y-73093246D01*
X150754477Y-73300749D01*
X150839346Y-73421955D01*
X150885802Y-73488300D01*
X151047700Y-73650198D01*
X151235251Y-73781523D01*
X151274457Y-73799805D01*
X151275047Y-73800080D01*
X151328332Y-73846996D01*
X151347794Y-73915273D01*
X151327253Y-73983233D01*
X151275051Y-74028468D01*
X151235504Y-74046910D01*
X151048025Y-74178184D01*
X151048019Y-74178189D01*
X150886189Y-74340019D01*
X150886184Y-74340025D01*
X150754912Y-74527501D01*
X150658188Y-74734926D01*
X150658186Y-74734931D01*
X150605917Y-74930000D01*
X151580314Y-74930000D01*
X151564359Y-74945955D01*
X151506835Y-75058852D01*
X151487014Y-75184000D01*
X151506835Y-75309148D01*
X151564359Y-75422045D01*
X151580314Y-75438000D01*
X150605918Y-75438000D01*
X150658186Y-75633068D01*
X150658188Y-75633073D01*
X150754912Y-75840498D01*
X150886184Y-76027974D01*
X150886189Y-76027980D01*
X151048019Y-76189810D01*
X151048025Y-76189815D01*
X151235503Y-76321089D01*
X151275049Y-76339530D01*
X151328334Y-76386447D01*
X151347794Y-76454724D01*
X151327252Y-76522684D01*
X151275049Y-76567918D01*
X151235252Y-76586475D01*
X151047703Y-76717799D01*
X151047697Y-76717804D01*
X150885804Y-76879697D01*
X150885799Y-76879703D01*
X150754477Y-77067250D01*
X150657717Y-77274753D01*
X150657716Y-77274757D01*
X150598457Y-77495913D01*
X150578502Y-77724000D01*
X150598457Y-77952087D01*
X150615540Y-78015842D01*
X150657715Y-78173240D01*
X150657717Y-78173246D01*
X150754477Y-78380749D01*
X150770547Y-78403700D01*
X150885802Y-78568300D01*
X151047700Y-78730198D01*
X151235251Y-78861523D01*
X151258500Y-78872364D01*
X151275047Y-78880080D01*
X151328332Y-78926996D01*
X151347794Y-78995273D01*
X151327253Y-79063233D01*
X151275051Y-79108468D01*
X151235504Y-79126910D01*
X151048025Y-79258184D01*
X151048019Y-79258189D01*
X150886189Y-79420019D01*
X150886184Y-79420025D01*
X150754912Y-79607501D01*
X150658188Y-79814926D01*
X150658186Y-79814931D01*
X150605917Y-80010000D01*
X151580314Y-80010000D01*
X151564359Y-80025955D01*
X151506835Y-80138852D01*
X151487014Y-80264000D01*
X151506835Y-80389148D01*
X151564359Y-80502045D01*
X151580314Y-80518000D01*
X150605918Y-80518000D01*
X150658186Y-80713068D01*
X150658188Y-80713073D01*
X150754912Y-80920498D01*
X150886184Y-81107974D01*
X150886189Y-81107980D01*
X151048019Y-81269810D01*
X151048025Y-81269815D01*
X151235503Y-81401089D01*
X151275049Y-81419530D01*
X151328334Y-81466447D01*
X151347794Y-81534724D01*
X151327252Y-81602684D01*
X151275049Y-81647918D01*
X151235252Y-81666475D01*
X151047703Y-81797799D01*
X151047697Y-81797804D01*
X150885804Y-81959697D01*
X150885799Y-81959703D01*
X150754477Y-82147250D01*
X150657717Y-82354753D01*
X150657715Y-82354759D01*
X150619912Y-82495841D01*
X150598457Y-82575913D01*
X150578502Y-82804000D01*
X144676986Y-82804000D01*
X144657165Y-82678852D01*
X144599641Y-82565955D01*
X144583686Y-82550000D01*
X145558082Y-82550000D01*
X145505813Y-82354931D01*
X145505811Y-82354926D01*
X145409087Y-82147501D01*
X145277815Y-81960025D01*
X145277810Y-81960019D01*
X145115980Y-81798189D01*
X145115974Y-81798184D01*
X144928497Y-81666911D01*
X144888949Y-81648469D01*
X144835665Y-81601551D01*
X144816205Y-81533273D01*
X144836748Y-81465314D01*
X144888950Y-81420081D01*
X144928749Y-81401523D01*
X145116300Y-81270198D01*
X145278198Y-81108300D01*
X145409523Y-80920749D01*
X145506284Y-80713243D01*
X145565543Y-80492087D01*
X145585498Y-80264000D01*
X145565543Y-80035913D01*
X145506284Y-79814757D01*
X145409523Y-79607251D01*
X145278198Y-79419700D01*
X145116300Y-79257802D01*
X145102301Y-79248000D01*
X145053998Y-79214177D01*
X144928749Y-79126477D01*
X144890130Y-79108469D01*
X144889543Y-79108195D01*
X144836258Y-79061279D01*
X144816796Y-78993002D01*
X144837337Y-78925042D01*
X144889543Y-78879805D01*
X144905500Y-78872364D01*
X144928749Y-78861523D01*
X145116300Y-78730198D01*
X145278198Y-78568300D01*
X145409523Y-78380749D01*
X145506284Y-78173243D01*
X145565543Y-77952087D01*
X145585498Y-77724000D01*
X145565543Y-77495913D01*
X145506284Y-77274757D01*
X145409523Y-77067251D01*
X145278198Y-76879700D01*
X145116300Y-76717802D01*
X144928749Y-76586477D01*
X144889543Y-76568195D01*
X144836258Y-76521279D01*
X144816796Y-76453002D01*
X144837337Y-76385042D01*
X144889543Y-76339805D01*
X144891997Y-76338660D01*
X144928749Y-76321523D01*
X145116300Y-76190198D01*
X145278198Y-76028300D01*
X145409523Y-75840749D01*
X145506284Y-75633243D01*
X145565543Y-75412087D01*
X145585498Y-75184000D01*
X145565543Y-74955913D01*
X145506284Y-74734757D01*
X145409523Y-74527251D01*
X145278198Y-74339700D01*
X145116300Y-74177802D01*
X144928749Y-74046477D01*
X144925935Y-74045165D01*
X144889543Y-74028195D01*
X144836258Y-73981279D01*
X144816796Y-73913002D01*
X144837337Y-73845042D01*
X144889543Y-73799805D01*
X144891997Y-73798660D01*
X144928749Y-73781523D01*
X145116300Y-73650198D01*
X145278198Y-73488300D01*
X145409523Y-73300749D01*
X145506284Y-73093243D01*
X145565543Y-72872087D01*
X145585498Y-72644000D01*
X145565543Y-72415913D01*
X145506284Y-72194757D01*
X145409523Y-71987251D01*
X145278198Y-71799700D01*
X145116300Y-71637802D01*
X145116295Y-71637799D01*
X145116292Y-71637796D01*
X145112995Y-71635487D01*
X145068669Y-71580028D01*
X145061363Y-71509409D01*
X145093396Y-71446049D01*
X145154599Y-71410067D01*
X145171801Y-71406999D01*
X145181201Y-71405989D01*
X145318204Y-71354889D01*
X145324125Y-71350457D01*
X145435261Y-71267261D01*
X145522887Y-71150207D01*
X145522887Y-71150206D01*
X145522889Y-71150204D01*
X145573989Y-71013201D01*
X145577786Y-70977890D01*
X145580499Y-70952649D01*
X145580500Y-70952632D01*
X145580500Y-70863500D01*
X145600502Y-70795379D01*
X145654158Y-70748886D01*
X145706500Y-70737500D01*
X147998147Y-70737500D01*
X148013988Y-70739249D01*
X148014016Y-70738956D01*
X148021902Y-70739700D01*
X148021909Y-70739702D01*
X148089986Y-70737562D01*
X148093945Y-70737500D01*
X148121851Y-70737500D01*
X148121856Y-70737500D01*
X148125867Y-70736992D01*
X148137699Y-70736061D01*
X148181889Y-70734673D01*
X148201347Y-70729019D01*
X148220694Y-70725013D01*
X148240797Y-70722474D01*
X148281910Y-70706195D01*
X148293130Y-70702353D01*
X148317913Y-70695154D01*
X148335591Y-70690019D01*
X148335595Y-70690017D01*
X148353026Y-70679708D01*
X148370780Y-70671009D01*
X148389617Y-70663552D01*
X148425392Y-70637558D01*
X148435298Y-70631051D01*
X148473362Y-70608542D01*
X148487685Y-70594218D01*
X148502724Y-70581374D01*
X148519107Y-70569472D01*
X148547303Y-70535386D01*
X148555272Y-70526630D01*
X152240753Y-66841149D01*
X152303063Y-66807125D01*
X152362457Y-66808539D01*
X152425913Y-66825543D01*
X152654000Y-66845498D01*
X152882087Y-66825543D01*
X153103243Y-66766284D01*
X153310749Y-66669523D01*
X153498300Y-66538198D01*
X153660198Y-66376300D01*
X153791523Y-66188749D01*
X153888284Y-65981243D01*
X153947543Y-65760087D01*
X153967498Y-65532000D01*
X153947543Y-65303913D01*
X153888284Y-65082757D01*
X153791523Y-64875251D01*
X153660198Y-64687700D01*
X153498300Y-64525802D01*
X153490235Y-64520155D01*
X153310749Y-64394477D01*
X153103246Y-64297717D01*
X153103240Y-64297715D01*
X152973723Y-64263011D01*
X152882087Y-64238457D01*
X152654000Y-64218502D01*
X152425913Y-64238457D01*
X152204759Y-64297715D01*
X152204753Y-64297717D01*
X151997250Y-64394477D01*
X151809703Y-64525799D01*
X151809697Y-64525804D01*
X151647804Y-64687697D01*
X151647799Y-64687703D01*
X151516477Y-64875250D01*
X151419717Y-65082753D01*
X151419715Y-65082759D01*
X151360457Y-65303913D01*
X151340502Y-65532000D01*
X151360457Y-65760090D01*
X151377459Y-65823540D01*
X151375769Y-65894516D01*
X151344847Y-65945246D01*
X147856500Y-69433595D01*
X147794188Y-69467620D01*
X147767405Y-69470500D01*
X145706500Y-69470500D01*
X145638379Y-69450498D01*
X145591886Y-69396842D01*
X145580500Y-69344500D01*
X145580500Y-69255367D01*
X145580499Y-69255350D01*
X145573990Y-69194803D01*
X145573988Y-69194795D01*
X145537953Y-69098184D01*
X145522889Y-69057796D01*
X145522888Y-69057794D01*
X145522887Y-69057792D01*
X145435261Y-68940738D01*
X145318207Y-68853112D01*
X145318202Y-68853110D01*
X145181204Y-68802011D01*
X145181196Y-68802009D01*
X145120649Y-68795500D01*
X145120638Y-68795500D01*
X143423362Y-68795500D01*
X143423350Y-68795500D01*
X143362803Y-68802009D01*
X143362795Y-68802011D01*
X143225797Y-68853110D01*
X143225792Y-68853112D01*
X143108738Y-68940738D01*
X143021112Y-69057792D01*
X143021110Y-69057797D01*
X142970011Y-69194795D01*
X142970009Y-69194803D01*
X142963500Y-69255350D01*
X142963500Y-70952649D01*
X142970009Y-71013196D01*
X142970011Y-71013204D01*
X143021110Y-71150202D01*
X143021112Y-71150207D01*
X143108738Y-71267261D01*
X143225792Y-71354887D01*
X143225794Y-71354888D01*
X143225796Y-71354889D01*
X143362799Y-71405989D01*
X143372191Y-71406998D01*
X143437784Y-71434163D01*
X143478279Y-71492479D01*
X143480817Y-71563430D01*
X143444593Y-71624490D01*
X143431010Y-71635483D01*
X143427708Y-71637795D01*
X143427697Y-71637804D01*
X143265804Y-71799697D01*
X143265799Y-71799703D01*
X143134477Y-71987250D01*
X143037717Y-72194753D01*
X143037715Y-72194759D01*
X143007869Y-72306146D01*
X142978457Y-72415913D01*
X142958502Y-72644000D01*
X142978457Y-72872087D01*
X143010789Y-72992751D01*
X143037715Y-73093240D01*
X143037717Y-73093246D01*
X143134477Y-73300749D01*
X143219346Y-73421955D01*
X143265802Y-73488300D01*
X143427700Y-73650198D01*
X143615251Y-73781523D01*
X143650359Y-73797894D01*
X143654457Y-73799805D01*
X143707742Y-73846722D01*
X143727203Y-73914999D01*
X143706661Y-73982959D01*
X143654457Y-74028195D01*
X143615250Y-74046477D01*
X143427703Y-74177799D01*
X143427697Y-74177804D01*
X143265804Y-74339697D01*
X143265799Y-74339703D01*
X143134477Y-74527250D01*
X143037717Y-74734753D01*
X143037715Y-74734759D01*
X142978457Y-74955913D01*
X142958502Y-75184002D01*
X142960027Y-75201433D01*
X142946037Y-75271037D01*
X142896636Y-75322029D01*
X142827510Y-75338218D01*
X142760605Y-75314464D01*
X142745411Y-75301507D01*
X141290900Y-73846996D01*
X139608405Y-72164500D01*
X139574379Y-72102188D01*
X139571500Y-72075405D01*
X139571500Y-71738500D01*
X139591502Y-71670379D01*
X139645158Y-71623886D01*
X139697500Y-71612500D01*
X139986632Y-71612500D01*
X139986638Y-71612500D01*
X139986645Y-71612499D01*
X139986649Y-71612499D01*
X140047196Y-71605990D01*
X140047199Y-71605989D01*
X140047201Y-71605989D01*
X140184204Y-71554889D01*
X140248878Y-71506475D01*
X140301261Y-71467261D01*
X140388887Y-71350207D01*
X140388887Y-71350206D01*
X140388889Y-71350204D01*
X140439989Y-71213201D01*
X140446500Y-71152638D01*
X140446500Y-69055362D01*
X140446499Y-69055350D01*
X140439990Y-68994803D01*
X140439988Y-68994795D01*
X140393511Y-68870188D01*
X140388889Y-68857796D01*
X140388888Y-68857794D01*
X140388887Y-68857792D01*
X140301261Y-68740738D01*
X140184207Y-68653112D01*
X140184202Y-68653110D01*
X140047204Y-68602011D01*
X140047196Y-68602009D01*
X139986649Y-68595500D01*
X139986638Y-68595500D01*
X139697500Y-68595500D01*
X139629379Y-68575498D01*
X139582886Y-68521842D01*
X139571500Y-68469500D01*
X139571500Y-63161498D01*
X139591502Y-63093377D01*
X139645158Y-63046884D01*
X139694533Y-63036143D01*
X139694519Y-63035977D01*
X139695822Y-63035862D01*
X139697500Y-63035498D01*
X139699994Y-63035498D01*
X139699997Y-63035497D01*
X139700000Y-63035498D01*
X139928087Y-63015543D01*
X139991541Y-62998540D01*
X140062516Y-63000228D01*
X140113247Y-63031151D01*
X140825754Y-63743658D01*
X140835721Y-63756098D01*
X140835948Y-63755911D01*
X140841000Y-63762018D01*
X140841001Y-63762019D01*
X140889625Y-63807680D01*
X140890667Y-63808658D01*
X140893511Y-63811415D01*
X140913227Y-63831132D01*
X140916424Y-63833612D01*
X140925445Y-63841317D01*
X140957680Y-63871587D01*
X140957681Y-63871587D01*
X140957683Y-63871589D01*
X140975430Y-63881345D01*
X140991960Y-63892203D01*
X141007960Y-63904614D01*
X141048537Y-63922173D01*
X141059188Y-63927391D01*
X141097941Y-63948696D01*
X141117563Y-63953734D01*
X141136264Y-63960136D01*
X141148815Y-63965568D01*
X141154853Y-63968181D01*
X141154854Y-63968181D01*
X141154856Y-63968182D01*
X141198531Y-63975099D01*
X141210142Y-63977503D01*
X141252971Y-63988501D01*
X141273225Y-63988501D01*
X141292935Y-63990052D01*
X141295142Y-63990401D01*
X141312944Y-63993221D01*
X141356962Y-63989059D01*
X141368820Y-63988501D01*
X142243299Y-63988501D01*
X142311420Y-64008503D01*
X142357913Y-64062159D01*
X142368017Y-64132433D01*
X142338523Y-64197013D01*
X142278797Y-64235397D01*
X142267189Y-64238115D01*
X142044759Y-64297715D01*
X142044753Y-64297717D01*
X141837250Y-64394477D01*
X141649703Y-64525799D01*
X141649697Y-64525804D01*
X141487804Y-64687697D01*
X141487799Y-64687703D01*
X141356477Y-64875250D01*
X141259717Y-65082753D01*
X141259715Y-65082759D01*
X141241800Y-65149620D01*
X141200457Y-65303913D01*
X141180502Y-65532000D01*
X141200457Y-65760087D01*
X141217459Y-65823540D01*
X141259715Y-65981240D01*
X141259717Y-65981246D01*
X141356477Y-66188749D01*
X141477584Y-66361708D01*
X141487802Y-66376300D01*
X141649700Y-66538198D01*
X141837251Y-66669523D01*
X142044757Y-66766284D01*
X142265913Y-66825543D01*
X142494000Y-66845498D01*
X142722087Y-66825543D01*
X142943243Y-66766284D01*
X143150749Y-66669523D01*
X143338300Y-66538198D01*
X143500198Y-66376300D01*
X143631523Y-66188749D01*
X143728284Y-65981243D01*
X143787543Y-65760087D01*
X143807498Y-65532000D01*
X143787543Y-65303913D01*
X143728284Y-65082757D01*
X143631523Y-64875251D01*
X143500198Y-64687700D01*
X143338300Y-64525802D01*
X143330235Y-64520155D01*
X143150749Y-64394477D01*
X142943246Y-64297717D01*
X142943240Y-64297715D01*
X142882627Y-64281474D01*
X142722087Y-64238457D01*
X142722083Y-64238456D01*
X142716774Y-64237034D01*
X142717115Y-64235759D01*
X142659207Y-64207058D01*
X142622739Y-64146144D01*
X142624993Y-64075183D01*
X142665253Y-64016705D01*
X142730738Y-63989277D01*
X142744701Y-63988501D01*
X145095146Y-63988501D01*
X145110987Y-63990250D01*
X145111015Y-63989957D01*
X145118901Y-63990701D01*
X145118908Y-63990703D01*
X145186985Y-63988563D01*
X145190944Y-63988501D01*
X145218850Y-63988501D01*
X145218855Y-63988501D01*
X145222866Y-63987993D01*
X145234698Y-63987062D01*
X145278888Y-63985674D01*
X145298346Y-63980020D01*
X145317693Y-63976014D01*
X145337796Y-63973475D01*
X145346174Y-63970158D01*
X145351496Y-63968050D01*
X145378909Y-63957196D01*
X145390129Y-63953354D01*
X145414912Y-63946155D01*
X145432590Y-63941020D01*
X145432594Y-63941018D01*
X145450025Y-63930709D01*
X145467779Y-63922010D01*
X145486616Y-63914553D01*
X145522391Y-63888559D01*
X145532297Y-63882052D01*
X145570361Y-63859543D01*
X145584684Y-63845219D01*
X145599723Y-63832375D01*
X145601434Y-63831132D01*
X145616106Y-63820473D01*
X145644302Y-63786387D01*
X145652271Y-63777631D01*
X152494753Y-56935149D01*
X152557063Y-56901125D01*
X152616457Y-56902539D01*
X152679913Y-56919543D01*
X152908000Y-56939498D01*
X153136087Y-56919543D01*
X153357243Y-56860284D01*
X153564749Y-56763523D01*
X153752300Y-56632198D01*
X153914198Y-56470300D01*
X154045523Y-56282749D01*
X154142284Y-56075243D01*
X154164835Y-55991078D01*
X154201785Y-55930459D01*
X154265645Y-55899437D01*
X154336140Y-55907865D01*
G37*
G04 #@! TD.AperFunction*
G04 #@! TA.AperFunction,Conductor*
G36*
X128826507Y-98596156D02*
G01*
X128786000Y-98734111D01*
X128786000Y-98877889D01*
X128826507Y-99015844D01*
X128854884Y-99060000D01*
X127177116Y-99060000D01*
X127205493Y-99015844D01*
X127246000Y-98877889D01*
X127246000Y-98734111D01*
X127205493Y-98596156D01*
X127177116Y-98552000D01*
X128854884Y-98552000D01*
X128826507Y-98596156D01*
G37*
G04 #@! TD.AperFunction*
G04 #@! TA.AperFunction,Conductor*
G36*
X144526000Y-87572314D02*
G01*
X144510045Y-87556359D01*
X144397148Y-87498835D01*
X144303481Y-87484000D01*
X144240519Y-87484000D01*
X144146852Y-87498835D01*
X144033955Y-87556359D01*
X144018000Y-87572314D01*
X144018000Y-85655686D01*
X144033955Y-85671641D01*
X144146852Y-85729165D01*
X144240519Y-85744000D01*
X144303481Y-85744000D01*
X144397148Y-85729165D01*
X144510045Y-85671641D01*
X144526000Y-85655686D01*
X144526000Y-87572314D01*
G37*
G04 #@! TD.AperFunction*
G04 #@! TA.AperFunction,Conductor*
G36*
X144526000Y-85032314D02*
G01*
X144510045Y-85016359D01*
X144397148Y-84958835D01*
X144303481Y-84944000D01*
X144240519Y-84944000D01*
X144146852Y-84958835D01*
X144033955Y-85016359D01*
X144018000Y-85032314D01*
X144018000Y-83115686D01*
X144033955Y-83131641D01*
X144146852Y-83189165D01*
X144240519Y-83204000D01*
X144303481Y-83204000D01*
X144397148Y-83189165D01*
X144510045Y-83131641D01*
X144526000Y-83115686D01*
X144526000Y-85032314D01*
G37*
G04 #@! TD.AperFunction*
G04 #@! TA.AperFunction,Conductor*
G36*
X122195166Y-50004656D02*
G01*
X122241911Y-50058093D01*
X122252344Y-50128319D01*
X122223155Y-50193037D01*
X122163609Y-50231701D01*
X122162701Y-50231969D01*
X122124809Y-50242978D01*
X122124803Y-50242981D01*
X122107361Y-50253296D01*
X122089614Y-50261990D01*
X122070782Y-50269446D01*
X122070780Y-50269447D01*
X122035013Y-50295433D01*
X122025099Y-50301946D01*
X121987035Y-50324458D01*
X121987032Y-50324460D01*
X121972711Y-50338782D01*
X121957682Y-50351618D01*
X121941292Y-50363526D01*
X121913099Y-50397604D01*
X121905112Y-50406380D01*
X121212339Y-51099153D01*
X121199902Y-51109118D01*
X121200090Y-51109345D01*
X121193981Y-51114398D01*
X121147369Y-51164034D01*
X121144619Y-51166872D01*
X121124862Y-51186630D01*
X121122373Y-51189838D01*
X121114687Y-51198835D01*
X121084417Y-51231072D01*
X121084410Y-51231082D01*
X121074650Y-51248834D01*
X121063802Y-51265349D01*
X121051385Y-51281357D01*
X121033823Y-51321939D01*
X121028603Y-51332594D01*
X121007304Y-51371338D01*
X121007302Y-51371343D01*
X121002266Y-51390958D01*
X120995863Y-51409661D01*
X120987818Y-51428251D01*
X120980900Y-51471924D01*
X120978494Y-51483541D01*
X120967499Y-51526367D01*
X120967499Y-51546622D01*
X120965948Y-51566332D01*
X120962779Y-51586341D01*
X120966940Y-51630360D01*
X120967499Y-51642218D01*
X120967499Y-52957747D01*
X120965750Y-52973589D01*
X120966043Y-52973617D01*
X120965297Y-52981508D01*
X120967437Y-53049585D01*
X120967499Y-53053544D01*
X120967499Y-53081452D01*
X120967500Y-53081470D01*
X120968006Y-53085478D01*
X120968936Y-53097297D01*
X120970325Y-53141489D01*
X120970326Y-53141494D01*
X120975976Y-53160940D01*
X120979985Y-53180298D01*
X120982524Y-53200394D01*
X120982525Y-53200401D01*
X120998799Y-53241504D01*
X121002643Y-53252730D01*
X121014981Y-53295194D01*
X121025293Y-53312632D01*
X121033987Y-53330380D01*
X121041443Y-53349210D01*
X121041449Y-53349221D01*
X121067431Y-53384982D01*
X121073948Y-53394902D01*
X121096457Y-53432963D01*
X121096458Y-53432964D01*
X121096460Y-53432967D01*
X121110778Y-53447285D01*
X121123616Y-53462315D01*
X121135525Y-53478705D01*
X121135529Y-53478710D01*
X121169597Y-53506893D01*
X121178377Y-53514883D01*
X123710899Y-56047405D01*
X123744925Y-56109717D01*
X123739860Y-56180532D01*
X123697313Y-56237368D01*
X123630793Y-56262179D01*
X123621804Y-56262500D01*
X121507596Y-56262500D01*
X121439475Y-56242498D01*
X121418501Y-56225595D01*
X117636246Y-52443339D01*
X117626281Y-52430901D01*
X117626054Y-52431090D01*
X117621003Y-52424984D01*
X117621002Y-52424982D01*
X117571350Y-52378356D01*
X117568507Y-52375600D01*
X117548779Y-52355871D01*
X117548773Y-52355866D01*
X117545569Y-52353380D01*
X117536558Y-52345683D01*
X117504327Y-52315417D01*
X117504321Y-52315413D01*
X117486565Y-52305651D01*
X117470049Y-52294802D01*
X117454043Y-52282386D01*
X117413466Y-52264827D01*
X117402809Y-52259605D01*
X117364065Y-52238306D01*
X117364062Y-52238305D01*
X117344438Y-52233266D01*
X117325738Y-52226864D01*
X117307147Y-52218819D01*
X117307145Y-52218818D01*
X117307143Y-52218818D01*
X117263476Y-52211901D01*
X117251857Y-52209495D01*
X117209032Y-52198500D01*
X117188778Y-52198500D01*
X117169068Y-52196949D01*
X117149059Y-52193780D01*
X117105041Y-52197941D01*
X117093183Y-52198500D01*
X113741394Y-52198500D01*
X113673273Y-52178498D01*
X113638181Y-52144771D01*
X113528200Y-51987703D01*
X113528195Y-51987697D01*
X113366302Y-51825804D01*
X113366296Y-51825799D01*
X113178749Y-51694477D01*
X112971246Y-51597717D01*
X112971240Y-51597715D01*
X112854927Y-51566549D01*
X112750087Y-51538457D01*
X112522000Y-51518502D01*
X112293913Y-51538457D01*
X112072759Y-51597715D01*
X112072753Y-51597717D01*
X111865250Y-51694477D01*
X111677703Y-51825799D01*
X111677697Y-51825804D01*
X111515804Y-51987697D01*
X111515799Y-51987703D01*
X111384477Y-52175250D01*
X111287717Y-52382753D01*
X111287715Y-52382759D01*
X111274765Y-52431090D01*
X111228457Y-52603913D01*
X111208502Y-52832000D01*
X111228457Y-53060087D01*
X111245459Y-53123540D01*
X111287715Y-53281240D01*
X111287717Y-53281246D01*
X111384477Y-53488749D01*
X111423948Y-53545120D01*
X111515802Y-53676300D01*
X111677700Y-53838198D01*
X111865251Y-53969523D01*
X112072757Y-54066284D01*
X112293913Y-54125543D01*
X112522000Y-54145498D01*
X112750087Y-54125543D01*
X112971243Y-54066284D01*
X113178749Y-53969523D01*
X113366300Y-53838198D01*
X113528198Y-53676300D01*
X113617029Y-53549437D01*
X113638181Y-53519229D01*
X113693638Y-53474901D01*
X113741394Y-53465500D01*
X116814408Y-53465500D01*
X116882529Y-53485502D01*
X116903503Y-53502405D01*
X118816419Y-55415322D01*
X118850445Y-55477634D01*
X118845380Y-55548450D01*
X118802833Y-55605285D01*
X118787294Y-55615230D01*
X118765606Y-55626968D01*
X118606981Y-55712811D01*
X118422778Y-55856182D01*
X118422774Y-55856186D01*
X118264685Y-56027916D01*
X118137015Y-56223331D01*
X118043252Y-56437089D01*
X118043249Y-56437096D01*
X117985950Y-56663366D01*
X117985949Y-56663372D01*
X117985949Y-56663374D01*
X117969633Y-56860282D01*
X117966673Y-56896000D01*
X117985950Y-57128633D01*
X118043249Y-57354903D01*
X118043252Y-57354910D01*
X118137015Y-57568668D01*
X118251317Y-57743621D01*
X118264686Y-57764083D01*
X118422780Y-57935818D01*
X118443890Y-57952248D01*
X118485361Y-58009871D01*
X118492500Y-58051680D01*
X118492500Y-59679500D01*
X118472498Y-59747621D01*
X118418842Y-59794114D01*
X118366500Y-59805500D01*
X118177350Y-59805500D01*
X118116803Y-59812009D01*
X118116802Y-59812010D01*
X118116799Y-59812010D01*
X118116799Y-59812011D01*
X118013609Y-59850499D01*
X117942795Y-59855564D01*
X117880483Y-59821539D01*
X117852427Y-59778829D01*
X117841192Y-59750453D01*
X117837352Y-59739238D01*
X117825017Y-59696776D01*
X117814704Y-59679338D01*
X117806009Y-59661591D01*
X117798551Y-59642752D01*
X117772567Y-59606989D01*
X117766050Y-59597068D01*
X117743540Y-59559004D01*
X117729217Y-59544681D01*
X117716376Y-59529648D01*
X117704470Y-59513261D01*
X117670404Y-59485079D01*
X117661625Y-59477090D01*
X116212611Y-58028076D01*
X116178585Y-57965764D01*
X116183650Y-57894949D01*
X116212607Y-57849890D01*
X116322198Y-57740300D01*
X116453523Y-57552749D01*
X116550284Y-57345243D01*
X116609543Y-57124087D01*
X116629498Y-56896000D01*
X116609543Y-56667913D01*
X116550284Y-56446757D01*
X116453523Y-56239251D01*
X116322198Y-56051700D01*
X116160300Y-55889802D01*
X116156011Y-55886799D01*
X115972749Y-55758477D01*
X115765246Y-55661717D01*
X115765240Y-55661715D01*
X115648890Y-55630539D01*
X115544087Y-55602457D01*
X115316000Y-55582502D01*
X115087913Y-55602457D01*
X114866759Y-55661715D01*
X114866753Y-55661717D01*
X114659250Y-55758477D01*
X114471703Y-55889799D01*
X114471697Y-55889804D01*
X114309804Y-56051697D01*
X114309799Y-56051703D01*
X114178477Y-56239250D01*
X114081717Y-56446753D01*
X114081715Y-56446759D01*
X114075407Y-56470302D01*
X114022457Y-56667913D01*
X114002502Y-56896000D01*
X114022457Y-57124087D01*
X114039459Y-57187538D01*
X114081715Y-57345240D01*
X114081717Y-57345246D01*
X114178477Y-57552749D01*
X114292481Y-57715564D01*
X114309802Y-57740300D01*
X114471700Y-57902198D01*
X114471703Y-57902200D01*
X114471708Y-57902204D01*
X114631215Y-58013892D01*
X114675544Y-58069349D01*
X114684883Y-58113144D01*
X114685326Y-58127258D01*
X114685327Y-58127263D01*
X114690977Y-58146709D01*
X114694986Y-58166067D01*
X114697525Y-58186163D01*
X114697526Y-58186170D01*
X114713800Y-58227273D01*
X114717644Y-58238499D01*
X114729982Y-58280963D01*
X114740294Y-58298401D01*
X114748988Y-58316149D01*
X114756444Y-58334979D01*
X114756450Y-58334990D01*
X114782432Y-58370751D01*
X114788949Y-58380671D01*
X114811458Y-58418732D01*
X114811459Y-58418733D01*
X114811461Y-58418736D01*
X114825779Y-58433054D01*
X114838617Y-58448084D01*
X114850526Y-58464474D01*
X114850530Y-58464479D01*
X114884598Y-58492662D01*
X114893378Y-58500652D01*
X116568594Y-60175868D01*
X116602620Y-60238180D01*
X116605499Y-60264963D01*
X116605499Y-66242147D01*
X116603750Y-66257989D01*
X116604043Y-66258017D01*
X116603297Y-66265908D01*
X116605437Y-66333985D01*
X116605499Y-66337944D01*
X116605499Y-66365852D01*
X116605500Y-66365870D01*
X116606006Y-66369878D01*
X116606936Y-66381697D01*
X116608325Y-66425889D01*
X116608326Y-66425894D01*
X116613976Y-66445340D01*
X116617985Y-66464698D01*
X116620524Y-66484794D01*
X116620525Y-66484801D01*
X116636799Y-66525904D01*
X116640643Y-66537130D01*
X116652981Y-66579594D01*
X116663293Y-66597032D01*
X116671987Y-66614780D01*
X116679443Y-66633610D01*
X116679449Y-66633621D01*
X116705431Y-66669382D01*
X116711948Y-66679302D01*
X116734457Y-66717363D01*
X116734458Y-66717364D01*
X116734460Y-66717367D01*
X116748778Y-66731685D01*
X116761616Y-66746715D01*
X116773525Y-66763105D01*
X116773529Y-66763110D01*
X116807597Y-66791293D01*
X116816377Y-66799283D01*
X118265543Y-68248449D01*
X118299569Y-68310761D01*
X118294504Y-68381576D01*
X118251957Y-68438412D01*
X118229704Y-68451736D01*
X118215257Y-68458473D01*
X118215250Y-68458477D01*
X118027708Y-68589795D01*
X118027697Y-68589804D01*
X117865804Y-68751697D01*
X117865799Y-68751703D01*
X117734477Y-68939250D01*
X117637717Y-69146753D01*
X117637715Y-69146759D01*
X117578458Y-69367909D01*
X117578457Y-69367913D01*
X117558502Y-69596000D01*
X117578457Y-69824087D01*
X117604452Y-69921100D01*
X117637715Y-70045240D01*
X117637719Y-70045250D01*
X117645949Y-70062900D01*
X117656610Y-70133091D01*
X117627630Y-70197904D01*
X117620849Y-70205244D01*
X115729246Y-72096847D01*
X115666934Y-72130873D01*
X115607540Y-72129459D01*
X115544090Y-72112457D01*
X115316000Y-72092502D01*
X115087913Y-72112457D01*
X114866759Y-72171715D01*
X114866749Y-72171719D01*
X114744249Y-72228841D01*
X114674058Y-72239502D01*
X114637751Y-72228841D01*
X114515250Y-72171719D01*
X114515246Y-72171717D01*
X114515243Y-72171716D01*
X114515241Y-72171715D01*
X114515240Y-72171715D01*
X114421771Y-72146670D01*
X114294087Y-72112457D01*
X114066000Y-72092502D01*
X113837913Y-72112457D01*
X113616759Y-72171715D01*
X113616753Y-72171717D01*
X113409250Y-72268477D01*
X113221703Y-72399799D01*
X113221697Y-72399804D01*
X113059804Y-72561697D01*
X113059799Y-72561703D01*
X112928474Y-72749253D01*
X112925726Y-72754015D01*
X112923761Y-72752880D01*
X112883255Y-72798865D01*
X112814974Y-72818312D01*
X112747018Y-72797756D01*
X112708168Y-72752921D01*
X112706274Y-72754015D01*
X112703525Y-72749253D01*
X112572200Y-72561703D01*
X112572195Y-72561697D01*
X112410302Y-72399804D01*
X112410296Y-72399799D01*
X112222749Y-72268477D01*
X112015246Y-72171717D01*
X112015240Y-72171715D01*
X111921771Y-72146670D01*
X111794087Y-72112457D01*
X111566000Y-72092502D01*
X111337913Y-72112457D01*
X111116759Y-72171715D01*
X111116749Y-72171719D01*
X110994249Y-72228841D01*
X110924058Y-72239502D01*
X110887751Y-72228841D01*
X110765250Y-72171719D01*
X110765246Y-72171717D01*
X110765243Y-72171716D01*
X110765241Y-72171715D01*
X110765240Y-72171715D01*
X110671771Y-72146670D01*
X110544087Y-72112457D01*
X110316000Y-72092502D01*
X110087913Y-72112457D01*
X109866759Y-72171715D01*
X109866753Y-72171717D01*
X109659250Y-72268477D01*
X109471703Y-72399799D01*
X109471697Y-72399804D01*
X109309804Y-72561697D01*
X109309799Y-72561703D01*
X109199819Y-72718771D01*
X109144362Y-72763099D01*
X109096606Y-72772500D01*
X108407394Y-72772500D01*
X108339273Y-72752498D01*
X108304181Y-72718771D01*
X108194200Y-72561703D01*
X108194195Y-72561697D01*
X108032302Y-72399804D01*
X108032296Y-72399799D01*
X107844749Y-72268477D01*
X107637246Y-72171717D01*
X107637240Y-72171715D01*
X107543771Y-72146670D01*
X107416087Y-72112457D01*
X107188000Y-72092502D01*
X106959913Y-72112457D01*
X106738759Y-72171715D01*
X106738749Y-72171719D01*
X106616249Y-72228841D01*
X106546058Y-72239502D01*
X106509751Y-72228841D01*
X106387250Y-72171719D01*
X106387246Y-72171717D01*
X106387243Y-72171716D01*
X106387241Y-72171715D01*
X106387240Y-72171715D01*
X106293771Y-72146670D01*
X106166087Y-72112457D01*
X105938000Y-72092502D01*
X105709913Y-72112457D01*
X105488759Y-72171715D01*
X105488753Y-72171717D01*
X105281250Y-72268477D01*
X105093703Y-72399799D01*
X105093697Y-72399804D01*
X104931804Y-72561697D01*
X104931799Y-72561703D01*
X104800474Y-72749253D01*
X104797726Y-72754015D01*
X104795761Y-72752880D01*
X104755255Y-72798865D01*
X104686974Y-72818312D01*
X104619018Y-72797756D01*
X104580168Y-72752921D01*
X104578274Y-72754015D01*
X104575525Y-72749253D01*
X104444200Y-72561703D01*
X104444195Y-72561697D01*
X104282302Y-72399804D01*
X104282296Y-72399799D01*
X104094749Y-72268477D01*
X103887246Y-72171717D01*
X103887240Y-72171715D01*
X103793771Y-72146670D01*
X103666087Y-72112457D01*
X103438000Y-72092502D01*
X103209913Y-72112457D01*
X102988759Y-72171715D01*
X102988749Y-72171719D01*
X102866249Y-72228841D01*
X102796058Y-72239502D01*
X102759751Y-72228841D01*
X102637250Y-72171719D01*
X102637246Y-72171717D01*
X102637243Y-72171716D01*
X102637241Y-72171715D01*
X102637240Y-72171715D01*
X102543771Y-72146670D01*
X102416087Y-72112457D01*
X102188000Y-72092502D01*
X101959913Y-72112457D01*
X101738759Y-72171715D01*
X101738753Y-72171717D01*
X101531250Y-72268477D01*
X101343703Y-72399799D01*
X101343697Y-72399804D01*
X101181804Y-72561697D01*
X101181799Y-72561703D01*
X101141702Y-72618968D01*
X101086244Y-72663296D01*
X101015625Y-72670605D01*
X100952265Y-72638574D01*
X100916280Y-72577373D01*
X100912489Y-72546697D01*
X100912489Y-68834000D01*
X102573004Y-68834000D01*
X102592951Y-69062002D01*
X102652186Y-69283068D01*
X102652188Y-69283073D01*
X102748913Y-69490501D01*
X102798899Y-69561888D01*
X103487272Y-68873516D01*
X103500835Y-68959148D01*
X103558359Y-69072045D01*
X103647955Y-69161641D01*
X103760852Y-69219165D01*
X103846482Y-69232727D01*
X103158110Y-69921098D01*
X103158110Y-69921100D01*
X103229498Y-69971086D01*
X103436926Y-70067811D01*
X103436931Y-70067813D01*
X103657999Y-70127048D01*
X103657995Y-70127048D01*
X103886000Y-70146995D01*
X104114002Y-70127048D01*
X104335068Y-70067813D01*
X104335073Y-70067811D01*
X104542497Y-69971088D01*
X104613888Y-69921099D01*
X104613888Y-69921097D01*
X103925518Y-69232727D01*
X104011148Y-69219165D01*
X104124045Y-69161641D01*
X104213641Y-69072045D01*
X104271165Y-68959148D01*
X104284727Y-68873518D01*
X104973097Y-69561888D01*
X104973099Y-69561888D01*
X105023088Y-69490497D01*
X105119811Y-69283073D01*
X105119813Y-69283068D01*
X105179048Y-69062002D01*
X105198995Y-68834000D01*
X105179048Y-68605997D01*
X105119813Y-68384931D01*
X105119811Y-68384926D01*
X105023086Y-68177498D01*
X104973100Y-68106110D01*
X104973098Y-68106110D01*
X104284727Y-68794481D01*
X104271165Y-68708852D01*
X104213641Y-68595955D01*
X104124045Y-68506359D01*
X104011148Y-68448835D01*
X103925517Y-68435272D01*
X104613888Y-67746899D01*
X104613888Y-67746898D01*
X104542501Y-67696913D01*
X104335073Y-67600188D01*
X104335068Y-67600186D01*
X104114000Y-67540951D01*
X104114004Y-67540951D01*
X103886000Y-67521004D01*
X103657997Y-67540951D01*
X103436931Y-67600186D01*
X103436926Y-67600188D01*
X103229500Y-67696913D01*
X103158109Y-67746900D01*
X103846481Y-68435272D01*
X103760852Y-68448835D01*
X103647955Y-68506359D01*
X103558359Y-68595955D01*
X103500835Y-68708852D01*
X103487272Y-68794481D01*
X102798900Y-68106109D01*
X102748913Y-68177500D01*
X102652188Y-68384926D01*
X102652186Y-68384931D01*
X102592951Y-68605997D01*
X102573004Y-68834000D01*
X100912489Y-68834000D01*
X100912489Y-64913604D01*
X100932491Y-64845483D01*
X100949384Y-64824519D01*
X101897748Y-63876154D01*
X101960057Y-63842132D01*
X102009991Y-63841398D01*
X102037282Y-63846500D01*
X102037285Y-63846500D01*
X102242715Y-63846500D01*
X102242718Y-63846500D01*
X102444655Y-63808751D01*
X102444658Y-63808749D01*
X102450381Y-63807680D01*
X102450863Y-63810259D01*
X102510640Y-63810707D01*
X102563333Y-63842239D01*
X102574780Y-63853686D01*
X102587621Y-63868720D01*
X102596793Y-63881345D01*
X102599529Y-63885110D01*
X102633592Y-63913289D01*
X102642373Y-63921279D01*
X102772758Y-64051665D01*
X102782722Y-64064101D01*
X102782949Y-64063914D01*
X102787995Y-64070013D01*
X102787999Y-64070019D01*
X102827035Y-64106675D01*
X102837634Y-64116628D01*
X102840479Y-64119386D01*
X102860223Y-64139131D01*
X102860227Y-64139134D01*
X102860229Y-64139136D01*
X102863434Y-64141622D01*
X102872441Y-64149315D01*
X102904678Y-64179587D01*
X102922427Y-64189344D01*
X102938953Y-64200200D01*
X102954506Y-64212265D01*
X102954958Y-64212615D01*
X102995541Y-64230176D01*
X103006192Y-64235394D01*
X103044939Y-64256696D01*
X103044947Y-64256698D01*
X103064557Y-64261733D01*
X103083266Y-64268138D01*
X103101854Y-64276182D01*
X103145529Y-64283099D01*
X103157140Y-64285503D01*
X103199969Y-64296501D01*
X103220223Y-64296501D01*
X103239933Y-64298052D01*
X103242140Y-64298401D01*
X103259942Y-64301221D01*
X103303960Y-64297059D01*
X103315818Y-64296501D01*
X104842144Y-64296501D01*
X104857985Y-64298250D01*
X104858013Y-64297957D01*
X104865899Y-64298701D01*
X104865906Y-64298703D01*
X104933983Y-64296563D01*
X104937942Y-64296501D01*
X104965848Y-64296501D01*
X104965853Y-64296501D01*
X104969864Y-64295993D01*
X104981696Y-64295062D01*
X105025886Y-64293674D01*
X105045344Y-64288020D01*
X105064691Y-64284014D01*
X105084794Y-64281475D01*
X105090255Y-64279313D01*
X105103749Y-64273970D01*
X105125907Y-64265196D01*
X105137127Y-64261354D01*
X105164913Y-64253283D01*
X105179588Y-64249020D01*
X105179592Y-64249018D01*
X105197023Y-64238709D01*
X105214777Y-64230010D01*
X105233614Y-64222553D01*
X105269389Y-64196559D01*
X105279295Y-64190052D01*
X105317359Y-64167543D01*
X105331682Y-64153219D01*
X105346721Y-64140375D01*
X105363104Y-64128473D01*
X105391300Y-64094387D01*
X105399269Y-64085631D01*
X105868646Y-63616254D01*
X105930956Y-63582230D01*
X106001771Y-63587295D01*
X106058289Y-63629419D01*
X106079491Y-63657495D01*
X106143298Y-63741991D01*
X106295116Y-63880391D01*
X106362588Y-63922168D01*
X106469782Y-63988540D01*
X106661345Y-64062751D01*
X106863282Y-64100500D01*
X106863285Y-64100500D01*
X107068715Y-64100500D01*
X107068718Y-64100500D01*
X107068722Y-64100499D01*
X107068724Y-64100499D01*
X107096004Y-64095399D01*
X107166640Y-64102542D01*
X107208254Y-64130158D01*
X111500754Y-68422658D01*
X111510721Y-68435098D01*
X111510948Y-68434911D01*
X111516000Y-68441018D01*
X111516001Y-68441019D01*
X111546330Y-68469500D01*
X111565667Y-68487658D01*
X111568511Y-68490415D01*
X111588227Y-68510132D01*
X111591424Y-68512612D01*
X111600445Y-68520317D01*
X111632680Y-68550587D01*
X111632681Y-68550587D01*
X111632683Y-68550589D01*
X111650430Y-68560345D01*
X111666960Y-68571203D01*
X111682960Y-68583614D01*
X111723537Y-68601173D01*
X111734188Y-68606391D01*
X111772941Y-68627696D01*
X111792563Y-68632734D01*
X111811264Y-68639136D01*
X111829856Y-68647182D01*
X111873523Y-68654097D01*
X111885126Y-68656499D01*
X111927971Y-68667501D01*
X111948232Y-68667501D01*
X111967940Y-68669051D01*
X111987944Y-68672220D01*
X112031955Y-68668059D01*
X112043812Y-68667501D01*
X112609564Y-68667501D01*
X112677685Y-68687503D01*
X112724178Y-68741159D01*
X112735084Y-68804480D01*
X112732502Y-68834000D01*
X112752457Y-69062087D01*
X112775145Y-69146759D01*
X112811715Y-69283240D01*
X112811717Y-69283246D01*
X112908477Y-69490749D01*
X113010576Y-69636562D01*
X113039802Y-69678300D01*
X113201700Y-69840198D01*
X113389251Y-69971523D01*
X113596757Y-70068284D01*
X113817913Y-70127543D01*
X114046000Y-70147498D01*
X114274087Y-70127543D01*
X114495243Y-70068284D01*
X114702749Y-69971523D01*
X114890300Y-69840198D01*
X115052198Y-69678300D01*
X115183523Y-69490749D01*
X115280284Y-69283243D01*
X115339543Y-69062087D01*
X115359498Y-68834000D01*
X115339543Y-68605913D01*
X115280284Y-68384757D01*
X115183523Y-68177251D01*
X115052198Y-67989700D01*
X114890300Y-67827802D01*
X114774757Y-67746898D01*
X114702749Y-67696477D01*
X114495246Y-67599717D01*
X114495240Y-67599715D01*
X114401771Y-67574670D01*
X114274087Y-67540457D01*
X114046000Y-67520502D01*
X113817913Y-67540457D01*
X113817910Y-67540457D01*
X113817907Y-67540458D01*
X113817904Y-67540458D01*
X113751793Y-67558172D01*
X113680817Y-67556482D01*
X113632935Y-67528319D01*
X113621326Y-67517418D01*
X113621320Y-67517414D01*
X113603564Y-67507652D01*
X113587048Y-67496803D01*
X113571042Y-67484387D01*
X113530465Y-67466828D01*
X113519808Y-67461606D01*
X113481064Y-67440307D01*
X113481061Y-67440306D01*
X113461437Y-67435267D01*
X113442737Y-67428865D01*
X113424146Y-67420820D01*
X113424144Y-67420819D01*
X113424142Y-67420819D01*
X113380475Y-67413902D01*
X113368856Y-67411496D01*
X113326031Y-67400501D01*
X113305777Y-67400501D01*
X113286067Y-67398950D01*
X113266058Y-67395781D01*
X113222040Y-67399942D01*
X113210182Y-67400501D01*
X112322596Y-67400501D01*
X112254475Y-67380499D01*
X112233501Y-67363596D01*
X109185500Y-64315595D01*
X109151474Y-64253283D01*
X109156539Y-64182468D01*
X109199086Y-64125632D01*
X109265606Y-64100821D01*
X109274595Y-64100500D01*
X109614632Y-64100500D01*
X109614638Y-64100500D01*
X109614645Y-64100499D01*
X109614649Y-64100499D01*
X109675196Y-64093990D01*
X109675199Y-64093989D01*
X109675201Y-64093989D01*
X109812204Y-64042889D01*
X109881918Y-63990702D01*
X109929261Y-63955261D01*
X110016887Y-63838207D01*
X110016887Y-63838206D01*
X110016889Y-63838204D01*
X110067989Y-63701201D01*
X110074500Y-63640638D01*
X110074500Y-62343362D01*
X110073693Y-62335855D01*
X110067990Y-62282803D01*
X110067988Y-62282795D01*
X110023171Y-62162638D01*
X110016889Y-62145796D01*
X110016888Y-62145794D01*
X110016887Y-62145792D01*
X109929261Y-62028738D01*
X109812207Y-61941112D01*
X109812202Y-61941110D01*
X109675204Y-61890011D01*
X109675196Y-61890009D01*
X109612312Y-61883249D01*
X109546720Y-61856080D01*
X109523846Y-61832033D01*
X109499565Y-61798614D01*
X109493045Y-61788689D01*
X109488355Y-61780759D01*
X109470542Y-61750637D01*
X109470541Y-61750635D01*
X109456218Y-61736312D01*
X109443377Y-61721279D01*
X109440236Y-61716956D01*
X109431472Y-61704893D01*
X109404781Y-61682812D01*
X109388015Y-61666045D01*
X109383002Y-61659987D01*
X109382999Y-61659981D01*
X109333347Y-61613355D01*
X109330504Y-61610599D01*
X109310776Y-61590870D01*
X109310770Y-61590865D01*
X109307566Y-61588379D01*
X109298555Y-61580682D01*
X109266324Y-61550416D01*
X109266318Y-61550412D01*
X109248562Y-61540650D01*
X109232046Y-61529801D01*
X109216040Y-61517385D01*
X109175463Y-61499826D01*
X109164806Y-61494604D01*
X109126062Y-61473305D01*
X109126059Y-61473304D01*
X109106435Y-61468265D01*
X109087735Y-61461863D01*
X109069144Y-61453818D01*
X109069142Y-61453817D01*
X109069140Y-61453817D01*
X109025473Y-61446900D01*
X109013854Y-61444494D01*
X108971029Y-61433499D01*
X108950775Y-61433499D01*
X108931065Y-61431948D01*
X108911056Y-61428779D01*
X108867038Y-61432940D01*
X108855180Y-61433499D01*
X106605853Y-61433499D01*
X106590011Y-61431749D01*
X106589984Y-61432043D01*
X106582091Y-61431296D01*
X106514001Y-61433437D01*
X106510043Y-61433499D01*
X106482143Y-61433499D01*
X106482137Y-61433499D01*
X106482131Y-61433500D01*
X106478132Y-61434005D01*
X106466312Y-61434935D01*
X106422110Y-61436324D01*
X106402649Y-61441978D01*
X106383303Y-61445984D01*
X106363203Y-61448524D01*
X106363202Y-61448524D01*
X106322094Y-61464799D01*
X106310869Y-61468642D01*
X106268412Y-61480977D01*
X106268403Y-61480981D01*
X106250961Y-61491296D01*
X106233214Y-61499990D01*
X106214382Y-61507446D01*
X106214380Y-61507447D01*
X106178613Y-61533433D01*
X106168699Y-61539946D01*
X106130635Y-61562458D01*
X106130632Y-61562460D01*
X106116311Y-61576782D01*
X106101282Y-61589618D01*
X106084892Y-61601526D01*
X106056699Y-61635604D01*
X106048713Y-61644380D01*
X105463593Y-62229499D01*
X105401283Y-62263523D01*
X105330468Y-62258459D01*
X105273632Y-62215912D01*
X105248821Y-62149392D01*
X105248500Y-62140403D01*
X105248500Y-62089367D01*
X105248499Y-62089350D01*
X105241990Y-62028803D01*
X105241988Y-62028795D01*
X105190889Y-61891797D01*
X105190887Y-61891792D01*
X105103261Y-61774738D01*
X104986207Y-61687112D01*
X104986204Y-61687111D01*
X104855466Y-61638347D01*
X104798631Y-61595800D01*
X104773821Y-61529280D01*
X104773500Y-61520292D01*
X104773500Y-59182594D01*
X104793502Y-59114473D01*
X104810400Y-59093503D01*
X105698753Y-58205149D01*
X105761064Y-58171126D01*
X105820457Y-58172539D01*
X105883913Y-58189543D01*
X106112000Y-58209498D01*
X106340087Y-58189543D01*
X106561243Y-58130284D01*
X106683750Y-58073157D01*
X106753941Y-58062496D01*
X106790248Y-58073157D01*
X106912757Y-58130284D01*
X107133913Y-58189543D01*
X107362000Y-58209498D01*
X107590087Y-58189543D01*
X107811243Y-58130284D01*
X108018749Y-58033523D01*
X108206300Y-57902198D01*
X108368198Y-57740300D01*
X108442357Y-57634390D01*
X108478181Y-57583229D01*
X108533638Y-57538901D01*
X108581394Y-57529500D01*
X109096606Y-57529500D01*
X109164727Y-57549502D01*
X109199819Y-57583229D01*
X109298935Y-57724780D01*
X109309802Y-57740300D01*
X109471700Y-57902198D01*
X109659251Y-58033523D01*
X109866757Y-58130284D01*
X110087913Y-58189543D01*
X110316000Y-58209498D01*
X110544087Y-58189543D01*
X110607541Y-58172540D01*
X110678516Y-58174228D01*
X110729247Y-58205151D01*
X114060350Y-61536254D01*
X114094376Y-61598566D01*
X114089311Y-61669381D01*
X114053699Y-61716956D01*
X114055110Y-61718367D01*
X114048740Y-61724736D01*
X113961112Y-61841792D01*
X113961110Y-61841797D01*
X113910011Y-61978795D01*
X113910009Y-61978803D01*
X113903500Y-62039350D01*
X113903500Y-62456895D01*
X113883498Y-62525016D01*
X113829842Y-62571509D01*
X113759568Y-62581613D01*
X113694988Y-62552119D01*
X113656604Y-62492393D01*
X113656310Y-62491377D01*
X113625489Y-62383052D01*
X113606897Y-62317709D01*
X113511196Y-62125516D01*
X113381810Y-61954180D01*
X113381808Y-61954178D01*
X113223145Y-61809537D01*
X113128014Y-61750635D01*
X113040600Y-61696511D01*
X113040598Y-61696510D01*
X113040591Y-61696507D01*
X112840401Y-61618952D01*
X112840402Y-61618952D01*
X112795717Y-61610599D01*
X112629351Y-61579500D01*
X112414649Y-61579500D01*
X112255390Y-61609270D01*
X112203597Y-61618952D01*
X112003408Y-61696507D01*
X112003401Y-61696510D01*
X111820854Y-61809537D01*
X111662191Y-61954178D01*
X111532805Y-62125514D01*
X111437103Y-62317708D01*
X111437100Y-62317716D01*
X111378347Y-62524210D01*
X111358537Y-62738000D01*
X111378347Y-62951789D01*
X111437100Y-63158283D01*
X111437103Y-63158291D01*
X111532804Y-63350484D01*
X111597873Y-63436649D01*
X111662191Y-63521821D01*
X111820854Y-63666462D01*
X111820856Y-63666463D01*
X111820857Y-63666464D01*
X112003400Y-63779489D01*
X112173072Y-63845221D01*
X112203598Y-63857047D01*
X112203603Y-63857049D01*
X112414649Y-63896500D01*
X112414651Y-63896500D01*
X112503341Y-63896500D01*
X112571462Y-63916502D01*
X112617955Y-63970158D01*
X112628802Y-64010870D01*
X112641994Y-64153221D01*
X112648347Y-64221789D01*
X112707100Y-64428283D01*
X112707103Y-64428291D01*
X112802804Y-64620484D01*
X112923115Y-64779802D01*
X112932191Y-64791821D01*
X113090854Y-64936462D01*
X113090856Y-64936463D01*
X113090857Y-64936464D01*
X113273400Y-65049489D01*
X113273408Y-65049492D01*
X113473598Y-65127047D01*
X113473603Y-65127049D01*
X113684649Y-65166500D01*
X113684651Y-65166500D01*
X113899349Y-65166500D01*
X113899351Y-65166500D01*
X114110397Y-65127049D01*
X114310600Y-65049489D01*
X114493143Y-64936464D01*
X114651810Y-64791820D01*
X114781196Y-64620484D01*
X114876897Y-64428291D01*
X114935653Y-64221786D01*
X114955196Y-64010871D01*
X114981398Y-63944890D01*
X115039115Y-63903546D01*
X115080659Y-63896500D01*
X115760632Y-63896500D01*
X115760638Y-63896500D01*
X115760645Y-63896499D01*
X115760649Y-63896499D01*
X115821196Y-63889990D01*
X115821199Y-63889989D01*
X115821201Y-63889989D01*
X115825014Y-63888567D01*
X115846934Y-63880391D01*
X115958204Y-63838889D01*
X115960394Y-63837250D01*
X116075261Y-63751261D01*
X116162887Y-63634207D01*
X116162887Y-63634206D01*
X116162889Y-63634204D01*
X116213989Y-63497201D01*
X116220500Y-63436638D01*
X116220500Y-62039362D01*
X116219365Y-62028803D01*
X116213990Y-61978803D01*
X116213988Y-61978795D01*
X116179626Y-61886669D01*
X116162889Y-61841796D01*
X116162888Y-61841794D01*
X116162887Y-61841792D01*
X116075261Y-61724738D01*
X115958207Y-61637112D01*
X115958202Y-61637110D01*
X115821204Y-61586011D01*
X115821197Y-61586010D01*
X115790474Y-61582707D01*
X115724882Y-61555538D01*
X115684391Y-61497220D01*
X115681901Y-61488762D01*
X115680474Y-61483204D01*
X115679594Y-61480981D01*
X115664195Y-61442087D01*
X115660356Y-61430872D01*
X115648019Y-61388407D01*
X115637703Y-61370964D01*
X115629005Y-61353209D01*
X115621552Y-61334383D01*
X115595563Y-61298612D01*
X115589052Y-61288700D01*
X115566542Y-61250638D01*
X115552214Y-61236310D01*
X115539384Y-61221289D01*
X115527472Y-61204893D01*
X115527469Y-61204891D01*
X115527469Y-61204890D01*
X115493394Y-61176700D01*
X115484616Y-61168712D01*
X111625151Y-57309246D01*
X111591125Y-57246934D01*
X111592539Y-57187541D01*
X111609543Y-57124087D01*
X111629498Y-56896000D01*
X111609543Y-56667913D01*
X111550284Y-56446757D01*
X111453523Y-56239251D01*
X111322198Y-56051700D01*
X111160300Y-55889802D01*
X111156011Y-55886799D01*
X110972749Y-55758477D01*
X110765246Y-55661717D01*
X110765240Y-55661715D01*
X110648890Y-55630539D01*
X110544087Y-55602457D01*
X110316000Y-55582502D01*
X110087913Y-55602457D01*
X109866759Y-55661715D01*
X109866753Y-55661717D01*
X109659250Y-55758477D01*
X109471703Y-55889799D01*
X109471697Y-55889804D01*
X109309804Y-56051697D01*
X109309799Y-56051703D01*
X109199819Y-56208771D01*
X109144362Y-56253099D01*
X109096606Y-56262500D01*
X108581394Y-56262500D01*
X108513273Y-56242498D01*
X108478181Y-56208771D01*
X108368200Y-56051703D01*
X108368195Y-56051697D01*
X108206302Y-55889804D01*
X108206296Y-55889799D01*
X108018749Y-55758477D01*
X107811246Y-55661717D01*
X107811240Y-55661715D01*
X107694890Y-55630539D01*
X107590087Y-55602457D01*
X107362000Y-55582502D01*
X107133913Y-55602457D01*
X106912759Y-55661715D01*
X106912749Y-55661719D01*
X106790249Y-55718841D01*
X106720058Y-55729502D01*
X106683751Y-55718841D01*
X106561250Y-55661719D01*
X106561246Y-55661717D01*
X106561243Y-55661716D01*
X106561241Y-55661715D01*
X106561240Y-55661715D01*
X106444890Y-55630539D01*
X106340087Y-55602457D01*
X106112000Y-55582502D01*
X105883913Y-55602457D01*
X105662759Y-55661715D01*
X105662753Y-55661717D01*
X105455250Y-55758477D01*
X105267703Y-55889799D01*
X105267697Y-55889804D01*
X105105804Y-56051697D01*
X105105799Y-56051703D01*
X104974474Y-56239253D01*
X104971726Y-56244015D01*
X104969761Y-56242880D01*
X104929255Y-56288865D01*
X104860974Y-56308312D01*
X104793018Y-56287756D01*
X104754168Y-56242921D01*
X104752274Y-56244015D01*
X104749525Y-56239253D01*
X104618200Y-56051703D01*
X104618195Y-56051697D01*
X104456302Y-55889804D01*
X104456296Y-55889799D01*
X104268749Y-55758477D01*
X104061246Y-55661717D01*
X104061240Y-55661715D01*
X103944890Y-55630539D01*
X103840087Y-55602457D01*
X103612000Y-55582502D01*
X103383913Y-55602457D01*
X103162759Y-55661715D01*
X103162749Y-55661719D01*
X103040249Y-55718841D01*
X102970058Y-55729502D01*
X102933751Y-55718841D01*
X102811250Y-55661719D01*
X102811246Y-55661717D01*
X102811243Y-55661716D01*
X102811241Y-55661715D01*
X102811240Y-55661715D01*
X102694890Y-55630539D01*
X102590087Y-55602457D01*
X102362000Y-55582502D01*
X102133913Y-55602457D01*
X102029110Y-55630539D01*
X101958133Y-55628849D01*
X101899338Y-55589055D01*
X101871390Y-55523790D01*
X101870499Y-55508832D01*
X101870499Y-54271595D01*
X101890501Y-54203474D01*
X101907399Y-54182504D01*
X101948753Y-54141150D01*
X102011062Y-54107126D01*
X102070457Y-54108539D01*
X102133913Y-54125543D01*
X102362000Y-54145498D01*
X102590087Y-54125543D01*
X102811243Y-54066284D01*
X103018749Y-53969523D01*
X103206300Y-53838198D01*
X103368198Y-53676300D01*
X103499523Y-53488749D01*
X103596284Y-53281243D01*
X103655543Y-53060087D01*
X103675498Y-52832000D01*
X103655543Y-52603913D01*
X103596284Y-52382757D01*
X103499523Y-52175251D01*
X103368198Y-51987700D01*
X103206300Y-51825802D01*
X103197241Y-51819459D01*
X103018749Y-51694477D01*
X102811246Y-51597717D01*
X102811240Y-51597715D01*
X102694927Y-51566549D01*
X102590087Y-51538457D01*
X102362000Y-51518502D01*
X102133913Y-51538457D01*
X101912759Y-51597715D01*
X101912753Y-51597717D01*
X101705250Y-51694477D01*
X101517703Y-51825799D01*
X101517697Y-51825804D01*
X101355804Y-51987697D01*
X101355799Y-51987703D01*
X101224477Y-52175250D01*
X101127717Y-52382753D01*
X101127715Y-52382759D01*
X101068457Y-52603913D01*
X101048502Y-52832000D01*
X101068457Y-53060090D01*
X101085459Y-53123540D01*
X101083769Y-53194516D01*
X101052847Y-53245246D01*
X100848335Y-53449758D01*
X100835900Y-53459722D01*
X100836088Y-53459949D01*
X100829978Y-53465003D01*
X100783369Y-53514636D01*
X100780619Y-53517474D01*
X100760862Y-53537232D01*
X100758373Y-53540440D01*
X100750687Y-53549437D01*
X100720417Y-53581674D01*
X100720410Y-53581684D01*
X100710650Y-53599436D01*
X100699802Y-53615951D01*
X100687385Y-53631959D01*
X100669823Y-53672541D01*
X100664603Y-53683196D01*
X100643304Y-53721940D01*
X100643302Y-53721945D01*
X100638266Y-53741560D01*
X100631863Y-53760263D01*
X100623818Y-53778853D01*
X100616900Y-53822526D01*
X100614494Y-53834143D01*
X100603499Y-53876969D01*
X100603499Y-53897224D01*
X100601948Y-53916934D01*
X100598779Y-53936944D01*
X100601432Y-53965005D01*
X100602940Y-53980962D01*
X100603499Y-53992820D01*
X100603499Y-57352147D01*
X100601750Y-57367989D01*
X100602043Y-57368017D01*
X100601297Y-57375908D01*
X100603437Y-57443985D01*
X100603499Y-57447944D01*
X100603499Y-57475852D01*
X100603500Y-57475870D01*
X100604006Y-57479878D01*
X100604936Y-57491697D01*
X100606325Y-57535889D01*
X100606326Y-57535894D01*
X100611976Y-57555340D01*
X100615985Y-57574698D01*
X100618524Y-57594794D01*
X100618525Y-57594801D01*
X100634799Y-57635904D01*
X100638643Y-57647130D01*
X100650981Y-57689594D01*
X100661293Y-57707032D01*
X100669987Y-57724780D01*
X100677443Y-57743610D01*
X100677449Y-57743621D01*
X100703431Y-57779382D01*
X100709948Y-57789302D01*
X100732457Y-57827363D01*
X100732458Y-57827364D01*
X100732460Y-57827367D01*
X100746778Y-57841685D01*
X100759616Y-57856715D01*
X100771525Y-57873105D01*
X100771529Y-57873110D01*
X100805597Y-57901293D01*
X100814377Y-57909283D01*
X102394596Y-59489502D01*
X102428622Y-59551814D01*
X102431501Y-59578597D01*
X102431501Y-61513053D01*
X102411499Y-61581174D01*
X102357843Y-61627667D01*
X102287569Y-61637771D01*
X102282350Y-61636908D01*
X102252422Y-61631314D01*
X102242718Y-61629500D01*
X102037282Y-61629500D01*
X101916119Y-61652149D01*
X101835343Y-61667249D01*
X101694015Y-61722000D01*
X101643782Y-61741460D01*
X101643781Y-61741460D01*
X101643780Y-61741461D01*
X101643776Y-61741463D01*
X101469116Y-61849608D01*
X101317297Y-61988009D01*
X101193497Y-62151949D01*
X101193493Y-62151954D01*
X101101929Y-62335839D01*
X101101923Y-62335855D01*
X101045706Y-62533437D01*
X101026751Y-62738001D01*
X101039724Y-62878018D01*
X101026091Y-62947693D01*
X101003357Y-62978737D01*
X100087593Y-63894500D01*
X100025283Y-63928524D01*
X99954468Y-63923460D01*
X99897632Y-63880913D01*
X99872821Y-63814393D01*
X99872500Y-63805404D01*
X99872500Y-50214500D01*
X99892502Y-50146379D01*
X99946158Y-50099886D01*
X99998500Y-50088500D01*
X100053839Y-50088500D01*
X100054878Y-50088599D01*
X100066190Y-50088546D01*
X100066192Y-50088547D01*
X100075902Y-50088501D01*
X100075991Y-50088501D01*
X100076581Y-50088500D01*
X100097507Y-50088500D01*
X100098528Y-50088394D01*
X122126955Y-49984974D01*
X122195166Y-50004656D01*
G37*
G04 #@! TD.AperFunction*
M02*
