G04 #@! TF.GenerationSoftware,KiCad,Pcbnew,7.0.11+dfsg-1build4*
G04 #@! TF.CreationDate,2026-01-28T22:33:10-05:00*
G04 #@! TF.ProjectId,stomp-chargepump,73746f6d-702d-4636-9861-72676570756d,rev?*
G04 #@! TF.SameCoordinates,Original*
G04 #@! TF.FileFunction,Copper,L1,Top*
G04 #@! TF.FilePolarity,Positive*
%FSLAX46Y46*%
G04 Gerber Fmt 4.6, Leading zero omitted, Abs format (unit mm)*
G04 Created by KiCad (PCBNEW 7.0.11+dfsg-1build4) date 2026-01-28 22:33:10*
%MOMM*%
%LPD*%
G01*
G04 APERTURE LIST*
G04 #@! TA.AperFunction,ComponentPad*
%ADD10R,1.600000X1.600000*%
G04 #@! TD*
G04 #@! TA.AperFunction,ComponentPad*
%ADD11C,1.600000*%
G04 #@! TD*
G04 #@! TA.AperFunction,ComponentPad*
%ADD12O,1.600000X1.600000*%
G04 #@! TD*
G04 #@! TA.AperFunction,ComponentPad*
%ADD13R,2.800000X2.800000*%
G04 #@! TD*
G04 #@! TA.AperFunction,ComponentPad*
%ADD14O,2.800000X2.800000*%
G04 #@! TD*
G04 #@! TA.AperFunction,ComponentPad*
%ADD15R,1.800000X1.800000*%
G04 #@! TD*
G04 #@! TA.AperFunction,ComponentPad*
%ADD16C,1.800000*%
G04 #@! TD*
G04 #@! TA.AperFunction,ComponentPad*
%ADD17O,3.000000X2.000000*%
G04 #@! TD*
G04 #@! TA.AperFunction,ComponentPad*
%ADD18R,1.700000X1.700000*%
G04 #@! TD*
G04 #@! TA.AperFunction,ComponentPad*
%ADD19O,1.700000X1.700000*%
G04 #@! TD*
G04 #@! TA.AperFunction,Conductor*
%ADD20C,0.250000*%
G04 #@! TD*
G04 APERTURE END LIST*
D10*
X110000000Y-75300000D03*
D11*
X112500000Y-75300000D03*
D10*
X109845000Y-87005000D03*
D12*
X107305000Y-87005000D03*
X104765000Y-87005000D03*
X102225000Y-87005000D03*
X102225000Y-94625000D03*
X104765000Y-94625000D03*
X107305000Y-94625000D03*
X109845000Y-94625000D03*
D13*
X149225000Y-93345000D03*
D14*
X139065000Y-93345000D03*
D10*
X110169888Y-81915000D03*
D11*
X112169888Y-81915000D03*
D10*
X102957621Y-81280000D03*
D11*
X105457621Y-81280000D03*
D15*
X123725000Y-75400000D03*
D16*
X126265000Y-75400000D03*
D13*
X139065000Y-88900000D03*
D14*
X149225000Y-88900000D03*
D10*
X103444888Y-74800000D03*
D11*
X105444888Y-74800000D03*
D13*
X139220000Y-84000000D03*
D14*
X149380000Y-84000000D03*
D11*
X149225000Y-79700000D03*
D12*
X139065000Y-79700000D03*
D17*
X119796560Y-82831940D03*
X119796560Y-87630000D03*
X119796560Y-92428060D03*
X125095000Y-82831940D03*
X125095000Y-87630000D03*
X125095000Y-92428060D03*
X130393440Y-82831940D03*
X130393440Y-87630000D03*
X130393440Y-92428060D03*
D18*
X131460000Y-70485000D03*
D19*
X134000000Y-70485000D03*
X136540000Y-70485000D03*
X139080000Y-70485000D03*
X141620000Y-70485000D03*
X144160000Y-70485000D03*
X146700000Y-70485000D03*
X149240000Y-70485000D03*
D20*
X139065000Y-93345000D02*
X136700000Y-90980000D01*
X136700000Y-90980000D02*
X136700000Y-86000000D01*
X136700000Y-86000000D02*
X139000000Y-83700000D01*
X139000000Y-83700000D02*
X147050000Y-83700000D01*
X147050000Y-83700000D02*
X149225000Y-81525000D01*
X149225000Y-81525000D02*
X149225000Y-79700000D01*
X125095000Y-82831940D02*
X132026940Y-75900000D01*
X132026940Y-75900000D02*
X143600000Y-75900000D01*
X143600000Y-75900000D02*
X146700000Y-72800000D01*
X146700000Y-72800000D02*
X146700000Y-70485000D01*
X126265000Y-75400000D02*
X126735000Y-74930000D01*
X139080000Y-70485000D02*
X139080000Y-71740000D01*
X139080000Y-71740000D02*
X137795000Y-73025000D01*
X137795000Y-73025000D02*
X116205000Y-73025000D01*
X116205000Y-73025000D02*
X113625000Y-75605000D01*
X113625000Y-75605000D02*
X113625000Y-75765991D01*
X113625000Y-75765991D02*
X112965991Y-76425000D01*
X112965991Y-76425000D02*
X111125000Y-76425000D01*
X111125000Y-76425000D02*
X110000000Y-75300000D01*
X102225000Y-87005000D02*
X102225000Y-84445000D01*
X102225000Y-84445000D02*
X100330000Y-82550000D01*
X100330000Y-82550000D02*
X100330000Y-73660000D01*
X100330000Y-73660000D02*
X101090000Y-72900000D01*
X101090000Y-72900000D02*
X104500000Y-72900000D01*
X104500000Y-72900000D02*
X105444888Y-73844888D01*
X105444888Y-73844888D02*
X105444888Y-74800000D01*
X112169888Y-81915000D02*
X112169888Y-80783630D01*
X112169888Y-80783630D02*
X108856258Y-77470000D01*
X108856258Y-77470000D02*
X105410000Y-77470000D01*
X105410000Y-77470000D02*
X103444888Y-75504888D01*
X130393440Y-82831940D02*
X135305380Y-77920000D01*
X144965000Y-77920000D02*
X149240000Y-73645000D01*
X135305380Y-77920000D02*
X144965000Y-77920000D01*
X149240000Y-73645000D02*
X149240000Y-70485000D01*
X149225000Y-93345000D02*
X149225000Y-88900000D01*
X112169888Y-82140112D02*
X112169888Y-81915000D01*
X107305000Y-87005000D02*
X112169888Y-82140112D01*
X102917621Y-78740000D02*
X105457621Y-81280000D01*
X100965000Y-81915000D02*
X100965000Y-80010000D01*
X102235000Y-78740000D02*
X102917621Y-78740000D01*
X100965000Y-80010000D02*
X102235000Y-78740000D01*
X103349511Y-84299511D02*
X100965000Y-81915000D01*
X103349511Y-93500489D02*
X103349511Y-84299511D01*
X102225000Y-94625000D02*
X103349511Y-93500489D01*
X151130000Y-86360000D02*
X141605000Y-86360000D01*
X149631010Y-69215000D02*
X151399031Y-70983021D01*
X151399031Y-70983021D02*
X151399031Y-86090969D01*
X151399031Y-86090969D02*
X151130000Y-86360000D01*
X139080000Y-70485000D02*
X140350000Y-69215000D01*
X141605000Y-86360000D02*
X139065000Y-88900000D01*
X140350000Y-69215000D02*
X149631010Y-69215000D01*
X130393440Y-88265000D02*
X129893440Y-88265000D01*
X125095000Y-92428060D02*
X130393440Y-92428060D01*
X119796560Y-78953440D02*
X123820000Y-74930000D01*
X119796560Y-82831940D02*
X119796560Y-78953440D01*
X111105000Y-95885000D02*
X136525000Y-95885000D01*
X109845000Y-94625000D02*
X111105000Y-95885000D01*
X136525000Y-95885000D02*
X139065000Y-93345000D01*
G04 #@! TA.AperFunction,Conductor*
G36*
X152331621Y-67975502D02*
G01*
X152378114Y-68029158D01*
X152389500Y-68081500D01*
X152389500Y-96383500D01*
X152369498Y-96451621D01*
X152315842Y-96498114D01*
X152263500Y-96509500D01*
X137100593Y-96509500D01*
X137032472Y-96489498D01*
X136985979Y-96435842D01*
X136975875Y-96365568D01*
X137005369Y-96300988D01*
X137011498Y-96294405D01*
X137543381Y-95762522D01*
X138176686Y-95129216D01*
X138238996Y-95095193D01*
X138309807Y-95100256D01*
X138525940Y-95180870D01*
X138792698Y-95238900D01*
X139065000Y-95258375D01*
X139337302Y-95238900D01*
X139604051Y-95180872D01*
X139604052Y-95180872D01*
X139604053Y-95180871D01*
X139604060Y-95180870D01*
X139859845Y-95085467D01*
X140099449Y-94954633D01*
X140317994Y-94791032D01*
X140511032Y-94597994D01*
X140674633Y-94379449D01*
X140805467Y-94139845D01*
X140900870Y-93884060D01*
X140958900Y-93617302D01*
X140978375Y-93345000D01*
X140958900Y-93072698D01*
X140900870Y-92805940D01*
X140805467Y-92550155D01*
X140674633Y-92310551D01*
X140535984Y-92125338D01*
X140511036Y-92092011D01*
X140511028Y-92092002D01*
X140317997Y-91898971D01*
X140317988Y-91898963D01*
X140099452Y-91735369D01*
X140099450Y-91735368D01*
X140099449Y-91735367D01*
X139859845Y-91604533D01*
X139859844Y-91604532D01*
X139604052Y-91509127D01*
X139337304Y-91451100D01*
X139337306Y-91451100D01*
X139065000Y-91431625D01*
X138792694Y-91451100D01*
X138525948Y-91509127D01*
X138525947Y-91509127D01*
X138309812Y-91589741D01*
X138238996Y-91594805D01*
X138176685Y-91560780D01*
X137639500Y-91023595D01*
X137605474Y-90961283D01*
X137610539Y-90890468D01*
X137653086Y-90833632D01*
X137719606Y-90808821D01*
X137728595Y-90808500D01*
X140513632Y-90808500D01*
X140513638Y-90808500D01*
X140513645Y-90808499D01*
X140513649Y-90808499D01*
X140574196Y-90801990D01*
X140574199Y-90801989D01*
X140574201Y-90801989D01*
X140711204Y-90750889D01*
X140752458Y-90720007D01*
X140828261Y-90663261D01*
X140915887Y-90546207D01*
X140915887Y-90546206D01*
X140915889Y-90546204D01*
X140966989Y-90409201D01*
X140973500Y-90348638D01*
X140973500Y-87939594D01*
X140993502Y-87871473D01*
X141010405Y-87850499D01*
X141830499Y-87030405D01*
X141892811Y-86996379D01*
X141919594Y-86993500D01*
X148240559Y-86993500D01*
X148308680Y-87013502D01*
X148355173Y-87067158D01*
X148365277Y-87137432D01*
X148335783Y-87202012D01*
X148300945Y-87230087D01*
X148277215Y-87243045D01*
X148190547Y-87290369D01*
X147972011Y-87453963D01*
X147972002Y-87453971D01*
X147778971Y-87647002D01*
X147778963Y-87647011D01*
X147615369Y-87865547D01*
X147484532Y-88105156D01*
X147389127Y-88360947D01*
X147389127Y-88360948D01*
X147331100Y-88627694D01*
X147311625Y-88900000D01*
X147331100Y-89172305D01*
X147389127Y-89439051D01*
X147389127Y-89439052D01*
X147484532Y-89694843D01*
X147615369Y-89934452D01*
X147778963Y-90152988D01*
X147778966Y-90152991D01*
X147778968Y-90152994D01*
X147972006Y-90346032D01*
X148190551Y-90509633D01*
X148430155Y-90640467D01*
X148509532Y-90670072D01*
X148566367Y-90712618D01*
X148591179Y-90779138D01*
X148591500Y-90788128D01*
X148591500Y-91310500D01*
X148571498Y-91378621D01*
X148517842Y-91425114D01*
X148465500Y-91436500D01*
X147776350Y-91436500D01*
X147715803Y-91443009D01*
X147715795Y-91443011D01*
X147578797Y-91494110D01*
X147578792Y-91494112D01*
X147461738Y-91581738D01*
X147374112Y-91698792D01*
X147374110Y-91698797D01*
X147323011Y-91835795D01*
X147323009Y-91835803D01*
X147316500Y-91896350D01*
X147316500Y-94793649D01*
X147323009Y-94854196D01*
X147323011Y-94854204D01*
X147374110Y-94991202D01*
X147374112Y-94991207D01*
X147461738Y-95108261D01*
X147578792Y-95195887D01*
X147578794Y-95195888D01*
X147578796Y-95195889D01*
X147628948Y-95214595D01*
X147715795Y-95246988D01*
X147715803Y-95246990D01*
X147776350Y-95253499D01*
X147776355Y-95253499D01*
X147776362Y-95253500D01*
X147776368Y-95253500D01*
X150673632Y-95253500D01*
X150673638Y-95253500D01*
X150673645Y-95253499D01*
X150673649Y-95253499D01*
X150734196Y-95246990D01*
X150734199Y-95246989D01*
X150734201Y-95246989D01*
X150871204Y-95195889D01*
X150891265Y-95180872D01*
X150988261Y-95108261D01*
X151075887Y-94991207D01*
X151075887Y-94991206D01*
X151075889Y-94991204D01*
X151126989Y-94854201D01*
X151133500Y-94793638D01*
X151133500Y-91896362D01*
X151132967Y-91891404D01*
X151126990Y-91835803D01*
X151126988Y-91835795D01*
X151088109Y-91731560D01*
X151075889Y-91698796D01*
X151075888Y-91698794D01*
X151075887Y-91698792D01*
X150988261Y-91581738D01*
X150871207Y-91494112D01*
X150871202Y-91494110D01*
X150734204Y-91443011D01*
X150734196Y-91443009D01*
X150673649Y-91436500D01*
X150673638Y-91436500D01*
X149984500Y-91436500D01*
X149916379Y-91416498D01*
X149869886Y-91362842D01*
X149858500Y-91310500D01*
X149858500Y-90788128D01*
X149878502Y-90720007D01*
X149932158Y-90673514D01*
X149940458Y-90670076D01*
X150019845Y-90640467D01*
X150259449Y-90509633D01*
X150477994Y-90346032D01*
X150671032Y-90152994D01*
X150834633Y-89934449D01*
X150965467Y-89694845D01*
X151060870Y-89439060D01*
X151118900Y-89172302D01*
X151138375Y-88900000D01*
X151118900Y-88627698D01*
X151066474Y-88386701D01*
X151060872Y-88360948D01*
X151060872Y-88360947D01*
X151060870Y-88360943D01*
X151060870Y-88360940D01*
X150965467Y-88105155D01*
X150834633Y-87865551D01*
X150794860Y-87812420D01*
X150671036Y-87647011D01*
X150671028Y-87647002D01*
X150477997Y-87453971D01*
X150477988Y-87453963D01*
X150259452Y-87290369D01*
X150259450Y-87290368D01*
X150259449Y-87290367D01*
X150149055Y-87230087D01*
X150098853Y-87179885D01*
X150083762Y-87110511D01*
X150108573Y-87043991D01*
X150165409Y-87001444D01*
X150209441Y-86993500D01*
X151046147Y-86993500D01*
X151061988Y-86995249D01*
X151062016Y-86994956D01*
X151069902Y-86995700D01*
X151069909Y-86995702D01*
X151137986Y-86993562D01*
X151141945Y-86993500D01*
X151169851Y-86993500D01*
X151169856Y-86993500D01*
X151173867Y-86992992D01*
X151185699Y-86992061D01*
X151229889Y-86990673D01*
X151249347Y-86985019D01*
X151268694Y-86981013D01*
X151288797Y-86978474D01*
X151329910Y-86962195D01*
X151341130Y-86958353D01*
X151365913Y-86951154D01*
X151383591Y-86946019D01*
X151383595Y-86946017D01*
X151401026Y-86935708D01*
X151418780Y-86927009D01*
X151437617Y-86919552D01*
X151473392Y-86893558D01*
X151483298Y-86887051D01*
X151521362Y-86864542D01*
X151535685Y-86850218D01*
X151550724Y-86837374D01*
X151567107Y-86825472D01*
X151595303Y-86791386D01*
X151603272Y-86782630D01*
X151787688Y-86598214D01*
X151800123Y-86588253D01*
X151799936Y-86588026D01*
X151806047Y-86582970D01*
X151806046Y-86582970D01*
X151806049Y-86582969D01*
X151852707Y-86533281D01*
X151855398Y-86530504D01*
X151875165Y-86510739D01*
X151877648Y-86507536D01*
X151885339Y-86498531D01*
X151915617Y-86466290D01*
X151925376Y-86448536D01*
X151936228Y-86432015D01*
X151948644Y-86416010D01*
X151966199Y-86375439D01*
X151971423Y-86364777D01*
X151992725Y-86326030D01*
X151992726Y-86326029D01*
X151997764Y-86306404D01*
X152004169Y-86287699D01*
X152012212Y-86269114D01*
X152019127Y-86225450D01*
X152021535Y-86213821D01*
X152032531Y-86170999D01*
X152032531Y-86150744D01*
X152034082Y-86131032D01*
X152037251Y-86111026D01*
X152033090Y-86067005D01*
X152032531Y-86055148D01*
X152032531Y-71066876D01*
X152034280Y-71051035D01*
X152033987Y-71051008D01*
X152034732Y-71043115D01*
X152034733Y-71043112D01*
X152032593Y-70975034D01*
X152032531Y-70971075D01*
X152032531Y-70943170D01*
X152032531Y-70943165D01*
X152032023Y-70939151D01*
X152031092Y-70927318D01*
X152029704Y-70883131D01*
X152024053Y-70863684D01*
X152020043Y-70844321D01*
X152017505Y-70824224D01*
X152001226Y-70783111D01*
X151997384Y-70771890D01*
X151985049Y-70729428D01*
X151974736Y-70711990D01*
X151966041Y-70694243D01*
X151958583Y-70675404D01*
X151932599Y-70639641D01*
X151926082Y-70629720D01*
X151903572Y-70591656D01*
X151889249Y-70577333D01*
X151876408Y-70562300D01*
X151864502Y-70545913D01*
X151830436Y-70517731D01*
X151821657Y-70509742D01*
X150138254Y-68826339D01*
X150128289Y-68813901D01*
X150128062Y-68814090D01*
X150123011Y-68807984D01*
X150123010Y-68807982D01*
X150073358Y-68761356D01*
X150070515Y-68758600D01*
X150050787Y-68738871D01*
X150050781Y-68738866D01*
X150047577Y-68736380D01*
X150038566Y-68728683D01*
X150006335Y-68698417D01*
X150006329Y-68698413D01*
X149988573Y-68688651D01*
X149972057Y-68677802D01*
X149956051Y-68665386D01*
X149923701Y-68651387D01*
X149915474Y-68647827D01*
X149904817Y-68642605D01*
X149866073Y-68621306D01*
X149866070Y-68621305D01*
X149846446Y-68616266D01*
X149827746Y-68609864D01*
X149809155Y-68601819D01*
X149809153Y-68601818D01*
X149809151Y-68601818D01*
X149765484Y-68594901D01*
X149753865Y-68592495D01*
X149711040Y-68581500D01*
X149690786Y-68581500D01*
X149671076Y-68579949D01*
X149651067Y-68576780D01*
X149607049Y-68580941D01*
X149595191Y-68581500D01*
X140433853Y-68581500D01*
X140418011Y-68579750D01*
X140417984Y-68580044D01*
X140410092Y-68579298D01*
X140410091Y-68579298D01*
X140389382Y-68579949D01*
X140342014Y-68581438D01*
X140338055Y-68581500D01*
X140310144Y-68581500D01*
X140310141Y-68581500D01*
X140310126Y-68581501D01*
X140306121Y-68582007D01*
X140294304Y-68582937D01*
X140250112Y-68584326D01*
X140250110Y-68584327D01*
X140230655Y-68589978D01*
X140211302Y-68593986D01*
X140191210Y-68596524D01*
X140191203Y-68596526D01*
X140150096Y-68612801D01*
X140138871Y-68616644D01*
X140108212Y-68625552D01*
X140096407Y-68628982D01*
X140096405Y-68628982D01*
X140096402Y-68628984D01*
X140078963Y-68639297D01*
X140061218Y-68647990D01*
X140042379Y-68655449D01*
X140006627Y-68681426D01*
X139996704Y-68687944D01*
X139958640Y-68710454D01*
X139944307Y-68724787D01*
X139929281Y-68737620D01*
X139912895Y-68749525D01*
X139884711Y-68783593D01*
X139876723Y-68792370D01*
X139537793Y-69131300D01*
X139475481Y-69165326D01*
X139419781Y-69164382D01*
X139419776Y-69164414D01*
X139419563Y-69164378D01*
X139417759Y-69164348D01*
X139414643Y-69163558D01*
X139414635Y-69163556D01*
X139192569Y-69126500D01*
X138967431Y-69126500D01*
X138819211Y-69151233D01*
X138745369Y-69163555D01*
X138745360Y-69163557D01*
X138532428Y-69236656D01*
X138532426Y-69236658D01*
X138334426Y-69343810D01*
X138334424Y-69343811D01*
X138156762Y-69482091D01*
X138004279Y-69647729D01*
X137915483Y-69783643D01*
X137861479Y-69829731D01*
X137791131Y-69839306D01*
X137726774Y-69809329D01*
X137704517Y-69783643D01*
X137615720Y-69647729D01*
X137463237Y-69482091D01*
X137343679Y-69389035D01*
X137285576Y-69343811D01*
X137087574Y-69236658D01*
X137087572Y-69236657D01*
X137087571Y-69236656D01*
X136874639Y-69163557D01*
X136874630Y-69163555D01*
X136830476Y-69156187D01*
X136652569Y-69126500D01*
X136427431Y-69126500D01*
X136279211Y-69151233D01*
X136205369Y-69163555D01*
X136205360Y-69163557D01*
X135992428Y-69236656D01*
X135992426Y-69236658D01*
X135794426Y-69343810D01*
X135794424Y-69343811D01*
X135616762Y-69482091D01*
X135464279Y-69647729D01*
X135375483Y-69783643D01*
X135321479Y-69829731D01*
X135251131Y-69839306D01*
X135186774Y-69809329D01*
X135164517Y-69783643D01*
X135075720Y-69647729D01*
X134923237Y-69482091D01*
X134803679Y-69389035D01*
X134745576Y-69343811D01*
X134547574Y-69236658D01*
X134547572Y-69236657D01*
X134547571Y-69236656D01*
X134334639Y-69163557D01*
X134334630Y-69163555D01*
X134290476Y-69156187D01*
X134112569Y-69126500D01*
X133887431Y-69126500D01*
X133739211Y-69151233D01*
X133665369Y-69163555D01*
X133665360Y-69163557D01*
X133452428Y-69236656D01*
X133452426Y-69236658D01*
X133254426Y-69343810D01*
X133254424Y-69343811D01*
X133076759Y-69482094D01*
X133015374Y-69548775D01*
X132954521Y-69585346D01*
X132883557Y-69583211D01*
X132825012Y-69543049D01*
X132804618Y-69507470D01*
X132760443Y-69389033D01*
X132672904Y-69272095D01*
X132555965Y-69184555D01*
X132419093Y-69133505D01*
X132358597Y-69127000D01*
X131714000Y-69127000D01*
X131714000Y-70051325D01*
X131602315Y-70000320D01*
X131495763Y-69985000D01*
X131424237Y-69985000D01*
X131317685Y-70000320D01*
X131206000Y-70051325D01*
X131206000Y-69127000D01*
X130561402Y-69127000D01*
X130500906Y-69133505D01*
X130364035Y-69184555D01*
X130364034Y-69184555D01*
X130247095Y-69272095D01*
X130159555Y-69389034D01*
X130159555Y-69389035D01*
X130108505Y-69525906D01*
X130102000Y-69586402D01*
X130102000Y-70231000D01*
X131028884Y-70231000D01*
X131000507Y-70275156D01*
X130960000Y-70413111D01*
X130960000Y-70556889D01*
X131000507Y-70694844D01*
X131028884Y-70739000D01*
X130102000Y-70739000D01*
X130102000Y-71383597D01*
X130108505Y-71444093D01*
X130159555Y-71580964D01*
X130159555Y-71580965D01*
X130247095Y-71697904D01*
X130364034Y-71785444D01*
X130500906Y-71836494D01*
X130561402Y-71842999D01*
X130561415Y-71843000D01*
X131206000Y-71843000D01*
X131206000Y-70918674D01*
X131317685Y-70969680D01*
X131424237Y-70985000D01*
X131495763Y-70985000D01*
X131602315Y-70969680D01*
X131714000Y-70918674D01*
X131714000Y-71843000D01*
X132358585Y-71843000D01*
X132358597Y-71842999D01*
X132419093Y-71836494D01*
X132555964Y-71785444D01*
X132555965Y-71785444D01*
X132672904Y-71697904D01*
X132760444Y-71580965D01*
X132804618Y-71462530D01*
X132847165Y-71405694D01*
X132913685Y-71380883D01*
X132983059Y-71395974D01*
X133015372Y-71421222D01*
X133036427Y-71444093D01*
X133076762Y-71487908D01*
X133131331Y-71530381D01*
X133254424Y-71626189D01*
X133452426Y-71733342D01*
X133452427Y-71733342D01*
X133452428Y-71733343D01*
X133530244Y-71760057D01*
X133665365Y-71806444D01*
X133887431Y-71843500D01*
X133887435Y-71843500D01*
X134112565Y-71843500D01*
X134112569Y-71843500D01*
X134334635Y-71806444D01*
X134547574Y-71733342D01*
X134745576Y-71626189D01*
X134923240Y-71487906D01*
X135075722Y-71322268D01*
X135164518Y-71186354D01*
X135218520Y-71140268D01*
X135288868Y-71130692D01*
X135353225Y-71160669D01*
X135375480Y-71186353D01*
X135389963Y-71208520D01*
X135464275Y-71322265D01*
X135464279Y-71322270D01*
X135616762Y-71487908D01*
X135671331Y-71530381D01*
X135794424Y-71626189D01*
X135992426Y-71733342D01*
X135992427Y-71733342D01*
X135992428Y-71733343D01*
X136070244Y-71760057D01*
X136205365Y-71806444D01*
X136427431Y-71843500D01*
X136427435Y-71843500D01*
X136652565Y-71843500D01*
X136652569Y-71843500D01*
X136874635Y-71806444D01*
X137087574Y-71733342D01*
X137285576Y-71626189D01*
X137463240Y-71487906D01*
X137615722Y-71322268D01*
X137704518Y-71186354D01*
X137758520Y-71140268D01*
X137828868Y-71130692D01*
X137893225Y-71160669D01*
X137915480Y-71186353D01*
X137929963Y-71208520D01*
X138004275Y-71322265D01*
X138004279Y-71322270D01*
X138156760Y-71487906D01*
X138156766Y-71487911D01*
X138201294Y-71522569D01*
X138242765Y-71580194D01*
X138246498Y-71651092D01*
X138212999Y-71711095D01*
X137569500Y-72354595D01*
X137507187Y-72388620D01*
X137480404Y-72391500D01*
X116288853Y-72391500D01*
X116273011Y-72389750D01*
X116272984Y-72390044D01*
X116265092Y-72389298D01*
X116265091Y-72389298D01*
X116241360Y-72390044D01*
X116197014Y-72391438D01*
X116193055Y-72391500D01*
X116165144Y-72391500D01*
X116165141Y-72391500D01*
X116165126Y-72391501D01*
X116161121Y-72392007D01*
X116149304Y-72392937D01*
X116105113Y-72394326D01*
X116105111Y-72394327D01*
X116085656Y-72399978D01*
X116066303Y-72403986D01*
X116046211Y-72406524D01*
X116046205Y-72406525D01*
X116046203Y-72406526D01*
X116008685Y-72421380D01*
X116005098Y-72422800D01*
X115993874Y-72426643D01*
X115951407Y-72438982D01*
X115933964Y-72449297D01*
X115916218Y-72457990D01*
X115897382Y-72465448D01*
X115861610Y-72491437D01*
X115851694Y-72497951D01*
X115813637Y-72520458D01*
X115799311Y-72534784D01*
X115784285Y-72547617D01*
X115767895Y-72559525D01*
X115767893Y-72559527D01*
X115739700Y-72593605D01*
X115731713Y-72602381D01*
X113765302Y-74568791D01*
X113702990Y-74602817D01*
X113632174Y-74597752D01*
X113599353Y-74573182D01*
X113587097Y-74572110D01*
X112898726Y-75260480D01*
X112885165Y-75174852D01*
X112827641Y-75061955D01*
X112738045Y-74972359D01*
X112625148Y-74914835D01*
X112539517Y-74901272D01*
X113227888Y-74212899D01*
X113227888Y-74212898D01*
X113156501Y-74162913D01*
X112949073Y-74066188D01*
X112949068Y-74066186D01*
X112728000Y-74006951D01*
X112728004Y-74006951D01*
X112500000Y-73987004D01*
X112271997Y-74006951D01*
X112050931Y-74066186D01*
X112050926Y-74066188D01*
X111843500Y-74162913D01*
X111772109Y-74212900D01*
X112460481Y-74901272D01*
X112374852Y-74914835D01*
X112261955Y-74972359D01*
X112172359Y-75061955D01*
X112114835Y-75174852D01*
X112101272Y-75260482D01*
X111401219Y-74560428D01*
X111375649Y-74555289D01*
X111324657Y-74505890D01*
X111309666Y-74454630D01*
X111308861Y-74454717D01*
X111301990Y-74390803D01*
X111301988Y-74390795D01*
X111250889Y-74253797D01*
X111250887Y-74253792D01*
X111163261Y-74136738D01*
X111046207Y-74049112D01*
X111046202Y-74049110D01*
X110909204Y-73998011D01*
X110909196Y-73998009D01*
X110848649Y-73991500D01*
X110848638Y-73991500D01*
X109151362Y-73991500D01*
X109151350Y-73991500D01*
X109090803Y-73998009D01*
X109090795Y-73998011D01*
X108953797Y-74049110D01*
X108953792Y-74049112D01*
X108836738Y-74136738D01*
X108749112Y-74253792D01*
X108749110Y-74253797D01*
X108698011Y-74390795D01*
X108698009Y-74390803D01*
X108691500Y-74451350D01*
X108691500Y-76148649D01*
X108698009Y-76209196D01*
X108698011Y-76209204D01*
X108749110Y-76346202D01*
X108749112Y-76346207D01*
X108836738Y-76463261D01*
X108953792Y-76550887D01*
X108953794Y-76550888D01*
X108953796Y-76550889D01*
X109006120Y-76570405D01*
X109090795Y-76601988D01*
X109090803Y-76601990D01*
X109151350Y-76608499D01*
X109151355Y-76608499D01*
X109151362Y-76608500D01*
X110360406Y-76608500D01*
X110428527Y-76628502D01*
X110449501Y-76645405D01*
X110617753Y-76813657D01*
X110627720Y-76826097D01*
X110627947Y-76825910D01*
X110632999Y-76832017D01*
X110633000Y-76832018D01*
X110658965Y-76856401D01*
X110682666Y-76878657D01*
X110685510Y-76881414D01*
X110705226Y-76901131D01*
X110708423Y-76903611D01*
X110717444Y-76911316D01*
X110749679Y-76941586D01*
X110749680Y-76941586D01*
X110749682Y-76941588D01*
X110767429Y-76951344D01*
X110783959Y-76962202D01*
X110799959Y-76974613D01*
X110840536Y-76992172D01*
X110851187Y-76997390D01*
X110889940Y-77018695D01*
X110909562Y-77023733D01*
X110928263Y-77030135D01*
X110940814Y-77035567D01*
X110946852Y-77038180D01*
X110946853Y-77038180D01*
X110946855Y-77038181D01*
X110990530Y-77045098D01*
X111002141Y-77047502D01*
X111044970Y-77058500D01*
X111065224Y-77058500D01*
X111084934Y-77060051D01*
X111087141Y-77060400D01*
X111104943Y-77063220D01*
X111148961Y-77059058D01*
X111160819Y-77058500D01*
X112882138Y-77058500D01*
X112897979Y-77060249D01*
X112898007Y-77059956D01*
X112905893Y-77060700D01*
X112905900Y-77060702D01*
X112973977Y-77058562D01*
X112977936Y-77058500D01*
X113005842Y-77058500D01*
X113005847Y-77058500D01*
X113009858Y-77057992D01*
X113021690Y-77057061D01*
X113065880Y-77055673D01*
X113085338Y-77050019D01*
X113104685Y-77046013D01*
X113124788Y-77043474D01*
X113165901Y-77027195D01*
X113177121Y-77023353D01*
X113205822Y-77015016D01*
X113219582Y-77011019D01*
X113219586Y-77011017D01*
X113237017Y-77000708D01*
X113254771Y-76992009D01*
X113273608Y-76984552D01*
X113309383Y-76958558D01*
X113319289Y-76952051D01*
X113357353Y-76929542D01*
X113371676Y-76915218D01*
X113386715Y-76902374D01*
X113389340Y-76900467D01*
X113403098Y-76890472D01*
X113431294Y-76856386D01*
X113439263Y-76847630D01*
X114013657Y-76273236D01*
X114026092Y-76263275D01*
X114025905Y-76263048D01*
X114032016Y-76257992D01*
X114032015Y-76257992D01*
X114032018Y-76257991D01*
X114078676Y-76208303D01*
X114081367Y-76205526D01*
X114101134Y-76185761D01*
X114103617Y-76182558D01*
X114111308Y-76173553D01*
X114141586Y-76141312D01*
X114151345Y-76123558D01*
X114162197Y-76107037D01*
X114174613Y-76091032D01*
X114192168Y-76050461D01*
X114197392Y-76039799D01*
X114218694Y-76001052D01*
X114218695Y-76001051D01*
X114223733Y-75981426D01*
X114230138Y-75962721D01*
X114238181Y-75944136D01*
X114242392Y-75917544D01*
X114272802Y-75853390D01*
X114277711Y-75848191D01*
X116430502Y-73695402D01*
X116492812Y-73661379D01*
X116519595Y-73658500D01*
X137711147Y-73658500D01*
X137726988Y-73660249D01*
X137727016Y-73659956D01*
X137734902Y-73660700D01*
X137734909Y-73660702D01*
X137802986Y-73658562D01*
X137806945Y-73658500D01*
X137834851Y-73658500D01*
X137834856Y-73658500D01*
X137838867Y-73657992D01*
X137850699Y-73657061D01*
X137894889Y-73655673D01*
X137914347Y-73650019D01*
X137933694Y-73646013D01*
X137953797Y-73643474D01*
X137994910Y-73627195D01*
X138006130Y-73623353D01*
X138030913Y-73616154D01*
X138048591Y-73611019D01*
X138048595Y-73611017D01*
X138066026Y-73600708D01*
X138083780Y-73592009D01*
X138102617Y-73584552D01*
X138138392Y-73558558D01*
X138148298Y-73552051D01*
X138186362Y-73529542D01*
X138200685Y-73515218D01*
X138215724Y-73502374D01*
X138223534Y-73496700D01*
X138232107Y-73490472D01*
X138260303Y-73456386D01*
X138268272Y-73447630D01*
X139468657Y-72247245D01*
X139481092Y-72237284D01*
X139480905Y-72237057D01*
X139487016Y-72232001D01*
X139487015Y-72232001D01*
X139487018Y-72232000D01*
X139533676Y-72182312D01*
X139536367Y-72179535D01*
X139556134Y-72159770D01*
X139558617Y-72156567D01*
X139566308Y-72147562D01*
X139596586Y-72115321D01*
X139606345Y-72097567D01*
X139617197Y-72081046D01*
X139629613Y-72065041D01*
X139647168Y-72024470D01*
X139652392Y-72013808D01*
X139673694Y-71975061D01*
X139673695Y-71975060D01*
X139678733Y-71955435D01*
X139685138Y-71936730D01*
X139693181Y-71918145D01*
X139700096Y-71874476D01*
X139702503Y-71862856D01*
X139707474Y-71843500D01*
X139713500Y-71820030D01*
X139713500Y-71799769D01*
X139715051Y-71780058D01*
X139718219Y-71760057D01*
X139718218Y-71760049D01*
X139718366Y-71755368D01*
X139740495Y-71687908D01*
X139784333Y-71648508D01*
X139825576Y-71626189D01*
X140003240Y-71487906D01*
X140155722Y-71322268D01*
X140244518Y-71186354D01*
X140298520Y-71140268D01*
X140368868Y-71130692D01*
X140433225Y-71160669D01*
X140455480Y-71186353D01*
X140469963Y-71208520D01*
X140544275Y-71322265D01*
X140544279Y-71322270D01*
X140696762Y-71487908D01*
X140751331Y-71530381D01*
X140874424Y-71626189D01*
X141072426Y-71733342D01*
X141072427Y-71733342D01*
X141072428Y-71733343D01*
X141150244Y-71760057D01*
X141285365Y-71806444D01*
X141507431Y-71843500D01*
X141507435Y-71843500D01*
X141732565Y-71843500D01*
X141732569Y-71843500D01*
X141954635Y-71806444D01*
X142167574Y-71733342D01*
X142365576Y-71626189D01*
X142543240Y-71487906D01*
X142695722Y-71322268D01*
X142784518Y-71186354D01*
X142838520Y-71140268D01*
X142908868Y-71130692D01*
X142973225Y-71160669D01*
X142995480Y-71186353D01*
X143009963Y-71208520D01*
X143084275Y-71322265D01*
X143084279Y-71322270D01*
X143236762Y-71487908D01*
X143291331Y-71530381D01*
X143414424Y-71626189D01*
X143612426Y-71733342D01*
X143612427Y-71733342D01*
X143612428Y-71733343D01*
X143690244Y-71760057D01*
X143825365Y-71806444D01*
X144047431Y-71843500D01*
X144047435Y-71843500D01*
X144272565Y-71843500D01*
X144272569Y-71843500D01*
X144494635Y-71806444D01*
X144707574Y-71733342D01*
X144905576Y-71626189D01*
X145083240Y-71487906D01*
X145235722Y-71322268D01*
X145324518Y-71186354D01*
X145378520Y-71140268D01*
X145448868Y-71130692D01*
X145513225Y-71160669D01*
X145535480Y-71186353D01*
X145549963Y-71208520D01*
X145624275Y-71322265D01*
X145624279Y-71322270D01*
X145776762Y-71487908D01*
X145865592Y-71557047D01*
X145954424Y-71626189D01*
X146000471Y-71651108D01*
X146050859Y-71701118D01*
X146066500Y-71761920D01*
X146066500Y-72485405D01*
X146046498Y-72553526D01*
X146029595Y-72574500D01*
X143374500Y-75229595D01*
X143312188Y-75263621D01*
X143285405Y-75266500D01*
X132110794Y-75266500D01*
X132094952Y-75264750D01*
X132094925Y-75265044D01*
X132087032Y-75264297D01*
X132018942Y-75266438D01*
X132014984Y-75266500D01*
X131987084Y-75266500D01*
X131987078Y-75266500D01*
X131987072Y-75266501D01*
X131983073Y-75267006D01*
X131971253Y-75267936D01*
X131927051Y-75269325D01*
X131907590Y-75274979D01*
X131888244Y-75278985D01*
X131868144Y-75281525D01*
X131868143Y-75281525D01*
X131827035Y-75297800D01*
X131815810Y-75301643D01*
X131773353Y-75313978D01*
X131773344Y-75313982D01*
X131755902Y-75324297D01*
X131738155Y-75332991D01*
X131719323Y-75340447D01*
X131719321Y-75340448D01*
X131683554Y-75366434D01*
X131673640Y-75372947D01*
X131635576Y-75395459D01*
X131635573Y-75395461D01*
X131621252Y-75409783D01*
X131606223Y-75422619D01*
X131589833Y-75434527D01*
X131561640Y-75468605D01*
X131553653Y-75477381D01*
X125744500Y-81286535D01*
X125682188Y-81320561D01*
X125655405Y-81323440D01*
X124534192Y-81323440D01*
X124352236Y-81338129D01*
X124115748Y-81396417D01*
X123891685Y-81491883D01*
X123685824Y-81622062D01*
X123685823Y-81622062D01*
X123503531Y-81783559D01*
X123503522Y-81783569D01*
X123349493Y-81972221D01*
X123227715Y-82183145D01*
X123227712Y-82183150D01*
X123141345Y-82410879D01*
X123141344Y-82410881D01*
X123141344Y-82410883D01*
X123119868Y-82516081D01*
X123092626Y-82649519D01*
X123082819Y-82892877D01*
X123082819Y-82892884D01*
X123112177Y-83134661D01*
X123112177Y-83134662D01*
X123179936Y-83368595D01*
X123179940Y-83368606D01*
X123284348Y-83588641D01*
X123284349Y-83588643D01*
X123284350Y-83588644D01*
X123422707Y-83789088D01*
X123591425Y-83964742D01*
X123786135Y-84111057D01*
X124001795Y-84224244D01*
X124232818Y-84301371D01*
X124473221Y-84340440D01*
X124473225Y-84340440D01*
X125655806Y-84340440D01*
X125655806Y-84340439D01*
X125837768Y-84325750D01*
X126074248Y-84267463D01*
X126074249Y-84267462D01*
X126074251Y-84267462D01*
X126162007Y-84230072D01*
X126298316Y-84171996D01*
X126504168Y-84041823D01*
X126504175Y-84041817D01*
X126504176Y-84041817D01*
X126686468Y-83880320D01*
X126686474Y-83880315D01*
X126840510Y-83691654D01*
X126962289Y-83480727D01*
X127048656Y-83252997D01*
X127097374Y-83014361D01*
X127107181Y-82771001D01*
X127077823Y-82529220D01*
X127010061Y-82295278D01*
X127005753Y-82286200D01*
X126905650Y-82075236D01*
X126900762Y-82068155D01*
X126878525Y-82000730D01*
X126896270Y-81931987D01*
X126915357Y-81907485D01*
X132252439Y-76570405D01*
X132314751Y-76536379D01*
X132341534Y-76533500D01*
X143516147Y-76533500D01*
X143531988Y-76535249D01*
X143532016Y-76534956D01*
X143539902Y-76535700D01*
X143539909Y-76535702D01*
X143607986Y-76533562D01*
X143611945Y-76533500D01*
X143639851Y-76533500D01*
X143639856Y-76533500D01*
X143643867Y-76532992D01*
X143655699Y-76532061D01*
X143699889Y-76530673D01*
X143719347Y-76525019D01*
X143738694Y-76521013D01*
X143758797Y-76518474D01*
X143799910Y-76502195D01*
X143811130Y-76498353D01*
X143835913Y-76491154D01*
X143853591Y-76486019D01*
X143853595Y-76486017D01*
X143871026Y-76475708D01*
X143888780Y-76467009D01*
X143907617Y-76459552D01*
X143943392Y-76433558D01*
X143953298Y-76427051D01*
X143991362Y-76404542D01*
X144005685Y-76390218D01*
X144020724Y-76377374D01*
X144037107Y-76365472D01*
X144065303Y-76331386D01*
X144073272Y-76322630D01*
X147088660Y-73307243D01*
X147101098Y-73297280D01*
X147100910Y-73297053D01*
X147107016Y-73292001D01*
X147107015Y-73292001D01*
X147107018Y-73292000D01*
X147153661Y-73242328D01*
X147156351Y-73239552D01*
X147176135Y-73219770D01*
X147178614Y-73216573D01*
X147186311Y-73207559D01*
X147216586Y-73175321D01*
X147226346Y-73157565D01*
X147237195Y-73141050D01*
X147249614Y-73125041D01*
X147267179Y-73084446D01*
X147272384Y-73073821D01*
X147293695Y-73035060D01*
X147298733Y-73015434D01*
X147305137Y-72996732D01*
X147313180Y-72978147D01*
X147313179Y-72978147D01*
X147313181Y-72978145D01*
X147320096Y-72934481D01*
X147322504Y-72922852D01*
X147333500Y-72880030D01*
X147333500Y-72859775D01*
X147335051Y-72840063D01*
X147338220Y-72820057D01*
X147334059Y-72776036D01*
X147333500Y-72764179D01*
X147333500Y-71761920D01*
X147353502Y-71693799D01*
X147399527Y-71651108D01*
X147445576Y-71626189D01*
X147623240Y-71487906D01*
X147775722Y-71322268D01*
X147864518Y-71186354D01*
X147918520Y-71140268D01*
X147988868Y-71130692D01*
X148053225Y-71160669D01*
X148075480Y-71186353D01*
X148089963Y-71208520D01*
X148164275Y-71322265D01*
X148164279Y-71322270D01*
X148316762Y-71487908D01*
X148405592Y-71557047D01*
X148494424Y-71626189D01*
X148540471Y-71651108D01*
X148590859Y-71701118D01*
X148606500Y-71761920D01*
X148606500Y-73330405D01*
X148586498Y-73398526D01*
X148569595Y-73419500D01*
X144739500Y-77249595D01*
X144677188Y-77283621D01*
X144650405Y-77286500D01*
X135389233Y-77286500D01*
X135373391Y-77284750D01*
X135373364Y-77285044D01*
X135365472Y-77284298D01*
X135365471Y-77284298D01*
X135341740Y-77285044D01*
X135297394Y-77286438D01*
X135293435Y-77286500D01*
X135265524Y-77286500D01*
X135265521Y-77286500D01*
X135265506Y-77286501D01*
X135261501Y-77287007D01*
X135249684Y-77287937D01*
X135205492Y-77289326D01*
X135205490Y-77289327D01*
X135186035Y-77294978D01*
X135166682Y-77298986D01*
X135146590Y-77301524D01*
X135146583Y-77301526D01*
X135105476Y-77317801D01*
X135094251Y-77321644D01*
X135063592Y-77330552D01*
X135051787Y-77333982D01*
X135051785Y-77333982D01*
X135051782Y-77333984D01*
X135034343Y-77344297D01*
X135016598Y-77352990D01*
X134997759Y-77360449D01*
X134962007Y-77386426D01*
X134952084Y-77392944D01*
X134914020Y-77415454D01*
X134899687Y-77429787D01*
X134884661Y-77442620D01*
X134868275Y-77454525D01*
X134840091Y-77488593D01*
X134832103Y-77497370D01*
X131042940Y-81286535D01*
X130980628Y-81320560D01*
X130953845Y-81323440D01*
X129832632Y-81323440D01*
X129650676Y-81338129D01*
X129414188Y-81396417D01*
X129190125Y-81491883D01*
X128984264Y-81622062D01*
X128984263Y-81622062D01*
X128801971Y-81783559D01*
X128801962Y-81783569D01*
X128647933Y-81972221D01*
X128526155Y-82183145D01*
X128526152Y-82183150D01*
X128439785Y-82410879D01*
X128439784Y-82410881D01*
X128439784Y-82410883D01*
X128418308Y-82516081D01*
X128391066Y-82649519D01*
X128381259Y-82892877D01*
X128381259Y-82892884D01*
X128410617Y-83134661D01*
X128410617Y-83134662D01*
X128478376Y-83368595D01*
X128478380Y-83368606D01*
X128582788Y-83588641D01*
X128582789Y-83588643D01*
X128582790Y-83588644D01*
X128721147Y-83789088D01*
X128889865Y-83964742D01*
X129084575Y-84111057D01*
X129300235Y-84224244D01*
X129531258Y-84301371D01*
X129771661Y-84340440D01*
X129771665Y-84340440D01*
X130954246Y-84340440D01*
X130954246Y-84340439D01*
X131136208Y-84325750D01*
X131372688Y-84267463D01*
X131372689Y-84267462D01*
X131372691Y-84267462D01*
X131460447Y-84230072D01*
X131596756Y-84171996D01*
X131802608Y-84041823D01*
X131802615Y-84041817D01*
X131802616Y-84041817D01*
X131984908Y-83880320D01*
X131984914Y-83880315D01*
X132138950Y-83691654D01*
X132260729Y-83480727D01*
X132347096Y-83252997D01*
X132395814Y-83014361D01*
X132405621Y-82771001D01*
X132376263Y-82529220D01*
X132308501Y-82295278D01*
X132304193Y-82286200D01*
X132204090Y-82075236D01*
X132199202Y-82068155D01*
X132176965Y-82000730D01*
X132194710Y-81931987D01*
X132213797Y-81907485D01*
X135530879Y-78590405D01*
X135593191Y-78556379D01*
X135619974Y-78553500D01*
X138056812Y-78553500D01*
X138124933Y-78573502D01*
X138171426Y-78627158D01*
X138181530Y-78697432D01*
X138152036Y-78762012D01*
X138145907Y-78768595D01*
X138058804Y-78855697D01*
X138058799Y-78855703D01*
X137927477Y-79043250D01*
X137830717Y-79250753D01*
X137830715Y-79250759D01*
X137797827Y-79373500D01*
X137771457Y-79471913D01*
X137751502Y-79700000D01*
X137771457Y-79928087D01*
X137782915Y-79970847D01*
X137830715Y-80149240D01*
X137830717Y-80149246D01*
X137927477Y-80356749D01*
X138036609Y-80512606D01*
X138058802Y-80544300D01*
X138220700Y-80706198D01*
X138408251Y-80837523D01*
X138615757Y-80934284D01*
X138836913Y-80993543D01*
X139065000Y-81013498D01*
X139293087Y-80993543D01*
X139514243Y-80934284D01*
X139721749Y-80837523D01*
X139909300Y-80706198D01*
X140071198Y-80544300D01*
X140202523Y-80356749D01*
X140299284Y-80149243D01*
X140358543Y-79928087D01*
X140378498Y-79700000D01*
X140358543Y-79471913D01*
X140299284Y-79250757D01*
X140202523Y-79043251D01*
X140071198Y-78855700D01*
X139984093Y-78768595D01*
X139950067Y-78706283D01*
X139955132Y-78635468D01*
X139997679Y-78578632D01*
X140064199Y-78553821D01*
X140073188Y-78553500D01*
X144881147Y-78553500D01*
X144896988Y-78555249D01*
X144897016Y-78554956D01*
X144904902Y-78555700D01*
X144904909Y-78555702D01*
X144972986Y-78553562D01*
X144976945Y-78553500D01*
X145004851Y-78553500D01*
X145004856Y-78553500D01*
X145008867Y-78552992D01*
X145020699Y-78552061D01*
X145064889Y-78550673D01*
X145084347Y-78545019D01*
X145103694Y-78541013D01*
X145123797Y-78538474D01*
X145127826Y-78536879D01*
X145137497Y-78533049D01*
X145164910Y-78522195D01*
X145176130Y-78518353D01*
X145201186Y-78511075D01*
X145218591Y-78506019D01*
X145218595Y-78506017D01*
X145236026Y-78495708D01*
X145253780Y-78487009D01*
X145272617Y-78479552D01*
X145308392Y-78453558D01*
X145318298Y-78447051D01*
X145356362Y-78424542D01*
X145370685Y-78410218D01*
X145385724Y-78397374D01*
X145402107Y-78385472D01*
X145430303Y-78351386D01*
X145438272Y-78342630D01*
X149628660Y-74152243D01*
X149641098Y-74142280D01*
X149640910Y-74142053D01*
X149647016Y-74137001D01*
X149647015Y-74137001D01*
X149647018Y-74137000D01*
X149693661Y-74087328D01*
X149696351Y-74084552D01*
X149716135Y-74064770D01*
X149718614Y-74061573D01*
X149726311Y-74052559D01*
X149756586Y-74020321D01*
X149766346Y-74002565D01*
X149777195Y-73986050D01*
X149789614Y-73970041D01*
X149807179Y-73929446D01*
X149812384Y-73918821D01*
X149833695Y-73880060D01*
X149838733Y-73860434D01*
X149845137Y-73841732D01*
X149853180Y-73823147D01*
X149853179Y-73823147D01*
X149853181Y-73823145D01*
X149860096Y-73779481D01*
X149862504Y-73767852D01*
X149866113Y-73753797D01*
X149873500Y-73725030D01*
X149873500Y-73704775D01*
X149875051Y-73685063D01*
X149878220Y-73665057D01*
X149874641Y-73627198D01*
X149874059Y-73621036D01*
X149873500Y-73609179D01*
X149873500Y-71761920D01*
X149893502Y-71693799D01*
X149939527Y-71651108D01*
X149985576Y-71626189D01*
X150163240Y-71487906D01*
X150315722Y-71322268D01*
X150438860Y-71133791D01*
X150438864Y-71133779D01*
X150438968Y-71133622D01*
X150492971Y-71087533D01*
X150563319Y-71077957D01*
X150627677Y-71107934D01*
X150633547Y-71113441D01*
X150728626Y-71208520D01*
X150762652Y-71270832D01*
X150765531Y-71297615D01*
X150765531Y-79436620D01*
X150745529Y-79504741D01*
X150691873Y-79551234D01*
X150621599Y-79561338D01*
X150557019Y-79531844D01*
X150518635Y-79472118D01*
X150517824Y-79469231D01*
X150509086Y-79436620D01*
X150459284Y-79250757D01*
X150362523Y-79043251D01*
X150231198Y-78855700D01*
X150069300Y-78693802D01*
X150049067Y-78679635D01*
X149881749Y-78562477D01*
X149674246Y-78465717D01*
X149674240Y-78465715D01*
X149520584Y-78424543D01*
X149453087Y-78406457D01*
X149225000Y-78386502D01*
X148996913Y-78406457D01*
X148775759Y-78465715D01*
X148775753Y-78465717D01*
X148568250Y-78562477D01*
X148380703Y-78693799D01*
X148380697Y-78693804D01*
X148218804Y-78855697D01*
X148218799Y-78855703D01*
X148087477Y-79043250D01*
X147990717Y-79250753D01*
X147990715Y-79250759D01*
X147957827Y-79373500D01*
X147931457Y-79471913D01*
X147911502Y-79700000D01*
X147931457Y-79928087D01*
X147942915Y-79970847D01*
X147990715Y-80149240D01*
X147990717Y-80149246D01*
X148087477Y-80356749D01*
X148196609Y-80512606D01*
X148218802Y-80544300D01*
X148380700Y-80706198D01*
X148380703Y-80706200D01*
X148380708Y-80706204D01*
X148537770Y-80816180D01*
X148582099Y-80871637D01*
X148591500Y-80919393D01*
X148591500Y-81210405D01*
X148571498Y-81278526D01*
X148554595Y-81299500D01*
X146824500Y-83029595D01*
X146762188Y-83063621D01*
X146735405Y-83066500D01*
X141254500Y-83066500D01*
X141186379Y-83046498D01*
X141139886Y-82992842D01*
X141128500Y-82940500D01*
X141128500Y-82551367D01*
X141128499Y-82551350D01*
X141121990Y-82490803D01*
X141121988Y-82490795D01*
X141092180Y-82410879D01*
X141070889Y-82353796D01*
X141070888Y-82353794D01*
X141070887Y-82353792D01*
X140983261Y-82236738D01*
X140866207Y-82149112D01*
X140866202Y-82149110D01*
X140729204Y-82098011D01*
X140729196Y-82098009D01*
X140668649Y-82091500D01*
X140668638Y-82091500D01*
X137771362Y-82091500D01*
X137771350Y-82091500D01*
X137710803Y-82098009D01*
X137710795Y-82098011D01*
X137573797Y-82149110D01*
X137573792Y-82149112D01*
X137456738Y-82236738D01*
X137369112Y-82353792D01*
X137369110Y-82353797D01*
X137318011Y-82490795D01*
X137318009Y-82490803D01*
X137311500Y-82551350D01*
X137311500Y-84440404D01*
X137291498Y-84508525D01*
X137274595Y-84529500D01*
X136311336Y-85492758D01*
X136298901Y-85502721D01*
X136299089Y-85502948D01*
X136292979Y-85508002D01*
X136246370Y-85557635D01*
X136243620Y-85560473D01*
X136223863Y-85580231D01*
X136221374Y-85583439D01*
X136213688Y-85592436D01*
X136183418Y-85624673D01*
X136183411Y-85624683D01*
X136173651Y-85642435D01*
X136162803Y-85658950D01*
X136150386Y-85674958D01*
X136132824Y-85715540D01*
X136127604Y-85726195D01*
X136106305Y-85764939D01*
X136106303Y-85764944D01*
X136101267Y-85784559D01*
X136094864Y-85803262D01*
X136086819Y-85821852D01*
X136079901Y-85865525D01*
X136077495Y-85877142D01*
X136066500Y-85919968D01*
X136066500Y-85940223D01*
X136064949Y-85959933D01*
X136061780Y-85979943D01*
X136063563Y-85998802D01*
X136065941Y-86023961D01*
X136066500Y-86035819D01*
X136066500Y-90896146D01*
X136064751Y-90911988D01*
X136065044Y-90912016D01*
X136064298Y-90919907D01*
X136066438Y-90987984D01*
X136066500Y-90991943D01*
X136066500Y-91019851D01*
X136066501Y-91019869D01*
X136067007Y-91023877D01*
X136067937Y-91035696D01*
X136069326Y-91079888D01*
X136069327Y-91079893D01*
X136074977Y-91099339D01*
X136078986Y-91118697D01*
X136081525Y-91138793D01*
X136081526Y-91138800D01*
X136097800Y-91179903D01*
X136101644Y-91191129D01*
X136113982Y-91233593D01*
X136124294Y-91251031D01*
X136132988Y-91268779D01*
X136140444Y-91287609D01*
X136140450Y-91287620D01*
X136166432Y-91323381D01*
X136172949Y-91333301D01*
X136195458Y-91371362D01*
X136195459Y-91371363D01*
X136195461Y-91371366D01*
X136209779Y-91385684D01*
X136222617Y-91400714D01*
X136234526Y-91417104D01*
X136234530Y-91417109D01*
X136268598Y-91445292D01*
X136277378Y-91453282D01*
X137280780Y-92456685D01*
X137314806Y-92518997D01*
X137309741Y-92589812D01*
X137229127Y-92805947D01*
X137229127Y-92805948D01*
X137171100Y-93072694D01*
X137151625Y-93345000D01*
X137171100Y-93617305D01*
X137229127Y-93884051D01*
X137229127Y-93884052D01*
X137309741Y-94100186D01*
X137314805Y-94171001D01*
X137280780Y-94233313D01*
X136299498Y-95214596D01*
X136237188Y-95248620D01*
X136210405Y-95251500D01*
X111419595Y-95251500D01*
X111351474Y-95231498D01*
X111330499Y-95214595D01*
X111154150Y-95038245D01*
X111120125Y-94975933D01*
X111121539Y-94916542D01*
X111138543Y-94853087D01*
X111158498Y-94625000D01*
X111138543Y-94396913D01*
X111079284Y-94175757D01*
X110982523Y-93968251D01*
X110851198Y-93780700D01*
X110689300Y-93618802D01*
X110606553Y-93560862D01*
X110501749Y-93487477D01*
X110294246Y-93390717D01*
X110294240Y-93390715D01*
X110200771Y-93365670D01*
X110073087Y-93331457D01*
X109845000Y-93311502D01*
X109616913Y-93331457D01*
X109395759Y-93390715D01*
X109395753Y-93390717D01*
X109188250Y-93487477D01*
X109000703Y-93618799D01*
X109000697Y-93618804D01*
X108838804Y-93780697D01*
X108838799Y-93780703D01*
X108707477Y-93968250D01*
X108689195Y-94007457D01*
X108642278Y-94060742D01*
X108574001Y-94080203D01*
X108506041Y-94059661D01*
X108460805Y-94007457D01*
X108458894Y-94003359D01*
X108442523Y-93968251D01*
X108311198Y-93780700D01*
X108149300Y-93618802D01*
X108066553Y-93560862D01*
X107961749Y-93487477D01*
X107754246Y-93390717D01*
X107754240Y-93390715D01*
X107660771Y-93365670D01*
X107533087Y-93331457D01*
X107305000Y-93311502D01*
X107076913Y-93331457D01*
X106855759Y-93390715D01*
X106855753Y-93390717D01*
X106648250Y-93487477D01*
X106460703Y-93618799D01*
X106460697Y-93618804D01*
X106298804Y-93780697D01*
X106298799Y-93780703D01*
X106167477Y-93968250D01*
X106149195Y-94007457D01*
X106102278Y-94060742D01*
X106034001Y-94080203D01*
X105966041Y-94059661D01*
X105920805Y-94007457D01*
X105918894Y-94003359D01*
X105902523Y-93968251D01*
X105771198Y-93780700D01*
X105609300Y-93618802D01*
X105526553Y-93560862D01*
X105421749Y-93487477D01*
X105214246Y-93390717D01*
X105214240Y-93390715D01*
X105120771Y-93365670D01*
X104993087Y-93331457D01*
X104765000Y-93311502D01*
X104536913Y-93331457D01*
X104315759Y-93390715D01*
X104315749Y-93390719D01*
X104162260Y-93462291D01*
X104092068Y-93472952D01*
X104027256Y-93443971D01*
X103988400Y-93384551D01*
X103983011Y-93348096D01*
X103983011Y-92489004D01*
X117784379Y-92489004D01*
X117813737Y-92730781D01*
X117813737Y-92730782D01*
X117881496Y-92964715D01*
X117881500Y-92964726D01*
X117985908Y-93184761D01*
X118123813Y-93384551D01*
X118124267Y-93385208D01*
X118292985Y-93560862D01*
X118487695Y-93707177D01*
X118703355Y-93820364D01*
X118934378Y-93897491D01*
X119174781Y-93936560D01*
X119174785Y-93936560D01*
X120357366Y-93936560D01*
X120357366Y-93936559D01*
X120539328Y-93921870D01*
X120775808Y-93863583D01*
X120775809Y-93863582D01*
X120775811Y-93863582D01*
X120830956Y-93840086D01*
X120999876Y-93768116D01*
X121205728Y-93637943D01*
X121205735Y-93637937D01*
X121205736Y-93637937D01*
X121388028Y-93476440D01*
X121388034Y-93476435D01*
X121542070Y-93287774D01*
X121663849Y-93076847D01*
X121750216Y-92849117D01*
X121798934Y-92610481D01*
X121803829Y-92489004D01*
X123082819Y-92489004D01*
X123112177Y-92730781D01*
X123112177Y-92730782D01*
X123179936Y-92964715D01*
X123179940Y-92964726D01*
X123284348Y-93184761D01*
X123422253Y-93384551D01*
X123422707Y-93385208D01*
X123591425Y-93560862D01*
X123786135Y-93707177D01*
X124001795Y-93820364D01*
X124232818Y-93897491D01*
X124473221Y-93936560D01*
X124473225Y-93936560D01*
X125655806Y-93936560D01*
X125655806Y-93936559D01*
X125837768Y-93921870D01*
X126074248Y-93863583D01*
X126074249Y-93863582D01*
X126074251Y-93863582D01*
X126129396Y-93840086D01*
X126298316Y-93768116D01*
X126504168Y-93637943D01*
X126504175Y-93637937D01*
X126504176Y-93637937D01*
X126686468Y-93476440D01*
X126686474Y-93476435D01*
X126840510Y-93287774D01*
X126934742Y-93124560D01*
X126986125Y-93075567D01*
X127043861Y-93061560D01*
X128444651Y-93061560D01*
X128512772Y-93081562D01*
X128558485Y-93133543D01*
X128582790Y-93184764D01*
X128645067Y-93274987D01*
X128720693Y-93384551D01*
X128721147Y-93385208D01*
X128889865Y-93560862D01*
X129084575Y-93707177D01*
X129300235Y-93820364D01*
X129531258Y-93897491D01*
X129771661Y-93936560D01*
X129771665Y-93936560D01*
X130954246Y-93936560D01*
X130954246Y-93936559D01*
X131136208Y-93921870D01*
X131372688Y-93863583D01*
X131372689Y-93863582D01*
X131372691Y-93863582D01*
X131427836Y-93840086D01*
X131596756Y-93768116D01*
X131802608Y-93637943D01*
X131802615Y-93637937D01*
X131802616Y-93637937D01*
X131984908Y-93476440D01*
X131984914Y-93476435D01*
X132138950Y-93287774D01*
X132260729Y-93076847D01*
X132347096Y-92849117D01*
X132395814Y-92610481D01*
X132405621Y-92367121D01*
X132376263Y-92125340D01*
X132310692Y-91898963D01*
X132308503Y-91891404D01*
X132308499Y-91891393D01*
X132204091Y-91671358D01*
X132157964Y-91604532D01*
X132065733Y-91470912D01*
X131897015Y-91295258D01*
X131702305Y-91148943D01*
X131486645Y-91035756D01*
X131486641Y-91035754D01*
X131486640Y-91035754D01*
X131255619Y-90958628D01*
X131015228Y-90919561D01*
X131015222Y-90919560D01*
X131015219Y-90919560D01*
X129832643Y-90919560D01*
X129832632Y-90919560D01*
X129650676Y-90934249D01*
X129414188Y-90992537D01*
X129190125Y-91088003D01*
X128984264Y-91218182D01*
X128984263Y-91218182D01*
X128801971Y-91379679D01*
X128801962Y-91379689D01*
X128647933Y-91568341D01*
X128553698Y-91731560D01*
X128502315Y-91780553D01*
X128444579Y-91794560D01*
X127043789Y-91794560D01*
X126975668Y-91774558D01*
X126929954Y-91722576D01*
X126905650Y-91671356D01*
X126767293Y-91470912D01*
X126598575Y-91295258D01*
X126403865Y-91148943D01*
X126188205Y-91035756D01*
X126188201Y-91035754D01*
X126188200Y-91035754D01*
X125957179Y-90958628D01*
X125716788Y-90919561D01*
X125716782Y-90919560D01*
X125716779Y-90919560D01*
X124534203Y-90919560D01*
X124534192Y-90919560D01*
X124352236Y-90934249D01*
X124115748Y-90992537D01*
X123891685Y-91088003D01*
X123685824Y-91218182D01*
X123685823Y-91218182D01*
X123503531Y-91379679D01*
X123503522Y-91379689D01*
X123349493Y-91568341D01*
X123227715Y-91779265D01*
X123227712Y-91779270D01*
X123141345Y-92006999D01*
X123141344Y-92007001D01*
X123141344Y-92007003D01*
X123117186Y-92125337D01*
X123092626Y-92245639D01*
X123082819Y-92488997D01*
X123082819Y-92489004D01*
X121803829Y-92489004D01*
X121808741Y-92367121D01*
X121779383Y-92125340D01*
X121713812Y-91898963D01*
X121711623Y-91891404D01*
X121711619Y-91891393D01*
X121607211Y-91671358D01*
X121561084Y-91604532D01*
X121468853Y-91470912D01*
X121300135Y-91295258D01*
X121105425Y-91148943D01*
X120889765Y-91035756D01*
X120889761Y-91035754D01*
X120889760Y-91035754D01*
X120658739Y-90958628D01*
X120418348Y-90919561D01*
X120418342Y-90919560D01*
X120418339Y-90919560D01*
X119235763Y-90919560D01*
X119235752Y-90919560D01*
X119053796Y-90934249D01*
X118817308Y-90992537D01*
X118593245Y-91088003D01*
X118387384Y-91218182D01*
X118387383Y-91218182D01*
X118205091Y-91379679D01*
X118205082Y-91379689D01*
X118051053Y-91568341D01*
X117929275Y-91779265D01*
X117929272Y-91779270D01*
X117842905Y-92006999D01*
X117842904Y-92007001D01*
X117842904Y-92007003D01*
X117818746Y-92125337D01*
X117794186Y-92245639D01*
X117784379Y-92488997D01*
X117784379Y-92489004D01*
X103983011Y-92489004D01*
X103983011Y-88281351D01*
X104003013Y-88213230D01*
X104056669Y-88166737D01*
X104126943Y-88156633D01*
X104162261Y-88167156D01*
X104315926Y-88238811D01*
X104315931Y-88238813D01*
X104511000Y-88291081D01*
X104511000Y-87316686D01*
X104526955Y-87332641D01*
X104639852Y-87390165D01*
X104733519Y-87405000D01*
X104796481Y-87405000D01*
X104890148Y-87390165D01*
X105003045Y-87332641D01*
X105019000Y-87316686D01*
X105019000Y-88291081D01*
X105214068Y-88238813D01*
X105214073Y-88238811D01*
X105421498Y-88142087D01*
X105608974Y-88010815D01*
X105608980Y-88010810D01*
X105770810Y-87848980D01*
X105770815Y-87848974D01*
X105902087Y-87661498D01*
X105920529Y-87621951D01*
X105967446Y-87568666D01*
X106035723Y-87549205D01*
X106103683Y-87569747D01*
X106148919Y-87621951D01*
X106167477Y-87661749D01*
X106298802Y-87849300D01*
X106460700Y-88011198D01*
X106648251Y-88142523D01*
X106855757Y-88239284D01*
X107076913Y-88298543D01*
X107305000Y-88318498D01*
X107533087Y-88298543D01*
X107754243Y-88239284D01*
X107961749Y-88142523D01*
X108149300Y-88011198D01*
X108311198Y-87849300D01*
X108313506Y-87846004D01*
X108368961Y-87801673D01*
X108439580Y-87794361D01*
X108502942Y-87826389D01*
X108538929Y-87887588D01*
X108542000Y-87904802D01*
X108543009Y-87914196D01*
X108543011Y-87914204D01*
X108594110Y-88051202D01*
X108594112Y-88051207D01*
X108681738Y-88168261D01*
X108798792Y-88255887D01*
X108798794Y-88255888D01*
X108798796Y-88255889D01*
X108838216Y-88270592D01*
X108935795Y-88306988D01*
X108935803Y-88306990D01*
X108996350Y-88313499D01*
X108996355Y-88313499D01*
X108996362Y-88313500D01*
X108996368Y-88313500D01*
X110693632Y-88313500D01*
X110693638Y-88313500D01*
X110693645Y-88313499D01*
X110693649Y-88313499D01*
X110754196Y-88306990D01*
X110754199Y-88306989D01*
X110754201Y-88306989D01*
X110891204Y-88255889D01*
X110913389Y-88239282D01*
X111008261Y-88168261D01*
X111095887Y-88051207D01*
X111095887Y-88051206D01*
X111095889Y-88051204D01*
X111146989Y-87914201D01*
X111148000Y-87904802D01*
X111150236Y-87884000D01*
X117808325Y-87884000D01*
X117814228Y-87932617D01*
X117814230Y-87932626D01*
X117881965Y-88166477D01*
X117986343Y-88386450D01*
X118124658Y-88586832D01*
X118293317Y-88762424D01*
X118487965Y-88908694D01*
X118703555Y-89021843D01*
X118934501Y-89098944D01*
X118934509Y-89098946D01*
X119174811Y-89137998D01*
X119174826Y-89138000D01*
X119542560Y-89138000D01*
X119542560Y-88280000D01*
X120050560Y-88280000D01*
X120050560Y-89138000D01*
X120357340Y-89138000D01*
X120357341Y-89137999D01*
X120539242Y-89123314D01*
X120775650Y-89065045D01*
X120999640Y-88969612D01*
X121205430Y-88839479D01*
X121205431Y-88839478D01*
X121387666Y-88678032D01*
X121387675Y-88678022D01*
X121541651Y-88489436D01*
X121663394Y-88278573D01*
X121663396Y-88278570D01*
X121749732Y-88050920D01*
X121783810Y-87884000D01*
X120895406Y-87884000D01*
X120919660Y-87832457D01*
X120946655Y-87690944D01*
X123082819Y-87690944D01*
X123112177Y-87932721D01*
X123112177Y-87932722D01*
X123179936Y-88166655D01*
X123179940Y-88166666D01*
X123284348Y-88386701D01*
X123284349Y-88386703D01*
X123284350Y-88386704D01*
X123422707Y-88587148D01*
X123591425Y-88762802D01*
X123786135Y-88909117D01*
X124001795Y-89022304D01*
X124232818Y-89099431D01*
X124473221Y-89138500D01*
X124473225Y-89138500D01*
X125655806Y-89138500D01*
X125655806Y-89138499D01*
X125837768Y-89123810D01*
X126074248Y-89065523D01*
X126074249Y-89065522D01*
X126074251Y-89065522D01*
X126129396Y-89042026D01*
X126298316Y-88970056D01*
X126504168Y-88839883D01*
X126504175Y-88839877D01*
X126504176Y-88839877D01*
X126686468Y-88678380D01*
X126686474Y-88678375D01*
X126840510Y-88489714D01*
X126962289Y-88278787D01*
X127048656Y-88051057D01*
X127097374Y-87812421D01*
X127102269Y-87690944D01*
X128381259Y-87690944D01*
X128410617Y-87932721D01*
X128410617Y-87932722D01*
X128478376Y-88166655D01*
X128478380Y-88166666D01*
X128582788Y-88386701D01*
X128582789Y-88386703D01*
X128582790Y-88386704D01*
X128721147Y-88587148D01*
X128889865Y-88762802D01*
X129084575Y-88909117D01*
X129300235Y-89022304D01*
X129531258Y-89099431D01*
X129771661Y-89138500D01*
X129771665Y-89138500D01*
X130954246Y-89138500D01*
X130954246Y-89138499D01*
X131136208Y-89123810D01*
X131372688Y-89065523D01*
X131372689Y-89065522D01*
X131372691Y-89065522D01*
X131427836Y-89042026D01*
X131596756Y-88970056D01*
X131802608Y-88839883D01*
X131802615Y-88839877D01*
X131802616Y-88839877D01*
X131984908Y-88678380D01*
X131984914Y-88678375D01*
X132138950Y-88489714D01*
X132260729Y-88278787D01*
X132347096Y-88051057D01*
X132395814Y-87812421D01*
X132405621Y-87569061D01*
X132376263Y-87327280D01*
X132310419Y-87099960D01*
X132308503Y-87093344D01*
X132308499Y-87093333D01*
X132204091Y-86873298D01*
X132198047Y-86864542D01*
X132065733Y-86672852D01*
X131897015Y-86497198D01*
X131702305Y-86350883D01*
X131486645Y-86237696D01*
X131486641Y-86237694D01*
X131486640Y-86237694D01*
X131255619Y-86160568D01*
X131015228Y-86121501D01*
X131015222Y-86121500D01*
X131015219Y-86121500D01*
X129832643Y-86121500D01*
X129832632Y-86121500D01*
X129650676Y-86136189D01*
X129414188Y-86194477D01*
X129190125Y-86289943D01*
X128984264Y-86420122D01*
X128984263Y-86420122D01*
X128801971Y-86581619D01*
X128801962Y-86581629D01*
X128647933Y-86770281D01*
X128526155Y-86981205D01*
X128526152Y-86981210D01*
X128439785Y-87208939D01*
X128439784Y-87208941D01*
X128439784Y-87208943D01*
X128414531Y-87332641D01*
X128391066Y-87447579D01*
X128381259Y-87690937D01*
X128381259Y-87690944D01*
X127102269Y-87690944D01*
X127107181Y-87569061D01*
X127077823Y-87327280D01*
X127011979Y-87099960D01*
X127010063Y-87093344D01*
X127010059Y-87093333D01*
X126905651Y-86873298D01*
X126899607Y-86864542D01*
X126767293Y-86672852D01*
X126598575Y-86497198D01*
X126403865Y-86350883D01*
X126188205Y-86237696D01*
X126188201Y-86237694D01*
X126188200Y-86237694D01*
X125957179Y-86160568D01*
X125716788Y-86121501D01*
X125716782Y-86121500D01*
X125716779Y-86121500D01*
X124534203Y-86121500D01*
X124534192Y-86121500D01*
X124352236Y-86136189D01*
X124115748Y-86194477D01*
X123891685Y-86289943D01*
X123685824Y-86420122D01*
X123685823Y-86420122D01*
X123503531Y-86581619D01*
X123503522Y-86581629D01*
X123349493Y-86770281D01*
X123227715Y-86981205D01*
X123227712Y-86981210D01*
X123141345Y-87208939D01*
X123141344Y-87208941D01*
X123141344Y-87208943D01*
X123116091Y-87332641D01*
X123092626Y-87447579D01*
X123082819Y-87690937D01*
X123082819Y-87690944D01*
X120946655Y-87690944D01*
X120950433Y-87671138D01*
X120940121Y-87507234D01*
X120897481Y-87376000D01*
X121784794Y-87376000D01*
X121784794Y-87375999D01*
X121778891Y-87327382D01*
X121778889Y-87327373D01*
X121711154Y-87093522D01*
X121606776Y-86873549D01*
X121468461Y-86673167D01*
X121299802Y-86497575D01*
X121105154Y-86351305D01*
X120889564Y-86238156D01*
X120658618Y-86161055D01*
X120658610Y-86161053D01*
X120418308Y-86122001D01*
X120418294Y-86122000D01*
X120050560Y-86122000D01*
X120050560Y-86980000D01*
X119542560Y-86980000D01*
X119542560Y-86122000D01*
X119235778Y-86122000D01*
X119053877Y-86136685D01*
X118817469Y-86194954D01*
X118593479Y-86290387D01*
X118387689Y-86420520D01*
X118387688Y-86420521D01*
X118205453Y-86581967D01*
X118205444Y-86581977D01*
X118051468Y-86770563D01*
X117929725Y-86981426D01*
X117929723Y-86981429D01*
X117843387Y-87209079D01*
X117809309Y-87376000D01*
X118697714Y-87376000D01*
X118673460Y-87427543D01*
X118642687Y-87588862D01*
X118652999Y-87752766D01*
X118695639Y-87884000D01*
X117808325Y-87884000D01*
X111150236Y-87884000D01*
X111153499Y-87853649D01*
X111153500Y-87853632D01*
X111153500Y-86156367D01*
X111153499Y-86156350D01*
X111146990Y-86095803D01*
X111146988Y-86095795D01*
X111110811Y-85998804D01*
X111095889Y-85958796D01*
X111095888Y-85958794D01*
X111095887Y-85958792D01*
X111008261Y-85841738D01*
X110891207Y-85754112D01*
X110891202Y-85754110D01*
X110754204Y-85703011D01*
X110754196Y-85703009D01*
X110693649Y-85696500D01*
X110693638Y-85696500D01*
X109813594Y-85696500D01*
X109745473Y-85676498D01*
X109698980Y-85622842D01*
X109688876Y-85552568D01*
X109718370Y-85487988D01*
X109724499Y-85481405D01*
X110171455Y-85034449D01*
X111951346Y-83254556D01*
X112013656Y-83220533D01*
X112051421Y-83218133D01*
X112169888Y-83228498D01*
X112397975Y-83208543D01*
X112619131Y-83149284D01*
X112826637Y-83052523D01*
X113014188Y-82921198D01*
X113042502Y-82892884D01*
X117784379Y-82892884D01*
X117813737Y-83134661D01*
X117813737Y-83134662D01*
X117881496Y-83368595D01*
X117881500Y-83368606D01*
X117985908Y-83588641D01*
X117985909Y-83588643D01*
X117985910Y-83588644D01*
X118124267Y-83789088D01*
X118292985Y-83964742D01*
X118487695Y-84111057D01*
X118703355Y-84224244D01*
X118934378Y-84301371D01*
X119174781Y-84340440D01*
X119174785Y-84340440D01*
X120357366Y-84340440D01*
X120357366Y-84340439D01*
X120539328Y-84325750D01*
X120775808Y-84267463D01*
X120775809Y-84267462D01*
X120775811Y-84267462D01*
X120863567Y-84230072D01*
X120999876Y-84171996D01*
X121205728Y-84041823D01*
X121205735Y-84041817D01*
X121205736Y-84041817D01*
X121388028Y-83880320D01*
X121388034Y-83880315D01*
X121542070Y-83691654D01*
X121663849Y-83480727D01*
X121750216Y-83252997D01*
X121798934Y-83014361D01*
X121808741Y-82771001D01*
X121779383Y-82529220D01*
X121711621Y-82295278D01*
X121707313Y-82286200D01*
X121607211Y-82075238D01*
X121536103Y-81972221D01*
X121468853Y-81874792D01*
X121339806Y-81740440D01*
X121300140Y-81699143D01*
X121300138Y-81699141D01*
X121300135Y-81699138D01*
X121105425Y-81552823D01*
X120889765Y-81439636D01*
X120889761Y-81439634D01*
X120889760Y-81439634D01*
X120775055Y-81401340D01*
X120658742Y-81362509D01*
X120658740Y-81362508D01*
X120658738Y-81362508D01*
X120658729Y-81362506D01*
X120535848Y-81342536D01*
X120471818Y-81311866D01*
X120434534Y-81251447D01*
X120430060Y-81218168D01*
X120430060Y-79268034D01*
X120450062Y-79199913D01*
X120466965Y-79178939D01*
X122800499Y-76845405D01*
X122862811Y-76811379D01*
X122889594Y-76808500D01*
X124673632Y-76808500D01*
X124673638Y-76808500D01*
X124673645Y-76808499D01*
X124673649Y-76808499D01*
X124734196Y-76801990D01*
X124734199Y-76801989D01*
X124734201Y-76801989D01*
X124740620Y-76799595D01*
X124753045Y-76794960D01*
X124871204Y-76750889D01*
X124988261Y-76663261D01*
X125075889Y-76546204D01*
X125099258Y-76483547D01*
X125141804Y-76426715D01*
X125208325Y-76401904D01*
X125277699Y-76416996D01*
X125303294Y-76436996D01*
X125303946Y-76436289D01*
X125307778Y-76439817D01*
X125347404Y-76470659D01*
X125491983Y-76583190D01*
X125697273Y-76694287D01*
X125918049Y-76770080D01*
X126148288Y-76808500D01*
X126148292Y-76808500D01*
X126381708Y-76808500D01*
X126381712Y-76808500D01*
X126611951Y-76770080D01*
X126832727Y-76694287D01*
X127038017Y-76583190D01*
X127222220Y-76439818D01*
X127227976Y-76433566D01*
X127380314Y-76268083D01*
X127418783Y-76209201D01*
X127507984Y-76072669D01*
X127601749Y-75858907D01*
X127659051Y-75632626D01*
X127678327Y-75400000D01*
X127659051Y-75167374D01*
X127645282Y-75113000D01*
X127601750Y-74941096D01*
X127601747Y-74941089D01*
X127507984Y-74727331D01*
X127380314Y-74531916D01*
X127222225Y-74360186D01*
X127222221Y-74360182D01*
X127130118Y-74288496D01*
X127038017Y-74216810D01*
X126832727Y-74105713D01*
X126832724Y-74105712D01*
X126832723Y-74105711D01*
X126611955Y-74029921D01*
X126611948Y-74029919D01*
X126513411Y-74013476D01*
X126381712Y-73991500D01*
X126148288Y-73991500D01*
X126033066Y-74010727D01*
X125918051Y-74029919D01*
X125918044Y-74029921D01*
X125697276Y-74105711D01*
X125697273Y-74105713D01*
X125627911Y-74143250D01*
X125491985Y-74216809D01*
X125491983Y-74216810D01*
X125307778Y-74360182D01*
X125303946Y-74363711D01*
X125302581Y-74362228D01*
X125249129Y-74394333D01*
X125178165Y-74392180D01*
X125119630Y-74352003D01*
X125099258Y-74316449D01*
X125075889Y-74253797D01*
X125075887Y-74253792D01*
X124988261Y-74136738D01*
X124871207Y-74049112D01*
X124871202Y-74049110D01*
X124734204Y-73998011D01*
X124734196Y-73998009D01*
X124673649Y-73991500D01*
X124673638Y-73991500D01*
X122776362Y-73991500D01*
X122776350Y-73991500D01*
X122715803Y-73998009D01*
X122715795Y-73998011D01*
X122578797Y-74049110D01*
X122578792Y-74049112D01*
X122461738Y-74136738D01*
X122374112Y-74253792D01*
X122374110Y-74253797D01*
X122323011Y-74390795D01*
X122323009Y-74390803D01*
X122316500Y-74451350D01*
X122316500Y-75485404D01*
X122296498Y-75553525D01*
X122279595Y-75574499D01*
X119407896Y-78446197D01*
X119395461Y-78456161D01*
X119395649Y-78456388D01*
X119389539Y-78461442D01*
X119342930Y-78511075D01*
X119340180Y-78513913D01*
X119320423Y-78533671D01*
X119317934Y-78536879D01*
X119310248Y-78545876D01*
X119279978Y-78578113D01*
X119279971Y-78578123D01*
X119270211Y-78595875D01*
X119259363Y-78612390D01*
X119246946Y-78628398D01*
X119229384Y-78668980D01*
X119224164Y-78679635D01*
X119202865Y-78718379D01*
X119202863Y-78718384D01*
X119197827Y-78737999D01*
X119191424Y-78756702D01*
X119183379Y-78775292D01*
X119176461Y-78818965D01*
X119174055Y-78830582D01*
X119163060Y-78873408D01*
X119163060Y-78893663D01*
X119161509Y-78913373D01*
X119158340Y-78933382D01*
X119162501Y-78977401D01*
X119163060Y-78989259D01*
X119163060Y-81213195D01*
X119143058Y-81281316D01*
X119089402Y-81327809D01*
X119057285Y-81337561D01*
X119053804Y-81338126D01*
X118817308Y-81396417D01*
X118593245Y-81491883D01*
X118387384Y-81622062D01*
X118387383Y-81622062D01*
X118205091Y-81783559D01*
X118205082Y-81783569D01*
X118051053Y-81972221D01*
X117929275Y-82183145D01*
X117929272Y-82183150D01*
X117842905Y-82410879D01*
X117842904Y-82410881D01*
X117842904Y-82410883D01*
X117821428Y-82516081D01*
X117794186Y-82649519D01*
X117784379Y-82892877D01*
X117784379Y-82892884D01*
X113042502Y-82892884D01*
X113176086Y-82759300D01*
X113307411Y-82571749D01*
X113404172Y-82364243D01*
X113463431Y-82143087D01*
X113483386Y-81915000D01*
X113463431Y-81686913D01*
X113404172Y-81465757D01*
X113307411Y-81258251D01*
X113176086Y-81070700D01*
X113014188Y-80908802D01*
X112854670Y-80797106D01*
X112810343Y-80741650D01*
X112801004Y-80697849D01*
X112800561Y-80683740D01*
X112794910Y-80664293D01*
X112790900Y-80644930D01*
X112788362Y-80624833D01*
X112772080Y-80583711D01*
X112768246Y-80572512D01*
X112755906Y-80530036D01*
X112745588Y-80512591D01*
X112736893Y-80494839D01*
X112729441Y-80476015D01*
X112729438Y-80476009D01*
X112703452Y-80440243D01*
X112696933Y-80430319D01*
X112674429Y-80392265D01*
X112660106Y-80377942D01*
X112647265Y-80362909D01*
X112645250Y-80360136D01*
X112635360Y-80346523D01*
X112601293Y-80318340D01*
X112592514Y-80310351D01*
X109363502Y-77081339D01*
X109353537Y-77068901D01*
X109353310Y-77069090D01*
X109348259Y-77062984D01*
X109348258Y-77062982D01*
X109344080Y-77059059D01*
X109298607Y-77016357D01*
X109295763Y-77013600D01*
X109276035Y-76993871D01*
X109276029Y-76993866D01*
X109272825Y-76991380D01*
X109263814Y-76983683D01*
X109231583Y-76953417D01*
X109231577Y-76953413D01*
X109213821Y-76943651D01*
X109197305Y-76932802D01*
X109181299Y-76920386D01*
X109148949Y-76906387D01*
X109140722Y-76902827D01*
X109130065Y-76897605D01*
X109091321Y-76876306D01*
X109091318Y-76876305D01*
X109071694Y-76871266D01*
X109052994Y-76864864D01*
X109034403Y-76856819D01*
X109034401Y-76856818D01*
X109034399Y-76856818D01*
X108990732Y-76849901D01*
X108979113Y-76847495D01*
X108936288Y-76836500D01*
X108916034Y-76836500D01*
X108896324Y-76834949D01*
X108876315Y-76831780D01*
X108832297Y-76835941D01*
X108820439Y-76836500D01*
X105724594Y-76836500D01*
X105656473Y-76816498D01*
X105635499Y-76799595D01*
X105146683Y-76310779D01*
X105112657Y-76248467D01*
X105117722Y-76177652D01*
X105160269Y-76120816D01*
X105226789Y-76096005D01*
X105246746Y-76096162D01*
X105444888Y-76113498D01*
X105672975Y-76093543D01*
X105894131Y-76034284D01*
X106101637Y-75937523D01*
X106289188Y-75806198D01*
X106451086Y-75644300D01*
X106582411Y-75456749D01*
X106679172Y-75249243D01*
X106738431Y-75028087D01*
X106758386Y-74800000D01*
X106738431Y-74571913D01*
X106679172Y-74350757D01*
X106582411Y-74143251D01*
X106451086Y-73955700D01*
X106289188Y-73793802D01*
X106101637Y-73662477D01*
X106094990Y-73659377D01*
X106041708Y-73612460D01*
X106032606Y-73595224D01*
X106030906Y-73591295D01*
X106030906Y-73591294D01*
X106020588Y-73573849D01*
X106011893Y-73556097D01*
X106004441Y-73537273D01*
X106004438Y-73537267D01*
X105978452Y-73501501D01*
X105971933Y-73491577D01*
X105971281Y-73490475D01*
X105951131Y-73456401D01*
X105949429Y-73453523D01*
X105935106Y-73439200D01*
X105922265Y-73424167D01*
X105910359Y-73407780D01*
X105876293Y-73379598D01*
X105867514Y-73371609D01*
X105007244Y-72511339D01*
X104997279Y-72498901D01*
X104997052Y-72499090D01*
X104992001Y-72492984D01*
X104992000Y-72492982D01*
X104942348Y-72446356D01*
X104939505Y-72443600D01*
X104919777Y-72423871D01*
X104919771Y-72423866D01*
X104916567Y-72421380D01*
X104907556Y-72413683D01*
X104875325Y-72383417D01*
X104875319Y-72383413D01*
X104857563Y-72373651D01*
X104841047Y-72362802D01*
X104825041Y-72350386D01*
X104792691Y-72336387D01*
X104784464Y-72332827D01*
X104773807Y-72327605D01*
X104735063Y-72306306D01*
X104735060Y-72306305D01*
X104715436Y-72301266D01*
X104696736Y-72294864D01*
X104678145Y-72286819D01*
X104678143Y-72286818D01*
X104678141Y-72286818D01*
X104634474Y-72279901D01*
X104622855Y-72277495D01*
X104580030Y-72266500D01*
X104559776Y-72266500D01*
X104540066Y-72264949D01*
X104520057Y-72261780D01*
X104476039Y-72265941D01*
X104464181Y-72266500D01*
X101173853Y-72266500D01*
X101158011Y-72264750D01*
X101157984Y-72265044D01*
X101150092Y-72264298D01*
X101150091Y-72264298D01*
X101129382Y-72264949D01*
X101082014Y-72266438D01*
X101078055Y-72266500D01*
X101050144Y-72266500D01*
X101050141Y-72266500D01*
X101050126Y-72266501D01*
X101046121Y-72267007D01*
X101034304Y-72267937D01*
X100990112Y-72269326D01*
X100990110Y-72269327D01*
X100970655Y-72274978D01*
X100951302Y-72278986D01*
X100931210Y-72281524D01*
X100931203Y-72281526D01*
X100890096Y-72297801D01*
X100878871Y-72301644D01*
X100848212Y-72310552D01*
X100836407Y-72313982D01*
X100836405Y-72313982D01*
X100836402Y-72313984D01*
X100818963Y-72324297D01*
X100801218Y-72332990D01*
X100782379Y-72340449D01*
X100746627Y-72366426D01*
X100736704Y-72372944D01*
X100698640Y-72395454D01*
X100684307Y-72409787D01*
X100669281Y-72422620D01*
X100652895Y-72434525D01*
X100624711Y-72468593D01*
X100616723Y-72477370D01*
X99941336Y-73152757D01*
X99928901Y-73162721D01*
X99929089Y-73162948D01*
X99916876Y-73173052D01*
X99915963Y-73171948D01*
X99862135Y-73203574D01*
X99791195Y-73200735D01*
X99733052Y-73159993D01*
X99706165Y-73094284D01*
X99705500Y-73081355D01*
X99705500Y-68081500D01*
X99725502Y-68013379D01*
X99779158Y-67966886D01*
X99831500Y-67955500D01*
X152263500Y-67955500D01*
X152331621Y-67975502D01*
G37*
G04 #@! TD.AperFunction*
G04 #@! TA.AperFunction,Conductor*
G36*
X102175315Y-73553502D02*
G01*
X102221808Y-73607158D01*
X102231912Y-73677432D01*
X102208062Y-73735009D01*
X102194001Y-73753792D01*
X102193998Y-73753797D01*
X102142899Y-73890795D01*
X102142897Y-73890803D01*
X102136388Y-73951350D01*
X102136388Y-75648649D01*
X102142897Y-75709196D01*
X102142899Y-75709204D01*
X102193998Y-75846202D01*
X102194000Y-75846207D01*
X102281626Y-75963261D01*
X102398680Y-76050887D01*
X102398682Y-76050888D01*
X102398684Y-76050889D01*
X102457075Y-76072668D01*
X102535683Y-76101988D01*
X102535691Y-76101990D01*
X102596238Y-76108499D01*
X102596243Y-76108499D01*
X102596250Y-76108500D01*
X103100406Y-76108500D01*
X103168527Y-76128502D01*
X103189500Y-76145404D01*
X104055112Y-77011017D01*
X104902755Y-77858660D01*
X104912720Y-77871097D01*
X104912947Y-77870910D01*
X104917999Y-77877017D01*
X104967650Y-77923642D01*
X104970494Y-77926399D01*
X104990223Y-77946129D01*
X104990224Y-77946130D01*
X104990228Y-77946133D01*
X104990230Y-77946135D01*
X104993435Y-77948621D01*
X105002442Y-77956314D01*
X105034679Y-77986586D01*
X105052428Y-77996343D01*
X105068953Y-78007198D01*
X105084959Y-78019614D01*
X105125542Y-78037175D01*
X105136193Y-78042393D01*
X105174940Y-78063695D01*
X105174948Y-78063697D01*
X105194558Y-78068732D01*
X105213267Y-78075137D01*
X105231855Y-78083181D01*
X105275530Y-78090098D01*
X105287141Y-78092502D01*
X105329970Y-78103500D01*
X105350224Y-78103500D01*
X105369934Y-78105051D01*
X105372141Y-78105400D01*
X105389943Y-78108220D01*
X105433961Y-78104058D01*
X105445819Y-78103500D01*
X108541664Y-78103500D01*
X108609785Y-78123502D01*
X108630759Y-78140405D01*
X110881759Y-80391405D01*
X110915785Y-80453717D01*
X110910720Y-80524532D01*
X110868173Y-80581368D01*
X110801653Y-80606179D01*
X110792664Y-80606500D01*
X109321238Y-80606500D01*
X109260691Y-80613009D01*
X109260683Y-80613011D01*
X109123685Y-80664110D01*
X109123680Y-80664112D01*
X109006626Y-80751738D01*
X108919000Y-80868792D01*
X108918998Y-80868797D01*
X108867899Y-81005795D01*
X108867897Y-81005803D01*
X108861388Y-81066350D01*
X108861388Y-82763649D01*
X108867897Y-82824196D01*
X108867899Y-82824204D01*
X108918998Y-82961202D01*
X108919000Y-82961207D01*
X109006626Y-83078261D01*
X109123680Y-83165887D01*
X109123682Y-83165888D01*
X109123684Y-83165889D01*
X109182763Y-83187924D01*
X109260683Y-83216988D01*
X109260691Y-83216990D01*
X109321238Y-83223499D01*
X109321243Y-83223499D01*
X109321250Y-83223500D01*
X109886406Y-83223500D01*
X109954527Y-83243502D01*
X110001020Y-83297158D01*
X110011124Y-83367432D01*
X109981630Y-83432012D01*
X109975516Y-83438579D01*
X107968066Y-85446028D01*
X107718246Y-85695848D01*
X107655934Y-85729873D01*
X107596540Y-85728459D01*
X107533090Y-85711457D01*
X107305000Y-85691502D01*
X107076913Y-85711457D01*
X106855759Y-85770715D01*
X106855753Y-85770717D01*
X106648250Y-85867477D01*
X106460703Y-85998799D01*
X106460697Y-85998804D01*
X106298804Y-86160697D01*
X106298799Y-86160703D01*
X106167475Y-86348252D01*
X106148918Y-86388049D01*
X106102001Y-86441333D01*
X106033724Y-86460794D01*
X105965764Y-86440252D01*
X105920530Y-86388049D01*
X105902089Y-86348503D01*
X105770815Y-86161025D01*
X105770810Y-86161019D01*
X105608980Y-85999189D01*
X105608974Y-85999184D01*
X105421498Y-85867912D01*
X105214073Y-85771188D01*
X105214071Y-85771187D01*
X105019000Y-85718917D01*
X105019000Y-86693314D01*
X105003045Y-86677359D01*
X104890148Y-86619835D01*
X104796481Y-86605000D01*
X104733519Y-86605000D01*
X104639852Y-86619835D01*
X104526955Y-86677359D01*
X104511000Y-86693314D01*
X104511000Y-85718917D01*
X104510999Y-85718917D01*
X104315928Y-85771187D01*
X104315925Y-85771188D01*
X104162261Y-85842843D01*
X104092069Y-85853504D01*
X104027256Y-85824524D01*
X103988400Y-85765104D01*
X103983011Y-85728648D01*
X103983011Y-84383364D01*
X103984760Y-84367522D01*
X103984467Y-84367495D01*
X103985213Y-84359602D01*
X103983073Y-84291511D01*
X103983011Y-84287553D01*
X103983011Y-84259661D01*
X103983011Y-84259655D01*
X103982504Y-84255646D01*
X103981573Y-84243817D01*
X103980185Y-84199622D01*
X103974528Y-84180153D01*
X103970523Y-84160809D01*
X103967985Y-84140714D01*
X103951707Y-84099603D01*
X103947867Y-84088388D01*
X103935529Y-84045918D01*
X103925217Y-84028481D01*
X103916521Y-84010732D01*
X103909063Y-83991894D01*
X103883063Y-83956109D01*
X103876570Y-83946225D01*
X103854053Y-83908149D01*
X103839725Y-83893821D01*
X103826895Y-83878800D01*
X103814983Y-83862404D01*
X103814980Y-83862402D01*
X103814980Y-83862401D01*
X103780905Y-83834211D01*
X103772127Y-83826223D01*
X102707858Y-82761953D01*
X102673832Y-82699641D01*
X102678897Y-82628825D01*
X102703621Y-82590355D01*
X102703621Y-81591686D01*
X102719576Y-81607641D01*
X102832473Y-81665165D01*
X102926140Y-81680000D01*
X102989102Y-81680000D01*
X103082769Y-81665165D01*
X103195666Y-81607641D01*
X103211621Y-81591686D01*
X103211621Y-82588000D01*
X103806206Y-82588000D01*
X103806218Y-82587999D01*
X103866714Y-82581494D01*
X104003585Y-82530444D01*
X104003586Y-82530444D01*
X104120525Y-82442904D01*
X104208065Y-82325965D01*
X104260443Y-82185534D01*
X104302990Y-82128698D01*
X104369510Y-82103887D01*
X104438884Y-82118978D01*
X104467594Y-82140471D01*
X104613321Y-82286198D01*
X104800872Y-82417523D01*
X105008378Y-82514284D01*
X105229534Y-82573543D01*
X105457621Y-82593498D01*
X105685708Y-82573543D01*
X105906864Y-82514284D01*
X106114370Y-82417523D01*
X106301921Y-82286198D01*
X106463819Y-82124300D01*
X106595144Y-81936749D01*
X106691905Y-81729243D01*
X106751164Y-81508087D01*
X106771119Y-81280000D01*
X106751164Y-81051913D01*
X106691905Y-80830757D01*
X106595144Y-80623251D01*
X106463819Y-80435700D01*
X106301921Y-80273802D01*
X106299924Y-80272404D01*
X106114370Y-80142477D01*
X105906867Y-80045717D01*
X105906861Y-80045715D01*
X105813392Y-80020670D01*
X105685708Y-79986457D01*
X105457621Y-79966502D01*
X105229534Y-79986457D01*
X105229531Y-79986457D01*
X105229528Y-79986458D01*
X105166078Y-80003459D01*
X105095102Y-80001769D01*
X105044373Y-79970847D01*
X103424865Y-78351339D01*
X103414900Y-78338901D01*
X103414673Y-78339090D01*
X103409622Y-78332984D01*
X103409621Y-78332982D01*
X103392990Y-78317365D01*
X103359970Y-78286357D01*
X103357126Y-78283600D01*
X103337398Y-78263871D01*
X103337392Y-78263866D01*
X103334188Y-78261380D01*
X103325177Y-78253683D01*
X103292946Y-78223417D01*
X103292940Y-78223413D01*
X103275184Y-78213651D01*
X103258668Y-78202802D01*
X103242662Y-78190386D01*
X103210312Y-78176387D01*
X103202085Y-78172827D01*
X103191428Y-78167605D01*
X103152684Y-78146306D01*
X103152681Y-78146305D01*
X103133057Y-78141266D01*
X103114357Y-78134864D01*
X103095766Y-78126819D01*
X103095764Y-78126818D01*
X103095762Y-78126818D01*
X103052095Y-78119901D01*
X103040476Y-78117495D01*
X102997651Y-78106500D01*
X102977397Y-78106500D01*
X102957687Y-78104949D01*
X102937678Y-78101780D01*
X102919483Y-78103500D01*
X102893660Y-78105941D01*
X102881802Y-78106500D01*
X102318853Y-78106500D01*
X102303011Y-78104750D01*
X102302984Y-78105044D01*
X102295092Y-78104298D01*
X102295091Y-78104298D01*
X102274382Y-78104949D01*
X102227014Y-78106438D01*
X102223055Y-78106500D01*
X102195144Y-78106500D01*
X102195141Y-78106500D01*
X102195126Y-78106501D01*
X102191121Y-78107007D01*
X102179304Y-78107937D01*
X102135112Y-78109326D01*
X102135110Y-78109327D01*
X102115655Y-78114978D01*
X102096302Y-78118986D01*
X102076210Y-78121524D01*
X102076203Y-78121526D01*
X102035096Y-78137801D01*
X102023871Y-78141644D01*
X101993212Y-78150552D01*
X101981407Y-78153982D01*
X101981405Y-78153982D01*
X101981402Y-78153984D01*
X101963963Y-78164297D01*
X101946218Y-78172990D01*
X101927379Y-78180449D01*
X101891627Y-78206426D01*
X101881704Y-78212944D01*
X101843640Y-78235454D01*
X101829307Y-78249787D01*
X101814281Y-78262620D01*
X101797895Y-78274526D01*
X101769715Y-78308588D01*
X101761728Y-78317365D01*
X101178596Y-78900498D01*
X101116283Y-78934523D01*
X101045468Y-78929459D01*
X100988632Y-78886912D01*
X100963821Y-78820392D01*
X100963500Y-78811403D01*
X100963500Y-73974594D01*
X100983502Y-73906473D01*
X101000405Y-73885499D01*
X101315499Y-73570405D01*
X101377811Y-73536379D01*
X101404594Y-73533500D01*
X102107194Y-73533500D01*
X102175315Y-73553502D01*
G37*
G04 #@! TD.AperFunction*
G04 #@! TA.AperFunction,Conductor*
G36*
X102671148Y-79393502D02*
G01*
X102692122Y-79410405D01*
X103174716Y-79892999D01*
X103208742Y-79955311D01*
X103211621Y-79982094D01*
X103211621Y-80968314D01*
X103195666Y-80952359D01*
X103082769Y-80894835D01*
X102989102Y-80880000D01*
X102926140Y-80880000D01*
X102832473Y-80894835D01*
X102719576Y-80952359D01*
X102703621Y-80968314D01*
X102703621Y-79972000D01*
X102203094Y-79972000D01*
X102134973Y-79951998D01*
X102088480Y-79898342D01*
X102078376Y-79828068D01*
X102107870Y-79763488D01*
X102113999Y-79756905D01*
X102460499Y-79410405D01*
X102522811Y-79376379D01*
X102549594Y-79373500D01*
X102603027Y-79373500D01*
X102671148Y-79393502D01*
G37*
G04 #@! TD.AperFunction*
M02*
