G04 #@! TF.GenerationSoftware,KiCad,Pcbnew,7.0.11+dfsg-1build4*
G04 #@! TF.CreationDate,2026-01-28T22:33:10-05:00*
G04 #@! TF.ProjectId,stomp-chargepump,73746f6d-702d-4636-9861-72676570756d,rev?*
G04 #@! TF.SameCoordinates,Original*
G04 #@! TF.FileFunction,Legend,Top*
G04 #@! TF.FilePolarity,Positive*
%FSLAX46Y46*%
G04 Gerber Fmt 4.6, Leading zero omitted, Abs format (unit mm)*
G04 Created by KiCad (PCBNEW 7.0.11+dfsg-1build4) date 2026-01-28 22:33:10*
%MOMM*%
%LPD*%
G01*
G04 APERTURE LIST*
%ADD10C,0.150000*%
%ADD11C,0.120000*%
%ADD12C,0.100000*%
%ADD13C,0.203200*%
%ADD14R,1.600000X1.600000*%
%ADD15C,1.600000*%
%ADD16O,1.600000X1.600000*%
%ADD17R,2.800000X2.800000*%
%ADD18O,2.800000X2.800000*%
%ADD19R,1.800000X1.800000*%
%ADD20C,1.800000*%
%ADD21O,3.203200X2.203200*%
%ADD22R,1.700000X1.700000*%
%ADD23O,1.700000X1.700000*%
G04 APERTURE END LIST*
D10*
X143653557Y-74199999D02*
X143653557Y-74028571D01*
X143653557Y-74028571D02*
X143696414Y-73942856D01*
X143696414Y-73942856D02*
X143782128Y-73857142D01*
X143782128Y-73857142D02*
X143953557Y-73814285D01*
X143953557Y-73814285D02*
X144253557Y-73814285D01*
X144253557Y-73814285D02*
X144424985Y-73857142D01*
X144424985Y-73857142D02*
X144510700Y-73942856D01*
X144510700Y-73942856D02*
X144553557Y-74028571D01*
X144553557Y-74028571D02*
X144553557Y-74199999D01*
X144553557Y-74199999D02*
X144510700Y-74285714D01*
X144510700Y-74285714D02*
X144424985Y-74371428D01*
X144424985Y-74371428D02*
X144253557Y-74414285D01*
X144253557Y-74414285D02*
X143953557Y-74414285D01*
X143953557Y-74414285D02*
X143782128Y-74371428D01*
X143782128Y-74371428D02*
X143696414Y-74285714D01*
X143696414Y-74285714D02*
X143653557Y-74199999D01*
X143653557Y-73428571D02*
X144382128Y-73428571D01*
X144382128Y-73428571D02*
X144467842Y-73385714D01*
X144467842Y-73385714D02*
X144510700Y-73342857D01*
X144510700Y-73342857D02*
X144553557Y-73257142D01*
X144553557Y-73257142D02*
X144553557Y-73085714D01*
X144553557Y-73085714D02*
X144510700Y-72999999D01*
X144510700Y-72999999D02*
X144467842Y-72957142D01*
X144467842Y-72957142D02*
X144382128Y-72914285D01*
X144382128Y-72914285D02*
X143653557Y-72914285D01*
X143653557Y-72614285D02*
X143653557Y-72100000D01*
X144553557Y-72357142D02*
X143653557Y-72357142D01*
X149708557Y-73857142D02*
X149279985Y-74157142D01*
X149708557Y-74371428D02*
X148808557Y-74371428D01*
X148808557Y-74371428D02*
X148808557Y-74028571D01*
X148808557Y-74028571D02*
X148851414Y-73942856D01*
X148851414Y-73942856D02*
X148894271Y-73899999D01*
X148894271Y-73899999D02*
X148979985Y-73857142D01*
X148979985Y-73857142D02*
X149108557Y-73857142D01*
X149108557Y-73857142D02*
X149194271Y-73899999D01*
X149194271Y-73899999D02*
X149237128Y-73942856D01*
X149237128Y-73942856D02*
X149279985Y-74028571D01*
X149279985Y-74028571D02*
X149279985Y-74371428D01*
X149622842Y-72957142D02*
X149665700Y-72999999D01*
X149665700Y-72999999D02*
X149708557Y-73128571D01*
X149708557Y-73128571D02*
X149708557Y-73214285D01*
X149708557Y-73214285D02*
X149665700Y-73342856D01*
X149665700Y-73342856D02*
X149579985Y-73428571D01*
X149579985Y-73428571D02*
X149494271Y-73471428D01*
X149494271Y-73471428D02*
X149322842Y-73514285D01*
X149322842Y-73514285D02*
X149194271Y-73514285D01*
X149194271Y-73514285D02*
X149022842Y-73471428D01*
X149022842Y-73471428D02*
X148937128Y-73428571D01*
X148937128Y-73428571D02*
X148851414Y-73342856D01*
X148851414Y-73342856D02*
X148808557Y-73214285D01*
X148808557Y-73214285D02*
X148808557Y-73128571D01*
X148808557Y-73128571D02*
X148851414Y-72999999D01*
X148851414Y-72999999D02*
X148894271Y-72957142D01*
X148808557Y-72699999D02*
X149708557Y-72399999D01*
X149708557Y-72399999D02*
X148808557Y-72099999D01*
X142013557Y-73496428D02*
X141113557Y-73496428D01*
X142013557Y-73067857D02*
X141113557Y-73067857D01*
X141113557Y-73067857D02*
X142013557Y-72553571D01*
X142013557Y-72553571D02*
X141113557Y-72553571D01*
X136590700Y-74774285D02*
X136590700Y-74088571D01*
X136933557Y-73617142D02*
X136933557Y-73445713D01*
X136933557Y-73445713D02*
X136890700Y-73359999D01*
X136890700Y-73359999D02*
X136847842Y-73317142D01*
X136847842Y-73317142D02*
X136719271Y-73231427D01*
X136719271Y-73231427D02*
X136547842Y-73188570D01*
X136547842Y-73188570D02*
X136204985Y-73188570D01*
X136204985Y-73188570D02*
X136119271Y-73231427D01*
X136119271Y-73231427D02*
X136076414Y-73274285D01*
X136076414Y-73274285D02*
X136033557Y-73359999D01*
X136033557Y-73359999D02*
X136033557Y-73531427D01*
X136033557Y-73531427D02*
X136076414Y-73617142D01*
X136076414Y-73617142D02*
X136119271Y-73659999D01*
X136119271Y-73659999D02*
X136204985Y-73702856D01*
X136204985Y-73702856D02*
X136419271Y-73702856D01*
X136419271Y-73702856D02*
X136504985Y-73659999D01*
X136504985Y-73659999D02*
X136547842Y-73617142D01*
X136547842Y-73617142D02*
X136590700Y-73531427D01*
X136590700Y-73531427D02*
X136590700Y-73359999D01*
X136590700Y-73359999D02*
X136547842Y-73274285D01*
X136547842Y-73274285D02*
X136504985Y-73231427D01*
X136504985Y-73231427D02*
X136419271Y-73188570D01*
X136333557Y-72888570D02*
X136933557Y-72674284D01*
X136933557Y-72674284D02*
X136333557Y-72459999D01*
X139473557Y-73814285D02*
X139473557Y-74328571D01*
X139473557Y-74071428D02*
X138573557Y-74071428D01*
X138573557Y-74071428D02*
X138702128Y-74157142D01*
X138702128Y-74157142D02*
X138787842Y-74242857D01*
X138787842Y-74242857D02*
X138830700Y-74328571D01*
X138959271Y-73299999D02*
X138916414Y-73385714D01*
X138916414Y-73385714D02*
X138873557Y-73428571D01*
X138873557Y-73428571D02*
X138787842Y-73471428D01*
X138787842Y-73471428D02*
X138744985Y-73471428D01*
X138744985Y-73471428D02*
X138659271Y-73428571D01*
X138659271Y-73428571D02*
X138616414Y-73385714D01*
X138616414Y-73385714D02*
X138573557Y-73299999D01*
X138573557Y-73299999D02*
X138573557Y-73128571D01*
X138573557Y-73128571D02*
X138616414Y-73042857D01*
X138616414Y-73042857D02*
X138659271Y-72999999D01*
X138659271Y-72999999D02*
X138744985Y-72957142D01*
X138744985Y-72957142D02*
X138787842Y-72957142D01*
X138787842Y-72957142D02*
X138873557Y-72999999D01*
X138873557Y-72999999D02*
X138916414Y-73042857D01*
X138916414Y-73042857D02*
X138959271Y-73128571D01*
X138959271Y-73128571D02*
X138959271Y-73299999D01*
X138959271Y-73299999D02*
X139002128Y-73385714D01*
X139002128Y-73385714D02*
X139044985Y-73428571D01*
X139044985Y-73428571D02*
X139130700Y-73471428D01*
X139130700Y-73471428D02*
X139302128Y-73471428D01*
X139302128Y-73471428D02*
X139387842Y-73428571D01*
X139387842Y-73428571D02*
X139430700Y-73385714D01*
X139430700Y-73385714D02*
X139473557Y-73299999D01*
X139473557Y-73299999D02*
X139473557Y-73128571D01*
X139473557Y-73128571D02*
X139430700Y-73042857D01*
X139430700Y-73042857D02*
X139387842Y-72999999D01*
X139387842Y-72999999D02*
X139302128Y-72957142D01*
X139302128Y-72957142D02*
X139130700Y-72957142D01*
X139130700Y-72957142D02*
X139044985Y-72999999D01*
X139044985Y-72999999D02*
X139002128Y-73042857D01*
X139002128Y-73042857D02*
X138959271Y-73128571D01*
X138873557Y-72657142D02*
X139473557Y-72442856D01*
X139473557Y-72442856D02*
X138873557Y-72228571D01*
X130947438Y-74421904D02*
X130899819Y-74517142D01*
X130899819Y-74517142D02*
X130899819Y-74659999D01*
X130899819Y-74659999D02*
X130947438Y-74802856D01*
X130947438Y-74802856D02*
X131042676Y-74898094D01*
X131042676Y-74898094D02*
X131137914Y-74945713D01*
X131137914Y-74945713D02*
X131328390Y-74993332D01*
X131328390Y-74993332D02*
X131471247Y-74993332D01*
X131471247Y-74993332D02*
X131661723Y-74945713D01*
X131661723Y-74945713D02*
X131756961Y-74898094D01*
X131756961Y-74898094D02*
X131852200Y-74802856D01*
X131852200Y-74802856D02*
X131899819Y-74659999D01*
X131899819Y-74659999D02*
X131899819Y-74564761D01*
X131899819Y-74564761D02*
X131852200Y-74421904D01*
X131852200Y-74421904D02*
X131804580Y-74374285D01*
X131804580Y-74374285D02*
X131471247Y-74374285D01*
X131471247Y-74374285D02*
X131471247Y-74564761D01*
X131899819Y-73945713D02*
X130899819Y-73945713D01*
X130899819Y-73945713D02*
X131899819Y-73374285D01*
X131899819Y-73374285D02*
X130899819Y-73374285D01*
X131899819Y-72898094D02*
X130899819Y-72898094D01*
X130899819Y-72898094D02*
X130899819Y-72659999D01*
X130899819Y-72659999D02*
X130947438Y-72517142D01*
X130947438Y-72517142D02*
X131042676Y-72421904D01*
X131042676Y-72421904D02*
X131137914Y-72374285D01*
X131137914Y-72374285D02*
X131328390Y-72326666D01*
X131328390Y-72326666D02*
X131471247Y-72326666D01*
X131471247Y-72326666D02*
X131661723Y-72374285D01*
X131661723Y-72374285D02*
X131756961Y-72421904D01*
X131756961Y-72421904D02*
X131852200Y-72517142D01*
X131852200Y-72517142D02*
X131899819Y-72659999D01*
X131899819Y-72659999D02*
X131899819Y-72898094D01*
X147165700Y-74578571D02*
X147208557Y-74450000D01*
X147208557Y-74450000D02*
X147208557Y-74235714D01*
X147208557Y-74235714D02*
X147165700Y-74150000D01*
X147165700Y-74150000D02*
X147122842Y-74107142D01*
X147122842Y-74107142D02*
X147037128Y-74064285D01*
X147037128Y-74064285D02*
X146951414Y-74064285D01*
X146951414Y-74064285D02*
X146865700Y-74107142D01*
X146865700Y-74107142D02*
X146822842Y-74150000D01*
X146822842Y-74150000D02*
X146779985Y-74235714D01*
X146779985Y-74235714D02*
X146737128Y-74407142D01*
X146737128Y-74407142D02*
X146694271Y-74492857D01*
X146694271Y-74492857D02*
X146651414Y-74535714D01*
X146651414Y-74535714D02*
X146565700Y-74578571D01*
X146565700Y-74578571D02*
X146479985Y-74578571D01*
X146479985Y-74578571D02*
X146394271Y-74535714D01*
X146394271Y-74535714D02*
X146351414Y-74492857D01*
X146351414Y-74492857D02*
X146308557Y-74407142D01*
X146308557Y-74407142D02*
X146308557Y-74192857D01*
X146308557Y-74192857D02*
X146351414Y-74064285D01*
X147208557Y-73678571D02*
X146308557Y-73678571D01*
X146308557Y-73678571D02*
X147208557Y-73164285D01*
X147208557Y-73164285D02*
X146308557Y-73164285D01*
X147208557Y-72735714D02*
X146308557Y-72735714D01*
X146308557Y-72735714D02*
X146308557Y-72521428D01*
X146308557Y-72521428D02*
X146351414Y-72392857D01*
X146351414Y-72392857D02*
X146437128Y-72307142D01*
X146437128Y-72307142D02*
X146522842Y-72264285D01*
X146522842Y-72264285D02*
X146694271Y-72221428D01*
X146694271Y-72221428D02*
X146822842Y-72221428D01*
X146822842Y-72221428D02*
X146994271Y-72264285D01*
X146994271Y-72264285D02*
X147079985Y-72307142D01*
X147079985Y-72307142D02*
X147165700Y-72392857D01*
X147165700Y-72392857D02*
X147208557Y-72521428D01*
X147208557Y-72521428D02*
X147208557Y-72735714D01*
X133365952Y-73309819D02*
X133556428Y-73309819D01*
X133556428Y-73309819D02*
X133651666Y-73262200D01*
X133651666Y-73262200D02*
X133699285Y-73214580D01*
X133699285Y-73214580D02*
X133794523Y-73071723D01*
X133794523Y-73071723D02*
X133842142Y-72881247D01*
X133842142Y-72881247D02*
X133842142Y-72500295D01*
X133842142Y-72500295D02*
X133794523Y-72405057D01*
X133794523Y-72405057D02*
X133746904Y-72357438D01*
X133746904Y-72357438D02*
X133651666Y-72309819D01*
X133651666Y-72309819D02*
X133461190Y-72309819D01*
X133461190Y-72309819D02*
X133365952Y-72357438D01*
X133365952Y-72357438D02*
X133318333Y-72405057D01*
X133318333Y-72405057D02*
X133270714Y-72500295D01*
X133270714Y-72500295D02*
X133270714Y-72738390D01*
X133270714Y-72738390D02*
X133318333Y-72833628D01*
X133318333Y-72833628D02*
X133365952Y-72881247D01*
X133365952Y-72881247D02*
X133461190Y-72928866D01*
X133461190Y-72928866D02*
X133651666Y-72928866D01*
X133651666Y-72928866D02*
X133746904Y-72881247D01*
X133746904Y-72881247D02*
X133794523Y-72833628D01*
X133794523Y-72833628D02*
X133842142Y-72738390D01*
X134127857Y-72309819D02*
X134461190Y-73309819D01*
X134461190Y-73309819D02*
X134794523Y-72309819D01*
X133461191Y-74919819D02*
X133461191Y-73919819D01*
X133937381Y-74919819D02*
X133937381Y-73919819D01*
X133937381Y-73919819D02*
X134508809Y-74919819D01*
X134508809Y-74919819D02*
X134508809Y-73919819D01*
X114633333Y-78359580D02*
X114585714Y-78407200D01*
X114585714Y-78407200D02*
X114442857Y-78454819D01*
X114442857Y-78454819D02*
X114347619Y-78454819D01*
X114347619Y-78454819D02*
X114204762Y-78407200D01*
X114204762Y-78407200D02*
X114109524Y-78311961D01*
X114109524Y-78311961D02*
X114061905Y-78216723D01*
X114061905Y-78216723D02*
X114014286Y-78026247D01*
X114014286Y-78026247D02*
X114014286Y-77883390D01*
X114014286Y-77883390D02*
X114061905Y-77692914D01*
X114061905Y-77692914D02*
X114109524Y-77597676D01*
X114109524Y-77597676D02*
X114204762Y-77502438D01*
X114204762Y-77502438D02*
X114347619Y-77454819D01*
X114347619Y-77454819D02*
X114442857Y-77454819D01*
X114442857Y-77454819D02*
X114585714Y-77502438D01*
X114585714Y-77502438D02*
X114633333Y-77550057D01*
X115490476Y-77788152D02*
X115490476Y-78454819D01*
X115252381Y-77407200D02*
X115014286Y-78121485D01*
X115014286Y-78121485D02*
X115633333Y-78121485D01*
X116063331Y-77254819D02*
X115491903Y-77254819D01*
X115777617Y-77254819D02*
X115777617Y-76254819D01*
X115777617Y-76254819D02*
X115682379Y-76397676D01*
X115682379Y-76397676D02*
X115587141Y-76492914D01*
X115587141Y-76492914D02*
X115491903Y-76540533D01*
X116682379Y-76254819D02*
X116777617Y-76254819D01*
X116777617Y-76254819D02*
X116872855Y-76302438D01*
X116872855Y-76302438D02*
X116920474Y-76350057D01*
X116920474Y-76350057D02*
X116968093Y-76445295D01*
X116968093Y-76445295D02*
X117015712Y-76635771D01*
X117015712Y-76635771D02*
X117015712Y-76873866D01*
X117015712Y-76873866D02*
X116968093Y-77064342D01*
X116968093Y-77064342D02*
X116920474Y-77159580D01*
X116920474Y-77159580D02*
X116872855Y-77207200D01*
X116872855Y-77207200D02*
X116777617Y-77254819D01*
X116777617Y-77254819D02*
X116682379Y-77254819D01*
X116682379Y-77254819D02*
X116587141Y-77207200D01*
X116587141Y-77207200D02*
X116539522Y-77159580D01*
X116539522Y-77159580D02*
X116491903Y-77064342D01*
X116491903Y-77064342D02*
X116444284Y-76873866D01*
X116444284Y-76873866D02*
X116444284Y-76635771D01*
X116444284Y-76635771D02*
X116491903Y-76445295D01*
X116491903Y-76445295D02*
X116539522Y-76350057D01*
X116539522Y-76350057D02*
X116587141Y-76302438D01*
X116587141Y-76302438D02*
X116682379Y-76254819D01*
X117634760Y-76254819D02*
X117729998Y-76254819D01*
X117729998Y-76254819D02*
X117825236Y-76302438D01*
X117825236Y-76302438D02*
X117872855Y-76350057D01*
X117872855Y-76350057D02*
X117920474Y-76445295D01*
X117920474Y-76445295D02*
X117968093Y-76635771D01*
X117968093Y-76635771D02*
X117968093Y-76873866D01*
X117968093Y-76873866D02*
X117920474Y-77064342D01*
X117920474Y-77064342D02*
X117872855Y-77159580D01*
X117872855Y-77159580D02*
X117825236Y-77207200D01*
X117825236Y-77207200D02*
X117729998Y-77254819D01*
X117729998Y-77254819D02*
X117634760Y-77254819D01*
X117634760Y-77254819D02*
X117539522Y-77207200D01*
X117539522Y-77207200D02*
X117491903Y-77159580D01*
X117491903Y-77159580D02*
X117444284Y-77064342D01*
X117444284Y-77064342D02*
X117396665Y-76873866D01*
X117396665Y-76873866D02*
X117396665Y-76635771D01*
X117396665Y-76635771D02*
X117444284Y-76445295D01*
X117444284Y-76445295D02*
X117491903Y-76350057D01*
X117491903Y-76350057D02*
X117539522Y-76302438D01*
X117539522Y-76302438D02*
X117634760Y-76254819D01*
X118825236Y-76588152D02*
X118825236Y-77254819D01*
X118396665Y-76588152D02*
X118396665Y-77111961D01*
X118396665Y-77111961D02*
X118444284Y-77207200D01*
X118444284Y-77207200D02*
X118539522Y-77254819D01*
X118539522Y-77254819D02*
X118682379Y-77254819D01*
X118682379Y-77254819D02*
X118777617Y-77207200D01*
X118777617Y-77207200D02*
X118825236Y-77159580D01*
X111629819Y-91576904D02*
X112439342Y-91576904D01*
X112439342Y-91576904D02*
X112534580Y-91529285D01*
X112534580Y-91529285D02*
X112582200Y-91481666D01*
X112582200Y-91481666D02*
X112629819Y-91386428D01*
X112629819Y-91386428D02*
X112629819Y-91195952D01*
X112629819Y-91195952D02*
X112582200Y-91100714D01*
X112582200Y-91100714D02*
X112534580Y-91053095D01*
X112534580Y-91053095D02*
X112439342Y-91005476D01*
X112439342Y-91005476D02*
X111629819Y-91005476D01*
X112629819Y-90005476D02*
X112629819Y-90576904D01*
X112629819Y-90291190D02*
X111629819Y-90291190D01*
X111629819Y-90291190D02*
X111772676Y-90386428D01*
X111772676Y-90386428D02*
X111867914Y-90481666D01*
X111867914Y-90481666D02*
X111915533Y-90576904D01*
X102940476Y-91269819D02*
X102940476Y-90269819D01*
X103988094Y-91174580D02*
X103940475Y-91222200D01*
X103940475Y-91222200D02*
X103797618Y-91269819D01*
X103797618Y-91269819D02*
X103702380Y-91269819D01*
X103702380Y-91269819D02*
X103559523Y-91222200D01*
X103559523Y-91222200D02*
X103464285Y-91126961D01*
X103464285Y-91126961D02*
X103416666Y-91031723D01*
X103416666Y-91031723D02*
X103369047Y-90841247D01*
X103369047Y-90841247D02*
X103369047Y-90698390D01*
X103369047Y-90698390D02*
X103416666Y-90507914D01*
X103416666Y-90507914D02*
X103464285Y-90412676D01*
X103464285Y-90412676D02*
X103559523Y-90317438D01*
X103559523Y-90317438D02*
X103702380Y-90269819D01*
X103702380Y-90269819D02*
X103797618Y-90269819D01*
X103797618Y-90269819D02*
X103940475Y-90317438D01*
X103940475Y-90317438D02*
X103988094Y-90365057D01*
X104892856Y-91269819D02*
X104416666Y-91269819D01*
X104416666Y-91269819D02*
X104416666Y-90269819D01*
X105130952Y-90269819D02*
X105797618Y-90269819D01*
X105797618Y-90269819D02*
X105369047Y-91269819D01*
X106607142Y-90269819D02*
X106416666Y-90269819D01*
X106416666Y-90269819D02*
X106321428Y-90317438D01*
X106321428Y-90317438D02*
X106273809Y-90365057D01*
X106273809Y-90365057D02*
X106178571Y-90507914D01*
X106178571Y-90507914D02*
X106130952Y-90698390D01*
X106130952Y-90698390D02*
X106130952Y-91079342D01*
X106130952Y-91079342D02*
X106178571Y-91174580D01*
X106178571Y-91174580D02*
X106226190Y-91222200D01*
X106226190Y-91222200D02*
X106321428Y-91269819D01*
X106321428Y-91269819D02*
X106511904Y-91269819D01*
X106511904Y-91269819D02*
X106607142Y-91222200D01*
X106607142Y-91222200D02*
X106654761Y-91174580D01*
X106654761Y-91174580D02*
X106702380Y-91079342D01*
X106702380Y-91079342D02*
X106702380Y-90841247D01*
X106702380Y-90841247D02*
X106654761Y-90746009D01*
X106654761Y-90746009D02*
X106607142Y-90698390D01*
X106607142Y-90698390D02*
X106511904Y-90650771D01*
X106511904Y-90650771D02*
X106321428Y-90650771D01*
X106321428Y-90650771D02*
X106226190Y-90698390D01*
X106226190Y-90698390D02*
X106178571Y-90746009D01*
X106178571Y-90746009D02*
X106130952Y-90841247D01*
X107559523Y-90269819D02*
X107369047Y-90269819D01*
X107369047Y-90269819D02*
X107273809Y-90317438D01*
X107273809Y-90317438D02*
X107226190Y-90365057D01*
X107226190Y-90365057D02*
X107130952Y-90507914D01*
X107130952Y-90507914D02*
X107083333Y-90698390D01*
X107083333Y-90698390D02*
X107083333Y-91079342D01*
X107083333Y-91079342D02*
X107130952Y-91174580D01*
X107130952Y-91174580D02*
X107178571Y-91222200D01*
X107178571Y-91222200D02*
X107273809Y-91269819D01*
X107273809Y-91269819D02*
X107464285Y-91269819D01*
X107464285Y-91269819D02*
X107559523Y-91222200D01*
X107559523Y-91222200D02*
X107607142Y-91174580D01*
X107607142Y-91174580D02*
X107654761Y-91079342D01*
X107654761Y-91079342D02*
X107654761Y-90841247D01*
X107654761Y-90841247D02*
X107607142Y-90746009D01*
X107607142Y-90746009D02*
X107559523Y-90698390D01*
X107559523Y-90698390D02*
X107464285Y-90650771D01*
X107464285Y-90650771D02*
X107273809Y-90650771D01*
X107273809Y-90650771D02*
X107178571Y-90698390D01*
X107178571Y-90698390D02*
X107130952Y-90746009D01*
X107130952Y-90746009D02*
X107083333Y-90841247D01*
X108273809Y-90269819D02*
X108369047Y-90269819D01*
X108369047Y-90269819D02*
X108464285Y-90317438D01*
X108464285Y-90317438D02*
X108511904Y-90365057D01*
X108511904Y-90365057D02*
X108559523Y-90460295D01*
X108559523Y-90460295D02*
X108607142Y-90650771D01*
X108607142Y-90650771D02*
X108607142Y-90888866D01*
X108607142Y-90888866D02*
X108559523Y-91079342D01*
X108559523Y-91079342D02*
X108511904Y-91174580D01*
X108511904Y-91174580D02*
X108464285Y-91222200D01*
X108464285Y-91222200D02*
X108369047Y-91269819D01*
X108369047Y-91269819D02*
X108273809Y-91269819D01*
X108273809Y-91269819D02*
X108178571Y-91222200D01*
X108178571Y-91222200D02*
X108130952Y-91174580D01*
X108130952Y-91174580D02*
X108083333Y-91079342D01*
X108083333Y-91079342D02*
X108035714Y-90888866D01*
X108035714Y-90888866D02*
X108035714Y-90650771D01*
X108035714Y-90650771D02*
X108083333Y-90460295D01*
X108083333Y-90460295D02*
X108130952Y-90365057D01*
X108130952Y-90365057D02*
X108178571Y-90317438D01*
X108178571Y-90317438D02*
X108273809Y-90269819D01*
X143406905Y-95069819D02*
X143406905Y-94069819D01*
X143406905Y-94069819D02*
X143645000Y-94069819D01*
X143645000Y-94069819D02*
X143787857Y-94117438D01*
X143787857Y-94117438D02*
X143883095Y-94212676D01*
X143883095Y-94212676D02*
X143930714Y-94307914D01*
X143930714Y-94307914D02*
X143978333Y-94498390D01*
X143978333Y-94498390D02*
X143978333Y-94641247D01*
X143978333Y-94641247D02*
X143930714Y-94831723D01*
X143930714Y-94831723D02*
X143883095Y-94926961D01*
X143883095Y-94926961D02*
X143787857Y-95022200D01*
X143787857Y-95022200D02*
X143645000Y-95069819D01*
X143645000Y-95069819D02*
X143406905Y-95069819D01*
X144311667Y-94069819D02*
X144930714Y-94069819D01*
X144930714Y-94069819D02*
X144597381Y-94450771D01*
X144597381Y-94450771D02*
X144740238Y-94450771D01*
X144740238Y-94450771D02*
X144835476Y-94498390D01*
X144835476Y-94498390D02*
X144883095Y-94546009D01*
X144883095Y-94546009D02*
X144930714Y-94641247D01*
X144930714Y-94641247D02*
X144930714Y-94879342D01*
X144930714Y-94879342D02*
X144883095Y-94974580D01*
X144883095Y-94974580D02*
X144835476Y-95022200D01*
X144835476Y-95022200D02*
X144740238Y-95069819D01*
X144740238Y-95069819D02*
X144454524Y-95069819D01*
X144454524Y-95069819D02*
X144359286Y-95022200D01*
X144359286Y-95022200D02*
X144311667Y-94974580D01*
X142073571Y-93799819D02*
X141502143Y-93799819D01*
X141787857Y-93799819D02*
X141787857Y-92799819D01*
X141787857Y-92799819D02*
X141692619Y-92942676D01*
X141692619Y-92942676D02*
X141597381Y-93037914D01*
X141597381Y-93037914D02*
X141502143Y-93085533D01*
X142502143Y-93133152D02*
X142502143Y-93799819D01*
X142502143Y-93228390D02*
X142549762Y-93180771D01*
X142549762Y-93180771D02*
X142645000Y-93133152D01*
X142645000Y-93133152D02*
X142787857Y-93133152D01*
X142787857Y-93133152D02*
X142883095Y-93180771D01*
X142883095Y-93180771D02*
X142930714Y-93276009D01*
X142930714Y-93276009D02*
X142930714Y-93799819D01*
X143883095Y-92799819D02*
X143406905Y-92799819D01*
X143406905Y-92799819D02*
X143359286Y-93276009D01*
X143359286Y-93276009D02*
X143406905Y-93228390D01*
X143406905Y-93228390D02*
X143502143Y-93180771D01*
X143502143Y-93180771D02*
X143740238Y-93180771D01*
X143740238Y-93180771D02*
X143835476Y-93228390D01*
X143835476Y-93228390D02*
X143883095Y-93276009D01*
X143883095Y-93276009D02*
X143930714Y-93371247D01*
X143930714Y-93371247D02*
X143930714Y-93609342D01*
X143930714Y-93609342D02*
X143883095Y-93704580D01*
X143883095Y-93704580D02*
X143835476Y-93752200D01*
X143835476Y-93752200D02*
X143740238Y-93799819D01*
X143740238Y-93799819D02*
X143502143Y-93799819D01*
X143502143Y-93799819D02*
X143406905Y-93752200D01*
X143406905Y-93752200D02*
X143359286Y-93704580D01*
X144502143Y-93228390D02*
X144406905Y-93180771D01*
X144406905Y-93180771D02*
X144359286Y-93133152D01*
X144359286Y-93133152D02*
X144311667Y-93037914D01*
X144311667Y-93037914D02*
X144311667Y-92990295D01*
X144311667Y-92990295D02*
X144359286Y-92895057D01*
X144359286Y-92895057D02*
X144406905Y-92847438D01*
X144406905Y-92847438D02*
X144502143Y-92799819D01*
X144502143Y-92799819D02*
X144692619Y-92799819D01*
X144692619Y-92799819D02*
X144787857Y-92847438D01*
X144787857Y-92847438D02*
X144835476Y-92895057D01*
X144835476Y-92895057D02*
X144883095Y-92990295D01*
X144883095Y-92990295D02*
X144883095Y-93037914D01*
X144883095Y-93037914D02*
X144835476Y-93133152D01*
X144835476Y-93133152D02*
X144787857Y-93180771D01*
X144787857Y-93180771D02*
X144692619Y-93228390D01*
X144692619Y-93228390D02*
X144502143Y-93228390D01*
X144502143Y-93228390D02*
X144406905Y-93276009D01*
X144406905Y-93276009D02*
X144359286Y-93323628D01*
X144359286Y-93323628D02*
X144311667Y-93418866D01*
X144311667Y-93418866D02*
X144311667Y-93609342D01*
X144311667Y-93609342D02*
X144359286Y-93704580D01*
X144359286Y-93704580D02*
X144406905Y-93752200D01*
X144406905Y-93752200D02*
X144502143Y-93799819D01*
X144502143Y-93799819D02*
X144692619Y-93799819D01*
X144692619Y-93799819D02*
X144787857Y-93752200D01*
X144787857Y-93752200D02*
X144835476Y-93704580D01*
X144835476Y-93704580D02*
X144883095Y-93609342D01*
X144883095Y-93609342D02*
X144883095Y-93418866D01*
X144883095Y-93418866D02*
X144835476Y-93323628D01*
X144835476Y-93323628D02*
X144787857Y-93276009D01*
X144787857Y-93276009D02*
X144692619Y-93228390D01*
X145835476Y-93799819D02*
X145264048Y-93799819D01*
X145549762Y-93799819D02*
X145549762Y-92799819D01*
X145549762Y-92799819D02*
X145454524Y-92942676D01*
X145454524Y-92942676D02*
X145359286Y-93037914D01*
X145359286Y-93037914D02*
X145264048Y-93085533D01*
X146168810Y-92799819D02*
X146835476Y-92799819D01*
X146835476Y-92799819D02*
X146406905Y-93799819D01*
X148963095Y-96199819D02*
X148963095Y-95199819D01*
X149534523Y-96199819D02*
X149105952Y-95628390D01*
X149534523Y-95199819D02*
X148963095Y-95771247D01*
X148963095Y-96199819D02*
X148963095Y-95199819D01*
X149534523Y-96199819D02*
X149105952Y-95628390D01*
X149534523Y-95199819D02*
X148963095Y-95771247D01*
X109688333Y-85449580D02*
X109640714Y-85497200D01*
X109640714Y-85497200D02*
X109497857Y-85544819D01*
X109497857Y-85544819D02*
X109402619Y-85544819D01*
X109402619Y-85544819D02*
X109259762Y-85497200D01*
X109259762Y-85497200D02*
X109164524Y-85401961D01*
X109164524Y-85401961D02*
X109116905Y-85306723D01*
X109116905Y-85306723D02*
X109069286Y-85116247D01*
X109069286Y-85116247D02*
X109069286Y-84973390D01*
X109069286Y-84973390D02*
X109116905Y-84782914D01*
X109116905Y-84782914D02*
X109164524Y-84687676D01*
X109164524Y-84687676D02*
X109259762Y-84592438D01*
X109259762Y-84592438D02*
X109402619Y-84544819D01*
X109402619Y-84544819D02*
X109497857Y-84544819D01*
X109497857Y-84544819D02*
X109640714Y-84592438D01*
X109640714Y-84592438D02*
X109688333Y-84640057D01*
X110640714Y-85544819D02*
X110069286Y-85544819D01*
X110355000Y-85544819D02*
X110355000Y-84544819D01*
X110355000Y-84544819D02*
X110259762Y-84687676D01*
X110259762Y-84687676D02*
X110164524Y-84782914D01*
X110164524Y-84782914D02*
X110069286Y-84830533D01*
X112291904Y-84878152D02*
X112291904Y-85544819D01*
X112053809Y-84497200D02*
X111815714Y-85211485D01*
X111815714Y-85211485D02*
X112434761Y-85211485D01*
X112720476Y-84544819D02*
X113387142Y-84544819D01*
X113387142Y-84544819D02*
X112958571Y-85544819D01*
X114196666Y-84878152D02*
X114196666Y-85544819D01*
X113768095Y-84878152D02*
X113768095Y-85401961D01*
X113768095Y-85401961D02*
X113815714Y-85497200D01*
X113815714Y-85497200D02*
X113910952Y-85544819D01*
X113910952Y-85544819D02*
X114053809Y-85544819D01*
X114053809Y-85544819D02*
X114149047Y-85497200D01*
X114149047Y-85497200D02*
X114196666Y-85449580D01*
X101433333Y-85449580D02*
X101385714Y-85497200D01*
X101385714Y-85497200D02*
X101242857Y-85544819D01*
X101242857Y-85544819D02*
X101147619Y-85544819D01*
X101147619Y-85544819D02*
X101004762Y-85497200D01*
X101004762Y-85497200D02*
X100909524Y-85401961D01*
X100909524Y-85401961D02*
X100861905Y-85306723D01*
X100861905Y-85306723D02*
X100814286Y-85116247D01*
X100814286Y-85116247D02*
X100814286Y-84973390D01*
X100814286Y-84973390D02*
X100861905Y-84782914D01*
X100861905Y-84782914D02*
X100909524Y-84687676D01*
X100909524Y-84687676D02*
X101004762Y-84592438D01*
X101004762Y-84592438D02*
X101147619Y-84544819D01*
X101147619Y-84544819D02*
X101242857Y-84544819D01*
X101242857Y-84544819D02*
X101385714Y-84592438D01*
X101385714Y-84592438D02*
X101433333Y-84640057D01*
X101766667Y-84544819D02*
X102385714Y-84544819D01*
X102385714Y-84544819D02*
X102052381Y-84925771D01*
X102052381Y-84925771D02*
X102195238Y-84925771D01*
X102195238Y-84925771D02*
X102290476Y-84973390D01*
X102290476Y-84973390D02*
X102338095Y-85021009D01*
X102338095Y-85021009D02*
X102385714Y-85116247D01*
X102385714Y-85116247D02*
X102385714Y-85354342D01*
X102385714Y-85354342D02*
X102338095Y-85449580D01*
X102338095Y-85449580D02*
X102290476Y-85497200D01*
X102290476Y-85497200D02*
X102195238Y-85544819D01*
X102195238Y-85544819D02*
X101909524Y-85544819D01*
X101909524Y-85544819D02*
X101814286Y-85497200D01*
X101814286Y-85497200D02*
X101766667Y-85449580D01*
X104925952Y-85544819D02*
X104354524Y-85544819D01*
X104640238Y-85544819D02*
X104640238Y-84544819D01*
X104640238Y-84544819D02*
X104545000Y-84687676D01*
X104545000Y-84687676D02*
X104449762Y-84782914D01*
X104449762Y-84782914D02*
X104354524Y-84830533D01*
X105545000Y-84544819D02*
X105640238Y-84544819D01*
X105640238Y-84544819D02*
X105735476Y-84592438D01*
X105735476Y-84592438D02*
X105783095Y-84640057D01*
X105783095Y-84640057D02*
X105830714Y-84735295D01*
X105830714Y-84735295D02*
X105878333Y-84925771D01*
X105878333Y-84925771D02*
X105878333Y-85163866D01*
X105878333Y-85163866D02*
X105830714Y-85354342D01*
X105830714Y-85354342D02*
X105783095Y-85449580D01*
X105783095Y-85449580D02*
X105735476Y-85497200D01*
X105735476Y-85497200D02*
X105640238Y-85544819D01*
X105640238Y-85544819D02*
X105545000Y-85544819D01*
X105545000Y-85544819D02*
X105449762Y-85497200D01*
X105449762Y-85497200D02*
X105402143Y-85449580D01*
X105402143Y-85449580D02*
X105354524Y-85354342D01*
X105354524Y-85354342D02*
X105306905Y-85163866D01*
X105306905Y-85163866D02*
X105306905Y-84925771D01*
X105306905Y-84925771D02*
X105354524Y-84735295D01*
X105354524Y-84735295D02*
X105402143Y-84640057D01*
X105402143Y-84640057D02*
X105449762Y-84592438D01*
X105449762Y-84592438D02*
X105545000Y-84544819D01*
X106497381Y-84544819D02*
X106592619Y-84544819D01*
X106592619Y-84544819D02*
X106687857Y-84592438D01*
X106687857Y-84592438D02*
X106735476Y-84640057D01*
X106735476Y-84640057D02*
X106783095Y-84735295D01*
X106783095Y-84735295D02*
X106830714Y-84925771D01*
X106830714Y-84925771D02*
X106830714Y-85163866D01*
X106830714Y-85163866D02*
X106783095Y-85354342D01*
X106783095Y-85354342D02*
X106735476Y-85449580D01*
X106735476Y-85449580D02*
X106687857Y-85497200D01*
X106687857Y-85497200D02*
X106592619Y-85544819D01*
X106592619Y-85544819D02*
X106497381Y-85544819D01*
X106497381Y-85544819D02*
X106402143Y-85497200D01*
X106402143Y-85497200D02*
X106354524Y-85449580D01*
X106354524Y-85449580D02*
X106306905Y-85354342D01*
X106306905Y-85354342D02*
X106259286Y-85163866D01*
X106259286Y-85163866D02*
X106259286Y-84925771D01*
X106259286Y-84925771D02*
X106306905Y-84735295D01*
X106306905Y-84735295D02*
X106354524Y-84640057D01*
X106354524Y-84640057D02*
X106402143Y-84592438D01*
X106402143Y-84592438D02*
X106497381Y-84544819D01*
X107687857Y-84878152D02*
X107687857Y-85544819D01*
X107259286Y-84878152D02*
X107259286Y-85401961D01*
X107259286Y-85401961D02*
X107306905Y-85497200D01*
X107306905Y-85497200D02*
X107402143Y-85544819D01*
X107402143Y-85544819D02*
X107545000Y-85544819D01*
X107545000Y-85544819D02*
X107640238Y-85497200D01*
X107640238Y-85497200D02*
X107687857Y-85449580D01*
X143406905Y-89989819D02*
X143406905Y-88989819D01*
X143406905Y-88989819D02*
X143645000Y-88989819D01*
X143645000Y-88989819D02*
X143787857Y-89037438D01*
X143787857Y-89037438D02*
X143883095Y-89132676D01*
X143883095Y-89132676D02*
X143930714Y-89227914D01*
X143930714Y-89227914D02*
X143978333Y-89418390D01*
X143978333Y-89418390D02*
X143978333Y-89561247D01*
X143978333Y-89561247D02*
X143930714Y-89751723D01*
X143930714Y-89751723D02*
X143883095Y-89846961D01*
X143883095Y-89846961D02*
X143787857Y-89942200D01*
X143787857Y-89942200D02*
X143645000Y-89989819D01*
X143645000Y-89989819D02*
X143406905Y-89989819D01*
X144835476Y-89323152D02*
X144835476Y-89989819D01*
X144597381Y-88942200D02*
X144359286Y-89656485D01*
X144359286Y-89656485D02*
X144978333Y-89656485D01*
X142708571Y-88084819D02*
X142137143Y-88084819D01*
X142422857Y-88084819D02*
X142422857Y-87084819D01*
X142422857Y-87084819D02*
X142327619Y-87227676D01*
X142327619Y-87227676D02*
X142232381Y-87322914D01*
X142232381Y-87322914D02*
X142137143Y-87370533D01*
X143137143Y-87418152D02*
X143137143Y-88084819D01*
X143137143Y-87513390D02*
X143184762Y-87465771D01*
X143184762Y-87465771D02*
X143280000Y-87418152D01*
X143280000Y-87418152D02*
X143422857Y-87418152D01*
X143422857Y-87418152D02*
X143518095Y-87465771D01*
X143518095Y-87465771D02*
X143565714Y-87561009D01*
X143565714Y-87561009D02*
X143565714Y-88084819D01*
X144518095Y-87084819D02*
X144041905Y-87084819D01*
X144041905Y-87084819D02*
X143994286Y-87561009D01*
X143994286Y-87561009D02*
X144041905Y-87513390D01*
X144041905Y-87513390D02*
X144137143Y-87465771D01*
X144137143Y-87465771D02*
X144375238Y-87465771D01*
X144375238Y-87465771D02*
X144470476Y-87513390D01*
X144470476Y-87513390D02*
X144518095Y-87561009D01*
X144518095Y-87561009D02*
X144565714Y-87656247D01*
X144565714Y-87656247D02*
X144565714Y-87894342D01*
X144565714Y-87894342D02*
X144518095Y-87989580D01*
X144518095Y-87989580D02*
X144470476Y-88037200D01*
X144470476Y-88037200D02*
X144375238Y-88084819D01*
X144375238Y-88084819D02*
X144137143Y-88084819D01*
X144137143Y-88084819D02*
X144041905Y-88037200D01*
X144041905Y-88037200D02*
X143994286Y-87989580D01*
X145137143Y-87513390D02*
X145041905Y-87465771D01*
X145041905Y-87465771D02*
X144994286Y-87418152D01*
X144994286Y-87418152D02*
X144946667Y-87322914D01*
X144946667Y-87322914D02*
X144946667Y-87275295D01*
X144946667Y-87275295D02*
X144994286Y-87180057D01*
X144994286Y-87180057D02*
X145041905Y-87132438D01*
X145041905Y-87132438D02*
X145137143Y-87084819D01*
X145137143Y-87084819D02*
X145327619Y-87084819D01*
X145327619Y-87084819D02*
X145422857Y-87132438D01*
X145422857Y-87132438D02*
X145470476Y-87180057D01*
X145470476Y-87180057D02*
X145518095Y-87275295D01*
X145518095Y-87275295D02*
X145518095Y-87322914D01*
X145518095Y-87322914D02*
X145470476Y-87418152D01*
X145470476Y-87418152D02*
X145422857Y-87465771D01*
X145422857Y-87465771D02*
X145327619Y-87513390D01*
X145327619Y-87513390D02*
X145137143Y-87513390D01*
X145137143Y-87513390D02*
X145041905Y-87561009D01*
X145041905Y-87561009D02*
X144994286Y-87608628D01*
X144994286Y-87608628D02*
X144946667Y-87703866D01*
X144946667Y-87703866D02*
X144946667Y-87894342D01*
X144946667Y-87894342D02*
X144994286Y-87989580D01*
X144994286Y-87989580D02*
X145041905Y-88037200D01*
X145041905Y-88037200D02*
X145137143Y-88084819D01*
X145137143Y-88084819D02*
X145327619Y-88084819D01*
X145327619Y-88084819D02*
X145422857Y-88037200D01*
X145422857Y-88037200D02*
X145470476Y-87989580D01*
X145470476Y-87989580D02*
X145518095Y-87894342D01*
X145518095Y-87894342D02*
X145518095Y-87703866D01*
X145518095Y-87703866D02*
X145470476Y-87608628D01*
X145470476Y-87608628D02*
X145422857Y-87561009D01*
X145422857Y-87561009D02*
X145327619Y-87513390D01*
X146470476Y-88084819D02*
X145899048Y-88084819D01*
X146184762Y-88084819D02*
X146184762Y-87084819D01*
X146184762Y-87084819D02*
X146089524Y-87227676D01*
X146089524Y-87227676D02*
X145994286Y-87322914D01*
X145994286Y-87322914D02*
X145899048Y-87370533D01*
X146803810Y-87084819D02*
X147470476Y-87084819D01*
X147470476Y-87084819D02*
X147041905Y-88084819D01*
X138803095Y-86954819D02*
X138803095Y-85954819D01*
X139374523Y-86954819D02*
X138945952Y-86383390D01*
X139374523Y-85954819D02*
X138803095Y-86526247D01*
X138803095Y-86954819D02*
X138803095Y-85954819D01*
X139374523Y-86954819D02*
X138945952Y-86383390D01*
X139374523Y-85954819D02*
X138803095Y-86526247D01*
X104718221Y-78969580D02*
X104670602Y-79017200D01*
X104670602Y-79017200D02*
X104527745Y-79064819D01*
X104527745Y-79064819D02*
X104432507Y-79064819D01*
X104432507Y-79064819D02*
X104289650Y-79017200D01*
X104289650Y-79017200D02*
X104194412Y-78921961D01*
X104194412Y-78921961D02*
X104146793Y-78826723D01*
X104146793Y-78826723D02*
X104099174Y-78636247D01*
X104099174Y-78636247D02*
X104099174Y-78493390D01*
X104099174Y-78493390D02*
X104146793Y-78302914D01*
X104146793Y-78302914D02*
X104194412Y-78207676D01*
X104194412Y-78207676D02*
X104289650Y-78112438D01*
X104289650Y-78112438D02*
X104432507Y-78064819D01*
X104432507Y-78064819D02*
X104527745Y-78064819D01*
X104527745Y-78064819D02*
X104670602Y-78112438D01*
X104670602Y-78112438D02*
X104718221Y-78160057D01*
X105099174Y-78160057D02*
X105146793Y-78112438D01*
X105146793Y-78112438D02*
X105242031Y-78064819D01*
X105242031Y-78064819D02*
X105480126Y-78064819D01*
X105480126Y-78064819D02*
X105575364Y-78112438D01*
X105575364Y-78112438D02*
X105622983Y-78160057D01*
X105622983Y-78160057D02*
X105670602Y-78255295D01*
X105670602Y-78255295D02*
X105670602Y-78350533D01*
X105670602Y-78350533D02*
X105622983Y-78493390D01*
X105622983Y-78493390D02*
X105051555Y-79064819D01*
X105051555Y-79064819D02*
X105670602Y-79064819D01*
X100661904Y-77288152D02*
X100661904Y-77954819D01*
X100423809Y-76907200D02*
X100185714Y-77621485D01*
X100185714Y-77621485D02*
X100804761Y-77621485D01*
X101090476Y-76954819D02*
X101757142Y-76954819D01*
X101757142Y-76954819D02*
X101328571Y-77954819D01*
X102566666Y-77288152D02*
X102566666Y-77954819D01*
X102138095Y-77288152D02*
X102138095Y-77811961D01*
X102138095Y-77811961D02*
X102185714Y-77907200D01*
X102185714Y-77907200D02*
X102280952Y-77954819D01*
X102280952Y-77954819D02*
X102423809Y-77954819D01*
X102423809Y-77954819D02*
X102519047Y-77907200D01*
X102519047Y-77907200D02*
X102566666Y-77859580D01*
X143561905Y-85089819D02*
X143561905Y-84089819D01*
X143561905Y-84089819D02*
X143800000Y-84089819D01*
X143800000Y-84089819D02*
X143942857Y-84137438D01*
X143942857Y-84137438D02*
X144038095Y-84232676D01*
X144038095Y-84232676D02*
X144085714Y-84327914D01*
X144085714Y-84327914D02*
X144133333Y-84518390D01*
X144133333Y-84518390D02*
X144133333Y-84661247D01*
X144133333Y-84661247D02*
X144085714Y-84851723D01*
X144085714Y-84851723D02*
X144038095Y-84946961D01*
X144038095Y-84946961D02*
X143942857Y-85042200D01*
X143942857Y-85042200D02*
X143800000Y-85089819D01*
X143800000Y-85089819D02*
X143561905Y-85089819D01*
X145085714Y-85089819D02*
X144514286Y-85089819D01*
X144800000Y-85089819D02*
X144800000Y-84089819D01*
X144800000Y-84089819D02*
X144704762Y-84232676D01*
X144704762Y-84232676D02*
X144609524Y-84327914D01*
X144609524Y-84327914D02*
X144514286Y-84375533D01*
X142228571Y-83184819D02*
X141657143Y-83184819D01*
X141942857Y-83184819D02*
X141942857Y-82184819D01*
X141942857Y-82184819D02*
X141847619Y-82327676D01*
X141847619Y-82327676D02*
X141752381Y-82422914D01*
X141752381Y-82422914D02*
X141657143Y-82470533D01*
X142657143Y-82518152D02*
X142657143Y-83184819D01*
X142657143Y-82613390D02*
X142704762Y-82565771D01*
X142704762Y-82565771D02*
X142800000Y-82518152D01*
X142800000Y-82518152D02*
X142942857Y-82518152D01*
X142942857Y-82518152D02*
X143038095Y-82565771D01*
X143038095Y-82565771D02*
X143085714Y-82661009D01*
X143085714Y-82661009D02*
X143085714Y-83184819D01*
X144038095Y-82184819D02*
X143561905Y-82184819D01*
X143561905Y-82184819D02*
X143514286Y-82661009D01*
X143514286Y-82661009D02*
X143561905Y-82613390D01*
X143561905Y-82613390D02*
X143657143Y-82565771D01*
X143657143Y-82565771D02*
X143895238Y-82565771D01*
X143895238Y-82565771D02*
X143990476Y-82613390D01*
X143990476Y-82613390D02*
X144038095Y-82661009D01*
X144038095Y-82661009D02*
X144085714Y-82756247D01*
X144085714Y-82756247D02*
X144085714Y-82994342D01*
X144085714Y-82994342D02*
X144038095Y-83089580D01*
X144038095Y-83089580D02*
X143990476Y-83137200D01*
X143990476Y-83137200D02*
X143895238Y-83184819D01*
X143895238Y-83184819D02*
X143657143Y-83184819D01*
X143657143Y-83184819D02*
X143561905Y-83137200D01*
X143561905Y-83137200D02*
X143514286Y-83089580D01*
X144657143Y-82613390D02*
X144561905Y-82565771D01*
X144561905Y-82565771D02*
X144514286Y-82518152D01*
X144514286Y-82518152D02*
X144466667Y-82422914D01*
X144466667Y-82422914D02*
X144466667Y-82375295D01*
X144466667Y-82375295D02*
X144514286Y-82280057D01*
X144514286Y-82280057D02*
X144561905Y-82232438D01*
X144561905Y-82232438D02*
X144657143Y-82184819D01*
X144657143Y-82184819D02*
X144847619Y-82184819D01*
X144847619Y-82184819D02*
X144942857Y-82232438D01*
X144942857Y-82232438D02*
X144990476Y-82280057D01*
X144990476Y-82280057D02*
X145038095Y-82375295D01*
X145038095Y-82375295D02*
X145038095Y-82422914D01*
X145038095Y-82422914D02*
X144990476Y-82518152D01*
X144990476Y-82518152D02*
X144942857Y-82565771D01*
X144942857Y-82565771D02*
X144847619Y-82613390D01*
X144847619Y-82613390D02*
X144657143Y-82613390D01*
X144657143Y-82613390D02*
X144561905Y-82661009D01*
X144561905Y-82661009D02*
X144514286Y-82708628D01*
X144514286Y-82708628D02*
X144466667Y-82803866D01*
X144466667Y-82803866D02*
X144466667Y-82994342D01*
X144466667Y-82994342D02*
X144514286Y-83089580D01*
X144514286Y-83089580D02*
X144561905Y-83137200D01*
X144561905Y-83137200D02*
X144657143Y-83184819D01*
X144657143Y-83184819D02*
X144847619Y-83184819D01*
X144847619Y-83184819D02*
X144942857Y-83137200D01*
X144942857Y-83137200D02*
X144990476Y-83089580D01*
X144990476Y-83089580D02*
X145038095Y-82994342D01*
X145038095Y-82994342D02*
X145038095Y-82803866D01*
X145038095Y-82803866D02*
X144990476Y-82708628D01*
X144990476Y-82708628D02*
X144942857Y-82661009D01*
X144942857Y-82661009D02*
X144847619Y-82613390D01*
X145990476Y-83184819D02*
X145419048Y-83184819D01*
X145704762Y-83184819D02*
X145704762Y-82184819D01*
X145704762Y-82184819D02*
X145609524Y-82327676D01*
X145609524Y-82327676D02*
X145514286Y-82422914D01*
X145514286Y-82422914D02*
X145419048Y-82470533D01*
X146323810Y-82184819D02*
X146990476Y-82184819D01*
X146990476Y-82184819D02*
X146561905Y-83184819D01*
X138958095Y-82054819D02*
X138958095Y-81054819D01*
X139529523Y-82054819D02*
X139100952Y-81483390D01*
X139529523Y-81054819D02*
X138958095Y-81626247D01*
X138958095Y-82054819D02*
X138958095Y-81054819D01*
X139529523Y-82054819D02*
X139100952Y-81483390D01*
X139529523Y-81054819D02*
X138958095Y-81626247D01*
X142740238Y-79250057D02*
X142787857Y-79202438D01*
X142787857Y-79202438D02*
X142883095Y-79154819D01*
X142883095Y-79154819D02*
X143121190Y-79154819D01*
X143121190Y-79154819D02*
X143216428Y-79202438D01*
X143216428Y-79202438D02*
X143264047Y-79250057D01*
X143264047Y-79250057D02*
X143311666Y-79345295D01*
X143311666Y-79345295D02*
X143311666Y-79440533D01*
X143311666Y-79440533D02*
X143264047Y-79583390D01*
X143264047Y-79583390D02*
X142692619Y-80154819D01*
X142692619Y-80154819D02*
X143311666Y-80154819D01*
X143740238Y-80059580D02*
X143787857Y-80107200D01*
X143787857Y-80107200D02*
X143740238Y-80154819D01*
X143740238Y-80154819D02*
X143692619Y-80107200D01*
X143692619Y-80107200D02*
X143740238Y-80059580D01*
X143740238Y-80059580D02*
X143740238Y-80154819D01*
X144168809Y-79250057D02*
X144216428Y-79202438D01*
X144216428Y-79202438D02*
X144311666Y-79154819D01*
X144311666Y-79154819D02*
X144549761Y-79154819D01*
X144549761Y-79154819D02*
X144644999Y-79202438D01*
X144644999Y-79202438D02*
X144692618Y-79250057D01*
X144692618Y-79250057D02*
X144740237Y-79345295D01*
X144740237Y-79345295D02*
X144740237Y-79440533D01*
X144740237Y-79440533D02*
X144692618Y-79583390D01*
X144692618Y-79583390D02*
X144121190Y-80154819D01*
X144121190Y-80154819D02*
X144740237Y-80154819D01*
X145168809Y-80154819D02*
X145168809Y-79154819D01*
X145264047Y-79773866D02*
X145549761Y-80154819D01*
X145549761Y-79488152D02*
X145168809Y-79869104D01*
X140016666Y-69939819D02*
X140016666Y-70654104D01*
X140016666Y-70654104D02*
X139969047Y-70796961D01*
X139969047Y-70796961D02*
X139873809Y-70892200D01*
X139873809Y-70892200D02*
X139730952Y-70939819D01*
X139730952Y-70939819D02*
X139635714Y-70939819D01*
X141016666Y-70939819D02*
X140445238Y-70939819D01*
X140730952Y-70939819D02*
X140730952Y-69939819D01*
X140730952Y-69939819D02*
X140635714Y-70082676D01*
X140635714Y-70082676D02*
X140540476Y-70177914D01*
X140540476Y-70177914D02*
X140445238Y-70225533D01*
D11*
X107749759Y-73461000D02*
X108379759Y-73461000D01*
X108064759Y-73146000D02*
X108064759Y-73776000D01*
D12*
X108556028Y-73926500D02*
X109186028Y-73926500D01*
X108871028Y-73611500D02*
X108871028Y-74241500D01*
D11*
X111250000Y-72070000D02*
X111250000Y-78530000D01*
X111290000Y-72070000D02*
X111290000Y-78530000D01*
X111330000Y-72070000D02*
X111330000Y-78530000D01*
X111370000Y-72072000D02*
X111370000Y-78528000D01*
X111410000Y-72073000D02*
X111410000Y-78527000D01*
X111450000Y-72076000D02*
X111450000Y-78524000D01*
X111490000Y-72078000D02*
X111490000Y-74260000D01*
X111490000Y-76340000D02*
X111490000Y-78522000D01*
X111530000Y-72082000D02*
X111530000Y-74260000D01*
X111530000Y-76340000D02*
X111530000Y-78518000D01*
X111570000Y-72085000D02*
X111570000Y-74260000D01*
X111570000Y-76340000D02*
X111570000Y-78515000D01*
X111610000Y-72089000D02*
X111610000Y-74260000D01*
X111610000Y-76340000D02*
X111610000Y-78511000D01*
X111650000Y-72094000D02*
X111650000Y-74260000D01*
X111650000Y-76340000D02*
X111650000Y-78506000D01*
X111690000Y-72099000D02*
X111690000Y-74260000D01*
X111690000Y-76340000D02*
X111690000Y-78501000D01*
X111730000Y-72105000D02*
X111730000Y-74260000D01*
X111730000Y-76340000D02*
X111730000Y-78495000D01*
X111770000Y-72111000D02*
X111770000Y-74260000D01*
X111770000Y-76340000D02*
X111770000Y-78489000D01*
X111810000Y-72118000D02*
X111810000Y-74260000D01*
X111810000Y-76340000D02*
X111810000Y-78482000D01*
X111850000Y-72125000D02*
X111850000Y-74260000D01*
X111850000Y-76340000D02*
X111850000Y-78475000D01*
X111890000Y-72133000D02*
X111890000Y-74260000D01*
X111890000Y-76340000D02*
X111890000Y-78467000D01*
X111930000Y-72141000D02*
X111930000Y-74260000D01*
X111930000Y-76340000D02*
X111930000Y-78459000D01*
X111971000Y-72150000D02*
X111971000Y-74260000D01*
X111971000Y-76340000D02*
X111971000Y-78450000D01*
X112011000Y-72159000D02*
X112011000Y-74260000D01*
X112011000Y-76340000D02*
X112011000Y-78441000D01*
X112051000Y-72169000D02*
X112051000Y-74260000D01*
X112051000Y-76340000D02*
X112051000Y-78431000D01*
X112091000Y-72179000D02*
X112091000Y-74260000D01*
X112091000Y-76340000D02*
X112091000Y-78421000D01*
X112131000Y-72190000D02*
X112131000Y-74260000D01*
X112131000Y-76340000D02*
X112131000Y-78410000D01*
X112171000Y-72202000D02*
X112171000Y-74260000D01*
X112171000Y-76340000D02*
X112171000Y-78398000D01*
X112211000Y-72214000D02*
X112211000Y-74260000D01*
X112211000Y-76340000D02*
X112211000Y-78386000D01*
X112251000Y-72226000D02*
X112251000Y-74260000D01*
X112251000Y-76340000D02*
X112251000Y-78374000D01*
X112291000Y-72239000D02*
X112291000Y-74260000D01*
X112291000Y-76340000D02*
X112291000Y-78361000D01*
X112331000Y-72253000D02*
X112331000Y-74260000D01*
X112331000Y-76340000D02*
X112331000Y-78347000D01*
X112371000Y-72267000D02*
X112371000Y-74260000D01*
X112371000Y-76340000D02*
X112371000Y-78333000D01*
X112411000Y-72282000D02*
X112411000Y-74260000D01*
X112411000Y-76340000D02*
X112411000Y-78318000D01*
X112451000Y-72298000D02*
X112451000Y-74260000D01*
X112451000Y-76340000D02*
X112451000Y-78302000D01*
X112491000Y-72314000D02*
X112491000Y-74260000D01*
X112491000Y-76340000D02*
X112491000Y-78286000D01*
X112531000Y-72330000D02*
X112531000Y-74260000D01*
X112531000Y-76340000D02*
X112531000Y-78270000D01*
X112571000Y-72348000D02*
X112571000Y-74260000D01*
X112571000Y-76340000D02*
X112571000Y-78252000D01*
X112611000Y-72366000D02*
X112611000Y-74260000D01*
X112611000Y-76340000D02*
X112611000Y-78234000D01*
X112651000Y-72384000D02*
X112651000Y-74260000D01*
X112651000Y-76340000D02*
X112651000Y-78216000D01*
X112691000Y-72404000D02*
X112691000Y-74260000D01*
X112691000Y-76340000D02*
X112691000Y-78196000D01*
X112731000Y-72424000D02*
X112731000Y-74260000D01*
X112731000Y-76340000D02*
X112731000Y-78176000D01*
X112771000Y-72444000D02*
X112771000Y-74260000D01*
X112771000Y-76340000D02*
X112771000Y-78156000D01*
X112811000Y-72466000D02*
X112811000Y-74260000D01*
X112811000Y-76340000D02*
X112811000Y-78134000D01*
X112851000Y-72488000D02*
X112851000Y-74260000D01*
X112851000Y-76340000D02*
X112851000Y-78112000D01*
X112891000Y-72510000D02*
X112891000Y-74260000D01*
X112891000Y-76340000D02*
X112891000Y-78090000D01*
X112931000Y-72534000D02*
X112931000Y-74260000D01*
X112931000Y-76340000D02*
X112931000Y-78066000D01*
X112971000Y-72558000D02*
X112971000Y-74260000D01*
X112971000Y-76340000D02*
X112971000Y-78042000D01*
X113011000Y-72584000D02*
X113011000Y-74260000D01*
X113011000Y-76340000D02*
X113011000Y-78016000D01*
X113051000Y-72610000D02*
X113051000Y-74260000D01*
X113051000Y-76340000D02*
X113051000Y-77990000D01*
X113091000Y-72636000D02*
X113091000Y-74260000D01*
X113091000Y-76340000D02*
X113091000Y-77964000D01*
X113131000Y-72664000D02*
X113131000Y-74260000D01*
X113131000Y-76340000D02*
X113131000Y-77936000D01*
X113171000Y-72693000D02*
X113171000Y-74260000D01*
X113171000Y-76340000D02*
X113171000Y-77907000D01*
X113211000Y-72722000D02*
X113211000Y-74260000D01*
X113211000Y-76340000D02*
X113211000Y-77878000D01*
X113251000Y-72752000D02*
X113251000Y-74260000D01*
X113251000Y-76340000D02*
X113251000Y-77848000D01*
X113291000Y-72784000D02*
X113291000Y-74260000D01*
X113291000Y-76340000D02*
X113291000Y-77816000D01*
X113331000Y-72816000D02*
X113331000Y-74260000D01*
X113331000Y-76340000D02*
X113331000Y-77784000D01*
X113371000Y-72850000D02*
X113371000Y-74260000D01*
X113371000Y-76340000D02*
X113371000Y-77750000D01*
X113411000Y-72884000D02*
X113411000Y-74260000D01*
X113411000Y-76340000D02*
X113411000Y-77716000D01*
X113451000Y-72920000D02*
X113451000Y-74260000D01*
X113451000Y-76340000D02*
X113451000Y-77680000D01*
X113491000Y-72957000D02*
X113491000Y-74260000D01*
X113491000Y-76340000D02*
X113491000Y-77643000D01*
X113531000Y-72995000D02*
X113531000Y-74260000D01*
X113531000Y-76340000D02*
X113531000Y-77605000D01*
X113571000Y-73035000D02*
X113571000Y-77565000D01*
X113611000Y-73076000D02*
X113611000Y-77524000D01*
X113651000Y-73118000D02*
X113651000Y-77482000D01*
X113691000Y-73163000D02*
X113691000Y-77437000D01*
X113731000Y-73208000D02*
X113731000Y-77392000D01*
X113771000Y-73256000D02*
X113771000Y-77344000D01*
X113811000Y-73305000D02*
X113811000Y-77295000D01*
X113851000Y-73356000D02*
X113851000Y-77244000D01*
X113891000Y-73410000D02*
X113891000Y-77190000D01*
X113931000Y-73466000D02*
X113931000Y-77134000D01*
X113971000Y-73524000D02*
X113971000Y-77076000D01*
X114011000Y-73586000D02*
X114011000Y-77014000D01*
X114051000Y-73650000D02*
X114051000Y-76950000D01*
X114091000Y-73719000D02*
X114091000Y-76881000D01*
X114131000Y-73791000D02*
X114131000Y-76809000D01*
X114171000Y-73868000D02*
X114171000Y-76732000D01*
X114211000Y-73950000D02*
X114211000Y-76650000D01*
X114251000Y-74038000D02*
X114251000Y-76562000D01*
X114291000Y-74135000D02*
X114291000Y-76465000D01*
X114331000Y-74241000D02*
X114331000Y-76359000D01*
X114371000Y-74360000D02*
X114371000Y-76240000D01*
X114411000Y-74498000D02*
X114411000Y-76102000D01*
X114451000Y-74667000D02*
X114451000Y-75933000D01*
X114491000Y-74898000D02*
X114491000Y-75702000D01*
D12*
X114400000Y-75300000D02*
G75*
G03*
X108100000Y-75300000I-3150000J0D01*
G01*
X108100000Y-75300000D02*
G75*
G03*
X114400000Y-75300000I3150000J0D01*
G01*
D11*
X114520000Y-75300000D02*
G75*
G03*
X107980000Y-75300000I-3270000J0D01*
G01*
X107980000Y-75300000D02*
G75*
G03*
X114520000Y-75300000I3270000J0D01*
G01*
D12*
X110115000Y-87640000D02*
X111115000Y-88640000D01*
X100955000Y-87640000D02*
X110115000Y-87640000D01*
D11*
X111175000Y-88165000D02*
X100895000Y-88165000D01*
X100895000Y-88165000D02*
X100895000Y-93465000D01*
D12*
X111115000Y-88640000D02*
X111115000Y-93990000D01*
D11*
X111175000Y-89815000D02*
X111175000Y-88165000D01*
X111175000Y-93465000D02*
X111175000Y-91815000D01*
X100895000Y-93465000D02*
X111175000Y-93465000D01*
D12*
X111115000Y-93990000D02*
X100955000Y-93990000D01*
X100955000Y-93990000D02*
X100955000Y-87640000D01*
D11*
X111175000Y-89815000D02*
G75*
G03*
X111175000Y-91815000I0J-1000000D01*
G01*
D12*
X149225000Y-93345000D02*
X148595000Y-93345000D01*
D11*
X148715000Y-95315000D02*
X139575000Y-95315000D01*
X148715000Y-94985000D02*
X148715000Y-95315000D01*
X148715000Y-91705000D02*
X148715000Y-91375000D01*
X148715000Y-91375000D02*
X139575000Y-91375000D01*
D12*
X148595000Y-95195000D02*
X148595000Y-91495000D01*
X148595000Y-91495000D02*
X139695000Y-91495000D01*
D11*
X147380000Y-95315000D02*
X147380000Y-91375000D01*
D12*
X147360000Y-95195000D02*
X147360000Y-91495000D01*
D11*
X147260000Y-95315000D02*
X147260000Y-91375000D01*
D12*
X147260000Y-95195000D02*
X147260000Y-91495000D01*
X147160000Y-95195000D02*
X147160000Y-91495000D01*
D11*
X147140000Y-95315000D02*
X147140000Y-91375000D01*
D12*
X139695000Y-95195000D02*
X148595000Y-95195000D01*
X139695000Y-91495000D02*
X139695000Y-95195000D01*
D11*
X139575000Y-95315000D02*
X139575000Y-94985000D01*
X139575000Y-91375000D02*
X139575000Y-91705000D01*
D12*
X139065000Y-93345000D02*
X139695000Y-93345000D01*
D11*
X108365113Y-80440000D02*
X108865113Y-80440000D01*
X108615113Y-80190000D02*
X108615113Y-80690000D01*
D12*
X109036283Y-80827500D02*
X109536283Y-80827500D01*
X109286283Y-80577500D02*
X109286283Y-81077500D01*
D11*
X111169888Y-79335000D02*
X111169888Y-80875000D01*
X111169888Y-82955000D02*
X111169888Y-84495000D01*
X111209888Y-79335000D02*
X111209888Y-80875000D01*
X111209888Y-82955000D02*
X111209888Y-84495000D01*
X111249888Y-79336000D02*
X111249888Y-80875000D01*
X111249888Y-82955000D02*
X111249888Y-84494000D01*
X111289888Y-79337000D02*
X111289888Y-80875000D01*
X111289888Y-82955000D02*
X111289888Y-84493000D01*
X111329888Y-79339000D02*
X111329888Y-80875000D01*
X111329888Y-82955000D02*
X111329888Y-84491000D01*
X111369888Y-79342000D02*
X111369888Y-80875000D01*
X111369888Y-82955000D02*
X111369888Y-84488000D01*
X111409888Y-79346000D02*
X111409888Y-80875000D01*
X111409888Y-82955000D02*
X111409888Y-84484000D01*
X111449888Y-79350000D02*
X111449888Y-80875000D01*
X111449888Y-82955000D02*
X111449888Y-84480000D01*
X111489888Y-79354000D02*
X111489888Y-80875000D01*
X111489888Y-82955000D02*
X111489888Y-84476000D01*
X111529888Y-79359000D02*
X111529888Y-80875000D01*
X111529888Y-82955000D02*
X111529888Y-84471000D01*
X111569888Y-79365000D02*
X111569888Y-80875000D01*
X111569888Y-82955000D02*
X111569888Y-84465000D01*
X111609888Y-79372000D02*
X111609888Y-80875000D01*
X111609888Y-82955000D02*
X111609888Y-84458000D01*
X111649888Y-79379000D02*
X111649888Y-80875000D01*
X111649888Y-82955000D02*
X111649888Y-84451000D01*
X111689888Y-79387000D02*
X111689888Y-80875000D01*
X111689888Y-82955000D02*
X111689888Y-84443000D01*
X111729888Y-79395000D02*
X111729888Y-80875000D01*
X111729888Y-82955000D02*
X111729888Y-84435000D01*
X111769888Y-79404000D02*
X111769888Y-80875000D01*
X111769888Y-82955000D02*
X111769888Y-84426000D01*
X111809888Y-79414000D02*
X111809888Y-80875000D01*
X111809888Y-82955000D02*
X111809888Y-84416000D01*
X111849888Y-79424000D02*
X111849888Y-80875000D01*
X111849888Y-82955000D02*
X111849888Y-84406000D01*
X111890888Y-79435000D02*
X111890888Y-80875000D01*
X111890888Y-82955000D02*
X111890888Y-84395000D01*
X111930888Y-79447000D02*
X111930888Y-80875000D01*
X111930888Y-82955000D02*
X111930888Y-84383000D01*
X111970888Y-79460000D02*
X111970888Y-80875000D01*
X111970888Y-82955000D02*
X111970888Y-84370000D01*
X112010888Y-79473000D02*
X112010888Y-80875000D01*
X112010888Y-82955000D02*
X112010888Y-84357000D01*
X112050888Y-79487000D02*
X112050888Y-80875000D01*
X112050888Y-82955000D02*
X112050888Y-84343000D01*
X112090888Y-79501000D02*
X112090888Y-80875000D01*
X112090888Y-82955000D02*
X112090888Y-84329000D01*
X112130888Y-79517000D02*
X112130888Y-80875000D01*
X112130888Y-82955000D02*
X112130888Y-84313000D01*
X112170888Y-79533000D02*
X112170888Y-80875000D01*
X112170888Y-82955000D02*
X112170888Y-84297000D01*
X112210888Y-79550000D02*
X112210888Y-80875000D01*
X112210888Y-82955000D02*
X112210888Y-84280000D01*
X112250888Y-79567000D02*
X112250888Y-80875000D01*
X112250888Y-82955000D02*
X112250888Y-84263000D01*
X112290888Y-79586000D02*
X112290888Y-80875000D01*
X112290888Y-82955000D02*
X112290888Y-84244000D01*
X112330888Y-79605000D02*
X112330888Y-80875000D01*
X112330888Y-82955000D02*
X112330888Y-84225000D01*
X112370888Y-79625000D02*
X112370888Y-80875000D01*
X112370888Y-82955000D02*
X112370888Y-84205000D01*
X112410888Y-79647000D02*
X112410888Y-80875000D01*
X112410888Y-82955000D02*
X112410888Y-84183000D01*
X112450888Y-79668000D02*
X112450888Y-80875000D01*
X112450888Y-82955000D02*
X112450888Y-84162000D01*
X112490888Y-79691000D02*
X112490888Y-80875000D01*
X112490888Y-82955000D02*
X112490888Y-84139000D01*
X112530888Y-79715000D02*
X112530888Y-80875000D01*
X112530888Y-82955000D02*
X112530888Y-84115000D01*
X112570888Y-79740000D02*
X112570888Y-80875000D01*
X112570888Y-82955000D02*
X112570888Y-84090000D01*
X112610888Y-79766000D02*
X112610888Y-80875000D01*
X112610888Y-82955000D02*
X112610888Y-84064000D01*
X112650888Y-79793000D02*
X112650888Y-80875000D01*
X112650888Y-82955000D02*
X112650888Y-84037000D01*
X112690888Y-79820000D02*
X112690888Y-80875000D01*
X112690888Y-82955000D02*
X112690888Y-84010000D01*
X112730888Y-79850000D02*
X112730888Y-80875000D01*
X112730888Y-82955000D02*
X112730888Y-83980000D01*
X112770888Y-79880000D02*
X112770888Y-80875000D01*
X112770888Y-82955000D02*
X112770888Y-83950000D01*
X112810888Y-79911000D02*
X112810888Y-80875000D01*
X112810888Y-82955000D02*
X112810888Y-83919000D01*
X112850888Y-79944000D02*
X112850888Y-80875000D01*
X112850888Y-82955000D02*
X112850888Y-83886000D01*
X112890888Y-79978000D02*
X112890888Y-80875000D01*
X112890888Y-82955000D02*
X112890888Y-83852000D01*
X112930888Y-80014000D02*
X112930888Y-80875000D01*
X112930888Y-82955000D02*
X112930888Y-83816000D01*
X112970888Y-80051000D02*
X112970888Y-80875000D01*
X112970888Y-82955000D02*
X112970888Y-83779000D01*
X113010888Y-80089000D02*
X113010888Y-80875000D01*
X113010888Y-82955000D02*
X113010888Y-83741000D01*
X113050888Y-80130000D02*
X113050888Y-80875000D01*
X113050888Y-82955000D02*
X113050888Y-83700000D01*
X113090888Y-80172000D02*
X113090888Y-80875000D01*
X113090888Y-82955000D02*
X113090888Y-83658000D01*
X113130888Y-80216000D02*
X113130888Y-80875000D01*
X113130888Y-82955000D02*
X113130888Y-83614000D01*
X113170888Y-80262000D02*
X113170888Y-80875000D01*
X113170888Y-82955000D02*
X113170888Y-83568000D01*
X113210888Y-80310000D02*
X113210888Y-83520000D01*
X113250888Y-80361000D02*
X113250888Y-83469000D01*
X113290888Y-80415000D02*
X113290888Y-83415000D01*
X113330888Y-80472000D02*
X113330888Y-83358000D01*
X113370888Y-80532000D02*
X113370888Y-83298000D01*
X113410888Y-80596000D02*
X113410888Y-83234000D01*
X113450888Y-80664000D02*
X113450888Y-83166000D01*
X113490888Y-80737000D02*
X113490888Y-83093000D01*
X113530888Y-80817000D02*
X113530888Y-83013000D01*
X113570888Y-80904000D02*
X113570888Y-82926000D01*
X113610888Y-81000000D02*
X113610888Y-82830000D01*
X113650888Y-81110000D02*
X113650888Y-82720000D01*
X113690888Y-81238000D02*
X113690888Y-82592000D01*
X113730888Y-81397000D02*
X113730888Y-82433000D01*
X113770888Y-81631000D02*
X113770888Y-82199000D01*
D12*
X113669888Y-81915000D02*
G75*
G03*
X108669888Y-81915000I-2500000J0D01*
G01*
X108669888Y-81915000D02*
G75*
G03*
X113669888Y-81915000I2500000J0D01*
G01*
D11*
X113789888Y-81915000D02*
G75*
G03*
X108549888Y-81915000I-2620000J0D01*
G01*
X108549888Y-81915000D02*
G75*
G03*
X113789888Y-81915000I2620000J0D01*
G01*
X100707380Y-79441000D02*
X101337380Y-79441000D01*
X101022380Y-79126000D02*
X101022380Y-79756000D01*
D12*
X101513649Y-79906500D02*
X102143649Y-79906500D01*
X101828649Y-79591500D02*
X101828649Y-80221500D01*
D11*
X104207621Y-78050000D02*
X104207621Y-84510000D01*
X104247621Y-78050000D02*
X104247621Y-84510000D01*
X104287621Y-78050000D02*
X104287621Y-84510000D01*
X104327621Y-78052000D02*
X104327621Y-84508000D01*
X104367621Y-78053000D02*
X104367621Y-84507000D01*
X104407621Y-78056000D02*
X104407621Y-84504000D01*
X104447621Y-78058000D02*
X104447621Y-80240000D01*
X104447621Y-82320000D02*
X104447621Y-84502000D01*
X104487621Y-78062000D02*
X104487621Y-80240000D01*
X104487621Y-82320000D02*
X104487621Y-84498000D01*
X104527621Y-78065000D02*
X104527621Y-80240000D01*
X104527621Y-82320000D02*
X104527621Y-84495000D01*
X104567621Y-78069000D02*
X104567621Y-80240000D01*
X104567621Y-82320000D02*
X104567621Y-84491000D01*
X104607621Y-78074000D02*
X104607621Y-80240000D01*
X104607621Y-82320000D02*
X104607621Y-84486000D01*
X104647621Y-78079000D02*
X104647621Y-80240000D01*
X104647621Y-82320000D02*
X104647621Y-84481000D01*
X104687621Y-78085000D02*
X104687621Y-80240000D01*
X104687621Y-82320000D02*
X104687621Y-84475000D01*
X104727621Y-78091000D02*
X104727621Y-80240000D01*
X104727621Y-82320000D02*
X104727621Y-84469000D01*
X104767621Y-78098000D02*
X104767621Y-80240000D01*
X104767621Y-82320000D02*
X104767621Y-84462000D01*
X104807621Y-78105000D02*
X104807621Y-80240000D01*
X104807621Y-82320000D02*
X104807621Y-84455000D01*
X104847621Y-78113000D02*
X104847621Y-80240000D01*
X104847621Y-82320000D02*
X104847621Y-84447000D01*
X104887621Y-78121000D02*
X104887621Y-80240000D01*
X104887621Y-82320000D02*
X104887621Y-84439000D01*
X104928621Y-78130000D02*
X104928621Y-80240000D01*
X104928621Y-82320000D02*
X104928621Y-84430000D01*
X104968621Y-78139000D02*
X104968621Y-80240000D01*
X104968621Y-82320000D02*
X104968621Y-84421000D01*
X105008621Y-78149000D02*
X105008621Y-80240000D01*
X105008621Y-82320000D02*
X105008621Y-84411000D01*
X105048621Y-78159000D02*
X105048621Y-80240000D01*
X105048621Y-82320000D02*
X105048621Y-84401000D01*
X105088621Y-78170000D02*
X105088621Y-80240000D01*
X105088621Y-82320000D02*
X105088621Y-84390000D01*
X105128621Y-78182000D02*
X105128621Y-80240000D01*
X105128621Y-82320000D02*
X105128621Y-84378000D01*
X105168621Y-78194000D02*
X105168621Y-80240000D01*
X105168621Y-82320000D02*
X105168621Y-84366000D01*
X105208621Y-78206000D02*
X105208621Y-80240000D01*
X105208621Y-82320000D02*
X105208621Y-84354000D01*
X105248621Y-78219000D02*
X105248621Y-80240000D01*
X105248621Y-82320000D02*
X105248621Y-84341000D01*
X105288621Y-78233000D02*
X105288621Y-80240000D01*
X105288621Y-82320000D02*
X105288621Y-84327000D01*
X105328621Y-78247000D02*
X105328621Y-80240000D01*
X105328621Y-82320000D02*
X105328621Y-84313000D01*
X105368621Y-78262000D02*
X105368621Y-80240000D01*
X105368621Y-82320000D02*
X105368621Y-84298000D01*
X105408621Y-78278000D02*
X105408621Y-80240000D01*
X105408621Y-82320000D02*
X105408621Y-84282000D01*
X105448621Y-78294000D02*
X105448621Y-80240000D01*
X105448621Y-82320000D02*
X105448621Y-84266000D01*
X105488621Y-78310000D02*
X105488621Y-80240000D01*
X105488621Y-82320000D02*
X105488621Y-84250000D01*
X105528621Y-78328000D02*
X105528621Y-80240000D01*
X105528621Y-82320000D02*
X105528621Y-84232000D01*
X105568621Y-78346000D02*
X105568621Y-80240000D01*
X105568621Y-82320000D02*
X105568621Y-84214000D01*
X105608621Y-78364000D02*
X105608621Y-80240000D01*
X105608621Y-82320000D02*
X105608621Y-84196000D01*
X105648621Y-78384000D02*
X105648621Y-80240000D01*
X105648621Y-82320000D02*
X105648621Y-84176000D01*
X105688621Y-78404000D02*
X105688621Y-80240000D01*
X105688621Y-82320000D02*
X105688621Y-84156000D01*
X105728621Y-78424000D02*
X105728621Y-80240000D01*
X105728621Y-82320000D02*
X105728621Y-84136000D01*
X105768621Y-78446000D02*
X105768621Y-80240000D01*
X105768621Y-82320000D02*
X105768621Y-84114000D01*
X105808621Y-78468000D02*
X105808621Y-80240000D01*
X105808621Y-82320000D02*
X105808621Y-84092000D01*
X105848621Y-78490000D02*
X105848621Y-80240000D01*
X105848621Y-82320000D02*
X105848621Y-84070000D01*
X105888621Y-78514000D02*
X105888621Y-80240000D01*
X105888621Y-82320000D02*
X105888621Y-84046000D01*
X105928621Y-78538000D02*
X105928621Y-80240000D01*
X105928621Y-82320000D02*
X105928621Y-84022000D01*
X105968621Y-78564000D02*
X105968621Y-80240000D01*
X105968621Y-82320000D02*
X105968621Y-83996000D01*
X106008621Y-78590000D02*
X106008621Y-80240000D01*
X106008621Y-82320000D02*
X106008621Y-83970000D01*
X106048621Y-78616000D02*
X106048621Y-80240000D01*
X106048621Y-82320000D02*
X106048621Y-83944000D01*
X106088621Y-78644000D02*
X106088621Y-80240000D01*
X106088621Y-82320000D02*
X106088621Y-83916000D01*
X106128621Y-78673000D02*
X106128621Y-80240000D01*
X106128621Y-82320000D02*
X106128621Y-83887000D01*
X106168621Y-78702000D02*
X106168621Y-80240000D01*
X106168621Y-82320000D02*
X106168621Y-83858000D01*
X106208621Y-78732000D02*
X106208621Y-80240000D01*
X106208621Y-82320000D02*
X106208621Y-83828000D01*
X106248621Y-78764000D02*
X106248621Y-80240000D01*
X106248621Y-82320000D02*
X106248621Y-83796000D01*
X106288621Y-78796000D02*
X106288621Y-80240000D01*
X106288621Y-82320000D02*
X106288621Y-83764000D01*
X106328621Y-78830000D02*
X106328621Y-80240000D01*
X106328621Y-82320000D02*
X106328621Y-83730000D01*
X106368621Y-78864000D02*
X106368621Y-80240000D01*
X106368621Y-82320000D02*
X106368621Y-83696000D01*
X106408621Y-78900000D02*
X106408621Y-80240000D01*
X106408621Y-82320000D02*
X106408621Y-83660000D01*
X106448621Y-78937000D02*
X106448621Y-80240000D01*
X106448621Y-82320000D02*
X106448621Y-83623000D01*
X106488621Y-78975000D02*
X106488621Y-80240000D01*
X106488621Y-82320000D02*
X106488621Y-83585000D01*
X106528621Y-79015000D02*
X106528621Y-83545000D01*
X106568621Y-79056000D02*
X106568621Y-83504000D01*
X106608621Y-79098000D02*
X106608621Y-83462000D01*
X106648621Y-79143000D02*
X106648621Y-83417000D01*
X106688621Y-79188000D02*
X106688621Y-83372000D01*
X106728621Y-79236000D02*
X106728621Y-83324000D01*
X106768621Y-79285000D02*
X106768621Y-83275000D01*
X106808621Y-79336000D02*
X106808621Y-83224000D01*
X106848621Y-79390000D02*
X106848621Y-83170000D01*
X106888621Y-79446000D02*
X106888621Y-83114000D01*
X106928621Y-79504000D02*
X106928621Y-83056000D01*
X106968621Y-79566000D02*
X106968621Y-82994000D01*
X107008621Y-79630000D02*
X107008621Y-82930000D01*
X107048621Y-79699000D02*
X107048621Y-82861000D01*
X107088621Y-79771000D02*
X107088621Y-82789000D01*
X107128621Y-79848000D02*
X107128621Y-82712000D01*
X107168621Y-79930000D02*
X107168621Y-82630000D01*
X107208621Y-80018000D02*
X107208621Y-82542000D01*
X107248621Y-80115000D02*
X107248621Y-82445000D01*
X107288621Y-80221000D02*
X107288621Y-82339000D01*
X107328621Y-80340000D02*
X107328621Y-82220000D01*
X107368621Y-80478000D02*
X107368621Y-82082000D01*
X107408621Y-80647000D02*
X107408621Y-81913000D01*
X107448621Y-80878000D02*
X107448621Y-81682000D01*
D12*
X107357621Y-81280000D02*
G75*
G03*
X101057621Y-81280000I-3150000J0D01*
G01*
X101057621Y-81280000D02*
G75*
G03*
X107357621Y-81280000I3150000J0D01*
G01*
D11*
X107477621Y-81280000D02*
G75*
G03*
X100937621Y-81280000I-3270000J0D01*
G01*
X100937621Y-81280000D02*
G75*
G03*
X107477621Y-81280000I3270000J0D01*
G01*
X123435000Y-74164000D02*
X123435000Y-74320000D01*
X123435000Y-76480000D02*
X123435000Y-76636000D01*
D12*
X123495000Y-74233810D02*
X123495000Y-76566190D01*
D11*
X126667334Y-74321392D02*
G75*
G03*
X123435001Y-74164485I-1672334J-1078608D01*
G01*
D12*
X123494446Y-76565475D02*
G75*
G03*
X123495001Y-74233810I1500554J1165475D01*
G01*
D11*
X126036129Y-74320164D02*
G75*
G03*
X123954040Y-74320001I-1041129J-1079836D01*
G01*
X123954040Y-76479999D02*
G75*
G03*
X126036129Y-76479836I1040960J1079999D01*
G01*
X123435001Y-76635515D02*
G75*
G03*
X126667334Y-76478608I1559999J1235515D01*
G01*
D12*
X126495000Y-75400000D02*
G75*
G03*
X123495000Y-75400000I-1500000J0D01*
G01*
X123495000Y-75400000D02*
G75*
G03*
X126495000Y-75400000I1500000J0D01*
G01*
X139065000Y-88900000D02*
X139695000Y-88900000D01*
D11*
X139575000Y-86930000D02*
X148715000Y-86930000D01*
X139575000Y-87260000D02*
X139575000Y-86930000D01*
X139575000Y-90540000D02*
X139575000Y-90870000D01*
X139575000Y-90870000D02*
X148715000Y-90870000D01*
D12*
X139695000Y-87050000D02*
X139695000Y-90750000D01*
X139695000Y-90750000D02*
X148595000Y-90750000D01*
D11*
X140910000Y-86930000D02*
X140910000Y-90870000D01*
D12*
X140930000Y-87050000D02*
X140930000Y-90750000D01*
D11*
X141030000Y-86930000D02*
X141030000Y-90870000D01*
D12*
X141030000Y-87050000D02*
X141030000Y-90750000D01*
X141130000Y-87050000D02*
X141130000Y-90750000D01*
D11*
X141150000Y-86930000D02*
X141150000Y-90870000D01*
D12*
X148595000Y-87050000D02*
X139695000Y-87050000D01*
X148595000Y-90750000D02*
X148595000Y-87050000D01*
D11*
X148715000Y-86930000D02*
X148715000Y-87260000D01*
X148715000Y-90870000D02*
X148715000Y-90540000D01*
D12*
X149225000Y-88900000D02*
X148595000Y-88900000D01*
D11*
X101640113Y-73325000D02*
X102140113Y-73325000D01*
X101890113Y-73075000D02*
X101890113Y-73575000D01*
D12*
X102311283Y-73712500D02*
X102811283Y-73712500D01*
X102561283Y-73462500D02*
X102561283Y-73962500D01*
D11*
X104444888Y-72220000D02*
X104444888Y-73760000D01*
X104444888Y-75840000D02*
X104444888Y-77380000D01*
X104484888Y-72220000D02*
X104484888Y-73760000D01*
X104484888Y-75840000D02*
X104484888Y-77380000D01*
X104524888Y-72221000D02*
X104524888Y-73760000D01*
X104524888Y-75840000D02*
X104524888Y-77379000D01*
X104564888Y-72222000D02*
X104564888Y-73760000D01*
X104564888Y-75840000D02*
X104564888Y-77378000D01*
X104604888Y-72224000D02*
X104604888Y-73760000D01*
X104604888Y-75840000D02*
X104604888Y-77376000D01*
X104644888Y-72227000D02*
X104644888Y-73760000D01*
X104644888Y-75840000D02*
X104644888Y-77373000D01*
X104684888Y-72231000D02*
X104684888Y-73760000D01*
X104684888Y-75840000D02*
X104684888Y-77369000D01*
X104724888Y-72235000D02*
X104724888Y-73760000D01*
X104724888Y-75840000D02*
X104724888Y-77365000D01*
X104764888Y-72239000D02*
X104764888Y-73760000D01*
X104764888Y-75840000D02*
X104764888Y-77361000D01*
X104804888Y-72244000D02*
X104804888Y-73760000D01*
X104804888Y-75840000D02*
X104804888Y-77356000D01*
X104844888Y-72250000D02*
X104844888Y-73760000D01*
X104844888Y-75840000D02*
X104844888Y-77350000D01*
X104884888Y-72257000D02*
X104884888Y-73760000D01*
X104884888Y-75840000D02*
X104884888Y-77343000D01*
X104924888Y-72264000D02*
X104924888Y-73760000D01*
X104924888Y-75840000D02*
X104924888Y-77336000D01*
X104964888Y-72272000D02*
X104964888Y-73760000D01*
X104964888Y-75840000D02*
X104964888Y-77328000D01*
X105004888Y-72280000D02*
X105004888Y-73760000D01*
X105004888Y-75840000D02*
X105004888Y-77320000D01*
X105044888Y-72289000D02*
X105044888Y-73760000D01*
X105044888Y-75840000D02*
X105044888Y-77311000D01*
X105084888Y-72299000D02*
X105084888Y-73760000D01*
X105084888Y-75840000D02*
X105084888Y-77301000D01*
X105124888Y-72309000D02*
X105124888Y-73760000D01*
X105124888Y-75840000D02*
X105124888Y-77291000D01*
X105165888Y-72320000D02*
X105165888Y-73760000D01*
X105165888Y-75840000D02*
X105165888Y-77280000D01*
X105205888Y-72332000D02*
X105205888Y-73760000D01*
X105205888Y-75840000D02*
X105205888Y-77268000D01*
X105245888Y-72345000D02*
X105245888Y-73760000D01*
X105245888Y-75840000D02*
X105245888Y-77255000D01*
X105285888Y-72358000D02*
X105285888Y-73760000D01*
X105285888Y-75840000D02*
X105285888Y-77242000D01*
X105325888Y-72372000D02*
X105325888Y-73760000D01*
X105325888Y-75840000D02*
X105325888Y-77228000D01*
X105365888Y-72386000D02*
X105365888Y-73760000D01*
X105365888Y-75840000D02*
X105365888Y-77214000D01*
X105405888Y-72402000D02*
X105405888Y-73760000D01*
X105405888Y-75840000D02*
X105405888Y-77198000D01*
X105445888Y-72418000D02*
X105445888Y-73760000D01*
X105445888Y-75840000D02*
X105445888Y-77182000D01*
X105485888Y-72435000D02*
X105485888Y-73760000D01*
X105485888Y-75840000D02*
X105485888Y-77165000D01*
X105525888Y-72452000D02*
X105525888Y-73760000D01*
X105525888Y-75840000D02*
X105525888Y-77148000D01*
X105565888Y-72471000D02*
X105565888Y-73760000D01*
X105565888Y-75840000D02*
X105565888Y-77129000D01*
X105605888Y-72490000D02*
X105605888Y-73760000D01*
X105605888Y-75840000D02*
X105605888Y-77110000D01*
X105645888Y-72510000D02*
X105645888Y-73760000D01*
X105645888Y-75840000D02*
X105645888Y-77090000D01*
X105685888Y-72532000D02*
X105685888Y-73760000D01*
X105685888Y-75840000D02*
X105685888Y-77068000D01*
X105725888Y-72553000D02*
X105725888Y-73760000D01*
X105725888Y-75840000D02*
X105725888Y-77047000D01*
X105765888Y-72576000D02*
X105765888Y-73760000D01*
X105765888Y-75840000D02*
X105765888Y-77024000D01*
X105805888Y-72600000D02*
X105805888Y-73760000D01*
X105805888Y-75840000D02*
X105805888Y-77000000D01*
X105845888Y-72625000D02*
X105845888Y-73760000D01*
X105845888Y-75840000D02*
X105845888Y-76975000D01*
X105885888Y-72651000D02*
X105885888Y-73760000D01*
X105885888Y-75840000D02*
X105885888Y-76949000D01*
X105925888Y-72678000D02*
X105925888Y-73760000D01*
X105925888Y-75840000D02*
X105925888Y-76922000D01*
X105965888Y-72705000D02*
X105965888Y-73760000D01*
X105965888Y-75840000D02*
X105965888Y-76895000D01*
X106005888Y-72735000D02*
X106005888Y-73760000D01*
X106005888Y-75840000D02*
X106005888Y-76865000D01*
X106045888Y-72765000D02*
X106045888Y-73760000D01*
X106045888Y-75840000D02*
X106045888Y-76835000D01*
X106085888Y-72796000D02*
X106085888Y-73760000D01*
X106085888Y-75840000D02*
X106085888Y-76804000D01*
X106125888Y-72829000D02*
X106125888Y-73760000D01*
X106125888Y-75840000D02*
X106125888Y-76771000D01*
X106165888Y-72863000D02*
X106165888Y-73760000D01*
X106165888Y-75840000D02*
X106165888Y-76737000D01*
X106205888Y-72899000D02*
X106205888Y-73760000D01*
X106205888Y-75840000D02*
X106205888Y-76701000D01*
X106245888Y-72936000D02*
X106245888Y-73760000D01*
X106245888Y-75840000D02*
X106245888Y-76664000D01*
X106285888Y-72974000D02*
X106285888Y-73760000D01*
X106285888Y-75840000D02*
X106285888Y-76626000D01*
X106325888Y-73015000D02*
X106325888Y-73760000D01*
X106325888Y-75840000D02*
X106325888Y-76585000D01*
X106365888Y-73057000D02*
X106365888Y-73760000D01*
X106365888Y-75840000D02*
X106365888Y-76543000D01*
X106405888Y-73101000D02*
X106405888Y-73760000D01*
X106405888Y-75840000D02*
X106405888Y-76499000D01*
X106445888Y-73147000D02*
X106445888Y-73760000D01*
X106445888Y-75840000D02*
X106445888Y-76453000D01*
X106485888Y-73195000D02*
X106485888Y-76405000D01*
X106525888Y-73246000D02*
X106525888Y-76354000D01*
X106565888Y-73300000D02*
X106565888Y-76300000D01*
X106605888Y-73357000D02*
X106605888Y-76243000D01*
X106645888Y-73417000D02*
X106645888Y-76183000D01*
X106685888Y-73481000D02*
X106685888Y-76119000D01*
X106725888Y-73549000D02*
X106725888Y-76051000D01*
X106765888Y-73622000D02*
X106765888Y-75978000D01*
X106805888Y-73702000D02*
X106805888Y-75898000D01*
X106845888Y-73789000D02*
X106845888Y-75811000D01*
X106885888Y-73885000D02*
X106885888Y-75715000D01*
X106925888Y-73995000D02*
X106925888Y-75605000D01*
X106965888Y-74123000D02*
X106965888Y-75477000D01*
X107005888Y-74282000D02*
X107005888Y-75318000D01*
X107045888Y-74516000D02*
X107045888Y-75084000D01*
D12*
X106944888Y-74800000D02*
G75*
G03*
X101944888Y-74800000I-2500000J0D01*
G01*
X101944888Y-74800000D02*
G75*
G03*
X106944888Y-74800000I2500000J0D01*
G01*
D11*
X107064888Y-74800000D02*
G75*
G03*
X101824888Y-74800000I-2620000J0D01*
G01*
X101824888Y-74800000D02*
G75*
G03*
X107064888Y-74800000I2620000J0D01*
G01*
D12*
X139220000Y-84000000D02*
X139850000Y-84000000D01*
D11*
X139730000Y-82030000D02*
X148870000Y-82030000D01*
X139730000Y-82360000D02*
X139730000Y-82030000D01*
X139730000Y-85640000D02*
X139730000Y-85970000D01*
X139730000Y-85970000D02*
X148870000Y-85970000D01*
D12*
X139850000Y-82150000D02*
X139850000Y-85850000D01*
X139850000Y-85850000D02*
X148750000Y-85850000D01*
D11*
X141065000Y-82030000D02*
X141065000Y-85970000D01*
D12*
X141085000Y-82150000D02*
X141085000Y-85850000D01*
D11*
X141185000Y-82030000D02*
X141185000Y-85970000D01*
D12*
X141185000Y-82150000D02*
X141185000Y-85850000D01*
X141285000Y-82150000D02*
X141285000Y-85850000D01*
D11*
X141305000Y-82030000D02*
X141305000Y-85970000D01*
D12*
X148750000Y-82150000D02*
X139850000Y-82150000D01*
X148750000Y-85850000D02*
X148750000Y-82150000D01*
D11*
X148870000Y-82030000D02*
X148870000Y-82360000D01*
X148870000Y-85970000D02*
X148870000Y-85640000D01*
D12*
X149380000Y-84000000D02*
X148750000Y-84000000D01*
X149225000Y-79700000D02*
X147295000Y-79700000D01*
D11*
X148185000Y-79700000D02*
X147415000Y-79700000D01*
X147415000Y-81070000D02*
X147415000Y-78330000D01*
X147415000Y-78330000D02*
X140875000Y-78330000D01*
D12*
X147295000Y-80950000D02*
X147295000Y-78450000D01*
X147295000Y-78450000D02*
X140995000Y-78450000D01*
X140995000Y-80950000D02*
X147295000Y-80950000D01*
X140995000Y-78450000D02*
X140995000Y-80950000D01*
D11*
X140875000Y-81070000D02*
X147415000Y-81070000D01*
X140875000Y-78330000D02*
X140875000Y-81070000D01*
X140105000Y-79700000D02*
X140875000Y-79700000D01*
D12*
X139065000Y-79700000D02*
X140995000Y-79700000D01*
D13*
X115247420Y-79131160D02*
X134942580Y-79131160D01*
X115247420Y-96128840D02*
X115247420Y-79131160D01*
X134942580Y-79131160D02*
X134942580Y-96128840D01*
X134942580Y-96128840D02*
X115247420Y-96128840D01*
D11*
X130130000Y-71815000D02*
X130130000Y-70485000D01*
X131460000Y-71815000D02*
X130130000Y-71815000D01*
X132730000Y-71815000D02*
X150570000Y-71815000D01*
X132730000Y-71815000D02*
X132730000Y-69155000D01*
X150570000Y-71815000D02*
X150570000Y-69155000D01*
D12*
X130825000Y-71755000D02*
X130190000Y-71120000D01*
X150510000Y-71755000D02*
X130825000Y-71755000D01*
X130190000Y-71120000D02*
X130190000Y-69215000D01*
X130190000Y-69215000D02*
X150510000Y-69215000D01*
X150510000Y-69215000D02*
X150510000Y-71755000D01*
D11*
X132730000Y-69155000D02*
X150570000Y-69155000D01*
%LPC*%
D14*
X110000000Y-75300000D03*
D15*
X112500000Y-75300000D03*
D14*
X109845000Y-87005000D03*
D16*
X107305000Y-87005000D03*
X104765000Y-87005000D03*
X102225000Y-87005000D03*
X102225000Y-94625000D03*
X104765000Y-94625000D03*
X107305000Y-94625000D03*
X109845000Y-94625000D03*
D17*
X149225000Y-93345000D03*
D18*
X139065000Y-93345000D03*
D14*
X110169888Y-81915000D03*
D15*
X112169888Y-81915000D03*
D14*
X102957621Y-81280000D03*
D15*
X105457621Y-81280000D03*
D19*
X123725000Y-75400000D03*
D20*
X126265000Y-75400000D03*
D17*
X139065000Y-88900000D03*
D18*
X149225000Y-88900000D03*
D14*
X103444888Y-74800000D03*
D15*
X105444888Y-74800000D03*
D17*
X139220000Y-84000000D03*
D18*
X149380000Y-84000000D03*
D15*
X149225000Y-79700000D03*
D16*
X139065000Y-79700000D03*
D21*
X119796560Y-82831940D03*
X119796560Y-87630000D03*
X119796560Y-92428060D03*
X125095000Y-82831940D03*
X125095000Y-87630000D03*
X125095000Y-92428060D03*
X130393440Y-82831940D03*
X130393440Y-87630000D03*
X130393440Y-92428060D03*
D22*
X131460000Y-70485000D03*
D23*
X134000000Y-70485000D03*
X136540000Y-70485000D03*
X139080000Y-70485000D03*
X141620000Y-70485000D03*
X144160000Y-70485000D03*
X146700000Y-70485000D03*
X149240000Y-70485000D03*
%LPD*%
M02*
