%TF.GenerationSoftware,KiCad,Pcbnew,7.0.11+dfsg-1build4*%
%TF.CreationDate,2026-02-07T21:52:43-05:00*%
%TF.ProjectId,redllama,7265646c-6c61-46d6-912e-6b696361645f,rev?*%
%TF.SameCoordinates,Original*%
%TF.FileFunction,Copper,L2,Bot*%
%TF.FilePolarity,Positive*%
%FSLAX46Y46*%
G04 Gerber Fmt 4.6, Leading zero omitted, Abs format (unit mm)*
G04 Created by KiCad (PCBNEW 7.0.11+dfsg-1build4) date 2026-02-07 21:52:43*
%MOMM*%
%LPD*%
G01*
G04 APERTURE LIST*
%TA.AperFunction,ComponentPad*%
%ADD10C,1.600000*%
%TD*%
%TA.AperFunction,ComponentPad*%
%ADD11O,1.600000X1.600000*%
%TD*%
%TA.AperFunction,ComponentPad*%
%ADD12R,1.700000X1.700000*%
%TD*%
%TA.AperFunction,ComponentPad*%
%ADD13O,1.700000X1.700000*%
%TD*%
%TA.AperFunction,ComponentPad*%
%ADD14C,2.340000*%
%TD*%
%TA.AperFunction,ComponentPad*%
%ADD15R,1.600000X1.600000*%
%TD*%
%TA.AperFunction,Conductor*%
%ADD16C,0.250000*%
%TD*%
G04 APERTURE END LIST*
D10*
%TO.P,R3,1*%
%TO.N,GND*%
X134493000Y-120777000D03*
D11*
%TO.P,R3,2*%
%TO.N,out*%
X142113000Y-120777000D03*
%TD*%
D12*
%TO.P,J1,1,Pin_1*%
%TO.N,9v*%
X122428000Y-125730000D03*
D13*
%TO.P,J1,2,Pin_2*%
%TO.N,out*%
X124968000Y-125730000D03*
%TO.P,J1,3,Pin_3*%
%TO.N,IN*%
X127508000Y-125730000D03*
%TO.P,J1,4,Pin_4*%
%TO.N,GND*%
X130048000Y-125730000D03*
%TD*%
D10*
%TO.P,R4,1*%
%TO.N,9v*%
X102362000Y-120142000D03*
D11*
%TO.P,R4,2*%
%TO.N,Net-(U1G-VCC)*%
X109982000Y-120142000D03*
%TD*%
D10*
%TO.P,C2,1*%
%TO.N,Net-(C1-Pad2)*%
X137120000Y-109093000D03*
%TO.P,C2,2*%
%TO.N,Net-(C2-Pad2)*%
X134620000Y-109093000D03*
%TD*%
%TO.P,R1,1*%
%TO.N,IN*%
X110109000Y-110109000D03*
D11*
%TO.P,R1,2*%
%TO.N,Net-(C1-Pad1)*%
X102489000Y-110109000D03*
%TD*%
D14*
%TO.P,RV2,1,1*%
%TO.N,GND*%
X115744000Y-103505000D03*
%TO.P,RV2,2,2*%
%TO.N,out*%
X110744000Y-103505000D03*
%TO.P,RV2,3,3*%
%TO.N,Net-(C5-Pad2)*%
X105744000Y-103505000D03*
%TD*%
D15*
%TO.P,C5,1*%
%TO.N,Net-(C4-Pad2)*%
X114840000Y-111506000D03*
D10*
%TO.P,C5,2*%
%TO.N,Net-(C5-Pad2)*%
X116840000Y-111506000D03*
%TD*%
%TO.P,C3,1*%
%TO.N,Net-(C2-Pad2)*%
X141391000Y-115189000D03*
%TO.P,C3,2*%
%TO.N,Net-(C3-Pad2)*%
X146391000Y-115189000D03*
%TD*%
%TO.P,R6,1*%
%TO.N,Net-(C1-Pad2)*%
X102590000Y-125600000D03*
D11*
%TO.P,R6,2*%
%TO.N,Net-(R6-Pad2)*%
X110210000Y-125600000D03*
%TD*%
D15*
%TO.P,C6,1*%
%TO.N,Net-(U1G-VCC)*%
X114213000Y-120523000D03*
D10*
%TO.P,C6,2*%
%TO.N,GND*%
X116713000Y-120523000D03*
%TD*%
D15*
%TO.P,U1,1,VCC*%
%TO.N,Net-(U1G-VCC)*%
X121031000Y-102616000D03*
D11*
%TO.P,U1,2*%
%TO.N,Net-(C2-Pad2)*%
X121031000Y-105156000D03*
%TO.P,U1,3*%
%TO.N,Net-(C1-Pad2)*%
X121031000Y-107696000D03*
%TO.P,U1,4*%
%TO.N,unconnected-(U1-Pad4)*%
X121031000Y-110236000D03*
%TO.P,U1,5*%
%TO.N,GND*%
X121031000Y-112776000D03*
%TO.P,U1,6*%
%TO.N,unconnected-(U1-Pad6)*%
X121031000Y-115316000D03*
%TO.P,U1,7*%
%TO.N,GND*%
X121031000Y-117856000D03*
%TO.P,U1,8,VSS*%
X121031000Y-120396000D03*
%TO.P,U1,9*%
X128651000Y-120396000D03*
%TO.P,U1,10*%
%TO.N,unconnected-(U1-Pad10)*%
X128651000Y-117856000D03*
%TO.P,U1,11*%
%TO.N,GND*%
X128651000Y-115316000D03*
%TO.P,U1,12*%
%TO.N,unconnected-(U1-Pad12)*%
X128651000Y-112776000D03*
%TO.P,U1,13*%
%TO.N,N/C*%
X128651000Y-110236000D03*
%TO.P,U1,14*%
%TO.N,Net-(C3-Pad2)*%
X128651000Y-107696000D03*
%TO.P,U1,15*%
%TO.N,Net-(C4-Pad2)*%
X128651000Y-105156000D03*
%TO.P,U1,16*%
%TO.N,N/C*%
X128651000Y-102616000D03*
%TD*%
D10*
%TO.P,R5,1*%
%TO.N,GND*%
X134493000Y-124841000D03*
D11*
%TO.P,R5,2*%
%TO.N,IN*%
X142113000Y-124841000D03*
%TD*%
D10*
%TO.P,R2,1*%
%TO.N,Net-(C3-Pad2)*%
X140335000Y-108712000D03*
D11*
%TO.P,R2,2*%
%TO.N,Net-(C4-Pad2)*%
X147955000Y-108712000D03*
%TD*%
D10*
%TO.P,C1,1*%
%TO.N,Net-(C1-Pad1)*%
X102910000Y-114427000D03*
%TO.P,C1,2*%
%TO.N,Net-(C1-Pad2)*%
X107910000Y-114427000D03*
%TD*%
%TO.P,C4,1*%
%TO.N,Net-(C3-Pad2)*%
X134386000Y-115062000D03*
%TO.P,C4,2*%
%TO.N,Net-(C4-Pad2)*%
X136886000Y-115062000D03*
%TD*%
D14*
%TO.P,RV1,1,1*%
%TO.N,Net-(R6-Pad2)*%
X144065000Y-103251000D03*
%TO.P,RV1,2,2*%
%TO.N,Net-(C2-Pad2)*%
X139065000Y-103251000D03*
%TO.P,RV1,3,3*%
X134065000Y-103251000D03*
%TD*%
D16*
%TO.N,Net-(C1-Pad2)*%
X110931009Y-107696000D02*
X121031000Y-107696000D01*
X107910000Y-110717009D02*
X110931009Y-107696000D01*
X134598000Y-106571000D02*
X122156000Y-106571000D01*
X122156000Y-106571000D02*
X121031000Y-107696000D01*
X107910000Y-114427000D02*
X107910000Y-110717009D01*
X137120000Y-109093000D02*
X134598000Y-106571000D01*
%TO.N,Net-(C3-Pad2)*%
X140335000Y-109113000D02*
X140335000Y-108712000D01*
X134386000Y-115062000D02*
X140335000Y-109113000D01*
%TO.N,Net-(C4-Pad2)*%
X114840000Y-111506000D02*
X119775000Y-116441000D01*
X119775000Y-116441000D02*
X135507000Y-116441000D01*
X135507000Y-116441000D02*
X136886000Y-115062000D01*
%TO.N,out*%
X106785000Y-118596000D02*
X115094000Y-126905000D01*
X115094000Y-126905000D02*
X123793000Y-126905000D01*
X106785000Y-107417000D02*
X106785000Y-118596000D01*
X110697000Y-103505000D02*
X106785000Y-107417000D01*
X123793000Y-126905000D02*
X124968000Y-125730000D01*
%TO.N,IN*%
X127508000Y-125730000D02*
X126333000Y-124555000D01*
X128810000Y-126905000D02*
X140049000Y-126905000D01*
X110109000Y-111240370D02*
X123423630Y-124555000D01*
X140049000Y-126905000D02*
X142113000Y-124841000D01*
X127508000Y-125730000D02*
X127635000Y-125730000D01*
X110109000Y-110109000D02*
X110109000Y-111240370D01*
X126333000Y-124555000D02*
X123423630Y-124555000D01*
X127635000Y-125730000D02*
X128810000Y-126905000D01*
%TD*%
%TA.AperFunction,Conductor*%
%TO.N,GND*%
G36*
X108909778Y-110715646D02*
G01*
X108965712Y-110757517D01*
X108968265Y-110761388D01*
X108968372Y-110761314D01*
X108971475Y-110765745D01*
X108971477Y-110765749D01*
X109102802Y-110953300D01*
X109264700Y-111115198D01*
X109425037Y-111227467D01*
X109468661Y-111282043D01*
X109477851Y-111325141D01*
X109478326Y-111340258D01*
X109478327Y-111340261D01*
X109484022Y-111359865D01*
X109487967Y-111378912D01*
X109490526Y-111399167D01*
X109490527Y-111399170D01*
X109490528Y-111399174D01*
X109506838Y-111440370D01*
X109510621Y-111451419D01*
X109522981Y-111493962D01*
X109533372Y-111511532D01*
X109541932Y-111529005D01*
X109549447Y-111547987D01*
X109575491Y-111583833D01*
X109581905Y-111593597D01*
X109604458Y-111631732D01*
X109604462Y-111631736D01*
X109618889Y-111646163D01*
X109631526Y-111660958D01*
X109643528Y-111677477D01*
X109676207Y-111704512D01*
X109677668Y-111705720D01*
X109686309Y-111713583D01*
X116995664Y-119022938D01*
X117029149Y-119084261D01*
X117024165Y-119153953D01*
X116982293Y-119209886D01*
X116916829Y-119234303D01*
X116897176Y-119234147D01*
X116713002Y-119218034D01*
X116712998Y-119218034D01*
X116486400Y-119237858D01*
X116486389Y-119237860D01*
X116266682Y-119296730D01*
X116266673Y-119296734D01*
X116060516Y-119392866D01*
X116060512Y-119392868D01*
X115987526Y-119443973D01*
X115987526Y-119443974D01*
X116668599Y-120125046D01*
X116587852Y-120137835D01*
X116474955Y-120195359D01*
X116385359Y-120284955D01*
X116327835Y-120397852D01*
X116315046Y-120478598D01*
X115625910Y-119789463D01*
X115587805Y-119781804D01*
X115537623Y-119733188D01*
X115522965Y-119677600D01*
X115521959Y-119677653D01*
X115521856Y-119677665D01*
X115521855Y-119677659D01*
X115521677Y-119677669D01*
X115521499Y-119674345D01*
X115518157Y-119643270D01*
X115514989Y-119613799D01*
X115512218Y-119606370D01*
X115484848Y-119532989D01*
X115463889Y-119476796D01*
X115376261Y-119359739D01*
X115259204Y-119272111D01*
X115242458Y-119265865D01*
X115122203Y-119221011D01*
X115061654Y-119214500D01*
X115061638Y-119214500D01*
X113364362Y-119214500D01*
X113364345Y-119214500D01*
X113303797Y-119221011D01*
X113303795Y-119221011D01*
X113166795Y-119272111D01*
X113049739Y-119359739D01*
X112962111Y-119476795D01*
X112911011Y-119613795D01*
X112911011Y-119613797D01*
X112904500Y-119674345D01*
X112904500Y-121371654D01*
X112911011Y-121432202D01*
X112911011Y-121432204D01*
X112946047Y-121526135D01*
X112962111Y-121569204D01*
X113049739Y-121686261D01*
X113166796Y-121773889D01*
X113303799Y-121824989D01*
X113331050Y-121827918D01*
X113364345Y-121831499D01*
X113364362Y-121831500D01*
X115061638Y-121831500D01*
X115061654Y-121831499D01*
X115088692Y-121828591D01*
X115122201Y-121824989D01*
X115259204Y-121773889D01*
X115376261Y-121686261D01*
X115463889Y-121569204D01*
X115509555Y-121446768D01*
X115514988Y-121432204D01*
X115514988Y-121432203D01*
X115514989Y-121432201D01*
X115518918Y-121395657D01*
X115521499Y-121371654D01*
X115521677Y-121368331D01*
X115521855Y-121368340D01*
X115521856Y-121368335D01*
X115521959Y-121368346D01*
X115523128Y-121368408D01*
X115541185Y-121306915D01*
X115593989Y-121261160D01*
X115626967Y-121255479D01*
X116315046Y-120567400D01*
X116327835Y-120648148D01*
X116385359Y-120761045D01*
X116474955Y-120850641D01*
X116587852Y-120908165D01*
X116668599Y-120920953D01*
X115987526Y-121602025D01*
X116060513Y-121653132D01*
X116060521Y-121653136D01*
X116266668Y-121749264D01*
X116266682Y-121749269D01*
X116486389Y-121808139D01*
X116486400Y-121808141D01*
X116712998Y-121827966D01*
X116713002Y-121827966D01*
X116939599Y-121808141D01*
X116939610Y-121808139D01*
X117159317Y-121749269D01*
X117159331Y-121749264D01*
X117365478Y-121653136D01*
X117438471Y-121602024D01*
X116757400Y-120920953D01*
X116838148Y-120908165D01*
X116951045Y-120850641D01*
X117040641Y-120761045D01*
X117098165Y-120648148D01*
X117110953Y-120567400D01*
X117792024Y-121248471D01*
X117843136Y-121175478D01*
X117939264Y-120969331D01*
X117939269Y-120969317D01*
X117998139Y-120749610D01*
X117998141Y-120749599D01*
X118017966Y-120523002D01*
X118017966Y-120522999D01*
X118001852Y-120338824D01*
X118015618Y-120270324D01*
X118064233Y-120220141D01*
X118132262Y-120204207D01*
X118198106Y-120227582D01*
X118213061Y-120240335D01*
X122132545Y-124159819D01*
X122166030Y-124221142D01*
X122161046Y-124290834D01*
X122119174Y-124346767D01*
X122053710Y-124371184D01*
X122044864Y-124371500D01*
X121529345Y-124371500D01*
X121468797Y-124378011D01*
X121468795Y-124378011D01*
X121331795Y-124429111D01*
X121214739Y-124516739D01*
X121127111Y-124633795D01*
X121076011Y-124770795D01*
X121076011Y-124770797D01*
X121069500Y-124831345D01*
X121069500Y-126147500D01*
X121049815Y-126214539D01*
X120997011Y-126260294D01*
X120945500Y-126271500D01*
X115407767Y-126271500D01*
X115340728Y-126251815D01*
X115320086Y-126235181D01*
X110576887Y-121491982D01*
X110543402Y-121430659D01*
X110548386Y-121360967D01*
X110590258Y-121305034D01*
X110612161Y-121291920D01*
X110638749Y-121279523D01*
X110826300Y-121148198D01*
X110988198Y-120986300D01*
X111119523Y-120798749D01*
X111216284Y-120591243D01*
X111275543Y-120370087D01*
X111295498Y-120142000D01*
X111293595Y-120120254D01*
X111289055Y-120068359D01*
X111275543Y-119913913D01*
X111216284Y-119692757D01*
X111209248Y-119677669D01*
X111167071Y-119587218D01*
X111119523Y-119485251D01*
X110988198Y-119297700D01*
X110826300Y-119135802D01*
X110638749Y-119004477D01*
X110632993Y-119001793D01*
X110431249Y-118907718D01*
X110431238Y-118907714D01*
X110210089Y-118848457D01*
X110210081Y-118848456D01*
X109982002Y-118828502D01*
X109981998Y-118828502D01*
X109753918Y-118848456D01*
X109753910Y-118848457D01*
X109532761Y-118907714D01*
X109532750Y-118907718D01*
X109325254Y-119004475D01*
X109325252Y-119004476D01*
X109298886Y-119022938D01*
X109137700Y-119135802D01*
X109137698Y-119135803D01*
X109137695Y-119135806D01*
X108975806Y-119297695D01*
X108975803Y-119297698D01*
X108975802Y-119297700D01*
X108906732Y-119396342D01*
X108844476Y-119485252D01*
X108844474Y-119485256D01*
X108832079Y-119511837D01*
X108785906Y-119564276D01*
X108718713Y-119583427D01*
X108651832Y-119563210D01*
X108632017Y-119547112D01*
X107454819Y-118369914D01*
X107421334Y-118308591D01*
X107418500Y-118282233D01*
X107418500Y-115811561D01*
X107438185Y-115744522D01*
X107490989Y-115698767D01*
X107560147Y-115688823D01*
X107574582Y-115691783D01*
X107681913Y-115720543D01*
X107844832Y-115734796D01*
X107909998Y-115740498D01*
X107910000Y-115740498D01*
X107910002Y-115740498D01*
X107972717Y-115735011D01*
X108138087Y-115720543D01*
X108359243Y-115661284D01*
X108566749Y-115564523D01*
X108754300Y-115433198D01*
X108916198Y-115271300D01*
X109047523Y-115083749D01*
X109144284Y-114876243D01*
X109203543Y-114655087D01*
X109223498Y-114427000D01*
X109221595Y-114405254D01*
X109213245Y-114309806D01*
X109203543Y-114198913D01*
X109144284Y-113977757D01*
X109047523Y-113770251D01*
X108916198Y-113582700D01*
X108754300Y-113420802D01*
X108596376Y-113310221D01*
X108552751Y-113255644D01*
X108543500Y-113208647D01*
X108543500Y-111030774D01*
X108563185Y-110963735D01*
X108579815Y-110943097D01*
X108778766Y-110744145D01*
X108840087Y-110710662D01*
X108909778Y-110715646D01*
G37*
%TD.AperFunction*%
%TA.AperFunction,Conductor*%
G36*
X121281000Y-120080314D02*
G01*
X121269045Y-120068359D01*
X121156148Y-120010835D01*
X121062481Y-119996000D01*
X120999519Y-119996000D01*
X120905852Y-120010835D01*
X120792955Y-120068359D01*
X120781000Y-120080314D01*
X120781000Y-118171686D01*
X120792955Y-118183641D01*
X120905852Y-118241165D01*
X120999519Y-118256000D01*
X121062481Y-118256000D01*
X121156148Y-118241165D01*
X121269045Y-118183641D01*
X121281000Y-118171686D01*
X121281000Y-120080314D01*
G37*
%TD.AperFunction*%
%TA.AperFunction,Conductor*%
G36*
X119879687Y-108349185D02*
G01*
X119914220Y-108382373D01*
X120024802Y-108540300D01*
X120186700Y-108702198D01*
X120319952Y-108795502D01*
X120374251Y-108833523D01*
X120417345Y-108853618D01*
X120469784Y-108899791D01*
X120488936Y-108966984D01*
X120468720Y-109033865D01*
X120417345Y-109078382D01*
X120374251Y-109098476D01*
X120249126Y-109186090D01*
X120186700Y-109229802D01*
X120186698Y-109229803D01*
X120186695Y-109229806D01*
X120024806Y-109391695D01*
X120024803Y-109391698D01*
X120024802Y-109391700D01*
X119982404Y-109452251D01*
X119893476Y-109579252D01*
X119893475Y-109579254D01*
X119796718Y-109786750D01*
X119796714Y-109786761D01*
X119737457Y-110007910D01*
X119737456Y-110007918D01*
X119717502Y-110235998D01*
X119717502Y-110236001D01*
X119737456Y-110464081D01*
X119737457Y-110464089D01*
X119796714Y-110685238D01*
X119796718Y-110685249D01*
X119873194Y-110849252D01*
X119893477Y-110892749D01*
X120024802Y-111080300D01*
X120186700Y-111242198D01*
X120368121Y-111369231D01*
X120374251Y-111373523D01*
X120427401Y-111398307D01*
X120479840Y-111444479D01*
X120498992Y-111511673D01*
X120478776Y-111578554D01*
X120427401Y-111623071D01*
X120378517Y-111645865D01*
X120192179Y-111776342D01*
X120031342Y-111937179D01*
X119900865Y-112123517D01*
X119804734Y-112329673D01*
X119804730Y-112329682D01*
X119752127Y-112525999D01*
X119752128Y-112526000D01*
X120715314Y-112526000D01*
X120703359Y-112537955D01*
X120645835Y-112650852D01*
X120626014Y-112776000D01*
X120645835Y-112901148D01*
X120703359Y-113014045D01*
X120715314Y-113026000D01*
X119752128Y-113026000D01*
X119804730Y-113222317D01*
X119804734Y-113222326D01*
X119900865Y-113428482D01*
X120031342Y-113614820D01*
X120192179Y-113775657D01*
X120378517Y-113906133D01*
X120427399Y-113928927D01*
X120479839Y-113975099D01*
X120498992Y-114042292D01*
X120478777Y-114109174D01*
X120427402Y-114153691D01*
X120374256Y-114178474D01*
X120374252Y-114178476D01*
X120345065Y-114198913D01*
X120186700Y-114309802D01*
X120186698Y-114309803D01*
X120186695Y-114309806D01*
X120024806Y-114471695D01*
X119893476Y-114659252D01*
X119893475Y-114659254D01*
X119796718Y-114866750D01*
X119796714Y-114866761D01*
X119737457Y-115087910D01*
X119737456Y-115087917D01*
X119726873Y-115208887D01*
X119701420Y-115273955D01*
X119644829Y-115314934D01*
X119575067Y-115318812D01*
X119515664Y-115285760D01*
X117189481Y-112959576D01*
X117155996Y-112898253D01*
X117160980Y-112828561D01*
X117202852Y-112772628D01*
X117245069Y-112752120D01*
X117262311Y-112747500D01*
X117289233Y-112740287D01*
X117289235Y-112740285D01*
X117289243Y-112740284D01*
X117496749Y-112643523D01*
X117684300Y-112512198D01*
X117846198Y-112350300D01*
X117977523Y-112162749D01*
X118074284Y-111955243D01*
X118133543Y-111734087D01*
X118153498Y-111506000D01*
X118133543Y-111277913D01*
X118074284Y-111056757D01*
X117977523Y-110849251D01*
X117846198Y-110661700D01*
X117684300Y-110499802D01*
X117496749Y-110368477D01*
X117496743Y-110368474D01*
X117289249Y-110271718D01*
X117289238Y-110271714D01*
X117068089Y-110212457D01*
X117068081Y-110212456D01*
X116840002Y-110192502D01*
X116839998Y-110192502D01*
X116611918Y-110212456D01*
X116611910Y-110212457D01*
X116390761Y-110271714D01*
X116390750Y-110271718D01*
X116183256Y-110368474D01*
X116183247Y-110368479D01*
X116176195Y-110373417D01*
X116109988Y-110395740D01*
X116042222Y-110378725D01*
X116005811Y-110346146D01*
X116003261Y-110342739D01*
X115886204Y-110255111D01*
X115749203Y-110204011D01*
X115688654Y-110197500D01*
X115688638Y-110197500D01*
X113991362Y-110197500D01*
X113991345Y-110197500D01*
X113930797Y-110204011D01*
X113930795Y-110204011D01*
X113793795Y-110255111D01*
X113676739Y-110342739D01*
X113589111Y-110459795D01*
X113538011Y-110596795D01*
X113538011Y-110596797D01*
X113531500Y-110657345D01*
X113531500Y-112354654D01*
X113538011Y-112415202D01*
X113538011Y-112415204D01*
X113587512Y-112547918D01*
X113589111Y-112552204D01*
X113676739Y-112669261D01*
X113793796Y-112756889D01*
X113930799Y-112807989D01*
X113958050Y-112810918D01*
X113991345Y-112814499D01*
X113991362Y-112814500D01*
X115201234Y-112814500D01*
X115268273Y-112834185D01*
X115288914Y-112850818D01*
X117304845Y-114866750D01*
X119267912Y-116829817D01*
X119277816Y-116842178D01*
X119278026Y-116842005D01*
X119282997Y-116848013D01*
X119283000Y-116848018D01*
X119332685Y-116894675D01*
X119335449Y-116897354D01*
X119355223Y-116917129D01*
X119355227Y-116917132D01*
X119355230Y-116917135D01*
X119358512Y-116919681D01*
X119367372Y-116927249D01*
X119399679Y-116957586D01*
X119399681Y-116957587D01*
X119417562Y-116967417D01*
X119433829Y-116978102D01*
X119449960Y-116990615D01*
X119470157Y-116999354D01*
X119490625Y-117008210D01*
X119501104Y-117013344D01*
X119539940Y-117034695D01*
X119559716Y-117039772D01*
X119578123Y-117046074D01*
X119596855Y-117054181D01*
X119640630Y-117061113D01*
X119652045Y-117063478D01*
X119694970Y-117074500D01*
X119715384Y-117074500D01*
X119734783Y-117076027D01*
X119754943Y-117079220D01*
X119754950Y-117079219D01*
X119762740Y-117079465D01*
X119762679Y-117081374D01*
X119821258Y-117092718D01*
X119871783Y-117140977D01*
X119888196Y-117208891D01*
X119876724Y-117255288D01*
X119804735Y-117409668D01*
X119804730Y-117409682D01*
X119752127Y-117605999D01*
X119752128Y-117606000D01*
X120715314Y-117606000D01*
X120703359Y-117617955D01*
X120645835Y-117730852D01*
X120626014Y-117856000D01*
X120645835Y-117981148D01*
X120703359Y-118094045D01*
X120715314Y-118106000D01*
X119752128Y-118106000D01*
X119804730Y-118302317D01*
X119804734Y-118302326D01*
X119900865Y-118508482D01*
X120031342Y-118694820D01*
X120192179Y-118855657D01*
X120378517Y-118986134D01*
X120437457Y-119013618D01*
X120489896Y-119059790D01*
X120509048Y-119126984D01*
X120488832Y-119193865D01*
X120437457Y-119238382D01*
X120378517Y-119265865D01*
X120192179Y-119396342D01*
X120031342Y-119557179D01*
X119900867Y-119743515D01*
X119850786Y-119850913D01*
X119804613Y-119903352D01*
X119737419Y-119922503D01*
X119670538Y-119902287D01*
X119650723Y-119886188D01*
X111004197Y-111239662D01*
X110970712Y-111178339D01*
X110975696Y-111108647D01*
X111004193Y-111064304D01*
X111115198Y-110953300D01*
X111246523Y-110765749D01*
X111343284Y-110558243D01*
X111402543Y-110337087D01*
X111422498Y-110109000D01*
X111421640Y-110099198D01*
X111415194Y-110025517D01*
X111402543Y-109880913D01*
X111343284Y-109659757D01*
X111246523Y-109452251D01*
X111115198Y-109264700D01*
X110953300Y-109102802D01*
X110765749Y-108971477D01*
X110765747Y-108971476D01*
X110761314Y-108968372D01*
X110762708Y-108966381D01*
X110721586Y-108923212D01*
X110708396Y-108854598D01*
X110734396Y-108789746D01*
X110744148Y-108778764D01*
X110810912Y-108712001D01*
X111157095Y-108365819D01*
X111218418Y-108332334D01*
X111244776Y-108329500D01*
X119812648Y-108329500D01*
X119879687Y-108349185D01*
G37*
%TD.AperFunction*%
%TA.AperFunction,Conductor*%
G36*
X127333478Y-107224185D02*
G01*
X127379233Y-107276989D01*
X127389177Y-107346147D01*
X127386216Y-107360582D01*
X127376056Y-107398502D01*
X127357457Y-107467911D01*
X127357456Y-107467918D01*
X127337502Y-107695998D01*
X127337502Y-107696001D01*
X127357456Y-107924081D01*
X127357457Y-107924089D01*
X127416714Y-108145238D01*
X127416718Y-108145249D01*
X127464956Y-108248695D01*
X127513477Y-108352749D01*
X127644802Y-108540300D01*
X127806700Y-108702198D01*
X127939952Y-108795502D01*
X127994251Y-108833523D01*
X128037345Y-108853618D01*
X128089784Y-108899791D01*
X128108936Y-108966984D01*
X128088720Y-109033865D01*
X128037345Y-109078382D01*
X127994251Y-109098476D01*
X127869126Y-109186090D01*
X127806700Y-109229802D01*
X127806698Y-109229803D01*
X127806695Y-109229806D01*
X127644806Y-109391695D01*
X127644803Y-109391698D01*
X127644802Y-109391700D01*
X127602404Y-109452251D01*
X127513476Y-109579252D01*
X127513475Y-109579254D01*
X127416718Y-109786750D01*
X127416714Y-109786761D01*
X127357457Y-110007910D01*
X127357456Y-110007918D01*
X127337502Y-110235998D01*
X127337502Y-110236001D01*
X127357456Y-110464081D01*
X127357457Y-110464089D01*
X127416714Y-110685238D01*
X127416718Y-110685249D01*
X127493194Y-110849252D01*
X127513477Y-110892749D01*
X127644802Y-111080300D01*
X127806700Y-111242198D01*
X127988121Y-111369231D01*
X127994251Y-111373523D01*
X128037345Y-111393618D01*
X128089784Y-111439791D01*
X128108936Y-111506984D01*
X128088720Y-111573865D01*
X128037345Y-111618382D01*
X127994251Y-111638476D01*
X127898218Y-111705720D01*
X127806700Y-111769802D01*
X127806698Y-111769803D01*
X127806695Y-111769806D01*
X127644806Y-111931695D01*
X127644803Y-111931698D01*
X127644802Y-111931700D01*
X127628317Y-111955243D01*
X127513476Y-112119252D01*
X127513475Y-112119254D01*
X127416718Y-112326750D01*
X127416714Y-112326761D01*
X127357457Y-112547910D01*
X127357456Y-112547918D01*
X127337502Y-112775998D01*
X127337502Y-112776001D01*
X127357456Y-113004081D01*
X127357457Y-113004089D01*
X127416714Y-113225238D01*
X127416718Y-113225249D01*
X127507906Y-113420802D01*
X127513477Y-113432749D01*
X127644802Y-113620300D01*
X127806700Y-113782198D01*
X127939952Y-113875502D01*
X127994251Y-113913523D01*
X128047401Y-113938307D01*
X128099840Y-113984479D01*
X128118992Y-114051673D01*
X128098776Y-114118554D01*
X128047401Y-114163071D01*
X127998517Y-114185865D01*
X127812179Y-114316342D01*
X127651342Y-114477179D01*
X127520865Y-114663517D01*
X127424734Y-114869673D01*
X127424730Y-114869682D01*
X127372127Y-115065999D01*
X127372128Y-115066000D01*
X128335314Y-115066000D01*
X128323359Y-115077955D01*
X128265835Y-115190852D01*
X128246014Y-115316000D01*
X128265835Y-115441148D01*
X128323359Y-115554045D01*
X128335314Y-115566000D01*
X127372128Y-115566000D01*
X127395012Y-115651407D01*
X127393349Y-115721257D01*
X127354186Y-115779119D01*
X127289958Y-115806623D01*
X127275237Y-115807500D01*
X122415561Y-115807500D01*
X122348522Y-115787815D01*
X122302767Y-115735011D01*
X122292823Y-115665853D01*
X122295786Y-115651407D01*
X122324543Y-115544087D01*
X122344498Y-115316000D01*
X122324543Y-115087913D01*
X122265284Y-114866757D01*
X122168523Y-114659251D01*
X122037198Y-114471700D01*
X121875300Y-114309802D01*
X121687749Y-114178477D01*
X121634596Y-114153691D01*
X121582158Y-114107519D01*
X121563007Y-114040325D01*
X121583223Y-113973444D01*
X121634600Y-113928927D01*
X121683483Y-113906133D01*
X121869820Y-113775657D01*
X122030657Y-113614820D01*
X122161134Y-113428482D01*
X122257265Y-113222326D01*
X122257269Y-113222317D01*
X122309872Y-113026000D01*
X121346686Y-113026000D01*
X121358641Y-113014045D01*
X121416165Y-112901148D01*
X121435986Y-112776000D01*
X121416165Y-112650852D01*
X121358641Y-112537955D01*
X121346686Y-112526000D01*
X122309872Y-112526000D01*
X122309872Y-112525999D01*
X122257269Y-112329682D01*
X122257265Y-112329673D01*
X122161134Y-112123517D01*
X122030657Y-111937179D01*
X121869820Y-111776342D01*
X121683481Y-111645865D01*
X121683479Y-111645864D01*
X121634599Y-111623071D01*
X121582159Y-111576899D01*
X121563007Y-111509706D01*
X121583223Y-111442824D01*
X121634599Y-111398307D01*
X121687749Y-111373523D01*
X121875300Y-111242198D01*
X122037198Y-111080300D01*
X122168523Y-110892749D01*
X122265284Y-110685243D01*
X122324543Y-110464087D01*
X122344498Y-110236000D01*
X122343536Y-110225009D01*
X122331510Y-110087551D01*
X122324543Y-110007913D01*
X122265284Y-109786757D01*
X122248027Y-109749750D01*
X122168524Y-109579254D01*
X122168523Y-109579252D01*
X122168523Y-109579251D01*
X122037198Y-109391700D01*
X121875300Y-109229802D01*
X121687749Y-109098477D01*
X121676003Y-109093000D01*
X121644655Y-109078382D01*
X121592215Y-109032210D01*
X121573063Y-108965017D01*
X121593278Y-108898136D01*
X121644655Y-108853618D01*
X121647882Y-108852112D01*
X121687749Y-108833523D01*
X121875300Y-108702198D01*
X122037198Y-108540300D01*
X122168523Y-108352749D01*
X122265284Y-108145243D01*
X122324543Y-107924087D01*
X122344498Y-107696000D01*
X122324543Y-107467913D01*
X122307241Y-107403341D01*
X122308904Y-107333493D01*
X122339337Y-107283566D01*
X122382088Y-107240817D01*
X122443412Y-107207333D01*
X122469767Y-107204500D01*
X127266439Y-107204500D01*
X127333478Y-107224185D01*
G37*
%TD.AperFunction*%
%TA.AperFunction,Conductor*%
G36*
X151073039Y-100857685D02*
G01*
X151118794Y-100910489D01*
X151130000Y-100962000D01*
X151130000Y-128273000D01*
X151110315Y-128340039D01*
X151057511Y-128385794D01*
X151006000Y-128397000D01*
X101092000Y-128397000D01*
X101089000Y-128397000D01*
X101021961Y-128377315D01*
X100976206Y-128324511D01*
X100965000Y-128273000D01*
X100965000Y-125600001D01*
X101276502Y-125600001D01*
X101296456Y-125828081D01*
X101296457Y-125828089D01*
X101355714Y-126049238D01*
X101355718Y-126049249D01*
X101432794Y-126214539D01*
X101452477Y-126256749D01*
X101583802Y-126444300D01*
X101745700Y-126606198D01*
X101933251Y-126737523D01*
X102058091Y-126795736D01*
X102140750Y-126834281D01*
X102140752Y-126834281D01*
X102140757Y-126834284D01*
X102361913Y-126893543D01*
X102524832Y-126907796D01*
X102589998Y-126913498D01*
X102590000Y-126913498D01*
X102590002Y-126913498D01*
X102647021Y-126908509D01*
X102818087Y-126893543D01*
X103039243Y-126834284D01*
X103246749Y-126737523D01*
X103434300Y-126606198D01*
X103596198Y-126444300D01*
X103727523Y-126256749D01*
X103824284Y-126049243D01*
X103883543Y-125828087D01*
X103903498Y-125600001D01*
X108896502Y-125600001D01*
X108916456Y-125828081D01*
X108916457Y-125828089D01*
X108975714Y-126049238D01*
X108975718Y-126049249D01*
X109052794Y-126214539D01*
X109072477Y-126256749D01*
X109203802Y-126444300D01*
X109365700Y-126606198D01*
X109553251Y-126737523D01*
X109678091Y-126795736D01*
X109760750Y-126834281D01*
X109760752Y-126834281D01*
X109760757Y-126834284D01*
X109981913Y-126893543D01*
X110144832Y-126907796D01*
X110209998Y-126913498D01*
X110210000Y-126913498D01*
X110210002Y-126913498D01*
X110267021Y-126908509D01*
X110438087Y-126893543D01*
X110659243Y-126834284D01*
X110866749Y-126737523D01*
X111054300Y-126606198D01*
X111216198Y-126444300D01*
X111347523Y-126256749D01*
X111444284Y-126049243D01*
X111503543Y-125828087D01*
X111523498Y-125600000D01*
X111503543Y-125371913D01*
X111444284Y-125150757D01*
X111347523Y-124943251D01*
X111216198Y-124755700D01*
X111054300Y-124593802D01*
X110866749Y-124462477D01*
X110866745Y-124462475D01*
X110659249Y-124365718D01*
X110659238Y-124365714D01*
X110438089Y-124306457D01*
X110438081Y-124306456D01*
X110210002Y-124286502D01*
X110209998Y-124286502D01*
X109981918Y-124306456D01*
X109981910Y-124306457D01*
X109760761Y-124365714D01*
X109760750Y-124365718D01*
X109553254Y-124462475D01*
X109553252Y-124462476D01*
X109525858Y-124481658D01*
X109365700Y-124593802D01*
X109365698Y-124593803D01*
X109365695Y-124593806D01*
X109203806Y-124755695D01*
X109203803Y-124755698D01*
X109203802Y-124755700D01*
X109144073Y-124841002D01*
X109072476Y-124943252D01*
X109072475Y-124943254D01*
X108975718Y-125150750D01*
X108975714Y-125150761D01*
X108916457Y-125371910D01*
X108916456Y-125371918D01*
X108896502Y-125599998D01*
X108896502Y-125600001D01*
X103903498Y-125600001D01*
X103903498Y-125600000D01*
X103883543Y-125371913D01*
X103824284Y-125150757D01*
X103727523Y-124943251D01*
X103596198Y-124755700D01*
X103434300Y-124593802D01*
X103246749Y-124462477D01*
X103246745Y-124462475D01*
X103039249Y-124365718D01*
X103039238Y-124365714D01*
X102818089Y-124306457D01*
X102818081Y-124306456D01*
X102590002Y-124286502D01*
X102589998Y-124286502D01*
X102361918Y-124306456D01*
X102361910Y-124306457D01*
X102140761Y-124365714D01*
X102140750Y-124365718D01*
X101933254Y-124462475D01*
X101933252Y-124462476D01*
X101905858Y-124481658D01*
X101745700Y-124593802D01*
X101745698Y-124593803D01*
X101745695Y-124593806D01*
X101583806Y-124755695D01*
X101583803Y-124755698D01*
X101583802Y-124755700D01*
X101524073Y-124841002D01*
X101452476Y-124943252D01*
X101452475Y-124943254D01*
X101355718Y-125150750D01*
X101355714Y-125150761D01*
X101296457Y-125371910D01*
X101296456Y-125371918D01*
X101276502Y-125599998D01*
X101276502Y-125600001D01*
X100965000Y-125600001D01*
X100965000Y-120801625D01*
X100984685Y-120734586D01*
X101037489Y-120688831D01*
X101106647Y-120678887D01*
X101170203Y-120707912D01*
X101201380Y-120749217D01*
X101224477Y-120798749D01*
X101355802Y-120986300D01*
X101517700Y-121148198D01*
X101705251Y-121279523D01*
X101759960Y-121305034D01*
X101912750Y-121376281D01*
X101912752Y-121376281D01*
X101912757Y-121376284D01*
X102133913Y-121435543D01*
X102296832Y-121449796D01*
X102361998Y-121455498D01*
X102362000Y-121455498D01*
X102362002Y-121455498D01*
X102419021Y-121450509D01*
X102590087Y-121435543D01*
X102811243Y-121376284D01*
X103018749Y-121279523D01*
X103206300Y-121148198D01*
X103368198Y-120986300D01*
X103499523Y-120798749D01*
X103596284Y-120591243D01*
X103655543Y-120370087D01*
X103675498Y-120142000D01*
X103673595Y-120120254D01*
X103669055Y-120068359D01*
X103655543Y-119913913D01*
X103596284Y-119692757D01*
X103589248Y-119677669D01*
X103547071Y-119587218D01*
X103499523Y-119485251D01*
X103368198Y-119297700D01*
X103206300Y-119135802D01*
X103018749Y-119004477D01*
X103012993Y-119001793D01*
X102811249Y-118907718D01*
X102811238Y-118907714D01*
X102590089Y-118848457D01*
X102590081Y-118848456D01*
X102362002Y-118828502D01*
X102361998Y-118828502D01*
X102133918Y-118848456D01*
X102133910Y-118848457D01*
X101912761Y-118907714D01*
X101912750Y-118907718D01*
X101705254Y-119004475D01*
X101705252Y-119004476D01*
X101678886Y-119022938D01*
X101517700Y-119135802D01*
X101517698Y-119135803D01*
X101517695Y-119135806D01*
X101355806Y-119297695D01*
X101224476Y-119485251D01*
X101201382Y-119534779D01*
X101155210Y-119587218D01*
X101088016Y-119606370D01*
X101021135Y-119586154D01*
X100975801Y-119532989D01*
X100965000Y-119482374D01*
X100965000Y-114427001D01*
X101596502Y-114427001D01*
X101616456Y-114655081D01*
X101616457Y-114655089D01*
X101675714Y-114876238D01*
X101675718Y-114876249D01*
X101769775Y-115077955D01*
X101772477Y-115083749D01*
X101903802Y-115271300D01*
X102065700Y-115433198D01*
X102253251Y-115564523D01*
X102378091Y-115622736D01*
X102460750Y-115661281D01*
X102460752Y-115661281D01*
X102460757Y-115661284D01*
X102681913Y-115720543D01*
X102844832Y-115734796D01*
X102909998Y-115740498D01*
X102910000Y-115740498D01*
X102910002Y-115740498D01*
X102972717Y-115735011D01*
X103138087Y-115720543D01*
X103359243Y-115661284D01*
X103566749Y-115564523D01*
X103754300Y-115433198D01*
X103916198Y-115271300D01*
X104047523Y-115083749D01*
X104144284Y-114876243D01*
X104203543Y-114655087D01*
X104223498Y-114427000D01*
X104221595Y-114405254D01*
X104213245Y-114309806D01*
X104203543Y-114198913D01*
X104144284Y-113977757D01*
X104047523Y-113770251D01*
X103916198Y-113582700D01*
X103754300Y-113420802D01*
X103566749Y-113289477D01*
X103566745Y-113289475D01*
X103359249Y-113192718D01*
X103359238Y-113192714D01*
X103138089Y-113133457D01*
X103138081Y-113133456D01*
X102910002Y-113113502D01*
X102909998Y-113113502D01*
X102681918Y-113133456D01*
X102681910Y-113133457D01*
X102460761Y-113192714D01*
X102460750Y-113192718D01*
X102253254Y-113289475D01*
X102253252Y-113289476D01*
X102182856Y-113338767D01*
X102065700Y-113420802D01*
X102065698Y-113420803D01*
X102065695Y-113420806D01*
X101903806Y-113582695D01*
X101903803Y-113582698D01*
X101903802Y-113582700D01*
X101845296Y-113666255D01*
X101772476Y-113770252D01*
X101772475Y-113770254D01*
X101675718Y-113977750D01*
X101675714Y-113977761D01*
X101616457Y-114198910D01*
X101616456Y-114198918D01*
X101596502Y-114426998D01*
X101596502Y-114427001D01*
X100965000Y-114427001D01*
X100965000Y-110418883D01*
X100984685Y-110351844D01*
X101037489Y-110306089D01*
X101106647Y-110296145D01*
X101170203Y-110325170D01*
X101207977Y-110383948D01*
X101208775Y-110386789D01*
X101254714Y-110558238D01*
X101254718Y-110558249D01*
X101341404Y-110744147D01*
X101351477Y-110765749D01*
X101482802Y-110953300D01*
X101644700Y-111115198D01*
X101832251Y-111246523D01*
X101925765Y-111290129D01*
X102039750Y-111343281D01*
X102039752Y-111343281D01*
X102039757Y-111343284D01*
X102260913Y-111402543D01*
X102423832Y-111416796D01*
X102488998Y-111422498D01*
X102489000Y-111422498D01*
X102489002Y-111422498D01*
X102546021Y-111417509D01*
X102717087Y-111402543D01*
X102938243Y-111343284D01*
X103145749Y-111246523D01*
X103333300Y-111115198D01*
X103495198Y-110953300D01*
X103626523Y-110765749D01*
X103723284Y-110558243D01*
X103782543Y-110337087D01*
X103802498Y-110109000D01*
X103801640Y-110099198D01*
X103795194Y-110025517D01*
X103782543Y-109880913D01*
X103723284Y-109659757D01*
X103626523Y-109452251D01*
X103495198Y-109264700D01*
X103333300Y-109102802D01*
X103145749Y-108971477D01*
X103145745Y-108971475D01*
X102938249Y-108874718D01*
X102938238Y-108874714D01*
X102717089Y-108815457D01*
X102717081Y-108815456D01*
X102489002Y-108795502D01*
X102488998Y-108795502D01*
X102260918Y-108815456D01*
X102260910Y-108815457D01*
X102039761Y-108874714D01*
X102039750Y-108874718D01*
X101832254Y-108971475D01*
X101832252Y-108971476D01*
X101832251Y-108971477D01*
X101644700Y-109102802D01*
X101644698Y-109102803D01*
X101644695Y-109102806D01*
X101482806Y-109264695D01*
X101482803Y-109264698D01*
X101482802Y-109264700D01*
X101443318Y-109321089D01*
X101351476Y-109452252D01*
X101351475Y-109452254D01*
X101254718Y-109659750D01*
X101254714Y-109659761D01*
X101208775Y-109831210D01*
X101172410Y-109890870D01*
X101109563Y-109921399D01*
X101040187Y-109913104D01*
X100986309Y-109868619D01*
X100965035Y-109802067D01*
X100965000Y-109799116D01*
X100965000Y-107396942D01*
X106146780Y-107396942D01*
X106150950Y-107441057D01*
X106151500Y-107452726D01*
X106151500Y-118512366D01*
X106149761Y-118528113D01*
X106150032Y-118528139D01*
X106149298Y-118535905D01*
X106151439Y-118604016D01*
X106151500Y-118607912D01*
X106151500Y-118635859D01*
X106152018Y-118639958D01*
X106152934Y-118651598D01*
X106154326Y-118695889D01*
X106154327Y-118695891D01*
X106160022Y-118715495D01*
X106163967Y-118734542D01*
X106166526Y-118754797D01*
X106166527Y-118754800D01*
X106166528Y-118754804D01*
X106182838Y-118796000D01*
X106186621Y-118807049D01*
X106198981Y-118849592D01*
X106209372Y-118867162D01*
X106217932Y-118884635D01*
X106225447Y-118903617D01*
X106251491Y-118939463D01*
X106257905Y-118949227D01*
X106280458Y-118987362D01*
X106280462Y-118987366D01*
X106294889Y-119001793D01*
X106307526Y-119016588D01*
X106319528Y-119033107D01*
X106349783Y-119058136D01*
X106353668Y-119061350D01*
X106362309Y-119069213D01*
X114586910Y-127293814D01*
X114596816Y-127306178D01*
X114597026Y-127306005D01*
X114601997Y-127312013D01*
X114602000Y-127312018D01*
X114651701Y-127358690D01*
X114654452Y-127361356D01*
X114674230Y-127381134D01*
X114677504Y-127383673D01*
X114686370Y-127391247D01*
X114718678Y-127421586D01*
X114736567Y-127431420D01*
X114752833Y-127442104D01*
X114768959Y-127454613D01*
X114809616Y-127472207D01*
X114820107Y-127477346D01*
X114858940Y-127498695D01*
X114878718Y-127503773D01*
X114897121Y-127510074D01*
X114915852Y-127518180D01*
X114915853Y-127518180D01*
X114915855Y-127518181D01*
X114959618Y-127525111D01*
X114971045Y-127527478D01*
X115013970Y-127538500D01*
X115034390Y-127538500D01*
X115053789Y-127540027D01*
X115073941Y-127543218D01*
X115073942Y-127543219D01*
X115073942Y-127543218D01*
X115073943Y-127543219D01*
X115107713Y-127540027D01*
X115118050Y-127539050D01*
X115129718Y-127538500D01*
X123709366Y-127538500D01*
X123725113Y-127540238D01*
X123725139Y-127539968D01*
X123732905Y-127540701D01*
X123732909Y-127540702D01*
X123801017Y-127538560D01*
X123804913Y-127538500D01*
X123832858Y-127538500D01*
X123832860Y-127538499D01*
X123834262Y-127538322D01*
X123836949Y-127537983D01*
X123848608Y-127537064D01*
X123892889Y-127535673D01*
X123912481Y-127529980D01*
X123931538Y-127526032D01*
X123951797Y-127523474D01*
X123993006Y-127507157D01*
X124004043Y-127503379D01*
X124046593Y-127491018D01*
X124064165Y-127480625D01*
X124081632Y-127472068D01*
X124100617Y-127464552D01*
X124136461Y-127438508D01*
X124146230Y-127432092D01*
X124147366Y-127431420D01*
X124184362Y-127409542D01*
X124198802Y-127395100D01*
X124213592Y-127382470D01*
X124230107Y-127370472D01*
X124258359Y-127336319D01*
X124266203Y-127327699D01*
X124511009Y-127082893D01*
X124572330Y-127049410D01*
X124629143Y-127050374D01*
X124633356Y-127051441D01*
X124633365Y-127051444D01*
X124855431Y-127088500D01*
X125080569Y-127088500D01*
X125302635Y-127051444D01*
X125515574Y-126978342D01*
X125713576Y-126871189D01*
X125891240Y-126732906D01*
X126043722Y-126567268D01*
X126134193Y-126428790D01*
X126187338Y-126383437D01*
X126256569Y-126374013D01*
X126319905Y-126403515D01*
X126341804Y-126428787D01*
X126432278Y-126567268D01*
X126432283Y-126567273D01*
X126432284Y-126567276D01*
X126584756Y-126732902D01*
X126584760Y-126732906D01*
X126762424Y-126871189D01*
X126762425Y-126871189D01*
X126762427Y-126871191D01*
X126840604Y-126913498D01*
X126960426Y-126978342D01*
X127173365Y-127051444D01*
X127395431Y-127088500D01*
X127620569Y-127088500D01*
X127842635Y-127051444D01*
X127848560Y-127049410D01*
X127931641Y-127020887D01*
X128001436Y-127017738D01*
X128059583Y-127050488D01*
X128302912Y-127293817D01*
X128312819Y-127306183D01*
X128313029Y-127306010D01*
X128317996Y-127312014D01*
X128317999Y-127312017D01*
X128318000Y-127312018D01*
X128367686Y-127358675D01*
X128370451Y-127361356D01*
X128390223Y-127381129D01*
X128390227Y-127381132D01*
X128390230Y-127381135D01*
X128393512Y-127383681D01*
X128402370Y-127391247D01*
X128434679Y-127421586D01*
X128434681Y-127421587D01*
X128452562Y-127431417D01*
X128468827Y-127442101D01*
X128474480Y-127446485D01*
X128484960Y-127454615D01*
X128505157Y-127463354D01*
X128525625Y-127472210D01*
X128536104Y-127477344D01*
X128574940Y-127498695D01*
X128594716Y-127503772D01*
X128613123Y-127510074D01*
X128631855Y-127518181D01*
X128675630Y-127525113D01*
X128687045Y-127527478D01*
X128729970Y-127538500D01*
X128750384Y-127538500D01*
X128769783Y-127540027D01*
X128789943Y-127543220D01*
X128834057Y-127539050D01*
X128845726Y-127538500D01*
X139965366Y-127538500D01*
X139981113Y-127540238D01*
X139981139Y-127539968D01*
X139988905Y-127540701D01*
X139988909Y-127540702D01*
X140057017Y-127538560D01*
X140060913Y-127538500D01*
X140088858Y-127538500D01*
X140088860Y-127538499D01*
X140090262Y-127538322D01*
X140092949Y-127537983D01*
X140104608Y-127537064D01*
X140148889Y-127535673D01*
X140168481Y-127529980D01*
X140187538Y-127526032D01*
X140207797Y-127523474D01*
X140249006Y-127507157D01*
X140260043Y-127503379D01*
X140302593Y-127491018D01*
X140320165Y-127480625D01*
X140337632Y-127472068D01*
X140356617Y-127464552D01*
X140392461Y-127438508D01*
X140402230Y-127432092D01*
X140403366Y-127431420D01*
X140440362Y-127409542D01*
X140454802Y-127395100D01*
X140469592Y-127382470D01*
X140486107Y-127370472D01*
X140514359Y-127336319D01*
X140522203Y-127327699D01*
X141700570Y-126149333D01*
X141761891Y-126115850D01*
X141820341Y-126117240D01*
X141884913Y-126134543D01*
X142044260Y-126148484D01*
X142112998Y-126154498D01*
X142113000Y-126154498D01*
X142113002Y-126154498D01*
X142181740Y-126148484D01*
X142341087Y-126134543D01*
X142562243Y-126075284D01*
X142769749Y-125978523D01*
X142957300Y-125847198D01*
X143119198Y-125685300D01*
X143250523Y-125497749D01*
X143347284Y-125290243D01*
X143406543Y-125069087D01*
X143426498Y-124841000D01*
X143406543Y-124612913D01*
X143347284Y-124391757D01*
X143250523Y-124184251D01*
X143119198Y-123996700D01*
X142957300Y-123834802D01*
X142769749Y-123703477D01*
X142769745Y-123703475D01*
X142562249Y-123606718D01*
X142562238Y-123606714D01*
X142341089Y-123547457D01*
X142341081Y-123547456D01*
X142113002Y-123527502D01*
X142112998Y-123527502D01*
X141884918Y-123547456D01*
X141884910Y-123547457D01*
X141663761Y-123606714D01*
X141663750Y-123606718D01*
X141456254Y-123703475D01*
X141456252Y-123703476D01*
X141385856Y-123752767D01*
X141268700Y-123834802D01*
X141268698Y-123834803D01*
X141268695Y-123834806D01*
X141106806Y-123996695D01*
X141106803Y-123996698D01*
X141106802Y-123996700D01*
X141056357Y-124068743D01*
X140975476Y-124184252D01*
X140975475Y-124184254D01*
X140878718Y-124391750D01*
X140878714Y-124391761D01*
X140819457Y-124612910D01*
X140819456Y-124612918D01*
X140799502Y-124840998D01*
X140799502Y-124841001D01*
X140819456Y-125069081D01*
X140819458Y-125069091D01*
X140836758Y-125133655D01*
X140835095Y-125203504D01*
X140804664Y-125253429D01*
X139822914Y-126235181D01*
X139761591Y-126268666D01*
X139735233Y-126271500D01*
X135060674Y-126271500D01*
X134993635Y-126251815D01*
X134947880Y-126199011D01*
X134937936Y-126129853D01*
X134966961Y-126066297D01*
X135008269Y-126035118D01*
X135145480Y-125971135D01*
X135218471Y-125920024D01*
X134537400Y-125238953D01*
X134618148Y-125226165D01*
X134731045Y-125168641D01*
X134820641Y-125079045D01*
X134878165Y-124966148D01*
X134890953Y-124885400D01*
X135572024Y-125566471D01*
X135623136Y-125493478D01*
X135719264Y-125287331D01*
X135719269Y-125287317D01*
X135778139Y-125067610D01*
X135778141Y-125067599D01*
X135797966Y-124841002D01*
X135797966Y-124840997D01*
X135778141Y-124614400D01*
X135778139Y-124614389D01*
X135719269Y-124394682D01*
X135719264Y-124394668D01*
X135623136Y-124188521D01*
X135623132Y-124188513D01*
X135572025Y-124115526D01*
X134890953Y-124796598D01*
X134878165Y-124715852D01*
X134820641Y-124602955D01*
X134731045Y-124513359D01*
X134618148Y-124455835D01*
X134537401Y-124443046D01*
X135218472Y-123761974D01*
X135145478Y-123710863D01*
X134939331Y-123614735D01*
X134939317Y-123614730D01*
X134719610Y-123555860D01*
X134719599Y-123555858D01*
X134493002Y-123536034D01*
X134492998Y-123536034D01*
X134266400Y-123555858D01*
X134266389Y-123555860D01*
X134046682Y-123614730D01*
X134046673Y-123614734D01*
X133840516Y-123710866D01*
X133840512Y-123710868D01*
X133767526Y-123761973D01*
X133767526Y-123761974D01*
X134448599Y-124443046D01*
X134367852Y-124455835D01*
X134254955Y-124513359D01*
X134165359Y-124602955D01*
X134107835Y-124715852D01*
X134095046Y-124796598D01*
X133413974Y-124115526D01*
X133413973Y-124115526D01*
X133362868Y-124188512D01*
X133362866Y-124188516D01*
X133266734Y-124394673D01*
X133266730Y-124394682D01*
X133207860Y-124614389D01*
X133207858Y-124614400D01*
X133188034Y-124840997D01*
X133188034Y-124841002D01*
X133207858Y-125067599D01*
X133207860Y-125067610D01*
X133266730Y-125287317D01*
X133266735Y-125287331D01*
X133362863Y-125493478D01*
X133413974Y-125566472D01*
X134095046Y-124885400D01*
X134107835Y-124966148D01*
X134165359Y-125079045D01*
X134254955Y-125168641D01*
X134367852Y-125226165D01*
X134448599Y-125238953D01*
X133767526Y-125920025D01*
X133840513Y-125971132D01*
X133840517Y-125971134D01*
X133977731Y-126035118D01*
X134030170Y-126081290D01*
X134049322Y-126148484D01*
X134029106Y-126215365D01*
X133975941Y-126260699D01*
X133925326Y-126271500D01*
X131462129Y-126271500D01*
X131395090Y-126251815D01*
X131349335Y-126199011D01*
X131339391Y-126129853D01*
X131342354Y-126115406D01*
X131378636Y-125980000D01*
X130481686Y-125980000D01*
X130507493Y-125939844D01*
X130548000Y-125801889D01*
X130548000Y-125658111D01*
X130507493Y-125520156D01*
X130481686Y-125480000D01*
X131378636Y-125480000D01*
X131378635Y-125479999D01*
X131321432Y-125266513D01*
X131321429Y-125266507D01*
X131221600Y-125052422D01*
X131221599Y-125052420D01*
X131086113Y-124858926D01*
X131086108Y-124858920D01*
X130919082Y-124691894D01*
X130725578Y-124556399D01*
X130511492Y-124456570D01*
X130511486Y-124456567D01*
X130298000Y-124399364D01*
X130298000Y-125294498D01*
X130190315Y-125245320D01*
X130083763Y-125230000D01*
X130012237Y-125230000D01*
X129905685Y-125245320D01*
X129798000Y-125294498D01*
X129798000Y-124399364D01*
X129797999Y-124399364D01*
X129584513Y-124456567D01*
X129584507Y-124456570D01*
X129370422Y-124556399D01*
X129370420Y-124556400D01*
X129176926Y-124691886D01*
X129176920Y-124691891D01*
X129009891Y-124858920D01*
X129009890Y-124858922D01*
X128883131Y-125039952D01*
X128828554Y-125083577D01*
X128759055Y-125090769D01*
X128696701Y-125059247D01*
X128677752Y-125036656D01*
X128583722Y-124892732D01*
X128583715Y-124892725D01*
X128583715Y-124892723D01*
X128431243Y-124727097D01*
X128431238Y-124727092D01*
X128271748Y-124602955D01*
X128253576Y-124588811D01*
X128253575Y-124588810D01*
X128253572Y-124588808D01*
X128055580Y-124481661D01*
X128055577Y-124481659D01*
X128055574Y-124481658D01*
X128055571Y-124481657D01*
X128055569Y-124481656D01*
X127842637Y-124408556D01*
X127620569Y-124371500D01*
X127395431Y-124371500D01*
X127173359Y-124408556D01*
X127169120Y-124409630D01*
X127099299Y-124406999D01*
X127051008Y-124377103D01*
X126840088Y-124166183D01*
X126830187Y-124153823D01*
X126829977Y-124153998D01*
X126825002Y-124147986D01*
X126825000Y-124147982D01*
X126775331Y-124101340D01*
X126772534Y-124098629D01*
X126752766Y-124078861D01*
X126749504Y-124076331D01*
X126740619Y-124068743D01*
X126708321Y-124038414D01*
X126708319Y-124038412D01*
X126690431Y-124028578D01*
X126674170Y-124017897D01*
X126658039Y-124005384D01*
X126617375Y-123987788D01*
X126606885Y-123982649D01*
X126568060Y-123961305D01*
X126568056Y-123961304D01*
X126548287Y-123956228D01*
X126529881Y-123949926D01*
X126511144Y-123941818D01*
X126511145Y-123941818D01*
X126467383Y-123934887D01*
X126455947Y-123932519D01*
X126441193Y-123928731D01*
X126413032Y-123921500D01*
X126413030Y-123921500D01*
X126392616Y-123921500D01*
X126373217Y-123919973D01*
X126353058Y-123916780D01*
X126353057Y-123916780D01*
X126308943Y-123920950D01*
X126297274Y-123921500D01*
X123737397Y-123921500D01*
X123670358Y-123901815D01*
X123649716Y-123885181D01*
X121540811Y-121776276D01*
X121507326Y-121714953D01*
X121512310Y-121645261D01*
X121554182Y-121589328D01*
X121576088Y-121576213D01*
X121683479Y-121526135D01*
X121683481Y-121526134D01*
X121869820Y-121395657D01*
X122030657Y-121234820D01*
X122161134Y-121048482D01*
X122257265Y-120842326D01*
X122257269Y-120842317D01*
X122309872Y-120646000D01*
X121346686Y-120646000D01*
X121358641Y-120634045D01*
X121416165Y-120521148D01*
X121435986Y-120396000D01*
X121416165Y-120270852D01*
X121358641Y-120157955D01*
X121346686Y-120146000D01*
X122309872Y-120146000D01*
X122309872Y-120145999D01*
X122257269Y-119949682D01*
X122257265Y-119949673D01*
X122161134Y-119743517D01*
X122030657Y-119557179D01*
X121869820Y-119396342D01*
X121683481Y-119265865D01*
X121683479Y-119265864D01*
X121624543Y-119238382D01*
X121572103Y-119192210D01*
X121552951Y-119125017D01*
X121573166Y-119058136D01*
X121624543Y-119013618D01*
X121683479Y-118986135D01*
X121683481Y-118986134D01*
X121869820Y-118855657D01*
X122030657Y-118694820D01*
X122161134Y-118508482D01*
X122257265Y-118302326D01*
X122257269Y-118302317D01*
X122309872Y-118106000D01*
X121346686Y-118106000D01*
X121358641Y-118094045D01*
X121416165Y-117981148D01*
X121435986Y-117856000D01*
X121416165Y-117730852D01*
X121358641Y-117617955D01*
X121346686Y-117606000D01*
X122309872Y-117606000D01*
X122309872Y-117605999D01*
X122257269Y-117409682D01*
X122257265Y-117409673D01*
X122183231Y-117250905D01*
X122172739Y-117181827D01*
X122201259Y-117118043D01*
X122259735Y-117079804D01*
X122295613Y-117074500D01*
X127377009Y-117074500D01*
X127444048Y-117094185D01*
X127489803Y-117146989D01*
X127499747Y-117216147D01*
X127489391Y-117250905D01*
X127416717Y-117406755D01*
X127416714Y-117406761D01*
X127357457Y-117627910D01*
X127357456Y-117627918D01*
X127337502Y-117855998D01*
X127337502Y-117856001D01*
X127357456Y-118084081D01*
X127357457Y-118084089D01*
X127416714Y-118305238D01*
X127416718Y-118305249D01*
X127446872Y-118369914D01*
X127513477Y-118512749D01*
X127644802Y-118700300D01*
X127806700Y-118862198D01*
X127983700Y-118986135D01*
X127994251Y-118993523D01*
X128047401Y-119018307D01*
X128099840Y-119064479D01*
X128118992Y-119131673D01*
X128098776Y-119198554D01*
X128047401Y-119243071D01*
X127998517Y-119265865D01*
X127812179Y-119396342D01*
X127651342Y-119557179D01*
X127520865Y-119743517D01*
X127424734Y-119949673D01*
X127424730Y-119949682D01*
X127372127Y-120145999D01*
X127372128Y-120146000D01*
X128335314Y-120146000D01*
X128323359Y-120157955D01*
X128265835Y-120270852D01*
X128246014Y-120396000D01*
X128265835Y-120521148D01*
X128323359Y-120634045D01*
X128335314Y-120646000D01*
X127372128Y-120646000D01*
X127424730Y-120842317D01*
X127424734Y-120842326D01*
X127520865Y-121048482D01*
X127651342Y-121234820D01*
X127812179Y-121395657D01*
X127998517Y-121526134D01*
X128204673Y-121622265D01*
X128204682Y-121622269D01*
X128400999Y-121674872D01*
X128401000Y-121674871D01*
X128401000Y-120711686D01*
X128412955Y-120723641D01*
X128525852Y-120781165D01*
X128619519Y-120796000D01*
X128682481Y-120796000D01*
X128776148Y-120781165D01*
X128889045Y-120723641D01*
X128901000Y-120711686D01*
X128901000Y-121674872D01*
X129097317Y-121622269D01*
X129097326Y-121622265D01*
X129303482Y-121526134D01*
X129489820Y-121395657D01*
X129650657Y-121234820D01*
X129781134Y-121048482D01*
X129877265Y-120842326D01*
X129877269Y-120842317D01*
X129894770Y-120777002D01*
X133188034Y-120777002D01*
X133207858Y-121003599D01*
X133207860Y-121003610D01*
X133266730Y-121223317D01*
X133266735Y-121223331D01*
X133362863Y-121429478D01*
X133413974Y-121502472D01*
X134095046Y-120821400D01*
X134107835Y-120902148D01*
X134165359Y-121015045D01*
X134254955Y-121104641D01*
X134367852Y-121162165D01*
X134448599Y-121174953D01*
X133767526Y-121856025D01*
X133840513Y-121907132D01*
X133840521Y-121907136D01*
X134046668Y-122003264D01*
X134046682Y-122003269D01*
X134266389Y-122062139D01*
X134266400Y-122062141D01*
X134492998Y-122081966D01*
X134493002Y-122081966D01*
X134719599Y-122062141D01*
X134719610Y-122062139D01*
X134939317Y-122003269D01*
X134939331Y-122003264D01*
X135145478Y-121907136D01*
X135218471Y-121856024D01*
X134537400Y-121174953D01*
X134618148Y-121162165D01*
X134731045Y-121104641D01*
X134820641Y-121015045D01*
X134878165Y-120902148D01*
X134890953Y-120821400D01*
X135572024Y-121502471D01*
X135623136Y-121429478D01*
X135719264Y-121223331D01*
X135719269Y-121223317D01*
X135778139Y-121003610D01*
X135778141Y-121003599D01*
X135797966Y-120777002D01*
X135797966Y-120777001D01*
X140799502Y-120777001D01*
X140819456Y-121005081D01*
X140819457Y-121005089D01*
X140878714Y-121226238D01*
X140878718Y-121226249D01*
X140975475Y-121433745D01*
X140975477Y-121433749D01*
X141106802Y-121621300D01*
X141268700Y-121783198D01*
X141456251Y-121914523D01*
X141581091Y-121972736D01*
X141663750Y-122011281D01*
X141663752Y-122011281D01*
X141663757Y-122011284D01*
X141884913Y-122070543D01*
X142047832Y-122084796D01*
X142112998Y-122090498D01*
X142113000Y-122090498D01*
X142113002Y-122090498D01*
X142170021Y-122085509D01*
X142341087Y-122070543D01*
X142562243Y-122011284D01*
X142769749Y-121914523D01*
X142957300Y-121783198D01*
X143119198Y-121621300D01*
X143250523Y-121433749D01*
X143347284Y-121226243D01*
X143406543Y-121005087D01*
X143426498Y-120777000D01*
X143406543Y-120548913D01*
X143347284Y-120327757D01*
X143250523Y-120120251D01*
X143119198Y-119932700D01*
X142957300Y-119770802D01*
X142769749Y-119639477D01*
X142769745Y-119639475D01*
X142562249Y-119542718D01*
X142562238Y-119542714D01*
X142341089Y-119483457D01*
X142341081Y-119483456D01*
X142113002Y-119463502D01*
X142112998Y-119463502D01*
X141884918Y-119483456D01*
X141884910Y-119483457D01*
X141663761Y-119542714D01*
X141663750Y-119542718D01*
X141456254Y-119639475D01*
X141456252Y-119639476D01*
X141409326Y-119672334D01*
X141268700Y-119770802D01*
X141268698Y-119770803D01*
X141268695Y-119770806D01*
X141106806Y-119932695D01*
X141106803Y-119932698D01*
X141106802Y-119932700D01*
X141094911Y-119949682D01*
X140975476Y-120120252D01*
X140975475Y-120120254D01*
X140878718Y-120327750D01*
X140878714Y-120327761D01*
X140819457Y-120548910D01*
X140819456Y-120548918D01*
X140799502Y-120776998D01*
X140799502Y-120777001D01*
X135797966Y-120777001D01*
X135797966Y-120776997D01*
X135778141Y-120550400D01*
X135778139Y-120550389D01*
X135719269Y-120330682D01*
X135719264Y-120330668D01*
X135623136Y-120124521D01*
X135623132Y-120124513D01*
X135572025Y-120051526D01*
X134890953Y-120732598D01*
X134878165Y-120651852D01*
X134820641Y-120538955D01*
X134731045Y-120449359D01*
X134618148Y-120391835D01*
X134537401Y-120379046D01*
X135218472Y-119697974D01*
X135145478Y-119646863D01*
X134939331Y-119550735D01*
X134939317Y-119550730D01*
X134719610Y-119491860D01*
X134719599Y-119491858D01*
X134493002Y-119472034D01*
X134492998Y-119472034D01*
X134266400Y-119491858D01*
X134266389Y-119491860D01*
X134046682Y-119550730D01*
X134046673Y-119550734D01*
X133840516Y-119646866D01*
X133840512Y-119646868D01*
X133767526Y-119697973D01*
X133767526Y-119697974D01*
X134448599Y-120379046D01*
X134367852Y-120391835D01*
X134254955Y-120449359D01*
X134165359Y-120538955D01*
X134107835Y-120651852D01*
X134095046Y-120732598D01*
X133413974Y-120051526D01*
X133413973Y-120051526D01*
X133362868Y-120124512D01*
X133362866Y-120124516D01*
X133266734Y-120330673D01*
X133266730Y-120330682D01*
X133207860Y-120550389D01*
X133207858Y-120550400D01*
X133188034Y-120776997D01*
X133188034Y-120777002D01*
X129894770Y-120777002D01*
X129929872Y-120646000D01*
X128966686Y-120646000D01*
X128978641Y-120634045D01*
X129036165Y-120521148D01*
X129055986Y-120396000D01*
X129036165Y-120270852D01*
X128978641Y-120157955D01*
X128966686Y-120146000D01*
X129929872Y-120146000D01*
X129929872Y-120145999D01*
X129877269Y-119949682D01*
X129877265Y-119949673D01*
X129781134Y-119743517D01*
X129650657Y-119557179D01*
X129489820Y-119396342D01*
X129303481Y-119265865D01*
X129303479Y-119265864D01*
X129254599Y-119243071D01*
X129202159Y-119196899D01*
X129183007Y-119129706D01*
X129203223Y-119062824D01*
X129254599Y-119018307D01*
X129258283Y-119016589D01*
X129307749Y-118993523D01*
X129495300Y-118862198D01*
X129657198Y-118700300D01*
X129788523Y-118512749D01*
X129885284Y-118305243D01*
X129944543Y-118084087D01*
X129964498Y-117856000D01*
X129944543Y-117627913D01*
X129885284Y-117406757D01*
X129812608Y-117250903D01*
X129802117Y-117181827D01*
X129830637Y-117118043D01*
X129889113Y-117079804D01*
X129924991Y-117074500D01*
X135423366Y-117074500D01*
X135439113Y-117076238D01*
X135439139Y-117075968D01*
X135446905Y-117076701D01*
X135446909Y-117076702D01*
X135515017Y-117074560D01*
X135518913Y-117074500D01*
X135546858Y-117074500D01*
X135546860Y-117074499D01*
X135548262Y-117074322D01*
X135550949Y-117073983D01*
X135562608Y-117073064D01*
X135606889Y-117071673D01*
X135626481Y-117065980D01*
X135645538Y-117062032D01*
X135665797Y-117059474D01*
X135707006Y-117043157D01*
X135718043Y-117039379D01*
X135760593Y-117027018D01*
X135778165Y-117016625D01*
X135795632Y-117008068D01*
X135814617Y-117000552D01*
X135850461Y-116974508D01*
X135860230Y-116968092D01*
X135898362Y-116945542D01*
X135912802Y-116931100D01*
X135927592Y-116918470D01*
X135944107Y-116906472D01*
X135972359Y-116872319D01*
X135980203Y-116863699D01*
X136473569Y-116370333D01*
X136534890Y-116336850D01*
X136593341Y-116338241D01*
X136611979Y-116343234D01*
X136657913Y-116355543D01*
X136820832Y-116369796D01*
X136885998Y-116375498D01*
X136886000Y-116375498D01*
X136886002Y-116375498D01*
X136945013Y-116370335D01*
X137114087Y-116355543D01*
X137335243Y-116296284D01*
X137542749Y-116199523D01*
X137730300Y-116068198D01*
X137892198Y-115906300D01*
X138023523Y-115718749D01*
X138120284Y-115511243D01*
X138179543Y-115290087D01*
X138188387Y-115189001D01*
X140077502Y-115189001D01*
X140097456Y-115417081D01*
X140097457Y-115417089D01*
X140156714Y-115638238D01*
X140156718Y-115638249D01*
X140222407Y-115779119D01*
X140253477Y-115845749D01*
X140384802Y-116033300D01*
X140546700Y-116195198D01*
X140734251Y-116326523D01*
X140796481Y-116355541D01*
X140941750Y-116423281D01*
X140941752Y-116423281D01*
X140941757Y-116423284D01*
X141162913Y-116482543D01*
X141325832Y-116496796D01*
X141390998Y-116502498D01*
X141391000Y-116502498D01*
X141391002Y-116502498D01*
X141448021Y-116497509D01*
X141619087Y-116482543D01*
X141840243Y-116423284D01*
X142047749Y-116326523D01*
X142235300Y-116195198D01*
X142397198Y-116033300D01*
X142528523Y-115845749D01*
X142625284Y-115638243D01*
X142684543Y-115417087D01*
X142704498Y-115189001D01*
X145077502Y-115189001D01*
X145097456Y-115417081D01*
X145097457Y-115417089D01*
X145156714Y-115638238D01*
X145156718Y-115638249D01*
X145222407Y-115779119D01*
X145253477Y-115845749D01*
X145384802Y-116033300D01*
X145546700Y-116195198D01*
X145734251Y-116326523D01*
X145796481Y-116355541D01*
X145941750Y-116423281D01*
X145941752Y-116423281D01*
X145941757Y-116423284D01*
X146162913Y-116482543D01*
X146325832Y-116496796D01*
X146390998Y-116502498D01*
X146391000Y-116502498D01*
X146391002Y-116502498D01*
X146448021Y-116497509D01*
X146619087Y-116482543D01*
X146840243Y-116423284D01*
X147047749Y-116326523D01*
X147235300Y-116195198D01*
X147397198Y-116033300D01*
X147528523Y-115845749D01*
X147625284Y-115638243D01*
X147684543Y-115417087D01*
X147704498Y-115189000D01*
X147684543Y-114960913D01*
X147625284Y-114739757D01*
X147528523Y-114532251D01*
X147397198Y-114344700D01*
X147235300Y-114182802D01*
X147047749Y-114051477D01*
X147028052Y-114042292D01*
X146840249Y-113954718D01*
X146840238Y-113954714D01*
X146619089Y-113895457D01*
X146619081Y-113895456D01*
X146391002Y-113875502D01*
X146390998Y-113875502D01*
X146162918Y-113895456D01*
X146162910Y-113895457D01*
X145941761Y-113954714D01*
X145941750Y-113954718D01*
X145734254Y-114051475D01*
X145734252Y-114051476D01*
X145663856Y-114100767D01*
X145546700Y-114182802D01*
X145546698Y-114182803D01*
X145546695Y-114182806D01*
X145384806Y-114344695D01*
X145253476Y-114532252D01*
X145253475Y-114532254D01*
X145156718Y-114739750D01*
X145156714Y-114739761D01*
X145097457Y-114960910D01*
X145097456Y-114960918D01*
X145077502Y-115188998D01*
X145077502Y-115189001D01*
X142704498Y-115189001D01*
X142704498Y-115189000D01*
X142684543Y-114960913D01*
X142625284Y-114739757D01*
X142528523Y-114532251D01*
X142397198Y-114344700D01*
X142235300Y-114182802D01*
X142047749Y-114051477D01*
X142028052Y-114042292D01*
X141840249Y-113954718D01*
X141840238Y-113954714D01*
X141619089Y-113895457D01*
X141619081Y-113895456D01*
X141391002Y-113875502D01*
X141390998Y-113875502D01*
X141162918Y-113895456D01*
X141162910Y-113895457D01*
X140941761Y-113954714D01*
X140941750Y-113954718D01*
X140734254Y-114051475D01*
X140734252Y-114051476D01*
X140663856Y-114100767D01*
X140546700Y-114182802D01*
X140546698Y-114182803D01*
X140546695Y-114182806D01*
X140384806Y-114344695D01*
X140253476Y-114532252D01*
X140253475Y-114532254D01*
X140156718Y-114739750D01*
X140156714Y-114739761D01*
X140097457Y-114960910D01*
X140097456Y-114960918D01*
X140077502Y-115188998D01*
X140077502Y-115189001D01*
X138188387Y-115189001D01*
X138199498Y-115062000D01*
X138179543Y-114833913D01*
X138120284Y-114612757D01*
X138023523Y-114405251D01*
X137892198Y-114217700D01*
X137730300Y-114055802D01*
X137542749Y-113924477D01*
X137542745Y-113924475D01*
X137335249Y-113827718D01*
X137335238Y-113827714D01*
X137114089Y-113768457D01*
X137114082Y-113768456D01*
X136883685Y-113748299D01*
X136818617Y-113722846D01*
X136777638Y-113666255D01*
X136773760Y-113596493D01*
X136806810Y-113537092D01*
X140284902Y-110059000D01*
X140346223Y-110025517D01*
X140361764Y-110023156D01*
X140563087Y-110005543D01*
X140784243Y-109946284D01*
X140991749Y-109849523D01*
X141179300Y-109718198D01*
X141341198Y-109556300D01*
X141472523Y-109368749D01*
X141569284Y-109161243D01*
X141628543Y-108940087D01*
X141648498Y-108712001D01*
X146641502Y-108712001D01*
X146661456Y-108940081D01*
X146661457Y-108940089D01*
X146720714Y-109161238D01*
X146720718Y-109161249D01*
X146752685Y-109229802D01*
X146817477Y-109368749D01*
X146948802Y-109556300D01*
X147110700Y-109718198D01*
X147298251Y-109849523D01*
X147386921Y-109890870D01*
X147505750Y-109946281D01*
X147505752Y-109946281D01*
X147505757Y-109946284D01*
X147726913Y-110005543D01*
X147889832Y-110019796D01*
X147954998Y-110025498D01*
X147955000Y-110025498D01*
X147955002Y-110025498D01*
X148012021Y-110020509D01*
X148183087Y-110005543D01*
X148404243Y-109946284D01*
X148611749Y-109849523D01*
X148799300Y-109718198D01*
X148961198Y-109556300D01*
X149092523Y-109368749D01*
X149189284Y-109161243D01*
X149248543Y-108940087D01*
X149268498Y-108712000D01*
X149267640Y-108702198D01*
X149262527Y-108643750D01*
X149248543Y-108483913D01*
X149189284Y-108262757D01*
X149092523Y-108055251D01*
X148961198Y-107867700D01*
X148799300Y-107705802D01*
X148611749Y-107574477D01*
X148598052Y-107568090D01*
X148404249Y-107477718D01*
X148404238Y-107477714D01*
X148183089Y-107418457D01*
X148183081Y-107418456D01*
X147955002Y-107398502D01*
X147954998Y-107398502D01*
X147726918Y-107418456D01*
X147726910Y-107418457D01*
X147505761Y-107477714D01*
X147505750Y-107477718D01*
X147298254Y-107574475D01*
X147298252Y-107574476D01*
X147298251Y-107574477D01*
X147110700Y-107705802D01*
X147110698Y-107705803D01*
X147110695Y-107705806D01*
X146948806Y-107867695D01*
X146948803Y-107867698D01*
X146948802Y-107867700D01*
X146887340Y-107955477D01*
X146817476Y-108055252D01*
X146817475Y-108055254D01*
X146720718Y-108262750D01*
X146720714Y-108262761D01*
X146661457Y-108483910D01*
X146661456Y-108483918D01*
X146641502Y-108711998D01*
X146641502Y-108712001D01*
X141648498Y-108712001D01*
X141648498Y-108712000D01*
X141647640Y-108702198D01*
X141642527Y-108643750D01*
X141628543Y-108483913D01*
X141569284Y-108262757D01*
X141472523Y-108055251D01*
X141341198Y-107867700D01*
X141179300Y-107705802D01*
X140991749Y-107574477D01*
X140978052Y-107568090D01*
X140784249Y-107477718D01*
X140784238Y-107477714D01*
X140563089Y-107418457D01*
X140563081Y-107418456D01*
X140335002Y-107398502D01*
X140334998Y-107398502D01*
X140106918Y-107418456D01*
X140106910Y-107418457D01*
X139885761Y-107477714D01*
X139885750Y-107477718D01*
X139678254Y-107574475D01*
X139678252Y-107574476D01*
X139678251Y-107574477D01*
X139490700Y-107705802D01*
X139490698Y-107705803D01*
X139490695Y-107705806D01*
X139328806Y-107867695D01*
X139328803Y-107867698D01*
X139328802Y-107867700D01*
X139267340Y-107955477D01*
X139197476Y-108055252D01*
X139197475Y-108055254D01*
X139100718Y-108262750D01*
X139100714Y-108262761D01*
X139041457Y-108483910D01*
X139041456Y-108483918D01*
X139021502Y-108711998D01*
X139021502Y-108712001D01*
X139041456Y-108940081D01*
X139041457Y-108940089D01*
X139100714Y-109161238D01*
X139100715Y-109161240D01*
X139100716Y-109161243D01*
X139156289Y-109280420D01*
X139166781Y-109349497D01*
X139138261Y-109413281D01*
X139131588Y-109420505D01*
X134798429Y-113753664D01*
X134737106Y-113787149D01*
X134678655Y-113785758D01*
X134620786Y-113770252D01*
X134614091Y-113768458D01*
X134614089Y-113768457D01*
X134614087Y-113768457D01*
X134614085Y-113768456D01*
X134614081Y-113768456D01*
X134386002Y-113748502D01*
X134385998Y-113748502D01*
X134157918Y-113768456D01*
X134157910Y-113768457D01*
X133936761Y-113827714D01*
X133936750Y-113827718D01*
X133729254Y-113924475D01*
X133729252Y-113924476D01*
X133686068Y-113954714D01*
X133541700Y-114055802D01*
X133541698Y-114055803D01*
X133541695Y-114055806D01*
X133379806Y-114217695D01*
X133379803Y-114217698D01*
X133379802Y-114217700D01*
X133310732Y-114316342D01*
X133248476Y-114405252D01*
X133248475Y-114405254D01*
X133151718Y-114612750D01*
X133151714Y-114612761D01*
X133092457Y-114833910D01*
X133092456Y-114833918D01*
X133072502Y-115061998D01*
X133072502Y-115062001D01*
X133092456Y-115290081D01*
X133092457Y-115290089D01*
X133151714Y-115511238D01*
X133151715Y-115511240D01*
X133151716Y-115511243D01*
X133207604Y-115631095D01*
X133218096Y-115700173D01*
X133189576Y-115763957D01*
X133131100Y-115802196D01*
X133095222Y-115807500D01*
X130026763Y-115807500D01*
X129959724Y-115787815D01*
X129913969Y-115735011D01*
X129904025Y-115665853D01*
X129906988Y-115651407D01*
X129929872Y-115566000D01*
X128966686Y-115566000D01*
X128978641Y-115554045D01*
X129036165Y-115441148D01*
X129055986Y-115316000D01*
X129036165Y-115190852D01*
X128978641Y-115077955D01*
X128966686Y-115066000D01*
X129929872Y-115066000D01*
X129929872Y-115065999D01*
X129877269Y-114869682D01*
X129877265Y-114869673D01*
X129781134Y-114663517D01*
X129650657Y-114477179D01*
X129489820Y-114316342D01*
X129303481Y-114185865D01*
X129303479Y-114185864D01*
X129254599Y-114163071D01*
X129202159Y-114116899D01*
X129183007Y-114049706D01*
X129203223Y-113982824D01*
X129254599Y-113938307D01*
X129307749Y-113913523D01*
X129495300Y-113782198D01*
X129657198Y-113620300D01*
X129788523Y-113432749D01*
X129885284Y-113225243D01*
X129944543Y-113004087D01*
X129964498Y-112776000D01*
X129944543Y-112547913D01*
X129885284Y-112326757D01*
X129788523Y-112119251D01*
X129657198Y-111931700D01*
X129495300Y-111769802D01*
X129307749Y-111638477D01*
X129264655Y-111618382D01*
X129212215Y-111572210D01*
X129193063Y-111505017D01*
X129213278Y-111438136D01*
X129264655Y-111393618D01*
X129267882Y-111392112D01*
X129307749Y-111373523D01*
X129495300Y-111242198D01*
X129657198Y-111080300D01*
X129788523Y-110892749D01*
X129885284Y-110685243D01*
X129944543Y-110464087D01*
X129964498Y-110236000D01*
X129963536Y-110225009D01*
X129951510Y-110087551D01*
X129944543Y-110007913D01*
X129885284Y-109786757D01*
X129868027Y-109749750D01*
X129788524Y-109579254D01*
X129788523Y-109579252D01*
X129788523Y-109579251D01*
X129657198Y-109391700D01*
X129495300Y-109229802D01*
X129307749Y-109098477D01*
X129296003Y-109093000D01*
X129264655Y-109078382D01*
X129212215Y-109032210D01*
X129193063Y-108965017D01*
X129213278Y-108898136D01*
X129264655Y-108853618D01*
X129267882Y-108852112D01*
X129307749Y-108833523D01*
X129495300Y-108702198D01*
X129657198Y-108540300D01*
X129788523Y-108352749D01*
X129885284Y-108145243D01*
X129944543Y-107924087D01*
X129964498Y-107696000D01*
X129944543Y-107467913D01*
X129915786Y-107360591D01*
X129917449Y-107290744D01*
X129956611Y-107232882D01*
X130020839Y-107205377D01*
X130035561Y-107204500D01*
X134284234Y-107204500D01*
X134351273Y-107224185D01*
X134371915Y-107240819D01*
X134699186Y-107568090D01*
X134732671Y-107629413D01*
X134727687Y-107699105D01*
X134685815Y-107755038D01*
X134622313Y-107779299D01*
X134391917Y-107799456D01*
X134391910Y-107799457D01*
X134170761Y-107858714D01*
X134170750Y-107858718D01*
X133963254Y-107955475D01*
X133963252Y-107955476D01*
X133963251Y-107955477D01*
X133775700Y-108086802D01*
X133775698Y-108086803D01*
X133775695Y-108086806D01*
X133613806Y-108248695D01*
X133613803Y-108248698D01*
X133613802Y-108248700D01*
X133540949Y-108352745D01*
X133482476Y-108436252D01*
X133482475Y-108436254D01*
X133385718Y-108643750D01*
X133385714Y-108643761D01*
X133326457Y-108864910D01*
X133326456Y-108864918D01*
X133306502Y-109092998D01*
X133306502Y-109093001D01*
X133326456Y-109321081D01*
X133326457Y-109321089D01*
X133385714Y-109542238D01*
X133385718Y-109542249D01*
X133480292Y-109745063D01*
X133482477Y-109749749D01*
X133613802Y-109937300D01*
X133775700Y-110099198D01*
X133963251Y-110230523D01*
X134051595Y-110271718D01*
X134170750Y-110327281D01*
X134170752Y-110327281D01*
X134170757Y-110327284D01*
X134391913Y-110386543D01*
X134554832Y-110400796D01*
X134619998Y-110406498D01*
X134620000Y-110406498D01*
X134620002Y-110406498D01*
X134677021Y-110401509D01*
X134848087Y-110386543D01*
X135069243Y-110327284D01*
X135276749Y-110230523D01*
X135464300Y-110099198D01*
X135626198Y-109937300D01*
X135757523Y-109749749D01*
X135757616Y-109749548D01*
X135757680Y-109749475D01*
X135760228Y-109745063D01*
X135761114Y-109745574D01*
X135803785Y-109697108D01*
X135870978Y-109677953D01*
X135937860Y-109698165D01*
X135978922Y-109745553D01*
X135979772Y-109745063D01*
X135982317Y-109749471D01*
X135982383Y-109749547D01*
X135982477Y-109749749D01*
X136113802Y-109937300D01*
X136275700Y-110099198D01*
X136463251Y-110230523D01*
X136551595Y-110271718D01*
X136670750Y-110327281D01*
X136670752Y-110327281D01*
X136670757Y-110327284D01*
X136891913Y-110386543D01*
X137054832Y-110400796D01*
X137119998Y-110406498D01*
X137120000Y-110406498D01*
X137120002Y-110406498D01*
X137177021Y-110401509D01*
X137348087Y-110386543D01*
X137569243Y-110327284D01*
X137776749Y-110230523D01*
X137964300Y-110099198D01*
X138126198Y-109937300D01*
X138257523Y-109749749D01*
X138354284Y-109542243D01*
X138413543Y-109321087D01*
X138433498Y-109093000D01*
X138413543Y-108864913D01*
X138354284Y-108643757D01*
X138257523Y-108436251D01*
X138126198Y-108248700D01*
X137964300Y-108086802D01*
X137776749Y-107955477D01*
X137776745Y-107955475D01*
X137569249Y-107858718D01*
X137569238Y-107858714D01*
X137348089Y-107799457D01*
X137348081Y-107799456D01*
X137120002Y-107779502D01*
X137119998Y-107779502D01*
X136891918Y-107799456D01*
X136891907Y-107799458D01*
X136827343Y-107816758D01*
X136757493Y-107815095D01*
X136707569Y-107784664D01*
X135105088Y-106182183D01*
X135095187Y-106169823D01*
X135094977Y-106169998D01*
X135090001Y-106163984D01*
X135090000Y-106163982D01*
X135040315Y-106117325D01*
X135037550Y-106114645D01*
X135017766Y-106094861D01*
X135014504Y-106092331D01*
X135005619Y-106084743D01*
X134973321Y-106054414D01*
X134973319Y-106054412D01*
X134955431Y-106044578D01*
X134939170Y-106033897D01*
X134923039Y-106021384D01*
X134882375Y-106003788D01*
X134871885Y-105998649D01*
X134833060Y-105977305D01*
X134833056Y-105977304D01*
X134813287Y-105972228D01*
X134794881Y-105965926D01*
X134776144Y-105957818D01*
X134776145Y-105957818D01*
X134732383Y-105950887D01*
X134720947Y-105948519D01*
X134706193Y-105944731D01*
X134678032Y-105937500D01*
X134678030Y-105937500D01*
X134657616Y-105937500D01*
X134638217Y-105935973D01*
X134618058Y-105932780D01*
X134618057Y-105932780D01*
X134573943Y-105936950D01*
X134562274Y-105937500D01*
X129924991Y-105937500D01*
X129857952Y-105917815D01*
X129812197Y-105865011D01*
X129802253Y-105795853D01*
X129812609Y-105761095D01*
X129885284Y-105605243D01*
X129944543Y-105384087D01*
X129964498Y-105156000D01*
X129963623Y-105146004D01*
X129954207Y-105038372D01*
X129944543Y-104927913D01*
X129885284Y-104706757D01*
X129788523Y-104499251D01*
X129657198Y-104311700D01*
X129495300Y-104149802D01*
X129307749Y-104018477D01*
X129265137Y-103998607D01*
X129264655Y-103998382D01*
X129212215Y-103952210D01*
X129193063Y-103885017D01*
X129213278Y-103818136D01*
X129264655Y-103773618D01*
X129267882Y-103772112D01*
X129307749Y-103753523D01*
X129495300Y-103622198D01*
X129657198Y-103460300D01*
X129788523Y-103272749D01*
X129798663Y-103251004D01*
X132381793Y-103251004D01*
X132400592Y-103501866D01*
X132405919Y-103525204D01*
X132456573Y-103747134D01*
X132548483Y-103981316D01*
X132674269Y-104199184D01*
X132831122Y-104395872D01*
X133015538Y-104566984D01*
X133223397Y-104708700D01*
X133450055Y-104817853D01*
X133690451Y-104892005D01*
X133690452Y-104892005D01*
X133690455Y-104892006D01*
X133939206Y-104929499D01*
X133939211Y-104929499D01*
X133939214Y-104929500D01*
X133939215Y-104929500D01*
X134190785Y-104929500D01*
X134190786Y-104929500D01*
X134201335Y-104927910D01*
X134439544Y-104892006D01*
X134439545Y-104892005D01*
X134439549Y-104892005D01*
X134679945Y-104817853D01*
X134906604Y-104708700D01*
X135114462Y-104566984D01*
X135298878Y-104395872D01*
X135455731Y-104199184D01*
X135581517Y-103981316D01*
X135673427Y-103747134D01*
X135729407Y-103501869D01*
X135738372Y-103382234D01*
X135748207Y-103251004D01*
X137381793Y-103251004D01*
X137400592Y-103501866D01*
X137405919Y-103525204D01*
X137456573Y-103747134D01*
X137548483Y-103981316D01*
X137674269Y-104199184D01*
X137831122Y-104395872D01*
X138015538Y-104566984D01*
X138223397Y-104708700D01*
X138450055Y-104817853D01*
X138690451Y-104892005D01*
X138690452Y-104892005D01*
X138690455Y-104892006D01*
X138939206Y-104929499D01*
X138939211Y-104929499D01*
X138939214Y-104929500D01*
X138939215Y-104929500D01*
X139190785Y-104929500D01*
X139190786Y-104929500D01*
X139201335Y-104927910D01*
X139439544Y-104892006D01*
X139439545Y-104892005D01*
X139439549Y-104892005D01*
X139679945Y-104817853D01*
X139906604Y-104708700D01*
X140114462Y-104566984D01*
X140298878Y-104395872D01*
X140455731Y-104199184D01*
X140581517Y-103981316D01*
X140673427Y-103747134D01*
X140729407Y-103501869D01*
X140738372Y-103382234D01*
X140748207Y-103251004D01*
X142381793Y-103251004D01*
X142400592Y-103501866D01*
X142405919Y-103525204D01*
X142456573Y-103747134D01*
X142548483Y-103981316D01*
X142674269Y-104199184D01*
X142831122Y-104395872D01*
X143015538Y-104566984D01*
X143223397Y-104708700D01*
X143450055Y-104817853D01*
X143690451Y-104892005D01*
X143690452Y-104892005D01*
X143690455Y-104892006D01*
X143939206Y-104929499D01*
X143939211Y-104929499D01*
X143939214Y-104929500D01*
X143939215Y-104929500D01*
X144190785Y-104929500D01*
X144190786Y-104929500D01*
X144201335Y-104927910D01*
X144439544Y-104892006D01*
X144439545Y-104892005D01*
X144439549Y-104892005D01*
X144679945Y-104817853D01*
X144906604Y-104708700D01*
X145114462Y-104566984D01*
X145298878Y-104395872D01*
X145455731Y-104199184D01*
X145581517Y-103981316D01*
X145673427Y-103747134D01*
X145729407Y-103501869D01*
X145738372Y-103382234D01*
X145748207Y-103251004D01*
X145748207Y-103250995D01*
X145730062Y-103008877D01*
X145729407Y-103000131D01*
X145673427Y-102754866D01*
X145581517Y-102520684D01*
X145455731Y-102302816D01*
X145298878Y-102106128D01*
X145114462Y-101935016D01*
X145022482Y-101872305D01*
X144906607Y-101793302D01*
X144906596Y-101793295D01*
X144679947Y-101684148D01*
X144679949Y-101684148D01*
X144439550Y-101609995D01*
X144439544Y-101609993D01*
X144190793Y-101572500D01*
X144190786Y-101572500D01*
X143939214Y-101572500D01*
X143939206Y-101572500D01*
X143690455Y-101609993D01*
X143690449Y-101609995D01*
X143450054Y-101684147D01*
X143223401Y-101793297D01*
X143015537Y-101935016D01*
X142831123Y-102106126D01*
X142831122Y-102106128D01*
X142674269Y-102302816D01*
X142548483Y-102520683D01*
X142456575Y-102754860D01*
X142456570Y-102754877D01*
X142400592Y-103000133D01*
X142381793Y-103250995D01*
X142381793Y-103251004D01*
X140748207Y-103251004D01*
X140748207Y-103250995D01*
X140730062Y-103008877D01*
X140729407Y-103000131D01*
X140673427Y-102754866D01*
X140581517Y-102520684D01*
X140455731Y-102302816D01*
X140298878Y-102106128D01*
X140114462Y-101935016D01*
X140022482Y-101872305D01*
X139906607Y-101793302D01*
X139906596Y-101793295D01*
X139679947Y-101684148D01*
X139679949Y-101684148D01*
X139439550Y-101609995D01*
X139439544Y-101609993D01*
X139190793Y-101572500D01*
X139190786Y-101572500D01*
X138939214Y-101572500D01*
X138939206Y-101572500D01*
X138690455Y-101609993D01*
X138690449Y-101609995D01*
X138450054Y-101684147D01*
X138223401Y-101793297D01*
X138015537Y-101935016D01*
X137831123Y-102106126D01*
X137831122Y-102106128D01*
X137674269Y-102302816D01*
X137548483Y-102520683D01*
X137456575Y-102754860D01*
X137456570Y-102754877D01*
X137400592Y-103000133D01*
X137381793Y-103250995D01*
X137381793Y-103251004D01*
X135748207Y-103251004D01*
X135748207Y-103250995D01*
X135730062Y-103008877D01*
X135729407Y-103000131D01*
X135673427Y-102754866D01*
X135581517Y-102520684D01*
X135455731Y-102302816D01*
X135298878Y-102106128D01*
X135114462Y-101935016D01*
X135022482Y-101872305D01*
X134906607Y-101793302D01*
X134906596Y-101793295D01*
X134679947Y-101684148D01*
X134679949Y-101684148D01*
X134439550Y-101609995D01*
X134439544Y-101609993D01*
X134190793Y-101572500D01*
X134190786Y-101572500D01*
X133939214Y-101572500D01*
X133939206Y-101572500D01*
X133690455Y-101609993D01*
X133690449Y-101609995D01*
X133450054Y-101684147D01*
X133223401Y-101793297D01*
X133015537Y-101935016D01*
X132831123Y-102106126D01*
X132831122Y-102106128D01*
X132674269Y-102302816D01*
X132548483Y-102520683D01*
X132456575Y-102754860D01*
X132456570Y-102754877D01*
X132400592Y-103000133D01*
X132381793Y-103250995D01*
X132381793Y-103251004D01*
X129798663Y-103251004D01*
X129885284Y-103065243D01*
X129944543Y-102844087D01*
X129964498Y-102616000D01*
X129944543Y-102387913D01*
X129885284Y-102166757D01*
X129857011Y-102106126D01*
X129833025Y-102054686D01*
X129788523Y-101959251D01*
X129657198Y-101771700D01*
X129495300Y-101609802D01*
X129307749Y-101478477D01*
X129307745Y-101478475D01*
X129100249Y-101381718D01*
X129100238Y-101381714D01*
X128879089Y-101322457D01*
X128879081Y-101322456D01*
X128651002Y-101302502D01*
X128650998Y-101302502D01*
X128422918Y-101322456D01*
X128422910Y-101322457D01*
X128201761Y-101381714D01*
X128201750Y-101381718D01*
X127994254Y-101478475D01*
X127994252Y-101478476D01*
X127994251Y-101478477D01*
X127806700Y-101609802D01*
X127806698Y-101609803D01*
X127806695Y-101609806D01*
X127644806Y-101771695D01*
X127644803Y-101771698D01*
X127644802Y-101771700D01*
X127629676Y-101793302D01*
X127513476Y-101959252D01*
X127513475Y-101959254D01*
X127416718Y-102166750D01*
X127416714Y-102166761D01*
X127357457Y-102387910D01*
X127357456Y-102387918D01*
X127337502Y-102615998D01*
X127337502Y-102616001D01*
X127357456Y-102844081D01*
X127357457Y-102844089D01*
X127416714Y-103065238D01*
X127416718Y-103065249D01*
X127458078Y-103153945D01*
X127513477Y-103272749D01*
X127644802Y-103460300D01*
X127806700Y-103622198D01*
X127985127Y-103747134D01*
X127994251Y-103753523D01*
X128037345Y-103773618D01*
X128089784Y-103819791D01*
X128108936Y-103886984D01*
X128088720Y-103953865D01*
X128037345Y-103998382D01*
X127994251Y-104018476D01*
X127915640Y-104073521D01*
X127806700Y-104149802D01*
X127806698Y-104149803D01*
X127806695Y-104149806D01*
X127644806Y-104311695D01*
X127513476Y-104499252D01*
X127513475Y-104499254D01*
X127416718Y-104706750D01*
X127416714Y-104706761D01*
X127357457Y-104927910D01*
X127357456Y-104927918D01*
X127337502Y-105155998D01*
X127337502Y-105156001D01*
X127357456Y-105384081D01*
X127357457Y-105384089D01*
X127416714Y-105605238D01*
X127416715Y-105605240D01*
X127416716Y-105605243D01*
X127416719Y-105605249D01*
X127489391Y-105761095D01*
X127499883Y-105830173D01*
X127471363Y-105893957D01*
X127412887Y-105932196D01*
X127377009Y-105937500D01*
X122304991Y-105937500D01*
X122237952Y-105917815D01*
X122192197Y-105865011D01*
X122182253Y-105795853D01*
X122192609Y-105761095D01*
X122265284Y-105605243D01*
X122324543Y-105384087D01*
X122344498Y-105156000D01*
X122343623Y-105146004D01*
X122334207Y-105038372D01*
X122324543Y-104927913D01*
X122265284Y-104706757D01*
X122168523Y-104499251D01*
X122037198Y-104311700D01*
X121875300Y-104149802D01*
X121867627Y-104144429D01*
X121824006Y-104089853D01*
X121816814Y-104020355D01*
X121848338Y-103958001D01*
X121908568Y-103922588D01*
X121925489Y-103919570D01*
X121940201Y-103917989D01*
X122077204Y-103866889D01*
X122194261Y-103779261D01*
X122281889Y-103662204D01*
X122332989Y-103525201D01*
X122336591Y-103491692D01*
X122339499Y-103464654D01*
X122339500Y-103464637D01*
X122339500Y-101767362D01*
X122339499Y-101767345D01*
X122336157Y-101736270D01*
X122332989Y-101706799D01*
X122281889Y-101569796D01*
X122194261Y-101452739D01*
X122077204Y-101365111D01*
X121940203Y-101314011D01*
X121879654Y-101307500D01*
X121879638Y-101307500D01*
X120182362Y-101307500D01*
X120182345Y-101307500D01*
X120121797Y-101314011D01*
X120121795Y-101314011D01*
X119984795Y-101365111D01*
X119867739Y-101452739D01*
X119780111Y-101569795D01*
X119729011Y-101706795D01*
X119729011Y-101706797D01*
X119722500Y-101767345D01*
X119722500Y-103464654D01*
X119729011Y-103525202D01*
X119729011Y-103525204D01*
X119765189Y-103622198D01*
X119780111Y-103662204D01*
X119867739Y-103779261D01*
X119984796Y-103866889D01*
X120084110Y-103903931D01*
X120121793Y-103917987D01*
X120121799Y-103917989D01*
X120136499Y-103919569D01*
X120201048Y-103946305D01*
X120240897Y-104003696D01*
X120243393Y-104073521D01*
X120207742Y-104133611D01*
X120194377Y-104144425D01*
X120194371Y-104144431D01*
X120186696Y-104149805D01*
X120024806Y-104311695D01*
X119893476Y-104499252D01*
X119893475Y-104499254D01*
X119796718Y-104706750D01*
X119796714Y-104706761D01*
X119737457Y-104927910D01*
X119737456Y-104927918D01*
X119717502Y-105155998D01*
X119717502Y-105156001D01*
X119737456Y-105384081D01*
X119737457Y-105384089D01*
X119796714Y-105605238D01*
X119796718Y-105605249D01*
X119885598Y-105795853D01*
X119893477Y-105812749D01*
X120024802Y-106000300D01*
X120186700Y-106162198D01*
X120374251Y-106293523D01*
X120417345Y-106313618D01*
X120469784Y-106359791D01*
X120488936Y-106426984D01*
X120468720Y-106493865D01*
X120417345Y-106538382D01*
X120374251Y-106558476D01*
X120249126Y-106646090D01*
X120186700Y-106689802D01*
X120186698Y-106689803D01*
X120186695Y-106689806D01*
X120024806Y-106851695D01*
X120024803Y-106851698D01*
X120024802Y-106851700D01*
X119914220Y-107009625D01*
X119859646Y-107053249D01*
X119812648Y-107062500D01*
X111014640Y-107062500D01*
X110998888Y-107060760D01*
X110998863Y-107061032D01*
X110991101Y-107060298D01*
X110991100Y-107060298D01*
X110967746Y-107061032D01*
X110922978Y-107062439D01*
X110919083Y-107062500D01*
X110891153Y-107062500D01*
X110891150Y-107062500D01*
X110891134Y-107062501D01*
X110887041Y-107063018D01*
X110875413Y-107063933D01*
X110831122Y-107065325D01*
X110831116Y-107065326D01*
X110811509Y-107071022D01*
X110792470Y-107074965D01*
X110772220Y-107077524D01*
X110772214Y-107077525D01*
X110772212Y-107077526D01*
X110761434Y-107081792D01*
X110731015Y-107093836D01*
X110719969Y-107097617D01*
X110677422Y-107109979D01*
X110677416Y-107109981D01*
X110659842Y-107120374D01*
X110642381Y-107128928D01*
X110623395Y-107136446D01*
X110623394Y-107136446D01*
X110587544Y-107162492D01*
X110577785Y-107168902D01*
X110539646Y-107191457D01*
X110525210Y-107205894D01*
X110510424Y-107218523D01*
X110493902Y-107230528D01*
X110493900Y-107230529D01*
X110493900Y-107230530D01*
X110493897Y-107230533D01*
X110465651Y-107264674D01*
X110457792Y-107273311D01*
X107630181Y-110100922D01*
X107568858Y-110134407D01*
X107499166Y-110129423D01*
X107443233Y-110087551D01*
X107418816Y-110022087D01*
X107418500Y-110013241D01*
X107418500Y-107730765D01*
X107438185Y-107663726D01*
X107454814Y-107643089D01*
X109997676Y-105100226D01*
X110058997Y-105066743D01*
X110124334Y-105071415D01*
X110124622Y-105070485D01*
X110128636Y-105071723D01*
X110128689Y-105071727D01*
X110128856Y-105071791D01*
X110129051Y-105071851D01*
X110129055Y-105071853D01*
X110369451Y-105146005D01*
X110369452Y-105146005D01*
X110369455Y-105146006D01*
X110618206Y-105183499D01*
X110618211Y-105183499D01*
X110618214Y-105183500D01*
X110618215Y-105183500D01*
X110869785Y-105183500D01*
X110869786Y-105183500D01*
X110926180Y-105175000D01*
X111118544Y-105146006D01*
X111118545Y-105146005D01*
X111118549Y-105146005D01*
X111358945Y-105071853D01*
X111585604Y-104962700D01*
X111793462Y-104820984D01*
X111977878Y-104649872D01*
X112134731Y-104453184D01*
X112260517Y-104235316D01*
X112352427Y-104001134D01*
X112408407Y-103755869D01*
X112427207Y-103505004D01*
X114069317Y-103505004D01*
X114088021Y-103754597D01*
X114088021Y-103754599D01*
X114143714Y-103998607D01*
X114143720Y-103998626D01*
X114235163Y-104231618D01*
X114360311Y-104448381D01*
X114360318Y-104448392D01*
X114398799Y-104496645D01*
X115141452Y-103753993D01*
X115151188Y-103783956D01*
X115239186Y-103922619D01*
X115358903Y-104035040D01*
X115493510Y-104109041D01*
X114752403Y-104850148D01*
X114906658Y-104955317D01*
X114906666Y-104955322D01*
X115132167Y-105063916D01*
X115132165Y-105063916D01*
X115371346Y-105137694D01*
X115371352Y-105137696D01*
X115618843Y-105174999D01*
X115618852Y-105175000D01*
X115869148Y-105175000D01*
X115869156Y-105174999D01*
X116116647Y-105137696D01*
X116116653Y-105137694D01*
X116355833Y-105063916D01*
X116581334Y-104955322D01*
X116581344Y-104955315D01*
X116735595Y-104850148D01*
X115991534Y-104106086D01*
X116059629Y-104079126D01*
X116192492Y-103982595D01*
X116297175Y-103856055D01*
X116345631Y-103753079D01*
X117089197Y-104496645D01*
X117089198Y-104496644D01*
X117127690Y-104448379D01*
X117252836Y-104231618D01*
X117344279Y-103998626D01*
X117344285Y-103998607D01*
X117399978Y-103754599D01*
X117399978Y-103754597D01*
X117418683Y-103505004D01*
X117418683Y-103504995D01*
X117399978Y-103255402D01*
X117399978Y-103255400D01*
X117344285Y-103011392D01*
X117344279Y-103011373D01*
X117252836Y-102778381D01*
X117127688Y-102561618D01*
X117127681Y-102561607D01*
X117089199Y-102513354D01*
X117089198Y-102513353D01*
X116346546Y-103256004D01*
X116336812Y-103226044D01*
X116248814Y-103087381D01*
X116129097Y-102974960D01*
X115994488Y-102900957D01*
X116735595Y-102159850D01*
X116581335Y-102054678D01*
X116581334Y-102054677D01*
X116355832Y-101946083D01*
X116355834Y-101946083D01*
X116116653Y-101872305D01*
X116116647Y-101872303D01*
X115869156Y-101835000D01*
X115618843Y-101835000D01*
X115371352Y-101872303D01*
X115371346Y-101872305D01*
X115132166Y-101946083D01*
X114906664Y-102054679D01*
X114906651Y-102054686D01*
X114752403Y-102159849D01*
X115496466Y-102903912D01*
X115428371Y-102930874D01*
X115295508Y-103027405D01*
X115190825Y-103153945D01*
X115142367Y-103256921D01*
X114398800Y-102513354D01*
X114360311Y-102561617D01*
X114235163Y-102778381D01*
X114143720Y-103011373D01*
X114143714Y-103011392D01*
X114088021Y-103255400D01*
X114088021Y-103255402D01*
X114069317Y-103504995D01*
X114069317Y-103505004D01*
X112427207Y-103505004D01*
X112427207Y-103505000D01*
X112426972Y-103501869D01*
X112408407Y-103254133D01*
X112385540Y-103153945D01*
X112352427Y-103008866D01*
X112260517Y-102774684D01*
X112134731Y-102556816D01*
X111977878Y-102360128D01*
X111793462Y-102189016D01*
X111760814Y-102166757D01*
X111585607Y-102047302D01*
X111585596Y-102047295D01*
X111358947Y-101938148D01*
X111358949Y-101938148D01*
X111118550Y-101863995D01*
X111118544Y-101863993D01*
X110869793Y-101826500D01*
X110869786Y-101826500D01*
X110618214Y-101826500D01*
X110618206Y-101826500D01*
X110369455Y-101863993D01*
X110369449Y-101863995D01*
X110129054Y-101938147D01*
X109902401Y-102047297D01*
X109694537Y-102189016D01*
X109510123Y-102360126D01*
X109510122Y-102360128D01*
X109353269Y-102556816D01*
X109227483Y-102774683D01*
X109135575Y-103008860D01*
X109135570Y-103008877D01*
X109079592Y-103254133D01*
X109060793Y-103504995D01*
X109060793Y-103505004D01*
X109079592Y-103755866D01*
X109135570Y-104001122D01*
X109135573Y-104001134D01*
X109153654Y-104047204D01*
X109159823Y-104116799D01*
X109127385Y-104178683D01*
X109125907Y-104180186D01*
X106396179Y-106909914D01*
X106383820Y-106919818D01*
X106383993Y-106920027D01*
X106377982Y-106925000D01*
X106331338Y-106974669D01*
X106328633Y-106977460D01*
X106308873Y-106997221D01*
X106308858Y-106997238D01*
X106306317Y-107000513D01*
X106298753Y-107009367D01*
X106268420Y-107041671D01*
X106268412Y-107041681D01*
X106258579Y-107059567D01*
X106247903Y-107075820D01*
X106235386Y-107091957D01*
X106235385Y-107091960D01*
X106217785Y-107132629D01*
X106212648Y-107143115D01*
X106191303Y-107181941D01*
X106191303Y-107181942D01*
X106186225Y-107201720D01*
X106179925Y-107220122D01*
X106171818Y-107238857D01*
X106164888Y-107282609D01*
X106162520Y-107294045D01*
X106151500Y-107336965D01*
X106151500Y-107357384D01*
X106149973Y-107376783D01*
X106146780Y-107396941D01*
X106146780Y-107396942D01*
X100965000Y-107396942D01*
X100965000Y-103505004D01*
X104060793Y-103505004D01*
X104079592Y-103755866D01*
X104135570Y-104001122D01*
X104135573Y-104001134D01*
X104227483Y-104235316D01*
X104353269Y-104453184D01*
X104510122Y-104649872D01*
X104694538Y-104820984D01*
X104902397Y-104962700D01*
X105129055Y-105071853D01*
X105369451Y-105146005D01*
X105369452Y-105146005D01*
X105369455Y-105146006D01*
X105618206Y-105183499D01*
X105618211Y-105183499D01*
X105618214Y-105183500D01*
X105618215Y-105183500D01*
X105869785Y-105183500D01*
X105869786Y-105183500D01*
X105926180Y-105175000D01*
X106118544Y-105146006D01*
X106118545Y-105146005D01*
X106118549Y-105146005D01*
X106358945Y-105071853D01*
X106585604Y-104962700D01*
X106793462Y-104820984D01*
X106977878Y-104649872D01*
X107134731Y-104453184D01*
X107260517Y-104235316D01*
X107352427Y-104001134D01*
X107408407Y-103755869D01*
X107427207Y-103505000D01*
X107426972Y-103501869D01*
X107408407Y-103254133D01*
X107385540Y-103153945D01*
X107352427Y-103008866D01*
X107260517Y-102774684D01*
X107134731Y-102556816D01*
X106977878Y-102360128D01*
X106793462Y-102189016D01*
X106760814Y-102166757D01*
X106585607Y-102047302D01*
X106585596Y-102047295D01*
X106358947Y-101938148D01*
X106358949Y-101938148D01*
X106118550Y-101863995D01*
X106118544Y-101863993D01*
X105869793Y-101826500D01*
X105869786Y-101826500D01*
X105618214Y-101826500D01*
X105618206Y-101826500D01*
X105369455Y-101863993D01*
X105369449Y-101863995D01*
X105129054Y-101938147D01*
X104902401Y-102047297D01*
X104694537Y-102189016D01*
X104510123Y-102360126D01*
X104510122Y-102360128D01*
X104353269Y-102556816D01*
X104227483Y-102774683D01*
X104135575Y-103008860D01*
X104135570Y-103008877D01*
X104079592Y-103254133D01*
X104060793Y-103504995D01*
X104060793Y-103505004D01*
X100965000Y-103505004D01*
X100965000Y-100962000D01*
X100984685Y-100894961D01*
X101037489Y-100849206D01*
X101089000Y-100838000D01*
X151006000Y-100838000D01*
X151073039Y-100857685D01*
G37*
%TD.AperFunction*%
%TD*%
M02*
