%TF.GenerationSoftware,KiCad,Pcbnew,7.0.11+dfsg-1build4*%
%TF.CreationDate,2026-02-07T21:52:43-05:00*%
%TF.ProjectId,redllama,7265646c-6c61-46d6-912e-6b696361645f,rev?*%
%TF.SameCoordinates,Original*%
%TF.FileFunction,Soldermask,Bot*%
%TF.FilePolarity,Negative*%
%FSLAX46Y46*%
G04 Gerber Fmt 4.6, Leading zero omitted, Abs format (unit mm)*
G04 Created by KiCad (PCBNEW 7.0.11+dfsg-1build4) date 2026-02-07 21:52:43*
%MOMM*%
%LPD*%
G01*
G04 APERTURE LIST*
%ADD10C,1.600000*%
%ADD11O,1.600000X1.600000*%
%ADD12R,1.700000X1.700000*%
%ADD13O,1.700000X1.700000*%
%ADD14C,2.340000*%
%ADD15R,1.600000X1.600000*%
G04 APERTURE END LIST*
D10*
%TO.C,R3*%
X134493000Y-120777000D03*
D11*
X142113000Y-120777000D03*
%TD*%
D12*
%TO.C,J1*%
X122428000Y-125730000D03*
D13*
X124968000Y-125730000D03*
X127508000Y-125730000D03*
X130048000Y-125730000D03*
%TD*%
D10*
%TO.C,R4*%
X102362000Y-120142000D03*
D11*
X109982000Y-120142000D03*
%TD*%
D10*
%TO.C,C2*%
X137120000Y-109093000D03*
X134620000Y-109093000D03*
%TD*%
%TO.C,R1*%
X110109000Y-110109000D03*
D11*
X102489000Y-110109000D03*
%TD*%
D14*
%TO.C,RV2*%
X115744000Y-103505000D03*
X110744000Y-103505000D03*
X105744000Y-103505000D03*
%TD*%
D15*
%TO.C,C5*%
X114840000Y-111506000D03*
D10*
X116840000Y-111506000D03*
%TD*%
%TO.C,C3*%
X141391000Y-115189000D03*
X146391000Y-115189000D03*
%TD*%
%TO.C,R6*%
X102590000Y-125600000D03*
D11*
X110210000Y-125600000D03*
%TD*%
D15*
%TO.C,C6*%
X114213000Y-120523000D03*
D10*
X116713000Y-120523000D03*
%TD*%
D15*
%TO.C,U1*%
X121031000Y-102616000D03*
D11*
X121031000Y-105156000D03*
X121031000Y-107696000D03*
X121031000Y-110236000D03*
X121031000Y-112776000D03*
X121031000Y-115316000D03*
X121031000Y-117856000D03*
X121031000Y-120396000D03*
X128651000Y-120396000D03*
X128651000Y-117856000D03*
X128651000Y-115316000D03*
X128651000Y-112776000D03*
X128651000Y-110236000D03*
X128651000Y-107696000D03*
X128651000Y-105156000D03*
X128651000Y-102616000D03*
%TD*%
D10*
%TO.C,R5*%
X134493000Y-124841000D03*
D11*
X142113000Y-124841000D03*
%TD*%
D10*
%TO.C,R2*%
X140335000Y-108712000D03*
D11*
X147955000Y-108712000D03*
%TD*%
D10*
%TO.C,C1*%
X102910000Y-114427000D03*
X107910000Y-114427000D03*
%TD*%
%TO.C,C4*%
X134386000Y-115062000D03*
X136886000Y-115062000D03*
%TD*%
D14*
%TO.C,RV1*%
X144065000Y-103251000D03*
X139065000Y-103251000D03*
X134065000Y-103251000D03*
%TD*%
M02*
