%TF.GenerationSoftware,KiCad,Pcbnew,7.0.11+dfsg-1build4*%
%TF.CreationDate,2026-06-27T22:40:22-04:00*%
%TF.ProjectId,umble,756d626c-652e-46b6-9963-61645f706362,rev?*%
%TF.SameCoordinates,Original*%
%TF.FileFunction,Soldermask,Bot*%
%TF.FilePolarity,Negative*%
%FSLAX46Y46*%
G04 Gerber Fmt 4.6, Leading zero omitted, Abs format (unit mm)*
G04 Created by KiCad (PCBNEW 7.0.11+dfsg-1build4) date 2026-06-27 22:40:22*
%MOMM*%
%LPD*%
G01*
G04 APERTURE LIST*
G04 Aperture macros list*
%AMRoundRect*
0 Rectangle with rounded corners*
0 $1 Rounding radius*
0 $2 $3 $4 $5 $6 $7 $8 $9 X,Y pos of 4 corners*
0 Add a 4 corners polygon primitive as box body*
4,1,4,$2,$3,$4,$5,$6,$7,$8,$9,$2,$3,0*
0 Add four circle primitives for the rounded corners*
1,1,$1+$1,$2,$3*
1,1,$1+$1,$4,$5*
1,1,$1+$1,$6,$7*
1,1,$1+$1,$8,$9*
0 Add four rect primitives between the rounded corners*
20,1,$1+$1,$2,$3,$4,$5,0*
20,1,$1+$1,$4,$5,$6,$7,0*
20,1,$1+$1,$6,$7,$8,$9,0*
20,1,$1+$1,$8,$9,$2,$3,0*%
G04 Aperture macros list end*
%ADD10C,1.600000*%
%ADD11O,1.600000X1.600000*%
%ADD12R,1.600000X1.600000*%
%ADD13R,1.560000X1.560000*%
%ADD14C,1.560000*%
%ADD15R,1.700000X1.700000*%
%ADD16O,1.700000X1.700000*%
%ADD17R,1.800000X1.800000*%
%ADD18C,1.800000*%
%ADD19RoundRect,0.500000X-1.000000X0.500000X-1.000000X-0.500000X1.000000X-0.500000X1.000000X0.500000X0*%
G04 APERTURE END LIST*
D10*
%TO.C,C5*%
X68200000Y-65370000D03*
X68200000Y-60370000D03*
%TD*%
%TO.C,C3*%
X52650000Y-89280000D03*
X55150000Y-89280000D03*
%TD*%
%TO.C,R1*%
X82460000Y-96520000D03*
D11*
X90080000Y-96520000D03*
%TD*%
D10*
%TO.C,C6*%
X87620000Y-53190000D03*
X90120000Y-53190000D03*
%TD*%
%TO.C,R12*%
X71690000Y-94570000D03*
D11*
X79310000Y-94570000D03*
%TD*%
D10*
%TO.C,C7*%
X87730000Y-56170000D03*
X90230000Y-56170000D03*
%TD*%
D12*
%TO.C,C9*%
X88080000Y-62530000D03*
D10*
X90080000Y-62530000D03*
%TD*%
%TO.C,C12*%
X98070000Y-85650000D03*
X98070000Y-80650000D03*
%TD*%
D13*
%TO.C,RV7*%
X101160000Y-80720000D03*
D14*
X103660000Y-85720000D03*
X106160000Y-80720000D03*
%TD*%
D10*
%TO.C,R10*%
X82510000Y-79850000D03*
D11*
X90130000Y-79850000D03*
%TD*%
D10*
%TO.C,R5*%
X71750000Y-69760000D03*
D11*
X79370000Y-69760000D03*
%TD*%
D10*
%TO.C,C13*%
X66480000Y-85030000D03*
X71480000Y-85030000D03*
%TD*%
D13*
%TO.C,RV6*%
X68070000Y-76820000D03*
D14*
X70570000Y-81820000D03*
X73070000Y-76820000D03*
%TD*%
D10*
%TO.C,R4*%
X71750000Y-66270000D03*
D11*
X79370000Y-66270000D03*
%TD*%
D10*
%TO.C,R3*%
X52510000Y-93230000D03*
D11*
X60130000Y-93230000D03*
%TD*%
D10*
%TO.C,R8*%
X82610000Y-70570000D03*
D11*
X90230000Y-70570000D03*
%TD*%
D12*
%TO.C,C8*%
X77204900Y-84030000D03*
D10*
X79204900Y-84030000D03*
%TD*%
%TO.C,C14*%
X66390000Y-87840000D03*
X71390000Y-87840000D03*
%TD*%
D12*
%TO.C,C11*%
X75030000Y-89470000D03*
D10*
X77030000Y-89470000D03*
%TD*%
D13*
%TO.C,RV8*%
X101150000Y-88490000D03*
D14*
X103650000Y-93490000D03*
X106150000Y-88490000D03*
%TD*%
D10*
%TO.C,R2*%
X82390000Y-93120000D03*
D11*
X90010000Y-93120000D03*
%TD*%
D10*
%TO.C,R13*%
X98480000Y-96390000D03*
D11*
X106100000Y-96390000D03*
%TD*%
D10*
%TO.C,R9*%
X82490000Y-76460000D03*
D11*
X90110000Y-76460000D03*
%TD*%
D10*
%TO.C,C15*%
X66390000Y-90530000D03*
X71390000Y-90530000D03*
%TD*%
%TO.C,R6*%
X71800000Y-73170000D03*
D11*
X79420000Y-73170000D03*
%TD*%
D13*
%TO.C,RV1*%
X51930000Y-80430000D03*
D14*
X54430000Y-85430000D03*
X56930000Y-80430000D03*
%TD*%
D10*
%TO.C,R7*%
X82600000Y-67450000D03*
D11*
X90220000Y-67450000D03*
%TD*%
D10*
%TO.C,R15*%
X82600000Y-89990000D03*
D11*
X90220000Y-89990000D03*
%TD*%
D10*
%TO.C,R11*%
X82490000Y-83240000D03*
D11*
X90110000Y-83240000D03*
%TD*%
D12*
%TO.C,C2*%
X65560000Y-95040000D03*
D10*
X67560000Y-95040000D03*
%TD*%
%TO.C,C4*%
X69020000Y-57130000D03*
X69020000Y-52130000D03*
%TD*%
%TO.C,C10*%
X83750000Y-73460000D03*
X88750000Y-73460000D03*
%TD*%
D15*
%TO.C,J1*%
X53760000Y-98380000D03*
D16*
X56300000Y-98380000D03*
X58840000Y-98380000D03*
X61380000Y-98380000D03*
%TD*%
D10*
%TO.C,R14*%
X82550000Y-86590000D03*
D11*
X90170000Y-86590000D03*
%TD*%
D12*
%TO.C,C1*%
X60170000Y-82220000D03*
D10*
X62170000Y-82220000D03*
%TD*%
D17*
%TO.C,RV3*%
X76210000Y-51600000D03*
D18*
X78710000Y-51600000D03*
X81210000Y-51600000D03*
D19*
X83460000Y-59100000D03*
X73960000Y-59100000D03*
%TD*%
D17*
%TO.C,RV9*%
X96490000Y-65970000D03*
D18*
X98990000Y-65970000D03*
X101490000Y-65970000D03*
D19*
X103740000Y-73470000D03*
X94240000Y-73470000D03*
%TD*%
D17*
%TO.C,RV4*%
X96440000Y-51620000D03*
D18*
X98940000Y-51620000D03*
X101440000Y-51620000D03*
D19*
X103690000Y-59120000D03*
X94190000Y-59120000D03*
%TD*%
D17*
%TO.C,RV5*%
X56520000Y-65925000D03*
D18*
X59020000Y-65925000D03*
X61520000Y-65925000D03*
D19*
X63770000Y-73425000D03*
X54270000Y-73425000D03*
%TD*%
D17*
%TO.C,RV2*%
X56640000Y-51655000D03*
D18*
X59140000Y-51655000D03*
X61640000Y-51655000D03*
D19*
X63890000Y-59155000D03*
X54390000Y-59155000D03*
%TD*%
M02*
