%TF.GenerationSoftware,KiCad,Pcbnew,7.0.11+dfsg-1build4*%
%TF.CreationDate,2026-07-26T23:41:14-04:00*%
%TF.ProjectId,blackdarling,626c6163-6b64-4617-926c-696e672e6b69,rev?*%
%TF.SameCoordinates,Original*%
%TF.FileFunction,Copper,L2,Bot*%
%TF.FilePolarity,Positive*%
%FSLAX46Y46*%
G04 Gerber Fmt 4.6, Leading zero omitted, Abs format (unit mm)*
G04 Created by KiCad (PCBNEW 7.0.11+dfsg-1build4) date 2026-07-26 23:41:14*
%MOMM*%
%LPD*%
G01*
G04 APERTURE LIST*
%TA.AperFunction,ComponentPad*%
%ADD10C,2.340000*%
%TD*%
%TA.AperFunction,ComponentPad*%
%ADD11C,1.600000*%
%TD*%
%TA.AperFunction,ComponentPad*%
%ADD12O,1.600000X1.600000*%
%TD*%
%TA.AperFunction,ComponentPad*%
%ADD13R,1.050000X1.500000*%
%TD*%
%TA.AperFunction,ComponentPad*%
%ADD14O,1.050000X1.500000*%
%TD*%
%TA.AperFunction,ComponentPad*%
%ADD15R,1.700000X1.700000*%
%TD*%
%TA.AperFunction,ComponentPad*%
%ADD16O,1.700000X1.700000*%
%TD*%
%TA.AperFunction,ComponentPad*%
%ADD17R,1.600000X1.600000*%
%TD*%
%TA.AperFunction,ViaPad*%
%ADD18C,0.600000*%
%TD*%
%TA.AperFunction,Conductor*%
%ADD19C,0.200000*%
%TD*%
G04 APERTURE END LIST*
D10*
%TO.P,RV3,1,1*%
%TO.N,GND*%
X83870000Y-52470000D03*
%TO.P,RV3,2,2*%
%TO.N,Net-(C8-Pad2)*%
X78870000Y-52470000D03*
%TO.P,RV3,3,3*%
X73870000Y-52470000D03*
%TD*%
%TO.P,RV2,1,1*%
%TO.N,GND*%
X64030000Y-52490000D03*
%TO.P,RV2,2,2*%
%TO.N,out*%
X59030000Y-52490000D03*
%TO.P,RV2,3,3*%
%TO.N,Net-(C7-Pad1)*%
X54030000Y-52490000D03*
%TD*%
%TO.P,RV1,1,1*%
%TO.N,Net-(R5-Pad2)*%
X104020000Y-52450000D03*
%TO.P,RV1,2,2*%
%TO.N,Net-(C5-Pad1)*%
X99020000Y-52450000D03*
%TO.P,RV1,3,3*%
%TO.N,Net-(C4-Pad2)*%
X94020000Y-52450000D03*
%TD*%
D11*
%TO.P,R8,1*%
%TO.N,Net-(Q3-C)*%
X51600000Y-62890000D03*
D12*
%TO.P,R8,2*%
%TO.N,+9V*%
X61760000Y-62890000D03*
%TD*%
D11*
%TO.P,R7,1*%
%TO.N,Net-(Q3-B)*%
X51650000Y-59690000D03*
D12*
%TO.P,R7,2*%
%TO.N,Net-(Q3-C)*%
X61810000Y-59690000D03*
%TD*%
D11*
%TO.P,R6,1*%
%TO.N,GND*%
X51530000Y-56490000D03*
D12*
%TO.P,R6,2*%
%TO.N,Net-(Q3-E)*%
X61690000Y-56490000D03*
%TD*%
D11*
%TO.P,R5,1*%
%TO.N,GND*%
X63850000Y-56540000D03*
D12*
%TO.P,R5,2*%
%TO.N,Net-(R5-Pad2)*%
X74010000Y-56540000D03*
%TD*%
D11*
%TO.P,R4,1*%
%TO.N,GND*%
X83970000Y-56420000D03*
D12*
%TO.P,R4,2*%
%TO.N,Net-(Q2-E)*%
X94130000Y-56420000D03*
%TD*%
D11*
%TO.P,R3,1*%
%TO.N,Net-(Q1-C)*%
X96350000Y-56930000D03*
D12*
%TO.P,R3,2*%
%TO.N,+9V*%
X106510000Y-56930000D03*
%TD*%
D11*
%TO.P,R2,1*%
%TO.N,Net-(Q1-B)*%
X96320000Y-60360000D03*
D12*
%TO.P,R2,2*%
%TO.N,Net-(Q1-C)*%
X106480000Y-60360000D03*
%TD*%
D11*
%TO.P,R1,1*%
%TO.N,in*%
X96170000Y-63920000D03*
D12*
%TO.P,R1,2*%
%TO.N,GND*%
X106330000Y-63920000D03*
%TD*%
D13*
%TO.P,Q3,1,E*%
%TO.N,Net-(Q3-E)*%
X64420000Y-61720000D03*
D14*
%TO.P,Q3,2,B*%
%TO.N,Net-(Q3-B)*%
X65690000Y-61720000D03*
%TO.P,Q3,3,C*%
%TO.N,Net-(Q3-C)*%
X66960000Y-61720000D03*
%TD*%
D13*
%TO.P,Q2,1,E*%
%TO.N,Net-(Q2-E)*%
X83890000Y-61530000D03*
D14*
%TO.P,Q2,2,B*%
%TO.N,Net-(Q1-E)*%
X85160000Y-61530000D03*
%TO.P,Q2,3,C*%
%TO.N,Net-(Q1-C)*%
X86430000Y-61530000D03*
%TD*%
%TO.P,Q1,3,C*%
%TO.N,Net-(Q1-C)*%
X93110000Y-61640000D03*
%TO.P,Q1,2,B*%
%TO.N,Net-(Q1-B)*%
X91840000Y-61640000D03*
D13*
%TO.P,Q1,1,E*%
%TO.N,Net-(Q1-E)*%
X90570000Y-61640000D03*
%TD*%
D15*
%TO.P,J1,1,Pin_1*%
%TO.N,+9V*%
X97290000Y-72520000D03*
D16*
%TO.P,J1,2,Pin_2*%
%TO.N,out*%
X99830000Y-72520000D03*
%TO.P,J1,3,Pin_3*%
%TO.N,in*%
X102370000Y-72520000D03*
%TO.P,J1,4,Pin_4*%
%TO.N,GND*%
X104910000Y-72520000D03*
%TD*%
D17*
%TO.P,C9,1*%
%TO.N,+9V*%
X67050000Y-68420000D03*
D11*
%TO.P,C9,2*%
%TO.N,GND*%
X69550000Y-68420000D03*
%TD*%
%TO.P,C8,1*%
%TO.N,out*%
X76510000Y-56410000D03*
%TO.P,C8,2*%
%TO.N,Net-(C8-Pad2)*%
X81510000Y-56410000D03*
%TD*%
%TO.P,C7,1*%
%TO.N,Net-(C7-Pad1)*%
X51700000Y-66310000D03*
%TO.P,C7,2*%
%TO.N,Net-(Q3-C)*%
X56700000Y-66310000D03*
%TD*%
D17*
%TO.P,C6,1*%
%TO.N,Net-(Q3-E)*%
X60660000Y-68130000D03*
D11*
%TO.P,C6,2*%
%TO.N,GND*%
X62660000Y-68130000D03*
%TD*%
%TO.P,C5,1*%
%TO.N,Net-(C5-Pad1)*%
X73200000Y-67730000D03*
%TO.P,C5,2*%
%TO.N,Net-(Q3-B)*%
X78200000Y-67730000D03*
%TD*%
D17*
%TO.P,C4,1*%
%TO.N,Net-(Q1-C)*%
X72170000Y-61480000D03*
D11*
%TO.P,C4,2*%
%TO.N,Net-(C4-Pad2)*%
X74170000Y-61480000D03*
%TD*%
D17*
%TO.P,C3,1*%
%TO.N,Net-(Q2-E)*%
X77954900Y-61390000D03*
D11*
%TO.P,C3,2*%
%TO.N,GND*%
X79954900Y-61390000D03*
%TD*%
%TO.P,C2,1*%
%TO.N,GND*%
X82720000Y-67300000D03*
%TO.P,C2,2*%
%TO.N,Net-(Q1-B)*%
X85220000Y-67300000D03*
%TD*%
%TO.P,C1,1*%
%TO.N,in*%
X88500000Y-67040000D03*
%TO.P,C1,2*%
%TO.N,Net-(Q1-B)*%
X93500000Y-67040000D03*
%TD*%
D18*
%TO.N,Net-(R5-Pad2)*%
X75579300Y-54230700D03*
%TO.N,+9V*%
X100974000Y-70639400D03*
%TO.N,out*%
X100833800Y-59754200D03*
%TO.N,Net-(C5-Pad1)*%
X97777100Y-65359500D03*
%TD*%
D19*
%TO.N,Net-(Q2-E)*%
X83890000Y-61530000D02*
X83890000Y-61408274D01*
X83890000Y-61408274D02*
X84818274Y-60480000D01*
X84818274Y-60480000D02*
X90070000Y-60480000D01*
X90070000Y-60480000D02*
X94130000Y-56420000D01*
%TO.N,Net-(Q1-E)*%
X85160000Y-61530000D02*
X85160000Y-61651726D01*
X89630000Y-62580000D02*
X90570000Y-61640000D01*
X85160000Y-61651726D02*
X86088274Y-62580000D01*
X86088274Y-62580000D02*
X89630000Y-62580000D01*
%TO.N,Net-(Q3-E)*%
X60660000Y-68130000D02*
X60660000Y-67028100D01*
X60660000Y-67028100D02*
X64420000Y-63268100D01*
X64420000Y-63268100D02*
X64420000Y-61720000D01*
%TO.N,Net-(C7-Pad1)*%
X51700000Y-66310000D02*
X54030000Y-63980000D01*
X54030000Y-63980000D02*
X54030000Y-52490000D01*
X54030000Y-52490000D02*
X53763500Y-52490000D01*
%TO.N,Net-(R5-Pad2)*%
X74371900Y-55438100D02*
X75579300Y-54230700D01*
X74010000Y-55438100D02*
X74371900Y-55438100D01*
X74010000Y-56540000D02*
X74010000Y-55438100D01*
%TO.N,+9V*%
X100974000Y-63567900D02*
X106510000Y-58031900D01*
X100974000Y-70639400D02*
X100974000Y-63567900D01*
X106510000Y-56930000D02*
X106510000Y-58031900D01*
%TO.N,Net-(C8-Pad2)*%
X81510000Y-55110000D02*
X81510000Y-56410000D01*
X78870000Y-52470000D02*
X81510000Y-55110000D01*
%TO.N,out*%
X99830000Y-60758000D02*
X100833800Y-59754200D01*
X99830000Y-72520000D02*
X99830000Y-60758000D01*
%TO.N,Net-(Q3-C)*%
X56700000Y-65691900D02*
X61600000Y-60791900D01*
X56700000Y-66310000D02*
X56700000Y-65691900D01*
X61600000Y-59690000D02*
X61600000Y-60791900D01*
%TO.N,Net-(Q3-E)*%
X64420000Y-60411900D02*
X64420000Y-61720000D01*
X61600000Y-57591900D02*
X64420000Y-60411900D01*
X61600000Y-56490000D02*
X61600000Y-57591900D01*
%TO.N,Net-(C5-Pad1)*%
X99020000Y-64116600D02*
X99020000Y-52450000D01*
X97777100Y-65359500D02*
X99020000Y-64116600D01*
%TO.N,Net-(C4-Pad2)*%
X87692000Y-58778000D02*
X94020000Y-52450000D01*
X76872000Y-58778000D02*
X87692000Y-58778000D01*
X74170000Y-61480000D02*
X76872000Y-58778000D01*
%TO.N,Net-(Q1-C)*%
X93110000Y-60170000D02*
X96350000Y-56930000D01*
X93110000Y-61640000D02*
X93110000Y-60170000D01*
%TO.N,Net-(Q1-B)*%
X91840000Y-65380000D02*
X91840000Y-61640000D01*
X93500000Y-67040000D02*
X91840000Y-65380000D01*
X93500000Y-63180000D02*
X93500000Y-67040000D01*
X96320000Y-60360000D02*
X93500000Y-63180000D01*
%TO.N,in*%
X96106400Y-63983600D02*
X96170000Y-63920000D01*
X96106400Y-73464900D02*
X96106400Y-63983600D01*
X96313400Y-73671900D02*
X96106400Y-73464900D01*
X100354300Y-73671900D02*
X96313400Y-73671900D01*
X101218100Y-72808100D02*
X100354300Y-73671900D01*
X101218100Y-72520000D02*
X101218100Y-72808100D01*
X102370000Y-72520000D02*
X101218100Y-72520000D01*
%TD*%
%TA.AperFunction,Conductor*%
%TO.N,GND*%
G36*
X107442787Y-50520185D02*
G01*
X107488542Y-50572989D01*
X107499748Y-50624451D01*
X107501806Y-55798601D01*
X107482148Y-55865648D01*
X107429362Y-55911424D01*
X107360208Y-55921395D01*
X107306683Y-55900225D01*
X107162734Y-55799432D01*
X107162732Y-55799431D01*
X106956497Y-55703261D01*
X106956488Y-55703258D01*
X106736697Y-55644366D01*
X106736693Y-55644365D01*
X106736692Y-55644365D01*
X106736691Y-55644364D01*
X106736686Y-55644364D01*
X106510002Y-55624532D01*
X106509998Y-55624532D01*
X106283313Y-55644364D01*
X106283302Y-55644366D01*
X106063511Y-55703258D01*
X106063502Y-55703261D01*
X105857267Y-55799431D01*
X105857265Y-55799432D01*
X105670858Y-55929954D01*
X105509954Y-56090858D01*
X105379432Y-56277265D01*
X105379431Y-56277267D01*
X105283261Y-56483502D01*
X105283258Y-56483511D01*
X105224366Y-56703302D01*
X105224364Y-56703313D01*
X105204532Y-56929998D01*
X105204532Y-56930001D01*
X105224364Y-57156686D01*
X105224366Y-57156697D01*
X105283258Y-57376488D01*
X105283261Y-57376497D01*
X105379431Y-57582732D01*
X105379432Y-57582734D01*
X105509954Y-57769141D01*
X105629057Y-57888244D01*
X105662542Y-57949567D01*
X105657558Y-58019259D01*
X105629057Y-58063606D01*
X100642181Y-63050483D01*
X100580858Y-63083968D01*
X100511166Y-63078984D01*
X100455233Y-63037112D01*
X100430816Y-62971648D01*
X100430500Y-62962802D01*
X100430500Y-61058096D01*
X100450185Y-60991057D01*
X100466815Y-60970419D01*
X100852335Y-60584898D01*
X100913656Y-60551415D01*
X100926111Y-60549363D01*
X101013055Y-60539568D01*
X101183322Y-60479989D01*
X101336062Y-60384016D01*
X101463616Y-60256462D01*
X101559589Y-60103722D01*
X101619168Y-59933455D01*
X101621057Y-59916692D01*
X101639365Y-59754203D01*
X101639365Y-59754196D01*
X101619169Y-59574950D01*
X101619168Y-59574945D01*
X101559589Y-59404678D01*
X101463616Y-59251938D01*
X101336062Y-59124384D01*
X101256459Y-59074366D01*
X101183323Y-59028411D01*
X101013054Y-58968831D01*
X101013049Y-58968830D01*
X100833804Y-58948635D01*
X100833796Y-58948635D01*
X100654550Y-58968830D01*
X100654545Y-58968831D01*
X100484276Y-59028411D01*
X100331537Y-59124384D01*
X100203984Y-59251937D01*
X100108010Y-59404678D01*
X100048430Y-59574950D01*
X100038637Y-59661868D01*
X100011570Y-59726282D01*
X100003098Y-59735665D01*
X99832181Y-59906583D01*
X99770858Y-59940068D01*
X99701167Y-59935084D01*
X99645233Y-59893213D01*
X99620816Y-59827748D01*
X99620500Y-59818902D01*
X99620500Y-54092844D01*
X99640185Y-54025805D01*
X99690698Y-53981124D01*
X99816055Y-53920755D01*
X99857592Y-53900752D01*
X100064460Y-53759712D01*
X100226442Y-53609414D01*
X100247993Y-53589418D01*
X100247993Y-53589416D01*
X100247997Y-53589414D01*
X100404102Y-53393665D01*
X100529289Y-53176835D01*
X100620760Y-52943769D01*
X100676474Y-52699673D01*
X100682987Y-52612766D01*
X100695184Y-52450004D01*
X102344816Y-52450004D01*
X102363524Y-52699663D01*
X102363525Y-52699668D01*
X102419236Y-52943755D01*
X102419238Y-52943764D01*
X102419240Y-52943769D01*
X102510711Y-53176835D01*
X102635898Y-53393665D01*
X102706059Y-53481644D01*
X102792006Y-53589418D01*
X102941835Y-53728438D01*
X102975540Y-53759712D01*
X103182408Y-53900752D01*
X103182413Y-53900754D01*
X103182414Y-53900755D01*
X103182415Y-53900756D01*
X103264576Y-53940322D01*
X103407983Y-54009383D01*
X103407984Y-54009383D01*
X103407987Y-54009385D01*
X103647236Y-54083184D01*
X103647237Y-54083184D01*
X103647240Y-54083185D01*
X103894805Y-54120499D01*
X103894810Y-54120499D01*
X103894813Y-54120500D01*
X103894814Y-54120500D01*
X104145186Y-54120500D01*
X104145187Y-54120500D01*
X104145194Y-54120499D01*
X104392759Y-54083185D01*
X104392760Y-54083184D01*
X104392764Y-54083184D01*
X104632013Y-54009385D01*
X104857592Y-53900752D01*
X105064460Y-53759712D01*
X105226442Y-53609414D01*
X105247993Y-53589418D01*
X105247993Y-53589416D01*
X105247997Y-53589414D01*
X105404102Y-53393665D01*
X105529289Y-53176835D01*
X105620760Y-52943769D01*
X105676474Y-52699673D01*
X105682987Y-52612766D01*
X105695184Y-52450004D01*
X105695184Y-52449995D01*
X105676475Y-52200336D01*
X105676474Y-52200331D01*
X105676474Y-52200327D01*
X105620760Y-51956231D01*
X105529289Y-51723165D01*
X105404102Y-51506335D01*
X105247997Y-51310586D01*
X105247996Y-51310585D01*
X105247993Y-51310581D01*
X105064460Y-51140288D01*
X104857592Y-50999248D01*
X104857588Y-50999246D01*
X104857585Y-50999244D01*
X104857584Y-50999243D01*
X104632015Y-50890616D01*
X104632017Y-50890616D01*
X104392765Y-50816816D01*
X104392759Y-50816814D01*
X104145194Y-50779500D01*
X104145187Y-50779500D01*
X103894813Y-50779500D01*
X103894805Y-50779500D01*
X103647240Y-50816814D01*
X103647234Y-50816816D01*
X103407983Y-50890616D01*
X103182415Y-50999243D01*
X103182414Y-50999244D01*
X102975539Y-51140288D01*
X102792006Y-51310581D01*
X102635898Y-51506335D01*
X102510711Y-51723164D01*
X102419242Y-51956225D01*
X102419236Y-51956244D01*
X102363525Y-52200331D01*
X102363524Y-52200336D01*
X102344816Y-52449995D01*
X102344816Y-52450004D01*
X100695184Y-52450004D01*
X100695184Y-52449995D01*
X100676475Y-52200336D01*
X100676474Y-52200331D01*
X100676474Y-52200327D01*
X100620760Y-51956231D01*
X100529289Y-51723165D01*
X100404102Y-51506335D01*
X100247997Y-51310586D01*
X100247996Y-51310585D01*
X100247993Y-51310581D01*
X100064460Y-51140288D01*
X99857592Y-50999248D01*
X99857588Y-50999246D01*
X99857585Y-50999244D01*
X99857584Y-50999243D01*
X99632015Y-50890616D01*
X99632017Y-50890616D01*
X99392765Y-50816816D01*
X99392759Y-50816814D01*
X99145194Y-50779500D01*
X99145187Y-50779500D01*
X98894813Y-50779500D01*
X98894805Y-50779500D01*
X98647240Y-50816814D01*
X98647234Y-50816816D01*
X98407983Y-50890616D01*
X98182415Y-50999243D01*
X98182414Y-50999244D01*
X97975539Y-51140288D01*
X97792006Y-51310581D01*
X97635898Y-51506335D01*
X97510711Y-51723164D01*
X97419242Y-51956225D01*
X97419236Y-51956244D01*
X97363525Y-52200331D01*
X97363524Y-52200336D01*
X97344816Y-52449995D01*
X97344816Y-52450004D01*
X97363524Y-52699663D01*
X97363525Y-52699668D01*
X97419236Y-52943755D01*
X97419238Y-52943764D01*
X97419240Y-52943769D01*
X97510711Y-53176835D01*
X97635898Y-53393665D01*
X97706059Y-53481644D01*
X97792006Y-53589418D01*
X97941835Y-53728438D01*
X97975540Y-53759712D01*
X98182408Y-53900752D01*
X98182411Y-53900753D01*
X98182412Y-53900754D01*
X98349302Y-53981124D01*
X98401161Y-54027946D01*
X98419500Y-54092844D01*
X98419500Y-63816502D01*
X98399815Y-63883541D01*
X98383181Y-63904183D01*
X97758565Y-64528798D01*
X97697242Y-64562283D01*
X97684768Y-64564337D01*
X97597850Y-64574130D01*
X97519480Y-64601553D01*
X97449701Y-64605114D01*
X97389074Y-64570385D01*
X97356847Y-64508391D01*
X97363253Y-64438816D01*
X97366144Y-64432106D01*
X97368292Y-64427500D01*
X97396739Y-64366496D01*
X97455635Y-64146692D01*
X97475234Y-63922673D01*
X97475468Y-63920001D01*
X97475468Y-63919998D01*
X97459176Y-63733786D01*
X97455635Y-63693308D01*
X97396739Y-63473504D01*
X97300568Y-63267266D01*
X97170047Y-63080861D01*
X97170045Y-63080858D01*
X97009141Y-62919954D01*
X96822734Y-62789432D01*
X96822732Y-62789431D01*
X96616497Y-62693261D01*
X96616488Y-62693258D01*
X96396697Y-62634366D01*
X96396693Y-62634365D01*
X96396692Y-62634365D01*
X96396691Y-62634364D01*
X96396686Y-62634364D01*
X96170002Y-62614532D01*
X96169998Y-62614532D01*
X95943313Y-62634364D01*
X95943302Y-62634366D01*
X95723511Y-62693258D01*
X95723502Y-62693261D01*
X95517267Y-62789431D01*
X95517265Y-62789432D01*
X95330858Y-62919954D01*
X95169954Y-63080858D01*
X95039432Y-63267265D01*
X95039431Y-63267267D01*
X94943261Y-63473502D01*
X94943258Y-63473511D01*
X94884366Y-63693302D01*
X94884364Y-63693313D01*
X94864532Y-63919998D01*
X94864532Y-63920001D01*
X94884364Y-64146686D01*
X94884366Y-64146697D01*
X94943258Y-64366488D01*
X94943261Y-64366497D01*
X95039431Y-64572732D01*
X95039432Y-64572734D01*
X95169954Y-64759141D01*
X95330857Y-64920044D01*
X95330860Y-64920046D01*
X95330861Y-64920047D01*
X95453023Y-65005585D01*
X95496648Y-65060160D01*
X95505900Y-65107159D01*
X95505900Y-73417412D01*
X95504839Y-73433597D01*
X95500718Y-73464898D01*
X95500718Y-73464900D01*
X95505900Y-73504260D01*
X95505900Y-73504261D01*
X95521355Y-73621660D01*
X95521356Y-73621662D01*
X95551333Y-73694034D01*
X95581864Y-73767741D01*
X95664672Y-73875659D01*
X95678119Y-73893183D01*
X95703169Y-73912404D01*
X95715364Y-73923099D01*
X95855199Y-74062934D01*
X95865893Y-74075128D01*
X95885115Y-74100179D01*
X95885116Y-74100180D01*
X95885118Y-74100182D01*
X96010559Y-74196436D01*
X96156638Y-74256944D01*
X96235019Y-74267263D01*
X96313399Y-74277582D01*
X96313400Y-74277582D01*
X96344702Y-74273460D01*
X96360887Y-74272400D01*
X100306813Y-74272400D01*
X100322997Y-74273460D01*
X100354300Y-74277582D01*
X100354301Y-74277582D01*
X100406554Y-74270702D01*
X100511062Y-74256944D01*
X100657141Y-74196436D01*
X100782582Y-74100182D01*
X100801809Y-74075123D01*
X100812490Y-74062943D01*
X101320088Y-73555346D01*
X101381411Y-73521861D01*
X101451103Y-73526845D01*
X101495450Y-73555346D01*
X101498599Y-73558495D01*
X101588808Y-73621660D01*
X101692165Y-73694032D01*
X101692167Y-73694033D01*
X101692170Y-73694035D01*
X101906337Y-73793903D01*
X102134592Y-73855063D01*
X102322918Y-73871539D01*
X102369999Y-73875659D01*
X102370000Y-73875659D01*
X102370001Y-73875659D01*
X102409234Y-73872226D01*
X102605408Y-73855063D01*
X102833663Y-73793903D01*
X103047830Y-73694035D01*
X103241401Y-73558495D01*
X103408495Y-73391401D01*
X103538730Y-73205405D01*
X103593307Y-73161781D01*
X103662805Y-73154587D01*
X103725160Y-73186110D01*
X103741879Y-73205405D01*
X103871890Y-73391078D01*
X104038917Y-73558105D01*
X104232421Y-73693600D01*
X104446507Y-73793429D01*
X104446516Y-73793433D01*
X104660000Y-73850634D01*
X104660000Y-72955501D01*
X104767685Y-73004680D01*
X104874237Y-73020000D01*
X104945763Y-73020000D01*
X105052315Y-73004680D01*
X105160000Y-72955501D01*
X105160000Y-73850633D01*
X105373483Y-73793433D01*
X105373492Y-73793429D01*
X105587578Y-73693600D01*
X105781082Y-73558105D01*
X105948105Y-73391082D01*
X106083600Y-73197578D01*
X106183429Y-72983492D01*
X106183432Y-72983486D01*
X106240636Y-72770000D01*
X105343686Y-72770000D01*
X105369493Y-72729844D01*
X105410000Y-72591889D01*
X105410000Y-72448111D01*
X105369493Y-72310156D01*
X105343686Y-72270000D01*
X106240636Y-72270000D01*
X106240635Y-72269999D01*
X106183432Y-72056513D01*
X106183429Y-72056507D01*
X106083600Y-71842422D01*
X106083599Y-71842420D01*
X105948113Y-71648926D01*
X105948108Y-71648920D01*
X105781082Y-71481894D01*
X105587578Y-71346399D01*
X105373492Y-71246570D01*
X105373486Y-71246567D01*
X105160000Y-71189364D01*
X105160000Y-72084498D01*
X105052315Y-72035320D01*
X104945763Y-72020000D01*
X104874237Y-72020000D01*
X104767685Y-72035320D01*
X104660000Y-72084498D01*
X104660000Y-71189364D01*
X104659999Y-71189364D01*
X104446513Y-71246567D01*
X104446507Y-71246570D01*
X104232422Y-71346399D01*
X104232420Y-71346400D01*
X104038926Y-71481886D01*
X104038920Y-71481891D01*
X103871891Y-71648920D01*
X103871890Y-71648922D01*
X103741880Y-71834595D01*
X103687303Y-71878219D01*
X103617804Y-71885412D01*
X103555450Y-71853890D01*
X103538730Y-71834594D01*
X103408494Y-71648597D01*
X103241402Y-71481506D01*
X103241395Y-71481501D01*
X103240592Y-71480939D01*
X103164518Y-71427671D01*
X103047834Y-71345967D01*
X103047830Y-71345965D01*
X103042085Y-71343286D01*
X102833663Y-71246097D01*
X102833659Y-71246096D01*
X102833655Y-71246094D01*
X102605413Y-71184938D01*
X102605403Y-71184936D01*
X102370001Y-71164341D01*
X102369999Y-71164341D01*
X102134596Y-71184936D01*
X102134586Y-71184938D01*
X101906344Y-71246094D01*
X101906335Y-71246098D01*
X101766766Y-71311180D01*
X101697688Y-71321672D01*
X101633904Y-71293152D01*
X101595665Y-71234675D01*
X101595111Y-71164808D01*
X101609366Y-71132828D01*
X101699789Y-70988922D01*
X101759368Y-70818655D01*
X101779565Y-70639400D01*
X101759368Y-70460145D01*
X101699789Y-70289878D01*
X101603816Y-70137138D01*
X101603814Y-70137136D01*
X101603813Y-70137134D01*
X101601550Y-70134296D01*
X101600659Y-70132115D01*
X101600111Y-70131242D01*
X101600264Y-70131145D01*
X101575144Y-70069609D01*
X101574500Y-70056987D01*
X101574500Y-63867996D01*
X101594185Y-63800957D01*
X101610814Y-63780320D01*
X104974964Y-60416169D01*
X105036285Y-60382686D01*
X105105977Y-60387670D01*
X105161910Y-60429542D01*
X105186171Y-60493043D01*
X105194364Y-60586688D01*
X105194366Y-60586697D01*
X105253258Y-60806488D01*
X105253261Y-60806497D01*
X105349431Y-61012732D01*
X105349432Y-61012734D01*
X105479954Y-61199141D01*
X105640858Y-61360045D01*
X105640861Y-61360047D01*
X105827266Y-61490568D01*
X106033504Y-61586739D01*
X106253308Y-61645635D01*
X106415230Y-61659801D01*
X106479998Y-61665468D01*
X106480000Y-61665468D01*
X106480002Y-61665468D01*
X106536673Y-61660509D01*
X106706692Y-61645635D01*
X106926496Y-61586739D01*
X107132734Y-61490568D01*
X107308940Y-61367188D01*
X107375144Y-61344862D01*
X107442911Y-61361872D01*
X107490724Y-61412820D01*
X107504061Y-61468715D01*
X107504653Y-62956764D01*
X107484995Y-63023811D01*
X107432209Y-63069587D01*
X107363055Y-63079558D01*
X107299488Y-63050558D01*
X107292972Y-63044494D01*
X107168820Y-62920342D01*
X106982482Y-62789865D01*
X106776328Y-62693734D01*
X106580000Y-62641127D01*
X106580000Y-63604314D01*
X106568045Y-63592359D01*
X106455148Y-63534835D01*
X106361481Y-63520000D01*
X106298519Y-63520000D01*
X106204852Y-63534835D01*
X106091955Y-63592359D01*
X106080000Y-63604314D01*
X106080000Y-62641127D01*
X105883671Y-62693734D01*
X105677517Y-62789865D01*
X105491179Y-62920342D01*
X105330342Y-63081179D01*
X105199865Y-63267517D01*
X105103734Y-63473673D01*
X105103730Y-63473682D01*
X105051127Y-63669999D01*
X105051128Y-63670000D01*
X106014314Y-63670000D01*
X106002359Y-63681955D01*
X105944835Y-63794852D01*
X105925014Y-63920000D01*
X105944835Y-64045148D01*
X106002359Y-64158045D01*
X106014314Y-64170000D01*
X105051128Y-64170000D01*
X105103730Y-64366317D01*
X105103734Y-64366326D01*
X105199865Y-64572482D01*
X105330342Y-64758820D01*
X105491179Y-64919657D01*
X105677517Y-65050134D01*
X105883673Y-65146265D01*
X105883682Y-65146269D01*
X106079999Y-65198872D01*
X106080000Y-65198871D01*
X106080000Y-64235686D01*
X106091955Y-64247641D01*
X106204852Y-64305165D01*
X106298519Y-64320000D01*
X106361481Y-64320000D01*
X106455148Y-64305165D01*
X106568045Y-64247641D01*
X106580000Y-64235686D01*
X106580000Y-65198872D01*
X106776317Y-65146269D01*
X106776326Y-65146265D01*
X106982482Y-65050134D01*
X107168816Y-64919660D01*
X107293736Y-64794740D01*
X107355059Y-64761255D01*
X107424751Y-64766239D01*
X107480685Y-64808110D01*
X107505102Y-64873574D01*
X107505418Y-64882372D01*
X107508557Y-72770000D01*
X107509155Y-74273461D01*
X107509252Y-74515451D01*
X107489594Y-74582498D01*
X107436808Y-74628274D01*
X107385252Y-74639500D01*
X50634252Y-74639500D01*
X50567213Y-74619815D01*
X50521458Y-74567011D01*
X50510252Y-74515549D01*
X50509205Y-71884977D01*
X50507363Y-67255958D01*
X50527021Y-67188914D01*
X50579807Y-67143138D01*
X50648961Y-67133167D01*
X50712528Y-67162167D01*
X50719044Y-67168231D01*
X50860858Y-67310045D01*
X50860861Y-67310047D01*
X51047266Y-67440568D01*
X51253504Y-67536739D01*
X51473308Y-67595635D01*
X51635230Y-67609801D01*
X51699998Y-67615468D01*
X51700000Y-67615468D01*
X51700002Y-67615468D01*
X51756673Y-67610509D01*
X51926692Y-67595635D01*
X52146496Y-67536739D01*
X52352734Y-67440568D01*
X52539139Y-67310047D01*
X52700047Y-67149139D01*
X52830568Y-66962734D01*
X52926739Y-66756496D01*
X52985635Y-66536692D01*
X53005468Y-66310001D01*
X55394532Y-66310001D01*
X55414364Y-66536686D01*
X55414366Y-66536697D01*
X55473258Y-66756488D01*
X55473261Y-66756497D01*
X55569431Y-66962732D01*
X55569432Y-66962734D01*
X55699954Y-67149141D01*
X55860858Y-67310045D01*
X55860861Y-67310047D01*
X56047266Y-67440568D01*
X56253504Y-67536739D01*
X56473308Y-67595635D01*
X56635230Y-67609801D01*
X56699998Y-67615468D01*
X56700000Y-67615468D01*
X56700002Y-67615468D01*
X56756673Y-67610509D01*
X56926692Y-67595635D01*
X57146496Y-67536739D01*
X57352734Y-67440568D01*
X57539139Y-67310047D01*
X57700047Y-67149139D01*
X57830568Y-66962734D01*
X57926739Y-66756496D01*
X57985635Y-66536692D01*
X58005468Y-66310000D01*
X57985635Y-66083308D01*
X57926739Y-65863504D01*
X57830568Y-65657266D01*
X57830567Y-65657264D01*
X57788647Y-65597396D01*
X57766320Y-65531190D01*
X57783330Y-65463423D01*
X57802537Y-65438596D01*
X60258183Y-62982951D01*
X60319504Y-62949468D01*
X60389196Y-62954452D01*
X60445129Y-62996324D01*
X60469390Y-63059827D01*
X60474364Y-63116686D01*
X60474366Y-63116697D01*
X60533258Y-63336488D01*
X60533261Y-63336497D01*
X60629431Y-63542732D01*
X60629432Y-63542734D01*
X60759954Y-63729141D01*
X60920858Y-63890045D01*
X60920861Y-63890047D01*
X61107266Y-64020568D01*
X61313504Y-64116739D01*
X61533308Y-64175635D01*
X61695230Y-64189801D01*
X61759998Y-64195468D01*
X61760000Y-64195468D01*
X61760002Y-64195468D01*
X61816673Y-64190509D01*
X61986692Y-64175635D01*
X62206496Y-64116739D01*
X62412734Y-64020568D01*
X62593248Y-63894172D01*
X62603574Y-63886942D01*
X62604711Y-63888565D01*
X62660732Y-63864016D01*
X62729730Y-63875022D01*
X62781824Y-63921584D01*
X62800475Y-63988918D01*
X62779762Y-64055647D01*
X62764171Y-64074692D01*
X60268965Y-66569898D01*
X60256775Y-66580589D01*
X60231717Y-66599818D01*
X60195311Y-66647265D01*
X60195310Y-66647266D01*
X60135464Y-66725258D01*
X60135460Y-66725265D01*
X60123989Y-66752957D01*
X60080146Y-66807359D01*
X60013852Y-66829421D01*
X60009431Y-66829500D01*
X59812130Y-66829500D01*
X59812123Y-66829501D01*
X59752516Y-66835908D01*
X59617671Y-66886202D01*
X59617664Y-66886206D01*
X59502455Y-66972452D01*
X59502452Y-66972455D01*
X59416206Y-67087664D01*
X59416202Y-67087671D01*
X59365908Y-67222517D01*
X59359501Y-67282116D01*
X59359500Y-67282135D01*
X59359500Y-68977870D01*
X59359501Y-68977876D01*
X59365908Y-69037483D01*
X59416202Y-69172328D01*
X59416206Y-69172335D01*
X59502452Y-69287544D01*
X59502455Y-69287547D01*
X59617664Y-69373793D01*
X59617671Y-69373797D01*
X59752517Y-69424091D01*
X59752516Y-69424091D01*
X59759444Y-69424835D01*
X59812127Y-69430500D01*
X61507872Y-69430499D01*
X61567483Y-69424091D01*
X61702331Y-69373796D01*
X61817546Y-69287546D01*
X61824350Y-69278455D01*
X61880280Y-69236584D01*
X61949971Y-69231597D01*
X61994740Y-69251188D01*
X62007512Y-69260130D01*
X62007518Y-69260134D01*
X62213673Y-69356265D01*
X62213682Y-69356269D01*
X62433389Y-69415139D01*
X62433400Y-69415141D01*
X62659998Y-69434966D01*
X62660002Y-69434966D01*
X62886599Y-69415141D01*
X62886610Y-69415139D01*
X63106317Y-69356269D01*
X63106331Y-69356264D01*
X63295892Y-69267870D01*
X65749500Y-69267870D01*
X65749501Y-69267876D01*
X65755908Y-69327483D01*
X65806202Y-69462328D01*
X65806206Y-69462335D01*
X65892452Y-69577544D01*
X65892455Y-69577547D01*
X66007664Y-69663793D01*
X66007671Y-69663797D01*
X66142517Y-69714091D01*
X66142516Y-69714091D01*
X66149444Y-69714835D01*
X66202127Y-69720500D01*
X67897872Y-69720499D01*
X67957483Y-69714091D01*
X68092331Y-69663796D01*
X68207546Y-69577546D01*
X68293796Y-69462331D01*
X68344091Y-69327483D01*
X68350500Y-69267873D01*
X68350499Y-69267845D01*
X68350678Y-69264547D01*
X68352183Y-69264627D01*
X68370112Y-69203326D01*
X68422868Y-69157514D01*
X68466465Y-69149981D01*
X69152046Y-68464400D01*
X69164835Y-68545148D01*
X69222359Y-68658045D01*
X69311955Y-68747641D01*
X69424852Y-68805165D01*
X69505599Y-68817953D01*
X68824526Y-69499025D01*
X68897513Y-69550132D01*
X68897521Y-69550136D01*
X69103668Y-69646264D01*
X69103682Y-69646269D01*
X69323389Y-69705139D01*
X69323400Y-69705141D01*
X69549998Y-69724966D01*
X69550002Y-69724966D01*
X69776599Y-69705141D01*
X69776610Y-69705139D01*
X69996317Y-69646269D01*
X69996331Y-69646264D01*
X70202478Y-69550136D01*
X70275471Y-69499024D01*
X69594400Y-68817953D01*
X69675148Y-68805165D01*
X69788045Y-68747641D01*
X69877641Y-68658045D01*
X69935165Y-68545148D01*
X69947953Y-68464400D01*
X70629024Y-69145471D01*
X70680136Y-69072478D01*
X70776264Y-68866331D01*
X70776269Y-68866317D01*
X70835139Y-68646610D01*
X70835141Y-68646599D01*
X70854966Y-68420002D01*
X70854966Y-68419997D01*
X70835141Y-68193400D01*
X70835139Y-68193389D01*
X70776269Y-67973682D01*
X70776264Y-67973668D01*
X70680136Y-67767521D01*
X70680132Y-67767513D01*
X70653865Y-67730001D01*
X71894532Y-67730001D01*
X71914364Y-67956686D01*
X71914366Y-67956697D01*
X71973258Y-68176488D01*
X71973261Y-68176497D01*
X72069431Y-68382732D01*
X72069432Y-68382734D01*
X72199954Y-68569141D01*
X72360858Y-68730045D01*
X72360861Y-68730047D01*
X72547266Y-68860568D01*
X72753504Y-68956739D01*
X72973308Y-69015635D01*
X73135230Y-69029801D01*
X73199998Y-69035468D01*
X73200000Y-69035468D01*
X73200002Y-69035468D01*
X73256673Y-69030509D01*
X73426692Y-69015635D01*
X73646496Y-68956739D01*
X73852734Y-68860568D01*
X74039139Y-68730047D01*
X74200047Y-68569139D01*
X74330568Y-68382734D01*
X74426739Y-68176496D01*
X74485635Y-67956692D01*
X74504025Y-67746496D01*
X74505468Y-67730001D01*
X76894532Y-67730001D01*
X76914364Y-67956686D01*
X76914366Y-67956697D01*
X76973258Y-68176488D01*
X76973261Y-68176497D01*
X77069431Y-68382732D01*
X77069432Y-68382734D01*
X77199954Y-68569141D01*
X77360858Y-68730045D01*
X77360861Y-68730047D01*
X77547266Y-68860568D01*
X77753504Y-68956739D01*
X77973308Y-69015635D01*
X78135230Y-69029801D01*
X78199998Y-69035468D01*
X78200000Y-69035468D01*
X78200002Y-69035468D01*
X78256673Y-69030509D01*
X78426692Y-69015635D01*
X78646496Y-68956739D01*
X78852734Y-68860568D01*
X79039139Y-68730047D01*
X79200047Y-68569139D01*
X79330568Y-68382734D01*
X79426739Y-68176496D01*
X79485635Y-67956692D01*
X79504025Y-67746496D01*
X79505468Y-67730001D01*
X79505468Y-67729998D01*
X79495448Y-67615468D01*
X79485635Y-67503308D01*
X79431160Y-67300002D01*
X81415034Y-67300002D01*
X81434858Y-67526599D01*
X81434860Y-67526610D01*
X81493730Y-67746317D01*
X81493735Y-67746331D01*
X81589863Y-67952478D01*
X81640974Y-68025472D01*
X82322046Y-67344400D01*
X82334835Y-67425148D01*
X82392359Y-67538045D01*
X82481955Y-67627641D01*
X82594852Y-67685165D01*
X82675599Y-67697953D01*
X81994526Y-68379025D01*
X82067513Y-68430132D01*
X82067521Y-68430136D01*
X82273668Y-68526264D01*
X82273682Y-68526269D01*
X82493389Y-68585139D01*
X82493400Y-68585141D01*
X82719998Y-68604966D01*
X82720002Y-68604966D01*
X82946599Y-68585141D01*
X82946610Y-68585139D01*
X83166317Y-68526269D01*
X83166331Y-68526264D01*
X83372478Y-68430136D01*
X83445471Y-68379024D01*
X82764400Y-67697953D01*
X82845148Y-67685165D01*
X82958045Y-67627641D01*
X83047641Y-67538045D01*
X83105165Y-67425148D01*
X83117953Y-67344400D01*
X83799024Y-68025471D01*
X83850134Y-67952481D01*
X83857340Y-67937028D01*
X83903511Y-67884587D01*
X83970704Y-67865433D01*
X84037585Y-67885646D01*
X84082105Y-67937022D01*
X84089430Y-67952730D01*
X84089432Y-67952734D01*
X84219954Y-68139141D01*
X84380858Y-68300045D01*
X84380861Y-68300047D01*
X84567266Y-68430568D01*
X84773504Y-68526739D01*
X84993308Y-68585635D01*
X85155230Y-68599801D01*
X85219998Y-68605468D01*
X85220000Y-68605468D01*
X85220002Y-68605468D01*
X85276673Y-68600509D01*
X85446692Y-68585635D01*
X85666496Y-68526739D01*
X85872734Y-68430568D01*
X86059139Y-68300047D01*
X86220047Y-68139139D01*
X86350568Y-67952734D01*
X86446739Y-67746496D01*
X86505635Y-67526692D01*
X86525468Y-67300000D01*
X86524581Y-67289866D01*
X86516171Y-67193734D01*
X86505635Y-67073308D01*
X86496710Y-67040001D01*
X87194532Y-67040001D01*
X87214364Y-67266686D01*
X87214366Y-67266697D01*
X87273258Y-67486488D01*
X87273261Y-67486497D01*
X87369431Y-67692732D01*
X87369432Y-67692734D01*
X87499954Y-67879141D01*
X87660858Y-68040045D01*
X87660861Y-68040047D01*
X87847266Y-68170568D01*
X88053504Y-68266739D01*
X88273308Y-68325635D01*
X88435230Y-68339801D01*
X88499998Y-68345468D01*
X88500000Y-68345468D01*
X88500002Y-68345468D01*
X88556673Y-68340509D01*
X88726692Y-68325635D01*
X88946496Y-68266739D01*
X89152734Y-68170568D01*
X89339139Y-68040047D01*
X89500047Y-67879139D01*
X89630568Y-67692734D01*
X89726739Y-67486496D01*
X89785635Y-67266692D01*
X89805468Y-67040000D01*
X89802739Y-67008813D01*
X89793546Y-66903730D01*
X89785635Y-66813308D01*
X89728431Y-66599818D01*
X89726741Y-66593511D01*
X89726738Y-66593502D01*
X89720717Y-66580589D01*
X89630568Y-66387266D01*
X89514130Y-66220974D01*
X89500045Y-66200858D01*
X89339141Y-66039954D01*
X89152734Y-65909432D01*
X89152732Y-65909431D01*
X88946497Y-65813261D01*
X88946488Y-65813258D01*
X88726697Y-65754366D01*
X88726693Y-65754365D01*
X88726692Y-65754365D01*
X88726691Y-65754364D01*
X88726686Y-65754364D01*
X88500002Y-65734532D01*
X88499998Y-65734532D01*
X88273313Y-65754364D01*
X88273302Y-65754366D01*
X88053511Y-65813258D01*
X88053502Y-65813261D01*
X87847267Y-65909431D01*
X87847265Y-65909432D01*
X87660858Y-66039954D01*
X87499954Y-66200858D01*
X87369432Y-66387265D01*
X87369431Y-66387267D01*
X87273261Y-66593502D01*
X87273258Y-66593511D01*
X87214366Y-66813302D01*
X87214364Y-66813313D01*
X87194532Y-67039998D01*
X87194532Y-67040001D01*
X86496710Y-67040001D01*
X86446739Y-66853504D01*
X86350568Y-66647266D01*
X86220047Y-66460861D01*
X86220045Y-66460858D01*
X86059141Y-66299954D01*
X85872734Y-66169432D01*
X85872732Y-66169431D01*
X85666497Y-66073261D01*
X85666488Y-66073258D01*
X85446697Y-66014366D01*
X85446693Y-66014365D01*
X85446692Y-66014365D01*
X85446691Y-66014364D01*
X85446686Y-66014364D01*
X85220002Y-65994532D01*
X85219998Y-65994532D01*
X84993313Y-66014364D01*
X84993302Y-66014366D01*
X84773511Y-66073258D01*
X84773502Y-66073261D01*
X84567267Y-66169431D01*
X84567265Y-66169432D01*
X84380858Y-66299954D01*
X84219954Y-66460858D01*
X84089432Y-66647265D01*
X84089432Y-66647266D01*
X84082104Y-66662979D01*
X84035929Y-66715417D01*
X83968735Y-66734566D01*
X83901855Y-66714347D01*
X83857341Y-66662973D01*
X83850133Y-66647515D01*
X83850132Y-66647513D01*
X83799025Y-66574526D01*
X83117953Y-67255598D01*
X83105165Y-67174852D01*
X83047641Y-67061955D01*
X82958045Y-66972359D01*
X82845148Y-66914835D01*
X82764401Y-66902046D01*
X83445472Y-66220974D01*
X83372478Y-66169863D01*
X83166331Y-66073735D01*
X83166317Y-66073730D01*
X82946610Y-66014860D01*
X82946599Y-66014858D01*
X82720002Y-65995034D01*
X82719998Y-65995034D01*
X82493400Y-66014858D01*
X82493389Y-66014860D01*
X82273682Y-66073730D01*
X82273673Y-66073734D01*
X82067516Y-66169866D01*
X82067512Y-66169868D01*
X81994526Y-66220973D01*
X81994526Y-66220974D01*
X82675599Y-66902046D01*
X82594852Y-66914835D01*
X82481955Y-66972359D01*
X82392359Y-67061955D01*
X82334835Y-67174852D01*
X82322046Y-67255598D01*
X81640974Y-66574526D01*
X81640973Y-66574526D01*
X81589868Y-66647512D01*
X81589866Y-66647516D01*
X81493734Y-66853673D01*
X81493730Y-66853682D01*
X81434860Y-67073389D01*
X81434858Y-67073400D01*
X81415034Y-67299997D01*
X81415034Y-67300002D01*
X79431160Y-67300002D01*
X79426739Y-67283504D01*
X79330568Y-67077266D01*
X79200047Y-66890861D01*
X79200045Y-66890858D01*
X79039141Y-66729954D01*
X78852734Y-66599432D01*
X78852732Y-66599431D01*
X78646497Y-66503261D01*
X78646488Y-66503258D01*
X78426697Y-66444366D01*
X78426693Y-66444365D01*
X78426692Y-66444365D01*
X78426691Y-66444364D01*
X78426686Y-66444364D01*
X78200002Y-66424532D01*
X78199998Y-66424532D01*
X77973313Y-66444364D01*
X77973302Y-66444366D01*
X77753511Y-66503258D01*
X77753502Y-66503261D01*
X77547267Y-66599431D01*
X77547265Y-66599432D01*
X77360858Y-66729954D01*
X77199954Y-66890858D01*
X77069432Y-67077265D01*
X77069431Y-67077267D01*
X76973261Y-67283502D01*
X76973258Y-67283511D01*
X76914366Y-67503302D01*
X76914364Y-67503313D01*
X76894532Y-67729998D01*
X76894532Y-67730001D01*
X74505468Y-67730001D01*
X74505468Y-67729998D01*
X74495448Y-67615468D01*
X74485635Y-67503308D01*
X74426739Y-67283504D01*
X74330568Y-67077266D01*
X74200047Y-66890861D01*
X74200045Y-66890858D01*
X74039141Y-66729954D01*
X73852734Y-66599432D01*
X73852732Y-66599431D01*
X73646497Y-66503261D01*
X73646488Y-66503258D01*
X73426697Y-66444366D01*
X73426693Y-66444365D01*
X73426692Y-66444365D01*
X73426691Y-66444364D01*
X73426686Y-66444364D01*
X73200002Y-66424532D01*
X73199998Y-66424532D01*
X72973313Y-66444364D01*
X72973302Y-66444366D01*
X72753511Y-66503258D01*
X72753502Y-66503261D01*
X72547267Y-66599431D01*
X72547265Y-66599432D01*
X72360858Y-66729954D01*
X72199954Y-66890858D01*
X72069432Y-67077265D01*
X72069431Y-67077267D01*
X71973261Y-67283502D01*
X71973258Y-67283511D01*
X71914366Y-67503302D01*
X71914364Y-67503313D01*
X71894532Y-67729998D01*
X71894532Y-67730001D01*
X70653865Y-67730001D01*
X70629025Y-67694526D01*
X69947953Y-68375598D01*
X69935165Y-68294852D01*
X69877641Y-68181955D01*
X69788045Y-68092359D01*
X69675148Y-68034835D01*
X69594401Y-68022046D01*
X70275472Y-67340974D01*
X70202478Y-67289863D01*
X69996331Y-67193735D01*
X69996317Y-67193730D01*
X69776610Y-67134860D01*
X69776599Y-67134858D01*
X69550002Y-67115034D01*
X69549998Y-67115034D01*
X69323400Y-67134858D01*
X69323389Y-67134860D01*
X69103682Y-67193730D01*
X69103673Y-67193734D01*
X68897516Y-67289866D01*
X68897512Y-67289868D01*
X68824526Y-67340973D01*
X68824526Y-67340974D01*
X69505599Y-68022046D01*
X69424852Y-68034835D01*
X69311955Y-68092359D01*
X69222359Y-68181955D01*
X69164835Y-68294852D01*
X69152046Y-68375598D01*
X68465799Y-67689351D01*
X68416805Y-67679505D01*
X68366622Y-67630889D01*
X68351981Y-67575366D01*
X68350900Y-67575423D01*
X68350854Y-67575429D01*
X68350853Y-67575426D01*
X68350676Y-67575436D01*
X68350499Y-67572135D01*
X68350499Y-67572128D01*
X68344091Y-67512517D01*
X68340656Y-67503308D01*
X68293797Y-67377671D01*
X68293793Y-67377664D01*
X68207547Y-67262455D01*
X68207544Y-67262452D01*
X68092335Y-67176206D01*
X68092328Y-67176202D01*
X67957482Y-67125908D01*
X67957483Y-67125908D01*
X67897883Y-67119501D01*
X67897881Y-67119500D01*
X67897873Y-67119500D01*
X67897864Y-67119500D01*
X66202129Y-67119500D01*
X66202123Y-67119501D01*
X66142516Y-67125908D01*
X66007671Y-67176202D01*
X66007664Y-67176206D01*
X65892455Y-67262452D01*
X65892452Y-67262455D01*
X65806206Y-67377664D01*
X65806202Y-67377671D01*
X65755908Y-67512517D01*
X65753164Y-67538045D01*
X65749501Y-67572123D01*
X65749500Y-67572135D01*
X65749500Y-69267870D01*
X63295892Y-69267870D01*
X63312478Y-69260136D01*
X63385471Y-69209024D01*
X62704400Y-68527953D01*
X62785148Y-68515165D01*
X62898045Y-68457641D01*
X62987641Y-68368045D01*
X63045165Y-68255148D01*
X63057953Y-68174400D01*
X63739024Y-68855471D01*
X63790136Y-68782478D01*
X63886264Y-68576331D01*
X63886269Y-68576317D01*
X63945139Y-68356610D01*
X63945141Y-68356599D01*
X63964966Y-68130002D01*
X63964966Y-68129997D01*
X63945141Y-67903400D01*
X63945139Y-67903389D01*
X63886269Y-67683682D01*
X63886264Y-67683668D01*
X63790136Y-67477521D01*
X63790132Y-67477513D01*
X63739025Y-67404526D01*
X63057953Y-68085598D01*
X63045165Y-68004852D01*
X62987641Y-67891955D01*
X62898045Y-67802359D01*
X62785148Y-67744835D01*
X62704400Y-67732046D01*
X63385472Y-67050974D01*
X63312478Y-66999863D01*
X63106331Y-66903735D01*
X63106317Y-66903730D01*
X62886610Y-66844860D01*
X62886599Y-66844858D01*
X62660002Y-66825034D01*
X62659998Y-66825034D01*
X62433400Y-66844858D01*
X62433389Y-66844860D01*
X62213682Y-66903730D01*
X62213673Y-66903734D01*
X62007512Y-66999868D01*
X62007507Y-66999871D01*
X61994736Y-67008813D01*
X61928529Y-67031138D01*
X61860763Y-67014124D01*
X61824352Y-66981546D01*
X61817546Y-66972454D01*
X61787606Y-66950041D01*
X61745737Y-66894109D01*
X61740753Y-66824417D01*
X61774236Y-66763097D01*
X64811043Y-63726290D01*
X64823223Y-63715609D01*
X64848282Y-63696382D01*
X64944536Y-63570941D01*
X65005044Y-63424862D01*
X65015857Y-63342730D01*
X65025682Y-63268100D01*
X65025605Y-63267517D01*
X65021561Y-63236797D01*
X65020500Y-63220612D01*
X65020500Y-63062114D01*
X65040185Y-62995075D01*
X65092989Y-62949320D01*
X65101141Y-62945942D01*
X65187331Y-62913796D01*
X65187335Y-62913792D01*
X65195118Y-62909544D01*
X65196252Y-62911621D01*
X65249715Y-62891671D01*
X65294576Y-62896694D01*
X65295656Y-62897021D01*
X65295659Y-62897023D01*
X65488967Y-62955662D01*
X65690000Y-62975462D01*
X65891033Y-62955662D01*
X66084341Y-62897023D01*
X66262494Y-62801798D01*
X66262498Y-62801794D01*
X66266546Y-62799631D01*
X66334949Y-62785389D01*
X66383454Y-62799631D01*
X66387502Y-62801794D01*
X66387506Y-62801798D01*
X66565659Y-62897023D01*
X66758967Y-62955662D01*
X66960000Y-62975462D01*
X67161033Y-62955662D01*
X67354341Y-62897023D01*
X67361247Y-62893332D01*
X67532488Y-62801801D01*
X67532486Y-62801801D01*
X67532494Y-62801798D01*
X67688647Y-62673647D01*
X67816798Y-62517494D01*
X67912023Y-62339341D01*
X67915503Y-62327870D01*
X70869500Y-62327870D01*
X70869501Y-62327876D01*
X70875908Y-62387483D01*
X70926202Y-62522328D01*
X70926206Y-62522335D01*
X71012452Y-62637544D01*
X71012455Y-62637547D01*
X71127664Y-62723793D01*
X71127671Y-62723797D01*
X71262517Y-62774091D01*
X71262516Y-62774091D01*
X71269444Y-62774835D01*
X71322127Y-62780500D01*
X73017872Y-62780499D01*
X73077483Y-62774091D01*
X73212331Y-62723796D01*
X73327546Y-62637546D01*
X73334051Y-62628856D01*
X73389982Y-62586984D01*
X73459673Y-62581997D01*
X73504442Y-62601589D01*
X73517264Y-62610567D01*
X73517266Y-62610568D01*
X73723504Y-62706739D01*
X73723510Y-62706740D01*
X73723511Y-62706741D01*
X73771293Y-62719544D01*
X73943308Y-62765635D01*
X74092882Y-62778721D01*
X74169998Y-62785468D01*
X74170000Y-62785468D01*
X74170002Y-62785468D01*
X74247118Y-62778721D01*
X74396692Y-62765635D01*
X74616496Y-62706739D01*
X74822734Y-62610568D01*
X75009139Y-62480047D01*
X75170047Y-62319139D01*
X75226952Y-62237870D01*
X76654400Y-62237870D01*
X76654401Y-62237876D01*
X76660808Y-62297483D01*
X76711102Y-62432328D01*
X76711106Y-62432335D01*
X76797352Y-62547544D01*
X76797355Y-62547547D01*
X76912564Y-62633793D01*
X76912571Y-62633797D01*
X77047417Y-62684091D01*
X77047416Y-62684091D01*
X77054344Y-62684835D01*
X77107027Y-62690500D01*
X78802772Y-62690499D01*
X78862383Y-62684091D01*
X78997231Y-62633796D01*
X79112446Y-62547546D01*
X79119250Y-62538455D01*
X79175180Y-62496584D01*
X79244871Y-62491597D01*
X79289640Y-62511188D01*
X79302412Y-62520130D01*
X79302418Y-62520134D01*
X79508573Y-62616265D01*
X79508582Y-62616269D01*
X79728289Y-62675139D01*
X79728300Y-62675141D01*
X79954898Y-62694966D01*
X79954902Y-62694966D01*
X80181499Y-62675141D01*
X80181510Y-62675139D01*
X80401217Y-62616269D01*
X80401231Y-62616264D01*
X80607378Y-62520136D01*
X80680371Y-62469024D01*
X80539217Y-62327870D01*
X82864500Y-62327870D01*
X82864501Y-62327876D01*
X82870908Y-62387483D01*
X82921202Y-62522328D01*
X82921206Y-62522335D01*
X83007452Y-62637544D01*
X83007455Y-62637547D01*
X83122664Y-62723793D01*
X83122671Y-62723797D01*
X83257517Y-62774091D01*
X83257516Y-62774091D01*
X83264444Y-62774835D01*
X83317127Y-62780500D01*
X84462872Y-62780499D01*
X84522483Y-62774091D01*
X84657331Y-62723796D01*
X84657335Y-62723792D01*
X84665118Y-62719544D01*
X84666252Y-62721621D01*
X84719715Y-62701671D01*
X84764576Y-62706694D01*
X84765656Y-62707021D01*
X84765659Y-62707023D01*
X84958967Y-62765662D01*
X85160000Y-62785462D01*
X85342676Y-62767470D01*
X85360628Y-62765702D01*
X85429274Y-62778721D01*
X85460463Y-62801424D01*
X85630073Y-62971034D01*
X85640767Y-62983228D01*
X85659989Y-63008279D01*
X85659990Y-63008280D01*
X85659992Y-63008282D01*
X85705712Y-63043364D01*
X85785433Y-63104536D01*
X85785436Y-63104537D01*
X85785437Y-63104538D01*
X85814780Y-63116692D01*
X85931512Y-63165044D01*
X86009893Y-63175363D01*
X86088273Y-63185682D01*
X86088274Y-63185682D01*
X86119576Y-63181560D01*
X86135761Y-63180500D01*
X89582513Y-63180500D01*
X89598697Y-63181560D01*
X89630000Y-63185682D01*
X89630001Y-63185682D01*
X89682254Y-63178802D01*
X89786762Y-63165044D01*
X89932841Y-63104536D01*
X90012562Y-63043364D01*
X90058282Y-63008282D01*
X90077509Y-62983223D01*
X90088191Y-62971042D01*
X90132417Y-62926817D01*
X90193740Y-62893332D01*
X90220097Y-62890499D01*
X91115500Y-62890499D01*
X91182539Y-62910184D01*
X91228294Y-62962988D01*
X91239500Y-63014499D01*
X91239500Y-65332512D01*
X91238438Y-65348697D01*
X91234318Y-65380000D01*
X91238098Y-65408715D01*
X91239500Y-65419360D01*
X91239500Y-65419361D01*
X91254955Y-65536760D01*
X91254956Y-65536762D01*
X91315464Y-65682841D01*
X91370347Y-65754366D01*
X91411719Y-65808283D01*
X91436769Y-65827504D01*
X91448964Y-65838199D01*
X92208058Y-66597293D01*
X92241543Y-66658616D01*
X92240152Y-66717067D01*
X92214366Y-66813302D01*
X92214364Y-66813313D01*
X92194532Y-67039998D01*
X92194532Y-67040001D01*
X92214364Y-67266686D01*
X92214366Y-67266697D01*
X92273258Y-67486488D01*
X92273261Y-67486497D01*
X92369431Y-67692732D01*
X92369432Y-67692734D01*
X92499954Y-67879141D01*
X92660858Y-68040045D01*
X92660861Y-68040047D01*
X92847266Y-68170568D01*
X93053504Y-68266739D01*
X93273308Y-68325635D01*
X93435230Y-68339801D01*
X93499998Y-68345468D01*
X93500000Y-68345468D01*
X93500002Y-68345468D01*
X93556673Y-68340509D01*
X93726692Y-68325635D01*
X93946496Y-68266739D01*
X94152734Y-68170568D01*
X94339139Y-68040047D01*
X94500047Y-67879139D01*
X94630568Y-67692734D01*
X94726739Y-67486496D01*
X94785635Y-67266692D01*
X94805468Y-67040000D01*
X94802739Y-67008813D01*
X94793546Y-66903730D01*
X94785635Y-66813308D01*
X94728431Y-66599818D01*
X94726741Y-66593511D01*
X94726738Y-66593502D01*
X94720717Y-66580589D01*
X94630568Y-66387266D01*
X94514130Y-66220974D01*
X94500045Y-66200858D01*
X94339140Y-66039953D01*
X94153377Y-65909881D01*
X94109752Y-65855304D01*
X94100500Y-65808306D01*
X94100500Y-63480096D01*
X94120185Y-63413057D01*
X94136814Y-63392420D01*
X95877294Y-61651939D01*
X95938615Y-61618456D01*
X95997066Y-61619847D01*
X96016604Y-61625082D01*
X96093308Y-61645635D01*
X96255230Y-61659801D01*
X96319998Y-61665468D01*
X96320000Y-61665468D01*
X96320002Y-61665468D01*
X96376673Y-61660509D01*
X96546692Y-61645635D01*
X96766496Y-61586739D01*
X96972734Y-61490568D01*
X97159139Y-61360047D01*
X97320047Y-61199139D01*
X97450568Y-61012734D01*
X97546739Y-60806496D01*
X97605635Y-60586692D01*
X97625468Y-60360000D01*
X97625329Y-60358415D01*
X97616708Y-60259871D01*
X97605635Y-60133308D01*
X97546739Y-59913504D01*
X97450568Y-59707266D01*
X97320047Y-59520861D01*
X97320045Y-59520858D01*
X97159141Y-59359954D01*
X96972734Y-59229432D01*
X96972732Y-59229431D01*
X96766497Y-59133261D01*
X96766488Y-59133258D01*
X96546697Y-59074366D01*
X96546693Y-59074365D01*
X96546692Y-59074365D01*
X96546691Y-59074364D01*
X96546686Y-59074364D01*
X96320002Y-59054532D01*
X96319998Y-59054532D01*
X96093313Y-59074364D01*
X96093302Y-59074366D01*
X95873511Y-59133258D01*
X95873502Y-59133261D01*
X95667267Y-59229431D01*
X95667265Y-59229432D01*
X95480858Y-59359954D01*
X95319954Y-59520858D01*
X95189432Y-59707265D01*
X95189431Y-59707267D01*
X95093261Y-59913502D01*
X95093258Y-59913511D01*
X95034366Y-60133302D01*
X95034364Y-60133313D01*
X95014532Y-60359998D01*
X95014532Y-60360001D01*
X95034364Y-60586686D01*
X95034366Y-60586697D01*
X95060152Y-60682931D01*
X95058489Y-60752781D01*
X95028058Y-60802705D01*
X94347181Y-61483583D01*
X94285858Y-61517068D01*
X94216167Y-61512084D01*
X94160233Y-61470213D01*
X94135816Y-61404748D01*
X94135500Y-61395902D01*
X94135500Y-61364623D01*
X94135049Y-61360047D01*
X94120662Y-61213967D01*
X94062023Y-61020659D01*
X94062021Y-61020656D01*
X94062021Y-61020654D01*
X93966801Y-60842511D01*
X93966799Y-60842509D01*
X93966798Y-60842506D01*
X93892590Y-60752083D01*
X93838647Y-60686352D01*
X93755835Y-60618390D01*
X93716501Y-60560644D01*
X93710500Y-60522537D01*
X93710500Y-60470096D01*
X93730185Y-60403057D01*
X93746814Y-60382420D01*
X95907294Y-58221939D01*
X95968615Y-58188456D01*
X96027066Y-58189847D01*
X96038669Y-58192956D01*
X96123308Y-58215635D01*
X96285230Y-58229801D01*
X96349998Y-58235468D01*
X96350000Y-58235468D01*
X96350002Y-58235468D01*
X96406673Y-58230509D01*
X96576692Y-58215635D01*
X96796496Y-58156739D01*
X97002734Y-58060568D01*
X97189139Y-57930047D01*
X97350047Y-57769139D01*
X97480568Y-57582734D01*
X97576739Y-57376496D01*
X97635635Y-57156692D01*
X97655468Y-56930000D01*
X97651968Y-56890000D01*
X97645213Y-56812781D01*
X97635635Y-56703308D01*
X97576739Y-56483504D01*
X97480568Y-56277266D01*
X97352022Y-56093682D01*
X97350045Y-56090858D01*
X97189141Y-55929954D01*
X97002734Y-55799432D01*
X97002732Y-55799431D01*
X96796497Y-55703261D01*
X96796488Y-55703258D01*
X96576697Y-55644366D01*
X96576693Y-55644365D01*
X96576692Y-55644365D01*
X96576691Y-55644364D01*
X96576686Y-55644364D01*
X96350002Y-55624532D01*
X96349998Y-55624532D01*
X96123313Y-55644364D01*
X96123302Y-55644366D01*
X95903511Y-55703258D01*
X95903502Y-55703261D01*
X95697267Y-55799431D01*
X95697265Y-55799432D01*
X95510859Y-55929953D01*
X95509269Y-55931288D01*
X95508428Y-55931655D01*
X95506426Y-55933058D01*
X95506143Y-55932655D01*
X95445257Y-55959294D01*
X95376266Y-55948247D01*
X95324200Y-55901655D01*
X95317195Y-55888703D01*
X95260568Y-55767266D01*
X95130047Y-55580861D01*
X95130045Y-55580858D01*
X94969141Y-55419954D01*
X94782734Y-55289432D01*
X94782732Y-55289431D01*
X94576497Y-55193261D01*
X94576488Y-55193258D01*
X94356697Y-55134366D01*
X94356693Y-55134365D01*
X94356692Y-55134365D01*
X94356691Y-55134364D01*
X94356686Y-55134364D01*
X94130002Y-55114532D01*
X94129998Y-55114532D01*
X93903313Y-55134364D01*
X93903302Y-55134366D01*
X93683511Y-55193258D01*
X93683502Y-55193261D01*
X93477267Y-55289431D01*
X93477265Y-55289432D01*
X93290858Y-55419954D01*
X93129954Y-55580858D01*
X92999432Y-55767265D01*
X92999431Y-55767267D01*
X92903261Y-55973502D01*
X92903258Y-55973511D01*
X92844366Y-56193302D01*
X92844364Y-56193313D01*
X92824532Y-56419998D01*
X92824532Y-56420001D01*
X92844364Y-56646686D01*
X92844366Y-56646697D01*
X92870152Y-56742931D01*
X92868489Y-56812781D01*
X92838058Y-56862705D01*
X89857584Y-59843181D01*
X89796261Y-59876666D01*
X89769903Y-59879500D01*
X84865761Y-59879500D01*
X84849576Y-59878439D01*
X84818274Y-59874318D01*
X84778913Y-59879500D01*
X84661513Y-59894955D01*
X84661511Y-59894956D01*
X84515434Y-59955463D01*
X84389988Y-60051721D01*
X84370769Y-60076769D01*
X84360074Y-60088964D01*
X84205857Y-60243181D01*
X84144534Y-60276666D01*
X84118176Y-60279500D01*
X83317129Y-60279500D01*
X83317123Y-60279501D01*
X83257516Y-60285908D01*
X83122671Y-60336202D01*
X83122664Y-60336206D01*
X83007455Y-60422452D01*
X83007452Y-60422455D01*
X82921206Y-60537664D01*
X82921202Y-60537671D01*
X82870908Y-60672517D01*
X82864501Y-60732116D01*
X82864500Y-60732135D01*
X82864500Y-62327870D01*
X80539217Y-62327870D01*
X79999300Y-61787953D01*
X80080048Y-61775165D01*
X80192945Y-61717641D01*
X80282541Y-61628045D01*
X80340065Y-61515148D01*
X80352853Y-61434400D01*
X81033924Y-62115471D01*
X81085036Y-62042478D01*
X81181164Y-61836331D01*
X81181169Y-61836317D01*
X81240039Y-61616610D01*
X81240041Y-61616599D01*
X81259866Y-61390002D01*
X81259866Y-61389997D01*
X81240041Y-61163400D01*
X81240039Y-61163389D01*
X81181169Y-60943682D01*
X81181164Y-60943668D01*
X81085036Y-60737521D01*
X81085032Y-60737513D01*
X81033925Y-60664526D01*
X80352853Y-61345598D01*
X80340065Y-61264852D01*
X80282541Y-61151955D01*
X80192945Y-61062359D01*
X80080048Y-61004835D01*
X79999300Y-60992046D01*
X80680372Y-60310974D01*
X80607378Y-60259863D01*
X80401231Y-60163735D01*
X80401217Y-60163730D01*
X80181510Y-60104860D01*
X80181499Y-60104858D01*
X79954902Y-60085034D01*
X79954898Y-60085034D01*
X79728300Y-60104858D01*
X79728289Y-60104860D01*
X79508582Y-60163730D01*
X79508573Y-60163734D01*
X79302412Y-60259868D01*
X79302407Y-60259871D01*
X79289636Y-60268813D01*
X79223429Y-60291138D01*
X79155663Y-60274124D01*
X79119252Y-60241546D01*
X79112446Y-60232454D01*
X79112444Y-60232453D01*
X79112444Y-60232452D01*
X78997235Y-60146206D01*
X78997228Y-60146202D01*
X78862382Y-60095908D01*
X78862383Y-60095908D01*
X78802783Y-60089501D01*
X78802781Y-60089500D01*
X78802773Y-60089500D01*
X78802764Y-60089500D01*
X77107029Y-60089500D01*
X77107023Y-60089501D01*
X77047416Y-60095908D01*
X76912571Y-60146202D01*
X76912564Y-60146206D01*
X76797355Y-60232452D01*
X76797352Y-60232455D01*
X76711106Y-60347664D01*
X76711102Y-60347671D01*
X76660808Y-60482517D01*
X76654401Y-60542116D01*
X76654400Y-60542135D01*
X76654400Y-62237870D01*
X75226952Y-62237870D01*
X75300568Y-62132734D01*
X75396739Y-61926496D01*
X75455635Y-61706692D01*
X75475468Y-61480000D01*
X75455635Y-61253308D01*
X75429847Y-61157066D01*
X75431510Y-61087217D01*
X75461939Y-61037294D01*
X77084416Y-59414819D01*
X77145739Y-59381334D01*
X77172097Y-59378500D01*
X87644513Y-59378500D01*
X87660697Y-59379560D01*
X87692000Y-59383682D01*
X87692001Y-59383682D01*
X87744254Y-59376802D01*
X87848762Y-59363044D01*
X87994836Y-59302538D01*
X87994837Y-59302538D01*
X87994837Y-59302537D01*
X87994841Y-59302536D01*
X88048036Y-59261718D01*
X88120282Y-59206282D01*
X88139509Y-59181223D01*
X88150190Y-59169043D01*
X93280153Y-54039080D01*
X93341474Y-54005597D01*
X93404382Y-54008272D01*
X93407981Y-54009382D01*
X93407987Y-54009385D01*
X93647236Y-54083184D01*
X93647237Y-54083184D01*
X93647240Y-54083185D01*
X93894805Y-54120499D01*
X93894810Y-54120499D01*
X93894813Y-54120500D01*
X93894814Y-54120500D01*
X94145186Y-54120500D01*
X94145187Y-54120500D01*
X94145194Y-54120499D01*
X94392759Y-54083185D01*
X94392760Y-54083184D01*
X94392764Y-54083184D01*
X94632013Y-54009385D01*
X94857592Y-53900752D01*
X95064460Y-53759712D01*
X95226442Y-53609414D01*
X95247993Y-53589418D01*
X95247993Y-53589416D01*
X95247997Y-53589414D01*
X95404102Y-53393665D01*
X95529289Y-53176835D01*
X95620760Y-52943769D01*
X95676474Y-52699673D01*
X95682987Y-52612766D01*
X95695184Y-52450004D01*
X95695184Y-52449995D01*
X95676475Y-52200336D01*
X95676474Y-52200331D01*
X95676474Y-52200327D01*
X95620760Y-51956231D01*
X95529289Y-51723165D01*
X95404102Y-51506335D01*
X95247997Y-51310586D01*
X95247996Y-51310585D01*
X95247993Y-51310581D01*
X95064460Y-51140288D01*
X94857592Y-50999248D01*
X94857588Y-50999246D01*
X94857585Y-50999244D01*
X94857584Y-50999243D01*
X94632015Y-50890616D01*
X94632017Y-50890616D01*
X94392765Y-50816816D01*
X94392759Y-50816814D01*
X94145194Y-50779500D01*
X94145187Y-50779500D01*
X93894813Y-50779500D01*
X93894805Y-50779500D01*
X93647240Y-50816814D01*
X93647234Y-50816816D01*
X93407983Y-50890616D01*
X93182415Y-50999243D01*
X93182414Y-50999244D01*
X92975539Y-51140288D01*
X92792006Y-51310581D01*
X92635898Y-51506335D01*
X92510711Y-51723164D01*
X92419242Y-51956225D01*
X92419236Y-51956244D01*
X92363525Y-52200331D01*
X92363524Y-52200336D01*
X92344816Y-52449995D01*
X92344816Y-52450004D01*
X92363524Y-52699663D01*
X92363525Y-52699668D01*
X92419239Y-52943767D01*
X92462227Y-53053302D01*
X92468395Y-53122899D01*
X92435956Y-53184782D01*
X92434479Y-53186284D01*
X87479584Y-58141181D01*
X87418261Y-58174666D01*
X87391903Y-58177500D01*
X76919487Y-58177500D01*
X76903302Y-58176439D01*
X76872000Y-58172318D01*
X76832639Y-58177500D01*
X76715239Y-58192955D01*
X76715237Y-58192956D01*
X76569160Y-58253463D01*
X76443714Y-58349721D01*
X76424495Y-58374769D01*
X76413800Y-58386964D01*
X74612705Y-60188058D01*
X74551382Y-60221543D01*
X74492931Y-60220152D01*
X74396697Y-60194366D01*
X74396693Y-60194365D01*
X74396692Y-60194365D01*
X74396691Y-60194364D01*
X74396686Y-60194364D01*
X74170002Y-60174532D01*
X74169998Y-60174532D01*
X73943313Y-60194364D01*
X73943302Y-60194366D01*
X73723511Y-60253258D01*
X73723502Y-60253261D01*
X73517267Y-60349431D01*
X73517262Y-60349434D01*
X73504435Y-60358415D01*
X73438227Y-60380738D01*
X73370461Y-60363722D01*
X73334052Y-60331145D01*
X73327546Y-60322454D01*
X73327545Y-60322453D01*
X73327544Y-60322452D01*
X73212335Y-60236206D01*
X73212328Y-60236202D01*
X73077482Y-60185908D01*
X73077483Y-60185908D01*
X73017883Y-60179501D01*
X73017881Y-60179500D01*
X73017873Y-60179500D01*
X73017864Y-60179500D01*
X71322129Y-60179500D01*
X71322123Y-60179501D01*
X71262516Y-60185908D01*
X71127671Y-60236202D01*
X71127664Y-60236206D01*
X71012455Y-60322452D01*
X71012452Y-60322455D01*
X70926206Y-60437664D01*
X70926202Y-60437671D01*
X70875908Y-60572517D01*
X70869501Y-60632116D01*
X70869500Y-60632135D01*
X70869500Y-62327870D01*
X67915503Y-62327870D01*
X67970662Y-62146033D01*
X67985500Y-61995380D01*
X67985500Y-61444620D01*
X67970662Y-61293967D01*
X67912023Y-61100659D01*
X67912021Y-61100656D01*
X67912021Y-61100654D01*
X67816801Y-60922511D01*
X67816799Y-60922509D01*
X67816798Y-60922506D01*
X67777824Y-60875016D01*
X67688647Y-60766352D01*
X67532495Y-60638203D01*
X67532488Y-60638198D01*
X67354345Y-60542978D01*
X67161031Y-60484337D01*
X66960000Y-60464538D01*
X66758968Y-60484337D01*
X66565654Y-60542978D01*
X66383453Y-60640367D01*
X66315050Y-60654609D01*
X66266547Y-60640367D01*
X66084345Y-60542978D01*
X65891031Y-60484337D01*
X65690000Y-60464538D01*
X65488968Y-60484337D01*
X65363041Y-60522537D01*
X65295659Y-60542977D01*
X65295658Y-60542977D01*
X65294575Y-60543306D01*
X65224708Y-60543929D01*
X65195618Y-60529529D01*
X65195114Y-60530454D01*
X65187328Y-60526202D01*
X65103032Y-60494762D01*
X65047098Y-60452891D01*
X65023426Y-60394765D01*
X65019818Y-60367363D01*
X65005044Y-60255138D01*
X64955901Y-60136496D01*
X64944538Y-60109063D01*
X64944535Y-60109058D01*
X64940441Y-60103723D01*
X64872450Y-60015115D01*
X64858761Y-59997275D01*
X64848281Y-59983616D01*
X64823229Y-59964394D01*
X64811034Y-59953699D01*
X62525942Y-57668607D01*
X62492457Y-57607284D01*
X62497441Y-57537592D01*
X62525942Y-57493245D01*
X62690044Y-57329142D01*
X62690045Y-57329141D01*
X62690047Y-57329139D01*
X62695658Y-57321125D01*
X62750229Y-57277498D01*
X62760510Y-57275936D01*
X63452046Y-56584400D01*
X63464835Y-56665148D01*
X63522359Y-56778045D01*
X63611955Y-56867641D01*
X63724852Y-56925165D01*
X63805599Y-56937953D01*
X63124526Y-57619025D01*
X63197513Y-57670132D01*
X63197521Y-57670136D01*
X63403668Y-57766264D01*
X63403682Y-57766269D01*
X63623389Y-57825139D01*
X63623400Y-57825141D01*
X63849998Y-57844966D01*
X63850002Y-57844966D01*
X64076599Y-57825141D01*
X64076610Y-57825139D01*
X64296317Y-57766269D01*
X64296331Y-57766264D01*
X64502478Y-57670136D01*
X64575471Y-57619024D01*
X63894400Y-56937953D01*
X63975148Y-56925165D01*
X64088045Y-56867641D01*
X64177641Y-56778045D01*
X64235165Y-56665148D01*
X64247953Y-56584400D01*
X64929024Y-57265471D01*
X64980136Y-57192478D01*
X65076264Y-56986331D01*
X65076269Y-56986317D01*
X65135139Y-56766610D01*
X65135141Y-56766599D01*
X65154966Y-56540002D01*
X65154966Y-56539997D01*
X65135141Y-56313400D01*
X65135139Y-56313389D01*
X65076269Y-56093682D01*
X65076264Y-56093668D01*
X64980136Y-55887521D01*
X64980132Y-55887513D01*
X64929025Y-55814526D01*
X64247953Y-56495598D01*
X64235165Y-56414852D01*
X64177641Y-56301955D01*
X64088045Y-56212359D01*
X63975148Y-56154835D01*
X63894401Y-56142046D01*
X64575472Y-55460974D01*
X64502478Y-55409863D01*
X64296331Y-55313735D01*
X64296317Y-55313730D01*
X64076610Y-55254860D01*
X64076599Y-55254858D01*
X63850002Y-55235034D01*
X63849998Y-55235034D01*
X63623400Y-55254858D01*
X63623389Y-55254860D01*
X63403682Y-55313730D01*
X63403673Y-55313734D01*
X63197516Y-55409866D01*
X63197512Y-55409868D01*
X63124526Y-55460973D01*
X63124526Y-55460974D01*
X63805599Y-56142046D01*
X63724852Y-56154835D01*
X63611955Y-56212359D01*
X63522359Y-56301955D01*
X63464835Y-56414852D01*
X63452046Y-56495599D01*
X62859492Y-55903045D01*
X62834792Y-55867771D01*
X62820568Y-55837266D01*
X62690047Y-55650861D01*
X62690045Y-55650858D01*
X62529141Y-55489954D01*
X62342734Y-55359432D01*
X62342732Y-55359431D01*
X62136497Y-55263261D01*
X62136488Y-55263258D01*
X61916697Y-55204366D01*
X61916693Y-55204365D01*
X61916692Y-55204365D01*
X61916691Y-55204364D01*
X61916686Y-55204364D01*
X61690002Y-55184532D01*
X61689998Y-55184532D01*
X61463313Y-55204364D01*
X61463302Y-55204366D01*
X61243511Y-55263258D01*
X61243502Y-55263261D01*
X61037267Y-55359431D01*
X61037265Y-55359432D01*
X60850858Y-55489954D01*
X60689954Y-55650858D01*
X60559432Y-55837265D01*
X60559431Y-55837267D01*
X60463261Y-56043502D01*
X60463258Y-56043511D01*
X60404366Y-56263302D01*
X60404364Y-56263313D01*
X60384532Y-56489998D01*
X60384532Y-56490001D01*
X60404364Y-56716686D01*
X60404366Y-56716697D01*
X60463258Y-56936488D01*
X60463261Y-56936497D01*
X60559431Y-57142732D01*
X60559432Y-57142734D01*
X60689954Y-57329141D01*
X60850858Y-57490045D01*
X60949420Y-57559058D01*
X60993045Y-57613634D01*
X61001236Y-57644448D01*
X61014955Y-57748660D01*
X61014956Y-57748662D01*
X61075464Y-57894741D01*
X61120803Y-57953828D01*
X61171719Y-58020183D01*
X61196769Y-58039404D01*
X61208964Y-58050099D01*
X61415604Y-58256739D01*
X61449089Y-58318062D01*
X61444105Y-58387754D01*
X61402233Y-58443687D01*
X61368164Y-58460250D01*
X61368587Y-58461411D01*
X61363507Y-58463259D01*
X61157267Y-58559431D01*
X61157265Y-58559432D01*
X60970858Y-58689954D01*
X60809954Y-58850858D01*
X60679432Y-59037265D01*
X60679431Y-59037267D01*
X60583261Y-59243502D01*
X60583258Y-59243511D01*
X60524366Y-59463302D01*
X60524364Y-59463313D01*
X60504532Y-59689998D01*
X60504532Y-59690001D01*
X60524364Y-59916686D01*
X60524366Y-59916697D01*
X60583258Y-60136488D01*
X60583261Y-60136497D01*
X60679431Y-60342732D01*
X60679432Y-60342734D01*
X60809954Y-60529141D01*
X60824057Y-60543244D01*
X60857542Y-60604567D01*
X60852558Y-60674259D01*
X60824057Y-60718606D01*
X56554526Y-64988137D01*
X56493203Y-65021622D01*
X56477665Y-65023983D01*
X56473318Y-65024363D01*
X56473302Y-65024366D01*
X56253511Y-65083258D01*
X56253502Y-65083261D01*
X56047267Y-65179431D01*
X56047265Y-65179432D01*
X55860858Y-65309954D01*
X55699954Y-65470858D01*
X55569432Y-65657265D01*
X55569431Y-65657267D01*
X55473261Y-65863502D01*
X55473258Y-65863511D01*
X55414366Y-66083302D01*
X55414364Y-66083313D01*
X55394532Y-66309998D01*
X55394532Y-66310001D01*
X53005468Y-66310001D01*
X53005468Y-66310000D01*
X52985635Y-66083308D01*
X52960450Y-65989316D01*
X52959847Y-65987066D01*
X52961510Y-65917217D01*
X52991939Y-65867294D01*
X54421043Y-64438190D01*
X54433223Y-64427509D01*
X54458282Y-64408282D01*
X54554536Y-64282841D01*
X54615044Y-64136762D01*
X54630500Y-64019361D01*
X54635682Y-63980000D01*
X54631561Y-63948697D01*
X54630500Y-63932512D01*
X54630500Y-54132844D01*
X54650185Y-54065805D01*
X54700698Y-54021124D01*
X54750813Y-53996989D01*
X54867592Y-53940752D01*
X55074460Y-53799712D01*
X55257997Y-53629414D01*
X55414102Y-53433665D01*
X55539289Y-53216835D01*
X55630760Y-52983769D01*
X55686474Y-52739673D01*
X55687974Y-52719663D01*
X55705184Y-52490004D01*
X57354816Y-52490004D01*
X57373524Y-52739663D01*
X57373525Y-52739668D01*
X57429236Y-52983755D01*
X57429238Y-52983764D01*
X57429240Y-52983769D01*
X57520711Y-53216835D01*
X57645898Y-53433665D01*
X57684161Y-53481645D01*
X57802006Y-53629418D01*
X57908724Y-53728437D01*
X57985540Y-53799712D01*
X58192408Y-53940752D01*
X58192413Y-53940754D01*
X58192414Y-53940755D01*
X58192415Y-53940756D01*
X58268687Y-53977486D01*
X58417983Y-54049383D01*
X58417984Y-54049383D01*
X58417987Y-54049385D01*
X58657236Y-54123184D01*
X58657237Y-54123184D01*
X58657240Y-54123185D01*
X58904805Y-54160499D01*
X58904810Y-54160499D01*
X58904813Y-54160500D01*
X58904814Y-54160500D01*
X59155186Y-54160500D01*
X59155187Y-54160500D01*
X59155194Y-54160499D01*
X59402759Y-54123185D01*
X59402760Y-54123184D01*
X59402764Y-54123184D01*
X59642013Y-54049385D01*
X59867592Y-53940752D01*
X60074460Y-53799712D01*
X60257997Y-53629414D01*
X60414102Y-53433665D01*
X60539289Y-53216835D01*
X60630760Y-52983769D01*
X60686474Y-52739673D01*
X60687974Y-52719663D01*
X60705184Y-52490004D01*
X62355317Y-52490004D01*
X62374021Y-52739597D01*
X62374021Y-52739599D01*
X62429714Y-52983607D01*
X62429720Y-52983626D01*
X62521163Y-53216618D01*
X62646311Y-53433381D01*
X62646318Y-53433392D01*
X62684799Y-53481645D01*
X62684800Y-53481645D01*
X63427452Y-52738993D01*
X63437188Y-52768956D01*
X63525186Y-52907619D01*
X63644903Y-53020040D01*
X63779510Y-53094041D01*
X63038403Y-53835148D01*
X63192658Y-53940317D01*
X63192666Y-53940322D01*
X63418167Y-54048916D01*
X63418165Y-54048916D01*
X63657346Y-54122694D01*
X63657352Y-54122696D01*
X63904843Y-54159999D01*
X63904852Y-54160000D01*
X64155148Y-54160000D01*
X64155156Y-54159999D01*
X64402647Y-54122696D01*
X64402653Y-54122694D01*
X64641833Y-54048916D01*
X64867334Y-53940322D01*
X64867344Y-53940315D01*
X65021595Y-53835148D01*
X64277534Y-53091086D01*
X64345629Y-53064126D01*
X64478492Y-52967595D01*
X64583175Y-52841055D01*
X64631631Y-52738079D01*
X65375197Y-53481645D01*
X65375198Y-53481644D01*
X65413690Y-53433379D01*
X65538836Y-53216618D01*
X65630279Y-52983626D01*
X65630285Y-52983607D01*
X65685978Y-52739599D01*
X65685978Y-52739597D01*
X65704683Y-52490004D01*
X65704683Y-52489995D01*
X65703185Y-52470004D01*
X72194816Y-52470004D01*
X72213524Y-52719663D01*
X72213525Y-52719668D01*
X72269236Y-52963755D01*
X72269238Y-52963764D01*
X72269240Y-52963769D01*
X72360711Y-53196835D01*
X72485898Y-53413665D01*
X72607318Y-53565920D01*
X72642006Y-53609418D01*
X72770279Y-53728437D01*
X72825540Y-53779712D01*
X73032408Y-53920752D01*
X73032413Y-53920754D01*
X73032414Y-53920755D01*
X73032415Y-53920756D01*
X73104112Y-53955283D01*
X73257983Y-54029383D01*
X73257984Y-54029383D01*
X73257987Y-54029385D01*
X73497236Y-54103184D01*
X73497237Y-54103184D01*
X73497240Y-54103185D01*
X73744805Y-54140499D01*
X73744810Y-54140499D01*
X73744813Y-54140500D01*
X73744814Y-54140500D01*
X73995186Y-54140500D01*
X73995187Y-54140500D01*
X73995194Y-54140499D01*
X74242759Y-54103185D01*
X74242760Y-54103184D01*
X74242764Y-54103184D01*
X74482013Y-54029385D01*
X74612315Y-53966634D01*
X74681254Y-53955283D01*
X74745389Y-53983005D01*
X74784355Y-54041000D01*
X74789335Y-54092240D01*
X74784137Y-54138369D01*
X74757070Y-54202783D01*
X74748598Y-54212165D01*
X74159484Y-54801281D01*
X74098161Y-54834766D01*
X74071803Y-54837600D01*
X74057487Y-54837600D01*
X74041302Y-54836539D01*
X74010000Y-54832418D01*
X74009999Y-54832418D01*
X73853239Y-54853055D01*
X73853237Y-54853056D01*
X73707160Y-54913563D01*
X73581718Y-55009818D01*
X73485463Y-55135260D01*
X73424956Y-55281338D01*
X73420254Y-55317049D01*
X73391986Y-55380945D01*
X73361670Y-55406284D01*
X73361701Y-55406327D01*
X73361198Y-55406678D01*
X73359332Y-55408239D01*
X73357267Y-55409431D01*
X73170858Y-55539954D01*
X73009954Y-55700858D01*
X72879432Y-55887265D01*
X72879431Y-55887267D01*
X72783261Y-56093502D01*
X72783258Y-56093511D01*
X72724366Y-56313302D01*
X72724364Y-56313313D01*
X72704532Y-56539998D01*
X72704532Y-56540001D01*
X72724364Y-56766686D01*
X72724366Y-56766697D01*
X72783258Y-56986488D01*
X72783261Y-56986497D01*
X72879431Y-57192732D01*
X72879432Y-57192734D01*
X73009954Y-57379141D01*
X73170858Y-57540045D01*
X73170861Y-57540047D01*
X73357266Y-57670568D01*
X73563504Y-57766739D01*
X73783308Y-57825635D01*
X73945230Y-57839801D01*
X74009998Y-57845468D01*
X74010000Y-57845468D01*
X74010002Y-57845468D01*
X74066673Y-57840509D01*
X74236692Y-57825635D01*
X74456496Y-57766739D01*
X74662734Y-57670568D01*
X74849139Y-57540047D01*
X75010047Y-57379139D01*
X75140568Y-57192734D01*
X75181674Y-57104580D01*
X75227844Y-57052145D01*
X75295037Y-57032993D01*
X75361918Y-57053208D01*
X75395629Y-57085866D01*
X75509954Y-57249141D01*
X75670858Y-57410045D01*
X75670861Y-57410047D01*
X75857266Y-57540568D01*
X76063504Y-57636739D01*
X76063509Y-57636740D01*
X76063511Y-57636741D01*
X76100825Y-57646739D01*
X76283308Y-57695635D01*
X76445230Y-57709801D01*
X76509998Y-57715468D01*
X76510000Y-57715468D01*
X76510002Y-57715468D01*
X76566673Y-57710509D01*
X76736692Y-57695635D01*
X76956496Y-57636739D01*
X77162734Y-57540568D01*
X77349139Y-57410047D01*
X77510047Y-57249139D01*
X77640568Y-57062734D01*
X77736739Y-56856496D01*
X77795635Y-56636692D01*
X77815468Y-56410000D01*
X77795635Y-56183308D01*
X77739466Y-55973682D01*
X77736741Y-55963511D01*
X77736738Y-55963502D01*
X77715056Y-55917006D01*
X77640568Y-55757266D01*
X77510047Y-55570861D01*
X77510045Y-55570858D01*
X77349141Y-55409954D01*
X77162734Y-55279432D01*
X77162732Y-55279431D01*
X76956497Y-55183261D01*
X76956488Y-55183258D01*
X76736697Y-55124366D01*
X76736693Y-55124365D01*
X76736692Y-55124365D01*
X76736691Y-55124364D01*
X76736686Y-55124364D01*
X76510002Y-55104532D01*
X76509998Y-55104532D01*
X76283313Y-55124364D01*
X76283302Y-55124366D01*
X76063511Y-55183258D01*
X76063502Y-55183261D01*
X75857267Y-55279431D01*
X75857265Y-55279432D01*
X75670858Y-55409954D01*
X75509954Y-55570858D01*
X75379432Y-55757265D01*
X75379431Y-55757267D01*
X75338327Y-55845415D01*
X75292154Y-55897854D01*
X75224960Y-55917006D01*
X75158079Y-55896790D01*
X75124370Y-55864133D01*
X75105731Y-55837513D01*
X75048443Y-55755697D01*
X75026117Y-55689493D01*
X75043127Y-55621726D01*
X75062334Y-55596899D01*
X75597835Y-55061398D01*
X75659156Y-55027915D01*
X75671611Y-55025863D01*
X75758555Y-55016068D01*
X75928822Y-54956489D01*
X76081562Y-54860516D01*
X76209116Y-54732962D01*
X76305089Y-54580222D01*
X76364668Y-54409955D01*
X76384865Y-54230700D01*
X76376955Y-54160500D01*
X76364669Y-54051450D01*
X76364668Y-54051445D01*
X76356949Y-54029385D01*
X76305089Y-53881178D01*
X76209116Y-53728438D01*
X76081562Y-53600884D01*
X76063308Y-53589414D01*
X75928823Y-53504911D01*
X75758554Y-53445331D01*
X75758549Y-53445330D01*
X75579304Y-53425135D01*
X75579295Y-53425135D01*
X75468477Y-53437620D01*
X75399656Y-53425565D01*
X75348277Y-53378215D01*
X75330653Y-53310605D01*
X75347206Y-53252402D01*
X75379289Y-53196835D01*
X75470760Y-52963769D01*
X75526474Y-52719673D01*
X75528514Y-52692457D01*
X75545184Y-52470004D01*
X77194816Y-52470004D01*
X77213524Y-52719663D01*
X77213525Y-52719668D01*
X77269236Y-52963755D01*
X77269238Y-52963764D01*
X77269240Y-52963769D01*
X77360711Y-53196835D01*
X77485898Y-53413665D01*
X77607318Y-53565920D01*
X77642006Y-53609418D01*
X77770279Y-53728437D01*
X77825540Y-53779712D01*
X78032408Y-53920752D01*
X78032413Y-53920754D01*
X78032414Y-53920755D01*
X78032415Y-53920756D01*
X78104112Y-53955283D01*
X78257983Y-54029383D01*
X78257984Y-54029383D01*
X78257987Y-54029385D01*
X78497236Y-54103184D01*
X78497237Y-54103184D01*
X78497240Y-54103185D01*
X78744805Y-54140499D01*
X78744810Y-54140499D01*
X78744813Y-54140500D01*
X78744814Y-54140500D01*
X78995186Y-54140500D01*
X78995187Y-54140500D01*
X78995194Y-54140499D01*
X79242759Y-54103185D01*
X79242760Y-54103184D01*
X79242764Y-54103184D01*
X79482013Y-54029385D01*
X79482014Y-54029384D01*
X79485617Y-54028273D01*
X79555480Y-54027323D01*
X79609848Y-54059083D01*
X80736850Y-55186085D01*
X80770335Y-55247408D01*
X80765351Y-55317100D01*
X80723479Y-55373033D01*
X80720293Y-55375340D01*
X80670863Y-55409951D01*
X80509951Y-55570862D01*
X80379432Y-55757265D01*
X80379431Y-55757267D01*
X80283261Y-55963502D01*
X80283258Y-55963511D01*
X80224366Y-56183302D01*
X80224364Y-56183313D01*
X80204532Y-56409998D01*
X80204532Y-56410001D01*
X80224364Y-56636686D01*
X80224366Y-56636697D01*
X80283258Y-56856488D01*
X80283261Y-56856497D01*
X80379431Y-57062732D01*
X80379432Y-57062734D01*
X80509954Y-57249141D01*
X80670858Y-57410045D01*
X80670861Y-57410047D01*
X80857266Y-57540568D01*
X81063504Y-57636739D01*
X81063509Y-57636740D01*
X81063511Y-57636741D01*
X81100825Y-57646739D01*
X81283308Y-57695635D01*
X81445230Y-57709801D01*
X81509998Y-57715468D01*
X81510000Y-57715468D01*
X81510002Y-57715468D01*
X81566673Y-57710509D01*
X81736692Y-57695635D01*
X81956496Y-57636739D01*
X82162734Y-57540568D01*
X82349139Y-57410047D01*
X82510047Y-57249139D01*
X82635231Y-57070355D01*
X82689804Y-57026734D01*
X82759302Y-57019540D01*
X82821657Y-57051062D01*
X82838377Y-57070358D01*
X82890973Y-57145472D01*
X82890974Y-57145472D01*
X83572046Y-56464400D01*
X83584835Y-56545148D01*
X83642359Y-56658045D01*
X83731955Y-56747641D01*
X83844852Y-56805165D01*
X83925599Y-56817953D01*
X83244526Y-57499025D01*
X83317513Y-57550132D01*
X83317521Y-57550136D01*
X83523668Y-57646264D01*
X83523682Y-57646269D01*
X83743389Y-57705139D01*
X83743400Y-57705141D01*
X83969998Y-57724966D01*
X83970002Y-57724966D01*
X84196599Y-57705141D01*
X84196610Y-57705139D01*
X84416317Y-57646269D01*
X84416331Y-57646264D01*
X84622478Y-57550136D01*
X84695471Y-57499024D01*
X84014400Y-56817953D01*
X84095148Y-56805165D01*
X84208045Y-56747641D01*
X84297641Y-56658045D01*
X84355165Y-56545148D01*
X84367953Y-56464400D01*
X85049024Y-57145471D01*
X85100136Y-57072478D01*
X85196264Y-56866331D01*
X85196269Y-56866317D01*
X85255139Y-56646610D01*
X85255141Y-56646599D01*
X85274966Y-56420002D01*
X85274966Y-56419997D01*
X85255141Y-56193400D01*
X85255139Y-56193389D01*
X85196269Y-55973682D01*
X85196264Y-55973668D01*
X85100136Y-55767521D01*
X85100132Y-55767513D01*
X85049025Y-55694526D01*
X84367953Y-56375598D01*
X84355165Y-56294852D01*
X84297641Y-56181955D01*
X84208045Y-56092359D01*
X84095148Y-56034835D01*
X84014401Y-56022046D01*
X84695472Y-55340974D01*
X84622478Y-55289863D01*
X84416331Y-55193735D01*
X84416317Y-55193730D01*
X84196610Y-55134860D01*
X84196599Y-55134858D01*
X83970002Y-55115034D01*
X83969998Y-55115034D01*
X83743400Y-55134858D01*
X83743389Y-55134860D01*
X83523682Y-55193730D01*
X83523673Y-55193734D01*
X83317516Y-55289866D01*
X83317512Y-55289868D01*
X83244526Y-55340973D01*
X83244526Y-55340974D01*
X83925599Y-56022046D01*
X83844852Y-56034835D01*
X83731955Y-56092359D01*
X83642359Y-56181955D01*
X83584835Y-56294852D01*
X83572046Y-56375598D01*
X82890974Y-55694526D01*
X82890973Y-55694526D01*
X82845380Y-55759641D01*
X82790803Y-55803265D01*
X82721304Y-55810458D01*
X82658950Y-55778936D01*
X82642230Y-55759640D01*
X82602753Y-55703261D01*
X82510047Y-55570861D01*
X82510045Y-55570858D01*
X82349140Y-55409953D01*
X82163377Y-55279881D01*
X82119752Y-55225304D01*
X82110500Y-55178306D01*
X82110500Y-55157487D01*
X82111561Y-55141301D01*
X82112356Y-55135260D01*
X82115682Y-55110000D01*
X82095044Y-54953238D01*
X82034536Y-54807159D01*
X82006010Y-54769983D01*
X81938282Y-54681718D01*
X81938280Y-54681716D01*
X81938279Y-54681715D01*
X81913228Y-54662493D01*
X81901034Y-54651799D01*
X80455518Y-53206283D01*
X80422033Y-53144960D01*
X80427017Y-53075268D01*
X80427701Y-53073480D01*
X80470760Y-52963769D01*
X80526474Y-52719673D01*
X80528514Y-52692457D01*
X80545184Y-52470004D01*
X82195317Y-52470004D01*
X82214021Y-52719597D01*
X82214021Y-52719599D01*
X82269714Y-52963607D01*
X82269720Y-52963626D01*
X82361163Y-53196618D01*
X82486311Y-53413381D01*
X82486318Y-53413392D01*
X82524799Y-53461645D01*
X82524800Y-53461645D01*
X83267452Y-52718993D01*
X83277188Y-52748956D01*
X83365186Y-52887619D01*
X83484903Y-53000040D01*
X83619510Y-53074041D01*
X82878403Y-53815148D01*
X83032658Y-53920317D01*
X83032666Y-53920322D01*
X83258167Y-54028916D01*
X83258165Y-54028916D01*
X83497346Y-54102694D01*
X83497352Y-54102696D01*
X83744843Y-54139999D01*
X83744852Y-54140000D01*
X83995148Y-54140000D01*
X83995156Y-54139999D01*
X84242647Y-54102696D01*
X84242653Y-54102694D01*
X84481833Y-54028916D01*
X84707334Y-53920322D01*
X84707344Y-53920315D01*
X84861595Y-53815148D01*
X84117534Y-53071086D01*
X84185629Y-53044126D01*
X84318492Y-52947595D01*
X84423175Y-52821055D01*
X84471631Y-52718079D01*
X85215197Y-53461645D01*
X85215198Y-53461644D01*
X85253690Y-53413379D01*
X85378836Y-53196618D01*
X85470279Y-52963626D01*
X85470285Y-52963607D01*
X85525978Y-52719599D01*
X85525978Y-52719597D01*
X85544683Y-52470004D01*
X85544683Y-52469995D01*
X85525978Y-52220402D01*
X85525978Y-52220400D01*
X85470285Y-51976392D01*
X85470279Y-51976373D01*
X85378836Y-51743381D01*
X85253688Y-51526618D01*
X85253681Y-51526607D01*
X85215199Y-51478354D01*
X85215198Y-51478353D01*
X84472546Y-52221004D01*
X84462812Y-52191044D01*
X84374814Y-52052381D01*
X84255097Y-51939960D01*
X84120488Y-51865957D01*
X84861595Y-51124850D01*
X84707335Y-51019678D01*
X84707334Y-51019677D01*
X84481832Y-50911083D01*
X84481834Y-50911083D01*
X84242653Y-50837305D01*
X84242647Y-50837303D01*
X83995156Y-50800000D01*
X83744843Y-50800000D01*
X83497352Y-50837303D01*
X83497346Y-50837305D01*
X83258166Y-50911083D01*
X83032664Y-51019679D01*
X83032651Y-51019686D01*
X82878403Y-51124849D01*
X83622466Y-51868912D01*
X83554371Y-51895874D01*
X83421508Y-51992405D01*
X83316825Y-52118945D01*
X83268367Y-52221921D01*
X82524800Y-51478354D01*
X82486311Y-51526617D01*
X82361163Y-51743381D01*
X82269720Y-51976373D01*
X82269714Y-51976392D01*
X82214021Y-52220400D01*
X82214021Y-52220402D01*
X82195317Y-52469995D01*
X82195317Y-52470004D01*
X80545184Y-52470004D01*
X80545184Y-52469995D01*
X80526475Y-52220336D01*
X80526474Y-52220331D01*
X80526474Y-52220327D01*
X80470760Y-51976231D01*
X80379289Y-51743165D01*
X80254102Y-51526335D01*
X80097997Y-51330586D01*
X80097996Y-51330585D01*
X80097993Y-51330581D01*
X79914460Y-51160288D01*
X79707592Y-51019248D01*
X79707588Y-51019246D01*
X79707585Y-51019244D01*
X79707584Y-51019243D01*
X79482015Y-50910616D01*
X79482017Y-50910616D01*
X79242765Y-50836816D01*
X79242759Y-50836814D01*
X78995194Y-50799500D01*
X78995187Y-50799500D01*
X78744813Y-50799500D01*
X78744805Y-50799500D01*
X78497240Y-50836814D01*
X78497234Y-50836816D01*
X78257983Y-50910616D01*
X78032415Y-51019243D01*
X78032414Y-51019244D01*
X77825539Y-51160288D01*
X77642006Y-51330581D01*
X77485898Y-51526335D01*
X77360711Y-51743164D01*
X77269242Y-51976225D01*
X77269236Y-51976244D01*
X77213525Y-52220331D01*
X77213524Y-52220336D01*
X77194816Y-52469995D01*
X77194816Y-52470004D01*
X75545184Y-52470004D01*
X75545184Y-52469995D01*
X75526475Y-52220336D01*
X75526474Y-52220331D01*
X75526474Y-52220327D01*
X75470760Y-51976231D01*
X75379289Y-51743165D01*
X75254102Y-51526335D01*
X75097997Y-51330586D01*
X75097996Y-51330585D01*
X75097993Y-51330581D01*
X74914460Y-51160288D01*
X74707592Y-51019248D01*
X74707588Y-51019246D01*
X74707585Y-51019244D01*
X74707584Y-51019243D01*
X74482015Y-50910616D01*
X74482017Y-50910616D01*
X74242765Y-50836816D01*
X74242759Y-50836814D01*
X73995194Y-50799500D01*
X73995187Y-50799500D01*
X73744813Y-50799500D01*
X73744805Y-50799500D01*
X73497240Y-50836814D01*
X73497234Y-50836816D01*
X73257983Y-50910616D01*
X73032415Y-51019243D01*
X73032414Y-51019244D01*
X72825539Y-51160288D01*
X72642006Y-51330581D01*
X72485898Y-51526335D01*
X72360711Y-51743164D01*
X72269242Y-51976225D01*
X72269236Y-51976244D01*
X72213525Y-52220331D01*
X72213524Y-52220336D01*
X72194816Y-52469995D01*
X72194816Y-52470004D01*
X65703185Y-52470004D01*
X65685978Y-52240402D01*
X65685978Y-52240400D01*
X65630285Y-51996392D01*
X65630279Y-51996373D01*
X65538836Y-51763381D01*
X65413688Y-51546618D01*
X65413681Y-51546607D01*
X65375199Y-51498354D01*
X65375198Y-51498353D01*
X64632546Y-52241004D01*
X64622812Y-52211044D01*
X64534814Y-52072381D01*
X64415097Y-51959960D01*
X64280488Y-51885957D01*
X65021595Y-51144850D01*
X64867335Y-51039678D01*
X64867334Y-51039677D01*
X64641832Y-50931083D01*
X64641834Y-50931083D01*
X64402653Y-50857305D01*
X64402647Y-50857303D01*
X64155156Y-50820000D01*
X63904843Y-50820000D01*
X63657352Y-50857303D01*
X63657346Y-50857305D01*
X63418166Y-50931083D01*
X63192664Y-51039679D01*
X63192651Y-51039686D01*
X63038403Y-51144849D01*
X63782466Y-51888912D01*
X63714371Y-51915874D01*
X63581508Y-52012405D01*
X63476825Y-52138945D01*
X63428367Y-52241921D01*
X62684800Y-51498354D01*
X62646311Y-51546617D01*
X62521163Y-51763381D01*
X62429720Y-51996373D01*
X62429714Y-51996392D01*
X62374021Y-52240400D01*
X62374021Y-52240402D01*
X62355317Y-52489995D01*
X62355317Y-52490004D01*
X60705184Y-52490004D01*
X60705184Y-52489995D01*
X60686475Y-52240336D01*
X60686474Y-52240331D01*
X60686474Y-52240327D01*
X60630760Y-51996231D01*
X60539289Y-51763165D01*
X60414102Y-51546335D01*
X60257997Y-51350586D01*
X60257996Y-51350585D01*
X60257993Y-51350581D01*
X60074460Y-51180288D01*
X60022480Y-51144849D01*
X59867592Y-51039248D01*
X59867588Y-51039246D01*
X59867585Y-51039244D01*
X59867584Y-51039243D01*
X59642015Y-50930616D01*
X59642017Y-50930616D01*
X59402765Y-50856816D01*
X59402759Y-50856814D01*
X59155194Y-50819500D01*
X59155187Y-50819500D01*
X58904813Y-50819500D01*
X58904805Y-50819500D01*
X58657240Y-50856814D01*
X58657234Y-50856816D01*
X58417983Y-50930616D01*
X58192415Y-51039243D01*
X58192414Y-51039244D01*
X57985539Y-51180288D01*
X57802006Y-51350581D01*
X57645898Y-51546335D01*
X57520711Y-51763164D01*
X57429242Y-51996225D01*
X57429236Y-51996244D01*
X57373525Y-52240331D01*
X57373524Y-52240336D01*
X57354816Y-52489995D01*
X57354816Y-52490004D01*
X55705184Y-52490004D01*
X55705184Y-52489995D01*
X55686475Y-52240336D01*
X55686474Y-52240331D01*
X55686474Y-52240327D01*
X55630760Y-51996231D01*
X55539289Y-51763165D01*
X55414102Y-51546335D01*
X55257997Y-51350586D01*
X55257996Y-51350585D01*
X55257993Y-51350581D01*
X55074460Y-51180288D01*
X55022480Y-51144849D01*
X54867592Y-51039248D01*
X54867588Y-51039246D01*
X54867585Y-51039244D01*
X54867584Y-51039243D01*
X54642015Y-50930616D01*
X54642017Y-50930616D01*
X54402765Y-50856816D01*
X54402759Y-50856814D01*
X54155194Y-50819500D01*
X54155187Y-50819500D01*
X53904813Y-50819500D01*
X53904805Y-50819500D01*
X53657240Y-50856814D01*
X53657234Y-50856816D01*
X53417983Y-50930616D01*
X53192415Y-51039243D01*
X53192414Y-51039244D01*
X52985539Y-51180288D01*
X52802006Y-51350581D01*
X52645898Y-51546335D01*
X52520711Y-51763164D01*
X52429242Y-51996225D01*
X52429236Y-51996244D01*
X52373525Y-52240331D01*
X52373524Y-52240336D01*
X52354816Y-52489995D01*
X52354816Y-52490004D01*
X52373524Y-52739663D01*
X52373525Y-52739668D01*
X52429236Y-52983755D01*
X52429238Y-52983764D01*
X52429240Y-52983769D01*
X52520711Y-53216835D01*
X52645898Y-53433665D01*
X52684161Y-53481645D01*
X52802006Y-53629418D01*
X52908724Y-53728437D01*
X52985540Y-53799712D01*
X53192408Y-53940752D01*
X53192411Y-53940753D01*
X53192412Y-53940754D01*
X53359302Y-54021124D01*
X53411161Y-54067946D01*
X53429500Y-54132844D01*
X53429500Y-63679902D01*
X53409815Y-63746941D01*
X53393181Y-63767583D01*
X52142705Y-65018058D01*
X52081382Y-65051543D01*
X52022931Y-65050152D01*
X51926697Y-65024366D01*
X51926693Y-65024365D01*
X51926692Y-65024365D01*
X51926691Y-65024364D01*
X51926686Y-65024364D01*
X51700002Y-65004532D01*
X51699998Y-65004532D01*
X51473313Y-65024364D01*
X51473302Y-65024366D01*
X51253511Y-65083258D01*
X51253502Y-65083261D01*
X51047267Y-65179431D01*
X51047265Y-65179432D01*
X50860862Y-65309951D01*
X50718292Y-65452521D01*
X50656969Y-65486005D01*
X50587277Y-65481021D01*
X50531344Y-65439149D01*
X50506927Y-65373685D01*
X50506611Y-65364888D01*
X50506601Y-65340638D01*
X50506042Y-63934639D01*
X50525700Y-63867593D01*
X50578486Y-63821817D01*
X50647640Y-63811846D01*
X50711207Y-63840846D01*
X50717723Y-63846910D01*
X50760858Y-63890045D01*
X50760861Y-63890047D01*
X50947266Y-64020568D01*
X51153504Y-64116739D01*
X51373308Y-64175635D01*
X51535230Y-64189801D01*
X51599998Y-64195468D01*
X51600000Y-64195468D01*
X51600002Y-64195468D01*
X51656673Y-64190509D01*
X51826692Y-64175635D01*
X52046496Y-64116739D01*
X52252734Y-64020568D01*
X52439139Y-63890047D01*
X52600047Y-63729139D01*
X52730568Y-63542734D01*
X52826739Y-63336496D01*
X52885635Y-63116692D01*
X52904882Y-62896694D01*
X52905468Y-62890001D01*
X52905468Y-62889998D01*
X52890927Y-62723795D01*
X52885635Y-62663308D01*
X52826739Y-62443504D01*
X52730568Y-62237266D01*
X52600047Y-62050861D01*
X52600045Y-62050858D01*
X52439141Y-61889954D01*
X52252734Y-61759432D01*
X52252732Y-61759431D01*
X52046497Y-61663261D01*
X52046488Y-61663258D01*
X51826697Y-61604366D01*
X51826693Y-61604365D01*
X51826692Y-61604365D01*
X51826691Y-61604364D01*
X51826686Y-61604364D01*
X51600002Y-61584532D01*
X51599998Y-61584532D01*
X51373313Y-61604364D01*
X51373302Y-61604366D01*
X51153511Y-61663258D01*
X51153502Y-61663261D01*
X50947267Y-61759431D01*
X50947265Y-61759432D01*
X50760858Y-61889954D01*
X50716891Y-61933921D01*
X50655568Y-61967405D01*
X50585876Y-61962420D01*
X50529943Y-61920548D01*
X50505527Y-61855084D01*
X50505211Y-61846312D01*
X50504749Y-60683346D01*
X50524407Y-60616300D01*
X50577193Y-60570524D01*
X50646347Y-60560553D01*
X50709914Y-60589553D01*
X50716430Y-60595617D01*
X50810858Y-60690045D01*
X50810861Y-60690047D01*
X50997266Y-60820568D01*
X51203504Y-60916739D01*
X51203509Y-60916740D01*
X51203511Y-60916741D01*
X51256415Y-60930916D01*
X51423308Y-60975635D01*
X51585230Y-60989801D01*
X51649998Y-60995468D01*
X51650000Y-60995468D01*
X51650002Y-60995468D01*
X51712499Y-60990000D01*
X51876692Y-60975635D01*
X52096496Y-60916739D01*
X52302734Y-60820568D01*
X52489139Y-60690047D01*
X52650047Y-60529139D01*
X52780568Y-60342734D01*
X52876739Y-60136496D01*
X52935635Y-59916692D01*
X52955468Y-59690000D01*
X52935635Y-59463308D01*
X52876739Y-59243504D01*
X52780568Y-59037266D01*
X52650047Y-58850861D01*
X52650045Y-58850858D01*
X52489141Y-58689954D01*
X52302734Y-58559432D01*
X52302732Y-58559431D01*
X52096497Y-58463261D01*
X52096488Y-58463258D01*
X51876697Y-58404366D01*
X51876693Y-58404365D01*
X51876692Y-58404365D01*
X51876691Y-58404364D01*
X51876686Y-58404364D01*
X51650002Y-58384532D01*
X51649998Y-58384532D01*
X51423313Y-58404364D01*
X51423302Y-58404366D01*
X51203511Y-58463258D01*
X51203502Y-58463261D01*
X50997267Y-58559431D01*
X50997265Y-58559432D01*
X50810862Y-58689951D01*
X50715639Y-58785174D01*
X50654315Y-58818658D01*
X50584624Y-58813674D01*
X50528691Y-58771802D01*
X50504274Y-58706337D01*
X50503958Y-58697564D01*
X50503520Y-57596504D01*
X50523178Y-57529461D01*
X50575964Y-57483685D01*
X50645118Y-57473714D01*
X50698644Y-57494884D01*
X50877517Y-57620134D01*
X51083673Y-57716265D01*
X51083682Y-57716269D01*
X51303389Y-57775139D01*
X51303400Y-57775141D01*
X51529998Y-57794966D01*
X51530002Y-57794966D01*
X51756599Y-57775141D01*
X51756610Y-57775139D01*
X51976317Y-57716269D01*
X51976331Y-57716264D01*
X52182478Y-57620136D01*
X52255471Y-57569024D01*
X51574400Y-56887953D01*
X51655148Y-56875165D01*
X51768045Y-56817641D01*
X51857641Y-56728045D01*
X51915165Y-56615148D01*
X51927953Y-56534400D01*
X52609024Y-57215471D01*
X52660136Y-57142478D01*
X52756264Y-56936331D01*
X52756269Y-56936317D01*
X52815139Y-56716610D01*
X52815141Y-56716599D01*
X52834966Y-56490002D01*
X52834966Y-56489997D01*
X52815141Y-56263400D01*
X52815139Y-56263389D01*
X52756269Y-56043682D01*
X52756264Y-56043668D01*
X52660136Y-55837521D01*
X52660132Y-55837513D01*
X52609025Y-55764526D01*
X51927953Y-56445598D01*
X51915165Y-56364852D01*
X51857641Y-56251955D01*
X51768045Y-56162359D01*
X51655148Y-56104835D01*
X51574400Y-56092046D01*
X52255472Y-55410974D01*
X52182478Y-55359863D01*
X51976331Y-55263735D01*
X51976317Y-55263730D01*
X51756610Y-55204860D01*
X51756599Y-55204858D01*
X51530002Y-55185034D01*
X51529998Y-55185034D01*
X51303400Y-55204858D01*
X51303389Y-55204860D01*
X51083682Y-55263730D01*
X51083673Y-55263734D01*
X50877517Y-55359865D01*
X50697765Y-55485731D01*
X50631559Y-55508058D01*
X50563791Y-55491048D01*
X50515978Y-55440100D01*
X50502641Y-55384205D01*
X50502640Y-55380945D01*
X50500748Y-50624547D01*
X50520406Y-50557502D01*
X50573192Y-50511726D01*
X50624748Y-50500500D01*
X107375748Y-50500500D01*
X107442787Y-50520185D01*
G37*
%TD.AperFunction*%
%TD*%
M02*
