%TF.GenerationSoftware,KiCad,Pcbnew,7.0.11+dfsg-1build4*%
%TF.CreationDate,2026-08-08T17:18:07-04:00*%
%TF.ProjectId,drboogie,6472626f-6f67-4696-952e-6b696361645f,rev?*%
%TF.SameCoordinates,Original*%
%TF.FileFunction,Soldermask,Top*%
%TF.FilePolarity,Negative*%
%FSLAX46Y46*%
G04 Gerber Fmt 4.6, Leading zero omitted, Abs format (unit mm)*
G04 Created by KiCad (PCBNEW 7.0.11+dfsg-1build4) date 2026-08-08 17:18:07*
%MOMM*%
%LPD*%
G01*
G04 APERTURE LIST*
G04 Aperture macros list*
%AMRoundRect*
0 Rectangle with rounded corners*
0 $1 Rounding radius*
0 $2 $3 $4 $5 $6 $7 $8 $9 X,Y pos of 4 corners*
0 Add a 4 corners polygon primitive as box body*
4,1,4,$2,$3,$4,$5,$6,$7,$8,$9,$2,$3,0*
0 Add four circle primitives for the rounded corners*
1,1,$1+$1,$2,$3*
1,1,$1+$1,$4,$5*
1,1,$1+$1,$6,$7*
1,1,$1+$1,$8,$9*
0 Add four rect primitives between the rounded corners*
20,1,$1+$1,$2,$3,$4,$5,0*
20,1,$1+$1,$4,$5,$6,$7,0*
20,1,$1+$1,$6,$7,$8,$9,0*
20,1,$1+$1,$8,$9,$2,$3,0*%
G04 Aperture macros list end*
%ADD10R,1.500000X1.050000*%
%ADD11RoundRect,0.150000X0.512500X0.150000X-0.512500X0.150000X-0.512500X-0.150000X0.512500X-0.150000X0*%
%ADD12O,1.500000X1.050000*%
%ADD13C,1.600000*%
%ADD14O,1.600000X1.600000*%
%ADD15R,1.560000X1.560000*%
%ADD16C,1.560000*%
%ADD17R,1.600000X1.600000*%
%ADD18R,1.050000X1.500000*%
%ADD19RoundRect,0.150000X0.150000X-0.512500X0.150000X0.512500X-0.150000X0.512500X-0.150000X-0.512500X0*%
%ADD20O,1.050000X1.500000*%
%ADD21R,1.700000X1.700000*%
%ADD22O,1.700000X1.700000*%
%ADD23R,1.800000X1.800000*%
%ADD24C,1.800000*%
%ADD25RoundRect,0.500000X-1.000000X0.500000X-1.000000X-0.500000X1.000000X-0.500000X1.000000X0.500000X0*%
G04 APERTURE END LIST*
D10*
%TO.C,Q1*%
X105812500Y-92075000D03*
D11*
X103612500Y-91775000D03*
D12*
X105812500Y-90805000D03*
D11*
X103612500Y-89875000D03*
X101337500Y-90825000D03*
D12*
X105812500Y-89535000D03*
%TD*%
D13*
%TO.C,R18*%
X87700000Y-61680000D03*
D14*
X87700000Y-51520000D03*
%TD*%
D13*
%TO.C,R14*%
X70245000Y-102075000D03*
D14*
X80405000Y-102075000D03*
%TD*%
D13*
%TO.C,C7*%
X100900000Y-86600000D03*
X100900000Y-81600000D03*
%TD*%
D15*
%TO.C,RV4*%
X64100000Y-90685000D03*
D16*
X66600000Y-95685000D03*
X69100000Y-90685000D03*
%TD*%
D13*
%TO.C,R4*%
X99155000Y-104700000D03*
D14*
X88995000Y-104700000D03*
%TD*%
D17*
%TO.C,C2*%
X59225000Y-98975000D03*
D13*
X61725000Y-98975000D03*
%TD*%
%TO.C,R10*%
X52095000Y-76925000D03*
D14*
X62255000Y-76925000D03*
%TD*%
D13*
%TO.C,R8*%
X65620000Y-61420000D03*
D14*
X65620000Y-51260000D03*
%TD*%
D13*
%TO.C,C4*%
X59675000Y-87050000D03*
X64675000Y-87050000D03*
%TD*%
%TO.C,R20*%
X73675000Y-63025000D03*
D14*
X83835000Y-63025000D03*
%TD*%
D13*
%TO.C,C13*%
X68875000Y-81750000D03*
X73875000Y-81750000D03*
%TD*%
%TO.C,R2*%
X51370000Y-94025000D03*
D14*
X61530000Y-94025000D03*
%TD*%
D13*
%TO.C,R16*%
X83300000Y-104055000D03*
D14*
X83300000Y-93895000D03*
%TD*%
D13*
%TO.C,C14*%
X56575000Y-86825000D03*
X51575000Y-86825000D03*
%TD*%
%TO.C,C20*%
X92050000Y-56300000D03*
X92050000Y-51300000D03*
%TD*%
%TO.C,R3*%
X88980000Y-98450000D03*
D14*
X99140000Y-98450000D03*
%TD*%
D17*
%TO.C,C1*%
X52350000Y-99025000D03*
D13*
X54850000Y-99025000D03*
%TD*%
%TO.C,R19*%
X95920000Y-62725000D03*
D14*
X106080000Y-62725000D03*
%TD*%
D13*
%TO.C,C6*%
X101625000Y-103450000D03*
X106625000Y-103450000D03*
%TD*%
D15*
%TO.C,RV5*%
X81300000Y-81260000D03*
D16*
X83800000Y-86260000D03*
X86300000Y-81260000D03*
%TD*%
D18*
%TO.C,Q4*%
X77550000Y-94162500D03*
D19*
X77850000Y-91962500D03*
D20*
X78820000Y-94162500D03*
D19*
X79750000Y-91962500D03*
X78800000Y-89687500D03*
D20*
X80090000Y-94162500D03*
%TD*%
D13*
%TO.C,C21*%
X92050000Y-71450000D03*
X92050000Y-66450000D03*
%TD*%
%TO.C,C16*%
X87825000Y-64400000D03*
X87825000Y-69400000D03*
%TD*%
%TO.C,R13*%
X70245000Y-98900000D03*
D14*
X80405000Y-98900000D03*
%TD*%
D13*
%TO.C,R12*%
X68345000Y-85775000D03*
D14*
X78505000Y-85775000D03*
%TD*%
D10*
%TO.C,Q2*%
X65037500Y-83200000D03*
D11*
X62837500Y-82900000D03*
D12*
X65037500Y-81930000D03*
D11*
X62837500Y-81000000D03*
X60562500Y-81950000D03*
D12*
X65037500Y-80660000D03*
%TD*%
D13*
%TO.C,C18*%
X90300000Y-86825000D03*
X90300000Y-81825000D03*
%TD*%
%TO.C,C12*%
X51350000Y-82950000D03*
X56350000Y-82950000D03*
%TD*%
%TO.C,R17*%
X86425000Y-104060000D03*
D14*
X86425000Y-93900000D03*
%TD*%
D13*
%TO.C,C9*%
X70475000Y-67550000D03*
X65475000Y-67550000D03*
%TD*%
%TO.C,R6*%
X96065000Y-77175000D03*
D14*
X106225000Y-77175000D03*
%TD*%
%TO.C,R15*%
X80405000Y-105175000D03*
D13*
X70245000Y-105175000D03*
%TD*%
%TO.C,C11*%
X51350000Y-80375000D03*
X56350000Y-80375000D03*
%TD*%
%TO.C,R7*%
X99135000Y-95400000D03*
D14*
X88975000Y-95400000D03*
%TD*%
D13*
%TO.C,R1*%
X51370000Y-90925000D03*
D14*
X61530000Y-90925000D03*
%TD*%
D10*
%TO.C,Q5*%
X96925000Y-92150000D03*
D11*
X94725000Y-91850000D03*
D12*
X96925000Y-90880000D03*
D11*
X94725000Y-89950000D03*
X92450000Y-90900000D03*
D12*
X96925000Y-89610000D03*
%TD*%
D13*
%TO.C,C17*%
X88800000Y-89475000D03*
X83800000Y-89475000D03*
%TD*%
%TO.C,C22*%
X92050000Y-79025000D03*
X92050000Y-74025000D03*
%TD*%
%TO.C,R11*%
X73945000Y-77425000D03*
D14*
X84105000Y-77425000D03*
%TD*%
D13*
%TO.C,C10*%
X69660000Y-64230000D03*
X69660000Y-59230000D03*
%TD*%
%TO.C,R5*%
X99175000Y-101600000D03*
D14*
X89015000Y-101600000D03*
%TD*%
D17*
%TO.C,C3*%
X64492600Y-103300000D03*
D13*
X66992600Y-103300000D03*
%TD*%
%TO.C,C23*%
X92050000Y-63875000D03*
X92050000Y-58875000D03*
%TD*%
D21*
%TO.C,J1*%
X52400000Y-104625000D03*
D22*
X54940000Y-104625000D03*
X57480000Y-104625000D03*
X60020000Y-104625000D03*
%TD*%
D13*
%TO.C,C19*%
X69750000Y-56440000D03*
X69750000Y-51440000D03*
%TD*%
%TO.C,C15*%
X95825000Y-86600000D03*
X95825000Y-81600000D03*
%TD*%
%TO.C,C5*%
X87775000Y-77275000D03*
X87775000Y-72275000D03*
%TD*%
D15*
%TO.C,RV1*%
X101775000Y-95285000D03*
D16*
X104275000Y-100285000D03*
X106775000Y-95285000D03*
%TD*%
D13*
%TO.C,C8*%
X105650000Y-86650000D03*
X105650000Y-81650000D03*
%TD*%
D18*
%TO.C,Q3*%
X71750000Y-94237500D03*
D19*
X72050000Y-92037500D03*
D20*
X73020000Y-94237500D03*
D19*
X73950000Y-92037500D03*
X73000000Y-89762500D03*
D20*
X74290000Y-94237500D03*
%TD*%
D13*
%TO.C,R9*%
X62125000Y-62500000D03*
D14*
X51965000Y-62500000D03*
%TD*%
D15*
%TO.C,RV3*%
X65350000Y-71950000D03*
D16*
X67850000Y-76950000D03*
X70350000Y-71950000D03*
%TD*%
D23*
%TO.C,RV9*%
X54540000Y-65820000D03*
D24*
X57040000Y-65820000D03*
X59540000Y-65820000D03*
D25*
X61790000Y-73320000D03*
X52290000Y-73320000D03*
%TD*%
D23*
%TO.C,RV6*%
X98670000Y-51320000D03*
D24*
X101170000Y-51320000D03*
X103670000Y-51320000D03*
D25*
X105920000Y-58820000D03*
X96420000Y-58820000D03*
%TD*%
D23*
%TO.C,RV2*%
X54510000Y-51220000D03*
D24*
X57010000Y-51220000D03*
X59510000Y-51220000D03*
D25*
X61760000Y-58720000D03*
X52260000Y-58720000D03*
%TD*%
D23*
%TO.C,RV7*%
X76340000Y-51255000D03*
D24*
X78840000Y-51255000D03*
X81340000Y-51255000D03*
D25*
X83590000Y-58755000D03*
X74090000Y-58755000D03*
%TD*%
D23*
%TO.C,RV10*%
X76290000Y-65755000D03*
D24*
X78790000Y-65755000D03*
X81290000Y-65755000D03*
D25*
X83540000Y-73255000D03*
X74040000Y-73255000D03*
%TD*%
D23*
%TO.C,RV8*%
X98600000Y-65775000D03*
D24*
X101100000Y-65775000D03*
X103600000Y-65775000D03*
D25*
X105850000Y-73275000D03*
X96350000Y-73275000D03*
%TD*%
M02*
