%TF.GenerationSoftware,KiCad,Pcbnew,7.0.11+dfsg-1build4*%
%TF.CreationDate,2026-08-08T17:18:07-04:00*%
%TF.ProjectId,drboogie,6472626f-6f67-4696-952e-6b696361645f,rev?*%
%TF.SameCoordinates,Original*%
%TF.FileFunction,Legend,Bot*%
%TF.FilePolarity,Positive*%
%FSLAX46Y46*%
G04 Gerber Fmt 4.6, Leading zero omitted, Abs format (unit mm)*
G04 Created by KiCad (PCBNEW 7.0.11+dfsg-1build4) date 2026-08-08 17:18:07*
%MOMM*%
%LPD*%
G01*
G04 APERTURE LIST*
%ADD10C,0.100000*%
%ADD11C,0.150000*%
%ADD12C,0.120000*%
G04 APERTURE END LIST*
D10*
X76221428Y-102082419D02*
X76221428Y-101082419D01*
X76221428Y-101082419D02*
X75983333Y-101082419D01*
X75983333Y-101082419D02*
X75840476Y-101130038D01*
X75840476Y-101130038D02*
X75745238Y-101225276D01*
X75745238Y-101225276D02*
X75697619Y-101320514D01*
X75697619Y-101320514D02*
X75650000Y-101510990D01*
X75650000Y-101510990D02*
X75650000Y-101653847D01*
X75650000Y-101653847D02*
X75697619Y-101844323D01*
X75697619Y-101844323D02*
X75745238Y-101939561D01*
X75745238Y-101939561D02*
X75840476Y-102034800D01*
X75840476Y-102034800D02*
X75983333Y-102082419D01*
X75983333Y-102082419D02*
X76221428Y-102082419D01*
X75221428Y-102082419D02*
X75221428Y-101415752D01*
X75221428Y-101606228D02*
X75173809Y-101510990D01*
X75173809Y-101510990D02*
X75126190Y-101463371D01*
X75126190Y-101463371D02*
X75030952Y-101415752D01*
X75030952Y-101415752D02*
X74935714Y-101415752D01*
X77602380Y-103168609D02*
X77459523Y-103216228D01*
X77459523Y-103216228D02*
X77411904Y-103263847D01*
X77411904Y-103263847D02*
X77364285Y-103359085D01*
X77364285Y-103359085D02*
X77364285Y-103501942D01*
X77364285Y-103501942D02*
X77411904Y-103597180D01*
X77411904Y-103597180D02*
X77459523Y-103644800D01*
X77459523Y-103644800D02*
X77554761Y-103692419D01*
X77554761Y-103692419D02*
X77935713Y-103692419D01*
X77935713Y-103692419D02*
X77935713Y-102692419D01*
X77935713Y-102692419D02*
X77602380Y-102692419D01*
X77602380Y-102692419D02*
X77507142Y-102740038D01*
X77507142Y-102740038D02*
X77459523Y-102787657D01*
X77459523Y-102787657D02*
X77411904Y-102882895D01*
X77411904Y-102882895D02*
X77411904Y-102978133D01*
X77411904Y-102978133D02*
X77459523Y-103073371D01*
X77459523Y-103073371D02*
X77507142Y-103120990D01*
X77507142Y-103120990D02*
X77602380Y-103168609D01*
X77602380Y-103168609D02*
X77935713Y-103168609D01*
X76792856Y-103692419D02*
X76888094Y-103644800D01*
X76888094Y-103644800D02*
X76935713Y-103597180D01*
X76935713Y-103597180D02*
X76983332Y-103501942D01*
X76983332Y-103501942D02*
X76983332Y-103216228D01*
X76983332Y-103216228D02*
X76935713Y-103120990D01*
X76935713Y-103120990D02*
X76888094Y-103073371D01*
X76888094Y-103073371D02*
X76792856Y-103025752D01*
X76792856Y-103025752D02*
X76649999Y-103025752D01*
X76649999Y-103025752D02*
X76554761Y-103073371D01*
X76554761Y-103073371D02*
X76507142Y-103120990D01*
X76507142Y-103120990D02*
X76459523Y-103216228D01*
X76459523Y-103216228D02*
X76459523Y-103501942D01*
X76459523Y-103501942D02*
X76507142Y-103597180D01*
X76507142Y-103597180D02*
X76554761Y-103644800D01*
X76554761Y-103644800D02*
X76649999Y-103692419D01*
X76649999Y-103692419D02*
X76792856Y-103692419D01*
X75888094Y-103692419D02*
X75983332Y-103644800D01*
X75983332Y-103644800D02*
X76030951Y-103597180D01*
X76030951Y-103597180D02*
X76078570Y-103501942D01*
X76078570Y-103501942D02*
X76078570Y-103216228D01*
X76078570Y-103216228D02*
X76030951Y-103120990D01*
X76030951Y-103120990D02*
X75983332Y-103073371D01*
X75983332Y-103073371D02*
X75888094Y-103025752D01*
X75888094Y-103025752D02*
X75745237Y-103025752D01*
X75745237Y-103025752D02*
X75649999Y-103073371D01*
X75649999Y-103073371D02*
X75602380Y-103120990D01*
X75602380Y-103120990D02*
X75554761Y-103216228D01*
X75554761Y-103216228D02*
X75554761Y-103501942D01*
X75554761Y-103501942D02*
X75602380Y-103597180D01*
X75602380Y-103597180D02*
X75649999Y-103644800D01*
X75649999Y-103644800D02*
X75745237Y-103692419D01*
X75745237Y-103692419D02*
X75888094Y-103692419D01*
X74697618Y-103025752D02*
X74697618Y-103835276D01*
X74697618Y-103835276D02*
X74745237Y-103930514D01*
X74745237Y-103930514D02*
X74792856Y-103978133D01*
X74792856Y-103978133D02*
X74888094Y-104025752D01*
X74888094Y-104025752D02*
X75030951Y-104025752D01*
X75030951Y-104025752D02*
X75126189Y-103978133D01*
X74697618Y-103644800D02*
X74792856Y-103692419D01*
X74792856Y-103692419D02*
X74983332Y-103692419D01*
X74983332Y-103692419D02*
X75078570Y-103644800D01*
X75078570Y-103644800D02*
X75126189Y-103597180D01*
X75126189Y-103597180D02*
X75173808Y-103501942D01*
X75173808Y-103501942D02*
X75173808Y-103216228D01*
X75173808Y-103216228D02*
X75126189Y-103120990D01*
X75126189Y-103120990D02*
X75078570Y-103073371D01*
X75078570Y-103073371D02*
X74983332Y-103025752D01*
X74983332Y-103025752D02*
X74792856Y-103025752D01*
X74792856Y-103025752D02*
X74697618Y-103073371D01*
X74221427Y-103692419D02*
X74221427Y-103025752D01*
X74221427Y-102692419D02*
X74269046Y-102740038D01*
X74269046Y-102740038D02*
X74221427Y-102787657D01*
X74221427Y-102787657D02*
X74173808Y-102740038D01*
X74173808Y-102740038D02*
X74221427Y-102692419D01*
X74221427Y-102692419D02*
X74221427Y-102787657D01*
X73364285Y-103644800D02*
X73459523Y-103692419D01*
X73459523Y-103692419D02*
X73649999Y-103692419D01*
X73649999Y-103692419D02*
X73745237Y-103644800D01*
X73745237Y-103644800D02*
X73792856Y-103549561D01*
X73792856Y-103549561D02*
X73792856Y-103168609D01*
X73792856Y-103168609D02*
X73745237Y-103073371D01*
X73745237Y-103073371D02*
X73649999Y-103025752D01*
X73649999Y-103025752D02*
X73459523Y-103025752D01*
X73459523Y-103025752D02*
X73364285Y-103073371D01*
X73364285Y-103073371D02*
X73316666Y-103168609D01*
X73316666Y-103168609D02*
X73316666Y-103263847D01*
X73316666Y-103263847D02*
X73792856Y-103359085D01*
D11*
X53414819Y-68384761D02*
X52938628Y-68051428D01*
X53414819Y-67813333D02*
X52414819Y-67813333D01*
X52414819Y-67813333D02*
X52414819Y-68194285D01*
X52414819Y-68194285D02*
X52462438Y-68289523D01*
X52462438Y-68289523D02*
X52510057Y-68337142D01*
X52510057Y-68337142D02*
X52605295Y-68384761D01*
X52605295Y-68384761D02*
X52748152Y-68384761D01*
X52748152Y-68384761D02*
X52843390Y-68337142D01*
X52843390Y-68337142D02*
X52891009Y-68289523D01*
X52891009Y-68289523D02*
X52938628Y-68194285D01*
X52938628Y-68194285D02*
X52938628Y-67813333D01*
X52414819Y-68670476D02*
X53414819Y-69003809D01*
X53414819Y-69003809D02*
X52414819Y-69337142D01*
X53414819Y-69718095D02*
X53414819Y-69908571D01*
X53414819Y-69908571D02*
X53367200Y-70003809D01*
X53367200Y-70003809D02*
X53319580Y-70051428D01*
X53319580Y-70051428D02*
X53176723Y-70146666D01*
X53176723Y-70146666D02*
X52986247Y-70194285D01*
X52986247Y-70194285D02*
X52605295Y-70194285D01*
X52605295Y-70194285D02*
X52510057Y-70146666D01*
X52510057Y-70146666D02*
X52462438Y-70099047D01*
X52462438Y-70099047D02*
X52414819Y-70003809D01*
X52414819Y-70003809D02*
X52414819Y-69813333D01*
X52414819Y-69813333D02*
X52462438Y-69718095D01*
X52462438Y-69718095D02*
X52510057Y-69670476D01*
X52510057Y-69670476D02*
X52605295Y-69622857D01*
X52605295Y-69622857D02*
X52843390Y-69622857D01*
X52843390Y-69622857D02*
X52938628Y-69670476D01*
X52938628Y-69670476D02*
X52986247Y-69718095D01*
X52986247Y-69718095D02*
X53033866Y-69813333D01*
X53033866Y-69813333D02*
X53033866Y-70003809D01*
X53033866Y-70003809D02*
X52986247Y-70099047D01*
X52986247Y-70099047D02*
X52938628Y-70146666D01*
X52938628Y-70146666D02*
X52843390Y-70194285D01*
X61119104Y-67353333D02*
X61119104Y-67829523D01*
X61404819Y-67258095D02*
X60404819Y-67591428D01*
X60404819Y-67591428D02*
X61404819Y-67924761D01*
X61404819Y-68781904D02*
X61404819Y-68210476D01*
X61404819Y-68496190D02*
X60404819Y-68496190D01*
X60404819Y-68496190D02*
X60547676Y-68400952D01*
X60547676Y-68400952D02*
X60642914Y-68305714D01*
X60642914Y-68305714D02*
X60690533Y-68210476D01*
X60404819Y-69400952D02*
X60404819Y-69496190D01*
X60404819Y-69496190D02*
X60452438Y-69591428D01*
X60452438Y-69591428D02*
X60500057Y-69639047D01*
X60500057Y-69639047D02*
X60595295Y-69686666D01*
X60595295Y-69686666D02*
X60785771Y-69734285D01*
X60785771Y-69734285D02*
X61023866Y-69734285D01*
X61023866Y-69734285D02*
X61214342Y-69686666D01*
X61214342Y-69686666D02*
X61309580Y-69639047D01*
X61309580Y-69639047D02*
X61357200Y-69591428D01*
X61357200Y-69591428D02*
X61404819Y-69496190D01*
X61404819Y-69496190D02*
X61404819Y-69400952D01*
X61404819Y-69400952D02*
X61357200Y-69305714D01*
X61357200Y-69305714D02*
X61309580Y-69258095D01*
X61309580Y-69258095D02*
X61214342Y-69210476D01*
X61214342Y-69210476D02*
X61023866Y-69162857D01*
X61023866Y-69162857D02*
X60785771Y-69162857D01*
X60785771Y-69162857D02*
X60595295Y-69210476D01*
X60595295Y-69210476D02*
X60500057Y-69258095D01*
X60500057Y-69258095D02*
X60452438Y-69305714D01*
X60452438Y-69305714D02*
X60404819Y-69400952D01*
X60404819Y-70353333D02*
X60404819Y-70448571D01*
X60404819Y-70448571D02*
X60452438Y-70543809D01*
X60452438Y-70543809D02*
X60500057Y-70591428D01*
X60500057Y-70591428D02*
X60595295Y-70639047D01*
X60595295Y-70639047D02*
X60785771Y-70686666D01*
X60785771Y-70686666D02*
X61023866Y-70686666D01*
X61023866Y-70686666D02*
X61214342Y-70639047D01*
X61214342Y-70639047D02*
X61309580Y-70591428D01*
X61309580Y-70591428D02*
X61357200Y-70543809D01*
X61357200Y-70543809D02*
X61404819Y-70448571D01*
X61404819Y-70448571D02*
X61404819Y-70353333D01*
X61404819Y-70353333D02*
X61357200Y-70258095D01*
X61357200Y-70258095D02*
X61309580Y-70210476D01*
X61309580Y-70210476D02*
X61214342Y-70162857D01*
X61214342Y-70162857D02*
X61023866Y-70115238D01*
X61023866Y-70115238D02*
X60785771Y-70115238D01*
X60785771Y-70115238D02*
X60595295Y-70162857D01*
X60595295Y-70162857D02*
X60500057Y-70210476D01*
X60500057Y-70210476D02*
X60452438Y-70258095D01*
X60452438Y-70258095D02*
X60404819Y-70353333D01*
X61404819Y-71115238D02*
X60404819Y-71115238D01*
X61404819Y-71686666D02*
X60833390Y-71258095D01*
X60404819Y-71686666D02*
X60976247Y-71115238D01*
X97294819Y-55464761D02*
X96818628Y-55131428D01*
X97294819Y-54893333D02*
X96294819Y-54893333D01*
X96294819Y-54893333D02*
X96294819Y-55274285D01*
X96294819Y-55274285D02*
X96342438Y-55369523D01*
X96342438Y-55369523D02*
X96390057Y-55417142D01*
X96390057Y-55417142D02*
X96485295Y-55464761D01*
X96485295Y-55464761D02*
X96628152Y-55464761D01*
X96628152Y-55464761D02*
X96723390Y-55417142D01*
X96723390Y-55417142D02*
X96771009Y-55369523D01*
X96771009Y-55369523D02*
X96818628Y-55274285D01*
X96818628Y-55274285D02*
X96818628Y-54893333D01*
X96294819Y-55750476D02*
X97294819Y-56083809D01*
X97294819Y-56083809D02*
X96294819Y-56417142D01*
X96294819Y-57179047D02*
X96294819Y-56988571D01*
X96294819Y-56988571D02*
X96342438Y-56893333D01*
X96342438Y-56893333D02*
X96390057Y-56845714D01*
X96390057Y-56845714D02*
X96532914Y-56750476D01*
X96532914Y-56750476D02*
X96723390Y-56702857D01*
X96723390Y-56702857D02*
X97104342Y-56702857D01*
X97104342Y-56702857D02*
X97199580Y-56750476D01*
X97199580Y-56750476D02*
X97247200Y-56798095D01*
X97247200Y-56798095D02*
X97294819Y-56893333D01*
X97294819Y-56893333D02*
X97294819Y-57083809D01*
X97294819Y-57083809D02*
X97247200Y-57179047D01*
X97247200Y-57179047D02*
X97199580Y-57226666D01*
X97199580Y-57226666D02*
X97104342Y-57274285D01*
X97104342Y-57274285D02*
X96866247Y-57274285D01*
X96866247Y-57274285D02*
X96771009Y-57226666D01*
X96771009Y-57226666D02*
X96723390Y-57179047D01*
X96723390Y-57179047D02*
X96675771Y-57083809D01*
X96675771Y-57083809D02*
X96675771Y-56893333D01*
X96675771Y-56893333D02*
X96723390Y-56798095D01*
X96723390Y-56798095D02*
X96771009Y-56750476D01*
X96771009Y-56750476D02*
X96866247Y-56702857D01*
X105989104Y-53343333D02*
X105989104Y-53819523D01*
X106274819Y-53248095D02*
X105274819Y-53581428D01*
X105274819Y-53581428D02*
X106274819Y-53914761D01*
X106274819Y-54771904D02*
X106274819Y-54200476D01*
X106274819Y-54486190D02*
X105274819Y-54486190D01*
X105274819Y-54486190D02*
X105417676Y-54390952D01*
X105417676Y-54390952D02*
X105512914Y-54295714D01*
X105512914Y-54295714D02*
X105560533Y-54200476D01*
X105274819Y-55390952D02*
X105274819Y-55486190D01*
X105274819Y-55486190D02*
X105322438Y-55581428D01*
X105322438Y-55581428D02*
X105370057Y-55629047D01*
X105370057Y-55629047D02*
X105465295Y-55676666D01*
X105465295Y-55676666D02*
X105655771Y-55724285D01*
X105655771Y-55724285D02*
X105893866Y-55724285D01*
X105893866Y-55724285D02*
X106084342Y-55676666D01*
X106084342Y-55676666D02*
X106179580Y-55629047D01*
X106179580Y-55629047D02*
X106227200Y-55581428D01*
X106227200Y-55581428D02*
X106274819Y-55486190D01*
X106274819Y-55486190D02*
X106274819Y-55390952D01*
X106274819Y-55390952D02*
X106227200Y-55295714D01*
X106227200Y-55295714D02*
X106179580Y-55248095D01*
X106179580Y-55248095D02*
X106084342Y-55200476D01*
X106084342Y-55200476D02*
X105893866Y-55152857D01*
X105893866Y-55152857D02*
X105655771Y-55152857D01*
X105655771Y-55152857D02*
X105465295Y-55200476D01*
X105465295Y-55200476D02*
X105370057Y-55248095D01*
X105370057Y-55248095D02*
X105322438Y-55295714D01*
X105322438Y-55295714D02*
X105274819Y-55390952D01*
X105274819Y-56343333D02*
X105274819Y-56438571D01*
X105274819Y-56438571D02*
X105322438Y-56533809D01*
X105322438Y-56533809D02*
X105370057Y-56581428D01*
X105370057Y-56581428D02*
X105465295Y-56629047D01*
X105465295Y-56629047D02*
X105655771Y-56676666D01*
X105655771Y-56676666D02*
X105893866Y-56676666D01*
X105893866Y-56676666D02*
X106084342Y-56629047D01*
X106084342Y-56629047D02*
X106179580Y-56581428D01*
X106179580Y-56581428D02*
X106227200Y-56533809D01*
X106227200Y-56533809D02*
X106274819Y-56438571D01*
X106274819Y-56438571D02*
X106274819Y-56343333D01*
X106274819Y-56343333D02*
X106227200Y-56248095D01*
X106227200Y-56248095D02*
X106179580Y-56200476D01*
X106179580Y-56200476D02*
X106084342Y-56152857D01*
X106084342Y-56152857D02*
X105893866Y-56105238D01*
X105893866Y-56105238D02*
X105655771Y-56105238D01*
X105655771Y-56105238D02*
X105465295Y-56152857D01*
X105465295Y-56152857D02*
X105370057Y-56200476D01*
X105370057Y-56200476D02*
X105322438Y-56248095D01*
X105322438Y-56248095D02*
X105274819Y-56343333D01*
X106274819Y-57105238D02*
X105274819Y-57105238D01*
X106274819Y-57676666D02*
X105703390Y-57248095D01*
X105274819Y-57676666D02*
X105846247Y-57105238D01*
X52904819Y-55194761D02*
X52428628Y-54861428D01*
X52904819Y-54623333D02*
X51904819Y-54623333D01*
X51904819Y-54623333D02*
X51904819Y-55004285D01*
X51904819Y-55004285D02*
X51952438Y-55099523D01*
X51952438Y-55099523D02*
X52000057Y-55147142D01*
X52000057Y-55147142D02*
X52095295Y-55194761D01*
X52095295Y-55194761D02*
X52238152Y-55194761D01*
X52238152Y-55194761D02*
X52333390Y-55147142D01*
X52333390Y-55147142D02*
X52381009Y-55099523D01*
X52381009Y-55099523D02*
X52428628Y-55004285D01*
X52428628Y-55004285D02*
X52428628Y-54623333D01*
X51904819Y-55480476D02*
X52904819Y-55813809D01*
X52904819Y-55813809D02*
X51904819Y-56147142D01*
X52000057Y-56432857D02*
X51952438Y-56480476D01*
X51952438Y-56480476D02*
X51904819Y-56575714D01*
X51904819Y-56575714D02*
X51904819Y-56813809D01*
X51904819Y-56813809D02*
X51952438Y-56909047D01*
X51952438Y-56909047D02*
X52000057Y-56956666D01*
X52000057Y-56956666D02*
X52095295Y-57004285D01*
X52095295Y-57004285D02*
X52190533Y-57004285D01*
X52190533Y-57004285D02*
X52333390Y-56956666D01*
X52333390Y-56956666D02*
X52904819Y-56385238D01*
X52904819Y-56385238D02*
X52904819Y-57004285D01*
X61289104Y-54104286D02*
X61289104Y-54580476D01*
X61574819Y-54009048D02*
X60574819Y-54342381D01*
X60574819Y-54342381D02*
X61574819Y-54675714D01*
X61574819Y-55532857D02*
X61574819Y-54961429D01*
X61574819Y-55247143D02*
X60574819Y-55247143D01*
X60574819Y-55247143D02*
X60717676Y-55151905D01*
X60717676Y-55151905D02*
X60812914Y-55056667D01*
X60812914Y-55056667D02*
X60860533Y-54961429D01*
X61574819Y-55961429D02*
X60574819Y-55961429D01*
X60574819Y-55961429D02*
X61289104Y-56294762D01*
X61289104Y-56294762D02*
X60574819Y-56628095D01*
X60574819Y-56628095D02*
X61574819Y-56628095D01*
X75184819Y-55414761D02*
X74708628Y-55081428D01*
X75184819Y-54843333D02*
X74184819Y-54843333D01*
X74184819Y-54843333D02*
X74184819Y-55224285D01*
X74184819Y-55224285D02*
X74232438Y-55319523D01*
X74232438Y-55319523D02*
X74280057Y-55367142D01*
X74280057Y-55367142D02*
X74375295Y-55414761D01*
X74375295Y-55414761D02*
X74518152Y-55414761D01*
X74518152Y-55414761D02*
X74613390Y-55367142D01*
X74613390Y-55367142D02*
X74661009Y-55319523D01*
X74661009Y-55319523D02*
X74708628Y-55224285D01*
X74708628Y-55224285D02*
X74708628Y-54843333D01*
X74184819Y-55700476D02*
X75184819Y-56033809D01*
X75184819Y-56033809D02*
X74184819Y-56367142D01*
X74184819Y-56605238D02*
X74184819Y-57271904D01*
X74184819Y-57271904D02*
X75184819Y-56843333D01*
X83381009Y-54089047D02*
X83428628Y-54231904D01*
X83428628Y-54231904D02*
X83476247Y-54279523D01*
X83476247Y-54279523D02*
X83571485Y-54327142D01*
X83571485Y-54327142D02*
X83714342Y-54327142D01*
X83714342Y-54327142D02*
X83809580Y-54279523D01*
X83809580Y-54279523D02*
X83857200Y-54231904D01*
X83857200Y-54231904D02*
X83904819Y-54136666D01*
X83904819Y-54136666D02*
X83904819Y-53755714D01*
X83904819Y-53755714D02*
X82904819Y-53755714D01*
X82904819Y-53755714D02*
X82904819Y-54089047D01*
X82904819Y-54089047D02*
X82952438Y-54184285D01*
X82952438Y-54184285D02*
X83000057Y-54231904D01*
X83000057Y-54231904D02*
X83095295Y-54279523D01*
X83095295Y-54279523D02*
X83190533Y-54279523D01*
X83190533Y-54279523D02*
X83285771Y-54231904D01*
X83285771Y-54231904D02*
X83333390Y-54184285D01*
X83333390Y-54184285D02*
X83381009Y-54089047D01*
X83381009Y-54089047D02*
X83381009Y-53755714D01*
X83904819Y-55279523D02*
X83904819Y-54708095D01*
X83904819Y-54993809D02*
X82904819Y-54993809D01*
X82904819Y-54993809D02*
X83047676Y-54898571D01*
X83047676Y-54898571D02*
X83142914Y-54803333D01*
X83142914Y-54803333D02*
X83190533Y-54708095D01*
X82904819Y-55898571D02*
X82904819Y-55993809D01*
X82904819Y-55993809D02*
X82952438Y-56089047D01*
X82952438Y-56089047D02*
X83000057Y-56136666D01*
X83000057Y-56136666D02*
X83095295Y-56184285D01*
X83095295Y-56184285D02*
X83285771Y-56231904D01*
X83285771Y-56231904D02*
X83523866Y-56231904D01*
X83523866Y-56231904D02*
X83714342Y-56184285D01*
X83714342Y-56184285D02*
X83809580Y-56136666D01*
X83809580Y-56136666D02*
X83857200Y-56089047D01*
X83857200Y-56089047D02*
X83904819Y-55993809D01*
X83904819Y-55993809D02*
X83904819Y-55898571D01*
X83904819Y-55898571D02*
X83857200Y-55803333D01*
X83857200Y-55803333D02*
X83809580Y-55755714D01*
X83809580Y-55755714D02*
X83714342Y-55708095D01*
X83714342Y-55708095D02*
X83523866Y-55660476D01*
X83523866Y-55660476D02*
X83285771Y-55660476D01*
X83285771Y-55660476D02*
X83095295Y-55708095D01*
X83095295Y-55708095D02*
X83000057Y-55755714D01*
X83000057Y-55755714D02*
X82952438Y-55803333D01*
X82952438Y-55803333D02*
X82904819Y-55898571D01*
X83904819Y-56660476D02*
X82904819Y-56660476D01*
X83904819Y-57231904D02*
X83333390Y-56803333D01*
X82904819Y-57231904D02*
X83476247Y-56660476D01*
X75474819Y-68513571D02*
X74998628Y-68180238D01*
X75474819Y-67942143D02*
X74474819Y-67942143D01*
X74474819Y-67942143D02*
X74474819Y-68323095D01*
X74474819Y-68323095D02*
X74522438Y-68418333D01*
X74522438Y-68418333D02*
X74570057Y-68465952D01*
X74570057Y-68465952D02*
X74665295Y-68513571D01*
X74665295Y-68513571D02*
X74808152Y-68513571D01*
X74808152Y-68513571D02*
X74903390Y-68465952D01*
X74903390Y-68465952D02*
X74951009Y-68418333D01*
X74951009Y-68418333D02*
X74998628Y-68323095D01*
X74998628Y-68323095D02*
X74998628Y-67942143D01*
X74474819Y-68799286D02*
X75474819Y-69132619D01*
X75474819Y-69132619D02*
X74474819Y-69465952D01*
X75474819Y-70323095D02*
X75474819Y-69751667D01*
X75474819Y-70037381D02*
X74474819Y-70037381D01*
X74474819Y-70037381D02*
X74617676Y-69942143D01*
X74617676Y-69942143D02*
X74712914Y-69846905D01*
X74712914Y-69846905D02*
X74760533Y-69751667D01*
X74474819Y-70942143D02*
X74474819Y-71037381D01*
X74474819Y-71037381D02*
X74522438Y-71132619D01*
X74522438Y-71132619D02*
X74570057Y-71180238D01*
X74570057Y-71180238D02*
X74665295Y-71227857D01*
X74665295Y-71227857D02*
X74855771Y-71275476D01*
X74855771Y-71275476D02*
X75093866Y-71275476D01*
X75093866Y-71275476D02*
X75284342Y-71227857D01*
X75284342Y-71227857D02*
X75379580Y-71180238D01*
X75379580Y-71180238D02*
X75427200Y-71132619D01*
X75427200Y-71132619D02*
X75474819Y-71037381D01*
X75474819Y-71037381D02*
X75474819Y-70942143D01*
X75474819Y-70942143D02*
X75427200Y-70846905D01*
X75427200Y-70846905D02*
X75379580Y-70799286D01*
X75379580Y-70799286D02*
X75284342Y-70751667D01*
X75284342Y-70751667D02*
X75093866Y-70704048D01*
X75093866Y-70704048D02*
X74855771Y-70704048D01*
X74855771Y-70704048D02*
X74665295Y-70751667D01*
X74665295Y-70751667D02*
X74570057Y-70799286D01*
X74570057Y-70799286D02*
X74522438Y-70846905D01*
X74522438Y-70846905D02*
X74474819Y-70942143D01*
X83011009Y-68580238D02*
X83058628Y-68723095D01*
X83058628Y-68723095D02*
X83106247Y-68770714D01*
X83106247Y-68770714D02*
X83201485Y-68818333D01*
X83201485Y-68818333D02*
X83344342Y-68818333D01*
X83344342Y-68818333D02*
X83439580Y-68770714D01*
X83439580Y-68770714D02*
X83487200Y-68723095D01*
X83487200Y-68723095D02*
X83534819Y-68627857D01*
X83534819Y-68627857D02*
X83534819Y-68246905D01*
X83534819Y-68246905D02*
X82534819Y-68246905D01*
X82534819Y-68246905D02*
X82534819Y-68580238D01*
X82534819Y-68580238D02*
X82582438Y-68675476D01*
X82582438Y-68675476D02*
X82630057Y-68723095D01*
X82630057Y-68723095D02*
X82725295Y-68770714D01*
X82725295Y-68770714D02*
X82820533Y-68770714D01*
X82820533Y-68770714D02*
X82915771Y-68723095D01*
X82915771Y-68723095D02*
X82963390Y-68675476D01*
X82963390Y-68675476D02*
X83011009Y-68580238D01*
X83011009Y-68580238D02*
X83011009Y-68246905D01*
X82534819Y-69723095D02*
X82534819Y-69246905D01*
X82534819Y-69246905D02*
X83011009Y-69199286D01*
X83011009Y-69199286D02*
X82963390Y-69246905D01*
X82963390Y-69246905D02*
X82915771Y-69342143D01*
X82915771Y-69342143D02*
X82915771Y-69580238D01*
X82915771Y-69580238D02*
X82963390Y-69675476D01*
X82963390Y-69675476D02*
X83011009Y-69723095D01*
X83011009Y-69723095D02*
X83106247Y-69770714D01*
X83106247Y-69770714D02*
X83344342Y-69770714D01*
X83344342Y-69770714D02*
X83439580Y-69723095D01*
X83439580Y-69723095D02*
X83487200Y-69675476D01*
X83487200Y-69675476D02*
X83534819Y-69580238D01*
X83534819Y-69580238D02*
X83534819Y-69342143D01*
X83534819Y-69342143D02*
X83487200Y-69246905D01*
X83487200Y-69246905D02*
X83439580Y-69199286D01*
X83534819Y-70199286D02*
X82534819Y-70199286D01*
X83534819Y-70770714D02*
X82963390Y-70342143D01*
X82534819Y-70770714D02*
X83106247Y-70199286D01*
X96844819Y-69234761D02*
X96368628Y-68901428D01*
X96844819Y-68663333D02*
X95844819Y-68663333D01*
X95844819Y-68663333D02*
X95844819Y-69044285D01*
X95844819Y-69044285D02*
X95892438Y-69139523D01*
X95892438Y-69139523D02*
X95940057Y-69187142D01*
X95940057Y-69187142D02*
X96035295Y-69234761D01*
X96035295Y-69234761D02*
X96178152Y-69234761D01*
X96178152Y-69234761D02*
X96273390Y-69187142D01*
X96273390Y-69187142D02*
X96321009Y-69139523D01*
X96321009Y-69139523D02*
X96368628Y-69044285D01*
X96368628Y-69044285D02*
X96368628Y-68663333D01*
X95844819Y-69520476D02*
X96844819Y-69853809D01*
X96844819Y-69853809D02*
X95844819Y-70187142D01*
X96273390Y-70663333D02*
X96225771Y-70568095D01*
X96225771Y-70568095D02*
X96178152Y-70520476D01*
X96178152Y-70520476D02*
X96082914Y-70472857D01*
X96082914Y-70472857D02*
X96035295Y-70472857D01*
X96035295Y-70472857D02*
X95940057Y-70520476D01*
X95940057Y-70520476D02*
X95892438Y-70568095D01*
X95892438Y-70568095D02*
X95844819Y-70663333D01*
X95844819Y-70663333D02*
X95844819Y-70853809D01*
X95844819Y-70853809D02*
X95892438Y-70949047D01*
X95892438Y-70949047D02*
X95940057Y-70996666D01*
X95940057Y-70996666D02*
X96035295Y-71044285D01*
X96035295Y-71044285D02*
X96082914Y-71044285D01*
X96082914Y-71044285D02*
X96178152Y-70996666D01*
X96178152Y-70996666D02*
X96225771Y-70949047D01*
X96225771Y-70949047D02*
X96273390Y-70853809D01*
X96273390Y-70853809D02*
X96273390Y-70663333D01*
X96273390Y-70663333D02*
X96321009Y-70568095D01*
X96321009Y-70568095D02*
X96368628Y-70520476D01*
X96368628Y-70520476D02*
X96463866Y-70472857D01*
X96463866Y-70472857D02*
X96654342Y-70472857D01*
X96654342Y-70472857D02*
X96749580Y-70520476D01*
X96749580Y-70520476D02*
X96797200Y-70568095D01*
X96797200Y-70568095D02*
X96844819Y-70663333D01*
X96844819Y-70663333D02*
X96844819Y-70853809D01*
X96844819Y-70853809D02*
X96797200Y-70949047D01*
X96797200Y-70949047D02*
X96749580Y-70996666D01*
X96749580Y-70996666D02*
X96654342Y-71044285D01*
X96654342Y-71044285D02*
X96463866Y-71044285D01*
X96463866Y-71044285D02*
X96368628Y-70996666D01*
X96368628Y-70996666D02*
X96321009Y-70949047D01*
X96321009Y-70949047D02*
X96273390Y-70853809D01*
X105959104Y-68069524D02*
X105959104Y-68545714D01*
X106244819Y-67974286D02*
X105244819Y-68307619D01*
X105244819Y-68307619D02*
X106244819Y-68640952D01*
X105340057Y-68926667D02*
X105292438Y-68974286D01*
X105292438Y-68974286D02*
X105244819Y-69069524D01*
X105244819Y-69069524D02*
X105244819Y-69307619D01*
X105244819Y-69307619D02*
X105292438Y-69402857D01*
X105292438Y-69402857D02*
X105340057Y-69450476D01*
X105340057Y-69450476D02*
X105435295Y-69498095D01*
X105435295Y-69498095D02*
X105530533Y-69498095D01*
X105530533Y-69498095D02*
X105673390Y-69450476D01*
X105673390Y-69450476D02*
X106244819Y-68879048D01*
X106244819Y-68879048D02*
X106244819Y-69498095D01*
X105244819Y-70402857D02*
X105244819Y-69926667D01*
X105244819Y-69926667D02*
X105721009Y-69879048D01*
X105721009Y-69879048D02*
X105673390Y-69926667D01*
X105673390Y-69926667D02*
X105625771Y-70021905D01*
X105625771Y-70021905D02*
X105625771Y-70260000D01*
X105625771Y-70260000D02*
X105673390Y-70355238D01*
X105673390Y-70355238D02*
X105721009Y-70402857D01*
X105721009Y-70402857D02*
X105816247Y-70450476D01*
X105816247Y-70450476D02*
X106054342Y-70450476D01*
X106054342Y-70450476D02*
X106149580Y-70402857D01*
X106149580Y-70402857D02*
X106197200Y-70355238D01*
X106197200Y-70355238D02*
X106244819Y-70260000D01*
X106244819Y-70260000D02*
X106244819Y-70021905D01*
X106244819Y-70021905D02*
X106197200Y-69926667D01*
X106197200Y-69926667D02*
X106149580Y-69879048D01*
X106244819Y-70879048D02*
X105244819Y-70879048D01*
X106244819Y-71450476D02*
X105673390Y-71021905D01*
X105244819Y-71450476D02*
X105816247Y-70879048D01*
D12*
%TO.C,RV9*%
X63210000Y-66700000D02*
X63210000Y-71366000D01*
X60410000Y-66700000D02*
X63210000Y-66700000D01*
X57911000Y-66700000D02*
X58670000Y-66700000D01*
X55740000Y-66700000D02*
X56170000Y-66700000D01*
X50870000Y-66700000D02*
X53340000Y-66700000D01*
X50870000Y-66700000D02*
X50870000Y-71366000D01*
X63210000Y-75275000D02*
X63210000Y-78290000D01*
X50870000Y-75275000D02*
X50870000Y-78290000D01*
X50870000Y-78290000D02*
X63210000Y-78290000D01*
X55040000Y-68320000D02*
X59040000Y-68320000D01*
X59040000Y-68320000D02*
X59040000Y-69820000D01*
X59040000Y-69820000D02*
X55040000Y-69820000D01*
X55040000Y-69820000D02*
X55040000Y-68320000D01*
X55040000Y-76820000D02*
X59040000Y-76820000D01*
X59040000Y-76820000D02*
X59040000Y-78320000D01*
X59040000Y-78320000D02*
X55040000Y-78320000D01*
X55040000Y-78320000D02*
X55040000Y-76820000D01*
%TO.C,RV6*%
X107340000Y-52200000D02*
X107340000Y-56866000D01*
X104540000Y-52200000D02*
X107340000Y-52200000D01*
X102041000Y-52200000D02*
X102800000Y-52200000D01*
X99870000Y-52200000D02*
X100300000Y-52200000D01*
X95000000Y-52200000D02*
X97470000Y-52200000D01*
X95000000Y-52200000D02*
X95000000Y-56866000D01*
X107340000Y-60775000D02*
X107340000Y-63790000D01*
X95000000Y-60775000D02*
X95000000Y-63790000D01*
X95000000Y-63790000D02*
X107340000Y-63790000D01*
X99170000Y-53820000D02*
X103170000Y-53820000D01*
X103170000Y-53820000D02*
X103170000Y-55320000D01*
X103170000Y-55320000D02*
X99170000Y-55320000D01*
X99170000Y-55320000D02*
X99170000Y-53820000D01*
X99170000Y-62320000D02*
X103170000Y-62320000D01*
X103170000Y-62320000D02*
X103170000Y-63820000D01*
X103170000Y-63820000D02*
X99170000Y-63820000D01*
X99170000Y-63820000D02*
X99170000Y-62320000D01*
%TO.C,RV2*%
X63180000Y-52100000D02*
X63180000Y-56766000D01*
X60380000Y-52100000D02*
X63180000Y-52100000D01*
X57881000Y-52100000D02*
X58640000Y-52100000D01*
X55710000Y-52100000D02*
X56140000Y-52100000D01*
X50840000Y-52100000D02*
X53310000Y-52100000D01*
X50840000Y-52100000D02*
X50840000Y-56766000D01*
X63180000Y-60675000D02*
X63180000Y-63690000D01*
X50840000Y-60675000D02*
X50840000Y-63690000D01*
X50840000Y-63690000D02*
X63180000Y-63690000D01*
X55010000Y-53720000D02*
X59010000Y-53720000D01*
X59010000Y-53720000D02*
X59010000Y-55220000D01*
X59010000Y-55220000D02*
X55010000Y-55220000D01*
X55010000Y-55220000D02*
X55010000Y-53720000D01*
X55010000Y-62220000D02*
X59010000Y-62220000D01*
X59010000Y-62220000D02*
X59010000Y-63720000D01*
X59010000Y-63720000D02*
X55010000Y-63720000D01*
X55010000Y-63720000D02*
X55010000Y-62220000D01*
%TO.C,RV7*%
X85010000Y-52135000D02*
X85010000Y-56801000D01*
X82210000Y-52135000D02*
X85010000Y-52135000D01*
X79711000Y-52135000D02*
X80470000Y-52135000D01*
X77540000Y-52135000D02*
X77970000Y-52135000D01*
X72670000Y-52135000D02*
X75140000Y-52135000D01*
X72670000Y-52135000D02*
X72670000Y-56801000D01*
X85010000Y-60710000D02*
X85010000Y-63725000D01*
X72670000Y-60710000D02*
X72670000Y-63725000D01*
X72670000Y-63725000D02*
X85010000Y-63725000D01*
X76840000Y-53755000D02*
X80840000Y-53755000D01*
X80840000Y-53755000D02*
X80840000Y-55255000D01*
X80840000Y-55255000D02*
X76840000Y-55255000D01*
X76840000Y-55255000D02*
X76840000Y-53755000D01*
X76840000Y-62255000D02*
X80840000Y-62255000D01*
X80840000Y-62255000D02*
X80840000Y-63755000D01*
X80840000Y-63755000D02*
X76840000Y-63755000D01*
X76840000Y-63755000D02*
X76840000Y-62255000D01*
%TO.C,RV10*%
X84960000Y-66635000D02*
X84960000Y-71301000D01*
X82160000Y-66635000D02*
X84960000Y-66635000D01*
X79661000Y-66635000D02*
X80420000Y-66635000D01*
X77490000Y-66635000D02*
X77920000Y-66635000D01*
X72620000Y-66635000D02*
X75090000Y-66635000D01*
X72620000Y-66635000D02*
X72620000Y-71301000D01*
X84960000Y-75210000D02*
X84960000Y-78225000D01*
X72620000Y-75210000D02*
X72620000Y-78225000D01*
X72620000Y-78225000D02*
X84960000Y-78225000D01*
X76790000Y-68255000D02*
X80790000Y-68255000D01*
X80790000Y-68255000D02*
X80790000Y-69755000D01*
X80790000Y-69755000D02*
X76790000Y-69755000D01*
X76790000Y-69755000D02*
X76790000Y-68255000D01*
X76790000Y-76755000D02*
X80790000Y-76755000D01*
X80790000Y-76755000D02*
X80790000Y-78255000D01*
X80790000Y-78255000D02*
X76790000Y-78255000D01*
X76790000Y-78255000D02*
X76790000Y-76755000D01*
%TO.C,RV8*%
X107270000Y-66655000D02*
X107270000Y-71321000D01*
X104470000Y-66655000D02*
X107270000Y-66655000D01*
X101971000Y-66655000D02*
X102730000Y-66655000D01*
X99800000Y-66655000D02*
X100230000Y-66655000D01*
X94930000Y-66655000D02*
X97400000Y-66655000D01*
X94930000Y-66655000D02*
X94930000Y-71321000D01*
X107270000Y-75230000D02*
X107270000Y-78245000D01*
X94930000Y-75230000D02*
X94930000Y-78245000D01*
X94930000Y-78245000D02*
X107270000Y-78245000D01*
X99100000Y-68275000D02*
X103100000Y-68275000D01*
X103100000Y-68275000D02*
X103100000Y-69775000D01*
X103100000Y-69775000D02*
X99100000Y-69775000D01*
X99100000Y-69775000D02*
X99100000Y-68275000D01*
X99100000Y-76775000D02*
X103100000Y-76775000D01*
X103100000Y-76775000D02*
X103100000Y-78275000D01*
X103100000Y-78275000D02*
X99100000Y-78275000D01*
X99100000Y-78275000D02*
X99100000Y-76775000D01*
%TD*%
M02*
