%TF.GenerationSoftware,KiCad,Pcbnew,7.0.11+dfsg-1build4*%
%TF.CreationDate,2026-02-01T22:03:41-05:00*%
%TF.ProjectId,harmonicpercolator,6861726d-6f6e-4696-9370-6572636f6c61,rev?*%
%TF.SameCoordinates,Original*%
%TF.FileFunction,Copper,L2,Bot*%
%TF.FilePolarity,Positive*%
%FSLAX46Y46*%
G04 Gerber Fmt 4.6, Leading zero omitted, Abs format (unit mm)*
G04 Created by KiCad (PCBNEW 7.0.11+dfsg-1build4) date 2026-02-01 22:03:41*
%MOMM*%
%LPD*%
G01*
G04 APERTURE LIST*
%TA.AperFunction,ComponentPad*%
%ADD10R,1.800000X1.800000*%
%TD*%
%TA.AperFunction,ComponentPad*%
%ADD11O,1.800000X1.800000*%
%TD*%
%TA.AperFunction,ComponentPad*%
%ADD12C,1.600000*%
%TD*%
%TA.AperFunction,ComponentPad*%
%ADD13O,1.600000X1.600000*%
%TD*%
%TA.AperFunction,ComponentPad*%
%ADD14C,2.340000*%
%TD*%
%TA.AperFunction,ComponentPad*%
%ADD15C,2.000000*%
%TD*%
%TA.AperFunction,ComponentPad*%
%ADD16R,1.700000X1.700000*%
%TD*%
%TA.AperFunction,ComponentPad*%
%ADD17O,1.700000X1.700000*%
%TD*%
%TA.AperFunction,ComponentPad*%
%ADD18R,1.050000X1.500000*%
%TD*%
%TA.AperFunction,ComponentPad*%
%ADD19O,1.050000X1.500000*%
%TD*%
%TA.AperFunction,ComponentPad*%
%ADD20R,1.600000X1.600000*%
%TD*%
%TA.AperFunction,ViaPad*%
%ADD21C,0.800000*%
%TD*%
%TA.AperFunction,Conductor*%
%ADD22C,0.250000*%
%TD*%
G04 APERTURE END LIST*
D10*
%TO.P,Q1,1,E*%
%TO.N,Net-(Q1-E)*%
X131953000Y-110871000D03*
D11*
%TO.P,Q1,2,B*%
%TO.N,Net-(Q1-B)*%
X134493000Y-110871000D03*
%TO.P,Q1,3,C*%
%TO.N,Net-(Q1-C)*%
X137033000Y-110871000D03*
%TD*%
D12*
%TO.P,R4,1*%
%TO.N,GND*%
X102743000Y-120523000D03*
D13*
%TO.P,R4,2*%
%TO.N,Net-(Q1-C)*%
X110363000Y-120523000D03*
%TD*%
D14*
%TO.P,RV2,1,1*%
%TO.N,GND*%
X144018000Y-103251000D03*
%TO.P,RV2,2,2*%
%TO.N,OUT*%
X139018000Y-103251000D03*
%TO.P,RV2,3,3*%
%TO.N,Net-(D1-K)*%
X134018000Y-103251000D03*
%TD*%
D15*
%TO.P,C5,1*%
%TO.N,Net-(D1-K)*%
X122595000Y-113411000D03*
%TO.P,C5,2*%
%TO.N,Net-(Q2-C)*%
X127595000Y-113411000D03*
%TD*%
D12*
%TO.P,C1,1*%
%TO.N,Net-(C1-Pad1)*%
X122595000Y-118364000D03*
%TO.P,C1,2*%
%TO.N,GND*%
X125095000Y-118364000D03*
%TD*%
D16*
%TO.P,J1,1,Pin_1*%
%TO.N,9V*%
X128905000Y-121920000D03*
D17*
%TO.P,J1,2,Pin_2*%
%TO.N,OUT*%
X131445000Y-121920000D03*
%TO.P,J1,3,Pin_3*%
%TO.N,IN*%
X133985000Y-121920000D03*
%TO.P,J1,4,Pin_4*%
%TO.N,GND*%
X136525000Y-121920000D03*
%TD*%
D18*
%TO.P,Q2,1,E*%
%TO.N,Net-(Q1-E)*%
X124841000Y-107929000D03*
D19*
%TO.P,Q2,2,B*%
%TO.N,Net-(Q2-B)*%
X126111000Y-107929000D03*
%TO.P,Q2,3,C*%
%TO.N,Net-(Q2-C)*%
X127381000Y-107929000D03*
%TD*%
D20*
%TO.P,C4,1*%
%TO.N,Net-(Q1-E)*%
X146598000Y-121031000D03*
D12*
%TO.P,C4,2*%
%TO.N,GND*%
X149098000Y-121031000D03*
%TD*%
D15*
%TO.P,C3,1*%
%TO.N,Net-(Q1-C)*%
X113745000Y-118110000D03*
%TO.P,C3,2*%
%TO.N,Net-(Q2-B)*%
X118745000Y-118110000D03*
%TD*%
%TO.P,C2,1*%
%TO.N,Net-(C1-Pad1)*%
X113832000Y-113538000D03*
%TO.P,C2,2*%
%TO.N,Net-(Q1-B)*%
X118832000Y-113538000D03*
%TD*%
D12*
%TO.P,R2,1*%
%TO.N,Net-(Q1-B)*%
X110363000Y-112395000D03*
D13*
%TO.P,R2,2*%
%TO.N,Net-(Q1-C)*%
X102743000Y-112395000D03*
%TD*%
D12*
%TO.P,R3,1*%
%TO.N,9V*%
X102743000Y-116459000D03*
D13*
%TO.P,R3,2*%
%TO.N,Net-(Q2-C)*%
X110363000Y-116459000D03*
%TD*%
D12*
%TO.P,R1,1*%
%TO.N,Net-(Q2-B)*%
X110363000Y-108331000D03*
D13*
%TO.P,R1,2*%
%TO.N,Net-(Q2-C)*%
X102743000Y-108331000D03*
%TD*%
D10*
%TO.P,D2,1,K*%
%TO.N,GND*%
X141732000Y-114808000D03*
D11*
%TO.P,D2,2,A*%
%TO.N,Net-(D2-A)*%
X149352000Y-114808000D03*
%TD*%
D12*
%TO.P,R5,1*%
%TO.N,Net-(D2-A)*%
X113665000Y-108585000D03*
D13*
%TO.P,R5,2*%
%TO.N,Net-(D1-K)*%
X121285000Y-108585000D03*
%TD*%
D14*
%TO.P,RV1,1,1*%
%TO.N,GND*%
X117856000Y-103124000D03*
%TO.P,RV1,2,2*%
%TO.N,Net-(C1-Pad1)*%
X112856000Y-103124000D03*
%TO.P,RV1,3,3*%
%TO.N,IN*%
X107856000Y-103124000D03*
%TD*%
D10*
%TO.P,D1,1,K*%
%TO.N,Net-(D1-K)*%
X141732000Y-109855000D03*
D11*
%TO.P,D1,2,A*%
%TO.N,GND*%
X149352000Y-109855000D03*
%TD*%
D21*
%TO.N,GND*%
X129300000Y-110500000D03*
%TD*%
D22*
%TO.N,Net-(Q1-B)*%
X118832000Y-113538000D02*
X120284000Y-112086000D01*
X120284000Y-112086000D02*
X128143833Y-112086000D01*
X128143833Y-112086000D02*
X128257833Y-112200000D01*
X128257833Y-112200000D02*
X133164000Y-112200000D01*
X133164000Y-112200000D02*
X134493000Y-110871000D01*
%TO.N,Net-(Q2-B)*%
X108585000Y-110109000D02*
X108585000Y-120335991D01*
X110042009Y-121793000D02*
X115062000Y-121793000D01*
X108585000Y-120335991D02*
X110042009Y-121793000D01*
X110363000Y-108331000D02*
X108585000Y-110109000D01*
X115062000Y-121793000D02*
X118745000Y-118110000D01*
%TO.N,Net-(Q2-C)*%
X124547000Y-116459000D02*
X127595000Y-113411000D01*
X110363000Y-116459000D02*
X124547000Y-116459000D01*
%TO.N,OUT*%
X131445000Y-121920000D02*
X139018000Y-114347000D01*
X139018000Y-114347000D02*
X139018000Y-103251000D01*
%TO.N,IN*%
X110014000Y-123095000D02*
X107856000Y-120937000D01*
X133985000Y-121920000D02*
X132810000Y-123095000D01*
X107856000Y-120937000D02*
X107856000Y-103124000D01*
X132810000Y-123095000D02*
X110014000Y-123095000D01*
%TD*%
%TA.AperFunction,Conductor*%
%TO.N,GND*%
G36*
X135844904Y-111635931D02*
G01*
X135866809Y-111661210D01*
X135917686Y-111739084D01*
X135936978Y-111760040D01*
X136075780Y-111910818D01*
X136259983Y-112054190D01*
X136259985Y-112054191D01*
X136259988Y-112054193D01*
X136278901Y-112064428D01*
X136465273Y-112165287D01*
X136536557Y-112189759D01*
X136686045Y-112241079D01*
X136686047Y-112241079D01*
X136686049Y-112241080D01*
X136916288Y-112279500D01*
X136916289Y-112279500D01*
X137149711Y-112279500D01*
X137149712Y-112279500D01*
X137379951Y-112241080D01*
X137600727Y-112165287D01*
X137806017Y-112054190D01*
X137990220Y-111910818D01*
X138148314Y-111739083D01*
X138156690Y-111726261D01*
X138209836Y-111680905D01*
X138279067Y-111671480D01*
X138342403Y-111700981D01*
X138379736Y-111760040D01*
X138384500Y-111794082D01*
X138384500Y-114033232D01*
X138364815Y-114100271D01*
X138348181Y-114120913D01*
X131901990Y-120567103D01*
X131840667Y-120600588D01*
X131783872Y-120599628D01*
X131779642Y-120598557D01*
X131557569Y-120561500D01*
X131332431Y-120561500D01*
X131110362Y-120598556D01*
X130897430Y-120671656D01*
X130897419Y-120671661D01*
X130699427Y-120778808D01*
X130699422Y-120778812D01*
X130521761Y-120917092D01*
X130492469Y-120948912D01*
X130462969Y-120980958D01*
X130458548Y-120985760D01*
X130398661Y-121021750D01*
X130328823Y-121019649D01*
X130271207Y-120980124D01*
X130251138Y-120945110D01*
X130205889Y-120823796D01*
X130191361Y-120804389D01*
X130118261Y-120706739D01*
X130001204Y-120619111D01*
X129864203Y-120568011D01*
X129803654Y-120561500D01*
X129803638Y-120561500D01*
X128006362Y-120561500D01*
X128006345Y-120561500D01*
X127945797Y-120568011D01*
X127945795Y-120568011D01*
X127808795Y-120619111D01*
X127691739Y-120706739D01*
X127604111Y-120823795D01*
X127553011Y-120960795D01*
X127553011Y-120960797D01*
X127546500Y-121021345D01*
X127546500Y-122337500D01*
X127526815Y-122404539D01*
X127474011Y-122450294D01*
X127422500Y-122461500D01*
X115594661Y-122461500D01*
X115527622Y-122441815D01*
X115481867Y-122389011D01*
X115471923Y-122319853D01*
X115499115Y-122258462D01*
X115505455Y-122250798D01*
X115527360Y-122224318D01*
X115535203Y-122215699D01*
X118167333Y-119583569D01*
X118228654Y-119550086D01*
X118283957Y-119550677D01*
X118508289Y-119604535D01*
X118745000Y-119623165D01*
X118981711Y-119604535D01*
X119212594Y-119549105D01*
X119212596Y-119549104D01*
X119212597Y-119549104D01*
X119431959Y-119458242D01*
X119431960Y-119458241D01*
X119431963Y-119458240D01*
X119634416Y-119334176D01*
X119814969Y-119179969D01*
X119969176Y-118999416D01*
X120093240Y-118796963D01*
X120113039Y-118749165D01*
X120184104Y-118577597D01*
X120184104Y-118577596D01*
X120184105Y-118577594D01*
X120239535Y-118346711D01*
X120258165Y-118110000D01*
X120239535Y-117873289D01*
X120184105Y-117642406D01*
X120184104Y-117642403D01*
X120184104Y-117642402D01*
X120093242Y-117423040D01*
X120093240Y-117423037D01*
X120006377Y-117281290D01*
X119988132Y-117213845D01*
X120009248Y-117147242D01*
X120063020Y-117102628D01*
X120112104Y-117092500D01*
X121736313Y-117092500D01*
X121803352Y-117112185D01*
X121849107Y-117164989D01*
X121859051Y-117234147D01*
X121830026Y-117297703D01*
X121807437Y-117318074D01*
X121750699Y-117357802D01*
X121588806Y-117519695D01*
X121457476Y-117707252D01*
X121457475Y-117707254D01*
X121360718Y-117914750D01*
X121360714Y-117914761D01*
X121301457Y-118135910D01*
X121301456Y-118135918D01*
X121281502Y-118363998D01*
X121281502Y-118364001D01*
X121301456Y-118592081D01*
X121301457Y-118592089D01*
X121360714Y-118813238D01*
X121360718Y-118813249D01*
X121447528Y-118999413D01*
X121457477Y-119020749D01*
X121588802Y-119208300D01*
X121750700Y-119370198D01*
X121938251Y-119501523D01*
X122043665Y-119550678D01*
X122145750Y-119598281D01*
X122145752Y-119598281D01*
X122145757Y-119598284D01*
X122366913Y-119657543D01*
X122529832Y-119671796D01*
X122594998Y-119677498D01*
X122595000Y-119677498D01*
X122595002Y-119677498D01*
X122652021Y-119672509D01*
X122823087Y-119657543D01*
X123044243Y-119598284D01*
X123251749Y-119501523D01*
X123439300Y-119370198D01*
X123601198Y-119208300D01*
X123732523Y-119020749D01*
X123737305Y-119010493D01*
X123783472Y-118958054D01*
X123850665Y-118938898D01*
X123917547Y-118959110D01*
X123962067Y-119010483D01*
X123964862Y-119016477D01*
X123964863Y-119016478D01*
X124015974Y-119089472D01*
X124697046Y-118408400D01*
X124709835Y-118489148D01*
X124767359Y-118602045D01*
X124856955Y-118691641D01*
X124969852Y-118749165D01*
X125050599Y-118761953D01*
X124369526Y-119443025D01*
X124442513Y-119494132D01*
X124442521Y-119494136D01*
X124648668Y-119590264D01*
X124648682Y-119590269D01*
X124868389Y-119649139D01*
X124868400Y-119649141D01*
X125094998Y-119668966D01*
X125095002Y-119668966D01*
X125321599Y-119649141D01*
X125321610Y-119649139D01*
X125541317Y-119590269D01*
X125541331Y-119590264D01*
X125747478Y-119494136D01*
X125820471Y-119443024D01*
X125139400Y-118761953D01*
X125220148Y-118749165D01*
X125333045Y-118691641D01*
X125422641Y-118602045D01*
X125480165Y-118489148D01*
X125492953Y-118408400D01*
X126174024Y-119089471D01*
X126225136Y-119016478D01*
X126321264Y-118810331D01*
X126321269Y-118810317D01*
X126380139Y-118590610D01*
X126380141Y-118590599D01*
X126399966Y-118364002D01*
X126399966Y-118363997D01*
X126380141Y-118137400D01*
X126380139Y-118137389D01*
X126321269Y-117917682D01*
X126321264Y-117917668D01*
X126225136Y-117711521D01*
X126225132Y-117711513D01*
X126174025Y-117638526D01*
X125492953Y-118319598D01*
X125480165Y-118238852D01*
X125422641Y-118125955D01*
X125333045Y-118036359D01*
X125220148Y-117978835D01*
X125139401Y-117966046D01*
X125820472Y-117284974D01*
X125747478Y-117233863D01*
X125541331Y-117137735D01*
X125541317Y-117137730D01*
X125321610Y-117078860D01*
X125321599Y-117078858D01*
X125128059Y-117061926D01*
X125062990Y-117036474D01*
X125022011Y-116979883D01*
X125018133Y-116910121D01*
X125051183Y-116850719D01*
X127017334Y-114884569D01*
X127078655Y-114851086D01*
X127133957Y-114851677D01*
X127358289Y-114905535D01*
X127595000Y-114924165D01*
X127831711Y-114905535D01*
X128062594Y-114850105D01*
X128062596Y-114850104D01*
X128062597Y-114850104D01*
X128281959Y-114759242D01*
X128281960Y-114759241D01*
X128281963Y-114759240D01*
X128484416Y-114635176D01*
X128664969Y-114480969D01*
X128819176Y-114300416D01*
X128943240Y-114097963D01*
X128948778Y-114084595D01*
X129034104Y-113878597D01*
X129034104Y-113878596D01*
X129034105Y-113878594D01*
X129089535Y-113647711D01*
X129108165Y-113411000D01*
X129089535Y-113174289D01*
X129044438Y-112986446D01*
X129047929Y-112916665D01*
X129088593Y-112859847D01*
X129153519Y-112834034D01*
X129165012Y-112833500D01*
X133080366Y-112833500D01*
X133096113Y-112835238D01*
X133096139Y-112834968D01*
X133103905Y-112835701D01*
X133103909Y-112835702D01*
X133172017Y-112833560D01*
X133175913Y-112833500D01*
X133203858Y-112833500D01*
X133203860Y-112833499D01*
X133205262Y-112833322D01*
X133207949Y-112832983D01*
X133219608Y-112832064D01*
X133263889Y-112830673D01*
X133283481Y-112824980D01*
X133302538Y-112821032D01*
X133322797Y-112818474D01*
X133364006Y-112802157D01*
X133375043Y-112798379D01*
X133417593Y-112786018D01*
X133435165Y-112775625D01*
X133452632Y-112767068D01*
X133471617Y-112759552D01*
X133507461Y-112733508D01*
X133517230Y-112727092D01*
X133530068Y-112719500D01*
X133555362Y-112704542D01*
X133569802Y-112690100D01*
X133584592Y-112677470D01*
X133601107Y-112665472D01*
X133629359Y-112631319D01*
X133637203Y-112622699D01*
X133996606Y-112263296D01*
X134057927Y-112229813D01*
X134124545Y-112233697D01*
X134146049Y-112241080D01*
X134376288Y-112279500D01*
X134609711Y-112279500D01*
X134609712Y-112279500D01*
X134839951Y-112241080D01*
X135060727Y-112165287D01*
X135266017Y-112054190D01*
X135450220Y-111910818D01*
X135608314Y-111739083D01*
X135642810Y-111686282D01*
X135659191Y-111661210D01*
X135712337Y-111615853D01*
X135781569Y-111606429D01*
X135844904Y-111635931D01*
G37*
%TD.AperFunction*%
%TA.AperFunction,Conductor*%
G36*
X124318168Y-117112185D02*
G01*
X124363923Y-117164989D01*
X124372871Y-117227222D01*
X124374566Y-117227371D01*
X124369526Y-117284974D01*
X125050599Y-117966046D01*
X124969852Y-117978835D01*
X124856955Y-118036359D01*
X124767359Y-118125955D01*
X124709835Y-118238852D01*
X124697046Y-118319598D01*
X124015974Y-117638526D01*
X124015973Y-117638526D01*
X123964868Y-117711512D01*
X123964865Y-117711518D01*
X123962070Y-117717513D01*
X123915897Y-117769951D01*
X123848703Y-117789102D01*
X123781822Y-117768885D01*
X123737307Y-117717511D01*
X123732523Y-117707251D01*
X123601198Y-117519700D01*
X123439300Y-117357802D01*
X123382563Y-117318074D01*
X123338938Y-117263497D01*
X123331746Y-117193999D01*
X123363269Y-117131644D01*
X123423499Y-117096231D01*
X123453687Y-117092500D01*
X124251129Y-117092500D01*
X124318168Y-117112185D01*
G37*
%TD.AperFunction*%
%TA.AperFunction,Conductor*%
G36*
X151327039Y-100476685D02*
G01*
X151372794Y-100529489D01*
X151384000Y-100581000D01*
X151384000Y-124463000D01*
X151364315Y-124530039D01*
X151311511Y-124575794D01*
X151260000Y-124587000D01*
X100508362Y-124587000D01*
X100441323Y-124567315D01*
X100420681Y-124550681D01*
X100366319Y-124496319D01*
X100332834Y-124434996D01*
X100330000Y-124408638D01*
X100330000Y-120523002D01*
X101438034Y-120523002D01*
X101457858Y-120749599D01*
X101457860Y-120749610D01*
X101516730Y-120969317D01*
X101516735Y-120969331D01*
X101612863Y-121175478D01*
X101663974Y-121248472D01*
X102345046Y-120567400D01*
X102357835Y-120648148D01*
X102415359Y-120761045D01*
X102504955Y-120850641D01*
X102617852Y-120908165D01*
X102698599Y-120920953D01*
X102017526Y-121602025D01*
X102090513Y-121653132D01*
X102090521Y-121653136D01*
X102296668Y-121749264D01*
X102296682Y-121749269D01*
X102516389Y-121808139D01*
X102516400Y-121808141D01*
X102742998Y-121827966D01*
X102743002Y-121827966D01*
X102969599Y-121808141D01*
X102969610Y-121808139D01*
X103189317Y-121749269D01*
X103189331Y-121749264D01*
X103395478Y-121653136D01*
X103468471Y-121602024D01*
X102787400Y-120920953D01*
X102868148Y-120908165D01*
X102981045Y-120850641D01*
X103070641Y-120761045D01*
X103128165Y-120648148D01*
X103140953Y-120567400D01*
X103822024Y-121248471D01*
X103873136Y-121175478D01*
X103969264Y-120969331D01*
X103969269Y-120969317D01*
X104028139Y-120749610D01*
X104028141Y-120749599D01*
X104047966Y-120523002D01*
X104047966Y-120522997D01*
X104028141Y-120296400D01*
X104028139Y-120296389D01*
X103969269Y-120076682D01*
X103969264Y-120076668D01*
X103873136Y-119870521D01*
X103873132Y-119870513D01*
X103822025Y-119797526D01*
X103140953Y-120478598D01*
X103128165Y-120397852D01*
X103070641Y-120284955D01*
X102981045Y-120195359D01*
X102868148Y-120137835D01*
X102787401Y-120125046D01*
X103468472Y-119443974D01*
X103395478Y-119392863D01*
X103189331Y-119296735D01*
X103189317Y-119296730D01*
X102969610Y-119237860D01*
X102969599Y-119237858D01*
X102743002Y-119218034D01*
X102742998Y-119218034D01*
X102516400Y-119237858D01*
X102516389Y-119237860D01*
X102296682Y-119296730D01*
X102296673Y-119296734D01*
X102090516Y-119392866D01*
X102090512Y-119392868D01*
X102017526Y-119443973D01*
X102017526Y-119443974D01*
X102698599Y-120125046D01*
X102617852Y-120137835D01*
X102504955Y-120195359D01*
X102415359Y-120284955D01*
X102357835Y-120397852D01*
X102345046Y-120478598D01*
X101663974Y-119797526D01*
X101663973Y-119797526D01*
X101612868Y-119870512D01*
X101612866Y-119870516D01*
X101516734Y-120076673D01*
X101516730Y-120076682D01*
X101457860Y-120296389D01*
X101457858Y-120296400D01*
X101438034Y-120522997D01*
X101438034Y-120523002D01*
X100330000Y-120523002D01*
X100330000Y-116459001D01*
X101429502Y-116459001D01*
X101449456Y-116687081D01*
X101449457Y-116687089D01*
X101508714Y-116908238D01*
X101508718Y-116908249D01*
X101603815Y-117112185D01*
X101605477Y-117115749D01*
X101736802Y-117303300D01*
X101898700Y-117465198D01*
X102086251Y-117596523D01*
X102184644Y-117642404D01*
X102293750Y-117693281D01*
X102293752Y-117693281D01*
X102293757Y-117693284D01*
X102514913Y-117752543D01*
X102677832Y-117766796D01*
X102742998Y-117772498D01*
X102743000Y-117772498D01*
X102743002Y-117772498D01*
X102800021Y-117767509D01*
X102971087Y-117752543D01*
X103192243Y-117693284D01*
X103399749Y-117596523D01*
X103587300Y-117465198D01*
X103749198Y-117303300D01*
X103880523Y-117115749D01*
X103977284Y-116908243D01*
X104036543Y-116687087D01*
X104056498Y-116459000D01*
X104036543Y-116230913D01*
X103977284Y-116009757D01*
X103880523Y-115802251D01*
X103749198Y-115614700D01*
X103587300Y-115452802D01*
X103399749Y-115321477D01*
X103399745Y-115321475D01*
X103192249Y-115224718D01*
X103192238Y-115224714D01*
X102971089Y-115165457D01*
X102971081Y-115165456D01*
X102743002Y-115145502D01*
X102742998Y-115145502D01*
X102514918Y-115165456D01*
X102514910Y-115165457D01*
X102293761Y-115224714D01*
X102293750Y-115224718D01*
X102086254Y-115321475D01*
X102086252Y-115321476D01*
X102086251Y-115321477D01*
X101898700Y-115452802D01*
X101898698Y-115452803D01*
X101898695Y-115452806D01*
X101736806Y-115614695D01*
X101736803Y-115614698D01*
X101736802Y-115614700D01*
X101654767Y-115731856D01*
X101605476Y-115802252D01*
X101605475Y-115802254D01*
X101508718Y-116009750D01*
X101508714Y-116009761D01*
X101449457Y-116230910D01*
X101449456Y-116230918D01*
X101429502Y-116458998D01*
X101429502Y-116459001D01*
X100330000Y-116459001D01*
X100330000Y-112395001D01*
X101429502Y-112395001D01*
X101449456Y-112623081D01*
X101449457Y-112623089D01*
X101508714Y-112844238D01*
X101508718Y-112844249D01*
X101554956Y-112943406D01*
X101605477Y-113051749D01*
X101736802Y-113239300D01*
X101898700Y-113401198D01*
X102086251Y-113532523D01*
X102211091Y-113590736D01*
X102293750Y-113629281D01*
X102293752Y-113629281D01*
X102293757Y-113629284D01*
X102514913Y-113688543D01*
X102677832Y-113702796D01*
X102742998Y-113708498D01*
X102743000Y-113708498D01*
X102743002Y-113708498D01*
X102800021Y-113703509D01*
X102971087Y-113688543D01*
X103192243Y-113629284D01*
X103399749Y-113532523D01*
X103587300Y-113401198D01*
X103749198Y-113239300D01*
X103880523Y-113051749D01*
X103977284Y-112844243D01*
X104036543Y-112623087D01*
X104056498Y-112395000D01*
X104036543Y-112166913D01*
X103977284Y-111945757D01*
X103880523Y-111738251D01*
X103749198Y-111550700D01*
X103587300Y-111388802D01*
X103399749Y-111257477D01*
X103399745Y-111257475D01*
X103192249Y-111160718D01*
X103192238Y-111160714D01*
X102971089Y-111101457D01*
X102971081Y-111101456D01*
X102743002Y-111081502D01*
X102742998Y-111081502D01*
X102514918Y-111101456D01*
X102514910Y-111101457D01*
X102293761Y-111160714D01*
X102293750Y-111160718D01*
X102086254Y-111257475D01*
X102086252Y-111257476D01*
X102077649Y-111263500D01*
X101898700Y-111388802D01*
X101898698Y-111388803D01*
X101898695Y-111388806D01*
X101736806Y-111550695D01*
X101736803Y-111550698D01*
X101736802Y-111550700D01*
X101663998Y-111654674D01*
X101605476Y-111738252D01*
X101605475Y-111738254D01*
X101508718Y-111945750D01*
X101508714Y-111945761D01*
X101449457Y-112166910D01*
X101449456Y-112166918D01*
X101429502Y-112394998D01*
X101429502Y-112395001D01*
X100330000Y-112395001D01*
X100330000Y-108331001D01*
X101429502Y-108331001D01*
X101449456Y-108559081D01*
X101449457Y-108559089D01*
X101508714Y-108780238D01*
X101508718Y-108780249D01*
X101576312Y-108925204D01*
X101605477Y-108987749D01*
X101736802Y-109175300D01*
X101898700Y-109337198D01*
X102086251Y-109468523D01*
X102155727Y-109500920D01*
X102293750Y-109565281D01*
X102293752Y-109565281D01*
X102293757Y-109565284D01*
X102514913Y-109624543D01*
X102677832Y-109638796D01*
X102742998Y-109644498D01*
X102743000Y-109644498D01*
X102743002Y-109644498D01*
X102802013Y-109639335D01*
X102971087Y-109624543D01*
X103192243Y-109565284D01*
X103399749Y-109468523D01*
X103587300Y-109337198D01*
X103749198Y-109175300D01*
X103880523Y-108987749D01*
X103977284Y-108780243D01*
X104036543Y-108559087D01*
X104056498Y-108331000D01*
X104036543Y-108102913D01*
X103977284Y-107881757D01*
X103880523Y-107674251D01*
X103749198Y-107486700D01*
X103587300Y-107324802D01*
X103399749Y-107193477D01*
X103399745Y-107193475D01*
X103192249Y-107096718D01*
X103192238Y-107096714D01*
X102971089Y-107037457D01*
X102971081Y-107037456D01*
X102743002Y-107017502D01*
X102742998Y-107017502D01*
X102514918Y-107037456D01*
X102514910Y-107037457D01*
X102293761Y-107096714D01*
X102293750Y-107096718D01*
X102086254Y-107193475D01*
X102086252Y-107193476D01*
X102086251Y-107193477D01*
X101898700Y-107324802D01*
X101898698Y-107324803D01*
X101898695Y-107324806D01*
X101736806Y-107486695D01*
X101736803Y-107486698D01*
X101736802Y-107486700D01*
X101654767Y-107603856D01*
X101605476Y-107674252D01*
X101605475Y-107674254D01*
X101508718Y-107881750D01*
X101508714Y-107881761D01*
X101449457Y-108102910D01*
X101449456Y-108102918D01*
X101429502Y-108330998D01*
X101429502Y-108331001D01*
X100330000Y-108331001D01*
X100330000Y-103124004D01*
X106172793Y-103124004D01*
X106191592Y-103374866D01*
X106247570Y-103620122D01*
X106247573Y-103620134D01*
X106339483Y-103854316D01*
X106465269Y-104072184D01*
X106622122Y-104268872D01*
X106806538Y-104439984D01*
X107014397Y-104581700D01*
X107014402Y-104581702D01*
X107014403Y-104581703D01*
X107014404Y-104581704D01*
X107152301Y-104648111D01*
X107204161Y-104694933D01*
X107222500Y-104759831D01*
X107222500Y-120853366D01*
X107220761Y-120869113D01*
X107221032Y-120869139D01*
X107220298Y-120876905D01*
X107220298Y-120876908D01*
X107220298Y-120876909D01*
X107220455Y-120881891D01*
X107222439Y-120945016D01*
X107222500Y-120948912D01*
X107222500Y-120976859D01*
X107223018Y-120980958D01*
X107223934Y-120992598D01*
X107225326Y-121036889D01*
X107225327Y-121036891D01*
X107231022Y-121056495D01*
X107234967Y-121075542D01*
X107237526Y-121095797D01*
X107237527Y-121095800D01*
X107237528Y-121095804D01*
X107253838Y-121137000D01*
X107257621Y-121148049D01*
X107269981Y-121190592D01*
X107280372Y-121208162D01*
X107288932Y-121225635D01*
X107296447Y-121244617D01*
X107322491Y-121280463D01*
X107328905Y-121290227D01*
X107351458Y-121328362D01*
X107351462Y-121328366D01*
X107365889Y-121342793D01*
X107378526Y-121357588D01*
X107390528Y-121374107D01*
X107403155Y-121384553D01*
X107424668Y-121402350D01*
X107433309Y-121410213D01*
X109506912Y-123483817D01*
X109516819Y-123496182D01*
X109517029Y-123496009D01*
X109522000Y-123502018D01*
X109547890Y-123526330D01*
X109571665Y-123548655D01*
X109574468Y-123551372D01*
X109594227Y-123571133D01*
X109594232Y-123571137D01*
X109597513Y-123573683D01*
X109606382Y-123581258D01*
X109638680Y-123611587D01*
X109656562Y-123621417D01*
X109672829Y-123632102D01*
X109688960Y-123644615D01*
X109709157Y-123653354D01*
X109729625Y-123662210D01*
X109740104Y-123667344D01*
X109778940Y-123688695D01*
X109798716Y-123693772D01*
X109817123Y-123700074D01*
X109835855Y-123708181D01*
X109879630Y-123715113D01*
X109891045Y-123717478D01*
X109933970Y-123728500D01*
X109954384Y-123728500D01*
X109973783Y-123730027D01*
X109993943Y-123733220D01*
X110038057Y-123729050D01*
X110049726Y-123728500D01*
X132726366Y-123728500D01*
X132742113Y-123730238D01*
X132742139Y-123729968D01*
X132749905Y-123730701D01*
X132749909Y-123730702D01*
X132818017Y-123728560D01*
X132821913Y-123728500D01*
X132849858Y-123728500D01*
X132849860Y-123728499D01*
X132851262Y-123728322D01*
X132853949Y-123727983D01*
X132865608Y-123727064D01*
X132909889Y-123725673D01*
X132929481Y-123719980D01*
X132948538Y-123716032D01*
X132968797Y-123713474D01*
X133010006Y-123697157D01*
X133021043Y-123693379D01*
X133063593Y-123681018D01*
X133081165Y-123670625D01*
X133098632Y-123662068D01*
X133117617Y-123654552D01*
X133153461Y-123628508D01*
X133163230Y-123622092D01*
X133201362Y-123599542D01*
X133215802Y-123585100D01*
X133230592Y-123572470D01*
X133247107Y-123560472D01*
X133275359Y-123526319D01*
X133283203Y-123517699D01*
X133528009Y-123272893D01*
X133589330Y-123239410D01*
X133646143Y-123240374D01*
X133650356Y-123241441D01*
X133650365Y-123241444D01*
X133872431Y-123278500D01*
X134097569Y-123278500D01*
X134319635Y-123241444D01*
X134532574Y-123168342D01*
X134730576Y-123061189D01*
X134908240Y-122922906D01*
X135029594Y-122791082D01*
X135060715Y-122757276D01*
X135060715Y-122757275D01*
X135060722Y-122757268D01*
X135154749Y-122613347D01*
X135207894Y-122567994D01*
X135277125Y-122558570D01*
X135340461Y-122588072D01*
X135360130Y-122610048D01*
X135486890Y-122791078D01*
X135653917Y-122958105D01*
X135847421Y-123093600D01*
X136061507Y-123193429D01*
X136061516Y-123193433D01*
X136275000Y-123250634D01*
X136275000Y-122355501D01*
X136382685Y-122404680D01*
X136489237Y-122420000D01*
X136560763Y-122420000D01*
X136667315Y-122404680D01*
X136775000Y-122355501D01*
X136775000Y-123250633D01*
X136988483Y-123193433D01*
X136988492Y-123193429D01*
X137202578Y-123093600D01*
X137396082Y-122958105D01*
X137563105Y-122791082D01*
X137698600Y-122597578D01*
X137798429Y-122383492D01*
X137798432Y-122383486D01*
X137855636Y-122170000D01*
X136958686Y-122170000D01*
X136984493Y-122129844D01*
X137025000Y-121991889D01*
X137025000Y-121879654D01*
X145289500Y-121879654D01*
X145296011Y-121940202D01*
X145296011Y-121940204D01*
X145347111Y-122077204D01*
X145434739Y-122194261D01*
X145551796Y-122281889D01*
X145688799Y-122332989D01*
X145716050Y-122335918D01*
X145749345Y-122339499D01*
X145749362Y-122339500D01*
X147446638Y-122339500D01*
X147446654Y-122339499D01*
X147473692Y-122336591D01*
X147507201Y-122332989D01*
X147644204Y-122281889D01*
X147761261Y-122194261D01*
X147848889Y-122077204D01*
X147899989Y-121940201D01*
X147903591Y-121906692D01*
X147906499Y-121879654D01*
X147906677Y-121876331D01*
X147906855Y-121876340D01*
X147906856Y-121876335D01*
X147906959Y-121876346D01*
X147908128Y-121876408D01*
X147926185Y-121814915D01*
X147978989Y-121769160D01*
X148011967Y-121763479D01*
X148700046Y-121075400D01*
X148712835Y-121156148D01*
X148770359Y-121269045D01*
X148859955Y-121358641D01*
X148972852Y-121416165D01*
X149053599Y-121428953D01*
X148372526Y-122110025D01*
X148445513Y-122161132D01*
X148445521Y-122161136D01*
X148651668Y-122257264D01*
X148651682Y-122257269D01*
X148871389Y-122316139D01*
X148871400Y-122316141D01*
X149097998Y-122335966D01*
X149098002Y-122335966D01*
X149324599Y-122316141D01*
X149324610Y-122316139D01*
X149544317Y-122257269D01*
X149544331Y-122257264D01*
X149750478Y-122161136D01*
X149823471Y-122110024D01*
X149142400Y-121428953D01*
X149223148Y-121416165D01*
X149336045Y-121358641D01*
X149425641Y-121269045D01*
X149483165Y-121156148D01*
X149495953Y-121075400D01*
X150177024Y-121756471D01*
X150228136Y-121683478D01*
X150324264Y-121477331D01*
X150324269Y-121477317D01*
X150383139Y-121257610D01*
X150383141Y-121257599D01*
X150402966Y-121031002D01*
X150402966Y-121030997D01*
X150383141Y-120804400D01*
X150383139Y-120804389D01*
X150324269Y-120584682D01*
X150324264Y-120584668D01*
X150228136Y-120378521D01*
X150228132Y-120378513D01*
X150177025Y-120305526D01*
X149495953Y-120986598D01*
X149483165Y-120905852D01*
X149425641Y-120792955D01*
X149336045Y-120703359D01*
X149223148Y-120645835D01*
X149142401Y-120633046D01*
X149823472Y-119951974D01*
X149750478Y-119900863D01*
X149544331Y-119804735D01*
X149544317Y-119804730D01*
X149324610Y-119745860D01*
X149324599Y-119745858D01*
X149098002Y-119726034D01*
X149097998Y-119726034D01*
X148871400Y-119745858D01*
X148871389Y-119745860D01*
X148651682Y-119804730D01*
X148651673Y-119804734D01*
X148445516Y-119900866D01*
X148445512Y-119900868D01*
X148372526Y-119951973D01*
X148372526Y-119951974D01*
X149053599Y-120633046D01*
X148972852Y-120645835D01*
X148859955Y-120703359D01*
X148770359Y-120792955D01*
X148712835Y-120905852D01*
X148700046Y-120986598D01*
X148010910Y-120297463D01*
X147972805Y-120289804D01*
X147922623Y-120241188D01*
X147907965Y-120185600D01*
X147906959Y-120185653D01*
X147906856Y-120185665D01*
X147906855Y-120185659D01*
X147906677Y-120185669D01*
X147906499Y-120182345D01*
X147901713Y-120137835D01*
X147899989Y-120121799D01*
X147882067Y-120073750D01*
X147877522Y-120061564D01*
X147848889Y-119984796D01*
X147761261Y-119867739D01*
X147644204Y-119780111D01*
X147507203Y-119729011D01*
X147446654Y-119722500D01*
X147446638Y-119722500D01*
X145749362Y-119722500D01*
X145749345Y-119722500D01*
X145688797Y-119729011D01*
X145688795Y-119729011D01*
X145551795Y-119780111D01*
X145434739Y-119867739D01*
X145347111Y-119984795D01*
X145296011Y-120121795D01*
X145296011Y-120121797D01*
X145289500Y-120182345D01*
X145289500Y-121879654D01*
X137025000Y-121879654D01*
X137025000Y-121848111D01*
X136984493Y-121710156D01*
X136958686Y-121670000D01*
X137855636Y-121670000D01*
X137855635Y-121669999D01*
X137798432Y-121456513D01*
X137798429Y-121456507D01*
X137698600Y-121242422D01*
X137698599Y-121242420D01*
X137563113Y-121048926D01*
X137563108Y-121048920D01*
X137396082Y-120881894D01*
X137202578Y-120746399D01*
X136988492Y-120646570D01*
X136988486Y-120646567D01*
X136775000Y-120589364D01*
X136775000Y-121484498D01*
X136667315Y-121435320D01*
X136560763Y-121420000D01*
X136489237Y-121420000D01*
X136382685Y-121435320D01*
X136275000Y-121484498D01*
X136275000Y-120589364D01*
X136274999Y-120589364D01*
X136061513Y-120646567D01*
X136061507Y-120646570D01*
X135847422Y-120746399D01*
X135847420Y-120746400D01*
X135653926Y-120881886D01*
X135653920Y-120881891D01*
X135486891Y-121048920D01*
X135486890Y-121048922D01*
X135360131Y-121229952D01*
X135305554Y-121273577D01*
X135236055Y-121280769D01*
X135173701Y-121249247D01*
X135154752Y-121226656D01*
X135060722Y-121082732D01*
X135060715Y-121082725D01*
X135060715Y-121082723D01*
X134908243Y-120917097D01*
X134908238Y-120917092D01*
X134730577Y-120778812D01*
X134730572Y-120778808D01*
X134532580Y-120671661D01*
X134532577Y-120671659D01*
X134532574Y-120671658D01*
X134532571Y-120671657D01*
X134532569Y-120671656D01*
X134319637Y-120598556D01*
X134097569Y-120561500D01*
X133998765Y-120561500D01*
X133931726Y-120541815D01*
X133885971Y-120489011D01*
X133876027Y-120419853D01*
X133905052Y-120356297D01*
X133911084Y-120349819D01*
X136622377Y-117638526D01*
X138505058Y-115755844D01*
X140332000Y-115755844D01*
X140338401Y-115815372D01*
X140338403Y-115815379D01*
X140388645Y-115950086D01*
X140388649Y-115950093D01*
X140474809Y-116065187D01*
X140474812Y-116065190D01*
X140589906Y-116151350D01*
X140589913Y-116151354D01*
X140724620Y-116201596D01*
X140724627Y-116201598D01*
X140784155Y-116207999D01*
X140784172Y-116208000D01*
X141482000Y-116208000D01*
X141482000Y-115182189D01*
X141534547Y-115218016D01*
X141664173Y-115258000D01*
X141765724Y-115258000D01*
X141866138Y-115242865D01*
X141982000Y-115187068D01*
X141982000Y-116208000D01*
X142679828Y-116208000D01*
X142679844Y-116207999D01*
X142739372Y-116201598D01*
X142739379Y-116201596D01*
X142874086Y-116151354D01*
X142874093Y-116151350D01*
X142989187Y-116065190D01*
X142989190Y-116065187D01*
X143075350Y-115950093D01*
X143075354Y-115950086D01*
X143125596Y-115815379D01*
X143125598Y-115815372D01*
X143131999Y-115755844D01*
X143132000Y-115755827D01*
X143132000Y-115058000D01*
X142107278Y-115058000D01*
X142155625Y-114974260D01*
X142185810Y-114842008D01*
X142183262Y-114808005D01*
X147938673Y-114808005D01*
X147957948Y-115040622D01*
X148015251Y-115266907D01*
X148109015Y-115480668D01*
X148236686Y-115676084D01*
X148394776Y-115847814D01*
X148394780Y-115847818D01*
X148578983Y-115991190D01*
X148578985Y-115991191D01*
X148578988Y-115991193D01*
X148613279Y-116009750D01*
X148784273Y-116102287D01*
X148898914Y-116141643D01*
X149005045Y-116178079D01*
X149005047Y-116178079D01*
X149005049Y-116178080D01*
X149235288Y-116216500D01*
X149235289Y-116216500D01*
X149468711Y-116216500D01*
X149468712Y-116216500D01*
X149698951Y-116178080D01*
X149919727Y-116102287D01*
X150125017Y-115991190D01*
X150309220Y-115847818D01*
X150467314Y-115676083D01*
X150594984Y-115480669D01*
X150688749Y-115266907D01*
X150746051Y-115040626D01*
X150762509Y-114842008D01*
X150765327Y-114808005D01*
X150765327Y-114807994D01*
X150751007Y-114635179D01*
X150746051Y-114575374D01*
X150688749Y-114349093D01*
X150594984Y-114135331D01*
X150510225Y-114005597D01*
X150467313Y-113939915D01*
X150309223Y-113768185D01*
X150309222Y-113768184D01*
X150309220Y-113768182D01*
X150125017Y-113624810D01*
X150125015Y-113624809D01*
X150125014Y-113624808D01*
X150125011Y-113624806D01*
X149919733Y-113513716D01*
X149919730Y-113513715D01*
X149919727Y-113513713D01*
X149919721Y-113513711D01*
X149919719Y-113513710D01*
X149698954Y-113437920D01*
X149519650Y-113408000D01*
X149468712Y-113399500D01*
X149235288Y-113399500D01*
X149189240Y-113407184D01*
X149005045Y-113437920D01*
X148784280Y-113513710D01*
X148784266Y-113513716D01*
X148578988Y-113624806D01*
X148578985Y-113624808D01*
X148394781Y-113768181D01*
X148394776Y-113768185D01*
X148236686Y-113939915D01*
X148109015Y-114135331D01*
X148015251Y-114349092D01*
X147957948Y-114575377D01*
X147938673Y-114807994D01*
X147938673Y-114808005D01*
X142183262Y-114808005D01*
X142175673Y-114706735D01*
X142126113Y-114580459D01*
X142108203Y-114558000D01*
X143132000Y-114558000D01*
X143132000Y-113860172D01*
X143131999Y-113860155D01*
X143125598Y-113800627D01*
X143125596Y-113800620D01*
X143075354Y-113665913D01*
X143075350Y-113665906D01*
X142989190Y-113550812D01*
X142989187Y-113550809D01*
X142874093Y-113464649D01*
X142874086Y-113464645D01*
X142739379Y-113414403D01*
X142739372Y-113414401D01*
X142679844Y-113408000D01*
X141982000Y-113408000D01*
X141982000Y-114433810D01*
X141929453Y-114397984D01*
X141799827Y-114358000D01*
X141698276Y-114358000D01*
X141597862Y-114373135D01*
X141482000Y-114428931D01*
X141482000Y-113408000D01*
X140784155Y-113408000D01*
X140724627Y-113414401D01*
X140724620Y-113414403D01*
X140589913Y-113464645D01*
X140589906Y-113464649D01*
X140474812Y-113550809D01*
X140474809Y-113550812D01*
X140388649Y-113665906D01*
X140388645Y-113665913D01*
X140338403Y-113800620D01*
X140338401Y-113800627D01*
X140332000Y-113860155D01*
X140332000Y-114558000D01*
X141356722Y-114558000D01*
X141308375Y-114641740D01*
X141278190Y-114773992D01*
X141288327Y-114909265D01*
X141337887Y-115035541D01*
X141355797Y-115058000D01*
X140332000Y-115058000D01*
X140332000Y-115755844D01*
X138505058Y-115755844D01*
X139406815Y-114854087D01*
X139419180Y-114844183D01*
X139419006Y-114843973D01*
X139425009Y-114839005D01*
X139425018Y-114839000D01*
X139471677Y-114789311D01*
X139474356Y-114786546D01*
X139494134Y-114766770D01*
X139496660Y-114763512D01*
X139504246Y-114754629D01*
X139534586Y-114722321D01*
X139544423Y-114704424D01*
X139555097Y-114688174D01*
X139567613Y-114672041D01*
X139585207Y-114631380D01*
X139590341Y-114620900D01*
X139611695Y-114582060D01*
X139616774Y-114562274D01*
X139623072Y-114543882D01*
X139631181Y-114525145D01*
X139638113Y-114481372D01*
X139640478Y-114469953D01*
X139651500Y-114427030D01*
X139651500Y-114406615D01*
X139653027Y-114387214D01*
X139655257Y-114373135D01*
X139656220Y-114367057D01*
X139652050Y-114322942D01*
X139651500Y-114311273D01*
X139651500Y-110803654D01*
X140323500Y-110803654D01*
X140330011Y-110864202D01*
X140330011Y-110864204D01*
X140381111Y-111001204D01*
X140468739Y-111118261D01*
X140585796Y-111205889D01*
X140722799Y-111256989D01*
X140750050Y-111259918D01*
X140783345Y-111263499D01*
X140783362Y-111263500D01*
X142680638Y-111263500D01*
X142680654Y-111263499D01*
X142707692Y-111260591D01*
X142741201Y-111256989D01*
X142878204Y-111205889D01*
X142995261Y-111118261D01*
X143082889Y-111001204D01*
X143133989Y-110864201D01*
X143137591Y-110830692D01*
X143140499Y-110803654D01*
X143140500Y-110803637D01*
X143140500Y-110105000D01*
X147971117Y-110105000D01*
X148023317Y-110311135D01*
X148116516Y-110523609D01*
X148243414Y-110717842D01*
X148400558Y-110888545D01*
X148400562Y-110888548D01*
X148583644Y-111031047D01*
X148583648Y-111031050D01*
X148787697Y-111141476D01*
X148787706Y-111141479D01*
X149007139Y-111216811D01*
X149101999Y-111232640D01*
X149102000Y-111232639D01*
X149102000Y-110229189D01*
X149154547Y-110265016D01*
X149284173Y-110305000D01*
X149385724Y-110305000D01*
X149486138Y-110289865D01*
X149602000Y-110234068D01*
X149602000Y-111232640D01*
X149696860Y-111216811D01*
X149916293Y-111141479D01*
X149916302Y-111141476D01*
X150120351Y-111031050D01*
X150120355Y-111031047D01*
X150303437Y-110888548D01*
X150303441Y-110888545D01*
X150460585Y-110717842D01*
X150587483Y-110523609D01*
X150680682Y-110311135D01*
X150732883Y-110105000D01*
X149727278Y-110105000D01*
X149775625Y-110021260D01*
X149805810Y-109889008D01*
X149795673Y-109753735D01*
X149746113Y-109627459D01*
X149728203Y-109605000D01*
X150732883Y-109605000D01*
X150680682Y-109398864D01*
X150587483Y-109186390D01*
X150460585Y-108992157D01*
X150303441Y-108821454D01*
X150303437Y-108821451D01*
X150120355Y-108678952D01*
X150120351Y-108678949D01*
X149916302Y-108568523D01*
X149916293Y-108568520D01*
X149696861Y-108493188D01*
X149602000Y-108477359D01*
X149602000Y-109480810D01*
X149549453Y-109444984D01*
X149419827Y-109405000D01*
X149318276Y-109405000D01*
X149217862Y-109420135D01*
X149102000Y-109475931D01*
X149102000Y-108477359D01*
X149101999Y-108477359D01*
X149007138Y-108493188D01*
X148787706Y-108568520D01*
X148787697Y-108568523D01*
X148583648Y-108678949D01*
X148583644Y-108678952D01*
X148400562Y-108821451D01*
X148400558Y-108821454D01*
X148243414Y-108992157D01*
X148116516Y-109186390D01*
X148023317Y-109398864D01*
X147971117Y-109605000D01*
X148976722Y-109605000D01*
X148928375Y-109688740D01*
X148898190Y-109820992D01*
X148908327Y-109956265D01*
X148957887Y-110082541D01*
X148975797Y-110105000D01*
X147971117Y-110105000D01*
X143140500Y-110105000D01*
X143140500Y-108906362D01*
X143140499Y-108906345D01*
X143137157Y-108875270D01*
X143133989Y-108845799D01*
X143082889Y-108708796D01*
X142995261Y-108591739D01*
X142878204Y-108504111D01*
X142848919Y-108493188D01*
X142741203Y-108453011D01*
X142680654Y-108446500D01*
X142680638Y-108446500D01*
X140783362Y-108446500D01*
X140783345Y-108446500D01*
X140722797Y-108453011D01*
X140722795Y-108453011D01*
X140585795Y-108504111D01*
X140468739Y-108591739D01*
X140381111Y-108708795D01*
X140330011Y-108845795D01*
X140330011Y-108845797D01*
X140323500Y-108906345D01*
X140323500Y-110803654D01*
X139651500Y-110803654D01*
X139651500Y-104886831D01*
X139671185Y-104819792D01*
X139721699Y-104775111D01*
X139742683Y-104765006D01*
X139859604Y-104708700D01*
X140067462Y-104566984D01*
X140251878Y-104395872D01*
X140408731Y-104199184D01*
X140534517Y-103981316D01*
X140626427Y-103747134D01*
X140682407Y-103501869D01*
X140692007Y-103373766D01*
X140701207Y-103251004D01*
X142343317Y-103251004D01*
X142362021Y-103500597D01*
X142362021Y-103500599D01*
X142417714Y-103744607D01*
X142417720Y-103744626D01*
X142509163Y-103977618D01*
X142634311Y-104194381D01*
X142634318Y-104194392D01*
X142672799Y-104242645D01*
X142672800Y-104242645D01*
X143415452Y-103499993D01*
X143425188Y-103529956D01*
X143513186Y-103668619D01*
X143632903Y-103781040D01*
X143767510Y-103855041D01*
X143026403Y-104596148D01*
X143180658Y-104701317D01*
X143180666Y-104701322D01*
X143406167Y-104809916D01*
X143406165Y-104809916D01*
X143645346Y-104883694D01*
X143645352Y-104883696D01*
X143892843Y-104920999D01*
X143892852Y-104921000D01*
X144143148Y-104921000D01*
X144143156Y-104920999D01*
X144390647Y-104883696D01*
X144390653Y-104883694D01*
X144629833Y-104809916D01*
X144855334Y-104701322D01*
X144855344Y-104701315D01*
X145009595Y-104596148D01*
X144265534Y-103852086D01*
X144333629Y-103825126D01*
X144466492Y-103728595D01*
X144571175Y-103602055D01*
X144619631Y-103499079D01*
X145363197Y-104242645D01*
X145363198Y-104242644D01*
X145401690Y-104194379D01*
X145526836Y-103977618D01*
X145618279Y-103744626D01*
X145618285Y-103744607D01*
X145673978Y-103500599D01*
X145673978Y-103500597D01*
X145692683Y-103251004D01*
X145692683Y-103250995D01*
X145673978Y-103001402D01*
X145673978Y-103001400D01*
X145618285Y-102757392D01*
X145618279Y-102757373D01*
X145526836Y-102524381D01*
X145401688Y-102307618D01*
X145401681Y-102307607D01*
X145363199Y-102259354D01*
X145363198Y-102259353D01*
X144620546Y-103002004D01*
X144610812Y-102972044D01*
X144522814Y-102833381D01*
X144403097Y-102720960D01*
X144268488Y-102646957D01*
X145009595Y-101905850D01*
X144855335Y-101800678D01*
X144855334Y-101800677D01*
X144629832Y-101692083D01*
X144629834Y-101692083D01*
X144390653Y-101618305D01*
X144390647Y-101618303D01*
X144143156Y-101581000D01*
X143892843Y-101581000D01*
X143645352Y-101618303D01*
X143645346Y-101618305D01*
X143406166Y-101692083D01*
X143180664Y-101800679D01*
X143180651Y-101800686D01*
X143026403Y-101905849D01*
X143770466Y-102649912D01*
X143702371Y-102676874D01*
X143569508Y-102773405D01*
X143464825Y-102899945D01*
X143416367Y-103002921D01*
X142672800Y-102259354D01*
X142634311Y-102307617D01*
X142509163Y-102524381D01*
X142417720Y-102757373D01*
X142417714Y-102757392D01*
X142362021Y-103001400D01*
X142362021Y-103001402D01*
X142343317Y-103250995D01*
X142343317Y-103251004D01*
X140701207Y-103251004D01*
X140701207Y-103250995D01*
X140682407Y-103000133D01*
X140675996Y-102972044D01*
X140626427Y-102754866D01*
X140534517Y-102520684D01*
X140408731Y-102302816D01*
X140251878Y-102106128D01*
X140067462Y-101935016D01*
X139870425Y-101800678D01*
X139859607Y-101793302D01*
X139859596Y-101793295D01*
X139632947Y-101684148D01*
X139632949Y-101684148D01*
X139392550Y-101609995D01*
X139392544Y-101609993D01*
X139143793Y-101572500D01*
X139143786Y-101572500D01*
X138892214Y-101572500D01*
X138892206Y-101572500D01*
X138643455Y-101609993D01*
X138643449Y-101609995D01*
X138403054Y-101684147D01*
X138176401Y-101793297D01*
X137968537Y-101935016D01*
X137784123Y-102106126D01*
X137784122Y-102106128D01*
X137627269Y-102302816D01*
X137501483Y-102520683D01*
X137409575Y-102754860D01*
X137409570Y-102754877D01*
X137353592Y-103000133D01*
X137334793Y-103250995D01*
X137334793Y-103251004D01*
X137353592Y-103501866D01*
X137409570Y-103747122D01*
X137409573Y-103747134D01*
X137501483Y-103981316D01*
X137627269Y-104199184D01*
X137784122Y-104395872D01*
X137968538Y-104566984D01*
X138176397Y-104708700D01*
X138176402Y-104708702D01*
X138176403Y-104708703D01*
X138176404Y-104708704D01*
X138314301Y-104775111D01*
X138366161Y-104821933D01*
X138384500Y-104886831D01*
X138384500Y-109947917D01*
X138364815Y-110014956D01*
X138312011Y-110060711D01*
X138242853Y-110070655D01*
X138179297Y-110041630D01*
X138156692Y-110015739D01*
X138148316Y-110002919D01*
X138148313Y-110002916D01*
X137990223Y-109831185D01*
X137990222Y-109831184D01*
X137990220Y-109831182D01*
X137806017Y-109687810D01*
X137806015Y-109687809D01*
X137806014Y-109687808D01*
X137806011Y-109687806D01*
X137600733Y-109576716D01*
X137600730Y-109576715D01*
X137600727Y-109576713D01*
X137600721Y-109576711D01*
X137600719Y-109576710D01*
X137379954Y-109500920D01*
X137185806Y-109468523D01*
X137149712Y-109462500D01*
X136916288Y-109462500D01*
X136880194Y-109468523D01*
X136686045Y-109500920D01*
X136465280Y-109576710D01*
X136465266Y-109576716D01*
X136259988Y-109687806D01*
X136259985Y-109687808D01*
X136075781Y-109831181D01*
X136075776Y-109831185D01*
X135917686Y-110002916D01*
X135917684Y-110002918D01*
X135866808Y-110080790D01*
X135813662Y-110126146D01*
X135744431Y-110135570D01*
X135681095Y-110106068D01*
X135659192Y-110080790D01*
X135608315Y-110002918D01*
X135608313Y-110002916D01*
X135450223Y-109831185D01*
X135450222Y-109831184D01*
X135450220Y-109831182D01*
X135266017Y-109687810D01*
X135266015Y-109687809D01*
X135266014Y-109687808D01*
X135266011Y-109687806D01*
X135060733Y-109576716D01*
X135060730Y-109576715D01*
X135060727Y-109576713D01*
X135060721Y-109576711D01*
X135060719Y-109576710D01*
X134839954Y-109500920D01*
X134645806Y-109468523D01*
X134609712Y-109462500D01*
X134376288Y-109462500D01*
X134340194Y-109468523D01*
X134146045Y-109500920D01*
X133925280Y-109576710D01*
X133925266Y-109576716D01*
X133719988Y-109687806D01*
X133719985Y-109687808D01*
X133535781Y-109831181D01*
X133532010Y-109834653D01*
X133531290Y-109833871D01*
X133475899Y-109867147D01*
X133406061Y-109865034D01*
X133348452Y-109825500D01*
X133328397Y-109790503D01*
X133314683Y-109753735D01*
X133303889Y-109724796D01*
X133216261Y-109607739D01*
X133099204Y-109520111D01*
X132962203Y-109469011D01*
X132901654Y-109462500D01*
X132901638Y-109462500D01*
X131004362Y-109462500D01*
X131004345Y-109462500D01*
X130943797Y-109469011D01*
X130943795Y-109469011D01*
X130806795Y-109520111D01*
X130689739Y-109607739D01*
X130602111Y-109724795D01*
X130551011Y-109861795D01*
X130551011Y-109861797D01*
X130544500Y-109922345D01*
X130544500Y-111442500D01*
X130524815Y-111509539D01*
X130472011Y-111555294D01*
X130420500Y-111566500D01*
X128550152Y-111566500D01*
X128483113Y-111546815D01*
X128474153Y-111540481D01*
X128468871Y-111536384D01*
X128428208Y-111518788D01*
X128417718Y-111513649D01*
X128378893Y-111492305D01*
X128378889Y-111492304D01*
X128359120Y-111487228D01*
X128340714Y-111480926D01*
X128321977Y-111472818D01*
X128321978Y-111472818D01*
X128278216Y-111465887D01*
X128266780Y-111463519D01*
X128252026Y-111459731D01*
X128223865Y-111452500D01*
X128223863Y-111452500D01*
X128203449Y-111452500D01*
X128184050Y-111450973D01*
X128163891Y-111447780D01*
X128163890Y-111447780D01*
X128119776Y-111451950D01*
X128108107Y-111452500D01*
X120367634Y-111452500D01*
X120351886Y-111450761D01*
X120351861Y-111451032D01*
X120344094Y-111450298D01*
X120344091Y-111450298D01*
X120275983Y-111452439D01*
X120272087Y-111452500D01*
X120244136Y-111452500D01*
X120240040Y-111453018D01*
X120228402Y-111453934D01*
X120184111Y-111455326D01*
X120184108Y-111455327D01*
X120164505Y-111461022D01*
X120145459Y-111464966D01*
X120125203Y-111467526D01*
X120125201Y-111467526D01*
X120125199Y-111467527D01*
X120083998Y-111483839D01*
X120072951Y-111487621D01*
X120030406Y-111499982D01*
X120012831Y-111510375D01*
X119995373Y-111518928D01*
X119976383Y-111526448D01*
X119940535Y-111552492D01*
X119930776Y-111558902D01*
X119892637Y-111581457D01*
X119878201Y-111595894D01*
X119863415Y-111608523D01*
X119846893Y-111620528D01*
X119846891Y-111620529D01*
X119846891Y-111620530D01*
X119846888Y-111620533D01*
X119818642Y-111654674D01*
X119810783Y-111663311D01*
X119409666Y-112064428D01*
X119348343Y-112097913D01*
X119293038Y-112097321D01*
X119068713Y-112043465D01*
X118832000Y-112024835D01*
X118595285Y-112043465D01*
X118364404Y-112098895D01*
X118364402Y-112098895D01*
X118145040Y-112189757D01*
X118145037Y-112189759D01*
X117942589Y-112313820D01*
X117942586Y-112313821D01*
X117762031Y-112468031D01*
X117607821Y-112648586D01*
X117607820Y-112648589D01*
X117483759Y-112851037D01*
X117483757Y-112851040D01*
X117392895Y-113070402D01*
X117392895Y-113070404D01*
X117337465Y-113301285D01*
X117318835Y-113538000D01*
X117337465Y-113774714D01*
X117392895Y-114005595D01*
X117392895Y-114005597D01*
X117483757Y-114224959D01*
X117483759Y-114224962D01*
X117607820Y-114427410D01*
X117607821Y-114427413D01*
X117607824Y-114427416D01*
X117762031Y-114607969D01*
X117864959Y-114695878D01*
X117942586Y-114762178D01*
X117942588Y-114762178D01*
X118017352Y-114807994D01*
X118145037Y-114886240D01*
X118145040Y-114886242D01*
X118364403Y-114977104D01*
X118364404Y-114977104D01*
X118364406Y-114977105D01*
X118595289Y-115032535D01*
X118832000Y-115051165D01*
X119068711Y-115032535D01*
X119299594Y-114977105D01*
X119299596Y-114977104D01*
X119299597Y-114977104D01*
X119518959Y-114886242D01*
X119518960Y-114886241D01*
X119518963Y-114886240D01*
X119721416Y-114762176D01*
X119901969Y-114607969D01*
X120056176Y-114427416D01*
X120180240Y-114224963D01*
X120232847Y-114097959D01*
X120271104Y-114005597D01*
X120271104Y-114005596D01*
X120271105Y-114005594D01*
X120326535Y-113774711D01*
X120345165Y-113538000D01*
X120326535Y-113301289D01*
X120272678Y-113076958D01*
X120276169Y-113007178D01*
X120305567Y-112960336D01*
X120510087Y-112755816D01*
X120571409Y-112722334D01*
X120597767Y-112719500D01*
X121063061Y-112719500D01*
X121130100Y-112739185D01*
X121175855Y-112791989D01*
X121185799Y-112861147D01*
X121177623Y-112890948D01*
X121159664Y-112934306D01*
X121155894Y-112943408D01*
X121100465Y-113174285D01*
X121081835Y-113411000D01*
X121100465Y-113647714D01*
X121155895Y-113878595D01*
X121155895Y-113878597D01*
X121246757Y-114097959D01*
X121246759Y-114097962D01*
X121370820Y-114300410D01*
X121370821Y-114300413D01*
X121385094Y-114317124D01*
X121525031Y-114480969D01*
X121641519Y-114580459D01*
X121705586Y-114635178D01*
X121705588Y-114635178D01*
X121765734Y-114672036D01*
X121908037Y-114759240D01*
X121908040Y-114759242D01*
X122127403Y-114850104D01*
X122127404Y-114850104D01*
X122127406Y-114850105D01*
X122358289Y-114905535D01*
X122595000Y-114924165D01*
X122831711Y-114905535D01*
X123062594Y-114850105D01*
X123062596Y-114850104D01*
X123062597Y-114850104D01*
X123281959Y-114759242D01*
X123281960Y-114759241D01*
X123281963Y-114759240D01*
X123484416Y-114635176D01*
X123664969Y-114480969D01*
X123819176Y-114300416D01*
X123943240Y-114097963D01*
X123948778Y-114084595D01*
X124034104Y-113878597D01*
X124034104Y-113878596D01*
X124034105Y-113878594D01*
X124089535Y-113647711D01*
X124108165Y-113411000D01*
X124089535Y-113174289D01*
X124034105Y-112943406D01*
X124012377Y-112890951D01*
X124004909Y-112821484D01*
X124036183Y-112759005D01*
X124096272Y-112723352D01*
X124126939Y-112719500D01*
X126063061Y-112719500D01*
X126130100Y-112739185D01*
X126175855Y-112791989D01*
X126185799Y-112861147D01*
X126177623Y-112890948D01*
X126159664Y-112934306D01*
X126155894Y-112943408D01*
X126100465Y-113174285D01*
X126081835Y-113411000D01*
X126100465Y-113647713D01*
X126154321Y-113872038D01*
X126150830Y-113941820D01*
X126121428Y-113988666D01*
X124320914Y-115789181D01*
X124259591Y-115822666D01*
X124233233Y-115825500D01*
X111581352Y-115825500D01*
X111514313Y-115805815D01*
X111479779Y-115772626D01*
X111369198Y-115614700D01*
X111207300Y-115452802D01*
X111019749Y-115321477D01*
X111019745Y-115321475D01*
X110812249Y-115224718D01*
X110812238Y-115224714D01*
X110591089Y-115165457D01*
X110591081Y-115165456D01*
X110363002Y-115145502D01*
X110362998Y-115145502D01*
X110134918Y-115165456D01*
X110134910Y-115165457D01*
X109913761Y-115224714D01*
X109913750Y-115224718D01*
X109706254Y-115321475D01*
X109706252Y-115321476D01*
X109706251Y-115321477D01*
X109518700Y-115452802D01*
X109518698Y-115452803D01*
X109518695Y-115452806D01*
X109430181Y-115541321D01*
X109368858Y-115574806D01*
X109299166Y-115569822D01*
X109243233Y-115527950D01*
X109218816Y-115462486D01*
X109218500Y-115453640D01*
X109218500Y-113400360D01*
X109238185Y-113333321D01*
X109290989Y-113287566D01*
X109360147Y-113277622D01*
X109423703Y-113306647D01*
X109430181Y-113312679D01*
X109518700Y-113401198D01*
X109706251Y-113532523D01*
X109831091Y-113590736D01*
X109913750Y-113629281D01*
X109913752Y-113629281D01*
X109913757Y-113629284D01*
X110134913Y-113688543D01*
X110297832Y-113702796D01*
X110362998Y-113708498D01*
X110363000Y-113708498D01*
X110363002Y-113708498D01*
X110420021Y-113703509D01*
X110591087Y-113688543D01*
X110812243Y-113629284D01*
X111008003Y-113538000D01*
X112318835Y-113538000D01*
X112337465Y-113774714D01*
X112392895Y-114005595D01*
X112392895Y-114005597D01*
X112483757Y-114224959D01*
X112483759Y-114224962D01*
X112607820Y-114427410D01*
X112607821Y-114427413D01*
X112607824Y-114427416D01*
X112762031Y-114607969D01*
X112864959Y-114695878D01*
X112942586Y-114762178D01*
X112942588Y-114762178D01*
X113017352Y-114807994D01*
X113145037Y-114886240D01*
X113145040Y-114886242D01*
X113364403Y-114977104D01*
X113364404Y-114977104D01*
X113364406Y-114977105D01*
X113595289Y-115032535D01*
X113832000Y-115051165D01*
X114068711Y-115032535D01*
X114299594Y-114977105D01*
X114299596Y-114977104D01*
X114299597Y-114977104D01*
X114518959Y-114886242D01*
X114518960Y-114886241D01*
X114518963Y-114886240D01*
X114721416Y-114762176D01*
X114901969Y-114607969D01*
X115056176Y-114427416D01*
X115180240Y-114224963D01*
X115232847Y-114097959D01*
X115271104Y-114005597D01*
X115271104Y-114005596D01*
X115271105Y-114005594D01*
X115326535Y-113774711D01*
X115345165Y-113538000D01*
X115326535Y-113301289D01*
X115271105Y-113070406D01*
X115271104Y-113070403D01*
X115271104Y-113070402D01*
X115180242Y-112851040D01*
X115180240Y-112851037D01*
X115099634Y-112719500D01*
X115056178Y-112648588D01*
X115056178Y-112648586D01*
X115021340Y-112607797D01*
X114901969Y-112468031D01*
X114782596Y-112366076D01*
X114721413Y-112313821D01*
X114721410Y-112313820D01*
X114518962Y-112189759D01*
X114518959Y-112189757D01*
X114299596Y-112098895D01*
X114068714Y-112043465D01*
X113832000Y-112024835D01*
X113595285Y-112043465D01*
X113364404Y-112098895D01*
X113364402Y-112098895D01*
X113145040Y-112189757D01*
X113145037Y-112189759D01*
X112942589Y-112313820D01*
X112942586Y-112313821D01*
X112762031Y-112468031D01*
X112607821Y-112648586D01*
X112607820Y-112648589D01*
X112483759Y-112851037D01*
X112483757Y-112851040D01*
X112392895Y-113070402D01*
X112392895Y-113070404D01*
X112337465Y-113301285D01*
X112318835Y-113538000D01*
X111008003Y-113538000D01*
X111019749Y-113532523D01*
X111207300Y-113401198D01*
X111369198Y-113239300D01*
X111500523Y-113051749D01*
X111597284Y-112844243D01*
X111656543Y-112623087D01*
X111676498Y-112395000D01*
X111656543Y-112166913D01*
X111597284Y-111945757D01*
X111500523Y-111738251D01*
X111369198Y-111550700D01*
X111207300Y-111388802D01*
X111019749Y-111257477D01*
X111019745Y-111257475D01*
X110812249Y-111160718D01*
X110812238Y-111160714D01*
X110591089Y-111101457D01*
X110591081Y-111101456D01*
X110363002Y-111081502D01*
X110362998Y-111081502D01*
X110134918Y-111101456D01*
X110134910Y-111101457D01*
X109913761Y-111160714D01*
X109913750Y-111160718D01*
X109706254Y-111257475D01*
X109706252Y-111257476D01*
X109697649Y-111263500D01*
X109518700Y-111388802D01*
X109518698Y-111388803D01*
X109518695Y-111388806D01*
X109430181Y-111477321D01*
X109368858Y-111510806D01*
X109299166Y-111505822D01*
X109243233Y-111463950D01*
X109218816Y-111398486D01*
X109218500Y-111389640D01*
X109218500Y-110422765D01*
X109238185Y-110355726D01*
X109254815Y-110335088D01*
X109950569Y-109639333D01*
X110011890Y-109605850D01*
X110070341Y-109607241D01*
X110072200Y-109607739D01*
X110134913Y-109624543D01*
X110297832Y-109638796D01*
X110362998Y-109644498D01*
X110363000Y-109644498D01*
X110363002Y-109644498D01*
X110422013Y-109639335D01*
X110591087Y-109624543D01*
X110812243Y-109565284D01*
X111019749Y-109468523D01*
X111207300Y-109337198D01*
X111369198Y-109175300D01*
X111500523Y-108987749D01*
X111597284Y-108780243D01*
X111649599Y-108585001D01*
X112351502Y-108585001D01*
X112371456Y-108813081D01*
X112371457Y-108813089D01*
X112430714Y-109034238D01*
X112430718Y-109034249D01*
X112496493Y-109175304D01*
X112527477Y-109241749D01*
X112658802Y-109429300D01*
X112820700Y-109591198D01*
X113008251Y-109722523D01*
X113075186Y-109753735D01*
X113215750Y-109819281D01*
X113215752Y-109819281D01*
X113215757Y-109819284D01*
X113436913Y-109878543D01*
X113599832Y-109892796D01*
X113664998Y-109898498D01*
X113665000Y-109898498D01*
X113665002Y-109898498D01*
X113722021Y-109893509D01*
X113893087Y-109878543D01*
X114114243Y-109819284D01*
X114321749Y-109722523D01*
X114509300Y-109591198D01*
X114671198Y-109429300D01*
X114802523Y-109241749D01*
X114899284Y-109034243D01*
X114958543Y-108813087D01*
X114978498Y-108585001D01*
X119971502Y-108585001D01*
X119991456Y-108813081D01*
X119991457Y-108813089D01*
X120050714Y-109034238D01*
X120050718Y-109034249D01*
X120116493Y-109175304D01*
X120147477Y-109241749D01*
X120278802Y-109429300D01*
X120440700Y-109591198D01*
X120628251Y-109722523D01*
X120695186Y-109753735D01*
X120835750Y-109819281D01*
X120835752Y-109819281D01*
X120835757Y-109819284D01*
X121056913Y-109878543D01*
X121219832Y-109892796D01*
X121284998Y-109898498D01*
X121285000Y-109898498D01*
X121285002Y-109898498D01*
X121342021Y-109893509D01*
X121513087Y-109878543D01*
X121734243Y-109819284D01*
X121941749Y-109722523D01*
X122129300Y-109591198D01*
X122291198Y-109429300D01*
X122422523Y-109241749D01*
X122519284Y-109034243D01*
X122578543Y-108813087D01*
X122586017Y-108727654D01*
X123807500Y-108727654D01*
X123814011Y-108788202D01*
X123814011Y-108788204D01*
X123835493Y-108845797D01*
X123865111Y-108925204D01*
X123952739Y-109042261D01*
X124069796Y-109129889D01*
X124184163Y-109172546D01*
X124206793Y-109180987D01*
X124206799Y-109180989D01*
X124234050Y-109183918D01*
X124267345Y-109187499D01*
X124267362Y-109187500D01*
X125414638Y-109187500D01*
X125414654Y-109187499D01*
X125441692Y-109184591D01*
X125475201Y-109180989D01*
X125475205Y-109180987D01*
X125475207Y-109180987D01*
X125612199Y-109129891D01*
X125612199Y-109129890D01*
X125612204Y-109129889D01*
X125612207Y-109129886D01*
X125619989Y-109125638D01*
X125621519Y-109128440D01*
X125672255Y-109109503D01*
X125717121Y-109114523D01*
X125908399Y-109172546D01*
X125908398Y-109172546D01*
X125926563Y-109174335D01*
X126111000Y-109192501D01*
X126313601Y-109172546D01*
X126508417Y-109113450D01*
X126687549Y-109017701D01*
X126755949Y-109003460D01*
X126804448Y-109017700D01*
X126952645Y-109096913D01*
X126983575Y-109113446D01*
X126983583Y-109113450D01*
X127178399Y-109172546D01*
X127178398Y-109172546D01*
X127196563Y-109174335D01*
X127381000Y-109192501D01*
X127583601Y-109172546D01*
X127778417Y-109113450D01*
X127957960Y-109017482D01*
X128115331Y-108888331D01*
X128170218Y-108821451D01*
X128244483Y-108730959D01*
X128244485Y-108730954D01*
X128246249Y-108727654D01*
X128340450Y-108551417D01*
X128399546Y-108356601D01*
X128414500Y-108204775D01*
X128414500Y-107653225D01*
X128399546Y-107501399D01*
X128340450Y-107306583D01*
X128332365Y-107291457D01*
X128244483Y-107127041D01*
X128244480Y-107127037D01*
X128115331Y-106969668D01*
X127957961Y-106840519D01*
X127957954Y-106840514D01*
X127778424Y-106744553D01*
X127778421Y-106744552D01*
X127778420Y-106744551D01*
X127778417Y-106744550D01*
X127583601Y-106685454D01*
X127583599Y-106685453D01*
X127583601Y-106685453D01*
X127381000Y-106665499D01*
X127178400Y-106685453D01*
X127063374Y-106720345D01*
X126983583Y-106744550D01*
X126983580Y-106744551D01*
X126983578Y-106744552D01*
X126983575Y-106744553D01*
X126804453Y-106840296D01*
X126736050Y-106854538D01*
X126687547Y-106840296D01*
X126508424Y-106744553D01*
X126508421Y-106744552D01*
X126508420Y-106744551D01*
X126508417Y-106744550D01*
X126313601Y-106685454D01*
X126313599Y-106685453D01*
X126313601Y-106685453D01*
X126111000Y-106665499D01*
X125908400Y-106685453D01*
X125717126Y-106743475D01*
X125647259Y-106744098D01*
X125620745Y-106730975D01*
X125619988Y-106732362D01*
X125612209Y-106728115D01*
X125612204Y-106728111D01*
X125557758Y-106707803D01*
X125475203Y-106677011D01*
X125414654Y-106670500D01*
X125414638Y-106670500D01*
X124267362Y-106670500D01*
X124267345Y-106670500D01*
X124206797Y-106677011D01*
X124206795Y-106677011D01*
X124069795Y-106728111D01*
X123952739Y-106815739D01*
X123865111Y-106932795D01*
X123814011Y-107069795D01*
X123814011Y-107069797D01*
X123807500Y-107130345D01*
X123807500Y-108727654D01*
X122586017Y-108727654D01*
X122598498Y-108585000D01*
X122597056Y-108568523D01*
X122591421Y-108504111D01*
X122578543Y-108356913D01*
X122519284Y-108135757D01*
X122422523Y-107928251D01*
X122291198Y-107740700D01*
X122129300Y-107578802D01*
X121941749Y-107447477D01*
X121941745Y-107447475D01*
X121734249Y-107350718D01*
X121734238Y-107350714D01*
X121513089Y-107291457D01*
X121513081Y-107291456D01*
X121285002Y-107271502D01*
X121284998Y-107271502D01*
X121056918Y-107291456D01*
X121056910Y-107291457D01*
X120835761Y-107350714D01*
X120835750Y-107350718D01*
X120628254Y-107447475D01*
X120628252Y-107447476D01*
X120628251Y-107447477D01*
X120440700Y-107578802D01*
X120440698Y-107578803D01*
X120440695Y-107578806D01*
X120278806Y-107740695D01*
X120147476Y-107928252D01*
X120147475Y-107928254D01*
X120050718Y-108135750D01*
X120050714Y-108135761D01*
X119991457Y-108356910D01*
X119991456Y-108356918D01*
X119971502Y-108584998D01*
X119971502Y-108585001D01*
X114978498Y-108585001D01*
X114978498Y-108585000D01*
X114977056Y-108568523D01*
X114971421Y-108504111D01*
X114958543Y-108356913D01*
X114899284Y-108135757D01*
X114802523Y-107928251D01*
X114671198Y-107740700D01*
X114509300Y-107578802D01*
X114321749Y-107447477D01*
X114321745Y-107447475D01*
X114114249Y-107350718D01*
X114114238Y-107350714D01*
X113893089Y-107291457D01*
X113893081Y-107291456D01*
X113665002Y-107271502D01*
X113664998Y-107271502D01*
X113436918Y-107291456D01*
X113436910Y-107291457D01*
X113215761Y-107350714D01*
X113215750Y-107350718D01*
X113008254Y-107447475D01*
X113008252Y-107447476D01*
X113008251Y-107447477D01*
X112820700Y-107578802D01*
X112820698Y-107578803D01*
X112820695Y-107578806D01*
X112658806Y-107740695D01*
X112527476Y-107928252D01*
X112527475Y-107928254D01*
X112430718Y-108135750D01*
X112430714Y-108135761D01*
X112371457Y-108356910D01*
X112371456Y-108356918D01*
X112351502Y-108584998D01*
X112351502Y-108585001D01*
X111649599Y-108585001D01*
X111656543Y-108559087D01*
X111676498Y-108331000D01*
X111656543Y-108102913D01*
X111597284Y-107881757D01*
X111500523Y-107674251D01*
X111369198Y-107486700D01*
X111207300Y-107324802D01*
X111019749Y-107193477D01*
X111019745Y-107193475D01*
X110812249Y-107096718D01*
X110812238Y-107096714D01*
X110591089Y-107037457D01*
X110591081Y-107037456D01*
X110363002Y-107017502D01*
X110362998Y-107017502D01*
X110134918Y-107037456D01*
X110134910Y-107037457D01*
X109913761Y-107096714D01*
X109913750Y-107096718D01*
X109706254Y-107193475D01*
X109706252Y-107193476D01*
X109706251Y-107193477D01*
X109518700Y-107324802D01*
X109518698Y-107324803D01*
X109518695Y-107324806D01*
X109356806Y-107486695D01*
X109356803Y-107486698D01*
X109356802Y-107486700D01*
X109274767Y-107603856D01*
X109225476Y-107674252D01*
X109225475Y-107674254D01*
X109128718Y-107881750D01*
X109128714Y-107881761D01*
X109069457Y-108102910D01*
X109069456Y-108102918D01*
X109049502Y-108330998D01*
X109049502Y-108331001D01*
X109069456Y-108559081D01*
X109069458Y-108559091D01*
X109086758Y-108623655D01*
X109085095Y-108693504D01*
X109054664Y-108743429D01*
X108701181Y-109096913D01*
X108639858Y-109130398D01*
X108570167Y-109125414D01*
X108514233Y-109083543D01*
X108489816Y-109018078D01*
X108489500Y-109009232D01*
X108489500Y-104759831D01*
X108509185Y-104692792D01*
X108559699Y-104648111D01*
X108697596Y-104581704D01*
X108697596Y-104581703D01*
X108697604Y-104581700D01*
X108905462Y-104439984D01*
X109089878Y-104268872D01*
X109246731Y-104072184D01*
X109372517Y-103854316D01*
X109464427Y-103620134D01*
X109520407Y-103374869D01*
X109539207Y-103124004D01*
X111172793Y-103124004D01*
X111191592Y-103374866D01*
X111247570Y-103620122D01*
X111247573Y-103620134D01*
X111339483Y-103854316D01*
X111465269Y-104072184D01*
X111622122Y-104268872D01*
X111806538Y-104439984D01*
X112014397Y-104581700D01*
X112241055Y-104690853D01*
X112481451Y-104765005D01*
X112481452Y-104765005D01*
X112481455Y-104765006D01*
X112730206Y-104802499D01*
X112730211Y-104802499D01*
X112730214Y-104802500D01*
X112730215Y-104802500D01*
X112981785Y-104802500D01*
X112981786Y-104802500D01*
X113038180Y-104794000D01*
X113230544Y-104765006D01*
X113230545Y-104765005D01*
X113230549Y-104765005D01*
X113470945Y-104690853D01*
X113697604Y-104581700D01*
X113905462Y-104439984D01*
X114089878Y-104268872D01*
X114246731Y-104072184D01*
X114372517Y-103854316D01*
X114464427Y-103620134D01*
X114520407Y-103374869D01*
X114539207Y-103124004D01*
X116181317Y-103124004D01*
X116200021Y-103373597D01*
X116200021Y-103373599D01*
X116255714Y-103617607D01*
X116255720Y-103617626D01*
X116347163Y-103850618D01*
X116472311Y-104067381D01*
X116472318Y-104067392D01*
X116510799Y-104115645D01*
X116510800Y-104115645D01*
X117253452Y-103372993D01*
X117263188Y-103402956D01*
X117351186Y-103541619D01*
X117470903Y-103654040D01*
X117605510Y-103728041D01*
X116864403Y-104469148D01*
X117018658Y-104574317D01*
X117018666Y-104574322D01*
X117244167Y-104682916D01*
X117244165Y-104682916D01*
X117483346Y-104756694D01*
X117483352Y-104756696D01*
X117730843Y-104793999D01*
X117730852Y-104794000D01*
X117981148Y-104794000D01*
X117981156Y-104793999D01*
X118228647Y-104756696D01*
X118228653Y-104756694D01*
X118467833Y-104682916D01*
X118693334Y-104574322D01*
X118693344Y-104574315D01*
X118847595Y-104469148D01*
X118103534Y-103725086D01*
X118171629Y-103698126D01*
X118304492Y-103601595D01*
X118409175Y-103475055D01*
X118457631Y-103372079D01*
X119201197Y-104115645D01*
X119201198Y-104115644D01*
X119239690Y-104067379D01*
X119364836Y-103850618D01*
X119456279Y-103617626D01*
X119456285Y-103617607D01*
X119511978Y-103373599D01*
X119511978Y-103373597D01*
X119521165Y-103251004D01*
X132334793Y-103251004D01*
X132353592Y-103501866D01*
X132409570Y-103747122D01*
X132409573Y-103747134D01*
X132501483Y-103981316D01*
X132627269Y-104199184D01*
X132784122Y-104395872D01*
X132968538Y-104566984D01*
X133176397Y-104708700D01*
X133403055Y-104817853D01*
X133643451Y-104892005D01*
X133643452Y-104892005D01*
X133643455Y-104892006D01*
X133892206Y-104929499D01*
X133892211Y-104929499D01*
X133892214Y-104929500D01*
X133892215Y-104929500D01*
X134143785Y-104929500D01*
X134143786Y-104929500D01*
X134200180Y-104921000D01*
X134392544Y-104892006D01*
X134392545Y-104892005D01*
X134392549Y-104892005D01*
X134632945Y-104817853D01*
X134859604Y-104708700D01*
X135067462Y-104566984D01*
X135251878Y-104395872D01*
X135408731Y-104199184D01*
X135534517Y-103981316D01*
X135626427Y-103747134D01*
X135682407Y-103501869D01*
X135692007Y-103373766D01*
X135701207Y-103251004D01*
X135701207Y-103250995D01*
X135682407Y-103000133D01*
X135675996Y-102972044D01*
X135626427Y-102754866D01*
X135534517Y-102520684D01*
X135408731Y-102302816D01*
X135251878Y-102106128D01*
X135067462Y-101935016D01*
X134870425Y-101800678D01*
X134859607Y-101793302D01*
X134859596Y-101793295D01*
X134632947Y-101684148D01*
X134632949Y-101684148D01*
X134392550Y-101609995D01*
X134392544Y-101609993D01*
X134143793Y-101572500D01*
X134143786Y-101572500D01*
X133892214Y-101572500D01*
X133892206Y-101572500D01*
X133643455Y-101609993D01*
X133643449Y-101609995D01*
X133403054Y-101684147D01*
X133176401Y-101793297D01*
X132968537Y-101935016D01*
X132784123Y-102106126D01*
X132784122Y-102106128D01*
X132627269Y-102302816D01*
X132501483Y-102520683D01*
X132409575Y-102754860D01*
X132409570Y-102754877D01*
X132353592Y-103000133D01*
X132334793Y-103250995D01*
X132334793Y-103251004D01*
X119521165Y-103251004D01*
X119530683Y-103124004D01*
X119530683Y-103123995D01*
X119511978Y-102874402D01*
X119511978Y-102874400D01*
X119456285Y-102630392D01*
X119456279Y-102630373D01*
X119364836Y-102397381D01*
X119239688Y-102180618D01*
X119239681Y-102180607D01*
X119201199Y-102132354D01*
X119201198Y-102132353D01*
X118458546Y-102875004D01*
X118448812Y-102845044D01*
X118360814Y-102706381D01*
X118241097Y-102593960D01*
X118106488Y-102519957D01*
X118847595Y-101778850D01*
X118693335Y-101673678D01*
X118693334Y-101673677D01*
X118467832Y-101565083D01*
X118467834Y-101565083D01*
X118228653Y-101491305D01*
X118228647Y-101491303D01*
X117981156Y-101454000D01*
X117730843Y-101454000D01*
X117483352Y-101491303D01*
X117483346Y-101491305D01*
X117244166Y-101565083D01*
X117018664Y-101673679D01*
X117018651Y-101673686D01*
X116864403Y-101778849D01*
X117608466Y-102522912D01*
X117540371Y-102549874D01*
X117407508Y-102646405D01*
X117302825Y-102772945D01*
X117254367Y-102875921D01*
X116510800Y-102132354D01*
X116472311Y-102180617D01*
X116347163Y-102397381D01*
X116255720Y-102630373D01*
X116255714Y-102630392D01*
X116200021Y-102874400D01*
X116200021Y-102874402D01*
X116181317Y-103123995D01*
X116181317Y-103124004D01*
X114539207Y-103124004D01*
X114539207Y-103124000D01*
X114533552Y-103048543D01*
X114520407Y-102873133D01*
X114497540Y-102772945D01*
X114464427Y-102627866D01*
X114372517Y-102393684D01*
X114246731Y-102175816D01*
X114089878Y-101979128D01*
X113905462Y-101808016D01*
X113894699Y-101800678D01*
X113697607Y-101666302D01*
X113697596Y-101666295D01*
X113470947Y-101557148D01*
X113470949Y-101557148D01*
X113230550Y-101482995D01*
X113230544Y-101482993D01*
X112981793Y-101445500D01*
X112981786Y-101445500D01*
X112730214Y-101445500D01*
X112730206Y-101445500D01*
X112481455Y-101482993D01*
X112481449Y-101482995D01*
X112241054Y-101557147D01*
X112014401Y-101666297D01*
X111806537Y-101808016D01*
X111622123Y-101979126D01*
X111622122Y-101979128D01*
X111465269Y-102175816D01*
X111339483Y-102393683D01*
X111247575Y-102627860D01*
X111247570Y-102627877D01*
X111191592Y-102873133D01*
X111172793Y-103123995D01*
X111172793Y-103124004D01*
X109539207Y-103124004D01*
X109539207Y-103124000D01*
X109533552Y-103048543D01*
X109520407Y-102873133D01*
X109497540Y-102772945D01*
X109464427Y-102627866D01*
X109372517Y-102393684D01*
X109246731Y-102175816D01*
X109089878Y-101979128D01*
X108905462Y-101808016D01*
X108894699Y-101800678D01*
X108697607Y-101666302D01*
X108697596Y-101666295D01*
X108470947Y-101557148D01*
X108470949Y-101557148D01*
X108230550Y-101482995D01*
X108230544Y-101482993D01*
X107981793Y-101445500D01*
X107981786Y-101445500D01*
X107730214Y-101445500D01*
X107730206Y-101445500D01*
X107481455Y-101482993D01*
X107481449Y-101482995D01*
X107241054Y-101557147D01*
X107014401Y-101666297D01*
X106806537Y-101808016D01*
X106622123Y-101979126D01*
X106622122Y-101979128D01*
X106465269Y-102175816D01*
X106339483Y-102393683D01*
X106247575Y-102627860D01*
X106247570Y-102627877D01*
X106191592Y-102873133D01*
X106172793Y-103123995D01*
X106172793Y-103124004D01*
X100330000Y-103124004D01*
X100330000Y-100581000D01*
X100349685Y-100513961D01*
X100402489Y-100468206D01*
X100454000Y-100457000D01*
X151260000Y-100457000D01*
X151327039Y-100476685D01*
G37*
%TD.AperFunction*%
%TD*%
M02*
