M48
; DRILL file {KiCad 7.0.11+dfsg-1build4} date Fri 30 Jan 2026 05:10:22 PM EST
; FORMAT={-:-/ absolute / metric / decimal}
; #@! TF.CreationDate,2026-01-30T17:10:22-05:00
; #@! TF.GenerationSoftware,Kicad,Pcbnew,7.0.11+dfsg-1build4
; #@! TF.FileFunction,Plated,1,2,PTH
FMAT,2
METRIC
; #@! TA.AperFunction,Plated,PTH,ViaDrill
T1C0.300
; #@! TA.AperFunction,Plated,PTH,ComponentDrill
T2C0.800
; #@! TA.AperFunction,Plated,PTH,ComponentDrill
T3C0.900
; #@! TA.AperFunction,Plated,PTH,ComponentDrill
T4C1.000
; #@! TA.AperFunction,Plated,PTH,ComponentDrill
T5C1.300
%
G90
G05
T1
X150.572Y-142.102
X157.748Y-118.01
T2
X101.79Y-133.0
X101.88Y-112.4
X101.88Y-129.5
X101.89Y-108.9
X101.89Y-136.6
X102.4Y-118.1
X104.9Y-118.1
X108.3Y-117.6
X108.3Y-120.14
X108.3Y-122.68
X108.3Y-125.22
X109.41Y-133.0
X109.5Y-112.4
X109.5Y-129.5
X109.51Y-108.9
X109.51Y-136.6
X112.35Y-112.6
X113.1Y-130.2
X113.7Y-137.5
X114.85Y-112.6
X115.7Y-137.5
X115.92Y-117.6
X115.92Y-120.14
X115.92Y-122.68
X115.92Y-125.22
X118.1Y-130.2
X118.28Y-118.5
X118.29Y-114.8
X118.345Y-107.8
X120.345Y-107.8
X120.38Y-138.7
X120.5Y-135.1
X121.3Y-131.1
X121.5Y-123.2
X121.5Y-127.1
X125.9Y-118.5
X125.91Y-114.8
X126.3Y-131.1
X126.5Y-123.2
X126.5Y-127.1
X128.0Y-138.7
X128.12Y-135.1
X130.325Y-114.48
X130.325Y-122.1
X130.68Y-125.3
X130.68Y-132.0
X130.68Y-135.4
X130.69Y-128.6
X130.69Y-138.8
X132.865Y-114.48
X132.865Y-122.1
X135.405Y-114.48
X135.405Y-122.1
X137.945Y-114.48
X137.945Y-122.1
X138.3Y-125.3
X138.3Y-132.0
X138.3Y-135.4
X138.31Y-128.6
X138.31Y-138.8
X140.485Y-114.48
X140.485Y-122.1
X140.98Y-110.9
X141.5Y-107.0
X141.6Y-125.7
X141.6Y-128.24
X141.6Y-130.78
X141.6Y-133.32
X143.025Y-114.48
X143.025Y-122.1
X145.565Y-114.48
X145.565Y-122.1
X146.5Y-107.0
X148.105Y-114.48
X148.105Y-122.1
X148.6Y-110.9
X149.22Y-125.7
X149.22Y-128.24
X149.22Y-130.78
X149.22Y-133.32
X152.38Y-131.1
X152.4Y-142.05
X152.4Y-144.55
X152.48Y-110.2
X152.48Y-117.2
X152.48Y-124.2
X152.49Y-106.5
X152.49Y-113.8
X152.49Y-120.8
X152.58Y-134.6
X153.6Y-127.6
X153.7Y-138.2
X157.3Y-143.4
X158.6Y-127.6
X158.7Y-138.2
X159.3Y-143.4
X160.0Y-131.1
X160.1Y-110.2
X160.1Y-117.2
X160.1Y-124.2
X160.11Y-106.5
X160.11Y-113.8
X160.11Y-120.8
X160.2Y-134.6
T3
X141.49Y-137.3
X141.58Y-140.9
X149.11Y-137.3
X149.2Y-140.9
T4
X127.28Y-143.8
X129.82Y-143.8
X132.36Y-143.8
X134.9Y-143.8
T5
X106.0Y-102.4
X111.0Y-102.4
X116.0Y-102.4
X126.8Y-102.4
X131.8Y-102.4
X136.8Y-102.4
X147.2Y-102.4
X152.2Y-102.4
X157.2Y-102.4
T4
X127.138Y-109.105G85X127.138Y-107.905
G05
X131.773Y-109.105G85X131.773Y-107.905
G05
X136.409Y-109.105G85X136.409Y-107.905
G05
M30
