%TF.GenerationSoftware,KiCad,Pcbnew,7.0.11+dfsg-1build4*%
%TF.CreationDate,2026-02-01T22:03:41-05:00*%
%TF.ProjectId,harmonicpercolator,6861726d-6f6e-4696-9370-6572636f6c61,rev?*%
%TF.SameCoordinates,Original*%
%TF.FileFunction,Soldermask,Bot*%
%TF.FilePolarity,Negative*%
%FSLAX46Y46*%
G04 Gerber Fmt 4.6, Leading zero omitted, Abs format (unit mm)*
G04 Created by KiCad (PCBNEW 7.0.11+dfsg-1build4) date 2026-02-01 22:03:41*
%MOMM*%
%LPD*%
G01*
G04 APERTURE LIST*
%ADD10R,1.800000X1.800000*%
%ADD11O,1.800000X1.800000*%
%ADD12C,1.600000*%
%ADD13O,1.600000X1.600000*%
%ADD14C,2.340000*%
%ADD15C,2.000000*%
%ADD16R,1.700000X1.700000*%
%ADD17O,1.700000X1.700000*%
%ADD18R,1.050000X1.500000*%
%ADD19O,1.050000X1.500000*%
%ADD20R,1.600000X1.600000*%
G04 APERTURE END LIST*
D10*
%TO.C,Q1*%
X131953000Y-110871000D03*
D11*
X134493000Y-110871000D03*
X137033000Y-110871000D03*
%TD*%
D12*
%TO.C,R4*%
X102743000Y-120523000D03*
D13*
X110363000Y-120523000D03*
%TD*%
D14*
%TO.C,RV2*%
X144018000Y-103251000D03*
X139018000Y-103251000D03*
X134018000Y-103251000D03*
%TD*%
D15*
%TO.C,C5*%
X122595000Y-113411000D03*
X127595000Y-113411000D03*
%TD*%
D12*
%TO.C,C1*%
X122595000Y-118364000D03*
X125095000Y-118364000D03*
%TD*%
D16*
%TO.C,J1*%
X128905000Y-121920000D03*
D17*
X131445000Y-121920000D03*
X133985000Y-121920000D03*
X136525000Y-121920000D03*
%TD*%
D18*
%TO.C,Q2*%
X124841000Y-107929000D03*
D19*
X126111000Y-107929000D03*
X127381000Y-107929000D03*
%TD*%
D20*
%TO.C,C4*%
X146598000Y-121031000D03*
D12*
X149098000Y-121031000D03*
%TD*%
D15*
%TO.C,C3*%
X113745000Y-118110000D03*
X118745000Y-118110000D03*
%TD*%
%TO.C,C2*%
X113832000Y-113538000D03*
X118832000Y-113538000D03*
%TD*%
D12*
%TO.C,R2*%
X110363000Y-112395000D03*
D13*
X102743000Y-112395000D03*
%TD*%
D12*
%TO.C,R3*%
X102743000Y-116459000D03*
D13*
X110363000Y-116459000D03*
%TD*%
D12*
%TO.C,R1*%
X110363000Y-108331000D03*
D13*
X102743000Y-108331000D03*
%TD*%
D10*
%TO.C,D2*%
X141732000Y-114808000D03*
D11*
X149352000Y-114808000D03*
%TD*%
D12*
%TO.C,R5*%
X113665000Y-108585000D03*
D13*
X121285000Y-108585000D03*
%TD*%
D14*
%TO.C,RV1*%
X117856000Y-103124000D03*
X112856000Y-103124000D03*
X107856000Y-103124000D03*
%TD*%
D10*
%TO.C,D1*%
X141732000Y-109855000D03*
D11*
X149352000Y-109855000D03*
%TD*%
M02*
