M48
; DRILL file {KiCad 7.0.11+dfsg-1build4} date Wed 28 Jan 2026 10:49:47 PM EST
; FORMAT={-:-/ absolute / metric / decimal}
; #@! TF.CreationDate,2026-01-28T22:49:47-05:00
; #@! TF.GenerationSoftware,Kicad,Pcbnew,7.0.11+dfsg-1build4
; #@! TF.FileFunction,Plated,1,2,PTH
FMAT,2
METRIC
; #@! TA.AperFunction,Plated,PTH,ViaDrill
T1C0.400
; #@! TA.AperFunction,Plated,PTH,ComponentDrill
T2C0.750
; #@! TA.AperFunction,Plated,PTH,ComponentDrill
T3C0.800
; #@! TA.AperFunction,Plated,PTH,ComponentDrill
T4C0.900
; #@! TA.AperFunction,Plated,PTH,ComponentDrill
T5C1.000
%
G90
G05
T1
X102.311Y-111.912
X106.121Y-109.474
X106.121Y-109.474
X111.608Y-124.104
X129.642Y-121.26
T2
X111.252Y-155.088
X112.522Y-155.088
X113.792Y-155.088
T3
X102.0Y-148.2
X102.0Y-158.36
X102.25Y-130.5
X102.25Y-135.5
X105.2Y-148.2
X105.2Y-158.36
X108.475Y-131.125
X108.475Y-133.665
X108.475Y-136.205
X108.475Y-138.745
X108.475Y-141.285
X108.475Y-143.825
X108.475Y-146.365
X115.57Y-116.332
X115.57Y-126.492
X116.0Y-102.362
X116.0Y-112.522
X116.095Y-131.125
X116.095Y-133.665
X116.095Y-136.205
X116.095Y-138.745
X116.095Y-141.285
X116.095Y-143.825
X116.095Y-146.365
X118.872Y-127.0
X120.396Y-130.342
X120.396Y-135.342
X120.396Y-138.47
X120.396Y-143.47
X125.476Y-132.588
X125.476Y-135.89
X125.476Y-139.446
X125.476Y-142.748
X125.476Y-146.05
X125.476Y-149.352
X127.0Y-118.11
X127.07Y-122.428
X129.032Y-127.0
X131.866Y-126.746
X134.874Y-106.466
X134.874Y-111.466
X135.636Y-132.588
X135.636Y-135.89
X135.636Y-139.446
X135.636Y-142.748
X135.636Y-146.05
X135.636Y-149.352
X136.866Y-126.746
X137.16Y-118.11
X137.23Y-122.428
X140.701Y-131.587
X140.701Y-134.127
X140.701Y-136.667
X140.701Y-139.207
X140.701Y-141.747
X140.701Y-144.287
X140.701Y-146.827
X140.701Y-149.367
X140.827Y-155.8
X142.827Y-155.8
X147.154Y-154.686
X148.321Y-131.587
X148.321Y-134.127
X148.321Y-136.667
X148.321Y-139.207
X148.321Y-141.747
X148.321Y-144.287
X148.321Y-146.827
X148.321Y-149.367
X149.654Y-154.686
T4
X101.525Y-139.3
X101.6Y-144.272
X104.065Y-139.3
X104.14Y-144.272
X119.25Y-116.19
X119.25Y-123.81
X122.75Y-116.19
X122.75Y-123.81
X126.746Y-152.654
X134.366Y-152.654
T5
X104.25Y-113.3
X104.25Y-127.8
X106.75Y-113.3
X106.75Y-127.8
X109.25Y-113.3
X109.25Y-127.8
X121.168Y-157.988
X123.0Y-113.3
X123.708Y-157.988
X125.5Y-113.3
X126.248Y-157.988
X128.0Y-113.3
X128.788Y-157.988
X142.75Y-113.3
X142.75Y-127.8
X145.25Y-113.3
X145.25Y-127.8
X147.75Y-113.3
X147.75Y-127.8
M30
