%TF.GenerationSoftware,KiCad,Pcbnew,7.0.11+dfsg-1build4*%
%TF.CreationDate,2026-01-28T22:49:45-05:00*%
%TF.ProjectId,engineers_thumb,656e6769-6e65-4657-9273-5f7468756d62,rev?*%
%TF.SameCoordinates,Original*%
%TF.FileFunction,Copper,L2,Bot*%
%TF.FilePolarity,Positive*%
%FSLAX46Y46*%
G04 Gerber Fmt 4.6, Leading zero omitted, Abs format (unit mm)*
G04 Created by KiCad (PCBNEW 7.0.11+dfsg-1build4) date 2026-01-28 22:49:45*
%MOMM*%
%LPD*%
G01*
G04 APERTURE LIST*
%TA.AperFunction,WasherPad*%
%ADD10C,4.000000*%
%TD*%
%TA.AperFunction,ComponentPad*%
%ADD11C,1.800000*%
%TD*%
%TA.AperFunction,ComponentPad*%
%ADD12C,1.600000*%
%TD*%
%TA.AperFunction,ComponentPad*%
%ADD13O,1.600000X1.600000*%
%TD*%
%TA.AperFunction,ComponentPad*%
%ADD14R,1.800000X1.800000*%
%TD*%
%TA.AperFunction,ComponentPad*%
%ADD15O,1.800000X1.800000*%
%TD*%
%TA.AperFunction,ComponentPad*%
%ADD16R,1.600000X1.600000*%
%TD*%
%TA.AperFunction,ComponentPad*%
%ADD17R,2.400000X1.600000*%
%TD*%
%TA.AperFunction,ComponentPad*%
%ADD18O,2.400000X1.600000*%
%TD*%
%TA.AperFunction,ComponentPad*%
%ADD19R,1.050000X1.500000*%
%TD*%
%TA.AperFunction,ComponentPad*%
%ADD20O,1.050000X1.500000*%
%TD*%
%TA.AperFunction,ComponentPad*%
%ADD21R,1.700000X1.700000*%
%TD*%
%TA.AperFunction,ComponentPad*%
%ADD22O,1.700000X1.700000*%
%TD*%
%TA.AperFunction,ViaPad*%
%ADD23C,0.800000*%
%TD*%
%TA.AperFunction,Conductor*%
%ADD24C,0.250000*%
%TD*%
G04 APERTURE END LIST*
D10*
%TO.P,RV3,*%
%TO.N,*%
X121100000Y-106300000D03*
X129900000Y-106300000D03*
D11*
%TO.P,RV3,1,1*%
%TO.N,Net-(C5-Pad1)*%
X128000000Y-113300000D03*
%TO.P,RV3,2,2*%
%TO.N,Net-(R5-Pad1)*%
X125500000Y-113300000D03*
%TO.P,RV3,3,3*%
X123000000Y-113300000D03*
%TD*%
D12*
%TO.P,R5,1*%
%TO.N,Net-(R5-Pad1)*%
X116000000Y-102362000D03*
D13*
%TO.P,R5,2*%
%TO.N,Net-(D3-K)*%
X116000000Y-112522000D03*
%TD*%
D12*
%TO.P,R11,1*%
%TO.N,B*%
X125476000Y-142748000D03*
D13*
%TO.P,R11,2*%
%TO.N,Net-(U1C-+)*%
X135636000Y-142748000D03*
%TD*%
D12*
%TO.P,C2,1*%
%TO.N,Net-(U2A-+)*%
X102250000Y-135500000D03*
%TO.P,C2,2*%
%TO.N,Net-(D1-K)*%
X102250000Y-130500000D03*
%TD*%
%TO.P,C3,1*%
%TO.N,Net-(U2A--)*%
X120396000Y-130342000D03*
%TO.P,C3,2*%
%TO.N,Net-(C3-Pad2)*%
X120396000Y-135342000D03*
%TD*%
D10*
%TO.P,RV5,*%
%TO.N,*%
X140850000Y-120800000D03*
X149650000Y-120800000D03*
D11*
%TO.P,RV5,1,1*%
%TO.N,GND*%
X147750000Y-127800000D03*
%TO.P,RV5,2,2*%
%TO.N,OUT*%
X145250000Y-127800000D03*
%TO.P,RV5,3,3*%
%TO.N,Net-(C7-Pad2)*%
X142750000Y-127800000D03*
%TD*%
D12*
%TO.P,R12,1*%
%TO.N,B*%
X135636000Y-149352000D03*
D13*
%TO.P,R12,2*%
%TO.N,Net-(D5-K)*%
X125476000Y-149352000D03*
%TD*%
D14*
%TO.P,D4,1,K*%
%TO.N,Net-(D3-A)*%
X119250000Y-123810000D03*
D15*
%TO.P,D4,2,A*%
%TO.N,Net-(D4-A)*%
X119250000Y-116190000D03*
%TD*%
D10*
%TO.P,RV4,*%
%TO.N,*%
X102350000Y-106300000D03*
X111150000Y-106300000D03*
D11*
%TO.P,RV4,1,1*%
%TO.N,Net-(C5-Pad1)*%
X109250000Y-113300000D03*
%TO.P,RV4,2,2*%
%TO.N,Net-(D4-A)*%
X106750000Y-113300000D03*
%TO.P,RV4,3,3*%
X104250000Y-113300000D03*
%TD*%
D12*
%TO.P,R1,1*%
%TO.N,GND*%
X102000000Y-148200000D03*
D13*
%TO.P,R1,2*%
%TO.N,IN*%
X102000000Y-158360000D03*
%TD*%
D12*
%TO.P,R13,1*%
%TO.N,B*%
X135636000Y-132588000D03*
D13*
%TO.P,R13,2*%
%TO.N,Net-(Q1-C)*%
X125476000Y-132588000D03*
%TD*%
D14*
%TO.P,D3,1,K*%
%TO.N,Net-(D3-K)*%
X122750000Y-116190000D03*
D15*
%TO.P,D3,2,A*%
%TO.N,Net-(D3-A)*%
X122750000Y-123810000D03*
%TD*%
D16*
%TO.P,C7,1*%
%TO.N,Net-(C7-Pad1)*%
X140827401Y-155800000D03*
D12*
%TO.P,C7,2*%
%TO.N,Net-(C7-Pad2)*%
X142827401Y-155800000D03*
%TD*%
D10*
%TO.P,RV2,*%
%TO.N,*%
X102350000Y-120800000D03*
X111150000Y-120800000D03*
D11*
%TO.P,RV2,1,1*%
%TO.N,Net-(U2A--)*%
X109250000Y-127800000D03*
%TO.P,RV2,2,2*%
%TO.N,Net-(C3-Pad2)*%
X106750000Y-127800000D03*
%TO.P,RV2,3,3*%
X104250000Y-127800000D03*
%TD*%
D12*
%TO.P,R7,1*%
%TO.N,Net-(U2C-+)*%
X137160000Y-118110000D03*
D13*
%TO.P,R7,2*%
%TO.N,Net-(C5-Pad1)*%
X127000000Y-118110000D03*
%TD*%
D16*
%TO.P,C1,1*%
%TO.N,9V*%
X147153621Y-154686000D03*
D12*
%TO.P,C1,2*%
%TO.N,GND*%
X149653621Y-154686000D03*
%TD*%
D10*
%TO.P,RV1,*%
%TO.N,*%
X140850000Y-106300000D03*
X149650000Y-106300000D03*
D11*
%TO.P,RV1,1,1*%
%TO.N,B*%
X147750000Y-113300000D03*
%TO.P,RV1,2,2*%
%TO.N,Net-(U2B-+)*%
X145250000Y-113300000D03*
%TO.P,RV1,3,3*%
%TO.N,Net-(U2A-+)*%
X142750000Y-113300000D03*
%TD*%
D12*
%TO.P,R3,1*%
%TO.N,Net-(U2D-+)*%
X125476000Y-135890000D03*
D13*
%TO.P,R3,2*%
%TO.N,9V*%
X135636000Y-135890000D03*
%TD*%
D12*
%TO.P,R2,1*%
%TO.N,Net-(D1-K)*%
X105200000Y-148200000D03*
D13*
%TO.P,R2,2*%
%TO.N,IN*%
X105200000Y-158360000D03*
%TD*%
D12*
%TO.P,C6,1*%
%TO.N,Net-(U2C-+)*%
X136866000Y-126746000D03*
%TO.P,C6,2*%
%TO.N,GND*%
X131866000Y-126746000D03*
%TD*%
%TO.P,R10,1*%
%TO.N,Net-(C3-Pad2)*%
X115570000Y-126492000D03*
D13*
%TO.P,R10,2*%
%TO.N,Net-(U1C-+)*%
X115570000Y-116332000D03*
%TD*%
D17*
%TO.P,U2,1*%
%TO.N,Net-(C3-Pad2)*%
X108475000Y-131125000D03*
D18*
%TO.P,U2,2,-*%
%TO.N,Net-(U2A--)*%
X108475000Y-133665000D03*
%TO.P,U2,3,+*%
%TO.N,Net-(U2A-+)*%
X108475000Y-136205000D03*
%TO.P,U2,4,V+*%
%TO.N,9V*%
X108475000Y-138745000D03*
%TO.P,U2,5,+*%
%TO.N,Net-(U2B-+)*%
X108475000Y-141285000D03*
%TO.P,U2,6,-*%
%TO.N,Net-(D3-K)*%
X108475000Y-143825000D03*
%TO.P,U2,7*%
%TO.N,Net-(D3-A)*%
X108475000Y-146365000D03*
%TO.P,U2,8*%
%TO.N,Net-(D5-A)*%
X116095000Y-146365000D03*
%TO.P,U2,9,-*%
%TO.N,Net-(D5-K)*%
X116095000Y-143825000D03*
%TO.P,U2,10,+*%
%TO.N,Net-(U2C-+)*%
X116095000Y-141285000D03*
%TO.P,U2,11,V-*%
%TO.N,GND*%
X116095000Y-138745000D03*
%TO.P,U2,12,+*%
%TO.N,Net-(U2D-+)*%
X116095000Y-136205000D03*
%TO.P,U2,13,-*%
%TO.N,B*%
X116095000Y-133665000D03*
%TO.P,U2,14*%
X116095000Y-131125000D03*
%TD*%
D14*
%TO.P,D2,1,K*%
%TO.N,GND*%
X101525000Y-139300000D03*
D11*
%TO.P,D2,2,A*%
%TO.N,Net-(D1-K)*%
X104065000Y-139300000D03*
%TD*%
D19*
%TO.P,Q1,1,C*%
%TO.N,Net-(Q1-C)*%
X113792000Y-155088000D03*
D20*
%TO.P,Q1,2,B*%
%TO.N,Net-(D5-A)*%
X112522000Y-155088000D03*
%TO.P,Q1,3,E*%
%TO.N,Net-(D5-K)*%
X111252000Y-155088000D03*
%TD*%
D12*
%TO.P,R8,1*%
%TO.N,B*%
X135636000Y-146050000D03*
D13*
%TO.P,R8,2*%
%TO.N,Net-(R6-Pad1)*%
X125476000Y-146050000D03*
%TD*%
D12*
%TO.P,R4,1*%
%TO.N,Net-(U2D-+)*%
X127070000Y-122428000D03*
D13*
%TO.P,R4,2*%
%TO.N,GND*%
X137230000Y-122428000D03*
%TD*%
%TO.P,R9,2*%
%TO.N,Net-(C3-Pad2)*%
X125476000Y-139446000D03*
D12*
%TO.P,R9,1*%
%TO.N,Net-(C7-Pad1)*%
X135636000Y-139446000D03*
%TD*%
D14*
%TO.P,D5,1,K*%
%TO.N,Net-(D5-K)*%
X134366000Y-152654000D03*
D15*
%TO.P,D5,2,A*%
%TO.N,Net-(D5-A)*%
X126746000Y-152654000D03*
%TD*%
D14*
%TO.P,D1,1,K*%
%TO.N,Net-(D1-K)*%
X101600000Y-144272000D03*
D11*
%TO.P,D1,2,A*%
%TO.N,GND*%
X104140000Y-144272000D03*
%TD*%
D12*
%TO.P,R6,1*%
%TO.N,Net-(R6-Pad1)*%
X129032000Y-127000000D03*
D13*
%TO.P,R6,2*%
%TO.N,Net-(U2A--)*%
X118872000Y-127000000D03*
%TD*%
D17*
%TO.P,U1,1*%
%TO.N,Net-(Q1-C)*%
X140701000Y-131587000D03*
D18*
%TO.P,U1,2,DIODE_BIAS*%
%TO.N,unconnected-(U1C-DIODE_BIAS-Pad2)*%
X140701000Y-134127000D03*
%TO.P,U1,3,+*%
%TO.N,Net-(U1C-+)*%
X140701000Y-136667000D03*
%TO.P,U1,4,-*%
%TO.N,B*%
X140701000Y-139207000D03*
%TO.P,U1,5*%
%TO.N,Net-(R6-Pad1)*%
X140701000Y-141747000D03*
%TO.P,U1,6,V-*%
%TO.N,GND*%
X140701000Y-144287000D03*
%TO.P,U1,7*%
X140701000Y-146827000D03*
%TO.P,U1,8*%
X140701000Y-149367000D03*
%TO.P,U1,9*%
X148321000Y-149367000D03*
%TO.P,U1,10*%
X148321000Y-146827000D03*
%TO.P,U1,11,V+*%
%TO.N,9V*%
X148321000Y-144287000D03*
%TO.P,U1,12*%
%TO.N,Net-(U1A--)*%
X148321000Y-141747000D03*
%TO.P,U1,13,-*%
X148321000Y-139207000D03*
%TO.P,U1,14,+*%
%TO.N,unconnected-(U1A-+-Pad14)*%
X148321000Y-136667000D03*
%TO.P,U1,15,DIODE_BIAS*%
%TO.N,unconnected-(U1A-DIODE_BIAS-Pad15)*%
X148321000Y-134127000D03*
%TO.P,U1,16*%
%TO.N,GND*%
X148321000Y-131587000D03*
%TD*%
D12*
%TO.P,C4,1*%
%TO.N,Net-(U2D-+)*%
X120396000Y-143470000D03*
%TO.P,C4,2*%
%TO.N,GND*%
X120396000Y-138470000D03*
%TD*%
D21*
%TO.P,J1,1,Pin_1*%
%TO.N,9V*%
X121168000Y-157988000D03*
D22*
%TO.P,J1,2,Pin_2*%
%TO.N,OUT*%
X123708000Y-157988000D03*
%TO.P,J1,3,Pin_3*%
%TO.N,IN*%
X126248000Y-157988000D03*
%TO.P,J1,4,Pin_4*%
%TO.N,GND*%
X128788000Y-157988000D03*
%TD*%
D12*
%TO.P,C5,1*%
%TO.N,Net-(C5-Pad1)*%
X134874000Y-111466000D03*
%TO.P,C5,2*%
%TO.N,GND*%
X134874000Y-106466000D03*
%TD*%
D23*
%TO.N,Net-(U2A-+)*%
X102311200Y-111912400D03*
%TO.N,Net-(D3-A)*%
X111607600Y-124104400D03*
%TO.N,Net-(U1C-+)*%
X129641600Y-121259600D03*
%TO.N,Net-(U2B-+)*%
X106121200Y-109474000D03*
X106121200Y-109474000D03*
%TD*%
D24*
%TO.N,9V*%
X147153621Y-154686000D02*
X142677110Y-159162511D01*
X142677110Y-159162511D02*
X122342511Y-159162511D01*
X151384000Y-150455621D02*
X151384000Y-146558000D01*
X108075000Y-138745000D02*
X108475000Y-138745000D01*
X149113000Y-144287000D02*
X148321000Y-144287000D01*
X106934000Y-139886000D02*
X108075000Y-138745000D01*
X151384000Y-146558000D02*
X149113000Y-144287000D01*
X121168000Y-157988000D02*
X109728000Y-157988000D01*
X109728000Y-157988000D02*
X106934000Y-155194000D01*
X122342511Y-159162511D02*
X121168000Y-157988000D01*
X106934000Y-155194000D02*
X106934000Y-139886000D01*
X147153621Y-154686000D02*
X151384000Y-150455621D01*
%TO.N,Net-(C3-Pad2)*%
X121521000Y-140383991D02*
X125010009Y-143873000D01*
X120396000Y-135342000D02*
X121521000Y-136467000D01*
X125010009Y-143873000D02*
X126085400Y-143873000D01*
X126085400Y-143873000D02*
X126601000Y-143357400D01*
X126601000Y-140571000D02*
X125476000Y-139446000D01*
X126601000Y-143357400D02*
X126601000Y-140571000D01*
X121521000Y-136467000D02*
X121521000Y-140383991D01*
%TO.N,Net-(C5-Pad1)*%
X127000000Y-114300000D02*
X128000000Y-113300000D01*
X127000000Y-118110000D02*
X127000000Y-114300000D01*
%TO.N,Net-(C7-Pad1)*%
X134511489Y-149817789D02*
X134511489Y-140570511D01*
X140827401Y-155800000D02*
X140493700Y-155800000D01*
X134511489Y-140570511D02*
X135636000Y-139446000D01*
X140493700Y-155800000D02*
X134511489Y-149817789D01*
%TO.N,Net-(C7-Pad2)*%
X146304000Y-152323401D02*
X146304000Y-131354000D01*
X142827401Y-155800000D02*
X146304000Y-152323401D01*
X146304000Y-131354000D02*
X142750000Y-127800000D01*
%TO.N,Net-(U2A-+)*%
X101092000Y-125984000D02*
X101092000Y-134342000D01*
X104675000Y-122401000D02*
X101092000Y-125984000D01*
X104675000Y-119836953D02*
X104675000Y-122401000D01*
X101092000Y-134342000D02*
X102250000Y-135500000D01*
X102311200Y-111912400D02*
X102311200Y-117473153D01*
X102311200Y-117473153D02*
X104675000Y-119836953D01*
%TO.N,Net-(R5-Pad1)*%
X116000000Y-106300000D02*
X116000000Y-102362000D01*
X123000000Y-113300000D02*
X116000000Y-106300000D01*
%TO.N,Net-(R6-Pad1)*%
X125476000Y-146050000D02*
X127508000Y-144018000D01*
X124307600Y-131724400D02*
X129032000Y-127000000D01*
X127508000Y-136296400D02*
X124307600Y-133096000D01*
X127508000Y-144018000D02*
X127508000Y-136296400D01*
X124307600Y-133096000D02*
X124307600Y-131724400D01*
%TO.N,B*%
X126729988Y-110337600D02*
X144787600Y-110337600D01*
X123507412Y-114525000D02*
X124256800Y-113775612D01*
X125476000Y-141681200D02*
X122885200Y-139090400D01*
X124256800Y-113775612D02*
X124256800Y-112810788D01*
X124256800Y-112810788D02*
X126729988Y-110337600D01*
X114445000Y-129475000D02*
X114445000Y-119262588D01*
X144787600Y-110337600D02*
X147750000Y-113300000D01*
X125476000Y-142748000D02*
X125476000Y-141681200D01*
X116095000Y-131125000D02*
X114445000Y-129475000D01*
X122885200Y-139090400D02*
X122885200Y-136240209D01*
X117769991Y-131125000D02*
X116095000Y-131125000D01*
X114445000Y-119262588D02*
X119182588Y-114525000D01*
X119182588Y-114525000D02*
X123507412Y-114525000D01*
X122885200Y-136240209D02*
X117769991Y-131125000D01*
X135636000Y-149352000D02*
X135636000Y-146050000D01*
%TO.N,Net-(U2A--)*%
X106950489Y-132140489D02*
X106950489Y-130099511D01*
X106950489Y-130099511D02*
X109250000Y-127800000D01*
X108475000Y-133665000D02*
X106950489Y-132140489D01*
%TO.N,Net-(U2D-+)*%
X123139200Y-133553200D02*
X123139200Y-126358800D01*
X123139200Y-126358800D02*
X127070000Y-122428000D01*
X125476000Y-135890000D02*
X123139200Y-133553200D01*
%TO.N,Net-(D3-K)*%
X110474511Y-141825489D02*
X110474511Y-123125000D01*
X108475000Y-143825000D02*
X110474511Y-141825489D01*
X108825000Y-119697000D02*
X116000000Y-112522000D01*
X110186953Y-123125000D02*
X108825000Y-121763047D01*
X108825000Y-121763047D02*
X108825000Y-119697000D01*
X110474511Y-123125000D02*
X110186953Y-123125000D01*
%TO.N,Net-(D3-A)*%
X111658400Y-124104400D02*
X111607600Y-124155200D01*
X111607600Y-124155200D02*
X111607600Y-124104400D01*
X111506000Y-124256800D02*
X111607600Y-124155200D01*
X111607600Y-124104400D02*
X111658400Y-124104400D01*
X108475000Y-146365000D02*
X111506000Y-143334000D01*
X111506000Y-143334000D02*
X111506000Y-124256800D01*
%TO.N,Net-(D5-K)*%
X111252000Y-155088000D02*
X111252000Y-148668000D01*
X111252000Y-148668000D02*
X116095000Y-143825000D01*
%TO.N,Net-(D5-A)*%
X112522000Y-155088000D02*
X112522000Y-149938000D01*
X112522000Y-149938000D02*
X116095000Y-146365000D01*
%TO.N,Net-(Q1-C)*%
X127106000Y-155088000D02*
X128778000Y-153416000D01*
X128778000Y-153416000D02*
X128778000Y-135890000D01*
X140701000Y-131587000D02*
X140577489Y-131463489D01*
X128778000Y-135890000D02*
X125476000Y-132588000D01*
X113792000Y-155088000D02*
X127106000Y-155088000D01*
%TO.N,Net-(U1C-+)*%
X136761000Y-128231991D02*
X136761000Y-132727000D01*
X136761000Y-132727000D02*
X140701000Y-136667000D01*
X129946400Y-121417391D02*
X136761000Y-128231991D01*
X129641600Y-121259600D02*
X129799391Y-121417391D01*
X129799391Y-121417391D02*
X129946400Y-121417391D01*
X137947400Y-139420600D02*
X140701000Y-136667000D01*
X135636000Y-142748000D02*
X137947400Y-140436600D01*
X137947400Y-140436600D02*
X137947400Y-139420600D01*
%TO.N,Net-(U2B-+)*%
X145475200Y-113300000D02*
X145592800Y-113182400D01*
X145250000Y-113300000D02*
X145475200Y-113300000D01*
X110000000Y-138279010D02*
X110000000Y-139760000D01*
X107609010Y-137620000D02*
X109340990Y-137620000D01*
X106121200Y-109474000D02*
X105475000Y-110120200D01*
X109340990Y-137620000D02*
X110000000Y-138279010D01*
X105475000Y-110120200D02*
X105475000Y-135485990D01*
X105475000Y-135485990D02*
X107609010Y-137620000D01*
X110000000Y-139760000D02*
X108475000Y-141285000D01*
%TD*%
%TA.AperFunction,Conductor*%
%TO.N,GND*%
G36*
X100284512Y-122236772D02*
G01*
X100308386Y-122264483D01*
X100316564Y-122277371D01*
X100517763Y-122520578D01*
X100517766Y-122520580D01*
X100517767Y-122520582D01*
X100729637Y-122719541D01*
X100747860Y-122736654D01*
X100941360Y-122877240D01*
X101003221Y-122922184D01*
X101279821Y-123074247D01*
X101573298Y-123190443D01*
X101879025Y-123268940D01*
X101879033Y-123268941D01*
X101879032Y-123268941D01*
X101905638Y-123272302D01*
X102192179Y-123308500D01*
X102192183Y-123308500D01*
X102507817Y-123308500D01*
X102507821Y-123308500D01*
X102525831Y-123306224D01*
X102559080Y-123302025D01*
X102629170Y-123313331D01*
X102682021Y-123360736D01*
X102700854Y-123429190D01*
X102679687Y-123496958D01*
X102663967Y-123516126D01*
X100703336Y-125476757D01*
X100690901Y-125486721D01*
X100691089Y-125486948D01*
X100684979Y-125492002D01*
X100638370Y-125541635D01*
X100635620Y-125544473D01*
X100615863Y-125564231D01*
X100613374Y-125567439D01*
X100605688Y-125576436D01*
X100575418Y-125608673D01*
X100575411Y-125608683D01*
X100565651Y-125626435D01*
X100554803Y-125642950D01*
X100542386Y-125658958D01*
X100524824Y-125699540D01*
X100519604Y-125710195D01*
X100498305Y-125748939D01*
X100498303Y-125748944D01*
X100493267Y-125768559D01*
X100486864Y-125787262D01*
X100478819Y-125805852D01*
X100471901Y-125849525D01*
X100469495Y-125861142D01*
X100458500Y-125903968D01*
X100458500Y-125924223D01*
X100456949Y-125943933D01*
X100453780Y-125963942D01*
X100457941Y-126007961D01*
X100458500Y-126019819D01*
X100458500Y-134258146D01*
X100456751Y-134273988D01*
X100457044Y-134274016D01*
X100456298Y-134281907D01*
X100458438Y-134349984D01*
X100458500Y-134353943D01*
X100458500Y-134381851D01*
X100458501Y-134381869D01*
X100459007Y-134385877D01*
X100459937Y-134397696D01*
X100461326Y-134441888D01*
X100461327Y-134441893D01*
X100466977Y-134461339D01*
X100470986Y-134480697D01*
X100473525Y-134500793D01*
X100473526Y-134500800D01*
X100489800Y-134541903D01*
X100493644Y-134553129D01*
X100505982Y-134595593D01*
X100516294Y-134613031D01*
X100524988Y-134630779D01*
X100532444Y-134649609D01*
X100532450Y-134649620D01*
X100558432Y-134685381D01*
X100564949Y-134695301D01*
X100587458Y-134733362D01*
X100587459Y-134733363D01*
X100587461Y-134733366D01*
X100601779Y-134747684D01*
X100614617Y-134762714D01*
X100626526Y-134779104D01*
X100626530Y-134779109D01*
X100660598Y-134807292D01*
X100669378Y-134815282D01*
X100940847Y-135086751D01*
X100974873Y-135149063D01*
X100973459Y-135208456D01*
X100956458Y-135271907D01*
X100956457Y-135271910D01*
X100956457Y-135271913D01*
X100936502Y-135500000D01*
X100956457Y-135728087D01*
X100983098Y-135827511D01*
X101015715Y-135949240D01*
X101015717Y-135949246D01*
X101112477Y-136156749D01*
X101219890Y-136310151D01*
X101243802Y-136344300D01*
X101405700Y-136506198D01*
X101593251Y-136637523D01*
X101800757Y-136734284D01*
X102021913Y-136793543D01*
X102250000Y-136813498D01*
X102478087Y-136793543D01*
X102699243Y-136734284D01*
X102906749Y-136637523D01*
X103094300Y-136506198D01*
X103256198Y-136344300D01*
X103387523Y-136156749D01*
X103484284Y-135949243D01*
X103543543Y-135728087D01*
X103563498Y-135500000D01*
X103543543Y-135271913D01*
X103484284Y-135050757D01*
X103387523Y-134843251D01*
X103256198Y-134655700D01*
X103094300Y-134493802D01*
X103020166Y-134441893D01*
X102906749Y-134362477D01*
X102699246Y-134265717D01*
X102699240Y-134265715D01*
X102605771Y-134240670D01*
X102478087Y-134206457D01*
X102250000Y-134186502D01*
X102021913Y-134206457D01*
X102021910Y-134206457D01*
X102021907Y-134206458D01*
X101958457Y-134223459D01*
X101887481Y-134221769D01*
X101836752Y-134190847D01*
X101762405Y-134116500D01*
X101728379Y-134054188D01*
X101725500Y-134027405D01*
X101725500Y-131878325D01*
X101745502Y-131810204D01*
X101799158Y-131763711D01*
X101869432Y-131753607D01*
X101884095Y-131756614D01*
X102021913Y-131793543D01*
X102250000Y-131813498D01*
X102478087Y-131793543D01*
X102699243Y-131734284D01*
X102906749Y-131637523D01*
X103094300Y-131506198D01*
X103256198Y-131344300D01*
X103387523Y-131156749D01*
X103484284Y-130949243D01*
X103543543Y-130728087D01*
X103563498Y-130500000D01*
X103543543Y-130271913D01*
X103484284Y-130050757D01*
X103387523Y-129843251D01*
X103256198Y-129655700D01*
X103094300Y-129493802D01*
X103084504Y-129486943D01*
X102906749Y-129362477D01*
X102699246Y-129265717D01*
X102699240Y-129265715D01*
X102560359Y-129228502D01*
X102478087Y-129206457D01*
X102250000Y-129186502D01*
X102021913Y-129206457D01*
X101884111Y-129243381D01*
X101813134Y-129241691D01*
X101754339Y-129201897D01*
X101726391Y-129136632D01*
X101725500Y-129121674D01*
X101725500Y-126298594D01*
X101745502Y-126230473D01*
X101762405Y-126209499D01*
X104626405Y-123345499D01*
X104688717Y-123311473D01*
X104759532Y-123316538D01*
X104816368Y-123359085D01*
X104841179Y-123425605D01*
X104841500Y-123434594D01*
X104841500Y-126337400D01*
X104821498Y-126405521D01*
X104767842Y-126452014D01*
X104697568Y-126462118D01*
X104674588Y-126456573D01*
X104596955Y-126429921D01*
X104596948Y-126429919D01*
X104498411Y-126413476D01*
X104366712Y-126391500D01*
X104133288Y-126391500D01*
X104018066Y-126410727D01*
X103903051Y-126429919D01*
X103903044Y-126429921D01*
X103682276Y-126505711D01*
X103682273Y-126505713D01*
X103498304Y-126605272D01*
X103476985Y-126616809D01*
X103476983Y-126616810D01*
X103292778Y-126760182D01*
X103292774Y-126760186D01*
X103134685Y-126931916D01*
X103007015Y-127127331D01*
X102913252Y-127341089D01*
X102913249Y-127341096D01*
X102855950Y-127567366D01*
X102855949Y-127567372D01*
X102855949Y-127567374D01*
X102836673Y-127800000D01*
X102854061Y-128009844D01*
X102855950Y-128032633D01*
X102913249Y-128258903D01*
X102913252Y-128258910D01*
X103007015Y-128472668D01*
X103134685Y-128668083D01*
X103292774Y-128839813D01*
X103292778Y-128839817D01*
X103358650Y-128891087D01*
X103476983Y-128983190D01*
X103682273Y-129094287D01*
X103903049Y-129170080D01*
X104133288Y-129208500D01*
X104133292Y-129208500D01*
X104366708Y-129208500D01*
X104366712Y-129208500D01*
X104596951Y-129170080D01*
X104674588Y-129143426D01*
X104745512Y-129140227D01*
X104806908Y-129175879D01*
X104839282Y-129239064D01*
X104841500Y-129262600D01*
X104841500Y-135402136D01*
X104839751Y-135417978D01*
X104840044Y-135418006D01*
X104839298Y-135425897D01*
X104839298Y-135425899D01*
X104840557Y-135465959D01*
X104841438Y-135493974D01*
X104841500Y-135497933D01*
X104841500Y-135525841D01*
X104841501Y-135525859D01*
X104842007Y-135529867D01*
X104842937Y-135541686D01*
X104844326Y-135585878D01*
X104844327Y-135585883D01*
X104849977Y-135605329D01*
X104853986Y-135624687D01*
X104856525Y-135644783D01*
X104856526Y-135644790D01*
X104872800Y-135685893D01*
X104876644Y-135697119D01*
X104888982Y-135739583D01*
X104899294Y-135757021D01*
X104907988Y-135774769D01*
X104915444Y-135793599D01*
X104915450Y-135793610D01*
X104941432Y-135829371D01*
X104947949Y-135839291D01*
X104970458Y-135877352D01*
X104970459Y-135877353D01*
X104970461Y-135877356D01*
X104984779Y-135891674D01*
X104997617Y-135906704D01*
X105009526Y-135923094D01*
X105009530Y-135923099D01*
X105043598Y-135951282D01*
X105052378Y-135959272D01*
X106963155Y-137870050D01*
X106997181Y-137932362D01*
X106992116Y-138003178D01*
X106977273Y-138031415D01*
X106937480Y-138088244D01*
X106937479Y-138088245D01*
X106840717Y-138295753D01*
X106840715Y-138295759D01*
X106781457Y-138516913D01*
X106761502Y-138745000D01*
X106781457Y-138973090D01*
X106798459Y-139036540D01*
X106796769Y-139107516D01*
X106765847Y-139158246D01*
X106545336Y-139378757D01*
X106532901Y-139388721D01*
X106533089Y-139388948D01*
X106526979Y-139394002D01*
X106480370Y-139443635D01*
X106477620Y-139446473D01*
X106457863Y-139466231D01*
X106455374Y-139469439D01*
X106447688Y-139478436D01*
X106417418Y-139510673D01*
X106417411Y-139510683D01*
X106407651Y-139528435D01*
X106396803Y-139544950D01*
X106384386Y-139560958D01*
X106366824Y-139601540D01*
X106361604Y-139612195D01*
X106340305Y-139650939D01*
X106340303Y-139650944D01*
X106335267Y-139670559D01*
X106328864Y-139689262D01*
X106320819Y-139707852D01*
X106313901Y-139751525D01*
X106311495Y-139763142D01*
X106300500Y-139805968D01*
X106300500Y-139826223D01*
X106298949Y-139845933D01*
X106295780Y-139865943D01*
X106299941Y-139909961D01*
X106300500Y-139921819D01*
X106300500Y-147145811D01*
X106280498Y-147213932D01*
X106226842Y-147260425D01*
X106156568Y-147270529D01*
X106091988Y-147241035D01*
X106085406Y-147234907D01*
X106044302Y-147193804D01*
X106044296Y-147193799D01*
X105856749Y-147062477D01*
X105649246Y-146965717D01*
X105649240Y-146965715D01*
X105521440Y-146931471D01*
X105428087Y-146906457D01*
X105200000Y-146886502D01*
X104971913Y-146906457D01*
X104750759Y-146965715D01*
X104750753Y-146965717D01*
X104543250Y-147062477D01*
X104355703Y-147193799D01*
X104355697Y-147193804D01*
X104193804Y-147355697D01*
X104193799Y-147355703D01*
X104062477Y-147543250D01*
X103965717Y-147750753D01*
X103965715Y-147750759D01*
X103909125Y-147961955D01*
X103906457Y-147971913D01*
X103886502Y-148200000D01*
X103906457Y-148428087D01*
X103937822Y-148545142D01*
X103965715Y-148649240D01*
X103965717Y-148649246D01*
X103988393Y-148697875D01*
X104062477Y-148856749D01*
X104193802Y-149044300D01*
X104355700Y-149206198D01*
X104543251Y-149337523D01*
X104750757Y-149434284D01*
X104971913Y-149493543D01*
X105200000Y-149513498D01*
X105428087Y-149493543D01*
X105649243Y-149434284D01*
X105856749Y-149337523D01*
X106044300Y-149206198D01*
X106085405Y-149165093D01*
X106147717Y-149131067D01*
X106218532Y-149136132D01*
X106275368Y-149178679D01*
X106300179Y-149245199D01*
X106300500Y-149254188D01*
X106300500Y-155110146D01*
X106298751Y-155125988D01*
X106299044Y-155126016D01*
X106298298Y-155133907D01*
X106300438Y-155201984D01*
X106300500Y-155205943D01*
X106300500Y-155233851D01*
X106300501Y-155233869D01*
X106301007Y-155237877D01*
X106301937Y-155249696D01*
X106303326Y-155293888D01*
X106303327Y-155293893D01*
X106308977Y-155313339D01*
X106312986Y-155332697D01*
X106315525Y-155352793D01*
X106315526Y-155352800D01*
X106331800Y-155393903D01*
X106335644Y-155405129D01*
X106347982Y-155447593D01*
X106358294Y-155465031D01*
X106366988Y-155482779D01*
X106374444Y-155501609D01*
X106374450Y-155501620D01*
X106400432Y-155537381D01*
X106406949Y-155547301D01*
X106429458Y-155585362D01*
X106429459Y-155585363D01*
X106429461Y-155585366D01*
X106443779Y-155599684D01*
X106456617Y-155614714D01*
X106468526Y-155631104D01*
X106468530Y-155631109D01*
X106502598Y-155659292D01*
X106511378Y-155667282D01*
X109220753Y-158376657D01*
X109230720Y-158389097D01*
X109230947Y-158388910D01*
X109235999Y-158395017D01*
X109285666Y-158441657D01*
X109288510Y-158444414D01*
X109308230Y-158464134D01*
X109311416Y-158466605D01*
X109320446Y-158474317D01*
X109352679Y-158504586D01*
X109370427Y-158514342D01*
X109386957Y-158525201D01*
X109402959Y-158537614D01*
X109443542Y-158555175D01*
X109454193Y-158560393D01*
X109492940Y-158581695D01*
X109492948Y-158581697D01*
X109512558Y-158586732D01*
X109531267Y-158593137D01*
X109549855Y-158601181D01*
X109593530Y-158608098D01*
X109605141Y-158610502D01*
X109647970Y-158621500D01*
X109668224Y-158621500D01*
X109687934Y-158623051D01*
X109690141Y-158623400D01*
X109707943Y-158626220D01*
X109751961Y-158622058D01*
X109763819Y-158621500D01*
X119683500Y-158621500D01*
X119751621Y-158641502D01*
X119798114Y-158695158D01*
X119809500Y-158747500D01*
X119809500Y-158886649D01*
X119816009Y-158947196D01*
X119816011Y-158947204D01*
X119867110Y-159084202D01*
X119867112Y-159084207D01*
X119954738Y-159201261D01*
X120071792Y-159288887D01*
X120071794Y-159288888D01*
X120071796Y-159288889D01*
X120130875Y-159310924D01*
X120208795Y-159339988D01*
X120208803Y-159339990D01*
X120269350Y-159346499D01*
X120269355Y-159346499D01*
X120269362Y-159346500D01*
X121578406Y-159346500D01*
X121646527Y-159366502D01*
X121667501Y-159383405D01*
X121835001Y-159550905D01*
X121869027Y-159613217D01*
X121863962Y-159684032D01*
X121821415Y-159740868D01*
X121754895Y-159765679D01*
X121745906Y-159766000D01*
X105849348Y-159766000D01*
X105781227Y-159745998D01*
X105734734Y-159692342D01*
X105724630Y-159622068D01*
X105754124Y-159557488D01*
X105796098Y-159525805D01*
X105804481Y-159521895D01*
X105856749Y-159497523D01*
X106044300Y-159366198D01*
X106206198Y-159204300D01*
X106337523Y-159016749D01*
X106434284Y-158809243D01*
X106493543Y-158588087D01*
X106513498Y-158360000D01*
X106493543Y-158131913D01*
X106434284Y-157910757D01*
X106337523Y-157703251D01*
X106206198Y-157515700D01*
X106044300Y-157353802D01*
X105985510Y-157312637D01*
X105856749Y-157222477D01*
X105649246Y-157125717D01*
X105649240Y-157125715D01*
X105555771Y-157100670D01*
X105428087Y-157066457D01*
X105200000Y-157046502D01*
X104971913Y-157066457D01*
X104750759Y-157125715D01*
X104750753Y-157125717D01*
X104543250Y-157222477D01*
X104355703Y-157353799D01*
X104355697Y-157353804D01*
X104193804Y-157515697D01*
X104193799Y-157515703D01*
X104062477Y-157703250D01*
X103965717Y-157910753D01*
X103965715Y-157910759D01*
X103925756Y-158059889D01*
X103906457Y-158131913D01*
X103886502Y-158360000D01*
X103906457Y-158588087D01*
X103912068Y-158609026D01*
X103965715Y-158809240D01*
X103965717Y-158809246D01*
X104001811Y-158886649D01*
X104062477Y-159016749D01*
X104193802Y-159204300D01*
X104355700Y-159366198D01*
X104543251Y-159497523D01*
X104589886Y-159519269D01*
X104603902Y-159525805D01*
X104657187Y-159572722D01*
X104676648Y-159641000D01*
X104656106Y-159708959D01*
X104602083Y-159755025D01*
X104550652Y-159766000D01*
X102649348Y-159766000D01*
X102581227Y-159745998D01*
X102534734Y-159692342D01*
X102524630Y-159622068D01*
X102554124Y-159557488D01*
X102596098Y-159525805D01*
X102604481Y-159521895D01*
X102656749Y-159497523D01*
X102844300Y-159366198D01*
X103006198Y-159204300D01*
X103137523Y-159016749D01*
X103234284Y-158809243D01*
X103293543Y-158588087D01*
X103313498Y-158360000D01*
X103293543Y-158131913D01*
X103234284Y-157910757D01*
X103137523Y-157703251D01*
X103006198Y-157515700D01*
X102844300Y-157353802D01*
X102785510Y-157312637D01*
X102656749Y-157222477D01*
X102449246Y-157125717D01*
X102449240Y-157125715D01*
X102355771Y-157100670D01*
X102228087Y-157066457D01*
X102000000Y-157046502D01*
X101771913Y-157066457D01*
X101550759Y-157125715D01*
X101550753Y-157125717D01*
X101343250Y-157222477D01*
X101155703Y-157353799D01*
X101155697Y-157353804D01*
X100993804Y-157515697D01*
X100993799Y-157515703D01*
X100862477Y-157703250D01*
X100765717Y-157910753D01*
X100765715Y-157910759D01*
X100725756Y-158059889D01*
X100706457Y-158131913D01*
X100686502Y-158360000D01*
X100706457Y-158588087D01*
X100712068Y-158609026D01*
X100765715Y-158809240D01*
X100765717Y-158809246D01*
X100801811Y-158886649D01*
X100862477Y-159016749D01*
X100993802Y-159204300D01*
X101155700Y-159366198D01*
X101343251Y-159497523D01*
X101389886Y-159519269D01*
X101403902Y-159525805D01*
X101457187Y-159572722D01*
X101476648Y-159641000D01*
X101456106Y-159708959D01*
X101402083Y-159755025D01*
X101350652Y-159766000D01*
X100202000Y-159766000D01*
X100133879Y-159745998D01*
X100087386Y-159692342D01*
X100076000Y-159640000D01*
X100076000Y-148200000D01*
X100687004Y-148200000D01*
X100706951Y-148428002D01*
X100766186Y-148649068D01*
X100766188Y-148649073D01*
X100862913Y-148856501D01*
X100912899Y-148927888D01*
X101601272Y-148239516D01*
X101614835Y-148325148D01*
X101672359Y-148438045D01*
X101761955Y-148527641D01*
X101874852Y-148585165D01*
X101960482Y-148598727D01*
X101272110Y-149287098D01*
X101272110Y-149287100D01*
X101343498Y-149337086D01*
X101550926Y-149433811D01*
X101550931Y-149433813D01*
X101771999Y-149493048D01*
X101771995Y-149493048D01*
X102000000Y-149512995D01*
X102228002Y-149493048D01*
X102449068Y-149433813D01*
X102449073Y-149433811D01*
X102656497Y-149337088D01*
X102727888Y-149287099D01*
X102727888Y-149287097D01*
X102039518Y-148598727D01*
X102125148Y-148585165D01*
X102238045Y-148527641D01*
X102327641Y-148438045D01*
X102385165Y-148325148D01*
X102398727Y-148239518D01*
X103087097Y-148927888D01*
X103087099Y-148927888D01*
X103137088Y-148856497D01*
X103233811Y-148649073D01*
X103233813Y-148649068D01*
X103293048Y-148428002D01*
X103312995Y-148200000D01*
X103293048Y-147971997D01*
X103233813Y-147750931D01*
X103233811Y-147750926D01*
X103137086Y-147543498D01*
X103087100Y-147472110D01*
X103087098Y-147472110D01*
X102398727Y-148160481D01*
X102385165Y-148074852D01*
X102327641Y-147961955D01*
X102238045Y-147872359D01*
X102125148Y-147814835D01*
X102039517Y-147801272D01*
X102727888Y-147112899D01*
X102727888Y-147112898D01*
X102656501Y-147062913D01*
X102449073Y-146966188D01*
X102449068Y-146966186D01*
X102228000Y-146906951D01*
X102228004Y-146906951D01*
X102000000Y-146887004D01*
X101771997Y-146906951D01*
X101550931Y-146966186D01*
X101550926Y-146966188D01*
X101343500Y-147062913D01*
X101272109Y-147112900D01*
X101960481Y-147801272D01*
X101874852Y-147814835D01*
X101761955Y-147872359D01*
X101672359Y-147961955D01*
X101614835Y-148074852D01*
X101601272Y-148160481D01*
X100912900Y-147472109D01*
X100862913Y-147543500D01*
X100766188Y-147750926D01*
X100766186Y-147750931D01*
X100706951Y-147971997D01*
X100687004Y-148200000D01*
X100076000Y-148200000D01*
X100076000Y-145565524D01*
X100096002Y-145497403D01*
X100149658Y-145450910D01*
X100219932Y-145440806D01*
X100284512Y-145470300D01*
X100302868Y-145490015D01*
X100336738Y-145535261D01*
X100453792Y-145622887D01*
X100453794Y-145622888D01*
X100453796Y-145622889D01*
X100462030Y-145625960D01*
X100590795Y-145673988D01*
X100590803Y-145673990D01*
X100651350Y-145680499D01*
X100651355Y-145680499D01*
X100651362Y-145680500D01*
X100651368Y-145680500D01*
X102548632Y-145680500D01*
X102548638Y-145680500D01*
X102548645Y-145680499D01*
X102548649Y-145680499D01*
X102609196Y-145673990D01*
X102609199Y-145673989D01*
X102609201Y-145673989D01*
X102746204Y-145622889D01*
X102782792Y-145595500D01*
X102863261Y-145535261D01*
X102950887Y-145418207D01*
X102950887Y-145418206D01*
X102950889Y-145418204D01*
X103001989Y-145281201D01*
X103008500Y-145220638D01*
X103008500Y-145096480D01*
X103028502Y-145028359D01*
X103045405Y-145007384D01*
X103695155Y-144357633D01*
X103696327Y-144373265D01*
X103745887Y-144499541D01*
X103830465Y-144605599D01*
X103942547Y-144682016D01*
X104054622Y-144716586D01*
X103338680Y-145432528D01*
X103338680Y-145432529D01*
X103367251Y-145454767D01*
X103367259Y-145454772D01*
X103572474Y-145565827D01*
X103572477Y-145565829D01*
X103793167Y-145641592D01*
X103793176Y-145641594D01*
X104023334Y-145680000D01*
X104256666Y-145680000D01*
X104486823Y-145641594D01*
X104486832Y-145641592D01*
X104707522Y-145565829D01*
X104707525Y-145565827D01*
X104912741Y-145454771D01*
X104912750Y-145454765D01*
X104941318Y-145432529D01*
X104941319Y-145432528D01*
X104223316Y-144714525D01*
X104274138Y-144706865D01*
X104396357Y-144648007D01*
X104495798Y-144555740D01*
X104563625Y-144438260D01*
X104582550Y-144355341D01*
X105299200Y-145071991D01*
X105299202Y-145071991D01*
X105382544Y-144944427D01*
X105476273Y-144730747D01*
X105476275Y-144730743D01*
X105533555Y-144504549D01*
X105552825Y-144272000D01*
X105533555Y-144039450D01*
X105476275Y-143813256D01*
X105476273Y-143813252D01*
X105382544Y-143599572D01*
X105299201Y-143472007D01*
X104584844Y-144186364D01*
X104583673Y-144170735D01*
X104534113Y-144044459D01*
X104449535Y-143938401D01*
X104337453Y-143861984D01*
X104225376Y-143827413D01*
X104941318Y-143111470D01*
X104912740Y-143089227D01*
X104707525Y-142978172D01*
X104707522Y-142978170D01*
X104486832Y-142902407D01*
X104486823Y-142902405D01*
X104256666Y-142864000D01*
X104023334Y-142864000D01*
X103793176Y-142902405D01*
X103793167Y-142902407D01*
X103572477Y-142978170D01*
X103572474Y-142978172D01*
X103367258Y-143089227D01*
X103338680Y-143111469D01*
X103338680Y-143111471D01*
X104056683Y-143829474D01*
X104005862Y-143837135D01*
X103883643Y-143895993D01*
X103784202Y-143988260D01*
X103716375Y-144105740D01*
X103697449Y-144188658D01*
X103045405Y-143536614D01*
X103011379Y-143474302D01*
X103008500Y-143447519D01*
X103008500Y-143323367D01*
X103008499Y-143323350D01*
X103001990Y-143262803D01*
X103001988Y-143262795D01*
X102972924Y-143184875D01*
X102950889Y-143125796D01*
X102950888Y-143125794D01*
X102950887Y-143125792D01*
X102863261Y-143008738D01*
X102746207Y-142921112D01*
X102746202Y-142921110D01*
X102609204Y-142870011D01*
X102609196Y-142870009D01*
X102548649Y-142863500D01*
X102548638Y-142863500D01*
X100651362Y-142863500D01*
X100651350Y-142863500D01*
X100590803Y-142870009D01*
X100590795Y-142870011D01*
X100453797Y-142921110D01*
X100453792Y-142921112D01*
X100336740Y-143008737D01*
X100302868Y-143053985D01*
X100246031Y-143096531D01*
X100175216Y-143101595D01*
X100112904Y-143067570D01*
X100078879Y-143005257D01*
X100076000Y-142978475D01*
X100076000Y-140675310D01*
X100096002Y-140607189D01*
X100149658Y-140560696D01*
X100219932Y-140550592D01*
X100277510Y-140574442D01*
X100379036Y-140650445D01*
X100515906Y-140701494D01*
X100576402Y-140707999D01*
X100576415Y-140708000D01*
X101271000Y-140708000D01*
X101271000Y-139671462D01*
X101327547Y-139710016D01*
X101457173Y-139750000D01*
X101558724Y-139750000D01*
X101659138Y-139734865D01*
X101779000Y-139677142D01*
X101779000Y-140708000D01*
X102473585Y-140708000D01*
X102473597Y-140707999D01*
X102534093Y-140701494D01*
X102670964Y-140650444D01*
X102670965Y-140650444D01*
X102787904Y-140562904D01*
X102875444Y-140445965D01*
X102898877Y-140383138D01*
X102941423Y-140326302D01*
X103007943Y-140301491D01*
X103077318Y-140316582D01*
X103103356Y-140336929D01*
X103103946Y-140336289D01*
X103107778Y-140339817D01*
X103130848Y-140357773D01*
X103291983Y-140483190D01*
X103497273Y-140594287D01*
X103718049Y-140670080D01*
X103948288Y-140708500D01*
X103948292Y-140708500D01*
X104181708Y-140708500D01*
X104181712Y-140708500D01*
X104411951Y-140670080D01*
X104632727Y-140594287D01*
X104838017Y-140483190D01*
X105022220Y-140339818D01*
X105026237Y-140335455D01*
X105180314Y-140168083D01*
X105307984Y-139972669D01*
X105401749Y-139758907D01*
X105459051Y-139532626D01*
X105478327Y-139300000D01*
X105459051Y-139067374D01*
X105444198Y-139008719D01*
X105401750Y-138841096D01*
X105401747Y-138841089D01*
X105396003Y-138827995D01*
X105307984Y-138627331D01*
X105303098Y-138619852D01*
X105180314Y-138431916D01*
X105022225Y-138260186D01*
X105022221Y-138260182D01*
X104885842Y-138154034D01*
X104838017Y-138116810D01*
X104632727Y-138005713D01*
X104632724Y-138005712D01*
X104632723Y-138005711D01*
X104411955Y-137929921D01*
X104411948Y-137929919D01*
X104313411Y-137913476D01*
X104181712Y-137891500D01*
X103948288Y-137891500D01*
X103833066Y-137910727D01*
X103718051Y-137929919D01*
X103718044Y-137929921D01*
X103497276Y-138005711D01*
X103497273Y-138005713D01*
X103414758Y-138050368D01*
X103291985Y-138116809D01*
X103291983Y-138116810D01*
X103107778Y-138260182D01*
X103103946Y-138263711D01*
X103102688Y-138262345D01*
X103048763Y-138294742D01*
X102977799Y-138292598D01*
X102919260Y-138252428D01*
X102898877Y-138216861D01*
X102875444Y-138154034D01*
X102787904Y-138037095D01*
X102670965Y-137949555D01*
X102534093Y-137898505D01*
X102473597Y-137892000D01*
X101779000Y-137892000D01*
X101779000Y-138928537D01*
X101722453Y-138889984D01*
X101592827Y-138850000D01*
X101491276Y-138850000D01*
X101390862Y-138865135D01*
X101271000Y-138922857D01*
X101271000Y-137892000D01*
X100576402Y-137892000D01*
X100515906Y-137898505D01*
X100379035Y-137949555D01*
X100379034Y-137949555D01*
X100277509Y-138025557D01*
X100210989Y-138050368D01*
X100141615Y-138035277D01*
X100091412Y-137985074D01*
X100076000Y-137924689D01*
X100076000Y-122331996D01*
X100096002Y-122263875D01*
X100149658Y-122217382D01*
X100219932Y-122207278D01*
X100284512Y-122236772D01*
G37*
%TD.AperFunction*%
%TA.AperFunction,Conductor*%
G36*
X151810033Y-151029658D02*
G01*
X151866868Y-151072205D01*
X151891679Y-151138725D01*
X151892000Y-151147714D01*
X151892000Y-159640000D01*
X151871998Y-159708121D01*
X151818342Y-159754614D01*
X151766000Y-159766000D01*
X143273714Y-159766000D01*
X143205593Y-159745998D01*
X143159100Y-159692342D01*
X143148996Y-159622068D01*
X143178490Y-159557488D01*
X143184619Y-159550905D01*
X146704120Y-156031405D01*
X146766432Y-155997379D01*
X146793215Y-155994500D01*
X148002253Y-155994500D01*
X148002259Y-155994500D01*
X148002266Y-155994499D01*
X148002270Y-155994499D01*
X148062817Y-155987990D01*
X148062820Y-155987989D01*
X148062822Y-155987989D01*
X148199825Y-155936889D01*
X148222639Y-155919811D01*
X148316882Y-155849261D01*
X148404508Y-155732207D01*
X148404508Y-155732206D01*
X148404510Y-155732204D01*
X148455610Y-155595201D01*
X148456668Y-155585366D01*
X148462482Y-155531283D01*
X148463529Y-155531395D01*
X148485677Y-155468567D01*
X148541734Y-155425000D01*
X148557727Y-155422682D01*
X149254893Y-154725516D01*
X149268456Y-154811148D01*
X149325980Y-154924045D01*
X149415576Y-155013641D01*
X149528473Y-155071165D01*
X149614103Y-155084727D01*
X148925731Y-155773098D01*
X148925731Y-155773100D01*
X148997119Y-155823086D01*
X149204547Y-155919811D01*
X149204552Y-155919813D01*
X149425620Y-155979048D01*
X149425616Y-155979048D01*
X149653621Y-155998995D01*
X149881623Y-155979048D01*
X150102689Y-155919813D01*
X150102694Y-155919811D01*
X150310118Y-155823088D01*
X150381509Y-155773099D01*
X150381509Y-155773097D01*
X149693139Y-155084727D01*
X149778769Y-155071165D01*
X149891666Y-155013641D01*
X149981262Y-154924045D01*
X150038786Y-154811148D01*
X150052348Y-154725518D01*
X150740718Y-155413888D01*
X150740720Y-155413888D01*
X150790709Y-155342497D01*
X150887432Y-155135073D01*
X150887434Y-155135068D01*
X150946669Y-154914002D01*
X150966616Y-154686000D01*
X150946669Y-154457997D01*
X150887434Y-154236931D01*
X150887432Y-154236926D01*
X150790707Y-154029498D01*
X150740721Y-153958110D01*
X150740719Y-153958110D01*
X150052348Y-154646481D01*
X150038786Y-154560852D01*
X149981262Y-154447955D01*
X149891666Y-154358359D01*
X149778769Y-154300835D01*
X149693137Y-154287272D01*
X150381509Y-153598899D01*
X150381509Y-153598898D01*
X150310122Y-153548913D01*
X150102694Y-153452188D01*
X150102689Y-153452186D01*
X149881623Y-153392951D01*
X149655117Y-153373135D01*
X149588999Y-153347271D01*
X149547360Y-153289768D01*
X149543419Y-153218881D01*
X149577001Y-153158522D01*
X151676905Y-151058618D01*
X151739217Y-151024593D01*
X151810033Y-151029658D01*
G37*
%TD.AperFunction*%
%TA.AperFunction,Conductor*%
G36*
X151834121Y-100096002D02*
G01*
X151880614Y-100149658D01*
X151892000Y-100202000D01*
X151892000Y-104724761D01*
X151871998Y-104792882D01*
X151818342Y-104839375D01*
X151748068Y-104849479D01*
X151683488Y-104819985D01*
X151668915Y-104805077D01*
X151482236Y-104579421D01*
X151252139Y-104363345D01*
X150996781Y-104177817D01*
X150954385Y-104154509D01*
X150720179Y-104025753D01*
X150426702Y-103909557D01*
X150120975Y-103831060D01*
X150120970Y-103831059D01*
X150120965Y-103831058D01*
X150120967Y-103831058D01*
X149807835Y-103791501D01*
X149807824Y-103791500D01*
X149807821Y-103791500D01*
X149492179Y-103791500D01*
X149492176Y-103791500D01*
X149492164Y-103791501D01*
X149179033Y-103831058D01*
X148873301Y-103909556D01*
X148579821Y-104025753D01*
X148303218Y-104177817D01*
X148047861Y-104363345D01*
X148047860Y-104363345D01*
X147817763Y-104579421D01*
X147616562Y-104822631D01*
X147447443Y-105089121D01*
X147447436Y-105089135D01*
X147313044Y-105374732D01*
X147313039Y-105374745D01*
X147215507Y-105674919D01*
X147215504Y-105674932D01*
X147156359Y-105984975D01*
X147156357Y-105984992D01*
X147136540Y-106299993D01*
X147136540Y-106300006D01*
X147156357Y-106615007D01*
X147156359Y-106615024D01*
X147215504Y-106925067D01*
X147215507Y-106925080D01*
X147313039Y-107225254D01*
X147313044Y-107225266D01*
X147447438Y-107510869D01*
X147447440Y-107510872D01*
X147447443Y-107510878D01*
X147616562Y-107777368D01*
X147817763Y-108020578D01*
X147817766Y-108020580D01*
X147817767Y-108020582D01*
X148047860Y-108236654D01*
X148303221Y-108422184D01*
X148579821Y-108574247D01*
X148873298Y-108690443D01*
X149179025Y-108768940D01*
X149179033Y-108768941D01*
X149179032Y-108768941D01*
X149343129Y-108789670D01*
X149492179Y-108808500D01*
X149492183Y-108808500D01*
X149807817Y-108808500D01*
X149807821Y-108808500D01*
X150120975Y-108768940D01*
X150426702Y-108690443D01*
X150720179Y-108574247D01*
X150996779Y-108422184D01*
X151252140Y-108236654D01*
X151482233Y-108020582D01*
X151668915Y-107794923D01*
X151727749Y-107755184D01*
X151798727Y-107753562D01*
X151859314Y-107790572D01*
X151890275Y-107854462D01*
X151892000Y-107875238D01*
X151892000Y-119224761D01*
X151871998Y-119292882D01*
X151818342Y-119339375D01*
X151748068Y-119349479D01*
X151683488Y-119319985D01*
X151668915Y-119305077D01*
X151482236Y-119079421D01*
X151467784Y-119065850D01*
X151296521Y-118905023D01*
X151252139Y-118863345D01*
X150996781Y-118677817D01*
X150954385Y-118654509D01*
X150720179Y-118525753D01*
X150426702Y-118409557D01*
X150120975Y-118331060D01*
X150120970Y-118331059D01*
X150120965Y-118331058D01*
X150120967Y-118331058D01*
X149807835Y-118291501D01*
X149807824Y-118291500D01*
X149807821Y-118291500D01*
X149492179Y-118291500D01*
X149492176Y-118291500D01*
X149492164Y-118291501D01*
X149179033Y-118331058D01*
X149179025Y-118331059D01*
X149179025Y-118331060D01*
X149151657Y-118338087D01*
X148873301Y-118409556D01*
X148579821Y-118525753D01*
X148303218Y-118677817D01*
X148047861Y-118863345D01*
X148047860Y-118863345D01*
X147817763Y-119079421D01*
X147616562Y-119322631D01*
X147447443Y-119589121D01*
X147447436Y-119589135D01*
X147313044Y-119874732D01*
X147313039Y-119874745D01*
X147215507Y-120174919D01*
X147215504Y-120174932D01*
X147156359Y-120484975D01*
X147156357Y-120484992D01*
X147136540Y-120799993D01*
X147136540Y-120800006D01*
X147156357Y-121115007D01*
X147156359Y-121115024D01*
X147215504Y-121425067D01*
X147215507Y-121425080D01*
X147313039Y-121725254D01*
X147313044Y-121725267D01*
X147349577Y-121802903D01*
X147447438Y-122010869D01*
X147447440Y-122010872D01*
X147447443Y-122010878D01*
X147616562Y-122277368D01*
X147817763Y-122520578D01*
X147817766Y-122520580D01*
X147817767Y-122520582D01*
X148029637Y-122719541D01*
X148047860Y-122736654D01*
X148241360Y-122877240D01*
X148303221Y-122922184D01*
X148579821Y-123074247D01*
X148873298Y-123190443D01*
X149179025Y-123268940D01*
X149179033Y-123268941D01*
X149179032Y-123268941D01*
X149205638Y-123272302D01*
X149492179Y-123308500D01*
X149492183Y-123308500D01*
X149807817Y-123308500D01*
X149807821Y-123308500D01*
X150120975Y-123268940D01*
X150426702Y-123190443D01*
X150720179Y-123074247D01*
X150996779Y-122922184D01*
X151252140Y-122736654D01*
X151482233Y-122520582D01*
X151668915Y-122294923D01*
X151727749Y-122255184D01*
X151798727Y-122253562D01*
X151859314Y-122290572D01*
X151890275Y-122354462D01*
X151892000Y-122375238D01*
X151892000Y-145865905D01*
X151871998Y-145934026D01*
X151818342Y-145980519D01*
X151748068Y-145990623D01*
X151683488Y-145961129D01*
X151676905Y-145955000D01*
X150069380Y-144347475D01*
X150035354Y-144285163D01*
X150032955Y-144269373D01*
X150014543Y-144058913D01*
X149955284Y-143837757D01*
X149858523Y-143630251D01*
X149727198Y-143442700D01*
X149565300Y-143280802D01*
X149539583Y-143262795D01*
X149445970Y-143197246D01*
X149377749Y-143149477D01*
X149339130Y-143131469D01*
X149338543Y-143131195D01*
X149285258Y-143084279D01*
X149265796Y-143016002D01*
X149286337Y-142948042D01*
X149338543Y-142902805D01*
X149349334Y-142897773D01*
X149377749Y-142884523D01*
X149565300Y-142753198D01*
X149727198Y-142591300D01*
X149858523Y-142403749D01*
X149955284Y-142196243D01*
X150014543Y-141975087D01*
X150034498Y-141747000D01*
X150014543Y-141518913D01*
X149955284Y-141297757D01*
X149858523Y-141090251D01*
X149727198Y-140902700D01*
X149565300Y-140740802D01*
X149552989Y-140732182D01*
X149495032Y-140691600D01*
X149377749Y-140609477D01*
X149345570Y-140594472D01*
X149338543Y-140591195D01*
X149285258Y-140544279D01*
X149265796Y-140476002D01*
X149286337Y-140408042D01*
X149338543Y-140362805D01*
X149349334Y-140357773D01*
X149377749Y-140344523D01*
X149565300Y-140213198D01*
X149727198Y-140051300D01*
X149858523Y-139863749D01*
X149955284Y-139656243D01*
X150014543Y-139435087D01*
X150034498Y-139207000D01*
X150014543Y-138978913D01*
X149955284Y-138757757D01*
X149858523Y-138550251D01*
X149727198Y-138362700D01*
X149565300Y-138200802D01*
X149538629Y-138182127D01*
X149399682Y-138084835D01*
X149377749Y-138069477D01*
X149338543Y-138051195D01*
X149285258Y-138004279D01*
X149265796Y-137936002D01*
X149286337Y-137868042D01*
X149338543Y-137822805D01*
X149349334Y-137817773D01*
X149377749Y-137804523D01*
X149565300Y-137673198D01*
X149727198Y-137511300D01*
X149858523Y-137323749D01*
X149955284Y-137116243D01*
X150014543Y-136895087D01*
X150034498Y-136667000D01*
X150014543Y-136438913D01*
X149955284Y-136217757D01*
X149858523Y-136010251D01*
X149727198Y-135822700D01*
X149565300Y-135660802D01*
X149538629Y-135642127D01*
X149493369Y-135610435D01*
X149377749Y-135529477D01*
X149338543Y-135511195D01*
X149285258Y-135464279D01*
X149265796Y-135396002D01*
X149286337Y-135328042D01*
X149338543Y-135282805D01*
X149349334Y-135277773D01*
X149377749Y-135264523D01*
X149565300Y-135133198D01*
X149727198Y-134971300D01*
X149858523Y-134783749D01*
X149955284Y-134576243D01*
X150014543Y-134355087D01*
X150034498Y-134127000D01*
X150014543Y-133898913D01*
X149955284Y-133677757D01*
X149858523Y-133470251D01*
X149727198Y-133282700D01*
X149565300Y-133120802D01*
X149565291Y-133120796D01*
X149377749Y-132989477D01*
X149337951Y-132970919D01*
X149284666Y-132924002D01*
X149265205Y-132855725D01*
X149285747Y-132787765D01*
X149337951Y-132742529D01*
X149377498Y-132724087D01*
X149564974Y-132592815D01*
X149564980Y-132592810D01*
X149726810Y-132430980D01*
X149726815Y-132430974D01*
X149858087Y-132243498D01*
X149954811Y-132036073D01*
X149954813Y-132036068D01*
X150007082Y-131841000D01*
X148632686Y-131841000D01*
X148648641Y-131825045D01*
X148706165Y-131712148D01*
X148725986Y-131587000D01*
X148706165Y-131461852D01*
X148648641Y-131348955D01*
X148632686Y-131333000D01*
X150007082Y-131333000D01*
X149954813Y-131137931D01*
X149954811Y-131137926D01*
X149858087Y-130930501D01*
X149726815Y-130743025D01*
X149726810Y-130743019D01*
X149564980Y-130581189D01*
X149564974Y-130581184D01*
X149377498Y-130449912D01*
X149170073Y-130353188D01*
X149170068Y-130353186D01*
X148949000Y-130293951D01*
X148949004Y-130293951D01*
X148778099Y-130279000D01*
X148575000Y-130279000D01*
X148575000Y-131275314D01*
X148559045Y-131259359D01*
X148446148Y-131201835D01*
X148352481Y-131187000D01*
X148289519Y-131187000D01*
X148195852Y-131201835D01*
X148082955Y-131259359D01*
X148067000Y-131275314D01*
X148067000Y-130279000D01*
X147863901Y-130279000D01*
X147692997Y-130293951D01*
X147471931Y-130353186D01*
X147471926Y-130353188D01*
X147264501Y-130449912D01*
X147077025Y-130581184D01*
X147077019Y-130581189D01*
X146915189Y-130743019D01*
X146915184Y-130743025D01*
X146866949Y-130811913D01*
X146811492Y-130856241D01*
X146740873Y-130863550D01*
X146677512Y-130831520D01*
X146674641Y-130828737D01*
X145269499Y-129423595D01*
X145235473Y-129361283D01*
X145240538Y-129290468D01*
X145283085Y-129233632D01*
X145349605Y-129208821D01*
X145358594Y-129208500D01*
X145366708Y-129208500D01*
X145366712Y-129208500D01*
X145596951Y-129170080D01*
X145817727Y-129094287D01*
X146023017Y-128983190D01*
X146207220Y-128839818D01*
X146365314Y-128668083D01*
X146394815Y-128622928D01*
X146448816Y-128576839D01*
X146519164Y-128567262D01*
X146583522Y-128597239D01*
X146585424Y-128599434D01*
X146590796Y-128599991D01*
X147265638Y-127925149D01*
X147290507Y-128009844D01*
X147368239Y-128130798D01*
X147476900Y-128224952D01*
X147607685Y-128284680D01*
X147622411Y-128286797D01*
X146948680Y-128960528D01*
X146948680Y-128960529D01*
X146977251Y-128982767D01*
X146977259Y-128982772D01*
X147182474Y-129093827D01*
X147182477Y-129093829D01*
X147403167Y-129169592D01*
X147403176Y-129169594D01*
X147633334Y-129208000D01*
X147866666Y-129208000D01*
X148096823Y-129169594D01*
X148096832Y-129169592D01*
X148317522Y-129093829D01*
X148317525Y-129093827D01*
X148522741Y-128982771D01*
X148522750Y-128982765D01*
X148551318Y-128960529D01*
X148551319Y-128960528D01*
X147877588Y-128286797D01*
X147892315Y-128284680D01*
X148023100Y-128224952D01*
X148131761Y-128130798D01*
X148209493Y-128009844D01*
X148234360Y-127925151D01*
X148909200Y-128599991D01*
X148909202Y-128599991D01*
X148992544Y-128472427D01*
X149086273Y-128258747D01*
X149086275Y-128258743D01*
X149143555Y-128032549D01*
X149162825Y-127800000D01*
X149143555Y-127567450D01*
X149086275Y-127341256D01*
X149086273Y-127341252D01*
X148992544Y-127127572D01*
X148909201Y-127000007D01*
X148234360Y-127674848D01*
X148209493Y-127590156D01*
X148131761Y-127469202D01*
X148023100Y-127375048D01*
X147892315Y-127315320D01*
X147877587Y-127313202D01*
X148551318Y-126639470D01*
X148522740Y-126617227D01*
X148317525Y-126506172D01*
X148317522Y-126506170D01*
X148096832Y-126430407D01*
X148096823Y-126430405D01*
X147866666Y-126392000D01*
X147633334Y-126392000D01*
X147403176Y-126430405D01*
X147403167Y-126430407D01*
X147182477Y-126506170D01*
X147182474Y-126506172D01*
X146977258Y-126617227D01*
X146948680Y-126639469D01*
X146948680Y-126639471D01*
X147622411Y-127313202D01*
X147607685Y-127315320D01*
X147476900Y-127375048D01*
X147368239Y-127469202D01*
X147290507Y-127590156D01*
X147265639Y-127674848D01*
X146590798Y-127000007D01*
X146577261Y-127001410D01*
X146551775Y-127023161D01*
X146481427Y-127032735D01*
X146417070Y-127002756D01*
X146394815Y-126977071D01*
X146365314Y-126931916D01*
X146207225Y-126760186D01*
X146207221Y-126760182D01*
X146095714Y-126673393D01*
X146023017Y-126616810D01*
X145817727Y-126505713D01*
X145817724Y-126505712D01*
X145817723Y-126505711D01*
X145596955Y-126429921D01*
X145596948Y-126429919D01*
X145498411Y-126413476D01*
X145366712Y-126391500D01*
X145133288Y-126391500D01*
X145018066Y-126410727D01*
X144903051Y-126429919D01*
X144903044Y-126429921D01*
X144682276Y-126505711D01*
X144682273Y-126505713D01*
X144498304Y-126605272D01*
X144476985Y-126616809D01*
X144476983Y-126616810D01*
X144292778Y-126760182D01*
X144292774Y-126760186D01*
X144134685Y-126931916D01*
X144105483Y-126976615D01*
X144051480Y-127022704D01*
X143981132Y-127032279D01*
X143916774Y-127002302D01*
X143894517Y-126976615D01*
X143865314Y-126931916D01*
X143707225Y-126760186D01*
X143707221Y-126760182D01*
X143595714Y-126673393D01*
X143523017Y-126616810D01*
X143317727Y-126505713D01*
X143317724Y-126505712D01*
X143317723Y-126505711D01*
X143096955Y-126429921D01*
X143096948Y-126429919D01*
X142998411Y-126413476D01*
X142866712Y-126391500D01*
X142633288Y-126391500D01*
X142518066Y-126410727D01*
X142403051Y-126429919D01*
X142403044Y-126429921D01*
X142182276Y-126505711D01*
X142182273Y-126505713D01*
X141998304Y-126605272D01*
X141976985Y-126616809D01*
X141976983Y-126616810D01*
X141792778Y-126760182D01*
X141792774Y-126760186D01*
X141634685Y-126931916D01*
X141507015Y-127127331D01*
X141413252Y-127341089D01*
X141413249Y-127341096D01*
X141355950Y-127567366D01*
X141355949Y-127567372D01*
X141355949Y-127567374D01*
X141336673Y-127800000D01*
X141354061Y-128009844D01*
X141355950Y-128032633D01*
X141413249Y-128258903D01*
X141413252Y-128258910D01*
X141507015Y-128472668D01*
X141634685Y-128668083D01*
X141792774Y-128839813D01*
X141792778Y-128839817D01*
X141858650Y-128891087D01*
X141976983Y-128983190D01*
X142182273Y-129094287D01*
X142403049Y-129170080D01*
X142633288Y-129208500D01*
X142633292Y-129208500D01*
X142866708Y-129208500D01*
X142866712Y-129208500D01*
X143096951Y-129170080D01*
X143109165Y-129165886D01*
X143117269Y-129163105D01*
X143188194Y-129159903D01*
X143247278Y-129193182D01*
X145633595Y-131579499D01*
X145667621Y-131641811D01*
X145670500Y-131668594D01*
X145670500Y-152008805D01*
X145650498Y-152076926D01*
X145633595Y-152097900D01*
X143240647Y-154490847D01*
X143178335Y-154524873D01*
X143118941Y-154523459D01*
X143055491Y-154506457D01*
X142827401Y-154486502D01*
X142599314Y-154506457D01*
X142378160Y-154565715D01*
X142378154Y-154565717D01*
X142170646Y-154662479D01*
X142170644Y-154662480D01*
X142165186Y-154666303D01*
X142097911Y-154688988D01*
X142029051Y-154671700D01*
X141997065Y-154643080D01*
X141997035Y-154643111D01*
X141996494Y-154642570D01*
X141992051Y-154638595D01*
X141990662Y-154636739D01*
X141990660Y-154636737D01*
X141990659Y-154636736D01*
X141873608Y-154549112D01*
X141873603Y-154549110D01*
X141736605Y-154498011D01*
X141736597Y-154498009D01*
X141676050Y-154491500D01*
X141676039Y-154491500D01*
X140133294Y-154491500D01*
X140065173Y-154471498D01*
X140044199Y-154454595D01*
X136273284Y-150683679D01*
X136239258Y-150621367D01*
X136244323Y-150550551D01*
X136286870Y-150493716D01*
X136290109Y-150491371D01*
X136292746Y-150489524D01*
X136292749Y-150489523D01*
X136480300Y-150358198D01*
X136642198Y-150196300D01*
X136773523Y-150008749D01*
X136870284Y-149801243D01*
X136929543Y-149580087D01*
X136949498Y-149352000D01*
X136929543Y-149123913D01*
X136870284Y-148902757D01*
X136773523Y-148695251D01*
X136642198Y-148507700D01*
X136480300Y-148345802D01*
X136476240Y-148342959D01*
X136323229Y-148235819D01*
X136278901Y-148180362D01*
X136269500Y-148132606D01*
X136269500Y-147269393D01*
X136289502Y-147201272D01*
X136323230Y-147166180D01*
X136470710Y-147062913D01*
X136480300Y-147056198D01*
X136642198Y-146894300D01*
X136773523Y-146706749D01*
X136870284Y-146499243D01*
X136929543Y-146278087D01*
X136949498Y-146050000D01*
X136929543Y-145821913D01*
X136870284Y-145600757D01*
X136773523Y-145393251D01*
X136642198Y-145205700D01*
X136480300Y-145043802D01*
X136337051Y-144943498D01*
X136292749Y-144912477D01*
X136085246Y-144815717D01*
X136085240Y-144815715D01*
X135968401Y-144784408D01*
X135864087Y-144756457D01*
X135636000Y-144736502D01*
X135407913Y-144756457D01*
X135303599Y-144784407D01*
X135232623Y-144782718D01*
X135173828Y-144742924D01*
X135145880Y-144677659D01*
X135144989Y-144662701D01*
X135144989Y-144135298D01*
X135164991Y-144067177D01*
X135218647Y-144020684D01*
X135288921Y-144010580D01*
X135303593Y-144013590D01*
X135407913Y-144041543D01*
X135636000Y-144061498D01*
X135864087Y-144041543D01*
X136085243Y-143982284D01*
X136292749Y-143885523D01*
X136480300Y-143754198D01*
X136642198Y-143592300D01*
X136773523Y-143404749D01*
X136870284Y-143197243D01*
X136929543Y-142976087D01*
X136949498Y-142748000D01*
X136929543Y-142519913D01*
X136929374Y-142519284D01*
X136920467Y-142486042D01*
X136912540Y-142456457D01*
X136914229Y-142385481D01*
X136945149Y-142334753D01*
X138336057Y-140943845D01*
X138348492Y-140933884D01*
X138348305Y-140933657D01*
X138354416Y-140928601D01*
X138354415Y-140928601D01*
X138354418Y-140928600D01*
X138401076Y-140878912D01*
X138403767Y-140876135D01*
X138423534Y-140856370D01*
X138426017Y-140853167D01*
X138433708Y-140844162D01*
X138463986Y-140811921D01*
X138473745Y-140794167D01*
X138484597Y-140777646D01*
X138497013Y-140761641D01*
X138514568Y-140721070D01*
X138519792Y-140710408D01*
X138521116Y-140708000D01*
X138541095Y-140671660D01*
X138546133Y-140652035D01*
X138552538Y-140633330D01*
X138554736Y-140628251D01*
X138560581Y-140614745D01*
X138567496Y-140571081D01*
X138569904Y-140559452D01*
X138572179Y-140550592D01*
X138580900Y-140516630D01*
X138580900Y-140496375D01*
X138582451Y-140476663D01*
X138582556Y-140476002D01*
X138585620Y-140456657D01*
X138581459Y-140412636D01*
X138580900Y-140400779D01*
X138580900Y-139735194D01*
X138600902Y-139667073D01*
X138617800Y-139646103D01*
X138815390Y-139448513D01*
X138877699Y-139414490D01*
X138948515Y-139419554D01*
X139005351Y-139462101D01*
X139026190Y-139504999D01*
X139066715Y-139656240D01*
X139066717Y-139656246D01*
X139163477Y-139863749D01*
X139268491Y-140013725D01*
X139294802Y-140051300D01*
X139456700Y-140213198D01*
X139644251Y-140344523D01*
X139672666Y-140357773D01*
X139683457Y-140362805D01*
X139736742Y-140409722D01*
X139756203Y-140477999D01*
X139735661Y-140545959D01*
X139683457Y-140591195D01*
X139644250Y-140609477D01*
X139456703Y-140740799D01*
X139456697Y-140740804D01*
X139294804Y-140902697D01*
X139294799Y-140902703D01*
X139163477Y-141090250D01*
X139066717Y-141297753D01*
X139066715Y-141297759D01*
X139015127Y-141490287D01*
X139007457Y-141518913D01*
X138987502Y-141747000D01*
X139001211Y-141903700D01*
X139007457Y-141975086D01*
X139066715Y-142196240D01*
X139066717Y-142196246D01*
X139163477Y-142403749D01*
X139268685Y-142554002D01*
X139294802Y-142591300D01*
X139456700Y-142753198D01*
X139644251Y-142884523D01*
X139672666Y-142897773D01*
X139684047Y-142903080D01*
X139737332Y-142949996D01*
X139756794Y-143018273D01*
X139736253Y-143086233D01*
X139684051Y-143131468D01*
X139644504Y-143149910D01*
X139457025Y-143281184D01*
X139457019Y-143281189D01*
X139295189Y-143443019D01*
X139295184Y-143443025D01*
X139163912Y-143630501D01*
X139067188Y-143837926D01*
X139067186Y-143837931D01*
X139014917Y-144033000D01*
X140389314Y-144033000D01*
X140373359Y-144048955D01*
X140315835Y-144161852D01*
X140296014Y-144287000D01*
X140315835Y-144412148D01*
X140373359Y-144525045D01*
X140389314Y-144541000D01*
X139014918Y-144541000D01*
X139067186Y-144736068D01*
X139067188Y-144736073D01*
X139163912Y-144943498D01*
X139295184Y-145130974D01*
X139295189Y-145130980D01*
X139457019Y-145292810D01*
X139457025Y-145292815D01*
X139644503Y-145424089D01*
X139684641Y-145442806D01*
X139737925Y-145489723D01*
X139757386Y-145558000D01*
X139736844Y-145625960D01*
X139684641Y-145671194D01*
X139644503Y-145689910D01*
X139457025Y-145821184D01*
X139457019Y-145821189D01*
X139295189Y-145983019D01*
X139295184Y-145983025D01*
X139163912Y-146170501D01*
X139067188Y-146377926D01*
X139067186Y-146377931D01*
X139014917Y-146573000D01*
X140389314Y-146573000D01*
X140373359Y-146588955D01*
X140315835Y-146701852D01*
X140296014Y-146827000D01*
X140315835Y-146952148D01*
X140373359Y-147065045D01*
X140389314Y-147081000D01*
X139014918Y-147081000D01*
X139067186Y-147276068D01*
X139067188Y-147276073D01*
X139163912Y-147483498D01*
X139295184Y-147670974D01*
X139295189Y-147670980D01*
X139457019Y-147832810D01*
X139457025Y-147832815D01*
X139644503Y-147964089D01*
X139684641Y-147982806D01*
X139737925Y-148029723D01*
X139757386Y-148098000D01*
X139736844Y-148165960D01*
X139684641Y-148211194D01*
X139644503Y-148229910D01*
X139457025Y-148361184D01*
X139457019Y-148361189D01*
X139295189Y-148523019D01*
X139295184Y-148523025D01*
X139163912Y-148710501D01*
X139067188Y-148917926D01*
X139067186Y-148917931D01*
X139014917Y-149113000D01*
X140389314Y-149113000D01*
X140373359Y-149128955D01*
X140315835Y-149241852D01*
X140296014Y-149367000D01*
X140315835Y-149492148D01*
X140373359Y-149605045D01*
X140389314Y-149621000D01*
X139014918Y-149621000D01*
X139067186Y-149816068D01*
X139067188Y-149816073D01*
X139163912Y-150023498D01*
X139295184Y-150210974D01*
X139295189Y-150210980D01*
X139457019Y-150372810D01*
X139457025Y-150372815D01*
X139644501Y-150504087D01*
X139851926Y-150600811D01*
X139851931Y-150600813D01*
X140072999Y-150660048D01*
X140072995Y-150660048D01*
X140243901Y-150675000D01*
X140447000Y-150675000D01*
X140447000Y-149678686D01*
X140462955Y-149694641D01*
X140575852Y-149752165D01*
X140669519Y-149767000D01*
X140732481Y-149767000D01*
X140826148Y-149752165D01*
X140939045Y-149694641D01*
X140955000Y-149678686D01*
X140955000Y-150675000D01*
X141158099Y-150675000D01*
X141329002Y-150660048D01*
X141550068Y-150600813D01*
X141550073Y-150600811D01*
X141757498Y-150504087D01*
X141944974Y-150372815D01*
X141944980Y-150372810D01*
X142106810Y-150210980D01*
X142106815Y-150210974D01*
X142238087Y-150023498D01*
X142334811Y-149816073D01*
X142334813Y-149816068D01*
X142387082Y-149621000D01*
X141012686Y-149621000D01*
X141028641Y-149605045D01*
X141086165Y-149492148D01*
X141105986Y-149367000D01*
X141086165Y-149241852D01*
X141028641Y-149128955D01*
X141012686Y-149113000D01*
X142387082Y-149113000D01*
X142334813Y-148917931D01*
X142334811Y-148917926D01*
X142238087Y-148710501D01*
X142106815Y-148523025D01*
X142106810Y-148523019D01*
X141944980Y-148361189D01*
X141944974Y-148361184D01*
X141757498Y-148229912D01*
X141717359Y-148211195D01*
X141664074Y-148164278D01*
X141644613Y-148096001D01*
X141665155Y-148028041D01*
X141717359Y-147982805D01*
X141757498Y-147964087D01*
X141944974Y-147832815D01*
X141944980Y-147832810D01*
X142106810Y-147670980D01*
X142106815Y-147670974D01*
X142238087Y-147483498D01*
X142334811Y-147276073D01*
X142334813Y-147276068D01*
X142387082Y-147081000D01*
X141012686Y-147081000D01*
X141028641Y-147065045D01*
X141086165Y-146952148D01*
X141105986Y-146827000D01*
X141086165Y-146701852D01*
X141028641Y-146588955D01*
X141012686Y-146573000D01*
X142387082Y-146573000D01*
X142334813Y-146377931D01*
X142334811Y-146377926D01*
X142238087Y-146170501D01*
X142106815Y-145983025D01*
X142106810Y-145983019D01*
X141944980Y-145821189D01*
X141944974Y-145821184D01*
X141757498Y-145689912D01*
X141717359Y-145671195D01*
X141664074Y-145624278D01*
X141644613Y-145556001D01*
X141665155Y-145488041D01*
X141717359Y-145442805D01*
X141757498Y-145424087D01*
X141944974Y-145292815D01*
X141944980Y-145292810D01*
X142106810Y-145130980D01*
X142106815Y-145130974D01*
X142238087Y-144943498D01*
X142334811Y-144736073D01*
X142334813Y-144736068D01*
X142387082Y-144541000D01*
X141012686Y-144541000D01*
X141028641Y-144525045D01*
X141086165Y-144412148D01*
X141105986Y-144287000D01*
X141086165Y-144161852D01*
X141028641Y-144048955D01*
X141012686Y-144033000D01*
X142387082Y-144033000D01*
X142334813Y-143837931D01*
X142334811Y-143837926D01*
X142238087Y-143630501D01*
X142106815Y-143443025D01*
X142106810Y-143443019D01*
X141944980Y-143281189D01*
X141944974Y-143281184D01*
X141757497Y-143149911D01*
X141717949Y-143131469D01*
X141664665Y-143084551D01*
X141645205Y-143016273D01*
X141665748Y-142948314D01*
X141717950Y-142903081D01*
X141757749Y-142884523D01*
X141945300Y-142753198D01*
X142107198Y-142591300D01*
X142238523Y-142403749D01*
X142335284Y-142196243D01*
X142394543Y-141975087D01*
X142414498Y-141747000D01*
X142394543Y-141518913D01*
X142335284Y-141297757D01*
X142238523Y-141090251D01*
X142107198Y-140902700D01*
X141945300Y-140740802D01*
X141932989Y-140732182D01*
X141875032Y-140691600D01*
X141757749Y-140609477D01*
X141725570Y-140594472D01*
X141718543Y-140591195D01*
X141665258Y-140544279D01*
X141645796Y-140476002D01*
X141666337Y-140408042D01*
X141718543Y-140362805D01*
X141729334Y-140357773D01*
X141757749Y-140344523D01*
X141945300Y-140213198D01*
X142107198Y-140051300D01*
X142238523Y-139863749D01*
X142335284Y-139656243D01*
X142394543Y-139435087D01*
X142414498Y-139207000D01*
X142394543Y-138978913D01*
X142335284Y-138757757D01*
X142238523Y-138550251D01*
X142107198Y-138362700D01*
X141945300Y-138200802D01*
X141918629Y-138182127D01*
X141779682Y-138084835D01*
X141757749Y-138069477D01*
X141718543Y-138051195D01*
X141665258Y-138004279D01*
X141645796Y-137936002D01*
X141666337Y-137868042D01*
X141718543Y-137822805D01*
X141729334Y-137817773D01*
X141757749Y-137804523D01*
X141945300Y-137673198D01*
X142107198Y-137511300D01*
X142238523Y-137323749D01*
X142335284Y-137116243D01*
X142394543Y-136895087D01*
X142414498Y-136667000D01*
X142394543Y-136438913D01*
X142335284Y-136217757D01*
X142238523Y-136010251D01*
X142107198Y-135822700D01*
X141945300Y-135660802D01*
X141918629Y-135642127D01*
X141873369Y-135610435D01*
X141757749Y-135529477D01*
X141718543Y-135511195D01*
X141665258Y-135464279D01*
X141645796Y-135396002D01*
X141666337Y-135328042D01*
X141718543Y-135282805D01*
X141729334Y-135277773D01*
X141757749Y-135264523D01*
X141945300Y-135133198D01*
X142107198Y-134971300D01*
X142238523Y-134783749D01*
X142335284Y-134576243D01*
X142394543Y-134355087D01*
X142414498Y-134127000D01*
X142394543Y-133898913D01*
X142335284Y-133677757D01*
X142238523Y-133470251D01*
X142107198Y-133282700D01*
X141945300Y-133120802D01*
X141945295Y-133120799D01*
X141945292Y-133120796D01*
X141941995Y-133118487D01*
X141897669Y-133063028D01*
X141890363Y-132992409D01*
X141922396Y-132929049D01*
X141983599Y-132893067D01*
X142000801Y-132889999D01*
X142010201Y-132888989D01*
X142147204Y-132837889D01*
X142153125Y-132833457D01*
X142264261Y-132750261D01*
X142351887Y-132633207D01*
X142351887Y-132633206D01*
X142351889Y-132633204D01*
X142402989Y-132496201D01*
X142403249Y-132493790D01*
X142409499Y-132435649D01*
X142409500Y-132435632D01*
X142409500Y-130738367D01*
X142409499Y-130738350D01*
X142402990Y-130677803D01*
X142402988Y-130677795D01*
X142366953Y-130581184D01*
X142351889Y-130540796D01*
X142351888Y-130540794D01*
X142351887Y-130540792D01*
X142264261Y-130423738D01*
X142147207Y-130336112D01*
X142147202Y-130336110D01*
X142010204Y-130285011D01*
X142010196Y-130285009D01*
X141949649Y-130278500D01*
X141949638Y-130278500D01*
X139452362Y-130278500D01*
X139452350Y-130278500D01*
X139391803Y-130285009D01*
X139391795Y-130285011D01*
X139254797Y-130336110D01*
X139254792Y-130336112D01*
X139137738Y-130423738D01*
X139050112Y-130540792D01*
X139050110Y-130540797D01*
X138999011Y-130677795D01*
X138999009Y-130677803D01*
X138992500Y-130738350D01*
X138992500Y-132435649D01*
X138999009Y-132496196D01*
X138999011Y-132496204D01*
X139050110Y-132633202D01*
X139050112Y-132633207D01*
X139137738Y-132750261D01*
X139254792Y-132837887D01*
X139254794Y-132837888D01*
X139254796Y-132837889D01*
X139391799Y-132888989D01*
X139401191Y-132889998D01*
X139466784Y-132917163D01*
X139507279Y-132975479D01*
X139509817Y-133046430D01*
X139473593Y-133107490D01*
X139460010Y-133118483D01*
X139456708Y-133120795D01*
X139456697Y-133120804D01*
X139294804Y-133282697D01*
X139294799Y-133282703D01*
X139163477Y-133470250D01*
X139066717Y-133677753D01*
X139066712Y-133677767D01*
X139026189Y-133829000D01*
X138989238Y-133889622D01*
X138925377Y-133920644D01*
X138854882Y-133912215D01*
X138815388Y-133885483D01*
X137431405Y-132501500D01*
X137397379Y-132439188D01*
X137394500Y-132412405D01*
X137394500Y-128315845D01*
X137396249Y-128300003D01*
X137395956Y-128299976D01*
X137396700Y-128292090D01*
X137396702Y-128292083D01*
X137394562Y-128223991D01*
X137394500Y-128220033D01*
X137394500Y-128192141D01*
X137394500Y-128192135D01*
X137393993Y-128188126D01*
X137393062Y-128176297D01*
X137391674Y-128132102D01*
X137386017Y-128112633D01*
X137382012Y-128093289D01*
X137379474Y-128073194D01*
X137379473Y-128073193D01*
X137379473Y-128073188D01*
X137377503Y-128065515D01*
X137380747Y-128064681D01*
X137375617Y-128009301D01*
X137408326Y-127946289D01*
X137446021Y-127919301D01*
X137522749Y-127883523D01*
X137710300Y-127752198D01*
X137872198Y-127590300D01*
X138003523Y-127402749D01*
X138100284Y-127195243D01*
X138159543Y-126974087D01*
X138179498Y-126746000D01*
X138159543Y-126517913D01*
X138100284Y-126296757D01*
X138003523Y-126089251D01*
X137872198Y-125901700D01*
X137710300Y-125739802D01*
X137594757Y-125658898D01*
X137522749Y-125608477D01*
X137315246Y-125511717D01*
X137315240Y-125511715D01*
X137184775Y-125476757D01*
X137094087Y-125452457D01*
X136866000Y-125432502D01*
X136637913Y-125452457D01*
X136416759Y-125511715D01*
X136416753Y-125511717D01*
X136209250Y-125608477D01*
X136021703Y-125739799D01*
X136021697Y-125739804D01*
X135859804Y-125901697D01*
X135859799Y-125901703D01*
X135726343Y-126092298D01*
X135670886Y-126136626D01*
X135600266Y-126143935D01*
X135536906Y-126111904D01*
X135534035Y-126109122D01*
X133087197Y-123662284D01*
X131598914Y-122174000D01*
X135943917Y-122174000D01*
X136918314Y-122174000D01*
X136902359Y-122189955D01*
X136844835Y-122302852D01*
X136825014Y-122428000D01*
X136844835Y-122553148D01*
X136902359Y-122666045D01*
X136918314Y-122682000D01*
X135943918Y-122682000D01*
X135996186Y-122877068D01*
X135996188Y-122877073D01*
X136092912Y-123084498D01*
X136224184Y-123271974D01*
X136224189Y-123271980D01*
X136386019Y-123433810D01*
X136386025Y-123433815D01*
X136573501Y-123565087D01*
X136780926Y-123661811D01*
X136780931Y-123661813D01*
X136976000Y-123714081D01*
X136976000Y-122739686D01*
X136991955Y-122755641D01*
X137104852Y-122813165D01*
X137198519Y-122828000D01*
X137261481Y-122828000D01*
X137355148Y-122813165D01*
X137468045Y-122755641D01*
X137484000Y-122739686D01*
X137484000Y-123714081D01*
X137679068Y-123661813D01*
X137679073Y-123661811D01*
X137886498Y-123565087D01*
X138073974Y-123433815D01*
X138073980Y-123433810D01*
X138235810Y-123271980D01*
X138235815Y-123271974D01*
X138367087Y-123084498D01*
X138463811Y-122877073D01*
X138463813Y-122877068D01*
X138516082Y-122682000D01*
X137541686Y-122682000D01*
X137557641Y-122666045D01*
X137615165Y-122553148D01*
X137634986Y-122428000D01*
X137615165Y-122302852D01*
X137557641Y-122189955D01*
X137541686Y-122174000D01*
X138516082Y-122174000D01*
X138534892Y-122149487D01*
X138592230Y-122107620D01*
X138663101Y-122103398D01*
X138725004Y-122138162D01*
X138741239Y-122158677D01*
X138816562Y-122277368D01*
X139017763Y-122520578D01*
X139017766Y-122520580D01*
X139017767Y-122520582D01*
X139229637Y-122719541D01*
X139247860Y-122736654D01*
X139441360Y-122877240D01*
X139503221Y-122922184D01*
X139779821Y-123074247D01*
X140073298Y-123190443D01*
X140379025Y-123268940D01*
X140379033Y-123268941D01*
X140379032Y-123268941D01*
X140405638Y-123272302D01*
X140692179Y-123308500D01*
X140692183Y-123308500D01*
X141007817Y-123308500D01*
X141007821Y-123308500D01*
X141320975Y-123268940D01*
X141626702Y-123190443D01*
X141920179Y-123074247D01*
X142196779Y-122922184D01*
X142452140Y-122736654D01*
X142682233Y-122520582D01*
X142883432Y-122277375D01*
X142883434Y-122277370D01*
X142883437Y-122277368D01*
X143032276Y-122042835D01*
X143052562Y-122010869D01*
X143186956Y-121725266D01*
X143284495Y-121425072D01*
X143343641Y-121115020D01*
X143357921Y-120888044D01*
X143363460Y-120800006D01*
X143363460Y-120799993D01*
X143343642Y-120484992D01*
X143343640Y-120484975D01*
X143325676Y-120390806D01*
X143284495Y-120174928D01*
X143265667Y-120116980D01*
X143186960Y-119874745D01*
X143186955Y-119874732D01*
X143114596Y-119720961D01*
X143052562Y-119589131D01*
X143052556Y-119589121D01*
X142883437Y-119322631D01*
X142682236Y-119079421D01*
X142667784Y-119065850D01*
X142496521Y-118905023D01*
X142452139Y-118863345D01*
X142196781Y-118677817D01*
X142154385Y-118654509D01*
X141920179Y-118525753D01*
X141626702Y-118409557D01*
X141320975Y-118331060D01*
X141320970Y-118331059D01*
X141320965Y-118331058D01*
X141320967Y-118331058D01*
X141007835Y-118291501D01*
X141007824Y-118291500D01*
X141007821Y-118291500D01*
X140692179Y-118291500D01*
X140692176Y-118291500D01*
X140692164Y-118291501D01*
X140379033Y-118331058D01*
X140379025Y-118331059D01*
X140379025Y-118331060D01*
X140351657Y-118338087D01*
X140073301Y-118409556D01*
X139779821Y-118525753D01*
X139503218Y-118677817D01*
X139247861Y-118863345D01*
X139247860Y-118863345D01*
X139017763Y-119079421D01*
X138816562Y-119322631D01*
X138647443Y-119589121D01*
X138647436Y-119589135D01*
X138513044Y-119874732D01*
X138513039Y-119874745D01*
X138415507Y-120174919D01*
X138415504Y-120174932D01*
X138356359Y-120484975D01*
X138356357Y-120484992D01*
X138336540Y-120799993D01*
X138336540Y-120800006D01*
X138356357Y-121115007D01*
X138356359Y-121115024D01*
X138415504Y-121425067D01*
X138415507Y-121425082D01*
X138416316Y-121427570D01*
X138416337Y-121428312D01*
X138416491Y-121428912D01*
X138416355Y-121428946D01*
X138418340Y-121498538D01*
X138381674Y-121559334D01*
X138317961Y-121590656D01*
X138247427Y-121582559D01*
X138207386Y-121555595D01*
X138073980Y-121422189D01*
X138073974Y-121422184D01*
X137886498Y-121290912D01*
X137679073Y-121194188D01*
X137679071Y-121194187D01*
X137484000Y-121141917D01*
X137484000Y-122116314D01*
X137468045Y-122100359D01*
X137355148Y-122042835D01*
X137261481Y-122028000D01*
X137198519Y-122028000D01*
X137104852Y-122042835D01*
X136991955Y-122100359D01*
X136976000Y-122116314D01*
X136976000Y-121141917D01*
X136975999Y-121141917D01*
X136780928Y-121194187D01*
X136780926Y-121194188D01*
X136573501Y-121290912D01*
X136386025Y-121422184D01*
X136386019Y-121422189D01*
X136224189Y-121584019D01*
X136224184Y-121584025D01*
X136092912Y-121771501D01*
X135996188Y-121978926D01*
X135996186Y-121978931D01*
X135943917Y-122174000D01*
X131598914Y-122174000D01*
X130571456Y-121146542D01*
X130537430Y-121084230D01*
X130535240Y-121070609D01*
X130535142Y-121069672D01*
X130476127Y-120888044D01*
X130380640Y-120722656D01*
X130380638Y-120722654D01*
X130380634Y-120722648D01*
X130252855Y-120580735D01*
X130098352Y-120468482D01*
X129923888Y-120390806D01*
X129737087Y-120351100D01*
X129546113Y-120351100D01*
X129359311Y-120390806D01*
X129184847Y-120468482D01*
X129030344Y-120580735D01*
X128902565Y-120722648D01*
X128902558Y-120722658D01*
X128807076Y-120888038D01*
X128807073Y-120888045D01*
X128748057Y-121069672D01*
X128728096Y-121259600D01*
X128748057Y-121449527D01*
X128758940Y-121483019D01*
X128807073Y-121631156D01*
X128807076Y-121631161D01*
X128902558Y-121796541D01*
X128902565Y-121796551D01*
X129030344Y-121938464D01*
X129030347Y-121938466D01*
X129184848Y-122050718D01*
X129359312Y-122128394D01*
X129546113Y-122168100D01*
X129743691Y-122168100D01*
X129743691Y-122169814D01*
X129805159Y-122181047D01*
X129837603Y-122204498D01*
X136090595Y-128457490D01*
X136124621Y-128519802D01*
X136127500Y-128546585D01*
X136127500Y-131200832D01*
X136107498Y-131268953D01*
X136053842Y-131315446D01*
X135983568Y-131325550D01*
X135968891Y-131322539D01*
X135864087Y-131294457D01*
X135636000Y-131274502D01*
X135407913Y-131294457D01*
X135186759Y-131353715D01*
X135186753Y-131353717D01*
X134979250Y-131450477D01*
X134791703Y-131581799D01*
X134791697Y-131581804D01*
X134629804Y-131743697D01*
X134629799Y-131743703D01*
X134498477Y-131931250D01*
X134401717Y-132138753D01*
X134401715Y-132138759D01*
X134358702Y-132299286D01*
X134342457Y-132359913D01*
X134322502Y-132588000D01*
X134342457Y-132816087D01*
X134348299Y-132837889D01*
X134401715Y-133037240D01*
X134401717Y-133037246D01*
X134440680Y-133120802D01*
X134498477Y-133244749D01*
X134629802Y-133432300D01*
X134791700Y-133594198D01*
X134979251Y-133725523D01*
X135186757Y-133822284D01*
X135407913Y-133881543D01*
X135636000Y-133901498D01*
X135864087Y-133881543D01*
X136085243Y-133822284D01*
X136292749Y-133725523D01*
X136480300Y-133594198D01*
X136517202Y-133557296D01*
X136579514Y-133523270D01*
X136650329Y-133528335D01*
X136695392Y-133557296D01*
X139096279Y-135958183D01*
X139130305Y-136020495D01*
X139125240Y-136091310D01*
X139121379Y-136100527D01*
X139066719Y-136217748D01*
X139066715Y-136217759D01*
X139007457Y-136438913D01*
X138987502Y-136667000D01*
X139007457Y-136895086D01*
X139066715Y-137116240D01*
X139066717Y-137116246D01*
X139121379Y-137233469D01*
X139132040Y-137303661D01*
X139103060Y-137368474D01*
X139096279Y-137375814D01*
X137558736Y-138913357D01*
X137546301Y-138923321D01*
X137546489Y-138923548D01*
X137540379Y-138928602D01*
X137493770Y-138978235D01*
X137491020Y-138981073D01*
X137471263Y-139000831D01*
X137468774Y-139004039D01*
X137461088Y-139013036D01*
X137430818Y-139045273D01*
X137430811Y-139045283D01*
X137421051Y-139063035D01*
X137410203Y-139079550D01*
X137397786Y-139095558D01*
X137380224Y-139136140D01*
X137375004Y-139146795D01*
X137353705Y-139185539D01*
X137353703Y-139185544D01*
X137348667Y-139205159D01*
X137342264Y-139223862D01*
X137334219Y-139242452D01*
X137327301Y-139286125D01*
X137324895Y-139297742D01*
X137313900Y-139340568D01*
X137313900Y-139360823D01*
X137312349Y-139380533D01*
X137309180Y-139400542D01*
X137313341Y-139444561D01*
X137313900Y-139456419D01*
X137313900Y-140122004D01*
X137293898Y-140190125D01*
X137276995Y-140211099D01*
X136049246Y-141438847D01*
X135986934Y-141472873D01*
X135927540Y-141471459D01*
X135864090Y-141454457D01*
X135636000Y-141434502D01*
X135407913Y-141454457D01*
X135303599Y-141482407D01*
X135232623Y-141480718D01*
X135173828Y-141440924D01*
X135145880Y-141375659D01*
X135144989Y-141360701D01*
X135144989Y-140885105D01*
X135164991Y-140816984D01*
X135181889Y-140796014D01*
X135222753Y-140755150D01*
X135285062Y-140721126D01*
X135344457Y-140722539D01*
X135407913Y-140739543D01*
X135636000Y-140759498D01*
X135864087Y-140739543D01*
X136085243Y-140680284D01*
X136292749Y-140583523D01*
X136480300Y-140452198D01*
X136642198Y-140290300D01*
X136773523Y-140102749D01*
X136870284Y-139895243D01*
X136929543Y-139674087D01*
X136949498Y-139446000D01*
X136929543Y-139217913D01*
X136870284Y-138996757D01*
X136773523Y-138789251D01*
X136642198Y-138601700D01*
X136480300Y-138439802D01*
X136292749Y-138308477D01*
X136258696Y-138292598D01*
X136085246Y-138211717D01*
X136085240Y-138211715D01*
X135974816Y-138182127D01*
X135864087Y-138152457D01*
X135636000Y-138132502D01*
X135407913Y-138152457D01*
X135186759Y-138211715D01*
X135186753Y-138211717D01*
X134979250Y-138308477D01*
X134791703Y-138439799D01*
X134791697Y-138439804D01*
X134629804Y-138601697D01*
X134629799Y-138601703D01*
X134498477Y-138789250D01*
X134401717Y-138996753D01*
X134401715Y-138996759D01*
X134342457Y-139217913D01*
X134322502Y-139446000D01*
X134342457Y-139674090D01*
X134359459Y-139737540D01*
X134357769Y-139808516D01*
X134326847Y-139859246D01*
X134122825Y-140063268D01*
X134110390Y-140073232D01*
X134110578Y-140073459D01*
X134104468Y-140078513D01*
X134057859Y-140128146D01*
X134055109Y-140130984D01*
X134035352Y-140150742D01*
X134032863Y-140153950D01*
X134025177Y-140162947D01*
X133994907Y-140195184D01*
X133994900Y-140195194D01*
X133985140Y-140212946D01*
X133974292Y-140229461D01*
X133961875Y-140245469D01*
X133944313Y-140286051D01*
X133939093Y-140296706D01*
X133917794Y-140335450D01*
X133917792Y-140335455D01*
X133912756Y-140355070D01*
X133906353Y-140373773D01*
X133898308Y-140392363D01*
X133891390Y-140436036D01*
X133888984Y-140447653D01*
X133877989Y-140490479D01*
X133877989Y-140510734D01*
X133876438Y-140530444D01*
X133874247Y-140544279D01*
X133873269Y-140550454D01*
X133877413Y-140594288D01*
X133877430Y-140594472D01*
X133877989Y-140606330D01*
X133877989Y-149733935D01*
X133876240Y-149749777D01*
X133876533Y-149749805D01*
X133875787Y-149757696D01*
X133877927Y-149825773D01*
X133877989Y-149829732D01*
X133877989Y-149857640D01*
X133877990Y-149857658D01*
X133878496Y-149861666D01*
X133879426Y-149873485D01*
X133880815Y-149917677D01*
X133880816Y-149917682D01*
X133886466Y-149937128D01*
X133890475Y-149956486D01*
X133893014Y-149976582D01*
X133893015Y-149976589D01*
X133909289Y-150017692D01*
X133913133Y-150028918D01*
X133925471Y-150071382D01*
X133935783Y-150088820D01*
X133944477Y-150106568D01*
X133951933Y-150125398D01*
X133951939Y-150125409D01*
X133977921Y-150161170D01*
X133984438Y-150171090D01*
X134006947Y-150209151D01*
X134006948Y-150209152D01*
X134006950Y-150209155D01*
X134021268Y-150223473D01*
X134034106Y-150238503D01*
X134043645Y-150251632D01*
X134044344Y-150252594D01*
X134046015Y-150254893D01*
X134046019Y-150254898D01*
X134080087Y-150283081D01*
X134088867Y-150291071D01*
X134828201Y-151030405D01*
X134862227Y-151092717D01*
X134857162Y-151163532D01*
X134814615Y-151220368D01*
X134748095Y-151245179D01*
X134739106Y-151245500D01*
X133417350Y-151245500D01*
X133356803Y-151252009D01*
X133356795Y-151252011D01*
X133219797Y-151303110D01*
X133219792Y-151303112D01*
X133102738Y-151390738D01*
X133015112Y-151507792D01*
X133015110Y-151507797D01*
X132964011Y-151644795D01*
X132964009Y-151644803D01*
X132957500Y-151705350D01*
X132957500Y-153602649D01*
X132964009Y-153663196D01*
X132964011Y-153663204D01*
X133015110Y-153800202D01*
X133015112Y-153800207D01*
X133102738Y-153917261D01*
X133219792Y-154004887D01*
X133219794Y-154004888D01*
X133219796Y-154004889D01*
X133271243Y-154024078D01*
X133356795Y-154055988D01*
X133356803Y-154055990D01*
X133417350Y-154062499D01*
X133417355Y-154062499D01*
X133417362Y-154062500D01*
X133417368Y-154062500D01*
X135314632Y-154062500D01*
X135314638Y-154062500D01*
X135314645Y-154062499D01*
X135314649Y-154062499D01*
X135375196Y-154055990D01*
X135375199Y-154055989D01*
X135375201Y-154055989D01*
X135512204Y-154004889D01*
X135629261Y-153917261D01*
X135637893Y-153905730D01*
X135716887Y-153800207D01*
X135716887Y-153800206D01*
X135716889Y-153800204D01*
X135767989Y-153663201D01*
X135769295Y-153651060D01*
X135774499Y-153602649D01*
X135774500Y-153602632D01*
X135774500Y-152280894D01*
X135794502Y-152212773D01*
X135848158Y-152166280D01*
X135918432Y-152156176D01*
X135983012Y-152185670D01*
X135989595Y-152191799D01*
X139481996Y-155684200D01*
X139516022Y-155746512D01*
X139518901Y-155773295D01*
X139518901Y-156648649D01*
X139525410Y-156709196D01*
X139525412Y-156709204D01*
X139576511Y-156846202D01*
X139576513Y-156846207D01*
X139664139Y-156963261D01*
X139781193Y-157050887D01*
X139781195Y-157050888D01*
X139781197Y-157050889D01*
X139822936Y-157066457D01*
X139918196Y-157101988D01*
X139918204Y-157101990D01*
X139978751Y-157108499D01*
X139978756Y-157108499D01*
X139978763Y-157108500D01*
X139978769Y-157108500D01*
X141676033Y-157108500D01*
X141676039Y-157108500D01*
X141676046Y-157108499D01*
X141676050Y-157108499D01*
X141736597Y-157101990D01*
X141736600Y-157101989D01*
X141736602Y-157101989D01*
X141873605Y-157050889D01*
X141990662Y-156963261D01*
X141992047Y-156961410D01*
X141993898Y-156960024D01*
X141997038Y-156956885D01*
X141997488Y-156957335D01*
X142048877Y-156918860D01*
X142119693Y-156913789D01*
X142165190Y-156933699D01*
X142170652Y-156937523D01*
X142378158Y-157034284D01*
X142599314Y-157093543D01*
X142827401Y-157113498D01*
X143055488Y-157093543D01*
X143276644Y-157034284D01*
X143484150Y-156937523D01*
X143671701Y-156806198D01*
X143833599Y-156644300D01*
X143964924Y-156456749D01*
X144061685Y-156249243D01*
X144120944Y-156028087D01*
X144140899Y-155800000D01*
X144120944Y-155571913D01*
X144103941Y-155508457D01*
X144105630Y-155437481D01*
X144136550Y-155386753D01*
X145630026Y-153893278D01*
X145692338Y-153859252D01*
X145763154Y-153864317D01*
X145819989Y-153906864D01*
X145844800Y-153973384D01*
X145845121Y-153982373D01*
X145845121Y-155046405D01*
X145825119Y-155114526D01*
X145808216Y-155135500D01*
X142451610Y-158492106D01*
X142389298Y-158526132D01*
X142362515Y-158529011D01*
X130213748Y-158529011D01*
X130145627Y-158509009D01*
X130099134Y-158455353D01*
X130089030Y-158385079D01*
X130091604Y-158372080D01*
X130124544Y-158242000D01*
X129219116Y-158242000D01*
X129247493Y-158197844D01*
X129288000Y-158059889D01*
X129288000Y-157916111D01*
X129247493Y-157778156D01*
X129219116Y-157734000D01*
X130124544Y-157734000D01*
X130124544Y-157733999D01*
X130076823Y-157545550D01*
X130076820Y-157545543D01*
X129986419Y-157339451D01*
X129863325Y-157151041D01*
X129710902Y-156985465D01*
X129533301Y-156847232D01*
X129533300Y-156847231D01*
X129335371Y-156740117D01*
X129335369Y-156740116D01*
X129122512Y-156667043D01*
X129122501Y-156667040D01*
X129042000Y-156653606D01*
X129042000Y-157554325D01*
X128930315Y-157503320D01*
X128823763Y-157488000D01*
X128752237Y-157488000D01*
X128645685Y-157503320D01*
X128534000Y-157554325D01*
X128534000Y-156653607D01*
X128533999Y-156653606D01*
X128453498Y-156667040D01*
X128453487Y-156667043D01*
X128240630Y-156740116D01*
X128240628Y-156740117D01*
X128042699Y-156847231D01*
X128042698Y-156847232D01*
X127865097Y-156985465D01*
X127712670Y-157151045D01*
X127623780Y-157287101D01*
X127569776Y-157333189D01*
X127499428Y-157342764D01*
X127435071Y-157312786D01*
X127412816Y-157287101D01*
X127370595Y-157222477D01*
X127323724Y-157150734D01*
X127323720Y-157150729D01*
X127194220Y-157010057D01*
X127171240Y-156985094D01*
X127171239Y-156985093D01*
X127171237Y-156985091D01*
X127089382Y-156921381D01*
X126993576Y-156846811D01*
X126795574Y-156739658D01*
X126795572Y-156739657D01*
X126795571Y-156739656D01*
X126582639Y-156666557D01*
X126582630Y-156666555D01*
X126505029Y-156653606D01*
X126360569Y-156629500D01*
X126135431Y-156629500D01*
X126020677Y-156648649D01*
X125913369Y-156666555D01*
X125913360Y-156666557D01*
X125700428Y-156739656D01*
X125700426Y-156739658D01*
X125577471Y-156806198D01*
X125502426Y-156846810D01*
X125502424Y-156846811D01*
X125324762Y-156985091D01*
X125172279Y-157150729D01*
X125083483Y-157286643D01*
X125029479Y-157332731D01*
X124959131Y-157342306D01*
X124894774Y-157312329D01*
X124872517Y-157286643D01*
X124783720Y-157150729D01*
X124654220Y-157010057D01*
X124631240Y-156985094D01*
X124631239Y-156985093D01*
X124631237Y-156985091D01*
X124549382Y-156921381D01*
X124453576Y-156846811D01*
X124255574Y-156739658D01*
X124255572Y-156739657D01*
X124255571Y-156739656D01*
X124042639Y-156666557D01*
X124042630Y-156666555D01*
X123965029Y-156653606D01*
X123820569Y-156629500D01*
X123595431Y-156629500D01*
X123480677Y-156648649D01*
X123373369Y-156666555D01*
X123373360Y-156666557D01*
X123160428Y-156739656D01*
X123160426Y-156739658D01*
X123037471Y-156806198D01*
X122962426Y-156846810D01*
X122962424Y-156846811D01*
X122784762Y-156985091D01*
X122723754Y-157051363D01*
X122662901Y-157087933D01*
X122591936Y-157085798D01*
X122533391Y-157045636D01*
X122512999Y-157010057D01*
X122485944Y-156937522D01*
X122468889Y-156891796D01*
X122468888Y-156891794D01*
X122468887Y-156891792D01*
X122381261Y-156774738D01*
X122264207Y-156687112D01*
X122264202Y-156687110D01*
X122127204Y-156636011D01*
X122127196Y-156636009D01*
X122066649Y-156629500D01*
X122066638Y-156629500D01*
X120269362Y-156629500D01*
X120269350Y-156629500D01*
X120208803Y-156636009D01*
X120208795Y-156636011D01*
X120071797Y-156687110D01*
X120071792Y-156687112D01*
X119954738Y-156774738D01*
X119867112Y-156891792D01*
X119867110Y-156891797D01*
X119816011Y-157028795D01*
X119816009Y-157028803D01*
X119809500Y-157089350D01*
X119809500Y-157228500D01*
X119789498Y-157296621D01*
X119735842Y-157343114D01*
X119683500Y-157354500D01*
X110042594Y-157354500D01*
X109974473Y-157334498D01*
X109953499Y-157317595D01*
X107604405Y-154968500D01*
X107570379Y-154906188D01*
X107567500Y-154879405D01*
X107567500Y-147747880D01*
X107587502Y-147679759D01*
X107641158Y-147633266D01*
X107711432Y-147623162D01*
X107726092Y-147626168D01*
X107846913Y-147658543D01*
X108017873Y-147673500D01*
X108017880Y-147673500D01*
X108932120Y-147673500D01*
X108932127Y-147673500D01*
X109103087Y-147658543D01*
X109324243Y-147599284D01*
X109531749Y-147502523D01*
X109719300Y-147371198D01*
X109881198Y-147209300D01*
X110012523Y-147021749D01*
X110109284Y-146814243D01*
X110168543Y-146593087D01*
X110188498Y-146365000D01*
X110168543Y-146136913D01*
X110109284Y-145915757D01*
X110054618Y-145798526D01*
X110043958Y-145728336D01*
X110072938Y-145663524D01*
X110079706Y-145656196D01*
X111894657Y-143841245D01*
X111907092Y-143831284D01*
X111906905Y-143831057D01*
X111913016Y-143826001D01*
X111913015Y-143826001D01*
X111913018Y-143826000D01*
X111959676Y-143776312D01*
X111962367Y-143773535D01*
X111982134Y-143753770D01*
X111984617Y-143750567D01*
X111992308Y-143741562D01*
X112022586Y-143709321D01*
X112032345Y-143691567D01*
X112043197Y-143675046D01*
X112055613Y-143659041D01*
X112073168Y-143618470D01*
X112078392Y-143607808D01*
X112086920Y-143592296D01*
X112099695Y-143569060D01*
X112104733Y-143549435D01*
X112111138Y-143530730D01*
X112112753Y-143526998D01*
X112119181Y-143512145D01*
X112126096Y-143468481D01*
X112128504Y-143456852D01*
X112139500Y-143414030D01*
X112139500Y-143393775D01*
X112141051Y-143374063D01*
X112144220Y-143354057D01*
X112140059Y-143310036D01*
X112139500Y-143298179D01*
X112139500Y-124905119D01*
X112159502Y-124836998D01*
X112191438Y-124803183D01*
X112218853Y-124783266D01*
X112218856Y-124783263D01*
X112346634Y-124641351D01*
X112346635Y-124641349D01*
X112346640Y-124641344D01*
X112442127Y-124475956D01*
X112501142Y-124294328D01*
X112521104Y-124104400D01*
X112501142Y-123914472D01*
X112442127Y-123732844D01*
X112346640Y-123567456D01*
X112346638Y-123567454D01*
X112346634Y-123567448D01*
X112218855Y-123425535D01*
X112091783Y-123333212D01*
X112048429Y-123276990D01*
X112042354Y-123206254D01*
X112075485Y-123143462D01*
X112119457Y-123114125D01*
X112220179Y-123074247D01*
X112496779Y-122922184D01*
X112752140Y-122736654D01*
X112982233Y-122520582D01*
X113183432Y-122277375D01*
X113183434Y-122277370D01*
X113183437Y-122277368D01*
X113332276Y-122042835D01*
X113352562Y-122010869D01*
X113486956Y-121725266D01*
X113517535Y-121631154D01*
X113565667Y-121483019D01*
X113605740Y-121424413D01*
X113671137Y-121396776D01*
X113741094Y-121408883D01*
X113793400Y-121456889D01*
X113811500Y-121521955D01*
X113811500Y-129391146D01*
X113809751Y-129406988D01*
X113810044Y-129407016D01*
X113809298Y-129414907D01*
X113811438Y-129482984D01*
X113811500Y-129486943D01*
X113811500Y-129514851D01*
X113811501Y-129514869D01*
X113812007Y-129518877D01*
X113812937Y-129530696D01*
X113814326Y-129574888D01*
X113814327Y-129574893D01*
X113819977Y-129594339D01*
X113823986Y-129613697D01*
X113826525Y-129633793D01*
X113826526Y-129633800D01*
X113842800Y-129674903D01*
X113846644Y-129686129D01*
X113858982Y-129728593D01*
X113869294Y-129746031D01*
X113877988Y-129763779D01*
X113885444Y-129782609D01*
X113885450Y-129782620D01*
X113911432Y-129818381D01*
X113917949Y-129828301D01*
X113940458Y-129866362D01*
X113940459Y-129866363D01*
X113940461Y-129866366D01*
X113954779Y-129880684D01*
X113967617Y-129895714D01*
X113979526Y-129912104D01*
X113979530Y-129912109D01*
X114013598Y-129940292D01*
X114022378Y-129948282D01*
X114490279Y-130416183D01*
X114524305Y-130478495D01*
X114519240Y-130549310D01*
X114515379Y-130558527D01*
X114460719Y-130675748D01*
X114460715Y-130675759D01*
X114424233Y-130811913D01*
X114401457Y-130896913D01*
X114381502Y-131125000D01*
X114401457Y-131353087D01*
X114427553Y-131450477D01*
X114460715Y-131574240D01*
X114460717Y-131574246D01*
X114557477Y-131781749D01*
X114685486Y-131964565D01*
X114688802Y-131969300D01*
X114850700Y-132131198D01*
X115038251Y-132262523D01*
X115052892Y-132269350D01*
X115077457Y-132280805D01*
X115130742Y-132327722D01*
X115150203Y-132395999D01*
X115129661Y-132463959D01*
X115077457Y-132509195D01*
X115038250Y-132527477D01*
X114850703Y-132658799D01*
X114850697Y-132658804D01*
X114688804Y-132820697D01*
X114688799Y-132820703D01*
X114557477Y-133008250D01*
X114460717Y-133215753D01*
X114460715Y-133215759D01*
X114402694Y-133432296D01*
X114401457Y-133436913D01*
X114381502Y-133665000D01*
X114401457Y-133893087D01*
X114420967Y-133965897D01*
X114460715Y-134114240D01*
X114460717Y-134114246D01*
X114557477Y-134321749D01*
X114680681Y-134497703D01*
X114688802Y-134509300D01*
X114850700Y-134671198D01*
X115038251Y-134802523D01*
X115065613Y-134815282D01*
X115077457Y-134820805D01*
X115130742Y-134867722D01*
X115150203Y-134935999D01*
X115129661Y-135003959D01*
X115077457Y-135049195D01*
X115038250Y-135067477D01*
X114850703Y-135198799D01*
X114850697Y-135198804D01*
X114688804Y-135360697D01*
X114688799Y-135360703D01*
X114557477Y-135548250D01*
X114460717Y-135755753D01*
X114460715Y-135755759D01*
X114407311Y-135955066D01*
X114401457Y-135976913D01*
X114381502Y-136205000D01*
X114401457Y-136433087D01*
X114429285Y-136536941D01*
X114460715Y-136654240D01*
X114460717Y-136654246D01*
X114557477Y-136861749D01*
X114673553Y-137027523D01*
X114688802Y-137049300D01*
X114850700Y-137211198D01*
X115038251Y-137342523D01*
X115078045Y-137361079D01*
X115078047Y-137361080D01*
X115131332Y-137407996D01*
X115150794Y-137476273D01*
X115130253Y-137544233D01*
X115078051Y-137589468D01*
X115038504Y-137607910D01*
X114851025Y-137739184D01*
X114851019Y-137739189D01*
X114689189Y-137901019D01*
X114689184Y-137901025D01*
X114557912Y-138088501D01*
X114461188Y-138295926D01*
X114461186Y-138295931D01*
X114408917Y-138491000D01*
X115783314Y-138491000D01*
X115767359Y-138506955D01*
X115709835Y-138619852D01*
X115690014Y-138745000D01*
X115709835Y-138870148D01*
X115767359Y-138983045D01*
X115783314Y-138999000D01*
X114408918Y-138999000D01*
X114461186Y-139194068D01*
X114461188Y-139194073D01*
X114557912Y-139401498D01*
X114689184Y-139588974D01*
X114689189Y-139588980D01*
X114851019Y-139750810D01*
X114851025Y-139750815D01*
X115038503Y-139882089D01*
X115078049Y-139900530D01*
X115131334Y-139947447D01*
X115150794Y-140015724D01*
X115130252Y-140083684D01*
X115078049Y-140128918D01*
X115038252Y-140147475D01*
X114850703Y-140278799D01*
X114850697Y-140278804D01*
X114688804Y-140440697D01*
X114688799Y-140440703D01*
X114557477Y-140628250D01*
X114460717Y-140835753D01*
X114460715Y-140835759D01*
X114401457Y-141056913D01*
X114381502Y-141285000D01*
X114401457Y-141513086D01*
X114460715Y-141734240D01*
X114460717Y-141734246D01*
X114557477Y-141941749D01*
X114678021Y-142113904D01*
X114688802Y-142129300D01*
X114850700Y-142291198D01*
X115038251Y-142422523D01*
X115073359Y-142438894D01*
X115077457Y-142440805D01*
X115130742Y-142487722D01*
X115150203Y-142555999D01*
X115129661Y-142623959D01*
X115077457Y-142669195D01*
X115038250Y-142687477D01*
X114850703Y-142818799D01*
X114850697Y-142818804D01*
X114688804Y-142980697D01*
X114688799Y-142980703D01*
X114557477Y-143168250D01*
X114460717Y-143375753D01*
X114460715Y-143375759D01*
X114424171Y-143512143D01*
X114401457Y-143596913D01*
X114381502Y-143825000D01*
X114401457Y-144053087D01*
X114421195Y-144126749D01*
X114460715Y-144274240D01*
X114460717Y-144274246D01*
X114515379Y-144391469D01*
X114526040Y-144461661D01*
X114497060Y-144526474D01*
X114490279Y-144533814D01*
X110863336Y-148160757D01*
X110850901Y-148170721D01*
X110851089Y-148170948D01*
X110844979Y-148176002D01*
X110798370Y-148225635D01*
X110795620Y-148228473D01*
X110775863Y-148248231D01*
X110773374Y-148251439D01*
X110765688Y-148260436D01*
X110735418Y-148292673D01*
X110735411Y-148292683D01*
X110725651Y-148310435D01*
X110714803Y-148326950D01*
X110702386Y-148342958D01*
X110684824Y-148383540D01*
X110679604Y-148394195D01*
X110658305Y-148432939D01*
X110658303Y-148432944D01*
X110653267Y-148452559D01*
X110646864Y-148471262D01*
X110638819Y-148489852D01*
X110631901Y-148533525D01*
X110629495Y-148545142D01*
X110618500Y-148587968D01*
X110618500Y-148608223D01*
X110616949Y-148627933D01*
X110613780Y-148647942D01*
X110617941Y-148691961D01*
X110618500Y-148703819D01*
X110618500Y-153986325D01*
X110598498Y-154054446D01*
X110572434Y-154083724D01*
X110517671Y-154128666D01*
X110517671Y-154128667D01*
X110388518Y-154286039D01*
X110292550Y-154465582D01*
X110233452Y-154660405D01*
X110218500Y-154812218D01*
X110218500Y-155363781D01*
X110233452Y-155515594D01*
X110233453Y-155515600D01*
X110233454Y-155515601D01*
X110292550Y-155710417D01*
X110388518Y-155889960D01*
X110517669Y-156047331D01*
X110675040Y-156176482D01*
X110854583Y-156272450D01*
X111049399Y-156331546D01*
X111049403Y-156331546D01*
X111049405Y-156331547D01*
X111251997Y-156351501D01*
X111252000Y-156351501D01*
X111252003Y-156351501D01*
X111454594Y-156331547D01*
X111454595Y-156331546D01*
X111454601Y-156331546D01*
X111649417Y-156272450D01*
X111827607Y-156177205D01*
X111897109Y-156162734D01*
X111946391Y-156177204D01*
X112124583Y-156272450D01*
X112319399Y-156331546D01*
X112319403Y-156331546D01*
X112319405Y-156331547D01*
X112521997Y-156351501D01*
X112522000Y-156351501D01*
X112522003Y-156351501D01*
X112724592Y-156331547D01*
X112724592Y-156331546D01*
X112724601Y-156331546D01*
X112914907Y-156273817D01*
X112985897Y-156273185D01*
X113012033Y-156286121D01*
X113012882Y-156284568D01*
X113020793Y-156288886D01*
X113020796Y-156288889D01*
X113079875Y-156310924D01*
X113157795Y-156339988D01*
X113157803Y-156339990D01*
X113218350Y-156346499D01*
X113218355Y-156346499D01*
X113218362Y-156346500D01*
X113218368Y-156346500D01*
X114365632Y-156346500D01*
X114365638Y-156346500D01*
X114365645Y-156346499D01*
X114365649Y-156346499D01*
X114426196Y-156339990D01*
X114426199Y-156339989D01*
X114426201Y-156339989D01*
X114563204Y-156288889D01*
X114583337Y-156273818D01*
X114680261Y-156201261D01*
X114767887Y-156084207D01*
X114767887Y-156084206D01*
X114767889Y-156084204D01*
X114818989Y-155947201D01*
X114821934Y-155919813D01*
X114825499Y-155886649D01*
X114825500Y-155886632D01*
X114825500Y-155847500D01*
X114845502Y-155779379D01*
X114899158Y-155732886D01*
X114951500Y-155721500D01*
X127022147Y-155721500D01*
X127037988Y-155723249D01*
X127038016Y-155722956D01*
X127045902Y-155723700D01*
X127045909Y-155723702D01*
X127113986Y-155721562D01*
X127117945Y-155721500D01*
X127145851Y-155721500D01*
X127145856Y-155721500D01*
X127149867Y-155720992D01*
X127161699Y-155720061D01*
X127205889Y-155718673D01*
X127225347Y-155713019D01*
X127244694Y-155709013D01*
X127264797Y-155706474D01*
X127305910Y-155690195D01*
X127317130Y-155686353D01*
X127341913Y-155679154D01*
X127359591Y-155674019D01*
X127359595Y-155674017D01*
X127377026Y-155663708D01*
X127394780Y-155655009D01*
X127413617Y-155647552D01*
X127449392Y-155621558D01*
X127459298Y-155615051D01*
X127497362Y-155592542D01*
X127511685Y-155578218D01*
X127526724Y-155565374D01*
X127543107Y-155553472D01*
X127571303Y-155519386D01*
X127579272Y-155510630D01*
X129166659Y-153923243D01*
X129179098Y-153913280D01*
X129178910Y-153913053D01*
X129185016Y-153908001D01*
X129185015Y-153908001D01*
X129185018Y-153908000D01*
X129231662Y-153858327D01*
X129234352Y-153855551D01*
X129254135Y-153835770D01*
X129256614Y-153832573D01*
X129264311Y-153823559D01*
X129294586Y-153791321D01*
X129304346Y-153773565D01*
X129315195Y-153757050D01*
X129327614Y-153741041D01*
X129345179Y-153700446D01*
X129350384Y-153689821D01*
X129371695Y-153651060D01*
X129376733Y-153631434D01*
X129383137Y-153612732D01*
X129387508Y-153602632D01*
X129391181Y-153594145D01*
X129398096Y-153550481D01*
X129400504Y-153538852D01*
X129404810Y-153522083D01*
X129411500Y-153496030D01*
X129411500Y-153475775D01*
X129413051Y-153456063D01*
X129413665Y-153452186D01*
X129416220Y-153436057D01*
X129412059Y-153392036D01*
X129411500Y-153380179D01*
X129411500Y-135973855D01*
X129413249Y-135958014D01*
X129412956Y-135957987D01*
X129413701Y-135950094D01*
X129413702Y-135950091D01*
X129411813Y-135890000D01*
X134322502Y-135890000D01*
X134342457Y-136118087D01*
X134369161Y-136217748D01*
X134401715Y-136339240D01*
X134401717Y-136339246D01*
X134498477Y-136546749D01*
X134600532Y-136692499D01*
X134629802Y-136734300D01*
X134791700Y-136896198D01*
X134979251Y-137027523D01*
X135186757Y-137124284D01*
X135407913Y-137183543D01*
X135636000Y-137203498D01*
X135864087Y-137183543D01*
X136085243Y-137124284D01*
X136292749Y-137027523D01*
X136480300Y-136896198D01*
X136642198Y-136734300D01*
X136773523Y-136546749D01*
X136870284Y-136339243D01*
X136929543Y-136118087D01*
X136949498Y-135890000D01*
X136929543Y-135661913D01*
X136870284Y-135440757D01*
X136773523Y-135233251D01*
X136642198Y-135045700D01*
X136480300Y-134883802D01*
X136457335Y-134867722D01*
X136292749Y-134752477D01*
X136085246Y-134655717D01*
X136085240Y-134655715D01*
X135957783Y-134621563D01*
X135864087Y-134596457D01*
X135636000Y-134576502D01*
X135407913Y-134596457D01*
X135186759Y-134655715D01*
X135186753Y-134655717D01*
X134979250Y-134752477D01*
X134791703Y-134883799D01*
X134791697Y-134883804D01*
X134629804Y-135045697D01*
X134629799Y-135045703D01*
X134498477Y-135233250D01*
X134401717Y-135440753D01*
X134401715Y-135440759D01*
X134355067Y-135614851D01*
X134342457Y-135661913D01*
X134322502Y-135890000D01*
X129411813Y-135890000D01*
X129411562Y-135882013D01*
X129411500Y-135878054D01*
X129411500Y-135850149D01*
X129411500Y-135850144D01*
X129410992Y-135846130D01*
X129410061Y-135834297D01*
X129408673Y-135790110D01*
X129403022Y-135770663D01*
X129399012Y-135751300D01*
X129397532Y-135739583D01*
X129396474Y-135731203D01*
X129380195Y-135690090D01*
X129376353Y-135678869D01*
X129364018Y-135636407D01*
X129353705Y-135618969D01*
X129345010Y-135601222D01*
X129337552Y-135582383D01*
X129311568Y-135546620D01*
X129305051Y-135536699D01*
X129282541Y-135498635D01*
X129268218Y-135484312D01*
X129255377Y-135469279D01*
X129243471Y-135452892D01*
X129209405Y-135424710D01*
X129200626Y-135416721D01*
X126785151Y-133001246D01*
X126751125Y-132938934D01*
X126752539Y-132879541D01*
X126769543Y-132816087D01*
X126789498Y-132588000D01*
X126769543Y-132359913D01*
X126710284Y-132138757D01*
X126613523Y-131931251D01*
X126482198Y-131743700D01*
X126320300Y-131581802D01*
X126309500Y-131574240D01*
X126132749Y-131450477D01*
X125925246Y-131353717D01*
X125925243Y-131353716D01*
X125922892Y-131353086D01*
X125859173Y-131336012D01*
X125798552Y-131299061D01*
X125767530Y-131235200D01*
X125775959Y-131164706D01*
X125802688Y-131125214D01*
X128618753Y-128309149D01*
X128681063Y-128275125D01*
X128740457Y-128276539D01*
X128803913Y-128293543D01*
X129032000Y-128313498D01*
X129260087Y-128293543D01*
X129481243Y-128234284D01*
X129688749Y-128137523D01*
X129876300Y-128006198D01*
X130038198Y-127844300D01*
X130169523Y-127656749D01*
X130266284Y-127449243D01*
X130325543Y-127228087D01*
X130340919Y-127052335D01*
X130366781Y-126986220D01*
X130424285Y-126944581D01*
X130495172Y-126940640D01*
X130556937Y-126975649D01*
X130588146Y-127030708D01*
X130632187Y-127195071D01*
X130632188Y-127195073D01*
X130728913Y-127402501D01*
X130778899Y-127473888D01*
X131467272Y-126785516D01*
X131480835Y-126871148D01*
X131538359Y-126984045D01*
X131627955Y-127073641D01*
X131740852Y-127131165D01*
X131826482Y-127144727D01*
X131138110Y-127833098D01*
X131138110Y-127833100D01*
X131209498Y-127883086D01*
X131416926Y-127979811D01*
X131416931Y-127979813D01*
X131637999Y-128039048D01*
X131637995Y-128039048D01*
X131866000Y-128058995D01*
X132094002Y-128039048D01*
X132315068Y-127979813D01*
X132315073Y-127979811D01*
X132522497Y-127883088D01*
X132593888Y-127833099D01*
X132593888Y-127833097D01*
X131905518Y-127144727D01*
X131991148Y-127131165D01*
X132104045Y-127073641D01*
X132193641Y-126984045D01*
X132251165Y-126871148D01*
X132264727Y-126785518D01*
X132953097Y-127473888D01*
X132953099Y-127473888D01*
X133003088Y-127402497D01*
X133099811Y-127195073D01*
X133099813Y-127195068D01*
X133159048Y-126974002D01*
X133178995Y-126746000D01*
X133159048Y-126517997D01*
X133099813Y-126296931D01*
X133099811Y-126296926D01*
X133003086Y-126089498D01*
X132953100Y-126018110D01*
X132953098Y-126018110D01*
X132264727Y-126706481D01*
X132251165Y-126620852D01*
X132193641Y-126507955D01*
X132104045Y-126418359D01*
X131991148Y-126360835D01*
X131905517Y-126347272D01*
X132593888Y-125658899D01*
X132593888Y-125658898D01*
X132522501Y-125608913D01*
X132315073Y-125512188D01*
X132315068Y-125512186D01*
X132094000Y-125452951D01*
X132094004Y-125452951D01*
X131866000Y-125433004D01*
X131637997Y-125452951D01*
X131416931Y-125512186D01*
X131416926Y-125512188D01*
X131209500Y-125608913D01*
X131138109Y-125658900D01*
X131826481Y-126347272D01*
X131740852Y-126360835D01*
X131627955Y-126418359D01*
X131538359Y-126507955D01*
X131480835Y-126620852D01*
X131467272Y-126706481D01*
X130778900Y-126018109D01*
X130728913Y-126089500D01*
X130632188Y-126296926D01*
X130632186Y-126296931D01*
X130572951Y-126517997D01*
X130557587Y-126693619D01*
X130531723Y-126759737D01*
X130474220Y-126801376D01*
X130403333Y-126805317D01*
X130341568Y-126770308D01*
X130310360Y-126715249D01*
X130266284Y-126550757D01*
X130169523Y-126343251D01*
X130038198Y-126155700D01*
X129876300Y-125993802D01*
X129861557Y-125983479D01*
X129688749Y-125862477D01*
X129481246Y-125765717D01*
X129481240Y-125765715D01*
X129384520Y-125739799D01*
X129260087Y-125706457D01*
X129032000Y-125686502D01*
X128803913Y-125706457D01*
X128582759Y-125765715D01*
X128582753Y-125765717D01*
X128375250Y-125862477D01*
X128187703Y-125993799D01*
X128187697Y-125993804D01*
X128025804Y-126155697D01*
X128025799Y-126155703D01*
X127894477Y-126343250D01*
X127797717Y-126550753D01*
X127797715Y-126550759D01*
X127738457Y-126771913D01*
X127718502Y-127000000D01*
X127738457Y-127228090D01*
X127755459Y-127291541D01*
X127753769Y-127362518D01*
X127722847Y-127413247D01*
X123987795Y-131148299D01*
X123925483Y-131182325D01*
X123854668Y-131177260D01*
X123797832Y-131134713D01*
X123773021Y-131068193D01*
X123772700Y-131059204D01*
X123772700Y-126673393D01*
X123792702Y-126605272D01*
X123809600Y-126584303D01*
X126656753Y-123737149D01*
X126719063Y-123703125D01*
X126778457Y-123704539D01*
X126841913Y-123721543D01*
X127070000Y-123741498D01*
X127298087Y-123721543D01*
X127519243Y-123662284D01*
X127726749Y-123565523D01*
X127914300Y-123434198D01*
X128076198Y-123272300D01*
X128207523Y-123084749D01*
X128304284Y-122877243D01*
X128363543Y-122656087D01*
X128383498Y-122428000D01*
X128363543Y-122199913D01*
X128304284Y-121978757D01*
X128207523Y-121771251D01*
X128076198Y-121583700D01*
X127914300Y-121421802D01*
X127878559Y-121396776D01*
X127726749Y-121290477D01*
X127519246Y-121193717D01*
X127519240Y-121193715D01*
X127425771Y-121168670D01*
X127298087Y-121134457D01*
X127070000Y-121114502D01*
X126841913Y-121134457D01*
X126620759Y-121193715D01*
X126620753Y-121193717D01*
X126413250Y-121290477D01*
X126225703Y-121421799D01*
X126225697Y-121421804D01*
X126063804Y-121583697D01*
X126063799Y-121583703D01*
X125932477Y-121771250D01*
X125835717Y-121978753D01*
X125835715Y-121978759D01*
X125776457Y-122199913D01*
X125756502Y-122428000D01*
X125776457Y-122656090D01*
X125793459Y-122719541D01*
X125791769Y-122790518D01*
X125760847Y-122841247D01*
X124326753Y-124275340D01*
X124264441Y-124309366D01*
X124193625Y-124304301D01*
X124136790Y-124261754D01*
X124111979Y-124195234D01*
X124115513Y-124155318D01*
X124144051Y-124042626D01*
X124163327Y-123810000D01*
X124144051Y-123577374D01*
X124086749Y-123351093D01*
X123992984Y-123137331D01*
X123951769Y-123074246D01*
X123865314Y-122941916D01*
X123707225Y-122770186D01*
X123707221Y-122770182D01*
X123615118Y-122698496D01*
X123523017Y-122626810D01*
X123317727Y-122515713D01*
X123317724Y-122515712D01*
X123317723Y-122515711D01*
X123096955Y-122439921D01*
X123096948Y-122439919D01*
X122998411Y-122423476D01*
X122866712Y-122401500D01*
X122633288Y-122401500D01*
X122518066Y-122420727D01*
X122403051Y-122439919D01*
X122403044Y-122439921D01*
X122182276Y-122515711D01*
X122182273Y-122515713D01*
X121976985Y-122626809D01*
X121976983Y-122626810D01*
X121792778Y-122770182D01*
X121792774Y-122770186D01*
X121634685Y-122941916D01*
X121507015Y-123137331D01*
X121413252Y-123351089D01*
X121413249Y-123351096D01*
X121355950Y-123577366D01*
X121355949Y-123577372D01*
X121355949Y-123577374D01*
X121342349Y-123741497D01*
X121336673Y-123810000D01*
X121355950Y-124042633D01*
X121413249Y-124268903D01*
X121413252Y-124268910D01*
X121507015Y-124482668D01*
X121634685Y-124678083D01*
X121792774Y-124849813D01*
X121792778Y-124849817D01*
X121858650Y-124901087D01*
X121976983Y-124993190D01*
X122182273Y-125104287D01*
X122403049Y-125180080D01*
X122633288Y-125218500D01*
X122633292Y-125218500D01*
X122866708Y-125218500D01*
X122866712Y-125218500D01*
X123096951Y-125180080D01*
X123096956Y-125180077D01*
X123099174Y-125179708D01*
X123169658Y-125188225D01*
X123224348Y-125233497D01*
X123245881Y-125301149D01*
X123227420Y-125369704D01*
X123209008Y-125393085D01*
X122750536Y-125851557D01*
X122738101Y-125861521D01*
X122738289Y-125861748D01*
X122732179Y-125866802D01*
X122685570Y-125916435D01*
X122682820Y-125919273D01*
X122663063Y-125939031D01*
X122660574Y-125942239D01*
X122652888Y-125951236D01*
X122622618Y-125983473D01*
X122622611Y-125983483D01*
X122612851Y-126001235D01*
X122602003Y-126017750D01*
X122589586Y-126033758D01*
X122572024Y-126074340D01*
X122566804Y-126084995D01*
X122545505Y-126123739D01*
X122545503Y-126123744D01*
X122540467Y-126143359D01*
X122534064Y-126162062D01*
X122526019Y-126180652D01*
X122519101Y-126224325D01*
X122516695Y-126235942D01*
X122505700Y-126278768D01*
X122505700Y-126299023D01*
X122504149Y-126318733D01*
X122500980Y-126338743D01*
X122505141Y-126382761D01*
X122505700Y-126394619D01*
X122505700Y-133469346D01*
X122503951Y-133485188D01*
X122504244Y-133485216D01*
X122503498Y-133493107D01*
X122505638Y-133561184D01*
X122505700Y-133565143D01*
X122505700Y-133593051D01*
X122505701Y-133593069D01*
X122506207Y-133597077D01*
X122507137Y-133608896D01*
X122508526Y-133653088D01*
X122508527Y-133653093D01*
X122514177Y-133672539D01*
X122518186Y-133691897D01*
X122520725Y-133711993D01*
X122520726Y-133712000D01*
X122537000Y-133753103D01*
X122540844Y-133764329D01*
X122553182Y-133806793D01*
X122563494Y-133824231D01*
X122572188Y-133841979D01*
X122579644Y-133860809D01*
X122579650Y-133860820D01*
X122605632Y-133896581D01*
X122612149Y-133906501D01*
X122634658Y-133944562D01*
X122634659Y-133944563D01*
X122634661Y-133944566D01*
X122648979Y-133958884D01*
X122661817Y-133973914D01*
X122673726Y-133990304D01*
X122673730Y-133990309D01*
X122707798Y-134018492D01*
X122716578Y-134026482D01*
X124166847Y-135476751D01*
X124200873Y-135539063D01*
X124199459Y-135598456D01*
X124182458Y-135661907D01*
X124182457Y-135661910D01*
X124182457Y-135661913D01*
X124162502Y-135890000D01*
X124182457Y-136118087D01*
X124209161Y-136217748D01*
X124241715Y-136339240D01*
X124241717Y-136339246D01*
X124338477Y-136546749D01*
X124440532Y-136692499D01*
X124469802Y-136734300D01*
X124631700Y-136896198D01*
X124819251Y-137027523D01*
X125026757Y-137124284D01*
X125247913Y-137183543D01*
X125476000Y-137203498D01*
X125704087Y-137183543D01*
X125925243Y-137124284D01*
X126132749Y-137027523D01*
X126320300Y-136896198D01*
X126482198Y-136734300D01*
X126613523Y-136546749D01*
X126616632Y-136540079D01*
X126663543Y-136486794D01*
X126731818Y-136467328D01*
X126799780Y-136487864D01*
X126819924Y-136504229D01*
X126837595Y-136521900D01*
X126871621Y-136584212D01*
X126874500Y-136610995D01*
X126874500Y-138780568D01*
X126854498Y-138848689D01*
X126800842Y-138895182D01*
X126730568Y-138905286D01*
X126665988Y-138875792D01*
X126634305Y-138833818D01*
X126617435Y-138797641D01*
X126613523Y-138789251D01*
X126482198Y-138601700D01*
X126320300Y-138439802D01*
X126132749Y-138308477D01*
X126098696Y-138292598D01*
X125925246Y-138211717D01*
X125925240Y-138211715D01*
X125814816Y-138182127D01*
X125704087Y-138152457D01*
X125476000Y-138132502D01*
X125247913Y-138152457D01*
X125026759Y-138211715D01*
X125026753Y-138211717D01*
X124819250Y-138308477D01*
X124631703Y-138439799D01*
X124631697Y-138439804D01*
X124469804Y-138601697D01*
X124469799Y-138601703D01*
X124338477Y-138789250D01*
X124241717Y-138996753D01*
X124241716Y-138996756D01*
X124181072Y-139223082D01*
X124144120Y-139283704D01*
X124080259Y-139314726D01*
X124009765Y-139306297D01*
X123970270Y-139279565D01*
X123555605Y-138864900D01*
X123521579Y-138802588D01*
X123518700Y-138775805D01*
X123518700Y-136324062D01*
X123520449Y-136308220D01*
X123520156Y-136308193D01*
X123520902Y-136300300D01*
X123518762Y-136232209D01*
X123518700Y-136228251D01*
X123518700Y-136200359D01*
X123518700Y-136200353D01*
X123518193Y-136196344D01*
X123517262Y-136184515D01*
X123515874Y-136140320D01*
X123510217Y-136120851D01*
X123506212Y-136101507D01*
X123503674Y-136081412D01*
X123487396Y-136040301D01*
X123483556Y-136029086D01*
X123471218Y-135986616D01*
X123460906Y-135969179D01*
X123452210Y-135951430D01*
X123444752Y-135932592D01*
X123418752Y-135896807D01*
X123412259Y-135886923D01*
X123389742Y-135848847D01*
X123375414Y-135834519D01*
X123362584Y-135819498D01*
X123350672Y-135803102D01*
X123350669Y-135803100D01*
X123350669Y-135803099D01*
X123316594Y-135774909D01*
X123307816Y-135766921D01*
X118277235Y-130736339D01*
X118267270Y-130723901D01*
X118267043Y-130724090D01*
X118261992Y-130717984D01*
X118261991Y-130717982D01*
X118212339Y-130671356D01*
X118209496Y-130668600D01*
X118189768Y-130648871D01*
X118189762Y-130648866D01*
X118186558Y-130646380D01*
X118177547Y-130638683D01*
X118145316Y-130608417D01*
X118145310Y-130608413D01*
X118127554Y-130598651D01*
X118111038Y-130587802D01*
X118095032Y-130575386D01*
X118062682Y-130561387D01*
X118054455Y-130557827D01*
X118043798Y-130552605D01*
X118005054Y-130531306D01*
X118005051Y-130531305D01*
X117985427Y-130526266D01*
X117966727Y-130519864D01*
X117948136Y-130511819D01*
X117948134Y-130511818D01*
X117948132Y-130511818D01*
X117904465Y-130504901D01*
X117892846Y-130502495D01*
X117850021Y-130491500D01*
X117829767Y-130491500D01*
X117810057Y-130489949D01*
X117790048Y-130486780D01*
X117746030Y-130490941D01*
X117734172Y-130491500D01*
X117714394Y-130491500D01*
X117646273Y-130471498D01*
X117611181Y-130437771D01*
X117544121Y-130342000D01*
X119082502Y-130342000D01*
X119102457Y-130570087D01*
X119131319Y-130677799D01*
X119161715Y-130791240D01*
X119161717Y-130791246D01*
X119258477Y-130998749D01*
X119387018Y-131182325D01*
X119389802Y-131186300D01*
X119551700Y-131348198D01*
X119739251Y-131479523D01*
X119946757Y-131576284D01*
X120167913Y-131635543D01*
X120396000Y-131655498D01*
X120624087Y-131635543D01*
X120845243Y-131576284D01*
X121052749Y-131479523D01*
X121240300Y-131348198D01*
X121402198Y-131186300D01*
X121533523Y-130998749D01*
X121630284Y-130791243D01*
X121689543Y-130570087D01*
X121709498Y-130342000D01*
X121689543Y-130113913D01*
X121630284Y-129892757D01*
X121533523Y-129685251D01*
X121402198Y-129497700D01*
X121240300Y-129335802D01*
X121111241Y-129245434D01*
X121052749Y-129204477D01*
X120845246Y-129107717D01*
X120845240Y-129107715D01*
X120646128Y-129054363D01*
X120624087Y-129048457D01*
X120396000Y-129028502D01*
X120167913Y-129048457D01*
X119946759Y-129107715D01*
X119946753Y-129107717D01*
X119739250Y-129204477D01*
X119551703Y-129335799D01*
X119551697Y-129335804D01*
X119389804Y-129497697D01*
X119389799Y-129497703D01*
X119258477Y-129685250D01*
X119161717Y-129892753D01*
X119161715Y-129892759D01*
X119119381Y-130050753D01*
X119102457Y-130113913D01*
X119082502Y-130342000D01*
X117544121Y-130342000D01*
X117501200Y-130280703D01*
X117501195Y-130280697D01*
X117339302Y-130118804D01*
X117339296Y-130118799D01*
X117151749Y-129987477D01*
X116944246Y-129890717D01*
X116944240Y-129890715D01*
X116767102Y-129843251D01*
X116723087Y-129831457D01*
X116552127Y-129816500D01*
X116552120Y-129816500D01*
X115734595Y-129816500D01*
X115666474Y-129796498D01*
X115645500Y-129779595D01*
X115115405Y-129249500D01*
X115081379Y-129187188D01*
X115078500Y-129160405D01*
X115078500Y-127879167D01*
X115098502Y-127811046D01*
X115152158Y-127764553D01*
X115222432Y-127754449D01*
X115237104Y-127757459D01*
X115341913Y-127785543D01*
X115570000Y-127805498D01*
X115798087Y-127785543D01*
X116019243Y-127726284D01*
X116226749Y-127629523D01*
X116414300Y-127498198D01*
X116576198Y-127336300D01*
X116707523Y-127148749D01*
X116776885Y-127000000D01*
X117558502Y-127000000D01*
X117575568Y-127195071D01*
X117578457Y-127228086D01*
X117637715Y-127449240D01*
X117637717Y-127449246D01*
X117734477Y-127656749D01*
X117857959Y-127833100D01*
X117865802Y-127844300D01*
X118027700Y-128006198D01*
X118215251Y-128137523D01*
X118422757Y-128234284D01*
X118643913Y-128293543D01*
X118872000Y-128313498D01*
X119100087Y-128293543D01*
X119321243Y-128234284D01*
X119528749Y-128137523D01*
X119716300Y-128006198D01*
X119878198Y-127844300D01*
X120009523Y-127656749D01*
X120106284Y-127449243D01*
X120165543Y-127228087D01*
X120185498Y-127000000D01*
X120165543Y-126771913D01*
X120106284Y-126550757D01*
X120009523Y-126343251D01*
X119878198Y-126155700D01*
X119716300Y-125993802D01*
X119701557Y-125983479D01*
X119528749Y-125862477D01*
X119321246Y-125765717D01*
X119321240Y-125765715D01*
X119224520Y-125739799D01*
X119100087Y-125706457D01*
X118872000Y-125686502D01*
X118643913Y-125706457D01*
X118422759Y-125765715D01*
X118422753Y-125765717D01*
X118215250Y-125862477D01*
X118027703Y-125993799D01*
X118027697Y-125993804D01*
X117865804Y-126155697D01*
X117865799Y-126155703D01*
X117734477Y-126343250D01*
X117637717Y-126550753D01*
X117637715Y-126550759D01*
X117599436Y-126693619D01*
X117578457Y-126771913D01*
X117558502Y-127000000D01*
X116776885Y-127000000D01*
X116804284Y-126941243D01*
X116863543Y-126720087D01*
X116883498Y-126492000D01*
X116863543Y-126263913D01*
X116804284Y-126042757D01*
X116707523Y-125835251D01*
X116576198Y-125647700D01*
X116414300Y-125485802D01*
X116401382Y-125476757D01*
X116226749Y-125354477D01*
X116019246Y-125257717D01*
X116019240Y-125257715D01*
X115902890Y-125226539D01*
X115798087Y-125198457D01*
X115570000Y-125178502D01*
X115341913Y-125198457D01*
X115237110Y-125226538D01*
X115166134Y-125224849D01*
X115107339Y-125185055D01*
X115079391Y-125119790D01*
X115078500Y-125104832D01*
X115078500Y-124758649D01*
X117841500Y-124758649D01*
X117848009Y-124819196D01*
X117848011Y-124819204D01*
X117899110Y-124956202D01*
X117899112Y-124956207D01*
X117986738Y-125073261D01*
X118103792Y-125160887D01*
X118103794Y-125160888D01*
X118103796Y-125160889D01*
X118151018Y-125178502D01*
X118240795Y-125211988D01*
X118240803Y-125211990D01*
X118301350Y-125218499D01*
X118301355Y-125218499D01*
X118301362Y-125218500D01*
X118301368Y-125218500D01*
X120198632Y-125218500D01*
X120198638Y-125218500D01*
X120198645Y-125218499D01*
X120198649Y-125218499D01*
X120259196Y-125211990D01*
X120259199Y-125211989D01*
X120259201Y-125211989D01*
X120396204Y-125160889D01*
X120513261Y-125073261D01*
X120600889Y-124956204D01*
X120651989Y-124819201D01*
X120653712Y-124803182D01*
X120658499Y-124758649D01*
X120658500Y-124758632D01*
X120658500Y-122861367D01*
X120658499Y-122861350D01*
X120651990Y-122800803D01*
X120651988Y-122800795D01*
X120607679Y-122682000D01*
X120600889Y-122663796D01*
X120600888Y-122663794D01*
X120600887Y-122663792D01*
X120513261Y-122546738D01*
X120396207Y-122459112D01*
X120396202Y-122459110D01*
X120259204Y-122408011D01*
X120259196Y-122408009D01*
X120198649Y-122401500D01*
X120198638Y-122401500D01*
X118301362Y-122401500D01*
X118301350Y-122401500D01*
X118240803Y-122408009D01*
X118240795Y-122408011D01*
X118103797Y-122459110D01*
X118103792Y-122459112D01*
X117986738Y-122546738D01*
X117899112Y-122663792D01*
X117899110Y-122663797D01*
X117848011Y-122800795D01*
X117848009Y-122800803D01*
X117841500Y-122861350D01*
X117841500Y-124758649D01*
X115078500Y-124758649D01*
X115078500Y-119577181D01*
X115098502Y-119509060D01*
X115115400Y-119488091D01*
X117795452Y-116808038D01*
X117857762Y-116774014D01*
X117928577Y-116779079D01*
X117985413Y-116821626D01*
X117999931Y-116846518D01*
X118007016Y-116862669D01*
X118134685Y-117058083D01*
X118292774Y-117229813D01*
X118292778Y-117229817D01*
X118358650Y-117281087D01*
X118476983Y-117373190D01*
X118682273Y-117484287D01*
X118903049Y-117560080D01*
X119133288Y-117598500D01*
X119133292Y-117598500D01*
X119366708Y-117598500D01*
X119366712Y-117598500D01*
X119596951Y-117560080D01*
X119817727Y-117484287D01*
X120023017Y-117373190D01*
X120207220Y-117229818D01*
X120224776Y-117210748D01*
X120365314Y-117058083D01*
X120492984Y-116862669D01*
X120586749Y-116648907D01*
X120644051Y-116422626D01*
X120663327Y-116190000D01*
X120644051Y-115957374D01*
X120625156Y-115882759D01*
X120586750Y-115731096D01*
X120586747Y-115731089D01*
X120492984Y-115517331D01*
X120385893Y-115353415D01*
X120365380Y-115285447D01*
X120384869Y-115217178D01*
X120438174Y-115170283D01*
X120491376Y-115158500D01*
X121215500Y-115158500D01*
X121283621Y-115178502D01*
X121330114Y-115232158D01*
X121341500Y-115284500D01*
X121341500Y-117138649D01*
X121348009Y-117199196D01*
X121348011Y-117199204D01*
X121399110Y-117336202D01*
X121399112Y-117336207D01*
X121486738Y-117453261D01*
X121603792Y-117540887D01*
X121603794Y-117540888D01*
X121603796Y-117540889D01*
X121655243Y-117560078D01*
X121740795Y-117591988D01*
X121740803Y-117591990D01*
X121801350Y-117598499D01*
X121801355Y-117598499D01*
X121801362Y-117598500D01*
X121801368Y-117598500D01*
X123698632Y-117598500D01*
X123698638Y-117598500D01*
X123698645Y-117598499D01*
X123698649Y-117598499D01*
X123759196Y-117591990D01*
X123759199Y-117591989D01*
X123759201Y-117591989D01*
X123896204Y-117540889D01*
X123920219Y-117522912D01*
X124013261Y-117453261D01*
X124100887Y-117336207D01*
X124100887Y-117336206D01*
X124100889Y-117336204D01*
X124151989Y-117199201D01*
X124154452Y-117176296D01*
X124158499Y-117138649D01*
X124158500Y-117138632D01*
X124158500Y-115241367D01*
X124158499Y-115241350D01*
X124151990Y-115180803D01*
X124151988Y-115180795D01*
X124100889Y-115043797D01*
X124100889Y-115043796D01*
X124073687Y-115007459D01*
X124048876Y-114940938D01*
X124063967Y-114871564D01*
X124085457Y-114842857D01*
X124489810Y-114438504D01*
X124552120Y-114404480D01*
X124622935Y-114409545D01*
X124656291Y-114428168D01*
X124726983Y-114483190D01*
X124932273Y-114594287D01*
X125153049Y-114670080D01*
X125383288Y-114708500D01*
X125383292Y-114708500D01*
X125616708Y-114708500D01*
X125616712Y-114708500D01*
X125846951Y-114670080D01*
X126067727Y-114594287D01*
X126180533Y-114533239D01*
X126249961Y-114518410D01*
X126316387Y-114543470D01*
X126358720Y-114600465D01*
X126366500Y-114644054D01*
X126366500Y-116890606D01*
X126346498Y-116958727D01*
X126312771Y-116993819D01*
X126155703Y-117103799D01*
X126155697Y-117103804D01*
X125993804Y-117265697D01*
X125993799Y-117265703D01*
X125862477Y-117453250D01*
X125765717Y-117660753D01*
X125765715Y-117660759D01*
X125721317Y-117826454D01*
X125706457Y-117881913D01*
X125686502Y-118110000D01*
X125706457Y-118338087D01*
X125740670Y-118465771D01*
X125765715Y-118559240D01*
X125765717Y-118559246D01*
X125857159Y-118755345D01*
X125862477Y-118766749D01*
X125993802Y-118954300D01*
X126155700Y-119116198D01*
X126343251Y-119247523D01*
X126550757Y-119344284D01*
X126771913Y-119403543D01*
X127000000Y-119423498D01*
X127228087Y-119403543D01*
X127449243Y-119344284D01*
X127656749Y-119247523D01*
X127844300Y-119116198D01*
X128006198Y-118954300D01*
X128137523Y-118766749D01*
X128234284Y-118559243D01*
X128293543Y-118338087D01*
X128313498Y-118110000D01*
X135846502Y-118110000D01*
X135866457Y-118338087D01*
X135900670Y-118465771D01*
X135925715Y-118559240D01*
X135925717Y-118559246D01*
X136017159Y-118755345D01*
X136022477Y-118766749D01*
X136153802Y-118954300D01*
X136315700Y-119116198D01*
X136503251Y-119247523D01*
X136710757Y-119344284D01*
X136931913Y-119403543D01*
X137160000Y-119423498D01*
X137388087Y-119403543D01*
X137609243Y-119344284D01*
X137816749Y-119247523D01*
X138004300Y-119116198D01*
X138166198Y-118954300D01*
X138297523Y-118766749D01*
X138394284Y-118559243D01*
X138453543Y-118338087D01*
X138473498Y-118110000D01*
X138453543Y-117881913D01*
X138394284Y-117660757D01*
X138297523Y-117453251D01*
X138166198Y-117265700D01*
X138004300Y-117103802D01*
X137816749Y-116972477D01*
X137743589Y-116938362D01*
X137609246Y-116875717D01*
X137609240Y-116875715D01*
X137500275Y-116846518D01*
X137388087Y-116816457D01*
X137160000Y-116796502D01*
X136931913Y-116816457D01*
X136710759Y-116875715D01*
X136710753Y-116875717D01*
X136503250Y-116972477D01*
X136315703Y-117103799D01*
X136315697Y-117103804D01*
X136153804Y-117265697D01*
X136153799Y-117265703D01*
X136022477Y-117453250D01*
X135925717Y-117660753D01*
X135925715Y-117660759D01*
X135881317Y-117826454D01*
X135866457Y-117881913D01*
X135846502Y-118110000D01*
X128313498Y-118110000D01*
X128293543Y-117881913D01*
X128234284Y-117660757D01*
X128137523Y-117453251D01*
X128006198Y-117265700D01*
X127844300Y-117103802D01*
X127779007Y-117058083D01*
X127687229Y-116993819D01*
X127642901Y-116938362D01*
X127633500Y-116890606D01*
X127633500Y-114815585D01*
X127653502Y-114747464D01*
X127707158Y-114700971D01*
X127777432Y-114690867D01*
X127780220Y-114691301D01*
X127819483Y-114697852D01*
X127883286Y-114708500D01*
X127883288Y-114708500D01*
X128116708Y-114708500D01*
X128116712Y-114708500D01*
X128346951Y-114670080D01*
X128567727Y-114594287D01*
X128773017Y-114483190D01*
X128957220Y-114339818D01*
X129115314Y-114168083D01*
X129242984Y-113972669D01*
X129336749Y-113758907D01*
X129394051Y-113532626D01*
X129413327Y-113300000D01*
X129394051Y-113067374D01*
X129347566Y-112883807D01*
X129336750Y-112841096D01*
X129336747Y-112841089D01*
X129296829Y-112750086D01*
X129242984Y-112627331D01*
X129234878Y-112614924D01*
X129115314Y-112431916D01*
X128957225Y-112260186D01*
X128957221Y-112260182D01*
X128853287Y-112179287D01*
X128773017Y-112116810D01*
X128567727Y-112005713D01*
X128567724Y-112005712D01*
X128567723Y-112005711D01*
X128346955Y-111929921D01*
X128346948Y-111929919D01*
X128241953Y-111912399D01*
X128116712Y-111891500D01*
X127883288Y-111891500D01*
X127788610Y-111907299D01*
X127653051Y-111929919D01*
X127653044Y-111929921D01*
X127432276Y-112005711D01*
X127432273Y-112005713D01*
X127253744Y-112102328D01*
X127226985Y-112116809D01*
X127226983Y-112116810D01*
X127042778Y-112260182D01*
X127042774Y-112260186D01*
X126884685Y-112431916D01*
X126855483Y-112476615D01*
X126801480Y-112522704D01*
X126731132Y-112532279D01*
X126666774Y-112502302D01*
X126644517Y-112476615D01*
X126615314Y-112431916D01*
X126457225Y-112260186D01*
X126457221Y-112260182D01*
X126313849Y-112148591D01*
X126273017Y-112116810D01*
X126144995Y-112047528D01*
X126094606Y-111997515D01*
X126079254Y-111928198D01*
X126103815Y-111861585D01*
X126115857Y-111847634D01*
X126955490Y-111008002D01*
X127017800Y-110973979D01*
X127044583Y-110971100D01*
X133487743Y-110971100D01*
X133555864Y-110991102D01*
X133602357Y-111044758D01*
X133612461Y-111115032D01*
X133609450Y-111129711D01*
X133580457Y-111237913D01*
X133560502Y-111466000D01*
X133580457Y-111694086D01*
X133639715Y-111915240D01*
X133639717Y-111915246D01*
X133736477Y-112122749D01*
X133856327Y-112293913D01*
X133867802Y-112310300D01*
X134029700Y-112472198D01*
X134217251Y-112603523D01*
X134424757Y-112700284D01*
X134645913Y-112759543D01*
X134874000Y-112779498D01*
X135102087Y-112759543D01*
X135323243Y-112700284D01*
X135530749Y-112603523D01*
X135718300Y-112472198D01*
X135880198Y-112310300D01*
X136011523Y-112122749D01*
X136108284Y-111915243D01*
X136167543Y-111694087D01*
X136187498Y-111466000D01*
X136167543Y-111237913D01*
X136138550Y-111129710D01*
X136140240Y-111058734D01*
X136180034Y-110999939D01*
X136245299Y-110971991D01*
X136260257Y-110971100D01*
X144473006Y-110971100D01*
X144541127Y-110991102D01*
X144562101Y-111008005D01*
X145230501Y-111676405D01*
X145264527Y-111738717D01*
X145259462Y-111809532D01*
X145216915Y-111866368D01*
X145150395Y-111891179D01*
X145141406Y-111891500D01*
X145133288Y-111891500D01*
X145038610Y-111907299D01*
X144903051Y-111929919D01*
X144903044Y-111929921D01*
X144682276Y-112005711D01*
X144682273Y-112005713D01*
X144503744Y-112102328D01*
X144476985Y-112116809D01*
X144476983Y-112116810D01*
X144292778Y-112260182D01*
X144292774Y-112260186D01*
X144134685Y-112431916D01*
X144105483Y-112476615D01*
X144051480Y-112522704D01*
X143981132Y-112532279D01*
X143916774Y-112502302D01*
X143894517Y-112476615D01*
X143865314Y-112431916D01*
X143707225Y-112260186D01*
X143707221Y-112260182D01*
X143603287Y-112179287D01*
X143523017Y-112116810D01*
X143317727Y-112005713D01*
X143317724Y-112005712D01*
X143317723Y-112005711D01*
X143096955Y-111929921D01*
X143096948Y-111929919D01*
X142991953Y-111912399D01*
X142866712Y-111891500D01*
X142633288Y-111891500D01*
X142538610Y-111907299D01*
X142403051Y-111929919D01*
X142403044Y-111929921D01*
X142182276Y-112005711D01*
X142182273Y-112005713D01*
X142003744Y-112102328D01*
X141976985Y-112116809D01*
X141976983Y-112116810D01*
X141792778Y-112260182D01*
X141792774Y-112260186D01*
X141634685Y-112431916D01*
X141507015Y-112627331D01*
X141413252Y-112841089D01*
X141413249Y-112841096D01*
X141355950Y-113067366D01*
X141355950Y-113067370D01*
X141355949Y-113067374D01*
X141336673Y-113300000D01*
X141355582Y-113528200D01*
X141355950Y-113532633D01*
X141413249Y-113758903D01*
X141413252Y-113758910D01*
X141507015Y-113972668D01*
X141634685Y-114168083D01*
X141792774Y-114339813D01*
X141792778Y-114339817D01*
X141818487Y-114359827D01*
X141976983Y-114483190D01*
X142182273Y-114594287D01*
X142403049Y-114670080D01*
X142633288Y-114708500D01*
X142633292Y-114708500D01*
X142866708Y-114708500D01*
X142866712Y-114708500D01*
X143096951Y-114670080D01*
X143317727Y-114594287D01*
X143523017Y-114483190D01*
X143707220Y-114339818D01*
X143865314Y-114168083D01*
X143894517Y-114123383D01*
X143948519Y-114077296D01*
X144018867Y-114067720D01*
X144083225Y-114097696D01*
X144105481Y-114123382D01*
X144129337Y-114159895D01*
X144134687Y-114168084D01*
X144292774Y-114339813D01*
X144292778Y-114339817D01*
X144318487Y-114359827D01*
X144476983Y-114483190D01*
X144682273Y-114594287D01*
X144903049Y-114670080D01*
X145133288Y-114708500D01*
X145133292Y-114708500D01*
X145366708Y-114708500D01*
X145366712Y-114708500D01*
X145596951Y-114670080D01*
X145817727Y-114594287D01*
X146023017Y-114483190D01*
X146207220Y-114339818D01*
X146365314Y-114168083D01*
X146394517Y-114123383D01*
X146448519Y-114077296D01*
X146518867Y-114067720D01*
X146583225Y-114097696D01*
X146605481Y-114123382D01*
X146629337Y-114159895D01*
X146634687Y-114168084D01*
X146792774Y-114339813D01*
X146792778Y-114339817D01*
X146818487Y-114359827D01*
X146976983Y-114483190D01*
X147182273Y-114594287D01*
X147403049Y-114670080D01*
X147633288Y-114708500D01*
X147633292Y-114708500D01*
X147866708Y-114708500D01*
X147866712Y-114708500D01*
X148096951Y-114670080D01*
X148317727Y-114594287D01*
X148523017Y-114483190D01*
X148707220Y-114339818D01*
X148865314Y-114168083D01*
X148992984Y-113972669D01*
X149086749Y-113758907D01*
X149144051Y-113532626D01*
X149163327Y-113300000D01*
X149144051Y-113067374D01*
X149097566Y-112883807D01*
X149086750Y-112841096D01*
X149086747Y-112841089D01*
X149046829Y-112750086D01*
X148992984Y-112627331D01*
X148984878Y-112614924D01*
X148865314Y-112431916D01*
X148707225Y-112260186D01*
X148707221Y-112260182D01*
X148603287Y-112179287D01*
X148523017Y-112116810D01*
X148317727Y-112005713D01*
X148317724Y-112005712D01*
X148317723Y-112005711D01*
X148096955Y-111929921D01*
X148096948Y-111929919D01*
X147991953Y-111912399D01*
X147866712Y-111891500D01*
X147633288Y-111891500D01*
X147538610Y-111907299D01*
X147403051Y-111929919D01*
X147403038Y-111929923D01*
X147382725Y-111936896D01*
X147311800Y-111940094D01*
X147252722Y-111906817D01*
X145294844Y-109948939D01*
X145284879Y-109936501D01*
X145284652Y-109936690D01*
X145279601Y-109930584D01*
X145279600Y-109930582D01*
X145262986Y-109914981D01*
X145229949Y-109883957D01*
X145227105Y-109881200D01*
X145207377Y-109861471D01*
X145207371Y-109861466D01*
X145204167Y-109858980D01*
X145195156Y-109851283D01*
X145162925Y-109821017D01*
X145162919Y-109821013D01*
X145145163Y-109811251D01*
X145128647Y-109800402D01*
X145112641Y-109787986D01*
X145080291Y-109773987D01*
X145072064Y-109770427D01*
X145061407Y-109765205D01*
X145022663Y-109743906D01*
X145022660Y-109743905D01*
X145003036Y-109738866D01*
X144984336Y-109732464D01*
X144965745Y-109724419D01*
X144965743Y-109724418D01*
X144965741Y-109724418D01*
X144922074Y-109717501D01*
X144910455Y-109715095D01*
X144867630Y-109704100D01*
X144847376Y-109704100D01*
X144827666Y-109702549D01*
X144807657Y-109699380D01*
X144763639Y-109703541D01*
X144751781Y-109704100D01*
X126813841Y-109704100D01*
X126797999Y-109702350D01*
X126797972Y-109702644D01*
X126790080Y-109701898D01*
X126790079Y-109701898D01*
X126769370Y-109702549D01*
X126722002Y-109704038D01*
X126718043Y-109704100D01*
X126690132Y-109704100D01*
X126690129Y-109704100D01*
X126690114Y-109704101D01*
X126686109Y-109704607D01*
X126674292Y-109705537D01*
X126630101Y-109706926D01*
X126630099Y-109706927D01*
X126610644Y-109712578D01*
X126591291Y-109716586D01*
X126571199Y-109719124D01*
X126571193Y-109719125D01*
X126571191Y-109719126D01*
X126557822Y-109724419D01*
X126530086Y-109735400D01*
X126518862Y-109739243D01*
X126476395Y-109751582D01*
X126458952Y-109761897D01*
X126441206Y-109770590D01*
X126422370Y-109778048D01*
X126386598Y-109804037D01*
X126376682Y-109810551D01*
X126338625Y-109833058D01*
X126324299Y-109847384D01*
X126309273Y-109860217D01*
X126292883Y-109872125D01*
X126292881Y-109872127D01*
X126264688Y-109906205D01*
X126256701Y-109914981D01*
X124010190Y-112161491D01*
X123947878Y-112195517D01*
X123877062Y-112190452D01*
X123843704Y-112171828D01*
X123773017Y-112116810D01*
X123773016Y-112116809D01*
X123644996Y-112047529D01*
X123567727Y-112005713D01*
X123567724Y-112005712D01*
X123567723Y-112005711D01*
X123346955Y-111929921D01*
X123346948Y-111929919D01*
X123241953Y-111912399D01*
X123116712Y-111891500D01*
X122883288Y-111891500D01*
X122788610Y-111907299D01*
X122653051Y-111929919D01*
X122653041Y-111929922D01*
X122632722Y-111936897D01*
X122561798Y-111940094D01*
X122502721Y-111906817D01*
X116895911Y-106300006D01*
X118586540Y-106300006D01*
X118606357Y-106615007D01*
X118606359Y-106615024D01*
X118665504Y-106925067D01*
X118665507Y-106925080D01*
X118763039Y-107225254D01*
X118763044Y-107225266D01*
X118897438Y-107510869D01*
X118897440Y-107510872D01*
X118897443Y-107510878D01*
X119066562Y-107777368D01*
X119267763Y-108020578D01*
X119267766Y-108020580D01*
X119267767Y-108020582D01*
X119497860Y-108236654D01*
X119753221Y-108422184D01*
X120029821Y-108574247D01*
X120323298Y-108690443D01*
X120629025Y-108768940D01*
X120629033Y-108768941D01*
X120629032Y-108768941D01*
X120793129Y-108789670D01*
X120942179Y-108808500D01*
X120942183Y-108808500D01*
X121257817Y-108808500D01*
X121257821Y-108808500D01*
X121570975Y-108768940D01*
X121876702Y-108690443D01*
X122170179Y-108574247D01*
X122446779Y-108422184D01*
X122702140Y-108236654D01*
X122932233Y-108020582D01*
X123133432Y-107777375D01*
X123133434Y-107777370D01*
X123133437Y-107777368D01*
X123275762Y-107553099D01*
X123302562Y-107510869D01*
X123436956Y-107225266D01*
X123534495Y-106925072D01*
X123593641Y-106615020D01*
X123600536Y-106505430D01*
X123613460Y-106300006D01*
X127386540Y-106300006D01*
X127406357Y-106615007D01*
X127406359Y-106615024D01*
X127465504Y-106925067D01*
X127465507Y-106925080D01*
X127563039Y-107225254D01*
X127563044Y-107225266D01*
X127697438Y-107510869D01*
X127697440Y-107510872D01*
X127697443Y-107510878D01*
X127866562Y-107777368D01*
X128067763Y-108020578D01*
X128067766Y-108020580D01*
X128067767Y-108020582D01*
X128297860Y-108236654D01*
X128553221Y-108422184D01*
X128829821Y-108574247D01*
X129123298Y-108690443D01*
X129429025Y-108768940D01*
X129429033Y-108768941D01*
X129429032Y-108768941D01*
X129593129Y-108789670D01*
X129742179Y-108808500D01*
X129742183Y-108808500D01*
X130057817Y-108808500D01*
X130057821Y-108808500D01*
X130370975Y-108768940D01*
X130676702Y-108690443D01*
X130970179Y-108574247D01*
X131246779Y-108422184D01*
X131502140Y-108236654D01*
X131732233Y-108020582D01*
X131933432Y-107777375D01*
X131933434Y-107777370D01*
X131933437Y-107777368D01*
X132075762Y-107553099D01*
X132102562Y-107510869D01*
X132236956Y-107225266D01*
X132334495Y-106925072D01*
X132393641Y-106615020D01*
X132400536Y-106505430D01*
X132403017Y-106466000D01*
X133561004Y-106466000D01*
X133580951Y-106694002D01*
X133640186Y-106915068D01*
X133640188Y-106915073D01*
X133736913Y-107122501D01*
X133786899Y-107193888D01*
X134475272Y-106505516D01*
X134488835Y-106591148D01*
X134546359Y-106704045D01*
X134635955Y-106793641D01*
X134748852Y-106851165D01*
X134834482Y-106864727D01*
X134146110Y-107553098D01*
X134146110Y-107553100D01*
X134217498Y-107603086D01*
X134424926Y-107699811D01*
X134424931Y-107699813D01*
X134645999Y-107759048D01*
X134645995Y-107759048D01*
X134874000Y-107778995D01*
X135102002Y-107759048D01*
X135323068Y-107699813D01*
X135323073Y-107699811D01*
X135530497Y-107603088D01*
X135601888Y-107553099D01*
X135601888Y-107553097D01*
X134913518Y-106864727D01*
X134999148Y-106851165D01*
X135112045Y-106793641D01*
X135201641Y-106704045D01*
X135259165Y-106591148D01*
X135272727Y-106505518D01*
X135961097Y-107193888D01*
X135961099Y-107193888D01*
X136011088Y-107122497D01*
X136107811Y-106915073D01*
X136107813Y-106915068D01*
X136167048Y-106694002D01*
X136186995Y-106466000D01*
X136172473Y-106300006D01*
X138336540Y-106300006D01*
X138356357Y-106615007D01*
X138356359Y-106615024D01*
X138415504Y-106925067D01*
X138415507Y-106925080D01*
X138513039Y-107225254D01*
X138513044Y-107225266D01*
X138647438Y-107510869D01*
X138647440Y-107510872D01*
X138647443Y-107510878D01*
X138816562Y-107777368D01*
X139017763Y-108020578D01*
X139017766Y-108020580D01*
X139017767Y-108020582D01*
X139247860Y-108236654D01*
X139503221Y-108422184D01*
X139779821Y-108574247D01*
X140073298Y-108690443D01*
X140379025Y-108768940D01*
X140379033Y-108768941D01*
X140379032Y-108768941D01*
X140543129Y-108789670D01*
X140692179Y-108808500D01*
X140692183Y-108808500D01*
X141007817Y-108808500D01*
X141007821Y-108808500D01*
X141320975Y-108768940D01*
X141626702Y-108690443D01*
X141920179Y-108574247D01*
X142196779Y-108422184D01*
X142452140Y-108236654D01*
X142682233Y-108020582D01*
X142883432Y-107777375D01*
X142883434Y-107777370D01*
X142883437Y-107777368D01*
X143025762Y-107553099D01*
X143052562Y-107510869D01*
X143186956Y-107225266D01*
X143284495Y-106925072D01*
X143343641Y-106615020D01*
X143350536Y-106505430D01*
X143363460Y-106300006D01*
X143363460Y-106299993D01*
X143343642Y-105984992D01*
X143343640Y-105984975D01*
X143310166Y-105809500D01*
X143284495Y-105674928D01*
X143188310Y-105378900D01*
X143186960Y-105374745D01*
X143186955Y-105374732D01*
X143119878Y-105232186D01*
X143052562Y-105089131D01*
X143052556Y-105089121D01*
X142883437Y-104822631D01*
X142682236Y-104579421D01*
X142452139Y-104363345D01*
X142196781Y-104177817D01*
X142154385Y-104154509D01*
X141920179Y-104025753D01*
X141626702Y-103909557D01*
X141320975Y-103831060D01*
X141320970Y-103831059D01*
X141320965Y-103831058D01*
X141320967Y-103831058D01*
X141007835Y-103791501D01*
X141007824Y-103791500D01*
X141007821Y-103791500D01*
X140692179Y-103791500D01*
X140692176Y-103791500D01*
X140692164Y-103791501D01*
X140379033Y-103831058D01*
X140073301Y-103909556D01*
X139779821Y-104025753D01*
X139503218Y-104177817D01*
X139247861Y-104363345D01*
X139247860Y-104363345D01*
X139017763Y-104579421D01*
X138816562Y-104822631D01*
X138647443Y-105089121D01*
X138647436Y-105089135D01*
X138513044Y-105374732D01*
X138513039Y-105374745D01*
X138415507Y-105674919D01*
X138415504Y-105674932D01*
X138356359Y-105984975D01*
X138356357Y-105984992D01*
X138336540Y-106299993D01*
X138336540Y-106300006D01*
X136172473Y-106300006D01*
X136167048Y-106237997D01*
X136107813Y-106016931D01*
X136107811Y-106016926D01*
X136011086Y-105809498D01*
X135961100Y-105738110D01*
X135961098Y-105738110D01*
X135272727Y-106426481D01*
X135259165Y-106340852D01*
X135201641Y-106227955D01*
X135112045Y-106138359D01*
X134999148Y-106080835D01*
X134913517Y-106067272D01*
X135601888Y-105378899D01*
X135601888Y-105378898D01*
X135530501Y-105328913D01*
X135323073Y-105232188D01*
X135323068Y-105232186D01*
X135102000Y-105172951D01*
X135102004Y-105172951D01*
X134874000Y-105153004D01*
X134645997Y-105172951D01*
X134424931Y-105232186D01*
X134424926Y-105232188D01*
X134217500Y-105328913D01*
X134146109Y-105378900D01*
X134834481Y-106067272D01*
X134748852Y-106080835D01*
X134635955Y-106138359D01*
X134546359Y-106227955D01*
X134488835Y-106340852D01*
X134475272Y-106426481D01*
X133786900Y-105738109D01*
X133736913Y-105809500D01*
X133640188Y-106016926D01*
X133640186Y-106016931D01*
X133580951Y-106237997D01*
X133561004Y-106466000D01*
X132403017Y-106466000D01*
X132413460Y-106300006D01*
X132413460Y-106299993D01*
X132393642Y-105984992D01*
X132393640Y-105984975D01*
X132360166Y-105809500D01*
X132334495Y-105674928D01*
X132238310Y-105378900D01*
X132236960Y-105374745D01*
X132236955Y-105374732D01*
X132169878Y-105232186D01*
X132102562Y-105089131D01*
X132102556Y-105089121D01*
X131933437Y-104822631D01*
X131732236Y-104579421D01*
X131502139Y-104363345D01*
X131246781Y-104177817D01*
X131204385Y-104154509D01*
X130970179Y-104025753D01*
X130676702Y-103909557D01*
X130370975Y-103831060D01*
X130370970Y-103831059D01*
X130370965Y-103831058D01*
X130370967Y-103831058D01*
X130057835Y-103791501D01*
X130057824Y-103791500D01*
X130057821Y-103791500D01*
X129742179Y-103791500D01*
X129742176Y-103791500D01*
X129742164Y-103791501D01*
X129429033Y-103831058D01*
X129123301Y-103909556D01*
X128829821Y-104025753D01*
X128553218Y-104177817D01*
X128297861Y-104363345D01*
X128297860Y-104363345D01*
X128067763Y-104579421D01*
X127866562Y-104822631D01*
X127697443Y-105089121D01*
X127697436Y-105089135D01*
X127563044Y-105374732D01*
X127563039Y-105374745D01*
X127465507Y-105674919D01*
X127465504Y-105674932D01*
X127406359Y-105984975D01*
X127406357Y-105984992D01*
X127386540Y-106299993D01*
X127386540Y-106300006D01*
X123613460Y-106300006D01*
X123613460Y-106299993D01*
X123593642Y-105984992D01*
X123593640Y-105984975D01*
X123560166Y-105809500D01*
X123534495Y-105674928D01*
X123438310Y-105378900D01*
X123436960Y-105374745D01*
X123436955Y-105374732D01*
X123369878Y-105232186D01*
X123302562Y-105089131D01*
X123302556Y-105089121D01*
X123133437Y-104822631D01*
X122932236Y-104579421D01*
X122702139Y-104363345D01*
X122446781Y-104177817D01*
X122404385Y-104154509D01*
X122170179Y-104025753D01*
X121876702Y-103909557D01*
X121570975Y-103831060D01*
X121570970Y-103831059D01*
X121570965Y-103831058D01*
X121570967Y-103831058D01*
X121257835Y-103791501D01*
X121257824Y-103791500D01*
X121257821Y-103791500D01*
X120942179Y-103791500D01*
X120942176Y-103791500D01*
X120942164Y-103791501D01*
X120629033Y-103831058D01*
X120323301Y-103909556D01*
X120029821Y-104025753D01*
X119753218Y-104177817D01*
X119497861Y-104363345D01*
X119497860Y-104363345D01*
X119267763Y-104579421D01*
X119066562Y-104822631D01*
X118897443Y-105089121D01*
X118897436Y-105089135D01*
X118763044Y-105374732D01*
X118763039Y-105374745D01*
X118665507Y-105674919D01*
X118665504Y-105674932D01*
X118606359Y-105984975D01*
X118606357Y-105984992D01*
X118586540Y-106299993D01*
X118586540Y-106300006D01*
X116895911Y-106300006D01*
X116670405Y-106074500D01*
X116636379Y-106012188D01*
X116633500Y-105985405D01*
X116633500Y-103581393D01*
X116653502Y-103513272D01*
X116687230Y-103478180D01*
X116844291Y-103368204D01*
X116844300Y-103368198D01*
X117006198Y-103206300D01*
X117137523Y-103018749D01*
X117234284Y-102811243D01*
X117293543Y-102590087D01*
X117313498Y-102362000D01*
X117293543Y-102133913D01*
X117234284Y-101912757D01*
X117137523Y-101705251D01*
X117006198Y-101517700D01*
X116844300Y-101355802D01*
X116656749Y-101224477D01*
X116449246Y-101127717D01*
X116449240Y-101127715D01*
X116355771Y-101102670D01*
X116228087Y-101068457D01*
X116000000Y-101048502D01*
X115771913Y-101068457D01*
X115550759Y-101127715D01*
X115550753Y-101127717D01*
X115343250Y-101224477D01*
X115155703Y-101355799D01*
X115155697Y-101355804D01*
X114993804Y-101517697D01*
X114993799Y-101517703D01*
X114862477Y-101705250D01*
X114765717Y-101912753D01*
X114765716Y-101912757D01*
X114706457Y-102133913D01*
X114686502Y-102362000D01*
X114706457Y-102590087D01*
X114765716Y-102811243D01*
X114862477Y-103018749D01*
X114993802Y-103206300D01*
X115155700Y-103368198D01*
X115155704Y-103368201D01*
X115155708Y-103368204D01*
X115312770Y-103478180D01*
X115357099Y-103533637D01*
X115366500Y-103581393D01*
X115366500Y-106216146D01*
X115364751Y-106231988D01*
X115365044Y-106232016D01*
X115364298Y-106239907D01*
X115366438Y-106307984D01*
X115366500Y-106311943D01*
X115366500Y-106339851D01*
X115366501Y-106339869D01*
X115367007Y-106343877D01*
X115367937Y-106355696D01*
X115369326Y-106399888D01*
X115369327Y-106399893D01*
X115374977Y-106419339D01*
X115378986Y-106438697D01*
X115381525Y-106458793D01*
X115381526Y-106458800D01*
X115397800Y-106499903D01*
X115401644Y-106511129D01*
X115413982Y-106553593D01*
X115424294Y-106571031D01*
X115432988Y-106588779D01*
X115440444Y-106607609D01*
X115440450Y-106607620D01*
X115466432Y-106643381D01*
X115472949Y-106653301D01*
X115495458Y-106691362D01*
X115495459Y-106691363D01*
X115495461Y-106691366D01*
X115509779Y-106705684D01*
X115522617Y-106720714D01*
X115534526Y-106737104D01*
X115534530Y-106737109D01*
X115568598Y-106765292D01*
X115577378Y-106773282D01*
X121608976Y-112804881D01*
X121643002Y-112867193D01*
X121642026Y-112924906D01*
X121605949Y-113067370D01*
X121605949Y-113067374D01*
X121586673Y-113300000D01*
X121605582Y-113528200D01*
X121605950Y-113532633D01*
X121657087Y-113734569D01*
X121654420Y-113805515D01*
X121613820Y-113863757D01*
X121548176Y-113890803D01*
X121534943Y-113891500D01*
X119266441Y-113891500D01*
X119250599Y-113889750D01*
X119250572Y-113890044D01*
X119242680Y-113889298D01*
X119242679Y-113889298D01*
X119218948Y-113890044D01*
X119174602Y-113891438D01*
X119170643Y-113891500D01*
X119142732Y-113891500D01*
X119142729Y-113891500D01*
X119142714Y-113891501D01*
X119138709Y-113892007D01*
X119126892Y-113892937D01*
X119082700Y-113894326D01*
X119082698Y-113894327D01*
X119063243Y-113899978D01*
X119043890Y-113903986D01*
X119023798Y-113906524D01*
X119023791Y-113906526D01*
X118982684Y-113922801D01*
X118971459Y-113926644D01*
X118940800Y-113935552D01*
X118928995Y-113938982D01*
X118928993Y-113938982D01*
X118928990Y-113938984D01*
X118911551Y-113949297D01*
X118893806Y-113957990D01*
X118874967Y-113965449D01*
X118839215Y-113991426D01*
X118829292Y-113997944D01*
X118791228Y-114020454D01*
X118776895Y-114034787D01*
X118761869Y-114047620D01*
X118745483Y-114059525D01*
X118717299Y-114093593D01*
X118709311Y-114102370D01*
X116971163Y-115840518D01*
X116908851Y-115874544D01*
X116838036Y-115869479D01*
X116781200Y-115826932D01*
X116767873Y-115804673D01*
X116707523Y-115675251D01*
X116576198Y-115487700D01*
X116414300Y-115325802D01*
X116226749Y-115194477D01*
X116192490Y-115178502D01*
X116019246Y-115097717D01*
X116019240Y-115097715D01*
X115925771Y-115072670D01*
X115798087Y-115038457D01*
X115570000Y-115018502D01*
X115341913Y-115038457D01*
X115120759Y-115097715D01*
X115120753Y-115097717D01*
X114913250Y-115194477D01*
X114725703Y-115325799D01*
X114725697Y-115325804D01*
X114563804Y-115487697D01*
X114563799Y-115487703D01*
X114432477Y-115675250D01*
X114335717Y-115882753D01*
X114335716Y-115882757D01*
X114276457Y-116103913D01*
X114256502Y-116332000D01*
X114276457Y-116560087D01*
X114300257Y-116648910D01*
X114335715Y-116781240D01*
X114335717Y-116781246D01*
X114432477Y-116988749D01*
X114537426Y-117138632D01*
X114563802Y-117176300D01*
X114725700Y-117338198D01*
X114913251Y-117469523D01*
X115006497Y-117513004D01*
X115042673Y-117529873D01*
X115095958Y-117576790D01*
X115115419Y-117645067D01*
X115094877Y-117713027D01*
X115078518Y-117733163D01*
X114056336Y-118755345D01*
X114043901Y-118765309D01*
X114044089Y-118765536D01*
X114037979Y-118770590D01*
X113991370Y-118820223D01*
X113988620Y-118823061D01*
X113968863Y-118842819D01*
X113966374Y-118846027D01*
X113958688Y-118855024D01*
X113928418Y-118887261D01*
X113928411Y-118887271D01*
X113918651Y-118905023D01*
X113907803Y-118921538D01*
X113895386Y-118937546D01*
X113877824Y-118978128D01*
X113872604Y-118988783D01*
X113851305Y-119027527D01*
X113851303Y-119027532D01*
X113846267Y-119047147D01*
X113839864Y-119065850D01*
X113831819Y-119084440D01*
X113824901Y-119128113D01*
X113822495Y-119139730D01*
X113811500Y-119182556D01*
X113811500Y-119202811D01*
X113809949Y-119222521D01*
X113806780Y-119242531D01*
X113809188Y-119268003D01*
X113810941Y-119286549D01*
X113811500Y-119298407D01*
X113811500Y-120078044D01*
X113791498Y-120146165D01*
X113737842Y-120192658D01*
X113667568Y-120202762D01*
X113602988Y-120173268D01*
X113565667Y-120116980D01*
X113486960Y-119874745D01*
X113486955Y-119874732D01*
X113414596Y-119720961D01*
X113352562Y-119589131D01*
X113352556Y-119589121D01*
X113183437Y-119322631D01*
X112982236Y-119079421D01*
X112967784Y-119065850D01*
X112796521Y-118905023D01*
X112752139Y-118863345D01*
X112496781Y-118677817D01*
X112454385Y-118654509D01*
X112220179Y-118525753D01*
X111926702Y-118409557D01*
X111620975Y-118331060D01*
X111620970Y-118331059D01*
X111620965Y-118331058D01*
X111620966Y-118331058D01*
X111401921Y-118303386D01*
X111336844Y-118275004D01*
X111297443Y-118215944D01*
X111296226Y-118144958D01*
X111328616Y-118089287D01*
X115586753Y-113831149D01*
X115649063Y-113797125D01*
X115708457Y-113798539D01*
X115771913Y-113815543D01*
X116000000Y-113835498D01*
X116228087Y-113815543D01*
X116449243Y-113756284D01*
X116656749Y-113659523D01*
X116844300Y-113528198D01*
X117006198Y-113366300D01*
X117137523Y-113178749D01*
X117234284Y-112971243D01*
X117293543Y-112750087D01*
X117313498Y-112522000D01*
X117293543Y-112293913D01*
X117234284Y-112072757D01*
X117137523Y-111865251D01*
X117006198Y-111677700D01*
X116844300Y-111515802D01*
X116656749Y-111384477D01*
X116637386Y-111375448D01*
X116449246Y-111287717D01*
X116449240Y-111287715D01*
X116355771Y-111262670D01*
X116228087Y-111228457D01*
X116000000Y-111208502D01*
X115771913Y-111228457D01*
X115550759Y-111287715D01*
X115550753Y-111287717D01*
X115343250Y-111384477D01*
X115155703Y-111515799D01*
X115155697Y-111515804D01*
X114993804Y-111677697D01*
X114993799Y-111677703D01*
X114862477Y-111865250D01*
X114765717Y-112072753D01*
X114765715Y-112072759D01*
X114706457Y-112293913D01*
X114686502Y-112522000D01*
X114706457Y-112750090D01*
X114723459Y-112813540D01*
X114721769Y-112884516D01*
X114690847Y-112935246D01*
X108436336Y-119189757D01*
X108423901Y-119199721D01*
X108424089Y-119199948D01*
X108417979Y-119205002D01*
X108371370Y-119254635D01*
X108368620Y-119257473D01*
X108348863Y-119277231D01*
X108346374Y-119280439D01*
X108338688Y-119289436D01*
X108308418Y-119321673D01*
X108308411Y-119321683D01*
X108298651Y-119339435D01*
X108287803Y-119355950D01*
X108275386Y-119371958D01*
X108257824Y-119412540D01*
X108252604Y-119423195D01*
X108231305Y-119461939D01*
X108231303Y-119461944D01*
X108226267Y-119481559D01*
X108219864Y-119500262D01*
X108211819Y-119518852D01*
X108204901Y-119562525D01*
X108202495Y-119574142D01*
X108191500Y-119616968D01*
X108191500Y-119637223D01*
X108189949Y-119656933D01*
X108186780Y-119676942D01*
X108190941Y-119720961D01*
X108191500Y-119732819D01*
X108191500Y-121679193D01*
X108189751Y-121695035D01*
X108190044Y-121695063D01*
X108189298Y-121702954D01*
X108191438Y-121771031D01*
X108191500Y-121774990D01*
X108191500Y-121802898D01*
X108191501Y-121802916D01*
X108192007Y-121806924D01*
X108192937Y-121818743D01*
X108194326Y-121862935D01*
X108194327Y-121862940D01*
X108199977Y-121882386D01*
X108203986Y-121901744D01*
X108206525Y-121921840D01*
X108206526Y-121921847D01*
X108222800Y-121962950D01*
X108226644Y-121974176D01*
X108238982Y-122016640D01*
X108249294Y-122034078D01*
X108257988Y-122051826D01*
X108265444Y-122070656D01*
X108265450Y-122070667D01*
X108291432Y-122106428D01*
X108297949Y-122116348D01*
X108320458Y-122154409D01*
X108320459Y-122154410D01*
X108320461Y-122154413D01*
X108334779Y-122168731D01*
X108347617Y-122183761D01*
X108359526Y-122200151D01*
X108359530Y-122200156D01*
X108393598Y-122228339D01*
X108402378Y-122236329D01*
X109679706Y-123513657D01*
X109689673Y-123526097D01*
X109689900Y-123525910D01*
X109694952Y-123532017D01*
X109694953Y-123532018D01*
X109732682Y-123567448D01*
X109744619Y-123578657D01*
X109747463Y-123581414D01*
X109767179Y-123601131D01*
X109770376Y-123603611D01*
X109779397Y-123611316D01*
X109801263Y-123631849D01*
X109837229Y-123693061D01*
X109841011Y-123723700D01*
X109841011Y-126337232D01*
X109821009Y-126405353D01*
X109767353Y-126451846D01*
X109697079Y-126461950D01*
X109674099Y-126456405D01*
X109596955Y-126429921D01*
X109596948Y-126429919D01*
X109498411Y-126413476D01*
X109366712Y-126391500D01*
X109133288Y-126391500D01*
X109018066Y-126410727D01*
X108903051Y-126429919D01*
X108903044Y-126429921D01*
X108682276Y-126505711D01*
X108682273Y-126505713D01*
X108498304Y-126605272D01*
X108476985Y-126616809D01*
X108476983Y-126616810D01*
X108292778Y-126760182D01*
X108292774Y-126760186D01*
X108134685Y-126931916D01*
X108105483Y-126976615D01*
X108051480Y-127022704D01*
X107981132Y-127032279D01*
X107916774Y-127002302D01*
X107894517Y-126976615D01*
X107865314Y-126931916D01*
X107707225Y-126760186D01*
X107707221Y-126760182D01*
X107595714Y-126673393D01*
X107523017Y-126616810D01*
X107317727Y-126505713D01*
X107317724Y-126505712D01*
X107317723Y-126505711D01*
X107096955Y-126429921D01*
X107096948Y-126429919D01*
X106998411Y-126413476D01*
X106866712Y-126391500D01*
X106633288Y-126391500D01*
X106518066Y-126410727D01*
X106403051Y-126429919D01*
X106403044Y-126429921D01*
X106275412Y-126473738D01*
X106204488Y-126476938D01*
X106143092Y-126441286D01*
X106110718Y-126378101D01*
X106108500Y-126354565D01*
X106108500Y-114745434D01*
X106128502Y-114677313D01*
X106182158Y-114630820D01*
X106252432Y-114620716D01*
X106275401Y-114626258D01*
X106403049Y-114670080D01*
X106633288Y-114708500D01*
X106633292Y-114708500D01*
X106866708Y-114708500D01*
X106866712Y-114708500D01*
X107096951Y-114670080D01*
X107317727Y-114594287D01*
X107523017Y-114483190D01*
X107707220Y-114339818D01*
X107865314Y-114168083D01*
X107894517Y-114123383D01*
X107948519Y-114077296D01*
X108018867Y-114067720D01*
X108083225Y-114097696D01*
X108105481Y-114123382D01*
X108129337Y-114159895D01*
X108134687Y-114168084D01*
X108292774Y-114339813D01*
X108292778Y-114339817D01*
X108318487Y-114359827D01*
X108476983Y-114483190D01*
X108682273Y-114594287D01*
X108903049Y-114670080D01*
X109133288Y-114708500D01*
X109133292Y-114708500D01*
X109366708Y-114708500D01*
X109366712Y-114708500D01*
X109596951Y-114670080D01*
X109817727Y-114594287D01*
X110023017Y-114483190D01*
X110207220Y-114339818D01*
X110365314Y-114168083D01*
X110492984Y-113972669D01*
X110586749Y-113758907D01*
X110644051Y-113532626D01*
X110663327Y-113300000D01*
X110644051Y-113067374D01*
X110597566Y-112883807D01*
X110586750Y-112841096D01*
X110586747Y-112841089D01*
X110546829Y-112750086D01*
X110492984Y-112627331D01*
X110484878Y-112614924D01*
X110365314Y-112431916D01*
X110207225Y-112260186D01*
X110207221Y-112260182D01*
X110103287Y-112179287D01*
X110023017Y-112116810D01*
X109817727Y-112005713D01*
X109817724Y-112005712D01*
X109817723Y-112005711D01*
X109596955Y-111929921D01*
X109596948Y-111929919D01*
X109491953Y-111912399D01*
X109366712Y-111891500D01*
X109133288Y-111891500D01*
X109038610Y-111907299D01*
X108903051Y-111929919D01*
X108903044Y-111929921D01*
X108682276Y-112005711D01*
X108682273Y-112005713D01*
X108503744Y-112102328D01*
X108476985Y-112116809D01*
X108476983Y-112116810D01*
X108292778Y-112260182D01*
X108292774Y-112260186D01*
X108134685Y-112431916D01*
X108105483Y-112476615D01*
X108051480Y-112522704D01*
X107981132Y-112532279D01*
X107916774Y-112502302D01*
X107894517Y-112476615D01*
X107865314Y-112431916D01*
X107707225Y-112260186D01*
X107707221Y-112260182D01*
X107603287Y-112179287D01*
X107523017Y-112116810D01*
X107317727Y-112005713D01*
X107317724Y-112005712D01*
X107317723Y-112005711D01*
X107096955Y-111929921D01*
X107096948Y-111929919D01*
X106991953Y-111912399D01*
X106866712Y-111891500D01*
X106633288Y-111891500D01*
X106538610Y-111907299D01*
X106403051Y-111929919D01*
X106403044Y-111929921D01*
X106275412Y-111973738D01*
X106204488Y-111976938D01*
X106143092Y-111941286D01*
X106110718Y-111878101D01*
X106108500Y-111854565D01*
X106108500Y-110507322D01*
X106128502Y-110439201D01*
X106182158Y-110392708D01*
X106210463Y-110384981D01*
X106210228Y-110383873D01*
X106216687Y-110382500D01*
X106403488Y-110342794D01*
X106577952Y-110265118D01*
X106732453Y-110152866D01*
X106860240Y-110010944D01*
X106955727Y-109845556D01*
X107014742Y-109663928D01*
X107034704Y-109474000D01*
X107014742Y-109284072D01*
X106955727Y-109102444D01*
X106860240Y-108937056D01*
X106860238Y-108937054D01*
X106860234Y-108937048D01*
X106732455Y-108795135D01*
X106577952Y-108682882D01*
X106403488Y-108605206D01*
X106216687Y-108565500D01*
X106025713Y-108565500D01*
X105838911Y-108605206D01*
X105664447Y-108682882D01*
X105509944Y-108795135D01*
X105382165Y-108937048D01*
X105382158Y-108937058D01*
X105286676Y-109102438D01*
X105286673Y-109102445D01*
X105227657Y-109284072D01*
X105210292Y-109449292D01*
X105183279Y-109514949D01*
X105174077Y-109525216D01*
X105086336Y-109612957D01*
X105073901Y-109622920D01*
X105074089Y-109623147D01*
X105067982Y-109628199D01*
X105021370Y-109677835D01*
X105018620Y-109680673D01*
X104998863Y-109700431D01*
X104996374Y-109703639D01*
X104988688Y-109712636D01*
X104958418Y-109744873D01*
X104958411Y-109744883D01*
X104948651Y-109762635D01*
X104937803Y-109779150D01*
X104925386Y-109795158D01*
X104907824Y-109835740D01*
X104902604Y-109846395D01*
X104881305Y-109885139D01*
X104881303Y-109885144D01*
X104876267Y-109904759D01*
X104869864Y-109923462D01*
X104861819Y-109942052D01*
X104854901Y-109985725D01*
X104852495Y-109997342D01*
X104841500Y-110040168D01*
X104841500Y-110060423D01*
X104839949Y-110080133D01*
X104836780Y-110100142D01*
X104840941Y-110144161D01*
X104841500Y-110156019D01*
X104841500Y-111837400D01*
X104821498Y-111905521D01*
X104767842Y-111952014D01*
X104697568Y-111962118D01*
X104674588Y-111956573D01*
X104596955Y-111929921D01*
X104596948Y-111929919D01*
X104491953Y-111912399D01*
X104366712Y-111891500D01*
X104133288Y-111891500D01*
X104038610Y-111907299D01*
X103903051Y-111929919D01*
X103903044Y-111929921D01*
X103682276Y-112005711D01*
X103682273Y-112005713D01*
X103503744Y-112102328D01*
X103476985Y-112116809D01*
X103476982Y-112116810D01*
X103412479Y-112167016D01*
X103346436Y-112193072D01*
X103276791Y-112179287D01*
X103225655Y-112130036D01*
X103209262Y-112060958D01*
X103209778Y-112054414D01*
X103213544Y-112018578D01*
X103224704Y-111912400D01*
X103204742Y-111722472D01*
X103145727Y-111540844D01*
X103050240Y-111375456D01*
X103050238Y-111375454D01*
X103050234Y-111375448D01*
X102922455Y-111233535D01*
X102767952Y-111121282D01*
X102593488Y-111043606D01*
X102406687Y-111003900D01*
X102215713Y-111003900D01*
X102028911Y-111043606D01*
X101854447Y-111121282D01*
X101699944Y-111233535D01*
X101572165Y-111375448D01*
X101572158Y-111375458D01*
X101476676Y-111540838D01*
X101476673Y-111540845D01*
X101417657Y-111722472D01*
X101397696Y-111912400D01*
X101417657Y-112102327D01*
X101440240Y-112171828D01*
X101476673Y-112283956D01*
X101572160Y-112449344D01*
X101645337Y-112530615D01*
X101676053Y-112594620D01*
X101677700Y-112614924D01*
X101677700Y-117389299D01*
X101675951Y-117405141D01*
X101676244Y-117405169D01*
X101675498Y-117413060D01*
X101677638Y-117481137D01*
X101677700Y-117485096D01*
X101677700Y-117513004D01*
X101677701Y-117513022D01*
X101678207Y-117517030D01*
X101679137Y-117528849D01*
X101680526Y-117573041D01*
X101680527Y-117573046D01*
X101686177Y-117592492D01*
X101690186Y-117611850D01*
X101692725Y-117631946D01*
X101692726Y-117631953D01*
X101709000Y-117673056D01*
X101712844Y-117684282D01*
X101725182Y-117726746D01*
X101735494Y-117744184D01*
X101744188Y-117761932D01*
X101751644Y-117780762D01*
X101751650Y-117780773D01*
X101777632Y-117816534D01*
X101784149Y-117826454D01*
X101806658Y-117864515D01*
X101806659Y-117864516D01*
X101806661Y-117864519D01*
X101820979Y-117878837D01*
X101833817Y-117893867D01*
X101845726Y-117910257D01*
X101845730Y-117910262D01*
X101879798Y-117938445D01*
X101888578Y-117946435D01*
X102047126Y-118104983D01*
X102081152Y-118167295D01*
X102076087Y-118238110D01*
X102033540Y-118294946D01*
X101973823Y-118319084D01*
X101879033Y-118331058D01*
X101879025Y-118331059D01*
X101879025Y-118331060D01*
X101851657Y-118338087D01*
X101573301Y-118409556D01*
X101279821Y-118525753D01*
X101003218Y-118677817D01*
X100747861Y-118863345D01*
X100747860Y-118863345D01*
X100517763Y-119079421D01*
X100316563Y-119322630D01*
X100308384Y-119335519D01*
X100254994Y-119382317D01*
X100184779Y-119392821D01*
X100120031Y-119363696D01*
X100081308Y-119304190D01*
X100076000Y-119268003D01*
X100076000Y-107831996D01*
X100096002Y-107763875D01*
X100149658Y-107717382D01*
X100219932Y-107707278D01*
X100284512Y-107736772D01*
X100308386Y-107764483D01*
X100316564Y-107777371D01*
X100517763Y-108020578D01*
X100517766Y-108020580D01*
X100517767Y-108020582D01*
X100747860Y-108236654D01*
X101003221Y-108422184D01*
X101279821Y-108574247D01*
X101573298Y-108690443D01*
X101879025Y-108768940D01*
X101879033Y-108768941D01*
X101879032Y-108768941D01*
X102043129Y-108789670D01*
X102192179Y-108808500D01*
X102192183Y-108808500D01*
X102507817Y-108808500D01*
X102507821Y-108808500D01*
X102820975Y-108768940D01*
X103126702Y-108690443D01*
X103420179Y-108574247D01*
X103696779Y-108422184D01*
X103952140Y-108236654D01*
X104182233Y-108020582D01*
X104383432Y-107777375D01*
X104383434Y-107777370D01*
X104383437Y-107777368D01*
X104525762Y-107553099D01*
X104552562Y-107510869D01*
X104686956Y-107225266D01*
X104784495Y-106925072D01*
X104843641Y-106615020D01*
X104850536Y-106505430D01*
X104863460Y-106300006D01*
X108636540Y-106300006D01*
X108656357Y-106615007D01*
X108656359Y-106615024D01*
X108715504Y-106925067D01*
X108715507Y-106925080D01*
X108813039Y-107225254D01*
X108813044Y-107225266D01*
X108947438Y-107510869D01*
X108947440Y-107510872D01*
X108947443Y-107510878D01*
X109116562Y-107777368D01*
X109317763Y-108020578D01*
X109317766Y-108020580D01*
X109317767Y-108020582D01*
X109547860Y-108236654D01*
X109803221Y-108422184D01*
X110079821Y-108574247D01*
X110373298Y-108690443D01*
X110679025Y-108768940D01*
X110679033Y-108768941D01*
X110679032Y-108768941D01*
X110843129Y-108789670D01*
X110992179Y-108808500D01*
X110992183Y-108808500D01*
X111307817Y-108808500D01*
X111307821Y-108808500D01*
X111620975Y-108768940D01*
X111926702Y-108690443D01*
X112220179Y-108574247D01*
X112496779Y-108422184D01*
X112752140Y-108236654D01*
X112982233Y-108020582D01*
X113183432Y-107777375D01*
X113183434Y-107777370D01*
X113183437Y-107777368D01*
X113325762Y-107553099D01*
X113352562Y-107510869D01*
X113486956Y-107225266D01*
X113584495Y-106925072D01*
X113643641Y-106615020D01*
X113650536Y-106505430D01*
X113663460Y-106300006D01*
X113663460Y-106299993D01*
X113643642Y-105984992D01*
X113643640Y-105984975D01*
X113610166Y-105809500D01*
X113584495Y-105674928D01*
X113488310Y-105378900D01*
X113486960Y-105374745D01*
X113486955Y-105374732D01*
X113419878Y-105232186D01*
X113352562Y-105089131D01*
X113352556Y-105089121D01*
X113183437Y-104822631D01*
X112982236Y-104579421D01*
X112752139Y-104363345D01*
X112496781Y-104177817D01*
X112454385Y-104154509D01*
X112220179Y-104025753D01*
X111926702Y-103909557D01*
X111620975Y-103831060D01*
X111620970Y-103831059D01*
X111620965Y-103831058D01*
X111620967Y-103831058D01*
X111307835Y-103791501D01*
X111307824Y-103791500D01*
X111307821Y-103791500D01*
X110992179Y-103791500D01*
X110992176Y-103791500D01*
X110992164Y-103791501D01*
X110679033Y-103831058D01*
X110373301Y-103909556D01*
X110079821Y-104025753D01*
X109803218Y-104177817D01*
X109547861Y-104363345D01*
X109547860Y-104363345D01*
X109317763Y-104579421D01*
X109116562Y-104822631D01*
X108947443Y-105089121D01*
X108947436Y-105089135D01*
X108813044Y-105374732D01*
X108813039Y-105374745D01*
X108715507Y-105674919D01*
X108715504Y-105674932D01*
X108656359Y-105984975D01*
X108656357Y-105984992D01*
X108636540Y-106299993D01*
X108636540Y-106300006D01*
X104863460Y-106300006D01*
X104863460Y-106299993D01*
X104843642Y-105984992D01*
X104843640Y-105984975D01*
X104810166Y-105809500D01*
X104784495Y-105674928D01*
X104688310Y-105378900D01*
X104686960Y-105374745D01*
X104686955Y-105374732D01*
X104619878Y-105232186D01*
X104552562Y-105089131D01*
X104552556Y-105089121D01*
X104383437Y-104822631D01*
X104182236Y-104579421D01*
X103952139Y-104363345D01*
X103696781Y-104177817D01*
X103654385Y-104154509D01*
X103420179Y-104025753D01*
X103126702Y-103909557D01*
X102820975Y-103831060D01*
X102820970Y-103831059D01*
X102820965Y-103831058D01*
X102820967Y-103831058D01*
X102507835Y-103791501D01*
X102507824Y-103791500D01*
X102507821Y-103791500D01*
X102192179Y-103791500D01*
X102192176Y-103791500D01*
X102192164Y-103791501D01*
X101879033Y-103831058D01*
X101573301Y-103909556D01*
X101279821Y-104025753D01*
X101003218Y-104177817D01*
X100747861Y-104363345D01*
X100747860Y-104363345D01*
X100517763Y-104579421D01*
X100316563Y-104822630D01*
X100308384Y-104835519D01*
X100254994Y-104882317D01*
X100184779Y-104892821D01*
X100120031Y-104863696D01*
X100081308Y-104804190D01*
X100076000Y-104768003D01*
X100076000Y-100202000D01*
X100096002Y-100133879D01*
X100149658Y-100087386D01*
X100202000Y-100076000D01*
X151766000Y-100076000D01*
X151834121Y-100096002D01*
G37*
%TD.AperFunction*%
%TA.AperFunction,Conductor*%
G36*
X117693950Y-131944952D02*
G01*
X117696824Y-131947737D01*
X119759122Y-134010035D01*
X119793148Y-134072347D01*
X119788083Y-134143162D01*
X119745536Y-134199998D01*
X119742298Y-134202343D01*
X119551703Y-134335799D01*
X119551697Y-134335804D01*
X119389804Y-134497697D01*
X119389799Y-134497703D01*
X119258477Y-134685250D01*
X119161717Y-134892753D01*
X119161715Y-134892759D01*
X119114899Y-135067478D01*
X119102457Y-135113913D01*
X119082502Y-135342000D01*
X119102457Y-135570087D01*
X119106690Y-135585883D01*
X119161715Y-135791240D01*
X119161717Y-135791246D01*
X119258477Y-135998749D01*
X119376664Y-136167538D01*
X119389802Y-136186300D01*
X119551700Y-136348198D01*
X119739251Y-136479523D01*
X119946757Y-136576284D01*
X120167913Y-136635543D01*
X120396000Y-136655498D01*
X120624087Y-136635543D01*
X120687541Y-136618540D01*
X120758516Y-136620228D01*
X120809247Y-136651151D01*
X120850595Y-136692499D01*
X120884621Y-136754811D01*
X120887500Y-136781594D01*
X120887500Y-137083349D01*
X120867498Y-137151470D01*
X120813842Y-137197963D01*
X120743568Y-137208067D01*
X120728889Y-137205056D01*
X120624000Y-137176951D01*
X120624004Y-137176951D01*
X120396000Y-137157004D01*
X120167997Y-137176951D01*
X119946931Y-137236186D01*
X119946926Y-137236188D01*
X119739500Y-137332913D01*
X119668109Y-137382899D01*
X120356483Y-138071272D01*
X120270852Y-138084835D01*
X120157955Y-138142359D01*
X120068359Y-138231955D01*
X120010835Y-138344852D01*
X119997272Y-138430481D01*
X119308900Y-137742109D01*
X119258913Y-137813500D01*
X119162188Y-138020926D01*
X119162186Y-138020931D01*
X119102951Y-138241997D01*
X119083004Y-138470000D01*
X119102951Y-138698002D01*
X119162186Y-138919068D01*
X119162188Y-138919073D01*
X119258913Y-139126501D01*
X119308899Y-139197888D01*
X119997272Y-138509516D01*
X120010835Y-138595148D01*
X120068359Y-138708045D01*
X120157955Y-138797641D01*
X120270852Y-138855165D01*
X120356480Y-138868726D01*
X119668110Y-139557097D01*
X119668110Y-139557100D01*
X119739498Y-139607086D01*
X119946926Y-139703811D01*
X119946931Y-139703813D01*
X120167999Y-139763048D01*
X120167995Y-139763048D01*
X120396000Y-139782995D01*
X120624004Y-139763048D01*
X120624008Y-139763047D01*
X120728888Y-139734944D01*
X120799864Y-139736633D01*
X120858660Y-139776426D01*
X120886609Y-139841690D01*
X120887500Y-139856650D01*
X120887500Y-140300137D01*
X120885751Y-140315979D01*
X120886044Y-140316007D01*
X120885298Y-140323898D01*
X120885298Y-140323900D01*
X120885708Y-140336929D01*
X120887438Y-140391975D01*
X120887500Y-140395934D01*
X120887500Y-140423842D01*
X120887501Y-140423860D01*
X120888007Y-140427868D01*
X120888937Y-140439687D01*
X120890326Y-140483879D01*
X120890327Y-140483884D01*
X120895977Y-140503330D01*
X120899986Y-140522688D01*
X120902525Y-140542784D01*
X120902526Y-140542791D01*
X120918800Y-140583894D01*
X120922644Y-140595120D01*
X120934982Y-140637584D01*
X120945294Y-140655022D01*
X120953988Y-140672770D01*
X120961444Y-140691600D01*
X120961450Y-140691611D01*
X120987432Y-140727372D01*
X120993949Y-140737292D01*
X121016458Y-140775353D01*
X121016459Y-140775354D01*
X121016461Y-140775357D01*
X121030779Y-140789675D01*
X121043617Y-140804705D01*
X121055526Y-140821095D01*
X121055530Y-140821100D01*
X121089598Y-140849283D01*
X121098378Y-140857273D01*
X124502764Y-144261660D01*
X124512729Y-144274097D01*
X124512956Y-144273910D01*
X124518008Y-144280017D01*
X124567658Y-144326641D01*
X124570502Y-144329398D01*
X124590232Y-144349129D01*
X124590233Y-144349130D01*
X124590237Y-144349133D01*
X124590239Y-144349135D01*
X124593444Y-144351621D01*
X124602451Y-144359314D01*
X124634688Y-144389586D01*
X124652437Y-144399343D01*
X124668962Y-144410198D01*
X124684968Y-144422614D01*
X124725551Y-144440175D01*
X124736202Y-144445393D01*
X124774949Y-144466695D01*
X124774957Y-144466697D01*
X124794567Y-144471732D01*
X124813276Y-144478137D01*
X124831864Y-144486181D01*
X124875539Y-144493098D01*
X124887150Y-144495502D01*
X124929979Y-144506500D01*
X124950233Y-144506500D01*
X124969943Y-144508051D01*
X124972150Y-144508400D01*
X124989952Y-144511220D01*
X125033970Y-144507058D01*
X125045828Y-144506500D01*
X125225304Y-144506500D01*
X125293425Y-144526502D01*
X125339918Y-144580158D01*
X125350022Y-144650432D01*
X125320528Y-144715012D01*
X125260802Y-144753396D01*
X125249166Y-144756121D01*
X125026759Y-144815715D01*
X125026753Y-144815717D01*
X124819250Y-144912477D01*
X124631703Y-145043799D01*
X124631697Y-145043804D01*
X124469804Y-145205697D01*
X124469799Y-145205703D01*
X124338477Y-145393250D01*
X124241717Y-145600753D01*
X124241715Y-145600759D01*
X124193674Y-145780050D01*
X124182457Y-145821913D01*
X124162502Y-146050000D01*
X124182457Y-146278087D01*
X124206130Y-146366434D01*
X124241715Y-146499240D01*
X124241717Y-146499246D01*
X124338477Y-146706749D01*
X124435849Y-146845811D01*
X124469802Y-146894300D01*
X124631700Y-147056198D01*
X124819251Y-147187523D01*
X125026757Y-147284284D01*
X125247913Y-147343543D01*
X125476000Y-147363498D01*
X125704087Y-147343543D01*
X125925243Y-147284284D01*
X126132749Y-147187523D01*
X126320300Y-147056198D01*
X126482198Y-146894300D01*
X126613523Y-146706749D01*
X126710284Y-146499243D01*
X126769543Y-146278087D01*
X126789498Y-146050000D01*
X126769543Y-145821913D01*
X126752540Y-145758458D01*
X126754229Y-145687483D01*
X126785149Y-145636754D01*
X127896660Y-144525243D01*
X127909098Y-144515280D01*
X127908910Y-144515053D01*
X127915015Y-144510001D01*
X127915018Y-144510000D01*
X127920137Y-144504549D01*
X127926648Y-144497616D01*
X127987859Y-144461648D01*
X128058799Y-144464484D01*
X128116944Y-144505223D01*
X128143834Y-144570931D01*
X128144500Y-144583866D01*
X128144500Y-151796138D01*
X128124498Y-151864259D01*
X128070842Y-151910752D01*
X128000568Y-151920856D01*
X127935988Y-151891362D01*
X127913017Y-151865054D01*
X127861312Y-151785914D01*
X127703225Y-151614186D01*
X127703221Y-151614182D01*
X127611118Y-151542496D01*
X127519017Y-151470810D01*
X127313727Y-151359713D01*
X127313724Y-151359712D01*
X127313723Y-151359711D01*
X127092955Y-151283921D01*
X127092948Y-151283919D01*
X126994411Y-151267476D01*
X126862712Y-151245500D01*
X126629288Y-151245500D01*
X126514066Y-151264727D01*
X126399051Y-151283919D01*
X126399044Y-151283921D01*
X126178276Y-151359711D01*
X126178273Y-151359713D01*
X125972985Y-151470809D01*
X125972983Y-151470810D01*
X125788778Y-151614182D01*
X125788774Y-151614186D01*
X125630685Y-151785916D01*
X125503015Y-151981331D01*
X125409252Y-152195089D01*
X125409249Y-152195096D01*
X125351950Y-152421366D01*
X125351949Y-152421372D01*
X125351949Y-152421374D01*
X125332673Y-152654000D01*
X125346495Y-152820809D01*
X125351950Y-152886633D01*
X125409249Y-153112903D01*
X125409252Y-153112910D01*
X125503015Y-153326668D01*
X125630685Y-153522083D01*
X125788774Y-153693813D01*
X125788778Y-153693817D01*
X125790311Y-153695010D01*
X125972983Y-153837190D01*
X126178273Y-153948287D01*
X126399049Y-154024080D01*
X126629288Y-154062500D01*
X126629292Y-154062500D01*
X126862714Y-154062500D01*
X126922333Y-154052551D01*
X126992816Y-154061067D01*
X127047507Y-154106338D01*
X127069040Y-154173991D01*
X127050579Y-154242545D01*
X127032168Y-154265927D01*
X126880498Y-154417596D01*
X126818189Y-154451620D01*
X126791405Y-154454500D01*
X114951500Y-154454500D01*
X114883379Y-154434498D01*
X114836886Y-154380842D01*
X114825500Y-154328500D01*
X114825500Y-154289367D01*
X114825499Y-154289350D01*
X114818990Y-154228803D01*
X114818988Y-154228795D01*
X114767889Y-154091797D01*
X114767887Y-154091792D01*
X114680261Y-153974738D01*
X114563207Y-153887112D01*
X114563202Y-153887110D01*
X114426204Y-153836011D01*
X114426196Y-153836009D01*
X114365649Y-153829500D01*
X114365638Y-153829500D01*
X113281500Y-153829500D01*
X113213379Y-153809498D01*
X113166886Y-153755842D01*
X113155500Y-153703500D01*
X113155500Y-150252594D01*
X113175502Y-150184473D01*
X113192405Y-150163499D01*
X114003904Y-149352000D01*
X124162502Y-149352000D01*
X124182457Y-149580086D01*
X124241715Y-149801240D01*
X124241717Y-149801246D01*
X124338477Y-150008749D01*
X124467642Y-150193216D01*
X124469802Y-150196300D01*
X124631700Y-150358198D01*
X124819251Y-150489523D01*
X125026757Y-150586284D01*
X125247913Y-150645543D01*
X125476000Y-150665498D01*
X125704087Y-150645543D01*
X125925243Y-150586284D01*
X126132749Y-150489523D01*
X126320300Y-150358198D01*
X126482198Y-150196300D01*
X126613523Y-150008749D01*
X126710284Y-149801243D01*
X126769543Y-149580087D01*
X126789498Y-149352000D01*
X126769543Y-149123913D01*
X126710284Y-148902757D01*
X126613523Y-148695251D01*
X126482198Y-148507700D01*
X126320300Y-148345802D01*
X126316238Y-148342958D01*
X126132749Y-148214477D01*
X125925246Y-148117717D01*
X125925240Y-148117715D01*
X125831771Y-148092670D01*
X125704087Y-148058457D01*
X125476000Y-148038502D01*
X125247913Y-148058457D01*
X125026759Y-148117715D01*
X125026753Y-148117717D01*
X124819250Y-148214477D01*
X124631703Y-148345799D01*
X124631697Y-148345804D01*
X124469804Y-148507697D01*
X124469799Y-148507703D01*
X124338477Y-148695250D01*
X124241717Y-148902753D01*
X124241715Y-148902759D01*
X124182457Y-149123913D01*
X124162502Y-149352000D01*
X114003904Y-149352000D01*
X115645500Y-147710405D01*
X115707812Y-147676379D01*
X115734595Y-147673500D01*
X116552120Y-147673500D01*
X116552127Y-147673500D01*
X116723087Y-147658543D01*
X116944243Y-147599284D01*
X117151749Y-147502523D01*
X117339300Y-147371198D01*
X117501198Y-147209300D01*
X117632523Y-147021749D01*
X117729284Y-146814243D01*
X117788543Y-146593087D01*
X117808498Y-146365000D01*
X117788543Y-146136913D01*
X117729284Y-145915757D01*
X117632523Y-145708251D01*
X117501198Y-145520700D01*
X117339300Y-145358802D01*
X117151749Y-145227477D01*
X117112543Y-145209195D01*
X117059258Y-145162279D01*
X117039796Y-145094002D01*
X117060337Y-145026042D01*
X117112543Y-144980805D01*
X117114997Y-144979660D01*
X117151749Y-144962523D01*
X117339300Y-144831198D01*
X117501198Y-144669300D01*
X117632523Y-144481749D01*
X117729284Y-144274243D01*
X117788543Y-144053087D01*
X117808498Y-143825000D01*
X117788543Y-143596913D01*
X117754537Y-143470000D01*
X119082502Y-143470000D01*
X119102457Y-143698087D01*
X119115265Y-143745886D01*
X119161715Y-143919240D01*
X119161717Y-143919246D01*
X119258477Y-144126749D01*
X119361751Y-144274240D01*
X119389802Y-144314300D01*
X119551700Y-144476198D01*
X119739251Y-144607523D01*
X119946757Y-144704284D01*
X120167913Y-144763543D01*
X120396000Y-144783498D01*
X120624087Y-144763543D01*
X120845243Y-144704284D01*
X121052749Y-144607523D01*
X121240300Y-144476198D01*
X121402198Y-144314300D01*
X121533523Y-144126749D01*
X121630284Y-143919243D01*
X121689543Y-143698087D01*
X121709498Y-143470000D01*
X121689543Y-143241913D01*
X121630284Y-143020757D01*
X121533523Y-142813251D01*
X121402198Y-142625700D01*
X121240300Y-142463802D01*
X121052749Y-142332477D01*
X120964230Y-142291200D01*
X120845246Y-142235717D01*
X120845240Y-142235715D01*
X120697940Y-142196246D01*
X120624087Y-142176457D01*
X120396000Y-142156502D01*
X120167913Y-142176457D01*
X119946759Y-142235715D01*
X119946753Y-142235717D01*
X119739250Y-142332477D01*
X119551703Y-142463799D01*
X119551697Y-142463804D01*
X119389804Y-142625697D01*
X119389799Y-142625703D01*
X119258477Y-142813250D01*
X119161717Y-143020753D01*
X119161715Y-143020759D01*
X119103120Y-143239439D01*
X119102457Y-143241913D01*
X119082502Y-143470000D01*
X117754537Y-143470000D01*
X117729284Y-143375757D01*
X117632523Y-143168251D01*
X117501198Y-142980700D01*
X117339300Y-142818802D01*
X117331372Y-142813251D01*
X117245604Y-142753195D01*
X117151749Y-142687477D01*
X117112543Y-142669195D01*
X117059258Y-142622279D01*
X117039796Y-142554002D01*
X117060337Y-142486042D01*
X117112543Y-142440805D01*
X117114997Y-142439660D01*
X117151749Y-142422523D01*
X117339300Y-142291198D01*
X117501198Y-142129300D01*
X117632523Y-141941749D01*
X117729284Y-141734243D01*
X117788543Y-141513087D01*
X117808498Y-141285000D01*
X117788543Y-141056913D01*
X117729284Y-140835757D01*
X117632523Y-140628251D01*
X117501198Y-140440700D01*
X117339300Y-140278802D01*
X117242610Y-140211099D01*
X117151749Y-140147477D01*
X117111951Y-140128919D01*
X117058666Y-140082002D01*
X117039205Y-140013725D01*
X117059747Y-139945765D01*
X117111951Y-139900529D01*
X117151498Y-139882087D01*
X117338974Y-139750815D01*
X117338980Y-139750810D01*
X117500810Y-139588980D01*
X117500815Y-139588974D01*
X117632087Y-139401498D01*
X117728811Y-139194073D01*
X117728813Y-139194068D01*
X117781082Y-138999000D01*
X116406686Y-138999000D01*
X116422641Y-138983045D01*
X116480165Y-138870148D01*
X116499986Y-138745000D01*
X116480165Y-138619852D01*
X116422641Y-138506955D01*
X116406686Y-138491000D01*
X117781082Y-138491000D01*
X117728813Y-138295931D01*
X117728811Y-138295926D01*
X117632087Y-138088501D01*
X117500815Y-137901025D01*
X117500810Y-137901019D01*
X117338980Y-137739189D01*
X117338974Y-137739184D01*
X117151497Y-137607911D01*
X117111949Y-137589469D01*
X117058665Y-137542551D01*
X117039205Y-137474273D01*
X117059748Y-137406314D01*
X117111950Y-137361081D01*
X117151749Y-137342523D01*
X117339300Y-137211198D01*
X117501198Y-137049300D01*
X117632523Y-136861749D01*
X117729284Y-136654243D01*
X117788543Y-136433087D01*
X117808498Y-136205000D01*
X117788543Y-135976913D01*
X117729284Y-135755757D01*
X117632523Y-135548251D01*
X117501198Y-135360700D01*
X117339300Y-135198802D01*
X117151749Y-135067477D01*
X117112543Y-135049195D01*
X117059258Y-135002279D01*
X117039796Y-134934002D01*
X117060337Y-134866042D01*
X117112543Y-134820805D01*
X117124387Y-134815282D01*
X117151749Y-134802523D01*
X117339300Y-134671198D01*
X117501198Y-134509300D01*
X117632523Y-134321749D01*
X117729284Y-134114243D01*
X117788543Y-133893087D01*
X117808498Y-133665000D01*
X117788543Y-133436913D01*
X117729284Y-133215757D01*
X117632523Y-133008251D01*
X117501198Y-132820700D01*
X117339300Y-132658802D01*
X117151749Y-132527477D01*
X117112543Y-132509195D01*
X117059258Y-132462279D01*
X117039796Y-132394002D01*
X117060337Y-132326042D01*
X117112543Y-132280805D01*
X117114997Y-132279660D01*
X117151749Y-132262523D01*
X117339300Y-132131198D01*
X117501198Y-131969300D01*
X117502795Y-131967018D01*
X117504514Y-131964565D01*
X117559969Y-131920234D01*
X117630589Y-131912923D01*
X117693950Y-131944952D01*
G37*
%TD.AperFunction*%
%TA.AperFunction,Conductor*%
G36*
X150151482Y-146221386D02*
G01*
X150713595Y-146783499D01*
X150747621Y-146845811D01*
X150750500Y-146872594D01*
X150750500Y-150141026D01*
X150730498Y-150209147D01*
X150713595Y-150230121D01*
X147603121Y-153340595D01*
X147540809Y-153374621D01*
X147514026Y-153377500D01*
X146449994Y-153377500D01*
X146381873Y-153357498D01*
X146335380Y-153303842D01*
X146325276Y-153233568D01*
X146354770Y-153168988D01*
X146360884Y-153162419D01*
X146692661Y-152830642D01*
X146705092Y-152820685D01*
X146704905Y-152820458D01*
X146711016Y-152815402D01*
X146711015Y-152815402D01*
X146711018Y-152815401D01*
X146757676Y-152765713D01*
X146760367Y-152762936D01*
X146780134Y-152743171D01*
X146782617Y-152739968D01*
X146790308Y-152730963D01*
X146820586Y-152698722D01*
X146830345Y-152680968D01*
X146841197Y-152664447D01*
X146853613Y-152648442D01*
X146871168Y-152607871D01*
X146876392Y-152597209D01*
X146897694Y-152558462D01*
X146897695Y-152558461D01*
X146902733Y-152538836D01*
X146909138Y-152520131D01*
X146917181Y-152501546D01*
X146924096Y-152457877D01*
X146926503Y-152446257D01*
X146932893Y-152421374D01*
X146937500Y-152403431D01*
X146937500Y-152383170D01*
X146939051Y-152363459D01*
X146942219Y-152343458D01*
X146938059Y-152299446D01*
X146937500Y-152287589D01*
X146937500Y-150517162D01*
X146957502Y-150449041D01*
X147011158Y-150402548D01*
X147081432Y-150392444D01*
X147135771Y-150413949D01*
X147264501Y-150504087D01*
X147471926Y-150600811D01*
X147471931Y-150600813D01*
X147692999Y-150660048D01*
X147692995Y-150660048D01*
X147863901Y-150675000D01*
X148067000Y-150675000D01*
X148067000Y-149678686D01*
X148082955Y-149694641D01*
X148195852Y-149752165D01*
X148289519Y-149767000D01*
X148352481Y-149767000D01*
X148446148Y-149752165D01*
X148559045Y-149694641D01*
X148575000Y-149678686D01*
X148575000Y-150675000D01*
X148778099Y-150675000D01*
X148949002Y-150660048D01*
X149170068Y-150600813D01*
X149170073Y-150600811D01*
X149377498Y-150504087D01*
X149564974Y-150372815D01*
X149564980Y-150372810D01*
X149726810Y-150210980D01*
X149726815Y-150210974D01*
X149858087Y-150023498D01*
X149954811Y-149816073D01*
X149954813Y-149816068D01*
X150007082Y-149621000D01*
X148632686Y-149621000D01*
X148648641Y-149605045D01*
X148706165Y-149492148D01*
X148725986Y-149367000D01*
X148706165Y-149241852D01*
X148648641Y-149128955D01*
X148632686Y-149113000D01*
X150007082Y-149113000D01*
X149954813Y-148917931D01*
X149954811Y-148917926D01*
X149858087Y-148710501D01*
X149726815Y-148523025D01*
X149726810Y-148523019D01*
X149564980Y-148361189D01*
X149564974Y-148361184D01*
X149377498Y-148229912D01*
X149337359Y-148211195D01*
X149284074Y-148164278D01*
X149264613Y-148096001D01*
X149285155Y-148028041D01*
X149337359Y-147982805D01*
X149377498Y-147964087D01*
X149564974Y-147832815D01*
X149564980Y-147832810D01*
X149726810Y-147670980D01*
X149726815Y-147670974D01*
X149858087Y-147483498D01*
X149954811Y-147276073D01*
X149954813Y-147276068D01*
X150007082Y-147081000D01*
X148632686Y-147081000D01*
X148648641Y-147065045D01*
X148706165Y-146952148D01*
X148725986Y-146827000D01*
X148706165Y-146701852D01*
X148648641Y-146588955D01*
X148632686Y-146573000D01*
X150007082Y-146573000D01*
X149954813Y-146377931D01*
X149954811Y-146377926D01*
X149948193Y-146363733D01*
X149937531Y-146293541D01*
X149966510Y-146228728D01*
X150025929Y-146189871D01*
X150096923Y-146189307D01*
X150151482Y-146221386D01*
G37*
%TD.AperFunction*%
%TA.AperFunction,Conductor*%
G36*
X140955000Y-149055314D02*
G01*
X140939045Y-149039359D01*
X140826148Y-148981835D01*
X140732481Y-148967000D01*
X140669519Y-148967000D01*
X140575852Y-148981835D01*
X140462955Y-149039359D01*
X140447000Y-149055314D01*
X140447000Y-147138686D01*
X140462955Y-147154641D01*
X140575852Y-147212165D01*
X140669519Y-147227000D01*
X140732481Y-147227000D01*
X140826148Y-147212165D01*
X140939045Y-147154641D01*
X140955000Y-147138686D01*
X140955000Y-149055314D01*
G37*
%TD.AperFunction*%
%TA.AperFunction,Conductor*%
G36*
X148575000Y-149055314D02*
G01*
X148559045Y-149039359D01*
X148446148Y-148981835D01*
X148352481Y-148967000D01*
X148289519Y-148967000D01*
X148195852Y-148981835D01*
X148082955Y-149039359D01*
X148067000Y-149055314D01*
X148067000Y-147138686D01*
X148082955Y-147154641D01*
X148195852Y-147212165D01*
X148289519Y-147227000D01*
X148352481Y-147227000D01*
X148446148Y-147212165D01*
X148559045Y-147154641D01*
X148575000Y-147138686D01*
X148575000Y-149055314D01*
G37*
%TD.AperFunction*%
%TA.AperFunction,Conductor*%
G36*
X140955000Y-146515314D02*
G01*
X140939045Y-146499359D01*
X140826148Y-146441835D01*
X140732481Y-146427000D01*
X140669519Y-146427000D01*
X140575852Y-146441835D01*
X140462955Y-146499359D01*
X140447000Y-146515314D01*
X140447000Y-144598686D01*
X140462955Y-144614641D01*
X140575852Y-144672165D01*
X140669519Y-144687000D01*
X140732481Y-144687000D01*
X140826148Y-144672165D01*
X140939045Y-144614641D01*
X140955000Y-144598686D01*
X140955000Y-146515314D01*
G37*
%TD.AperFunction*%
%TD*%
M02*
