%TF.GenerationSoftware,KiCad,Pcbnew,7.0.11+dfsg-1build4*%
%TF.CreationDate,2026-04-12T22:53:45-04:00*%
%TF.ProjectId,ocd,6f63642e-6b69-4636-9164-5f7063625858,rev?*%
%TF.SameCoordinates,Original*%
%TF.FileFunction,Copper,L2,Bot*%
%TF.FilePolarity,Positive*%
%FSLAX46Y46*%
G04 Gerber Fmt 4.6, Leading zero omitted, Abs format (unit mm)*
G04 Created by KiCad (PCBNEW 7.0.11+dfsg-1build4) date 2026-04-12 22:53:45*
%MOMM*%
%LPD*%
G01*
G04 APERTURE LIST*
%TA.AperFunction,ComponentPad*%
%ADD10C,1.600000*%
%TD*%
%TA.AperFunction,ComponentPad*%
%ADD11R,1.800000X1.800000*%
%TD*%
%TA.AperFunction,ComponentPad*%
%ADD12C,1.800000*%
%TD*%
%TA.AperFunction,ComponentPad*%
%ADD13O,1.600000X1.600000*%
%TD*%
%TA.AperFunction,ComponentPad*%
%ADD14O,2.000000X3.000000*%
%TD*%
%TA.AperFunction,ComponentPad*%
%ADD15C,2.340000*%
%TD*%
%TA.AperFunction,ComponentPad*%
%ADD16R,1.600000X1.600000*%
%TD*%
%TA.AperFunction,ComponentPad*%
%ADD17R,1.050000X1.500000*%
%TD*%
%TA.AperFunction,ComponentPad*%
%ADD18O,1.050000X1.500000*%
%TD*%
%TA.AperFunction,ComponentPad*%
%ADD19R,1.700000X1.700000*%
%TD*%
%TA.AperFunction,ComponentPad*%
%ADD20O,1.700000X1.700000*%
%TD*%
%TA.AperFunction,ComponentPad*%
%ADD21R,1.500000X1.500000*%
%TD*%
%TA.AperFunction,ComponentPad*%
%ADD22O,1.500000X1.500000*%
%TD*%
%TA.AperFunction,ViaPad*%
%ADD23C,0.800000*%
%TD*%
%TA.AperFunction,Conductor*%
%ADD24C,0.250000*%
%TD*%
G04 APERTURE END LIST*
D10*
%TO.P,C3,1*%
%TO.N,Net-(C3-Pad1)*%
X53750000Y-72800000D03*
%TO.P,C3,2*%
%TO.N,Net-(U1A--)*%
X58750000Y-72800000D03*
%TD*%
D11*
%TO.P,D2,1,K*%
%TO.N,Net-(D1-A)*%
X57625000Y-56100000D03*
D12*
%TO.P,D2,2,A*%
%TO.N,VB*%
X60165000Y-56100000D03*
%TD*%
D10*
%TO.P,C5,1*%
%TO.N,Net-(C5-Pad1)*%
X65050000Y-74550000D03*
%TO.P,C5,2*%
%TO.N,Net-(U1B--)*%
X70050000Y-74550000D03*
%TD*%
%TO.P,R12,1*%
%TO.N,GND*%
X98540000Y-56550000D03*
D13*
%TO.P,R12,2*%
%TO.N,VB*%
X106160000Y-56550000D03*
%TD*%
D10*
%TO.P,R9,1*%
%TO.N,Net-(C5-Pad1)*%
X63790000Y-71600000D03*
D13*
%TO.P,R9,2*%
%TO.N,Net-(U1B--)*%
X71410000Y-71600000D03*
%TD*%
D14*
%TO.P,SW1,1,A*%
%TO.N,Net-(D1-A)*%
X64664500Y-57000000D03*
%TO.P,SW1,2,B*%
%TO.N,Net-(SW1-B)*%
X69300000Y-57000000D03*
%TO.P,SW1,3,C*%
%TO.N,Net-(D3-A)*%
X73935500Y-57000000D03*
%TD*%
D15*
%TO.P,RV1,1,1*%
%TO.N,Net-(R4-Pad2)*%
X104000000Y-51450000D03*
%TO.P,RV1,2,2*%
%TO.N,Net-(U1A--)*%
X99000000Y-51450000D03*
%TO.P,RV1,3,3*%
%TO.N,unconnected-(RV1-Pad3)*%
X94000000Y-51450000D03*
%TD*%
D11*
%TO.P,D1,1,K*%
%TO.N,VB*%
X52210000Y-56150000D03*
D12*
%TO.P,D1,2,A*%
%TO.N,Net-(D1-A)*%
X54750000Y-56150000D03*
%TD*%
D10*
%TO.P,C9,1*%
%TO.N,GND*%
X104900000Y-64700000D03*
%TO.P,C9,2*%
%TO.N,Net-(U1C-V+)*%
X99900000Y-64700000D03*
%TD*%
D16*
%TO.P,C6,1*%
%TO.N,Net-(C5-Pad1)*%
X85400000Y-63800000D03*
D10*
%TO.P,C6,2*%
%TO.N,Net-(C6-Pad2)*%
X87400000Y-63800000D03*
%TD*%
%TO.P,C2,1*%
%TO.N,Net-(C2-Pad1)*%
X65050000Y-62600000D03*
%TO.P,C2,2*%
%TO.N,Net-(U1A--)*%
X70050000Y-62600000D03*
%TD*%
%TO.P,R10,1*%
%TO.N,Net-(C6-Pad2)*%
X86990000Y-69000000D03*
D13*
%TO.P,R10,2*%
%TO.N,Net-(SW2-B)*%
X94610000Y-69000000D03*
%TD*%
D10*
%TO.P,R11,1*%
%TO.N,Net-(C6-Pad2)*%
X86990000Y-72350000D03*
D13*
%TO.P,R11,2*%
%TO.N,Net-(SW2-A)*%
X94610000Y-72350000D03*
%TD*%
D17*
%TO.P,Q2,1,S*%
%TO.N,VB*%
X77710000Y-56550000D03*
D18*
%TO.P,Q2,2,G*%
%TO.N,Net-(D3-A)*%
X78980000Y-56550000D03*
%TO.P,Q2,3,D*%
X80250000Y-56550000D03*
%TD*%
D16*
%TO.P,C8,1*%
%TO.N,Net-(U1C-V+)*%
X104144900Y-70200000D03*
D10*
%TO.P,C8,2*%
%TO.N,GND*%
X106144900Y-70200000D03*
%TD*%
D15*
%TO.P,RV2,1,1*%
%TO.N,Net-(C7-Pad1)*%
X84050000Y-51450000D03*
%TO.P,RV2,2,2*%
%TO.N,GND*%
X79050000Y-51450000D03*
%TO.P,RV2,3,3*%
X74050000Y-51450000D03*
%TD*%
D16*
%TO.P,C10,1*%
%TO.N,VB*%
X98950000Y-72850000D03*
D10*
%TO.P,C10,2*%
%TO.N,GND*%
X100950000Y-72850000D03*
%TD*%
D17*
%TO.P,Q1,1,S*%
%TO.N,Net-(D3-K)*%
X77730000Y-61660000D03*
D18*
%TO.P,Q1,2,G*%
%TO.N,VB*%
X79000000Y-61660000D03*
%TO.P,Q1,3,D*%
X80270000Y-61660000D03*
%TD*%
D10*
%TO.P,R6,1*%
%TO.N,Net-(C2-Pad1)*%
X52390000Y-63350000D03*
D13*
%TO.P,R6,2*%
%TO.N,Net-(SW1-B)*%
X60010000Y-63350000D03*
%TD*%
D10*
%TO.P,R3,1*%
%TO.N,VB*%
X52290000Y-78600000D03*
D13*
%TO.P,R3,2*%
%TO.N,Net-(U1A-+)*%
X59910000Y-78600000D03*
%TD*%
D19*
%TO.P,J1,1,Pin_1*%
%TO.N,9v*%
X98120000Y-80100000D03*
D20*
%TO.P,J1,2,Pin_2*%
%TO.N,out*%
X100660000Y-80100000D03*
%TO.P,J1,3,Pin_3*%
%TO.N,in*%
X103200000Y-80100000D03*
%TO.P,J1,4,Pin_4*%
%TO.N,GND*%
X105740000Y-80100000D03*
%TD*%
D10*
%TO.P,C7,1*%
%TO.N,Net-(C7-Pad1)*%
X90550000Y-62500000D03*
%TO.P,C7,2*%
%TO.N,Net-(SW2-B)*%
X95550000Y-62500000D03*
%TD*%
%TO.P,R7,1*%
%TO.N,Net-(SW1-B)*%
X52340000Y-60100000D03*
D13*
%TO.P,R7,2*%
%TO.N,Net-(U1B-+)*%
X59960000Y-60100000D03*
%TD*%
D10*
%TO.P,C1,1*%
%TO.N,in*%
X53750000Y-75600000D03*
%TO.P,C1,2*%
%TO.N,Net-(C1-Pad2)*%
X58750000Y-75600000D03*
%TD*%
D15*
%TO.P,RV3,1,1*%
%TO.N,GND*%
X64000000Y-51350000D03*
%TO.P,RV3,2,2*%
%TO.N,out*%
X59000000Y-51350000D03*
%TO.P,RV3,3,3*%
%TO.N,Net-(SW2-B)*%
X54000000Y-51350000D03*
%TD*%
D10*
%TO.P,R13,1*%
%TO.N,VB*%
X98540000Y-59900000D03*
D13*
%TO.P,R13,2*%
%TO.N,Net-(U1C-V+)*%
X106160000Y-59900000D03*
%TD*%
D10*
%TO.P,R4,1*%
%TO.N,Net-(C2-Pad1)*%
X52390000Y-66600000D03*
D13*
%TO.P,R4,2*%
%TO.N,Net-(R4-Pad2)*%
X60010000Y-66600000D03*
%TD*%
D10*
%TO.P,R5,1*%
%TO.N,Net-(C3-Pad1)*%
X52440000Y-69800000D03*
D13*
%TO.P,R5,2*%
%TO.N,GND*%
X60060000Y-69800000D03*
%TD*%
D14*
%TO.P,SW2,1,A*%
%TO.N,Net-(SW2-A)*%
X83914500Y-57100000D03*
%TO.P,SW2,2,B*%
%TO.N,Net-(SW2-B)*%
X88550000Y-57100000D03*
%TO.P,SW2,3,C*%
X93185500Y-57100000D03*
%TD*%
D10*
%TO.P,R8,1*%
%TO.N,Net-(C4-Pad1)*%
X63740000Y-68350000D03*
D13*
%TO.P,R8,2*%
%TO.N,GND*%
X71360000Y-68350000D03*
%TD*%
D10*
%TO.P,R1,1*%
%TO.N,in*%
X74940000Y-79400000D03*
D13*
%TO.P,R1,2*%
%TO.N,GND*%
X82560000Y-79400000D03*
%TD*%
D21*
%TO.P,D3,1,K*%
%TO.N,Net-(D3-K)*%
X74885000Y-65100000D03*
D22*
%TO.P,D3,2,A*%
%TO.N,Net-(D3-A)*%
X82505000Y-65100000D03*
%TD*%
D10*
%TO.P,C4,1*%
%TO.N,Net-(C4-Pad1)*%
X65000000Y-65400000D03*
%TO.P,C4,2*%
%TO.N,Net-(U1B--)*%
X70000000Y-65400000D03*
%TD*%
D16*
%TO.P,U1,1*%
%TO.N,Net-(C2-Pad1)*%
X74950000Y-68150000D03*
D13*
%TO.P,U1,2,-*%
%TO.N,Net-(U1A--)*%
X74950000Y-70690000D03*
%TO.P,U1,3,+*%
%TO.N,Net-(U1A-+)*%
X74950000Y-73230000D03*
%TO.P,U1,4,V-*%
%TO.N,GND*%
X74950000Y-75770000D03*
%TO.P,U1,5,+*%
%TO.N,Net-(U1B-+)*%
X82570000Y-75770000D03*
%TO.P,U1,6,-*%
%TO.N,Net-(U1B--)*%
X82570000Y-73230000D03*
%TO.P,U1,7*%
%TO.N,Net-(C5-Pad1)*%
X82570000Y-70690000D03*
%TO.P,U1,8,V+*%
%TO.N,Net-(U1C-V+)*%
X82570000Y-68150000D03*
%TD*%
D10*
%TO.P,R14,1*%
%TO.N,Net-(U1C-V+)*%
X86990000Y-75700000D03*
D13*
%TO.P,R14,2*%
%TO.N,9v*%
X94610000Y-75700000D03*
%TD*%
D10*
%TO.P,R2,1*%
%TO.N,Net-(C1-Pad2)*%
X63640000Y-77600000D03*
D13*
%TO.P,R2,2*%
%TO.N,Net-(U1A-+)*%
X71260000Y-77600000D03*
%TD*%
D10*
%TO.P,C11,1*%
%TO.N,VB*%
X90500000Y-65450000D03*
%TO.P,C11,2*%
%TO.N,Net-(D3-A)*%
X95500000Y-65450000D03*
%TD*%
D23*
%TO.N,out*%
X93294300Y-53599300D03*
%TD*%
D24*
%TO.N,Net-(C2-Pad1)*%
X52390000Y-63350000D02*
X52390000Y-66600000D01*
%TO.N,Net-(U1A--)*%
X74245600Y-69563100D02*
X73823100Y-69140600D01*
X74950000Y-69563100D02*
X74245600Y-69563100D01*
X73823100Y-69140600D02*
X73823100Y-66373100D01*
X74950000Y-70690000D02*
X74950000Y-69563100D01*
X73823100Y-66373100D02*
X70050000Y-62600000D01*
%TO.N,Net-(C3-Pad1)*%
X53750000Y-71110000D02*
X53750000Y-72800000D01*
X52440000Y-69800000D02*
X53750000Y-71110000D01*
%TO.N,Net-(C4-Pad1)*%
X63740000Y-66660000D02*
X63740000Y-68350000D01*
X65000000Y-65400000D02*
X63740000Y-66660000D01*
%TO.N,Net-(U1B--)*%
X71410000Y-73190000D02*
X71410000Y-71600000D01*
X70000000Y-65400000D02*
X70000000Y-69063100D01*
X70000000Y-69063100D02*
X71410000Y-70473100D01*
X70050000Y-74550000D02*
X71410000Y-73190000D01*
X71410000Y-71600000D02*
X71410000Y-70473100D01*
%TO.N,Net-(C5-Pad1)*%
X82568700Y-66557200D02*
X82642800Y-66557200D01*
X65050000Y-74550000D02*
X63790000Y-73290000D01*
X85400000Y-63800000D02*
X84273100Y-63800000D01*
X82642800Y-66557200D02*
X84273100Y-64926900D01*
X82570000Y-70137800D02*
X81412800Y-68980600D01*
X82570000Y-70690000D02*
X82570000Y-70137800D01*
X84273100Y-64926900D02*
X84273100Y-63800000D01*
X81412800Y-68980600D02*
X81412800Y-67713100D01*
X63790000Y-73290000D02*
X63790000Y-71600000D01*
X81412800Y-67713100D02*
X82568700Y-66557200D01*
%TO.N,Net-(C6-Pad2)*%
X86990000Y-72350000D02*
X86990000Y-69000000D01*
X87400000Y-63800000D02*
X87400000Y-68590000D01*
X87400000Y-68590000D02*
X86990000Y-69000000D01*
%TO.N,Net-(C7-Pad1)*%
X86232300Y-53632300D02*
X86232300Y-58182300D01*
X86232300Y-58182300D02*
X90550000Y-62500000D01*
X84050000Y-51450000D02*
X86232300Y-53632300D01*
%TO.N,Net-(SW2-B)*%
X94333600Y-67596700D02*
X94333600Y-63716400D01*
X88550000Y-57100000D02*
X93185500Y-57100000D01*
X95550000Y-58137600D02*
X94512400Y-57100000D01*
X93185500Y-57100000D02*
X94512400Y-57100000D01*
X94610000Y-67873100D02*
X94333600Y-67596700D01*
X95550000Y-62500000D02*
X95550000Y-58137600D01*
X94610000Y-69000000D02*
X94610000Y-67873100D01*
X94333600Y-63716400D02*
X95550000Y-62500000D01*
%TO.N,Net-(U1C-V+)*%
X99900000Y-65391600D02*
X99900000Y-64700000D01*
X106160000Y-67058000D02*
X106160000Y-59900000D01*
X83946600Y-70420000D02*
X82803500Y-69276900D01*
X83946600Y-72656600D02*
X83946600Y-70420000D01*
X86990000Y-75700000D02*
X83946600Y-72656600D01*
X82570000Y-68150000D02*
X82570000Y-69276900D01*
X104144900Y-70200000D02*
X104144900Y-69636500D01*
X82803500Y-69276900D02*
X82570000Y-69276900D01*
X104144900Y-69073100D02*
X106160000Y-67058000D01*
X104144900Y-69636500D02*
X99900000Y-65391600D01*
X104144900Y-69636500D02*
X104144900Y-69073100D01*
%TO.N,VB*%
X51182400Y-58404500D02*
X52210000Y-57376900D01*
X52210000Y-56150000D02*
X52210000Y-57376900D01*
X98540000Y-71313100D02*
X98950000Y-71723100D01*
X51182400Y-77492400D02*
X51182400Y-58404500D01*
X77710000Y-56550000D02*
X77710000Y-58188800D01*
X52290000Y-78600000D02*
X51182400Y-77492400D01*
X98540000Y-59900000D02*
X98540000Y-71313100D01*
X98950000Y-72850000D02*
X98950000Y-71723100D01*
X79000000Y-59478800D02*
X79000000Y-61660000D01*
X77710000Y-58188800D02*
X79000000Y-59478800D01*
%TO.N,Net-(D3-A)*%
X82505000Y-57953100D02*
X82505000Y-65100000D01*
X81101900Y-56550000D02*
X82505000Y-57953100D01*
X80250000Y-56550000D02*
X81101900Y-56550000D01*
%TO.N,9v*%
X98120000Y-80100000D02*
X96943100Y-80100000D01*
X96943100Y-79160000D02*
X96943100Y-80100000D01*
X94610000Y-76826900D02*
X96943100Y-79160000D01*
X94610000Y-75700000D02*
X94610000Y-76826900D01*
%TO.N,out*%
X97000500Y-57305500D02*
X93294300Y-53599300D01*
X100660000Y-80100000D02*
X100660000Y-78923100D01*
X100660000Y-78923100D02*
X97000500Y-75263600D01*
X97000500Y-75263600D02*
X97000500Y-57305500D01*
%TO.N,Net-(U1A-+)*%
X71260000Y-76473100D02*
X73823100Y-73910000D01*
X74950000Y-73230000D02*
X73823100Y-73230000D01*
X71260000Y-77600000D02*
X71260000Y-76473100D01*
X73823100Y-73910000D02*
X73823100Y-73230000D01*
%TO.N,Net-(U1B-+)*%
X81155400Y-73462000D02*
X82336500Y-74643100D01*
X82336500Y-74643100D02*
X82570000Y-74643100D01*
X82570000Y-75770000D02*
X82570000Y-74643100D01*
X81155400Y-69388000D02*
X81155400Y-73462000D01*
X71867400Y-60100000D02*
X81155400Y-69388000D01*
X59960000Y-60100000D02*
X71867400Y-60100000D01*
%TO.N,Net-(SW2-A)*%
X83914500Y-57100000D02*
X85241400Y-57100000D01*
X94610000Y-72350000D02*
X94610000Y-71223100D01*
X88783900Y-65397000D02*
X88783900Y-61969400D01*
X94610000Y-71223100D02*
X88783900Y-65397000D01*
X85241400Y-58426900D02*
X85241400Y-57100000D01*
X88783900Y-61969400D02*
X85241400Y-58426900D01*
%TD*%
%TA.AperFunction,Conductor*%
%TO.N,GND*%
G36*
X107693226Y-48919685D02*
G01*
X107738981Y-48972489D01*
X107750186Y-49023811D01*
X107767903Y-60769819D01*
X107799812Y-81925597D01*
X107780228Y-81992666D01*
X107727494Y-82038501D01*
X107675597Y-82049784D01*
X50324536Y-81950216D01*
X50257531Y-81930415D01*
X50211867Y-81877532D01*
X50200753Y-81825468D01*
X50300902Y-65275943D01*
X50320992Y-65209025D01*
X50374072Y-65163590D01*
X50443289Y-65154065D01*
X50506668Y-65183474D01*
X50544086Y-65242480D01*
X50548900Y-65276694D01*
X50548900Y-77408766D01*
X50547161Y-77424513D01*
X50547432Y-77424539D01*
X50546698Y-77432305D01*
X50548839Y-77500416D01*
X50548900Y-77504312D01*
X50548900Y-77532259D01*
X50549418Y-77536358D01*
X50550334Y-77547998D01*
X50551726Y-77592289D01*
X50551727Y-77592291D01*
X50557422Y-77611895D01*
X50561367Y-77630942D01*
X50563926Y-77651197D01*
X50563927Y-77651200D01*
X50563928Y-77651204D01*
X50580238Y-77692400D01*
X50584021Y-77703449D01*
X50596381Y-77745992D01*
X50606772Y-77763562D01*
X50615332Y-77781035D01*
X50622847Y-77800017D01*
X50648891Y-77835863D01*
X50655305Y-77845627D01*
X50677858Y-77883762D01*
X50677862Y-77883766D01*
X50692289Y-77898193D01*
X50704926Y-77912988D01*
X50716928Y-77929507D01*
X50749607Y-77956542D01*
X50751068Y-77957750D01*
X50759709Y-77965613D01*
X50981664Y-78187568D01*
X51015149Y-78248891D01*
X51013758Y-78307341D01*
X50996459Y-78371904D01*
X50996456Y-78371918D01*
X50976502Y-78599998D01*
X50976502Y-78600001D01*
X50996456Y-78828081D01*
X50996457Y-78828089D01*
X51055714Y-79049238D01*
X51055718Y-79049249D01*
X51139500Y-79228920D01*
X51152477Y-79256749D01*
X51283802Y-79444300D01*
X51445700Y-79606198D01*
X51633251Y-79737523D01*
X51735420Y-79785165D01*
X51840750Y-79834281D01*
X51840752Y-79834281D01*
X51840757Y-79834284D01*
X52061913Y-79893543D01*
X52224832Y-79907796D01*
X52289998Y-79913498D01*
X52290000Y-79913498D01*
X52290002Y-79913498D01*
X52347021Y-79908509D01*
X52518087Y-79893543D01*
X52739243Y-79834284D01*
X52946749Y-79737523D01*
X53134300Y-79606198D01*
X53296198Y-79444300D01*
X53427523Y-79256749D01*
X53524284Y-79049243D01*
X53583543Y-78828087D01*
X53603498Y-78600001D01*
X58596502Y-78600001D01*
X58616456Y-78828081D01*
X58616457Y-78828089D01*
X58675714Y-79049238D01*
X58675718Y-79049249D01*
X58759500Y-79228920D01*
X58772477Y-79256749D01*
X58903802Y-79444300D01*
X59065700Y-79606198D01*
X59253251Y-79737523D01*
X59355420Y-79785165D01*
X59460750Y-79834281D01*
X59460752Y-79834281D01*
X59460757Y-79834284D01*
X59681913Y-79893543D01*
X59844832Y-79907796D01*
X59909998Y-79913498D01*
X59910000Y-79913498D01*
X59910002Y-79913498D01*
X59967021Y-79908509D01*
X60138087Y-79893543D01*
X60359243Y-79834284D01*
X60566749Y-79737523D01*
X60754300Y-79606198D01*
X60916198Y-79444300D01*
X60947217Y-79400001D01*
X73626502Y-79400001D01*
X73646456Y-79628081D01*
X73646457Y-79628089D01*
X73705714Y-79849238D01*
X73705718Y-79849249D01*
X73726373Y-79893543D01*
X73802477Y-80056749D01*
X73933802Y-80244300D01*
X74095700Y-80406198D01*
X74283251Y-80537523D01*
X74359204Y-80572940D01*
X74490750Y-80634281D01*
X74490752Y-80634281D01*
X74490757Y-80634284D01*
X74711913Y-80693543D01*
X74868962Y-80707283D01*
X74939998Y-80713498D01*
X74940000Y-80713498D01*
X74940002Y-80713498D01*
X74997021Y-80708509D01*
X75168087Y-80693543D01*
X75389243Y-80634284D01*
X75596749Y-80537523D01*
X75784300Y-80406198D01*
X75946198Y-80244300D01*
X76077523Y-80056749D01*
X76174284Y-79849243D01*
X76233543Y-79628087D01*
X76252916Y-79406650D01*
X76253498Y-79400001D01*
X76253498Y-79399998D01*
X76241489Y-79262734D01*
X76233543Y-79171913D01*
X76227671Y-79149999D01*
X81281127Y-79149999D01*
X81281128Y-79150000D01*
X82244314Y-79150000D01*
X82232359Y-79161955D01*
X82174835Y-79274852D01*
X82155014Y-79400000D01*
X82174835Y-79525148D01*
X82232359Y-79638045D01*
X82244314Y-79650000D01*
X81281128Y-79650000D01*
X81333730Y-79846317D01*
X81333734Y-79846326D01*
X81429865Y-80052482D01*
X81560342Y-80238820D01*
X81721179Y-80399657D01*
X81907517Y-80530134D01*
X82113673Y-80626265D01*
X82113682Y-80626269D01*
X82309999Y-80678872D01*
X82310000Y-80678871D01*
X82310000Y-79715686D01*
X82321955Y-79727641D01*
X82434852Y-79785165D01*
X82528519Y-79800000D01*
X82591481Y-79800000D01*
X82685148Y-79785165D01*
X82798045Y-79727641D01*
X82810000Y-79715686D01*
X82810000Y-80678872D01*
X83006317Y-80626269D01*
X83006326Y-80626265D01*
X83212482Y-80530134D01*
X83398820Y-80399657D01*
X83559657Y-80238820D01*
X83690134Y-80052482D01*
X83786265Y-79846326D01*
X83786269Y-79846317D01*
X83838872Y-79650000D01*
X82875686Y-79650000D01*
X82887641Y-79638045D01*
X82945165Y-79525148D01*
X82964986Y-79400000D01*
X82945165Y-79274852D01*
X82887641Y-79161955D01*
X82875686Y-79150000D01*
X83838872Y-79150000D01*
X83838872Y-79149999D01*
X83786269Y-78953682D01*
X83786265Y-78953673D01*
X83690134Y-78747517D01*
X83559657Y-78561179D01*
X83398820Y-78400342D01*
X83212482Y-78269865D01*
X83006328Y-78173734D01*
X82810000Y-78121127D01*
X82810000Y-79084314D01*
X82798045Y-79072359D01*
X82685148Y-79014835D01*
X82591481Y-79000000D01*
X82528519Y-79000000D01*
X82434852Y-79014835D01*
X82321955Y-79072359D01*
X82310000Y-79084314D01*
X82310000Y-78121127D01*
X82113671Y-78173734D01*
X81907517Y-78269865D01*
X81721179Y-78400342D01*
X81560342Y-78561179D01*
X81429865Y-78747517D01*
X81333734Y-78953673D01*
X81333730Y-78953682D01*
X81281127Y-79149999D01*
X76227671Y-79149999D01*
X76174284Y-78950757D01*
X76077523Y-78743251D01*
X75946198Y-78555700D01*
X75784300Y-78393802D01*
X75596749Y-78262477D01*
X75596745Y-78262475D01*
X75389249Y-78165718D01*
X75389238Y-78165714D01*
X75168089Y-78106457D01*
X75168081Y-78106456D01*
X74940002Y-78086502D01*
X74939998Y-78086502D01*
X74711918Y-78106456D01*
X74711910Y-78106457D01*
X74490761Y-78165714D01*
X74490750Y-78165718D01*
X74283254Y-78262475D01*
X74283252Y-78262476D01*
X74283251Y-78262477D01*
X74095700Y-78393802D01*
X74095698Y-78393803D01*
X74095695Y-78393806D01*
X73933806Y-78555695D01*
X73933803Y-78555698D01*
X73933802Y-78555700D01*
X73878656Y-78634456D01*
X73802476Y-78743252D01*
X73802475Y-78743254D01*
X73705718Y-78950750D01*
X73705714Y-78950761D01*
X73646457Y-79171910D01*
X73646456Y-79171918D01*
X73626502Y-79399998D01*
X73626502Y-79400001D01*
X60947217Y-79400001D01*
X61047523Y-79256749D01*
X61144284Y-79049243D01*
X61203543Y-78828087D01*
X61223498Y-78600000D01*
X61203543Y-78371913D01*
X61144284Y-78150757D01*
X61130467Y-78121127D01*
X61096950Y-78049249D01*
X61047523Y-77943251D01*
X60916198Y-77755700D01*
X60760499Y-77600001D01*
X62326502Y-77600001D01*
X62346456Y-77828081D01*
X62346457Y-77828089D01*
X62405714Y-78049238D01*
X62405718Y-78049249D01*
X62493823Y-78238191D01*
X62502477Y-78256749D01*
X62633802Y-78444300D01*
X62795700Y-78606198D01*
X62983251Y-78737523D01*
X63051535Y-78769364D01*
X63190750Y-78834281D01*
X63190752Y-78834281D01*
X63190757Y-78834284D01*
X63411913Y-78893543D01*
X63574832Y-78907796D01*
X63639998Y-78913498D01*
X63640000Y-78913498D01*
X63640002Y-78913498D01*
X63697021Y-78908509D01*
X63868087Y-78893543D01*
X64089243Y-78834284D01*
X64296749Y-78737523D01*
X64484300Y-78606198D01*
X64646198Y-78444300D01*
X64777523Y-78256749D01*
X64874284Y-78049243D01*
X64933543Y-77828087D01*
X64953498Y-77600000D01*
X64952823Y-77592289D01*
X64944955Y-77502357D01*
X64933543Y-77371913D01*
X64874284Y-77150757D01*
X64777523Y-76943251D01*
X64646198Y-76755700D01*
X64484300Y-76593802D01*
X64296749Y-76462477D01*
X64293335Y-76460885D01*
X64089249Y-76365718D01*
X64089238Y-76365714D01*
X63868089Y-76306457D01*
X63868081Y-76306456D01*
X63640002Y-76286502D01*
X63639998Y-76286502D01*
X63411918Y-76306456D01*
X63411910Y-76306457D01*
X63190761Y-76365714D01*
X63190750Y-76365718D01*
X62983254Y-76462475D01*
X62983252Y-76462476D01*
X62983251Y-76462477D01*
X62795700Y-76593802D01*
X62795698Y-76593803D01*
X62795695Y-76593806D01*
X62633806Y-76755695D01*
X62633803Y-76755698D01*
X62633802Y-76755700D01*
X62589782Y-76818567D01*
X62502476Y-76943252D01*
X62502475Y-76943254D01*
X62405718Y-77150750D01*
X62405714Y-77150761D01*
X62346457Y-77371910D01*
X62346456Y-77371918D01*
X62326502Y-77599998D01*
X62326502Y-77600001D01*
X60760499Y-77600001D01*
X60754300Y-77593802D01*
X60566749Y-77462477D01*
X60566745Y-77462475D01*
X60359249Y-77365718D01*
X60359238Y-77365714D01*
X60138089Y-77306457D01*
X60138081Y-77306456D01*
X59910002Y-77286502D01*
X59909998Y-77286502D01*
X59681918Y-77306456D01*
X59681910Y-77306457D01*
X59460761Y-77365714D01*
X59460750Y-77365718D01*
X59253254Y-77462475D01*
X59253252Y-77462476D01*
X59253251Y-77462477D01*
X59065700Y-77593802D01*
X59065698Y-77593803D01*
X59065695Y-77593806D01*
X58903806Y-77755695D01*
X58903803Y-77755698D01*
X58903802Y-77755700D01*
X58872771Y-77800017D01*
X58772476Y-77943252D01*
X58772475Y-77943254D01*
X58675718Y-78150750D01*
X58675714Y-78150761D01*
X58616457Y-78371910D01*
X58616456Y-78371918D01*
X58596502Y-78599998D01*
X58596502Y-78600001D01*
X53603498Y-78600001D01*
X53603498Y-78600000D01*
X53583543Y-78371913D01*
X53524284Y-78150757D01*
X53510467Y-78121127D01*
X53476950Y-78049249D01*
X53427523Y-77943251D01*
X53296198Y-77755700D01*
X53134300Y-77593802D01*
X52946749Y-77462477D01*
X52946745Y-77462475D01*
X52739249Y-77365718D01*
X52739238Y-77365714D01*
X52518089Y-77306457D01*
X52518081Y-77306456D01*
X52290002Y-77286502D01*
X52289998Y-77286502D01*
X52061918Y-77306456D01*
X52061907Y-77306458D01*
X51997343Y-77323758D01*
X51927493Y-77322095D01*
X51877569Y-77291664D01*
X51852219Y-77266314D01*
X51818734Y-77204991D01*
X51815900Y-77178633D01*
X51815900Y-71147387D01*
X51835585Y-71080348D01*
X51888389Y-71034593D01*
X51957547Y-71024649D01*
X51985479Y-71032973D01*
X51985676Y-71032434D01*
X51990752Y-71034281D01*
X51990757Y-71034284D01*
X52211913Y-71093543D01*
X52374832Y-71107796D01*
X52439998Y-71113498D01*
X52440000Y-71113498D01*
X52440002Y-71113498D01*
X52471614Y-71110732D01*
X52668087Y-71093543D01*
X52722839Y-71078872D01*
X52732654Y-71076242D01*
X52802504Y-71077903D01*
X52852430Y-71108335D01*
X53080181Y-71336085D01*
X53113666Y-71397408D01*
X53116500Y-71423766D01*
X53116500Y-71581647D01*
X53096815Y-71648686D01*
X53063624Y-71683221D01*
X52905699Y-71793802D01*
X52743806Y-71955695D01*
X52743803Y-71955698D01*
X52743802Y-71955700D01*
X52678306Y-72049238D01*
X52612476Y-72143252D01*
X52612475Y-72143254D01*
X52515718Y-72350750D01*
X52515714Y-72350761D01*
X52456457Y-72571910D01*
X52456456Y-72571918D01*
X52436502Y-72799998D01*
X52436502Y-72800001D01*
X52456456Y-73028081D01*
X52456457Y-73028089D01*
X52515714Y-73249238D01*
X52515718Y-73249249D01*
X52608769Y-73448797D01*
X52612477Y-73456749D01*
X52743802Y-73644300D01*
X52905700Y-73806198D01*
X53093251Y-73937523D01*
X53218091Y-73995736D01*
X53300750Y-74034281D01*
X53300752Y-74034281D01*
X53300757Y-74034284D01*
X53300761Y-74034285D01*
X53472210Y-74080225D01*
X53531870Y-74116590D01*
X53562399Y-74179437D01*
X53554104Y-74248813D01*
X53509619Y-74302691D01*
X53472210Y-74319775D01*
X53300761Y-74365714D01*
X53300750Y-74365718D01*
X53093254Y-74462475D01*
X53093252Y-74462476D01*
X53062080Y-74484303D01*
X52905700Y-74593802D01*
X52905698Y-74593803D01*
X52905695Y-74593806D01*
X52743806Y-74755695D01*
X52743803Y-74755698D01*
X52743802Y-74755700D01*
X52728125Y-74778089D01*
X52612476Y-74943252D01*
X52612475Y-74943254D01*
X52515718Y-75150750D01*
X52515714Y-75150761D01*
X52456457Y-75371910D01*
X52456456Y-75371918D01*
X52436502Y-75599998D01*
X52436502Y-75600001D01*
X52456456Y-75828081D01*
X52456457Y-75828089D01*
X52515714Y-76049238D01*
X52515718Y-76049249D01*
X52603753Y-76238040D01*
X52612477Y-76256749D01*
X52743802Y-76444300D01*
X52905700Y-76606198D01*
X53093251Y-76737523D01*
X53218091Y-76795736D01*
X53300750Y-76834281D01*
X53300752Y-76834281D01*
X53300757Y-76834284D01*
X53521913Y-76893543D01*
X53681705Y-76907523D01*
X53749998Y-76913498D01*
X53750000Y-76913498D01*
X53750002Y-76913498D01*
X53818283Y-76907524D01*
X53978087Y-76893543D01*
X54199243Y-76834284D01*
X54406749Y-76737523D01*
X54594300Y-76606198D01*
X54756198Y-76444300D01*
X54887523Y-76256749D01*
X54984284Y-76049243D01*
X55043543Y-75828087D01*
X55063498Y-75600001D01*
X57436502Y-75600001D01*
X57456456Y-75828081D01*
X57456457Y-75828089D01*
X57515714Y-76049238D01*
X57515718Y-76049249D01*
X57603753Y-76238040D01*
X57612477Y-76256749D01*
X57743802Y-76444300D01*
X57905700Y-76606198D01*
X58093251Y-76737523D01*
X58218091Y-76795736D01*
X58300750Y-76834281D01*
X58300752Y-76834281D01*
X58300757Y-76834284D01*
X58521913Y-76893543D01*
X58681705Y-76907523D01*
X58749998Y-76913498D01*
X58750000Y-76913498D01*
X58750002Y-76913498D01*
X58818283Y-76907524D01*
X58978087Y-76893543D01*
X59199243Y-76834284D01*
X59406749Y-76737523D01*
X59594300Y-76606198D01*
X59756198Y-76444300D01*
X59887523Y-76256749D01*
X59984284Y-76049243D01*
X60043543Y-75828087D01*
X60063498Y-75600000D01*
X60058416Y-75541918D01*
X60052292Y-75471913D01*
X60043543Y-75371913D01*
X59984284Y-75150757D01*
X59887523Y-74943251D01*
X59756198Y-74755700D01*
X59594300Y-74593802D01*
X59406749Y-74462477D01*
X59406745Y-74462475D01*
X59199249Y-74365718D01*
X59199238Y-74365714D01*
X59080482Y-74333894D01*
X59027788Y-74319774D01*
X58968129Y-74283410D01*
X58937600Y-74220563D01*
X58945895Y-74151187D01*
X58990380Y-74097310D01*
X59027787Y-74080225D01*
X59199243Y-74034284D01*
X59406749Y-73937523D01*
X59594300Y-73806198D01*
X59756198Y-73644300D01*
X59887523Y-73456749D01*
X59984284Y-73249243D01*
X60043543Y-73028087D01*
X60063498Y-72800000D01*
X60063431Y-72799238D01*
X60052164Y-72670448D01*
X60043543Y-72571913D01*
X59984284Y-72350757D01*
X59983931Y-72350001D01*
X59912829Y-72197521D01*
X59887523Y-72143251D01*
X59756198Y-71955700D01*
X59594300Y-71793802D01*
X59406749Y-71662477D01*
X59385619Y-71652624D01*
X59272769Y-71600001D01*
X62476502Y-71600001D01*
X62496456Y-71828081D01*
X62496457Y-71828089D01*
X62555714Y-72049238D01*
X62555718Y-72049249D01*
X62652475Y-72256745D01*
X62652477Y-72256749D01*
X62783802Y-72444300D01*
X62945700Y-72606198D01*
X63103625Y-72716779D01*
X63147249Y-72771354D01*
X63156500Y-72818352D01*
X63156500Y-73206366D01*
X63154761Y-73222113D01*
X63155032Y-73222139D01*
X63154298Y-73229905D01*
X63154298Y-73229908D01*
X63154298Y-73229909D01*
X63154463Y-73235165D01*
X63156439Y-73298016D01*
X63156500Y-73301912D01*
X63156500Y-73329859D01*
X63157018Y-73333958D01*
X63157934Y-73345598D01*
X63159326Y-73389889D01*
X63159327Y-73389891D01*
X63165022Y-73409495D01*
X63168967Y-73428542D01*
X63171526Y-73448797D01*
X63171527Y-73448800D01*
X63171528Y-73448804D01*
X63187838Y-73490000D01*
X63191621Y-73501049D01*
X63203981Y-73543592D01*
X63214372Y-73561162D01*
X63222932Y-73578635D01*
X63230447Y-73597617D01*
X63256491Y-73633463D01*
X63262905Y-73643227D01*
X63280542Y-73673049D01*
X63285458Y-73681362D01*
X63285462Y-73681366D01*
X63299889Y-73695793D01*
X63312526Y-73710588D01*
X63324528Y-73727107D01*
X63352969Y-73750635D01*
X63358668Y-73755350D01*
X63367309Y-73763213D01*
X63741664Y-74137569D01*
X63775149Y-74198892D01*
X63773758Y-74257343D01*
X63756458Y-74321907D01*
X63756456Y-74321918D01*
X63736502Y-74549998D01*
X63736502Y-74550001D01*
X63756456Y-74778081D01*
X63756457Y-74778089D01*
X63815714Y-74999238D01*
X63815718Y-74999249D01*
X63907331Y-75195713D01*
X63912477Y-75206749D01*
X64043802Y-75394300D01*
X64205700Y-75556198D01*
X64393251Y-75687523D01*
X64518091Y-75745736D01*
X64600750Y-75784281D01*
X64600752Y-75784281D01*
X64600757Y-75784284D01*
X64821913Y-75843543D01*
X64984832Y-75857796D01*
X65049998Y-75863498D01*
X65050000Y-75863498D01*
X65050002Y-75863498D01*
X65107021Y-75858509D01*
X65278087Y-75843543D01*
X65499243Y-75784284D01*
X65706749Y-75687523D01*
X65894300Y-75556198D01*
X66056198Y-75394300D01*
X66187523Y-75206749D01*
X66284284Y-74999243D01*
X66343543Y-74778087D01*
X66362406Y-74562477D01*
X66363498Y-74550001D01*
X66363498Y-74549998D01*
X66352308Y-74422095D01*
X66343543Y-74321913D01*
X66284284Y-74100757D01*
X66187523Y-73893251D01*
X66056198Y-73705700D01*
X65894300Y-73543802D01*
X65706749Y-73412477D01*
X65700354Y-73409495D01*
X65499249Y-73315718D01*
X65499238Y-73315714D01*
X65278089Y-73256457D01*
X65278081Y-73256456D01*
X65050002Y-73236502D01*
X65049998Y-73236502D01*
X64821918Y-73256456D01*
X64821907Y-73256458D01*
X64757343Y-73273758D01*
X64687493Y-73272095D01*
X64637569Y-73241664D01*
X64459819Y-73063914D01*
X64426334Y-73002591D01*
X64423500Y-72976233D01*
X64423500Y-72818352D01*
X64443185Y-72751313D01*
X64476373Y-72716779D01*
X64634300Y-72606198D01*
X64796198Y-72444300D01*
X64927523Y-72256749D01*
X65024284Y-72049243D01*
X65083543Y-71828087D01*
X65102047Y-71616584D01*
X65103498Y-71600001D01*
X65103498Y-71599998D01*
X65092980Y-71479783D01*
X65083543Y-71371913D01*
X65024284Y-71150757D01*
X65004502Y-71108335D01*
X64970116Y-71034593D01*
X64927523Y-70943251D01*
X64796198Y-70755700D01*
X64634300Y-70593802D01*
X64446749Y-70462477D01*
X64446745Y-70462475D01*
X64239249Y-70365718D01*
X64239238Y-70365714D01*
X64018089Y-70306457D01*
X64018081Y-70306456D01*
X63790002Y-70286502D01*
X63789998Y-70286502D01*
X63561918Y-70306456D01*
X63561910Y-70306457D01*
X63340761Y-70365714D01*
X63340750Y-70365718D01*
X63133254Y-70462475D01*
X63133252Y-70462476D01*
X63078630Y-70500723D01*
X62945700Y-70593802D01*
X62945698Y-70593803D01*
X62945695Y-70593806D01*
X62783806Y-70755695D01*
X62783803Y-70755698D01*
X62783802Y-70755700D01*
X62730558Y-70831740D01*
X62652476Y-70943252D01*
X62652475Y-70943254D01*
X62555718Y-71150750D01*
X62555714Y-71150761D01*
X62496457Y-71371910D01*
X62496456Y-71371918D01*
X62476502Y-71599998D01*
X62476502Y-71600001D01*
X59272769Y-71600001D01*
X59199249Y-71565718D01*
X59199238Y-71565714D01*
X58978089Y-71506457D01*
X58978081Y-71506456D01*
X58750002Y-71486502D01*
X58749998Y-71486502D01*
X58521918Y-71506456D01*
X58521910Y-71506457D01*
X58300761Y-71565714D01*
X58300750Y-71565718D01*
X58093254Y-71662475D01*
X58093252Y-71662476D01*
X58044011Y-71696955D01*
X57905700Y-71793802D01*
X57905698Y-71793803D01*
X57905695Y-71793806D01*
X57743806Y-71955695D01*
X57743803Y-71955698D01*
X57743802Y-71955700D01*
X57678306Y-72049238D01*
X57612476Y-72143252D01*
X57612475Y-72143254D01*
X57515718Y-72350750D01*
X57515714Y-72350761D01*
X57456457Y-72571910D01*
X57456456Y-72571918D01*
X57436502Y-72799998D01*
X57436502Y-72800001D01*
X57456456Y-73028081D01*
X57456457Y-73028089D01*
X57515714Y-73249238D01*
X57515718Y-73249249D01*
X57608769Y-73448797D01*
X57612477Y-73456749D01*
X57743802Y-73644300D01*
X57905700Y-73806198D01*
X58093251Y-73937523D01*
X58218091Y-73995736D01*
X58300750Y-74034281D01*
X58300752Y-74034281D01*
X58300757Y-74034284D01*
X58300761Y-74034285D01*
X58472210Y-74080225D01*
X58531870Y-74116590D01*
X58562399Y-74179437D01*
X58554104Y-74248813D01*
X58509619Y-74302691D01*
X58472210Y-74319775D01*
X58300761Y-74365714D01*
X58300750Y-74365718D01*
X58093254Y-74462475D01*
X58093252Y-74462476D01*
X58062080Y-74484303D01*
X57905700Y-74593802D01*
X57905698Y-74593803D01*
X57905695Y-74593806D01*
X57743806Y-74755695D01*
X57743803Y-74755698D01*
X57743802Y-74755700D01*
X57728125Y-74778089D01*
X57612476Y-74943252D01*
X57612475Y-74943254D01*
X57515718Y-75150750D01*
X57515714Y-75150761D01*
X57456457Y-75371910D01*
X57456456Y-75371918D01*
X57436502Y-75599998D01*
X57436502Y-75600001D01*
X55063498Y-75600001D01*
X55063498Y-75600000D01*
X55058416Y-75541918D01*
X55052292Y-75471913D01*
X55043543Y-75371913D01*
X54984284Y-75150757D01*
X54887523Y-74943251D01*
X54756198Y-74755700D01*
X54594300Y-74593802D01*
X54406749Y-74462477D01*
X54406745Y-74462475D01*
X54199249Y-74365718D01*
X54199238Y-74365714D01*
X54080482Y-74333894D01*
X54027788Y-74319774D01*
X53968129Y-74283410D01*
X53937600Y-74220563D01*
X53945895Y-74151187D01*
X53990380Y-74097310D01*
X54027787Y-74080225D01*
X54199243Y-74034284D01*
X54406749Y-73937523D01*
X54594300Y-73806198D01*
X54756198Y-73644300D01*
X54887523Y-73456749D01*
X54984284Y-73249243D01*
X55043543Y-73028087D01*
X55063498Y-72800000D01*
X55063431Y-72799238D01*
X55052164Y-72670448D01*
X55043543Y-72571913D01*
X54984284Y-72350757D01*
X54983931Y-72350001D01*
X54912829Y-72197521D01*
X54887523Y-72143251D01*
X54756198Y-71955700D01*
X54594300Y-71793802D01*
X54436376Y-71683221D01*
X54392751Y-71628644D01*
X54383500Y-71581647D01*
X54383500Y-71193632D01*
X54385239Y-71177880D01*
X54384968Y-71177855D01*
X54385700Y-71170099D01*
X54385702Y-71170092D01*
X54383561Y-71101968D01*
X54383500Y-71098073D01*
X54383500Y-71070147D01*
X54383500Y-71070144D01*
X54382982Y-71066047D01*
X54382065Y-71054398D01*
X54381949Y-71050695D01*
X54380674Y-71010111D01*
X54374976Y-70990499D01*
X54371033Y-70971466D01*
X54368474Y-70951203D01*
X54352163Y-70910007D01*
X54348381Y-70898959D01*
X54336018Y-70856408D01*
X54336018Y-70856407D01*
X54325626Y-70838835D01*
X54317066Y-70821362D01*
X54309552Y-70802383D01*
X54283510Y-70766539D01*
X54277099Y-70756781D01*
X54275468Y-70754023D01*
X54254542Y-70718638D01*
X54240108Y-70704204D01*
X54227471Y-70689409D01*
X54215472Y-70672893D01*
X54215469Y-70672891D01*
X54215469Y-70672890D01*
X54181325Y-70644643D01*
X54172685Y-70636781D01*
X53748335Y-70212430D01*
X53714850Y-70151107D01*
X53716242Y-70092654D01*
X53730875Y-70038045D01*
X53733543Y-70028087D01*
X53753498Y-69800000D01*
X53749444Y-69753668D01*
X53742862Y-69678431D01*
X53733543Y-69571913D01*
X53727671Y-69549999D01*
X58781127Y-69549999D01*
X58781128Y-69550000D01*
X59744314Y-69550000D01*
X59732359Y-69561955D01*
X59674835Y-69674852D01*
X59655014Y-69800000D01*
X59674835Y-69925148D01*
X59732359Y-70038045D01*
X59744314Y-70050000D01*
X58781128Y-70050000D01*
X58833730Y-70246317D01*
X58833734Y-70246326D01*
X58929865Y-70452482D01*
X59060342Y-70638820D01*
X59221179Y-70799657D01*
X59407517Y-70930134D01*
X59613673Y-71026265D01*
X59613682Y-71026269D01*
X59809999Y-71078872D01*
X59810000Y-71078871D01*
X59810000Y-70115686D01*
X59821955Y-70127641D01*
X59934852Y-70185165D01*
X60028519Y-70200000D01*
X60091481Y-70200000D01*
X60185148Y-70185165D01*
X60298045Y-70127641D01*
X60310000Y-70115686D01*
X60310000Y-71078872D01*
X60506317Y-71026269D01*
X60506326Y-71026265D01*
X60712482Y-70930134D01*
X60898820Y-70799657D01*
X61059657Y-70638820D01*
X61190134Y-70452482D01*
X61286265Y-70246326D01*
X61286269Y-70246317D01*
X61338872Y-70050000D01*
X60375686Y-70050000D01*
X60387641Y-70038045D01*
X60445165Y-69925148D01*
X60464986Y-69800000D01*
X60445165Y-69674852D01*
X60387641Y-69561955D01*
X60375686Y-69550000D01*
X61338872Y-69550000D01*
X61338872Y-69549999D01*
X61286269Y-69353682D01*
X61286265Y-69353673D01*
X61190134Y-69147517D01*
X61059657Y-68961179D01*
X60898820Y-68800342D01*
X60712482Y-68669865D01*
X60506328Y-68573734D01*
X60310000Y-68521127D01*
X60310000Y-69484314D01*
X60298045Y-69472359D01*
X60185148Y-69414835D01*
X60091481Y-69400000D01*
X60028519Y-69400000D01*
X59934852Y-69414835D01*
X59821955Y-69472359D01*
X59810000Y-69484314D01*
X59810000Y-68521127D01*
X59613671Y-68573734D01*
X59407517Y-68669865D01*
X59221179Y-68800342D01*
X59060342Y-68961179D01*
X58929865Y-69147517D01*
X58833734Y-69353673D01*
X58833730Y-69353682D01*
X58781127Y-69549999D01*
X53727671Y-69549999D01*
X53674284Y-69350757D01*
X53666592Y-69334262D01*
X53622866Y-69240491D01*
X53577523Y-69143251D01*
X53446198Y-68955700D01*
X53284300Y-68793802D01*
X53096749Y-68662477D01*
X53064099Y-68647252D01*
X52889249Y-68565718D01*
X52889238Y-68565714D01*
X52668089Y-68506457D01*
X52668081Y-68506456D01*
X52440002Y-68486502D01*
X52439998Y-68486502D01*
X52211918Y-68506456D01*
X52211910Y-68506457D01*
X51990761Y-68565714D01*
X51985676Y-68567566D01*
X51985136Y-68566084D01*
X51923217Y-68575485D01*
X51859436Y-68546960D01*
X51821201Y-68488480D01*
X51815900Y-68452612D01*
X51815900Y-68350001D01*
X62426502Y-68350001D01*
X62446456Y-68578081D01*
X62446457Y-68578089D01*
X62505714Y-68799238D01*
X62505718Y-68799249D01*
X62599329Y-68999998D01*
X62602477Y-69006749D01*
X62733802Y-69194300D01*
X62895700Y-69356198D01*
X63083251Y-69487523D01*
X63178560Y-69531966D01*
X63290750Y-69584281D01*
X63290752Y-69584281D01*
X63290757Y-69584284D01*
X63511913Y-69643543D01*
X63674832Y-69657796D01*
X63739998Y-69663498D01*
X63740000Y-69663498D01*
X63740002Y-69663498D01*
X63797021Y-69658509D01*
X63968087Y-69643543D01*
X64189243Y-69584284D01*
X64396749Y-69487523D01*
X64584300Y-69356198D01*
X64746198Y-69194300D01*
X64877523Y-69006749D01*
X64974284Y-68799243D01*
X65033543Y-68578087D01*
X65053498Y-68350000D01*
X65052907Y-68343250D01*
X65047796Y-68284832D01*
X65033543Y-68121913D01*
X64974284Y-67900757D01*
X64971781Y-67895390D01*
X64906552Y-67755504D01*
X64877523Y-67693251D01*
X64746198Y-67505700D01*
X64584300Y-67343802D01*
X64567281Y-67331885D01*
X64426376Y-67233221D01*
X64382751Y-67178644D01*
X64373500Y-67131647D01*
X64373500Y-66973766D01*
X64393185Y-66906727D01*
X64409819Y-66886085D01*
X64492074Y-66803830D01*
X64587570Y-66708333D01*
X64648891Y-66674850D01*
X64707341Y-66676240D01*
X64771913Y-66693543D01*
X64934832Y-66707796D01*
X64999998Y-66713498D01*
X65000000Y-66713498D01*
X65000002Y-66713498D01*
X65059013Y-66708335D01*
X65228087Y-66693543D01*
X65449243Y-66634284D01*
X65656749Y-66537523D01*
X65844300Y-66406198D01*
X66006198Y-66244300D01*
X66137523Y-66056749D01*
X66234284Y-65849243D01*
X66293543Y-65628087D01*
X66310992Y-65428644D01*
X66313498Y-65400001D01*
X66313498Y-65399998D01*
X66302300Y-65272004D01*
X66293543Y-65171913D01*
X66234284Y-64950757D01*
X66233933Y-64950005D01*
X66175712Y-64825148D01*
X66137523Y-64743251D01*
X66006198Y-64555700D01*
X65844300Y-64393802D01*
X65656749Y-64262477D01*
X65631624Y-64250761D01*
X65449249Y-64165718D01*
X65449237Y-64165714D01*
X65302789Y-64126473D01*
X65243129Y-64090108D01*
X65212600Y-64027260D01*
X65220895Y-63957885D01*
X65265380Y-63904007D01*
X65302785Y-63886924D01*
X65499243Y-63834284D01*
X65706749Y-63737523D01*
X65894300Y-63606198D01*
X66056198Y-63444300D01*
X66187523Y-63256749D01*
X66284284Y-63049243D01*
X66343543Y-62828087D01*
X66363498Y-62600000D01*
X66343543Y-62371913D01*
X66284284Y-62150757D01*
X66187523Y-61943251D01*
X66056198Y-61755700D01*
X65894300Y-61593802D01*
X65706749Y-61462477D01*
X65706745Y-61462475D01*
X65499249Y-61365718D01*
X65499238Y-61365714D01*
X65278089Y-61306457D01*
X65278081Y-61306456D01*
X65050002Y-61286502D01*
X65049998Y-61286502D01*
X64821918Y-61306456D01*
X64821910Y-61306457D01*
X64600761Y-61365714D01*
X64600750Y-61365718D01*
X64393254Y-61462475D01*
X64393252Y-61462476D01*
X64374188Y-61475825D01*
X64205700Y-61593802D01*
X64205698Y-61593803D01*
X64205695Y-61593806D01*
X64043806Y-61755695D01*
X63912476Y-61943252D01*
X63912475Y-61943254D01*
X63815718Y-62150750D01*
X63815714Y-62150761D01*
X63756457Y-62371910D01*
X63756456Y-62371918D01*
X63736502Y-62599998D01*
X63736502Y-62600001D01*
X63756456Y-62828081D01*
X63756457Y-62828089D01*
X63815714Y-63049238D01*
X63815718Y-63049249D01*
X63903429Y-63237345D01*
X63912477Y-63256749D01*
X64043802Y-63444300D01*
X64205700Y-63606198D01*
X64393251Y-63737523D01*
X64441252Y-63759906D01*
X64600750Y-63834281D01*
X64600752Y-63834281D01*
X64600757Y-63834284D01*
X64747210Y-63873526D01*
X64806870Y-63909891D01*
X64837399Y-63972738D01*
X64829104Y-64042114D01*
X64784619Y-64095991D01*
X64747210Y-64113076D01*
X64550762Y-64165714D01*
X64550750Y-64165718D01*
X64343254Y-64262475D01*
X64343252Y-64262476D01*
X64306039Y-64288533D01*
X64155700Y-64393802D01*
X64155698Y-64393803D01*
X64155695Y-64393806D01*
X63993806Y-64555695D01*
X63993803Y-64555698D01*
X63993802Y-64555700D01*
X63915222Y-64667924D01*
X63862476Y-64743252D01*
X63862475Y-64743254D01*
X63765718Y-64950750D01*
X63765714Y-64950761D01*
X63706457Y-65171910D01*
X63706456Y-65171918D01*
X63686502Y-65399998D01*
X63686502Y-65400001D01*
X63706456Y-65628081D01*
X63706458Y-65628091D01*
X63723758Y-65692655D01*
X63722095Y-65762504D01*
X63691664Y-65812429D01*
X63351179Y-66152914D01*
X63338820Y-66162818D01*
X63338993Y-66163027D01*
X63332982Y-66168000D01*
X63286337Y-66217670D01*
X63283632Y-66220461D01*
X63263873Y-66240221D01*
X63263858Y-66240238D01*
X63261317Y-66243513D01*
X63253753Y-66252367D01*
X63223420Y-66284671D01*
X63223412Y-66284681D01*
X63213579Y-66302567D01*
X63202903Y-66318820D01*
X63190386Y-66334957D01*
X63190385Y-66334960D01*
X63172785Y-66375629D01*
X63167648Y-66386115D01*
X63146303Y-66424941D01*
X63146303Y-66424942D01*
X63141225Y-66444720D01*
X63134925Y-66463122D01*
X63126818Y-66481857D01*
X63119888Y-66525609D01*
X63117520Y-66537045D01*
X63106500Y-66579965D01*
X63106500Y-66600384D01*
X63104973Y-66619783D01*
X63101780Y-66639941D01*
X63101780Y-66639942D01*
X63105950Y-66684057D01*
X63106500Y-66695726D01*
X63106500Y-67131647D01*
X63086815Y-67198686D01*
X63053624Y-67233221D01*
X62895699Y-67343802D01*
X62733806Y-67505695D01*
X62733803Y-67505698D01*
X62733802Y-67505700D01*
X62678656Y-67584456D01*
X62602476Y-67693252D01*
X62602475Y-67693254D01*
X62505718Y-67900750D01*
X62505714Y-67900761D01*
X62446457Y-68121910D01*
X62446456Y-68121918D01*
X62426502Y-68349998D01*
X62426502Y-68350001D01*
X51815900Y-68350001D01*
X51815900Y-67962429D01*
X51835585Y-67895390D01*
X51888389Y-67849635D01*
X51957547Y-67839691D01*
X51971994Y-67842654D01*
X52161913Y-67893543D01*
X52324832Y-67907796D01*
X52389998Y-67913498D01*
X52390000Y-67913498D01*
X52390002Y-67913498D01*
X52447021Y-67908509D01*
X52618087Y-67893543D01*
X52839243Y-67834284D01*
X53046749Y-67737523D01*
X53234300Y-67606198D01*
X53396198Y-67444300D01*
X53527523Y-67256749D01*
X53624284Y-67049243D01*
X53683543Y-66828087D01*
X53703498Y-66600001D01*
X58696502Y-66600001D01*
X58716456Y-66828081D01*
X58716457Y-66828089D01*
X58775714Y-67049238D01*
X58775718Y-67049249D01*
X58865039Y-67240799D01*
X58872477Y-67256749D01*
X59003802Y-67444300D01*
X59165700Y-67606198D01*
X59353251Y-67737523D01*
X59413716Y-67765718D01*
X59560750Y-67834281D01*
X59560752Y-67834281D01*
X59560757Y-67834284D01*
X59781913Y-67893543D01*
X59944832Y-67907796D01*
X60009998Y-67913498D01*
X60010000Y-67913498D01*
X60010002Y-67913498D01*
X60067021Y-67908509D01*
X60238087Y-67893543D01*
X60459243Y-67834284D01*
X60666749Y-67737523D01*
X60854300Y-67606198D01*
X61016198Y-67444300D01*
X61147523Y-67256749D01*
X61244284Y-67049243D01*
X61303543Y-66828087D01*
X61323498Y-66600000D01*
X61322406Y-66587524D01*
X61310917Y-66456198D01*
X61303543Y-66371913D01*
X61244284Y-66150757D01*
X61147523Y-65943251D01*
X61016198Y-65755700D01*
X60854300Y-65593802D01*
X60666749Y-65462477D01*
X60658375Y-65458572D01*
X60459249Y-65365718D01*
X60459238Y-65365714D01*
X60238089Y-65306457D01*
X60238081Y-65306456D01*
X60010002Y-65286502D01*
X60009998Y-65286502D01*
X59781918Y-65306456D01*
X59781910Y-65306457D01*
X59560761Y-65365714D01*
X59560750Y-65365718D01*
X59353254Y-65462475D01*
X59353252Y-65462476D01*
X59322963Y-65483685D01*
X59165700Y-65593802D01*
X59165698Y-65593803D01*
X59165695Y-65593806D01*
X59003806Y-65755695D01*
X59003803Y-65755698D01*
X59003802Y-65755700D01*
X58980932Y-65788362D01*
X58872476Y-65943252D01*
X58872475Y-65943254D01*
X58775718Y-66150750D01*
X58775714Y-66150761D01*
X58716457Y-66371910D01*
X58716456Y-66371918D01*
X58696502Y-66599998D01*
X58696502Y-66600001D01*
X53703498Y-66600001D01*
X53703498Y-66600000D01*
X53702406Y-66587524D01*
X53690917Y-66456198D01*
X53683543Y-66371913D01*
X53624284Y-66150757D01*
X53527523Y-65943251D01*
X53396198Y-65755700D01*
X53234300Y-65593802D01*
X53202258Y-65571366D01*
X53076376Y-65483221D01*
X53032751Y-65428644D01*
X53023500Y-65381647D01*
X53023500Y-64568352D01*
X53043185Y-64501313D01*
X53076373Y-64466779D01*
X53234300Y-64356198D01*
X53396198Y-64194300D01*
X53527523Y-64006749D01*
X53624284Y-63799243D01*
X53683543Y-63578087D01*
X53701292Y-63375220D01*
X53703498Y-63350001D01*
X58696502Y-63350001D01*
X58716456Y-63578081D01*
X58716457Y-63578089D01*
X58775714Y-63799238D01*
X58775718Y-63799249D01*
X58857451Y-63974526D01*
X58872477Y-64006749D01*
X59003802Y-64194300D01*
X59165700Y-64356198D01*
X59353251Y-64487523D01*
X59388385Y-64503906D01*
X59560750Y-64584281D01*
X59560752Y-64584281D01*
X59560757Y-64584284D01*
X59781913Y-64643543D01*
X59944832Y-64657796D01*
X60009998Y-64663498D01*
X60010000Y-64663498D01*
X60010002Y-64663498D01*
X60067021Y-64658509D01*
X60238087Y-64643543D01*
X60459243Y-64584284D01*
X60666749Y-64487523D01*
X60854300Y-64356198D01*
X61016198Y-64194300D01*
X61147523Y-64006749D01*
X61244284Y-63799243D01*
X61303543Y-63578087D01*
X61321292Y-63375220D01*
X61323498Y-63350001D01*
X61323498Y-63349998D01*
X61311740Y-63215606D01*
X61303543Y-63121913D01*
X61244284Y-62900757D01*
X61226446Y-62862504D01*
X61205736Y-62818091D01*
X61147523Y-62693251D01*
X61016198Y-62505700D01*
X60854300Y-62343802D01*
X60666749Y-62212477D01*
X60666745Y-62212475D01*
X60459249Y-62115718D01*
X60459238Y-62115714D01*
X60238089Y-62056457D01*
X60238081Y-62056456D01*
X60010002Y-62036502D01*
X60009998Y-62036502D01*
X59781918Y-62056456D01*
X59781910Y-62056457D01*
X59560761Y-62115714D01*
X59560750Y-62115718D01*
X59353254Y-62212475D01*
X59353252Y-62212476D01*
X59353251Y-62212477D01*
X59165700Y-62343802D01*
X59165698Y-62343803D01*
X59165695Y-62343806D01*
X59003806Y-62505695D01*
X59003803Y-62505698D01*
X59003802Y-62505700D01*
X58921767Y-62622856D01*
X58872476Y-62693252D01*
X58872475Y-62693254D01*
X58775718Y-62900750D01*
X58775714Y-62900761D01*
X58716457Y-63121910D01*
X58716456Y-63121918D01*
X58696502Y-63349998D01*
X58696502Y-63350001D01*
X53703498Y-63350001D01*
X53703498Y-63349998D01*
X53691740Y-63215606D01*
X53683543Y-63121913D01*
X53624284Y-62900757D01*
X53606446Y-62862504D01*
X53585736Y-62818091D01*
X53527523Y-62693251D01*
X53396198Y-62505700D01*
X53234300Y-62343802D01*
X53046749Y-62212477D01*
X53046745Y-62212475D01*
X52839249Y-62115718D01*
X52839238Y-62115714D01*
X52618089Y-62056457D01*
X52618081Y-62056456D01*
X52390002Y-62036502D01*
X52389998Y-62036502D01*
X52161918Y-62056456D01*
X52161907Y-62056458D01*
X51971993Y-62107345D01*
X51902143Y-62105682D01*
X51844281Y-62066519D01*
X51816777Y-62002291D01*
X51815900Y-61987570D01*
X51815900Y-61475825D01*
X51835585Y-61408786D01*
X51888389Y-61363031D01*
X51957547Y-61353087D01*
X51971966Y-61356044D01*
X52111913Y-61393543D01*
X52274832Y-61407796D01*
X52339998Y-61413498D01*
X52340000Y-61413498D01*
X52340002Y-61413498D01*
X52397021Y-61408509D01*
X52568087Y-61393543D01*
X52789243Y-61334284D01*
X52996749Y-61237523D01*
X53184300Y-61106198D01*
X53346198Y-60944300D01*
X53477523Y-60756749D01*
X53574284Y-60549243D01*
X53633543Y-60328087D01*
X53653498Y-60100001D01*
X58646502Y-60100001D01*
X58666456Y-60328081D01*
X58666457Y-60328089D01*
X58725714Y-60549238D01*
X58725718Y-60549249D01*
X58816672Y-60744300D01*
X58822477Y-60756749D01*
X58953802Y-60944300D01*
X59115700Y-61106198D01*
X59303251Y-61237523D01*
X59428091Y-61295736D01*
X59510750Y-61334281D01*
X59510752Y-61334281D01*
X59510757Y-61334284D01*
X59731913Y-61393543D01*
X59894832Y-61407796D01*
X59959998Y-61413498D01*
X59960000Y-61413498D01*
X59960002Y-61413498D01*
X60017021Y-61408509D01*
X60188087Y-61393543D01*
X60409243Y-61334284D01*
X60616749Y-61237523D01*
X60804300Y-61106198D01*
X60966198Y-60944300D01*
X61076779Y-60786374D01*
X61131354Y-60742751D01*
X61178352Y-60733500D01*
X71553634Y-60733500D01*
X71620673Y-60753185D01*
X71641315Y-60769819D01*
X74501315Y-63629819D01*
X74534800Y-63691142D01*
X74529816Y-63760834D01*
X74487944Y-63816767D01*
X74422480Y-63841184D01*
X74413634Y-63841500D01*
X74086345Y-63841500D01*
X74025797Y-63848011D01*
X74025795Y-63848011D01*
X73888795Y-63899111D01*
X73771739Y-63986739D01*
X73684111Y-64103795D01*
X73633011Y-64240795D01*
X73633011Y-64240797D01*
X73626500Y-64301345D01*
X73626500Y-64981233D01*
X73606815Y-65048272D01*
X73554011Y-65094027D01*
X73484853Y-65103971D01*
X73421297Y-65074946D01*
X73414819Y-65068914D01*
X71358335Y-63012430D01*
X71324850Y-62951107D01*
X71326242Y-62892654D01*
X71339159Y-62844447D01*
X71343543Y-62828087D01*
X71363498Y-62600000D01*
X71343543Y-62371913D01*
X71284284Y-62150757D01*
X71187523Y-61943251D01*
X71056198Y-61755700D01*
X70894300Y-61593802D01*
X70706749Y-61462477D01*
X70706745Y-61462475D01*
X70499249Y-61365718D01*
X70499238Y-61365714D01*
X70278089Y-61306457D01*
X70278081Y-61306456D01*
X70050002Y-61286502D01*
X70049998Y-61286502D01*
X69821918Y-61306456D01*
X69821910Y-61306457D01*
X69600761Y-61365714D01*
X69600750Y-61365718D01*
X69393254Y-61462475D01*
X69393252Y-61462476D01*
X69374188Y-61475825D01*
X69205700Y-61593802D01*
X69205698Y-61593803D01*
X69205695Y-61593806D01*
X69043806Y-61755695D01*
X68912476Y-61943252D01*
X68912475Y-61943254D01*
X68815718Y-62150750D01*
X68815714Y-62150761D01*
X68756457Y-62371910D01*
X68756456Y-62371918D01*
X68736502Y-62599998D01*
X68736502Y-62600001D01*
X68756456Y-62828081D01*
X68756457Y-62828089D01*
X68815714Y-63049238D01*
X68815718Y-63049249D01*
X68903429Y-63237345D01*
X68912477Y-63256749D01*
X69043802Y-63444300D01*
X69205700Y-63606198D01*
X69393251Y-63737523D01*
X69441252Y-63759906D01*
X69600750Y-63834281D01*
X69600752Y-63834281D01*
X69600757Y-63834284D01*
X69747210Y-63873526D01*
X69806870Y-63909891D01*
X69837399Y-63972738D01*
X69829104Y-64042114D01*
X69784619Y-64095991D01*
X69747210Y-64113076D01*
X69550762Y-64165714D01*
X69550750Y-64165718D01*
X69343254Y-64262475D01*
X69343252Y-64262476D01*
X69306039Y-64288533D01*
X69155700Y-64393802D01*
X69155698Y-64393803D01*
X69155695Y-64393806D01*
X68993806Y-64555695D01*
X68993803Y-64555698D01*
X68993802Y-64555700D01*
X68915222Y-64667924D01*
X68862476Y-64743252D01*
X68862475Y-64743254D01*
X68765718Y-64950750D01*
X68765714Y-64950761D01*
X68706457Y-65171910D01*
X68706456Y-65171918D01*
X68686502Y-65399998D01*
X68686502Y-65400001D01*
X68706456Y-65628081D01*
X68706457Y-65628089D01*
X68765714Y-65849238D01*
X68765718Y-65849249D01*
X68862475Y-66056745D01*
X68862477Y-66056749D01*
X68993802Y-66244300D01*
X69155700Y-66406198D01*
X69313625Y-66516779D01*
X69357249Y-66571354D01*
X69366500Y-66618352D01*
X69366500Y-68979466D01*
X69364761Y-68995213D01*
X69365032Y-68995239D01*
X69364298Y-69003005D01*
X69364298Y-69003008D01*
X69364298Y-69003009D01*
X69365994Y-69056966D01*
X69366439Y-69071116D01*
X69366500Y-69075012D01*
X69366500Y-69102959D01*
X69367018Y-69107058D01*
X69367934Y-69118698D01*
X69369326Y-69162989D01*
X69369327Y-69162991D01*
X69375022Y-69182595D01*
X69378967Y-69201642D01*
X69381526Y-69221897D01*
X69381527Y-69221900D01*
X69381528Y-69221904D01*
X69397838Y-69263100D01*
X69401621Y-69274149D01*
X69413981Y-69316692D01*
X69424372Y-69334262D01*
X69432932Y-69351735D01*
X69440447Y-69370717D01*
X69466491Y-69406563D01*
X69472905Y-69416327D01*
X69492375Y-69449249D01*
X69495458Y-69454462D01*
X69495462Y-69454466D01*
X69509889Y-69468893D01*
X69522526Y-69483688D01*
X69534528Y-69500207D01*
X69562375Y-69523244D01*
X69568668Y-69528450D01*
X69577309Y-69536313D01*
X70512567Y-70471572D01*
X70546052Y-70532895D01*
X70541068Y-70602587D01*
X70512568Y-70646934D01*
X70403802Y-70755700D01*
X70350558Y-70831740D01*
X70272476Y-70943252D01*
X70272475Y-70943254D01*
X70175718Y-71150750D01*
X70175714Y-71150761D01*
X70116457Y-71371910D01*
X70116456Y-71371918D01*
X70096502Y-71599998D01*
X70096502Y-71600001D01*
X70116456Y-71828081D01*
X70116457Y-71828089D01*
X70175714Y-72049238D01*
X70175718Y-72049249D01*
X70272475Y-72256745D01*
X70272477Y-72256749D01*
X70403802Y-72444300D01*
X70565700Y-72606198D01*
X70723625Y-72716779D01*
X70767249Y-72771354D01*
X70776500Y-72818352D01*
X70776500Y-72876232D01*
X70756815Y-72943271D01*
X70740181Y-72963913D01*
X70462429Y-73241664D01*
X70401106Y-73275149D01*
X70342655Y-73273758D01*
X70278087Y-73256457D01*
X70278085Y-73256456D01*
X70278081Y-73256456D01*
X70050002Y-73236502D01*
X70049998Y-73236502D01*
X69821918Y-73256456D01*
X69821910Y-73256457D01*
X69600761Y-73315714D01*
X69600750Y-73315718D01*
X69393254Y-73412475D01*
X69393252Y-73412476D01*
X69375276Y-73425063D01*
X69205700Y-73543802D01*
X69205698Y-73543803D01*
X69205695Y-73543806D01*
X69043806Y-73705695D01*
X69043803Y-73705698D01*
X69043802Y-73705700D01*
X69012338Y-73750635D01*
X68912476Y-73893252D01*
X68912475Y-73893254D01*
X68815718Y-74100750D01*
X68815714Y-74100761D01*
X68756457Y-74321910D01*
X68756456Y-74321918D01*
X68736502Y-74549998D01*
X68736502Y-74550001D01*
X68756456Y-74778081D01*
X68756457Y-74778089D01*
X68815714Y-74999238D01*
X68815718Y-74999249D01*
X68907331Y-75195713D01*
X68912477Y-75206749D01*
X69043802Y-75394300D01*
X69205700Y-75556198D01*
X69393251Y-75687523D01*
X69518091Y-75745736D01*
X69600750Y-75784281D01*
X69600752Y-75784281D01*
X69600757Y-75784284D01*
X69821913Y-75843543D01*
X69984832Y-75857796D01*
X70049998Y-75863498D01*
X70050000Y-75863498D01*
X70050002Y-75863498D01*
X70107021Y-75858509D01*
X70278087Y-75843543D01*
X70499243Y-75784284D01*
X70706749Y-75687523D01*
X70894300Y-75556198D01*
X71056198Y-75394300D01*
X71187523Y-75206749D01*
X71284284Y-74999243D01*
X71343543Y-74778087D01*
X71362406Y-74562477D01*
X71363498Y-74550001D01*
X71363498Y-74549998D01*
X71352308Y-74422095D01*
X71343543Y-74321913D01*
X71331234Y-74275979D01*
X71326241Y-74257341D01*
X71327904Y-74187491D01*
X71358333Y-74137569D01*
X71798815Y-73697087D01*
X71811180Y-73687183D01*
X71811006Y-73686973D01*
X71817009Y-73682005D01*
X71817018Y-73682000D01*
X71863677Y-73632311D01*
X71866356Y-73629546D01*
X71886134Y-73609770D01*
X71888660Y-73606512D01*
X71896246Y-73597629D01*
X71926586Y-73565321D01*
X71936423Y-73547424D01*
X71947097Y-73531174D01*
X71959613Y-73515041D01*
X71977207Y-73474380D01*
X71982341Y-73463900D01*
X72003695Y-73425060D01*
X72008774Y-73405274D01*
X72015072Y-73386882D01*
X72023181Y-73368145D01*
X72030112Y-73324375D01*
X72032476Y-73312962D01*
X72043500Y-73270030D01*
X72043500Y-73249609D01*
X72045027Y-73230209D01*
X72045061Y-73229998D01*
X72048219Y-73210057D01*
X72044050Y-73165949D01*
X72043500Y-73154281D01*
X72043500Y-72818352D01*
X72063185Y-72751313D01*
X72096373Y-72716779D01*
X72254300Y-72606198D01*
X72416198Y-72444300D01*
X72547523Y-72256749D01*
X72644284Y-72049243D01*
X72703543Y-71828087D01*
X72722047Y-71616584D01*
X72723498Y-71600001D01*
X72723498Y-71599998D01*
X72712980Y-71479783D01*
X72703543Y-71371913D01*
X72644284Y-71150757D01*
X72624502Y-71108335D01*
X72590116Y-71034593D01*
X72547523Y-70943251D01*
X72416198Y-70755700D01*
X72254300Y-70593802D01*
X72241965Y-70585165D01*
X72093819Y-70481431D01*
X72050194Y-70426854D01*
X72041004Y-70383750D01*
X72040891Y-70380147D01*
X72040673Y-70373210D01*
X72034977Y-70353608D01*
X72031032Y-70334557D01*
X72028474Y-70314303D01*
X72017933Y-70287681D01*
X72012162Y-70273104D01*
X72008377Y-70262050D01*
X71996018Y-70219507D01*
X71985622Y-70201929D01*
X71977066Y-70184462D01*
X71971876Y-70171354D01*
X71969552Y-70165483D01*
X71943510Y-70129639D01*
X71937099Y-70119881D01*
X71932627Y-70112319D01*
X71914542Y-70081738D01*
X71900108Y-70067304D01*
X71887471Y-70052509D01*
X71875472Y-70035993D01*
X71875469Y-70035991D01*
X71875469Y-70035990D01*
X71841325Y-70007743D01*
X71832685Y-69999881D01*
X71644889Y-69812085D01*
X71611404Y-69750762D01*
X71616388Y-69681070D01*
X71658260Y-69625137D01*
X71700477Y-69604629D01*
X71806317Y-69576269D01*
X71806326Y-69576265D01*
X72012482Y-69480134D01*
X72198820Y-69349657D01*
X72359657Y-69188820D01*
X72490134Y-69002482D01*
X72586265Y-68796326D01*
X72586269Y-68796317D01*
X72638872Y-68600000D01*
X71675686Y-68600000D01*
X71687641Y-68588045D01*
X71745165Y-68475148D01*
X71764986Y-68350000D01*
X71745165Y-68224852D01*
X71687641Y-68111955D01*
X71675686Y-68100000D01*
X72638872Y-68100000D01*
X72638872Y-68099999D01*
X72586269Y-67903682D01*
X72586265Y-67903673D01*
X72490134Y-67697517D01*
X72359657Y-67511179D01*
X72198820Y-67350342D01*
X72012482Y-67219865D01*
X71806328Y-67123734D01*
X71610000Y-67071127D01*
X71610000Y-68034314D01*
X71598045Y-68022359D01*
X71485148Y-67964835D01*
X71391481Y-67950000D01*
X71328519Y-67950000D01*
X71234852Y-67964835D01*
X71121955Y-68022359D01*
X71110000Y-68034314D01*
X71110000Y-67071127D01*
X70913674Y-67123734D01*
X70809904Y-67172122D01*
X70740826Y-67182613D01*
X70677043Y-67154093D01*
X70638804Y-67095616D01*
X70633500Y-67059739D01*
X70633500Y-66618352D01*
X70653185Y-66551313D01*
X70686373Y-66516779D01*
X70844300Y-66406198D01*
X71006198Y-66244300D01*
X71137523Y-66056749D01*
X71234284Y-65849243D01*
X71293543Y-65628087D01*
X71310992Y-65428644D01*
X71313498Y-65400001D01*
X71313498Y-65399998D01*
X71302300Y-65272004D01*
X71293543Y-65171913D01*
X71255023Y-65028155D01*
X71256686Y-64958308D01*
X71295848Y-64900445D01*
X71360076Y-64872941D01*
X71428979Y-64884527D01*
X71462479Y-64908383D01*
X73153281Y-66599185D01*
X73186766Y-66660508D01*
X73189600Y-66686866D01*
X73189600Y-69056966D01*
X73187861Y-69072713D01*
X73188132Y-69072739D01*
X73187398Y-69080505D01*
X73187398Y-69080508D01*
X73187398Y-69080509D01*
X73188670Y-69120974D01*
X73189539Y-69148616D01*
X73189600Y-69152512D01*
X73189600Y-69180459D01*
X73190118Y-69184558D01*
X73191034Y-69196198D01*
X73192426Y-69240489D01*
X73192427Y-69240491D01*
X73198122Y-69260095D01*
X73202067Y-69279142D01*
X73204626Y-69299397D01*
X73204627Y-69299400D01*
X73204628Y-69299404D01*
X73220938Y-69340600D01*
X73224721Y-69351649D01*
X73237081Y-69394192D01*
X73247472Y-69411762D01*
X73256032Y-69429235D01*
X73263547Y-69448217D01*
X73289591Y-69484063D01*
X73296005Y-69493827D01*
X73301700Y-69503456D01*
X73318558Y-69531962D01*
X73318562Y-69531966D01*
X73332989Y-69546393D01*
X73345626Y-69561188D01*
X73357628Y-69577707D01*
X73390171Y-69604629D01*
X73391768Y-69605950D01*
X73400409Y-69613813D01*
X73738510Y-69951914D01*
X73748416Y-69964278D01*
X73748626Y-69964105D01*
X73753597Y-69970114D01*
X73753600Y-69970118D01*
X73753602Y-69970120D01*
X73758572Y-69976127D01*
X73756392Y-69977930D01*
X73784983Y-70026591D01*
X73782189Y-70096405D01*
X73777086Y-70109146D01*
X73715718Y-70240750D01*
X73715714Y-70240761D01*
X73656457Y-70461910D01*
X73656456Y-70461918D01*
X73636502Y-70689998D01*
X73636502Y-70690001D01*
X73656456Y-70918081D01*
X73656457Y-70918089D01*
X73715714Y-71139238D01*
X73715718Y-71139249D01*
X73800524Y-71321116D01*
X73812477Y-71346749D01*
X73943802Y-71534300D01*
X74105700Y-71696198D01*
X74293251Y-71827523D01*
X74336345Y-71847618D01*
X74388784Y-71893791D01*
X74407936Y-71960984D01*
X74387720Y-72027865D01*
X74336345Y-72072382D01*
X74293251Y-72092476D01*
X74220734Y-72143254D01*
X74105700Y-72223802D01*
X74105698Y-72223803D01*
X74105695Y-72223806D01*
X73943802Y-72385699D01*
X73830104Y-72548075D01*
X73775527Y-72591700D01*
X73736320Y-72600706D01*
X73703451Y-72602774D01*
X73703449Y-72602775D01*
X73695429Y-72605381D01*
X73672663Y-72610469D01*
X73670876Y-72610695D01*
X73664306Y-72611525D01*
X73664303Y-72611525D01*
X73664303Y-72611526D01*
X73646918Y-72618408D01*
X73612038Y-72632218D01*
X73604716Y-72634854D01*
X73551228Y-72652234D01*
X73551219Y-72652239D01*
X73544103Y-72656755D01*
X73523321Y-72667344D01*
X73515483Y-72670448D01*
X73515480Y-72670449D01*
X73515478Y-72670451D01*
X73470005Y-72703488D01*
X73463567Y-72707863D01*
X73416087Y-72737996D01*
X73416078Y-72738003D01*
X73410307Y-72744149D01*
X73392810Y-72759575D01*
X73385993Y-72764527D01*
X73385993Y-72764528D01*
X73350152Y-72807851D01*
X73345003Y-72813691D01*
X73306517Y-72854675D01*
X73306513Y-72854679D01*
X73302455Y-72862062D01*
X73289341Y-72881358D01*
X73283966Y-72887855D01*
X73260025Y-72938730D01*
X73256492Y-72945665D01*
X73229405Y-72994939D01*
X73229402Y-72994945D01*
X73227307Y-73003107D01*
X73219409Y-73025048D01*
X73215817Y-73032683D01*
X73215815Y-73032689D01*
X73205282Y-73087902D01*
X73203584Y-73095500D01*
X73189600Y-73149965D01*
X73189600Y-73158393D01*
X73187404Y-73181628D01*
X73185825Y-73189903D01*
X73185825Y-73189906D01*
X73188341Y-73229905D01*
X73189355Y-73246014D01*
X73189600Y-73253800D01*
X73189600Y-73596232D01*
X73169915Y-73663271D01*
X73153281Y-73683913D01*
X70871179Y-75966014D01*
X70858820Y-75975918D01*
X70858993Y-75976127D01*
X70852982Y-75981100D01*
X70806338Y-76030769D01*
X70803633Y-76033560D01*
X70783873Y-76053321D01*
X70783858Y-76053338D01*
X70781317Y-76056613D01*
X70773753Y-76065467D01*
X70743420Y-76097771D01*
X70743412Y-76097781D01*
X70733579Y-76115667D01*
X70722903Y-76131920D01*
X70710386Y-76148057D01*
X70710385Y-76148060D01*
X70692785Y-76188729D01*
X70687648Y-76199215D01*
X70666303Y-76238041D01*
X70666303Y-76238042D01*
X70661225Y-76257820D01*
X70654925Y-76276222D01*
X70646818Y-76294957D01*
X70639888Y-76338709D01*
X70637520Y-76350145D01*
X70626499Y-76393069D01*
X70626023Y-76396842D01*
X70624827Y-76399582D01*
X70624560Y-76400625D01*
X70624391Y-76400581D01*
X70598089Y-76460885D01*
X70574125Y-76482870D01*
X70415699Y-76593802D01*
X70253806Y-76755695D01*
X70253803Y-76755698D01*
X70253802Y-76755700D01*
X70209782Y-76818567D01*
X70122476Y-76943252D01*
X70122475Y-76943254D01*
X70025718Y-77150750D01*
X70025714Y-77150761D01*
X69966457Y-77371910D01*
X69966456Y-77371918D01*
X69946502Y-77599998D01*
X69946502Y-77600001D01*
X69966456Y-77828081D01*
X69966457Y-77828089D01*
X70025714Y-78049238D01*
X70025718Y-78049249D01*
X70113823Y-78238191D01*
X70122477Y-78256749D01*
X70253802Y-78444300D01*
X70415700Y-78606198D01*
X70603251Y-78737523D01*
X70671535Y-78769364D01*
X70810750Y-78834281D01*
X70810752Y-78834281D01*
X70810757Y-78834284D01*
X71031913Y-78893543D01*
X71194832Y-78907796D01*
X71259998Y-78913498D01*
X71260000Y-78913498D01*
X71260002Y-78913498D01*
X71317021Y-78908509D01*
X71488087Y-78893543D01*
X71709243Y-78834284D01*
X71916749Y-78737523D01*
X72104300Y-78606198D01*
X72266198Y-78444300D01*
X72397523Y-78256749D01*
X72494284Y-78049243D01*
X72553543Y-77828087D01*
X72573498Y-77600000D01*
X72572823Y-77592289D01*
X72564955Y-77502357D01*
X72553543Y-77371913D01*
X72494284Y-77150757D01*
X72397523Y-76943251D01*
X72266198Y-76755700D01*
X72157431Y-76646933D01*
X72123946Y-76585610D01*
X72128930Y-76515918D01*
X72157429Y-76471573D01*
X73592046Y-75036957D01*
X73653368Y-75003473D01*
X73723060Y-75008457D01*
X73778993Y-75050329D01*
X73803410Y-75115793D01*
X73792108Y-75177043D01*
X73723735Y-75323668D01*
X73723730Y-75323682D01*
X73671127Y-75519999D01*
X73671128Y-75520000D01*
X74634314Y-75520000D01*
X74622359Y-75531955D01*
X74564835Y-75644852D01*
X74545014Y-75770000D01*
X74564835Y-75895148D01*
X74622359Y-76008045D01*
X74634314Y-76020000D01*
X73671128Y-76020000D01*
X73723730Y-76216317D01*
X73723734Y-76216326D01*
X73819865Y-76422482D01*
X73950342Y-76608820D01*
X74111179Y-76769657D01*
X74297517Y-76900134D01*
X74503673Y-76996265D01*
X74503682Y-76996269D01*
X74699999Y-77048872D01*
X74700000Y-77048871D01*
X74700000Y-76085686D01*
X74711955Y-76097641D01*
X74824852Y-76155165D01*
X74918519Y-76170000D01*
X74981481Y-76170000D01*
X75075148Y-76155165D01*
X75188045Y-76097641D01*
X75200000Y-76085686D01*
X75200000Y-77048872D01*
X75396317Y-76996269D01*
X75396326Y-76996265D01*
X75602482Y-76900134D01*
X75788820Y-76769657D01*
X75949657Y-76608820D01*
X76080134Y-76422482D01*
X76176265Y-76216326D01*
X76176269Y-76216317D01*
X76228872Y-76020000D01*
X75265686Y-76020000D01*
X75277641Y-76008045D01*
X75335165Y-75895148D01*
X75354986Y-75770000D01*
X75335165Y-75644852D01*
X75277641Y-75531955D01*
X75265686Y-75520000D01*
X76228872Y-75520000D01*
X76228872Y-75519999D01*
X76176269Y-75323682D01*
X76176265Y-75323673D01*
X76080134Y-75117517D01*
X75949657Y-74931179D01*
X75788820Y-74770342D01*
X75602481Y-74639865D01*
X75602479Y-74639864D01*
X75553599Y-74617071D01*
X75501159Y-74570899D01*
X75482007Y-74503706D01*
X75502223Y-74436824D01*
X75553599Y-74392307D01*
X75566048Y-74386502D01*
X75606749Y-74367523D01*
X75794300Y-74236198D01*
X75956198Y-74074300D01*
X76087523Y-73886749D01*
X76184284Y-73679243D01*
X76243543Y-73458087D01*
X76263498Y-73230000D01*
X76243543Y-73001913D01*
X76184284Y-72780757D01*
X76179899Y-72771354D01*
X76115689Y-72633654D01*
X76087523Y-72573251D01*
X75956198Y-72385700D01*
X75794300Y-72223802D01*
X75606749Y-72092477D01*
X75563655Y-72072382D01*
X75511215Y-72026210D01*
X75492063Y-71959017D01*
X75512278Y-71892136D01*
X75563655Y-71847618D01*
X75566882Y-71846112D01*
X75606749Y-71827523D01*
X75794300Y-71696198D01*
X75956198Y-71534300D01*
X76087523Y-71346749D01*
X76184284Y-71139243D01*
X76243543Y-70918087D01*
X76263498Y-70690000D01*
X76259677Y-70646331D01*
X76245995Y-70489943D01*
X76243543Y-70461913D01*
X76184284Y-70240757D01*
X76173836Y-70218352D01*
X76136146Y-70137524D01*
X76087523Y-70033251D01*
X75956198Y-69845700D01*
X75794300Y-69683802D01*
X75786628Y-69678430D01*
X75743006Y-69623853D01*
X75735814Y-69554355D01*
X75767338Y-69492001D01*
X75827568Y-69456588D01*
X75844489Y-69453570D01*
X75859201Y-69451989D01*
X75996204Y-69400889D01*
X76113261Y-69313261D01*
X76200889Y-69196204D01*
X76248011Y-69069867D01*
X76251988Y-69059204D01*
X76251988Y-69059203D01*
X76251989Y-69059201D01*
X76256740Y-69015010D01*
X76258499Y-68998654D01*
X76258500Y-68998637D01*
X76258500Y-67301362D01*
X76258499Y-67301345D01*
X76254465Y-67263834D01*
X76251989Y-67240799D01*
X76250253Y-67236145D01*
X76228806Y-67178644D01*
X76200889Y-67103796D01*
X76113261Y-66986739D01*
X75996204Y-66899111D01*
X75859203Y-66848011D01*
X75798654Y-66841500D01*
X75798638Y-66841500D01*
X74580600Y-66841500D01*
X74513561Y-66821815D01*
X74467806Y-66769011D01*
X74456600Y-66717500D01*
X74456600Y-66482500D01*
X74476285Y-66415461D01*
X74529089Y-66369706D01*
X74580600Y-66358500D01*
X75683638Y-66358500D01*
X75683654Y-66358499D01*
X75710692Y-66355591D01*
X75744201Y-66351989D01*
X75881204Y-66300889D01*
X75998261Y-66213261D01*
X76085889Y-66096204D01*
X76136989Y-65959201D01*
X76141847Y-65914015D01*
X76143499Y-65898654D01*
X76143500Y-65898637D01*
X76143500Y-65571366D01*
X76163185Y-65504327D01*
X76215989Y-65458572D01*
X76285147Y-65448628D01*
X76348703Y-65477653D01*
X76355181Y-65483685D01*
X80485581Y-69614085D01*
X80519066Y-69675408D01*
X80521900Y-69701766D01*
X80521900Y-73378366D01*
X80520161Y-73394113D01*
X80520432Y-73394139D01*
X80519698Y-73401905D01*
X80519698Y-73401908D01*
X80519698Y-73401909D01*
X80520030Y-73412475D01*
X80521839Y-73470016D01*
X80521900Y-73473912D01*
X80521900Y-73501859D01*
X80522418Y-73505958D01*
X80523334Y-73517598D01*
X80524726Y-73561889D01*
X80524727Y-73561891D01*
X80530422Y-73581495D01*
X80534367Y-73600542D01*
X80536926Y-73620797D01*
X80536927Y-73620800D01*
X80536928Y-73620804D01*
X80553238Y-73662000D01*
X80557021Y-73673049D01*
X80569381Y-73715592D01*
X80579772Y-73733162D01*
X80588332Y-73750635D01*
X80595847Y-73769617D01*
X80621891Y-73805463D01*
X80628305Y-73815227D01*
X80650858Y-73853362D01*
X80650862Y-73853366D01*
X80665289Y-73867793D01*
X80677926Y-73882588D01*
X80689928Y-73899107D01*
X80722607Y-73926142D01*
X80724068Y-73927350D01*
X80732709Y-73935213D01*
X81556181Y-74758685D01*
X81589666Y-74820008D01*
X81584682Y-74889700D01*
X81566471Y-74920960D01*
X81566908Y-74921266D01*
X81563806Y-74925695D01*
X81563802Y-74925700D01*
X81510940Y-75001195D01*
X81432476Y-75113252D01*
X81432475Y-75113254D01*
X81335718Y-75320750D01*
X81335714Y-75320761D01*
X81276457Y-75541910D01*
X81276456Y-75541918D01*
X81256502Y-75769998D01*
X81256502Y-75770001D01*
X81276456Y-75998081D01*
X81276457Y-75998089D01*
X81335714Y-76219238D01*
X81335718Y-76219249D01*
X81404016Y-76365714D01*
X81432477Y-76426749D01*
X81563802Y-76614300D01*
X81725700Y-76776198D01*
X81913251Y-76907523D01*
X82037460Y-76965442D01*
X82120750Y-77004281D01*
X82120752Y-77004281D01*
X82120757Y-77004284D01*
X82341913Y-77063543D01*
X82504832Y-77077796D01*
X82569998Y-77083498D01*
X82570000Y-77083498D01*
X82570002Y-77083498D01*
X82627021Y-77078509D01*
X82798087Y-77063543D01*
X83019243Y-77004284D01*
X83226749Y-76907523D01*
X83414300Y-76776198D01*
X83576198Y-76614300D01*
X83707523Y-76426749D01*
X83804284Y-76219243D01*
X83863543Y-75998087D01*
X83883498Y-75770000D01*
X83863543Y-75541913D01*
X83804284Y-75320757D01*
X83800834Y-75313359D01*
X83765736Y-75238091D01*
X83707523Y-75113251D01*
X83576198Y-74925700D01*
X83414300Y-74763802D01*
X83402722Y-74755695D01*
X83251923Y-74650103D01*
X83208298Y-74595526D01*
X83199292Y-74556313D01*
X83197225Y-74523453D01*
X83197225Y-74523450D01*
X83194621Y-74515439D01*
X83189528Y-74492651D01*
X83187496Y-74476557D01*
X83190781Y-74476142D01*
X83192595Y-74421498D01*
X83232299Y-74364006D01*
X83239202Y-74358802D01*
X83414300Y-74236198D01*
X83576198Y-74074300D01*
X83707523Y-73886749D01*
X83804284Y-73679243D01*
X83805552Y-73674509D01*
X83841913Y-73614847D01*
X83904758Y-73584313D01*
X83974134Y-73592603D01*
X84013010Y-73618914D01*
X85681664Y-75287568D01*
X85715149Y-75348891D01*
X85713758Y-75407341D01*
X85696459Y-75471904D01*
X85696456Y-75471918D01*
X85676502Y-75699998D01*
X85676502Y-75700001D01*
X85696456Y-75928081D01*
X85696457Y-75928089D01*
X85755714Y-76149238D01*
X85755718Y-76149249D01*
X85852475Y-76356745D01*
X85852477Y-76356749D01*
X85983802Y-76544300D01*
X86145700Y-76706198D01*
X86333251Y-76837523D01*
X86356500Y-76848364D01*
X86540750Y-76934281D01*
X86540752Y-76934281D01*
X86540757Y-76934284D01*
X86761913Y-76993543D01*
X86924832Y-77007796D01*
X86989998Y-77013498D01*
X86990000Y-77013498D01*
X86990002Y-77013498D01*
X87047021Y-77008509D01*
X87218087Y-76993543D01*
X87439243Y-76934284D01*
X87646749Y-76837523D01*
X87834300Y-76706198D01*
X87996198Y-76544300D01*
X88127523Y-76356749D01*
X88224284Y-76149243D01*
X88283543Y-75928087D01*
X88303498Y-75700000D01*
X88302406Y-75687524D01*
X88290917Y-75556198D01*
X88283543Y-75471913D01*
X88224284Y-75250757D01*
X88197658Y-75193658D01*
X88177655Y-75150761D01*
X88127523Y-75043251D01*
X87996198Y-74855700D01*
X87834300Y-74693802D01*
X87646749Y-74562477D01*
X87646745Y-74562475D01*
X87439249Y-74465718D01*
X87439238Y-74465714D01*
X87218089Y-74406457D01*
X87218081Y-74406456D01*
X86990002Y-74386502D01*
X86989998Y-74386502D01*
X86761918Y-74406456D01*
X86761904Y-74406459D01*
X86697341Y-74423758D01*
X86627491Y-74422095D01*
X86577568Y-74391664D01*
X85598381Y-73412477D01*
X84616419Y-72430514D01*
X84582934Y-72369191D01*
X84580100Y-72342833D01*
X84580100Y-70503632D01*
X84581839Y-70487880D01*
X84581568Y-70487855D01*
X84582300Y-70480099D01*
X84582302Y-70480092D01*
X84580161Y-70411968D01*
X84580100Y-70408073D01*
X84580100Y-70380147D01*
X84580100Y-70380144D01*
X84579582Y-70376047D01*
X84578665Y-70364398D01*
X84577274Y-70320113D01*
X84577274Y-70320111D01*
X84571574Y-70300492D01*
X84567631Y-70281446D01*
X84565074Y-70261204D01*
X84565074Y-70261203D01*
X84548756Y-70219990D01*
X84544986Y-70208975D01*
X84532619Y-70166407D01*
X84522220Y-70148824D01*
X84513666Y-70131363D01*
X84506152Y-70112383D01*
X84480108Y-70076537D01*
X84473698Y-70066778D01*
X84465257Y-70052505D01*
X84451142Y-70028638D01*
X84436708Y-70014204D01*
X84424071Y-69999409D01*
X84412072Y-69982893D01*
X84412069Y-69982891D01*
X84412069Y-69982890D01*
X84377925Y-69954643D01*
X84369285Y-69946781D01*
X83945748Y-69523244D01*
X83583816Y-69161312D01*
X83550333Y-69099991D01*
X83555317Y-69030299D01*
X83573532Y-68999043D01*
X83573092Y-68998735D01*
X83576196Y-68994301D01*
X83576198Y-68994300D01*
X83707523Y-68806749D01*
X83804284Y-68599243D01*
X83863543Y-68378087D01*
X83883498Y-68150000D01*
X83881040Y-68121910D01*
X83867298Y-67964835D01*
X83863543Y-67921913D01*
X83804284Y-67700757D01*
X83802341Y-67696591D01*
X83741205Y-67565483D01*
X83707523Y-67493251D01*
X83576198Y-67305700D01*
X83414300Y-67143802D01*
X83263499Y-67038210D01*
X83219878Y-66983636D01*
X83212685Y-66914137D01*
X83244207Y-66851783D01*
X83246913Y-66848989D01*
X84661915Y-65433987D01*
X84674280Y-65424083D01*
X84674106Y-65423873D01*
X84680109Y-65418905D01*
X84680118Y-65418900D01*
X84726777Y-65369211D01*
X84729456Y-65366446D01*
X84749234Y-65346670D01*
X84751760Y-65343412D01*
X84759346Y-65334529D01*
X84789686Y-65302221D01*
X84799523Y-65284324D01*
X84810197Y-65268074D01*
X84822713Y-65251941D01*
X84840307Y-65211280D01*
X84845436Y-65200808D01*
X84860859Y-65172756D01*
X84910407Y-65123496D01*
X84969518Y-65108500D01*
X86248638Y-65108500D01*
X86248654Y-65108499D01*
X86275692Y-65105591D01*
X86309201Y-65101989D01*
X86314529Y-65100002D01*
X86354307Y-65085165D01*
X86446204Y-65050889D01*
X86563261Y-64963261D01*
X86563262Y-64963258D01*
X86568189Y-64959571D01*
X86633653Y-64935154D01*
X86701926Y-64950005D01*
X86751332Y-64999410D01*
X86766500Y-65058838D01*
X86766500Y-67610079D01*
X86746815Y-67677118D01*
X86694011Y-67722873D01*
X86674594Y-67729854D01*
X86540762Y-67765714D01*
X86540750Y-67765718D01*
X86333254Y-67862475D01*
X86333252Y-67862476D01*
X86306182Y-67881431D01*
X86145700Y-67993802D01*
X86145698Y-67993803D01*
X86145695Y-67993806D01*
X85983806Y-68155695D01*
X85983803Y-68155698D01*
X85983802Y-68155700D01*
X85935381Y-68224852D01*
X85852476Y-68343252D01*
X85852475Y-68343254D01*
X85755718Y-68550750D01*
X85755714Y-68550761D01*
X85696457Y-68771910D01*
X85696456Y-68771918D01*
X85676502Y-68999998D01*
X85676502Y-69000001D01*
X85696456Y-69228081D01*
X85696457Y-69228089D01*
X85755714Y-69449238D01*
X85755718Y-69449249D01*
X85846319Y-69643543D01*
X85852477Y-69656749D01*
X85983802Y-69844300D01*
X86145700Y-70006198D01*
X86303625Y-70116779D01*
X86347249Y-70171354D01*
X86356500Y-70218352D01*
X86356500Y-71131647D01*
X86336815Y-71198686D01*
X86303624Y-71233221D01*
X86145699Y-71343802D01*
X85983806Y-71505695D01*
X85983803Y-71505698D01*
X85983802Y-71505700D01*
X85950432Y-71553357D01*
X85852476Y-71693252D01*
X85852475Y-71693254D01*
X85755718Y-71900750D01*
X85755714Y-71900761D01*
X85696457Y-72121910D01*
X85696456Y-72121918D01*
X85676502Y-72349998D01*
X85676502Y-72350001D01*
X85696456Y-72578081D01*
X85696457Y-72578089D01*
X85755714Y-72799238D01*
X85755718Y-72799249D01*
X85850222Y-73001913D01*
X85852477Y-73006749D01*
X85983802Y-73194300D01*
X86145700Y-73356198D01*
X86333251Y-73487523D01*
X86453951Y-73543806D01*
X86540750Y-73584281D01*
X86540752Y-73584281D01*
X86540757Y-73584284D01*
X86761913Y-73643543D01*
X86924832Y-73657796D01*
X86989998Y-73663498D01*
X86990000Y-73663498D01*
X86990002Y-73663498D01*
X87047021Y-73658509D01*
X87218087Y-73643543D01*
X87439243Y-73584284D01*
X87646749Y-73487523D01*
X87834300Y-73356198D01*
X87996198Y-73194300D01*
X88127523Y-73006749D01*
X88224284Y-72799243D01*
X88283543Y-72578087D01*
X88301819Y-72369191D01*
X88303498Y-72350001D01*
X88303498Y-72349998D01*
X88288585Y-72179548D01*
X88283543Y-72121913D01*
X88224284Y-71900757D01*
X88127523Y-71693251D01*
X87996198Y-71505700D01*
X87834300Y-71343802D01*
X87780582Y-71306188D01*
X87676376Y-71233221D01*
X87632751Y-71178644D01*
X87623500Y-71131647D01*
X87623500Y-70218352D01*
X87643185Y-70151313D01*
X87676373Y-70116779D01*
X87834300Y-70006198D01*
X87996198Y-69844300D01*
X88127523Y-69656749D01*
X88224284Y-69449243D01*
X88283543Y-69228087D01*
X88303498Y-69000000D01*
X88303081Y-68995239D01*
X88289207Y-68836657D01*
X88283543Y-68771913D01*
X88224284Y-68550757D01*
X88222513Y-68546960D01*
X88140562Y-68371214D01*
X88127523Y-68343251D01*
X88055925Y-68240998D01*
X88033598Y-68174792D01*
X88033500Y-68169875D01*
X88033500Y-65825906D01*
X88053185Y-65758867D01*
X88105989Y-65713112D01*
X88175147Y-65703168D01*
X88238703Y-65732193D01*
X88264231Y-65762784D01*
X88279358Y-65788362D01*
X88279362Y-65788366D01*
X88293789Y-65802793D01*
X88306426Y-65817588D01*
X88318428Y-65834107D01*
X88336732Y-65849249D01*
X88352568Y-65862350D01*
X88361209Y-65870213D01*
X93712567Y-71221571D01*
X93746052Y-71282894D01*
X93741068Y-71352586D01*
X93712568Y-71396932D01*
X93603806Y-71505695D01*
X93603803Y-71505698D01*
X93603802Y-71505700D01*
X93570432Y-71553357D01*
X93472476Y-71693252D01*
X93472475Y-71693254D01*
X93375718Y-71900750D01*
X93375714Y-71900761D01*
X93316457Y-72121910D01*
X93316456Y-72121918D01*
X93296502Y-72349998D01*
X93296502Y-72350001D01*
X93316456Y-72578081D01*
X93316457Y-72578089D01*
X93375714Y-72799238D01*
X93375718Y-72799249D01*
X93470222Y-73001913D01*
X93472477Y-73006749D01*
X93603802Y-73194300D01*
X93765700Y-73356198D01*
X93953251Y-73487523D01*
X94073951Y-73543806D01*
X94160750Y-73584281D01*
X94160752Y-73584281D01*
X94160757Y-73584284D01*
X94381913Y-73643543D01*
X94544832Y-73657796D01*
X94609998Y-73663498D01*
X94610000Y-73663498D01*
X94610002Y-73663498D01*
X94667021Y-73658509D01*
X94838087Y-73643543D01*
X95059243Y-73584284D01*
X95266749Y-73487523D01*
X95454300Y-73356198D01*
X95616198Y-73194300D01*
X95747523Y-73006749D01*
X95844284Y-72799243D01*
X95903543Y-72578087D01*
X95921819Y-72369191D01*
X95923498Y-72350001D01*
X95923498Y-72349998D01*
X95908585Y-72179548D01*
X95903543Y-72121913D01*
X95844284Y-71900757D01*
X95747523Y-71693251D01*
X95616198Y-71505700D01*
X95454300Y-71343802D01*
X95434779Y-71330133D01*
X95293820Y-71231431D01*
X95250195Y-71176854D01*
X95241005Y-71133750D01*
X95240674Y-71123213D01*
X95240674Y-71123211D01*
X95234974Y-71103592D01*
X95231031Y-71084546D01*
X95230314Y-71078872D01*
X95228474Y-71064303D01*
X95212156Y-71023090D01*
X95208386Y-71012075D01*
X95196019Y-70969507D01*
X95185620Y-70951924D01*
X95177066Y-70934463D01*
X95169552Y-70915483D01*
X95143508Y-70879637D01*
X95137098Y-70869878D01*
X95114543Y-70831740D01*
X95114542Y-70831738D01*
X95100108Y-70817304D01*
X95087471Y-70802509D01*
X95075472Y-70785993D01*
X95075469Y-70785991D01*
X95075469Y-70785990D01*
X95041325Y-70757743D01*
X95032685Y-70749881D01*
X94783527Y-70500723D01*
X94750042Y-70439400D01*
X94755026Y-70369708D01*
X94796898Y-70313775D01*
X94839112Y-70293268D01*
X95059243Y-70234284D01*
X95266749Y-70137523D01*
X95454300Y-70006198D01*
X95616198Y-69844300D01*
X95747523Y-69656749D01*
X95844284Y-69449243D01*
X95903543Y-69228087D01*
X95923498Y-69000000D01*
X95923081Y-68995239D01*
X95909207Y-68836657D01*
X95903543Y-68771913D01*
X95844284Y-68550757D01*
X95842513Y-68546960D01*
X95801448Y-68458895D01*
X95747523Y-68343251D01*
X95616198Y-68155700D01*
X95454300Y-67993802D01*
X95409495Y-67962429D01*
X95293820Y-67881431D01*
X95250195Y-67826854D01*
X95241005Y-67783750D01*
X95240763Y-67776062D01*
X95240674Y-67773211D01*
X95234974Y-67753592D01*
X95231031Y-67734546D01*
X95230438Y-67729854D01*
X95228474Y-67714303D01*
X95212156Y-67673090D01*
X95208386Y-67662075D01*
X95196019Y-67619507D01*
X95185620Y-67601924D01*
X95177066Y-67584463D01*
X95169552Y-67565483D01*
X95143508Y-67529637D01*
X95137098Y-67519878D01*
X95128710Y-67505695D01*
X95114542Y-67481738D01*
X95114540Y-67481736D01*
X95114537Y-67481732D01*
X95100107Y-67467302D01*
X95087469Y-67452505D01*
X95075472Y-67435993D01*
X95075472Y-67435992D01*
X95041337Y-67407754D01*
X95032694Y-67399890D01*
X95003417Y-67370612D01*
X94969933Y-67309288D01*
X94967100Y-67282932D01*
X94967100Y-66823468D01*
X94986785Y-66756429D01*
X95039589Y-66710674D01*
X95108747Y-66700730D01*
X95123184Y-66703691D01*
X95271913Y-66743543D01*
X95419201Y-66756429D01*
X95499998Y-66763498D01*
X95500000Y-66763498D01*
X95500002Y-66763498D01*
X95557021Y-66758509D01*
X95728087Y-66743543D01*
X95949243Y-66684284D01*
X96156749Y-66587523D01*
X96171876Y-66576930D01*
X96238080Y-66554603D01*
X96305848Y-66571612D01*
X96353662Y-66622559D01*
X96367000Y-66678505D01*
X96367000Y-75179966D01*
X96365261Y-75195713D01*
X96365532Y-75195739D01*
X96364798Y-75203505D01*
X96366939Y-75271616D01*
X96367000Y-75275512D01*
X96367000Y-75303459D01*
X96367518Y-75307558D01*
X96368434Y-75319198D01*
X96369826Y-75363489D01*
X96369827Y-75363491D01*
X96375522Y-75383095D01*
X96379467Y-75402142D01*
X96382026Y-75422397D01*
X96382027Y-75422400D01*
X96382028Y-75422404D01*
X96398338Y-75463600D01*
X96402121Y-75474649D01*
X96414481Y-75517192D01*
X96424872Y-75534762D01*
X96433432Y-75552235D01*
X96440947Y-75571217D01*
X96466991Y-75607063D01*
X96473405Y-75616827D01*
X96495958Y-75654962D01*
X96495962Y-75654966D01*
X96510389Y-75669393D01*
X96523026Y-75684188D01*
X96535028Y-75700707D01*
X96567707Y-75727742D01*
X96569168Y-75728950D01*
X96577809Y-75736813D01*
X99750683Y-78909687D01*
X99784168Y-78971010D01*
X99779184Y-79040702D01*
X99740430Y-79093503D01*
X99740536Y-79093618D01*
X99739952Y-79094155D01*
X99739176Y-79095213D01*
X99736762Y-79097091D01*
X99736762Y-79097092D01*
X99673548Y-79165760D01*
X99613661Y-79201750D01*
X99543823Y-79199649D01*
X99486207Y-79160124D01*
X99466138Y-79125110D01*
X99420889Y-79003796D01*
X99418047Y-79000000D01*
X99333261Y-78886739D01*
X99216204Y-78799111D01*
X99203123Y-78794232D01*
X99079203Y-78748011D01*
X99018654Y-78741500D01*
X99018638Y-78741500D01*
X97475707Y-78741500D01*
X97408668Y-78721815D01*
X97396665Y-78713042D01*
X97374424Y-78694642D01*
X97365785Y-78686781D01*
X95507432Y-76828427D01*
X95473947Y-76767104D01*
X95478931Y-76697412D01*
X95507428Y-76653069D01*
X95616198Y-76544300D01*
X95747523Y-76356749D01*
X95844284Y-76149243D01*
X95903543Y-75928087D01*
X95923498Y-75700000D01*
X95922406Y-75687524D01*
X95910917Y-75556198D01*
X95903543Y-75471913D01*
X95844284Y-75250757D01*
X95817658Y-75193658D01*
X95797655Y-75150761D01*
X95747523Y-75043251D01*
X95616198Y-74855700D01*
X95454300Y-74693802D01*
X95266749Y-74562477D01*
X95266745Y-74562475D01*
X95059249Y-74465718D01*
X95059238Y-74465714D01*
X94838089Y-74406457D01*
X94838081Y-74406456D01*
X94610002Y-74386502D01*
X94609998Y-74386502D01*
X94381918Y-74406456D01*
X94381910Y-74406457D01*
X94160761Y-74465714D01*
X94160750Y-74465718D01*
X93953254Y-74562475D01*
X93953252Y-74562476D01*
X93953251Y-74562477D01*
X93765700Y-74693802D01*
X93765698Y-74693803D01*
X93765695Y-74693806D01*
X93603806Y-74855695D01*
X93603803Y-74855698D01*
X93603802Y-74855700D01*
X93550951Y-74931179D01*
X93472476Y-75043252D01*
X93472475Y-75043254D01*
X93375718Y-75250750D01*
X93375714Y-75250761D01*
X93316457Y-75471910D01*
X93316456Y-75471918D01*
X93296502Y-75699998D01*
X93296502Y-75700001D01*
X93316456Y-75928081D01*
X93316457Y-75928089D01*
X93375714Y-76149238D01*
X93375718Y-76149249D01*
X93472475Y-76356745D01*
X93472477Y-76356749D01*
X93603802Y-76544300D01*
X93765700Y-76706198D01*
X93926181Y-76818568D01*
X93969805Y-76873145D01*
X93978995Y-76916243D01*
X93979326Y-76926788D01*
X93979327Y-76926791D01*
X93985022Y-76946395D01*
X93988967Y-76965442D01*
X93991526Y-76985697D01*
X93991527Y-76985700D01*
X93991528Y-76985704D01*
X94007838Y-77026900D01*
X94011621Y-77037949D01*
X94023981Y-77080492D01*
X94034372Y-77098062D01*
X94042932Y-77115535D01*
X94050447Y-77134517D01*
X94076491Y-77170363D01*
X94082905Y-77180127D01*
X94105456Y-77218259D01*
X94105458Y-77218262D01*
X94105462Y-77218266D01*
X94119889Y-77232693D01*
X94132526Y-77247488D01*
X94144528Y-77264007D01*
X94147317Y-77266314D01*
X94178668Y-77292250D01*
X94187309Y-77300113D01*
X96273281Y-79386085D01*
X96306766Y-79447408D01*
X96309600Y-79473766D01*
X96309600Y-80028393D01*
X96307404Y-80051628D01*
X96305825Y-80059903D01*
X96305825Y-80059906D01*
X96309355Y-80116014D01*
X96309600Y-80123800D01*
X96309600Y-80139862D01*
X96311612Y-80155788D01*
X96312344Y-80163536D01*
X96315875Y-80219649D01*
X96318479Y-80227663D01*
X96323570Y-80250437D01*
X96324625Y-80258794D01*
X96324627Y-80258801D01*
X96345321Y-80311068D01*
X96347959Y-80318395D01*
X96365336Y-80371876D01*
X96369850Y-80378988D01*
X96380446Y-80399782D01*
X96383549Y-80407619D01*
X96416597Y-80453107D01*
X96420974Y-80459548D01*
X96451098Y-80507016D01*
X96451099Y-80507017D01*
X96451100Y-80507018D01*
X96457245Y-80512788D01*
X96472679Y-80530296D01*
X96477628Y-80537107D01*
X96520960Y-80572954D01*
X96526786Y-80578091D01*
X96567780Y-80616587D01*
X96567784Y-80616590D01*
X96575159Y-80620644D01*
X96594462Y-80633761D01*
X96600956Y-80639133D01*
X96651827Y-80663071D01*
X96658767Y-80666607D01*
X96697236Y-80687755D01*
X96746501Y-80737301D01*
X96761500Y-80796418D01*
X96761500Y-80998654D01*
X96768011Y-81059202D01*
X96768011Y-81059204D01*
X96819111Y-81196204D01*
X96906739Y-81313261D01*
X97023796Y-81400889D01*
X97160799Y-81451989D01*
X97188050Y-81454918D01*
X97221345Y-81458499D01*
X97221362Y-81458500D01*
X99018638Y-81458500D01*
X99018654Y-81458499D01*
X99045692Y-81455591D01*
X99079201Y-81451989D01*
X99216204Y-81400889D01*
X99333261Y-81313261D01*
X99420889Y-81196204D01*
X99466138Y-81074887D01*
X99508009Y-81018956D01*
X99573474Y-80994539D01*
X99641746Y-81009391D01*
X99673545Y-81034236D01*
X99736760Y-81102906D01*
X99914424Y-81241189D01*
X99914425Y-81241189D01*
X99914427Y-81241191D01*
X99974314Y-81273600D01*
X100112426Y-81348342D01*
X100325365Y-81421444D01*
X100547431Y-81458500D01*
X100772569Y-81458500D01*
X100994635Y-81421444D01*
X101207574Y-81348342D01*
X101405576Y-81241189D01*
X101583240Y-81102906D01*
X101704594Y-80971082D01*
X101735715Y-80937276D01*
X101735715Y-80937275D01*
X101735722Y-80937268D01*
X101826193Y-80798790D01*
X101879338Y-80753437D01*
X101948569Y-80744013D01*
X102011905Y-80773515D01*
X102033804Y-80798787D01*
X102124278Y-80937268D01*
X102124283Y-80937273D01*
X102124284Y-80937276D01*
X102250968Y-81074889D01*
X102276760Y-81102906D01*
X102454424Y-81241189D01*
X102454425Y-81241189D01*
X102454427Y-81241191D01*
X102514314Y-81273600D01*
X102652426Y-81348342D01*
X102865365Y-81421444D01*
X103087431Y-81458500D01*
X103312569Y-81458500D01*
X103534635Y-81421444D01*
X103747574Y-81348342D01*
X103945576Y-81241189D01*
X104123240Y-81102906D01*
X104244594Y-80971082D01*
X104275715Y-80937276D01*
X104275715Y-80937275D01*
X104275722Y-80937268D01*
X104369749Y-80793347D01*
X104422894Y-80747994D01*
X104492125Y-80738570D01*
X104555461Y-80768072D01*
X104575130Y-80790048D01*
X104701890Y-80971078D01*
X104868917Y-81138105D01*
X105062421Y-81273600D01*
X105276507Y-81373429D01*
X105276516Y-81373433D01*
X105490000Y-81430634D01*
X105490000Y-80535501D01*
X105597685Y-80584680D01*
X105704237Y-80600000D01*
X105775763Y-80600000D01*
X105882315Y-80584680D01*
X105990000Y-80535501D01*
X105990000Y-81430633D01*
X106203483Y-81373433D01*
X106203492Y-81373429D01*
X106417578Y-81273600D01*
X106611082Y-81138105D01*
X106778105Y-80971082D01*
X106913600Y-80777578D01*
X107013429Y-80563492D01*
X107013432Y-80563486D01*
X107070636Y-80350000D01*
X106173686Y-80350000D01*
X106199493Y-80309844D01*
X106240000Y-80171889D01*
X106240000Y-80028111D01*
X106199493Y-79890156D01*
X106173686Y-79850000D01*
X107070636Y-79850000D01*
X107070635Y-79849999D01*
X107013432Y-79636513D01*
X107013429Y-79636507D01*
X106913600Y-79422422D01*
X106913599Y-79422420D01*
X106778113Y-79228926D01*
X106778108Y-79228920D01*
X106611082Y-79061894D01*
X106417578Y-78926399D01*
X106203492Y-78826570D01*
X106203486Y-78826567D01*
X105990000Y-78769364D01*
X105990000Y-79664498D01*
X105882315Y-79615320D01*
X105775763Y-79600000D01*
X105704237Y-79600000D01*
X105597685Y-79615320D01*
X105490000Y-79664498D01*
X105490000Y-78769364D01*
X105489999Y-78769364D01*
X105276513Y-78826567D01*
X105276507Y-78826570D01*
X105062422Y-78926399D01*
X105062420Y-78926400D01*
X104868926Y-79061886D01*
X104868920Y-79061891D01*
X104701891Y-79228920D01*
X104701890Y-79228922D01*
X104575131Y-79409952D01*
X104520554Y-79453577D01*
X104451055Y-79460769D01*
X104388701Y-79429247D01*
X104369752Y-79406656D01*
X104275722Y-79262732D01*
X104275715Y-79262725D01*
X104275715Y-79262723D01*
X104123243Y-79097097D01*
X104123238Y-79097092D01*
X103945577Y-78958812D01*
X103945572Y-78958808D01*
X103747580Y-78851661D01*
X103747577Y-78851659D01*
X103747574Y-78851658D01*
X103747571Y-78851657D01*
X103747569Y-78851656D01*
X103534637Y-78778556D01*
X103312569Y-78741500D01*
X103087431Y-78741500D01*
X102865362Y-78778556D01*
X102652430Y-78851656D01*
X102652419Y-78851661D01*
X102454427Y-78958808D01*
X102454422Y-78958812D01*
X102276761Y-79097092D01*
X102276756Y-79097097D01*
X102124284Y-79262723D01*
X102124276Y-79262734D01*
X102033808Y-79401206D01*
X101980662Y-79446562D01*
X101911431Y-79455986D01*
X101848095Y-79426484D01*
X101826192Y-79401206D01*
X101735723Y-79262734D01*
X101735715Y-79262723D01*
X101583243Y-79097097D01*
X101583238Y-79097092D01*
X101405577Y-78958812D01*
X101405576Y-78958811D01*
X101405573Y-78958809D01*
X101405568Y-78958806D01*
X101355703Y-78931820D01*
X101306113Y-78882601D01*
X101291947Y-78830910D01*
X101291895Y-78830919D01*
X101291819Y-78830441D01*
X101290782Y-78826656D01*
X101290674Y-78823211D01*
X101284974Y-78803592D01*
X101281031Y-78784546D01*
X101280274Y-78778556D01*
X101278474Y-78764303D01*
X101262156Y-78723090D01*
X101258386Y-78712075D01*
X101246019Y-78669507D01*
X101235620Y-78651924D01*
X101227066Y-78634463D01*
X101219552Y-78615483D01*
X101193508Y-78579637D01*
X101187098Y-78569878D01*
X101164543Y-78531740D01*
X101164542Y-78531738D01*
X101150108Y-78517304D01*
X101137471Y-78502509D01*
X101125472Y-78485993D01*
X101125469Y-78485991D01*
X101125469Y-78485990D01*
X101091325Y-78457743D01*
X101082685Y-78449881D01*
X97670319Y-75037514D01*
X97636834Y-74976191D01*
X97634000Y-74949833D01*
X97634000Y-74146642D01*
X97653685Y-74079603D01*
X97706489Y-74033848D01*
X97775647Y-74023904D01*
X97832308Y-74047373D01*
X97903796Y-74100889D01*
X98002133Y-74137567D01*
X98038648Y-74151187D01*
X98040799Y-74151989D01*
X98068050Y-74154918D01*
X98101345Y-74158499D01*
X98101362Y-74158500D01*
X99798638Y-74158500D01*
X99798654Y-74158499D01*
X99825692Y-74155591D01*
X99859201Y-74151989D01*
X99996204Y-74100889D01*
X100113261Y-74013261D01*
X100120907Y-74003046D01*
X100176840Y-73961174D01*
X100246531Y-73956188D01*
X100291302Y-73975782D01*
X100297514Y-73980132D01*
X100297516Y-73980133D01*
X100503673Y-74076265D01*
X100503682Y-74076269D01*
X100723389Y-74135139D01*
X100723400Y-74135141D01*
X100949998Y-74154966D01*
X100950002Y-74154966D01*
X101176599Y-74135141D01*
X101176610Y-74135139D01*
X101396317Y-74076269D01*
X101396331Y-74076264D01*
X101602478Y-73980136D01*
X101675471Y-73929024D01*
X100994400Y-73247953D01*
X101075148Y-73235165D01*
X101188045Y-73177641D01*
X101277641Y-73088045D01*
X101335165Y-72975148D01*
X101347953Y-72894400D01*
X102029024Y-73575471D01*
X102080136Y-73502478D01*
X102176264Y-73296331D01*
X102176269Y-73296317D01*
X102235139Y-73076610D01*
X102235141Y-73076599D01*
X102254966Y-72850002D01*
X102254966Y-72849997D01*
X102235141Y-72623400D01*
X102235139Y-72623389D01*
X102176269Y-72403682D01*
X102176264Y-72403668D01*
X102080136Y-72197521D01*
X102080132Y-72197513D01*
X102029025Y-72124526D01*
X101347953Y-72805598D01*
X101335165Y-72724852D01*
X101277641Y-72611955D01*
X101188045Y-72522359D01*
X101075148Y-72464835D01*
X100994400Y-72452046D01*
X101675472Y-71770974D01*
X101602478Y-71719863D01*
X101396331Y-71623735D01*
X101396317Y-71623730D01*
X101176610Y-71564860D01*
X101176599Y-71564858D01*
X100950002Y-71545034D01*
X100949998Y-71545034D01*
X100723400Y-71564858D01*
X100723389Y-71564860D01*
X100503682Y-71623730D01*
X100503673Y-71623734D01*
X100297518Y-71719865D01*
X100297515Y-71719867D01*
X100291291Y-71724225D01*
X100225083Y-71746547D01*
X100157317Y-71729531D01*
X100120909Y-71696955D01*
X100113263Y-71686742D01*
X100113261Y-71686739D01*
X99996204Y-71599111D01*
X99939379Y-71577916D01*
X99859203Y-71548011D01*
X99798654Y-71541500D01*
X99798638Y-71541500D01*
X99648626Y-71541500D01*
X99581587Y-71521815D01*
X99541375Y-71475409D01*
X99539993Y-71476227D01*
X99536019Y-71469509D01*
X99536019Y-71469507D01*
X99525620Y-71451924D01*
X99517066Y-71434463D01*
X99509552Y-71415483D01*
X99483508Y-71379637D01*
X99477098Y-71369878D01*
X99473184Y-71363260D01*
X99454542Y-71331738D01*
X99440108Y-71317304D01*
X99427471Y-71302509D01*
X99415472Y-71285993D01*
X99415469Y-71285991D01*
X99415469Y-71285990D01*
X99381325Y-71257743D01*
X99372695Y-71249891D01*
X99209817Y-71087012D01*
X99176334Y-71025691D01*
X99173500Y-70999333D01*
X99173500Y-65999638D01*
X99193185Y-65932599D01*
X99245989Y-65886844D01*
X99315147Y-65876900D01*
X99349904Y-65887256D01*
X99450750Y-65934281D01*
X99450752Y-65934281D01*
X99450757Y-65934284D01*
X99549834Y-65960831D01*
X99605421Y-65992925D01*
X102806822Y-69194326D01*
X102840307Y-69255649D01*
X102842431Y-69295261D01*
X102836400Y-69351359D01*
X102836400Y-71048654D01*
X102842911Y-71109202D01*
X102842911Y-71109204D01*
X102892875Y-71243158D01*
X102894011Y-71246204D01*
X102981639Y-71363261D01*
X103098696Y-71450889D01*
X103235699Y-71501989D01*
X103262950Y-71504918D01*
X103296245Y-71508499D01*
X103296262Y-71508500D01*
X104993538Y-71508500D01*
X104993554Y-71508499D01*
X105020592Y-71505591D01*
X105054101Y-71501989D01*
X105191104Y-71450889D01*
X105308161Y-71363261D01*
X105315807Y-71353046D01*
X105371740Y-71311174D01*
X105441431Y-71306188D01*
X105486202Y-71325782D01*
X105492414Y-71330132D01*
X105492416Y-71330133D01*
X105698573Y-71426265D01*
X105698582Y-71426269D01*
X105918289Y-71485139D01*
X105918300Y-71485141D01*
X106144898Y-71504966D01*
X106144902Y-71504966D01*
X106371499Y-71485141D01*
X106371510Y-71485139D01*
X106591217Y-71426269D01*
X106591231Y-71426264D01*
X106797378Y-71330136D01*
X106870371Y-71279024D01*
X106189300Y-70597953D01*
X106270048Y-70585165D01*
X106382945Y-70527641D01*
X106472541Y-70438045D01*
X106530065Y-70325148D01*
X106542853Y-70244400D01*
X107223924Y-70925471D01*
X107275036Y-70852478D01*
X107371164Y-70646331D01*
X107371169Y-70646317D01*
X107430039Y-70426610D01*
X107430041Y-70426599D01*
X107449866Y-70200002D01*
X107449866Y-70199997D01*
X107430041Y-69973400D01*
X107430039Y-69973389D01*
X107371169Y-69753682D01*
X107371164Y-69753668D01*
X107275036Y-69547521D01*
X107275032Y-69547513D01*
X107223925Y-69474526D01*
X106542853Y-70155598D01*
X106530065Y-70074852D01*
X106472541Y-69961955D01*
X106382945Y-69872359D01*
X106270048Y-69814835D01*
X106189300Y-69802046D01*
X106870372Y-69120974D01*
X106797378Y-69069863D01*
X106591231Y-68973735D01*
X106591217Y-68973730D01*
X106371510Y-68914860D01*
X106371499Y-68914858D01*
X106144902Y-68895034D01*
X106144898Y-68895034D01*
X105918300Y-68914858D01*
X105918289Y-68914860D01*
X105698582Y-68973730D01*
X105698573Y-68973734D01*
X105492418Y-69069865D01*
X105492415Y-69069867D01*
X105486191Y-69074225D01*
X105419983Y-69096547D01*
X105352217Y-69079531D01*
X105315809Y-69046955D01*
X105308163Y-69036742D01*
X105308159Y-69036737D01*
X105290616Y-69023605D01*
X105248744Y-68967672D01*
X105243760Y-68897980D01*
X105277243Y-68836659D01*
X106548816Y-67565087D01*
X106561178Y-67555185D01*
X106561004Y-67554975D01*
X106567013Y-67550002D01*
X106567018Y-67550000D01*
X106613691Y-67500296D01*
X106616340Y-67497563D01*
X106636135Y-67477770D01*
X106638672Y-67474498D01*
X106646251Y-67465624D01*
X106676586Y-67433321D01*
X106686419Y-67415432D01*
X106697102Y-67399169D01*
X106709614Y-67383041D01*
X106727207Y-67342381D01*
X106732350Y-67331885D01*
X106753693Y-67293064D01*
X106753693Y-67293063D01*
X106753695Y-67293060D01*
X106758774Y-67273273D01*
X106765070Y-67254885D01*
X106773181Y-67236145D01*
X106780113Y-67192372D01*
X106782478Y-67180953D01*
X106793500Y-67138030D01*
X106793500Y-67117615D01*
X106795027Y-67098214D01*
X106798220Y-67078057D01*
X106794050Y-67033942D01*
X106793500Y-67022273D01*
X106793500Y-61118352D01*
X106813185Y-61051313D01*
X106846373Y-61016779D01*
X107004300Y-60906198D01*
X107166198Y-60744300D01*
X107297523Y-60556749D01*
X107394284Y-60349243D01*
X107453543Y-60128087D01*
X107473498Y-59900000D01*
X107471040Y-59871910D01*
X107459605Y-59741204D01*
X107453543Y-59671913D01*
X107394284Y-59450757D01*
X107390785Y-59443254D01*
X107347271Y-59349937D01*
X107297523Y-59243251D01*
X107166198Y-59055700D01*
X107004300Y-58893802D01*
X106816749Y-58762477D01*
X106800168Y-58754745D01*
X106609249Y-58665718D01*
X106609238Y-58665714D01*
X106388089Y-58606457D01*
X106388081Y-58606456D01*
X106160002Y-58586502D01*
X106159998Y-58586502D01*
X105931918Y-58606456D01*
X105931910Y-58606457D01*
X105710761Y-58665714D01*
X105710750Y-58665718D01*
X105503254Y-58762475D01*
X105503252Y-58762476D01*
X105489232Y-58772293D01*
X105315700Y-58893802D01*
X105315698Y-58893803D01*
X105315695Y-58893806D01*
X105153806Y-59055695D01*
X105153803Y-59055698D01*
X105153802Y-59055700D01*
X105105133Y-59125206D01*
X105022476Y-59243252D01*
X105022475Y-59243254D01*
X104925718Y-59450750D01*
X104925714Y-59450761D01*
X104866457Y-59671910D01*
X104866456Y-59671918D01*
X104846502Y-59899998D01*
X104846502Y-59900001D01*
X104866456Y-60128081D01*
X104866457Y-60128089D01*
X104925714Y-60349238D01*
X104925718Y-60349249D01*
X105018977Y-60549243D01*
X105022477Y-60556749D01*
X105153802Y-60744300D01*
X105315700Y-60906198D01*
X105473625Y-61016779D01*
X105517249Y-61071354D01*
X105526500Y-61118352D01*
X105526500Y-63363109D01*
X105506815Y-63430148D01*
X105454011Y-63475903D01*
X105384853Y-63485847D01*
X105350097Y-63475492D01*
X105346327Y-63473734D01*
X105346317Y-63473730D01*
X105126610Y-63414860D01*
X105126599Y-63414858D01*
X104900002Y-63395034D01*
X104899998Y-63395034D01*
X104673400Y-63414858D01*
X104673389Y-63414860D01*
X104453682Y-63473730D01*
X104453673Y-63473734D01*
X104247516Y-63569866D01*
X104247512Y-63569868D01*
X104174526Y-63620973D01*
X104174526Y-63620974D01*
X104855599Y-64302046D01*
X104774852Y-64314835D01*
X104661955Y-64372359D01*
X104572359Y-64461955D01*
X104514835Y-64574852D01*
X104502046Y-64655598D01*
X103820974Y-63974526D01*
X103820973Y-63974526D01*
X103769868Y-64047512D01*
X103769866Y-64047516D01*
X103673734Y-64253673D01*
X103673730Y-64253682D01*
X103614860Y-64473389D01*
X103614858Y-64473400D01*
X103595034Y-64699997D01*
X103595034Y-64700002D01*
X103614858Y-64926599D01*
X103614860Y-64926610D01*
X103673730Y-65146317D01*
X103673735Y-65146331D01*
X103769863Y-65352478D01*
X103820974Y-65425472D01*
X104502046Y-64744400D01*
X104514835Y-64825148D01*
X104572359Y-64938045D01*
X104661955Y-65027641D01*
X104774852Y-65085165D01*
X104855597Y-65097953D01*
X104174526Y-65779025D01*
X104247513Y-65830132D01*
X104247521Y-65830136D01*
X104453668Y-65926264D01*
X104453682Y-65926269D01*
X104673389Y-65985139D01*
X104673400Y-65985141D01*
X104899998Y-66004966D01*
X104900002Y-66004966D01*
X105126599Y-65985141D01*
X105126610Y-65985139D01*
X105346317Y-65926269D01*
X105346320Y-65926268D01*
X105350086Y-65924512D01*
X105419163Y-65914015D01*
X105482949Y-65942529D01*
X105521193Y-66001003D01*
X105526500Y-66036890D01*
X105526500Y-66744232D01*
X105506815Y-66811271D01*
X105490181Y-66831913D01*
X103950880Y-68371214D01*
X103889557Y-68404699D01*
X103819865Y-68399715D01*
X103775518Y-68371214D01*
X102391043Y-66986739D01*
X100997235Y-65592930D01*
X100963750Y-65531607D01*
X100968734Y-65461915D01*
X100983341Y-65434127D01*
X101037523Y-65356749D01*
X101134284Y-65149243D01*
X101193543Y-64928087D01*
X101213498Y-64700000D01*
X101210304Y-64663498D01*
X101195857Y-64498364D01*
X101193543Y-64471913D01*
X101134284Y-64250757D01*
X101130728Y-64243132D01*
X101081006Y-64136502D01*
X101037523Y-64043251D01*
X100906198Y-63855700D01*
X100744300Y-63693802D01*
X100556749Y-63562477D01*
X100504809Y-63538257D01*
X100349249Y-63465718D01*
X100349238Y-63465714D01*
X100128089Y-63406457D01*
X100128081Y-63406456D01*
X99900002Y-63386502D01*
X99899998Y-63386502D01*
X99671918Y-63406456D01*
X99671910Y-63406457D01*
X99450761Y-63465714D01*
X99450759Y-63465715D01*
X99349904Y-63512744D01*
X99280826Y-63523235D01*
X99217042Y-63494714D01*
X99178803Y-63436237D01*
X99173500Y-63400361D01*
X99173500Y-61118352D01*
X99193185Y-61051313D01*
X99226373Y-61016779D01*
X99384300Y-60906198D01*
X99546198Y-60744300D01*
X99677523Y-60556749D01*
X99774284Y-60349243D01*
X99833543Y-60128087D01*
X99853498Y-59900000D01*
X99851040Y-59871910D01*
X99839605Y-59741204D01*
X99833543Y-59671913D01*
X99774284Y-59450757D01*
X99770785Y-59443254D01*
X99727271Y-59349937D01*
X99677523Y-59243251D01*
X99546198Y-59055700D01*
X99384300Y-58893802D01*
X99196749Y-58762477D01*
X99180168Y-58754745D01*
X98989249Y-58665718D01*
X98989238Y-58665714D01*
X98768089Y-58606457D01*
X98768081Y-58606456D01*
X98540002Y-58586502D01*
X98539998Y-58586502D01*
X98311918Y-58606456D01*
X98311910Y-58606457D01*
X98090761Y-58665714D01*
X98090750Y-58665718D01*
X97883254Y-58762475D01*
X97883246Y-58762480D01*
X97829123Y-58800377D01*
X97762917Y-58822704D01*
X97695149Y-58805694D01*
X97647337Y-58754745D01*
X97634000Y-58698802D01*
X97634000Y-57740821D01*
X97653685Y-57673782D01*
X97706489Y-57628027D01*
X97775647Y-57618083D01*
X97829124Y-57639246D01*
X97887517Y-57680134D01*
X98093673Y-57776265D01*
X98093682Y-57776269D01*
X98313389Y-57835139D01*
X98313400Y-57835141D01*
X98539998Y-57854966D01*
X98540002Y-57854966D01*
X98766599Y-57835141D01*
X98766610Y-57835139D01*
X98986317Y-57776269D01*
X98986331Y-57776264D01*
X99192478Y-57680136D01*
X99265471Y-57629024D01*
X98584400Y-56947953D01*
X98665148Y-56935165D01*
X98778045Y-56877641D01*
X98867641Y-56788045D01*
X98925165Y-56675148D01*
X98937953Y-56594400D01*
X99619024Y-57275471D01*
X99670136Y-57202478D01*
X99766264Y-56996331D01*
X99766269Y-56996317D01*
X99825139Y-56776610D01*
X99825141Y-56776599D01*
X99844966Y-56550002D01*
X99844966Y-56550001D01*
X104846502Y-56550001D01*
X104866456Y-56778081D01*
X104866457Y-56778089D01*
X104925714Y-56999238D01*
X104925718Y-56999249D01*
X105014580Y-57189814D01*
X105022477Y-57206749D01*
X105153802Y-57394300D01*
X105315700Y-57556198D01*
X105503251Y-57687523D01*
X105603881Y-57734447D01*
X105710750Y-57784281D01*
X105710752Y-57784281D01*
X105710757Y-57784284D01*
X105931913Y-57843543D01*
X106094832Y-57857796D01*
X106159998Y-57863498D01*
X106160000Y-57863498D01*
X106160002Y-57863498D01*
X106222431Y-57858036D01*
X106388087Y-57843543D01*
X106609243Y-57784284D01*
X106816749Y-57687523D01*
X107004300Y-57556198D01*
X107166198Y-57394300D01*
X107297523Y-57206749D01*
X107394284Y-56999243D01*
X107453543Y-56778087D01*
X107473498Y-56550000D01*
X107471542Y-56527648D01*
X107463805Y-56439212D01*
X107453543Y-56321913D01*
X107394284Y-56100757D01*
X107393933Y-56100005D01*
X107348697Y-56002995D01*
X107297523Y-55893251D01*
X107166198Y-55705700D01*
X107004300Y-55543802D01*
X106816749Y-55412477D01*
X106808276Y-55408526D01*
X106609249Y-55315718D01*
X106609238Y-55315714D01*
X106388089Y-55256457D01*
X106388081Y-55256456D01*
X106160002Y-55236502D01*
X106159998Y-55236502D01*
X105931918Y-55256456D01*
X105931910Y-55256457D01*
X105710761Y-55315714D01*
X105710750Y-55315718D01*
X105503254Y-55412475D01*
X105503252Y-55412476D01*
X105482037Y-55427331D01*
X105315700Y-55543802D01*
X105315698Y-55543803D01*
X105315695Y-55543806D01*
X105153806Y-55705695D01*
X105153803Y-55705698D01*
X105153802Y-55705700D01*
X105121841Y-55751345D01*
X105022476Y-55893252D01*
X105022475Y-55893254D01*
X104925718Y-56100750D01*
X104925714Y-56100761D01*
X104866457Y-56321910D01*
X104866456Y-56321918D01*
X104846502Y-56549998D01*
X104846502Y-56550001D01*
X99844966Y-56550001D01*
X99844966Y-56549997D01*
X99825141Y-56323400D01*
X99825139Y-56323389D01*
X99766269Y-56103682D01*
X99766264Y-56103668D01*
X99670136Y-55897521D01*
X99670132Y-55897513D01*
X99619025Y-55824526D01*
X98937953Y-56505598D01*
X98925165Y-56424852D01*
X98867641Y-56311955D01*
X98778045Y-56222359D01*
X98665148Y-56164835D01*
X98584401Y-56152046D01*
X99265472Y-55470974D01*
X99192478Y-55419863D01*
X98986331Y-55323735D01*
X98986317Y-55323730D01*
X98766610Y-55264860D01*
X98766599Y-55264858D01*
X98540002Y-55245034D01*
X98539998Y-55245034D01*
X98313400Y-55264858D01*
X98313389Y-55264860D01*
X98093682Y-55323730D01*
X98093673Y-55323734D01*
X97887516Y-55419866D01*
X97887512Y-55419868D01*
X97814526Y-55470973D01*
X97814526Y-55470974D01*
X98495599Y-56152046D01*
X98414852Y-56164835D01*
X98301955Y-56222359D01*
X98212359Y-56311955D01*
X98154835Y-56424852D01*
X98142046Y-56505598D01*
X97460974Y-55824526D01*
X97460973Y-55824526D01*
X97409868Y-55897512D01*
X97409866Y-55897516D01*
X97313734Y-56103673D01*
X97313730Y-56103682D01*
X97254860Y-56323389D01*
X97254858Y-56323399D01*
X97250637Y-56371650D01*
X97225184Y-56436719D01*
X97168593Y-56477697D01*
X97098831Y-56481575D01*
X97039428Y-56448523D01*
X94240920Y-53650015D01*
X94207435Y-53588692D01*
X94205282Y-53575312D01*
X94187842Y-53409372D01*
X94143149Y-53271825D01*
X94141155Y-53201985D01*
X94177235Y-53142152D01*
X94239936Y-53111324D01*
X94242589Y-53110894D01*
X94285188Y-53104473D01*
X94374544Y-53091006D01*
X94374545Y-53091005D01*
X94374549Y-53091005D01*
X94614945Y-53016853D01*
X94841604Y-52907700D01*
X95049462Y-52765984D01*
X95233878Y-52594872D01*
X95390731Y-52398184D01*
X95516517Y-52180316D01*
X95608427Y-51946134D01*
X95664407Y-51700869D01*
X95683207Y-51450004D01*
X97316793Y-51450004D01*
X97335592Y-51700866D01*
X97391570Y-51946122D01*
X97391573Y-51946134D01*
X97483483Y-52180316D01*
X97609269Y-52398184D01*
X97766122Y-52594872D01*
X97950538Y-52765984D01*
X98158397Y-52907700D01*
X98385055Y-53016853D01*
X98625451Y-53091005D01*
X98625452Y-53091005D01*
X98625455Y-53091006D01*
X98874206Y-53128499D01*
X98874211Y-53128499D01*
X98874214Y-53128500D01*
X98874215Y-53128500D01*
X99125785Y-53128500D01*
X99125786Y-53128500D01*
X99182180Y-53120000D01*
X99374544Y-53091006D01*
X99374545Y-53091005D01*
X99374549Y-53091005D01*
X99614945Y-53016853D01*
X99841604Y-52907700D01*
X100049462Y-52765984D01*
X100233878Y-52594872D01*
X100390731Y-52398184D01*
X100516517Y-52180316D01*
X100608427Y-51946134D01*
X100664407Y-51700869D01*
X100683207Y-51450004D01*
X102316793Y-51450004D01*
X102335592Y-51700866D01*
X102391570Y-51946122D01*
X102391573Y-51946134D01*
X102483483Y-52180316D01*
X102609269Y-52398184D01*
X102766122Y-52594872D01*
X102950538Y-52765984D01*
X103158397Y-52907700D01*
X103385055Y-53016853D01*
X103625451Y-53091005D01*
X103625452Y-53091005D01*
X103625455Y-53091006D01*
X103874206Y-53128499D01*
X103874211Y-53128499D01*
X103874214Y-53128500D01*
X103874215Y-53128500D01*
X104125785Y-53128500D01*
X104125786Y-53128500D01*
X104182180Y-53120000D01*
X104374544Y-53091006D01*
X104374545Y-53091005D01*
X104374549Y-53091005D01*
X104614945Y-53016853D01*
X104841604Y-52907700D01*
X105049462Y-52765984D01*
X105233878Y-52594872D01*
X105390731Y-52398184D01*
X105516517Y-52180316D01*
X105608427Y-51946134D01*
X105664407Y-51700869D01*
X105683207Y-51450000D01*
X105675713Y-51350004D01*
X105664407Y-51199133D01*
X105652632Y-51147543D01*
X105608427Y-50953866D01*
X105516517Y-50719684D01*
X105390731Y-50501816D01*
X105233878Y-50305128D01*
X105049462Y-50134016D01*
X104902785Y-50034013D01*
X104841607Y-49992302D01*
X104841596Y-49992295D01*
X104614947Y-49883148D01*
X104614949Y-49883148D01*
X104374550Y-49808995D01*
X104374544Y-49808993D01*
X104125793Y-49771500D01*
X104125786Y-49771500D01*
X103874214Y-49771500D01*
X103874206Y-49771500D01*
X103625455Y-49808993D01*
X103625449Y-49808995D01*
X103385054Y-49883147D01*
X103158401Y-49992297D01*
X102950537Y-50134016D01*
X102766123Y-50305126D01*
X102766122Y-50305128D01*
X102609269Y-50501816D01*
X102483483Y-50719683D01*
X102391575Y-50953860D01*
X102391570Y-50953877D01*
X102335592Y-51199133D01*
X102316793Y-51449995D01*
X102316793Y-51450004D01*
X100683207Y-51450004D01*
X100683207Y-51450000D01*
X100675713Y-51350004D01*
X100664407Y-51199133D01*
X100652632Y-51147543D01*
X100608427Y-50953866D01*
X100516517Y-50719684D01*
X100390731Y-50501816D01*
X100233878Y-50305128D01*
X100049462Y-50134016D01*
X99902785Y-50034013D01*
X99841607Y-49992302D01*
X99841596Y-49992295D01*
X99614947Y-49883148D01*
X99614949Y-49883148D01*
X99374550Y-49808995D01*
X99374544Y-49808993D01*
X99125793Y-49771500D01*
X99125786Y-49771500D01*
X98874214Y-49771500D01*
X98874206Y-49771500D01*
X98625455Y-49808993D01*
X98625449Y-49808995D01*
X98385054Y-49883147D01*
X98158401Y-49992297D01*
X97950537Y-50134016D01*
X97766123Y-50305126D01*
X97766122Y-50305128D01*
X97609269Y-50501816D01*
X97483483Y-50719683D01*
X97391575Y-50953860D01*
X97391570Y-50953877D01*
X97335592Y-51199133D01*
X97316793Y-51449995D01*
X97316793Y-51450004D01*
X95683207Y-51450004D01*
X95683207Y-51450000D01*
X95675713Y-51350004D01*
X95664407Y-51199133D01*
X95652632Y-51147543D01*
X95608427Y-50953866D01*
X95516517Y-50719684D01*
X95390731Y-50501816D01*
X95233878Y-50305128D01*
X95049462Y-50134016D01*
X94902785Y-50034013D01*
X94841607Y-49992302D01*
X94841596Y-49992295D01*
X94614947Y-49883148D01*
X94614949Y-49883148D01*
X94374550Y-49808995D01*
X94374544Y-49808993D01*
X94125793Y-49771500D01*
X94125786Y-49771500D01*
X93874214Y-49771500D01*
X93874206Y-49771500D01*
X93625455Y-49808993D01*
X93625449Y-49808995D01*
X93385054Y-49883147D01*
X93158401Y-49992297D01*
X92950537Y-50134016D01*
X92766123Y-50305126D01*
X92766122Y-50305128D01*
X92609269Y-50501816D01*
X92483483Y-50719683D01*
X92391575Y-50953860D01*
X92391570Y-50953877D01*
X92335592Y-51199133D01*
X92316793Y-51449995D01*
X92316793Y-51450004D01*
X92335592Y-51700866D01*
X92391570Y-51946122D01*
X92391573Y-51946134D01*
X92483483Y-52180316D01*
X92609269Y-52398184D01*
X92766122Y-52594872D01*
X92815875Y-52641035D01*
X92851629Y-52701062D01*
X92849254Y-52770891D01*
X92809504Y-52828352D01*
X92804419Y-52832250D01*
X92683050Y-52920431D01*
X92683046Y-52920434D01*
X92555259Y-53062357D01*
X92459773Y-53227743D01*
X92459770Y-53227750D01*
X92410721Y-53378708D01*
X92400758Y-53409372D01*
X92380796Y-53599300D01*
X92400758Y-53789228D01*
X92400759Y-53789231D01*
X92459770Y-53970849D01*
X92459773Y-53970856D01*
X92555260Y-54136244D01*
X92683047Y-54278166D01*
X92837548Y-54390418D01*
X93012012Y-54468094D01*
X93198813Y-54507800D01*
X93255534Y-54507800D01*
X93322573Y-54527485D01*
X93343215Y-54544119D01*
X93744021Y-54944925D01*
X93777506Y-55006248D01*
X93772522Y-55075940D01*
X93730650Y-55131873D01*
X93665186Y-55156290D01*
X93612370Y-55148548D01*
X93606563Y-55146346D01*
X93606561Y-55146345D01*
X93606557Y-55146344D01*
X93490356Y-55122621D01*
X93367925Y-55097626D01*
X93367917Y-55097625D01*
X93124567Y-55087818D01*
X93124566Y-55087818D01*
X92882778Y-55117176D01*
X92648843Y-55184937D01*
X92648840Y-55184938D01*
X92428792Y-55289351D01*
X92228351Y-55427707D01*
X92228350Y-55427708D01*
X92052699Y-55596422D01*
X91906386Y-55791129D01*
X91906380Y-55791140D01*
X91793196Y-56006792D01*
X91793195Y-56006796D01*
X91716068Y-56237817D01*
X91716068Y-56237819D01*
X91695824Y-56362390D01*
X91665641Y-56425404D01*
X91606181Y-56462097D01*
X91573430Y-56466500D01*
X90167024Y-56466500D01*
X90099985Y-56446815D01*
X90054230Y-56394011D01*
X90045914Y-56361951D01*
X90044612Y-56362163D01*
X90043811Y-56357238D01*
X90035470Y-56323399D01*
X89985523Y-56120752D01*
X89985522Y-56120749D01*
X89890060Y-55896692D01*
X89890058Y-55896689D01*
X89890056Y-55896684D01*
X89759883Y-55690832D01*
X89598375Y-55508526D01*
X89540802Y-55461519D01*
X89409714Y-55354489D01*
X89409710Y-55354487D01*
X89198796Y-55232715D01*
X89198786Y-55232710D01*
X88971061Y-55146345D01*
X88971058Y-55146344D01*
X88971057Y-55146344D01*
X88904298Y-55132715D01*
X88732425Y-55097626D01*
X88732417Y-55097625D01*
X88489067Y-55087818D01*
X88489066Y-55087818D01*
X88247278Y-55117176D01*
X88013343Y-55184937D01*
X88013340Y-55184938D01*
X87793292Y-55289351D01*
X87592851Y-55427707D01*
X87592850Y-55427708D01*
X87417199Y-55596422D01*
X87270886Y-55791129D01*
X87270880Y-55791140D01*
X87157696Y-56006792D01*
X87157695Y-56006796D01*
X87107418Y-56157394D01*
X87067518Y-56214750D01*
X87002942Y-56241429D01*
X86934194Y-56228960D01*
X86883100Y-56181303D01*
X86865800Y-56118127D01*
X86865800Y-53715931D01*
X86867538Y-53700181D01*
X86867268Y-53700156D01*
X86868001Y-53692394D01*
X86868002Y-53692391D01*
X86865861Y-53624281D01*
X86865800Y-53620385D01*
X86865800Y-53592446D01*
X86865800Y-53592444D01*
X86865281Y-53588341D01*
X86864364Y-53576689D01*
X86862973Y-53532410D01*
X86862972Y-53532408D01*
X86857279Y-53512814D01*
X86853332Y-53493757D01*
X86850774Y-53473503D01*
X86834462Y-53432305D01*
X86830677Y-53421250D01*
X86827226Y-53409372D01*
X86818318Y-53378707D01*
X86807923Y-53361131D01*
X86799364Y-53343656D01*
X86791854Y-53324688D01*
X86791854Y-53324687D01*
X86791853Y-53324685D01*
X86791852Y-53324683D01*
X86765804Y-53288831D01*
X86759400Y-53279083D01*
X86736842Y-53240937D01*
X86722406Y-53226501D01*
X86709769Y-53211706D01*
X86697772Y-53195193D01*
X86663636Y-53166953D01*
X86654996Y-53159091D01*
X85654845Y-52158940D01*
X85621360Y-52097617D01*
X85626344Y-52027925D01*
X85627052Y-52026074D01*
X85658427Y-51946134D01*
X85714407Y-51700869D01*
X85733207Y-51450000D01*
X85725713Y-51350004D01*
X85714407Y-51199133D01*
X85702632Y-51147543D01*
X85658427Y-50953866D01*
X85566517Y-50719684D01*
X85440731Y-50501816D01*
X85283878Y-50305128D01*
X85099462Y-50134016D01*
X84952785Y-50034013D01*
X84891607Y-49992302D01*
X84891596Y-49992295D01*
X84664947Y-49883148D01*
X84664949Y-49883148D01*
X84424550Y-49808995D01*
X84424544Y-49808993D01*
X84175793Y-49771500D01*
X84175786Y-49771500D01*
X83924214Y-49771500D01*
X83924206Y-49771500D01*
X83675455Y-49808993D01*
X83675449Y-49808995D01*
X83435054Y-49883147D01*
X83208401Y-49992297D01*
X83000537Y-50134016D01*
X82816123Y-50305126D01*
X82816122Y-50305128D01*
X82659269Y-50501816D01*
X82533483Y-50719683D01*
X82441575Y-50953860D01*
X82441570Y-50953877D01*
X82385592Y-51199133D01*
X82366793Y-51449995D01*
X82366793Y-51450004D01*
X82385592Y-51700866D01*
X82441570Y-51946122D01*
X82441573Y-51946134D01*
X82533483Y-52180316D01*
X82659269Y-52398184D01*
X82816122Y-52594872D01*
X83000538Y-52765984D01*
X83208397Y-52907700D01*
X83435055Y-53016853D01*
X83675451Y-53091005D01*
X83675452Y-53091005D01*
X83675455Y-53091006D01*
X83924206Y-53128499D01*
X83924211Y-53128499D01*
X83924214Y-53128500D01*
X83924215Y-53128500D01*
X84175785Y-53128500D01*
X84175786Y-53128500D01*
X84232180Y-53120000D01*
X84424544Y-53091006D01*
X84424545Y-53091005D01*
X84424549Y-53091005D01*
X84636351Y-53025672D01*
X84706211Y-53024723D01*
X84760579Y-53056483D01*
X85562481Y-53858385D01*
X85595966Y-53919708D01*
X85598800Y-53946066D01*
X85598800Y-56108847D01*
X85579115Y-56175886D01*
X85526311Y-56221641D01*
X85457153Y-56231585D01*
X85393597Y-56202560D01*
X85355823Y-56143782D01*
X85354403Y-56138523D01*
X85354229Y-56137817D01*
X85350023Y-56120752D01*
X85307417Y-56020752D01*
X85254560Y-55896692D01*
X85254558Y-55896689D01*
X85254556Y-55896684D01*
X85124383Y-55690832D01*
X84962875Y-55508526D01*
X84905302Y-55461519D01*
X84774214Y-55354489D01*
X84774210Y-55354487D01*
X84563296Y-55232715D01*
X84563286Y-55232710D01*
X84335561Y-55146345D01*
X84335558Y-55146344D01*
X84335557Y-55146344D01*
X84268798Y-55132715D01*
X84096925Y-55097626D01*
X84096917Y-55097625D01*
X83853567Y-55087818D01*
X83853566Y-55087818D01*
X83611778Y-55117176D01*
X83377843Y-55184937D01*
X83377840Y-55184938D01*
X83157792Y-55289351D01*
X82957351Y-55427707D01*
X82957350Y-55427708D01*
X82781699Y-55596422D01*
X82635386Y-55791129D01*
X82635380Y-55791140D01*
X82522196Y-56006792D01*
X82522195Y-56006796D01*
X82445068Y-56237817D01*
X82445068Y-56237818D01*
X82406000Y-56478218D01*
X82406000Y-56658833D01*
X82386315Y-56725872D01*
X82333511Y-56771627D01*
X82264353Y-56781571D01*
X82200797Y-56752546D01*
X82194319Y-56746514D01*
X81608988Y-56161183D01*
X81599087Y-56148823D01*
X81598877Y-56148998D01*
X81593902Y-56142986D01*
X81593900Y-56142982D01*
X81544231Y-56096340D01*
X81541434Y-56093629D01*
X81521666Y-56073861D01*
X81518404Y-56071331D01*
X81509519Y-56063743D01*
X81477221Y-56033414D01*
X81477219Y-56033412D01*
X81459331Y-56023578D01*
X81443070Y-56012897D01*
X81426939Y-56000384D01*
X81386275Y-55982788D01*
X81375785Y-55977649D01*
X81336960Y-55956305D01*
X81336956Y-55956304D01*
X81317187Y-55951228D01*
X81298781Y-55944926D01*
X81280044Y-55936818D01*
X81280047Y-55936818D01*
X81269208Y-55935102D01*
X81206073Y-55905171D01*
X81179250Y-55871082D01*
X81113483Y-55748041D01*
X81113480Y-55748037D01*
X80984331Y-55590668D01*
X80826961Y-55461519D01*
X80826954Y-55461514D01*
X80647424Y-55365553D01*
X80647421Y-55365552D01*
X80647420Y-55365551D01*
X80647417Y-55365550D01*
X80452601Y-55306454D01*
X80452599Y-55306453D01*
X80452601Y-55306453D01*
X80250000Y-55286499D01*
X80047400Y-55306453D01*
X79932374Y-55341345D01*
X79852583Y-55365550D01*
X79852580Y-55365551D01*
X79852578Y-55365552D01*
X79852575Y-55365553D01*
X79673453Y-55461296D01*
X79605050Y-55475538D01*
X79556547Y-55461296D01*
X79377424Y-55365553D01*
X79377421Y-55365552D01*
X79377420Y-55365551D01*
X79377417Y-55365550D01*
X79182601Y-55306454D01*
X79182599Y-55306453D01*
X79182601Y-55306453D01*
X78980000Y-55286499D01*
X78777400Y-55306453D01*
X78586126Y-55364475D01*
X78516259Y-55365098D01*
X78489745Y-55351975D01*
X78488988Y-55353362D01*
X78481209Y-55349115D01*
X78481204Y-55349111D01*
X78413169Y-55323735D01*
X78344203Y-55298011D01*
X78283654Y-55291500D01*
X78283638Y-55291500D01*
X77136362Y-55291500D01*
X77136345Y-55291500D01*
X77075797Y-55298011D01*
X77075795Y-55298011D01*
X76938795Y-55349111D01*
X76821739Y-55436739D01*
X76734111Y-55553795D01*
X76683011Y-55690795D01*
X76683011Y-55690797D01*
X76676500Y-55751345D01*
X76676500Y-57348654D01*
X76683011Y-57409202D01*
X76683011Y-57409204D01*
X76720048Y-57508500D01*
X76734111Y-57546204D01*
X76821739Y-57663261D01*
X76938796Y-57750889D01*
X76995835Y-57772163D01*
X77051767Y-57814033D01*
X77076184Y-57879498D01*
X77076500Y-57888344D01*
X77076500Y-58105166D01*
X77074761Y-58120913D01*
X77075032Y-58120939D01*
X77074298Y-58128705D01*
X77076439Y-58196816D01*
X77076500Y-58200712D01*
X77076500Y-58228659D01*
X77077018Y-58232758D01*
X77077934Y-58244398D01*
X77079326Y-58288689D01*
X77079327Y-58288691D01*
X77085022Y-58308295D01*
X77088967Y-58327342D01*
X77091526Y-58347597D01*
X77091527Y-58347600D01*
X77091528Y-58347604D01*
X77107838Y-58388800D01*
X77111621Y-58399849D01*
X77123981Y-58442392D01*
X77134372Y-58459962D01*
X77142932Y-58477435D01*
X77150447Y-58496417D01*
X77176491Y-58532263D01*
X77182905Y-58542027D01*
X77205458Y-58580162D01*
X77205462Y-58580166D01*
X77219889Y-58594593D01*
X77232526Y-58609388D01*
X77244528Y-58625907D01*
X77250182Y-58630584D01*
X77278668Y-58654150D01*
X77287309Y-58662013D01*
X78330181Y-59704885D01*
X78363666Y-59766208D01*
X78366500Y-59792566D01*
X78366500Y-60277500D01*
X78346815Y-60344539D01*
X78294011Y-60390294D01*
X78242500Y-60401500D01*
X77156345Y-60401500D01*
X77095797Y-60408011D01*
X77095795Y-60408011D01*
X76958795Y-60459111D01*
X76841739Y-60546739D01*
X76754111Y-60663795D01*
X76703011Y-60800795D01*
X76703011Y-60800797D01*
X76696500Y-60861345D01*
X76696500Y-62458654D01*
X76703011Y-62519202D01*
X76703011Y-62519204D01*
X76754111Y-62656204D01*
X76841739Y-62773261D01*
X76958796Y-62860889D01*
X77065685Y-62900757D01*
X77095793Y-62911987D01*
X77095799Y-62911989D01*
X77123050Y-62914918D01*
X77156345Y-62918499D01*
X77156362Y-62918500D01*
X78303638Y-62918500D01*
X78303654Y-62918499D01*
X78330692Y-62915591D01*
X78364201Y-62911989D01*
X78364205Y-62911987D01*
X78364207Y-62911987D01*
X78501199Y-62860891D01*
X78501199Y-62860890D01*
X78501204Y-62860889D01*
X78501207Y-62860886D01*
X78508989Y-62856638D01*
X78510519Y-62859440D01*
X78561255Y-62840503D01*
X78606121Y-62845523D01*
X78797399Y-62903546D01*
X78797398Y-62903546D01*
X78815563Y-62905335D01*
X79000000Y-62923501D01*
X79202601Y-62903546D01*
X79397417Y-62844450D01*
X79576549Y-62748701D01*
X79644949Y-62734460D01*
X79693448Y-62748700D01*
X79841959Y-62828081D01*
X79872575Y-62844446D01*
X79872583Y-62844450D01*
X80067399Y-62903546D01*
X80067398Y-62903546D01*
X80085563Y-62905335D01*
X80270000Y-62923501D01*
X80472601Y-62903546D01*
X80667417Y-62844450D01*
X80846960Y-62748482D01*
X81004331Y-62619331D01*
X81102263Y-62500001D01*
X81133483Y-62461959D01*
X81133485Y-62461954D01*
X81135249Y-62458654D01*
X81229450Y-62282417D01*
X81288546Y-62087601D01*
X81303500Y-61935775D01*
X81303500Y-61384225D01*
X81288546Y-61232399D01*
X81229450Y-61037583D01*
X81229418Y-61037523D01*
X81133483Y-60858041D01*
X81133480Y-60858037D01*
X81004331Y-60700668D01*
X80846961Y-60571519D01*
X80846954Y-60571514D01*
X80667424Y-60475553D01*
X80667421Y-60475552D01*
X80667420Y-60475551D01*
X80667417Y-60475550D01*
X80472601Y-60416454D01*
X80472599Y-60416453D01*
X80472601Y-60416453D01*
X80270000Y-60396499D01*
X80067400Y-60416453D01*
X79952374Y-60451345D01*
X79872583Y-60475550D01*
X79872580Y-60475551D01*
X79872578Y-60475552D01*
X79815952Y-60505819D01*
X79747549Y-60520060D01*
X79682306Y-60495059D01*
X79640936Y-60438754D01*
X79633500Y-60396460D01*
X79633500Y-59562426D01*
X79635238Y-59546681D01*
X79634967Y-59546656D01*
X79635701Y-59538893D01*
X79633561Y-59470799D01*
X79633500Y-59466904D01*
X79633500Y-59438950D01*
X79633500Y-59438944D01*
X79632980Y-59434831D01*
X79632064Y-59423189D01*
X79630673Y-59378909D01*
X79624979Y-59359314D01*
X79621032Y-59340257D01*
X79618474Y-59320003D01*
X79602165Y-59278811D01*
X79598380Y-59267758D01*
X79594877Y-59255700D01*
X79586018Y-59225206D01*
X79575625Y-59207633D01*
X79567063Y-59190155D01*
X79559552Y-59171183D01*
X79559550Y-59171180D01*
X79559549Y-59171178D01*
X79533512Y-59135341D01*
X79527098Y-59125578D01*
X79513426Y-59102460D01*
X79504542Y-59087437D01*
X79490108Y-59073003D01*
X79477469Y-59058206D01*
X79465472Y-59041693D01*
X79431336Y-59013453D01*
X79422696Y-59005591D01*
X78389514Y-57972409D01*
X78356029Y-57911086D01*
X78361013Y-57841394D01*
X78402885Y-57785461D01*
X78433857Y-57768548D01*
X78481204Y-57750889D01*
X78481208Y-57750885D01*
X78488989Y-57746638D01*
X78490519Y-57749440D01*
X78541255Y-57730503D01*
X78586121Y-57735523D01*
X78777399Y-57793546D01*
X78777398Y-57793546D01*
X78795563Y-57795335D01*
X78980000Y-57813501D01*
X79182601Y-57793546D01*
X79377417Y-57734450D01*
X79556549Y-57638701D01*
X79624949Y-57624460D01*
X79673448Y-57638700D01*
X79819946Y-57717005D01*
X79852575Y-57734446D01*
X79852583Y-57734450D01*
X80047399Y-57793546D01*
X80047398Y-57793546D01*
X80065563Y-57795335D01*
X80250000Y-57813501D01*
X80452601Y-57793546D01*
X80647417Y-57734450D01*
X80826960Y-57638482D01*
X80984331Y-57509331D01*
X80987142Y-57506520D01*
X80988980Y-57505516D01*
X80989040Y-57505467D01*
X80989049Y-57505478D01*
X81048462Y-57473031D01*
X81118154Y-57478010D01*
X81162510Y-57506514D01*
X81835181Y-58179185D01*
X81868666Y-58240508D01*
X81871500Y-58266866D01*
X81871500Y-63942686D01*
X81851815Y-64009725D01*
X81818624Y-64044260D01*
X81692961Y-64132251D01*
X81537252Y-64287960D01*
X81537247Y-64287967D01*
X81410946Y-64468342D01*
X81410944Y-64468346D01*
X81317881Y-64667920D01*
X81260885Y-64880627D01*
X81260884Y-64880634D01*
X81241693Y-65099997D01*
X81241693Y-65100002D01*
X81260884Y-65319365D01*
X81260885Y-65319372D01*
X81270903Y-65356757D01*
X81317880Y-65532076D01*
X81317881Y-65532079D01*
X81317882Y-65532081D01*
X81402298Y-65713112D01*
X81410944Y-65731654D01*
X81537251Y-65912038D01*
X81692962Y-66067749D01*
X81847926Y-66176257D01*
X81891549Y-66230832D01*
X81898742Y-66300331D01*
X81867220Y-66362685D01*
X81864482Y-66365511D01*
X81023979Y-67206014D01*
X81011620Y-67215918D01*
X81011793Y-67216127D01*
X81005782Y-67221100D01*
X80959138Y-67270769D01*
X80956433Y-67273560D01*
X80936673Y-67293321D01*
X80936658Y-67293338D01*
X80934117Y-67296613D01*
X80926553Y-67305467D01*
X80896220Y-67337771D01*
X80896212Y-67337781D01*
X80886379Y-67355667D01*
X80875703Y-67371920D01*
X80863186Y-67388057D01*
X80863185Y-67388060D01*
X80845585Y-67428729D01*
X80840448Y-67439215D01*
X80819103Y-67478041D01*
X80819103Y-67478042D01*
X80814025Y-67497820D01*
X80807725Y-67516222D01*
X80799618Y-67534957D01*
X80792688Y-67578709D01*
X80790320Y-67590145D01*
X80779300Y-67633065D01*
X80779300Y-67653484D01*
X80777773Y-67672883D01*
X80774580Y-67693041D01*
X80774580Y-67693042D01*
X80778750Y-67737157D01*
X80779300Y-67748826D01*
X80779300Y-67816633D01*
X80759615Y-67883672D01*
X80706811Y-67929427D01*
X80637653Y-67939371D01*
X80574097Y-67910346D01*
X80567619Y-67904314D01*
X72374488Y-59711183D01*
X72364587Y-59698823D01*
X72364377Y-59698998D01*
X72359401Y-59692984D01*
X72359400Y-59692982D01*
X72309715Y-59646325D01*
X72306950Y-59643645D01*
X72287166Y-59623861D01*
X72283904Y-59621331D01*
X72275019Y-59613743D01*
X72242721Y-59583414D01*
X72242719Y-59583412D01*
X72224831Y-59573578D01*
X72208570Y-59562897D01*
X72192439Y-59550384D01*
X72151775Y-59532788D01*
X72141285Y-59527649D01*
X72102460Y-59506305D01*
X72102456Y-59506304D01*
X72082687Y-59501228D01*
X72064281Y-59494926D01*
X72045544Y-59486818D01*
X72045545Y-59486818D01*
X72001783Y-59479887D01*
X71990347Y-59477519D01*
X71975593Y-59473731D01*
X71947432Y-59466500D01*
X71947430Y-59466500D01*
X71927016Y-59466500D01*
X71907617Y-59464973D01*
X71887458Y-59461780D01*
X71887457Y-59461780D01*
X71843343Y-59465950D01*
X71831674Y-59466500D01*
X61178352Y-59466500D01*
X61111313Y-59446815D01*
X61076779Y-59413626D01*
X60966198Y-59255700D01*
X60804300Y-59093802D01*
X60616749Y-58962477D01*
X60601791Y-58955502D01*
X60409249Y-58865718D01*
X60409238Y-58865714D01*
X60188089Y-58806457D01*
X60188081Y-58806456D01*
X59960002Y-58786502D01*
X59959998Y-58786502D01*
X59731918Y-58806456D01*
X59731910Y-58806457D01*
X59510761Y-58865714D01*
X59510750Y-58865718D01*
X59303254Y-58962475D01*
X59303252Y-58962476D01*
X59274304Y-58982746D01*
X59115700Y-59093802D01*
X59115698Y-59093803D01*
X59115695Y-59093806D01*
X58953806Y-59255695D01*
X58953803Y-59255698D01*
X58953802Y-59255700D01*
X58871767Y-59372856D01*
X58822476Y-59443252D01*
X58822475Y-59443254D01*
X58725718Y-59650750D01*
X58725714Y-59650761D01*
X58666457Y-59871910D01*
X58666456Y-59871918D01*
X58646502Y-60099998D01*
X58646502Y-60100001D01*
X53653498Y-60100001D01*
X53653498Y-60100000D01*
X53633543Y-59871913D01*
X53574284Y-59650757D01*
X53572232Y-59646357D01*
X53533095Y-59562426D01*
X53477523Y-59443251D01*
X53346198Y-59255700D01*
X53184300Y-59093802D01*
X52996749Y-58962477D01*
X52981791Y-58955502D01*
X52789249Y-58865718D01*
X52789238Y-58865714D01*
X52568089Y-58806457D01*
X52568081Y-58806456D01*
X52340002Y-58786502D01*
X52339998Y-58786502D01*
X52111918Y-58806456D01*
X52111907Y-58806458D01*
X51971993Y-58843948D01*
X51902143Y-58842285D01*
X51844281Y-58803122D01*
X51816777Y-58738894D01*
X51815900Y-58724173D01*
X51815900Y-58718265D01*
X51835585Y-58651226D01*
X51852215Y-58630588D01*
X52598813Y-57883989D01*
X52611177Y-57874086D01*
X52611003Y-57873876D01*
X52617015Y-57868902D01*
X52617015Y-57868901D01*
X52617018Y-57868900D01*
X52663691Y-57819196D01*
X52666340Y-57816463D01*
X52686135Y-57796670D01*
X52688672Y-57793398D01*
X52696251Y-57784524D01*
X52726586Y-57752221D01*
X52736419Y-57734332D01*
X52747102Y-57718069D01*
X52759614Y-57701941D01*
X52777207Y-57661281D01*
X52782350Y-57650784D01*
X52797758Y-57622759D01*
X52847306Y-57573497D01*
X52897329Y-57560806D01*
X63156000Y-57560806D01*
X63170689Y-57742767D01*
X63228977Y-57979250D01*
X63324439Y-58203307D01*
X63324442Y-58203312D01*
X63324444Y-58203316D01*
X63454617Y-58409168D01*
X63616125Y-58591474D01*
X63662472Y-58629315D01*
X63804785Y-58745510D01*
X63804789Y-58745512D01*
X64015703Y-58867284D01*
X64015713Y-58867289D01*
X64243443Y-58953656D01*
X64482079Y-59002374D01*
X64555087Y-59005316D01*
X64725432Y-59012181D01*
X64725433Y-59012181D01*
X64725434Y-59012180D01*
X64725439Y-59012181D01*
X64932679Y-58987017D01*
X64967221Y-58982823D01*
X65067923Y-58953654D01*
X65201162Y-58915061D01*
X65421204Y-58810650D01*
X65621648Y-58672293D01*
X65797302Y-58503575D01*
X65943617Y-58308865D01*
X66056804Y-58093205D01*
X66133931Y-57862182D01*
X66156241Y-57724902D01*
X66173000Y-57621781D01*
X66173000Y-57560806D01*
X67791500Y-57560806D01*
X67806189Y-57742767D01*
X67864477Y-57979250D01*
X67959939Y-58203307D01*
X67959942Y-58203312D01*
X67959944Y-58203316D01*
X68090117Y-58409168D01*
X68251625Y-58591474D01*
X68297972Y-58629315D01*
X68440285Y-58745510D01*
X68440289Y-58745512D01*
X68651203Y-58867284D01*
X68651213Y-58867289D01*
X68878943Y-58953656D01*
X69117579Y-59002374D01*
X69190587Y-59005316D01*
X69360932Y-59012181D01*
X69360933Y-59012181D01*
X69360934Y-59012180D01*
X69360939Y-59012181D01*
X69568179Y-58987017D01*
X69602721Y-58982823D01*
X69703423Y-58953654D01*
X69836662Y-58915061D01*
X70056704Y-58810650D01*
X70257148Y-58672293D01*
X70432802Y-58503575D01*
X70579117Y-58308865D01*
X70692304Y-58093205D01*
X70769431Y-57862182D01*
X70791741Y-57724902D01*
X70808500Y-57621781D01*
X70808500Y-57560806D01*
X72427000Y-57560806D01*
X72441689Y-57742767D01*
X72499977Y-57979250D01*
X72595439Y-58203307D01*
X72595442Y-58203312D01*
X72595444Y-58203316D01*
X72725617Y-58409168D01*
X72887125Y-58591474D01*
X72933472Y-58629315D01*
X73075785Y-58745510D01*
X73075789Y-58745512D01*
X73286703Y-58867284D01*
X73286713Y-58867289D01*
X73514443Y-58953656D01*
X73753079Y-59002374D01*
X73826087Y-59005316D01*
X73996432Y-59012181D01*
X73996433Y-59012181D01*
X73996434Y-59012180D01*
X73996439Y-59012181D01*
X74203679Y-58987017D01*
X74238221Y-58982823D01*
X74338923Y-58953654D01*
X74472162Y-58915061D01*
X74692204Y-58810650D01*
X74892648Y-58672293D01*
X75068302Y-58503575D01*
X75214617Y-58308865D01*
X75327804Y-58093205D01*
X75404931Y-57862182D01*
X75427241Y-57724902D01*
X75444000Y-57621781D01*
X75444000Y-56439212D01*
X75443999Y-56439193D01*
X75434651Y-56323400D01*
X75429310Y-56257232D01*
X75371023Y-56020752D01*
X75368984Y-56015966D01*
X75275560Y-55796692D01*
X75275558Y-55796689D01*
X75275556Y-55796684D01*
X75145383Y-55590832D01*
X74983875Y-55408526D01*
X74961572Y-55390316D01*
X74795214Y-55254489D01*
X74795210Y-55254487D01*
X74584296Y-55132715D01*
X74584286Y-55132710D01*
X74356561Y-55046345D01*
X74356558Y-55046344D01*
X74356557Y-55046344D01*
X74312797Y-55037410D01*
X74117925Y-54997626D01*
X74117917Y-54997625D01*
X73874567Y-54987818D01*
X73874566Y-54987818D01*
X73632778Y-55017176D01*
X73398843Y-55084937D01*
X73398840Y-55084938D01*
X73178792Y-55189351D01*
X72978351Y-55327707D01*
X72978350Y-55327708D01*
X72802699Y-55496422D01*
X72656386Y-55691129D01*
X72656380Y-55691140D01*
X72543196Y-55906792D01*
X72543195Y-55906796D01*
X72466068Y-56137817D01*
X72466068Y-56137818D01*
X72427000Y-56378218D01*
X72427000Y-57560806D01*
X70808500Y-57560806D01*
X70808500Y-56439212D01*
X70808499Y-56439193D01*
X70799151Y-56323400D01*
X70793810Y-56257232D01*
X70735523Y-56020752D01*
X70733484Y-56015966D01*
X70640060Y-55796692D01*
X70640058Y-55796689D01*
X70640056Y-55796684D01*
X70509883Y-55590832D01*
X70348375Y-55408526D01*
X70326072Y-55390316D01*
X70159714Y-55254489D01*
X70159710Y-55254487D01*
X69948796Y-55132715D01*
X69948786Y-55132710D01*
X69721061Y-55046345D01*
X69721058Y-55046344D01*
X69721057Y-55046344D01*
X69677297Y-55037410D01*
X69482425Y-54997626D01*
X69482417Y-54997625D01*
X69239067Y-54987818D01*
X69239066Y-54987818D01*
X68997278Y-55017176D01*
X68763343Y-55084937D01*
X68763340Y-55084938D01*
X68543292Y-55189351D01*
X68342851Y-55327707D01*
X68342850Y-55327708D01*
X68167199Y-55496422D01*
X68020886Y-55691129D01*
X68020880Y-55691140D01*
X67907696Y-55906792D01*
X67907695Y-55906796D01*
X67830568Y-56137817D01*
X67830568Y-56137818D01*
X67791500Y-56378218D01*
X67791500Y-57560806D01*
X66173000Y-57560806D01*
X66173000Y-56439212D01*
X66172999Y-56439193D01*
X66163651Y-56323400D01*
X66158310Y-56257232D01*
X66100023Y-56020752D01*
X66097984Y-56015966D01*
X66004560Y-55796692D01*
X66004558Y-55796689D01*
X66004556Y-55796684D01*
X65874383Y-55590832D01*
X65712875Y-55408526D01*
X65690572Y-55390316D01*
X65524214Y-55254489D01*
X65524210Y-55254487D01*
X65313296Y-55132715D01*
X65313286Y-55132710D01*
X65085561Y-55046345D01*
X65085558Y-55046344D01*
X65085557Y-55046344D01*
X65041797Y-55037410D01*
X64846925Y-54997626D01*
X64846917Y-54997625D01*
X64603567Y-54987818D01*
X64603566Y-54987818D01*
X64361778Y-55017176D01*
X64127843Y-55084937D01*
X64127840Y-55084938D01*
X63907792Y-55189351D01*
X63707351Y-55327707D01*
X63707350Y-55327708D01*
X63531699Y-55496422D01*
X63385386Y-55691129D01*
X63385380Y-55691140D01*
X63272196Y-55906792D01*
X63272195Y-55906796D01*
X63195068Y-56137817D01*
X63195068Y-56137818D01*
X63156000Y-56378218D01*
X63156000Y-57560806D01*
X52897329Y-57560806D01*
X52906418Y-57558500D01*
X53158638Y-57558500D01*
X53158654Y-57558499D01*
X53185692Y-57555591D01*
X53219201Y-57551989D01*
X53356204Y-57500889D01*
X53473261Y-57413261D01*
X53560889Y-57296204D01*
X53585397Y-57230495D01*
X53627268Y-57174563D01*
X53692733Y-57150147D01*
X53761005Y-57164999D01*
X53788724Y-57186656D01*
X53789010Y-57186347D01*
X53792774Y-57189811D01*
X53792780Y-57189818D01*
X53976983Y-57333190D01*
X53976985Y-57333191D01*
X53976988Y-57333193D01*
X54036855Y-57365591D01*
X54182273Y-57444287D01*
X54257402Y-57470079D01*
X54403045Y-57520079D01*
X54403047Y-57520079D01*
X54403049Y-57520080D01*
X54633288Y-57558500D01*
X54633289Y-57558500D01*
X54866711Y-57558500D01*
X54866712Y-57558500D01*
X55096951Y-57520080D01*
X55317727Y-57444287D01*
X55523017Y-57333190D01*
X55707220Y-57189818D01*
X55865314Y-57018083D01*
X55988691Y-56829240D01*
X56041837Y-56783883D01*
X56111069Y-56774459D01*
X56174405Y-56803961D01*
X56211736Y-56863021D01*
X56216500Y-56897061D01*
X56216500Y-57048654D01*
X56223011Y-57109202D01*
X56223011Y-57109204D01*
X56274111Y-57246204D01*
X56361739Y-57363261D01*
X56478796Y-57450889D01*
X56615799Y-57501989D01*
X56643050Y-57504918D01*
X56676345Y-57508499D01*
X56676362Y-57508500D01*
X58573638Y-57508500D01*
X58573654Y-57508499D01*
X58601394Y-57505516D01*
X58634201Y-57501989D01*
X58771204Y-57450889D01*
X58888261Y-57363261D01*
X58975889Y-57246204D01*
X59000397Y-57180495D01*
X59042268Y-57124563D01*
X59107733Y-57100147D01*
X59176005Y-57114999D01*
X59203724Y-57136656D01*
X59204010Y-57136347D01*
X59207774Y-57139811D01*
X59207780Y-57139818D01*
X59391983Y-57283190D01*
X59391985Y-57283191D01*
X59391988Y-57283193D01*
X59484375Y-57333190D01*
X59597273Y-57394287D01*
X59711914Y-57433643D01*
X59818045Y-57470079D01*
X59818047Y-57470079D01*
X59818049Y-57470080D01*
X60048288Y-57508500D01*
X60048289Y-57508500D01*
X60281711Y-57508500D01*
X60281712Y-57508500D01*
X60511951Y-57470080D01*
X60732727Y-57394287D01*
X60938017Y-57283190D01*
X61122220Y-57139818D01*
X61280314Y-56968083D01*
X61407984Y-56772669D01*
X61501749Y-56558907D01*
X61559051Y-56332626D01*
X61573571Y-56157394D01*
X61578327Y-56100005D01*
X61578327Y-56099994D01*
X61563194Y-55917374D01*
X61559051Y-55867374D01*
X61501749Y-55641093D01*
X61407984Y-55427331D01*
X61395698Y-55408526D01*
X61280313Y-55231915D01*
X61122223Y-55060185D01*
X61122222Y-55060184D01*
X61122220Y-55060182D01*
X60938017Y-54916810D01*
X60938015Y-54916809D01*
X60938014Y-54916808D01*
X60938011Y-54916806D01*
X60732733Y-54805716D01*
X60732730Y-54805715D01*
X60732727Y-54805713D01*
X60732721Y-54805711D01*
X60732719Y-54805710D01*
X60511954Y-54729920D01*
X60320730Y-54698011D01*
X60281712Y-54691500D01*
X60048288Y-54691500D01*
X60009270Y-54698011D01*
X59818045Y-54729920D01*
X59597280Y-54805710D01*
X59597266Y-54805716D01*
X59391988Y-54916806D01*
X59391985Y-54916808D01*
X59207781Y-55060181D01*
X59204010Y-55063653D01*
X59203290Y-55062871D01*
X59147899Y-55096147D01*
X59078061Y-55094034D01*
X59020452Y-55054500D01*
X59000397Y-55019503D01*
X58980742Y-54966808D01*
X58975889Y-54953796D01*
X58888261Y-54836739D01*
X58771204Y-54749111D01*
X58768255Y-54748011D01*
X58634203Y-54698011D01*
X58573654Y-54691500D01*
X58573638Y-54691500D01*
X56676362Y-54691500D01*
X56676345Y-54691500D01*
X56615797Y-54698011D01*
X56615795Y-54698011D01*
X56478795Y-54749111D01*
X56361739Y-54836739D01*
X56274111Y-54953795D01*
X56223011Y-55090795D01*
X56223011Y-55090797D01*
X56216500Y-55151345D01*
X56216500Y-55402938D01*
X56196815Y-55469977D01*
X56144011Y-55515732D01*
X56074853Y-55525676D01*
X56011297Y-55496651D01*
X55988691Y-55470760D01*
X55950612Y-55412476D01*
X55865314Y-55281917D01*
X55865312Y-55281915D01*
X55865311Y-55281913D01*
X55707223Y-55110185D01*
X55707222Y-55110184D01*
X55707220Y-55110182D01*
X55523017Y-54966810D01*
X55523015Y-54966809D01*
X55523014Y-54966808D01*
X55523011Y-54966806D01*
X55317733Y-54855716D01*
X55317730Y-54855715D01*
X55317727Y-54855713D01*
X55317721Y-54855711D01*
X55317719Y-54855710D01*
X55096954Y-54779920D01*
X54905730Y-54748011D01*
X54866712Y-54741500D01*
X54633288Y-54741500D01*
X54594270Y-54748011D01*
X54403045Y-54779920D01*
X54182280Y-54855710D01*
X54182266Y-54855716D01*
X53976988Y-54966806D01*
X53976985Y-54966808D01*
X53792781Y-55110181D01*
X53789010Y-55113653D01*
X53788290Y-55112871D01*
X53732899Y-55146147D01*
X53663061Y-55144034D01*
X53605452Y-55104500D01*
X53585397Y-55069503D01*
X53566747Y-55019503D01*
X53560889Y-55003796D01*
X53473261Y-54886739D01*
X53356204Y-54799111D01*
X53219203Y-54748011D01*
X53158654Y-54741500D01*
X53158638Y-54741500D01*
X51261362Y-54741500D01*
X51261345Y-54741500D01*
X51200797Y-54748011D01*
X51200795Y-54748011D01*
X51063795Y-54799111D01*
X50946739Y-54886739D01*
X50859111Y-55003795D01*
X50808011Y-55140795D01*
X50808011Y-55140797D01*
X50801500Y-55201345D01*
X50801500Y-57098654D01*
X50808011Y-57159202D01*
X50808011Y-57159204D01*
X50851378Y-57275471D01*
X50859111Y-57296204D01*
X50946738Y-57413260D01*
X50946740Y-57413262D01*
X51021470Y-57469204D01*
X51063342Y-57525138D01*
X51068326Y-57594829D01*
X51034841Y-57656152D01*
X50793582Y-57897412D01*
X50781220Y-57907316D01*
X50781394Y-57907526D01*
X50775384Y-57912498D01*
X50728737Y-57962170D01*
X50726032Y-57964961D01*
X50706273Y-57984721D01*
X50706258Y-57984738D01*
X50703717Y-57988013D01*
X50696153Y-57996867D01*
X50665820Y-58029171D01*
X50665812Y-58029181D01*
X50655979Y-58047067D01*
X50645303Y-58063320D01*
X50632786Y-58079457D01*
X50632785Y-58079460D01*
X50615185Y-58120129D01*
X50610048Y-58130615D01*
X50588703Y-58169441D01*
X50588185Y-58171462D01*
X50587345Y-58172871D01*
X50585831Y-58176697D01*
X50585213Y-58176452D01*
X50552442Y-58231497D01*
X50489915Y-58262678D01*
X50420457Y-58255104D01*
X50366120Y-58211181D01*
X50344155Y-58144854D01*
X50344085Y-58139891D01*
X50385174Y-51350004D01*
X52316793Y-51350004D01*
X52335592Y-51600866D01*
X52391570Y-51846122D01*
X52391573Y-51846134D01*
X52483483Y-52080316D01*
X52609269Y-52298184D01*
X52766122Y-52494872D01*
X52950538Y-52665984D01*
X53158397Y-52807700D01*
X53385055Y-52916853D01*
X53625451Y-52991005D01*
X53625452Y-52991005D01*
X53625455Y-52991006D01*
X53874206Y-53028499D01*
X53874211Y-53028499D01*
X53874214Y-53028500D01*
X53874215Y-53028500D01*
X54125785Y-53028500D01*
X54125786Y-53028500D01*
X54182180Y-53020000D01*
X54374544Y-52991006D01*
X54374545Y-52991005D01*
X54374549Y-52991005D01*
X54614945Y-52916853D01*
X54841604Y-52807700D01*
X55049462Y-52665984D01*
X55233878Y-52494872D01*
X55390731Y-52298184D01*
X55516517Y-52080316D01*
X55608427Y-51846134D01*
X55664407Y-51600869D01*
X55675713Y-51449999D01*
X55683207Y-51350004D01*
X57316793Y-51350004D01*
X57335592Y-51600866D01*
X57391570Y-51846122D01*
X57391573Y-51846134D01*
X57483483Y-52080316D01*
X57609269Y-52298184D01*
X57766122Y-52494872D01*
X57950538Y-52665984D01*
X58158397Y-52807700D01*
X58385055Y-52916853D01*
X58625451Y-52991005D01*
X58625452Y-52991005D01*
X58625455Y-52991006D01*
X58874206Y-53028499D01*
X58874211Y-53028499D01*
X58874214Y-53028500D01*
X58874215Y-53028500D01*
X59125785Y-53028500D01*
X59125786Y-53028500D01*
X59182180Y-53020000D01*
X59374544Y-52991006D01*
X59374545Y-52991005D01*
X59374549Y-52991005D01*
X59614945Y-52916853D01*
X59841604Y-52807700D01*
X60049462Y-52665984D01*
X60233878Y-52494872D01*
X60390731Y-52298184D01*
X60516517Y-52080316D01*
X60608427Y-51846134D01*
X60664407Y-51600869D01*
X60675713Y-51449999D01*
X60683207Y-51350004D01*
X62325317Y-51350004D01*
X62344021Y-51599597D01*
X62344021Y-51599599D01*
X62399714Y-51843607D01*
X62399720Y-51843626D01*
X62491163Y-52076618D01*
X62616311Y-52293381D01*
X62616318Y-52293392D01*
X62654799Y-52341645D01*
X62654800Y-52341645D01*
X63397452Y-51598993D01*
X63407188Y-51628956D01*
X63495186Y-51767619D01*
X63614903Y-51880040D01*
X63749510Y-51954041D01*
X63008403Y-52695148D01*
X63162658Y-52800317D01*
X63162666Y-52800322D01*
X63388167Y-52908916D01*
X63388165Y-52908916D01*
X63627346Y-52982694D01*
X63627352Y-52982696D01*
X63874843Y-53019999D01*
X63874852Y-53020000D01*
X64125148Y-53020000D01*
X64125156Y-53019999D01*
X64372647Y-52982696D01*
X64372653Y-52982694D01*
X64611833Y-52908916D01*
X64837334Y-52800322D01*
X64837344Y-52800315D01*
X64991595Y-52695148D01*
X64247534Y-51951086D01*
X64315629Y-51924126D01*
X64448492Y-51827595D01*
X64553175Y-51701055D01*
X64601631Y-51598079D01*
X65345197Y-52341645D01*
X65345198Y-52341644D01*
X65383690Y-52293379D01*
X65508836Y-52076618D01*
X65600279Y-51843626D01*
X65600285Y-51843607D01*
X65655978Y-51599599D01*
X65655978Y-51599597D01*
X65667189Y-51450004D01*
X72375317Y-51450004D01*
X72394021Y-51699597D01*
X72394021Y-51699599D01*
X72449714Y-51943607D01*
X72449720Y-51943626D01*
X72541163Y-52176618D01*
X72666311Y-52393381D01*
X72666318Y-52393392D01*
X72704799Y-52441645D01*
X72704800Y-52441645D01*
X73447452Y-51698993D01*
X73457188Y-51728956D01*
X73545186Y-51867619D01*
X73664903Y-51980040D01*
X73799510Y-52054041D01*
X73058403Y-52795148D01*
X73212658Y-52900317D01*
X73212666Y-52900322D01*
X73438167Y-53008916D01*
X73438165Y-53008916D01*
X73677346Y-53082694D01*
X73677352Y-53082696D01*
X73924843Y-53119999D01*
X73924852Y-53120000D01*
X74175148Y-53120000D01*
X74175156Y-53119999D01*
X74422647Y-53082696D01*
X74422653Y-53082694D01*
X74661833Y-53008916D01*
X74887334Y-52900322D01*
X74887344Y-52900315D01*
X75041595Y-52795148D01*
X74297534Y-52051086D01*
X74365629Y-52024126D01*
X74498492Y-51927595D01*
X74603175Y-51801055D01*
X74651631Y-51698079D01*
X75395197Y-52441645D01*
X75395198Y-52441644D01*
X75433690Y-52393379D01*
X75558836Y-52176618D01*
X75650279Y-51943626D01*
X75650285Y-51943607D01*
X75705978Y-51699599D01*
X75705978Y-51699597D01*
X75724683Y-51450004D01*
X77375317Y-51450004D01*
X77394021Y-51699597D01*
X77394021Y-51699599D01*
X77449714Y-51943607D01*
X77449720Y-51943626D01*
X77541163Y-52176618D01*
X77666311Y-52393381D01*
X77666318Y-52393392D01*
X77704799Y-52441645D01*
X77704800Y-52441645D01*
X78447452Y-51698993D01*
X78457188Y-51728956D01*
X78545186Y-51867619D01*
X78664903Y-51980040D01*
X78799510Y-52054041D01*
X78058403Y-52795148D01*
X78212658Y-52900317D01*
X78212666Y-52900322D01*
X78438167Y-53008916D01*
X78438165Y-53008916D01*
X78677346Y-53082694D01*
X78677352Y-53082696D01*
X78924843Y-53119999D01*
X78924852Y-53120000D01*
X79175148Y-53120000D01*
X79175156Y-53119999D01*
X79422647Y-53082696D01*
X79422653Y-53082694D01*
X79661833Y-53008916D01*
X79887334Y-52900322D01*
X79887344Y-52900315D01*
X80041595Y-52795148D01*
X79297534Y-52051086D01*
X79365629Y-52024126D01*
X79498492Y-51927595D01*
X79603175Y-51801055D01*
X79651631Y-51698079D01*
X80395197Y-52441645D01*
X80395198Y-52441644D01*
X80433690Y-52393379D01*
X80558836Y-52176618D01*
X80650279Y-51943626D01*
X80650285Y-51943607D01*
X80705978Y-51699599D01*
X80705978Y-51699597D01*
X80724683Y-51450004D01*
X80724683Y-51449995D01*
X80705978Y-51200402D01*
X80705978Y-51200400D01*
X80650285Y-50956392D01*
X80650279Y-50956373D01*
X80558836Y-50723381D01*
X80433688Y-50506618D01*
X80433681Y-50506607D01*
X80395199Y-50458354D01*
X80395198Y-50458353D01*
X79652546Y-51201004D01*
X79642812Y-51171044D01*
X79554814Y-51032381D01*
X79435097Y-50919960D01*
X79300488Y-50845957D01*
X80041595Y-50104850D01*
X79887335Y-49999678D01*
X79887334Y-49999677D01*
X79661832Y-49891083D01*
X79661834Y-49891083D01*
X79422653Y-49817305D01*
X79422647Y-49817303D01*
X79175156Y-49780000D01*
X78924843Y-49780000D01*
X78677352Y-49817303D01*
X78677346Y-49817305D01*
X78438166Y-49891083D01*
X78212664Y-49999679D01*
X78212651Y-49999686D01*
X78058403Y-50104849D01*
X78802466Y-50848912D01*
X78734371Y-50875874D01*
X78601508Y-50972405D01*
X78496825Y-51098945D01*
X78448367Y-51201921D01*
X77704800Y-50458354D01*
X77666311Y-50506617D01*
X77541163Y-50723381D01*
X77449720Y-50956373D01*
X77449714Y-50956392D01*
X77394021Y-51200400D01*
X77394021Y-51200402D01*
X77375317Y-51449995D01*
X77375317Y-51450004D01*
X75724683Y-51450004D01*
X75724683Y-51449995D01*
X75705978Y-51200402D01*
X75705978Y-51200400D01*
X75650285Y-50956392D01*
X75650279Y-50956373D01*
X75558836Y-50723381D01*
X75433688Y-50506618D01*
X75433681Y-50506607D01*
X75395199Y-50458354D01*
X75395198Y-50458353D01*
X74652546Y-51201004D01*
X74642812Y-51171044D01*
X74554814Y-51032381D01*
X74435097Y-50919960D01*
X74300488Y-50845957D01*
X75041595Y-50104850D01*
X74887335Y-49999678D01*
X74887334Y-49999677D01*
X74661832Y-49891083D01*
X74661834Y-49891083D01*
X74422653Y-49817305D01*
X74422647Y-49817303D01*
X74175156Y-49780000D01*
X73924843Y-49780000D01*
X73677352Y-49817303D01*
X73677346Y-49817305D01*
X73438166Y-49891083D01*
X73212664Y-49999679D01*
X73212651Y-49999686D01*
X73058403Y-50104849D01*
X73802466Y-50848912D01*
X73734371Y-50875874D01*
X73601508Y-50972405D01*
X73496825Y-51098945D01*
X73448367Y-51201921D01*
X72704800Y-50458354D01*
X72666311Y-50506617D01*
X72541163Y-50723381D01*
X72449720Y-50956373D01*
X72449714Y-50956392D01*
X72394021Y-51200400D01*
X72394021Y-51200402D01*
X72375317Y-51449995D01*
X72375317Y-51450004D01*
X65667189Y-51450004D01*
X65674683Y-51350004D01*
X65674683Y-51349995D01*
X65655978Y-51100402D01*
X65655978Y-51100400D01*
X65600285Y-50856392D01*
X65600279Y-50856373D01*
X65508836Y-50623381D01*
X65383688Y-50406618D01*
X65383681Y-50406607D01*
X65345199Y-50358354D01*
X65345198Y-50358353D01*
X64602546Y-51101004D01*
X64592812Y-51071044D01*
X64504814Y-50932381D01*
X64385097Y-50819960D01*
X64250488Y-50745957D01*
X64991595Y-50004850D01*
X64837335Y-49899678D01*
X64837334Y-49899677D01*
X64611832Y-49791083D01*
X64611834Y-49791083D01*
X64372653Y-49717305D01*
X64372647Y-49717303D01*
X64125156Y-49680000D01*
X63874843Y-49680000D01*
X63627352Y-49717303D01*
X63627346Y-49717305D01*
X63388166Y-49791083D01*
X63162664Y-49899679D01*
X63162651Y-49899686D01*
X63008403Y-50004849D01*
X63752466Y-50748912D01*
X63684371Y-50775874D01*
X63551508Y-50872405D01*
X63446825Y-50998945D01*
X63398367Y-51101921D01*
X62654800Y-50358354D01*
X62616311Y-50406617D01*
X62491163Y-50623381D01*
X62399720Y-50856373D01*
X62399714Y-50856392D01*
X62344021Y-51100400D01*
X62344021Y-51100402D01*
X62325317Y-51349995D01*
X62325317Y-51350004D01*
X60683207Y-51350004D01*
X60683207Y-51349995D01*
X60664407Y-51099133D01*
X60664407Y-51099131D01*
X60608427Y-50853866D01*
X60516517Y-50619684D01*
X60390731Y-50401816D01*
X60233878Y-50205128D01*
X60049462Y-50034016D01*
X59999109Y-49999686D01*
X59841607Y-49892302D01*
X59841596Y-49892295D01*
X59614947Y-49783148D01*
X59614949Y-49783148D01*
X59374550Y-49708995D01*
X59374544Y-49708993D01*
X59125793Y-49671500D01*
X59125786Y-49671500D01*
X58874214Y-49671500D01*
X58874206Y-49671500D01*
X58625455Y-49708993D01*
X58625449Y-49708995D01*
X58385054Y-49783147D01*
X58158401Y-49892297D01*
X57950537Y-50034016D01*
X57766123Y-50205126D01*
X57766122Y-50205128D01*
X57609269Y-50401816D01*
X57483483Y-50619683D01*
X57391575Y-50853860D01*
X57391570Y-50853877D01*
X57335592Y-51099133D01*
X57316793Y-51349995D01*
X57316793Y-51350004D01*
X55683207Y-51350004D01*
X55683207Y-51349995D01*
X55664407Y-51099133D01*
X55664407Y-51099131D01*
X55608427Y-50853866D01*
X55516517Y-50619684D01*
X55390731Y-50401816D01*
X55233878Y-50205128D01*
X55049462Y-50034016D01*
X54999109Y-49999686D01*
X54841607Y-49892302D01*
X54841596Y-49892295D01*
X54614947Y-49783148D01*
X54614949Y-49783148D01*
X54374550Y-49708995D01*
X54374544Y-49708993D01*
X54125793Y-49671500D01*
X54125786Y-49671500D01*
X53874214Y-49671500D01*
X53874206Y-49671500D01*
X53625455Y-49708993D01*
X53625449Y-49708995D01*
X53385054Y-49783147D01*
X53158401Y-49892297D01*
X52950537Y-50034016D01*
X52766123Y-50205126D01*
X52766122Y-50205128D01*
X52609269Y-50401816D01*
X52483483Y-50619683D01*
X52391575Y-50853860D01*
X52391570Y-50853877D01*
X52335592Y-51099133D01*
X52316793Y-51349995D01*
X52316793Y-51350004D01*
X50385174Y-51350004D01*
X50399254Y-49023249D01*
X50419344Y-48956331D01*
X50472424Y-48910896D01*
X50523252Y-48900000D01*
X107626187Y-48900000D01*
X107693226Y-48919685D01*
G37*
%TD.AperFunction*%
%TD*%
M02*
