%TF.GenerationSoftware,KiCad,Pcbnew,7.0.11+dfsg-1build4*%
%TF.CreationDate,2026-08-15T18:33:25-04:00*%
%TF.ProjectId,tonemachine,746f6e65-6d61-4636-9869-6e652e6b6963,rev?*%
%TF.SameCoordinates,Original*%
%TF.FileFunction,Soldermask,Bot*%
%TF.FilePolarity,Negative*%
%FSLAX46Y46*%
G04 Gerber Fmt 4.6, Leading zero omitted, Abs format (unit mm)*
G04 Created by KiCad (PCBNEW 7.0.11+dfsg-1build4) date 2026-08-15 18:33:25*
%MOMM*%
%LPD*%
G01*
G04 APERTURE LIST*
%ADD10R,1.050000X1.500000*%
%ADD11O,1.050000X1.500000*%
%ADD12R,1.600000X1.600000*%
%ADD13C,1.600000*%
%ADD14O,1.600000X1.600000*%
%ADD15C,2.340000*%
%ADD16O,2.000000X3.000000*%
%ADD17R,1.500000X1.500000*%
%ADD18O,1.500000X1.500000*%
%ADD19R,1.700000X1.700000*%
%ADD20O,1.700000X1.700000*%
G04 APERTURE END LIST*
D10*
%TO.C,Q3*%
X65390000Y-80870000D03*
D11*
X66660000Y-80870000D03*
X67930000Y-80870000D03*
%TD*%
D12*
%TO.C,C13*%
X66200000Y-86500000D03*
D13*
X68700000Y-86500000D03*
%TD*%
D12*
%TO.C,C5*%
X87825100Y-68020000D03*
D13*
X85825100Y-68020000D03*
%TD*%
D12*
%TO.C,C7*%
X73684900Y-71660000D03*
D13*
X75684900Y-71660000D03*
%TD*%
%TO.C,R2*%
X96430000Y-80130000D03*
D14*
X106590000Y-80130000D03*
%TD*%
D13*
%TO.C,R15*%
X72640000Y-79600000D03*
D14*
X82800000Y-79600000D03*
%TD*%
D15*
%TO.C,RV2*%
X103990000Y-53870000D03*
X98990000Y-53870000D03*
X93990000Y-53870000D03*
%TD*%
D13*
%TO.C,R6*%
X96470000Y-73290000D03*
D14*
X106630000Y-73290000D03*
%TD*%
D16*
%TO.C,SW1*%
X74377800Y-53884700D03*
X79013300Y-53884700D03*
X83648800Y-53884700D03*
%TD*%
D10*
%TO.C,Q4*%
X65400000Y-59820000D03*
D11*
X66670000Y-59820000D03*
X67940000Y-59820000D03*
%TD*%
D12*
%TO.C,C4*%
X93425100Y-67620000D03*
D13*
X91425100Y-67620000D03*
%TD*%
%TO.C,C3*%
X86460000Y-77910000D03*
X91460000Y-77910000D03*
%TD*%
D10*
%TO.C,Q1*%
X88000000Y-85890000D03*
D11*
X89270000Y-85890000D03*
X90540000Y-85890000D03*
%TD*%
D13*
%TO.C,R13*%
X72670000Y-82990000D03*
D14*
X82830000Y-82990000D03*
%TD*%
D13*
%TO.C,R5*%
X96470000Y-69960000D03*
D14*
X106630000Y-69960000D03*
%TD*%
D10*
%TO.C,Q2*%
X88270000Y-73950000D03*
D11*
X89540000Y-73950000D03*
X90810000Y-73950000D03*
%TD*%
D13*
%TO.C,C2*%
X86580000Y-81140000D03*
X91580000Y-81140000D03*
%TD*%
%TO.C,R19*%
X51530000Y-65170000D03*
D14*
X61690000Y-65170000D03*
%TD*%
D13*
%TO.C,C1*%
X75300000Y-89880000D03*
X80300000Y-89880000D03*
%TD*%
D17*
%TO.C,D1*%
X73365000Y-60270000D03*
D18*
X80985000Y-60270000D03*
%TD*%
D12*
%TO.C,C9*%
X58550000Y-84370000D03*
D13*
X60550000Y-84370000D03*
%TD*%
D17*
%TO.C,D2*%
X73285000Y-62780000D03*
D18*
X80905000Y-62780000D03*
%TD*%
D13*
%TO.C,R12*%
X72680000Y-66630000D03*
D14*
X82840000Y-66630000D03*
%TD*%
D13*
%TO.C,R16*%
X72640000Y-86280000D03*
D14*
X82800000Y-86280000D03*
%TD*%
D13*
%TO.C,R9*%
X96480000Y-59840000D03*
D14*
X106640000Y-59840000D03*
%TD*%
D17*
%TO.C,D4*%
X52775000Y-80410000D03*
D18*
X60395000Y-80410000D03*
%TD*%
D15*
%TO.C,RV1*%
X64040000Y-54210000D03*
X59040000Y-54210000D03*
X54040000Y-54210000D03*
%TD*%
D13*
%TO.C,C11*%
X64790000Y-65830000D03*
X69790000Y-65830000D03*
%TD*%
%TO.C,R14*%
X72610000Y-76320000D03*
D14*
X82770000Y-76320000D03*
%TD*%
D13*
%TO.C,R7*%
X96420000Y-76650000D03*
D14*
X106580000Y-76650000D03*
%TD*%
D13*
%TO.C,R17*%
X51600000Y-75120000D03*
D14*
X61760000Y-75120000D03*
%TD*%
D19*
%TO.C,J1*%
X52590000Y-89650000D03*
D20*
X55130000Y-89650000D03*
X57670000Y-89650000D03*
X60210000Y-89650000D03*
%TD*%
D13*
%TO.C,R11*%
X83730000Y-63040000D03*
D14*
X93890000Y-63040000D03*
%TD*%
D13*
%TO.C,C10*%
X64710000Y-69960000D03*
X69710000Y-69960000D03*
%TD*%
%TO.C,R4*%
X96540000Y-66670000D03*
D14*
X106700000Y-66670000D03*
%TD*%
D13*
%TO.C,R20*%
X51560000Y-58470000D03*
D14*
X61720000Y-58470000D03*
%TD*%
D12*
%TO.C,C8*%
X52450000Y-84530000D03*
D13*
X54450000Y-84530000D03*
%TD*%
%TO.C,R3*%
X96400000Y-83540000D03*
D14*
X106560000Y-83540000D03*
%TD*%
D13*
%TO.C,R10*%
X83730000Y-59770000D03*
D14*
X93890000Y-59770000D03*
%TD*%
D13*
%TO.C,R18*%
X51480000Y-71750000D03*
D14*
X61640000Y-71750000D03*
%TD*%
D13*
%TO.C,R21*%
X51560000Y-61830000D03*
D14*
X61720000Y-61830000D03*
%TD*%
D13*
%TO.C,R1*%
X96440000Y-86960000D03*
D14*
X106600000Y-86960000D03*
%TD*%
D17*
%TO.C,D3*%
X52815000Y-77900000D03*
D18*
X60435000Y-77900000D03*
%TD*%
D12*
%TO.C,C12*%
X66390000Y-74890000D03*
D13*
X68390000Y-74890000D03*
%TD*%
%TO.C,R8*%
X96510000Y-63280000D03*
D14*
X106670000Y-63280000D03*
%TD*%
D13*
%TO.C,R22*%
X51500000Y-68510000D03*
D14*
X61660000Y-68510000D03*
%TD*%
D12*
%TO.C,C6*%
X79670000Y-71500000D03*
D13*
X81670000Y-71500000D03*
%TD*%
M02*
