M48
; DRILL file {KiCad 7.0.11+dfsg-1build4} date Sat 15 Aug 2026 06:33:28 PM EDT
; FORMAT={-:-/ absolute / metric / decimal}
; #@! TF.CreationDate,2026-08-15T18:33:28-04:00
; #@! TF.GenerationSoftware,Kicad,Pcbnew,7.0.11+dfsg-1build4
; #@! TF.FileFunction,Plated,1,2,PTH
FMAT,2
METRIC
; #@! TA.AperFunction,Plated,PTH,ViaDrill
T1C0.300
; #@! TA.AperFunction,Plated,PTH,ComponentDrill
T2C0.750
; #@! TA.AperFunction,Plated,PTH,ComponentDrill
T3C0.800
; #@! TA.AperFunction,Plated,PTH,ComponentDrill
T4C1.000
; #@! TA.AperFunction,Plated,PTH,ComponentDrill
T5C1.300
%
G90
G05
T1
X56.347Y-80.697
X71.37Y-73.83
X82.094Y-56.907
X83.607Y-56.884
X86.275Y-61.421
X89.05Y-62.98
X91.824Y-64.974
X94.65Y-71.227
X104.2Y-69.57
T2
X52.775Y-80.41
X52.815Y-77.9
X60.395Y-80.41
X60.435Y-77.9
X65.39Y-80.87
X65.4Y-59.82
X66.66Y-80.87
X66.67Y-59.82
X67.93Y-80.87
X67.94Y-59.82
X73.285Y-62.78
X73.365Y-60.27
X80.905Y-62.78
X80.985Y-60.27
X88.0Y-85.89
X88.27Y-73.95
X89.27Y-85.89
X89.54Y-73.95
X90.54Y-85.89
X90.81Y-73.95
T3
X51.48Y-71.75
X51.5Y-68.51
X51.53Y-65.17
X51.56Y-58.47
X51.56Y-61.83
X51.6Y-75.12
X52.45Y-84.53
X54.45Y-84.53
X58.55Y-84.37
X60.55Y-84.37
X61.64Y-71.75
X61.66Y-68.51
X61.69Y-65.17
X61.72Y-58.47
X61.72Y-61.83
X61.76Y-75.12
X64.71Y-69.96
X64.79Y-65.83
X66.2Y-86.5
X66.39Y-74.89
X68.39Y-74.89
X68.7Y-86.5
X69.71Y-69.96
X69.79Y-65.83
X72.61Y-76.32
X72.64Y-79.6
X72.64Y-86.28
X72.67Y-82.99
X72.68Y-66.63
X73.685Y-71.66
X75.3Y-89.88
X75.685Y-71.66
X79.67Y-71.5
X80.3Y-89.88
X81.67Y-71.5
X82.77Y-76.32
X82.8Y-79.6
X82.8Y-86.28
X82.83Y-82.99
X82.84Y-66.63
X83.73Y-59.77
X83.73Y-63.04
X85.825Y-68.02
X86.46Y-77.91
X86.58Y-81.14
X87.825Y-68.02
X91.425Y-67.62
X91.46Y-77.91
X91.58Y-81.14
X93.425Y-67.62
X93.89Y-59.77
X93.89Y-63.04
X96.4Y-83.54
X96.42Y-76.65
X96.43Y-80.13
X96.44Y-86.96
X96.47Y-69.96
X96.47Y-73.29
X96.48Y-59.84
X96.51Y-63.28
X96.54Y-66.67
X106.56Y-83.54
X106.58Y-76.65
X106.59Y-80.13
X106.6Y-86.96
X106.63Y-69.96
X106.63Y-73.29
X106.64Y-59.84
X106.67Y-63.28
X106.7Y-66.67
T4
X52.59Y-89.65
X55.13Y-89.65
X57.67Y-89.65
X60.21Y-89.65
T5
X54.04Y-54.21
X59.04Y-54.21
X64.04Y-54.21
X93.99Y-53.87
X98.99Y-53.87
X103.99Y-53.87
T4
X74.378Y-54.485G85X74.378Y-53.285
G05
X79.013Y-54.485G85X79.013Y-53.285
G05
X83.649Y-54.485G85X83.649Y-53.285
G05
M30
