G04 #@! TF.GenerationSoftware,KiCad,Pcbnew,7.0.11+dfsg-1build4*
G04 #@! TF.CreationDate,2026-04-09T00:01:24-04:00*
G04 #@! TF.ProjectId,fuzzface,66757a7a-6661-4636-952e-6b696361645f,rev?*
G04 #@! TF.SameCoordinates,Original*
G04 #@! TF.FileFunction,Copper,L1,Top*
G04 #@! TF.FilePolarity,Positive*
%FSLAX46Y46*%
G04 Gerber Fmt 4.6, Leading zero omitted, Abs format (unit mm)*
G04 Created by KiCad (PCBNEW 7.0.11+dfsg-1build4) date 2026-04-09 00:01:24*
%MOMM*%
%LPD*%
G01*
G04 APERTURE LIST*
G04 #@! TA.AperFunction,ComponentPad*
%ADD10R,1.700000X1.700000*%
G04 #@! TD*
G04 #@! TA.AperFunction,ComponentPad*
%ADD11O,1.700000X1.700000*%
G04 #@! TD*
G04 #@! TA.AperFunction,ComponentPad*
%ADD12C,1.600000*%
G04 #@! TD*
G04 #@! TA.AperFunction,ComponentPad*
%ADD13O,1.600000X1.600000*%
G04 #@! TD*
G04 #@! TA.AperFunction,ComponentPad*
%ADD14C,2.540000*%
G04 #@! TD*
G04 #@! TA.AperFunction,ComponentPad*
%ADD15R,1.560000X1.560000*%
G04 #@! TD*
G04 #@! TA.AperFunction,ComponentPad*
%ADD16C,1.560000*%
G04 #@! TD*
G04 #@! TA.AperFunction,ComponentPad*
%ADD17C,1.200000*%
G04 #@! TD*
G04 #@! TA.AperFunction,Conductor*
%ADD18C,0.250000*%
G04 #@! TD*
G04 APERTURE END LIST*
D10*
X120401000Y-124968000D03*
D11*
X122941000Y-124968000D03*
X125481000Y-124968000D03*
X128021000Y-124968000D03*
D12*
X113284000Y-118618000D03*
D13*
X103124000Y-118618000D03*
D14*
X140335000Y-102870000D03*
X135255000Y-102870000D03*
X130175000Y-102870000D03*
D10*
X140290000Y-110800000D03*
D11*
X137750000Y-110800000D03*
X135210000Y-110800000D03*
D12*
X136400000Y-122100000D03*
X141400000Y-122100000D03*
D15*
X103291000Y-110790000D03*
D16*
X105791000Y-115790000D03*
X108291000Y-110790000D03*
D12*
X146350000Y-121150000D03*
X148850000Y-121150000D03*
D14*
X121285000Y-102870000D03*
X116205000Y-102870000D03*
X111125000Y-102870000D03*
D17*
X103664000Y-123952000D03*
X105664000Y-123952000D03*
D12*
X149225000Y-114046000D03*
D13*
X149225000Y-103886000D03*
D10*
X129390000Y-110900000D03*
D11*
X126850000Y-110900000D03*
X124310000Y-110900000D03*
D12*
X113284000Y-107188000D03*
D13*
X103124000Y-107188000D03*
D12*
X117856000Y-112736000D03*
X117856000Y-107736000D03*
D18*
X106077000Y-126365000D02*
X103664000Y-123952000D01*
X124084000Y-126365000D02*
X106077000Y-126365000D01*
X125481000Y-124968000D02*
X124084000Y-126365000D01*
X103124000Y-110744000D02*
X104648000Y-109220000D01*
X105791000Y-113290000D02*
X103291000Y-110790000D01*
X103124000Y-110744000D02*
X103124000Y-107188000D01*
X104648000Y-109220000D02*
X114340000Y-109220000D01*
X105791000Y-115790000D02*
X105791000Y-113290000D01*
X114340000Y-109220000D02*
X117856000Y-112736000D01*
X117856000Y-107736000D02*
X115991000Y-107736000D01*
X115991000Y-107736000D02*
X111125000Y-102870000D01*
X140406000Y-114046000D02*
X137760000Y-111400000D01*
X149225000Y-114046000D02*
X140406000Y-114046000D01*
X135128000Y-111252000D02*
X133096000Y-113284000D01*
X126850000Y-110850000D02*
X126850000Y-110894000D01*
X119126000Y-118618000D02*
X126850000Y-110894000D01*
X129284000Y-113284000D02*
X126850000Y-110850000D01*
X133096000Y-113284000D02*
X129284000Y-113284000D01*
X113284000Y-118618000D02*
X119126000Y-118618000D01*
X135255000Y-102870000D02*
X138049000Y-105664000D01*
X147447000Y-105664000D02*
X149225000Y-103886000D01*
X138049000Y-105664000D02*
X147447000Y-105664000D01*
X103124000Y-118618000D02*
X105410000Y-118618000D01*
X120401000Y-124968000D02*
X118043009Y-124968000D01*
X105410000Y-118618000D02*
X109728000Y-114300000D01*
X118043009Y-124968000D02*
X111693009Y-118618000D01*
X120401000Y-124968000D02*
X123269000Y-122100000D01*
X123269000Y-122100000D02*
X136800000Y-122100000D01*
X109728000Y-111967000D02*
X108378000Y-110617000D01*
X109728000Y-114300000D02*
X109728000Y-111967000D01*
X111693009Y-118618000D02*
X103124000Y-118618000D01*
X150650000Y-115650000D02*
X146350000Y-119950000D01*
X150650000Y-112600000D02*
X150650000Y-115650000D01*
X130175000Y-102870000D02*
X129390000Y-103655000D01*
X147150000Y-109100000D02*
X150650000Y-112600000D01*
X129446000Y-110950000D02*
X133100000Y-110950000D01*
X134950000Y-109100000D02*
X147150000Y-109100000D01*
X133100000Y-110950000D02*
X134950000Y-109100000D01*
X129390000Y-103655000D02*
X129390000Y-110894000D01*
X146350000Y-119950000D02*
X146350000Y-121150000D01*
X129390000Y-110894000D02*
X129446000Y-110950000D01*
X113284000Y-107188000D02*
X116796000Y-110700000D01*
X116796000Y-110700000D02*
X123952000Y-110700000D01*
M02*
