%TF.GenerationSoftware,KiCad,Pcbnew,7.0.11+dfsg-1build4*%
%TF.CreationDate,2026-06-23T13:20:06-04:00*%
%TF.ProjectId,fuzzface,66757a7a-6661-4636-952e-6b696361645f,rev?*%
%TF.SameCoordinates,Original*%
%TF.FileFunction,Copper,L2,Bot*%
%TF.FilePolarity,Positive*%
%FSLAX46Y46*%
G04 Gerber Fmt 4.6, Leading zero omitted, Abs format (unit mm)*
G04 Created by KiCad (PCBNEW 7.0.11+dfsg-1build4) date 2026-06-23 13:20:06*
%MOMM*%
%LPD*%
G01*
G04 APERTURE LIST*
%TA.AperFunction,ComponentPad*%
%ADD10R,1.700000X1.700000*%
%TD*%
%TA.AperFunction,ComponentPad*%
%ADD11O,1.700000X1.700000*%
%TD*%
%TA.AperFunction,ComponentPad*%
%ADD12C,1.600000*%
%TD*%
%TA.AperFunction,ComponentPad*%
%ADD13O,1.600000X1.600000*%
%TD*%
%TA.AperFunction,ComponentPad*%
%ADD14C,2.540000*%
%TD*%
%TA.AperFunction,ComponentPad*%
%ADD15R,1.560000X1.560000*%
%TD*%
%TA.AperFunction,ComponentPad*%
%ADD16C,1.560000*%
%TD*%
%TA.AperFunction,ComponentPad*%
%ADD17C,1.200000*%
%TD*%
%TA.AperFunction,Conductor*%
%ADD18C,0.250000*%
%TD*%
G04 APERTURE END LIST*
D10*
X117990000Y-121640000D03*
D11*
X120530000Y-121640000D03*
X123070000Y-121640000D03*
X125610000Y-121640000D03*
D12*
X121300000Y-115830000D03*
D13*
X111140000Y-115830000D03*
D14*
X140335000Y-102870000D03*
X135255000Y-102870000D03*
X130175000Y-102870000D03*
D10*
X140290000Y-110800000D03*
D11*
X137750000Y-110800000D03*
X135210000Y-110800000D03*
D12*
X133150000Y-119330000D03*
X138150000Y-119330000D03*
D15*
X103291000Y-110790000D03*
D16*
X105791000Y-115790000D03*
X108291000Y-110790000D03*
D12*
X143800000Y-118150000D03*
X146300000Y-118150000D03*
D14*
X121285000Y-102870000D03*
X116205000Y-102870000D03*
X111125000Y-102870000D03*
D17*
X103460000Y-120020000D03*
X105460000Y-120020000D03*
D12*
X149225000Y-114046000D03*
D13*
X149225000Y-103886000D03*
D10*
X129390000Y-110900000D03*
D11*
X126850000Y-110900000D03*
X124310000Y-110900000D03*
D12*
X113284000Y-107188000D03*
D13*
X103124000Y-107188000D03*
D12*
X117856000Y-112736000D03*
X117856000Y-107736000D03*
D18*
X137760000Y-111400000D02*
X137760000Y-116920000D01*
X137760000Y-116920000D02*
X130530000Y-124150000D01*
X130530000Y-124150000D02*
X110339000Y-124150000D01*
X110339000Y-124150000D02*
X106209000Y-120020000D01*
X106209000Y-120020000D02*
X105460000Y-120020000D01*
X120530000Y-121640000D02*
X115200000Y-116310000D01*
X115200000Y-116310000D02*
X115200000Y-103875000D01*
X115200000Y-103875000D02*
X116205000Y-102870000D01*
%TA.AperFunction,Conductor*%
G36*
X151641544Y-100280035D02*
G01*
X151688068Y-100333664D01*
X151699484Y-100386586D01*
X151600510Y-124684561D01*
X151580231Y-124752600D01*
X151526386Y-124798874D01*
X151474560Y-124810048D01*
X131067360Y-124818015D01*
X130999232Y-124798040D01*
X130952718Y-124744402D01*
X130942587Y-124674132D01*
X130970224Y-124611703D01*
X130995302Y-124581389D01*
X131003272Y-124572630D01*
X136664650Y-118911252D01*
X136726959Y-118877229D01*
X136797774Y-118882294D01*
X136854610Y-118924841D01*
X136879421Y-118991361D01*
X136875449Y-119032960D01*
X136856951Y-119101995D01*
X136837004Y-119330000D01*
X136856951Y-119558002D01*
X136916186Y-119779068D01*
X136916188Y-119779073D01*
X137012913Y-119986501D01*
X137062898Y-120057888D01*
X137062900Y-120057888D01*
X137751272Y-119369516D01*
X137764835Y-119455148D01*
X137822359Y-119568045D01*
X137911955Y-119657641D01*
X138024852Y-119715165D01*
X138110482Y-119728727D01*
X137422110Y-120417098D01*
X137422110Y-120417100D01*
X137493498Y-120467086D01*
X137700926Y-120563811D01*
X137700931Y-120563813D01*
X137921999Y-120623048D01*
X137921995Y-120623048D01*
X138150000Y-120642995D01*
X138378002Y-120623048D01*
X138599068Y-120563813D01*
X138599073Y-120563811D01*
X138806497Y-120467088D01*
X138877888Y-120417099D01*
X138877888Y-120417097D01*
X138189518Y-119728727D01*
X138275148Y-119715165D01*
X138388045Y-119657641D01*
X138477641Y-119568045D01*
X138535165Y-119455148D01*
X138548727Y-119369518D01*
X139237097Y-120057888D01*
X139237099Y-120057888D01*
X139287088Y-119986497D01*
X139383811Y-119779073D01*
X139383813Y-119779068D01*
X139443048Y-119558002D01*
X139462995Y-119330000D01*
X139443048Y-119101997D01*
X139383813Y-118880931D01*
X139383811Y-118880926D01*
X139287086Y-118673498D01*
X139237100Y-118602110D01*
X139237098Y-118602110D01*
X138548727Y-119290481D01*
X138535165Y-119204852D01*
X138477641Y-119091955D01*
X138388045Y-119002359D01*
X138275148Y-118944835D01*
X138189516Y-118931272D01*
X138877888Y-118242899D01*
X138877888Y-118242898D01*
X138806501Y-118192913D01*
X138714474Y-118150000D01*
X142486502Y-118150000D01*
X142506457Y-118378087D01*
X142533133Y-118477641D01*
X142565715Y-118599240D01*
X142565717Y-118599246D01*
X142662477Y-118806749D01*
X142748778Y-118930000D01*
X142793802Y-118994300D01*
X142955700Y-119156198D01*
X143143251Y-119287523D01*
X143350757Y-119384284D01*
X143571913Y-119443543D01*
X143800000Y-119463498D01*
X144028087Y-119443543D01*
X144249243Y-119384284D01*
X144456749Y-119287523D01*
X144644300Y-119156198D01*
X144806198Y-118994300D01*
X144937523Y-118806749D01*
X144937523Y-118806748D01*
X144937525Y-118806746D01*
X144940274Y-118801985D01*
X144942082Y-118803028D01*
X144982990Y-118756561D01*
X145051265Y-118737095D01*
X145119227Y-118757631D01*
X145158349Y-118802779D01*
X145160161Y-118801734D01*
X145162913Y-118806501D01*
X145212899Y-118877888D01*
X145901272Y-118189516D01*
X145914835Y-118275148D01*
X145972359Y-118388045D01*
X146061955Y-118477641D01*
X146174852Y-118535165D01*
X146260482Y-118548727D01*
X145572110Y-119237098D01*
X145572110Y-119237100D01*
X145643498Y-119287086D01*
X145850926Y-119383811D01*
X145850931Y-119383813D01*
X146071999Y-119443048D01*
X146071995Y-119443048D01*
X146300000Y-119462995D01*
X146528002Y-119443048D01*
X146749068Y-119383813D01*
X146749073Y-119383811D01*
X146956497Y-119287088D01*
X147027888Y-119237099D01*
X147027888Y-119237097D01*
X146339518Y-118548727D01*
X146425148Y-118535165D01*
X146538045Y-118477641D01*
X146627641Y-118388045D01*
X146685165Y-118275148D01*
X146698727Y-118189518D01*
X147387097Y-118877888D01*
X147387099Y-118877888D01*
X147437088Y-118806497D01*
X147533811Y-118599073D01*
X147533813Y-118599068D01*
X147593048Y-118378002D01*
X147612995Y-118150000D01*
X147593048Y-117921997D01*
X147533813Y-117700931D01*
X147533811Y-117700926D01*
X147437086Y-117493498D01*
X147387100Y-117422110D01*
X147387098Y-117422110D01*
X146698727Y-118110481D01*
X146685165Y-118024852D01*
X146627641Y-117911955D01*
X146538045Y-117822359D01*
X146425148Y-117764835D01*
X146339517Y-117751272D01*
X147027888Y-117062899D01*
X147027888Y-117062898D01*
X146956501Y-117012913D01*
X146749073Y-116916188D01*
X146749068Y-116916186D01*
X146528000Y-116856951D01*
X146528004Y-116856951D01*
X146300000Y-116837004D01*
X146071997Y-116856951D01*
X145850931Y-116916186D01*
X145850926Y-116916188D01*
X145643500Y-117012913D01*
X145572109Y-117062900D01*
X146260481Y-117751272D01*
X146174852Y-117764835D01*
X146061955Y-117822359D01*
X145972359Y-117911955D01*
X145914835Y-118024852D01*
X145901272Y-118110481D01*
X145212900Y-117422109D01*
X145162912Y-117493501D01*
X145160161Y-117498267D01*
X145158288Y-117497185D01*
X145117536Y-117543455D01*
X145049256Y-117562905D01*
X144981299Y-117542352D01*
X144942018Y-117497008D01*
X144940274Y-117498015D01*
X144937525Y-117493253D01*
X144806200Y-117305703D01*
X144806195Y-117305697D01*
X144644302Y-117143804D01*
X144644296Y-117143799D01*
X144456749Y-117012477D01*
X144249246Y-116915717D01*
X144249240Y-116915715D01*
X144131546Y-116884179D01*
X144028087Y-116856457D01*
X143800000Y-116836502D01*
X143571913Y-116856457D01*
X143350759Y-116915715D01*
X143350753Y-116915717D01*
X143143250Y-117012477D01*
X142955703Y-117143799D01*
X142955697Y-117143804D01*
X142793804Y-117305697D01*
X142793799Y-117305703D01*
X142662477Y-117493250D01*
X142565717Y-117700753D01*
X142565715Y-117700759D01*
X142518040Y-117878686D01*
X142506457Y-117921913D01*
X142486502Y-118150000D01*
X138714474Y-118150000D01*
X138599073Y-118096188D01*
X138599068Y-118096186D01*
X138378000Y-118036951D01*
X138378004Y-118036951D01*
X138150000Y-118017004D01*
X137921995Y-118036951D01*
X137852961Y-118055449D01*
X137781984Y-118053759D01*
X137723189Y-118013964D01*
X137695242Y-117948699D01*
X137707016Y-117878686D01*
X137731253Y-117844650D01*
X138148660Y-117427243D01*
X138161098Y-117417280D01*
X138160910Y-117417053D01*
X138167016Y-117412001D01*
X138167015Y-117412001D01*
X138167018Y-117412000D01*
X138213661Y-117362328D01*
X138216351Y-117359552D01*
X138236135Y-117339770D01*
X138238614Y-117336573D01*
X138246311Y-117327559D01*
X138276586Y-117295321D01*
X138286346Y-117277565D01*
X138297195Y-117261050D01*
X138309614Y-117245041D01*
X138327179Y-117204446D01*
X138332384Y-117193821D01*
X138353695Y-117155060D01*
X138358733Y-117135434D01*
X138365137Y-117116732D01*
X138373180Y-117098147D01*
X138373179Y-117098147D01*
X138373181Y-117098145D01*
X138380096Y-117054481D01*
X138382504Y-117042852D01*
X138393500Y-117000030D01*
X138393500Y-116979775D01*
X138395051Y-116960063D01*
X138398220Y-116940057D01*
X138394059Y-116896036D01*
X138393500Y-116884179D01*
X138393500Y-114046000D01*
X147911502Y-114046000D01*
X147931457Y-114274086D01*
X147990715Y-114495240D01*
X147990717Y-114495246D01*
X148037567Y-114595716D01*
X148087477Y-114702749D01*
X148218802Y-114890300D01*
X148380700Y-115052198D01*
X148568251Y-115183523D01*
X148775757Y-115280284D01*
X148996913Y-115339543D01*
X149225000Y-115359498D01*
X149453087Y-115339543D01*
X149674243Y-115280284D01*
X149881749Y-115183523D01*
X150069300Y-115052198D01*
X150231198Y-114890300D01*
X150362523Y-114702749D01*
X150459284Y-114495243D01*
X150518543Y-114274087D01*
X150538498Y-114046000D01*
X150518543Y-113817913D01*
X150459284Y-113596757D01*
X150362523Y-113389251D01*
X150231198Y-113201700D01*
X150069300Y-113039802D01*
X149881749Y-112908477D01*
X149674246Y-112811717D01*
X149674240Y-112811715D01*
X149580771Y-112786670D01*
X149453087Y-112752457D01*
X149225000Y-112732502D01*
X148996913Y-112752457D01*
X148775759Y-112811715D01*
X148775753Y-112811717D01*
X148568250Y-112908477D01*
X148380703Y-113039799D01*
X148380697Y-113039804D01*
X148218804Y-113201697D01*
X148218799Y-113201703D01*
X148087477Y-113389250D01*
X147990717Y-113596753D01*
X147990715Y-113596759D01*
X147931457Y-113817913D01*
X147911502Y-114046000D01*
X138393500Y-114046000D01*
X138393500Y-112071509D01*
X138413502Y-112003388D01*
X138459530Y-111960695D01*
X138495576Y-111941189D01*
X138673240Y-111802906D01*
X138734626Y-111736222D01*
X138795476Y-111699654D01*
X138866441Y-111701787D01*
X138924986Y-111741949D01*
X138945380Y-111777529D01*
X138989553Y-111895961D01*
X138989555Y-111895965D01*
X139077095Y-112012904D01*
X139194034Y-112100444D01*
X139330906Y-112151494D01*
X139391402Y-112157999D01*
X139391415Y-112158000D01*
X140036000Y-112158000D01*
X140036000Y-111233674D01*
X140147685Y-111284680D01*
X140254237Y-111300000D01*
X140325763Y-111300000D01*
X140432315Y-111284680D01*
X140544000Y-111233674D01*
X140544000Y-112158000D01*
X141188585Y-112158000D01*
X141188597Y-112157999D01*
X141249093Y-112151494D01*
X141385964Y-112100444D01*
X141385965Y-112100444D01*
X141502904Y-112012904D01*
X141590444Y-111895965D01*
X141590444Y-111895964D01*
X141641494Y-111759093D01*
X141647999Y-111698597D01*
X141648000Y-111698585D01*
X141648000Y-111054000D01*
X140721116Y-111054000D01*
X140749493Y-111009844D01*
X140790000Y-110871889D01*
X140790000Y-110728111D01*
X140749493Y-110590156D01*
X140721116Y-110546000D01*
X141648000Y-110546000D01*
X141648000Y-109901414D01*
X141647999Y-109901402D01*
X141641494Y-109840906D01*
X141590444Y-109704035D01*
X141590444Y-109704034D01*
X141502904Y-109587095D01*
X141385965Y-109499555D01*
X141249093Y-109448505D01*
X141188597Y-109442000D01*
X140544000Y-109442000D01*
X140544000Y-110366325D01*
X140432315Y-110315320D01*
X140325763Y-110300000D01*
X140254237Y-110300000D01*
X140147685Y-110315320D01*
X140036000Y-110366325D01*
X140036000Y-109442000D01*
X139391402Y-109442000D01*
X139330906Y-109448505D01*
X139194035Y-109499555D01*
X139194034Y-109499555D01*
X139077095Y-109587095D01*
X138989555Y-109704034D01*
X138989553Y-109704039D01*
X138945380Y-109822470D01*
X138902833Y-109879306D01*
X138836313Y-109904116D01*
X138766939Y-109889024D01*
X138734626Y-109863777D01*
X138673240Y-109797094D01*
X138673239Y-109797093D01*
X138673237Y-109797091D01*
X138553679Y-109704035D01*
X138495576Y-109658811D01*
X138297574Y-109551658D01*
X138297572Y-109551657D01*
X138297571Y-109551656D01*
X138084639Y-109478557D01*
X138084630Y-109478555D01*
X138040476Y-109471187D01*
X137862569Y-109441500D01*
X137637431Y-109441500D01*
X137489211Y-109466233D01*
X137415369Y-109478555D01*
X137415360Y-109478557D01*
X137202428Y-109551656D01*
X137202426Y-109551658D01*
X137004426Y-109658810D01*
X137004424Y-109658811D01*
X136826762Y-109797091D01*
X136674279Y-109962729D01*
X136585483Y-110098643D01*
X136531479Y-110144731D01*
X136461131Y-110154306D01*
X136396774Y-110124329D01*
X136374517Y-110098643D01*
X136285720Y-109962729D01*
X136156600Y-109822470D01*
X136133240Y-109797094D01*
X136133239Y-109797093D01*
X136133237Y-109797091D01*
X136013679Y-109704035D01*
X135955576Y-109658811D01*
X135757574Y-109551658D01*
X135757572Y-109551657D01*
X135757571Y-109551656D01*
X135544639Y-109478557D01*
X135544630Y-109478555D01*
X135500476Y-109471187D01*
X135322569Y-109441500D01*
X135097431Y-109441500D01*
X134949211Y-109466233D01*
X134875369Y-109478555D01*
X134875360Y-109478557D01*
X134662428Y-109551656D01*
X134662426Y-109551658D01*
X134464426Y-109658810D01*
X134464424Y-109658811D01*
X134286762Y-109797091D01*
X134134279Y-109962729D01*
X134134275Y-109962734D01*
X134011141Y-110151206D01*
X133920703Y-110357386D01*
X133920702Y-110357387D01*
X133865437Y-110575624D01*
X133865436Y-110575630D01*
X133865436Y-110575632D01*
X133846844Y-110800000D01*
X133864626Y-111014598D01*
X133865437Y-111024375D01*
X133920702Y-111242612D01*
X133920703Y-111242613D01*
X133920704Y-111242616D01*
X133999609Y-111422502D01*
X134011141Y-111448793D01*
X134134275Y-111637265D01*
X134134279Y-111637270D01*
X134246427Y-111759093D01*
X134284146Y-111800067D01*
X134286762Y-111802908D01*
X134303845Y-111816204D01*
X134464424Y-111941189D01*
X134662426Y-112048342D01*
X134662427Y-112048342D01*
X134662428Y-112048343D01*
X134764608Y-112083421D01*
X134875365Y-112121444D01*
X135097431Y-112158500D01*
X135097435Y-112158500D01*
X135322565Y-112158500D01*
X135322569Y-112158500D01*
X135544635Y-112121444D01*
X135757574Y-112048342D01*
X135955576Y-111941189D01*
X136133240Y-111802906D01*
X136285722Y-111637268D01*
X136374518Y-111501354D01*
X136428520Y-111455268D01*
X136498868Y-111445692D01*
X136563225Y-111475669D01*
X136585480Y-111501353D01*
X136618607Y-111552058D01*
X136674275Y-111637265D01*
X136674279Y-111637270D01*
X136786427Y-111759093D01*
X136824146Y-111800067D01*
X136826762Y-111802908D01*
X136843845Y-111816204D01*
X137004424Y-111941189D01*
X137060468Y-111971518D01*
X137110859Y-112021530D01*
X137126500Y-112082332D01*
X137126500Y-116605405D01*
X137106498Y-116673526D01*
X137089595Y-116694500D01*
X134648290Y-119135804D01*
X134585978Y-119169830D01*
X134515162Y-119164765D01*
X134458327Y-119122218D01*
X134437490Y-119079325D01*
X134384284Y-118880757D01*
X134287523Y-118673251D01*
X134156198Y-118485700D01*
X133994300Y-118323802D01*
X133878757Y-118242898D01*
X133806749Y-118192477D01*
X133599246Y-118095717D01*
X133599240Y-118095715D01*
X133505771Y-118070670D01*
X133378087Y-118036457D01*
X133150000Y-118016502D01*
X132921913Y-118036457D01*
X132700759Y-118095715D01*
X132700753Y-118095717D01*
X132493250Y-118192477D01*
X132305703Y-118323799D01*
X132305697Y-118323804D01*
X132143804Y-118485697D01*
X132143799Y-118485703D01*
X132012477Y-118673250D01*
X131915717Y-118880753D01*
X131915715Y-118880759D01*
X131877478Y-119023461D01*
X131856457Y-119101913D01*
X131836502Y-119330000D01*
X131856457Y-119558087D01*
X131915716Y-119779243D01*
X132012477Y-119986749D01*
X132143802Y-120174300D01*
X132305700Y-120336198D01*
X132493251Y-120467523D01*
X132700757Y-120564284D01*
X132899321Y-120617489D01*
X132959942Y-120654440D01*
X132990963Y-120718300D01*
X132982535Y-120788795D01*
X132955803Y-120828290D01*
X130304500Y-123479595D01*
X130242188Y-123513620D01*
X130215405Y-123516500D01*
X110653594Y-123516500D01*
X110585473Y-123496498D01*
X110564499Y-123479595D01*
X108653015Y-121568111D01*
X106716244Y-119631339D01*
X106706279Y-119618901D01*
X106706052Y-119619090D01*
X106701001Y-119612984D01*
X106701000Y-119612982D01*
X106651348Y-119566356D01*
X106648505Y-119563600D01*
X106628777Y-119543871D01*
X106628771Y-119543866D01*
X106625567Y-119541380D01*
X106616556Y-119533683D01*
X106584325Y-119503417D01*
X106584319Y-119503413D01*
X106566563Y-119493651D01*
X106550047Y-119482802D01*
X106534041Y-119470386D01*
X106493464Y-119452827D01*
X106482807Y-119447605D01*
X106444063Y-119426306D01*
X106444056Y-119426303D01*
X106432972Y-119423457D01*
X106371967Y-119387140D01*
X106363761Y-119377349D01*
X106282702Y-119270009D01*
X106130883Y-119131608D01*
X105956223Y-119023463D01*
X105956222Y-119023462D01*
X105956218Y-119023460D01*
X105838867Y-118977998D01*
X105764656Y-118949249D01*
X105714170Y-118939811D01*
X105562718Y-118911500D01*
X105357282Y-118911500D01*
X105258317Y-118930000D01*
X105155343Y-118949249D01*
X105006921Y-119006748D01*
X104963782Y-119023460D01*
X104963781Y-119023460D01*
X104963780Y-119023461D01*
X104963776Y-119023463D01*
X104789116Y-119131608D01*
X104637297Y-119270009D01*
X104560550Y-119371640D01*
X104503536Y-119413948D01*
X104432700Y-119418715D01*
X104370531Y-119384428D01*
X104359450Y-119371640D01*
X104282702Y-119270009D01*
X104130883Y-119131608D01*
X103956223Y-119023463D01*
X103956222Y-119023462D01*
X103956218Y-119023460D01*
X103838867Y-118977998D01*
X103764656Y-118949249D01*
X103714170Y-118939811D01*
X103562718Y-118911500D01*
X103357282Y-118911500D01*
X103258317Y-118930000D01*
X103155343Y-118949249D01*
X103006921Y-119006748D01*
X102963782Y-119023460D01*
X102963781Y-119023460D01*
X102963780Y-119023461D01*
X102963776Y-119023463D01*
X102789116Y-119131608D01*
X102637297Y-119270009D01*
X102513497Y-119433949D01*
X102513493Y-119433954D01*
X102421929Y-119617839D01*
X102421923Y-119617855D01*
X102365706Y-119815437D01*
X102346751Y-120020000D01*
X102365706Y-120224562D01*
X102421923Y-120422144D01*
X102421929Y-120422160D01*
X102513493Y-120606045D01*
X102513497Y-120606050D01*
X102637297Y-120769990D01*
X102789116Y-120908391D01*
X102837975Y-120938643D01*
X102963782Y-121016540D01*
X103155345Y-121090751D01*
X103357282Y-121128500D01*
X103357285Y-121128500D01*
X103562715Y-121128500D01*
X103562718Y-121128500D01*
X103764655Y-121090751D01*
X103956218Y-121016540D01*
X104130882Y-120908392D01*
X104282701Y-120769991D01*
X104321736Y-120718300D01*
X104359450Y-120668359D01*
X104416463Y-120626052D01*
X104487300Y-120621284D01*
X104549469Y-120655570D01*
X104560550Y-120668359D01*
X104637297Y-120769990D01*
X104789116Y-120908391D01*
X104837975Y-120938643D01*
X104963782Y-121016540D01*
X105155345Y-121090751D01*
X105357282Y-121128500D01*
X105357285Y-121128500D01*
X105562715Y-121128500D01*
X105562718Y-121128500D01*
X105764655Y-121090751D01*
X105956218Y-121016540D01*
X106082025Y-120938643D01*
X106089634Y-120933932D01*
X106158081Y-120915077D01*
X106225857Y-120936220D01*
X106245059Y-120951963D01*
X108073862Y-122780767D01*
X109831755Y-124538660D01*
X109841720Y-124551097D01*
X109841947Y-124550910D01*
X109846999Y-124557017D01*
X109896649Y-124603641D01*
X109899491Y-124606396D01*
X109904312Y-124611217D01*
X109938338Y-124673529D01*
X109933273Y-124744344D01*
X109890726Y-124801180D01*
X109824206Y-124825991D01*
X109815266Y-124826312D01*
X100495741Y-124829950D01*
X100427613Y-124809975D01*
X100381099Y-124756337D01*
X100369692Y-124704260D01*
X100347897Y-115790000D01*
X104497578Y-115790000D01*
X104517228Y-116014600D01*
X104535958Y-116084500D01*
X104575580Y-116232374D01*
X104575582Y-116232379D01*
X104670865Y-116436714D01*
X104800176Y-116621391D01*
X104800185Y-116621401D01*
X104959598Y-116780814D01*
X104959608Y-116780823D01*
X105144285Y-116910134D01*
X105144288Y-116910135D01*
X105144289Y-116910136D01*
X105348624Y-117005419D01*
X105566400Y-117063772D01*
X105791000Y-117083422D01*
X106015600Y-117063772D01*
X106233376Y-117005419D01*
X106437711Y-116910136D01*
X106457848Y-116896036D01*
X106622391Y-116780823D01*
X106622393Y-116780820D01*
X106622396Y-116780819D01*
X106781819Y-116621396D01*
X106784466Y-116617617D01*
X106911134Y-116436714D01*
X106911134Y-116436713D01*
X106911136Y-116436711D01*
X107006419Y-116232376D01*
X107064772Y-116014600D01*
X107080922Y-115830000D01*
X109826502Y-115830000D01*
X109846457Y-116058087D01*
X109880670Y-116185771D01*
X109905715Y-116279240D01*
X109905717Y-116279246D01*
X110002477Y-116486749D01*
X110096761Y-116621401D01*
X110133802Y-116674300D01*
X110295700Y-116836198D01*
X110483251Y-116967523D01*
X110690757Y-117064284D01*
X110911913Y-117123543D01*
X111140000Y-117143498D01*
X111368087Y-117123543D01*
X111589243Y-117064284D01*
X111796749Y-116967523D01*
X111984300Y-116836198D01*
X112146198Y-116674300D01*
X112277523Y-116486749D01*
X112374284Y-116279243D01*
X112433543Y-116058087D01*
X112453498Y-115830000D01*
X112433543Y-115601913D01*
X112374284Y-115380757D01*
X112277523Y-115173251D01*
X112146198Y-114985700D01*
X111984300Y-114823802D01*
X111949143Y-114799185D01*
X111796749Y-114692477D01*
X111589246Y-114595717D01*
X111589240Y-114595715D01*
X111495771Y-114570670D01*
X111368087Y-114536457D01*
X111140000Y-114516502D01*
X110911913Y-114536457D01*
X110690759Y-114595715D01*
X110690753Y-114595717D01*
X110483250Y-114692477D01*
X110295703Y-114823799D01*
X110295697Y-114823804D01*
X110133804Y-114985697D01*
X110133799Y-114985703D01*
X110002477Y-115173250D01*
X109905717Y-115380753D01*
X109905716Y-115380757D01*
X109846457Y-115601913D01*
X109826502Y-115830000D01*
X107080922Y-115830000D01*
X107084422Y-115790000D01*
X107064772Y-115565400D01*
X107006419Y-115347624D01*
X106911136Y-115143289D01*
X106911135Y-115143288D01*
X106911134Y-115143285D01*
X106781823Y-114958608D01*
X106781814Y-114958598D01*
X106622401Y-114799185D01*
X106622391Y-114799176D01*
X106437714Y-114669865D01*
X106233379Y-114574582D01*
X106233374Y-114574580D01*
X106132304Y-114547498D01*
X106015600Y-114516228D01*
X105791000Y-114496578D01*
X105566400Y-114516228D01*
X105508048Y-114531863D01*
X105348625Y-114574580D01*
X105348620Y-114574582D01*
X105144285Y-114669865D01*
X104959608Y-114799176D01*
X104959598Y-114799185D01*
X104800185Y-114958598D01*
X104800176Y-114958608D01*
X104670865Y-115143285D01*
X104575582Y-115347620D01*
X104575580Y-115347625D01*
X104566702Y-115380759D01*
X104517228Y-115565400D01*
X104497578Y-115790000D01*
X100347897Y-115790000D01*
X100337698Y-111618649D01*
X102002500Y-111618649D01*
X102009009Y-111679196D01*
X102009011Y-111679204D01*
X102060110Y-111816202D01*
X102060112Y-111816207D01*
X102147738Y-111933261D01*
X102264792Y-112020887D01*
X102264794Y-112020888D01*
X102264796Y-112020889D01*
X102319219Y-112041188D01*
X102401795Y-112071988D01*
X102401803Y-112071990D01*
X102462350Y-112078499D01*
X102462355Y-112078499D01*
X102462362Y-112078500D01*
X102462368Y-112078500D01*
X104119632Y-112078500D01*
X104119638Y-112078500D01*
X104119645Y-112078499D01*
X104119649Y-112078499D01*
X104180196Y-112071990D01*
X104180199Y-112071989D01*
X104180201Y-112071989D01*
X104317204Y-112020889D01*
X104337870Y-112005419D01*
X104434261Y-111933261D01*
X104521887Y-111816207D01*
X104521887Y-111816206D01*
X104521889Y-111816204D01*
X104572989Y-111679201D01*
X104577498Y-111637265D01*
X104579499Y-111618649D01*
X104579500Y-111618632D01*
X104579500Y-110790000D01*
X106997578Y-110790000D01*
X107017228Y-111014600D01*
X107046640Y-111124368D01*
X107075580Y-111232374D01*
X107075582Y-111232379D01*
X107170865Y-111436714D01*
X107300176Y-111621391D01*
X107300185Y-111621401D01*
X107459598Y-111780814D01*
X107459608Y-111780823D01*
X107644285Y-111910134D01*
X107644288Y-111910135D01*
X107644289Y-111910136D01*
X107848624Y-112005419D01*
X108066400Y-112063772D01*
X108291000Y-112083422D01*
X108515600Y-112063772D01*
X108733376Y-112005419D01*
X108937711Y-111910136D01*
X108948037Y-111902906D01*
X109122391Y-111780823D01*
X109122393Y-111780820D01*
X109122396Y-111780819D01*
X109281819Y-111621396D01*
X109283743Y-111618649D01*
X109411134Y-111436714D01*
X109411134Y-111436713D01*
X109411136Y-111436711D01*
X109506419Y-111232376D01*
X109564772Y-111014600D01*
X109584422Y-110790000D01*
X109564772Y-110565400D01*
X109506419Y-110347624D01*
X109411136Y-110143289D01*
X109411135Y-110143288D01*
X109411134Y-110143285D01*
X109281823Y-109958608D01*
X109281814Y-109958598D01*
X109122401Y-109799185D01*
X109122391Y-109799176D01*
X108937714Y-109669865D01*
X108733379Y-109574582D01*
X108733374Y-109574580D01*
X108609916Y-109541500D01*
X108515600Y-109516228D01*
X108291000Y-109496578D01*
X108066400Y-109516228D01*
X108008048Y-109531863D01*
X107848625Y-109574580D01*
X107848620Y-109574582D01*
X107644285Y-109669865D01*
X107459608Y-109799176D01*
X107459598Y-109799185D01*
X107300185Y-109958598D01*
X107300176Y-109958608D01*
X107170865Y-110143285D01*
X107075582Y-110347620D01*
X107075580Y-110347625D01*
X107057958Y-110413393D01*
X107017228Y-110565400D01*
X106997578Y-110790000D01*
X104579500Y-110790000D01*
X104579500Y-109961367D01*
X104579499Y-109961350D01*
X104572990Y-109900803D01*
X104572988Y-109900795D01*
X104536807Y-109803792D01*
X104521889Y-109763796D01*
X104521888Y-109763794D01*
X104521887Y-109763792D01*
X104434261Y-109646738D01*
X104317207Y-109559112D01*
X104317202Y-109559110D01*
X104180204Y-109508011D01*
X104180196Y-109508009D01*
X104119649Y-109501500D01*
X104119638Y-109501500D01*
X102462362Y-109501500D01*
X102462350Y-109501500D01*
X102401803Y-109508009D01*
X102401795Y-109508011D01*
X102264797Y-109559110D01*
X102264792Y-109559112D01*
X102147738Y-109646738D01*
X102060112Y-109763792D01*
X102060110Y-109763797D01*
X102009011Y-109900795D01*
X102009009Y-109900803D01*
X102002500Y-109961350D01*
X102002500Y-111618649D01*
X100337698Y-111618649D01*
X100326865Y-107188000D01*
X101810502Y-107188000D01*
X101830457Y-107416086D01*
X101889715Y-107637240D01*
X101889717Y-107637246D01*
X101986477Y-107844749D01*
X102070038Y-107964087D01*
X102117802Y-108032300D01*
X102279700Y-108194198D01*
X102467251Y-108325523D01*
X102674757Y-108422284D01*
X102895913Y-108481543D01*
X103124000Y-108501498D01*
X103352087Y-108481543D01*
X103573243Y-108422284D01*
X103780749Y-108325523D01*
X103968300Y-108194198D01*
X104130198Y-108032300D01*
X104261523Y-107844749D01*
X104358284Y-107637243D01*
X104417543Y-107416087D01*
X104437498Y-107188000D01*
X111970502Y-107188000D01*
X111990457Y-107416086D01*
X112049715Y-107637240D01*
X112049717Y-107637246D01*
X112146477Y-107844749D01*
X112230038Y-107964087D01*
X112277802Y-108032300D01*
X112439700Y-108194198D01*
X112627251Y-108325523D01*
X112834757Y-108422284D01*
X113055913Y-108481543D01*
X113284000Y-108501498D01*
X113512087Y-108481543D01*
X113733243Y-108422284D01*
X113940749Y-108325523D01*
X114128300Y-108194198D01*
X114290198Y-108032300D01*
X114337287Y-107965049D01*
X114392744Y-107920722D01*
X114463363Y-107913413D01*
X114526724Y-107945444D01*
X114562709Y-108006645D01*
X114566500Y-108037321D01*
X114566500Y-116226146D01*
X114564751Y-116241988D01*
X114565044Y-116242016D01*
X114564298Y-116249907D01*
X114566438Y-116317984D01*
X114566500Y-116321943D01*
X114566500Y-116349851D01*
X114566501Y-116349869D01*
X114567007Y-116353877D01*
X114567937Y-116365696D01*
X114569326Y-116409888D01*
X114569327Y-116409893D01*
X114574977Y-116429339D01*
X114578986Y-116448697D01*
X114581525Y-116468793D01*
X114581526Y-116468800D01*
X114597800Y-116509903D01*
X114601644Y-116521129D01*
X114613982Y-116563593D01*
X114624294Y-116581031D01*
X114632988Y-116598779D01*
X114640444Y-116617609D01*
X114640450Y-116617620D01*
X114666432Y-116653381D01*
X114672949Y-116663301D01*
X114695458Y-116701362D01*
X114695459Y-116701363D01*
X114695461Y-116701366D01*
X114709779Y-116715684D01*
X114722617Y-116730714D01*
X114734526Y-116747104D01*
X114734530Y-116747109D01*
X114768598Y-116775292D01*
X114777378Y-116783282D01*
X118060501Y-120066405D01*
X118094527Y-120128717D01*
X118089462Y-120199532D01*
X118046915Y-120256368D01*
X117980395Y-120281179D01*
X117971406Y-120281500D01*
X117091350Y-120281500D01*
X117030803Y-120288009D01*
X117030795Y-120288011D01*
X116893797Y-120339110D01*
X116893792Y-120339112D01*
X116776738Y-120426738D01*
X116689112Y-120543792D01*
X116689110Y-120543797D01*
X116638011Y-120680795D01*
X116638009Y-120680803D01*
X116631500Y-120741350D01*
X116631500Y-122538649D01*
X116638009Y-122599196D01*
X116638011Y-122599204D01*
X116689110Y-122736202D01*
X116689112Y-122736207D01*
X116776738Y-122853261D01*
X116893792Y-122940887D01*
X116893794Y-122940888D01*
X116893796Y-122940889D01*
X116947600Y-122960957D01*
X117030795Y-122991988D01*
X117030803Y-122991990D01*
X117091350Y-122998499D01*
X117091355Y-122998499D01*
X117091362Y-122998500D01*
X117091368Y-122998500D01*
X118888632Y-122998500D01*
X118888638Y-122998500D01*
X118888645Y-122998499D01*
X118888649Y-122998499D01*
X118949196Y-122991990D01*
X118949199Y-122991989D01*
X118949201Y-122991989D01*
X119086204Y-122940889D01*
X119156399Y-122888342D01*
X119203261Y-122853261D01*
X119290886Y-122736208D01*
X119290885Y-122736208D01*
X119290889Y-122736204D01*
X119334999Y-122617939D01*
X119377545Y-122561107D01*
X119444066Y-122536296D01*
X119513440Y-122551388D01*
X119545753Y-122576635D01*
X119566529Y-122599204D01*
X119606762Y-122642908D01*
X119661331Y-122685381D01*
X119784424Y-122781189D01*
X119982426Y-122888342D01*
X119982427Y-122888342D01*
X119982428Y-122888343D01*
X120094227Y-122926723D01*
X120195365Y-122961444D01*
X120417431Y-122998500D01*
X120417435Y-122998500D01*
X120642565Y-122998500D01*
X120642569Y-122998500D01*
X120864635Y-122961444D01*
X121077574Y-122888342D01*
X121275576Y-122781189D01*
X121453240Y-122642906D01*
X121605722Y-122477268D01*
X121694518Y-122341354D01*
X121748520Y-122295268D01*
X121818868Y-122285692D01*
X121883225Y-122315669D01*
X121905480Y-122341353D01*
X121938607Y-122392058D01*
X121994275Y-122477265D01*
X121994279Y-122477270D01*
X122146762Y-122642908D01*
X122201331Y-122685381D01*
X122324424Y-122781189D01*
X122522426Y-122888342D01*
X122522427Y-122888342D01*
X122522428Y-122888343D01*
X122634227Y-122926723D01*
X122735365Y-122961444D01*
X122957431Y-122998500D01*
X122957435Y-122998500D01*
X123182565Y-122998500D01*
X123182569Y-122998500D01*
X123404635Y-122961444D01*
X123617574Y-122888342D01*
X123815576Y-122781189D01*
X123993240Y-122642906D01*
X124145722Y-122477268D01*
X124234816Y-122340898D01*
X124288819Y-122294810D01*
X124359167Y-122285235D01*
X124423524Y-122315212D01*
X124445782Y-122340898D01*
X124534674Y-122476958D01*
X124687097Y-122642534D01*
X124864698Y-122780767D01*
X124864699Y-122780768D01*
X125062628Y-122887882D01*
X125062630Y-122887883D01*
X125275483Y-122960955D01*
X125275492Y-122960957D01*
X125356000Y-122974391D01*
X125356000Y-122073674D01*
X125467685Y-122124680D01*
X125574237Y-122140000D01*
X125645763Y-122140000D01*
X125752315Y-122124680D01*
X125864000Y-122073674D01*
X125864000Y-122974390D01*
X125944507Y-122960957D01*
X125944516Y-122960955D01*
X126157369Y-122887883D01*
X126157371Y-122887882D01*
X126355300Y-122780768D01*
X126355301Y-122780767D01*
X126532902Y-122642534D01*
X126685325Y-122476958D01*
X126808419Y-122288548D01*
X126898820Y-122082456D01*
X126898823Y-122082449D01*
X126946544Y-121894000D01*
X126041116Y-121894000D01*
X126069493Y-121849844D01*
X126110000Y-121711889D01*
X126110000Y-121568111D01*
X126069493Y-121430156D01*
X126041116Y-121386000D01*
X126946544Y-121386000D01*
X126946544Y-121385999D01*
X126898823Y-121197550D01*
X126898820Y-121197543D01*
X126808419Y-120991451D01*
X126685325Y-120803041D01*
X126532902Y-120637465D01*
X126355301Y-120499232D01*
X126355300Y-120499231D01*
X126157371Y-120392117D01*
X126157369Y-120392116D01*
X125944512Y-120319043D01*
X125944501Y-120319040D01*
X125864000Y-120305606D01*
X125864000Y-121206325D01*
X125752315Y-121155320D01*
X125645763Y-121140000D01*
X125574237Y-121140000D01*
X125467685Y-121155320D01*
X125356000Y-121206325D01*
X125356000Y-120305607D01*
X125355999Y-120305606D01*
X125275498Y-120319040D01*
X125275487Y-120319043D01*
X125062630Y-120392116D01*
X125062628Y-120392117D01*
X124864699Y-120499231D01*
X124864698Y-120499232D01*
X124687097Y-120637465D01*
X124534670Y-120803045D01*
X124445780Y-120939101D01*
X124391776Y-120985189D01*
X124321428Y-120994764D01*
X124257071Y-120964786D01*
X124234816Y-120939101D01*
X124162420Y-120828290D01*
X124145724Y-120802734D01*
X124145720Y-120802729D01*
X124022022Y-120668359D01*
X123993240Y-120637094D01*
X123993239Y-120637093D01*
X123993237Y-120637091D01*
X123873367Y-120543792D01*
X123815576Y-120498811D01*
X123617574Y-120391658D01*
X123617572Y-120391657D01*
X123617571Y-120391656D01*
X123404639Y-120318557D01*
X123404630Y-120318555D01*
X123327029Y-120305606D01*
X123182569Y-120281500D01*
X122957431Y-120281500D01*
X122812971Y-120305606D01*
X122735369Y-120318555D01*
X122735360Y-120318557D01*
X122522428Y-120391656D01*
X122522426Y-120391658D01*
X122324426Y-120498810D01*
X122324424Y-120498811D01*
X122146762Y-120637091D01*
X121994279Y-120802729D01*
X121905483Y-120938643D01*
X121851479Y-120984731D01*
X121781131Y-120994306D01*
X121716774Y-120964329D01*
X121694517Y-120938643D01*
X121605720Y-120802729D01*
X121482022Y-120668359D01*
X121453240Y-120637094D01*
X121453239Y-120637093D01*
X121453237Y-120637091D01*
X121333367Y-120543792D01*
X121275576Y-120498811D01*
X121077574Y-120391658D01*
X121077572Y-120391657D01*
X121077571Y-120391656D01*
X120864639Y-120318557D01*
X120864630Y-120318555D01*
X120787029Y-120305606D01*
X120642569Y-120281500D01*
X120417431Y-120281500D01*
X120306496Y-120300011D01*
X120195355Y-120318557D01*
X120192213Y-120319353D01*
X120190889Y-120319303D01*
X120190224Y-120319414D01*
X120190201Y-120319277D01*
X120121267Y-120316675D01*
X120072204Y-120286299D01*
X115870405Y-116084500D01*
X115836379Y-116022188D01*
X115833500Y-115995405D01*
X115833500Y-115830000D01*
X119986502Y-115830000D01*
X120006457Y-116058087D01*
X120040670Y-116185771D01*
X120065715Y-116279240D01*
X120065717Y-116279246D01*
X120162477Y-116486749D01*
X120256761Y-116621401D01*
X120293802Y-116674300D01*
X120455700Y-116836198D01*
X120643251Y-116967523D01*
X120850757Y-117064284D01*
X121071913Y-117123543D01*
X121300000Y-117143498D01*
X121528087Y-117123543D01*
X121749243Y-117064284D01*
X121956749Y-116967523D01*
X122144300Y-116836198D01*
X122306198Y-116674300D01*
X122437523Y-116486749D01*
X122534284Y-116279243D01*
X122593543Y-116058087D01*
X122613498Y-115830000D01*
X122593543Y-115601913D01*
X122534284Y-115380757D01*
X122437523Y-115173251D01*
X122306198Y-114985700D01*
X122144300Y-114823802D01*
X122109143Y-114799185D01*
X121956749Y-114692477D01*
X121749246Y-114595717D01*
X121749240Y-114595715D01*
X121655771Y-114570670D01*
X121528087Y-114536457D01*
X121300000Y-114516502D01*
X121071913Y-114536457D01*
X120850759Y-114595715D01*
X120850753Y-114595717D01*
X120643250Y-114692477D01*
X120455703Y-114823799D01*
X120455697Y-114823804D01*
X120293804Y-114985697D01*
X120293799Y-114985703D01*
X120162477Y-115173250D01*
X120065717Y-115380753D01*
X120065716Y-115380757D01*
X120006457Y-115601913D01*
X119986502Y-115830000D01*
X115833500Y-115830000D01*
X115833500Y-112736000D01*
X116542502Y-112736000D01*
X116562457Y-112964087D01*
X116596670Y-113091771D01*
X116621715Y-113185240D01*
X116621717Y-113185246D01*
X116629390Y-113201700D01*
X116718477Y-113392749D01*
X116849802Y-113580300D01*
X117011700Y-113742198D01*
X117199251Y-113873523D01*
X117406757Y-113970284D01*
X117627913Y-114029543D01*
X117856000Y-114049498D01*
X118084087Y-114029543D01*
X118305243Y-113970284D01*
X118512749Y-113873523D01*
X118700300Y-113742198D01*
X118862198Y-113580300D01*
X118993523Y-113392749D01*
X119090284Y-113185243D01*
X119149543Y-112964087D01*
X119169498Y-112736000D01*
X119149543Y-112507913D01*
X119090284Y-112286757D01*
X118993523Y-112079251D01*
X118862198Y-111891700D01*
X118700300Y-111729802D01*
X118657244Y-111699654D01*
X118512749Y-111598477D01*
X118305246Y-111501717D01*
X118305240Y-111501715D01*
X118208035Y-111475669D01*
X118084087Y-111442457D01*
X117856000Y-111422502D01*
X117627913Y-111442457D01*
X117406759Y-111501715D01*
X117406753Y-111501717D01*
X117199250Y-111598477D01*
X117011703Y-111729799D01*
X117011697Y-111729804D01*
X116849804Y-111891697D01*
X116849799Y-111891703D01*
X116718477Y-112079250D01*
X116621717Y-112286753D01*
X116621716Y-112286757D01*
X116562457Y-112507913D01*
X116542502Y-112736000D01*
X115833500Y-112736000D01*
X115833500Y-110900000D01*
X122946844Y-110900000D01*
X122965437Y-111124375D01*
X123020702Y-111342612D01*
X123020703Y-111342613D01*
X123020704Y-111342616D01*
X123079066Y-111475669D01*
X123111141Y-111548793D01*
X123234275Y-111737265D01*
X123234279Y-111737270D01*
X123386762Y-111902908D01*
X123396046Y-111910134D01*
X123564424Y-112041189D01*
X123762426Y-112148342D01*
X123762427Y-112148342D01*
X123762428Y-112148343D01*
X123792015Y-112158500D01*
X123975365Y-112221444D01*
X124197431Y-112258500D01*
X124197435Y-112258500D01*
X124422565Y-112258500D01*
X124422569Y-112258500D01*
X124644635Y-112221444D01*
X124857574Y-112148342D01*
X125055576Y-112041189D01*
X125233240Y-111902906D01*
X125385722Y-111737268D01*
X125474518Y-111601354D01*
X125528520Y-111555268D01*
X125598868Y-111545692D01*
X125663225Y-111575669D01*
X125685480Y-111601353D01*
X125708943Y-111637265D01*
X125774275Y-111737265D01*
X125774279Y-111737270D01*
X125926762Y-111902908D01*
X125936046Y-111910134D01*
X126104424Y-112041189D01*
X126302426Y-112148342D01*
X126302427Y-112148342D01*
X126302428Y-112148343D01*
X126332015Y-112158500D01*
X126515365Y-112221444D01*
X126737431Y-112258500D01*
X126737435Y-112258500D01*
X126962565Y-112258500D01*
X126962569Y-112258500D01*
X127184635Y-112221444D01*
X127397574Y-112148342D01*
X127595576Y-112041189D01*
X127773240Y-111902906D01*
X127834245Y-111836637D01*
X127895096Y-111800067D01*
X127966061Y-111802200D01*
X128024606Y-111842362D01*
X128045000Y-111877941D01*
X128089111Y-111996204D01*
X128089112Y-111996207D01*
X128176738Y-112113261D01*
X128293792Y-112200887D01*
X128293794Y-112200888D01*
X128293796Y-112200889D01*
X128348900Y-112221442D01*
X128430795Y-112251988D01*
X128430803Y-112251990D01*
X128491350Y-112258499D01*
X128491355Y-112258499D01*
X128491362Y-112258500D01*
X128491368Y-112258500D01*
X130288632Y-112258500D01*
X130288638Y-112258500D01*
X130288645Y-112258499D01*
X130288649Y-112258499D01*
X130349196Y-112251990D01*
X130349199Y-112251989D01*
X130349201Y-112251989D01*
X130486204Y-112200889D01*
X130556399Y-112148342D01*
X130603261Y-112113261D01*
X130690887Y-111996207D01*
X130690887Y-111996206D01*
X130690889Y-111996204D01*
X130741989Y-111859201D01*
X130743800Y-111842362D01*
X130748499Y-111798649D01*
X130748500Y-111798632D01*
X130748500Y-110001367D01*
X130748499Y-110001350D01*
X130741990Y-109940803D01*
X130741988Y-109940795D01*
X130690889Y-109803797D01*
X130690887Y-109803792D01*
X130603261Y-109686738D01*
X130486207Y-109599112D01*
X130486202Y-109599110D01*
X130349204Y-109548011D01*
X130349196Y-109548009D01*
X130288649Y-109541500D01*
X130288638Y-109541500D01*
X128491362Y-109541500D01*
X128491350Y-109541500D01*
X128430803Y-109548009D01*
X128430795Y-109548011D01*
X128293797Y-109599110D01*
X128293792Y-109599112D01*
X128176738Y-109686738D01*
X128089112Y-109803792D01*
X128089111Y-109803795D01*
X128045000Y-109922058D01*
X128002453Y-109978893D01*
X127935932Y-110003703D01*
X127866558Y-109988611D01*
X127834246Y-109963363D01*
X127773240Y-109897094D01*
X127773239Y-109897093D01*
X127773237Y-109897091D01*
X127653372Y-109803796D01*
X127595576Y-109758811D01*
X127397574Y-109651658D01*
X127397572Y-109651657D01*
X127397571Y-109651656D01*
X127184639Y-109578557D01*
X127184630Y-109578555D01*
X127140476Y-109571187D01*
X126962569Y-109541500D01*
X126737431Y-109541500D01*
X126589211Y-109566233D01*
X126515369Y-109578555D01*
X126515360Y-109578557D01*
X126302428Y-109651656D01*
X126302426Y-109651658D01*
X126205642Y-109704035D01*
X126104426Y-109758810D01*
X126104424Y-109758811D01*
X125926762Y-109897091D01*
X125774279Y-110062729D01*
X125685483Y-110198643D01*
X125631479Y-110244731D01*
X125561131Y-110254306D01*
X125496774Y-110224329D01*
X125474517Y-110198643D01*
X125385720Y-110062729D01*
X125233237Y-109897091D01*
X125113372Y-109803796D01*
X125055576Y-109758811D01*
X124857574Y-109651658D01*
X124857572Y-109651657D01*
X124857571Y-109651656D01*
X124644639Y-109578557D01*
X124644630Y-109578555D01*
X124600476Y-109571187D01*
X124422569Y-109541500D01*
X124197431Y-109541500D01*
X124049211Y-109566233D01*
X123975369Y-109578555D01*
X123975360Y-109578557D01*
X123762428Y-109651656D01*
X123762426Y-109651658D01*
X123665642Y-109704035D01*
X123564426Y-109758810D01*
X123564424Y-109758811D01*
X123386762Y-109897091D01*
X123234279Y-110062729D01*
X123234275Y-110062734D01*
X123111141Y-110251206D01*
X123020703Y-110457386D01*
X123020702Y-110457387D01*
X122965437Y-110675624D01*
X122965436Y-110675630D01*
X122965436Y-110675632D01*
X122949173Y-110871889D01*
X122946844Y-110900000D01*
X115833500Y-110900000D01*
X115833500Y-107736000D01*
X116542502Y-107736000D01*
X116562457Y-107964087D01*
X116580734Y-108032296D01*
X116621715Y-108185240D01*
X116621717Y-108185246D01*
X116687129Y-108325522D01*
X116718477Y-108392749D01*
X116849802Y-108580300D01*
X117011700Y-108742198D01*
X117199251Y-108873523D01*
X117406757Y-108970284D01*
X117627913Y-109029543D01*
X117856000Y-109049498D01*
X118084087Y-109029543D01*
X118305243Y-108970284D01*
X118512749Y-108873523D01*
X118700300Y-108742198D01*
X118862198Y-108580300D01*
X118993523Y-108392749D01*
X119090284Y-108185243D01*
X119149543Y-107964087D01*
X119169498Y-107736000D01*
X119149543Y-107507913D01*
X119090284Y-107286757D01*
X118993523Y-107079251D01*
X118862198Y-106891700D01*
X118700300Y-106729802D01*
X118512749Y-106598477D01*
X118305246Y-106501717D01*
X118305240Y-106501715D01*
X118211771Y-106476670D01*
X118084087Y-106442457D01*
X117856000Y-106422502D01*
X117627913Y-106442457D01*
X117406759Y-106501715D01*
X117406753Y-106501717D01*
X117199250Y-106598477D01*
X117011703Y-106729799D01*
X117011697Y-106729804D01*
X116849804Y-106891697D01*
X116849799Y-106891703D01*
X116718477Y-107079250D01*
X116621717Y-107286753D01*
X116621716Y-107286757D01*
X116562457Y-107507913D01*
X116542502Y-107736000D01*
X115833500Y-107736000D01*
X115833500Y-104759008D01*
X115853502Y-104690887D01*
X115907158Y-104644394D01*
X115977432Y-104634290D01*
X115978054Y-104634381D01*
X116071720Y-104648500D01*
X116071725Y-104648500D01*
X116338275Y-104648500D01*
X116338280Y-104648500D01*
X116601863Y-104608771D01*
X116601873Y-104608768D01*
X116856572Y-104530204D01*
X116856574Y-104530202D01*
X116856581Y-104530201D01*
X116856586Y-104530198D01*
X116856590Y-104530197D01*
X117096738Y-104414548D01*
X117096738Y-104414547D01*
X117096744Y-104414545D01*
X117316986Y-104264386D01*
X117512388Y-104083079D01*
X117678586Y-103874674D01*
X117811866Y-103643826D01*
X117811953Y-103643606D01*
X117893134Y-103436759D01*
X117909252Y-103395692D01*
X117968567Y-103135815D01*
X117988487Y-102870000D01*
X119502014Y-102870000D01*
X119521928Y-103135743D01*
X119581227Y-103395545D01*
X119581228Y-103395547D01*
X119678581Y-103643602D01*
X119678583Y-103643606D01*
X119811826Y-103874390D01*
X119811829Y-103874395D01*
X119860438Y-103935348D01*
X119860440Y-103935348D01*
X120642912Y-103152876D01*
X120704680Y-103270566D01*
X120817405Y-103397806D01*
X120957305Y-103494371D01*
X121002643Y-103511565D01*
X120219045Y-104295163D01*
X120219045Y-104295165D01*
X120393497Y-104414105D01*
X120393504Y-104414109D01*
X120633598Y-104529733D01*
X120633610Y-104529738D01*
X120888237Y-104608280D01*
X120888249Y-104608282D01*
X121151761Y-104648000D01*
X121418239Y-104648000D01*
X121681750Y-104608282D01*
X121681762Y-104608280D01*
X121936389Y-104529738D01*
X121936401Y-104529733D01*
X122176495Y-104414109D01*
X122350953Y-104295164D01*
X122350953Y-104295163D01*
X121567356Y-103511565D01*
X121612695Y-103494371D01*
X121752595Y-103397806D01*
X121865320Y-103270566D01*
X121927087Y-103152877D01*
X122709559Y-103935349D01*
X122758174Y-103874388D01*
X122891416Y-103643606D01*
X122891418Y-103643602D01*
X122988771Y-103395547D01*
X122988772Y-103395545D01*
X123048071Y-103135743D01*
X123067985Y-102870000D01*
X128391513Y-102870000D01*
X128411433Y-103135815D01*
X128411434Y-103135819D01*
X128470746Y-103395687D01*
X128568130Y-103643819D01*
X128568132Y-103643823D01*
X128701411Y-103874670D01*
X128701413Y-103874673D01*
X128701414Y-103874674D01*
X128867612Y-104083079D01*
X129063014Y-104264386D01*
X129063020Y-104264390D01*
X129283247Y-104414539D01*
X129283254Y-104414543D01*
X129283257Y-104414545D01*
X129421711Y-104481221D01*
X129523414Y-104530199D01*
X129523427Y-104530204D01*
X129778126Y-104608768D01*
X129778128Y-104608768D01*
X129778137Y-104608771D01*
X130041720Y-104648500D01*
X130041725Y-104648500D01*
X130308275Y-104648500D01*
X130308280Y-104648500D01*
X130571863Y-104608771D01*
X130571873Y-104608768D01*
X130826572Y-104530204D01*
X130826574Y-104530202D01*
X130826581Y-104530201D01*
X130826586Y-104530198D01*
X130826590Y-104530197D01*
X131066738Y-104414548D01*
X131066738Y-104414547D01*
X131066744Y-104414545D01*
X131286986Y-104264386D01*
X131482388Y-104083079D01*
X131648586Y-103874674D01*
X131781866Y-103643826D01*
X131781953Y-103643606D01*
X131863134Y-103436759D01*
X131879252Y-103395692D01*
X131938567Y-103135815D01*
X131958487Y-102870000D01*
X133471513Y-102870000D01*
X133491433Y-103135815D01*
X133491434Y-103135819D01*
X133550746Y-103395687D01*
X133648130Y-103643819D01*
X133648132Y-103643823D01*
X133781411Y-103874670D01*
X133781413Y-103874673D01*
X133781414Y-103874674D01*
X133947612Y-104083079D01*
X134143014Y-104264386D01*
X134143020Y-104264390D01*
X134363247Y-104414539D01*
X134363254Y-104414543D01*
X134363257Y-104414545D01*
X134501711Y-104481221D01*
X134603414Y-104530199D01*
X134603427Y-104530204D01*
X134858126Y-104608768D01*
X134858128Y-104608768D01*
X134858137Y-104608771D01*
X135121720Y-104648500D01*
X135121725Y-104648500D01*
X135388275Y-104648500D01*
X135388280Y-104648500D01*
X135651863Y-104608771D01*
X135651873Y-104608768D01*
X135906572Y-104530204D01*
X135906574Y-104530202D01*
X135906581Y-104530201D01*
X135906586Y-104530198D01*
X135906590Y-104530197D01*
X136146738Y-104414548D01*
X136146738Y-104414547D01*
X136146744Y-104414545D01*
X136366986Y-104264386D01*
X136562388Y-104083079D01*
X136728586Y-103874674D01*
X136861866Y-103643826D01*
X136861953Y-103643606D01*
X136943134Y-103436759D01*
X136959252Y-103395692D01*
X137018567Y-103135815D01*
X137038487Y-102870000D01*
X138552014Y-102870000D01*
X138571928Y-103135743D01*
X138631227Y-103395545D01*
X138631228Y-103395547D01*
X138728581Y-103643602D01*
X138728583Y-103643606D01*
X138861826Y-103874390D01*
X138861829Y-103874395D01*
X138910438Y-103935348D01*
X138910440Y-103935348D01*
X139692912Y-103152876D01*
X139754680Y-103270566D01*
X139867405Y-103397806D01*
X140007305Y-103494371D01*
X140052643Y-103511565D01*
X139269045Y-104295163D01*
X139269045Y-104295165D01*
X139443497Y-104414105D01*
X139443504Y-104414109D01*
X139683598Y-104529733D01*
X139683610Y-104529738D01*
X139938237Y-104608280D01*
X139938249Y-104608282D01*
X140201761Y-104648000D01*
X140468239Y-104648000D01*
X140731750Y-104608282D01*
X140731762Y-104608280D01*
X140986389Y-104529738D01*
X140986401Y-104529733D01*
X141226495Y-104414109D01*
X141400953Y-104295164D01*
X141400953Y-104295163D01*
X140617356Y-103511565D01*
X140662695Y-103494371D01*
X140802595Y-103397806D01*
X140915320Y-103270566D01*
X140977087Y-103152877D01*
X141759559Y-103935349D01*
X141798914Y-103886000D01*
X147911502Y-103886000D01*
X147931457Y-104114086D01*
X147990715Y-104335240D01*
X147990717Y-104335246D01*
X148087477Y-104542749D01*
X148191204Y-104690887D01*
X148218802Y-104730300D01*
X148380700Y-104892198D01*
X148568251Y-105023523D01*
X148775757Y-105120284D01*
X148996913Y-105179543D01*
X149225000Y-105199498D01*
X149453087Y-105179543D01*
X149674243Y-105120284D01*
X149881749Y-105023523D01*
X150069300Y-104892198D01*
X150231198Y-104730300D01*
X150362523Y-104542749D01*
X150459284Y-104335243D01*
X150518543Y-104114087D01*
X150538498Y-103886000D01*
X150518543Y-103657913D01*
X150459284Y-103436757D01*
X150362523Y-103229251D01*
X150231198Y-103041700D01*
X150069300Y-102879802D01*
X150055301Y-102870000D01*
X149881749Y-102748477D01*
X149674246Y-102651717D01*
X149674240Y-102651715D01*
X149555706Y-102619954D01*
X149453087Y-102592457D01*
X149225000Y-102572502D01*
X148996913Y-102592457D01*
X148775759Y-102651715D01*
X148775753Y-102651717D01*
X148568250Y-102748477D01*
X148380703Y-102879799D01*
X148380697Y-102879804D01*
X148218804Y-103041697D01*
X148218799Y-103041703D01*
X148087477Y-103229250D01*
X147990717Y-103436753D01*
X147990715Y-103436759D01*
X147931457Y-103657913D01*
X147911502Y-103886000D01*
X141798914Y-103886000D01*
X141808174Y-103874388D01*
X141941416Y-103643606D01*
X141941418Y-103643602D01*
X142038771Y-103395547D01*
X142038772Y-103395545D01*
X142098071Y-103135743D01*
X142117985Y-102870000D01*
X142098071Y-102604256D01*
X142038772Y-102344454D01*
X142038771Y-102344452D01*
X141941418Y-102096397D01*
X141941416Y-102096393D01*
X141808176Y-101865615D01*
X141808171Y-101865607D01*
X141759560Y-101804650D01*
X141759558Y-101804650D01*
X140977086Y-102587122D01*
X140915320Y-102469434D01*
X140802595Y-102342194D01*
X140662695Y-102245629D01*
X140617355Y-102228433D01*
X141400953Y-101444835D01*
X141400953Y-101444833D01*
X141226502Y-101325894D01*
X141226495Y-101325890D01*
X140986401Y-101210266D01*
X140986389Y-101210261D01*
X140731762Y-101131719D01*
X140731750Y-101131717D01*
X140468239Y-101092000D01*
X140201761Y-101092000D01*
X139938249Y-101131717D01*
X139938237Y-101131719D01*
X139683610Y-101210261D01*
X139683592Y-101210268D01*
X139443512Y-101325885D01*
X139443504Y-101325890D01*
X139269045Y-101444833D01*
X139269045Y-101444835D01*
X140052644Y-102228434D01*
X140007305Y-102245629D01*
X139867405Y-102342194D01*
X139754680Y-102469434D01*
X139692912Y-102587123D01*
X138910439Y-101804650D01*
X138910438Y-101804650D01*
X138861829Y-101865606D01*
X138861826Y-101865609D01*
X138728583Y-102096393D01*
X138728581Y-102096397D01*
X138631228Y-102344452D01*
X138631227Y-102344454D01*
X138571928Y-102604256D01*
X138552014Y-102870000D01*
X137038487Y-102870000D01*
X137018567Y-102604185D01*
X136959252Y-102344308D01*
X136861954Y-102096397D01*
X136861869Y-102096180D01*
X136861867Y-102096176D01*
X136728588Y-101865329D01*
X136680198Y-101804650D01*
X136562388Y-101656921D01*
X136366986Y-101475614D01*
X136146744Y-101325455D01*
X136146741Y-101325454D01*
X136146739Y-101325452D01*
X136146738Y-101325451D01*
X135906590Y-101209802D01*
X135906572Y-101209795D01*
X135651873Y-101131231D01*
X135651865Y-101131229D01*
X135651863Y-101131229D01*
X135388280Y-101091500D01*
X135121720Y-101091500D01*
X134858137Y-101131229D01*
X134858135Y-101131229D01*
X134858126Y-101131231D01*
X134603427Y-101209795D01*
X134603414Y-101209800D01*
X134363254Y-101325456D01*
X134363247Y-101325460D01*
X134143020Y-101475609D01*
X134143015Y-101475613D01*
X133947613Y-101656920D01*
X133781411Y-101865329D01*
X133648132Y-102096176D01*
X133648130Y-102096180D01*
X133550746Y-102344312D01*
X133498664Y-102572502D01*
X133491433Y-102604185D01*
X133471513Y-102870000D01*
X131958487Y-102870000D01*
X131938567Y-102604185D01*
X131879252Y-102344308D01*
X131781954Y-102096397D01*
X131781869Y-102096180D01*
X131781867Y-102096176D01*
X131648588Y-101865329D01*
X131600198Y-101804650D01*
X131482388Y-101656921D01*
X131286986Y-101475614D01*
X131066744Y-101325455D01*
X131066741Y-101325454D01*
X131066739Y-101325452D01*
X131066738Y-101325451D01*
X130826590Y-101209802D01*
X130826572Y-101209795D01*
X130571873Y-101131231D01*
X130571865Y-101131229D01*
X130571863Y-101131229D01*
X130308280Y-101091500D01*
X130041720Y-101091500D01*
X129778137Y-101131229D01*
X129778135Y-101131229D01*
X129778126Y-101131231D01*
X129523427Y-101209795D01*
X129523414Y-101209800D01*
X129283254Y-101325456D01*
X129283247Y-101325460D01*
X129063020Y-101475609D01*
X129063015Y-101475613D01*
X128867613Y-101656920D01*
X128701411Y-101865329D01*
X128568132Y-102096176D01*
X128568130Y-102096180D01*
X128470746Y-102344312D01*
X128418664Y-102572502D01*
X128411433Y-102604185D01*
X128391513Y-102870000D01*
X123067985Y-102870000D01*
X123048071Y-102604256D01*
X122988772Y-102344454D01*
X122988771Y-102344452D01*
X122891418Y-102096397D01*
X122891416Y-102096393D01*
X122758176Y-101865615D01*
X122758171Y-101865607D01*
X122709560Y-101804650D01*
X122709558Y-101804650D01*
X121927086Y-102587122D01*
X121865320Y-102469434D01*
X121752595Y-102342194D01*
X121612695Y-102245629D01*
X121567355Y-102228433D01*
X122350953Y-101444835D01*
X122350953Y-101444833D01*
X122176502Y-101325894D01*
X122176495Y-101325890D01*
X121936401Y-101210266D01*
X121936389Y-101210261D01*
X121681762Y-101131719D01*
X121681750Y-101131717D01*
X121418239Y-101092000D01*
X121151761Y-101092000D01*
X120888249Y-101131717D01*
X120888237Y-101131719D01*
X120633610Y-101210261D01*
X120633592Y-101210268D01*
X120393512Y-101325885D01*
X120393504Y-101325890D01*
X120219045Y-101444833D01*
X120219045Y-101444835D01*
X121002644Y-102228434D01*
X120957305Y-102245629D01*
X120817405Y-102342194D01*
X120704680Y-102469434D01*
X120642912Y-102587123D01*
X119860439Y-101804650D01*
X119860438Y-101804650D01*
X119811829Y-101865606D01*
X119811826Y-101865609D01*
X119678583Y-102096393D01*
X119678581Y-102096397D01*
X119581228Y-102344452D01*
X119581227Y-102344454D01*
X119521928Y-102604256D01*
X119502014Y-102870000D01*
X117988487Y-102870000D01*
X117968567Y-102604185D01*
X117909252Y-102344308D01*
X117811954Y-102096397D01*
X117811869Y-102096180D01*
X117811867Y-102096176D01*
X117678588Y-101865329D01*
X117630198Y-101804650D01*
X117512388Y-101656921D01*
X117316986Y-101475614D01*
X117096744Y-101325455D01*
X117096741Y-101325454D01*
X117096739Y-101325452D01*
X117096738Y-101325451D01*
X116856590Y-101209802D01*
X116856572Y-101209795D01*
X116601873Y-101131231D01*
X116601865Y-101131229D01*
X116601863Y-101131229D01*
X116338280Y-101091500D01*
X116071720Y-101091500D01*
X115808137Y-101131229D01*
X115808135Y-101131229D01*
X115808126Y-101131231D01*
X115553427Y-101209795D01*
X115553414Y-101209800D01*
X115313254Y-101325456D01*
X115313247Y-101325460D01*
X115093020Y-101475609D01*
X115093015Y-101475613D01*
X114897613Y-101656920D01*
X114731411Y-101865329D01*
X114598132Y-102096176D01*
X114598130Y-102096180D01*
X114500746Y-102344312D01*
X114448664Y-102572502D01*
X114441433Y-102604185D01*
X114421513Y-102870000D01*
X114441433Y-103135815D01*
X114441434Y-103135819D01*
X114500746Y-103395687D01*
X114584801Y-103609854D01*
X114591069Y-103680573D01*
X114588510Y-103691032D01*
X114586819Y-103696850D01*
X114579901Y-103740525D01*
X114577495Y-103752142D01*
X114566500Y-103794968D01*
X114566500Y-103815223D01*
X114564949Y-103834933D01*
X114561780Y-103854942D01*
X114565941Y-103898961D01*
X114566500Y-103910819D01*
X114566500Y-106338678D01*
X114546498Y-106406799D01*
X114492842Y-106453292D01*
X114422568Y-106463396D01*
X114357988Y-106433902D01*
X114337287Y-106410949D01*
X114290200Y-106343703D01*
X114290195Y-106343697D01*
X114128302Y-106181804D01*
X114128296Y-106181799D01*
X113940749Y-106050477D01*
X113733246Y-105953717D01*
X113733240Y-105953715D01*
X113639771Y-105928670D01*
X113512087Y-105894457D01*
X113284000Y-105874502D01*
X113055913Y-105894457D01*
X112834759Y-105953715D01*
X112834753Y-105953717D01*
X112627250Y-106050477D01*
X112439703Y-106181799D01*
X112439697Y-106181804D01*
X112277804Y-106343697D01*
X112277799Y-106343703D01*
X112146477Y-106531250D01*
X112049717Y-106738753D01*
X112049715Y-106738759D01*
X111990457Y-106959913D01*
X111970502Y-107188000D01*
X104437498Y-107188000D01*
X104417543Y-106959913D01*
X104358284Y-106738757D01*
X104261523Y-106531251D01*
X104130198Y-106343700D01*
X103968300Y-106181802D01*
X103780749Y-106050477D01*
X103573246Y-105953717D01*
X103573240Y-105953715D01*
X103479771Y-105928670D01*
X103352087Y-105894457D01*
X103124000Y-105874502D01*
X102895913Y-105894457D01*
X102674759Y-105953715D01*
X102674753Y-105953717D01*
X102467250Y-106050477D01*
X102279703Y-106181799D01*
X102279697Y-106181804D01*
X102117804Y-106343697D01*
X102117799Y-106343703D01*
X101986477Y-106531250D01*
X101889717Y-106738753D01*
X101889715Y-106738759D01*
X101830457Y-106959913D01*
X101810502Y-107188000D01*
X100326865Y-107188000D01*
X100316307Y-102870000D01*
X109341513Y-102870000D01*
X109361433Y-103135815D01*
X109361434Y-103135819D01*
X109420746Y-103395687D01*
X109518130Y-103643819D01*
X109518132Y-103643823D01*
X109651411Y-103874670D01*
X109651413Y-103874673D01*
X109651414Y-103874674D01*
X109817612Y-104083079D01*
X110013014Y-104264386D01*
X110013020Y-104264390D01*
X110233247Y-104414539D01*
X110233254Y-104414543D01*
X110233257Y-104414545D01*
X110371711Y-104481221D01*
X110473414Y-104530199D01*
X110473427Y-104530204D01*
X110728126Y-104608768D01*
X110728128Y-104608768D01*
X110728137Y-104608771D01*
X110991720Y-104648500D01*
X110991725Y-104648500D01*
X111258275Y-104648500D01*
X111258280Y-104648500D01*
X111521863Y-104608771D01*
X111521873Y-104608768D01*
X111776572Y-104530204D01*
X111776574Y-104530202D01*
X111776581Y-104530201D01*
X111776586Y-104530198D01*
X111776590Y-104530197D01*
X112016738Y-104414548D01*
X112016738Y-104414547D01*
X112016744Y-104414545D01*
X112236986Y-104264386D01*
X112432388Y-104083079D01*
X112598586Y-103874674D01*
X112731866Y-103643826D01*
X112731953Y-103643606D01*
X112813134Y-103436759D01*
X112829252Y-103395692D01*
X112888567Y-103135815D01*
X112908487Y-102870000D01*
X112888567Y-102604185D01*
X112829252Y-102344308D01*
X112731954Y-102096397D01*
X112731869Y-102096180D01*
X112731867Y-102096176D01*
X112598588Y-101865329D01*
X112550198Y-101804650D01*
X112432388Y-101656921D01*
X112236986Y-101475614D01*
X112016744Y-101325455D01*
X112016741Y-101325454D01*
X112016739Y-101325452D01*
X112016738Y-101325451D01*
X111776590Y-101209802D01*
X111776572Y-101209795D01*
X111521873Y-101131231D01*
X111521865Y-101131229D01*
X111521863Y-101131229D01*
X111258280Y-101091500D01*
X110991720Y-101091500D01*
X110728137Y-101131229D01*
X110728135Y-101131229D01*
X110728126Y-101131231D01*
X110473427Y-101209795D01*
X110473414Y-101209800D01*
X110233254Y-101325456D01*
X110233247Y-101325460D01*
X110013020Y-101475609D01*
X110013015Y-101475613D01*
X109817613Y-101656920D01*
X109651411Y-101865329D01*
X109518132Y-102096176D01*
X109518130Y-102096180D01*
X109420746Y-102344312D01*
X109368664Y-102572502D01*
X109361433Y-102604185D01*
X109341513Y-102870000D01*
X100316307Y-102870000D01*
X100310308Y-100416231D01*
X100330144Y-100348065D01*
X100383686Y-100301441D01*
X100436232Y-100289926D01*
X151573414Y-100260073D01*
X151641544Y-100280035D01*
G37*
%TD.AperFunction*%
M02*
