%TF.GenerationSoftware,KiCad,Pcbnew,7.0.11+dfsg-1build4*%
%TF.CreationDate,2026-02-26T20:41:34-05:00*%
%TF.ProjectId,tweed57,74776565-6435-4372-9e6b-696361645f70,rev?*%
%TF.SameCoordinates,Original*%
%TF.FileFunction,Drillmap*%
%TF.FilePolarity,Positive*%
%FSLAX45Y45*%
G04 Gerber Fmt 4.5, Leading zero omitted, Abs format (unit mm)*
G04 Created by KiCad (PCBNEW 7.0.11+dfsg-1build4) date 2026-02-26 20:41:34*
%MOMM*%
%LPD*%
G01*
G04 APERTURE LIST*
%ADD10C,0.100000*%
%ADD11C,0.200000*%
G04 APERTURE END LIST*
D10*
X15494000Y-10871200D02*
X15468600Y-10871200D01*
X10007600Y-5003800D02*
X15417800Y-5003800D01*
X15468600Y-10871200D02*
X10007600Y-10845800D01*
X15417800Y-5003800D02*
X15443200Y-5003800D01*
X15443200Y-5003800D02*
X15494000Y-10871200D01*
X10007600Y-10845800D02*
X10007600Y-5003800D01*
D11*
X10263377Y-11187684D02*
X10263377Y-10987684D01*
X10263377Y-10987684D02*
X10310996Y-10987684D01*
X10310996Y-10987684D02*
X10339567Y-10997208D01*
X10339567Y-10997208D02*
X10358615Y-11016255D01*
X10358615Y-11016255D02*
X10368139Y-11035303D01*
X10368139Y-11035303D02*
X10377663Y-11073398D01*
X10377663Y-11073398D02*
X10377663Y-11101970D01*
X10377663Y-11101970D02*
X10368139Y-11140065D01*
X10368139Y-11140065D02*
X10358615Y-11159112D01*
X10358615Y-11159112D02*
X10339567Y-11178160D01*
X10339567Y-11178160D02*
X10310996Y-11187684D01*
X10310996Y-11187684D02*
X10263377Y-11187684D01*
X10463377Y-11187684D02*
X10463377Y-11054350D01*
X10463377Y-11092446D02*
X10472901Y-11073398D01*
X10472901Y-11073398D02*
X10482424Y-11063874D01*
X10482424Y-11063874D02*
X10501472Y-11054350D01*
X10501472Y-11054350D02*
X10520520Y-11054350D01*
X10587186Y-11187684D02*
X10587186Y-11054350D01*
X10587186Y-10987684D02*
X10577663Y-10997208D01*
X10577663Y-10997208D02*
X10587186Y-11006731D01*
X10587186Y-11006731D02*
X10596710Y-10997208D01*
X10596710Y-10997208D02*
X10587186Y-10987684D01*
X10587186Y-10987684D02*
X10587186Y-11006731D01*
X10710996Y-11187684D02*
X10691948Y-11178160D01*
X10691948Y-11178160D02*
X10682424Y-11159112D01*
X10682424Y-11159112D02*
X10682424Y-10987684D01*
X10815758Y-11187684D02*
X10796710Y-11178160D01*
X10796710Y-11178160D02*
X10787186Y-11159112D01*
X10787186Y-11159112D02*
X10787186Y-10987684D01*
X11044329Y-11187684D02*
X11044329Y-10987684D01*
X11044329Y-10987684D02*
X11110996Y-11130541D01*
X11110996Y-11130541D02*
X11177663Y-10987684D01*
X11177663Y-10987684D02*
X11177663Y-11187684D01*
X11358615Y-11187684D02*
X11358615Y-11082922D01*
X11358615Y-11082922D02*
X11349091Y-11063874D01*
X11349091Y-11063874D02*
X11330043Y-11054350D01*
X11330043Y-11054350D02*
X11291948Y-11054350D01*
X11291948Y-11054350D02*
X11272901Y-11063874D01*
X11358615Y-11178160D02*
X11339567Y-11187684D01*
X11339567Y-11187684D02*
X11291948Y-11187684D01*
X11291948Y-11187684D02*
X11272901Y-11178160D01*
X11272901Y-11178160D02*
X11263377Y-11159112D01*
X11263377Y-11159112D02*
X11263377Y-11140065D01*
X11263377Y-11140065D02*
X11272901Y-11121017D01*
X11272901Y-11121017D02*
X11291948Y-11111493D01*
X11291948Y-11111493D02*
X11339567Y-11111493D01*
X11339567Y-11111493D02*
X11358615Y-11101970D01*
X11453853Y-11054350D02*
X11453853Y-11254350D01*
X11453853Y-11063874D02*
X11472901Y-11054350D01*
X11472901Y-11054350D02*
X11510996Y-11054350D01*
X11510996Y-11054350D02*
X11530043Y-11063874D01*
X11530043Y-11063874D02*
X11539567Y-11073398D01*
X11539567Y-11073398D02*
X11549091Y-11092446D01*
X11549091Y-11092446D02*
X11549091Y-11149589D01*
X11549091Y-11149589D02*
X11539567Y-11168636D01*
X11539567Y-11168636D02*
X11530043Y-11178160D01*
X11530043Y-11178160D02*
X11510996Y-11187684D01*
X11510996Y-11187684D02*
X11472901Y-11187684D01*
X11472901Y-11187684D02*
X11453853Y-11178160D01*
X11634805Y-11168636D02*
X11644329Y-11178160D01*
X11644329Y-11178160D02*
X11634805Y-11187684D01*
X11634805Y-11187684D02*
X11625282Y-11178160D01*
X11625282Y-11178160D02*
X11634805Y-11168636D01*
X11634805Y-11168636D02*
X11634805Y-11187684D01*
X11634805Y-11063874D02*
X11644329Y-11073398D01*
X11644329Y-11073398D02*
X11634805Y-11082922D01*
X11634805Y-11082922D02*
X11625282Y-11073398D01*
X11625282Y-11073398D02*
X11634805Y-11063874D01*
X11634805Y-11063874D02*
X11634805Y-11082922D01*
M02*
