G04 #@! TF.GenerationSoftware,KiCad,Pcbnew,7.0.11+dfsg-1build4*
G04 #@! TF.CreationDate,2026-02-26T20:41:32-05:00*
G04 #@! TF.ProjectId,tweed57,74776565-6435-4372-9e6b-696361645f70,rev?*
G04 #@! TF.SameCoordinates,Original*
G04 #@! TF.FileFunction,Soldermask,Bot*
G04 #@! TF.FilePolarity,Negative*
%FSLAX46Y46*%
G04 Gerber Fmt 4.6, Leading zero omitted, Abs format (unit mm)*
G04 Created by KiCad (PCBNEW 7.0.11+dfsg-1build4) date 2026-02-26 20:41:32*
%MOMM*%
%LPD*%
G01*
G04 APERTURE LIST*
%ADD10R,2.400000X2.400000*%
%ADD11C,2.400000*%
%ADD12C,1.600000*%
%ADD13R,1.200000X1.200000*%
%ADD14C,1.200000*%
%ADD15R,1.300000X1.300000*%
%ADD16C,1.300000*%
%ADD17O,1.600000X1.600000*%
%ADD18C,2.340000*%
%ADD19O,3.000000X2.000000*%
%ADD20R,1.700000X1.700000*%
%ADD21O,1.700000X1.700000*%
G04 APERTURE END LIST*
D10*
X145288000Y-98044000D03*
D11*
X150288000Y-98044000D03*
D12*
X123972000Y-73406000D03*
X125222000Y-73406000D03*
X121472000Y-73406000D03*
X120222000Y-73406000D03*
X102108000Y-91440000D03*
X107108000Y-91440000D03*
X105938000Y-87122000D03*
X107188000Y-87122000D03*
X102188000Y-87122000D03*
X103438000Y-87122000D03*
X132354000Y-73406000D03*
X133604000Y-73406000D03*
X128604000Y-73406000D03*
X129854000Y-73406000D03*
D13*
X117348000Y-97282000D03*
D14*
X115348000Y-97282000D03*
D12*
X137434000Y-97536000D03*
X138684000Y-97536000D03*
X133684000Y-97536000D03*
X134934000Y-97536000D03*
X143764000Y-62992000D03*
X138764000Y-62992000D03*
X114574000Y-70104000D03*
X115824000Y-70104000D03*
X112074000Y-70104000D03*
X110824000Y-70104000D03*
X148062000Y-62992000D03*
X146812000Y-62992000D03*
X150562000Y-62992000D03*
X151812000Y-62992000D03*
D13*
X138938000Y-68072000D03*
D14*
X136938000Y-68072000D03*
D12*
X130282000Y-81280000D03*
X129032000Y-81280000D03*
X134032000Y-81280000D03*
X132782000Y-81280000D03*
X105938000Y-82804000D03*
X107188000Y-82804000D03*
X102188000Y-82804000D03*
X103438000Y-82804000D03*
X107696000Y-70104000D03*
X106446000Y-70104000D03*
X102696000Y-70104000D03*
X103946000Y-70104000D03*
X133604000Y-91694000D03*
X134854000Y-91694000D03*
X137354000Y-91694000D03*
X138604000Y-91694000D03*
X121472000Y-81280000D03*
X120222000Y-81280000D03*
X125222000Y-81280000D03*
X123972000Y-81280000D03*
D13*
X139700000Y-58166000D03*
D14*
X137700000Y-58166000D03*
D15*
X114046000Y-90170000D03*
D16*
X112776000Y-91440000D03*
X111506000Y-90170000D03*
D15*
X137414000Y-81026000D03*
D16*
X138684000Y-79756000D03*
X139954000Y-81026000D03*
D15*
X112014000Y-84074000D03*
D16*
X113284000Y-82804000D03*
X114554000Y-84074000D03*
D15*
X137414000Y-86868000D03*
D16*
X138684000Y-85598000D03*
X139954000Y-86868000D03*
D15*
X143256000Y-58420000D03*
D16*
X144526000Y-57150000D03*
X145796000Y-58420000D03*
D15*
X149098000Y-58166000D03*
D16*
X150368000Y-56896000D03*
X151638000Y-58166000D03*
D12*
X102108000Y-99314000D03*
D17*
X112268000Y-99314000D03*
D12*
X139954000Y-102616000D03*
D17*
X129794000Y-102616000D03*
D12*
X102108000Y-95758000D03*
D17*
X112268000Y-95758000D03*
D12*
X120142000Y-98806000D03*
D17*
X130302000Y-98806000D03*
D12*
X103632000Y-56134000D03*
D17*
X113792000Y-56134000D03*
D12*
X112268000Y-102616000D03*
D17*
X102108000Y-102616000D03*
D12*
X113792000Y-66040000D03*
D17*
X103632000Y-66040000D03*
D12*
X120142000Y-91694000D03*
D17*
X130302000Y-91694000D03*
D12*
X115570000Y-102870000D03*
D17*
X125730000Y-102870000D03*
D12*
X142494000Y-89154000D03*
D17*
X152654000Y-89154000D03*
D12*
X121920000Y-69596000D03*
D17*
X132080000Y-69596000D03*
D12*
X120142000Y-95250000D03*
D17*
X130302000Y-95250000D03*
D12*
X152654000Y-82296000D03*
D17*
X142494000Y-82296000D03*
D12*
X142494000Y-85598000D03*
D17*
X152654000Y-85598000D03*
D12*
X141986000Y-70358000D03*
D17*
X152146000Y-70358000D03*
D12*
X142494000Y-78994000D03*
D17*
X152654000Y-78994000D03*
D12*
X103886000Y-78740000D03*
D17*
X114046000Y-78740000D03*
D12*
X122174000Y-77724000D03*
D17*
X132334000Y-77724000D03*
D12*
X103632000Y-62738000D03*
D17*
X113792000Y-62738000D03*
D12*
X122174000Y-66040000D03*
D17*
X132334000Y-66040000D03*
D12*
X141986000Y-66802000D03*
D17*
X152146000Y-66802000D03*
D12*
X130302000Y-88392000D03*
D17*
X120142000Y-88392000D03*
D12*
X103632000Y-59436000D03*
D17*
X113792000Y-59436000D03*
D18*
X114046000Y-52578000D03*
X109046000Y-52578000D03*
X104046000Y-52578000D03*
X150114000Y-52578000D03*
X145114000Y-52578000D03*
X140114000Y-52578000D03*
X114046000Y-75438000D03*
X109046000Y-75438000D03*
X104046000Y-75438000D03*
X150114000Y-75438000D03*
X145114000Y-75438000D03*
X140114000Y-75438000D03*
D19*
X124206000Y-52768500D03*
X124206000Y-57404000D03*
X124206000Y-62103000D03*
X129032000Y-52768500D03*
X129032000Y-57404000D03*
X129032000Y-62103000D03*
D18*
X131318000Y-85090000D03*
X126318000Y-85090000D03*
X121318000Y-85090000D03*
D20*
X132588000Y-106680000D03*
D21*
X130048000Y-106680000D03*
X127508000Y-106680000D03*
X124968000Y-106680000D03*
X122428000Y-106680000D03*
M02*
