%TF.GenerationSoftware,KiCad,Pcbnew,7.0.11+dfsg-1build4*%
%TF.CreationDate,2026-01-25T21:00:47-05:00*%
%TF.ProjectId,Distortion-02-LQ,44697374-6f72-4746-996f-6e2d30322d4c,rev?*%
%TF.SameCoordinates,Original*%
%TF.FileFunction,Copper,L2,Bot*%
%TF.FilePolarity,Positive*%
%FSLAX46Y46*%
G04 Gerber Fmt 4.6, Leading zero omitted, Abs format (unit mm)*
G04 Created by KiCad (PCBNEW 7.0.11+dfsg-1build4) date 2026-01-25 21:00:47*
%MOMM*%
%LPD*%
G01*
G04 APERTURE LIST*
%TA.AperFunction,ComponentPad*%
%ADD10C,2.340000*%
%TD*%
%TA.AperFunction,ComponentPad*%
%ADD11R,1.600000X1.600000*%
%TD*%
%TA.AperFunction,ComponentPad*%
%ADD12C,1.600000*%
%TD*%
%TA.AperFunction,ComponentPad*%
%ADD13O,1.600000X1.600000*%
%TD*%
%TA.AperFunction,ComponentPad*%
%ADD14R,1.800000X1.800000*%
%TD*%
%TA.AperFunction,ComponentPad*%
%ADD15O,1.800000X1.800000*%
%TD*%
%TA.AperFunction,ComponentPad*%
%ADD16R,1.700000X1.700000*%
%TD*%
%TA.AperFunction,ComponentPad*%
%ADD17O,1.700000X1.700000*%
%TD*%
%TA.AperFunction,ComponentPad*%
%ADD18R,1.200000X1.200000*%
%TD*%
%TA.AperFunction,ComponentPad*%
%ADD19C,1.200000*%
%TD*%
%TA.AperFunction,ComponentPad*%
%ADD20R,1.050000X1.500000*%
%TD*%
%TA.AperFunction,ComponentPad*%
%ADD21O,1.050000X1.500000*%
%TD*%
%TA.AperFunction,Conductor*%
%ADD22C,0.250000*%
%TD*%
G04 APERTURE END LIST*
D10*
%TO.P,RV3,1,1*%
%TO.N,GND*%
X123926600Y-84150200D03*
%TO.P,RV3,2,2*%
%TO.N,out*%
X118926600Y-84150200D03*
%TO.P,RV3,3,3*%
%TO.N,Net-(C8-Pad2)*%
X113926600Y-84150200D03*
%TD*%
D11*
%TO.P,C2,1*%
%TO.N,+9V*%
X147915621Y-100558600D03*
D12*
%TO.P,C2,2*%
%TO.N,GND*%
X150415621Y-100558600D03*
%TD*%
%TO.P,C7,1*%
%TO.N,Net-(C6-Pad1)*%
X135447400Y-92659200D03*
%TO.P,C7,2*%
%TO.N,Net-(C7-Pad2)*%
X140447400Y-92659200D03*
%TD*%
%TO.P,C1,1*%
%TO.N,IN*%
X121756800Y-101320600D03*
%TO.P,C1,2*%
%TO.N,GND*%
X126756800Y-101320600D03*
%TD*%
%TO.P,R6,1*%
%TO.N,Net-(Q3-Pad3)*%
X111277400Y-97942400D03*
D13*
%TO.P,R6,2*%
%TO.N,Net-(C6-Pad2)*%
X118897400Y-97942400D03*
%TD*%
D14*
%TO.P,D1,1,K*%
%TO.N,Net-(C3-Pad2)*%
X129692400Y-94335600D03*
D15*
%TO.P,D1,2,A*%
%TO.N,Net-(C4-Pad1)*%
X129692400Y-101955600D03*
%TD*%
D12*
%TO.P,R1,1*%
%TO.N,IN*%
X111252000Y-91338400D03*
D13*
%TO.P,R1,2*%
%TO.N,GND*%
X118872000Y-91338400D03*
%TD*%
D12*
%TO.P,R2,1*%
%TO.N,+9V*%
X155168600Y-87782400D03*
D13*
%TO.P,R2,2*%
%TO.N,Net-(C4-Pad1)*%
X162788600Y-87782400D03*
%TD*%
D12*
%TO.P,R8,1*%
%TO.N,Net-(C8-Pad1)*%
X155219400Y-94615000D03*
D13*
%TO.P,R8,2*%
%TO.N,Net-(C7-Pad2)*%
X162839400Y-94615000D03*
%TD*%
D16*
%TO.P,J1,1,Pin_1*%
%TO.N,+9V*%
X133614000Y-103022400D03*
D17*
%TO.P,J1,2,Pin_2*%
%TO.N,out*%
X136154000Y-103022400D03*
%TO.P,J1,3,Pin_3*%
%TO.N,IN*%
X138694000Y-103022400D03*
%TO.P,J1,4,Pin_4*%
%TO.N,GND*%
X141234000Y-103022400D03*
%TD*%
D12*
%TO.P,R7,1*%
%TO.N,Net-(C8-Pad1)*%
X162814000Y-91160600D03*
D13*
%TO.P,R7,2*%
%TO.N,GND*%
X155194000Y-91160600D03*
%TD*%
D10*
%TO.P,RV1,1,1*%
%TO.N,GND*%
X142377800Y-84104200D03*
%TO.P,RV1,2,2*%
%TO.N,Net-(C5-Pad1)*%
X137377800Y-84104200D03*
%TO.P,RV1,3,3*%
%TO.N,Net-(Q2-Pad1)*%
X132377800Y-84104200D03*
%TD*%
%TO.P,RV2,1,1*%
%TO.N,Net-(Q4-Pad1)*%
X160930600Y-84089000D03*
%TO.P,RV2,2,2*%
X155930600Y-84089000D03*
%TO.P,RV2,3,3*%
%TO.N,Net-(Q3-Pad3)*%
X150930600Y-84089000D03*
%TD*%
D18*
%TO.P,C5,1*%
%TO.N,Net-(C5-Pad1)*%
X130040601Y-88214200D03*
D19*
%TO.P,C5,2*%
%TO.N,GND*%
X132040601Y-88214200D03*
%TD*%
D12*
%TO.P,R5,1*%
%TO.N,+9V*%
X111201200Y-88061800D03*
D13*
%TO.P,R5,2*%
%TO.N,Net-(Q3-Pad3)*%
X118821200Y-88061800D03*
%TD*%
D20*
%TO.P,Q3,1,E*%
%TO.N,Net-(C8-Pad1)*%
X161163000Y-100279200D03*
D21*
%TO.P,Q3,2,B*%
%TO.N,Net-(C6-Pad2)*%
X162433000Y-100279200D03*
%TO.P,Q3,3,C*%
%TO.N,Net-(Q3-Pad3)*%
X163703000Y-100279200D03*
%TD*%
D20*
%TO.P,Q1,1,E*%
%TO.N,GND*%
X122682000Y-95914800D03*
D21*
%TO.P,Q1,2,B*%
%TO.N,Net-(C3-Pad2)*%
X123952000Y-95914800D03*
%TO.P,Q1,3,C*%
%TO.N,Net-(C4-Pad1)*%
X125222000Y-95914800D03*
%TD*%
D12*
%TO.P,C6,1*%
%TO.N,Net-(C6-Pad1)*%
X145912200Y-89001600D03*
%TO.P,C6,2*%
%TO.N,Net-(C6-Pad2)*%
X150912200Y-89001600D03*
%TD*%
%TO.P,R3,1*%
%TO.N,+9V*%
X111277400Y-94640400D03*
D13*
%TO.P,R3,2*%
%TO.N,Net-(C6-Pad1)*%
X118897400Y-94640400D03*
%TD*%
D12*
%TO.P,C8,1*%
%TO.N,Net-(C8-Pad1)*%
X135447400Y-88417400D03*
%TO.P,C8,2*%
%TO.N,Net-(C8-Pad2)*%
X140447400Y-88417400D03*
%TD*%
%TO.P,C3,1*%
%TO.N,IN*%
X135396600Y-97002600D03*
%TO.P,C3,2*%
%TO.N,Net-(C3-Pad2)*%
X140396600Y-97002600D03*
%TD*%
%TO.P,C4,1*%
%TO.N,Net-(C4-Pad1)*%
X145836000Y-94284800D03*
%TO.P,C4,2*%
%TO.N,Net-(C4-Pad2)*%
X150836000Y-94284800D03*
%TD*%
%TO.P,R4,1*%
%TO.N,Net-(C6-Pad1)*%
X111252000Y-101498400D03*
D13*
%TO.P,R4,2*%
%TO.N,Net-(C4-Pad2)*%
X118872000Y-101498400D03*
%TD*%
D20*
%TO.P,Q2,1,E*%
%TO.N,Net-(Q2-Pad1)*%
X122758200Y-89539400D03*
D21*
%TO.P,Q2,2,B*%
%TO.N,Net-(C4-Pad2)*%
X124028200Y-89539400D03*
%TO.P,Q2,3,C*%
%TO.N,Net-(C6-Pad1)*%
X125298200Y-89539400D03*
%TD*%
D20*
%TO.P,Q4,1,E*%
%TO.N,Net-(Q4-Pad1)*%
X154482800Y-100436000D03*
D21*
%TO.P,Q4,2,B*%
%TO.N,Net-(C7-Pad2)*%
X155752800Y-100436000D03*
%TO.P,Q4,3,C*%
%TO.N,Net-(C8-Pad1)*%
X157022800Y-100436000D03*
%TD*%
D22*
%TO.N,IN*%
X111211100Y-96164400D02*
X110032800Y-94986100D01*
X111277400Y-96164400D02*
X111211100Y-96164400D01*
X117735911Y-102622911D02*
X111277400Y-96164400D01*
X120454489Y-102622911D02*
X117735911Y-102622911D01*
X110032800Y-94107000D02*
X111252000Y-92887800D01*
X110032800Y-94986100D02*
X110032800Y-94107000D01*
X121756800Y-101320600D02*
X120454489Y-102622911D01*
X111252000Y-92887800D02*
X111252000Y-91338400D01*
%TO.N,Net-(C4-Pad1)*%
X164552520Y-94651720D02*
X161689489Y-91788689D01*
X151665611Y-86657889D02*
X161664089Y-86657889D01*
X129692400Y-101955600D02*
X129692400Y-100385200D01*
X142610000Y-101055600D02*
X144221200Y-102666800D01*
X162839400Y-87731600D02*
X162788600Y-87782400D01*
X130592400Y-101055600D02*
X142610000Y-101055600D01*
X164552520Y-100877480D02*
X164552520Y-94651720D01*
X129692400Y-100385200D02*
X125222000Y-95914800D01*
X162763200Y-102666800D02*
X164552520Y-100877480D01*
X161689489Y-91788689D02*
X161689489Y-88881511D01*
X145836000Y-92487500D02*
X151665611Y-86657889D01*
X144221200Y-102666800D02*
X162763200Y-102666800D01*
X161664089Y-86657889D02*
X162788600Y-87782400D01*
X129692400Y-101955600D02*
X130592400Y-101055600D01*
X161689489Y-88881511D02*
X162788600Y-87782400D01*
X145836000Y-94284800D02*
X145836000Y-92487500D01*
%TO.N,Net-(C6-Pad1)*%
X130911600Y-92659200D02*
X135447400Y-92659200D01*
X125298200Y-89539400D02*
X127791800Y-89539400D01*
X127791800Y-89539400D02*
X130911600Y-92659200D01*
%TO.N,Net-(C6-Pad2)*%
X161579569Y-102132631D02*
X145084031Y-102132631D01*
X162433000Y-96021900D02*
X155412700Y-89001600D01*
X128905000Y-98145600D02*
X125552200Y-94792800D01*
X162433000Y-100279200D02*
X162433000Y-96021900D01*
X155412700Y-89001600D02*
X150912200Y-89001600D01*
X162433000Y-101279200D02*
X161579569Y-102132631D01*
X141097000Y-98145600D02*
X128905000Y-98145600D01*
X162433000Y-100279200D02*
X162433000Y-101279200D01*
X125552200Y-94792800D02*
X122047000Y-94792800D01*
X145084031Y-102132631D02*
X141097000Y-98145600D01*
X122047000Y-94792800D02*
X118897400Y-97942400D01*
%TO.N,Net-(C7-Pad2)*%
X146895111Y-101683111D02*
X140447400Y-95235400D01*
X155505689Y-101683111D02*
X146895111Y-101683111D01*
X140447400Y-95235400D02*
X140447400Y-92659200D01*
X155752800Y-101436000D02*
X155505689Y-101683111D01*
X155752800Y-100436000D02*
X155752800Y-101436000D01*
%TO.N,Net-(C8-Pad1)*%
X157022800Y-95605600D02*
X156057600Y-94640400D01*
X163913111Y-90061489D02*
X163913111Y-87281311D01*
X157022800Y-100436000D02*
X157022800Y-95605600D01*
X162814000Y-91160600D02*
X163913111Y-90061489D01*
X137682600Y-86182200D02*
X135447400Y-88417400D01*
X163913111Y-87281311D02*
X162814000Y-86182200D01*
X162814000Y-86182200D02*
X137682600Y-86182200D01*
%TO.N,Net-(C8-Pad2)*%
X120263641Y-82600800D02*
X115476000Y-82600800D01*
X128143000Y-88417400D02*
X126080241Y-88417400D01*
X129267511Y-89541911D02*
X128143000Y-88417400D01*
X115476000Y-82600800D02*
X113926600Y-84150200D01*
X140447400Y-88417400D02*
X139322889Y-89541911D01*
X126080241Y-88417400D02*
X120263641Y-82600800D01*
X139322889Y-89541911D02*
X129267511Y-89541911D01*
%TO.N,out*%
X109474000Y-101523800D02*
X111582200Y-103632000D01*
X116945400Y-86131400D02*
X110566200Y-86131400D01*
X111582200Y-103632000D02*
X131673600Y-103632000D01*
X132238511Y-104196911D02*
X134979489Y-104196911D01*
X109474000Y-87223600D02*
X109474000Y-101523800D01*
X118926600Y-84150200D02*
X116945400Y-86131400D01*
X110566200Y-86131400D02*
X109474000Y-87223600D01*
X131673600Y-103632000D02*
X132238511Y-104196911D01*
X134979489Y-104196911D02*
X136154000Y-103022400D01*
%TD*%
%TA.AperFunction,Conductor*%
%TO.N,GND*%
G36*
X165297233Y-81427360D02*
G01*
X165344064Y-81480721D01*
X165355770Y-81532002D01*
X165682395Y-104596758D01*
X165663360Y-104665155D01*
X165610368Y-104712403D01*
X165556747Y-104724542D01*
X135571685Y-104805146D01*
X135503510Y-104785327D01*
X135456873Y-104731796D01*
X135446581Y-104661550D01*
X135475900Y-104596890D01*
X135482237Y-104590065D01*
X135696205Y-104376097D01*
X135758515Y-104342073D01*
X135814218Y-104343016D01*
X135814224Y-104342986D01*
X135814430Y-104343020D01*
X135816236Y-104343051D01*
X135819356Y-104343841D01*
X135819365Y-104343844D01*
X136041431Y-104380900D01*
X136041435Y-104380900D01*
X136266565Y-104380900D01*
X136266569Y-104380900D01*
X136488635Y-104343844D01*
X136701574Y-104270742D01*
X136899576Y-104163589D01*
X137077240Y-104025306D01*
X137229722Y-103859668D01*
X137318518Y-103723754D01*
X137372520Y-103677668D01*
X137442868Y-103668092D01*
X137507225Y-103698069D01*
X137529480Y-103723753D01*
X137562607Y-103774458D01*
X137618275Y-103859665D01*
X137618279Y-103859670D01*
X137770762Y-104025308D01*
X137788377Y-104039018D01*
X137948424Y-104163589D01*
X138146426Y-104270742D01*
X138146427Y-104270742D01*
X138146428Y-104270743D01*
X138189420Y-104285502D01*
X138359365Y-104343844D01*
X138581431Y-104380900D01*
X138581435Y-104380900D01*
X138806565Y-104380900D01*
X138806569Y-104380900D01*
X139028635Y-104343844D01*
X139241574Y-104270742D01*
X139439576Y-104163589D01*
X139617240Y-104025306D01*
X139769722Y-103859668D01*
X139858816Y-103723298D01*
X139912819Y-103677210D01*
X139983167Y-103667635D01*
X140047524Y-103697612D01*
X140069782Y-103723298D01*
X140158674Y-103859358D01*
X140311097Y-104024934D01*
X140488698Y-104163167D01*
X140488699Y-104163168D01*
X140686628Y-104270282D01*
X140686630Y-104270283D01*
X140899483Y-104343355D01*
X140899492Y-104343357D01*
X140980000Y-104356791D01*
X140980000Y-103456074D01*
X141091685Y-103507080D01*
X141198237Y-103522400D01*
X141269763Y-103522400D01*
X141376315Y-103507080D01*
X141488000Y-103456074D01*
X141488000Y-104356790D01*
X141568507Y-104343357D01*
X141568516Y-104343355D01*
X141781369Y-104270283D01*
X141781371Y-104270282D01*
X141979300Y-104163168D01*
X141979301Y-104163167D01*
X142156902Y-104024934D01*
X142309325Y-103859358D01*
X142432419Y-103670948D01*
X142522820Y-103464856D01*
X142522823Y-103464849D01*
X142570544Y-103276400D01*
X141665116Y-103276400D01*
X141693493Y-103232244D01*
X141734000Y-103094289D01*
X141734000Y-102950511D01*
X141693493Y-102812556D01*
X141665116Y-102768400D01*
X142570544Y-102768400D01*
X142570544Y-102768399D01*
X142522823Y-102579950D01*
X142522820Y-102579943D01*
X142432419Y-102373851D01*
X142309325Y-102185441D01*
X142156902Y-102019865D01*
X142021570Y-101914532D01*
X141980099Y-101856907D01*
X141976365Y-101786008D01*
X142011555Y-101724346D01*
X142074496Y-101691498D01*
X142098961Y-101689100D01*
X142295406Y-101689100D01*
X142363527Y-101709102D01*
X142384501Y-101726005D01*
X143713955Y-103055460D01*
X143723920Y-103067897D01*
X143724147Y-103067710D01*
X143729199Y-103073817D01*
X143729200Y-103073818D01*
X143776216Y-103117969D01*
X143778850Y-103120442D01*
X143781694Y-103123199D01*
X143801423Y-103142929D01*
X143801424Y-103142930D01*
X143801428Y-103142933D01*
X143801430Y-103142935D01*
X143804635Y-103145421D01*
X143813642Y-103153114D01*
X143845879Y-103183386D01*
X143863628Y-103193143D01*
X143880153Y-103203998D01*
X143896159Y-103216414D01*
X143936742Y-103233975D01*
X143947393Y-103239193D01*
X143986140Y-103260495D01*
X143986148Y-103260497D01*
X144005758Y-103265532D01*
X144024467Y-103271937D01*
X144043055Y-103279981D01*
X144086730Y-103286898D01*
X144098341Y-103289302D01*
X144141170Y-103300300D01*
X144161424Y-103300300D01*
X144181134Y-103301851D01*
X144183341Y-103302200D01*
X144201143Y-103305020D01*
X144245161Y-103300858D01*
X144257019Y-103300300D01*
X162679347Y-103300300D01*
X162695188Y-103302049D01*
X162695216Y-103301756D01*
X162703102Y-103302500D01*
X162703109Y-103302502D01*
X162771186Y-103300362D01*
X162775145Y-103300300D01*
X162803051Y-103300300D01*
X162803056Y-103300300D01*
X162807067Y-103299792D01*
X162818899Y-103298861D01*
X162863089Y-103297473D01*
X162882547Y-103291819D01*
X162901894Y-103287813D01*
X162921997Y-103285274D01*
X162963110Y-103268995D01*
X162974330Y-103265153D01*
X162999113Y-103257954D01*
X163016791Y-103252819D01*
X163016795Y-103252817D01*
X163034226Y-103242508D01*
X163051980Y-103233809D01*
X163070817Y-103226352D01*
X163106592Y-103200358D01*
X163116498Y-103193851D01*
X163154562Y-103171342D01*
X163168885Y-103157018D01*
X163183924Y-103144174D01*
X163185605Y-103142953D01*
X163200307Y-103132272D01*
X163228503Y-103098186D01*
X163236472Y-103089430D01*
X164941177Y-101384725D01*
X164953612Y-101374764D01*
X164953425Y-101374537D01*
X164959536Y-101369481D01*
X164959535Y-101369481D01*
X164959538Y-101369480D01*
X165006196Y-101319792D01*
X165008887Y-101317015D01*
X165028655Y-101297249D01*
X165031134Y-101294051D01*
X165038819Y-101285051D01*
X165069106Y-101252801D01*
X165078865Y-101235047D01*
X165089724Y-101218518D01*
X165102134Y-101202520D01*
X165119697Y-101161931D01*
X165124916Y-101151281D01*
X165146215Y-101112540D01*
X165151253Y-101092915D01*
X165157658Y-101074210D01*
X165165701Y-101055625D01*
X165172616Y-101011961D01*
X165175024Y-101000332D01*
X165186020Y-100957510D01*
X165186020Y-100937255D01*
X165187571Y-100917543D01*
X165190740Y-100897537D01*
X165186579Y-100853516D01*
X165186020Y-100841659D01*
X165186020Y-94735575D01*
X165187769Y-94719734D01*
X165187476Y-94719707D01*
X165188221Y-94711814D01*
X165188222Y-94711811D01*
X165186082Y-94643733D01*
X165186020Y-94639774D01*
X165186020Y-94611869D01*
X165186020Y-94611864D01*
X165185512Y-94607850D01*
X165184581Y-94596017D01*
X165183193Y-94551830D01*
X165177542Y-94532383D01*
X165173532Y-94513020D01*
X165170994Y-94492923D01*
X165154715Y-94451810D01*
X165150873Y-94440589D01*
X165138538Y-94398127D01*
X165128225Y-94380689D01*
X165119530Y-94362942D01*
X165112072Y-94344103D01*
X165086088Y-94308340D01*
X165079571Y-94298419D01*
X165057061Y-94260355D01*
X165042738Y-94246032D01*
X165029897Y-94230999D01*
X165024279Y-94223267D01*
X165017992Y-94214613D01*
X164999247Y-94199106D01*
X164983925Y-94186430D01*
X164975146Y-94178441D01*
X163341617Y-92544912D01*
X163307591Y-92482600D01*
X163312656Y-92411785D01*
X163355203Y-92354949D01*
X163377457Y-92341625D01*
X163470749Y-92298123D01*
X163658300Y-92166798D01*
X163820198Y-92004900D01*
X163951523Y-91817349D01*
X164048284Y-91609843D01*
X164107543Y-91388687D01*
X164127498Y-91160600D01*
X164107543Y-90932513D01*
X164090540Y-90869057D01*
X164092229Y-90798081D01*
X164123149Y-90747353D01*
X164301768Y-90568734D01*
X164314203Y-90558773D01*
X164314016Y-90558546D01*
X164320127Y-90553490D01*
X164320126Y-90553490D01*
X164320129Y-90553489D01*
X164366787Y-90503801D01*
X164369478Y-90501024D01*
X164389246Y-90481258D01*
X164391725Y-90478060D01*
X164399410Y-90469060D01*
X164429697Y-90436810D01*
X164439456Y-90419056D01*
X164450315Y-90402527D01*
X164453358Y-90398604D01*
X164462725Y-90386529D01*
X164480288Y-90345940D01*
X164485507Y-90335290D01*
X164487205Y-90332202D01*
X164506806Y-90296549D01*
X164511844Y-90276924D01*
X164518249Y-90258219D01*
X164526292Y-90239634D01*
X164533207Y-90195970D01*
X164535615Y-90184341D01*
X164537459Y-90177160D01*
X164546611Y-90141519D01*
X164546611Y-90121264D01*
X164548162Y-90101552D01*
X164548176Y-90101463D01*
X164551331Y-90081546D01*
X164547170Y-90037525D01*
X164546611Y-90025668D01*
X164546611Y-87365165D01*
X164548360Y-87349323D01*
X164548067Y-87349296D01*
X164548811Y-87341410D01*
X164548813Y-87341403D01*
X164546673Y-87273311D01*
X164546611Y-87269353D01*
X164546611Y-87241461D01*
X164546611Y-87241455D01*
X164546104Y-87237446D01*
X164545173Y-87225617D01*
X164543785Y-87181422D01*
X164538131Y-87161963D01*
X164534123Y-87142608D01*
X164531585Y-87122514D01*
X164515306Y-87081398D01*
X164511467Y-87070183D01*
X164507231Y-87055604D01*
X164499130Y-87027718D01*
X164488814Y-87010275D01*
X164480116Y-86992520D01*
X164472663Y-86973694D01*
X164451517Y-86944589D01*
X164446674Y-86937923D01*
X164440163Y-86928011D01*
X164417653Y-86889949D01*
X164403325Y-86875621D01*
X164390495Y-86860600D01*
X164378583Y-86844204D01*
X164378580Y-86844202D01*
X164378580Y-86844201D01*
X164344505Y-86816011D01*
X164335727Y-86808023D01*
X163321244Y-85793539D01*
X163311279Y-85781101D01*
X163311052Y-85781290D01*
X163306001Y-85775184D01*
X163306000Y-85775182D01*
X163304824Y-85774078D01*
X163256348Y-85728556D01*
X163253504Y-85725799D01*
X163233777Y-85706071D01*
X163233771Y-85706066D01*
X163230567Y-85703580D01*
X163221556Y-85695883D01*
X163189325Y-85665617D01*
X163189319Y-85665613D01*
X163171563Y-85655851D01*
X163155047Y-85645002D01*
X163139041Y-85632586D01*
X163098464Y-85615027D01*
X163087807Y-85609805D01*
X163049063Y-85588506D01*
X163049060Y-85588505D01*
X163029436Y-85583466D01*
X163010736Y-85577064D01*
X162998682Y-85571848D01*
X162992145Y-85569019D01*
X162992143Y-85569018D01*
X162992141Y-85569018D01*
X162948474Y-85562101D01*
X162936855Y-85559695D01*
X162894030Y-85548700D01*
X162873776Y-85548700D01*
X162854066Y-85547149D01*
X162834057Y-85543980D01*
X162792007Y-85547955D01*
X162790039Y-85548141D01*
X162778181Y-85548700D01*
X162146216Y-85548700D01*
X162078095Y-85528698D01*
X162031602Y-85475042D01*
X162021498Y-85404768D01*
X162050992Y-85340188D01*
X162060515Y-85330335D01*
X162164474Y-85233876D01*
X162164474Y-85233874D01*
X162164478Y-85233872D01*
X162321331Y-85037184D01*
X162447117Y-84819316D01*
X162539027Y-84585134D01*
X162595007Y-84339869D01*
X162613807Y-84089000D01*
X162595007Y-83838131D01*
X162539027Y-83592866D01*
X162490655Y-83469617D01*
X162447120Y-83358690D01*
X162447118Y-83358686D01*
X162321333Y-83140819D01*
X162296762Y-83110008D01*
X162164478Y-82944128D01*
X162164477Y-82944127D01*
X162164474Y-82944123D01*
X161996444Y-82788216D01*
X161980062Y-82773016D01*
X161772206Y-82631301D01*
X161545549Y-82522148D01*
X161545536Y-82522143D01*
X161305159Y-82447997D01*
X161305151Y-82447995D01*
X161305149Y-82447995D01*
X161056386Y-82410500D01*
X160804814Y-82410500D01*
X160556051Y-82447995D01*
X160556049Y-82447995D01*
X160556040Y-82447997D01*
X160315663Y-82522143D01*
X160315651Y-82522148D01*
X160088994Y-82631301D01*
X160088987Y-82631305D01*
X159881144Y-82773011D01*
X159881132Y-82773021D01*
X159696725Y-82944123D01*
X159539866Y-83140819D01*
X159414081Y-83358686D01*
X159414079Y-83358690D01*
X159322171Y-83592870D01*
X159275091Y-83799145D01*
X159266193Y-83838131D01*
X159247393Y-84089000D01*
X159266193Y-84339869D01*
X159266194Y-84339873D01*
X159322171Y-84585129D01*
X159414079Y-84819309D01*
X159414081Y-84819313D01*
X159539866Y-85037180D01*
X159539868Y-85037183D01*
X159539869Y-85037184D01*
X159551991Y-85052384D01*
X159696725Y-85233876D01*
X159800685Y-85330335D01*
X159837017Y-85391331D01*
X159834604Y-85462287D01*
X159794212Y-85520674D01*
X159728666Y-85547955D01*
X159714984Y-85548700D01*
X157146216Y-85548700D01*
X157078095Y-85528698D01*
X157031602Y-85475042D01*
X157021498Y-85404768D01*
X157050992Y-85340188D01*
X157060515Y-85330335D01*
X157164474Y-85233876D01*
X157164474Y-85233874D01*
X157164478Y-85233872D01*
X157321331Y-85037184D01*
X157447117Y-84819316D01*
X157539027Y-84585134D01*
X157595007Y-84339869D01*
X157613807Y-84089000D01*
X157595007Y-83838131D01*
X157539027Y-83592866D01*
X157490655Y-83469617D01*
X157447120Y-83358690D01*
X157447118Y-83358686D01*
X157321333Y-83140819D01*
X157296762Y-83110008D01*
X157164478Y-82944128D01*
X157164477Y-82944127D01*
X157164474Y-82944123D01*
X156996444Y-82788216D01*
X156980062Y-82773016D01*
X156772206Y-82631301D01*
X156545549Y-82522148D01*
X156545536Y-82522143D01*
X156305159Y-82447997D01*
X156305151Y-82447995D01*
X156305149Y-82447995D01*
X156056386Y-82410500D01*
X155804814Y-82410500D01*
X155556051Y-82447995D01*
X155556049Y-82447995D01*
X155556040Y-82447997D01*
X155315663Y-82522143D01*
X155315651Y-82522148D01*
X155088994Y-82631301D01*
X155088987Y-82631305D01*
X154881144Y-82773011D01*
X154881132Y-82773021D01*
X154696725Y-82944123D01*
X154539866Y-83140819D01*
X154414081Y-83358686D01*
X154414079Y-83358690D01*
X154322171Y-83592870D01*
X154275091Y-83799145D01*
X154266193Y-83838131D01*
X154247393Y-84089000D01*
X154266193Y-84339869D01*
X154266194Y-84339873D01*
X154322171Y-84585129D01*
X154414079Y-84819309D01*
X154414081Y-84819313D01*
X154539866Y-85037180D01*
X154539868Y-85037183D01*
X154539869Y-85037184D01*
X154551991Y-85052384D01*
X154696725Y-85233876D01*
X154800685Y-85330335D01*
X154837017Y-85391331D01*
X154834604Y-85462287D01*
X154794212Y-85520674D01*
X154728666Y-85547955D01*
X154714984Y-85548700D01*
X152146216Y-85548700D01*
X152078095Y-85528698D01*
X152031602Y-85475042D01*
X152021498Y-85404768D01*
X152050992Y-85340188D01*
X152060515Y-85330335D01*
X152164474Y-85233876D01*
X152164474Y-85233874D01*
X152164478Y-85233872D01*
X152321331Y-85037184D01*
X152447117Y-84819316D01*
X152539027Y-84585134D01*
X152595007Y-84339869D01*
X152613807Y-84089000D01*
X152595007Y-83838131D01*
X152539027Y-83592866D01*
X152490655Y-83469617D01*
X152447120Y-83358690D01*
X152447118Y-83358686D01*
X152321333Y-83140819D01*
X152296762Y-83110008D01*
X152164478Y-82944128D01*
X152164477Y-82944127D01*
X152164474Y-82944123D01*
X151996444Y-82788216D01*
X151980062Y-82773016D01*
X151772206Y-82631301D01*
X151545549Y-82522148D01*
X151545536Y-82522143D01*
X151305159Y-82447997D01*
X151305151Y-82447995D01*
X151305149Y-82447995D01*
X151056386Y-82410500D01*
X150804814Y-82410500D01*
X150556051Y-82447995D01*
X150556049Y-82447995D01*
X150556040Y-82447997D01*
X150315663Y-82522143D01*
X150315651Y-82522148D01*
X150088994Y-82631301D01*
X150088987Y-82631305D01*
X149881144Y-82773011D01*
X149881132Y-82773021D01*
X149696725Y-82944123D01*
X149539866Y-83140819D01*
X149414081Y-83358686D01*
X149414079Y-83358690D01*
X149322171Y-83592870D01*
X149275091Y-83799145D01*
X149266193Y-83838131D01*
X149247393Y-84089000D01*
X149266193Y-84339869D01*
X149266194Y-84339873D01*
X149322171Y-84585129D01*
X149414079Y-84819309D01*
X149414081Y-84819313D01*
X149539866Y-85037180D01*
X149539868Y-85037183D01*
X149539869Y-85037184D01*
X149551991Y-85052384D01*
X149696725Y-85233876D01*
X149800685Y-85330335D01*
X149837017Y-85391331D01*
X149834604Y-85462287D01*
X149794212Y-85520674D01*
X149728666Y-85547955D01*
X149714984Y-85548700D01*
X143501596Y-85548700D01*
X143433475Y-85528698D01*
X143386982Y-85475042D01*
X143386483Y-85472092D01*
X142621282Y-84706891D01*
X142693429Y-84678326D01*
X142826292Y-84581795D01*
X142930975Y-84455255D01*
X142981241Y-84348432D01*
X143731199Y-85098390D01*
X143731200Y-85098390D01*
X143768118Y-85052097D01*
X143893866Y-84834295D01*
X143893868Y-84834291D01*
X143985745Y-84600189D01*
X143985746Y-84600187D01*
X144041710Y-84354997D01*
X144060504Y-84104200D01*
X144041710Y-83853402D01*
X143985746Y-83608212D01*
X143985745Y-83608210D01*
X143893868Y-83374108D01*
X143893866Y-83374104D01*
X143768118Y-83156302D01*
X143731200Y-83110008D01*
X143731199Y-83110008D01*
X142981733Y-83859473D01*
X142970612Y-83825244D01*
X142882614Y-83686581D01*
X142762897Y-83574160D01*
X142624639Y-83498151D01*
X143371788Y-82751001D01*
X143371788Y-82750999D01*
X143219155Y-82646936D01*
X143219147Y-82646931D01*
X142992570Y-82537817D01*
X142992552Y-82537810D01*
X142752247Y-82463686D01*
X142752235Y-82463684D01*
X142503545Y-82426200D01*
X142252055Y-82426200D01*
X142003364Y-82463684D01*
X142003352Y-82463686D01*
X141763047Y-82537810D01*
X141763034Y-82537815D01*
X141536451Y-82646932D01*
X141383810Y-82751000D01*
X141383810Y-82751001D01*
X142134317Y-83501508D01*
X142062171Y-83530074D01*
X141929308Y-83626605D01*
X141824625Y-83753145D01*
X141774358Y-83859967D01*
X141024398Y-83110007D01*
X141024397Y-83110007D01*
X140987486Y-83156295D01*
X140861733Y-83374104D01*
X140861731Y-83374108D01*
X140769854Y-83608210D01*
X140769853Y-83608212D01*
X140713889Y-83853402D01*
X140695095Y-84104200D01*
X140713889Y-84354997D01*
X140769853Y-84600187D01*
X140769854Y-84600189D01*
X140861731Y-84834291D01*
X140861733Y-84834295D01*
X140987482Y-85052099D01*
X140987485Y-85052102D01*
X141024397Y-85098390D01*
X141773865Y-84348923D01*
X141784988Y-84383156D01*
X141872986Y-84521819D01*
X141992703Y-84634240D01*
X142130960Y-84710248D01*
X141367181Y-85474026D01*
X141365897Y-85480629D01*
X141316815Y-85531928D01*
X141254003Y-85548700D01*
X138609798Y-85548700D01*
X138541677Y-85528698D01*
X138495184Y-85475042D01*
X138485080Y-85404768D01*
X138514574Y-85340188D01*
X138524097Y-85330335D01*
X138611674Y-85249076D01*
X138611674Y-85249074D01*
X138611678Y-85249072D01*
X138768531Y-85052384D01*
X138894317Y-84834516D01*
X138894406Y-84834291D01*
X138925839Y-84754200D01*
X138986227Y-84600334D01*
X139042207Y-84355069D01*
X139061007Y-84104200D01*
X139042207Y-83853331D01*
X138986227Y-83608066D01*
X138910487Y-83415084D01*
X138894320Y-83373890D01*
X138894318Y-83373886D01*
X138768533Y-83156019D01*
X138768524Y-83156008D01*
X138611678Y-82959328D01*
X138611677Y-82959327D01*
X138611674Y-82959323D01*
X138427267Y-82788221D01*
X138427261Y-82788215D01*
X138357976Y-82740977D01*
X138219406Y-82646501D01*
X137992749Y-82537348D01*
X137992736Y-82537343D01*
X137752359Y-82463197D01*
X137752351Y-82463195D01*
X137752349Y-82463195D01*
X137503586Y-82425700D01*
X137252014Y-82425700D01*
X137003251Y-82463195D01*
X137003249Y-82463195D01*
X137003240Y-82463197D01*
X136762863Y-82537343D01*
X136762851Y-82537348D01*
X136536194Y-82646501D01*
X136536187Y-82646505D01*
X136328344Y-82788211D01*
X136328332Y-82788221D01*
X136143925Y-82959323D01*
X135987066Y-83156019D01*
X135861281Y-83373886D01*
X135861279Y-83373890D01*
X135769371Y-83608070D01*
X135716863Y-83838126D01*
X135713393Y-83853331D01*
X135694593Y-84104200D01*
X135713393Y-84355069D01*
X135713394Y-84355073D01*
X135769371Y-84600329D01*
X135861279Y-84834509D01*
X135861281Y-84834513D01*
X135987066Y-85052380D01*
X135987068Y-85052383D01*
X135987069Y-85052384D01*
X136060441Y-85144390D01*
X136143925Y-85249076D01*
X136262473Y-85359071D01*
X136328338Y-85420184D01*
X136328344Y-85420188D01*
X136536187Y-85561894D01*
X136536194Y-85561898D01*
X136536197Y-85561900D01*
X136762855Y-85671053D01*
X136762858Y-85671053D01*
X136762863Y-85671056D01*
X136971905Y-85735536D01*
X137031103Y-85774728D01*
X137059716Y-85839704D01*
X137048657Y-85909834D01*
X137023861Y-85945033D01*
X135860646Y-87108247D01*
X135798334Y-87142273D01*
X135738940Y-87140859D01*
X135675490Y-87123857D01*
X135447400Y-87103902D01*
X135219313Y-87123857D01*
X134998159Y-87183115D01*
X134998153Y-87183117D01*
X134790650Y-87279877D01*
X134603103Y-87411199D01*
X134603097Y-87411204D01*
X134441204Y-87573097D01*
X134441199Y-87573103D01*
X134309877Y-87760650D01*
X134213117Y-87968153D01*
X134213115Y-87968159D01*
X134189878Y-88054881D01*
X134153857Y-88189313D01*
X134133902Y-88417400D01*
X134153857Y-88645487D01*
X134181808Y-88749800D01*
X134180118Y-88820777D01*
X134140324Y-88879572D01*
X134075059Y-88907520D01*
X134060101Y-88908411D01*
X133136186Y-88908411D01*
X133068065Y-88888409D01*
X133021572Y-88834753D01*
X133011468Y-88764479D01*
X133023395Y-88726248D01*
X133078206Y-88616170D01*
X133078209Y-88616162D01*
X133134401Y-88418665D01*
X133134401Y-88418661D01*
X133153348Y-88214204D01*
X133153348Y-88214195D01*
X133134401Y-88009738D01*
X133134401Y-88009734D01*
X133078209Y-87812237D01*
X133078206Y-87812229D01*
X132986675Y-87628410D01*
X132986212Y-87627798D01*
X132986211Y-87627797D01*
X132333698Y-88280310D01*
X132344496Y-88242360D01*
X132334147Y-88130679D01*
X132284153Y-88030278D01*
X132201267Y-87954716D01*
X132096681Y-87914200D01*
X132012799Y-87914200D01*
X131930351Y-87929612D01*
X131834991Y-87988657D01*
X131767400Y-88078162D01*
X131736706Y-88186040D01*
X131745231Y-88278040D01*
X131186006Y-87718815D01*
X131151980Y-87656503D01*
X131149101Y-87629720D01*
X131149101Y-87565567D01*
X131149100Y-87565550D01*
X131142591Y-87505003D01*
X131142589Y-87504995D01*
X131105311Y-87405051D01*
X131091490Y-87367996D01*
X131091489Y-87367994D01*
X131091488Y-87367992D01*
X131019617Y-87271984D01*
X131457594Y-87271984D01*
X132040600Y-87854990D01*
X132040601Y-87854990D01*
X132623606Y-87271983D01*
X132536600Y-87218113D01*
X132536588Y-87218107D01*
X132345126Y-87143933D01*
X132345123Y-87143932D01*
X132143270Y-87106200D01*
X131937932Y-87106200D01*
X131736078Y-87143932D01*
X131736075Y-87143933D01*
X131544605Y-87218110D01*
X131544601Y-87218112D01*
X131457594Y-87271983D01*
X131457594Y-87271984D01*
X131019617Y-87271984D01*
X131003862Y-87250938D01*
X130886808Y-87163312D01*
X130886803Y-87163310D01*
X130749805Y-87112211D01*
X130749797Y-87112209D01*
X130689250Y-87105700D01*
X130689239Y-87105700D01*
X129391963Y-87105700D01*
X129391951Y-87105700D01*
X129331404Y-87112209D01*
X129331396Y-87112211D01*
X129194398Y-87163310D01*
X129194393Y-87163312D01*
X129077339Y-87250938D01*
X128989713Y-87367992D01*
X128989711Y-87367997D01*
X128938612Y-87504995D01*
X128938610Y-87505003D01*
X128932101Y-87565550D01*
X128932101Y-88006406D01*
X128912099Y-88074527D01*
X128858443Y-88121020D01*
X128788169Y-88131124D01*
X128723589Y-88101630D01*
X128717006Y-88095501D01*
X128650244Y-88028739D01*
X128640279Y-88016301D01*
X128640052Y-88016490D01*
X128635001Y-88010384D01*
X128635000Y-88010382D01*
X128585347Y-87963755D01*
X128582504Y-87960999D01*
X128562777Y-87941271D01*
X128562771Y-87941266D01*
X128559567Y-87938780D01*
X128550556Y-87931083D01*
X128518325Y-87900817D01*
X128518319Y-87900813D01*
X128500563Y-87891051D01*
X128484047Y-87880202D01*
X128468041Y-87867786D01*
X128427464Y-87850227D01*
X128416807Y-87845005D01*
X128378063Y-87823706D01*
X128378060Y-87823705D01*
X128358436Y-87818666D01*
X128339736Y-87812264D01*
X128327042Y-87806771D01*
X128321145Y-87804219D01*
X128321143Y-87804218D01*
X128321141Y-87804218D01*
X128277474Y-87797301D01*
X128265855Y-87794895D01*
X128223030Y-87783900D01*
X128202776Y-87783900D01*
X128183066Y-87782349D01*
X128163057Y-87779180D01*
X128128994Y-87782400D01*
X128119039Y-87783341D01*
X128107181Y-87783900D01*
X126394835Y-87783900D01*
X126326714Y-87763898D01*
X126305740Y-87746995D01*
X124485907Y-85927162D01*
X124451881Y-85864850D01*
X124456946Y-85794035D01*
X124499493Y-85737199D01*
X124537871Y-85717662D01*
X124541362Y-85716585D01*
X124541365Y-85716584D01*
X124767955Y-85607463D01*
X124920588Y-85503398D01*
X124920588Y-85503397D01*
X124170081Y-84752891D01*
X124242229Y-84724326D01*
X124375092Y-84627795D01*
X124479775Y-84501255D01*
X124530041Y-84394432D01*
X125279999Y-85144390D01*
X125280000Y-85144390D01*
X125316918Y-85098097D01*
X125442666Y-84880295D01*
X125442668Y-84880291D01*
X125534545Y-84646189D01*
X125534546Y-84646187D01*
X125590510Y-84400997D01*
X125609304Y-84150200D01*
X125605857Y-84104200D01*
X130694593Y-84104200D01*
X130713393Y-84355069D01*
X130713394Y-84355073D01*
X130769371Y-84600329D01*
X130861279Y-84834509D01*
X130861281Y-84834513D01*
X130987066Y-85052380D01*
X130987068Y-85052383D01*
X130987069Y-85052384D01*
X131060441Y-85144390D01*
X131143925Y-85249076D01*
X131262473Y-85359071D01*
X131328338Y-85420184D01*
X131328344Y-85420188D01*
X131536187Y-85561894D01*
X131536194Y-85561898D01*
X131536197Y-85561900D01*
X131762855Y-85671053D01*
X131762858Y-85671053D01*
X131762863Y-85671056D01*
X132003240Y-85745202D01*
X132003242Y-85745202D01*
X132003251Y-85745205D01*
X132252014Y-85782700D01*
X132252018Y-85782700D01*
X132503582Y-85782700D01*
X132503586Y-85782700D01*
X132752349Y-85745205D01*
X132778304Y-85737199D01*
X132992736Y-85671056D01*
X132992738Y-85671054D01*
X132992745Y-85671053D01*
X133219404Y-85561900D01*
X133427262Y-85420184D01*
X133611678Y-85249072D01*
X133768531Y-85052384D01*
X133894317Y-84834516D01*
X133894406Y-84834291D01*
X133925839Y-84754200D01*
X133986227Y-84600334D01*
X134042207Y-84355069D01*
X134061007Y-84104200D01*
X134042207Y-83853331D01*
X133986227Y-83608066D01*
X133910487Y-83415084D01*
X133894320Y-83373890D01*
X133894318Y-83373886D01*
X133768533Y-83156019D01*
X133768524Y-83156008D01*
X133611678Y-82959328D01*
X133611677Y-82959327D01*
X133611674Y-82959323D01*
X133427267Y-82788221D01*
X133427261Y-82788215D01*
X133357976Y-82740977D01*
X133219406Y-82646501D01*
X132992749Y-82537348D01*
X132992736Y-82537343D01*
X132752359Y-82463197D01*
X132752351Y-82463195D01*
X132752349Y-82463195D01*
X132503586Y-82425700D01*
X132252014Y-82425700D01*
X132003251Y-82463195D01*
X132003249Y-82463195D01*
X132003240Y-82463197D01*
X131762863Y-82537343D01*
X131762851Y-82537348D01*
X131536194Y-82646501D01*
X131536187Y-82646505D01*
X131328344Y-82788211D01*
X131328332Y-82788221D01*
X131143925Y-82959323D01*
X130987066Y-83156019D01*
X130861281Y-83373886D01*
X130861279Y-83373890D01*
X130769371Y-83608070D01*
X130716863Y-83838126D01*
X130713393Y-83853331D01*
X130694593Y-84104200D01*
X125605857Y-84104200D01*
X125590510Y-83899402D01*
X125534546Y-83654212D01*
X125534545Y-83654210D01*
X125442668Y-83420108D01*
X125442666Y-83420104D01*
X125316918Y-83202302D01*
X125280000Y-83156008D01*
X125279999Y-83156008D01*
X124530533Y-83905473D01*
X124519412Y-83871244D01*
X124431414Y-83732581D01*
X124311697Y-83620160D01*
X124173439Y-83544151D01*
X124920588Y-82797001D01*
X124920588Y-82796999D01*
X124767955Y-82692936D01*
X124767947Y-82692931D01*
X124541370Y-82583817D01*
X124541352Y-82583810D01*
X124301047Y-82509686D01*
X124301035Y-82509684D01*
X124052345Y-82472200D01*
X123800855Y-82472200D01*
X123552164Y-82509684D01*
X123552152Y-82509686D01*
X123311847Y-82583810D01*
X123311834Y-82583815D01*
X123085251Y-82692932D01*
X122932610Y-82797000D01*
X122932610Y-82797001D01*
X123683117Y-83547508D01*
X123610971Y-83576074D01*
X123478108Y-83672605D01*
X123373425Y-83799145D01*
X123323158Y-83905967D01*
X122573198Y-83156007D01*
X122573197Y-83156007D01*
X122536286Y-83202295D01*
X122410533Y-83420104D01*
X122359169Y-83550978D01*
X122315662Y-83607082D01*
X122248729Y-83630758D01*
X122179622Y-83614489D01*
X122152787Y-83594041D01*
X120770885Y-82212139D01*
X120760920Y-82199701D01*
X120760693Y-82199890D01*
X120755642Y-82193784D01*
X120755641Y-82193782D01*
X120705989Y-82147156D01*
X120703146Y-82144400D01*
X120683418Y-82124671D01*
X120683412Y-82124666D01*
X120680208Y-82122180D01*
X120671197Y-82114483D01*
X120638966Y-82084217D01*
X120638960Y-82084213D01*
X120621204Y-82074451D01*
X120604688Y-82063602D01*
X120588682Y-82051186D01*
X120548105Y-82033627D01*
X120537448Y-82028405D01*
X120498704Y-82007106D01*
X120498701Y-82007105D01*
X120479077Y-82002066D01*
X120460377Y-81995664D01*
X120441786Y-81987619D01*
X120441784Y-81987618D01*
X120441782Y-81987618D01*
X120398115Y-81980701D01*
X120386496Y-81978295D01*
X120343671Y-81967300D01*
X120323417Y-81967300D01*
X120303707Y-81965749D01*
X120283698Y-81962580D01*
X120239680Y-81966741D01*
X120227822Y-81967300D01*
X116510791Y-81967300D01*
X116442670Y-81947298D01*
X116396177Y-81893642D01*
X116386073Y-81823368D01*
X116415567Y-81758788D01*
X116475293Y-81720404D01*
X116509996Y-81715303D01*
X115915861Y-81719053D01*
X165228988Y-81407789D01*
X165297233Y-81427360D01*
G37*
%TD.AperFunction*%
%TA.AperFunction,Conductor*%
G36*
X120818319Y-84051836D02*
G01*
X120824902Y-84057965D01*
X124924739Y-88157802D01*
X124958765Y-88220114D01*
X124953700Y-88290929D01*
X124911153Y-88347765D01*
X124895040Y-88358019D01*
X124722596Y-88450193D01*
X124653090Y-88464665D01*
X124603804Y-88450193D01*
X124425617Y-88354950D01*
X124291844Y-88314371D01*
X124230801Y-88295854D01*
X124230800Y-88295853D01*
X124230794Y-88295852D01*
X124028203Y-88275899D01*
X124028197Y-88275899D01*
X123825605Y-88295852D01*
X123635294Y-88353581D01*
X123564300Y-88354214D01*
X123538161Y-88341278D01*
X123537314Y-88342830D01*
X123529403Y-88338510D01*
X123392404Y-88287411D01*
X123392396Y-88287409D01*
X123331849Y-88280900D01*
X123331838Y-88280900D01*
X122184562Y-88280900D01*
X122184550Y-88280900D01*
X122124003Y-88287409D01*
X122123995Y-88287411D01*
X121986997Y-88338510D01*
X121986992Y-88338512D01*
X121869938Y-88426138D01*
X121782312Y-88543192D01*
X121782310Y-88543197D01*
X121731211Y-88680195D01*
X121731209Y-88680203D01*
X121724700Y-88740750D01*
X121724700Y-90338049D01*
X121731209Y-90398596D01*
X121731211Y-90398604D01*
X121782310Y-90535602D01*
X121782312Y-90535607D01*
X121869938Y-90652661D01*
X121986992Y-90740287D01*
X121986994Y-90740288D01*
X121986996Y-90740289D01*
X122005930Y-90747351D01*
X122123995Y-90791388D01*
X122124003Y-90791390D01*
X122184550Y-90797899D01*
X122184555Y-90797899D01*
X122184562Y-90797900D01*
X122184568Y-90797900D01*
X123331832Y-90797900D01*
X123331838Y-90797900D01*
X123331845Y-90797899D01*
X123331849Y-90797899D01*
X123392396Y-90791390D01*
X123392399Y-90791389D01*
X123392401Y-90791389D01*
X123415038Y-90782946D01*
X123529401Y-90740290D01*
X123529400Y-90740290D01*
X123529404Y-90740289D01*
X123529407Y-90740286D01*
X123537313Y-90735970D01*
X123538991Y-90739044D01*
X123589696Y-90720117D01*
X123635292Y-90725217D01*
X123825599Y-90782946D01*
X123825603Y-90782946D01*
X123825605Y-90782947D01*
X124028197Y-90802901D01*
X124028200Y-90802901D01*
X124028203Y-90802901D01*
X124230794Y-90782947D01*
X124230795Y-90782946D01*
X124230801Y-90782946D01*
X124425617Y-90723850D01*
X124603807Y-90628605D01*
X124673309Y-90614134D01*
X124722591Y-90628604D01*
X124900783Y-90723850D01*
X125095599Y-90782946D01*
X125095603Y-90782946D01*
X125095605Y-90782947D01*
X125298197Y-90802901D01*
X125298200Y-90802901D01*
X125298203Y-90802901D01*
X125500794Y-90782947D01*
X125500795Y-90782946D01*
X125500801Y-90782946D01*
X125695617Y-90723850D01*
X125875160Y-90627882D01*
X126032531Y-90498731D01*
X126161682Y-90341360D01*
X126216125Y-90239503D01*
X126265877Y-90188856D01*
X126327247Y-90172900D01*
X127477206Y-90172900D01*
X127545327Y-90192902D01*
X127566301Y-90209805D01*
X130068501Y-92712005D01*
X130102527Y-92774317D01*
X130097462Y-92845132D01*
X130054915Y-92901968D01*
X129988395Y-92926779D01*
X129979406Y-92927100D01*
X128743750Y-92927100D01*
X128683203Y-92933609D01*
X128683195Y-92933611D01*
X128546197Y-92984710D01*
X128546192Y-92984712D01*
X128429138Y-93072338D01*
X128341512Y-93189392D01*
X128341510Y-93189397D01*
X128290411Y-93326395D01*
X128290409Y-93326403D01*
X128283900Y-93386950D01*
X128283900Y-95284249D01*
X128290409Y-95344796D01*
X128290411Y-95344804D01*
X128341510Y-95481802D01*
X128341512Y-95481807D01*
X128429138Y-95598861D01*
X128546192Y-95686487D01*
X128546194Y-95686488D01*
X128546196Y-95686489D01*
X128555792Y-95690068D01*
X128683195Y-95737588D01*
X128683203Y-95737590D01*
X128743750Y-95744099D01*
X128743755Y-95744099D01*
X128743762Y-95744100D01*
X128743768Y-95744100D01*
X130641032Y-95744100D01*
X130641038Y-95744100D01*
X130641045Y-95744099D01*
X130641049Y-95744099D01*
X130701596Y-95737590D01*
X130701599Y-95737589D01*
X130701601Y-95737589D01*
X130709996Y-95734458D01*
X130752300Y-95718679D01*
X130838604Y-95686489D01*
X130853228Y-95675542D01*
X130955661Y-95598861D01*
X131043287Y-95481807D01*
X131043287Y-95481806D01*
X131043289Y-95481804D01*
X131094389Y-95344801D01*
X131095412Y-95335293D01*
X131100899Y-95284249D01*
X131100900Y-95284232D01*
X131100900Y-93418700D01*
X131120902Y-93350579D01*
X131174558Y-93304086D01*
X131226900Y-93292700D01*
X134228006Y-93292700D01*
X134296127Y-93312702D01*
X134331219Y-93346429D01*
X134397089Y-93440500D01*
X134441202Y-93503500D01*
X134603100Y-93665398D01*
X134790651Y-93796723D01*
X134998157Y-93893484D01*
X135219313Y-93952743D01*
X135447400Y-93972698D01*
X135675487Y-93952743D01*
X135896643Y-93893484D01*
X136104149Y-93796723D01*
X136291700Y-93665398D01*
X136453598Y-93503500D01*
X136584923Y-93315949D01*
X136681684Y-93108443D01*
X136740943Y-92887287D01*
X136760898Y-92659200D01*
X136740943Y-92431113D01*
X136681684Y-92209957D01*
X136584923Y-92002451D01*
X136453598Y-91814900D01*
X136291700Y-91653002D01*
X136230058Y-91609840D01*
X136104149Y-91521677D01*
X135896646Y-91424917D01*
X135896640Y-91424915D01*
X135798599Y-91398645D01*
X135675487Y-91365657D01*
X135447400Y-91345702D01*
X135219313Y-91365657D01*
X134998159Y-91424915D01*
X134998153Y-91424917D01*
X134790650Y-91521677D01*
X134603103Y-91652999D01*
X134603097Y-91653004D01*
X134441204Y-91814897D01*
X134441199Y-91814903D01*
X134331219Y-91971971D01*
X134275762Y-92016299D01*
X134228006Y-92025700D01*
X131226195Y-92025700D01*
X131158074Y-92005698D01*
X131137100Y-91988795D01*
X129538811Y-90390506D01*
X129504785Y-90328194D01*
X129509850Y-90257379D01*
X129552397Y-90200543D01*
X129618917Y-90175732D01*
X129627906Y-90175411D01*
X139239036Y-90175411D01*
X139254877Y-90177160D01*
X139254905Y-90176867D01*
X139262791Y-90177611D01*
X139262798Y-90177613D01*
X139330875Y-90175473D01*
X139334834Y-90175411D01*
X139362740Y-90175411D01*
X139362745Y-90175411D01*
X139366756Y-90174903D01*
X139378588Y-90173972D01*
X139422778Y-90172584D01*
X139442236Y-90166930D01*
X139461583Y-90162924D01*
X139481686Y-90160385D01*
X139522799Y-90144106D01*
X139534019Y-90140264D01*
X139558802Y-90133065D01*
X139576480Y-90127930D01*
X139576484Y-90127928D01*
X139593915Y-90117619D01*
X139611669Y-90108920D01*
X139630506Y-90101463D01*
X139666281Y-90075469D01*
X139676187Y-90068962D01*
X139714251Y-90046453D01*
X139728574Y-90032129D01*
X139743613Y-90019285D01*
X139759996Y-90007383D01*
X139788192Y-89973297D01*
X139796161Y-89964541D01*
X140034153Y-89726549D01*
X140096463Y-89692525D01*
X140155857Y-89693939D01*
X140198053Y-89705246D01*
X140211158Y-89708758D01*
X140219313Y-89710943D01*
X140447400Y-89730898D01*
X140675487Y-89710943D01*
X140896643Y-89651684D01*
X141104149Y-89554923D01*
X141291700Y-89423598D01*
X141453598Y-89261700D01*
X141584923Y-89074149D01*
X141618753Y-89001600D01*
X144598702Y-89001600D01*
X144618657Y-89229687D01*
X144636448Y-89296082D01*
X144677915Y-89450840D01*
X144677917Y-89450846D01*
X144774677Y-89658349D01*
X144905995Y-89845891D01*
X144906002Y-89845900D01*
X145067900Y-90007798D01*
X145255451Y-90139123D01*
X145462957Y-90235884D01*
X145684113Y-90295143D01*
X145912200Y-90315098D01*
X146140287Y-90295143D01*
X146361443Y-90235884D01*
X146568949Y-90139123D01*
X146756500Y-90007798D01*
X146918398Y-89845900D01*
X147049723Y-89658349D01*
X147146484Y-89450843D01*
X147205743Y-89229687D01*
X147225698Y-89001600D01*
X147205743Y-88773513D01*
X147146484Y-88552357D01*
X147049723Y-88344851D01*
X146918398Y-88157300D01*
X146756500Y-87995402D01*
X146662542Y-87929612D01*
X146568949Y-87864077D01*
X146361446Y-87767317D01*
X146361440Y-87767315D01*
X146245138Y-87736152D01*
X146140287Y-87708057D01*
X145912200Y-87688102D01*
X145684113Y-87708057D01*
X145462959Y-87767315D01*
X145462953Y-87767317D01*
X145255450Y-87864077D01*
X145067903Y-87995399D01*
X145067897Y-87995404D01*
X144906004Y-88157297D01*
X144905999Y-88157303D01*
X144774677Y-88344850D01*
X144677917Y-88552353D01*
X144677915Y-88552359D01*
X144625695Y-88747246D01*
X144618657Y-88773513D01*
X144598702Y-89001600D01*
X141618753Y-89001600D01*
X141681684Y-88866643D01*
X141740943Y-88645487D01*
X141760898Y-88417400D01*
X141740943Y-88189313D01*
X141681684Y-87968157D01*
X141584923Y-87760651D01*
X141453598Y-87573100D01*
X141291700Y-87411202D01*
X141282915Y-87405051D01*
X141104149Y-87279877D01*
X140896646Y-87183117D01*
X140896640Y-87183115D01*
X140803171Y-87158070D01*
X140675487Y-87123857D01*
X140447400Y-87103902D01*
X140219313Y-87123857D01*
X139998159Y-87183115D01*
X139998153Y-87183117D01*
X139790650Y-87279877D01*
X139603103Y-87411199D01*
X139603097Y-87411204D01*
X139441204Y-87573097D01*
X139441199Y-87573103D01*
X139309877Y-87760650D01*
X139213117Y-87968153D01*
X139213115Y-87968159D01*
X139153857Y-88189313D01*
X139133902Y-88417400D01*
X139153857Y-88645490D01*
X139170859Y-88708940D01*
X139169169Y-88779916D01*
X139138249Y-88830645D01*
X139097390Y-88871505D01*
X139035078Y-88905531D01*
X139008293Y-88908411D01*
X136834699Y-88908411D01*
X136766578Y-88888409D01*
X136720085Y-88834753D01*
X136709981Y-88764479D01*
X136712992Y-88749800D01*
X136740943Y-88645487D01*
X136760898Y-88417400D01*
X136740943Y-88189313D01*
X136723940Y-88125857D01*
X136725629Y-88054881D01*
X136756547Y-88004155D01*
X137908101Y-86852602D01*
X137970411Y-86818579D01*
X137997194Y-86815700D01*
X150307706Y-86815700D01*
X150375827Y-86835702D01*
X150422320Y-86889358D01*
X150432424Y-86959632D01*
X150402930Y-87024212D01*
X150396801Y-87030795D01*
X145447336Y-91980257D01*
X145434901Y-91990221D01*
X145435089Y-91990448D01*
X145428979Y-91995502D01*
X145382370Y-92045135D01*
X145379620Y-92047973D01*
X145359863Y-92067731D01*
X145357374Y-92070939D01*
X145349688Y-92079936D01*
X145319418Y-92112173D01*
X145319411Y-92112183D01*
X145309651Y-92129935D01*
X145298803Y-92146450D01*
X145286386Y-92162458D01*
X145268824Y-92203040D01*
X145263604Y-92213695D01*
X145242305Y-92252439D01*
X145242303Y-92252444D01*
X145237267Y-92272059D01*
X145230864Y-92290762D01*
X145222819Y-92309352D01*
X145215901Y-92353025D01*
X145213495Y-92364642D01*
X145202500Y-92407468D01*
X145202500Y-92427723D01*
X145200949Y-92447433D01*
X145197780Y-92467442D01*
X145201941Y-92511461D01*
X145202500Y-92523319D01*
X145202500Y-93065406D01*
X145182498Y-93133527D01*
X145148771Y-93168619D01*
X144991703Y-93278599D01*
X144991697Y-93278604D01*
X144829804Y-93440497D01*
X144829799Y-93440503D01*
X144698477Y-93628050D01*
X144601717Y-93835553D01*
X144601716Y-93835557D01*
X144542457Y-94056713D01*
X144522502Y-94284800D01*
X144542457Y-94512887D01*
X144547681Y-94532384D01*
X144601715Y-94734040D01*
X144601717Y-94734046D01*
X144698477Y-94941549D01*
X144784390Y-95064246D01*
X144829802Y-95129100D01*
X144991700Y-95290998D01*
X145179251Y-95422323D01*
X145386757Y-95519084D01*
X145607913Y-95578343D01*
X145836000Y-95598298D01*
X146064087Y-95578343D01*
X146285243Y-95519084D01*
X146492749Y-95422323D01*
X146680300Y-95290998D01*
X146842198Y-95129100D01*
X146973523Y-94941549D01*
X147070284Y-94734043D01*
X147129543Y-94512887D01*
X147149498Y-94284800D01*
X149522502Y-94284800D01*
X149542457Y-94512887D01*
X149547681Y-94532384D01*
X149601715Y-94734040D01*
X149601717Y-94734046D01*
X149698477Y-94941549D01*
X149784390Y-95064246D01*
X149829802Y-95129100D01*
X149991700Y-95290998D01*
X150179251Y-95422323D01*
X150386757Y-95519084D01*
X150607913Y-95578343D01*
X150836000Y-95598298D01*
X151064087Y-95578343D01*
X151285243Y-95519084D01*
X151492749Y-95422323D01*
X151680300Y-95290998D01*
X151842198Y-95129100D01*
X151973523Y-94941549D01*
X152070284Y-94734043D01*
X152129543Y-94512887D01*
X152149498Y-94284800D01*
X152129543Y-94056713D01*
X152070284Y-93835557D01*
X151973523Y-93628051D01*
X151842198Y-93440500D01*
X151680300Y-93278602D01*
X151659026Y-93263706D01*
X151492749Y-93147277D01*
X151285246Y-93050517D01*
X151285240Y-93050515D01*
X151179873Y-93022282D01*
X151064087Y-92991257D01*
X150836000Y-92971302D01*
X150607913Y-92991257D01*
X150386759Y-93050515D01*
X150386753Y-93050517D01*
X150179250Y-93147277D01*
X149991703Y-93278599D01*
X149991697Y-93278604D01*
X149829804Y-93440497D01*
X149829799Y-93440503D01*
X149698477Y-93628050D01*
X149601717Y-93835553D01*
X149601716Y-93835557D01*
X149542457Y-94056713D01*
X149522502Y-94284800D01*
X147149498Y-94284800D01*
X147129543Y-94056713D01*
X147070284Y-93835557D01*
X146973523Y-93628051D01*
X146842198Y-93440500D01*
X146680300Y-93278602D01*
X146662274Y-93265980D01*
X146523229Y-93168619D01*
X146478901Y-93113162D01*
X146469500Y-93065406D01*
X146469500Y-92802094D01*
X146489502Y-92733973D01*
X146506405Y-92712999D01*
X148022959Y-91196445D01*
X149580522Y-89638881D01*
X149642832Y-89604857D01*
X149713647Y-89609922D01*
X149770483Y-89652469D01*
X149772828Y-89655708D01*
X149905995Y-89845891D01*
X149905999Y-89845896D01*
X149906002Y-89845900D01*
X150067900Y-90007798D01*
X150255451Y-90139123D01*
X150462957Y-90235884D01*
X150684113Y-90295143D01*
X150912200Y-90315098D01*
X151140287Y-90295143D01*
X151361443Y-90235884D01*
X151568949Y-90139123D01*
X151756500Y-90007798D01*
X151918398Y-89845900D01*
X151992557Y-89739990D01*
X152028381Y-89688829D01*
X152083838Y-89644501D01*
X152131594Y-89635100D01*
X154876454Y-89635100D01*
X154944575Y-89655102D01*
X154991068Y-89708758D01*
X155001172Y-89779032D01*
X154971678Y-89843612D01*
X154911952Y-89881996D01*
X154909065Y-89882807D01*
X154744931Y-89926786D01*
X154744926Y-89926788D01*
X154537501Y-90023512D01*
X154350025Y-90154784D01*
X154350019Y-90154789D01*
X154188189Y-90316619D01*
X154188184Y-90316625D01*
X154056912Y-90504101D01*
X153960188Y-90711526D01*
X153960186Y-90711531D01*
X153907917Y-90906600D01*
X154882314Y-90906600D01*
X154866359Y-90922555D01*
X154808835Y-91035452D01*
X154789014Y-91160600D01*
X154808835Y-91285748D01*
X154866359Y-91398645D01*
X154882314Y-91414600D01*
X153907918Y-91414600D01*
X153960186Y-91609668D01*
X153960188Y-91609673D01*
X154056912Y-91817098D01*
X154188184Y-92004574D01*
X154188189Y-92004580D01*
X154350019Y-92166410D01*
X154350025Y-92166415D01*
X154537501Y-92297687D01*
X154744926Y-92394411D01*
X154744931Y-92394413D01*
X154940000Y-92446681D01*
X154940000Y-91472286D01*
X154955955Y-91488241D01*
X155068852Y-91545765D01*
X155162519Y-91560600D01*
X155225481Y-91560600D01*
X155319148Y-91545765D01*
X155432045Y-91488241D01*
X155448000Y-91472286D01*
X155448000Y-92446681D01*
X155643068Y-92394413D01*
X155643073Y-92394411D01*
X155850498Y-92297687D01*
X156037974Y-92166415D01*
X156037980Y-92166410D01*
X156199810Y-92004580D01*
X156199815Y-92004574D01*
X156331087Y-91817098D01*
X156427811Y-91609673D01*
X156427813Y-91609668D01*
X156487048Y-91388602D01*
X156497025Y-91274559D01*
X156522888Y-91208441D01*
X156580391Y-91166801D01*
X156651279Y-91162860D01*
X156711641Y-91196445D01*
X161762595Y-96247399D01*
X161796621Y-96309711D01*
X161799500Y-96336494D01*
X161799500Y-98894700D01*
X161779498Y-98962821D01*
X161725842Y-99009314D01*
X161673500Y-99020700D01*
X160589350Y-99020700D01*
X160528803Y-99027209D01*
X160528795Y-99027211D01*
X160391797Y-99078310D01*
X160391792Y-99078312D01*
X160274738Y-99165938D01*
X160187112Y-99282992D01*
X160187110Y-99282997D01*
X160136011Y-99419995D01*
X160136009Y-99420003D01*
X160129500Y-99480550D01*
X160129500Y-101077849D01*
X160136009Y-101138396D01*
X160136011Y-101138404D01*
X160187110Y-101275402D01*
X160187113Y-101275408D01*
X160203742Y-101297621D01*
X160228554Y-101364141D01*
X160213463Y-101433515D01*
X160163262Y-101483718D01*
X160102875Y-101499131D01*
X157938349Y-101499131D01*
X157870228Y-101479129D01*
X157823735Y-101425473D01*
X157813631Y-101355199D01*
X157840950Y-101293197D01*
X157849375Y-101282931D01*
X157886282Y-101237960D01*
X157982250Y-101058417D01*
X158041346Y-100863601D01*
X158042035Y-100856613D01*
X158050328Y-100772405D01*
X158056300Y-100711775D01*
X158056300Y-100160225D01*
X158049067Y-100086786D01*
X158041347Y-100008405D01*
X158041346Y-100008403D01*
X158041346Y-100008399D01*
X157982250Y-99813583D01*
X157886282Y-99634040D01*
X157757131Y-99476669D01*
X157757128Y-99476666D01*
X157702366Y-99431724D01*
X157662397Y-99373046D01*
X157656300Y-99334325D01*
X157656300Y-95689453D01*
X157658049Y-95673611D01*
X157657756Y-95673584D01*
X157658502Y-95665691D01*
X157656362Y-95597600D01*
X157656300Y-95593642D01*
X157656300Y-95565750D01*
X157656300Y-95565744D01*
X157655793Y-95561735D01*
X157654862Y-95549906D01*
X157654646Y-95543020D01*
X157653474Y-95505711D01*
X157647817Y-95486242D01*
X157643812Y-95466898D01*
X157641274Y-95446803D01*
X157624996Y-95405692D01*
X157621156Y-95394477D01*
X157608818Y-95352007D01*
X157598506Y-95334570D01*
X157589810Y-95316821D01*
X157582352Y-95297983D01*
X157556352Y-95262198D01*
X157549859Y-95252314D01*
X157527342Y-95214238D01*
X157513014Y-95199910D01*
X157500184Y-95184889D01*
X157488272Y-95168493D01*
X157488269Y-95168491D01*
X157488269Y-95168490D01*
X157454200Y-95140305D01*
X157445421Y-95132317D01*
X156477373Y-94164268D01*
X156477372Y-94164267D01*
X156477370Y-94164265D01*
X156474612Y-94162126D01*
X156463259Y-94153319D01*
X156426289Y-94107008D01*
X156356924Y-93958252D01*
X156225600Y-93770703D01*
X156225595Y-93770697D01*
X156063702Y-93608804D01*
X156063696Y-93608799D01*
X155876149Y-93477477D01*
X155668646Y-93380717D01*
X155668640Y-93380715D01*
X155540683Y-93346429D01*
X155447487Y-93321457D01*
X155219400Y-93301502D01*
X154991313Y-93321457D01*
X154770159Y-93380715D01*
X154770153Y-93380717D01*
X154562650Y-93477477D01*
X154375103Y-93608799D01*
X154375097Y-93608804D01*
X154213204Y-93770697D01*
X154213199Y-93770703D01*
X154081877Y-93958250D01*
X153985117Y-94165753D01*
X153985115Y-94165759D01*
X153925857Y-94386913D01*
X153905902Y-94615000D01*
X153925857Y-94843086D01*
X153985115Y-95064240D01*
X153985117Y-95064246D01*
X154081877Y-95271749D01*
X154204259Y-95446529D01*
X154213202Y-95459300D01*
X154375100Y-95621198D01*
X154562651Y-95752523D01*
X154770157Y-95849284D01*
X154991313Y-95908543D01*
X155219400Y-95928498D01*
X155447487Y-95908543D01*
X155668643Y-95849284D01*
X155876149Y-95752523D01*
X156023439Y-95649388D01*
X156090709Y-95626702D01*
X156159570Y-95643987D01*
X156184802Y-95663507D01*
X156352395Y-95831099D01*
X156386420Y-95893411D01*
X156389300Y-95920195D01*
X156389300Y-99169124D01*
X156369298Y-99237245D01*
X156315642Y-99283738D01*
X156245368Y-99293842D01*
X156203904Y-99280246D01*
X156150217Y-99251550D01*
X155955394Y-99192452D01*
X155752803Y-99172499D01*
X155752797Y-99172499D01*
X155550205Y-99192452D01*
X155359894Y-99250181D01*
X155288900Y-99250814D01*
X155262761Y-99237878D01*
X155261914Y-99239430D01*
X155254003Y-99235110D01*
X155117004Y-99184011D01*
X155116996Y-99184009D01*
X155056449Y-99177500D01*
X155056438Y-99177500D01*
X153909162Y-99177500D01*
X153909150Y-99177500D01*
X153848603Y-99184009D01*
X153848595Y-99184011D01*
X153711597Y-99235110D01*
X153711592Y-99235112D01*
X153594538Y-99322738D01*
X153506912Y-99439792D01*
X153506910Y-99439797D01*
X153455811Y-99576795D01*
X153455809Y-99576803D01*
X153449300Y-99637350D01*
X153449300Y-100923611D01*
X153429298Y-100991732D01*
X153375642Y-101038225D01*
X153323300Y-101049611D01*
X151802403Y-101049611D01*
X151734282Y-101029609D01*
X151687789Y-100975953D01*
X151677685Y-100905679D01*
X151680696Y-100891000D01*
X151708669Y-100786602D01*
X151728616Y-100558600D01*
X151708669Y-100330597D01*
X151649434Y-100109531D01*
X151649432Y-100109526D01*
X151552707Y-99902098D01*
X151502721Y-99830710D01*
X151502718Y-99830710D01*
X150814347Y-100519080D01*
X150800786Y-100433452D01*
X150743262Y-100320555D01*
X150653666Y-100230959D01*
X150540769Y-100173435D01*
X150455138Y-100159872D01*
X151143509Y-99471499D01*
X151143509Y-99471498D01*
X151072122Y-99421513D01*
X150864694Y-99324788D01*
X150864689Y-99324786D01*
X150643621Y-99265551D01*
X150643625Y-99265551D01*
X150415621Y-99245604D01*
X150187618Y-99265551D01*
X149966552Y-99324786D01*
X149966547Y-99324788D01*
X149759121Y-99421513D01*
X149687730Y-99471500D01*
X150376102Y-100159872D01*
X150290473Y-100173435D01*
X150177576Y-100230959D01*
X150087980Y-100320555D01*
X150030456Y-100433452D01*
X150016893Y-100519082D01*
X149316840Y-99819028D01*
X149291270Y-99813889D01*
X149240278Y-99764490D01*
X149225287Y-99713230D01*
X149224482Y-99713317D01*
X149217611Y-99649403D01*
X149217609Y-99649395D01*
X149166510Y-99512397D01*
X149166508Y-99512392D01*
X149078882Y-99395338D01*
X148961828Y-99307712D01*
X148961823Y-99307710D01*
X148824825Y-99256611D01*
X148824817Y-99256609D01*
X148764270Y-99250100D01*
X148764259Y-99250100D01*
X147066983Y-99250100D01*
X147066971Y-99250100D01*
X147006424Y-99256609D01*
X147006416Y-99256611D01*
X146869418Y-99307710D01*
X146869413Y-99307712D01*
X146752359Y-99395338D01*
X146664733Y-99512392D01*
X146664731Y-99512397D01*
X146613632Y-99649395D01*
X146613630Y-99649403D01*
X146607121Y-99709950D01*
X146607121Y-100195026D01*
X146587119Y-100263147D01*
X146533463Y-100309640D01*
X146463189Y-100319744D01*
X146398609Y-100290250D01*
X146392026Y-100284121D01*
X141117805Y-95009900D01*
X141083779Y-94947588D01*
X141080900Y-94920805D01*
X141080900Y-93878593D01*
X141100902Y-93810472D01*
X141134630Y-93775380D01*
X141291691Y-93665404D01*
X141291700Y-93665398D01*
X141453598Y-93503500D01*
X141584923Y-93315949D01*
X141681684Y-93108443D01*
X141740943Y-92887287D01*
X141760898Y-92659200D01*
X141740943Y-92431113D01*
X141681684Y-92209957D01*
X141584923Y-92002451D01*
X141453598Y-91814900D01*
X141291700Y-91653002D01*
X141230058Y-91609840D01*
X141104149Y-91521677D01*
X140896646Y-91424917D01*
X140896640Y-91424915D01*
X140798599Y-91398645D01*
X140675487Y-91365657D01*
X140447400Y-91345702D01*
X140219313Y-91365657D01*
X139998159Y-91424915D01*
X139998153Y-91424917D01*
X139790650Y-91521677D01*
X139603103Y-91652999D01*
X139603097Y-91653004D01*
X139441204Y-91814897D01*
X139441199Y-91814903D01*
X139309877Y-92002450D01*
X139213117Y-92209953D01*
X139213115Y-92209959D01*
X139171668Y-92364642D01*
X139153857Y-92431113D01*
X139133902Y-92659200D01*
X139153857Y-92887287D01*
X139166269Y-92933609D01*
X139213115Y-93108440D01*
X139213117Y-93108446D01*
X139292462Y-93278602D01*
X139309877Y-93315949D01*
X139441202Y-93503500D01*
X139603100Y-93665398D01*
X139603103Y-93665400D01*
X139603108Y-93665404D01*
X139760170Y-93775380D01*
X139804499Y-93830837D01*
X139813900Y-93878593D01*
X139813900Y-95151546D01*
X139812151Y-95167388D01*
X139812444Y-95167416D01*
X139811698Y-95175307D01*
X139813838Y-95243384D01*
X139813900Y-95247343D01*
X139813900Y-95275251D01*
X139813901Y-95275269D01*
X139814407Y-95279277D01*
X139815337Y-95291096D01*
X139816726Y-95335288D01*
X139816727Y-95335293D01*
X139822377Y-95354739D01*
X139826386Y-95374097D01*
X139828925Y-95394193D01*
X139828926Y-95394200D01*
X139845200Y-95435303D01*
X139849044Y-95446529D01*
X139861382Y-95488993D01*
X139871694Y-95506431D01*
X139880388Y-95524179D01*
X139887844Y-95543009D01*
X139887850Y-95543020D01*
X139913832Y-95578781D01*
X139920349Y-95588702D01*
X139938713Y-95619753D01*
X139956173Y-95688569D01*
X139933657Y-95755900D01*
X139883510Y-95798088D01*
X139739850Y-95865077D01*
X139552303Y-95996399D01*
X139552297Y-95996404D01*
X139390404Y-96158297D01*
X139390399Y-96158303D01*
X139259077Y-96345850D01*
X139162317Y-96553353D01*
X139162315Y-96553359D01*
X139120848Y-96708115D01*
X139103057Y-96774513D01*
X139083102Y-97002600D01*
X139103057Y-97230687D01*
X139117785Y-97285651D01*
X139135962Y-97353489D01*
X139134272Y-97424466D01*
X139094478Y-97483261D01*
X139029213Y-97511209D01*
X139014255Y-97512100D01*
X136778945Y-97512100D01*
X136710824Y-97492098D01*
X136664331Y-97438442D01*
X136654227Y-97368168D01*
X136657238Y-97353489D01*
X136675415Y-97285651D01*
X136690143Y-97230687D01*
X136710098Y-97002600D01*
X136690143Y-96774513D01*
X136630884Y-96553357D01*
X136534123Y-96345851D01*
X136402798Y-96158300D01*
X136240900Y-95996402D01*
X136156592Y-95937369D01*
X136053349Y-95865077D01*
X135845846Y-95768317D01*
X135845840Y-95768315D01*
X135719484Y-95734458D01*
X135624687Y-95709057D01*
X135396600Y-95689102D01*
X135168513Y-95709057D01*
X134947359Y-95768315D01*
X134947353Y-95768317D01*
X134739850Y-95865077D01*
X134552303Y-95996399D01*
X134552297Y-95996404D01*
X134390404Y-96158297D01*
X134390399Y-96158303D01*
X134259077Y-96345850D01*
X134162317Y-96553353D01*
X134162315Y-96553359D01*
X134120848Y-96708115D01*
X134103057Y-96774513D01*
X134083102Y-97002600D01*
X134103057Y-97230687D01*
X134117785Y-97285651D01*
X134135962Y-97353489D01*
X134134272Y-97424466D01*
X134094478Y-97483261D01*
X134029213Y-97511209D01*
X134014255Y-97512100D01*
X129219595Y-97512100D01*
X129151474Y-97492098D01*
X129130500Y-97475195D01*
X126059444Y-94404139D01*
X126049479Y-94391701D01*
X126049252Y-94391890D01*
X126044201Y-94385784D01*
X126044200Y-94385782D01*
X126027586Y-94370181D01*
X125994549Y-94339157D01*
X125991705Y-94336400D01*
X125971977Y-94316671D01*
X125971971Y-94316666D01*
X125968767Y-94314180D01*
X125959756Y-94306483D01*
X125927525Y-94276217D01*
X125927519Y-94276213D01*
X125909763Y-94266451D01*
X125893247Y-94255602D01*
X125877241Y-94243186D01*
X125844891Y-94229187D01*
X125836664Y-94225627D01*
X125826007Y-94220405D01*
X125787263Y-94199106D01*
X125787260Y-94199105D01*
X125767636Y-94194066D01*
X125748936Y-94187664D01*
X125737342Y-94182647D01*
X125730345Y-94179619D01*
X125730343Y-94179618D01*
X125730341Y-94179618D01*
X125686674Y-94172701D01*
X125675055Y-94170295D01*
X125632230Y-94159300D01*
X125611976Y-94159300D01*
X125592266Y-94157749D01*
X125572257Y-94154580D01*
X125528239Y-94158741D01*
X125516381Y-94159300D01*
X122130853Y-94159300D01*
X122115011Y-94157550D01*
X122114984Y-94157844D01*
X122107092Y-94157098D01*
X122107091Y-94157098D01*
X122086382Y-94157749D01*
X122039014Y-94159238D01*
X122035055Y-94159300D01*
X122007144Y-94159300D01*
X122007141Y-94159300D01*
X122007126Y-94159301D01*
X122003121Y-94159807D01*
X121991304Y-94160737D01*
X121947113Y-94162126D01*
X121947111Y-94162127D01*
X121927656Y-94167778D01*
X121908303Y-94171786D01*
X121888211Y-94174324D01*
X121888205Y-94174325D01*
X121888203Y-94174326D01*
X121874834Y-94179619D01*
X121847098Y-94190600D01*
X121835874Y-94194443D01*
X121793407Y-94206782D01*
X121780165Y-94214613D01*
X121775964Y-94217097D01*
X121758218Y-94225790D01*
X121739382Y-94233248D01*
X121703610Y-94259237D01*
X121693694Y-94265751D01*
X121655637Y-94288258D01*
X121641311Y-94302584D01*
X121626285Y-94315417D01*
X121609895Y-94327325D01*
X121609893Y-94327327D01*
X121581700Y-94361405D01*
X121573713Y-94370181D01*
X119310646Y-96633247D01*
X119248334Y-96667273D01*
X119188940Y-96665859D01*
X119125490Y-96648857D01*
X118897400Y-96628902D01*
X118669313Y-96648857D01*
X118448159Y-96708115D01*
X118448153Y-96708117D01*
X118240650Y-96804877D01*
X118053103Y-96936199D01*
X118053097Y-96936204D01*
X117891204Y-97098097D01*
X117891199Y-97098103D01*
X117759877Y-97285650D01*
X117663117Y-97493153D01*
X117663115Y-97493159D01*
X117603857Y-97714313D01*
X117583902Y-97942400D01*
X117603857Y-98170486D01*
X117663115Y-98391640D01*
X117663117Y-98391646D01*
X117759876Y-98599147D01*
X117759877Y-98599149D01*
X117891202Y-98786700D01*
X118053100Y-98948598D01*
X118240651Y-99079923D01*
X118448157Y-99176684D01*
X118669313Y-99235943D01*
X118897400Y-99255898D01*
X119125487Y-99235943D01*
X119346643Y-99176684D01*
X119554149Y-99079923D01*
X119741700Y-98948598D01*
X119903598Y-98786700D01*
X120034923Y-98599149D01*
X120131684Y-98391643D01*
X120190943Y-98170487D01*
X120210898Y-97942400D01*
X120190943Y-97714313D01*
X120173940Y-97650857D01*
X120175629Y-97579881D01*
X120206549Y-97529153D01*
X121433907Y-96301796D01*
X121496217Y-96267772D01*
X121567033Y-96272837D01*
X121623868Y-96315384D01*
X121648679Y-96381904D01*
X121649000Y-96390893D01*
X121649000Y-96713397D01*
X121655505Y-96773893D01*
X121706555Y-96910764D01*
X121706555Y-96910765D01*
X121794095Y-97027704D01*
X121911034Y-97115244D01*
X122047906Y-97166294D01*
X122108402Y-97172799D01*
X122108415Y-97172800D01*
X122428000Y-97172800D01*
X122428000Y-96192303D01*
X122501052Y-96249163D01*
X122619424Y-96289800D01*
X122713073Y-96289800D01*
X122805446Y-96274386D01*
X122915514Y-96214819D01*
X122920367Y-96209546D01*
X122933452Y-96342396D01*
X122933577Y-96343021D01*
X122936000Y-96367611D01*
X122936000Y-97172800D01*
X123255585Y-97172800D01*
X123255597Y-97172799D01*
X123316093Y-97166294D01*
X123452963Y-97115245D01*
X123460875Y-97110925D01*
X123462619Y-97114119D01*
X123512824Y-97095342D01*
X123558498Y-97100437D01*
X123749399Y-97158346D01*
X123749403Y-97158346D01*
X123749405Y-97158347D01*
X123951997Y-97178301D01*
X123952000Y-97178301D01*
X123952003Y-97178301D01*
X124154594Y-97158347D01*
X124154595Y-97158346D01*
X124154601Y-97158346D01*
X124349417Y-97099250D01*
X124527607Y-97004005D01*
X124597109Y-96989534D01*
X124646391Y-97004004D01*
X124824583Y-97099250D01*
X125019399Y-97158346D01*
X125019403Y-97158346D01*
X125019405Y-97158347D01*
X125221997Y-97178301D01*
X125222000Y-97178301D01*
X125222002Y-97178301D01*
X125255343Y-97175016D01*
X125424601Y-97158346D01*
X125463615Y-97146510D01*
X125534608Y-97145877D01*
X125589286Y-97177990D01*
X128971405Y-100560109D01*
X129005431Y-100622421D01*
X129000366Y-100693236D01*
X128957819Y-100750072D01*
X128942284Y-100760015D01*
X128919390Y-100772405D01*
X128919383Y-100772410D01*
X128735178Y-100915782D01*
X128735174Y-100915786D01*
X128577085Y-101087516D01*
X128449415Y-101282931D01*
X128355652Y-101496689D01*
X128355649Y-101496696D01*
X128298350Y-101722966D01*
X128298349Y-101722972D01*
X128298349Y-101722974D01*
X128279073Y-101955600D01*
X128298118Y-102185441D01*
X128298350Y-102188233D01*
X128355649Y-102414503D01*
X128355652Y-102414510D01*
X128449415Y-102628268D01*
X128563955Y-102803585D01*
X128584468Y-102871553D01*
X128564979Y-102939822D01*
X128511674Y-102986717D01*
X128458472Y-102998500D01*
X121278994Y-102998500D01*
X121210873Y-102978498D01*
X121164380Y-102924842D01*
X121154276Y-102854568D01*
X121183770Y-102789988D01*
X121189884Y-102783419D01*
X121343555Y-102629748D01*
X121405863Y-102595726D01*
X121465257Y-102597139D01*
X121515879Y-102610704D01*
X121526865Y-102613648D01*
X121528713Y-102614143D01*
X121756800Y-102634098D01*
X121984887Y-102614143D01*
X122206043Y-102554884D01*
X122413549Y-102458123D01*
X122601100Y-102326798D01*
X122762998Y-102164900D01*
X122894323Y-101977349D01*
X122991084Y-101769843D01*
X123050343Y-101548687D01*
X123070298Y-101320600D01*
X125443804Y-101320600D01*
X125463751Y-101548602D01*
X125522986Y-101769668D01*
X125522988Y-101769673D01*
X125619713Y-101977101D01*
X125669699Y-102048488D01*
X126358072Y-101360116D01*
X126371635Y-101445748D01*
X126429159Y-101558645D01*
X126518755Y-101648241D01*
X126631652Y-101705765D01*
X126717282Y-101719327D01*
X126028910Y-102407698D01*
X126028910Y-102407700D01*
X126100298Y-102457686D01*
X126307726Y-102554411D01*
X126307731Y-102554413D01*
X126528799Y-102613648D01*
X126528795Y-102613648D01*
X126756800Y-102633595D01*
X126984802Y-102613648D01*
X127205868Y-102554413D01*
X127205873Y-102554411D01*
X127413297Y-102457688D01*
X127484688Y-102407699D01*
X127484688Y-102407697D01*
X126796318Y-101719327D01*
X126881948Y-101705765D01*
X126994845Y-101648241D01*
X127084441Y-101558645D01*
X127141965Y-101445748D01*
X127155527Y-101360118D01*
X127843897Y-102048488D01*
X127843899Y-102048488D01*
X127893888Y-101977097D01*
X127990611Y-101769673D01*
X127990613Y-101769668D01*
X128049848Y-101548602D01*
X128069795Y-101320600D01*
X128049848Y-101092597D01*
X127990613Y-100871531D01*
X127990611Y-100871526D01*
X127893886Y-100664098D01*
X127843900Y-100592710D01*
X127843898Y-100592710D01*
X127155527Y-101281081D01*
X127141965Y-101195452D01*
X127084441Y-101082555D01*
X126994845Y-100992959D01*
X126881948Y-100935435D01*
X126796317Y-100921872D01*
X127484688Y-100233499D01*
X127484688Y-100233498D01*
X127413301Y-100183513D01*
X127205873Y-100086788D01*
X127205868Y-100086786D01*
X126984800Y-100027551D01*
X126984804Y-100027551D01*
X126756800Y-100007604D01*
X126528797Y-100027551D01*
X126307731Y-100086786D01*
X126307726Y-100086788D01*
X126100300Y-100183513D01*
X126028909Y-100233500D01*
X126717281Y-100921872D01*
X126631652Y-100935435D01*
X126518755Y-100992959D01*
X126429159Y-101082555D01*
X126371635Y-101195452D01*
X126358072Y-101281081D01*
X125669700Y-100592709D01*
X125619713Y-100664100D01*
X125522988Y-100871526D01*
X125522986Y-100871531D01*
X125463751Y-101092597D01*
X125443804Y-101320600D01*
X123070298Y-101320600D01*
X123050343Y-101092513D01*
X122991084Y-100871357D01*
X122894323Y-100663851D01*
X122762998Y-100476300D01*
X122601100Y-100314402D01*
X122566607Y-100290250D01*
X122413549Y-100183077D01*
X122206046Y-100086317D01*
X122206040Y-100086315D01*
X122112571Y-100061270D01*
X121984887Y-100027057D01*
X121756800Y-100007102D01*
X121528713Y-100027057D01*
X121307559Y-100086315D01*
X121307553Y-100086317D01*
X121100050Y-100183077D01*
X120912503Y-100314399D01*
X120912497Y-100314404D01*
X120750604Y-100476297D01*
X120750599Y-100476303D01*
X120619277Y-100663850D01*
X120522517Y-100871353D01*
X120522515Y-100871359D01*
X120463257Y-101092513D01*
X120443302Y-101320600D01*
X120463257Y-101548690D01*
X120480259Y-101612140D01*
X120478569Y-101683116D01*
X120447647Y-101733846D01*
X120382577Y-101798916D01*
X120320265Y-101832942D01*
X120249450Y-101827877D01*
X120192614Y-101785330D01*
X120167803Y-101718810D01*
X120167960Y-101698850D01*
X120185498Y-101498400D01*
X120165543Y-101270313D01*
X120106284Y-101049157D01*
X120009523Y-100841651D01*
X119878198Y-100654100D01*
X119716300Y-100492202D01*
X119694896Y-100477215D01*
X119528749Y-100360877D01*
X119321246Y-100264117D01*
X119321240Y-100264115D01*
X119206983Y-100233500D01*
X119100087Y-100204857D01*
X118872000Y-100184902D01*
X118643913Y-100204857D01*
X118422759Y-100264115D01*
X118422753Y-100264117D01*
X118215250Y-100360877D01*
X118027703Y-100492199D01*
X118027697Y-100492204D01*
X117865804Y-100654097D01*
X117865799Y-100654103D01*
X117734477Y-100841650D01*
X117637717Y-101049153D01*
X117637715Y-101049159D01*
X117578456Y-101270316D01*
X117577932Y-101276308D01*
X117552064Y-101342424D01*
X117494558Y-101384060D01*
X117423671Y-101387996D01*
X117363317Y-101354413D01*
X111953680Y-95944775D01*
X111919654Y-95882463D01*
X111924719Y-95811648D01*
X111967266Y-95754812D01*
X111970504Y-95752467D01*
X112018758Y-95718679D01*
X112121700Y-95646598D01*
X112283598Y-95484700D01*
X112414923Y-95297149D01*
X112511684Y-95089643D01*
X112570943Y-94868487D01*
X112590898Y-94640400D01*
X117583902Y-94640400D01*
X117603857Y-94868486D01*
X117663115Y-95089640D01*
X117663117Y-95089646D01*
X117703062Y-95175309D01*
X117759877Y-95297149D01*
X117891202Y-95484700D01*
X118053100Y-95646598D01*
X118240651Y-95777923D01*
X118448157Y-95874684D01*
X118669313Y-95933943D01*
X118897400Y-95953898D01*
X119125487Y-95933943D01*
X119346643Y-95874684D01*
X119554149Y-95777923D01*
X119741700Y-95646598D01*
X119903598Y-95484700D01*
X120034923Y-95297149D01*
X120131684Y-95089643D01*
X120190943Y-94868487D01*
X120210898Y-94640400D01*
X120190943Y-94412313D01*
X120131684Y-94191157D01*
X120034923Y-93983651D01*
X119903598Y-93796100D01*
X119741700Y-93634202D01*
X119732915Y-93628051D01*
X119554149Y-93502877D01*
X119346646Y-93406117D01*
X119346640Y-93406115D01*
X119248431Y-93379800D01*
X119125487Y-93346857D01*
X118897400Y-93326902D01*
X118669313Y-93346857D01*
X118448159Y-93406115D01*
X118448153Y-93406117D01*
X118240650Y-93502877D01*
X118053103Y-93634199D01*
X118053097Y-93634204D01*
X117891204Y-93796097D01*
X117891199Y-93796103D01*
X117759877Y-93983650D01*
X117663117Y-94191153D01*
X117663115Y-94191159D01*
X117603857Y-94412313D01*
X117583902Y-94640400D01*
X112590898Y-94640400D01*
X112570943Y-94412313D01*
X112511684Y-94191157D01*
X112414923Y-93983651D01*
X112283598Y-93796100D01*
X112121700Y-93634202D01*
X112112915Y-93628051D01*
X111934149Y-93502877D01*
X111818900Y-93449135D01*
X111765615Y-93402217D01*
X111746154Y-93333940D01*
X111765360Y-93270397D01*
X111764766Y-93270070D01*
X111766307Y-93267266D01*
X111766696Y-93265980D01*
X111768263Y-93263706D01*
X111768582Y-93263124D01*
X111768586Y-93263121D01*
X111778345Y-93245367D01*
X111789197Y-93228846D01*
X111801613Y-93212841D01*
X111819168Y-93172270D01*
X111824392Y-93161608D01*
X111832271Y-93147277D01*
X111845695Y-93122860D01*
X111850733Y-93103235D01*
X111857138Y-93084530D01*
X111865181Y-93065945D01*
X111872096Y-93022281D01*
X111874504Y-93010652D01*
X111885500Y-92967830D01*
X111885500Y-92947575D01*
X111887051Y-92927863D01*
X111887223Y-92926779D01*
X111890220Y-92907857D01*
X111886059Y-92863836D01*
X111885500Y-92851979D01*
X111885500Y-92557793D01*
X111905502Y-92489672D01*
X111939230Y-92454580D01*
X112006510Y-92407470D01*
X112096300Y-92344598D01*
X112258198Y-92182700D01*
X112389523Y-91995149D01*
X112486284Y-91787643D01*
X112545543Y-91566487D01*
X112565498Y-91338400D01*
X112545543Y-91110313D01*
X112538600Y-91084400D01*
X117585917Y-91084400D01*
X118560314Y-91084400D01*
X118544359Y-91100355D01*
X118486835Y-91213252D01*
X118467014Y-91338400D01*
X118486835Y-91463548D01*
X118544359Y-91576445D01*
X118560314Y-91592400D01*
X117585918Y-91592400D01*
X117638186Y-91787468D01*
X117638188Y-91787473D01*
X117734912Y-91994898D01*
X117866184Y-92182374D01*
X117866189Y-92182380D01*
X118028019Y-92344210D01*
X118028025Y-92344215D01*
X118215501Y-92475487D01*
X118422926Y-92572211D01*
X118422931Y-92572213D01*
X118618000Y-92624481D01*
X118618000Y-91650086D01*
X118633955Y-91666041D01*
X118746852Y-91723565D01*
X118840519Y-91738400D01*
X118903481Y-91738400D01*
X118997148Y-91723565D01*
X119110045Y-91666041D01*
X119126000Y-91650086D01*
X119126000Y-92624481D01*
X119321068Y-92572213D01*
X119321073Y-92572211D01*
X119528498Y-92475487D01*
X119715974Y-92344215D01*
X119715980Y-92344210D01*
X119877810Y-92182380D01*
X119877815Y-92182374D01*
X120009087Y-91994898D01*
X120105811Y-91787473D01*
X120105813Y-91787468D01*
X120158082Y-91592400D01*
X119183686Y-91592400D01*
X119199641Y-91576445D01*
X119257165Y-91463548D01*
X119276986Y-91338400D01*
X119257165Y-91213252D01*
X119199641Y-91100355D01*
X119183686Y-91084400D01*
X120158082Y-91084400D01*
X120105813Y-90889331D01*
X120105811Y-90889326D01*
X120009087Y-90681901D01*
X119877815Y-90494425D01*
X119877810Y-90494419D01*
X119715980Y-90332589D01*
X119715974Y-90332584D01*
X119528498Y-90201312D01*
X119321073Y-90104588D01*
X119321071Y-90104587D01*
X119126000Y-90052317D01*
X119126000Y-91026714D01*
X119110045Y-91010759D01*
X118997148Y-90953235D01*
X118903481Y-90938400D01*
X118840519Y-90938400D01*
X118746852Y-90953235D01*
X118633955Y-91010759D01*
X118618000Y-91026714D01*
X118618000Y-90052317D01*
X118617999Y-90052317D01*
X118422928Y-90104587D01*
X118422926Y-90104588D01*
X118215501Y-90201312D01*
X118028025Y-90332584D01*
X118028019Y-90332589D01*
X117866189Y-90494419D01*
X117866184Y-90494425D01*
X117734912Y-90681901D01*
X117638188Y-90889326D01*
X117638186Y-90889331D01*
X117585917Y-91084400D01*
X112538600Y-91084400D01*
X112486284Y-90889157D01*
X112389523Y-90681651D01*
X112258198Y-90494100D01*
X112096300Y-90332202D01*
X112045382Y-90296549D01*
X111908749Y-90200877D01*
X111701246Y-90104117D01*
X111701240Y-90104115D01*
X111607771Y-90079070D01*
X111480087Y-90044857D01*
X111252000Y-90024902D01*
X111023913Y-90044857D01*
X110802759Y-90104115D01*
X110802753Y-90104117D01*
X110595250Y-90200877D01*
X110407703Y-90332199D01*
X110407697Y-90332204D01*
X110322595Y-90417307D01*
X110260283Y-90451333D01*
X110189468Y-90446268D01*
X110132632Y-90403721D01*
X110107821Y-90337201D01*
X110107500Y-90328212D01*
X110107500Y-89122788D01*
X110127502Y-89054667D01*
X110181158Y-89008174D01*
X110251432Y-88998070D01*
X110316012Y-89027564D01*
X110322595Y-89033693D01*
X110356900Y-89067998D01*
X110544451Y-89199323D01*
X110751957Y-89296084D01*
X110973113Y-89355343D01*
X111201200Y-89375298D01*
X111429287Y-89355343D01*
X111650443Y-89296084D01*
X111857949Y-89199323D01*
X112045500Y-89067998D01*
X112207398Y-88906100D01*
X112338723Y-88718549D01*
X112435484Y-88511043D01*
X112494743Y-88289887D01*
X112514698Y-88061800D01*
X117507702Y-88061800D01*
X117527657Y-88289887D01*
X117545091Y-88354950D01*
X117586915Y-88511040D01*
X117586917Y-88511046D01*
X117683677Y-88718549D01*
X117814603Y-88905531D01*
X117815002Y-88906100D01*
X117976900Y-89067998D01*
X118164451Y-89199323D01*
X118371957Y-89296084D01*
X118593113Y-89355343D01*
X118821200Y-89375298D01*
X119049287Y-89355343D01*
X119270443Y-89296084D01*
X119477949Y-89199323D01*
X119665500Y-89067998D01*
X119827398Y-88906100D01*
X119958723Y-88718549D01*
X120055484Y-88511043D01*
X120114743Y-88289887D01*
X120134698Y-88061800D01*
X120114743Y-87833713D01*
X120055484Y-87612557D01*
X119958723Y-87405051D01*
X119827398Y-87217500D01*
X119665500Y-87055602D01*
X119611463Y-87017765D01*
X119477949Y-86924277D01*
X119270446Y-86827517D01*
X119270440Y-86827515D01*
X119103110Y-86782679D01*
X119049287Y-86768257D01*
X118821200Y-86748302D01*
X118593113Y-86768257D01*
X118371959Y-86827515D01*
X118371953Y-86827517D01*
X118164450Y-86924277D01*
X117976903Y-87055599D01*
X117976897Y-87055604D01*
X117815004Y-87217497D01*
X117814999Y-87217503D01*
X117683677Y-87405050D01*
X117586917Y-87612553D01*
X117586915Y-87612559D01*
X117533404Y-87812264D01*
X117527657Y-87833713D01*
X117507702Y-88061800D01*
X112514698Y-88061800D01*
X112494743Y-87833713D01*
X112435484Y-87612557D01*
X112338723Y-87405051D01*
X112207398Y-87217500D01*
X112045500Y-87055602D01*
X111991463Y-87017765D01*
X111957685Y-86994113D01*
X111913357Y-86938656D01*
X111906048Y-86868036D01*
X111938079Y-86804676D01*
X111999280Y-86768691D01*
X112029956Y-86764900D01*
X116861547Y-86764900D01*
X116877388Y-86766649D01*
X116877416Y-86766356D01*
X116885302Y-86767100D01*
X116885309Y-86767102D01*
X116953386Y-86764962D01*
X116957345Y-86764900D01*
X116985251Y-86764900D01*
X116985256Y-86764900D01*
X116989267Y-86764392D01*
X117001099Y-86763461D01*
X117045289Y-86762073D01*
X117064747Y-86756419D01*
X117084094Y-86752413D01*
X117104197Y-86749874D01*
X117108168Y-86748302D01*
X117117897Y-86744449D01*
X117145310Y-86733595D01*
X117156530Y-86729753D01*
X117181313Y-86722554D01*
X117198991Y-86717419D01*
X117198995Y-86717417D01*
X117216426Y-86707108D01*
X117234180Y-86698409D01*
X117253017Y-86690952D01*
X117288792Y-86664958D01*
X117298698Y-86658451D01*
X117336762Y-86635942D01*
X117351085Y-86621618D01*
X117366124Y-86608774D01*
X117382507Y-86596872D01*
X117410699Y-86562792D01*
X117418667Y-86554035D01*
X118215171Y-85757532D01*
X118277481Y-85723509D01*
X118341399Y-85726227D01*
X118519907Y-85781290D01*
X118552044Y-85791203D01*
X118552051Y-85791205D01*
X118800814Y-85828700D01*
X118800818Y-85828700D01*
X119052382Y-85828700D01*
X119052386Y-85828700D01*
X119301149Y-85791205D01*
X119301159Y-85791202D01*
X119541536Y-85717056D01*
X119541538Y-85717054D01*
X119541545Y-85717053D01*
X119768204Y-85607900D01*
X119976062Y-85466184D01*
X120160478Y-85295072D01*
X120317331Y-85098384D01*
X120443117Y-84880516D01*
X120443206Y-84880291D01*
X120467139Y-84819309D01*
X120535027Y-84646334D01*
X120591007Y-84401069D01*
X120609807Y-84150200D01*
X120609807Y-84150196D01*
X120609807Y-84147060D01*
X120610122Y-84145985D01*
X120610159Y-84145499D01*
X120610263Y-84145506D01*
X120629809Y-84078939D01*
X120683465Y-84032446D01*
X120753739Y-84022342D01*
X120818319Y-84051836D01*
G37*
%TD.AperFunction*%
%TA.AperFunction,Conductor*%
G36*
X132067383Y-88518340D02*
G01*
X132009501Y-88514200D01*
X132068403Y-88514200D01*
X132078379Y-88512335D01*
X132067383Y-88518340D01*
G37*
%TD.AperFunction*%
%TD*%
M02*
