%TF.GenerationSoftware,KiCad,Pcbnew,7.0.11+dfsg-1build4*%
%TF.CreationDate,2026-08-01T21:59:50-04:00*%
%TF.ProjectId,dynacomp-lm13700,64796e61-636f-46d7-902d-6c6d31333730,rev?*%
%TF.SameCoordinates,Original*%
%TF.FileFunction,Soldermask,Top*%
%TF.FilePolarity,Negative*%
%FSLAX46Y46*%
G04 Gerber Fmt 4.6, Leading zero omitted, Abs format (unit mm)*
G04 Created by KiCad (PCBNEW 7.0.11+dfsg-1build4) date 2026-08-01 21:59:50*
%MOMM*%
%LPD*%
G01*
G04 APERTURE LIST*
%ADD10C,1.600000*%
%ADD11O,1.600000X1.600000*%
%ADD12R,1.600000X1.600000*%
%ADD13R,1.700000X1.700000*%
%ADD14O,1.700000X1.700000*%
%ADD15R,1.050000X1.500000*%
%ADD16O,1.050000X1.500000*%
%ADD17R,1.560000X1.560000*%
%ADD18C,1.560000*%
%ADD19C,2.340000*%
G04 APERTURE END LIST*
D10*
%TO.C,R8*%
X70630000Y-80050000D03*
D11*
X80790000Y-80050000D03*
%TD*%
D12*
%TO.C,D1*%
X60070000Y-67950000D03*
D11*
X52450000Y-67950000D03*
%TD*%
D10*
%TO.C,R1*%
X95930000Y-79230000D03*
D11*
X106090000Y-79230000D03*
%TD*%
D13*
%TO.C,J1*%
X74080000Y-87000000D03*
D14*
X76620000Y-87000000D03*
X79160000Y-87000000D03*
X81700000Y-87000000D03*
%TD*%
D10*
%TO.C,R7*%
X95920000Y-56140000D03*
D11*
X106080000Y-56140000D03*
%TD*%
D10*
%TO.C,C3*%
X87970000Y-56100000D03*
X92970000Y-56100000D03*
%TD*%
%TO.C,R5*%
X96000000Y-65450000D03*
D11*
X106160000Y-65450000D03*
%TD*%
D10*
%TO.C,R13*%
X51360000Y-61710000D03*
D11*
X61520000Y-61710000D03*
%TD*%
D10*
%TO.C,R15*%
X51530000Y-84050000D03*
D11*
X61690000Y-84050000D03*
%TD*%
D12*
%TO.C,C4*%
X65480000Y-79100000D03*
D10*
X67480000Y-79100000D03*
%TD*%
D15*
%TO.C,Q1*%
X85590000Y-69060000D03*
D16*
X86860000Y-69060000D03*
X88130000Y-69060000D03*
%TD*%
D10*
%TO.C,R6*%
X95920000Y-62160000D03*
D11*
X106080000Y-62160000D03*
%TD*%
D15*
%TO.C,Q2*%
X66230000Y-57320000D03*
D16*
X67500000Y-57320000D03*
X68770000Y-57320000D03*
%TD*%
D12*
%TO.C,U1*%
X74500000Y-58885000D03*
D11*
X74500000Y-61425000D03*
X74500000Y-63965000D03*
X74500000Y-66505000D03*
X74500000Y-69045000D03*
X74500000Y-71585000D03*
X74500000Y-74125000D03*
X74500000Y-76665000D03*
X82120000Y-76665000D03*
X82120000Y-74125000D03*
X82120000Y-71585000D03*
X82120000Y-69045000D03*
X82120000Y-66505000D03*
X82120000Y-63965000D03*
X82120000Y-61425000D03*
X82120000Y-58885000D03*
%TD*%
D10*
%TO.C,C7*%
X63960000Y-74770000D03*
X68960000Y-74770000D03*
%TD*%
%TO.C,R9*%
X83260000Y-80000000D03*
D11*
X93420000Y-80000000D03*
%TD*%
D15*
%TO.C,Q5*%
X53130000Y-57090000D03*
D16*
X54400000Y-57090000D03*
X55670000Y-57090000D03*
%TD*%
D12*
%TO.C,C10*%
X65250000Y-85550000D03*
D10*
X67750000Y-85550000D03*
%TD*%
D15*
%TO.C,Q3*%
X60360000Y-57400000D03*
D16*
X61630000Y-57400000D03*
X62900000Y-57400000D03*
%TD*%
D12*
%TO.C,D2*%
X60070000Y-64970000D03*
D11*
X52450000Y-64970000D03*
%TD*%
D10*
%TO.C,R16*%
X51530000Y-87230000D03*
D11*
X61690000Y-87230000D03*
%TD*%
D10*
%TO.C,C1*%
X103400000Y-82300000D03*
X98400000Y-82300000D03*
%TD*%
D12*
%TO.C,C11*%
X85164900Y-75080000D03*
D10*
X87164900Y-75080000D03*
%TD*%
%TO.C,C5*%
X98640000Y-59030000D03*
X103640000Y-59030000D03*
%TD*%
%TO.C,C6*%
X64030000Y-72080000D03*
X69030000Y-72080000D03*
%TD*%
%TO.C,R4*%
X95900000Y-68820000D03*
D11*
X106060000Y-68820000D03*
%TD*%
D10*
%TO.C,R11*%
X51400000Y-74420000D03*
D11*
X61560000Y-74420000D03*
%TD*%
D17*
%TO.C,RV1*%
X87780000Y-59350000D03*
D18*
X90280000Y-64350000D03*
X92780000Y-59350000D03*
%TD*%
D10*
%TO.C,C2*%
X92180000Y-73800000D03*
X92180000Y-68800000D03*
%TD*%
D12*
%TO.C,C8*%
X64390000Y-62340000D03*
D10*
X66390000Y-62340000D03*
%TD*%
%TO.C,R14*%
X51520000Y-80860000D03*
D11*
X61680000Y-80860000D03*
%TD*%
D10*
%TO.C,R12*%
X73860000Y-55720000D03*
D11*
X84020000Y-55720000D03*
%TD*%
D10*
%TO.C,R10*%
X51430000Y-71010000D03*
D11*
X61590000Y-71010000D03*
%TD*%
D10*
%TO.C,C9*%
X53870000Y-77780000D03*
X58870000Y-77780000D03*
%TD*%
%TO.C,R3*%
X95930000Y-72490000D03*
D11*
X106090000Y-72490000D03*
%TD*%
D10*
%TO.C,R2*%
X95930000Y-75940000D03*
D11*
X106090000Y-75940000D03*
%TD*%
D19*
%TO.C,RV2*%
X69260000Y-52470000D03*
X64260000Y-52470000D03*
X59260000Y-52470000D03*
%TD*%
D15*
%TO.C,Q4*%
X67770000Y-68260000D03*
D16*
X69040000Y-68260000D03*
X70310000Y-68260000D03*
%TD*%
D19*
%TO.C,RV3*%
X98660000Y-52440000D03*
X93660000Y-52440000D03*
X88660000Y-52440000D03*
%TD*%
M02*
