%TF.GenerationSoftware,KiCad,Pcbnew,7.0.11+dfsg-1build4*%
%TF.CreationDate,2026-08-01T21:53:49-04:00*%
%TF.ProjectId,dynacomp,64796e61-636f-46d7-902e-6b696361645f,rev?*%
%TF.SameCoordinates,Original*%
%TF.FileFunction,Copper,L2,Bot*%
%TF.FilePolarity,Positive*%
%FSLAX46Y46*%
G04 Gerber Fmt 4.6, Leading zero omitted, Abs format (unit mm)*
G04 Created by KiCad (PCBNEW 7.0.11+dfsg-1build4) date 2026-08-01 21:53:49*
%MOMM*%
%LPD*%
G01*
G04 APERTURE LIST*
%TA.AperFunction,ComponentPad*%
%ADD10C,1.600000*%
%TD*%
%TA.AperFunction,ComponentPad*%
%ADD11O,1.600000X1.600000*%
%TD*%
%TA.AperFunction,ComponentPad*%
%ADD12R,1.600000X1.600000*%
%TD*%
%TA.AperFunction,ComponentPad*%
%ADD13R,1.700000X1.700000*%
%TD*%
%TA.AperFunction,ComponentPad*%
%ADD14O,1.700000X1.700000*%
%TD*%
%TA.AperFunction,ComponentPad*%
%ADD15R,1.050000X1.500000*%
%TD*%
%TA.AperFunction,ComponentPad*%
%ADD16O,1.050000X1.500000*%
%TD*%
%TA.AperFunction,ComponentPad*%
%ADD17R,1.560000X1.560000*%
%TD*%
%TA.AperFunction,ComponentPad*%
%ADD18C,1.560000*%
%TD*%
%TA.AperFunction,ComponentPad*%
%ADD19C,2.340000*%
%TD*%
%TA.AperFunction,ViaPad*%
%ADD20C,0.600000*%
%TD*%
%TA.AperFunction,Conductor*%
%ADD21C,0.200000*%
%TD*%
G04 APERTURE END LIST*
D10*
%TO.P,R8,1*%
%TO.N,Net-(Q2-C)*%
X81700000Y-76630000D03*
D11*
%TO.P,R8,2*%
%TO.N,vcc*%
X91860000Y-76630000D03*
%TD*%
D12*
%TO.P,D1,1,K*%
%TO.N,Net-(D1-K)*%
X60560000Y-63050000D03*
D11*
%TO.P,D1,2,A*%
%TO.N,GND*%
X52940000Y-63050000D03*
%TD*%
D10*
%TO.P,R1,1*%
%TO.N,Net-(C1-Pad2)*%
X95900000Y-81670000D03*
D11*
%TO.P,R1,2*%
%TO.N,Net-(Q1-B)*%
X106060000Y-81670000D03*
%TD*%
D13*
%TO.P,J1,1,Pin_1*%
%TO.N,vcc*%
X74080000Y-87000000D03*
D14*
%TO.P,J1,2,Pin_2*%
%TO.N,out*%
X76620000Y-87000000D03*
%TO.P,J1,3,Pin_3*%
%TO.N,in*%
X79160000Y-87000000D03*
%TO.P,J1,4,Pin_4*%
%TO.N,GND*%
X81700000Y-87000000D03*
%TD*%
D10*
%TO.P,R7,1*%
%TO.N,Net-(Q2-B)*%
X95920000Y-56140000D03*
D11*
%TO.P,R7,2*%
%TO.N,vb*%
X106080000Y-56140000D03*
%TD*%
D10*
%TO.P,C3,1*%
%TO.N,Net-(U1-+)*%
X87970000Y-56100000D03*
%TO.P,C3,2*%
%TO.N,Net-(C3-Pad2)*%
X92970000Y-56100000D03*
%TD*%
%TO.P,R5,1*%
%TO.N,vcc*%
X96000000Y-65450000D03*
D11*
%TO.P,R5,2*%
%TO.N,Net-(R5-Pad2)*%
X106160000Y-65450000D03*
%TD*%
D10*
%TO.P,R13,1*%
%TO.N,vbias*%
X51670000Y-56840000D03*
D11*
%TO.P,R13,2*%
%TO.N,Net-(R13-Pad2)*%
X61830000Y-56840000D03*
%TD*%
D10*
%TO.P,R15,1*%
%TO.N,vb*%
X51770000Y-78740000D03*
D11*
%TO.P,R15,2*%
%TO.N,vcc*%
X61930000Y-78740000D03*
%TD*%
D12*
%TO.P,C4,1*%
%TO.N,Net-(C3-Pad2)*%
X82080000Y-71420000D03*
D10*
%TO.P,C4,2*%
%TO.N,GND*%
X84080000Y-71420000D03*
%TD*%
D15*
%TO.P,Q1,1,E*%
%TO.N,Net-(Q1-E)*%
X89070000Y-69150000D03*
D16*
%TO.P,Q1,2,B*%
%TO.N,Net-(Q1-B)*%
X90340000Y-69150000D03*
%TO.P,Q1,3,C*%
%TO.N,vcc*%
X91610000Y-69150000D03*
%TD*%
D10*
%TO.P,R6,1*%
%TO.N,Net-(C3-Pad2)*%
X95920000Y-62160000D03*
D11*
%TO.P,R6,2*%
%TO.N,Net-(U1-+)*%
X106080000Y-62160000D03*
%TD*%
D15*
%TO.P,Q2,1,E*%
%TO.N,Net-(Q2-E)*%
X72660000Y-71400000D03*
D16*
%TO.P,Q2,2,B*%
%TO.N,Net-(Q2-B)*%
X73930000Y-71400000D03*
%TO.P,Q2,3,C*%
%TO.N,Net-(Q2-C)*%
X75200000Y-71400000D03*
%TD*%
D12*
%TO.P,U1,1,NC*%
%TO.N,unconnected-(U1-NC-Pad1)*%
X74060000Y-58910000D03*
D11*
%TO.P,U1,2,-*%
%TO.N,Net-(U1--)*%
X74060000Y-61450000D03*
%TO.P,U1,3,+*%
%TO.N,Net-(U1-+)*%
X74060000Y-63990000D03*
%TO.P,U1,4,V-*%
%TO.N,GND*%
X74060000Y-66530000D03*
%TO.P,U1,5,BIAS*%
%TO.N,vbias*%
X81680000Y-66530000D03*
%TO.P,U1,6*%
%TO.N,Net-(Q2-B)*%
X81680000Y-63990000D03*
%TO.P,U1,7,V+*%
%TO.N,vcc*%
X81680000Y-61450000D03*
%TO.P,U1,8,NC*%
%TO.N,unconnected-(U1-NC-Pad8)*%
X81680000Y-58910000D03*
%TD*%
D10*
%TO.P,C7,1*%
%TO.N,Net-(Q2-E)*%
X72380000Y-78840000D03*
%TO.P,C7,2*%
%TO.N,Net-(D2-K)*%
X77380000Y-78840000D03*
%TD*%
%TO.P,R9,1*%
%TO.N,GND*%
X81740000Y-79870000D03*
D11*
%TO.P,R9,2*%
%TO.N,Net-(Q2-E)*%
X91900000Y-79870000D03*
%TD*%
D15*
%TO.P,Q5,1,E*%
%TO.N,Net-(Q5-E)*%
X66060000Y-58330000D03*
D16*
%TO.P,Q5,2,B*%
%TO.N,Net-(Q3-C)*%
X67330000Y-58330000D03*
%TO.P,Q5,3,C*%
%TO.N,vcc*%
X68600000Y-58330000D03*
%TD*%
D12*
%TO.P,C10,1*%
%TO.N,vcc*%
X66257600Y-82510000D03*
D10*
%TO.P,C10,2*%
%TO.N,GND*%
X68757600Y-82510000D03*
%TD*%
D15*
%TO.P,Q3,1,E*%
%TO.N,GND*%
X65850000Y-70530000D03*
D16*
%TO.P,Q3,2,B*%
%TO.N,Net-(D1-K)*%
X67120000Y-70530000D03*
%TO.P,Q3,3,C*%
%TO.N,Net-(Q3-C)*%
X68390000Y-70530000D03*
%TD*%
D12*
%TO.P,D2,1,K*%
%TO.N,Net-(D2-K)*%
X60560000Y-60070000D03*
D11*
%TO.P,D2,2,A*%
%TO.N,GND*%
X52940000Y-60070000D03*
%TD*%
D10*
%TO.P,R16,1*%
%TO.N,GND*%
X51870000Y-81910000D03*
D11*
%TO.P,R16,2*%
%TO.N,vb*%
X62030000Y-81910000D03*
%TD*%
D10*
%TO.P,C1,1*%
%TO.N,in*%
X98190000Y-84600000D03*
%TO.P,C1,2*%
%TO.N,Net-(C1-Pad2)*%
X103190000Y-84600000D03*
%TD*%
D12*
%TO.P,C11,1*%
%TO.N,vb*%
X90114900Y-85890000D03*
D10*
%TO.P,C11,2*%
%TO.N,GND*%
X92114900Y-85890000D03*
%TD*%
%TO.P,C5,1*%
%TO.N,vb*%
X98640000Y-59030000D03*
%TO.P,C5,2*%
%TO.N,Net-(Q2-B)*%
X103640000Y-59030000D03*
%TD*%
%TO.P,C6,1*%
%TO.N,Net-(Q2-C)*%
X72450000Y-76150000D03*
%TO.P,C6,2*%
%TO.N,Net-(D1-K)*%
X77450000Y-76150000D03*
%TD*%
%TO.P,R4,1*%
%TO.N,GND*%
X95900000Y-68820000D03*
D11*
%TO.P,R4,2*%
%TO.N,Net-(U1--)*%
X106060000Y-68820000D03*
%TD*%
D10*
%TO.P,R11,1*%
%TO.N,GND*%
X51730000Y-69490000D03*
D11*
%TO.P,R11,2*%
%TO.N,Net-(D2-K)*%
X61890000Y-69490000D03*
%TD*%
D17*
%TO.P,RV1,1,1*%
%TO.N,Net-(U1-+)*%
X87780000Y-59350000D03*
D18*
%TO.P,RV1,2,2*%
%TO.N,Net-(R5-Pad2)*%
X90280000Y-64350000D03*
%TO.P,RV1,3,3*%
%TO.N,Net-(U1--)*%
X92780000Y-59350000D03*
%TD*%
D10*
%TO.P,C2,1*%
%TO.N,Net-(Q1-E)*%
X98410000Y-71950000D03*
%TO.P,C2,2*%
%TO.N,Net-(U1--)*%
X103410000Y-71950000D03*
%TD*%
D12*
%TO.P,C8,1*%
%TO.N,Net-(Q3-C)*%
X66690000Y-64240000D03*
D10*
%TO.P,C8,2*%
%TO.N,GND*%
X68690000Y-64240000D03*
%TD*%
%TO.P,R14,1*%
%TO.N,Net-(R14-Pad1)*%
X51750000Y-75510000D03*
D11*
%TO.P,R14,2*%
%TO.N,Net-(C9-Pad2)*%
X61910000Y-75510000D03*
%TD*%
D10*
%TO.P,R12,1*%
%TO.N,Net-(Q3-C)*%
X73860000Y-55720000D03*
D11*
%TO.P,R12,2*%
%TO.N,vcc*%
X84020000Y-55720000D03*
%TD*%
D10*
%TO.P,R10,1*%
%TO.N,GND*%
X51750000Y-66120000D03*
D11*
%TO.P,R10,2*%
%TO.N,Net-(D1-K)*%
X61910000Y-66120000D03*
%TD*%
D10*
%TO.P,C9,1*%
%TO.N,Net-(Q2-E)*%
X54370000Y-72500000D03*
%TO.P,C9,2*%
%TO.N,Net-(C9-Pad2)*%
X59370000Y-72500000D03*
%TD*%
%TO.P,R3,1*%
%TO.N,GND*%
X95900000Y-74930000D03*
D11*
%TO.P,R3,2*%
%TO.N,Net-(Q1-E)*%
X106060000Y-74930000D03*
%TD*%
D10*
%TO.P,R2,1*%
%TO.N,Net-(Q1-B)*%
X95900000Y-78380000D03*
D11*
%TO.P,R2,2*%
%TO.N,vb*%
X106060000Y-78380000D03*
%TD*%
D19*
%TO.P,RV2,1,1*%
%TO.N,Net-(R13-Pad2)*%
X69260000Y-52470000D03*
%TO.P,RV2,2,2*%
X64260000Y-52470000D03*
%TO.P,RV2,3,3*%
%TO.N,Net-(Q5-E)*%
X59260000Y-52470000D03*
%TD*%
D15*
%TO.P,Q4,1,E*%
%TO.N,GND*%
X65780000Y-75770000D03*
D16*
%TO.P,Q4,2,B*%
%TO.N,Net-(D2-K)*%
X67050000Y-75770000D03*
%TO.P,Q4,3,C*%
%TO.N,Net-(Q3-C)*%
X68320000Y-75770000D03*
%TD*%
D19*
%TO.P,RV3,1,1*%
%TO.N,GND*%
X98660000Y-52440000D03*
%TO.P,RV3,2,2*%
%TO.N,out*%
X93660000Y-52440000D03*
%TO.P,RV3,3,3*%
%TO.N,Net-(R14-Pad1)*%
X88660000Y-52440000D03*
%TD*%
D20*
%TO.N,Net-(U1--)*%
X92226300Y-66118800D03*
%TO.N,Net-(D2-K)*%
X62995000Y-72609000D03*
%TO.N,Net-(R14-Pad1)*%
X57107500Y-54447300D03*
%TD*%
D21*
%TO.N,Net-(U1--)*%
X92780000Y-65565100D02*
X92780000Y-59350000D01*
X106060000Y-69300000D02*
X106060000Y-68820000D01*
X92226300Y-66118800D02*
X92780000Y-65565100D01*
X103410000Y-71950000D02*
X106060000Y-69300000D01*
%TO.N,Net-(U1-+)*%
X87970000Y-58078100D02*
X87970000Y-56100000D01*
X87780000Y-58268100D02*
X87970000Y-58078100D01*
X87780000Y-59350000D02*
X87780000Y-58268100D01*
%TO.N,Net-(C3-Pad2)*%
X95920000Y-59050000D02*
X95920000Y-62160000D01*
X92970000Y-56100000D02*
X95920000Y-59050000D01*
%TO.N,GND*%
X65850000Y-71055900D02*
X65850000Y-70530000D01*
%TO.N,vb*%
X97232300Y-78634900D02*
X97232300Y-71327300D01*
X107319600Y-76018500D02*
X107319600Y-58481500D01*
X106080000Y-56140000D02*
X106080000Y-57241900D01*
X90114900Y-85752300D02*
X97232300Y-78634900D01*
X106060000Y-78380000D02*
X106060000Y-77278100D01*
X90114900Y-85890000D02*
X90114900Y-85752300D01*
X107319600Y-58481500D02*
X106080000Y-57241900D01*
X106060000Y-77278100D02*
X107319600Y-76018500D01*
X98640000Y-69919600D02*
X98640000Y-59030000D01*
X97232300Y-71327300D02*
X98640000Y-69919600D01*
%TO.N,Net-(Q2-B)*%
X94230000Y-54450000D02*
X95920000Y-56140000D01*
X82950000Y-54450000D02*
X94230000Y-54450000D01*
X80580000Y-62890000D02*
X80580000Y-56820000D01*
X80580000Y-56820000D02*
X82950000Y-54450000D01*
X81680000Y-63990000D02*
X80580000Y-62890000D01*
%TO.N,Net-(Q2-C)*%
X75200000Y-71400000D02*
X75200000Y-73400000D01*
X75200000Y-73400000D02*
X72450000Y-76150000D01*
%TO.N,Net-(D1-K)*%
X74715500Y-69478100D02*
X67120000Y-69478100D01*
X77450000Y-72212600D02*
X74715500Y-69478100D01*
X67120000Y-70530000D02*
X67120000Y-69478100D01*
X60560000Y-64151900D02*
X61910000Y-65501900D01*
X60560000Y-63050000D02*
X60560000Y-64151900D01*
X61910000Y-65501900D02*
X61910000Y-66120000D01*
X77450000Y-76150000D02*
X77450000Y-72212600D01*
%TO.N,Net-(Q2-E)*%
X71833100Y-71400000D02*
X71287100Y-71946000D01*
X71287100Y-71946000D02*
X71287100Y-77747100D01*
X71287100Y-77747100D02*
X72380000Y-78840000D01*
X72660000Y-71400000D02*
X71833100Y-71400000D01*
%TO.N,Net-(D2-K)*%
X62995000Y-72609000D02*
X61890000Y-71504000D01*
X60560000Y-60070000D02*
X60560000Y-60896400D01*
X61890000Y-71504000D02*
X61890000Y-69490000D01*
X60560000Y-60896400D02*
X59433300Y-62023100D01*
X59433300Y-65931400D02*
X61890000Y-68388100D01*
X59433300Y-62023100D02*
X59433300Y-65931400D01*
X61890000Y-68388100D02*
X61890000Y-69490000D01*
%TO.N,Net-(Q3-C)*%
X68320000Y-75770000D02*
X68320000Y-74718100D01*
X68320000Y-74718100D02*
X68390000Y-74648100D01*
X67330000Y-62498100D02*
X67330000Y-58330000D01*
X66690000Y-63138100D02*
X67330000Y-62498100D01*
X66690000Y-64240000D02*
X66690000Y-63138100D01*
X68390000Y-74648100D02*
X68390000Y-70530000D01*
%TO.N,Net-(C9-Pad2)*%
X59370000Y-72500000D02*
X61910000Y-75040000D01*
X61910000Y-75040000D02*
X61910000Y-75510000D01*
%TO.N,vcc*%
X83115800Y-59794800D02*
X83115800Y-59603900D01*
X84020000Y-55720000D02*
X84020000Y-56821900D01*
X83115800Y-57726100D02*
X83115800Y-59794800D01*
X91610000Y-68098100D02*
X91610000Y-69150000D01*
X84020000Y-56821900D02*
X83115800Y-57726100D01*
X91610000Y-75278100D02*
X91610000Y-69150000D01*
X81680000Y-61450000D02*
X83115800Y-60014200D01*
X83115800Y-60014200D02*
X83115800Y-59794800D01*
X91860000Y-75528100D02*
X91610000Y-75278100D01*
X83115800Y-59603900D02*
X91610000Y-68098100D01*
X91860000Y-76630000D02*
X91860000Y-75528100D01*
%TO.N,out*%
X92105700Y-53994300D02*
X81295700Y-53994300D01*
X81295700Y-53994300D02*
X79623600Y-55666400D01*
X93660000Y-52440000D02*
X92105700Y-53994300D01*
X79623600Y-82844500D02*
X76620000Y-85848100D01*
X76620000Y-85848100D02*
X76620000Y-87000000D01*
X79623600Y-55666400D02*
X79623600Y-82844500D01*
%TO.N,Net-(Q1-B)*%
X90340000Y-69150000D02*
X90340000Y-76682200D01*
X92037800Y-78380000D02*
X95900000Y-78380000D01*
X90340000Y-76682200D02*
X92037800Y-78380000D01*
%TO.N,Net-(Q5-E)*%
X59260000Y-55848000D02*
X61742000Y-58330000D01*
X61742000Y-58330000D02*
X66060000Y-58330000D01*
X59260000Y-52470000D02*
X59260000Y-55848000D01*
%TO.N,Net-(R13-Pad2)*%
X61830000Y-55738100D02*
X64260000Y-53308100D01*
X61830000Y-56840000D02*
X61830000Y-55738100D01*
X64260000Y-53308100D02*
X64260000Y-52470000D01*
%TO.N,Net-(R14-Pad1)*%
X51750000Y-75510000D02*
X51750000Y-72258500D01*
X51750000Y-72258500D02*
X57107500Y-66901000D01*
X57107500Y-66901000D02*
X57107500Y-54447300D01*
%TD*%
%TA.AperFunction,Conductor*%
%TO.N,GND*%
G36*
X107442381Y-50520185D02*
G01*
X107488136Y-50572989D01*
X107499341Y-50624529D01*
X107498933Y-52237543D01*
X107498095Y-55544574D01*
X107478393Y-55611609D01*
X107425578Y-55657350D01*
X107356417Y-55667276D01*
X107292869Y-55638235D01*
X107261713Y-55596947D01*
X107254434Y-55581338D01*
X107210568Y-55487266D01*
X107080047Y-55300861D01*
X107080046Y-55300860D01*
X107080045Y-55300858D01*
X106919141Y-55139954D01*
X106732734Y-55009432D01*
X106732732Y-55009431D01*
X106526497Y-54913261D01*
X106526488Y-54913258D01*
X106306697Y-54854366D01*
X106306693Y-54854365D01*
X106306692Y-54854365D01*
X106306691Y-54854364D01*
X106306686Y-54854364D01*
X106080002Y-54834532D01*
X106079998Y-54834532D01*
X105853313Y-54854364D01*
X105853302Y-54854366D01*
X105633511Y-54913258D01*
X105633502Y-54913261D01*
X105427267Y-55009431D01*
X105427265Y-55009432D01*
X105240858Y-55139954D01*
X105079954Y-55300858D01*
X104949432Y-55487265D01*
X104949431Y-55487267D01*
X104853261Y-55693502D01*
X104853258Y-55693511D01*
X104794366Y-55913302D01*
X104794364Y-55913313D01*
X104774532Y-56139998D01*
X104774532Y-56140001D01*
X104794364Y-56366686D01*
X104794366Y-56366697D01*
X104853258Y-56586488D01*
X104853261Y-56586497D01*
X104949431Y-56792732D01*
X104949432Y-56792734D01*
X105079954Y-56979141D01*
X105240858Y-57140045D01*
X105259797Y-57153306D01*
X105425596Y-57269399D01*
X105427269Y-57270570D01*
X105429320Y-57271755D01*
X105430042Y-57272512D01*
X105431701Y-57273674D01*
X105431467Y-57274007D01*
X105477533Y-57322324D01*
X105490254Y-57362951D01*
X105494956Y-57398661D01*
X105494956Y-57398662D01*
X105551786Y-57535863D01*
X105555464Y-57544741D01*
X105623673Y-57633633D01*
X105651719Y-57670183D01*
X105676769Y-57689404D01*
X105688964Y-57700099D01*
X106682781Y-58693916D01*
X106716266Y-58755239D01*
X106719100Y-58781597D01*
X106719100Y-60828432D01*
X106699415Y-60895471D01*
X106646611Y-60941226D01*
X106577453Y-60951170D01*
X106542699Y-60940816D01*
X106526498Y-60933262D01*
X106526488Y-60933258D01*
X106306697Y-60874366D01*
X106306693Y-60874365D01*
X106306692Y-60874365D01*
X106306691Y-60874364D01*
X106306686Y-60874364D01*
X106080002Y-60854532D01*
X106079998Y-60854532D01*
X105853313Y-60874364D01*
X105853302Y-60874366D01*
X105633511Y-60933258D01*
X105633502Y-60933261D01*
X105427267Y-61029431D01*
X105427265Y-61029432D01*
X105240858Y-61159954D01*
X105079954Y-61320858D01*
X104949432Y-61507265D01*
X104949431Y-61507267D01*
X104853261Y-61713502D01*
X104853258Y-61713511D01*
X104794366Y-61933302D01*
X104794364Y-61933313D01*
X104774532Y-62159998D01*
X104774532Y-62160001D01*
X104794364Y-62386686D01*
X104794366Y-62386697D01*
X104853258Y-62606488D01*
X104853261Y-62606497D01*
X104949431Y-62812732D01*
X104949432Y-62812734D01*
X105079954Y-62999141D01*
X105240858Y-63160045D01*
X105240861Y-63160047D01*
X105427266Y-63290568D01*
X105633504Y-63386739D01*
X105853308Y-63445635D01*
X106015230Y-63459801D01*
X106079998Y-63465468D01*
X106080000Y-63465468D01*
X106080002Y-63465468D01*
X106136673Y-63460509D01*
X106306692Y-63445635D01*
X106526496Y-63386739D01*
X106542694Y-63379185D01*
X106611767Y-63368691D01*
X106675553Y-63397208D01*
X106713795Y-63455683D01*
X106719100Y-63491566D01*
X106719100Y-64091832D01*
X106699415Y-64158871D01*
X106646611Y-64204626D01*
X106577453Y-64214570D01*
X106563007Y-64211607D01*
X106386697Y-64164366D01*
X106386693Y-64164365D01*
X106386692Y-64164365D01*
X106386691Y-64164364D01*
X106386686Y-64164364D01*
X106160002Y-64144532D01*
X106159998Y-64144532D01*
X105933313Y-64164364D01*
X105933302Y-64164366D01*
X105713511Y-64223258D01*
X105713502Y-64223261D01*
X105507267Y-64319431D01*
X105507265Y-64319432D01*
X105320858Y-64449954D01*
X105159954Y-64610858D01*
X105029432Y-64797265D01*
X105029431Y-64797267D01*
X104933261Y-65003502D01*
X104933258Y-65003511D01*
X104874366Y-65223302D01*
X104874364Y-65223313D01*
X104854532Y-65449998D01*
X104854532Y-65450001D01*
X104874364Y-65676686D01*
X104874366Y-65676697D01*
X104933258Y-65896488D01*
X104933261Y-65896497D01*
X105029431Y-66102732D01*
X105029432Y-66102734D01*
X105159954Y-66289141D01*
X105320858Y-66450045D01*
X105320861Y-66450047D01*
X105507266Y-66580568D01*
X105713504Y-66676739D01*
X105933308Y-66735635D01*
X106095230Y-66749801D01*
X106159998Y-66755468D01*
X106160000Y-66755468D01*
X106160002Y-66755468D01*
X106216673Y-66750509D01*
X106386692Y-66735635D01*
X106556800Y-66690055D01*
X106563007Y-66688392D01*
X106632857Y-66690055D01*
X106690719Y-66729218D01*
X106718223Y-66793446D01*
X106719100Y-66808167D01*
X106719100Y-67497759D01*
X106699415Y-67564798D01*
X106646611Y-67610553D01*
X106577453Y-67620497D01*
X106542695Y-67610141D01*
X106506496Y-67593261D01*
X106506492Y-67593260D01*
X106506488Y-67593258D01*
X106286697Y-67534366D01*
X106286693Y-67534365D01*
X106286692Y-67534365D01*
X106286691Y-67534364D01*
X106286686Y-67534364D01*
X106060002Y-67514532D01*
X106059998Y-67514532D01*
X105833313Y-67534364D01*
X105833302Y-67534366D01*
X105613511Y-67593258D01*
X105613502Y-67593261D01*
X105407267Y-67689431D01*
X105407265Y-67689432D01*
X105220858Y-67819954D01*
X105059954Y-67980858D01*
X104929432Y-68167265D01*
X104929431Y-68167267D01*
X104833261Y-68373502D01*
X104833258Y-68373511D01*
X104774366Y-68593302D01*
X104774364Y-68593313D01*
X104754532Y-68819998D01*
X104754532Y-68820001D01*
X104774364Y-69046686D01*
X104774366Y-69046697D01*
X104833258Y-69266488D01*
X104833260Y-69266492D01*
X104833261Y-69266496D01*
X104884398Y-69376160D01*
X104927273Y-69468105D01*
X104937765Y-69537183D01*
X104909245Y-69600967D01*
X104902572Y-69608191D01*
X103852705Y-70658058D01*
X103791382Y-70691543D01*
X103732931Y-70690152D01*
X103636697Y-70664366D01*
X103636693Y-70664365D01*
X103636692Y-70664365D01*
X103636691Y-70664364D01*
X103636686Y-70664364D01*
X103410002Y-70644532D01*
X103409998Y-70644532D01*
X103183313Y-70664364D01*
X103183302Y-70664366D01*
X102963511Y-70723258D01*
X102963502Y-70723261D01*
X102757267Y-70819431D01*
X102757265Y-70819432D01*
X102570858Y-70949954D01*
X102409954Y-71110858D01*
X102279432Y-71297265D01*
X102279431Y-71297267D01*
X102183261Y-71503502D01*
X102183258Y-71503511D01*
X102124366Y-71723302D01*
X102124364Y-71723313D01*
X102104532Y-71949998D01*
X102104532Y-71950001D01*
X102124364Y-72176686D01*
X102124366Y-72176697D01*
X102183258Y-72396488D01*
X102183261Y-72396497D01*
X102279431Y-72602732D01*
X102279432Y-72602734D01*
X102409954Y-72789141D01*
X102570858Y-72950045D01*
X102570861Y-72950047D01*
X102757266Y-73080568D01*
X102963504Y-73176739D01*
X102963509Y-73176740D01*
X102963511Y-73176741D01*
X103014947Y-73190523D01*
X103183308Y-73235635D01*
X103345230Y-73249801D01*
X103409998Y-73255468D01*
X103410000Y-73255468D01*
X103410002Y-73255468D01*
X103466673Y-73250509D01*
X103636692Y-73235635D01*
X103856496Y-73176739D01*
X104062734Y-73080568D01*
X104249139Y-72950047D01*
X104410047Y-72789139D01*
X104540568Y-72602734D01*
X104636739Y-72396496D01*
X104695635Y-72176692D01*
X104714973Y-71955657D01*
X104715468Y-71950001D01*
X104715468Y-71949998D01*
X104704412Y-71823630D01*
X104695635Y-71723308D01*
X104669847Y-71627066D01*
X104671510Y-71557217D01*
X104701939Y-71507294D01*
X106054133Y-70155100D01*
X106115454Y-70121617D01*
X106130995Y-70119256D01*
X106286692Y-70105635D01*
X106506496Y-70046739D01*
X106542696Y-70029858D01*
X106611770Y-70019366D01*
X106675555Y-70047884D01*
X106713796Y-70106360D01*
X106719100Y-70142240D01*
X106719100Y-73607759D01*
X106699415Y-73674798D01*
X106646611Y-73720553D01*
X106577453Y-73730497D01*
X106542695Y-73720141D01*
X106519339Y-73709250D01*
X106506496Y-73703261D01*
X106506492Y-73703260D01*
X106506488Y-73703258D01*
X106286697Y-73644366D01*
X106286693Y-73644365D01*
X106286692Y-73644365D01*
X106286691Y-73644364D01*
X106286686Y-73644364D01*
X106060002Y-73624532D01*
X106059998Y-73624532D01*
X105833313Y-73644364D01*
X105833302Y-73644366D01*
X105613511Y-73703258D01*
X105613502Y-73703261D01*
X105407267Y-73799431D01*
X105407265Y-73799432D01*
X105220858Y-73929954D01*
X105059954Y-74090858D01*
X104929432Y-74277265D01*
X104929431Y-74277267D01*
X104833261Y-74483502D01*
X104833258Y-74483511D01*
X104774366Y-74703302D01*
X104774364Y-74703313D01*
X104754532Y-74929998D01*
X104754532Y-74930001D01*
X104774364Y-75156686D01*
X104774366Y-75156697D01*
X104833258Y-75376488D01*
X104833261Y-75376497D01*
X104929431Y-75582732D01*
X104929432Y-75582734D01*
X105059954Y-75769141D01*
X105220858Y-75930045D01*
X105220861Y-75930047D01*
X105407266Y-76060568D01*
X105613504Y-76156739D01*
X105613509Y-76156740D01*
X105613511Y-76156741D01*
X105666415Y-76170916D01*
X105833308Y-76215635D01*
X105972931Y-76227850D01*
X106037999Y-76253302D01*
X106078978Y-76309893D01*
X106082856Y-76379655D01*
X106049804Y-76439059D01*
X105668965Y-76819898D01*
X105656775Y-76830589D01*
X105631720Y-76849815D01*
X105614034Y-76872864D01*
X105557130Y-76947023D01*
X105557129Y-76947023D01*
X105535464Y-76975257D01*
X105474956Y-77121338D01*
X105470254Y-77157049D01*
X105441986Y-77220945D01*
X105411670Y-77246284D01*
X105411701Y-77246327D01*
X105411198Y-77246678D01*
X105409332Y-77248239D01*
X105407267Y-77249431D01*
X105220858Y-77379954D01*
X105059954Y-77540858D01*
X104929432Y-77727265D01*
X104929431Y-77727267D01*
X104833261Y-77933502D01*
X104833258Y-77933511D01*
X104774366Y-78153302D01*
X104774364Y-78153313D01*
X104754532Y-78379998D01*
X104754532Y-78380001D01*
X104774364Y-78606686D01*
X104774366Y-78606697D01*
X104833258Y-78826488D01*
X104833261Y-78826497D01*
X104929431Y-79032732D01*
X104929432Y-79032734D01*
X105059954Y-79219141D01*
X105220858Y-79380045D01*
X105220861Y-79380047D01*
X105407266Y-79510568D01*
X105613504Y-79606739D01*
X105833308Y-79665635D01*
X105987682Y-79679141D01*
X106059998Y-79685468D01*
X106060000Y-79685468D01*
X106060002Y-79685468D01*
X106116673Y-79680509D01*
X106286692Y-79665635D01*
X106506496Y-79606739D01*
X106712734Y-79510568D01*
X106899139Y-79380047D01*
X107060047Y-79219139D01*
X107190568Y-79032734D01*
X107255791Y-78892863D01*
X107301961Y-78840427D01*
X107369155Y-78821275D01*
X107436036Y-78841491D01*
X107481370Y-78894656D01*
X107492171Y-78945302D01*
X107491625Y-81103587D01*
X107471923Y-81170622D01*
X107419108Y-81216363D01*
X107349947Y-81226289D01*
X107286399Y-81197248D01*
X107255243Y-81155961D01*
X107227627Y-81096739D01*
X107190568Y-81017266D01*
X107060126Y-80830974D01*
X107060045Y-80830858D01*
X106899141Y-80669954D01*
X106712734Y-80539432D01*
X106712732Y-80539431D01*
X106506497Y-80443261D01*
X106506488Y-80443258D01*
X106286697Y-80384366D01*
X106286693Y-80384365D01*
X106286692Y-80384365D01*
X106286691Y-80384364D01*
X106286686Y-80384364D01*
X106060002Y-80364532D01*
X106059998Y-80364532D01*
X105833313Y-80384364D01*
X105833302Y-80384366D01*
X105613511Y-80443258D01*
X105613502Y-80443261D01*
X105407267Y-80539431D01*
X105407265Y-80539432D01*
X105220858Y-80669954D01*
X105059954Y-80830858D01*
X104929432Y-81017265D01*
X104929431Y-81017267D01*
X104833261Y-81223502D01*
X104833258Y-81223511D01*
X104774366Y-81443302D01*
X104774364Y-81443313D01*
X104754532Y-81669998D01*
X104754532Y-81670001D01*
X104774364Y-81896686D01*
X104774366Y-81896697D01*
X104833258Y-82116488D01*
X104833261Y-82116497D01*
X104929431Y-82322732D01*
X104929432Y-82322734D01*
X105059954Y-82509141D01*
X105220858Y-82670045D01*
X105220861Y-82670047D01*
X105407266Y-82800568D01*
X105613504Y-82896739D01*
X105833308Y-82955635D01*
X105995230Y-82969801D01*
X106059998Y-82975468D01*
X106060000Y-82975468D01*
X106060002Y-82975468D01*
X106116673Y-82970509D01*
X106286692Y-82955635D01*
X106506496Y-82896739D01*
X106712734Y-82800568D01*
X106899139Y-82670047D01*
X107060047Y-82509139D01*
X107190568Y-82322734D01*
X107254957Y-82184651D01*
X107301128Y-82132214D01*
X107368322Y-82113062D01*
X107435203Y-82133278D01*
X107480537Y-82186443D01*
X107491338Y-82237089D01*
X107489658Y-88875531D01*
X107469956Y-88942566D01*
X107417141Y-88988307D01*
X107365658Y-88999500D01*
X50614658Y-88999500D01*
X50547619Y-88979815D01*
X50501864Y-88927011D01*
X50490658Y-88875469D01*
X50490806Y-88293797D01*
X50490906Y-87897870D01*
X72729500Y-87897870D01*
X72729501Y-87897876D01*
X72735908Y-87957483D01*
X72786202Y-88092328D01*
X72786206Y-88092335D01*
X72872452Y-88207544D01*
X72872455Y-88207547D01*
X72987664Y-88293793D01*
X72987671Y-88293797D01*
X73122517Y-88344091D01*
X73122516Y-88344091D01*
X73129444Y-88344835D01*
X73182127Y-88350500D01*
X74977872Y-88350499D01*
X75037483Y-88344091D01*
X75172331Y-88293796D01*
X75287546Y-88207546D01*
X75373796Y-88092331D01*
X75422810Y-87960916D01*
X75464681Y-87904984D01*
X75530145Y-87880566D01*
X75598418Y-87895417D01*
X75626673Y-87916569D01*
X75748599Y-88038495D01*
X75845384Y-88106265D01*
X75942165Y-88174032D01*
X75942167Y-88174033D01*
X75942170Y-88174035D01*
X76156337Y-88273903D01*
X76384592Y-88335063D01*
X76561034Y-88350500D01*
X76619999Y-88355659D01*
X76620000Y-88355659D01*
X76620001Y-88355659D01*
X76678966Y-88350500D01*
X76855408Y-88335063D01*
X77083663Y-88273903D01*
X77297830Y-88174035D01*
X77491401Y-88038495D01*
X77658495Y-87871401D01*
X77788425Y-87685842D01*
X77843002Y-87642217D01*
X77912500Y-87635023D01*
X77974855Y-87666546D01*
X77991575Y-87685842D01*
X78121281Y-87871082D01*
X78121505Y-87871401D01*
X78288599Y-88038495D01*
X78385384Y-88106265D01*
X78482165Y-88174032D01*
X78482167Y-88174033D01*
X78482170Y-88174035D01*
X78696337Y-88273903D01*
X78924592Y-88335063D01*
X79101034Y-88350500D01*
X79159999Y-88355659D01*
X79160000Y-88355659D01*
X79160001Y-88355659D01*
X79218966Y-88350500D01*
X79395408Y-88335063D01*
X79623663Y-88273903D01*
X79837830Y-88174035D01*
X80031401Y-88038495D01*
X80198495Y-87871401D01*
X80328730Y-87685405D01*
X80383307Y-87641781D01*
X80452805Y-87634587D01*
X80515160Y-87666110D01*
X80531879Y-87685405D01*
X80661890Y-87871078D01*
X80828917Y-88038105D01*
X81022421Y-88173600D01*
X81236507Y-88273429D01*
X81236516Y-88273433D01*
X81450000Y-88330634D01*
X81450000Y-87435501D01*
X81557685Y-87484680D01*
X81664237Y-87500000D01*
X81735763Y-87500000D01*
X81842315Y-87484680D01*
X81950000Y-87435501D01*
X81950000Y-88330633D01*
X82163483Y-88273433D01*
X82163492Y-88273429D01*
X82377578Y-88173600D01*
X82571082Y-88038105D01*
X82738105Y-87871082D01*
X82873600Y-87677578D01*
X82973429Y-87463492D01*
X82973432Y-87463486D01*
X83030636Y-87250000D01*
X82133686Y-87250000D01*
X82159493Y-87209844D01*
X82200000Y-87071889D01*
X82200000Y-86928111D01*
X82159493Y-86790156D01*
X82133686Y-86750000D01*
X83030636Y-86750000D01*
X83030635Y-86749999D01*
X82973432Y-86536513D01*
X82973429Y-86536507D01*
X82873600Y-86322422D01*
X82873599Y-86322420D01*
X82738113Y-86128926D01*
X82738108Y-86128920D01*
X82571082Y-85961894D01*
X82377578Y-85826399D01*
X82163492Y-85726570D01*
X82163486Y-85726567D01*
X81950000Y-85669364D01*
X81950000Y-86564498D01*
X81842315Y-86515320D01*
X81735763Y-86500000D01*
X81664237Y-86500000D01*
X81557685Y-86515320D01*
X81450000Y-86564498D01*
X81450000Y-85669364D01*
X81449999Y-85669364D01*
X81236513Y-85726567D01*
X81236507Y-85726570D01*
X81022422Y-85826399D01*
X81022420Y-85826400D01*
X80828926Y-85961886D01*
X80828920Y-85961891D01*
X80661891Y-86128920D01*
X80661890Y-86128922D01*
X80531880Y-86314595D01*
X80477303Y-86358219D01*
X80407804Y-86365412D01*
X80345450Y-86333890D01*
X80328730Y-86314594D01*
X80198494Y-86128597D01*
X80031402Y-85961506D01*
X80031395Y-85961501D01*
X79837834Y-85825967D01*
X79837830Y-85825965D01*
X79787121Y-85802319D01*
X79623663Y-85726097D01*
X79623659Y-85726096D01*
X79623655Y-85726094D01*
X79395413Y-85664938D01*
X79395403Y-85664936D01*
X79160001Y-85644341D01*
X79159999Y-85644341D01*
X78924596Y-85664936D01*
X78924586Y-85664938D01*
X78696344Y-85726094D01*
X78696335Y-85726098D01*
X78482171Y-85825964D01*
X78482169Y-85825965D01*
X78288597Y-85961505D01*
X78121505Y-86128597D01*
X77991575Y-86314158D01*
X77936998Y-86357783D01*
X77867500Y-86364977D01*
X77805145Y-86333454D01*
X77788425Y-86314158D01*
X77658494Y-86128597D01*
X77511296Y-85981399D01*
X77477811Y-85920076D01*
X77482795Y-85850384D01*
X77511294Y-85806039D01*
X80014643Y-83302690D01*
X80026823Y-83292009D01*
X80051882Y-83272782D01*
X80148136Y-83147341D01*
X80208644Y-83001262D01*
X80224100Y-82883861D01*
X80229282Y-82844500D01*
X80225161Y-82813197D01*
X80224100Y-82797012D01*
X80224100Y-80177274D01*
X80243785Y-80110235D01*
X80296589Y-80064480D01*
X80365747Y-80054536D01*
X80429303Y-80083561D01*
X80467077Y-80142339D01*
X80467875Y-80145181D01*
X80513730Y-80316317D01*
X80513735Y-80316331D01*
X80609863Y-80522478D01*
X80660974Y-80595472D01*
X81342046Y-79914400D01*
X81354835Y-79995148D01*
X81412359Y-80108045D01*
X81501955Y-80197641D01*
X81614852Y-80255165D01*
X81695599Y-80267953D01*
X81014526Y-80949025D01*
X81087513Y-81000132D01*
X81087521Y-81000136D01*
X81293668Y-81096264D01*
X81293682Y-81096269D01*
X81513389Y-81155139D01*
X81513400Y-81155141D01*
X81739998Y-81174966D01*
X81740002Y-81174966D01*
X81966599Y-81155141D01*
X81966610Y-81155139D01*
X82186317Y-81096269D01*
X82186331Y-81096264D01*
X82392478Y-81000136D01*
X82465471Y-80949024D01*
X81784400Y-80267953D01*
X81865148Y-80255165D01*
X81978045Y-80197641D01*
X82067641Y-80108045D01*
X82125165Y-79995148D01*
X82137953Y-79914400D01*
X82819024Y-80595471D01*
X82870136Y-80522478D01*
X82966264Y-80316331D01*
X82966269Y-80316317D01*
X83025139Y-80096610D01*
X83025141Y-80096599D01*
X83044966Y-79870002D01*
X83044966Y-79869997D01*
X83025141Y-79643400D01*
X83025139Y-79643389D01*
X82966269Y-79423682D01*
X82966264Y-79423668D01*
X82870136Y-79217521D01*
X82870132Y-79217513D01*
X82819025Y-79144526D01*
X82137953Y-79825598D01*
X82125165Y-79744852D01*
X82067641Y-79631955D01*
X81978045Y-79542359D01*
X81865148Y-79484835D01*
X81784401Y-79472046D01*
X82465472Y-78790974D01*
X82392478Y-78739863D01*
X82186331Y-78643735D01*
X82186317Y-78643730D01*
X81966610Y-78584860D01*
X81966599Y-78584858D01*
X81740002Y-78565034D01*
X81739998Y-78565034D01*
X81513400Y-78584858D01*
X81513389Y-78584860D01*
X81293682Y-78643730D01*
X81293673Y-78643734D01*
X81087516Y-78739866D01*
X81087512Y-78739868D01*
X81014526Y-78790973D01*
X81014526Y-78790974D01*
X81695599Y-79472046D01*
X81614852Y-79484835D01*
X81501955Y-79542359D01*
X81412359Y-79631955D01*
X81354835Y-79744852D01*
X81342046Y-79825598D01*
X80660974Y-79144526D01*
X80660973Y-79144526D01*
X80609868Y-79217512D01*
X80609866Y-79217516D01*
X80513734Y-79423673D01*
X80513731Y-79423679D01*
X80467875Y-79594819D01*
X80431510Y-79654479D01*
X80368663Y-79685008D01*
X80299287Y-79676713D01*
X80245409Y-79632228D01*
X80224135Y-79565676D01*
X80224100Y-79562725D01*
X80224100Y-77088489D01*
X80243785Y-77021450D01*
X80296589Y-76975695D01*
X80365747Y-76965751D01*
X80429303Y-76994776D01*
X80467077Y-77053554D01*
X80467875Y-77056396D01*
X80473258Y-77076488D01*
X80473261Y-77076497D01*
X80569431Y-77282732D01*
X80569432Y-77282734D01*
X80699954Y-77469141D01*
X80860858Y-77630045D01*
X80860861Y-77630047D01*
X81047266Y-77760568D01*
X81253504Y-77856739D01*
X81473308Y-77915635D01*
X81635230Y-77929801D01*
X81699998Y-77935468D01*
X81700000Y-77935468D01*
X81700002Y-77935468D01*
X81756673Y-77930509D01*
X81926692Y-77915635D01*
X82146496Y-77856739D01*
X82352734Y-77760568D01*
X82539139Y-77630047D01*
X82700047Y-77469139D01*
X82830568Y-77282734D01*
X82926739Y-77076496D01*
X82985635Y-76856692D01*
X83005468Y-76630000D01*
X82985635Y-76403308D01*
X82926739Y-76183504D01*
X82830568Y-75977266D01*
X82700047Y-75790861D01*
X82700045Y-75790858D01*
X82539141Y-75629954D01*
X82352734Y-75499432D01*
X82352732Y-75499431D01*
X82146497Y-75403261D01*
X82146488Y-75403258D01*
X81926697Y-75344366D01*
X81926693Y-75344365D01*
X81926692Y-75344365D01*
X81926691Y-75344364D01*
X81926686Y-75344364D01*
X81700002Y-75324532D01*
X81699998Y-75324532D01*
X81473313Y-75344364D01*
X81473302Y-75344366D01*
X81253511Y-75403258D01*
X81253502Y-75403261D01*
X81047267Y-75499431D01*
X81047265Y-75499432D01*
X80860858Y-75629954D01*
X80699954Y-75790858D01*
X80569432Y-75977265D01*
X80569431Y-75977267D01*
X80473261Y-76183502D01*
X80473259Y-76183509D01*
X80467875Y-76203604D01*
X80431509Y-76263264D01*
X80368662Y-76293793D01*
X80299287Y-76285498D01*
X80245409Y-76241013D01*
X80224135Y-76174460D01*
X80224100Y-76171510D01*
X80224100Y-72267870D01*
X80779500Y-72267870D01*
X80779501Y-72267876D01*
X80785908Y-72327483D01*
X80836202Y-72462328D01*
X80836206Y-72462335D01*
X80922452Y-72577544D01*
X80922455Y-72577547D01*
X81037664Y-72663793D01*
X81037671Y-72663797D01*
X81172517Y-72714091D01*
X81172516Y-72714091D01*
X81179444Y-72714835D01*
X81232127Y-72720500D01*
X82927872Y-72720499D01*
X82987483Y-72714091D01*
X83122331Y-72663796D01*
X83237546Y-72577546D01*
X83244350Y-72568455D01*
X83300280Y-72526584D01*
X83369971Y-72521597D01*
X83414740Y-72541188D01*
X83427512Y-72550130D01*
X83427518Y-72550134D01*
X83633673Y-72646265D01*
X83633682Y-72646269D01*
X83853389Y-72705139D01*
X83853400Y-72705141D01*
X84079998Y-72724966D01*
X84080002Y-72724966D01*
X84306599Y-72705141D01*
X84306610Y-72705139D01*
X84526317Y-72646269D01*
X84526331Y-72646264D01*
X84732478Y-72550136D01*
X84805471Y-72499024D01*
X84124400Y-71817953D01*
X84205148Y-71805165D01*
X84318045Y-71747641D01*
X84407641Y-71658045D01*
X84465165Y-71545148D01*
X84477953Y-71464400D01*
X85159024Y-72145471D01*
X85210136Y-72072478D01*
X85306264Y-71866331D01*
X85306269Y-71866317D01*
X85365139Y-71646610D01*
X85365141Y-71646599D01*
X85384966Y-71420002D01*
X85384966Y-71419997D01*
X85365141Y-71193400D01*
X85365139Y-71193389D01*
X85306269Y-70973682D01*
X85306264Y-70973668D01*
X85210136Y-70767521D01*
X85210132Y-70767513D01*
X85159025Y-70694526D01*
X84477953Y-71375598D01*
X84465165Y-71294852D01*
X84407641Y-71181955D01*
X84318045Y-71092359D01*
X84205148Y-71034835D01*
X84124400Y-71022046D01*
X84805472Y-70340974D01*
X84732478Y-70289863D01*
X84526331Y-70193735D01*
X84526317Y-70193730D01*
X84306610Y-70134860D01*
X84306599Y-70134858D01*
X84080002Y-70115034D01*
X84079998Y-70115034D01*
X83853400Y-70134858D01*
X83853389Y-70134860D01*
X83633682Y-70193730D01*
X83633673Y-70193734D01*
X83427512Y-70289868D01*
X83427507Y-70289871D01*
X83414736Y-70298813D01*
X83348529Y-70321138D01*
X83280763Y-70304124D01*
X83244352Y-70271546D01*
X83237546Y-70262454D01*
X83237544Y-70262453D01*
X83237544Y-70262452D01*
X83122335Y-70176206D01*
X83122328Y-70176202D01*
X82987482Y-70125908D01*
X82987483Y-70125908D01*
X82927883Y-70119501D01*
X82927881Y-70119500D01*
X82927873Y-70119500D01*
X82927864Y-70119500D01*
X81232129Y-70119500D01*
X81232123Y-70119501D01*
X81172516Y-70125908D01*
X81037671Y-70176202D01*
X81037664Y-70176206D01*
X80922455Y-70262452D01*
X80922452Y-70262455D01*
X80836206Y-70377664D01*
X80836202Y-70377671D01*
X80785908Y-70512517D01*
X80779501Y-70572116D01*
X80779500Y-70572135D01*
X80779500Y-72267870D01*
X80224100Y-72267870D01*
X80224100Y-67044385D01*
X80243785Y-66977346D01*
X80296589Y-66931591D01*
X80365747Y-66921647D01*
X80429303Y-66950672D01*
X80460480Y-66991977D01*
X80541007Y-67164666D01*
X80549431Y-67182732D01*
X80549432Y-67182734D01*
X80679954Y-67369141D01*
X80840858Y-67530045D01*
X80840861Y-67530047D01*
X81027266Y-67660568D01*
X81233504Y-67756739D01*
X81453308Y-67815635D01*
X81615230Y-67829801D01*
X81679998Y-67835468D01*
X81680000Y-67835468D01*
X81680002Y-67835468D01*
X81736673Y-67830509D01*
X81906692Y-67815635D01*
X82126496Y-67756739D01*
X82332734Y-67660568D01*
X82519139Y-67530047D01*
X82680047Y-67369139D01*
X82810568Y-67182734D01*
X82906739Y-66976496D01*
X82965635Y-66756692D01*
X82985468Y-66530000D01*
X82965635Y-66303308D01*
X82916518Y-66119999D01*
X82906741Y-66083511D01*
X82906738Y-66083502D01*
X82875081Y-66015614D01*
X82810568Y-65877266D01*
X82680047Y-65690861D01*
X82680045Y-65690858D01*
X82519141Y-65529954D01*
X82332734Y-65399432D01*
X82332728Y-65399429D01*
X82300108Y-65384218D01*
X82274724Y-65372381D01*
X82222285Y-65326210D01*
X82203133Y-65259017D01*
X82223348Y-65192135D01*
X82274725Y-65147618D01*
X82275015Y-65147483D01*
X82332734Y-65120568D01*
X82519139Y-64990047D01*
X82680047Y-64829139D01*
X82810568Y-64642734D01*
X82906739Y-64436496D01*
X82965635Y-64216692D01*
X82985468Y-63990000D01*
X82965635Y-63763308D01*
X82906739Y-63543504D01*
X82810568Y-63337266D01*
X82680047Y-63150861D01*
X82680045Y-63150858D01*
X82519141Y-62989954D01*
X82332734Y-62859432D01*
X82332728Y-62859429D01*
X82274725Y-62832382D01*
X82222285Y-62786210D01*
X82203133Y-62719017D01*
X82223348Y-62652135D01*
X82274725Y-62607618D01*
X82277129Y-62606497D01*
X82332734Y-62580568D01*
X82519139Y-62450047D01*
X82680047Y-62289139D01*
X82810568Y-62102734D01*
X82906739Y-61896496D01*
X82965635Y-61676692D01*
X82985468Y-61450000D01*
X82965635Y-61223308D01*
X82939847Y-61127066D01*
X82941510Y-61057217D01*
X82971939Y-61007294D01*
X83233271Y-60745962D01*
X83294591Y-60712480D01*
X83364283Y-60717464D01*
X83408630Y-60745965D01*
X90352342Y-67689677D01*
X90385827Y-67751000D01*
X90380843Y-67820692D01*
X90338971Y-67876625D01*
X90276815Y-67900761D01*
X90138968Y-67914337D01*
X90000959Y-67956202D01*
X89945659Y-67972977D01*
X89945658Y-67972977D01*
X89944575Y-67973306D01*
X89874708Y-67973929D01*
X89845618Y-67959529D01*
X89845114Y-67960454D01*
X89837328Y-67956202D01*
X89702482Y-67905908D01*
X89702483Y-67905908D01*
X89642883Y-67899501D01*
X89642881Y-67899500D01*
X89642873Y-67899500D01*
X89642864Y-67899500D01*
X88497129Y-67899500D01*
X88497123Y-67899501D01*
X88437516Y-67905908D01*
X88302671Y-67956202D01*
X88302664Y-67956206D01*
X88187455Y-68042452D01*
X88187452Y-68042455D01*
X88101206Y-68157664D01*
X88101202Y-68157671D01*
X88050908Y-68292517D01*
X88044501Y-68352116D01*
X88044500Y-68352135D01*
X88044500Y-69947870D01*
X88044501Y-69947876D01*
X88050908Y-70007483D01*
X88101202Y-70142328D01*
X88101206Y-70142335D01*
X88187452Y-70257544D01*
X88187455Y-70257547D01*
X88302664Y-70343793D01*
X88302671Y-70343797D01*
X88437517Y-70394091D01*
X88437516Y-70394091D01*
X88444444Y-70394835D01*
X88497127Y-70400500D01*
X89615500Y-70400499D01*
X89682539Y-70420184D01*
X89728294Y-70472987D01*
X89739500Y-70524499D01*
X89739500Y-76634712D01*
X89738439Y-76650897D01*
X89734318Y-76682198D01*
X89734318Y-76682200D01*
X89739500Y-76721560D01*
X89739500Y-76721561D01*
X89754955Y-76838960D01*
X89754956Y-76838962D01*
X89805625Y-76961289D01*
X89815464Y-76985041D01*
X89899351Y-77094365D01*
X89911719Y-77110483D01*
X89936769Y-77129704D01*
X89948964Y-77140399D01*
X91327138Y-78518573D01*
X91360623Y-78579896D01*
X91355639Y-78649588D01*
X91313767Y-78705521D01*
X91291862Y-78718636D01*
X91247268Y-78739430D01*
X91060858Y-78869954D01*
X90899954Y-79030858D01*
X90769432Y-79217265D01*
X90769431Y-79217267D01*
X90673261Y-79423502D01*
X90673258Y-79423511D01*
X90614366Y-79643302D01*
X90614364Y-79643313D01*
X90594532Y-79869998D01*
X90594532Y-79870001D01*
X90614364Y-80096686D01*
X90614366Y-80096697D01*
X90673258Y-80316488D01*
X90673261Y-80316497D01*
X90769431Y-80522732D01*
X90769432Y-80522734D01*
X90899954Y-80709141D01*
X91060858Y-80870045D01*
X91060861Y-80870047D01*
X91247266Y-81000568D01*
X91453504Y-81096739D01*
X91673308Y-81155635D01*
X91835230Y-81169801D01*
X91899998Y-81175468D01*
X91900000Y-81175468D01*
X91900002Y-81175468D01*
X91956673Y-81170509D01*
X92126692Y-81155635D01*
X92346496Y-81096739D01*
X92552734Y-81000568D01*
X92739139Y-80870047D01*
X92900047Y-80709139D01*
X93030568Y-80522734D01*
X93126739Y-80316496D01*
X93185635Y-80096692D01*
X93205468Y-79870000D01*
X93202847Y-79840047D01*
X93194519Y-79744852D01*
X93185635Y-79643308D01*
X93126739Y-79423504D01*
X93030568Y-79217266D01*
X93001408Y-79175621D01*
X92979082Y-79109417D01*
X92996092Y-79041650D01*
X93047040Y-78993837D01*
X93102984Y-78980500D01*
X94668308Y-78980500D01*
X94735347Y-79000185D01*
X94769880Y-79033374D01*
X94807675Y-79087351D01*
X94899954Y-79219141D01*
X95060858Y-79380045D01*
X95060861Y-79380047D01*
X95247266Y-79510568D01*
X95264171Y-79518450D01*
X95316611Y-79564621D01*
X95335764Y-79631814D01*
X95315550Y-79698696D01*
X95299449Y-79718514D01*
X90464782Y-84553181D01*
X90403459Y-84586666D01*
X90377101Y-84589500D01*
X89267029Y-84589500D01*
X89267023Y-84589501D01*
X89207416Y-84595908D01*
X89072571Y-84646202D01*
X89072564Y-84646206D01*
X88957355Y-84732452D01*
X88957352Y-84732455D01*
X88871106Y-84847664D01*
X88871102Y-84847671D01*
X88820808Y-84982517D01*
X88814401Y-85042116D01*
X88814400Y-85042135D01*
X88814400Y-86737870D01*
X88814401Y-86737876D01*
X88820808Y-86797483D01*
X88871102Y-86932328D01*
X88871106Y-86932335D01*
X88957352Y-87047544D01*
X88957355Y-87047547D01*
X89072564Y-87133793D01*
X89072571Y-87133797D01*
X89207417Y-87184091D01*
X89207416Y-87184091D01*
X89214344Y-87184835D01*
X89267027Y-87190500D01*
X90962772Y-87190499D01*
X91022383Y-87184091D01*
X91157231Y-87133796D01*
X91272446Y-87047546D01*
X91279250Y-87038455D01*
X91335180Y-86996584D01*
X91404871Y-86991597D01*
X91449640Y-87011188D01*
X91462412Y-87020130D01*
X91462418Y-87020134D01*
X91668573Y-87116265D01*
X91668582Y-87116269D01*
X91888289Y-87175139D01*
X91888300Y-87175141D01*
X92114898Y-87194966D01*
X92114902Y-87194966D01*
X92341499Y-87175141D01*
X92341510Y-87175139D01*
X92561217Y-87116269D01*
X92561231Y-87116264D01*
X92767378Y-87020136D01*
X92840371Y-86969024D01*
X92159300Y-86287953D01*
X92240048Y-86275165D01*
X92352945Y-86217641D01*
X92442541Y-86128045D01*
X92500065Y-86015148D01*
X92512853Y-85934400D01*
X93193924Y-86615471D01*
X93245036Y-86542478D01*
X93341164Y-86336331D01*
X93341169Y-86336317D01*
X93400039Y-86116610D01*
X93400041Y-86116599D01*
X93419866Y-85890002D01*
X93419866Y-85889997D01*
X93400041Y-85663400D01*
X93400039Y-85663389D01*
X93341169Y-85443682D01*
X93341164Y-85443668D01*
X93245036Y-85237521D01*
X93245032Y-85237513D01*
X93193925Y-85164526D01*
X92512853Y-85845598D01*
X92500065Y-85764852D01*
X92442541Y-85651955D01*
X92352945Y-85562359D01*
X92240048Y-85504835D01*
X92159300Y-85492046D01*
X92840372Y-84810974D01*
X92767378Y-84759863D01*
X92561231Y-84663735D01*
X92561219Y-84663731D01*
X92367619Y-84611856D01*
X92348170Y-84600001D01*
X96884532Y-84600001D01*
X96904364Y-84826686D01*
X96904366Y-84826697D01*
X96963258Y-85046488D01*
X96963261Y-85046497D01*
X97059431Y-85252732D01*
X97059432Y-85252734D01*
X97189954Y-85439141D01*
X97350858Y-85600045D01*
X97350861Y-85600047D01*
X97537266Y-85730568D01*
X97743504Y-85826739D01*
X97963308Y-85885635D01*
X98125230Y-85899801D01*
X98189998Y-85905468D01*
X98190000Y-85905468D01*
X98190002Y-85905468D01*
X98246673Y-85900509D01*
X98416692Y-85885635D01*
X98636496Y-85826739D01*
X98842734Y-85730568D01*
X99029139Y-85600047D01*
X99190047Y-85439139D01*
X99320568Y-85252734D01*
X99416739Y-85046496D01*
X99475635Y-84826692D01*
X99495468Y-84600001D01*
X101884532Y-84600001D01*
X101904364Y-84826686D01*
X101904366Y-84826697D01*
X101963258Y-85046488D01*
X101963261Y-85046497D01*
X102059431Y-85252732D01*
X102059432Y-85252734D01*
X102189954Y-85439141D01*
X102350858Y-85600045D01*
X102350861Y-85600047D01*
X102537266Y-85730568D01*
X102743504Y-85826739D01*
X102963308Y-85885635D01*
X103125230Y-85899801D01*
X103189998Y-85905468D01*
X103190000Y-85905468D01*
X103190002Y-85905468D01*
X103246673Y-85900509D01*
X103416692Y-85885635D01*
X103636496Y-85826739D01*
X103842734Y-85730568D01*
X104029139Y-85600047D01*
X104190047Y-85439139D01*
X104320568Y-85252734D01*
X104416739Y-85046496D01*
X104475635Y-84826692D01*
X104495468Y-84600000D01*
X104494549Y-84589501D01*
X104487825Y-84512644D01*
X104475635Y-84373308D01*
X104416739Y-84153504D01*
X104320568Y-83947266D01*
X104214050Y-83795141D01*
X104190045Y-83760858D01*
X104029141Y-83599954D01*
X103842734Y-83469432D01*
X103842732Y-83469431D01*
X103636497Y-83373261D01*
X103636488Y-83373258D01*
X103416697Y-83314366D01*
X103416693Y-83314365D01*
X103416692Y-83314365D01*
X103416691Y-83314364D01*
X103416686Y-83314364D01*
X103190002Y-83294532D01*
X103189998Y-83294532D01*
X102963313Y-83314364D01*
X102963302Y-83314366D01*
X102743511Y-83373258D01*
X102743502Y-83373261D01*
X102537267Y-83469431D01*
X102537265Y-83469432D01*
X102350858Y-83599954D01*
X102189954Y-83760858D01*
X102059432Y-83947265D01*
X102059431Y-83947267D01*
X101963261Y-84153502D01*
X101963258Y-84153511D01*
X101904366Y-84373302D01*
X101904364Y-84373313D01*
X101884532Y-84599998D01*
X101884532Y-84600001D01*
X99495468Y-84600001D01*
X99495468Y-84600000D01*
X99494549Y-84589501D01*
X99487825Y-84512644D01*
X99475635Y-84373308D01*
X99416739Y-84153504D01*
X99320568Y-83947266D01*
X99214050Y-83795141D01*
X99190045Y-83760858D01*
X99029141Y-83599954D01*
X98842734Y-83469432D01*
X98842732Y-83469431D01*
X98636497Y-83373261D01*
X98636488Y-83373258D01*
X98416697Y-83314366D01*
X98416693Y-83314365D01*
X98416692Y-83314365D01*
X98416691Y-83314364D01*
X98416686Y-83314364D01*
X98190002Y-83294532D01*
X98189998Y-83294532D01*
X97963313Y-83314364D01*
X97963302Y-83314366D01*
X97743511Y-83373258D01*
X97743502Y-83373261D01*
X97537267Y-83469431D01*
X97537265Y-83469432D01*
X97350858Y-83599954D01*
X97189954Y-83760858D01*
X97059432Y-83947265D01*
X97059431Y-83947267D01*
X96963261Y-84153502D01*
X96963258Y-84153511D01*
X96904366Y-84373302D01*
X96904364Y-84373313D01*
X96884532Y-84599998D01*
X96884532Y-84600001D01*
X92348170Y-84600001D01*
X92307959Y-84575491D01*
X92277430Y-84512644D01*
X92285725Y-84443268D01*
X92312027Y-84404406D01*
X94524723Y-82191710D01*
X94586044Y-82158227D01*
X94655736Y-82163211D01*
X94711669Y-82205083D01*
X94724784Y-82226987D01*
X94769432Y-82322734D01*
X94769433Y-82322735D01*
X94899954Y-82509141D01*
X95060858Y-82670045D01*
X95060861Y-82670047D01*
X95247266Y-82800568D01*
X95453504Y-82896739D01*
X95673308Y-82955635D01*
X95835230Y-82969801D01*
X95899998Y-82975468D01*
X95900000Y-82975468D01*
X95900002Y-82975468D01*
X95956673Y-82970509D01*
X96126692Y-82955635D01*
X96346496Y-82896739D01*
X96552734Y-82800568D01*
X96739139Y-82670047D01*
X96900047Y-82509139D01*
X97030568Y-82322734D01*
X97126739Y-82116496D01*
X97185635Y-81896692D01*
X97205468Y-81670000D01*
X97185635Y-81443308D01*
X97126739Y-81223504D01*
X97030568Y-81017266D01*
X96900126Y-80830974D01*
X96900045Y-80830858D01*
X96739141Y-80669954D01*
X96552735Y-80539433D01*
X96552736Y-80539433D01*
X96552734Y-80539432D01*
X96456987Y-80494784D01*
X96404548Y-80448611D01*
X96385397Y-80381417D01*
X96405613Y-80314536D01*
X96421707Y-80294726D01*
X97623343Y-79093090D01*
X97635523Y-79082409D01*
X97660582Y-79063182D01*
X97756836Y-78937741D01*
X97817344Y-78791662D01*
X97832800Y-78674261D01*
X97837982Y-78634900D01*
X97835139Y-78613308D01*
X97833861Y-78603597D01*
X97832800Y-78587412D01*
X97832800Y-73303317D01*
X97852485Y-73236278D01*
X97905289Y-73190523D01*
X97974447Y-73180579D01*
X97988893Y-73183542D01*
X98014947Y-73190523D01*
X98183308Y-73235635D01*
X98345230Y-73249801D01*
X98409998Y-73255468D01*
X98410000Y-73255468D01*
X98410002Y-73255468D01*
X98466673Y-73250509D01*
X98636692Y-73235635D01*
X98856496Y-73176739D01*
X99062734Y-73080568D01*
X99249139Y-72950047D01*
X99410047Y-72789139D01*
X99540568Y-72602734D01*
X99636739Y-72396496D01*
X99695635Y-72176692D01*
X99714973Y-71955657D01*
X99715468Y-71950001D01*
X99715468Y-71949998D01*
X99704412Y-71823630D01*
X99695635Y-71723308D01*
X99636739Y-71503504D01*
X99540568Y-71297266D01*
X99410047Y-71110861D01*
X99410045Y-71110858D01*
X99249141Y-70949954D01*
X99062734Y-70819432D01*
X99062732Y-70819431D01*
X98900426Y-70743746D01*
X98847987Y-70697573D01*
X98828835Y-70630380D01*
X98849051Y-70563499D01*
X98865145Y-70543688D01*
X99031043Y-70377790D01*
X99043223Y-70367109D01*
X99068282Y-70347882D01*
X99164536Y-70222441D01*
X99225044Y-70076362D01*
X99231740Y-70025500D01*
X99242010Y-69947494D01*
X99245682Y-69919601D01*
X99245682Y-69919598D01*
X99241561Y-69888297D01*
X99240500Y-69872112D01*
X99240500Y-60261692D01*
X99260185Y-60194653D01*
X99293374Y-60160119D01*
X99479139Y-60030047D01*
X99640047Y-59869139D01*
X99770568Y-59682734D01*
X99866739Y-59476496D01*
X99925635Y-59256692D01*
X99945468Y-59030001D01*
X102334532Y-59030001D01*
X102354364Y-59256686D01*
X102354366Y-59256697D01*
X102413258Y-59476488D01*
X102413261Y-59476497D01*
X102509431Y-59682732D01*
X102509432Y-59682734D01*
X102639954Y-59869141D01*
X102800858Y-60030045D01*
X102800861Y-60030047D01*
X102987266Y-60160568D01*
X103193504Y-60256739D01*
X103413308Y-60315635D01*
X103575230Y-60329801D01*
X103639998Y-60335468D01*
X103640000Y-60335468D01*
X103640002Y-60335468D01*
X103696673Y-60330509D01*
X103866692Y-60315635D01*
X104086496Y-60256739D01*
X104292734Y-60160568D01*
X104479139Y-60030047D01*
X104640047Y-59869139D01*
X104770568Y-59682734D01*
X104866739Y-59476496D01*
X104925635Y-59256692D01*
X104945468Y-59030000D01*
X104945305Y-59028141D01*
X104935002Y-58910370D01*
X104925635Y-58803308D01*
X104866739Y-58583504D01*
X104770568Y-58377266D01*
X104640047Y-58190861D01*
X104640045Y-58190858D01*
X104479141Y-58029954D01*
X104292734Y-57899432D01*
X104292732Y-57899431D01*
X104086497Y-57803261D01*
X104086488Y-57803258D01*
X103866697Y-57744366D01*
X103866693Y-57744365D01*
X103866692Y-57744365D01*
X103866691Y-57744364D01*
X103866686Y-57744364D01*
X103640002Y-57724532D01*
X103639998Y-57724532D01*
X103413313Y-57744364D01*
X103413302Y-57744366D01*
X103193511Y-57803258D01*
X103193502Y-57803261D01*
X102987267Y-57899431D01*
X102987265Y-57899432D01*
X102800858Y-58029954D01*
X102639954Y-58190858D01*
X102509432Y-58377265D01*
X102509431Y-58377267D01*
X102413261Y-58583502D01*
X102413258Y-58583511D01*
X102354366Y-58803302D01*
X102354364Y-58803313D01*
X102334532Y-59029998D01*
X102334532Y-59030001D01*
X99945468Y-59030001D01*
X99945468Y-59030000D01*
X99945305Y-59028141D01*
X99935002Y-58910370D01*
X99925635Y-58803308D01*
X99866739Y-58583504D01*
X99770568Y-58377266D01*
X99640047Y-58190861D01*
X99640045Y-58190858D01*
X99479141Y-58029954D01*
X99292734Y-57899432D01*
X99292732Y-57899431D01*
X99086497Y-57803261D01*
X99086488Y-57803258D01*
X98866697Y-57744366D01*
X98866693Y-57744365D01*
X98866692Y-57744365D01*
X98866691Y-57744364D01*
X98866686Y-57744364D01*
X98640002Y-57724532D01*
X98639998Y-57724532D01*
X98413313Y-57744364D01*
X98413302Y-57744366D01*
X98193511Y-57803258D01*
X98193502Y-57803261D01*
X97987267Y-57899431D01*
X97987265Y-57899432D01*
X97800858Y-58029954D01*
X97639954Y-58190858D01*
X97509432Y-58377265D01*
X97509431Y-58377267D01*
X97413261Y-58583502D01*
X97413258Y-58583511D01*
X97354366Y-58803302D01*
X97354364Y-58803313D01*
X97334532Y-59029998D01*
X97334532Y-59030001D01*
X97354364Y-59256686D01*
X97354366Y-59256697D01*
X97413258Y-59476488D01*
X97413261Y-59476497D01*
X97509431Y-59682732D01*
X97509432Y-59682734D01*
X97639954Y-59869141D01*
X97800858Y-60030045D01*
X97800861Y-60030047D01*
X97986624Y-60160118D01*
X98030248Y-60214693D01*
X98039500Y-60261692D01*
X98039500Y-69619502D01*
X98019815Y-69686541D01*
X98003181Y-69707183D01*
X96841265Y-70869098D01*
X96829075Y-70879789D01*
X96804016Y-70899018D01*
X96746508Y-70973966D01*
X96707764Y-71024458D01*
X96707761Y-71024463D01*
X96647257Y-71170534D01*
X96647255Y-71170539D01*
X96626618Y-71327298D01*
X96626618Y-71327299D01*
X96630739Y-71358601D01*
X96631800Y-71374787D01*
X96631800Y-73642211D01*
X96612115Y-73709250D01*
X96559311Y-73755005D01*
X96490153Y-73764949D01*
X96455396Y-73754593D01*
X96346331Y-73703735D01*
X96346317Y-73703730D01*
X96126610Y-73644860D01*
X96126599Y-73644858D01*
X95900002Y-73625034D01*
X95899998Y-73625034D01*
X95673400Y-73644858D01*
X95673389Y-73644860D01*
X95453682Y-73703730D01*
X95453673Y-73703734D01*
X95247516Y-73799866D01*
X95247512Y-73799868D01*
X95174526Y-73850973D01*
X95174526Y-73850974D01*
X95855599Y-74532046D01*
X95774852Y-74544835D01*
X95661955Y-74602359D01*
X95572359Y-74691955D01*
X95514835Y-74804852D01*
X95502046Y-74885598D01*
X94820974Y-74204526D01*
X94820973Y-74204526D01*
X94769868Y-74277512D01*
X94769866Y-74277516D01*
X94673734Y-74483673D01*
X94673731Y-74483681D01*
X94614860Y-74703389D01*
X94614858Y-74703400D01*
X94595034Y-74929997D01*
X94595034Y-74930002D01*
X94614858Y-75156599D01*
X94614860Y-75156610D01*
X94673730Y-75376317D01*
X94673735Y-75376331D01*
X94769863Y-75582478D01*
X94820974Y-75655472D01*
X95502046Y-74974400D01*
X95514835Y-75055148D01*
X95572359Y-75168045D01*
X95661955Y-75257641D01*
X95774852Y-75315165D01*
X95855597Y-75327953D01*
X95174526Y-76009025D01*
X95247513Y-76060132D01*
X95247521Y-76060136D01*
X95453668Y-76156264D01*
X95453682Y-76156269D01*
X95673389Y-76215139D01*
X95673400Y-76215141D01*
X95899998Y-76234966D01*
X95900002Y-76234966D01*
X96126599Y-76215141D01*
X96126610Y-76215139D01*
X96346317Y-76156269D01*
X96346326Y-76156266D01*
X96455395Y-76105406D01*
X96524472Y-76094914D01*
X96588256Y-76123433D01*
X96626496Y-76181910D01*
X96631800Y-76217788D01*
X96631800Y-77091660D01*
X96612115Y-77158699D01*
X96559311Y-77204454D01*
X96490153Y-77214398D01*
X96455395Y-77204042D01*
X96346497Y-77153261D01*
X96346488Y-77153258D01*
X96126697Y-77094366D01*
X96126693Y-77094365D01*
X96126692Y-77094365D01*
X96126691Y-77094364D01*
X96126686Y-77094364D01*
X95900002Y-77074532D01*
X95899998Y-77074532D01*
X95673313Y-77094364D01*
X95673302Y-77094366D01*
X95453511Y-77153258D01*
X95453502Y-77153261D01*
X95247267Y-77249431D01*
X95247265Y-77249432D01*
X95060858Y-77379954D01*
X94899954Y-77540858D01*
X94849262Y-77613256D01*
X94769881Y-77726624D01*
X94715307Y-77770248D01*
X94668308Y-77779500D01*
X92849049Y-77779500D01*
X92782010Y-77759815D01*
X92736255Y-77707011D01*
X92726311Y-77637853D01*
X92755336Y-77574297D01*
X92761368Y-77567819D01*
X92860045Y-77469141D01*
X92860047Y-77469139D01*
X92990568Y-77282734D01*
X93086739Y-77076496D01*
X93145635Y-76856692D01*
X93165468Y-76630000D01*
X93145635Y-76403308D01*
X93086739Y-76183504D01*
X92990568Y-75977266D01*
X92860047Y-75790861D01*
X92860045Y-75790858D01*
X92699141Y-75629954D01*
X92542108Y-75520000D01*
X92512734Y-75499432D01*
X92512727Y-75499429D01*
X92510680Y-75498247D01*
X92509954Y-75497486D01*
X92508299Y-75496327D01*
X92508532Y-75495994D01*
X92462466Y-75447678D01*
X92449745Y-75407047D01*
X92445044Y-75371338D01*
X92408578Y-75283302D01*
X92384538Y-75225263D01*
X92384536Y-75225259D01*
X92365056Y-75199872D01*
X92365054Y-75199870D01*
X92331927Y-75156697D01*
X92288282Y-75099818D01*
X92288281Y-75099817D01*
X92263228Y-75080593D01*
X92251034Y-75069899D01*
X92246819Y-75065684D01*
X92213334Y-75004361D01*
X92210500Y-74978003D01*
X92210500Y-70267461D01*
X92230185Y-70200422D01*
X92255833Y-70171610D01*
X92338647Y-70103647D01*
X92466798Y-69947494D01*
X92562023Y-69769341D01*
X92620662Y-69576033D01*
X92635500Y-69425380D01*
X92635500Y-68874620D01*
X92630121Y-68820002D01*
X94595034Y-68820002D01*
X94614858Y-69046599D01*
X94614860Y-69046610D01*
X94673730Y-69266317D01*
X94673735Y-69266331D01*
X94769863Y-69472478D01*
X94820974Y-69545472D01*
X95502046Y-68864400D01*
X95514835Y-68945148D01*
X95572359Y-69058045D01*
X95661955Y-69147641D01*
X95774852Y-69205165D01*
X95855599Y-69217953D01*
X95174526Y-69899025D01*
X95247513Y-69950132D01*
X95247521Y-69950136D01*
X95453668Y-70046264D01*
X95453682Y-70046269D01*
X95673389Y-70105139D01*
X95673400Y-70105141D01*
X95899998Y-70124966D01*
X95900002Y-70124966D01*
X96126599Y-70105141D01*
X96126610Y-70105139D01*
X96346317Y-70046269D01*
X96346331Y-70046264D01*
X96552478Y-69950136D01*
X96625471Y-69899024D01*
X95944400Y-69217953D01*
X96025148Y-69205165D01*
X96138045Y-69147641D01*
X96227641Y-69058045D01*
X96285165Y-68945148D01*
X96297953Y-68864400D01*
X96979024Y-69545471D01*
X97030136Y-69472478D01*
X97126264Y-69266331D01*
X97126269Y-69266317D01*
X97185139Y-69046610D01*
X97185141Y-69046599D01*
X97204966Y-68820002D01*
X97204966Y-68819997D01*
X97185141Y-68593400D01*
X97185139Y-68593389D01*
X97126269Y-68373682D01*
X97126264Y-68373668D01*
X97030136Y-68167521D01*
X97030132Y-68167513D01*
X96979025Y-68094526D01*
X96297953Y-68775598D01*
X96285165Y-68694852D01*
X96227641Y-68581955D01*
X96138045Y-68492359D01*
X96025148Y-68434835D01*
X95944401Y-68422046D01*
X96625472Y-67740974D01*
X96552478Y-67689863D01*
X96346331Y-67593735D01*
X96346317Y-67593730D01*
X96126610Y-67534860D01*
X96126599Y-67534858D01*
X95900002Y-67515034D01*
X95899998Y-67515034D01*
X95673400Y-67534858D01*
X95673389Y-67534860D01*
X95453682Y-67593730D01*
X95453673Y-67593734D01*
X95247516Y-67689866D01*
X95247512Y-67689868D01*
X95174526Y-67740973D01*
X95174526Y-67740974D01*
X95855599Y-68422046D01*
X95774852Y-68434835D01*
X95661955Y-68492359D01*
X95572359Y-68581955D01*
X95514835Y-68694852D01*
X95502046Y-68775598D01*
X94820974Y-68094526D01*
X94820973Y-68094526D01*
X94769868Y-68167512D01*
X94769866Y-68167516D01*
X94673734Y-68373673D01*
X94673730Y-68373682D01*
X94614860Y-68593389D01*
X94614858Y-68593400D01*
X94595034Y-68819997D01*
X94595034Y-68820002D01*
X92630121Y-68820002D01*
X92620662Y-68723967D01*
X92562023Y-68530659D01*
X92562021Y-68530656D01*
X92562021Y-68530654D01*
X92466801Y-68352511D01*
X92466799Y-68352509D01*
X92466798Y-68352506D01*
X92427824Y-68305016D01*
X92338647Y-68196352D01*
X92253167Y-68126201D01*
X92213833Y-68068456D01*
X92208893Y-68046533D01*
X92195044Y-67941339D01*
X92195044Y-67941338D01*
X92134536Y-67795259D01*
X92124683Y-67782418D01*
X92038282Y-67669818D01*
X92038280Y-67669816D01*
X92038279Y-67669815D01*
X92013228Y-67650593D01*
X92001034Y-67639899D01*
X90479938Y-66118803D01*
X91420735Y-66118803D01*
X91440930Y-66298049D01*
X91440931Y-66298054D01*
X91500511Y-66468323D01*
X91571039Y-66580567D01*
X91596484Y-66621062D01*
X91724038Y-66748616D01*
X91876778Y-66844589D01*
X91948533Y-66869697D01*
X92047045Y-66904168D01*
X92047050Y-66904169D01*
X92226296Y-66924365D01*
X92226300Y-66924365D01*
X92226304Y-66924365D01*
X92405549Y-66904169D01*
X92405552Y-66904168D01*
X92405555Y-66904168D01*
X92575822Y-66844589D01*
X92728562Y-66748616D01*
X92856116Y-66621062D01*
X92952089Y-66468322D01*
X93011668Y-66298055D01*
X93021461Y-66211129D01*
X93048526Y-66146718D01*
X93056990Y-66137343D01*
X93171043Y-66023290D01*
X93183223Y-66012609D01*
X93208282Y-65993382D01*
X93304536Y-65867941D01*
X93365044Y-65721862D01*
X93377204Y-65629500D01*
X93385682Y-65565100D01*
X93384730Y-65557872D01*
X93381561Y-65533797D01*
X93380500Y-65517612D01*
X93380500Y-65450001D01*
X94694532Y-65450001D01*
X94714364Y-65676686D01*
X94714366Y-65676697D01*
X94773258Y-65896488D01*
X94773261Y-65896497D01*
X94869431Y-66102732D01*
X94869432Y-66102734D01*
X94999954Y-66289141D01*
X95160858Y-66450045D01*
X95160861Y-66450047D01*
X95347266Y-66580568D01*
X95553504Y-66676739D01*
X95773308Y-66735635D01*
X95935230Y-66749801D01*
X95999998Y-66755468D01*
X96000000Y-66755468D01*
X96000002Y-66755468D01*
X96056673Y-66750509D01*
X96226692Y-66735635D01*
X96446496Y-66676739D01*
X96652734Y-66580568D01*
X96839139Y-66450047D01*
X97000047Y-66289139D01*
X97130568Y-66102734D01*
X97226739Y-65896496D01*
X97285635Y-65676692D01*
X97305468Y-65450000D01*
X97285635Y-65223308D01*
X97226739Y-65003504D01*
X97130568Y-64797266D01*
X97000047Y-64610861D01*
X97000045Y-64610858D01*
X96839141Y-64449954D01*
X96652734Y-64319432D01*
X96652732Y-64319431D01*
X96446497Y-64223261D01*
X96446488Y-64223258D01*
X96226697Y-64164366D01*
X96226693Y-64164365D01*
X96226692Y-64164365D01*
X96226691Y-64164364D01*
X96226686Y-64164364D01*
X96000002Y-64144532D01*
X95999998Y-64144532D01*
X95773313Y-64164364D01*
X95773302Y-64164366D01*
X95553511Y-64223258D01*
X95553502Y-64223261D01*
X95347267Y-64319431D01*
X95347265Y-64319432D01*
X95160858Y-64449954D01*
X94999954Y-64610858D01*
X94869432Y-64797265D01*
X94869431Y-64797267D01*
X94773261Y-65003502D01*
X94773258Y-65003511D01*
X94714366Y-65223302D01*
X94714364Y-65223313D01*
X94694532Y-65449998D01*
X94694532Y-65450001D01*
X93380500Y-65450001D01*
X93380500Y-60557276D01*
X93400185Y-60490237D01*
X93433373Y-60455704D01*
X93606233Y-60334667D01*
X93764667Y-60176233D01*
X93893181Y-59992696D01*
X93987872Y-59789630D01*
X94045863Y-59573206D01*
X94065391Y-59350000D01*
X94063093Y-59323739D01*
X94057227Y-59256686D01*
X94045863Y-59126794D01*
X93987872Y-58910370D01*
X93893181Y-58707305D01*
X93806494Y-58583502D01*
X93764668Y-58523768D01*
X93703416Y-58462516D01*
X93606233Y-58365333D01*
X93606229Y-58365330D01*
X93606228Y-58365329D01*
X93422700Y-58236821D01*
X93422696Y-58236819D01*
X93370445Y-58212454D01*
X93219630Y-58142128D01*
X93219627Y-58142127D01*
X93219625Y-58142126D01*
X93003208Y-58084137D01*
X93003200Y-58084136D01*
X92780002Y-58064609D01*
X92779998Y-58064609D01*
X92556799Y-58084136D01*
X92556791Y-58084137D01*
X92340374Y-58142126D01*
X92340368Y-58142129D01*
X92137306Y-58236818D01*
X92137304Y-58236819D01*
X91953764Y-58365334D01*
X91795334Y-58523764D01*
X91666819Y-58707304D01*
X91666818Y-58707306D01*
X91572129Y-58910368D01*
X91572126Y-58910374D01*
X91514137Y-59126791D01*
X91514136Y-59126799D01*
X91494609Y-59349998D01*
X91494609Y-59350001D01*
X91514136Y-59573200D01*
X91514137Y-59573208D01*
X91572126Y-59789625D01*
X91572127Y-59789627D01*
X91572128Y-59789630D01*
X91666819Y-59992696D01*
X91666821Y-59992700D01*
X91784364Y-60160568D01*
X91795333Y-60176233D01*
X91953767Y-60334667D01*
X92126624Y-60455703D01*
X92170248Y-60510277D01*
X92179500Y-60557276D01*
X92179500Y-65207694D01*
X92159815Y-65274733D01*
X92107011Y-65320488D01*
X92069385Y-65330914D01*
X92047050Y-65333430D01*
X91876778Y-65393010D01*
X91724037Y-65488984D01*
X91596484Y-65616537D01*
X91500511Y-65769276D01*
X91440931Y-65939545D01*
X91440930Y-65939550D01*
X91420735Y-66118796D01*
X91420735Y-66118803D01*
X90479938Y-66118803D01*
X90207364Y-65846229D01*
X90173879Y-65784906D01*
X90178863Y-65715214D01*
X90220735Y-65659281D01*
X90284237Y-65635020D01*
X90503206Y-65615863D01*
X90719630Y-65557872D01*
X90922696Y-65463181D01*
X91106233Y-65334667D01*
X91264667Y-65176233D01*
X91393181Y-64992696D01*
X91487872Y-64789630D01*
X91545863Y-64573206D01*
X91565391Y-64350000D01*
X91563542Y-64328871D01*
X91555767Y-64239997D01*
X91545863Y-64126794D01*
X91487872Y-63910370D01*
X91393181Y-63707305D01*
X91264667Y-63523767D01*
X91106233Y-63365333D01*
X91106229Y-63365330D01*
X91106228Y-63365329D01*
X90922700Y-63236821D01*
X90922696Y-63236819D01*
X90922694Y-63236818D01*
X90719630Y-63142128D01*
X90719627Y-63142127D01*
X90719625Y-63142126D01*
X90503208Y-63084137D01*
X90503200Y-63084136D01*
X90280002Y-63064609D01*
X90279998Y-63064609D01*
X90056799Y-63084136D01*
X90056791Y-63084137D01*
X89840374Y-63142126D01*
X89840368Y-63142129D01*
X89637306Y-63236818D01*
X89637304Y-63236819D01*
X89453764Y-63365334D01*
X89295334Y-63523764D01*
X89166819Y-63707304D01*
X89166818Y-63707306D01*
X89072129Y-63910368D01*
X89072126Y-63910374D01*
X89014137Y-64126791D01*
X89014136Y-64126798D01*
X88994979Y-64345762D01*
X88969526Y-64410830D01*
X88912935Y-64451809D01*
X88843173Y-64455687D01*
X88783770Y-64422635D01*
X83752619Y-59391484D01*
X83719134Y-59330161D01*
X83716300Y-59303803D01*
X83716300Y-58026196D01*
X83735985Y-57959157D01*
X83752615Y-57938519D01*
X84411044Y-57280089D01*
X84423222Y-57269410D01*
X84448282Y-57250182D01*
X84544536Y-57124741D01*
X84605044Y-56978662D01*
X84609744Y-56942954D01*
X84638009Y-56879059D01*
X84668331Y-56853719D01*
X84668299Y-56853674D01*
X84668836Y-56853297D01*
X84670692Y-56851747D01*
X84672726Y-56850571D01*
X84672734Y-56850568D01*
X84859139Y-56720047D01*
X85020047Y-56559139D01*
X85150568Y-56372734D01*
X85246739Y-56166496D01*
X85305635Y-55946692D01*
X85325468Y-55720000D01*
X85324543Y-55709432D01*
X85318314Y-55638235D01*
X85305635Y-55493308D01*
X85254069Y-55300860D01*
X85246741Y-55273511D01*
X85246738Y-55273502D01*
X85240843Y-55260861D01*
X85225008Y-55226903D01*
X85214517Y-55157828D01*
X85243036Y-55094044D01*
X85301513Y-55055804D01*
X85337391Y-55050500D01*
X86880951Y-55050500D01*
X86947990Y-55070185D01*
X86993745Y-55122989D01*
X87003689Y-55192147D01*
X86974664Y-55255703D01*
X86970779Y-55259875D01*
X86969956Y-55260855D01*
X86839432Y-55447265D01*
X86839431Y-55447267D01*
X86743261Y-55653502D01*
X86743258Y-55653511D01*
X86684366Y-55873302D01*
X86684364Y-55873313D01*
X86664532Y-56099998D01*
X86664532Y-56100001D01*
X86684364Y-56326686D01*
X86684366Y-56326697D01*
X86743258Y-56546488D01*
X86743261Y-56546497D01*
X86839431Y-56752732D01*
X86839432Y-56752734D01*
X86969954Y-56939141D01*
X87130858Y-57100045D01*
X87130861Y-57100047D01*
X87316624Y-57230118D01*
X87360248Y-57284693D01*
X87369500Y-57331692D01*
X87369500Y-57774551D01*
X87349815Y-57841590D01*
X87343876Y-57850037D01*
X87289166Y-57921337D01*
X87255464Y-57965258D01*
X87255463Y-57965259D01*
X87243990Y-57992957D01*
X87200147Y-58047359D01*
X87133853Y-58069421D01*
X87129432Y-58069500D01*
X86952130Y-58069500D01*
X86952123Y-58069501D01*
X86892516Y-58075908D01*
X86757671Y-58126202D01*
X86757664Y-58126206D01*
X86642455Y-58212452D01*
X86642452Y-58212455D01*
X86556206Y-58327664D01*
X86556202Y-58327671D01*
X86505908Y-58462517D01*
X86499501Y-58522116D01*
X86499501Y-58522123D01*
X86499500Y-58522135D01*
X86499500Y-60177870D01*
X86499501Y-60177876D01*
X86505908Y-60237483D01*
X86556202Y-60372328D01*
X86556206Y-60372335D01*
X86642452Y-60487544D01*
X86642455Y-60487547D01*
X86757664Y-60573793D01*
X86757671Y-60573797D01*
X86892517Y-60624091D01*
X86892516Y-60624091D01*
X86899444Y-60624835D01*
X86952127Y-60630500D01*
X88607872Y-60630499D01*
X88667483Y-60624091D01*
X88802331Y-60573796D01*
X88917546Y-60487546D01*
X89003796Y-60372331D01*
X89054091Y-60237483D01*
X89060500Y-60177873D01*
X89060499Y-58522128D01*
X89054091Y-58462517D01*
X89022294Y-58377266D01*
X89003797Y-58327671D01*
X89003793Y-58327664D01*
X88917547Y-58212455D01*
X88917544Y-58212452D01*
X88802335Y-58126206D01*
X88802328Y-58126202D01*
X88667484Y-58075909D01*
X88665985Y-58075555D01*
X88664941Y-58074960D01*
X88660215Y-58073198D01*
X88660500Y-58072432D01*
X88605269Y-58040981D01*
X88572883Y-57979070D01*
X88570500Y-57954878D01*
X88570500Y-57331692D01*
X88590185Y-57264653D01*
X88623374Y-57230119D01*
X88809139Y-57100047D01*
X88970047Y-56939139D01*
X89100568Y-56752734D01*
X89196739Y-56546496D01*
X89255635Y-56326692D01*
X89275468Y-56100000D01*
X89255635Y-55873308D01*
X89210311Y-55704157D01*
X89196741Y-55653511D01*
X89196738Y-55653502D01*
X89147496Y-55547903D01*
X89100568Y-55447266D01*
X88970047Y-55260861D01*
X88970043Y-55260855D01*
X88966566Y-55256711D01*
X88967810Y-55255666D01*
X88937883Y-55200858D01*
X88942867Y-55131166D01*
X88984739Y-55075233D01*
X89050203Y-55050816D01*
X89059049Y-55050500D01*
X91880951Y-55050500D01*
X91947990Y-55070185D01*
X91993745Y-55122989D01*
X92003689Y-55192147D01*
X91974664Y-55255703D01*
X91970779Y-55259875D01*
X91969956Y-55260855D01*
X91839432Y-55447265D01*
X91839431Y-55447267D01*
X91743261Y-55653502D01*
X91743258Y-55653511D01*
X91684366Y-55873302D01*
X91684364Y-55873313D01*
X91664532Y-56099998D01*
X91664532Y-56100001D01*
X91684364Y-56326686D01*
X91684366Y-56326697D01*
X91743258Y-56546488D01*
X91743261Y-56546497D01*
X91839431Y-56752732D01*
X91839432Y-56752734D01*
X91969954Y-56939141D01*
X92130858Y-57100045D01*
X92130861Y-57100047D01*
X92317266Y-57230568D01*
X92523504Y-57326739D01*
X92523509Y-57326740D01*
X92523511Y-57326741D01*
X92564303Y-57337671D01*
X92743308Y-57385635D01*
X92905230Y-57399801D01*
X92969998Y-57405468D01*
X92970000Y-57405468D01*
X92970002Y-57405468D01*
X93026673Y-57400509D01*
X93196692Y-57385635D01*
X93292932Y-57359847D01*
X93362781Y-57361510D01*
X93412706Y-57391941D01*
X95283181Y-59262416D01*
X95316666Y-59323739D01*
X95319500Y-59350097D01*
X95319500Y-60928306D01*
X95299815Y-60995345D01*
X95266623Y-61029881D01*
X95080859Y-61159953D01*
X94919954Y-61320858D01*
X94789432Y-61507265D01*
X94789431Y-61507267D01*
X94693261Y-61713502D01*
X94693258Y-61713511D01*
X94634366Y-61933302D01*
X94634364Y-61933313D01*
X94614532Y-62159998D01*
X94614532Y-62160001D01*
X94634364Y-62386686D01*
X94634366Y-62386697D01*
X94693258Y-62606488D01*
X94693261Y-62606497D01*
X94789431Y-62812732D01*
X94789432Y-62812734D01*
X94919954Y-62999141D01*
X95080858Y-63160045D01*
X95080861Y-63160047D01*
X95267266Y-63290568D01*
X95473504Y-63386739D01*
X95693308Y-63445635D01*
X95855230Y-63459801D01*
X95919998Y-63465468D01*
X95920000Y-63465468D01*
X95920002Y-63465468D01*
X95976673Y-63460509D01*
X96146692Y-63445635D01*
X96366496Y-63386739D01*
X96572734Y-63290568D01*
X96759139Y-63160047D01*
X96920047Y-62999139D01*
X97050568Y-62812734D01*
X97146739Y-62606496D01*
X97205635Y-62386692D01*
X97225468Y-62160000D01*
X97223938Y-62142517D01*
X97213491Y-62023099D01*
X97205635Y-61933308D01*
X97156384Y-61749500D01*
X97146741Y-61713511D01*
X97146738Y-61713502D01*
X97082428Y-61575590D01*
X97050568Y-61507266D01*
X96920047Y-61320861D01*
X96920045Y-61320858D01*
X96759140Y-61159953D01*
X96573377Y-61029881D01*
X96529752Y-60975304D01*
X96520500Y-60928306D01*
X96520500Y-59097487D01*
X96521561Y-59081301D01*
X96523004Y-59070342D01*
X96525682Y-59050000D01*
X96522742Y-59027671D01*
X96507574Y-58912454D01*
X96505044Y-58893238D01*
X96444536Y-58747159D01*
X96444535Y-58747158D01*
X96444535Y-58747157D01*
X96434769Y-58734430D01*
X96434768Y-58734429D01*
X96348281Y-58621717D01*
X96323228Y-58602493D01*
X96311034Y-58591799D01*
X95244637Y-57525402D01*
X95211152Y-57464079D01*
X95216136Y-57394387D01*
X95258008Y-57338454D01*
X95323472Y-57314037D01*
X95384721Y-57325338D01*
X95473504Y-57366739D01*
X95693308Y-57425635D01*
X95855230Y-57439801D01*
X95919998Y-57445468D01*
X95920000Y-57445468D01*
X95920002Y-57445468D01*
X95976673Y-57440509D01*
X96146692Y-57425635D01*
X96366496Y-57366739D01*
X96572734Y-57270568D01*
X96759139Y-57140047D01*
X96920047Y-56979139D01*
X97050568Y-56792734D01*
X97146739Y-56586496D01*
X97205635Y-56366692D01*
X97225468Y-56140000D01*
X97221968Y-56100000D01*
X97213295Y-56000861D01*
X97205635Y-55913308D01*
X97150023Y-55705761D01*
X97146741Y-55693511D01*
X97146738Y-55693502D01*
X97050568Y-55487266D01*
X96920047Y-55300861D01*
X96920046Y-55300860D01*
X96920045Y-55300858D01*
X96759141Y-55139954D01*
X96572734Y-55009432D01*
X96572732Y-55009431D01*
X96366497Y-54913261D01*
X96366488Y-54913258D01*
X96146697Y-54854366D01*
X96146693Y-54854365D01*
X96146692Y-54854365D01*
X96146691Y-54854364D01*
X96146686Y-54854364D01*
X95920002Y-54834532D01*
X95919998Y-54834532D01*
X95693313Y-54854364D01*
X95693302Y-54854366D01*
X95597067Y-54880152D01*
X95527217Y-54878489D01*
X95477293Y-54848058D01*
X94688199Y-54058964D01*
X94677504Y-54046769D01*
X94676764Y-54045805D01*
X94658282Y-54021718D01*
X94628236Y-53998663D01*
X94587036Y-53942239D01*
X94582881Y-53872493D01*
X94617093Y-53811572D01*
X94633869Y-53797839D01*
X94704460Y-53749712D01*
X94887997Y-53579414D01*
X95044102Y-53383665D01*
X95169289Y-53166835D01*
X95260760Y-52933769D01*
X95316474Y-52689673D01*
X95316480Y-52689597D01*
X95335184Y-52440004D01*
X96985317Y-52440004D01*
X97004021Y-52689597D01*
X97004021Y-52689599D01*
X97059714Y-52933607D01*
X97059720Y-52933626D01*
X97151163Y-53166618D01*
X97276311Y-53383381D01*
X97276318Y-53383392D01*
X97314799Y-53431645D01*
X97314800Y-53431645D01*
X98057452Y-52688993D01*
X98067188Y-52718956D01*
X98155186Y-52857619D01*
X98274903Y-52970040D01*
X98409510Y-53044041D01*
X97668403Y-53785148D01*
X97822658Y-53890317D01*
X97822666Y-53890322D01*
X98048167Y-53998916D01*
X98048165Y-53998916D01*
X98287346Y-54072694D01*
X98287352Y-54072696D01*
X98534843Y-54109999D01*
X98534852Y-54110000D01*
X98785148Y-54110000D01*
X98785156Y-54109999D01*
X99032647Y-54072696D01*
X99032653Y-54072694D01*
X99271833Y-53998916D01*
X99497334Y-53890322D01*
X99497344Y-53890315D01*
X99651595Y-53785148D01*
X98907534Y-53041086D01*
X98975629Y-53014126D01*
X99108492Y-52917595D01*
X99213175Y-52791055D01*
X99261631Y-52688079D01*
X100005197Y-53431645D01*
X100005198Y-53431644D01*
X100043690Y-53383379D01*
X100168836Y-53166618D01*
X100260279Y-52933626D01*
X100260285Y-52933607D01*
X100315978Y-52689599D01*
X100315978Y-52689597D01*
X100334683Y-52440004D01*
X100334683Y-52439995D01*
X100315978Y-52190402D01*
X100315978Y-52190400D01*
X100260285Y-51946392D01*
X100260279Y-51946373D01*
X100168836Y-51713381D01*
X100043688Y-51496618D01*
X100043681Y-51496607D01*
X100005199Y-51448354D01*
X100005198Y-51448353D01*
X99262546Y-52191004D01*
X99252812Y-52161044D01*
X99164814Y-52022381D01*
X99045097Y-51909960D01*
X98910488Y-51835957D01*
X99651595Y-51094850D01*
X99497335Y-50989678D01*
X99497334Y-50989677D01*
X99271832Y-50881083D01*
X99271834Y-50881083D01*
X99032653Y-50807305D01*
X99032647Y-50807303D01*
X98785156Y-50770000D01*
X98534843Y-50770000D01*
X98287352Y-50807303D01*
X98287346Y-50807305D01*
X98048166Y-50881083D01*
X97822664Y-50989679D01*
X97822651Y-50989686D01*
X97668403Y-51094849D01*
X98412466Y-51838912D01*
X98344371Y-51865874D01*
X98211508Y-51962405D01*
X98106825Y-52088945D01*
X98058367Y-52191921D01*
X97314800Y-51448354D01*
X97276311Y-51496617D01*
X97151163Y-51713381D01*
X97059720Y-51946373D01*
X97059714Y-51946392D01*
X97004021Y-52190400D01*
X97004021Y-52190402D01*
X96985317Y-52439995D01*
X96985317Y-52440004D01*
X95335184Y-52440004D01*
X95335184Y-52439995D01*
X95316475Y-52190336D01*
X95316474Y-52190331D01*
X95316474Y-52190327D01*
X95260760Y-51946231D01*
X95169289Y-51713165D01*
X95044102Y-51496335D01*
X94887997Y-51300586D01*
X94887996Y-51300585D01*
X94887993Y-51300581D01*
X94704460Y-51130288D01*
X94652480Y-51094849D01*
X94497592Y-50989248D01*
X94497588Y-50989246D01*
X94497585Y-50989244D01*
X94497584Y-50989243D01*
X94272015Y-50880616D01*
X94272017Y-50880616D01*
X94032765Y-50806816D01*
X94032759Y-50806814D01*
X93785194Y-50769500D01*
X93785187Y-50769500D01*
X93534813Y-50769500D01*
X93534805Y-50769500D01*
X93287240Y-50806814D01*
X93287234Y-50806816D01*
X93047983Y-50880616D01*
X92822415Y-50989243D01*
X92822414Y-50989244D01*
X92615539Y-51130288D01*
X92432006Y-51300581D01*
X92275898Y-51496335D01*
X92150711Y-51713164D01*
X92059242Y-51946225D01*
X92059236Y-51946244D01*
X92003525Y-52190331D01*
X92003524Y-52190336D01*
X91984816Y-52439995D01*
X91984816Y-52440004D01*
X92003524Y-52689663D01*
X92003525Y-52689668D01*
X92059239Y-52933767D01*
X92102227Y-53043302D01*
X92108395Y-53112899D01*
X92075956Y-53174782D01*
X92074480Y-53176284D01*
X91893282Y-53357482D01*
X91831962Y-53390966D01*
X91805603Y-53393800D01*
X90253025Y-53393800D01*
X90185986Y-53374115D01*
X90140231Y-53321311D01*
X90130287Y-53252153D01*
X90145638Y-53207800D01*
X90151968Y-53196835D01*
X90169289Y-53166835D01*
X90260760Y-52933769D01*
X90316474Y-52689673D01*
X90316480Y-52689597D01*
X90335184Y-52440004D01*
X90335184Y-52439995D01*
X90316475Y-52190336D01*
X90316474Y-52190331D01*
X90316474Y-52190327D01*
X90260760Y-51946231D01*
X90169289Y-51713165D01*
X90044102Y-51496335D01*
X89887997Y-51300586D01*
X89887996Y-51300585D01*
X89887993Y-51300581D01*
X89704460Y-51130288D01*
X89652480Y-51094849D01*
X89497592Y-50989248D01*
X89497588Y-50989246D01*
X89497585Y-50989244D01*
X89497584Y-50989243D01*
X89272015Y-50880616D01*
X89272017Y-50880616D01*
X89032765Y-50806816D01*
X89032759Y-50806814D01*
X88785194Y-50769500D01*
X88785187Y-50769500D01*
X88534813Y-50769500D01*
X88534805Y-50769500D01*
X88287240Y-50806814D01*
X88287234Y-50806816D01*
X88047983Y-50880616D01*
X87822415Y-50989243D01*
X87822414Y-50989244D01*
X87615539Y-51130288D01*
X87432006Y-51300581D01*
X87275898Y-51496335D01*
X87150711Y-51713164D01*
X87059242Y-51946225D01*
X87059236Y-51946244D01*
X87003525Y-52190331D01*
X87003524Y-52190336D01*
X86984816Y-52439995D01*
X86984816Y-52440004D01*
X87003524Y-52689663D01*
X87003525Y-52689668D01*
X87059236Y-52933755D01*
X87059242Y-52933774D01*
X87150711Y-53166835D01*
X87174362Y-53207800D01*
X87190835Y-53275700D01*
X87167982Y-53341727D01*
X87113061Y-53384918D01*
X87066975Y-53393800D01*
X81343187Y-53393800D01*
X81327002Y-53392739D01*
X81295700Y-53388618D01*
X81256339Y-53393800D01*
X81138939Y-53409255D01*
X81138937Y-53409256D01*
X80992857Y-53469764D01*
X80867418Y-53566016D01*
X80848192Y-53591071D01*
X80837501Y-53603261D01*
X79232565Y-55208198D01*
X79220375Y-55218889D01*
X79195316Y-55238118D01*
X79147174Y-55300860D01*
X79099064Y-55363558D01*
X79099061Y-55363563D01*
X79038557Y-55509634D01*
X79038555Y-55509639D01*
X79017918Y-55666398D01*
X79017918Y-55666399D01*
X79022039Y-55697701D01*
X79023100Y-55713887D01*
X79023100Y-82544402D01*
X79003415Y-82611441D01*
X78986781Y-82632083D01*
X76228965Y-85389898D01*
X76216774Y-85400590D01*
X76191718Y-85419817D01*
X76167549Y-85451313D01*
X76167550Y-85451314D01*
X76095464Y-85545258D01*
X76095461Y-85545263D01*
X76034956Y-85691336D01*
X76031020Y-85721230D01*
X76002751Y-85785126D01*
X75960491Y-85817421D01*
X75942171Y-85825964D01*
X75942169Y-85825965D01*
X75748600Y-85961503D01*
X75626673Y-86083430D01*
X75565350Y-86116914D01*
X75495658Y-86111930D01*
X75439725Y-86070058D01*
X75422810Y-86039081D01*
X75373797Y-85907671D01*
X75373793Y-85907664D01*
X75287547Y-85792455D01*
X75287544Y-85792452D01*
X75172335Y-85706206D01*
X75172328Y-85706202D01*
X75037482Y-85655908D01*
X75037483Y-85655908D01*
X74977883Y-85649501D01*
X74977881Y-85649500D01*
X74977873Y-85649500D01*
X74977864Y-85649500D01*
X73182129Y-85649500D01*
X73182123Y-85649501D01*
X73122516Y-85655908D01*
X72987671Y-85706202D01*
X72987664Y-85706206D01*
X72872455Y-85792452D01*
X72872452Y-85792455D01*
X72786206Y-85907664D01*
X72786202Y-85907671D01*
X72735908Y-86042517D01*
X72729501Y-86102116D01*
X72729500Y-86102135D01*
X72729500Y-87897870D01*
X50490906Y-87897870D01*
X50492055Y-83357870D01*
X64957100Y-83357870D01*
X64957101Y-83357876D01*
X64963508Y-83417483D01*
X65013802Y-83552328D01*
X65013806Y-83552335D01*
X65100052Y-83667544D01*
X65100055Y-83667547D01*
X65215264Y-83753793D01*
X65215271Y-83753797D01*
X65350117Y-83804091D01*
X65350116Y-83804091D01*
X65357044Y-83804835D01*
X65409727Y-83810500D01*
X67105472Y-83810499D01*
X67165083Y-83804091D01*
X67299931Y-83753796D01*
X67415146Y-83667546D01*
X67501396Y-83552331D01*
X67551691Y-83417483D01*
X67558100Y-83357873D01*
X67558099Y-83357845D01*
X67558278Y-83354547D01*
X67559783Y-83354627D01*
X67577712Y-83293326D01*
X67630468Y-83247514D01*
X67674065Y-83239981D01*
X68359646Y-82554400D01*
X68372435Y-82635148D01*
X68429959Y-82748045D01*
X68519555Y-82837641D01*
X68632452Y-82895165D01*
X68713199Y-82907953D01*
X68032126Y-83589025D01*
X68105113Y-83640132D01*
X68105121Y-83640136D01*
X68311268Y-83736264D01*
X68311282Y-83736269D01*
X68530989Y-83795139D01*
X68531000Y-83795141D01*
X68757598Y-83814966D01*
X68757602Y-83814966D01*
X68984199Y-83795141D01*
X68984210Y-83795139D01*
X69203917Y-83736269D01*
X69203931Y-83736264D01*
X69410078Y-83640136D01*
X69483071Y-83589024D01*
X68802000Y-82907953D01*
X68882748Y-82895165D01*
X68995645Y-82837641D01*
X69085241Y-82748045D01*
X69142765Y-82635148D01*
X69155553Y-82554400D01*
X69836624Y-83235471D01*
X69887736Y-83162478D01*
X69983864Y-82956331D01*
X69983869Y-82956317D01*
X70042739Y-82736610D01*
X70042741Y-82736599D01*
X70062566Y-82510002D01*
X70062566Y-82509997D01*
X70042741Y-82283400D01*
X70042739Y-82283389D01*
X69983869Y-82063682D01*
X69983864Y-82063668D01*
X69887736Y-81857521D01*
X69887732Y-81857513D01*
X69836625Y-81784526D01*
X69155553Y-82465598D01*
X69142765Y-82384852D01*
X69085241Y-82271955D01*
X68995645Y-82182359D01*
X68882748Y-82124835D01*
X68802001Y-82112046D01*
X69483072Y-81430974D01*
X69410078Y-81379863D01*
X69203931Y-81283735D01*
X69203917Y-81283730D01*
X68984210Y-81224860D01*
X68984199Y-81224858D01*
X68757602Y-81205034D01*
X68757598Y-81205034D01*
X68531000Y-81224858D01*
X68530989Y-81224860D01*
X68311282Y-81283730D01*
X68311273Y-81283734D01*
X68105116Y-81379866D01*
X68105112Y-81379868D01*
X68032126Y-81430973D01*
X68032126Y-81430974D01*
X68713199Y-82112046D01*
X68632452Y-82124835D01*
X68519555Y-82182359D01*
X68429959Y-82271955D01*
X68372435Y-82384852D01*
X68359646Y-82465598D01*
X67673399Y-81779351D01*
X67624405Y-81769505D01*
X67574222Y-81720889D01*
X67559581Y-81665366D01*
X67558500Y-81665423D01*
X67558454Y-81665429D01*
X67558453Y-81665426D01*
X67558276Y-81665436D01*
X67558099Y-81662135D01*
X67558099Y-81662128D01*
X67551691Y-81602517D01*
X67517184Y-81510000D01*
X67501397Y-81467671D01*
X67501393Y-81467664D01*
X67415147Y-81352455D01*
X67415144Y-81352452D01*
X67299935Y-81266206D01*
X67299928Y-81266202D01*
X67165082Y-81215908D01*
X67165083Y-81215908D01*
X67105483Y-81209501D01*
X67105481Y-81209500D01*
X67105473Y-81209500D01*
X67105464Y-81209500D01*
X65409729Y-81209500D01*
X65409723Y-81209501D01*
X65350116Y-81215908D01*
X65215271Y-81266202D01*
X65215264Y-81266206D01*
X65100055Y-81352452D01*
X65100052Y-81352455D01*
X65013806Y-81467664D01*
X65013802Y-81467671D01*
X64963508Y-81602517D01*
X64957101Y-81662116D01*
X64957101Y-81662123D01*
X64957100Y-81662135D01*
X64957100Y-83357870D01*
X50492055Y-83357870D01*
X50492249Y-82590762D01*
X50511951Y-82523728D01*
X50564766Y-82477987D01*
X50633927Y-82468061D01*
X50697475Y-82497102D01*
X50728632Y-82538391D01*
X50739864Y-82562480D01*
X50790974Y-82635472D01*
X51472046Y-81954400D01*
X51484835Y-82035148D01*
X51542359Y-82148045D01*
X51631955Y-82237641D01*
X51744852Y-82295165D01*
X51825599Y-82307953D01*
X51144526Y-82989025D01*
X51217513Y-83040132D01*
X51217521Y-83040136D01*
X51423668Y-83136264D01*
X51423682Y-83136269D01*
X51643389Y-83195139D01*
X51643400Y-83195141D01*
X51869998Y-83214966D01*
X51870002Y-83214966D01*
X52096599Y-83195141D01*
X52096610Y-83195139D01*
X52316317Y-83136269D01*
X52316331Y-83136264D01*
X52522478Y-83040136D01*
X52595471Y-82989024D01*
X51914400Y-82307953D01*
X51995148Y-82295165D01*
X52108045Y-82237641D01*
X52197641Y-82148045D01*
X52255165Y-82035148D01*
X52267953Y-81954400D01*
X52949024Y-82635471D01*
X53000136Y-82562478D01*
X53096264Y-82356331D01*
X53096269Y-82356317D01*
X53155139Y-82136610D01*
X53155141Y-82136599D01*
X53174966Y-81910002D01*
X53174966Y-81910001D01*
X60724532Y-81910001D01*
X60744364Y-82136686D01*
X60744366Y-82136697D01*
X60803258Y-82356488D01*
X60803261Y-82356497D01*
X60899431Y-82562732D01*
X60899432Y-82562734D01*
X61029954Y-82749141D01*
X61190858Y-82910045D01*
X61190861Y-82910047D01*
X61377266Y-83040568D01*
X61583504Y-83136739D01*
X61803308Y-83195635D01*
X61965230Y-83209801D01*
X62029998Y-83215468D01*
X62030000Y-83215468D01*
X62030002Y-83215468D01*
X62086673Y-83210509D01*
X62256692Y-83195635D01*
X62476496Y-83136739D01*
X62682734Y-83040568D01*
X62869139Y-82910047D01*
X63030047Y-82749139D01*
X63160568Y-82562734D01*
X63256739Y-82356496D01*
X63315635Y-82136692D01*
X63335468Y-81910000D01*
X63315635Y-81683308D01*
X63256739Y-81463504D01*
X63160568Y-81257266D01*
X63030047Y-81070861D01*
X63030045Y-81070858D01*
X62869141Y-80909954D01*
X62682734Y-80779432D01*
X62682732Y-80779431D01*
X62476497Y-80683261D01*
X62476488Y-80683258D01*
X62256697Y-80624366D01*
X62256693Y-80624365D01*
X62256692Y-80624365D01*
X62256691Y-80624364D01*
X62256686Y-80624364D01*
X62030002Y-80604532D01*
X62029998Y-80604532D01*
X61803313Y-80624364D01*
X61803302Y-80624366D01*
X61583511Y-80683258D01*
X61583502Y-80683261D01*
X61377267Y-80779431D01*
X61377265Y-80779432D01*
X61190858Y-80909954D01*
X61029954Y-81070858D01*
X60899432Y-81257265D01*
X60899431Y-81257267D01*
X60803261Y-81463502D01*
X60803258Y-81463511D01*
X60744366Y-81683302D01*
X60744364Y-81683313D01*
X60724532Y-81909998D01*
X60724532Y-81910001D01*
X53174966Y-81910001D01*
X53174966Y-81909997D01*
X53155141Y-81683400D01*
X53155139Y-81683389D01*
X53096269Y-81463682D01*
X53096264Y-81463668D01*
X53000136Y-81257521D01*
X53000132Y-81257513D01*
X52949025Y-81184526D01*
X52267953Y-81865598D01*
X52255165Y-81784852D01*
X52197641Y-81671955D01*
X52108045Y-81582359D01*
X51995148Y-81524835D01*
X51914401Y-81512046D01*
X52595472Y-80830974D01*
X52522478Y-80779863D01*
X52316331Y-80683735D01*
X52316317Y-80683730D01*
X52096610Y-80624860D01*
X52096599Y-80624858D01*
X51870002Y-80605034D01*
X51869998Y-80605034D01*
X51643400Y-80624858D01*
X51643389Y-80624860D01*
X51423682Y-80683730D01*
X51423673Y-80683734D01*
X51217516Y-80779866D01*
X51217512Y-80779868D01*
X51144526Y-80830973D01*
X51144526Y-80830974D01*
X51825599Y-81512046D01*
X51744852Y-81524835D01*
X51631955Y-81582359D01*
X51542359Y-81671955D01*
X51484835Y-81784852D01*
X51472046Y-81865598D01*
X50790974Y-81184526D01*
X50790973Y-81184526D01*
X50739868Y-81257512D01*
X50739862Y-81257523D01*
X50728973Y-81280874D01*
X50682799Y-81333312D01*
X50615605Y-81352462D01*
X50548725Y-81332244D01*
X50503392Y-81279077D01*
X50492593Y-81228439D01*
X50493011Y-79576869D01*
X50512713Y-79509837D01*
X50565528Y-79464096D01*
X50634689Y-79454170D01*
X50698237Y-79483211D01*
X50718586Y-79505779D01*
X50721940Y-79510569D01*
X50759787Y-79564621D01*
X50769956Y-79579143D01*
X50930858Y-79740045D01*
X50930861Y-79740047D01*
X51117266Y-79870568D01*
X51323504Y-79966739D01*
X51543308Y-80025635D01*
X51705230Y-80039801D01*
X51769998Y-80045468D01*
X51770000Y-80045468D01*
X51770002Y-80045468D01*
X51826673Y-80040509D01*
X51996692Y-80025635D01*
X52216496Y-79966739D01*
X52422734Y-79870568D01*
X52609139Y-79740047D01*
X52770047Y-79579139D01*
X52900568Y-79392734D01*
X52996739Y-79186496D01*
X53055635Y-78966692D01*
X53075468Y-78740001D01*
X60624532Y-78740001D01*
X60644364Y-78966686D01*
X60644366Y-78966697D01*
X60703258Y-79186488D01*
X60703261Y-79186497D01*
X60799431Y-79392732D01*
X60799432Y-79392734D01*
X60929954Y-79579141D01*
X61090858Y-79740045D01*
X61090861Y-79740047D01*
X61277266Y-79870568D01*
X61483504Y-79966739D01*
X61703308Y-80025635D01*
X61865230Y-80039801D01*
X61929998Y-80045468D01*
X61930000Y-80045468D01*
X61930002Y-80045468D01*
X61986673Y-80040509D01*
X62156692Y-80025635D01*
X62376496Y-79966739D01*
X62582734Y-79870568D01*
X62769139Y-79740047D01*
X62930047Y-79579139D01*
X63060568Y-79392734D01*
X63156739Y-79186496D01*
X63215635Y-78966692D01*
X63235468Y-78740000D01*
X63235456Y-78739868D01*
X63223805Y-78606692D01*
X63215635Y-78513308D01*
X63156739Y-78293504D01*
X63060568Y-78087266D01*
X62930047Y-77900861D01*
X62930045Y-77900858D01*
X62769141Y-77739954D01*
X62582734Y-77609432D01*
X62582732Y-77609431D01*
X62376497Y-77513261D01*
X62376488Y-77513258D01*
X62156697Y-77454366D01*
X62156693Y-77454365D01*
X62156692Y-77454365D01*
X62156691Y-77454364D01*
X62156686Y-77454364D01*
X61930002Y-77434532D01*
X61929998Y-77434532D01*
X61703313Y-77454364D01*
X61703302Y-77454366D01*
X61483511Y-77513258D01*
X61483502Y-77513261D01*
X61277267Y-77609431D01*
X61277265Y-77609432D01*
X61090858Y-77739954D01*
X60929954Y-77900858D01*
X60799432Y-78087265D01*
X60799431Y-78087267D01*
X60703261Y-78293502D01*
X60703258Y-78293511D01*
X60644366Y-78513302D01*
X60644364Y-78513313D01*
X60624532Y-78739998D01*
X60624532Y-78740001D01*
X53075468Y-78740001D01*
X53075468Y-78740000D01*
X53075456Y-78739868D01*
X53063805Y-78606692D01*
X53055635Y-78513308D01*
X52996739Y-78293504D01*
X52900568Y-78087266D01*
X52770047Y-77900861D01*
X52770045Y-77900858D01*
X52609141Y-77739954D01*
X52422734Y-77609432D01*
X52422732Y-77609431D01*
X52216497Y-77513261D01*
X52216488Y-77513258D01*
X51996697Y-77454366D01*
X51996693Y-77454365D01*
X51996692Y-77454365D01*
X51996691Y-77454364D01*
X51996686Y-77454364D01*
X51770002Y-77434532D01*
X51769998Y-77434532D01*
X51543313Y-77454364D01*
X51543302Y-77454366D01*
X51323511Y-77513258D01*
X51323502Y-77513261D01*
X51117267Y-77609431D01*
X51117265Y-77609432D01*
X50930858Y-77739954D01*
X50769953Y-77900859D01*
X50719010Y-77973615D01*
X50664433Y-78017240D01*
X50594935Y-78024434D01*
X50532580Y-77992911D01*
X50497166Y-77932682D01*
X50493435Y-77902461D01*
X50493821Y-76376589D01*
X50513523Y-76309557D01*
X50566338Y-76263816D01*
X50635499Y-76253890D01*
X50699047Y-76282931D01*
X50719396Y-76305499D01*
X50749956Y-76349143D01*
X50910858Y-76510045D01*
X50910861Y-76510047D01*
X51097266Y-76640568D01*
X51303504Y-76736739D01*
X51523308Y-76795635D01*
X51685230Y-76809801D01*
X51749998Y-76815468D01*
X51750000Y-76815468D01*
X51750002Y-76815468D01*
X51806673Y-76810509D01*
X51976692Y-76795635D01*
X52196496Y-76736739D01*
X52402734Y-76640568D01*
X52589139Y-76510047D01*
X52750047Y-76349139D01*
X52880568Y-76162734D01*
X52976739Y-75956496D01*
X53035635Y-75736692D01*
X53055468Y-75510000D01*
X53054543Y-75499432D01*
X53046755Y-75410414D01*
X53035635Y-75283308D01*
X52976739Y-75063504D01*
X52880568Y-74857266D01*
X52750047Y-74670861D01*
X52750045Y-74670858D01*
X52589140Y-74509953D01*
X52403377Y-74379881D01*
X52359752Y-74325304D01*
X52350500Y-74278306D01*
X52350500Y-72558596D01*
X52370185Y-72491557D01*
X52386814Y-72470920D01*
X52942221Y-71915512D01*
X53003543Y-71882029D01*
X53073235Y-71887013D01*
X53129168Y-71928885D01*
X53153585Y-71994349D01*
X53143707Y-72047912D01*
X53145111Y-72048423D01*
X53143258Y-72053511D01*
X53084366Y-72273302D01*
X53084364Y-72273313D01*
X53064532Y-72499998D01*
X53064532Y-72500001D01*
X53084364Y-72726686D01*
X53084366Y-72726697D01*
X53143258Y-72946488D01*
X53143261Y-72946497D01*
X53239431Y-73152732D01*
X53239432Y-73152734D01*
X53369954Y-73339141D01*
X53530858Y-73500045D01*
X53530861Y-73500047D01*
X53717266Y-73630568D01*
X53923504Y-73726739D01*
X54143308Y-73785635D01*
X54300997Y-73799431D01*
X54369998Y-73805468D01*
X54370000Y-73805468D01*
X54370002Y-73805468D01*
X54434031Y-73799866D01*
X54596692Y-73785635D01*
X54816496Y-73726739D01*
X55022734Y-73630568D01*
X55209139Y-73500047D01*
X55370047Y-73339139D01*
X55500568Y-73152734D01*
X55596739Y-72946496D01*
X55655635Y-72726692D01*
X55675468Y-72500001D01*
X58064532Y-72500001D01*
X58084364Y-72726686D01*
X58084366Y-72726697D01*
X58143258Y-72946488D01*
X58143261Y-72946497D01*
X58239431Y-73152732D01*
X58239432Y-73152734D01*
X58369954Y-73339141D01*
X58530858Y-73500045D01*
X58530861Y-73500047D01*
X58717266Y-73630568D01*
X58923504Y-73726739D01*
X59143308Y-73785635D01*
X59300997Y-73799431D01*
X59369998Y-73805468D01*
X59370000Y-73805468D01*
X59370002Y-73805468D01*
X59434031Y-73799866D01*
X59596692Y-73785635D01*
X59692932Y-73759847D01*
X59762781Y-73761510D01*
X59812706Y-73791941D01*
X60749392Y-74728627D01*
X60782877Y-74789950D01*
X60777893Y-74859642D01*
X60774093Y-74868712D01*
X60683263Y-75063497D01*
X60683258Y-75063511D01*
X60624366Y-75283302D01*
X60624364Y-75283313D01*
X60604532Y-75509998D01*
X60604532Y-75510001D01*
X60624364Y-75736686D01*
X60624366Y-75736697D01*
X60683258Y-75956488D01*
X60683261Y-75956497D01*
X60779431Y-76162732D01*
X60779432Y-76162734D01*
X60909954Y-76349141D01*
X61070858Y-76510045D01*
X61070861Y-76510047D01*
X61257266Y-76640568D01*
X61463504Y-76736739D01*
X61683308Y-76795635D01*
X61845230Y-76809801D01*
X61909998Y-76815468D01*
X61910000Y-76815468D01*
X61910002Y-76815468D01*
X61966673Y-76810509D01*
X62136692Y-76795635D01*
X62356496Y-76736739D01*
X62562734Y-76640568D01*
X62666596Y-76567844D01*
X64755000Y-76567844D01*
X64761401Y-76627372D01*
X64761403Y-76627379D01*
X64811645Y-76762086D01*
X64811649Y-76762093D01*
X64897809Y-76877187D01*
X64897812Y-76877190D01*
X65012906Y-76963350D01*
X65012913Y-76963354D01*
X65147620Y-77013596D01*
X65147627Y-77013598D01*
X65207155Y-77019999D01*
X65207172Y-77020000D01*
X65530000Y-77020000D01*
X65530000Y-76050617D01*
X65599052Y-76104363D01*
X65717424Y-76145000D01*
X65811073Y-76145000D01*
X65903446Y-76129586D01*
X66013514Y-76070019D01*
X66025630Y-76056857D01*
X66025996Y-76060567D01*
X66029403Y-76095160D01*
X66030000Y-76107314D01*
X66030000Y-77020000D01*
X66352828Y-77020000D01*
X66352844Y-77019999D01*
X66412372Y-77013598D01*
X66412376Y-77013597D01*
X66547093Y-76963350D01*
X66554876Y-76959101D01*
X66556071Y-76961289D01*
X66609109Y-76941492D01*
X66653982Y-76946513D01*
X66655653Y-76947020D01*
X66655659Y-76947023D01*
X66848967Y-77005662D01*
X67050000Y-77025462D01*
X67251033Y-77005662D01*
X67444341Y-76947023D01*
X67622494Y-76851798D01*
X67622498Y-76851794D01*
X67626546Y-76849631D01*
X67694949Y-76835389D01*
X67743454Y-76849631D01*
X67747502Y-76851794D01*
X67747506Y-76851798D01*
X67925659Y-76947023D01*
X68118967Y-77005662D01*
X68320000Y-77025462D01*
X68521033Y-77005662D01*
X68714341Y-76947023D01*
X68892494Y-76851798D01*
X69048647Y-76723647D01*
X69176798Y-76567494D01*
X69264555Y-76403313D01*
X69272021Y-76389345D01*
X69272021Y-76389344D01*
X69272023Y-76389341D01*
X69330662Y-76196033D01*
X69345500Y-76045380D01*
X69345500Y-75494620D01*
X69330662Y-75343967D01*
X69272023Y-75150659D01*
X69272021Y-75150656D01*
X69272021Y-75150654D01*
X69176801Y-74972511D01*
X69176799Y-74972509D01*
X69176798Y-74972506D01*
X69048647Y-74816353D01*
X69034125Y-74804435D01*
X68994790Y-74746690D01*
X68989851Y-74692388D01*
X68990500Y-74687461D01*
X68995682Y-74648100D01*
X68994973Y-74642718D01*
X68991561Y-74616797D01*
X68990500Y-74600612D01*
X68990500Y-71647461D01*
X69010185Y-71580422D01*
X69035833Y-71551610D01*
X69118647Y-71483647D01*
X69246798Y-71327494D01*
X69324590Y-71181955D01*
X69342021Y-71149345D01*
X69342021Y-71149344D01*
X69342023Y-71149341D01*
X69400662Y-70956033D01*
X69415500Y-70805380D01*
X69415500Y-70254620D01*
X69411573Y-70214752D01*
X69424592Y-70146109D01*
X69472656Y-70095398D01*
X69534976Y-70078600D01*
X71691946Y-70078600D01*
X71758985Y-70098285D01*
X71804740Y-70151089D01*
X71814684Y-70220247D01*
X71785659Y-70283803D01*
X71779627Y-70290281D01*
X71777452Y-70292455D01*
X71691206Y-70407664D01*
X71691202Y-70407671D01*
X71640908Y-70542517D01*
X71634501Y-70602116D01*
X71634500Y-70602135D01*
X71634500Y-70749431D01*
X71614815Y-70816470D01*
X71562011Y-70862225D01*
X71557954Y-70863992D01*
X71530259Y-70875463D01*
X71530258Y-70875464D01*
X71404818Y-70971716D01*
X71385589Y-70996775D01*
X71374898Y-71008965D01*
X70896065Y-71487798D01*
X70883874Y-71498490D01*
X70858820Y-71517715D01*
X70828859Y-71556762D01*
X70828858Y-71556761D01*
X70762564Y-71643158D01*
X70762561Y-71643163D01*
X70702057Y-71789234D01*
X70702055Y-71789239D01*
X70683671Y-71928885D01*
X70681418Y-71946000D01*
X70682690Y-71955659D01*
X70685539Y-71977301D01*
X70686600Y-71993487D01*
X70686600Y-77699612D01*
X70685539Y-77715797D01*
X70681418Y-77747098D01*
X70681418Y-77747101D01*
X70695684Y-77855463D01*
X70702055Y-77903861D01*
X70762563Y-78049939D01*
X70762564Y-78049941D01*
X70841880Y-78153308D01*
X70858819Y-78175383D01*
X70883869Y-78194604D01*
X70896064Y-78205299D01*
X71088058Y-78397293D01*
X71121543Y-78458616D01*
X71120152Y-78517067D01*
X71094366Y-78613302D01*
X71094364Y-78613313D01*
X71074532Y-78839998D01*
X71074532Y-78840001D01*
X71094364Y-79066686D01*
X71094366Y-79066697D01*
X71153258Y-79286488D01*
X71153261Y-79286497D01*
X71249431Y-79492732D01*
X71249432Y-79492734D01*
X71379954Y-79679141D01*
X71540858Y-79840045D01*
X71540861Y-79840047D01*
X71727266Y-79970568D01*
X71933504Y-80066739D01*
X72153308Y-80125635D01*
X72315230Y-80139801D01*
X72379998Y-80145468D01*
X72380000Y-80145468D01*
X72380002Y-80145468D01*
X72436673Y-80140509D01*
X72606692Y-80125635D01*
X72826496Y-80066739D01*
X73032734Y-79970568D01*
X73219139Y-79840047D01*
X73380047Y-79679139D01*
X73510568Y-79492734D01*
X73606739Y-79286496D01*
X73665635Y-79066692D01*
X73685468Y-78840000D01*
X73665635Y-78613308D01*
X73606739Y-78393504D01*
X73510568Y-78187266D01*
X73380047Y-78000861D01*
X73380045Y-78000858D01*
X73219141Y-77839954D01*
X73032734Y-77709432D01*
X73032732Y-77709431D01*
X72838683Y-77618944D01*
X72786244Y-77572771D01*
X72767092Y-77505578D01*
X72787308Y-77438697D01*
X72840473Y-77393362D01*
X72858996Y-77386787D01*
X72896486Y-77376742D01*
X72896489Y-77376740D01*
X72896496Y-77376739D01*
X73102734Y-77280568D01*
X73289139Y-77150047D01*
X73450047Y-76989139D01*
X73580568Y-76802734D01*
X73676739Y-76596496D01*
X73735635Y-76376692D01*
X73755468Y-76150000D01*
X73751733Y-76107314D01*
X73747606Y-76060136D01*
X73735635Y-75923308D01*
X73709847Y-75827066D01*
X73711510Y-75757217D01*
X73741939Y-75707294D01*
X75591043Y-73858190D01*
X75603223Y-73847509D01*
X75628282Y-73828282D01*
X75724536Y-73702841D01*
X75785044Y-73556762D01*
X75800500Y-73439361D01*
X75805682Y-73400000D01*
X75801561Y-73368697D01*
X75800500Y-73352512D01*
X75800500Y-72517461D01*
X75820185Y-72450422D01*
X75845833Y-72421610D01*
X75928647Y-72353647D01*
X76056798Y-72197494D01*
X76152023Y-72019341D01*
X76152024Y-72019337D01*
X76154353Y-72013717D01*
X76155961Y-72014383D01*
X76189719Y-71962861D01*
X76253529Y-71934399D01*
X76322597Y-71944953D01*
X76357772Y-71969607D01*
X76813181Y-72425016D01*
X76846666Y-72486339D01*
X76849500Y-72512697D01*
X76849500Y-74918306D01*
X76829815Y-74985345D01*
X76796623Y-75019881D01*
X76610859Y-75149953D01*
X76449954Y-75310858D01*
X76319432Y-75497265D01*
X76319431Y-75497267D01*
X76223261Y-75703502D01*
X76223258Y-75703511D01*
X76164366Y-75923302D01*
X76164364Y-75923313D01*
X76144532Y-76149998D01*
X76144532Y-76150001D01*
X76164364Y-76376686D01*
X76164366Y-76376697D01*
X76223258Y-76596488D01*
X76223261Y-76596497D01*
X76319431Y-76802732D01*
X76319432Y-76802734D01*
X76449954Y-76989141D01*
X76610858Y-77150045D01*
X76610861Y-77150047D01*
X76797266Y-77280568D01*
X76991317Y-77371056D01*
X77043755Y-77417227D01*
X77062907Y-77484421D01*
X77042691Y-77551302D01*
X76989526Y-77596637D01*
X76971006Y-77603211D01*
X76933517Y-77613256D01*
X76933502Y-77613261D01*
X76727267Y-77709431D01*
X76727265Y-77709432D01*
X76540858Y-77839954D01*
X76379954Y-78000858D01*
X76249432Y-78187265D01*
X76249431Y-78187267D01*
X76153261Y-78393502D01*
X76153258Y-78393511D01*
X76094366Y-78613302D01*
X76094364Y-78613313D01*
X76074532Y-78839998D01*
X76074532Y-78840001D01*
X76094364Y-79066686D01*
X76094366Y-79066697D01*
X76153258Y-79286488D01*
X76153261Y-79286497D01*
X76249431Y-79492732D01*
X76249432Y-79492734D01*
X76379954Y-79679141D01*
X76540858Y-79840045D01*
X76540861Y-79840047D01*
X76727266Y-79970568D01*
X76933504Y-80066739D01*
X77153308Y-80125635D01*
X77315230Y-80139801D01*
X77379998Y-80145468D01*
X77380000Y-80145468D01*
X77380002Y-80145468D01*
X77436673Y-80140509D01*
X77606692Y-80125635D01*
X77826496Y-80066739D01*
X78032734Y-79970568D01*
X78219139Y-79840047D01*
X78380047Y-79679139D01*
X78510568Y-79492734D01*
X78606739Y-79286496D01*
X78665635Y-79066692D01*
X78685468Y-78840000D01*
X78665635Y-78613308D01*
X78606739Y-78393504D01*
X78510568Y-78187266D01*
X78380047Y-78000861D01*
X78380045Y-78000858D01*
X78219141Y-77839954D01*
X78032734Y-77709432D01*
X78032732Y-77709431D01*
X77838683Y-77618944D01*
X77786244Y-77572771D01*
X77767092Y-77505578D01*
X77787308Y-77438697D01*
X77840473Y-77393362D01*
X77858996Y-77386787D01*
X77896486Y-77376742D01*
X77896489Y-77376740D01*
X77896496Y-77376739D01*
X78102734Y-77280568D01*
X78289139Y-77150047D01*
X78450047Y-76989139D01*
X78580568Y-76802734D01*
X78676739Y-76596496D01*
X78735635Y-76376692D01*
X78755468Y-76150000D01*
X78751733Y-76107314D01*
X78747606Y-76060136D01*
X78735635Y-75923308D01*
X78676739Y-75703504D01*
X78580568Y-75497266D01*
X78463448Y-75330000D01*
X78450045Y-75310858D01*
X78289140Y-75149953D01*
X78103377Y-75019881D01*
X78059752Y-74965304D01*
X78050500Y-74918306D01*
X78050500Y-72260087D01*
X78051561Y-72243901D01*
X78055682Y-72212599D01*
X78055682Y-72212598D01*
X78035044Y-72055839D01*
X78035044Y-72055838D01*
X77974536Y-71909759D01*
X77974535Y-71909758D01*
X77974535Y-71909757D01*
X77946123Y-71872730D01*
X77878282Y-71784318D01*
X77878280Y-71784316D01*
X77878279Y-71784315D01*
X77853228Y-71765093D01*
X77841034Y-71754399D01*
X75173699Y-69087064D01*
X75163004Y-69074869D01*
X75143783Y-69049819D01*
X75143782Y-69049818D01*
X75018341Y-68953564D01*
X74872262Y-68893056D01*
X74872260Y-68893055D01*
X74754861Y-68877600D01*
X74715500Y-68872418D01*
X74684197Y-68876539D01*
X74668013Y-68877600D01*
X67167487Y-68877600D01*
X67151302Y-68876539D01*
X67120000Y-68872418D01*
X67080639Y-68877600D01*
X66963239Y-68893055D01*
X66963237Y-68893056D01*
X66817160Y-68953563D01*
X66691716Y-69049819D01*
X66595464Y-69175258D01*
X66595461Y-69175263D01*
X66582089Y-69207546D01*
X66538247Y-69261948D01*
X66471953Y-69284012D01*
X66454273Y-69283380D01*
X66422844Y-69280000D01*
X66100000Y-69280000D01*
X66100000Y-70192684D01*
X66099403Y-70204837D01*
X66099011Y-70208814D01*
X66095370Y-70245779D01*
X66030948Y-70195637D01*
X65912576Y-70155000D01*
X65818927Y-70155000D01*
X65726554Y-70170414D01*
X65616486Y-70229981D01*
X65600000Y-70247889D01*
X65600000Y-69280000D01*
X65277155Y-69280000D01*
X65217627Y-69286401D01*
X65217620Y-69286403D01*
X65082913Y-69336645D01*
X65082906Y-69336649D01*
X64967812Y-69422809D01*
X64967809Y-69422812D01*
X64881649Y-69537906D01*
X64881645Y-69537913D01*
X64831403Y-69672620D01*
X64831401Y-69672627D01*
X64825000Y-69732155D01*
X64825000Y-70280000D01*
X65570440Y-70280000D01*
X65531722Y-70322059D01*
X65481449Y-70436670D01*
X65471114Y-70561395D01*
X65501837Y-70682719D01*
X65565394Y-70780000D01*
X64825000Y-70780000D01*
X64825000Y-71327844D01*
X64831401Y-71387372D01*
X64831403Y-71387379D01*
X64881645Y-71522086D01*
X64881649Y-71522093D01*
X64967809Y-71637187D01*
X64967812Y-71637190D01*
X65082906Y-71723350D01*
X65082913Y-71723354D01*
X65217620Y-71773596D01*
X65217627Y-71773598D01*
X65277155Y-71779999D01*
X65277172Y-71780000D01*
X65600000Y-71780000D01*
X65600000Y-70810617D01*
X65669052Y-70864363D01*
X65787424Y-70905000D01*
X65881073Y-70905000D01*
X65973446Y-70889586D01*
X66083514Y-70830019D01*
X66095630Y-70816857D01*
X66095884Y-70819431D01*
X66099403Y-70855160D01*
X66100000Y-70867314D01*
X66100000Y-71780000D01*
X66422828Y-71780000D01*
X66422844Y-71779999D01*
X66482372Y-71773598D01*
X66482376Y-71773597D01*
X66617093Y-71723350D01*
X66624876Y-71719101D01*
X66626071Y-71721289D01*
X66679109Y-71701492D01*
X66723982Y-71706513D01*
X66725653Y-71707020D01*
X66725659Y-71707023D01*
X66918967Y-71765662D01*
X67120000Y-71785462D01*
X67321033Y-71765662D01*
X67514341Y-71707023D01*
X67607049Y-71657469D01*
X67675448Y-71643228D01*
X67740692Y-71668227D01*
X67782063Y-71724532D01*
X67789500Y-71766828D01*
X67789500Y-74404991D01*
X67780061Y-74452443D01*
X67734955Y-74561338D01*
X67732852Y-74569189D01*
X67730813Y-74568642D01*
X67707061Y-74622306D01*
X67648730Y-74660766D01*
X67578865Y-74661584D01*
X67553951Y-74651564D01*
X67444345Y-74592978D01*
X67251031Y-74534337D01*
X67050000Y-74514538D01*
X66848968Y-74534337D01*
X66759959Y-74561338D01*
X66655659Y-74592977D01*
X66655657Y-74592977D01*
X66653982Y-74593486D01*
X66584115Y-74594109D01*
X66555414Y-74579902D01*
X66554872Y-74580897D01*
X66547086Y-74576645D01*
X66412379Y-74526403D01*
X66412372Y-74526401D01*
X66352844Y-74520000D01*
X66030000Y-74520000D01*
X66030000Y-75432684D01*
X66029403Y-75444837D01*
X66025370Y-75485779D01*
X65960948Y-75435637D01*
X65842576Y-75395000D01*
X65748927Y-75395000D01*
X65656554Y-75410414D01*
X65546486Y-75469981D01*
X65530000Y-75487889D01*
X65530000Y-74520000D01*
X65207155Y-74520000D01*
X65147627Y-74526401D01*
X65147620Y-74526403D01*
X65012913Y-74576645D01*
X65012906Y-74576649D01*
X64897812Y-74662809D01*
X64897809Y-74662812D01*
X64811649Y-74777906D01*
X64811645Y-74777913D01*
X64761403Y-74912620D01*
X64761401Y-74912627D01*
X64755000Y-74972155D01*
X64755000Y-75520000D01*
X65500440Y-75520000D01*
X65461722Y-75562059D01*
X65411449Y-75676670D01*
X65401114Y-75801395D01*
X65431837Y-75922719D01*
X65495394Y-76020000D01*
X64755000Y-76020000D01*
X64755000Y-76567844D01*
X62666596Y-76567844D01*
X62749139Y-76510047D01*
X62910047Y-76349139D01*
X63040568Y-76162734D01*
X63136739Y-75956496D01*
X63195635Y-75736692D01*
X63215468Y-75510000D01*
X63214543Y-75499432D01*
X63206755Y-75410414D01*
X63195635Y-75283308D01*
X63136739Y-75063504D01*
X63040568Y-74857266D01*
X62910047Y-74670861D01*
X62910045Y-74670858D01*
X62749141Y-74509954D01*
X62562734Y-74379432D01*
X62562732Y-74379431D01*
X62356497Y-74283261D01*
X62356488Y-74283258D01*
X62136697Y-74224366D01*
X62136687Y-74224364D01*
X61970046Y-74209785D01*
X61904978Y-74184332D01*
X61893173Y-74173938D01*
X60661941Y-72942706D01*
X60628456Y-72881383D01*
X60629847Y-72822931D01*
X60655635Y-72726692D01*
X60675468Y-72500000D01*
X60671130Y-72450422D01*
X60666413Y-72396497D01*
X60655635Y-72273308D01*
X60597365Y-72055839D01*
X60596741Y-72053511D01*
X60596738Y-72053502D01*
X60551482Y-71956451D01*
X60500568Y-71847266D01*
X60370047Y-71660861D01*
X60370045Y-71660858D01*
X60209141Y-71499954D01*
X60022734Y-71369432D01*
X60022732Y-71369431D01*
X59816497Y-71273261D01*
X59816488Y-71273258D01*
X59596697Y-71214366D01*
X59596693Y-71214365D01*
X59596692Y-71214365D01*
X59596691Y-71214364D01*
X59596686Y-71214364D01*
X59370002Y-71194532D01*
X59369998Y-71194532D01*
X59143313Y-71214364D01*
X59143302Y-71214366D01*
X58923511Y-71273258D01*
X58923502Y-71273261D01*
X58717267Y-71369431D01*
X58717265Y-71369432D01*
X58530858Y-71499954D01*
X58369954Y-71660858D01*
X58239432Y-71847265D01*
X58239431Y-71847267D01*
X58143261Y-72053502D01*
X58143258Y-72053511D01*
X58084366Y-72273302D01*
X58084364Y-72273313D01*
X58064532Y-72499998D01*
X58064532Y-72500001D01*
X55675468Y-72500001D01*
X55675468Y-72500000D01*
X55671130Y-72450422D01*
X55666413Y-72396497D01*
X55655635Y-72273308D01*
X55597365Y-72055839D01*
X55596741Y-72053511D01*
X55596738Y-72053502D01*
X55551482Y-71956451D01*
X55500568Y-71847266D01*
X55370047Y-71660861D01*
X55370045Y-71660858D01*
X55209141Y-71499954D01*
X55022734Y-71369432D01*
X55022732Y-71369431D01*
X54816497Y-71273261D01*
X54816488Y-71273258D01*
X54596697Y-71214366D01*
X54596693Y-71214365D01*
X54596692Y-71214365D01*
X54596691Y-71214364D01*
X54596686Y-71214364D01*
X54370002Y-71194532D01*
X54369998Y-71194532D01*
X54143313Y-71214364D01*
X54143302Y-71214366D01*
X53923511Y-71273258D01*
X53918423Y-71275111D01*
X53917826Y-71273473D01*
X53856476Y-71282769D01*
X53792703Y-71254226D01*
X53754485Y-71195735D01*
X53753956Y-71125867D01*
X53785510Y-71072224D01*
X57498544Y-67359189D01*
X57510722Y-67348510D01*
X57535782Y-67329282D01*
X57632036Y-67203841D01*
X57692544Y-67057762D01*
X57708000Y-66940361D01*
X57713182Y-66901000D01*
X57709061Y-66869697D01*
X57708000Y-66853512D01*
X57708000Y-55029712D01*
X57727685Y-54962673D01*
X57735055Y-54952397D01*
X57737310Y-54949567D01*
X57737316Y-54949562D01*
X57833289Y-54796822D01*
X57892868Y-54626555D01*
X57897051Y-54589431D01*
X57913065Y-54447303D01*
X57913065Y-54447296D01*
X57892869Y-54268050D01*
X57892868Y-54268045D01*
X57833289Y-54097778D01*
X57737316Y-53945038D01*
X57609762Y-53817484D01*
X57600353Y-53811572D01*
X57457023Y-53721511D01*
X57286754Y-53661931D01*
X57286749Y-53661930D01*
X57107504Y-53641735D01*
X57107496Y-53641735D01*
X56928250Y-53661930D01*
X56928245Y-53661931D01*
X56757976Y-53721511D01*
X56605237Y-53817484D01*
X56477684Y-53945037D01*
X56381711Y-54097776D01*
X56322131Y-54268045D01*
X56322130Y-54268050D01*
X56301935Y-54447296D01*
X56301935Y-54447303D01*
X56322130Y-54626549D01*
X56322131Y-54626554D01*
X56381711Y-54796823D01*
X56477685Y-54949563D01*
X56479945Y-54952397D01*
X56480834Y-54954575D01*
X56481389Y-54955458D01*
X56481234Y-54955555D01*
X56506355Y-55017083D01*
X56507000Y-55029712D01*
X56507000Y-66600902D01*
X56487315Y-66667941D01*
X56470681Y-66688583D01*
X53185889Y-69973375D01*
X53124566Y-70006860D01*
X53054874Y-70001876D01*
X52998941Y-69960004D01*
X52974524Y-69894540D01*
X52978433Y-69853600D01*
X53015140Y-69716607D01*
X53015141Y-69716599D01*
X53034966Y-69490002D01*
X53034966Y-69489997D01*
X53015141Y-69263400D01*
X53015139Y-69263389D01*
X52956269Y-69043682D01*
X52956264Y-69043668D01*
X52860136Y-68837521D01*
X52860132Y-68837513D01*
X52809025Y-68764526D01*
X52127953Y-69445598D01*
X52115165Y-69364852D01*
X52057641Y-69251955D01*
X51968045Y-69162359D01*
X51855148Y-69104835D01*
X51774401Y-69092046D01*
X52455472Y-68410974D01*
X52382478Y-68359863D01*
X52176331Y-68263735D01*
X52176317Y-68263730D01*
X51956610Y-68204860D01*
X51956599Y-68204858D01*
X51730002Y-68185034D01*
X51729998Y-68185034D01*
X51503400Y-68204858D01*
X51503389Y-68204860D01*
X51283682Y-68263730D01*
X51283673Y-68263734D01*
X51077516Y-68359866D01*
X51077512Y-68359868D01*
X51004526Y-68410973D01*
X51004526Y-68410974D01*
X51685599Y-69092046D01*
X51604852Y-69104835D01*
X51491955Y-69162359D01*
X51402359Y-69251955D01*
X51344835Y-69364852D01*
X51332046Y-69445598D01*
X50650974Y-68764526D01*
X50630586Y-68766310D01*
X50562086Y-68752543D01*
X50511903Y-68703928D01*
X50495780Y-68642754D01*
X50496204Y-66965467D01*
X50515905Y-66898438D01*
X50568720Y-66852697D01*
X50631010Y-66841976D01*
X50670974Y-66845472D01*
X51352046Y-66164400D01*
X51364835Y-66245148D01*
X51422359Y-66358045D01*
X51511955Y-66447641D01*
X51624852Y-66505165D01*
X51705599Y-66517953D01*
X51024526Y-67199025D01*
X51097513Y-67250132D01*
X51097521Y-67250136D01*
X51303668Y-67346264D01*
X51303682Y-67346269D01*
X51523389Y-67405139D01*
X51523400Y-67405141D01*
X51749998Y-67424966D01*
X51750002Y-67424966D01*
X51976599Y-67405141D01*
X51976610Y-67405139D01*
X52196317Y-67346269D01*
X52196331Y-67346264D01*
X52402478Y-67250136D01*
X52475471Y-67199024D01*
X51794400Y-66517953D01*
X51875148Y-66505165D01*
X51988045Y-66447641D01*
X52077641Y-66358045D01*
X52135165Y-66245148D01*
X52147953Y-66164400D01*
X52829024Y-66845471D01*
X52880136Y-66772478D01*
X52976264Y-66566331D01*
X52976269Y-66566317D01*
X53035139Y-66346610D01*
X53035141Y-66346599D01*
X53054966Y-66120002D01*
X53054966Y-66119997D01*
X53035141Y-65893400D01*
X53035139Y-65893389D01*
X52976269Y-65673682D01*
X52976264Y-65673668D01*
X52880136Y-65467521D01*
X52880132Y-65467513D01*
X52829025Y-65394526D01*
X52147953Y-66075598D01*
X52135165Y-65994852D01*
X52077641Y-65881955D01*
X51988045Y-65792359D01*
X51875148Y-65734835D01*
X51794401Y-65722046D01*
X52475472Y-65040974D01*
X52402478Y-64989863D01*
X52196331Y-64893735D01*
X52196317Y-64893730D01*
X51976610Y-64834860D01*
X51976599Y-64834858D01*
X51750002Y-64815034D01*
X51749998Y-64815034D01*
X51523400Y-64834858D01*
X51523389Y-64834860D01*
X51303682Y-64893730D01*
X51303673Y-64893734D01*
X51097516Y-64989866D01*
X51097512Y-64989868D01*
X51024526Y-65040973D01*
X51024526Y-65040974D01*
X51705599Y-65722046D01*
X51624852Y-65734835D01*
X51511955Y-65792359D01*
X51422359Y-65881955D01*
X51364835Y-65994852D01*
X51352046Y-66075598D01*
X50670974Y-65394526D01*
X50631438Y-65397985D01*
X50562938Y-65384218D01*
X50512755Y-65335603D01*
X50496632Y-65274432D01*
X50497258Y-62799999D01*
X51661127Y-62799999D01*
X51661128Y-62800000D01*
X52624314Y-62800000D01*
X52612359Y-62811955D01*
X52554835Y-62924852D01*
X52535014Y-63050000D01*
X52554835Y-63175148D01*
X52612359Y-63288045D01*
X52624314Y-63300000D01*
X51661128Y-63300000D01*
X51713730Y-63496317D01*
X51713734Y-63496326D01*
X51809865Y-63702482D01*
X51940342Y-63888820D01*
X52101179Y-64049657D01*
X52287517Y-64180134D01*
X52493673Y-64276265D01*
X52493682Y-64276269D01*
X52689999Y-64328872D01*
X52690000Y-64328871D01*
X52690000Y-63365686D01*
X52701955Y-63377641D01*
X52814852Y-63435165D01*
X52908519Y-63450000D01*
X52971481Y-63450000D01*
X53065148Y-63435165D01*
X53178045Y-63377641D01*
X53190000Y-63365686D01*
X53190000Y-64328872D01*
X53386317Y-64276269D01*
X53386326Y-64276265D01*
X53592482Y-64180134D01*
X53778820Y-64049657D01*
X53939657Y-63888820D01*
X54070134Y-63702482D01*
X54166265Y-63496326D01*
X54166269Y-63496317D01*
X54218872Y-63300000D01*
X53255686Y-63300000D01*
X53267641Y-63288045D01*
X53325165Y-63175148D01*
X53344986Y-63050000D01*
X53325165Y-62924852D01*
X53267641Y-62811955D01*
X53255686Y-62800000D01*
X54218872Y-62800000D01*
X54218872Y-62799999D01*
X54166269Y-62603682D01*
X54166265Y-62603673D01*
X54070134Y-62397517D01*
X53939657Y-62211179D01*
X53778820Y-62050342D01*
X53592482Y-61919865D01*
X53386328Y-61823734D01*
X53190000Y-61771127D01*
X53190000Y-62734314D01*
X53178045Y-62722359D01*
X53065148Y-62664835D01*
X52971481Y-62650000D01*
X52908519Y-62650000D01*
X52814852Y-62664835D01*
X52701955Y-62722359D01*
X52690000Y-62734314D01*
X52690000Y-61771127D01*
X52493671Y-61823734D01*
X52287517Y-61919865D01*
X52101179Y-62050342D01*
X51940342Y-62211179D01*
X51809865Y-62397517D01*
X51713734Y-62603673D01*
X51713730Y-62603682D01*
X51661127Y-62799999D01*
X50497258Y-62799999D01*
X50498013Y-59819999D01*
X51661127Y-59819999D01*
X51661128Y-59820000D01*
X52624314Y-59820000D01*
X52612359Y-59831955D01*
X52554835Y-59944852D01*
X52535014Y-60070000D01*
X52554835Y-60195148D01*
X52612359Y-60308045D01*
X52624314Y-60320000D01*
X51661128Y-60320000D01*
X51713730Y-60516317D01*
X51713734Y-60516326D01*
X51809865Y-60722482D01*
X51940342Y-60908820D01*
X52101179Y-61069657D01*
X52287517Y-61200134D01*
X52493673Y-61296265D01*
X52493682Y-61296269D01*
X52689999Y-61348872D01*
X52690000Y-61348871D01*
X52690000Y-60385686D01*
X52701955Y-60397641D01*
X52814852Y-60455165D01*
X52908519Y-60470000D01*
X52971481Y-60470000D01*
X53065148Y-60455165D01*
X53178045Y-60397641D01*
X53190000Y-60385686D01*
X53190000Y-61348872D01*
X53386317Y-61296269D01*
X53386326Y-61296265D01*
X53592482Y-61200134D01*
X53778820Y-61069657D01*
X53939657Y-60908820D01*
X54070134Y-60722482D01*
X54166265Y-60516326D01*
X54166269Y-60516317D01*
X54218872Y-60320000D01*
X53255686Y-60320000D01*
X53267641Y-60308045D01*
X53325165Y-60195148D01*
X53344986Y-60070000D01*
X53325165Y-59944852D01*
X53267641Y-59831955D01*
X53255686Y-59820000D01*
X54218872Y-59820000D01*
X54218872Y-59819999D01*
X54166269Y-59623682D01*
X54166265Y-59623673D01*
X54070134Y-59417517D01*
X53939657Y-59231179D01*
X53778820Y-59070342D01*
X53592482Y-58939865D01*
X53386328Y-58843734D01*
X53190000Y-58791127D01*
X53190000Y-59754314D01*
X53178045Y-59742359D01*
X53065148Y-59684835D01*
X52971481Y-59670000D01*
X52908519Y-59670000D01*
X52814852Y-59684835D01*
X52701955Y-59742359D01*
X52690000Y-59754314D01*
X52690000Y-58791127D01*
X52493671Y-58843734D01*
X52287517Y-58939865D01*
X52101179Y-59070342D01*
X51940342Y-59231179D01*
X51809865Y-59417517D01*
X51713734Y-59623673D01*
X51713730Y-59623682D01*
X51661127Y-59819999D01*
X50498013Y-59819999D01*
X50498523Y-57807040D01*
X50518225Y-57740006D01*
X50571040Y-57694265D01*
X50640201Y-57684339D01*
X50703749Y-57713380D01*
X50710204Y-57719391D01*
X50830858Y-57840045D01*
X50877693Y-57872839D01*
X51017266Y-57970568D01*
X51223504Y-58066739D01*
X51223509Y-58066740D01*
X51223511Y-58066741D01*
X51247609Y-58073198D01*
X51443308Y-58125635D01*
X51605230Y-58139801D01*
X51669998Y-58145468D01*
X51670000Y-58145468D01*
X51670002Y-58145468D01*
X51726673Y-58140509D01*
X51896692Y-58125635D01*
X52116496Y-58066739D01*
X52322734Y-57970568D01*
X52509139Y-57840047D01*
X52670047Y-57679139D01*
X52800568Y-57492734D01*
X52896739Y-57286496D01*
X52955635Y-57066692D01*
X52975468Y-56840000D01*
X52973312Y-56815362D01*
X52961316Y-56678244D01*
X52955635Y-56613308D01*
X52896739Y-56393504D01*
X52800568Y-56187266D01*
X52688562Y-56027303D01*
X52670045Y-56000858D01*
X52509141Y-55839954D01*
X52322734Y-55709432D01*
X52322732Y-55709431D01*
X52116497Y-55613261D01*
X52116488Y-55613258D01*
X51896697Y-55554366D01*
X51896693Y-55554365D01*
X51896692Y-55554365D01*
X51896691Y-55554364D01*
X51896686Y-55554364D01*
X51670002Y-55534532D01*
X51669998Y-55534532D01*
X51443313Y-55554364D01*
X51443302Y-55554366D01*
X51223511Y-55613258D01*
X51223502Y-55613261D01*
X51017267Y-55709431D01*
X51017265Y-55709432D01*
X50830862Y-55839951D01*
X50710693Y-55960120D01*
X50649370Y-55993604D01*
X50579678Y-55988620D01*
X50523745Y-55946748D01*
X50499328Y-55881284D01*
X50499012Y-55872427D01*
X50499875Y-52470004D01*
X57584816Y-52470004D01*
X57603524Y-52719663D01*
X57603525Y-52719668D01*
X57659236Y-52963755D01*
X57659238Y-52963764D01*
X57659240Y-52963769D01*
X57750711Y-53196835D01*
X57875898Y-53413665D01*
X57890237Y-53431645D01*
X58032006Y-53609418D01*
X58128817Y-53699245D01*
X58215540Y-53779712D01*
X58422408Y-53920752D01*
X58422411Y-53920753D01*
X58422412Y-53920754D01*
X58589302Y-54001124D01*
X58641161Y-54047946D01*
X58659500Y-54112844D01*
X58659500Y-55800512D01*
X58658439Y-55816697D01*
X58654318Y-55847998D01*
X58654318Y-55848000D01*
X58662916Y-55913307D01*
X58662916Y-55913308D01*
X58674955Y-56004760D01*
X58674956Y-56004762D01*
X58730973Y-56140000D01*
X58735464Y-56150841D01*
X58830091Y-56274161D01*
X58831719Y-56276283D01*
X58856769Y-56295504D01*
X58868964Y-56306199D01*
X61120584Y-58557819D01*
X61154069Y-58619142D01*
X61149085Y-58688834D01*
X61107213Y-58744767D01*
X61041749Y-58769184D01*
X61032903Y-58769500D01*
X59712129Y-58769500D01*
X59712123Y-58769501D01*
X59652516Y-58775908D01*
X59517671Y-58826202D01*
X59517664Y-58826206D01*
X59402455Y-58912452D01*
X59402452Y-58912455D01*
X59316206Y-59027664D01*
X59316202Y-59027671D01*
X59265908Y-59162517D01*
X59259501Y-59222116D01*
X59259501Y-59222123D01*
X59259500Y-59222135D01*
X59259500Y-60917870D01*
X59259501Y-60917876D01*
X59265908Y-60977483D01*
X59316202Y-61112327D01*
X59316203Y-61112328D01*
X59316204Y-61112331D01*
X59328286Y-61128471D01*
X59352704Y-61193933D01*
X59337853Y-61262206D01*
X59316701Y-61290462D01*
X59042265Y-61564898D01*
X59030074Y-61575590D01*
X59005018Y-61594817D01*
X58980849Y-61626313D01*
X58980850Y-61626314D01*
X58908764Y-61720258D01*
X58908761Y-61720263D01*
X58848257Y-61866334D01*
X58848255Y-61866339D01*
X58829649Y-62007671D01*
X58827618Y-62023100D01*
X58831739Y-62054401D01*
X58832800Y-62070587D01*
X58832800Y-65883912D01*
X58831739Y-65900097D01*
X58827618Y-65931398D01*
X58827618Y-65931400D01*
X58832800Y-65970760D01*
X58832800Y-65970761D01*
X58848255Y-66088160D01*
X58848256Y-66088162D01*
X58861442Y-66119997D01*
X58908764Y-66234241D01*
X59003762Y-66358045D01*
X59005019Y-66359683D01*
X59030069Y-66378904D01*
X59042264Y-66389599D01*
X61009057Y-68356393D01*
X61042542Y-68417716D01*
X61037558Y-68487408D01*
X61009058Y-68531755D01*
X60889951Y-68650862D01*
X60759432Y-68837265D01*
X60759431Y-68837267D01*
X60663261Y-69043502D01*
X60663258Y-69043511D01*
X60604366Y-69263302D01*
X60604364Y-69263313D01*
X60584532Y-69489998D01*
X60584532Y-69490001D01*
X60604364Y-69716686D01*
X60604366Y-69716697D01*
X60663258Y-69936488D01*
X60663261Y-69936497D01*
X60759431Y-70142732D01*
X60759432Y-70142734D01*
X60889954Y-70329141D01*
X61050858Y-70490045D01*
X61050861Y-70490047D01*
X61236624Y-70620118D01*
X61280248Y-70674693D01*
X61289500Y-70721692D01*
X61289500Y-71456512D01*
X61288439Y-71472697D01*
X61284318Y-71503998D01*
X61284318Y-71504000D01*
X61289500Y-71543360D01*
X61289500Y-71543361D01*
X61304955Y-71660760D01*
X61304956Y-71660762D01*
X61365135Y-71806048D01*
X61365464Y-71806841D01*
X61461717Y-71932281D01*
X61461719Y-71932283D01*
X61486769Y-71951504D01*
X61498964Y-71962199D01*
X62164298Y-72627533D01*
X62197783Y-72688856D01*
X62199837Y-72701330D01*
X62209630Y-72788249D01*
X62269210Y-72958521D01*
X62345897Y-73080567D01*
X62365184Y-73111262D01*
X62492738Y-73238816D01*
X62645478Y-73334789D01*
X62815745Y-73394368D01*
X62815750Y-73394369D01*
X62994996Y-73414565D01*
X62995000Y-73414565D01*
X62995004Y-73414565D01*
X63174249Y-73394369D01*
X63174252Y-73394368D01*
X63174255Y-73394368D01*
X63344522Y-73334789D01*
X63497262Y-73238816D01*
X63624816Y-73111262D01*
X63720789Y-72958522D01*
X63780368Y-72788255D01*
X63780369Y-72788249D01*
X63800565Y-72609003D01*
X63800565Y-72608996D01*
X63780369Y-72429750D01*
X63780368Y-72429745D01*
X63725626Y-72273302D01*
X63720789Y-72259478D01*
X63720174Y-72258500D01*
X63668767Y-72176686D01*
X63624816Y-72106738D01*
X63497262Y-71979184D01*
X63444450Y-71946000D01*
X63344521Y-71883210D01*
X63193077Y-71830218D01*
X63174255Y-71823632D01*
X63174254Y-71823631D01*
X63174249Y-71823630D01*
X63087330Y-71813837D01*
X63022916Y-71786770D01*
X63013533Y-71778298D01*
X62526819Y-71291584D01*
X62493334Y-71230261D01*
X62490500Y-71203903D01*
X62490500Y-70721692D01*
X62510185Y-70654653D01*
X62543374Y-70620119D01*
X62729139Y-70490047D01*
X62890047Y-70329139D01*
X63020568Y-70142734D01*
X63116739Y-69936496D01*
X63175635Y-69716692D01*
X63195468Y-69490000D01*
X63193957Y-69472734D01*
X63184519Y-69364852D01*
X63175635Y-69263308D01*
X63116739Y-69043504D01*
X63020568Y-68837266D01*
X62890047Y-68650861D01*
X62890045Y-68650858D01*
X62729141Y-68489954D01*
X62562828Y-68373502D01*
X62542734Y-68359432D01*
X62542727Y-68359429D01*
X62540680Y-68358247D01*
X62539954Y-68357486D01*
X62538299Y-68356327D01*
X62538532Y-68355994D01*
X62492466Y-68307678D01*
X62479745Y-68267047D01*
X62475044Y-68231338D01*
X62414536Y-68085259D01*
X62414535Y-68085258D01*
X62414535Y-68085257D01*
X62339987Y-67988103D01*
X62339970Y-67988083D01*
X62334428Y-67980861D01*
X62318282Y-67959818D01*
X62317905Y-67959529D01*
X62293233Y-67940597D01*
X62281039Y-67929903D01*
X61975368Y-67624232D01*
X61941883Y-67562909D01*
X61946867Y-67493217D01*
X61988739Y-67437284D01*
X62052240Y-67413023D01*
X62136692Y-67405635D01*
X62356496Y-67346739D01*
X62562734Y-67250568D01*
X62749139Y-67120047D01*
X62910047Y-66959139D01*
X63040568Y-66772734D01*
X63136739Y-66566496D01*
X63195635Y-66346692D01*
X63215468Y-66120000D01*
X63213957Y-66102734D01*
X63204390Y-65993380D01*
X63195635Y-65893308D01*
X63141389Y-65690858D01*
X63136741Y-65673511D01*
X63136738Y-65673502D01*
X63110175Y-65616538D01*
X63040568Y-65467266D01*
X62910047Y-65280861D01*
X62910045Y-65280858D01*
X62749141Y-65119954D01*
X62562734Y-64989432D01*
X62562732Y-64989431D01*
X62356497Y-64893261D01*
X62356488Y-64893258D01*
X62136697Y-64834366D01*
X62136693Y-64834365D01*
X62136692Y-64834365D01*
X62136690Y-64834364D01*
X62136680Y-64834363D01*
X62132335Y-64833983D01*
X62067268Y-64808525D01*
X62055472Y-64798137D01*
X61674239Y-64416904D01*
X61640754Y-64355581D01*
X61645738Y-64285889D01*
X61687607Y-64229957D01*
X61717546Y-64207546D01*
X61803796Y-64092331D01*
X61854091Y-63957483D01*
X61860500Y-63897873D01*
X61860499Y-62202128D01*
X61854091Y-62142517D01*
X61839252Y-62102732D01*
X61803797Y-62007671D01*
X61803793Y-62007664D01*
X61717547Y-61892455D01*
X61717544Y-61892452D01*
X61602335Y-61806206D01*
X61602328Y-61806202D01*
X61467482Y-61755908D01*
X61467483Y-61755908D01*
X61407883Y-61749501D01*
X61407881Y-61749500D01*
X61407873Y-61749500D01*
X61407865Y-61749500D01*
X60855496Y-61749500D01*
X60788457Y-61729815D01*
X60742702Y-61677011D01*
X60732758Y-61607853D01*
X60761783Y-61544297D01*
X60767815Y-61537819D01*
X60898816Y-61406818D01*
X60960139Y-61373333D01*
X60986497Y-61370499D01*
X61407871Y-61370499D01*
X61407872Y-61370499D01*
X61467483Y-61364091D01*
X61602331Y-61313796D01*
X61717546Y-61227546D01*
X61803796Y-61112331D01*
X61854091Y-60977483D01*
X61860500Y-60917873D01*
X61860499Y-59222128D01*
X61854091Y-59162517D01*
X61841171Y-59127876D01*
X61829966Y-59097833D01*
X61824982Y-59028141D01*
X61858468Y-58966818D01*
X61919791Y-58933334D01*
X61946148Y-58930500D01*
X64910501Y-58930500D01*
X64977540Y-58950185D01*
X65023295Y-59002989D01*
X65034501Y-59054500D01*
X65034501Y-59127876D01*
X65040908Y-59187483D01*
X65091202Y-59322328D01*
X65091206Y-59322335D01*
X65177452Y-59437544D01*
X65177455Y-59437547D01*
X65292664Y-59523793D01*
X65292671Y-59523797D01*
X65427517Y-59574091D01*
X65427516Y-59574091D01*
X65434444Y-59574835D01*
X65487127Y-59580500D01*
X66605500Y-59580499D01*
X66672539Y-59600184D01*
X66718294Y-59652987D01*
X66729500Y-59704499D01*
X66729500Y-62198002D01*
X66709815Y-62265041D01*
X66693181Y-62285683D01*
X66298965Y-62679898D01*
X66286775Y-62690589D01*
X66261720Y-62709816D01*
X66261719Y-62709817D01*
X66261718Y-62709818D01*
X66226690Y-62755468D01*
X66226689Y-62755467D01*
X66165464Y-62835258D01*
X66165463Y-62835259D01*
X66153990Y-62862957D01*
X66110147Y-62917359D01*
X66043853Y-62939421D01*
X66039432Y-62939500D01*
X65842130Y-62939500D01*
X65842123Y-62939501D01*
X65782516Y-62945908D01*
X65647671Y-62996202D01*
X65647664Y-62996206D01*
X65532455Y-63082452D01*
X65532452Y-63082455D01*
X65446206Y-63197664D01*
X65446202Y-63197671D01*
X65395908Y-63332517D01*
X65389501Y-63392116D01*
X65389500Y-63392135D01*
X65389500Y-65087870D01*
X65389501Y-65087876D01*
X65395908Y-65147483D01*
X65446202Y-65282328D01*
X65446206Y-65282335D01*
X65532452Y-65397544D01*
X65532455Y-65397547D01*
X65647664Y-65483793D01*
X65647671Y-65483797D01*
X65782517Y-65534091D01*
X65782516Y-65534091D01*
X65789444Y-65534835D01*
X65842127Y-65540500D01*
X67537872Y-65540499D01*
X67597483Y-65534091D01*
X67732331Y-65483796D01*
X67847546Y-65397546D01*
X67854350Y-65388455D01*
X67910280Y-65346584D01*
X67979971Y-65341597D01*
X68024740Y-65361188D01*
X68037512Y-65370130D01*
X68037518Y-65370134D01*
X68243673Y-65466265D01*
X68243682Y-65466269D01*
X68463389Y-65525139D01*
X68463400Y-65525141D01*
X68689998Y-65544966D01*
X68690002Y-65544966D01*
X68916599Y-65525141D01*
X68916610Y-65525139D01*
X69136317Y-65466269D01*
X69136331Y-65466264D01*
X69342478Y-65370136D01*
X69415471Y-65319024D01*
X68734400Y-64637953D01*
X68815148Y-64625165D01*
X68928045Y-64567641D01*
X69017641Y-64478045D01*
X69075165Y-64365148D01*
X69087953Y-64284400D01*
X69769024Y-64965471D01*
X69820136Y-64892478D01*
X69916264Y-64686331D01*
X69916269Y-64686317D01*
X69975139Y-64466610D01*
X69975141Y-64466599D01*
X69994966Y-64240002D01*
X69994966Y-64239997D01*
X69975141Y-64013400D01*
X69975139Y-64013389D01*
X69968872Y-63990001D01*
X72754532Y-63990001D01*
X72774364Y-64216686D01*
X72774366Y-64216697D01*
X72833258Y-64436488D01*
X72833261Y-64436497D01*
X72929431Y-64642732D01*
X72929432Y-64642734D01*
X73059954Y-64829141D01*
X73220858Y-64990045D01*
X73220861Y-64990047D01*
X73407266Y-65120568D01*
X73465865Y-65147893D01*
X73518305Y-65194065D01*
X73537457Y-65261258D01*
X73517242Y-65328139D01*
X73465867Y-65372657D01*
X73407515Y-65399867D01*
X73221179Y-65530342D01*
X73060342Y-65691179D01*
X72929865Y-65877517D01*
X72833734Y-66083673D01*
X72833731Y-66083681D01*
X72781127Y-66279999D01*
X72781128Y-66280000D01*
X73744314Y-66280000D01*
X73732359Y-66291955D01*
X73674835Y-66404852D01*
X73655014Y-66530000D01*
X73674835Y-66655148D01*
X73732359Y-66768045D01*
X73744314Y-66780000D01*
X72781128Y-66780000D01*
X72833730Y-66976317D01*
X72833734Y-66976326D01*
X72929865Y-67182482D01*
X73060342Y-67368820D01*
X73221179Y-67529657D01*
X73407517Y-67660134D01*
X73613673Y-67756265D01*
X73613682Y-67756269D01*
X73809999Y-67808872D01*
X73810000Y-67808871D01*
X73810000Y-66845686D01*
X73821955Y-66857641D01*
X73934852Y-66915165D01*
X74028519Y-66930000D01*
X74091481Y-66930000D01*
X74185148Y-66915165D01*
X74298045Y-66857641D01*
X74310000Y-66845686D01*
X74310000Y-67808872D01*
X74506317Y-67756269D01*
X74506326Y-67756265D01*
X74712482Y-67660134D01*
X74898820Y-67529657D01*
X75059657Y-67368820D01*
X75190134Y-67182482D01*
X75286265Y-66976326D01*
X75286269Y-66976317D01*
X75338872Y-66780000D01*
X74375686Y-66780000D01*
X74387641Y-66768045D01*
X74445165Y-66655148D01*
X74464986Y-66530000D01*
X74445165Y-66404852D01*
X74387641Y-66291955D01*
X74375686Y-66280000D01*
X75338872Y-66280000D01*
X75338872Y-66279999D01*
X75286269Y-66083681D01*
X75286265Y-66083673D01*
X75190134Y-65877517D01*
X75059657Y-65691179D01*
X74898820Y-65530342D01*
X74712482Y-65399865D01*
X74654133Y-65372657D01*
X74601694Y-65326484D01*
X74582542Y-65259291D01*
X74602758Y-65192410D01*
X74654129Y-65147895D01*
X74712734Y-65120568D01*
X74899139Y-64990047D01*
X75060047Y-64829139D01*
X75190568Y-64642734D01*
X75286739Y-64436496D01*
X75345635Y-64216692D01*
X75365468Y-63990000D01*
X75345635Y-63763308D01*
X75286739Y-63543504D01*
X75190568Y-63337266D01*
X75060047Y-63150861D01*
X75060045Y-63150858D01*
X74899141Y-62989954D01*
X74712734Y-62859432D01*
X74712728Y-62859429D01*
X74654725Y-62832382D01*
X74602285Y-62786210D01*
X74583133Y-62719017D01*
X74603348Y-62652135D01*
X74654725Y-62607618D01*
X74657129Y-62606497D01*
X74712734Y-62580568D01*
X74899139Y-62450047D01*
X75060047Y-62289139D01*
X75190568Y-62102734D01*
X75286739Y-61896496D01*
X75345635Y-61676692D01*
X75365468Y-61450000D01*
X75345635Y-61223308D01*
X75286739Y-61003504D01*
X75190568Y-60797266D01*
X75060047Y-60610861D01*
X75060045Y-60610858D01*
X74899143Y-60449956D01*
X74874536Y-60432726D01*
X74830912Y-60378149D01*
X74823719Y-60308650D01*
X74855241Y-60246296D01*
X74915471Y-60210882D01*
X74932404Y-60207861D01*
X74967483Y-60204091D01*
X75102331Y-60153796D01*
X75217546Y-60067546D01*
X75303796Y-59952331D01*
X75354091Y-59817483D01*
X75360500Y-59757873D01*
X75360499Y-58062128D01*
X75354091Y-58002517D01*
X75350525Y-57992957D01*
X75303797Y-57867671D01*
X75303793Y-57867664D01*
X75217547Y-57752455D01*
X75217544Y-57752452D01*
X75102335Y-57666206D01*
X75102328Y-57666202D01*
X74967482Y-57615908D01*
X74967483Y-57615908D01*
X74907883Y-57609501D01*
X74907881Y-57609500D01*
X74907873Y-57609500D01*
X74907864Y-57609500D01*
X73212129Y-57609500D01*
X73212123Y-57609501D01*
X73152516Y-57615908D01*
X73017671Y-57666202D01*
X73017664Y-57666206D01*
X72902455Y-57752452D01*
X72902452Y-57752455D01*
X72816206Y-57867664D01*
X72816202Y-57867671D01*
X72765908Y-58002517D01*
X72760307Y-58054620D01*
X72759501Y-58062123D01*
X72759500Y-58062135D01*
X72759500Y-59757870D01*
X72759501Y-59757876D01*
X72765908Y-59817483D01*
X72816202Y-59952328D01*
X72816206Y-59952335D01*
X72902452Y-60067544D01*
X72902455Y-60067547D01*
X73017664Y-60153793D01*
X73017671Y-60153797D01*
X73062618Y-60170561D01*
X73152517Y-60204091D01*
X73187596Y-60207862D01*
X73252144Y-60234599D01*
X73291993Y-60291991D01*
X73294488Y-60361816D01*
X73258836Y-60421905D01*
X73245464Y-60432725D01*
X73220858Y-60449954D01*
X73059954Y-60610858D01*
X72929432Y-60797265D01*
X72929431Y-60797267D01*
X72833261Y-61003502D01*
X72833258Y-61003511D01*
X72774366Y-61223302D01*
X72774364Y-61223313D01*
X72754532Y-61449998D01*
X72754532Y-61450001D01*
X72774364Y-61676686D01*
X72774366Y-61676697D01*
X72833258Y-61896488D01*
X72833261Y-61896497D01*
X72929431Y-62102732D01*
X72929432Y-62102734D01*
X73059954Y-62289141D01*
X73220858Y-62450045D01*
X73220861Y-62450047D01*
X73407266Y-62580568D01*
X73462871Y-62606497D01*
X73465275Y-62607618D01*
X73517714Y-62653791D01*
X73536866Y-62720984D01*
X73516650Y-62787865D01*
X73465275Y-62832382D01*
X73407267Y-62859431D01*
X73407265Y-62859432D01*
X73220858Y-62989954D01*
X73059954Y-63150858D01*
X72929432Y-63337265D01*
X72929431Y-63337267D01*
X72833261Y-63543502D01*
X72833258Y-63543511D01*
X72774366Y-63763302D01*
X72774364Y-63763313D01*
X72754532Y-63989998D01*
X72754532Y-63990001D01*
X69968872Y-63990001D01*
X69916269Y-63793682D01*
X69916264Y-63793668D01*
X69820136Y-63587521D01*
X69820132Y-63587513D01*
X69769025Y-63514526D01*
X69087953Y-64195598D01*
X69075165Y-64114852D01*
X69017641Y-64001955D01*
X68928045Y-63912359D01*
X68815148Y-63854835D01*
X68734400Y-63842046D01*
X69415472Y-63160974D01*
X69342478Y-63109863D01*
X69136331Y-63013735D01*
X69136317Y-63013730D01*
X68916610Y-62954860D01*
X68916599Y-62954858D01*
X68690002Y-62935034D01*
X68689998Y-62935034D01*
X68463400Y-62954858D01*
X68463389Y-62954860D01*
X68243682Y-63013730D01*
X68243673Y-63013734D01*
X68037512Y-63109868D01*
X68037507Y-63109871D01*
X68024736Y-63118813D01*
X67958529Y-63141138D01*
X67890763Y-63124124D01*
X67854352Y-63091546D01*
X67847546Y-63082454D01*
X67847543Y-63082452D01*
X67815238Y-63058268D01*
X67773368Y-63002334D01*
X67768384Y-62932642D01*
X67791172Y-62883518D01*
X67854536Y-62800941D01*
X67915044Y-62654862D01*
X67920591Y-62612730D01*
X67935682Y-62498100D01*
X67931561Y-62466797D01*
X67930500Y-62450612D01*
X67930500Y-59566828D01*
X67950185Y-59499789D01*
X68002989Y-59454034D01*
X68072147Y-59444090D01*
X68112949Y-59457468D01*
X68205659Y-59507023D01*
X68398967Y-59565662D01*
X68600000Y-59585462D01*
X68801033Y-59565662D01*
X68994341Y-59507023D01*
X69172494Y-59411798D01*
X69328647Y-59283647D01*
X69456798Y-59127494D01*
X69513933Y-59020602D01*
X69552021Y-58949345D01*
X69552021Y-58949344D01*
X69552023Y-58949341D01*
X69610662Y-58756033D01*
X69625500Y-58605380D01*
X69625500Y-58054620D01*
X69610662Y-57903967D01*
X69552023Y-57710659D01*
X69552021Y-57710656D01*
X69552021Y-57710654D01*
X69456801Y-57532511D01*
X69456799Y-57532509D01*
X69456798Y-57532506D01*
X69417824Y-57485016D01*
X69328647Y-57376352D01*
X69175132Y-57250367D01*
X69172494Y-57248202D01*
X69172492Y-57248201D01*
X69172488Y-57248198D01*
X68994345Y-57152978D01*
X68801031Y-57094337D01*
X68600000Y-57074538D01*
X68398968Y-57094337D01*
X68205654Y-57152978D01*
X68023453Y-57250367D01*
X67955050Y-57264609D01*
X67906547Y-57250367D01*
X67724345Y-57152978D01*
X67531031Y-57094337D01*
X67330000Y-57074538D01*
X67128968Y-57094337D01*
X66990959Y-57136202D01*
X66935659Y-57152977D01*
X66935658Y-57152977D01*
X66934575Y-57153306D01*
X66864708Y-57153929D01*
X66835618Y-57139529D01*
X66835114Y-57140454D01*
X66827328Y-57136202D01*
X66692482Y-57085908D01*
X66692483Y-57085908D01*
X66632883Y-57079501D01*
X66632881Y-57079500D01*
X66632873Y-57079500D01*
X66632864Y-57079500D01*
X65487129Y-57079500D01*
X65487123Y-57079501D01*
X65427516Y-57085908D01*
X65292671Y-57136202D01*
X65292664Y-57136206D01*
X65177455Y-57222452D01*
X65177452Y-57222455D01*
X65091206Y-57337664D01*
X65091202Y-57337671D01*
X65040908Y-57472517D01*
X65034501Y-57532116D01*
X65034500Y-57532135D01*
X65034500Y-57605500D01*
X65014815Y-57672539D01*
X64962011Y-57718294D01*
X64910500Y-57729500D01*
X63032984Y-57729500D01*
X62965945Y-57709815D01*
X62920190Y-57657011D01*
X62910246Y-57587853D01*
X62931408Y-57534378D01*
X62960568Y-57492734D01*
X63056739Y-57286496D01*
X63115635Y-57066692D01*
X63135468Y-56840000D01*
X63133312Y-56815362D01*
X63121316Y-56678244D01*
X63115635Y-56613308D01*
X63056739Y-56393504D01*
X62960568Y-56187266D01*
X62848562Y-56027303D01*
X62830045Y-56000858D01*
X62710941Y-55881754D01*
X62677456Y-55820431D01*
X62682440Y-55750739D01*
X62702194Y-55720001D01*
X72554532Y-55720001D01*
X72574364Y-55946686D01*
X72574366Y-55946697D01*
X72633258Y-56166488D01*
X72633261Y-56166497D01*
X72729431Y-56372732D01*
X72729432Y-56372734D01*
X72859954Y-56559141D01*
X73020858Y-56720045D01*
X73020861Y-56720047D01*
X73207266Y-56850568D01*
X73413504Y-56946739D01*
X73633308Y-57005635D01*
X73795230Y-57019801D01*
X73859998Y-57025468D01*
X73860000Y-57025468D01*
X73860002Y-57025468D01*
X73916673Y-57020509D01*
X74086692Y-57005635D01*
X74306496Y-56946739D01*
X74512734Y-56850568D01*
X74699139Y-56720047D01*
X74860047Y-56559139D01*
X74990568Y-56372734D01*
X75086739Y-56166496D01*
X75145635Y-55946692D01*
X75165468Y-55720000D01*
X75164543Y-55709432D01*
X75158314Y-55638235D01*
X75145635Y-55493308D01*
X75094069Y-55300860D01*
X75086741Y-55273511D01*
X75086738Y-55273502D01*
X75024463Y-55139954D01*
X74990568Y-55067266D01*
X74860047Y-54880861D01*
X74860045Y-54880858D01*
X74699141Y-54719954D01*
X74512734Y-54589432D01*
X74512732Y-54589431D01*
X74306497Y-54493261D01*
X74306488Y-54493258D01*
X74086697Y-54434366D01*
X74086693Y-54434365D01*
X74086692Y-54434365D01*
X74086691Y-54434364D01*
X74086686Y-54434364D01*
X73860002Y-54414532D01*
X73859998Y-54414532D01*
X73633313Y-54434364D01*
X73633302Y-54434366D01*
X73413511Y-54493258D01*
X73413502Y-54493261D01*
X73207267Y-54589431D01*
X73207265Y-54589432D01*
X73020858Y-54719954D01*
X72859954Y-54880858D01*
X72729432Y-55067265D01*
X72729431Y-55067267D01*
X72633261Y-55273502D01*
X72633258Y-55273511D01*
X72574366Y-55493302D01*
X72574364Y-55493313D01*
X72554532Y-55719998D01*
X72554532Y-55720001D01*
X62702194Y-55720001D01*
X62710939Y-55706394D01*
X64240516Y-54176819D01*
X64301839Y-54143334D01*
X64328197Y-54140500D01*
X64385186Y-54140500D01*
X64385187Y-54140500D01*
X64385194Y-54140499D01*
X64632759Y-54103185D01*
X64632760Y-54103184D01*
X64632764Y-54103184D01*
X64872013Y-54029385D01*
X65052974Y-53942239D01*
X65097584Y-53920756D01*
X65097584Y-53920755D01*
X65097592Y-53920752D01*
X65304460Y-53779712D01*
X65487997Y-53609414D01*
X65644102Y-53413665D01*
X65769289Y-53196835D01*
X65860760Y-52963769D01*
X65916474Y-52719673D01*
X65918728Y-52689597D01*
X65935184Y-52470004D01*
X67584816Y-52470004D01*
X67603524Y-52719663D01*
X67603525Y-52719668D01*
X67659236Y-52963755D01*
X67659238Y-52963764D01*
X67659240Y-52963769D01*
X67750711Y-53196835D01*
X67875898Y-53413665D01*
X67890237Y-53431645D01*
X68032006Y-53609418D01*
X68128817Y-53699245D01*
X68215540Y-53779712D01*
X68422408Y-53920752D01*
X68422413Y-53920754D01*
X68422414Y-53920755D01*
X68422415Y-53920756D01*
X68472836Y-53945037D01*
X68647983Y-54029383D01*
X68647984Y-54029383D01*
X68647987Y-54029385D01*
X68887236Y-54103184D01*
X68887237Y-54103184D01*
X68887240Y-54103185D01*
X69134805Y-54140499D01*
X69134810Y-54140499D01*
X69134813Y-54140500D01*
X69134814Y-54140500D01*
X69385186Y-54140500D01*
X69385187Y-54140500D01*
X69385194Y-54140499D01*
X69632759Y-54103185D01*
X69632760Y-54103184D01*
X69632764Y-54103184D01*
X69872013Y-54029385D01*
X70052974Y-53942239D01*
X70097584Y-53920756D01*
X70097584Y-53920755D01*
X70097592Y-53920752D01*
X70304460Y-53779712D01*
X70487997Y-53609414D01*
X70644102Y-53413665D01*
X70769289Y-53196835D01*
X70860760Y-52963769D01*
X70916474Y-52719673D01*
X70918728Y-52689597D01*
X70935184Y-52470004D01*
X70935184Y-52469995D01*
X70916475Y-52220336D01*
X70916474Y-52220331D01*
X70916474Y-52220327D01*
X70860760Y-51976231D01*
X70769289Y-51743165D01*
X70644102Y-51526335D01*
X70487997Y-51330586D01*
X70487996Y-51330585D01*
X70487993Y-51330581D01*
X70304460Y-51160288D01*
X70260458Y-51130288D01*
X70097592Y-51019248D01*
X70097588Y-51019246D01*
X70097585Y-51019244D01*
X70097584Y-51019243D01*
X69872015Y-50910616D01*
X69872017Y-50910616D01*
X69632765Y-50836816D01*
X69632759Y-50836814D01*
X69385194Y-50799500D01*
X69385187Y-50799500D01*
X69134813Y-50799500D01*
X69134805Y-50799500D01*
X68887240Y-50836814D01*
X68887234Y-50836816D01*
X68647983Y-50910616D01*
X68422415Y-51019243D01*
X68422414Y-51019244D01*
X68215539Y-51160288D01*
X68032006Y-51330581D01*
X67875898Y-51526335D01*
X67750711Y-51743164D01*
X67659242Y-51976225D01*
X67659236Y-51976244D01*
X67603525Y-52220331D01*
X67603524Y-52220336D01*
X67584816Y-52469995D01*
X67584816Y-52470004D01*
X65935184Y-52470004D01*
X65935184Y-52469995D01*
X65916475Y-52220336D01*
X65916474Y-52220331D01*
X65916474Y-52220327D01*
X65860760Y-51976231D01*
X65769289Y-51743165D01*
X65644102Y-51526335D01*
X65487997Y-51330586D01*
X65487996Y-51330585D01*
X65487993Y-51330581D01*
X65304460Y-51160288D01*
X65260458Y-51130288D01*
X65097592Y-51019248D01*
X65097588Y-51019246D01*
X65097585Y-51019244D01*
X65097584Y-51019243D01*
X64872015Y-50910616D01*
X64872017Y-50910616D01*
X64632765Y-50836816D01*
X64632759Y-50836814D01*
X64385194Y-50799500D01*
X64385187Y-50799500D01*
X64134813Y-50799500D01*
X64134805Y-50799500D01*
X63887240Y-50836814D01*
X63887234Y-50836816D01*
X63647983Y-50910616D01*
X63422415Y-51019243D01*
X63422414Y-51019244D01*
X63215539Y-51160288D01*
X63032006Y-51330581D01*
X62875898Y-51526335D01*
X62750711Y-51743164D01*
X62659242Y-51976225D01*
X62659236Y-51976244D01*
X62603525Y-52220331D01*
X62603524Y-52220336D01*
X62584816Y-52469995D01*
X62584816Y-52470004D01*
X62603524Y-52719663D01*
X62603525Y-52719668D01*
X62659236Y-52963755D01*
X62659238Y-52963764D01*
X62659240Y-52963769D01*
X62750711Y-53196835D01*
X62875898Y-53413665D01*
X62890236Y-53431644D01*
X62997272Y-53565863D01*
X63023681Y-53630550D01*
X63010924Y-53699245D01*
X62988006Y-53730857D01*
X61438965Y-55279898D01*
X61426775Y-55290589D01*
X61401716Y-55309818D01*
X61319354Y-55417157D01*
X61319353Y-55417159D01*
X61305462Y-55435260D01*
X61244956Y-55581336D01*
X61240254Y-55617049D01*
X61211986Y-55680945D01*
X61181670Y-55706284D01*
X61181701Y-55706327D01*
X61181198Y-55706678D01*
X61179332Y-55708239D01*
X61177267Y-55709431D01*
X60990858Y-55839954D01*
X60829954Y-56000858D01*
X60699432Y-56187264D01*
X60694472Y-56197902D01*
X60648298Y-56250340D01*
X60581103Y-56269490D01*
X60514223Y-56249272D01*
X60494410Y-56233175D01*
X59896819Y-55635584D01*
X59863334Y-55574261D01*
X59860500Y-55547903D01*
X59860500Y-54112844D01*
X59880185Y-54045805D01*
X59930698Y-54001124D01*
X59980813Y-53976989D01*
X60097592Y-53920752D01*
X60304460Y-53779712D01*
X60487997Y-53609414D01*
X60644102Y-53413665D01*
X60769289Y-53196835D01*
X60860760Y-52963769D01*
X60916474Y-52719673D01*
X60918728Y-52689597D01*
X60935184Y-52470004D01*
X60935184Y-52469995D01*
X60916475Y-52220336D01*
X60916474Y-52220331D01*
X60916474Y-52220327D01*
X60860760Y-51976231D01*
X60769289Y-51743165D01*
X60644102Y-51526335D01*
X60487997Y-51330586D01*
X60487996Y-51330585D01*
X60487993Y-51330581D01*
X60304460Y-51160288D01*
X60260458Y-51130288D01*
X60097592Y-51019248D01*
X60097588Y-51019246D01*
X60097585Y-51019244D01*
X60097584Y-51019243D01*
X59872015Y-50910616D01*
X59872017Y-50910616D01*
X59632765Y-50836816D01*
X59632759Y-50836814D01*
X59385194Y-50799500D01*
X59385187Y-50799500D01*
X59134813Y-50799500D01*
X59134805Y-50799500D01*
X58887240Y-50836814D01*
X58887234Y-50836816D01*
X58647983Y-50910616D01*
X58422415Y-51019243D01*
X58422414Y-51019244D01*
X58215539Y-51160288D01*
X58032006Y-51330581D01*
X57875898Y-51526335D01*
X57750711Y-51743164D01*
X57659242Y-51976225D01*
X57659236Y-51976244D01*
X57603525Y-52220331D01*
X57603524Y-52220336D01*
X57584816Y-52469995D01*
X57584816Y-52470004D01*
X50499875Y-52470004D01*
X50500043Y-51805417D01*
X50500342Y-50624469D01*
X50520044Y-50557434D01*
X50572859Y-50511693D01*
X50624342Y-50500500D01*
X107375342Y-50500500D01*
X107442381Y-50520185D01*
G37*
%TD.AperFunction*%
%TA.AperFunction,Conductor*%
G36*
X51344835Y-69615148D02*
G01*
X51402359Y-69728045D01*
X51491955Y-69817641D01*
X51604852Y-69875165D01*
X51685599Y-69887953D01*
X51004526Y-70569025D01*
X51077513Y-70620132D01*
X51077521Y-70620136D01*
X51283668Y-70716264D01*
X51283682Y-70716269D01*
X51503389Y-70775139D01*
X51503400Y-70775141D01*
X51729998Y-70794966D01*
X51730002Y-70794966D01*
X51956599Y-70775141D01*
X51956607Y-70775140D01*
X52093600Y-70738433D01*
X52163450Y-70740096D01*
X52221313Y-70779258D01*
X52248817Y-70843487D01*
X52237231Y-70912389D01*
X52213375Y-70945889D01*
X51358965Y-71800298D01*
X51346775Y-71810989D01*
X51321716Y-71830218D01*
X51243403Y-71932281D01*
X51243402Y-71932282D01*
X51225464Y-71955657D01*
X51225461Y-71955663D01*
X51164957Y-72101734D01*
X51164955Y-72101739D01*
X51146240Y-72243901D01*
X51144318Y-72258500D01*
X51146267Y-72273302D01*
X51148439Y-72289801D01*
X51149500Y-72305987D01*
X51149500Y-74278306D01*
X51129815Y-74345345D01*
X51096623Y-74379881D01*
X50910859Y-74509953D01*
X50749953Y-74670859D01*
X50719836Y-74713872D01*
X50665259Y-74757497D01*
X50595761Y-74764691D01*
X50533406Y-74733168D01*
X50497992Y-74672938D01*
X50494261Y-74642718D01*
X50494273Y-74594109D01*
X50495351Y-70337144D01*
X50515052Y-70270113D01*
X50567867Y-70224372D01*
X50630158Y-70213651D01*
X50650974Y-70215472D01*
X51332046Y-69534400D01*
X51344835Y-69615148D01*
G37*
%TD.AperFunction*%
%TD*%
M02*
