%TF.GenerationSoftware,KiCad,Pcbnew,7.0.11+dfsg-1build4*%
%TF.CreationDate,2026-08-01T21:53:49-04:00*%
%TF.ProjectId,dynacomp,64796e61-636f-46d7-902e-6b696361645f,rev?*%
%TF.SameCoordinates,Original*%
%TF.FileFunction,Soldermask,Bot*%
%TF.FilePolarity,Negative*%
%FSLAX46Y46*%
G04 Gerber Fmt 4.6, Leading zero omitted, Abs format (unit mm)*
G04 Created by KiCad (PCBNEW 7.0.11+dfsg-1build4) date 2026-08-01 21:53:49*
%MOMM*%
%LPD*%
G01*
G04 APERTURE LIST*
%ADD10C,1.600000*%
%ADD11O,1.600000X1.600000*%
%ADD12R,1.600000X1.600000*%
%ADD13R,1.700000X1.700000*%
%ADD14O,1.700000X1.700000*%
%ADD15R,1.050000X1.500000*%
%ADD16O,1.050000X1.500000*%
%ADD17R,1.560000X1.560000*%
%ADD18C,1.560000*%
%ADD19C,2.340000*%
G04 APERTURE END LIST*
D10*
%TO.C,R8*%
X81700000Y-76630000D03*
D11*
X91860000Y-76630000D03*
%TD*%
D12*
%TO.C,D1*%
X60560000Y-63050000D03*
D11*
X52940000Y-63050000D03*
%TD*%
D10*
%TO.C,R1*%
X95900000Y-81670000D03*
D11*
X106060000Y-81670000D03*
%TD*%
D13*
%TO.C,J1*%
X74080000Y-87000000D03*
D14*
X76620000Y-87000000D03*
X79160000Y-87000000D03*
X81700000Y-87000000D03*
%TD*%
D10*
%TO.C,R7*%
X95920000Y-56140000D03*
D11*
X106080000Y-56140000D03*
%TD*%
D10*
%TO.C,C3*%
X87970000Y-56100000D03*
X92970000Y-56100000D03*
%TD*%
%TO.C,R5*%
X96000000Y-65450000D03*
D11*
X106160000Y-65450000D03*
%TD*%
D10*
%TO.C,R13*%
X51670000Y-56840000D03*
D11*
X61830000Y-56840000D03*
%TD*%
D10*
%TO.C,R15*%
X51770000Y-78740000D03*
D11*
X61930000Y-78740000D03*
%TD*%
D12*
%TO.C,C4*%
X82080000Y-71420000D03*
D10*
X84080000Y-71420000D03*
%TD*%
D15*
%TO.C,Q1*%
X89070000Y-69150000D03*
D16*
X90340000Y-69150000D03*
X91610000Y-69150000D03*
%TD*%
D10*
%TO.C,R6*%
X95920000Y-62160000D03*
D11*
X106080000Y-62160000D03*
%TD*%
D15*
%TO.C,Q2*%
X72660000Y-71400000D03*
D16*
X73930000Y-71400000D03*
X75200000Y-71400000D03*
%TD*%
D12*
%TO.C,U1*%
X74060000Y-58910000D03*
D11*
X74060000Y-61450000D03*
X74060000Y-63990000D03*
X74060000Y-66530000D03*
X81680000Y-66530000D03*
X81680000Y-63990000D03*
X81680000Y-61450000D03*
X81680000Y-58910000D03*
%TD*%
D10*
%TO.C,C7*%
X72380000Y-78840000D03*
X77380000Y-78840000D03*
%TD*%
%TO.C,R9*%
X81740000Y-79870000D03*
D11*
X91900000Y-79870000D03*
%TD*%
D15*
%TO.C,Q5*%
X66060000Y-58330000D03*
D16*
X67330000Y-58330000D03*
X68600000Y-58330000D03*
%TD*%
D12*
%TO.C,C10*%
X66257600Y-82510000D03*
D10*
X68757600Y-82510000D03*
%TD*%
D15*
%TO.C,Q3*%
X65850000Y-70530000D03*
D16*
X67120000Y-70530000D03*
X68390000Y-70530000D03*
%TD*%
D12*
%TO.C,D2*%
X60560000Y-60070000D03*
D11*
X52940000Y-60070000D03*
%TD*%
D10*
%TO.C,R16*%
X51870000Y-81910000D03*
D11*
X62030000Y-81910000D03*
%TD*%
D10*
%TO.C,C1*%
X98190000Y-84600000D03*
X103190000Y-84600000D03*
%TD*%
D12*
%TO.C,C11*%
X90114900Y-85890000D03*
D10*
X92114900Y-85890000D03*
%TD*%
%TO.C,C5*%
X98640000Y-59030000D03*
X103640000Y-59030000D03*
%TD*%
%TO.C,C6*%
X72450000Y-76150000D03*
X77450000Y-76150000D03*
%TD*%
%TO.C,R4*%
X95900000Y-68820000D03*
D11*
X106060000Y-68820000D03*
%TD*%
D10*
%TO.C,R11*%
X51730000Y-69490000D03*
D11*
X61890000Y-69490000D03*
%TD*%
D17*
%TO.C,RV1*%
X87780000Y-59350000D03*
D18*
X90280000Y-64350000D03*
X92780000Y-59350000D03*
%TD*%
D10*
%TO.C,C2*%
X98410000Y-71950000D03*
X103410000Y-71950000D03*
%TD*%
D12*
%TO.C,C8*%
X66690000Y-64240000D03*
D10*
X68690000Y-64240000D03*
%TD*%
%TO.C,R14*%
X51750000Y-75510000D03*
D11*
X61910000Y-75510000D03*
%TD*%
D10*
%TO.C,R12*%
X73860000Y-55720000D03*
D11*
X84020000Y-55720000D03*
%TD*%
D10*
%TO.C,R10*%
X51750000Y-66120000D03*
D11*
X61910000Y-66120000D03*
%TD*%
D10*
%TO.C,C9*%
X54370000Y-72500000D03*
X59370000Y-72500000D03*
%TD*%
%TO.C,R3*%
X95900000Y-74930000D03*
D11*
X106060000Y-74930000D03*
%TD*%
D10*
%TO.C,R2*%
X95900000Y-78380000D03*
D11*
X106060000Y-78380000D03*
%TD*%
D19*
%TO.C,RV2*%
X69260000Y-52470000D03*
X64260000Y-52470000D03*
X59260000Y-52470000D03*
%TD*%
D15*
%TO.C,Q4*%
X65780000Y-75770000D03*
D16*
X67050000Y-75770000D03*
X68320000Y-75770000D03*
%TD*%
D19*
%TO.C,RV3*%
X98660000Y-52440000D03*
X93660000Y-52440000D03*
X88660000Y-52440000D03*
%TD*%
M02*
