M48
; DRILL file {KiCad 7.0.11+dfsg-1build4} date Sun 25 Jan 2026 09:49:37 PM EST
; FORMAT={-:-/ absolute / metric / decimal}
; #@! TF.CreationDate,2026-01-25T21:49:37-05:00
; #@! TF.GenerationSoftware,Kicad,Pcbnew,7.0.11+dfsg-1build4
; #@! TF.FileFunction,Plated,1,2,PTH
FMAT,2
METRIC
; #@! TA.AperFunction,Plated,PTH,ViaDrill
T1C0.400
; #@! TA.AperFunction,Plated,PTH,ComponentDrill
T2C0.750
; #@! TA.AperFunction,Plated,PTH,ComponentDrill
T3C0.800
; #@! TA.AperFunction,Plated,PTH,ComponentDrill
T4C0.900
; #@! TA.AperFunction,Plated,PTH,ComponentDrill
T5C1.000
; #@! TA.AperFunction,Plated,PTH,ComponentDrill
T6C1.300
%
G90
G05
T1
X111.75Y-55.25
X131.75Y-91.95
T2
X137.3Y-63.65
X138.57Y-63.65
X139.84Y-63.65
X153.45Y-64.2
X154.72Y-64.2
X155.99Y-64.2
X164.75Y-64.1
X166.02Y-64.1
X167.29Y-64.1
T3
X112.13Y-88.75
X112.55Y-83.7
X113.45Y-66.2
X115.05Y-46.85
X115.95Y-66.2
X119.75Y-88.75
X120.17Y-83.7
X120.95Y-66.55
X122.67Y-46.85
X123.45Y-66.55
X126.95Y-87.25
X127.05Y-76.5
X128.7Y-66.9
X129.45Y-87.25
X129.55Y-76.5
X131.2Y-66.9
X136.75Y-74.95
X136.906Y-79.248
X136.95Y-83.1
X144.37Y-74.95
X144.526Y-79.248
X144.57Y-83.1
X150.88Y-74.75
X150.95Y-70.25
X150.95Y-79.0
X150.95Y-93.85
X151.05Y-88.95
X155.35Y-52.1
X158.5Y-74.75
X158.57Y-70.25
X158.57Y-79.0
X158.57Y-93.85
X158.67Y-88.95
X161.036Y-70.104
X161.036Y-74.7
X161.036Y-78.994
X162.97Y-52.1
X163.322Y-84.582
X164.084Y-92.71
X165.822Y-84.582
X166.584Y-92.71
X168.656Y-70.104
X168.656Y-74.7
X168.656Y-78.994
T4
X112.4Y-93.9
X112.6Y-78.1
X112.75Y-73.6
X120.02Y-93.9
X120.22Y-78.1
X120.37Y-73.6
X137.3Y-70.25
X144.92Y-70.25
T5
X116.372Y-51.7
X121.372Y-51.7
X130.5Y-95.45
X133.04Y-95.45
X135.58Y-95.45
X138.12Y-95.45
X138.35Y-87.55
X140.66Y-95.45
X143.35Y-87.55
X152.05Y-83.55
X156.35Y-47.45
X157.05Y-83.55
X161.35Y-47.45
T6
X114.6Y-58.15
X119.6Y-58.15
X124.6Y-58.15
X153.85Y-58.2
X158.85Y-58.2
X163.85Y-58.2
T5
X136.837Y-43.501G85X138.036Y-43.501
G05
X136.837Y-48.136G85X138.036Y-48.136
G05
X136.837Y-52.772G85X138.036Y-52.772
G05
M30
