  0
SECTION
  2
HEADER
  9
$ANGBASE
  50
0.0
  9
$ANGDIR
  70
1
  9
$MEASUREMENT
  70
1
  0
ENDSEC
  0
SECTION
  2
TABLES
  0
TABLE
  2
LTYPE
  70
4
  0
LTYPE
  5
40F
  2
CONTINUOUS
  70
0
  3
Solid line
  72
65
  73
0
  40
0.0
  0
LTYPE
  5
410
  2
DASHDOT
 70
0
  3
Dash Dot ____ _ ____ _
 72
65
 73
4
 40
2.0
 49
1.25
 49
-0.25
 49
0.25
 49
-0.25
  0
LTYPE
  5
411
  2
DASHED
 70
0
  3
Dashed __ __ __ __ __
 72
65
 73
2
 40
0.75
 49
0.5
 49
-0.25
  0
LTYPE
  5
43B
  2
DOTTED
 70
0
  3
Dotted .  .  .  .
 72
65
 73
2
 40
0.2
 49
0.0
 49
-0.2
  0
ENDTAB
  0
TABLE
  2
STYLE
  70
4
  0
STYLE
  2
KICAD
  70
0
  40
0
  41
1
  42
1
  50
0
  71
0
  3
isocp.shx
  0
STYLE
  2
KICADB
  70
0
  40
0
  41
1
  42
1
  50
0
  71
0
  3
isocp.shx
  0
STYLE
  2
KICADI
  70
0
  40
0
  41
1
  42
1
  50
15
  71
0
  3
isocp.shx
  0
STYLE
  2
KICADBI
  70
0
  40
0
  41
1
  42
1
  50
15
  71
0
  3
isocp.shx
  0
ENDTAB
  0
TABLE
  2
LAYER
  70
1
  0
LAYER
  2
BLACK
  70
0
  62
7
  6
CONTINUOUS
  0
ENDTAB
  0
ENDSEC
  0
SECTION
  2
ENTITIES
0
LINE
8
BLACK
6
CONTINUOUS
10
170.9419999999999789
20
-40.6400000000000006
11
170.9419999999999789
21
-98.0439999999999969
0
LINE
8
BLACK
6
CONTINUOUS
10
109.2199999999999989
20
-40.6400000000000006
11
170.9419999999999789
21
-40.6400000000000006
0
LINE
8
BLACK
6
CONTINUOUS
10
109.2199999999999989
20
-97.789999999999992
11
109.2199999999999989
21
-40.6400000000000006
0
LINE
8
BLACK
6
CONTINUOUS
10
170.9419999999999789
20
-98.0439999999999969
11
109.2199999999999989
21
-97.789999999999992
0
LINE
8
BLACK
6
CONTINUOUS
10
111.8027680000000004
20
-101.1838379999999944
11
111.8027680000000004
21
-99.1838379999999944
0
LINE
8
BLACK
6
CONTINUOUS
10
111.8027680000000004
20
-99.1838379999999944
11
112.2789579999999887
21
-99.1838379999999944
0
LINE
8
BLACK
6
CONTINUOUS
10
112.2789579999999887
20
-99.1838379999999944
11
112.5646729999999991
21
-99.2790759999999892
0
LINE
8
BLACK
6
CONTINUOUS
10
112.5646729999999991
20
-99.2790759999999892
11
112.7551489999999887
21
-99.4695519999999931
0
LINE
8
BLACK
6
CONTINUOUS
10
112.7551489999999887
20
-99.4695519999999931
11
112.8503869999999978
21
-99.660027999999997
0
LINE
8
BLACK
6
CONTINUOUS
10
112.8503869999999978
20
-99.660027999999997
11
112.9456249999999926
21
-100.0409799999999905
0
LINE
8
BLACK
6
CONTINUOUS
10
112.9456249999999926
20
-100.0409799999999905
11
112.9456249999999926
21
-100.3266950000000008
0
LINE
8
BLACK
6
CONTINUOUS
10
112.9456249999999926
20
-100.3266950000000008
11
112.8503869999999978
21
-100.7076469999999944
0
LINE
8
BLACK
6
CONTINUOUS
10
112.8503869999999978
20
-100.7076469999999944
11
112.7551489999999887
21
-100.8981229999999982
0
LINE
8
BLACK
6
CONTINUOUS
10
112.7551489999999887
20
-100.8981229999999982
11
112.5646729999999991
21
-101.0885999999999996
0
LINE
8
BLACK
6
CONTINUOUS
10
112.5646729999999991
20
-101.0885999999999996
11
112.2789579999999887
21
-101.1838379999999944
0
LINE
8
BLACK
6
CONTINUOUS
10
112.2789579999999887
20
-101.1838379999999944
11
111.8027680000000004
21
-101.1838379999999944
0
LINE
8
BLACK
6
CONTINUOUS
10
113.8027680000000004
20
-101.1838379999999944
11
113.8027680000000004
21
-99.8505040000000008
0
LINE
8
BLACK
6
CONTINUOUS
10
113.8027680000000004
20
-100.2314569999999918
11
113.8980059999999952
21
-100.0409799999999905
0
LINE
8
BLACK
6
CONTINUOUS
10
113.8980059999999952
20
-100.0409799999999905
11
113.99324399999999
21
-99.9457419999999956
0
LINE
8
BLACK
6
CONTINUOUS
10
113.99324399999999
20
-99.9457419999999956
11
114.1837199999999939
21
-99.8505040000000008
0
LINE
8
BLACK
6
CONTINUOUS
10
114.1837199999999939
20
-99.8505040000000008
11
114.3741969999999952
21
-99.8505040000000008
0
LINE
8
BLACK
6
CONTINUOUS
10
115.0408630000000016
20
-101.1838379999999944
11
115.0408630000000016
21
-99.8505040000000008
0
LINE
8
BLACK
6
CONTINUOUS
10
115.0408630000000016
20
-99.1838379999999944
11
114.9456249999999926
21
-99.2790759999999892
0
LINE
8
BLACK
6
CONTINUOUS
10
114.9456249999999926
20
-99.2790759999999892
11
115.0408630000000016
21
-99.3743139999999983
0
LINE
8
BLACK
6
CONTINUOUS
10
115.0408630000000016
20
-99.3743139999999983
11
115.1361009999999965
21
-99.2790759999999892
0
LINE
8
BLACK
6
CONTINUOUS
10
115.1361009999999965
20
-99.2790759999999892
11
115.0408630000000016
21
-99.1838379999999944
0
LINE
8
BLACK
6
CONTINUOUS
10
115.0408630000000016
20
-99.1838379999999944
11
115.0408630000000016
21
-99.3743139999999983
0
LINE
8
BLACK
6
CONTINUOUS
10
116.2789579999999887
20
-101.1838379999999944
11
116.0884819999999991
21
-101.0885999999999996
0
LINE
8
BLACK
6
CONTINUOUS
10
116.0884819999999991
20
-101.0885999999999996
11
115.99324399999999
21
-100.8981229999999982
0
LINE
8
BLACK
6
CONTINUOUS
10
115.99324399999999
20
-100.8981229999999982
11
115.99324399999999
21
-99.1838379999999944
0
LINE
8
BLACK
6
CONTINUOUS
10
117.3265770000000003
20
-101.1838379999999944
11
117.1361009999999965
21
-101.0885999999999996
0
LINE
8
BLACK
6
CONTINUOUS
10
117.1361009999999965
20
-101.0885999999999996
11
117.0408630000000016
21
-100.8981229999999982
0
LINE
8
BLACK
6
CONTINUOUS
10
117.0408630000000016
20
-100.8981229999999982
11
117.0408630000000016
21
-99.1838379999999944
0
LINE
8
BLACK
6
CONTINUOUS
10
119.6122919999999965
20
-101.1838379999999944
11
119.6122919999999965
21
-99.1838379999999944
0
LINE
8
BLACK
6
CONTINUOUS
10
119.6122919999999965
20
-99.1838379999999944
11
120.2789590000000004
21
-100.6124089999999995
0
LINE
8
BLACK
6
CONTINUOUS
10
120.2789590000000004
20
-100.6124089999999995
11
120.9456249999999926
21
-99.1838379999999944
0
LINE
8
BLACK
6
CONTINUOUS
10
120.9456249999999926
20
-99.1838379999999944
11
120.9456249999999926
21
-101.1838379999999944
0
LINE
8
BLACK
6
CONTINUOUS
10
122.7551489999999887
20
-101.1838379999999944
11
122.7551489999999887
21
-100.136218999999997
0
LINE
8
BLACK
6
CONTINUOUS
10
122.7551489999999887
20
-100.136218999999997
11
122.6599109999999939
21
-99.9457419999999956
0
LINE
8
BLACK
6
CONTINUOUS
10
122.6599109999999939
20
-99.9457419999999956
11
122.4694349999999901
21
-99.8505040000000008
0
LINE
8
BLACK
6
CONTINUOUS
10
122.4694349999999901
20
-99.8505040000000008
11
122.0884819999999991
21
-99.8505040000000008
0
LINE
8
BLACK
6
CONTINUOUS
10
122.0884819999999991
20
-99.8505040000000008
11
121.8980059999999952
21
-99.9457419999999956
0
LINE
8
BLACK
6
CONTINUOUS
10
122.7551489999999887
20
-101.0885999999999996
11
122.5646729999999991
21
-101.1838379999999944
0
LINE
8
BLACK
6
CONTINUOUS
10
122.5646729999999991
20
-101.1838379999999944
11
122.0884819999999991
21
-101.1838379999999944
0
LINE
8
BLACK
6
CONTINUOUS
10
122.0884819999999991
20
-101.1838379999999944
11
121.8980059999999952
21
-101.0885999999999996
0
LINE
8
BLACK
6
CONTINUOUS
10
121.8980059999999952
20
-101.0885999999999996
11
121.8027680000000004
21
-100.8981229999999982
0
LINE
8
BLACK
6
CONTINUOUS
10
121.8027680000000004
20
-100.8981229999999982
11
121.8027680000000004
21
-100.7076469999999944
0
LINE
8
BLACK
6
CONTINUOUS
10
121.8027680000000004
20
-100.7076469999999944
11
121.8980059999999952
21
-100.5171709999999905
0
LINE
8
BLACK
6
CONTINUOUS
10
121.8980059999999952
20
-100.5171709999999905
11
122.0884819999999991
21
-100.4219329999999957
0
LINE
8
BLACK
6
CONTINUOUS
10
122.0884819999999991
20
-100.4219329999999957
11
122.5646729999999991
21
-100.4219329999999957
0
LINE
8
BLACK
6
CONTINUOUS
10
122.5646729999999991
20
-100.4219329999999957
11
122.7551489999999887
21
-100.3266950000000008
0
LINE
8
BLACK
6
CONTINUOUS
10
123.7075299999999913
20
-99.8505040000000008
11
123.7075299999999913
21
-101.8505040000000008
0
LINE
8
BLACK
6
CONTINUOUS
10
123.7075299999999913
20
-99.9457419999999956
11
123.8980059999999952
21
-99.8505040000000008
0
LINE
8
BLACK
6
CONTINUOUS
10
123.8980059999999952
20
-99.8505040000000008
11
124.2789590000000004
21
-99.8505040000000008
0
LINE
8
BLACK
6
CONTINUOUS
10
124.2789590000000004
20
-99.8505040000000008
11
124.4694349999999901
21
-99.9457419999999956
0
LINE
8
BLACK
6
CONTINUOUS
10
124.4694349999999901
20
-99.9457419999999956
11
124.5646729999999991
21
-100.0409799999999905
0
LINE
8
BLACK
6
CONTINUOUS
10
124.5646729999999991
20
-100.0409799999999905
11
124.6599109999999939
21
-100.2314569999999918
0
LINE
8
BLACK
6
CONTINUOUS
10
124.6599109999999939
20
-100.2314569999999918
11
124.6599109999999939
21
-100.8028849999999892
0
LINE
8
BLACK
6
CONTINUOUS
10
124.6599109999999939
20
-100.8028849999999892
11
124.5646729999999991
21
-100.9933609999999931
0
LINE
8
BLACK
6
CONTINUOUS
10
124.5646729999999991
20
-100.9933609999999931
11
124.4694349999999901
21
-101.0885999999999996
0
LINE
8
BLACK
6
CONTINUOUS
10
124.4694349999999901
20
-101.0885999999999996
11
124.2789590000000004
21
-101.1838379999999944
0
LINE
8
BLACK
6
CONTINUOUS
10
124.2789590000000004
20
-101.1838379999999944
11
123.8980059999999952
21
-101.1838379999999944
0
LINE
8
BLACK
6
CONTINUOUS
10
123.8980059999999952
20
-101.1838379999999944
11
123.7075299999999913
21
-101.0885999999999996
0
LINE
8
BLACK
6
CONTINUOUS
10
125.5170539999999875
20
-100.9933609999999931
11
125.6122919999999965
21
-101.0885999999999996
0
LINE
8
BLACK
6
CONTINUOUS
10
125.6122919999999965
20
-101.0885999999999996
11
125.5170539999999875
21
-101.1838379999999944
0
LINE
8
BLACK
6
CONTINUOUS
10
125.5170539999999875
20
-101.1838379999999944
11
125.4218159999999926
21
-101.0885999999999996
0
LINE
8
BLACK
6
CONTINUOUS
10
125.4218159999999926
20
-101.0885999999999996
11
125.5170539999999875
21
-100.9933609999999931
0
LINE
8
BLACK
6
CONTINUOUS
10
125.5170539999999875
20
-100.9933609999999931
11
125.5170539999999875
21
-101.1838379999999944
0
LINE
8
BLACK
6
CONTINUOUS
10
125.5170539999999875
20
-99.9457419999999956
11
125.6122919999999965
21
-100.0409799999999905
0
LINE
8
BLACK
6
CONTINUOUS
10
125.6122919999999965
20
-100.0409799999999905
11
125.5170539999999875
21
-100.136218999999997
0
LINE
8
BLACK
6
CONTINUOUS
10
125.5170539999999875
20
-100.136218999999997
11
125.4218159999999926
21
-100.0409799999999905
0
LINE
8
BLACK
6
CONTINUOUS
10
125.4218159999999926
20
-100.0409799999999905
11
125.5170539999999875
21
-99.9457419999999956
0
LINE
8
BLACK
6
CONTINUOUS
10
125.5170539999999875
20
-99.9457419999999956
11
125.5170539999999875
21
-100.136218999999997
  0
ENDSEC
  0
EOF
