G04 #@! TF.GenerationSoftware,KiCad,Pcbnew,7.0.11+dfsg-1build4*
G04 #@! TF.CreationDate,2026-05-02T22:17:38-04:00*
G04 #@! TF.ProjectId,deep_blue_delay,64656570-5f62-46c7-9565-5f64656c6179,rev?*
G04 #@! TF.SameCoordinates,Original*
G04 #@! TF.FileFunction,Soldermask,Top*
G04 #@! TF.FilePolarity,Negative*
%FSLAX46Y46*%
G04 Gerber Fmt 4.6, Leading zero omitted, Abs format (unit mm)*
G04 Created by KiCad (PCBNEW 7.0.11+dfsg-1build4) date 2026-05-02 22:17:38*
%MOMM*%
%LPD*%
G01*
G04 APERTURE LIST*
%ADD10R,1.600000X1.600000*%
%ADD11C,1.600000*%
%ADD12R,1.700000X1.700000*%
%ADD13O,1.700000X1.700000*%
%ADD14O,1.600000X1.600000*%
%ADD15R,3.500120X3.500120*%
%ADD16C,3.500120*%
%ADD17R,1.800000X1.800000*%
%ADD18O,1.800000X1.800000*%
%ADD19R,1.050000X1.500000*%
%ADD20O,1.050000X1.500000*%
G04 APERTURE END LIST*
D10*
X128016000Y-91948000D03*
D11*
X130016000Y-91948000D03*
X131064000Y-76708000D03*
X136064000Y-76708000D03*
X101600000Y-99568000D03*
X101600000Y-104568000D03*
D10*
X124365000Y-98425000D03*
D11*
X126865000Y-98425000D03*
X101854000Y-90170000D03*
X101854000Y-95170000D03*
X135890000Y-72644000D03*
X130890000Y-72644000D03*
X105664000Y-79756000D03*
X105664000Y-84756000D03*
X115824000Y-96774000D03*
X120824000Y-96774000D03*
X115570000Y-91948000D03*
X120570000Y-91948000D03*
X110744000Y-77216000D03*
X110744000Y-72216000D03*
D10*
X145034000Y-59944000D03*
D11*
X145034000Y-57444000D03*
D10*
X134707621Y-90424000D03*
D11*
X136707621Y-90424000D03*
X135890000Y-80518000D03*
X130890000Y-80518000D03*
X105664000Y-77216000D03*
X105664000Y-72216000D03*
X116332000Y-57404000D03*
X116332000Y-62404000D03*
D10*
X123190000Y-59944000D03*
D11*
X123190000Y-57944000D03*
X110998000Y-84836000D03*
X110998000Y-79836000D03*
D10*
X137922000Y-59944000D03*
D11*
X137922000Y-57944000D03*
D12*
X124460000Y-104648000D03*
D13*
X127000000Y-104648000D03*
X129540000Y-104648000D03*
X132080000Y-104648000D03*
D11*
X138684000Y-84582000D03*
D14*
X128524000Y-84582000D03*
D11*
X102616000Y-57912000D03*
D14*
X112776000Y-57912000D03*
D11*
X142240000Y-88138000D03*
D14*
X152400000Y-88138000D03*
D11*
X152400000Y-91948000D03*
D14*
X142240000Y-91948000D03*
D11*
X138938000Y-65024000D03*
D14*
X128778000Y-65024000D03*
D11*
X138684000Y-68580000D03*
D14*
X128524000Y-68580000D03*
D11*
X112776000Y-61722000D03*
D14*
X102616000Y-61722000D03*
D11*
X142240000Y-77470000D03*
D14*
X152400000Y-77470000D03*
D11*
X142240000Y-84328000D03*
D14*
X152400000Y-84328000D03*
D11*
X115570000Y-83820000D03*
D14*
X125730000Y-83820000D03*
D11*
X115570000Y-76708000D03*
D14*
X125730000Y-76708000D03*
D11*
X152400000Y-81026000D03*
D14*
X142240000Y-81026000D03*
D11*
X125730000Y-80264000D03*
D14*
X115570000Y-80264000D03*
D11*
X115570000Y-72898000D03*
D14*
X125730000Y-72898000D03*
D11*
X112776000Y-65278000D03*
D14*
X102616000Y-65278000D03*
D11*
X125730000Y-65786000D03*
D14*
X115570000Y-65786000D03*
D11*
X115570000Y-69342000D03*
D14*
X125730000Y-69342000D03*
D11*
X102616000Y-68834000D03*
D14*
X112776000Y-68834000D03*
D11*
X115570000Y-87630000D03*
D14*
X125730000Y-87630000D03*
D15*
X131826000Y-52832000D03*
D16*
X127381000Y-52832000D03*
X122936000Y-52832000D03*
D15*
X114300000Y-53086000D03*
D16*
X109855000Y-53086000D03*
X105410000Y-53086000D03*
D10*
X105156000Y-87884000D03*
D14*
X105156000Y-90424000D03*
X105156000Y-92964000D03*
X105156000Y-95504000D03*
X105156000Y-98044000D03*
X105156000Y-100584000D03*
X105156000Y-103124000D03*
X105156000Y-105664000D03*
X112776000Y-105664000D03*
X112776000Y-103124000D03*
X112776000Y-100584000D03*
X112776000Y-98044000D03*
X112776000Y-95504000D03*
X112776000Y-92964000D03*
X112776000Y-90424000D03*
X112776000Y-87884000D03*
D10*
X142748000Y-66040000D03*
D14*
X142748000Y-68580000D03*
X142748000Y-71120000D03*
X142748000Y-73660000D03*
X150368000Y-73660000D03*
X150368000Y-71120000D03*
X150368000Y-68580000D03*
X150368000Y-66040000D03*
D15*
X148844000Y-52832000D03*
D16*
X144399000Y-52832000D03*
X139954000Y-52832000D03*
D11*
X150622000Y-57404000D03*
X150622000Y-62404000D03*
D10*
X130810000Y-60198000D03*
D11*
X130810000Y-58198000D03*
X116078000Y-101600000D03*
X121078000Y-101600000D03*
D10*
X138176000Y-97028000D03*
D11*
X140176000Y-97028000D03*
D17*
X152400000Y-96266000D03*
D18*
X144780000Y-96266000D03*
D19*
X131038600Y-99191400D03*
D20*
X132308600Y-99191400D03*
X133578600Y-99191400D03*
M02*
