G04 #@! TF.GenerationSoftware,KiCad,Pcbnew,7.0.11+dfsg-1build4*
G04 #@! TF.CreationDate,2026-02-05T22:23:50-05:00*
G04 #@! TF.ProjectId,sftii,73667469-692e-46b6-9963-61645f706362,rev?*
G04 #@! TF.SameCoordinates,Original*
G04 #@! TF.FileFunction,Copper,L2,Bot*
G04 #@! TF.FilePolarity,Positive*
%FSLAX46Y46*%
G04 Gerber Fmt 4.6, Leading zero omitted, Abs format (unit mm)*
G04 Created by KiCad (PCBNEW 7.0.11+dfsg-1build4) date 2026-02-05 22:23:50*
%MOMM*%
%LPD*%
G01*
G04 APERTURE LIST*
G04 Aperture macros list*
%AMRoundRect*
0 Rectangle with rounded corners*
0 $1 Rounding radius*
0 $2 $3 $4 $5 $6 $7 $8 $9 X,Y pos of 4 corners*
0 Add a 4 corners polygon primitive as box body*
4,1,4,$2,$3,$4,$5,$6,$7,$8,$9,$2,$3,0*
0 Add four circle primitives for the rounded corners*
1,1,$1+$1,$2,$3*
1,1,$1+$1,$4,$5*
1,1,$1+$1,$6,$7*
1,1,$1+$1,$8,$9*
0 Add four rect primitives between the rounded corners*
20,1,$1+$1,$2,$3,$4,$5,0*
20,1,$1+$1,$4,$5,$6,$7,0*
20,1,$1+$1,$6,$7,$8,$9,0*
20,1,$1+$1,$8,$9,$2,$3,0*%
G04 Aperture macros list end*
G04 #@! TA.AperFunction,ComponentPad*
%ADD10R,1.600000X1.600000*%
G04 #@! TD*
G04 #@! TA.AperFunction,ComponentPad*
%ADD11C,1.600000*%
G04 #@! TD*
G04 #@! TA.AperFunction,ComponentPad*
%ADD12R,1.200000X1.200000*%
G04 #@! TD*
G04 #@! TA.AperFunction,ComponentPad*
%ADD13C,1.200000*%
G04 #@! TD*
G04 #@! TA.AperFunction,ComponentPad*
%ADD14R,1.700000X1.700000*%
G04 #@! TD*
G04 #@! TA.AperFunction,ComponentPad*
%ADD15O,1.700000X1.700000*%
G04 #@! TD*
G04 #@! TA.AperFunction,ComponentPad*
%ADD16R,1.100000X1.800000*%
G04 #@! TD*
G04 #@! TA.AperFunction,ComponentPad*
%ADD17RoundRect,0.275000X-0.275000X-0.625000X0.275000X-0.625000X0.275000X0.625000X-0.275000X0.625000X0*%
G04 #@! TD*
G04 #@! TA.AperFunction,ComponentPad*
%ADD18RoundRect,0.275000X0.275000X0.625000X-0.275000X0.625000X-0.275000X-0.625000X0.275000X-0.625000X0*%
G04 #@! TD*
G04 #@! TA.AperFunction,ComponentPad*
%ADD19R,1.800000X1.100000*%
G04 #@! TD*
G04 #@! TA.AperFunction,ComponentPad*
%ADD20RoundRect,0.275000X0.625000X-0.275000X0.625000X0.275000X-0.625000X0.275000X-0.625000X-0.275000X0*%
G04 #@! TD*
G04 #@! TA.AperFunction,ComponentPad*
%ADD21O,1.600000X1.600000*%
G04 #@! TD*
G04 #@! TA.AperFunction,ComponentPad*
%ADD22C,2.340000*%
G04 #@! TD*
G04 #@! TA.AperFunction,Conductor*
%ADD23C,0.250000*%
G04 #@! TD*
G04 APERTURE END LIST*
D10*
X115547349Y-96500000D03*
D11*
X119047349Y-96500000D03*
X129540000Y-81280000D03*
X124540000Y-81280000D03*
D12*
X101854000Y-85852000D03*
D13*
X103854000Y-85852000D03*
D11*
X107442000Y-85598000D03*
X112442000Y-85598000D03*
X120142000Y-65532000D03*
X115142000Y-65532000D03*
X134366000Y-69850000D03*
X139366000Y-69850000D03*
D12*
X115824000Y-70612000D03*
D13*
X117824000Y-70612000D03*
D11*
X115570000Y-57150000D03*
X110570000Y-57150000D03*
X106934000Y-56642000D03*
X101934000Y-56642000D03*
X123444000Y-52578000D03*
X128444000Y-52578000D03*
X147066000Y-56642000D03*
X152066000Y-56642000D03*
D12*
X151130000Y-84836000D03*
D13*
X153130000Y-84836000D03*
D11*
X138938000Y-65786000D03*
X133938000Y-65786000D03*
D10*
X150908000Y-79857600D03*
D11*
X152908000Y-79857600D03*
X123952000Y-65278000D03*
X128952000Y-65278000D03*
X134620000Y-93472000D03*
X139620000Y-93472000D03*
D14*
X134112000Y-99060000D03*
D15*
X131572000Y-99060000D03*
X129032000Y-99060000D03*
X126492000Y-99060000D03*
X123952000Y-99060000D03*
D16*
X101600000Y-80664000D03*
D17*
X102870000Y-78594000D03*
X104140000Y-80664000D03*
D16*
X110490000Y-79864000D03*
D18*
X109220000Y-81934000D03*
X107950000Y-79864000D03*
D16*
X115570000Y-80410000D03*
D17*
X116840000Y-78340000D03*
X118110000Y-80410000D03*
D16*
X136144000Y-79610000D03*
D18*
X134874000Y-81680000D03*
X133604000Y-79610000D03*
D19*
X146704000Y-86614000D03*
D20*
X144634000Y-85344000D03*
X146704000Y-84074000D03*
D11*
X139700000Y-89408000D03*
D21*
X129540000Y-89408000D03*
D11*
X101854000Y-96520000D03*
D21*
X112014000Y-96520000D03*
D11*
X101600000Y-93472000D03*
D21*
X111760000Y-93472000D03*
D11*
X139700000Y-85852000D03*
D21*
X129540000Y-85852000D03*
D11*
X101854000Y-90170000D03*
D21*
X112014000Y-90170000D03*
D11*
X112014000Y-68326000D03*
D21*
X101854000Y-68326000D03*
D11*
X131064000Y-69596000D03*
D21*
X120904000Y-69596000D03*
D11*
X115062000Y-89662000D03*
D21*
X125222000Y-89662000D03*
D11*
X124968000Y-86106000D03*
D21*
X114808000Y-86106000D03*
D11*
X131318000Y-72898000D03*
D21*
X121158000Y-72898000D03*
D11*
X112268000Y-65024000D03*
D21*
X102108000Y-65024000D03*
D11*
X131318000Y-76454000D03*
D21*
X121158000Y-76454000D03*
D11*
X129540000Y-56642000D03*
D21*
X119380000Y-56642000D03*
D11*
X132588000Y-56642000D03*
D21*
X142748000Y-56642000D03*
D11*
X134874000Y-60706000D03*
D21*
X124714000Y-60706000D03*
D11*
X142748000Y-89662000D03*
D21*
X152908000Y-89662000D03*
D11*
X142494000Y-93218000D03*
D21*
X152654000Y-93218000D03*
D11*
X141732000Y-61214000D03*
D21*
X151892000Y-61214000D03*
D11*
X141732000Y-68580000D03*
D21*
X151892000Y-68580000D03*
D11*
X141732000Y-64770000D03*
D21*
X151892000Y-64770000D03*
D11*
X152654000Y-99822000D03*
D21*
X142494000Y-99822000D03*
D11*
X142494000Y-96520000D03*
D21*
X152654000Y-96520000D03*
D22*
X146020800Y-75381200D03*
X141020800Y-75381200D03*
X136020800Y-75381200D03*
X117348000Y-52324000D03*
X112348000Y-52324000D03*
X107348000Y-52324000D03*
X146050000Y-52324000D03*
X141050000Y-52324000D03*
X136050000Y-52324000D03*
X117369600Y-75482800D03*
X112369600Y-75482800D03*
X107369600Y-75482800D03*
D19*
X146704000Y-81026000D03*
D20*
X144634000Y-79756000D03*
X146704000Y-78486000D03*
D12*
X141224000Y-80010000D03*
D13*
X139224000Y-80010000D03*
D11*
X102108000Y-61214000D03*
D21*
X112268000Y-61214000D03*
D11*
X120396000Y-60960000D03*
X115396000Y-60960000D03*
X122275600Y-92964000D03*
D21*
X132435600Y-92964000D03*
D23*
X137545001Y-82031999D02*
X137545001Y-69393001D01*
X142748000Y-87234998D02*
X137545001Y-82031999D01*
X135222001Y-100235001D02*
X141368999Y-94088003D01*
X125127001Y-100235001D02*
X135222001Y-100235001D01*
X123952000Y-99060000D02*
X125127001Y-100235001D01*
X134737999Y-66585999D02*
X133938000Y-65786000D01*
X115933001Y-80373001D02*
X115570000Y-80010000D01*
X115062000Y-89662000D02*
X115933001Y-88790999D01*
X141948001Y-90461999D02*
X142748000Y-89662000D01*
X141368999Y-91041001D02*
X141948001Y-90461999D01*
X142748000Y-89662000D02*
X142748000Y-87234998D01*
X137545001Y-69393001D02*
X134737999Y-66585999D01*
X141368999Y-94088003D02*
X141368999Y-91041001D01*
X115933001Y-88790999D02*
X115933001Y-80373001D01*
X125790000Y-82530000D02*
X124540000Y-81280000D01*
X125790000Y-84526630D02*
X125790000Y-82530000D01*
X129540000Y-89408000D02*
X129540000Y-88276630D01*
X129540000Y-88276630D02*
X125790000Y-84526630D01*
X109743534Y-83159010D02*
X108696466Y-83159010D01*
X102653999Y-69125999D02*
X101854000Y-68326000D01*
X103745010Y-70217010D02*
X102653999Y-69125999D01*
X110490000Y-82412544D02*
X109743534Y-83159010D01*
X101854000Y-85852000D02*
X101854000Y-86702000D01*
X101929001Y-86777001D02*
X106262999Y-86777001D01*
X106262999Y-86777001D02*
X106642001Y-86397999D01*
X108696466Y-83159010D02*
X103745010Y-78207554D01*
X110490000Y-80264000D02*
X110490000Y-82412544D01*
X103745010Y-78207554D02*
X103745010Y-70217010D01*
X101854000Y-86702000D02*
X101929001Y-86777001D01*
X106642001Y-86397999D02*
X107442000Y-85598000D01*
X114808000Y-65532000D02*
X115142000Y-65532000D01*
X112014000Y-68326000D02*
X114808000Y-65532000D01*
X117115001Y-68470999D02*
X115824000Y-69762000D01*
X107696000Y-70612000D02*
X115824000Y-70612000D01*
X102108000Y-65024000D02*
X107696000Y-70612000D01*
X115824000Y-69762000D02*
X115824000Y-70612000D01*
X125000001Y-68470999D02*
X117115001Y-68470999D01*
X136144000Y-80010000D02*
X136144000Y-79614998D01*
X136144000Y-79614998D02*
X125000001Y-68470999D01*
X143873001Y-86331545D02*
X139224000Y-81682544D01*
X143873001Y-98442999D02*
X143873001Y-86331545D01*
X139224000Y-81682544D02*
X139224000Y-80858528D01*
X142494000Y-99822000D02*
X143873001Y-98442999D01*
X139224000Y-80858528D02*
X139224000Y-80010000D01*
X153779001Y-95394999D02*
X153779001Y-92198003D01*
X147929001Y-73111999D02*
X139295003Y-64478001D01*
X139295003Y-64478001D02*
X129751999Y-64478001D01*
X129751999Y-64478001D02*
X128952000Y-65278000D01*
X152654000Y-96520000D02*
X153779001Y-95394999D01*
X147929001Y-86348003D02*
X147929001Y-73111999D01*
X153779001Y-92198003D02*
X147929001Y-86348003D01*
X138370000Y-88444998D02*
X121698001Y-71772999D01*
X121698001Y-71772999D02*
X111013001Y-71772999D01*
X111013001Y-71772999D02*
X107348000Y-75438000D01*
X139620000Y-93472000D02*
X138370000Y-92222000D01*
X138370000Y-92222000D02*
X138370000Y-88444998D01*
X123414999Y-77045997D02*
X123414999Y-95982999D01*
X113843001Y-73942999D02*
X120312001Y-73942999D01*
X120312001Y-73942999D02*
X123414999Y-77045997D01*
X123414999Y-95982999D02*
X125642001Y-98210001D01*
X112348000Y-75438000D02*
X113843001Y-73942999D01*
X125642001Y-98210001D02*
X126492000Y-99060000D01*
X104195020Y-77857564D02*
X104195020Y-68776022D01*
X107871456Y-81534000D02*
X104195020Y-77857564D01*
X101308001Y-62013999D02*
X102108000Y-61214000D01*
X100982999Y-62339001D02*
X101308001Y-62013999D01*
X100982999Y-65564001D02*
X100982999Y-62339001D01*
X109220000Y-81534000D02*
X107871456Y-81534000D01*
X104195020Y-68776022D02*
X100982999Y-65564001D01*
X132435600Y-92659200D02*
X132435600Y-88747600D01*
X132435600Y-88747600D02*
X129540000Y-85852000D01*
G04 #@! TA.AperFunction,Conductor*
G36*
X154071351Y-50108502D02*
G01*
X154117844Y-50162158D01*
X154129224Y-50213259D01*
X154417560Y-79479346D01*
X154398230Y-79547660D01*
X154345035Y-79594679D01*
X154274864Y-79605475D01*
X154209996Y-79576620D01*
X154171025Y-79517275D01*
X154169859Y-79513198D01*
X154141813Y-79408531D01*
X154141811Y-79408526D01*
X154045086Y-79201098D01*
X153995100Y-79129710D01*
X153995098Y-79129710D01*
X153306727Y-79818081D01*
X153293165Y-79732452D01*
X153235641Y-79619555D01*
X153146045Y-79529959D01*
X153033148Y-79472435D01*
X152947516Y-79458872D01*
X153635888Y-78770499D01*
X153635888Y-78770498D01*
X153564501Y-78720513D01*
X153357073Y-78623788D01*
X153357068Y-78623786D01*
X153136000Y-78564551D01*
X153136004Y-78564551D01*
X152908000Y-78544604D01*
X152679997Y-78564551D01*
X152458931Y-78623786D01*
X152458926Y-78623788D01*
X152251498Y-78720513D01*
X152246080Y-78724307D01*
X152178804Y-78746988D01*
X152109945Y-78729697D01*
X152072951Y-78696597D01*
X152071261Y-78694339D01*
X152071259Y-78694338D01*
X152071259Y-78694337D01*
X151954207Y-78606712D01*
X151954202Y-78606710D01*
X151817204Y-78555611D01*
X151817196Y-78555609D01*
X151756649Y-78549100D01*
X151756638Y-78549100D01*
X150059362Y-78549100D01*
X150059350Y-78549100D01*
X149998803Y-78555609D01*
X149998795Y-78555611D01*
X149861797Y-78606710D01*
X149861792Y-78606712D01*
X149744738Y-78694338D01*
X149657112Y-78811392D01*
X149657110Y-78811397D01*
X149606011Y-78948395D01*
X149606009Y-78948403D01*
X149599500Y-79008950D01*
X149599500Y-80706249D01*
X149606009Y-80766796D01*
X149606011Y-80766804D01*
X149657110Y-80903802D01*
X149657112Y-80903807D01*
X149744738Y-81020861D01*
X149861792Y-81108487D01*
X149861794Y-81108488D01*
X149861796Y-81108489D01*
X149912125Y-81127261D01*
X149998795Y-81159588D01*
X149998803Y-81159590D01*
X150059350Y-81166099D01*
X150059355Y-81166099D01*
X150059362Y-81166100D01*
X150059368Y-81166100D01*
X151756632Y-81166100D01*
X151756638Y-81166100D01*
X151756645Y-81166099D01*
X151756649Y-81166099D01*
X151817196Y-81159590D01*
X151817199Y-81159589D01*
X151817201Y-81159589D01*
X151954204Y-81108489D01*
X152071261Y-81020861D01*
X152072950Y-81018605D01*
X152075204Y-81016916D01*
X152077637Y-81014485D01*
X152077986Y-81014834D01*
X152129784Y-80976057D01*
X152200600Y-80970990D01*
X152246093Y-80990900D01*
X152251503Y-80994688D01*
X152458926Y-81091411D01*
X152458931Y-81091413D01*
X152679999Y-81150648D01*
X152679995Y-81150648D01*
X152908000Y-81170595D01*
X153136002Y-81150648D01*
X153357068Y-81091413D01*
X153357073Y-81091411D01*
X153564497Y-80994688D01*
X153635888Y-80944699D01*
X153635888Y-80944697D01*
X152947518Y-80256327D01*
X153033148Y-80242765D01*
X153146045Y-80185241D01*
X153235641Y-80095645D01*
X153293165Y-79982748D01*
X153306727Y-79897118D01*
X153995097Y-80585488D01*
X153995099Y-80585488D01*
X154045088Y-80514097D01*
X154141811Y-80306673D01*
X154141813Y-80306669D01*
X154177024Y-80175260D01*
X154213976Y-80114637D01*
X154277836Y-80083616D01*
X154348331Y-80092044D01*
X154403078Y-80137247D01*
X154424695Y-80204872D01*
X154424725Y-80206630D01*
X154467841Y-84582938D01*
X154448511Y-84651252D01*
X154395316Y-84698271D01*
X154325145Y-84709067D01*
X154260277Y-84680212D01*
X154221306Y-84620867D01*
X154220657Y-84618660D01*
X154220388Y-84617716D01*
X154185628Y-84495544D01*
X154168076Y-84433854D01*
X154168070Y-84433839D01*
X154076506Y-84249954D01*
X154076502Y-84249949D01*
X154068096Y-84238818D01*
X154029230Y-84187350D01*
X153952702Y-84086009D01*
X153800883Y-83947608D01*
X153626223Y-83839463D01*
X153626222Y-83839462D01*
X153626218Y-83839460D01*
X153505019Y-83792508D01*
X153434656Y-83765249D01*
X153379807Y-83754996D01*
X153232718Y-83727500D01*
X153027282Y-83727500D01*
X152906119Y-83750149D01*
X152825343Y-83765249D01*
X152676921Y-83822748D01*
X152633782Y-83839460D01*
X152633781Y-83839460D01*
X152633780Y-83839461D01*
X152633776Y-83839463D01*
X152459115Y-83947609D01*
X152459112Y-83947611D01*
X152376552Y-84022875D01*
X152312735Y-84053986D01*
X152242229Y-84045656D01*
X152187419Y-84000530D01*
X152181075Y-83990138D01*
X152180891Y-83989802D01*
X152180889Y-83989796D01*
X152149310Y-83947611D01*
X152093261Y-83872738D01*
X151976207Y-83785112D01*
X151976202Y-83785110D01*
X151839204Y-83734011D01*
X151839196Y-83734009D01*
X151778649Y-83727500D01*
X151778638Y-83727500D01*
X150481362Y-83727500D01*
X150481350Y-83727500D01*
X150420803Y-83734009D01*
X150420795Y-83734011D01*
X150283797Y-83785110D01*
X150283792Y-83785112D01*
X150166738Y-83872738D01*
X150079112Y-83989792D01*
X150079110Y-83989797D01*
X150028011Y-84126795D01*
X150028009Y-84126803D01*
X150021500Y-84187350D01*
X150021500Y-85484649D01*
X150028009Y-85545196D01*
X150028011Y-85545204D01*
X150079110Y-85682202D01*
X150079112Y-85682207D01*
X150166738Y-85799261D01*
X150283792Y-85886887D01*
X150283794Y-85886888D01*
X150283796Y-85886889D01*
X150337045Y-85906750D01*
X150420795Y-85937988D01*
X150420803Y-85937990D01*
X150481350Y-85944499D01*
X150481355Y-85944499D01*
X150481362Y-85944500D01*
X150481368Y-85944500D01*
X151778632Y-85944500D01*
X151778638Y-85944500D01*
X151778645Y-85944499D01*
X151778649Y-85944499D01*
X151839196Y-85937990D01*
X151839199Y-85937989D01*
X151839201Y-85937989D01*
X151976204Y-85886889D01*
X152029689Y-85846851D01*
X152093261Y-85799261D01*
X152163075Y-85706000D01*
X152180889Y-85682204D01*
X152180892Y-85682194D01*
X152181075Y-85681862D01*
X152181356Y-85681580D01*
X152186290Y-85674990D01*
X152187237Y-85675699D01*
X152231274Y-85631657D01*
X152300647Y-85616560D01*
X152367169Y-85641366D01*
X152376552Y-85649125D01*
X152459112Y-85724388D01*
X152459115Y-85724390D01*
X152459117Y-85724391D01*
X152459118Y-85724392D01*
X152633782Y-85832540D01*
X152825345Y-85906751D01*
X153027282Y-85944500D01*
X153027285Y-85944500D01*
X153232715Y-85944500D01*
X153232718Y-85944500D01*
X153434655Y-85906751D01*
X153626218Y-85832540D01*
X153800882Y-85724392D01*
X153952701Y-85585991D01*
X154076503Y-85422050D01*
X154076504Y-85422046D01*
X154076506Y-85422045D01*
X154168070Y-85238160D01*
X154168069Y-85238160D01*
X154168074Y-85238152D01*
X154224294Y-85040559D01*
X154224294Y-85040555D01*
X154225453Y-85036483D01*
X154263333Y-84976436D01*
X154327664Y-84946402D01*
X154398020Y-84955914D01*
X154452065Y-85001955D01*
X154472637Y-85069723D01*
X154538712Y-91776299D01*
X154519382Y-91844613D01*
X154466187Y-91891632D01*
X154396016Y-91902428D01*
X154331148Y-91873573D01*
X154304264Y-91841678D01*
X154288862Y-91815635D01*
X154283543Y-91806640D01*
X154283542Y-91806639D01*
X154283540Y-91806636D01*
X154269219Y-91792315D01*
X154256378Y-91777282D01*
X154244472Y-91760895D01*
X154210406Y-91732713D01*
X154201627Y-91724724D01*
X153495358Y-91018455D01*
X153461332Y-90956143D01*
X153466397Y-90885328D01*
X153508944Y-90828492D01*
X153531204Y-90815165D01*
X153564749Y-90799523D01*
X153752300Y-90668198D01*
X153914198Y-90506300D01*
X154045523Y-90318749D01*
X154142284Y-90111243D01*
X154201543Y-89890087D01*
X154221498Y-89662000D01*
X154201543Y-89433913D01*
X154142284Y-89212757D01*
X154045523Y-89005251D01*
X153914198Y-88817700D01*
X153752300Y-88655802D01*
X153740746Y-88647712D01*
X153564749Y-88524477D01*
X153357246Y-88427717D01*
X153357240Y-88427715D01*
X153147458Y-88371504D01*
X153136087Y-88368457D01*
X152908000Y-88348502D01*
X152679913Y-88368457D01*
X152458759Y-88427715D01*
X152458753Y-88427717D01*
X152251250Y-88524477D01*
X152063703Y-88655799D01*
X152063697Y-88655804D01*
X151901804Y-88817697D01*
X151901795Y-88817708D01*
X151770477Y-89005250D01*
X151770475Y-89005254D01*
X151754833Y-89038798D01*
X151707915Y-89092082D01*
X151639638Y-89111542D01*
X151571678Y-89090999D01*
X151551544Y-89074641D01*
X148599406Y-86122503D01*
X148565380Y-86060191D01*
X148562501Y-86033408D01*
X148562501Y-73195854D01*
X148564250Y-73180013D01*
X148563957Y-73179986D01*
X148564702Y-73172093D01*
X148564703Y-73172090D01*
X148562563Y-73104013D01*
X148562501Y-73100054D01*
X148562501Y-73072148D01*
X148562501Y-73072143D01*
X148561993Y-73068129D01*
X148561062Y-73056296D01*
X148559674Y-73012110D01*
X148554023Y-72992663D01*
X148550013Y-72973299D01*
X148547475Y-72953202D01*
X148531194Y-72912083D01*
X148527356Y-72900872D01*
X148515019Y-72858406D01*
X148504707Y-72840969D01*
X148496011Y-72823220D01*
X148488553Y-72804382D01*
X148462553Y-72768597D01*
X148456060Y-72758713D01*
X148433543Y-72720637D01*
X148419215Y-72706309D01*
X148406385Y-72691288D01*
X148394473Y-72674892D01*
X148394470Y-72674890D01*
X148394470Y-72674889D01*
X148360395Y-72646699D01*
X148351617Y-72638711D01*
X144292907Y-68580000D01*
X150578502Y-68580000D01*
X150598457Y-68808087D01*
X150628370Y-68919722D01*
X150657715Y-69029240D01*
X150657717Y-69029246D01*
X150754477Y-69236749D01*
X150877971Y-69413117D01*
X150885802Y-69424300D01*
X151047700Y-69586198D01*
X151235251Y-69717523D01*
X151442757Y-69814284D01*
X151663913Y-69873543D01*
X151892000Y-69893498D01*
X152120087Y-69873543D01*
X152341243Y-69814284D01*
X152548749Y-69717523D01*
X152736300Y-69586198D01*
X152898198Y-69424300D01*
X153029523Y-69236749D01*
X153126284Y-69029243D01*
X153185543Y-68808087D01*
X153205498Y-68580000D01*
X153185543Y-68351913D01*
X153126284Y-68130757D01*
X153029523Y-67923251D01*
X152898198Y-67735700D01*
X152736300Y-67573802D01*
X152548749Y-67442477D01*
X152486622Y-67413507D01*
X152341246Y-67345717D01*
X152341240Y-67345715D01*
X152244520Y-67319799D01*
X152120087Y-67286457D01*
X151892000Y-67266502D01*
X151663913Y-67286457D01*
X151442759Y-67345715D01*
X151442753Y-67345717D01*
X151235250Y-67442477D01*
X151047703Y-67573799D01*
X151047697Y-67573804D01*
X150885804Y-67735697D01*
X150885799Y-67735703D01*
X150754477Y-67923250D01*
X150657717Y-68130753D01*
X150657716Y-68130757D01*
X150598457Y-68351913D01*
X150578502Y-68580000D01*
X144292907Y-68580000D01*
X141969574Y-66256667D01*
X141935548Y-66194355D01*
X141940613Y-66123540D01*
X141983160Y-66066704D01*
X142026053Y-66045867D01*
X142181243Y-66004284D01*
X142388749Y-65907523D01*
X142576300Y-65776198D01*
X142738198Y-65614300D01*
X142869523Y-65426749D01*
X142966284Y-65219243D01*
X143025543Y-64998087D01*
X143045498Y-64770000D01*
X143025543Y-64541913D01*
X143018600Y-64516000D01*
X150605917Y-64516000D01*
X151580314Y-64516000D01*
X151564359Y-64531955D01*
X151506835Y-64644852D01*
X151487014Y-64770000D01*
X151506835Y-64895148D01*
X151564359Y-65008045D01*
X151580314Y-65024000D01*
X150605918Y-65024000D01*
X150658186Y-65219068D01*
X150658188Y-65219073D01*
X150754912Y-65426498D01*
X150886184Y-65613974D01*
X150886189Y-65613980D01*
X151048019Y-65775810D01*
X151048025Y-65775815D01*
X151235501Y-65907087D01*
X151442926Y-66003811D01*
X151442931Y-66003813D01*
X151638000Y-66056081D01*
X151638000Y-65081686D01*
X151653955Y-65097641D01*
X151766852Y-65155165D01*
X151860519Y-65170000D01*
X151923481Y-65170000D01*
X152017148Y-65155165D01*
X152130045Y-65097641D01*
X152146000Y-65081686D01*
X152146000Y-66056081D01*
X152341068Y-66003813D01*
X152341073Y-66003811D01*
X152548498Y-65907087D01*
X152735974Y-65775815D01*
X152735980Y-65775810D01*
X152897810Y-65613980D01*
X152897815Y-65613974D01*
X153029087Y-65426498D01*
X153125811Y-65219073D01*
X153125813Y-65219068D01*
X153178082Y-65024000D01*
X152203686Y-65024000D01*
X152219641Y-65008045D01*
X152277165Y-64895148D01*
X152296986Y-64770000D01*
X152277165Y-64644852D01*
X152219641Y-64531955D01*
X152203686Y-64516000D01*
X153178082Y-64516000D01*
X153125813Y-64320931D01*
X153125811Y-64320926D01*
X153029087Y-64113501D01*
X152897815Y-63926025D01*
X152897810Y-63926019D01*
X152735980Y-63764189D01*
X152735974Y-63764184D01*
X152548498Y-63632912D01*
X152341073Y-63536188D01*
X152341071Y-63536187D01*
X152146000Y-63483917D01*
X152146000Y-64458314D01*
X152130045Y-64442359D01*
X152017148Y-64384835D01*
X151923481Y-64370000D01*
X151860519Y-64370000D01*
X151766852Y-64384835D01*
X151653955Y-64442359D01*
X151638000Y-64458314D01*
X151638000Y-63483917D01*
X151637999Y-63483917D01*
X151442928Y-63536187D01*
X151442926Y-63536188D01*
X151235501Y-63632912D01*
X151048025Y-63764184D01*
X151048019Y-63764189D01*
X150886189Y-63926019D01*
X150886184Y-63926025D01*
X150754912Y-64113501D01*
X150658188Y-64320926D01*
X150658186Y-64320931D01*
X150605917Y-64516000D01*
X143018600Y-64516000D01*
X142966284Y-64320757D01*
X142869523Y-64113251D01*
X142738198Y-63925700D01*
X142576300Y-63763802D01*
X142388749Y-63632477D01*
X142181246Y-63535717D01*
X142181240Y-63535715D01*
X142087771Y-63510670D01*
X141960087Y-63476457D01*
X141732000Y-63456502D01*
X141503913Y-63476457D01*
X141282759Y-63535715D01*
X141282753Y-63535717D01*
X141075250Y-63632477D01*
X140887703Y-63763799D01*
X140887697Y-63763804D01*
X140725804Y-63925697D01*
X140725799Y-63925703D01*
X140594477Y-64113250D01*
X140497717Y-64320753D01*
X140497716Y-64320756D01*
X140456134Y-64475942D01*
X140419182Y-64536564D01*
X140355321Y-64567586D01*
X140284827Y-64559157D01*
X140245332Y-64532425D01*
X139802247Y-64089340D01*
X139792282Y-64076902D01*
X139792055Y-64077091D01*
X139787004Y-64070985D01*
X139787003Y-64070983D01*
X139737351Y-64024357D01*
X139734508Y-64021601D01*
X139714780Y-64001872D01*
X139714774Y-64001867D01*
X139711570Y-63999381D01*
X139702559Y-63991684D01*
X139670328Y-63961418D01*
X139670322Y-63961414D01*
X139652566Y-63951652D01*
X139636050Y-63940803D01*
X139620044Y-63928387D01*
X139579467Y-63910828D01*
X139568810Y-63905606D01*
X139530066Y-63884307D01*
X139530063Y-63884306D01*
X139510439Y-63879267D01*
X139491739Y-63872865D01*
X139473148Y-63864820D01*
X139473146Y-63864819D01*
X139473144Y-63864819D01*
X139429477Y-63857902D01*
X139417858Y-63855496D01*
X139375033Y-63844501D01*
X139354779Y-63844501D01*
X139335069Y-63842950D01*
X139315060Y-63839781D01*
X139280521Y-63843046D01*
X139271042Y-63843942D01*
X139259184Y-63844501D01*
X129835848Y-63844501D01*
X129820009Y-63842752D01*
X129819982Y-63843046D01*
X129812090Y-63842300D01*
X129791409Y-63842950D01*
X129744032Y-63844439D01*
X129740074Y-63844501D01*
X129712143Y-63844501D01*
X129709956Y-63844777D01*
X129708110Y-63845010D01*
X129696303Y-63845938D01*
X129652109Y-63847327D01*
X129652104Y-63847328D01*
X129632659Y-63852978D01*
X129613301Y-63856987D01*
X129593206Y-63859525D01*
X129593204Y-63859526D01*
X129552082Y-63875806D01*
X129540858Y-63879648D01*
X129498409Y-63891981D01*
X129498403Y-63891983D01*
X129480965Y-63902296D01*
X129463219Y-63910990D01*
X129444380Y-63918449D01*
X129408613Y-63944435D01*
X129398697Y-63950949D01*
X129360633Y-63973460D01*
X129354373Y-63978317D01*
X129352455Y-63975844D01*
X129302873Y-64002886D01*
X129243541Y-64001459D01*
X129180090Y-63984457D01*
X128952000Y-63964502D01*
X128723913Y-63984457D01*
X128502759Y-64043715D01*
X128502753Y-64043717D01*
X128295250Y-64140477D01*
X128107703Y-64271799D01*
X128107697Y-64271804D01*
X127945804Y-64433697D01*
X127945799Y-64433703D01*
X127814477Y-64621250D01*
X127717717Y-64828753D01*
X127717715Y-64828759D01*
X127665400Y-65024000D01*
X127658457Y-65049913D01*
X127638502Y-65278000D01*
X127658457Y-65506087D01*
X127676643Y-65573958D01*
X127717715Y-65727240D01*
X127717717Y-65727246D01*
X127814477Y-65934749D01*
X127870029Y-66014086D01*
X127945802Y-66122300D01*
X128107700Y-66284198D01*
X128295251Y-66415523D01*
X128502757Y-66512284D01*
X128723913Y-66571543D01*
X128952000Y-66591498D01*
X129180087Y-66571543D01*
X129401243Y-66512284D01*
X129608749Y-66415523D01*
X129796300Y-66284198D01*
X129958198Y-66122300D01*
X130089523Y-65934749D01*
X130186284Y-65727243D01*
X130245543Y-65506087D01*
X130265498Y-65278000D01*
X130262915Y-65248481D01*
X130276904Y-65178878D01*
X130326303Y-65127886D01*
X130388436Y-65111501D01*
X132610974Y-65111501D01*
X132679095Y-65131503D01*
X132725588Y-65185159D01*
X132735692Y-65255433D01*
X132725169Y-65290751D01*
X132703717Y-65336754D01*
X132703715Y-65336759D01*
X132651400Y-65532000D01*
X132644457Y-65557913D01*
X132624502Y-65786000D01*
X132644457Y-66014087D01*
X132657709Y-66063543D01*
X132703715Y-66235240D01*
X132703717Y-66235246D01*
X132787781Y-66415522D01*
X132800477Y-66442749D01*
X132931802Y-66630300D01*
X133093700Y-66792198D01*
X133281251Y-66923523D01*
X133488757Y-67020284D01*
X133709913Y-67079543D01*
X133938000Y-67099498D01*
X134166087Y-67079543D01*
X134229541Y-67062540D01*
X134300516Y-67064228D01*
X134351247Y-67095151D01*
X136874596Y-69618500D01*
X136908622Y-69680812D01*
X136911501Y-69707595D01*
X136911501Y-73746615D01*
X136891499Y-73814736D01*
X136837843Y-73861229D01*
X136767569Y-73871333D01*
X136730832Y-73860137D01*
X136635755Y-73814351D01*
X136635736Y-73814343D01*
X136395359Y-73740197D01*
X136395351Y-73740195D01*
X136395349Y-73740195D01*
X136146586Y-73702700D01*
X135895014Y-73702700D01*
X135646251Y-73740195D01*
X135646249Y-73740195D01*
X135646240Y-73740197D01*
X135405863Y-73814343D01*
X135405851Y-73814348D01*
X135179194Y-73923501D01*
X135179187Y-73923505D01*
X134971344Y-74065211D01*
X134971332Y-74065221D01*
X134786925Y-74236323D01*
X134630066Y-74433019D01*
X134504281Y-74650886D01*
X134504279Y-74650890D01*
X134412371Y-74885070D01*
X134356394Y-75130326D01*
X134356393Y-75130331D01*
X134337593Y-75381200D01*
X134356393Y-75632069D01*
X134356394Y-75632073D01*
X134412371Y-75877329D01*
X134504279Y-76111509D01*
X134504281Y-76111513D01*
X134630066Y-76329380D01*
X134786925Y-76526076D01*
X134902486Y-76633299D01*
X134971338Y-76697184D01*
X134971344Y-76697188D01*
X135179187Y-76838894D01*
X135179194Y-76838898D01*
X135179197Y-76838900D01*
X135405855Y-76948053D01*
X135405858Y-76948053D01*
X135405863Y-76948056D01*
X135646240Y-77022202D01*
X135646242Y-77022202D01*
X135646251Y-77022205D01*
X135895014Y-77059700D01*
X135895018Y-77059700D01*
X136146582Y-77059700D01*
X136146586Y-77059700D01*
X136395349Y-77022205D01*
X136447408Y-77006147D01*
X136635736Y-76948056D01*
X136635737Y-76948055D01*
X136635745Y-76948053D01*
X136730834Y-76902260D01*
X136800884Y-76890726D01*
X136866053Y-76918894D01*
X136905647Y-76977825D01*
X136911501Y-77015783D01*
X136911501Y-78079381D01*
X136891499Y-78147502D01*
X136837843Y-78193995D01*
X136772036Y-78204659D01*
X136742657Y-78201501D01*
X136742641Y-78201500D01*
X136742638Y-78201500D01*
X136742632Y-78201500D01*
X135678596Y-78201500D01*
X135610475Y-78181498D01*
X135589501Y-78164595D01*
X131751232Y-74326325D01*
X131717206Y-74264013D01*
X131722271Y-74193197D01*
X131764818Y-74136362D01*
X131787078Y-74123035D01*
X131974747Y-74035524D01*
X131974747Y-74035523D01*
X131974749Y-74035523D01*
X132162300Y-73904198D01*
X132324198Y-73742300D01*
X132455523Y-73554749D01*
X132552284Y-73347243D01*
X132611543Y-73126087D01*
X132631498Y-72898000D01*
X132611543Y-72669913D01*
X132552284Y-72448757D01*
X132455523Y-72241251D01*
X132324198Y-72053700D01*
X132162300Y-71891802D01*
X131974749Y-71760477D01*
X131767246Y-71663717D01*
X131767240Y-71663715D01*
X131673771Y-71638670D01*
X131546087Y-71604457D01*
X131318000Y-71584502D01*
X131089913Y-71604457D01*
X130868759Y-71663715D01*
X130868753Y-71663717D01*
X130661250Y-71760477D01*
X130473703Y-71891799D01*
X130473697Y-71891804D01*
X130311804Y-72053697D01*
X130311799Y-72053703D01*
X130180477Y-72241250D01*
X130092964Y-72428922D01*
X130046046Y-72482207D01*
X129977769Y-72501668D01*
X129909809Y-72481126D01*
X129889674Y-72464767D01*
X127020907Y-69596000D01*
X129750502Y-69596000D01*
X129770457Y-69824087D01*
X129789056Y-69893498D01*
X129829715Y-70045240D01*
X129829717Y-70045246D01*
X129926477Y-70252749D01*
X129959032Y-70299243D01*
X130057802Y-70440300D01*
X130219700Y-70602198D01*
X130407251Y-70733523D01*
X130614757Y-70830284D01*
X130835913Y-70889543D01*
X131064000Y-70909498D01*
X131292087Y-70889543D01*
X131513243Y-70830284D01*
X131720749Y-70733523D01*
X131908300Y-70602198D01*
X132070198Y-70440300D01*
X132201523Y-70252749D01*
X132298284Y-70045243D01*
X132350600Y-69850000D01*
X133052502Y-69850000D01*
X133056307Y-69893497D01*
X133072457Y-70078086D01*
X133131715Y-70299240D01*
X133131717Y-70299246D01*
X133215731Y-70479414D01*
X133228477Y-70506749D01*
X133359802Y-70694300D01*
X133521700Y-70856198D01*
X133709251Y-70987523D01*
X133916757Y-71084284D01*
X134137913Y-71143543D01*
X134366000Y-71163498D01*
X134594087Y-71143543D01*
X134815243Y-71084284D01*
X135022749Y-70987523D01*
X135210300Y-70856198D01*
X135372198Y-70694300D01*
X135503523Y-70506749D01*
X135600284Y-70299243D01*
X135659543Y-70078087D01*
X135679498Y-69850000D01*
X135659543Y-69621913D01*
X135600284Y-69400757D01*
X135503523Y-69193251D01*
X135372198Y-69005700D01*
X135210300Y-68843802D01*
X135199320Y-68836114D01*
X135022749Y-68712477D01*
X134815246Y-68615717D01*
X134815240Y-68615715D01*
X134681950Y-68580000D01*
X134594087Y-68556457D01*
X134366000Y-68536502D01*
X134137913Y-68556457D01*
X133916759Y-68615715D01*
X133916753Y-68615717D01*
X133709250Y-68712477D01*
X133521703Y-68843799D01*
X133521697Y-68843804D01*
X133359804Y-69005697D01*
X133359799Y-69005703D01*
X133228477Y-69193250D01*
X133131717Y-69400753D01*
X133131715Y-69400759D01*
X133088749Y-69561110D01*
X133072457Y-69621913D01*
X133052502Y-69850000D01*
X132350600Y-69850000D01*
X132357543Y-69824087D01*
X132377498Y-69596000D01*
X132357543Y-69367913D01*
X132298284Y-69146757D01*
X132201523Y-68939251D01*
X132070198Y-68751700D01*
X131908300Y-68589802D01*
X131894301Y-68580000D01*
X131720749Y-68458477D01*
X131513246Y-68361717D01*
X131513240Y-68361715D01*
X131379950Y-68326000D01*
X131292087Y-68302457D01*
X131064000Y-68282502D01*
X130835913Y-68302457D01*
X130614759Y-68361715D01*
X130614753Y-68361717D01*
X130407250Y-68458477D01*
X130219703Y-68589799D01*
X130219697Y-68589804D01*
X130057804Y-68751697D01*
X130057799Y-68751703D01*
X129926477Y-68939250D01*
X129829717Y-69146753D01*
X129829715Y-69146759D01*
X129776479Y-69345439D01*
X129770457Y-69367913D01*
X129750502Y-69596000D01*
X127020907Y-69596000D01*
X125507245Y-68082338D01*
X125497280Y-68069900D01*
X125497053Y-68070089D01*
X125492002Y-68063983D01*
X125492001Y-68063981D01*
X125475387Y-68048380D01*
X125442350Y-68017356D01*
X125439506Y-68014599D01*
X125419778Y-67994870D01*
X125419772Y-67994865D01*
X125416568Y-67992379D01*
X125407557Y-67984682D01*
X125375326Y-67954416D01*
X125375320Y-67954412D01*
X125357564Y-67944650D01*
X125341048Y-67933801D01*
X125325042Y-67921385D01*
X125292692Y-67907386D01*
X125284465Y-67903826D01*
X125273808Y-67898604D01*
X125235064Y-67877305D01*
X125235061Y-67877304D01*
X125215437Y-67872265D01*
X125196737Y-67865863D01*
X125178146Y-67857818D01*
X125178144Y-67857817D01*
X125178142Y-67857817D01*
X125134475Y-67850900D01*
X125122856Y-67848494D01*
X125080031Y-67837499D01*
X125059777Y-67837499D01*
X125040067Y-67835948D01*
X125020058Y-67832779D01*
X124976040Y-67836940D01*
X124964182Y-67837499D01*
X117198854Y-67837499D01*
X117183012Y-67835749D01*
X117182985Y-67836043D01*
X117175093Y-67835297D01*
X117175092Y-67835297D01*
X117154383Y-67835948D01*
X117107015Y-67837437D01*
X117103056Y-67837499D01*
X117075145Y-67837499D01*
X117075142Y-67837499D01*
X117075127Y-67837500D01*
X117071122Y-67838006D01*
X117059305Y-67838936D01*
X117015113Y-67840325D01*
X117015111Y-67840326D01*
X116995656Y-67845977D01*
X116976303Y-67849985D01*
X116956211Y-67852523D01*
X116956204Y-67852525D01*
X116915097Y-67868800D01*
X116903872Y-67872643D01*
X116861408Y-67884981D01*
X116843965Y-67895296D01*
X116826219Y-67903989D01*
X116807383Y-67911447D01*
X116771611Y-67937436D01*
X116761695Y-67943950D01*
X116723638Y-67966457D01*
X116709312Y-67980783D01*
X116694286Y-67993616D01*
X116677896Y-68005524D01*
X116677894Y-68005526D01*
X116649701Y-68039604D01*
X116641714Y-68048380D01*
X115435336Y-69254757D01*
X115422901Y-69264721D01*
X115423089Y-69264948D01*
X115416979Y-69270002D01*
X115370370Y-69319635D01*
X115367620Y-69322473D01*
X115347863Y-69342231D01*
X115345374Y-69345439D01*
X115337688Y-69354436D01*
X115307418Y-69386673D01*
X115307411Y-69386683D01*
X115297651Y-69404435D01*
X115286803Y-69420950D01*
X115274385Y-69436959D01*
X115271246Y-69442268D01*
X115219351Y-69490718D01*
X115176264Y-69503402D01*
X115114803Y-69510009D01*
X115114795Y-69510011D01*
X114977797Y-69561110D01*
X114977792Y-69561112D01*
X114860738Y-69648738D01*
X114773113Y-69765791D01*
X114773111Y-69765795D01*
X114773111Y-69765796D01*
X114724347Y-69896535D01*
X114681802Y-69953368D01*
X114615281Y-69978179D01*
X114606293Y-69978500D01*
X108010595Y-69978500D01*
X107942474Y-69958498D01*
X107921500Y-69941595D01*
X106305905Y-68326000D01*
X110700502Y-68326000D01*
X110720457Y-68554087D01*
X110735326Y-68609579D01*
X110779715Y-68775240D01*
X110779717Y-68775246D01*
X110876477Y-68982749D01*
X110984915Y-69137615D01*
X111007802Y-69170300D01*
X111169700Y-69332198D01*
X111357251Y-69463523D01*
X111564757Y-69560284D01*
X111785913Y-69619543D01*
X112014000Y-69639498D01*
X112242087Y-69619543D01*
X112463243Y-69560284D01*
X112670749Y-69463523D01*
X112858300Y-69332198D01*
X113020198Y-69170300D01*
X113151523Y-68982749D01*
X113248284Y-68775243D01*
X113307543Y-68554087D01*
X113327498Y-68326000D01*
X113307543Y-68097913D01*
X113290540Y-68034457D01*
X113292229Y-67963481D01*
X113323149Y-67912753D01*
X114478196Y-66757706D01*
X114540506Y-66723682D01*
X114611321Y-66728747D01*
X114620531Y-66732605D01*
X114692757Y-66766284D01*
X114913913Y-66825543D01*
X115142000Y-66845498D01*
X115370087Y-66825543D01*
X115591243Y-66766284D01*
X115798749Y-66669523D01*
X115986300Y-66538198D01*
X116148198Y-66376300D01*
X116279523Y-66188749D01*
X116376284Y-65981243D01*
X116435543Y-65760087D01*
X116455498Y-65532000D01*
X118828502Y-65532000D01*
X118848457Y-65760087D01*
X118863866Y-65817594D01*
X118907715Y-65981240D01*
X118907717Y-65981246D01*
X119004477Y-66188749D01*
X119127959Y-66365100D01*
X119135802Y-66376300D01*
X119297700Y-66538198D01*
X119485251Y-66669523D01*
X119692757Y-66766284D01*
X119913913Y-66825543D01*
X120142000Y-66845498D01*
X120370087Y-66825543D01*
X120591243Y-66766284D01*
X120798749Y-66669523D01*
X120986300Y-66538198D01*
X121148198Y-66376300D01*
X121279523Y-66188749D01*
X121376284Y-65981243D01*
X121435543Y-65760087D01*
X121455498Y-65532000D01*
X121435543Y-65303913D01*
X121428600Y-65278000D01*
X122639004Y-65278000D01*
X122658951Y-65506002D01*
X122718186Y-65727068D01*
X122718188Y-65727073D01*
X122814913Y-65934501D01*
X122864899Y-66005888D01*
X123553272Y-65317516D01*
X123566835Y-65403148D01*
X123624359Y-65516045D01*
X123713955Y-65605641D01*
X123826852Y-65663165D01*
X123912482Y-65676727D01*
X123224110Y-66365098D01*
X123224110Y-66365100D01*
X123295498Y-66415086D01*
X123502926Y-66511811D01*
X123502931Y-66511813D01*
X123723999Y-66571048D01*
X123723995Y-66571048D01*
X123952000Y-66590995D01*
X124180002Y-66571048D01*
X124401068Y-66511813D01*
X124401073Y-66511811D01*
X124608497Y-66415088D01*
X124679888Y-66365099D01*
X124679888Y-66365097D01*
X123991518Y-65676727D01*
X124077148Y-65663165D01*
X124190045Y-65605641D01*
X124279641Y-65516045D01*
X124337165Y-65403148D01*
X124350727Y-65317518D01*
X125039097Y-66005888D01*
X125039099Y-66005888D01*
X125089088Y-65934497D01*
X125185811Y-65727073D01*
X125185813Y-65727068D01*
X125245048Y-65506002D01*
X125264995Y-65278000D01*
X125245048Y-65049997D01*
X125185813Y-64828931D01*
X125185811Y-64828926D01*
X125089086Y-64621498D01*
X125039100Y-64550110D01*
X125039098Y-64550110D01*
X124350727Y-65238481D01*
X124337165Y-65152852D01*
X124279641Y-65039955D01*
X124190045Y-64950359D01*
X124077148Y-64892835D01*
X123991517Y-64879272D01*
X124679888Y-64190899D01*
X124679888Y-64190898D01*
X124608501Y-64140913D01*
X124401073Y-64044188D01*
X124401068Y-64044186D01*
X124180000Y-63984951D01*
X124180004Y-63984951D01*
X123952000Y-63965004D01*
X123723997Y-63984951D01*
X123502931Y-64044186D01*
X123502926Y-64044188D01*
X123295500Y-64140913D01*
X123224109Y-64190900D01*
X123912481Y-64879272D01*
X123826852Y-64892835D01*
X123713955Y-64950359D01*
X123624359Y-65039955D01*
X123566835Y-65152852D01*
X123553272Y-65238481D01*
X122864900Y-64550109D01*
X122814913Y-64621500D01*
X122718188Y-64828926D01*
X122718186Y-64828931D01*
X122658951Y-65049997D01*
X122639004Y-65278000D01*
X121428600Y-65278000D01*
X121376284Y-65082757D01*
X121279523Y-64875251D01*
X121148198Y-64687700D01*
X120986300Y-64525802D01*
X120972301Y-64516000D01*
X120798749Y-64394477D01*
X120591246Y-64297717D01*
X120591240Y-64297715D01*
X120494520Y-64271799D01*
X120370087Y-64238457D01*
X120142000Y-64218502D01*
X119913913Y-64238457D01*
X119692759Y-64297715D01*
X119692753Y-64297717D01*
X119485250Y-64394477D01*
X119297703Y-64525799D01*
X119297697Y-64525804D01*
X119135804Y-64687697D01*
X119135799Y-64687703D01*
X119004477Y-64875250D01*
X118907717Y-65082753D01*
X118907715Y-65082759D01*
X118861447Y-65255433D01*
X118848457Y-65303913D01*
X118828502Y-65532000D01*
X116455498Y-65532000D01*
X116435543Y-65303913D01*
X116376284Y-65082757D01*
X116279523Y-64875251D01*
X116148198Y-64687700D01*
X115986300Y-64525802D01*
X115972301Y-64516000D01*
X115798749Y-64394477D01*
X115591246Y-64297717D01*
X115591240Y-64297715D01*
X115494520Y-64271799D01*
X115370087Y-64238457D01*
X115142000Y-64218502D01*
X114913913Y-64238457D01*
X114692759Y-64297715D01*
X114692753Y-64297717D01*
X114485250Y-64394477D01*
X114297703Y-64525799D01*
X114297697Y-64525804D01*
X114135804Y-64687697D01*
X114135799Y-64687703D01*
X114004477Y-64875250D01*
X113907717Y-65082753D01*
X113907715Y-65082759D01*
X113861447Y-65255433D01*
X113848457Y-65303913D01*
X113831822Y-65494059D01*
X113828502Y-65532003D01*
X113830106Y-65550342D01*
X113816115Y-65619946D01*
X113793680Y-65650414D01*
X113588141Y-65855953D01*
X113525829Y-65889979D01*
X113455014Y-65884914D01*
X113398178Y-65842367D01*
X113373367Y-65775847D01*
X113388458Y-65706473D01*
X113395835Y-65694585D01*
X113397210Y-65692620D01*
X113405523Y-65680749D01*
X113502284Y-65473243D01*
X113561543Y-65252087D01*
X113581498Y-65024000D01*
X113561543Y-64795913D01*
X113502284Y-64574757D01*
X113405523Y-64367251D01*
X113274198Y-64179700D01*
X113112300Y-64017802D01*
X113104769Y-64012529D01*
X112924749Y-63886477D01*
X112717246Y-63789717D01*
X112717240Y-63789715D01*
X112600890Y-63758539D01*
X112496087Y-63730457D01*
X112268000Y-63710502D01*
X112039913Y-63730457D01*
X111818759Y-63789715D01*
X111818753Y-63789717D01*
X111611250Y-63886477D01*
X111423703Y-64017799D01*
X111423697Y-64017804D01*
X111261804Y-64179697D01*
X111261799Y-64179703D01*
X111130477Y-64367250D01*
X111033717Y-64574753D01*
X111033715Y-64574759D01*
X110981400Y-64770000D01*
X110974457Y-64795913D01*
X110954502Y-65024000D01*
X110974457Y-65252087D01*
X110997145Y-65336759D01*
X111033715Y-65473240D01*
X111033717Y-65473246D01*
X111130477Y-65680749D01*
X111253156Y-65855953D01*
X111261802Y-65868300D01*
X111423700Y-66030198D01*
X111611251Y-66161523D01*
X111818757Y-66258284D01*
X112039913Y-66317543D01*
X112268000Y-66337498D01*
X112496087Y-66317543D01*
X112717243Y-66258284D01*
X112924749Y-66161523D01*
X112938585Y-66151835D01*
X113005859Y-66129146D01*
X113074719Y-66146430D01*
X113123304Y-66198199D01*
X113136188Y-66268017D01*
X113109280Y-66333717D01*
X113099956Y-66344138D01*
X112748771Y-66695323D01*
X112427246Y-67016848D01*
X112364934Y-67050873D01*
X112305540Y-67049459D01*
X112242090Y-67032457D01*
X112014000Y-67012502D01*
X111785913Y-67032457D01*
X111564759Y-67091715D01*
X111564753Y-67091717D01*
X111357250Y-67188477D01*
X111169703Y-67319799D01*
X111169697Y-67319804D01*
X111007804Y-67481697D01*
X111007799Y-67481703D01*
X110876477Y-67669250D01*
X110779717Y-67876753D01*
X110779715Y-67876759D01*
X110742042Y-68017356D01*
X110720457Y-68097913D01*
X110700502Y-68326000D01*
X106305905Y-68326000D01*
X103417151Y-65437246D01*
X103383125Y-65374934D01*
X103384539Y-65315541D01*
X103401543Y-65252087D01*
X103421498Y-65024000D01*
X103401543Y-64795913D01*
X103342284Y-64574757D01*
X103245523Y-64367251D01*
X103114198Y-64179700D01*
X102952300Y-64017802D01*
X102944769Y-64012529D01*
X102764749Y-63886477D01*
X102557246Y-63789717D01*
X102557240Y-63789715D01*
X102440890Y-63758539D01*
X102336087Y-63730457D01*
X102108000Y-63710502D01*
X101879913Y-63730457D01*
X101775110Y-63758539D01*
X101704133Y-63756849D01*
X101645338Y-63717055D01*
X101617390Y-63651790D01*
X101616499Y-63636832D01*
X101616499Y-62653595D01*
X101636501Y-62585474D01*
X101653399Y-62564504D01*
X101694753Y-62523150D01*
X101757062Y-62489126D01*
X101816457Y-62490539D01*
X101879913Y-62507543D01*
X102108000Y-62527498D01*
X102336087Y-62507543D01*
X102557243Y-62448284D01*
X102764749Y-62351523D01*
X102952300Y-62220198D01*
X103114198Y-62058300D01*
X103245523Y-61870749D01*
X103342284Y-61663243D01*
X103401543Y-61442087D01*
X103421498Y-61214000D01*
X103401543Y-60985913D01*
X103394600Y-60960000D01*
X110981917Y-60960000D01*
X111956314Y-60960000D01*
X111940359Y-60975955D01*
X111882835Y-61088852D01*
X111863014Y-61214000D01*
X111882835Y-61339148D01*
X111940359Y-61452045D01*
X111956314Y-61468000D01*
X110981918Y-61468000D01*
X111034186Y-61663068D01*
X111034188Y-61663073D01*
X111130912Y-61870498D01*
X111262184Y-62057974D01*
X111262189Y-62057980D01*
X111424019Y-62219810D01*
X111424025Y-62219815D01*
X111611501Y-62351087D01*
X111818926Y-62447811D01*
X111818931Y-62447813D01*
X112014000Y-62500081D01*
X112014000Y-61525686D01*
X112029955Y-61541641D01*
X112142852Y-61599165D01*
X112236519Y-61614000D01*
X112299481Y-61614000D01*
X112393148Y-61599165D01*
X112506045Y-61541641D01*
X112522000Y-61525686D01*
X112522000Y-62500081D01*
X112717068Y-62447813D01*
X112717073Y-62447811D01*
X112924498Y-62351087D01*
X113111974Y-62219815D01*
X113111980Y-62219810D01*
X113273810Y-62057980D01*
X113273815Y-62057974D01*
X113405087Y-61870498D01*
X113501811Y-61663073D01*
X113501813Y-61663068D01*
X113554082Y-61468000D01*
X112579686Y-61468000D01*
X112595641Y-61452045D01*
X112653165Y-61339148D01*
X112672986Y-61214000D01*
X112653165Y-61088852D01*
X112595641Y-60975955D01*
X112579686Y-60960000D01*
X113554082Y-60960000D01*
X114082502Y-60960000D01*
X114102457Y-61188087D01*
X114136670Y-61315771D01*
X114161715Y-61409240D01*
X114161717Y-61409246D01*
X114258477Y-61616749D01*
X114291032Y-61663243D01*
X114389802Y-61804300D01*
X114551700Y-61966198D01*
X114739251Y-62097523D01*
X114946757Y-62194284D01*
X115167913Y-62253543D01*
X115396000Y-62273498D01*
X115624087Y-62253543D01*
X115845243Y-62194284D01*
X116052749Y-62097523D01*
X116240300Y-61966198D01*
X116402198Y-61804300D01*
X116533523Y-61616749D01*
X116630284Y-61409243D01*
X116689543Y-61188087D01*
X116709498Y-60960000D01*
X119082502Y-60960000D01*
X119102457Y-61188087D01*
X119136670Y-61315771D01*
X119161715Y-61409240D01*
X119161717Y-61409246D01*
X119258477Y-61616749D01*
X119291032Y-61663243D01*
X119389802Y-61804300D01*
X119551700Y-61966198D01*
X119739251Y-62097523D01*
X119946757Y-62194284D01*
X120167913Y-62253543D01*
X120396000Y-62273498D01*
X120624087Y-62253543D01*
X120845243Y-62194284D01*
X121052749Y-62097523D01*
X121240300Y-61966198D01*
X121402198Y-61804300D01*
X121533523Y-61616749D01*
X121630284Y-61409243D01*
X121689543Y-61188087D01*
X121709498Y-60960000D01*
X121689543Y-60731913D01*
X121682600Y-60706000D01*
X123400502Y-60706000D01*
X123420457Y-60934087D01*
X123431676Y-60975955D01*
X123479715Y-61155240D01*
X123479717Y-61155246D01*
X123576477Y-61362749D01*
X123676460Y-61505540D01*
X123707802Y-61550300D01*
X123869700Y-61712198D01*
X124057251Y-61843523D01*
X124264757Y-61940284D01*
X124485913Y-61999543D01*
X124714000Y-62019498D01*
X124942087Y-61999543D01*
X125163243Y-61940284D01*
X125370749Y-61843523D01*
X125558300Y-61712198D01*
X125720198Y-61550300D01*
X125851523Y-61362749D01*
X125948284Y-61155243D01*
X126007543Y-60934087D01*
X126027498Y-60706000D01*
X133560502Y-60706000D01*
X133580457Y-60934087D01*
X133591676Y-60975955D01*
X133639715Y-61155240D01*
X133639717Y-61155246D01*
X133736477Y-61362749D01*
X133836460Y-61505540D01*
X133867802Y-61550300D01*
X134029700Y-61712198D01*
X134217251Y-61843523D01*
X134424757Y-61940284D01*
X134645913Y-61999543D01*
X134874000Y-62019498D01*
X135102087Y-61999543D01*
X135323243Y-61940284D01*
X135530749Y-61843523D01*
X135718300Y-61712198D01*
X135880198Y-61550300D01*
X136011523Y-61362749D01*
X136080885Y-61214000D01*
X140418502Y-61214000D01*
X140438457Y-61442087D01*
X140455459Y-61505540D01*
X140497715Y-61663240D01*
X140497717Y-61663246D01*
X140594477Y-61870749D01*
X140633948Y-61927120D01*
X140725802Y-62058300D01*
X140887700Y-62220198D01*
X141075251Y-62351523D01*
X141282757Y-62448284D01*
X141503913Y-62507543D01*
X141732000Y-62527498D01*
X141960087Y-62507543D01*
X142181243Y-62448284D01*
X142388749Y-62351523D01*
X142576300Y-62220198D01*
X142738198Y-62058300D01*
X142869523Y-61870749D01*
X142966284Y-61663243D01*
X143025543Y-61442087D01*
X143045498Y-61214000D01*
X150578502Y-61214000D01*
X150598457Y-61442087D01*
X150615459Y-61505540D01*
X150657715Y-61663240D01*
X150657717Y-61663246D01*
X150754477Y-61870749D01*
X150793948Y-61927120D01*
X150885802Y-62058300D01*
X151047700Y-62220198D01*
X151235251Y-62351523D01*
X151442757Y-62448284D01*
X151663913Y-62507543D01*
X151892000Y-62527498D01*
X152120087Y-62507543D01*
X152341243Y-62448284D01*
X152548749Y-62351523D01*
X152736300Y-62220198D01*
X152898198Y-62058300D01*
X153029523Y-61870749D01*
X153126284Y-61663243D01*
X153185543Y-61442087D01*
X153205498Y-61214000D01*
X153185543Y-60985913D01*
X153126284Y-60764757D01*
X153029523Y-60557251D01*
X152898198Y-60369700D01*
X152736300Y-60207802D01*
X152548749Y-60076477D01*
X152341246Y-59979717D01*
X152341240Y-59979715D01*
X152244520Y-59953799D01*
X152120087Y-59920457D01*
X151892000Y-59900502D01*
X151663913Y-59920457D01*
X151442759Y-59979715D01*
X151442753Y-59979717D01*
X151235250Y-60076477D01*
X151047703Y-60207799D01*
X151047697Y-60207804D01*
X150885804Y-60369697D01*
X150885799Y-60369703D01*
X150754477Y-60557250D01*
X150657717Y-60764753D01*
X150657715Y-60764759D01*
X150612344Y-60934086D01*
X150598457Y-60985913D01*
X150578502Y-61214000D01*
X143045498Y-61214000D01*
X143025543Y-60985913D01*
X142966284Y-60764757D01*
X142869523Y-60557251D01*
X142738198Y-60369700D01*
X142576300Y-60207802D01*
X142388749Y-60076477D01*
X142181246Y-59979717D01*
X142181240Y-59979715D01*
X142084520Y-59953799D01*
X141960087Y-59920457D01*
X141732000Y-59900502D01*
X141503913Y-59920457D01*
X141282759Y-59979715D01*
X141282753Y-59979717D01*
X141075250Y-60076477D01*
X140887703Y-60207799D01*
X140887697Y-60207804D01*
X140725804Y-60369697D01*
X140725799Y-60369703D01*
X140594477Y-60557250D01*
X140497717Y-60764753D01*
X140497715Y-60764759D01*
X140452344Y-60934086D01*
X140438457Y-60985913D01*
X140418502Y-61214000D01*
X136080885Y-61214000D01*
X136108284Y-61155243D01*
X136167543Y-60934087D01*
X136187498Y-60706000D01*
X136167543Y-60477913D01*
X136108284Y-60256757D01*
X136011523Y-60049251D01*
X135880198Y-59861700D01*
X135718300Y-59699802D01*
X135530749Y-59568477D01*
X135323246Y-59471717D01*
X135323240Y-59471715D01*
X135229771Y-59446670D01*
X135102087Y-59412457D01*
X134874000Y-59392502D01*
X134645913Y-59412457D01*
X134424759Y-59471715D01*
X134424753Y-59471717D01*
X134217250Y-59568477D01*
X134029703Y-59699799D01*
X134029697Y-59699804D01*
X133867804Y-59861697D01*
X133867799Y-59861703D01*
X133736477Y-60049250D01*
X133639717Y-60256753D01*
X133639715Y-60256759D01*
X133580457Y-60477913D01*
X133560502Y-60706000D01*
X126027498Y-60706000D01*
X126007543Y-60477913D01*
X125948284Y-60256757D01*
X125851523Y-60049251D01*
X125720198Y-59861700D01*
X125558300Y-59699802D01*
X125370749Y-59568477D01*
X125163246Y-59471717D01*
X125163240Y-59471715D01*
X125069771Y-59446670D01*
X124942087Y-59412457D01*
X124714000Y-59392502D01*
X124485913Y-59412457D01*
X124264759Y-59471715D01*
X124264753Y-59471717D01*
X124057250Y-59568477D01*
X123869703Y-59699799D01*
X123869697Y-59699804D01*
X123707804Y-59861697D01*
X123707799Y-59861703D01*
X123576477Y-60049250D01*
X123479717Y-60256753D01*
X123479715Y-60256759D01*
X123420457Y-60477913D01*
X123400502Y-60706000D01*
X121682600Y-60706000D01*
X121630284Y-60510757D01*
X121533523Y-60303251D01*
X121402198Y-60115700D01*
X121240300Y-59953802D01*
X121203332Y-59927917D01*
X121052749Y-59822477D01*
X120845246Y-59725717D01*
X120845240Y-59725715D01*
X120748520Y-59699799D01*
X120624087Y-59666457D01*
X120396000Y-59646502D01*
X120167913Y-59666457D01*
X119946759Y-59725715D01*
X119946753Y-59725717D01*
X119739250Y-59822477D01*
X119551703Y-59953799D01*
X119551697Y-59953804D01*
X119389804Y-60115697D01*
X119389799Y-60115703D01*
X119258477Y-60303250D01*
X119161717Y-60510753D01*
X119161716Y-60510757D01*
X119102457Y-60731913D01*
X119082502Y-60960000D01*
X116709498Y-60960000D01*
X116689543Y-60731913D01*
X116630284Y-60510757D01*
X116533523Y-60303251D01*
X116402198Y-60115700D01*
X116240300Y-59953802D01*
X116203332Y-59927917D01*
X116052749Y-59822477D01*
X115845246Y-59725717D01*
X115845240Y-59725715D01*
X115748520Y-59699799D01*
X115624087Y-59666457D01*
X115396000Y-59646502D01*
X115167913Y-59666457D01*
X114946759Y-59725715D01*
X114946753Y-59725717D01*
X114739250Y-59822477D01*
X114551703Y-59953799D01*
X114551697Y-59953804D01*
X114389804Y-60115697D01*
X114389799Y-60115703D01*
X114258477Y-60303250D01*
X114161717Y-60510753D01*
X114161716Y-60510757D01*
X114102457Y-60731913D01*
X114082502Y-60960000D01*
X113554082Y-60960000D01*
X113501813Y-60764931D01*
X113501811Y-60764926D01*
X113405087Y-60557501D01*
X113273815Y-60370025D01*
X113273810Y-60370019D01*
X113111980Y-60208189D01*
X113111974Y-60208184D01*
X112924498Y-60076912D01*
X112717073Y-59980188D01*
X112717071Y-59980187D01*
X112522000Y-59927917D01*
X112522000Y-60902314D01*
X112506045Y-60886359D01*
X112393148Y-60828835D01*
X112299481Y-60814000D01*
X112236519Y-60814000D01*
X112142852Y-60828835D01*
X112029955Y-60886359D01*
X112014000Y-60902314D01*
X112014000Y-59927917D01*
X112013999Y-59927917D01*
X111818928Y-59980187D01*
X111818926Y-59980188D01*
X111611501Y-60076912D01*
X111424025Y-60208184D01*
X111424019Y-60208189D01*
X111262189Y-60370019D01*
X111262184Y-60370025D01*
X111130912Y-60557501D01*
X111034188Y-60764926D01*
X111034186Y-60764931D01*
X110981917Y-60960000D01*
X103394600Y-60960000D01*
X103342284Y-60764757D01*
X103245523Y-60557251D01*
X103114198Y-60369700D01*
X102952300Y-60207802D01*
X102764749Y-60076477D01*
X102557246Y-59979717D01*
X102557240Y-59979715D01*
X102460520Y-59953799D01*
X102336087Y-59920457D01*
X102108000Y-59900502D01*
X101879913Y-59920457D01*
X101658759Y-59979715D01*
X101658753Y-59979717D01*
X101451250Y-60076477D01*
X101263703Y-60207799D01*
X101263697Y-60207804D01*
X101101804Y-60369697D01*
X101101799Y-60369703D01*
X100970477Y-60557250D01*
X100873717Y-60764753D01*
X100873715Y-60764759D01*
X100814457Y-60985913D01*
X100794502Y-61214000D01*
X100814457Y-61442090D01*
X100831459Y-61505540D01*
X100829769Y-61576516D01*
X100798847Y-61627246D01*
X100594335Y-61831758D01*
X100581900Y-61841722D01*
X100582088Y-61841949D01*
X100575978Y-61847003D01*
X100529369Y-61896636D01*
X100526619Y-61899474D01*
X100506862Y-61919232D01*
X100504373Y-61922440D01*
X100496687Y-61931437D01*
X100466417Y-61963674D01*
X100466410Y-61963684D01*
X100456650Y-61981436D01*
X100445802Y-61997951D01*
X100433385Y-62013959D01*
X100415823Y-62054541D01*
X100410603Y-62065196D01*
X100389304Y-62103940D01*
X100389302Y-62103945D01*
X100384266Y-62123560D01*
X100377863Y-62142263D01*
X100369818Y-62160853D01*
X100362900Y-62204526D01*
X100360494Y-62216143D01*
X100349499Y-62258969D01*
X100349499Y-62279224D01*
X100347948Y-62298934D01*
X100344779Y-62318943D01*
X100348940Y-62362962D01*
X100349499Y-62374820D01*
X100349499Y-65480147D01*
X100347750Y-65495989D01*
X100348043Y-65496017D01*
X100347297Y-65503908D01*
X100347297Y-65503910D01*
X100348180Y-65532000D01*
X100349437Y-65571985D01*
X100349499Y-65575944D01*
X100349499Y-65603852D01*
X100349500Y-65603870D01*
X100350006Y-65607878D01*
X100350936Y-65619697D01*
X100352325Y-65663889D01*
X100352326Y-65663894D01*
X100357976Y-65683340D01*
X100361985Y-65702698D01*
X100364524Y-65722794D01*
X100364525Y-65722801D01*
X100380799Y-65763904D01*
X100384643Y-65775130D01*
X100396981Y-65817594D01*
X100407293Y-65835032D01*
X100415987Y-65852780D01*
X100423443Y-65871610D01*
X100423449Y-65871621D01*
X100449431Y-65907382D01*
X100455948Y-65917302D01*
X100478457Y-65955363D01*
X100478458Y-65955364D01*
X100478460Y-65955367D01*
X100492778Y-65969685D01*
X100505616Y-65984715D01*
X100517525Y-66001105D01*
X100517529Y-66001110D01*
X100551597Y-66029293D01*
X100560377Y-66037283D01*
X101420768Y-66897674D01*
X101454794Y-66959986D01*
X101449729Y-67030801D01*
X101407182Y-67087637D01*
X101384923Y-67100964D01*
X101197250Y-67188477D01*
X101009703Y-67319799D01*
X101009697Y-67319804D01*
X100847804Y-67481697D01*
X100847799Y-67481703D01*
X100716477Y-67669250D01*
X100619717Y-67876753D01*
X100619715Y-67876759D01*
X100582042Y-68017356D01*
X100560457Y-68097913D01*
X100540502Y-68326000D01*
X100560457Y-68554087D01*
X100575326Y-68609579D01*
X100619715Y-68775240D01*
X100619717Y-68775246D01*
X100716477Y-68982749D01*
X100824915Y-69137615D01*
X100847802Y-69170300D01*
X101009700Y-69332198D01*
X101197251Y-69463523D01*
X101404757Y-69560284D01*
X101625913Y-69619543D01*
X101854000Y-69639498D01*
X102082087Y-69619543D01*
X102145541Y-69602540D01*
X102216516Y-69604228D01*
X102267247Y-69635151D01*
X103074605Y-70442509D01*
X103108631Y-70504821D01*
X103111510Y-70531604D01*
X103111510Y-77059500D01*
X103091508Y-77127621D01*
X103037852Y-77174114D01*
X102985510Y-77185500D01*
X102550996Y-77185500D01*
X102419552Y-77200310D01*
X102419549Y-77200310D01*
X102419549Y-77200311D01*
X102252900Y-77258624D01*
X102252898Y-77258625D01*
X102103403Y-77352558D01*
X101978558Y-77477403D01*
X101884625Y-77626898D01*
X101884624Y-77626900D01*
X101845020Y-77740081D01*
X101826310Y-77793552D01*
X101813654Y-77905876D01*
X101811500Y-77924995D01*
X101811500Y-79129500D01*
X101791498Y-79197621D01*
X101737842Y-79244114D01*
X101685500Y-79255500D01*
X101001350Y-79255500D01*
X100940803Y-79262009D01*
X100940795Y-79262011D01*
X100803797Y-79313110D01*
X100803792Y-79313112D01*
X100686738Y-79400738D01*
X100599112Y-79517792D01*
X100599110Y-79517797D01*
X100548011Y-79654795D01*
X100548009Y-79654803D01*
X100541500Y-79715350D01*
X100541500Y-81612649D01*
X100548009Y-81673196D01*
X100548011Y-81673204D01*
X100599110Y-81810202D01*
X100599112Y-81810207D01*
X100686738Y-81927261D01*
X100803792Y-82014887D01*
X100803794Y-82014888D01*
X100803796Y-82014889D01*
X100851602Y-82032720D01*
X100940795Y-82065988D01*
X100940803Y-82065990D01*
X101001350Y-82072499D01*
X101001355Y-82072499D01*
X101001362Y-82072500D01*
X101001368Y-82072500D01*
X102198632Y-82072500D01*
X102198638Y-82072500D01*
X102198645Y-82072499D01*
X102198649Y-82072499D01*
X102259196Y-82065990D01*
X102259199Y-82065989D01*
X102259201Y-82065989D01*
X102396204Y-82014889D01*
X102419491Y-81997457D01*
X102513261Y-81927261D01*
X102600887Y-81810207D01*
X102600887Y-81810206D01*
X102600889Y-81810204D01*
X102651989Y-81673201D01*
X102654329Y-81651441D01*
X102658499Y-81612649D01*
X102658500Y-81612632D01*
X102658500Y-80128500D01*
X102678502Y-80060379D01*
X102732158Y-80013886D01*
X102784500Y-80002500D01*
X102955500Y-80002500D01*
X103023621Y-80022502D01*
X103070114Y-80076158D01*
X103081500Y-80128500D01*
X103081500Y-81333004D01*
X103096310Y-81464448D01*
X103096311Y-81464450D01*
X103154624Y-81631099D01*
X103154625Y-81631101D01*
X103248558Y-81780596D01*
X103373403Y-81905441D01*
X103479186Y-81971908D01*
X103522901Y-81999376D01*
X103689552Y-82057690D01*
X103820996Y-82072500D01*
X104459004Y-82072500D01*
X104590448Y-82057690D01*
X104757099Y-81999376D01*
X104906596Y-81905441D01*
X105031441Y-81780596D01*
X105125376Y-81631099D01*
X105183690Y-81464448D01*
X105198500Y-81333004D01*
X105198500Y-80861138D01*
X105218502Y-80793017D01*
X105272158Y-80746524D01*
X105342432Y-80736420D01*
X105407012Y-80765914D01*
X105413595Y-80772043D01*
X108189219Y-83547667D01*
X108199186Y-83560107D01*
X108199413Y-83559920D01*
X108204465Y-83566027D01*
X108204466Y-83566028D01*
X108230431Y-83590411D01*
X108254132Y-83612667D01*
X108256976Y-83615424D01*
X108276692Y-83635141D01*
X108279889Y-83637621D01*
X108288910Y-83645326D01*
X108321145Y-83675596D01*
X108321146Y-83675596D01*
X108321148Y-83675598D01*
X108338895Y-83685354D01*
X108355425Y-83696212D01*
X108371425Y-83708623D01*
X108412002Y-83726182D01*
X108422653Y-83731400D01*
X108461406Y-83752705D01*
X108481028Y-83757743D01*
X108499729Y-83764145D01*
X108512280Y-83769577D01*
X108518318Y-83772190D01*
X108518319Y-83772190D01*
X108518321Y-83772191D01*
X108561996Y-83779108D01*
X108573607Y-83781512D01*
X108616436Y-83792510D01*
X108636690Y-83792510D01*
X108656400Y-83794061D01*
X108658607Y-83794410D01*
X108676409Y-83797230D01*
X108720427Y-83793068D01*
X108732285Y-83792510D01*
X109659681Y-83792510D01*
X109675522Y-83794259D01*
X109675550Y-83793966D01*
X109683436Y-83794710D01*
X109683443Y-83794712D01*
X109751520Y-83792572D01*
X109755479Y-83792510D01*
X109783385Y-83792510D01*
X109783390Y-83792510D01*
X109787401Y-83792002D01*
X109799233Y-83791071D01*
X109843423Y-83789683D01*
X109862881Y-83784029D01*
X109882228Y-83780023D01*
X109902331Y-83777484D01*
X109943444Y-83761205D01*
X109954664Y-83757363D01*
X109979447Y-83750164D01*
X109997125Y-83745029D01*
X109997129Y-83745027D01*
X110014560Y-83734718D01*
X110032314Y-83726019D01*
X110051151Y-83718562D01*
X110086926Y-83692568D01*
X110096832Y-83686061D01*
X110134896Y-83663552D01*
X110149219Y-83649228D01*
X110164258Y-83636384D01*
X110165969Y-83635141D01*
X110180641Y-83624482D01*
X110208837Y-83590396D01*
X110216806Y-83581640D01*
X110878657Y-82919789D01*
X110891092Y-82909828D01*
X110890905Y-82909601D01*
X110897016Y-82904545D01*
X110897015Y-82904545D01*
X110897018Y-82904544D01*
X110943676Y-82854856D01*
X110946367Y-82852079D01*
X110966134Y-82832314D01*
X110968617Y-82829111D01*
X110976308Y-82820106D01*
X111006586Y-82787865D01*
X111016345Y-82770111D01*
X111027197Y-82753590D01*
X111039613Y-82737585D01*
X111057168Y-82697014D01*
X111062392Y-82686352D01*
X111083695Y-82647604D01*
X111088733Y-82627979D01*
X111095138Y-82609274D01*
X111103181Y-82590689D01*
X111110096Y-82547020D01*
X111112503Y-82535400D01*
X111116451Y-82520028D01*
X111123500Y-82492574D01*
X111123500Y-82472313D01*
X111125051Y-82452602D01*
X111126303Y-82444696D01*
X111128219Y-82432601D01*
X111124059Y-82388589D01*
X111123500Y-82376732D01*
X111123500Y-81363057D01*
X111143502Y-81294936D01*
X111197158Y-81248443D01*
X111205436Y-81245013D01*
X111286204Y-81214889D01*
X111292137Y-81210448D01*
X111403261Y-81127261D01*
X111490887Y-81010207D01*
X111490887Y-81010206D01*
X111490889Y-81010204D01*
X111541989Y-80873201D01*
X111543817Y-80856204D01*
X111548499Y-80812649D01*
X111548500Y-80812632D01*
X111548500Y-78915367D01*
X111548499Y-78915350D01*
X111541990Y-78854803D01*
X111541988Y-78854795D01*
X111495328Y-78729697D01*
X111490889Y-78717796D01*
X111490888Y-78717794D01*
X111490887Y-78717792D01*
X111403261Y-78600738D01*
X111286207Y-78513112D01*
X111286202Y-78513110D01*
X111149204Y-78462011D01*
X111149196Y-78462009D01*
X111088649Y-78455500D01*
X111088638Y-78455500D01*
X109891362Y-78455500D01*
X109891350Y-78455500D01*
X109830803Y-78462009D01*
X109830795Y-78462011D01*
X109693797Y-78513110D01*
X109693792Y-78513112D01*
X109576738Y-78600738D01*
X109489112Y-78717792D01*
X109489110Y-78717797D01*
X109438011Y-78854795D01*
X109438009Y-78854803D01*
X109431500Y-78915350D01*
X109431500Y-80399500D01*
X109411498Y-80467621D01*
X109357842Y-80514114D01*
X109305500Y-80525500D01*
X109134500Y-80525500D01*
X109066379Y-80505498D01*
X109019886Y-80451842D01*
X109008500Y-80399500D01*
X109008500Y-79194995D01*
X109005797Y-79171010D01*
X108993690Y-79063552D01*
X108935376Y-78896901D01*
X108908919Y-78854795D01*
X108841441Y-78747403D01*
X108716596Y-78622558D01*
X108567101Y-78528625D01*
X108567099Y-78528624D01*
X108522768Y-78513112D01*
X108400448Y-78470310D01*
X108269004Y-78455500D01*
X107630996Y-78455500D01*
X107499552Y-78470310D01*
X107499549Y-78470310D01*
X107499549Y-78470311D01*
X107332900Y-78528624D01*
X107332898Y-78528625D01*
X107183403Y-78622558D01*
X107058558Y-78747403D01*
X106964625Y-78896898D01*
X106964624Y-78896900D01*
X106912193Y-79046739D01*
X106906310Y-79063552D01*
X106896937Y-79146738D01*
X106891500Y-79194995D01*
X106891500Y-79353949D01*
X106871498Y-79422070D01*
X106817842Y-79468563D01*
X106747568Y-79478667D01*
X106682988Y-79449173D01*
X106676405Y-79443044D01*
X104865425Y-77632064D01*
X104831399Y-77569752D01*
X104828520Y-77542969D01*
X104828520Y-68944614D01*
X104848522Y-68876493D01*
X104902178Y-68830000D01*
X104972452Y-68819896D01*
X105037032Y-68849390D01*
X105043615Y-68855519D01*
X107188753Y-71000657D01*
X107198720Y-71013097D01*
X107198947Y-71012910D01*
X107203999Y-71019017D01*
X107253666Y-71065657D01*
X107256510Y-71068414D01*
X107276226Y-71088131D01*
X107279423Y-71090611D01*
X107288444Y-71098316D01*
X107320679Y-71128586D01*
X107320680Y-71128586D01*
X107320682Y-71128588D01*
X107338429Y-71138344D01*
X107354959Y-71149202D01*
X107370959Y-71161613D01*
X107411536Y-71179172D01*
X107422187Y-71184390D01*
X107460940Y-71205695D01*
X107480562Y-71210733D01*
X107499263Y-71217135D01*
X107517855Y-71225181D01*
X107561522Y-71232096D01*
X107573125Y-71234498D01*
X107615970Y-71245500D01*
X107636231Y-71245500D01*
X107655939Y-71247050D01*
X107675943Y-71250219D01*
X107719954Y-71246058D01*
X107731811Y-71245500D01*
X110340405Y-71245500D01*
X110408526Y-71265502D01*
X110455019Y-71319158D01*
X110465123Y-71389432D01*
X110435629Y-71454012D01*
X110429500Y-71460595D01*
X108030284Y-73859810D01*
X107967972Y-73893836D01*
X107904050Y-73891117D01*
X107744159Y-73841797D01*
X107744151Y-73841795D01*
X107744149Y-73841795D01*
X107495386Y-73804300D01*
X107243814Y-73804300D01*
X106995051Y-73841795D01*
X106995049Y-73841795D01*
X106995040Y-73841797D01*
X106754663Y-73915943D01*
X106754651Y-73915948D01*
X106527994Y-74025101D01*
X106527987Y-74025105D01*
X106320144Y-74166811D01*
X106320132Y-74166821D01*
X106135725Y-74337923D01*
X105978866Y-74534619D01*
X105853081Y-74752486D01*
X105853079Y-74752490D01*
X105761171Y-74986670D01*
X105705395Y-75231047D01*
X105705193Y-75231931D01*
X105686393Y-75482800D01*
X105705193Y-75733669D01*
X105705194Y-75733673D01*
X105761171Y-75978929D01*
X105853079Y-76213109D01*
X105853081Y-76213113D01*
X105978866Y-76430980D01*
X105978868Y-76430983D01*
X105978869Y-76430984D01*
X106054699Y-76526072D01*
X106135725Y-76627676D01*
X106271734Y-76753872D01*
X106320138Y-76798784D01*
X106320144Y-76798788D01*
X106527987Y-76940494D01*
X106527994Y-76940498D01*
X106527997Y-76940500D01*
X106754655Y-77049653D01*
X106754658Y-77049653D01*
X106754663Y-77049656D01*
X106995040Y-77123802D01*
X106995042Y-77123802D01*
X106995051Y-77123805D01*
X107243814Y-77161300D01*
X107243818Y-77161300D01*
X107495382Y-77161300D01*
X107495386Y-77161300D01*
X107744149Y-77123805D01*
X107769650Y-77115939D01*
X107984536Y-77049656D01*
X107984538Y-77049654D01*
X107984545Y-77049653D01*
X108211204Y-76940500D01*
X108419062Y-76798784D01*
X108574420Y-76654634D01*
X108603474Y-76627676D01*
X108603474Y-76627674D01*
X108603478Y-76627672D01*
X108760331Y-76430984D01*
X108886117Y-76213116D01*
X108886206Y-76212891D01*
X108920167Y-76126359D01*
X108978027Y-75978934D01*
X109034007Y-75733669D01*
X109052807Y-75482800D01*
X109034007Y-75231931D01*
X108978027Y-74986666D01*
X108928460Y-74860374D01*
X108922193Y-74789655D01*
X108955154Y-74726774D01*
X108956594Y-74725309D01*
X111238501Y-72443404D01*
X111300813Y-72409378D01*
X111327596Y-72406499D01*
X119770832Y-72406499D01*
X119838953Y-72426501D01*
X119885446Y-72480157D01*
X119895550Y-72550431D01*
X119892539Y-72565110D01*
X119864457Y-72669913D01*
X119844502Y-72898000D01*
X119864457Y-73126087D01*
X119864458Y-73126092D01*
X119864457Y-73126092D01*
X119871102Y-73150889D01*
X119869412Y-73221865D01*
X119829617Y-73280661D01*
X119764352Y-73308608D01*
X119749395Y-73309499D01*
X113926855Y-73309499D01*
X113911013Y-73307749D01*
X113910986Y-73308043D01*
X113903093Y-73307296D01*
X113835003Y-73309437D01*
X113831045Y-73309499D01*
X113803145Y-73309499D01*
X113803139Y-73309499D01*
X113803133Y-73309500D01*
X113799134Y-73310005D01*
X113787314Y-73310935D01*
X113743115Y-73312324D01*
X113743108Y-73312326D01*
X113723650Y-73317978D01*
X113704305Y-73321984D01*
X113684207Y-73324524D01*
X113684199Y-73324526D01*
X113643091Y-73340801D01*
X113631867Y-73344644D01*
X113589410Y-73356980D01*
X113589408Y-73356980D01*
X113589408Y-73356981D01*
X113571965Y-73367296D01*
X113554219Y-73375989D01*
X113535383Y-73383447D01*
X113499611Y-73409436D01*
X113489695Y-73415950D01*
X113451638Y-73438457D01*
X113437312Y-73452783D01*
X113422286Y-73465616D01*
X113405896Y-73477524D01*
X113405894Y-73477526D01*
X113377701Y-73511604D01*
X113369714Y-73520380D01*
X113030284Y-73859810D01*
X112967972Y-73893836D01*
X112904050Y-73891117D01*
X112744159Y-73841797D01*
X112744151Y-73841795D01*
X112744149Y-73841795D01*
X112495386Y-73804300D01*
X112243814Y-73804300D01*
X111995051Y-73841795D01*
X111995049Y-73841795D01*
X111995040Y-73841797D01*
X111754663Y-73915943D01*
X111754651Y-73915948D01*
X111527994Y-74025101D01*
X111527987Y-74025105D01*
X111320144Y-74166811D01*
X111320132Y-74166821D01*
X111135725Y-74337923D01*
X110978866Y-74534619D01*
X110853081Y-74752486D01*
X110853079Y-74752490D01*
X110761171Y-74986670D01*
X110705395Y-75231047D01*
X110705193Y-75231931D01*
X110686393Y-75482800D01*
X110705193Y-75733669D01*
X110705194Y-75733673D01*
X110761171Y-75978929D01*
X110853079Y-76213109D01*
X110853081Y-76213113D01*
X110978866Y-76430980D01*
X110978868Y-76430983D01*
X110978869Y-76430984D01*
X111054699Y-76526072D01*
X111135725Y-76627676D01*
X111271734Y-76753872D01*
X111320138Y-76798784D01*
X111320144Y-76798788D01*
X111527987Y-76940494D01*
X111527994Y-76940498D01*
X111527997Y-76940500D01*
X111754655Y-77049653D01*
X111754658Y-77049653D01*
X111754663Y-77049656D01*
X111995040Y-77123802D01*
X111995042Y-77123802D01*
X111995051Y-77123805D01*
X112243814Y-77161300D01*
X112243818Y-77161300D01*
X112495382Y-77161300D01*
X112495386Y-77161300D01*
X112744149Y-77123805D01*
X112769650Y-77115939D01*
X112984536Y-77049656D01*
X112984538Y-77049654D01*
X112984545Y-77049653D01*
X113211204Y-76940500D01*
X113419062Y-76798784D01*
X113574420Y-76654634D01*
X113603474Y-76627676D01*
X113603474Y-76627674D01*
X113603478Y-76627672D01*
X113760331Y-76430984D01*
X113886117Y-76213116D01*
X113886206Y-76212891D01*
X113920167Y-76126359D01*
X113978027Y-75978934D01*
X114034007Y-75733669D01*
X114052807Y-75482800D01*
X114034007Y-75231931D01*
X113978027Y-74986666D01*
X113928460Y-74860373D01*
X113922193Y-74789656D01*
X113955153Y-74726774D01*
X113956578Y-74725324D01*
X114068501Y-74613403D01*
X114130814Y-74579378D01*
X114157596Y-74576499D01*
X115737881Y-74576499D01*
X115806002Y-74596501D01*
X115852495Y-74650157D01*
X115862599Y-74720431D01*
X115855171Y-74748532D01*
X115761654Y-74986810D01*
X115761653Y-74986812D01*
X115705689Y-75232002D01*
X115686895Y-75482800D01*
X115705689Y-75733597D01*
X115761653Y-75978787D01*
X115761654Y-75978789D01*
X115853531Y-76212891D01*
X115853533Y-76212895D01*
X115979282Y-76430699D01*
X115979285Y-76430702D01*
X116016197Y-76476990D01*
X116016198Y-76476990D01*
X116765665Y-75727523D01*
X116776788Y-75761756D01*
X116864786Y-75900419D01*
X116984503Y-76012840D01*
X117122760Y-76088848D01*
X116375610Y-76835997D01*
X116376866Y-76849391D01*
X116363311Y-76919082D01*
X116314230Y-76970381D01*
X116293032Y-76980084D01*
X116222897Y-77004625D01*
X116073403Y-77098558D01*
X115948558Y-77223403D01*
X115854625Y-77372898D01*
X115854624Y-77372900D01*
X115809931Y-77500625D01*
X115796310Y-77539552D01*
X115786468Y-77626901D01*
X115781500Y-77670995D01*
X115781500Y-78875500D01*
X115761498Y-78943621D01*
X115707842Y-78990114D01*
X115655500Y-79001500D01*
X114971350Y-79001500D01*
X114910803Y-79008009D01*
X114910795Y-79008011D01*
X114773797Y-79059110D01*
X114773792Y-79059112D01*
X114656738Y-79146738D01*
X114569112Y-79263792D01*
X114569110Y-79263797D01*
X114518011Y-79400795D01*
X114518009Y-79400803D01*
X114511500Y-79461350D01*
X114511500Y-81358649D01*
X114518009Y-81419196D01*
X114518011Y-81419204D01*
X114569110Y-81556202D01*
X114569112Y-81556207D01*
X114656738Y-81673261D01*
X114773792Y-81760887D01*
X114773794Y-81760888D01*
X114773796Y-81760889D01*
X114797135Y-81769594D01*
X114910795Y-81811988D01*
X114910803Y-81811990D01*
X114971350Y-81818499D01*
X114971355Y-81818499D01*
X114971362Y-81818500D01*
X115173501Y-81818500D01*
X115241622Y-81838502D01*
X115288115Y-81892158D01*
X115299501Y-81944500D01*
X115299501Y-84719348D01*
X115279499Y-84787469D01*
X115225843Y-84833962D01*
X115155569Y-84844066D01*
X115140890Y-84841055D01*
X115062001Y-84819916D01*
X115062000Y-84819917D01*
X115062000Y-85794314D01*
X115046045Y-85778359D01*
X114933148Y-85720835D01*
X114839481Y-85706000D01*
X114776519Y-85706000D01*
X114682852Y-85720835D01*
X114569955Y-85778359D01*
X114554000Y-85794314D01*
X114554000Y-84819917D01*
X114553999Y-84819917D01*
X114358928Y-84872187D01*
X114358926Y-84872188D01*
X114151501Y-84968912D01*
X113964025Y-85100184D01*
X113879584Y-85184625D01*
X113817272Y-85218650D01*
X113746456Y-85213584D01*
X113689620Y-85171037D01*
X113676294Y-85148779D01*
X113676282Y-85148753D01*
X113579523Y-84941251D01*
X113448198Y-84753700D01*
X113286300Y-84591802D01*
X113265733Y-84577401D01*
X113098749Y-84460477D01*
X112891246Y-84363717D01*
X112891240Y-84363715D01*
X112797771Y-84338670D01*
X112670087Y-84304457D01*
X112442000Y-84284502D01*
X112213913Y-84304457D01*
X111992759Y-84363715D01*
X111992753Y-84363717D01*
X111785250Y-84460477D01*
X111597703Y-84591799D01*
X111597697Y-84591804D01*
X111435804Y-84753697D01*
X111435799Y-84753703D01*
X111304477Y-84941250D01*
X111207717Y-85148753D01*
X111207715Y-85148759D01*
X111183760Y-85238160D01*
X111148457Y-85369913D01*
X111128502Y-85598000D01*
X111148457Y-85826087D01*
X111164749Y-85886889D01*
X111207715Y-86047240D01*
X111207717Y-86047246D01*
X111304477Y-86254749D01*
X111360029Y-86334086D01*
X111435802Y-86442300D01*
X111597700Y-86604198D01*
X111785251Y-86735523D01*
X111992757Y-86832284D01*
X112213913Y-86891543D01*
X112442000Y-86911498D01*
X112670087Y-86891543D01*
X112891243Y-86832284D01*
X113098749Y-86735523D01*
X113286300Y-86604198D01*
X113371019Y-86519478D01*
X113433327Y-86485456D01*
X113504143Y-86490520D01*
X113560979Y-86533066D01*
X113574306Y-86555326D01*
X113670912Y-86762498D01*
X113802184Y-86949974D01*
X113802189Y-86949980D01*
X113964019Y-87111810D01*
X113964025Y-87111815D01*
X114151501Y-87243087D01*
X114358926Y-87339811D01*
X114358931Y-87339813D01*
X114554000Y-87392081D01*
X114554000Y-86417686D01*
X114569955Y-86433641D01*
X114682852Y-86491165D01*
X114776519Y-86506000D01*
X114839481Y-86506000D01*
X114933148Y-86491165D01*
X115046045Y-86433641D01*
X115062000Y-86417686D01*
X115062000Y-87392081D01*
X115140889Y-87370943D01*
X115211866Y-87372633D01*
X115270662Y-87412427D01*
X115298610Y-87477691D01*
X115299501Y-87492650D01*
X115299501Y-88231775D01*
X115279499Y-88299896D01*
X115225843Y-88346389D01*
X115162520Y-88357296D01*
X115062000Y-88348502D01*
X114833913Y-88368457D01*
X114612759Y-88427715D01*
X114612753Y-88427717D01*
X114405250Y-88524477D01*
X114217703Y-88655799D01*
X114217697Y-88655804D01*
X114055804Y-88817697D01*
X114055799Y-88817703D01*
X113924477Y-89005250D01*
X113827717Y-89212753D01*
X113827715Y-89212759D01*
X113768457Y-89433913D01*
X113748502Y-89662000D01*
X113768457Y-89890086D01*
X113827715Y-90111240D01*
X113827717Y-90111246D01*
X113924477Y-90318749D01*
X114047957Y-90495097D01*
X114055802Y-90506300D01*
X114217700Y-90668198D01*
X114405251Y-90799523D01*
X114612757Y-90896284D01*
X114833913Y-90955543D01*
X115062000Y-90975498D01*
X115290087Y-90955543D01*
X115511243Y-90896284D01*
X115718749Y-90799523D01*
X115906300Y-90668198D01*
X116068198Y-90506300D01*
X116199523Y-90318749D01*
X116296284Y-90111243D01*
X116355543Y-89890087D01*
X116375498Y-89662000D01*
X116355543Y-89433913D01*
X116338787Y-89371379D01*
X116340476Y-89300403D01*
X116368640Y-89252519D01*
X116386675Y-89233313D01*
X116389368Y-89230534D01*
X116409135Y-89210769D01*
X116411618Y-89207566D01*
X116419309Y-89198561D01*
X116449587Y-89166320D01*
X116459346Y-89148566D01*
X116470198Y-89132045D01*
X116482614Y-89116040D01*
X116500169Y-89075469D01*
X116505393Y-89064807D01*
X116506830Y-89062194D01*
X116526696Y-89026059D01*
X116531734Y-89006434D01*
X116538139Y-88987729D01*
X116544470Y-88973099D01*
X116546182Y-88969144D01*
X116553097Y-88925475D01*
X116555504Y-88913855D01*
X116566499Y-88871035D01*
X116566501Y-88871027D01*
X116566501Y-88850768D01*
X116568052Y-88831057D01*
X116570166Y-88817708D01*
X116571220Y-88811056D01*
X116567060Y-88767044D01*
X116566501Y-88755187D01*
X116566501Y-81590702D01*
X116574445Y-81546669D01*
X116581932Y-81526596D01*
X116621989Y-81419201D01*
X116626516Y-81377099D01*
X116628499Y-81358649D01*
X116628500Y-81358632D01*
X116628500Y-79874500D01*
X116648502Y-79806379D01*
X116702158Y-79759886D01*
X116754500Y-79748500D01*
X116925500Y-79748500D01*
X116993621Y-79768502D01*
X117040114Y-79822158D01*
X117051500Y-79874500D01*
X117051500Y-81079004D01*
X117066310Y-81210448D01*
X117095874Y-81294936D01*
X117124624Y-81377099D01*
X117124625Y-81377101D01*
X117218558Y-81526596D01*
X117343403Y-81651441D01*
X117462734Y-81726421D01*
X117492901Y-81745376D01*
X117659552Y-81803690D01*
X117790996Y-81818500D01*
X118429004Y-81818500D01*
X118560448Y-81803690D01*
X118727099Y-81745376D01*
X118876596Y-81651441D01*
X119001441Y-81526596D01*
X119095376Y-81377099D01*
X119153690Y-81210448D01*
X119168500Y-81079004D01*
X119168500Y-79740996D01*
X119153690Y-79609552D01*
X119095376Y-79442901D01*
X119044142Y-79361362D01*
X119001441Y-79293403D01*
X118876596Y-79168558D01*
X118727101Y-79074625D01*
X118727099Y-79074624D01*
X118695457Y-79063552D01*
X118560448Y-79016310D01*
X118429004Y-79001500D01*
X118024500Y-79001500D01*
X117956379Y-78981498D01*
X117909886Y-78927842D01*
X117898500Y-78875500D01*
X117898500Y-77670995D01*
X117894113Y-77632064D01*
X117883690Y-77539552D01*
X117825376Y-77372901D01*
X117825374Y-77372898D01*
X117825374Y-77372897D01*
X117768170Y-77281857D01*
X117748864Y-77213536D01*
X117769559Y-77145623D01*
X117823687Y-77099679D01*
X117837719Y-77094419D01*
X117984349Y-77049190D01*
X117984365Y-77049184D01*
X118210955Y-76940063D01*
X118363588Y-76835998D01*
X118363588Y-76835997D01*
X117613082Y-76085491D01*
X117685229Y-76056926D01*
X117818092Y-75960395D01*
X117922775Y-75833855D01*
X117973041Y-75727032D01*
X118722999Y-76476990D01*
X118723000Y-76476990D01*
X118759918Y-76430697D01*
X118885666Y-76212895D01*
X118885668Y-76212891D01*
X118977545Y-75978789D01*
X118977546Y-75978787D01*
X119033510Y-75733597D01*
X119052304Y-75482800D01*
X119033510Y-75232002D01*
X118977546Y-74986812D01*
X118977545Y-74986810D01*
X118884029Y-74748532D01*
X118877761Y-74677812D01*
X118910722Y-74614931D01*
X118972447Y-74579852D01*
X119001319Y-74576499D01*
X119997407Y-74576499D01*
X120065528Y-74596501D01*
X120086502Y-74613404D01*
X120571018Y-75097920D01*
X120605044Y-75160232D01*
X120599979Y-75231047D01*
X120557432Y-75287883D01*
X120535175Y-75301209D01*
X120501502Y-75316911D01*
X120314025Y-75448184D01*
X120314019Y-75448189D01*
X120152189Y-75610019D01*
X120152184Y-75610025D01*
X120020912Y-75797501D01*
X119924188Y-76004926D01*
X119924186Y-76004931D01*
X119871917Y-76200000D01*
X120846314Y-76200000D01*
X120830359Y-76215955D01*
X120772835Y-76328852D01*
X120753014Y-76454000D01*
X120772835Y-76579148D01*
X120830359Y-76692045D01*
X120846314Y-76708000D01*
X119871918Y-76708000D01*
X119924186Y-76903068D01*
X119924188Y-76903073D01*
X120020912Y-77110498D01*
X120152184Y-77297974D01*
X120152189Y-77297980D01*
X120314019Y-77459810D01*
X120314025Y-77459815D01*
X120501501Y-77591087D01*
X120708926Y-77687811D01*
X120708931Y-77687813D01*
X120904000Y-77740081D01*
X120904000Y-76765686D01*
X120919955Y-76781641D01*
X121032852Y-76839165D01*
X121126519Y-76854000D01*
X121189481Y-76854000D01*
X121283148Y-76839165D01*
X121396045Y-76781641D01*
X121412000Y-76765686D01*
X121412000Y-77740081D01*
X121607068Y-77687813D01*
X121607073Y-77687811D01*
X121814498Y-77591087D01*
X122001974Y-77459815D01*
X122001980Y-77459810D01*
X122163810Y-77297980D01*
X122163815Y-77297974D01*
X122295085Y-77110502D01*
X122310786Y-77076829D01*
X122357702Y-77023542D01*
X122425979Y-77004079D01*
X122493939Y-77024619D01*
X122514078Y-77040980D01*
X122744594Y-77271496D01*
X122778620Y-77333808D01*
X122781499Y-77360591D01*
X122781499Y-91581207D01*
X122761497Y-91649328D01*
X122707841Y-91695821D01*
X122637567Y-91705925D01*
X122622888Y-91702914D01*
X122503600Y-91670951D01*
X122503604Y-91670951D01*
X122275600Y-91651004D01*
X122047597Y-91670951D01*
X121826531Y-91730186D01*
X121826526Y-91730188D01*
X121619100Y-91826913D01*
X121547709Y-91876899D01*
X122236083Y-92565272D01*
X122150452Y-92578835D01*
X122037555Y-92636359D01*
X121947959Y-92725955D01*
X121890435Y-92838852D01*
X121876872Y-92924481D01*
X121188500Y-92236109D01*
X121138513Y-92307500D01*
X121041788Y-92514926D01*
X121041786Y-92514931D01*
X120982551Y-92735997D01*
X120962604Y-92964000D01*
X120982551Y-93192002D01*
X121041786Y-93413068D01*
X121041788Y-93413073D01*
X121138513Y-93620501D01*
X121188499Y-93691888D01*
X121876872Y-93003516D01*
X121890435Y-93089148D01*
X121947959Y-93202045D01*
X122037555Y-93291641D01*
X122150452Y-93349165D01*
X122236080Y-93362726D01*
X121547710Y-94051097D01*
X121547710Y-94051100D01*
X121619098Y-94101086D01*
X121826526Y-94197811D01*
X121826531Y-94197813D01*
X122047599Y-94257048D01*
X122047595Y-94257048D01*
X122275600Y-94276995D01*
X122503604Y-94257048D01*
X122503608Y-94257047D01*
X122622887Y-94225086D01*
X122693864Y-94226775D01*
X122752660Y-94266569D01*
X122780608Y-94331833D01*
X122781499Y-94346792D01*
X122781499Y-95899145D01*
X122779750Y-95914987D01*
X122780043Y-95915015D01*
X122779297Y-95922906D01*
X122781437Y-95990983D01*
X122781499Y-95994942D01*
X122781499Y-96022850D01*
X122781500Y-96022868D01*
X122782006Y-96026876D01*
X122782936Y-96038695D01*
X122784325Y-96082887D01*
X122784326Y-96082892D01*
X122789976Y-96102338D01*
X122793985Y-96121696D01*
X122796524Y-96141792D01*
X122796525Y-96141799D01*
X122812799Y-96182902D01*
X122816643Y-96194128D01*
X122828981Y-96236592D01*
X122839293Y-96254030D01*
X122847987Y-96271778D01*
X122855443Y-96290608D01*
X122855449Y-96290619D01*
X122881431Y-96326380D01*
X122887948Y-96336300D01*
X122910457Y-96374361D01*
X122910458Y-96374362D01*
X122910460Y-96374365D01*
X122924778Y-96388683D01*
X122937616Y-96403713D01*
X122949525Y-96420103D01*
X122949529Y-96420108D01*
X122983597Y-96448291D01*
X122992377Y-96456281D01*
X124022501Y-97486405D01*
X124056527Y-97548717D01*
X124051462Y-97619532D01*
X124008915Y-97676368D01*
X123942395Y-97701179D01*
X123933406Y-97701500D01*
X123839431Y-97701500D01*
X123694971Y-97725606D01*
X123617369Y-97738555D01*
X123617360Y-97738557D01*
X123404428Y-97811656D01*
X123404426Y-97811658D01*
X123206426Y-97918810D01*
X123206424Y-97918811D01*
X123028762Y-98057091D01*
X122876279Y-98222729D01*
X122876275Y-98222734D01*
X122753141Y-98411206D01*
X122662703Y-98617386D01*
X122662702Y-98617387D01*
X122607437Y-98835624D01*
X122607436Y-98835630D01*
X122607436Y-98835632D01*
X122588844Y-99060000D01*
X122606232Y-99269844D01*
X122607437Y-99284375D01*
X122662702Y-99502612D01*
X122662703Y-99502613D01*
X122662704Y-99502616D01*
X122702750Y-99593913D01*
X122753141Y-99708793D01*
X122876275Y-99897265D01*
X122876279Y-99897270D01*
X123028762Y-100062908D01*
X123083331Y-100105381D01*
X123206424Y-100201189D01*
X123404426Y-100308342D01*
X123404427Y-100308342D01*
X123404428Y-100308343D01*
X123516227Y-100346723D01*
X123617365Y-100381444D01*
X123839431Y-100418500D01*
X123839435Y-100418500D01*
X124064565Y-100418500D01*
X124064569Y-100418500D01*
X124286635Y-100381444D01*
X124286651Y-100381438D01*
X124289751Y-100380654D01*
X124291072Y-100380703D01*
X124291777Y-100380586D01*
X124291801Y-100380730D01*
X124360698Y-100383311D01*
X124409795Y-100413699D01*
X124619754Y-100623658D01*
X124629721Y-100636098D01*
X124629948Y-100635911D01*
X124635000Y-100642018D01*
X124635001Y-100642019D01*
X124660966Y-100666402D01*
X124684667Y-100688658D01*
X124687511Y-100691415D01*
X124707227Y-100711132D01*
X124710424Y-100713612D01*
X124719445Y-100721317D01*
X124751680Y-100751587D01*
X124751681Y-100751587D01*
X124751683Y-100751589D01*
X124769430Y-100761345D01*
X124785960Y-100772203D01*
X124801960Y-100784614D01*
X124842537Y-100802173D01*
X124853188Y-100807391D01*
X124891941Y-100828696D01*
X124911563Y-100833734D01*
X124930264Y-100840136D01*
X124948856Y-100848182D01*
X124992523Y-100855097D01*
X125004126Y-100857499D01*
X125046971Y-100868501D01*
X125067232Y-100868501D01*
X125086940Y-100870051D01*
X125106944Y-100873220D01*
X125150955Y-100869059D01*
X125162812Y-100868501D01*
X135138148Y-100868501D01*
X135153989Y-100870250D01*
X135154017Y-100869957D01*
X135161903Y-100870701D01*
X135161910Y-100870703D01*
X135229987Y-100868563D01*
X135233946Y-100868501D01*
X135261852Y-100868501D01*
X135261857Y-100868501D01*
X135265868Y-100867993D01*
X135277700Y-100867062D01*
X135321890Y-100865674D01*
X135341348Y-100860020D01*
X135360695Y-100856014D01*
X135380798Y-100853475D01*
X135421911Y-100837196D01*
X135433131Y-100833354D01*
X135457914Y-100826155D01*
X135475592Y-100821020D01*
X135475596Y-100821018D01*
X135493027Y-100810709D01*
X135510781Y-100802010D01*
X135529618Y-100794553D01*
X135565393Y-100768559D01*
X135575299Y-100762052D01*
X135613363Y-100739543D01*
X135627686Y-100725219D01*
X135642725Y-100712375D01*
X135644436Y-100711132D01*
X135659108Y-100700473D01*
X135687304Y-100666387D01*
X135695273Y-100657631D01*
X141757659Y-94595246D01*
X141770097Y-94585283D01*
X141769909Y-94585056D01*
X141776015Y-94580004D01*
X141776014Y-94580004D01*
X141776017Y-94580003D01*
X141822660Y-94530331D01*
X141825350Y-94527555D01*
X141845134Y-94507773D01*
X141847613Y-94504576D01*
X141855309Y-94495564D01*
X141878832Y-94470514D01*
X141940043Y-94434550D01*
X142010983Y-94437387D01*
X142023930Y-94442573D01*
X142044748Y-94452280D01*
X142044757Y-94452284D01*
X142265913Y-94511543D01*
X142494000Y-94531498D01*
X142722087Y-94511543D01*
X142943243Y-94452284D01*
X143060253Y-94397721D01*
X143130442Y-94387061D01*
X143195255Y-94416041D01*
X143234112Y-94475461D01*
X143239501Y-94511917D01*
X143239501Y-95226082D01*
X143219499Y-95294203D01*
X143165843Y-95340696D01*
X143095569Y-95350800D01*
X143060252Y-95340277D01*
X142943250Y-95285719D01*
X142943246Y-95285717D01*
X142943243Y-95285716D01*
X142943241Y-95285715D01*
X142943240Y-95285715D01*
X142806632Y-95249111D01*
X142722087Y-95226457D01*
X142494000Y-95206502D01*
X142265913Y-95226457D01*
X142044759Y-95285715D01*
X142044753Y-95285717D01*
X141837250Y-95382477D01*
X141649703Y-95513799D01*
X141649697Y-95513804D01*
X141487804Y-95675697D01*
X141487799Y-95675703D01*
X141356477Y-95863250D01*
X141259717Y-96070753D01*
X141259715Y-96070759D01*
X141200807Y-96290608D01*
X141200457Y-96291913D01*
X141180502Y-96520000D01*
X141200457Y-96748087D01*
X141259716Y-96969243D01*
X141356477Y-97176749D01*
X141487802Y-97364300D01*
X141649700Y-97526198D01*
X141837251Y-97657523D01*
X142044757Y-97754284D01*
X142265913Y-97813543D01*
X142494000Y-97833498D01*
X142722087Y-97813543D01*
X142943243Y-97754284D01*
X143060253Y-97699721D01*
X143130442Y-97689061D01*
X143195255Y-97718041D01*
X143234112Y-97777461D01*
X143239501Y-97813917D01*
X143239501Y-98128402D01*
X143219499Y-98196523D01*
X143202596Y-98217497D01*
X142907246Y-98512847D01*
X142844934Y-98546873D01*
X142785540Y-98545459D01*
X142722090Y-98528457D01*
X142494000Y-98508502D01*
X142265913Y-98528457D01*
X142044759Y-98587715D01*
X142044753Y-98587717D01*
X141837250Y-98684477D01*
X141649703Y-98815799D01*
X141649697Y-98815804D01*
X141487804Y-98977697D01*
X141487799Y-98977703D01*
X141356477Y-99165250D01*
X141259717Y-99372753D01*
X141259715Y-99372759D01*
X141213649Y-99544680D01*
X141200457Y-99593913D01*
X141180502Y-99822000D01*
X141200457Y-100050087D01*
X141234670Y-100177771D01*
X141259715Y-100271240D01*
X141259717Y-100271246D01*
X141356477Y-100478749D01*
X141484670Y-100661828D01*
X141487802Y-100666300D01*
X141649700Y-100828198D01*
X141837251Y-100959523D01*
X142044757Y-101056284D01*
X142265913Y-101115543D01*
X142494000Y-101135498D01*
X142722087Y-101115543D01*
X142943243Y-101056284D01*
X143150749Y-100959523D01*
X143338300Y-100828198D01*
X143500198Y-100666300D01*
X143631523Y-100478749D01*
X143728284Y-100271243D01*
X143787543Y-100050087D01*
X143807498Y-99822000D01*
X151340502Y-99822000D01*
X151360457Y-100050087D01*
X151394670Y-100177771D01*
X151419715Y-100271240D01*
X151419717Y-100271246D01*
X151516477Y-100478749D01*
X151644670Y-100661828D01*
X151647802Y-100666300D01*
X151809700Y-100828198D01*
X151997251Y-100959523D01*
X152204757Y-101056284D01*
X152425913Y-101115543D01*
X152654000Y-101135498D01*
X152882087Y-101115543D01*
X153103243Y-101056284D01*
X153310749Y-100959523D01*
X153498300Y-100828198D01*
X153660198Y-100666300D01*
X153791523Y-100478749D01*
X153888284Y-100271243D01*
X153947543Y-100050087D01*
X153967498Y-99822000D01*
X153947543Y-99593913D01*
X153888284Y-99372757D01*
X153791523Y-99165251D01*
X153660198Y-98977700D01*
X153498300Y-98815802D01*
X153484301Y-98806000D01*
X153310749Y-98684477D01*
X153103246Y-98587717D01*
X153103240Y-98587715D01*
X152999806Y-98560000D01*
X152882087Y-98528457D01*
X152654000Y-98508502D01*
X152425913Y-98528457D01*
X152204759Y-98587715D01*
X152204753Y-98587717D01*
X151997250Y-98684477D01*
X151809703Y-98815799D01*
X151809697Y-98815804D01*
X151647804Y-98977697D01*
X151647799Y-98977703D01*
X151516477Y-99165250D01*
X151419717Y-99372753D01*
X151419715Y-99372759D01*
X151373649Y-99544680D01*
X151360457Y-99593913D01*
X151340502Y-99822000D01*
X143807498Y-99822000D01*
X143787543Y-99593913D01*
X143770540Y-99530458D01*
X143772229Y-99459483D01*
X143803149Y-99408754D01*
X144261661Y-98950242D01*
X144274099Y-98940279D01*
X144273911Y-98940052D01*
X144280017Y-98935000D01*
X144280016Y-98935000D01*
X144280019Y-98934999D01*
X144326663Y-98885326D01*
X144329353Y-98882550D01*
X144349136Y-98862769D01*
X144351615Y-98859572D01*
X144359312Y-98850558D01*
X144389587Y-98818320D01*
X144399347Y-98800564D01*
X144410196Y-98784049D01*
X144422615Y-98768040D01*
X144440180Y-98727445D01*
X144445385Y-98716820D01*
X144466696Y-98678059D01*
X144471734Y-98658433D01*
X144478138Y-98639731D01*
X144486181Y-98621146D01*
X144486180Y-98621146D01*
X144486182Y-98621144D01*
X144493097Y-98577480D01*
X144495505Y-98565851D01*
X144495907Y-98564287D01*
X144506501Y-98523029D01*
X144506501Y-98502774D01*
X144508052Y-98483062D01*
X144511221Y-98463056D01*
X144507060Y-98419035D01*
X144506501Y-98407178D01*
X144506501Y-86528500D01*
X144526503Y-86460379D01*
X144580159Y-86413886D01*
X144632501Y-86402500D01*
X145169500Y-86402500D01*
X145237621Y-86422502D01*
X145284114Y-86476158D01*
X145295500Y-86528500D01*
X145295500Y-87212649D01*
X145302009Y-87273196D01*
X145302011Y-87273204D01*
X145353110Y-87410202D01*
X145353112Y-87410207D01*
X145440738Y-87527261D01*
X145557792Y-87614887D01*
X145557794Y-87614888D01*
X145557796Y-87614889D01*
X145616875Y-87636924D01*
X145694795Y-87665988D01*
X145694803Y-87665990D01*
X145755350Y-87672499D01*
X145755355Y-87672499D01*
X145755362Y-87672500D01*
X145755368Y-87672500D01*
X147652632Y-87672500D01*
X147652638Y-87672500D01*
X147652645Y-87672499D01*
X147652649Y-87672499D01*
X147713196Y-87665990D01*
X147713199Y-87665989D01*
X147713201Y-87665989D01*
X147850204Y-87614889D01*
X147967261Y-87527261D01*
X147985047Y-87503502D01*
X148041882Y-87460955D01*
X148112698Y-87455890D01*
X148175007Y-87489913D01*
X148175010Y-87489916D01*
X152416834Y-91731740D01*
X152450860Y-91794052D01*
X152445795Y-91864867D01*
X152403248Y-91921703D01*
X152360350Y-91942542D01*
X152204931Y-91984186D01*
X152204926Y-91984188D01*
X151997501Y-92080912D01*
X151810025Y-92212184D01*
X151810019Y-92212189D01*
X151648189Y-92374019D01*
X151648184Y-92374025D01*
X151516912Y-92561501D01*
X151420188Y-92768926D01*
X151420186Y-92768931D01*
X151367917Y-92964000D01*
X152342314Y-92964000D01*
X152326359Y-92979955D01*
X152268835Y-93092852D01*
X152249014Y-93218000D01*
X152268835Y-93343148D01*
X152326359Y-93456045D01*
X152342314Y-93472000D01*
X151367918Y-93472000D01*
X151420186Y-93667068D01*
X151420188Y-93667073D01*
X151516912Y-93874498D01*
X151648184Y-94061974D01*
X151648189Y-94061980D01*
X151810019Y-94223810D01*
X151810025Y-94223815D01*
X151997501Y-94355087D01*
X152204926Y-94451811D01*
X152204931Y-94451813D01*
X152400000Y-94504081D01*
X152400000Y-93529686D01*
X152415955Y-93545641D01*
X152528852Y-93603165D01*
X152622519Y-93618000D01*
X152685481Y-93618000D01*
X152779148Y-93603165D01*
X152892045Y-93545641D01*
X152908000Y-93529686D01*
X152908000Y-94504081D01*
X152986889Y-94482943D01*
X153057866Y-94484633D01*
X153116662Y-94524427D01*
X153144610Y-94589691D01*
X153145501Y-94604650D01*
X153145501Y-95080402D01*
X153125499Y-95148523D01*
X153108596Y-95169497D01*
X153067246Y-95210847D01*
X153004934Y-95244873D01*
X152945540Y-95243459D01*
X152882090Y-95226457D01*
X152654000Y-95206502D01*
X152425913Y-95226457D01*
X152204759Y-95285715D01*
X152204753Y-95285717D01*
X151997250Y-95382477D01*
X151809703Y-95513799D01*
X151809697Y-95513804D01*
X151647804Y-95675697D01*
X151647799Y-95675703D01*
X151516477Y-95863250D01*
X151419717Y-96070753D01*
X151419715Y-96070759D01*
X151360807Y-96290608D01*
X151360457Y-96291913D01*
X151340502Y-96520000D01*
X151360457Y-96748087D01*
X151419716Y-96969243D01*
X151516477Y-97176749D01*
X151647802Y-97364300D01*
X151809700Y-97526198D01*
X151997251Y-97657523D01*
X152204757Y-97754284D01*
X152425913Y-97813543D01*
X152654000Y-97833498D01*
X152882087Y-97813543D01*
X153103243Y-97754284D01*
X153310749Y-97657523D01*
X153498300Y-97526198D01*
X153660198Y-97364300D01*
X153791523Y-97176749D01*
X153888284Y-96969243D01*
X153947543Y-96748087D01*
X153967498Y-96520000D01*
X153947543Y-96291913D01*
X153947195Y-96290616D01*
X153930540Y-96228458D01*
X153932229Y-96157481D01*
X153963149Y-96106753D01*
X154167658Y-95902244D01*
X154180093Y-95892283D01*
X154179906Y-95892056D01*
X154186017Y-95887000D01*
X154186016Y-95887000D01*
X154186019Y-95886999D01*
X154232677Y-95837311D01*
X154235368Y-95834534D01*
X154255136Y-95814768D01*
X154257615Y-95811570D01*
X154265300Y-95802570D01*
X154295587Y-95770320D01*
X154305346Y-95752566D01*
X154316205Y-95736037D01*
X154328612Y-95720043D01*
X154328612Y-95720042D01*
X154328615Y-95720039D01*
X154336242Y-95702411D01*
X154381648Y-95647840D01*
X154449354Y-95626476D01*
X154517862Y-95645109D01*
X154565421Y-95697822D01*
X154577873Y-95751210D01*
X154633746Y-101422259D01*
X154614416Y-101490573D01*
X154561221Y-101537592D01*
X154507752Y-101549500D01*
X99997632Y-101549500D01*
X99929511Y-101529498D01*
X99883018Y-101475842D01*
X99871634Y-101424121D01*
X99870212Y-101135498D01*
X99847476Y-96520000D01*
X100540502Y-96520000D01*
X100560457Y-96748087D01*
X100619716Y-96969243D01*
X100716477Y-97176749D01*
X100847802Y-97364300D01*
X101009700Y-97526198D01*
X101197251Y-97657523D01*
X101404757Y-97754284D01*
X101625913Y-97813543D01*
X101854000Y-97833498D01*
X102082087Y-97813543D01*
X102303243Y-97754284D01*
X102510749Y-97657523D01*
X102698300Y-97526198D01*
X102860198Y-97364300D01*
X102991523Y-97176749D01*
X103088284Y-96969243D01*
X103147543Y-96748087D01*
X103167498Y-96520000D01*
X110700502Y-96520000D01*
X110720457Y-96748087D01*
X110779716Y-96969243D01*
X110876477Y-97176749D01*
X111007802Y-97364300D01*
X111169700Y-97526198D01*
X111357251Y-97657523D01*
X111564757Y-97754284D01*
X111785913Y-97813543D01*
X112014000Y-97833498D01*
X112242087Y-97813543D01*
X112463243Y-97754284D01*
X112670749Y-97657523D01*
X112858300Y-97526198D01*
X113020198Y-97364300D01*
X113031157Y-97348649D01*
X114238849Y-97348649D01*
X114245358Y-97409196D01*
X114245360Y-97409204D01*
X114296459Y-97546202D01*
X114296461Y-97546207D01*
X114384087Y-97663261D01*
X114501141Y-97750887D01*
X114501143Y-97750888D01*
X114501145Y-97750889D01*
X114560224Y-97772924D01*
X114638144Y-97801988D01*
X114638152Y-97801990D01*
X114698699Y-97808499D01*
X114698704Y-97808499D01*
X114698711Y-97808500D01*
X114698717Y-97808500D01*
X116395981Y-97808500D01*
X116395987Y-97808500D01*
X116395994Y-97808499D01*
X116395998Y-97808499D01*
X116456545Y-97801990D01*
X116456548Y-97801989D01*
X116456550Y-97801989D01*
X116593553Y-97750889D01*
X116608964Y-97739353D01*
X116710610Y-97663261D01*
X116798236Y-97546207D01*
X116798236Y-97546206D01*
X116798238Y-97546204D01*
X116849338Y-97409201D01*
X116855849Y-97348638D01*
X116855849Y-96500000D01*
X117734353Y-96500000D01*
X117754300Y-96728002D01*
X117813535Y-96949068D01*
X117813537Y-96949073D01*
X117910262Y-97156501D01*
X117960248Y-97227888D01*
X118648621Y-96539516D01*
X118662184Y-96625148D01*
X118719708Y-96738045D01*
X118809304Y-96827641D01*
X118922201Y-96885165D01*
X119007831Y-96898727D01*
X118319459Y-97587098D01*
X118319459Y-97587100D01*
X118390847Y-97637086D01*
X118598275Y-97733811D01*
X118598280Y-97733813D01*
X118819348Y-97793048D01*
X118819344Y-97793048D01*
X119047349Y-97812995D01*
X119275351Y-97793048D01*
X119496417Y-97733813D01*
X119496422Y-97733811D01*
X119703846Y-97637088D01*
X119775237Y-97587099D01*
X119775237Y-97587097D01*
X119086867Y-96898727D01*
X119172497Y-96885165D01*
X119285394Y-96827641D01*
X119374990Y-96738045D01*
X119432514Y-96625148D01*
X119446076Y-96539518D01*
X120134446Y-97227888D01*
X120134448Y-97227888D01*
X120184437Y-97156497D01*
X120281160Y-96949073D01*
X120281162Y-96949068D01*
X120340397Y-96728002D01*
X120360344Y-96500000D01*
X120340397Y-96271997D01*
X120281162Y-96050931D01*
X120281160Y-96050926D01*
X120184435Y-95843498D01*
X120134449Y-95772110D01*
X120134447Y-95772110D01*
X119446076Y-96460481D01*
X119432514Y-96374852D01*
X119374990Y-96261955D01*
X119285394Y-96172359D01*
X119172497Y-96114835D01*
X119086866Y-96101272D01*
X119775237Y-95412899D01*
X119775237Y-95412898D01*
X119703850Y-95362913D01*
X119496422Y-95266188D01*
X119496417Y-95266186D01*
X119275349Y-95206951D01*
X119275353Y-95206951D01*
X119047349Y-95187004D01*
X118819346Y-95206951D01*
X118598280Y-95266186D01*
X118598275Y-95266188D01*
X118390849Y-95362913D01*
X118319458Y-95412900D01*
X119007830Y-96101272D01*
X118922201Y-96114835D01*
X118809304Y-96172359D01*
X118719708Y-96261955D01*
X118662184Y-96374852D01*
X118648621Y-96460481D01*
X117960249Y-95772109D01*
X117910262Y-95843500D01*
X117813537Y-96050926D01*
X117813535Y-96050931D01*
X117754300Y-96271997D01*
X117734353Y-96500000D01*
X116855849Y-96500000D01*
X116855849Y-95651362D01*
X116855848Y-95651350D01*
X116849339Y-95590803D01*
X116849337Y-95590795D01*
X116820273Y-95512875D01*
X116798238Y-95453796D01*
X116798237Y-95453794D01*
X116798236Y-95453792D01*
X116710610Y-95336738D01*
X116593556Y-95249112D01*
X116593551Y-95249110D01*
X116456553Y-95198011D01*
X116456545Y-95198009D01*
X116395998Y-95191500D01*
X116395987Y-95191500D01*
X114698711Y-95191500D01*
X114698699Y-95191500D01*
X114638152Y-95198009D01*
X114638144Y-95198011D01*
X114501146Y-95249110D01*
X114501141Y-95249112D01*
X114384087Y-95336738D01*
X114296461Y-95453792D01*
X114296459Y-95453797D01*
X114245360Y-95590795D01*
X114245358Y-95590803D01*
X114238849Y-95651350D01*
X114238849Y-97348649D01*
X113031157Y-97348649D01*
X113151523Y-97176749D01*
X113248284Y-96969243D01*
X113307543Y-96748087D01*
X113327498Y-96520000D01*
X113307543Y-96291913D01*
X113248284Y-96070757D01*
X113151523Y-95863251D01*
X113020198Y-95675700D01*
X112858300Y-95513802D01*
X112670749Y-95382477D01*
X112581149Y-95340696D01*
X112463246Y-95285717D01*
X112463240Y-95285715D01*
X112326632Y-95249111D01*
X112242087Y-95226457D01*
X112014000Y-95206502D01*
X111785913Y-95226457D01*
X111564759Y-95285715D01*
X111564753Y-95285717D01*
X111357250Y-95382477D01*
X111169703Y-95513799D01*
X111169697Y-95513804D01*
X111007804Y-95675697D01*
X111007799Y-95675703D01*
X110876477Y-95863250D01*
X110779717Y-96070753D01*
X110779715Y-96070759D01*
X110720807Y-96290608D01*
X110720457Y-96291913D01*
X110700502Y-96520000D01*
X103167498Y-96520000D01*
X103147543Y-96291913D01*
X103088284Y-96070757D01*
X102991523Y-95863251D01*
X102860198Y-95675700D01*
X102698300Y-95513802D01*
X102510749Y-95382477D01*
X102421149Y-95340696D01*
X102303246Y-95285717D01*
X102303240Y-95285715D01*
X102166632Y-95249111D01*
X102082087Y-95226457D01*
X101854000Y-95206502D01*
X101625913Y-95226457D01*
X101404759Y-95285715D01*
X101404753Y-95285717D01*
X101197250Y-95382477D01*
X101009703Y-95513799D01*
X101009697Y-95513804D01*
X100847804Y-95675697D01*
X100847799Y-95675703D01*
X100716477Y-95863250D01*
X100619717Y-96070753D01*
X100619715Y-96070759D01*
X100560807Y-96290608D01*
X100560457Y-96291913D01*
X100540502Y-96520000D01*
X99847476Y-96520000D01*
X99832461Y-93472000D01*
X100286502Y-93472000D01*
X100306457Y-93700087D01*
X100333133Y-93799641D01*
X100365715Y-93921240D01*
X100365717Y-93921246D01*
X100431342Y-94061980D01*
X100462477Y-94128749D01*
X100593802Y-94316300D01*
X100755700Y-94478198D01*
X100943251Y-94609523D01*
X101150757Y-94706284D01*
X101371913Y-94765543D01*
X101600000Y-94785498D01*
X101828087Y-94765543D01*
X102049243Y-94706284D01*
X102256749Y-94609523D01*
X102444300Y-94478198D01*
X102606198Y-94316300D01*
X102737523Y-94128749D01*
X102834284Y-93921243D01*
X102893543Y-93700087D01*
X102913498Y-93472000D01*
X102893543Y-93243913D01*
X102886600Y-93218000D01*
X110473917Y-93218000D01*
X111448314Y-93218000D01*
X111432359Y-93233955D01*
X111374835Y-93346852D01*
X111355014Y-93472000D01*
X111374835Y-93597148D01*
X111432359Y-93710045D01*
X111448314Y-93726000D01*
X110473918Y-93726000D01*
X110526186Y-93921068D01*
X110526188Y-93921073D01*
X110622912Y-94128498D01*
X110754184Y-94315974D01*
X110754189Y-94315980D01*
X110916019Y-94477810D01*
X110916025Y-94477815D01*
X111103501Y-94609087D01*
X111310926Y-94705811D01*
X111310931Y-94705813D01*
X111506000Y-94758081D01*
X111506000Y-93783686D01*
X111521955Y-93799641D01*
X111634852Y-93857165D01*
X111728519Y-93872000D01*
X111791481Y-93872000D01*
X111885148Y-93857165D01*
X111998045Y-93799641D01*
X112014000Y-93783686D01*
X112014000Y-94758081D01*
X112209068Y-94705813D01*
X112209073Y-94705811D01*
X112416498Y-94609087D01*
X112603974Y-94477815D01*
X112603980Y-94477810D01*
X112765810Y-94315980D01*
X112765815Y-94315974D01*
X112897087Y-94128498D01*
X112993811Y-93921073D01*
X112993813Y-93921068D01*
X113046082Y-93726000D01*
X112071686Y-93726000D01*
X112087641Y-93710045D01*
X112145165Y-93597148D01*
X112164986Y-93472000D01*
X112145165Y-93346852D01*
X112087641Y-93233955D01*
X112071686Y-93218000D01*
X113046082Y-93218000D01*
X112993813Y-93022931D01*
X112993811Y-93022926D01*
X112897087Y-92815501D01*
X112765815Y-92628025D01*
X112765810Y-92628019D01*
X112603980Y-92466189D01*
X112603974Y-92466184D01*
X112416498Y-92334912D01*
X112209073Y-92238188D01*
X112209071Y-92238187D01*
X112014000Y-92185917D01*
X112014000Y-93160314D01*
X111998045Y-93144359D01*
X111885148Y-93086835D01*
X111791481Y-93072000D01*
X111728519Y-93072000D01*
X111634852Y-93086835D01*
X111521955Y-93144359D01*
X111506000Y-93160314D01*
X111506000Y-92185917D01*
X111505999Y-92185917D01*
X111310928Y-92238187D01*
X111310926Y-92238188D01*
X111103501Y-92334912D01*
X110916025Y-92466184D01*
X110916019Y-92466189D01*
X110754189Y-92628019D01*
X110754184Y-92628025D01*
X110622912Y-92815501D01*
X110526188Y-93022926D01*
X110526186Y-93022931D01*
X110473917Y-93218000D01*
X102886600Y-93218000D01*
X102834284Y-93022757D01*
X102737523Y-92815251D01*
X102606198Y-92627700D01*
X102444300Y-92465802D01*
X102418930Y-92448038D01*
X102256749Y-92334477D01*
X102049246Y-92237717D01*
X102049240Y-92237715D01*
X101953957Y-92212184D01*
X101828087Y-92178457D01*
X101600000Y-92158502D01*
X101371913Y-92178457D01*
X101150759Y-92237715D01*
X101150753Y-92237717D01*
X100943250Y-92334477D01*
X100755703Y-92465799D01*
X100755697Y-92465804D01*
X100593804Y-92627697D01*
X100593799Y-92627703D01*
X100462477Y-92815250D01*
X100365717Y-93022753D01*
X100365715Y-93022759D01*
X100313400Y-93218000D01*
X100306457Y-93243913D01*
X100286502Y-93472000D01*
X99832461Y-93472000D01*
X99816195Y-90170000D01*
X100540502Y-90170000D01*
X100560457Y-90398087D01*
X100594670Y-90525771D01*
X100619715Y-90619240D01*
X100619717Y-90619246D01*
X100716477Y-90826749D01*
X100810460Y-90960971D01*
X100847802Y-91014300D01*
X101009700Y-91176198D01*
X101197251Y-91307523D01*
X101404757Y-91404284D01*
X101625913Y-91463543D01*
X101854000Y-91483498D01*
X102082087Y-91463543D01*
X102303243Y-91404284D01*
X102510749Y-91307523D01*
X102698300Y-91176198D01*
X102860198Y-91014300D01*
X102991523Y-90826749D01*
X103088284Y-90619243D01*
X103147543Y-90398087D01*
X103167498Y-90170000D01*
X110700502Y-90170000D01*
X110720457Y-90398087D01*
X110754670Y-90525771D01*
X110779715Y-90619240D01*
X110779717Y-90619246D01*
X110876477Y-90826749D01*
X110970460Y-90960971D01*
X111007802Y-91014300D01*
X111169700Y-91176198D01*
X111357251Y-91307523D01*
X111564757Y-91404284D01*
X111785913Y-91463543D01*
X112014000Y-91483498D01*
X112242087Y-91463543D01*
X112463243Y-91404284D01*
X112670749Y-91307523D01*
X112858300Y-91176198D01*
X113020198Y-91014300D01*
X113151523Y-90826749D01*
X113248284Y-90619243D01*
X113307543Y-90398087D01*
X113327498Y-90170000D01*
X113307543Y-89941913D01*
X113248284Y-89720757D01*
X113151523Y-89513251D01*
X113020198Y-89325700D01*
X112858300Y-89163802D01*
X112732153Y-89075473D01*
X112670749Y-89032477D01*
X112463246Y-88935717D01*
X112463240Y-88935715D01*
X112369771Y-88910670D01*
X112242087Y-88876457D01*
X112014000Y-88856502D01*
X111785913Y-88876457D01*
X111564759Y-88935715D01*
X111564753Y-88935717D01*
X111357250Y-89032477D01*
X111169703Y-89163799D01*
X111169697Y-89163804D01*
X111007804Y-89325697D01*
X111007799Y-89325703D01*
X110876477Y-89513250D01*
X110779717Y-89720753D01*
X110779715Y-89720759D01*
X110734344Y-89890086D01*
X110720457Y-89941913D01*
X110700502Y-90170000D01*
X103167498Y-90170000D01*
X103147543Y-89941913D01*
X103088284Y-89720757D01*
X102991523Y-89513251D01*
X102860198Y-89325700D01*
X102698300Y-89163802D01*
X102572153Y-89075473D01*
X102510749Y-89032477D01*
X102303246Y-88935717D01*
X102303240Y-88935715D01*
X102209771Y-88910670D01*
X102082087Y-88876457D01*
X101854000Y-88856502D01*
X101625913Y-88876457D01*
X101404759Y-88935715D01*
X101404753Y-88935717D01*
X101197250Y-89032477D01*
X101009703Y-89163799D01*
X101009697Y-89163804D01*
X100847804Y-89325697D01*
X100847799Y-89325703D01*
X100716477Y-89513250D01*
X100619717Y-89720753D01*
X100619715Y-89720759D01*
X100574344Y-89890086D01*
X100560457Y-89941913D01*
X100540502Y-90170000D01*
X99816195Y-90170000D01*
X99798119Y-86500649D01*
X100745500Y-86500649D01*
X100752009Y-86561196D01*
X100752011Y-86561204D01*
X100803110Y-86698202D01*
X100803112Y-86698207D01*
X100890738Y-86815261D01*
X101007792Y-86902887D01*
X101007794Y-86902888D01*
X101007796Y-86902889D01*
X101066875Y-86924924D01*
X101144795Y-86953988D01*
X101144803Y-86953990D01*
X101207686Y-86960750D01*
X101273279Y-86987918D01*
X101296155Y-87011966D01*
X101320432Y-87045380D01*
X101326949Y-87055301D01*
X101349458Y-87093362D01*
X101349459Y-87093363D01*
X101349461Y-87093366D01*
X101363779Y-87107684D01*
X101376617Y-87122714D01*
X101388526Y-87139104D01*
X101388530Y-87139109D01*
X101415211Y-87161181D01*
X101431979Y-87177949D01*
X101436999Y-87184017D01*
X101437000Y-87184018D01*
X101437001Y-87184019D01*
X101467489Y-87212649D01*
X101486667Y-87230658D01*
X101489511Y-87233415D01*
X101509227Y-87253132D01*
X101512424Y-87255612D01*
X101521445Y-87263317D01*
X101553680Y-87293587D01*
X101553681Y-87293587D01*
X101553683Y-87293589D01*
X101571430Y-87303345D01*
X101587960Y-87314203D01*
X101603960Y-87326614D01*
X101644537Y-87344173D01*
X101655188Y-87349391D01*
X101693941Y-87370696D01*
X101713563Y-87375734D01*
X101732264Y-87382136D01*
X101750856Y-87390182D01*
X101794523Y-87397097D01*
X101806126Y-87399499D01*
X101848971Y-87410501D01*
X101869232Y-87410501D01*
X101888940Y-87412051D01*
X101908944Y-87415220D01*
X101952955Y-87411059D01*
X101964812Y-87410501D01*
X106179146Y-87410501D01*
X106194987Y-87412250D01*
X106195015Y-87411957D01*
X106202901Y-87412701D01*
X106202908Y-87412703D01*
X106270985Y-87410563D01*
X106274944Y-87410501D01*
X106302850Y-87410501D01*
X106302855Y-87410501D01*
X106306866Y-87409993D01*
X106318698Y-87409062D01*
X106362888Y-87407674D01*
X106382346Y-87402020D01*
X106401693Y-87398014D01*
X106421796Y-87395475D01*
X106462909Y-87379196D01*
X106474129Y-87375354D01*
X106498912Y-87368155D01*
X106516590Y-87363020D01*
X106516594Y-87363018D01*
X106534025Y-87352709D01*
X106551779Y-87344010D01*
X106570616Y-87336553D01*
X106606391Y-87310559D01*
X106616297Y-87304052D01*
X106654361Y-87281543D01*
X106668684Y-87267219D01*
X106683723Y-87254375D01*
X106685434Y-87253132D01*
X106700106Y-87242473D01*
X106728301Y-87208390D01*
X106736270Y-87199633D01*
X107028754Y-86907149D01*
X107091064Y-86873125D01*
X107150457Y-86874539D01*
X107213913Y-86891543D01*
X107442000Y-86911498D01*
X107670087Y-86891543D01*
X107891243Y-86832284D01*
X108098749Y-86735523D01*
X108286300Y-86604198D01*
X108448198Y-86442300D01*
X108579523Y-86254749D01*
X108676284Y-86047243D01*
X108735543Y-85826087D01*
X108755498Y-85598000D01*
X108735543Y-85369913D01*
X108676284Y-85148757D01*
X108579523Y-84941251D01*
X108448198Y-84753700D01*
X108286300Y-84591802D01*
X108265733Y-84577401D01*
X108098749Y-84460477D01*
X107891246Y-84363717D01*
X107891240Y-84363715D01*
X107797771Y-84338670D01*
X107670087Y-84304457D01*
X107442000Y-84284502D01*
X107213913Y-84304457D01*
X106992759Y-84363715D01*
X106992753Y-84363717D01*
X106785250Y-84460477D01*
X106597703Y-84591799D01*
X106597697Y-84591804D01*
X106435804Y-84753697D01*
X106435799Y-84753703D01*
X106304477Y-84941250D01*
X106207717Y-85148753D01*
X106207715Y-85148759D01*
X106148457Y-85369913D01*
X106128502Y-85598000D01*
X106148457Y-85826090D01*
X106165459Y-85889541D01*
X106163769Y-85960518D01*
X106132848Y-86011247D01*
X106037497Y-86106597D01*
X105975188Y-86140621D01*
X105948404Y-86143501D01*
X105078453Y-86143501D01*
X105010332Y-86123499D01*
X104963839Y-86069843D01*
X104952990Y-86005876D01*
X104967249Y-85852000D01*
X104948294Y-85647441D01*
X104892074Y-85449848D01*
X104881942Y-85429500D01*
X104800506Y-85265954D01*
X104800502Y-85265949D01*
X104676702Y-85102009D01*
X104524883Y-84963608D01*
X104350223Y-84855463D01*
X104350222Y-84855462D01*
X104350218Y-84855460D01*
X104209928Y-84801112D01*
X104158656Y-84781249D01*
X104108170Y-84771811D01*
X103956718Y-84743500D01*
X103751282Y-84743500D01*
X103630119Y-84766149D01*
X103549343Y-84781249D01*
X103413275Y-84833962D01*
X103357782Y-84855460D01*
X103357781Y-84855460D01*
X103357780Y-84855461D01*
X103357776Y-84855463D01*
X103183115Y-84963609D01*
X103183112Y-84963611D01*
X103100552Y-85038875D01*
X103036735Y-85069986D01*
X102966229Y-85061656D01*
X102911419Y-85016530D01*
X102905075Y-85006138D01*
X102904891Y-85005802D01*
X102904889Y-85005796D01*
X102902014Y-85001955D01*
X102817261Y-84888738D01*
X102700207Y-84801112D01*
X102700202Y-84801110D01*
X102563204Y-84750011D01*
X102563196Y-84750009D01*
X102502649Y-84743500D01*
X102502638Y-84743500D01*
X101205362Y-84743500D01*
X101205350Y-84743500D01*
X101144803Y-84750009D01*
X101144795Y-84750011D01*
X101007797Y-84801110D01*
X101007792Y-84801112D01*
X100890738Y-84888738D01*
X100803112Y-85005792D01*
X100803110Y-85005797D01*
X100752011Y-85142795D01*
X100752009Y-85142803D01*
X100745500Y-85203350D01*
X100745500Y-86500649D01*
X99798119Y-86500649D01*
X99718843Y-70407441D01*
X99651033Y-56642000D01*
X100620502Y-56642000D01*
X100640457Y-56870087D01*
X100654344Y-56921913D01*
X100699715Y-57091240D01*
X100699717Y-57091246D01*
X100796477Y-57298749D01*
X100852029Y-57378086D01*
X100927802Y-57486300D01*
X101089700Y-57648198D01*
X101277251Y-57779523D01*
X101484757Y-57876284D01*
X101705913Y-57935543D01*
X101934000Y-57955498D01*
X102162087Y-57935543D01*
X102383243Y-57876284D01*
X102590749Y-57779523D01*
X102778300Y-57648198D01*
X102940198Y-57486300D01*
X103071523Y-57298749D01*
X103168284Y-57091243D01*
X103227543Y-56870087D01*
X103247498Y-56642000D01*
X105620502Y-56642000D01*
X105640457Y-56870087D01*
X105654344Y-56921913D01*
X105699715Y-57091240D01*
X105699717Y-57091246D01*
X105796477Y-57298749D01*
X105852029Y-57378086D01*
X105927802Y-57486300D01*
X106089700Y-57648198D01*
X106277251Y-57779523D01*
X106484757Y-57876284D01*
X106705913Y-57935543D01*
X106934000Y-57955498D01*
X107162087Y-57935543D01*
X107383243Y-57876284D01*
X107590749Y-57779523D01*
X107778300Y-57648198D01*
X107940198Y-57486300D01*
X108071523Y-57298749D01*
X108140885Y-57150000D01*
X109256502Y-57150000D01*
X109276457Y-57378086D01*
X109335715Y-57599240D01*
X109335717Y-57599246D01*
X109419781Y-57779522D01*
X109432477Y-57806749D01*
X109563802Y-57994300D01*
X109725700Y-58156198D01*
X109913251Y-58287523D01*
X110120757Y-58384284D01*
X110341913Y-58443543D01*
X110570000Y-58463498D01*
X110798087Y-58443543D01*
X111019243Y-58384284D01*
X111226749Y-58287523D01*
X111414300Y-58156198D01*
X111576198Y-57994300D01*
X111707523Y-57806749D01*
X111804284Y-57599243D01*
X111863543Y-57378087D01*
X111883498Y-57150000D01*
X114256502Y-57150000D01*
X114276457Y-57378086D01*
X114335715Y-57599240D01*
X114335717Y-57599246D01*
X114419781Y-57779522D01*
X114432477Y-57806749D01*
X114563802Y-57994300D01*
X114725700Y-58156198D01*
X114913251Y-58287523D01*
X115120757Y-58384284D01*
X115341913Y-58443543D01*
X115570000Y-58463498D01*
X115798087Y-58443543D01*
X116019243Y-58384284D01*
X116226749Y-58287523D01*
X116414300Y-58156198D01*
X116576198Y-57994300D01*
X116707523Y-57806749D01*
X116804284Y-57599243D01*
X116863543Y-57378087D01*
X116883498Y-57150000D01*
X116863543Y-56921913D01*
X116804284Y-56700757D01*
X116776885Y-56642000D01*
X118066502Y-56642000D01*
X118086457Y-56870087D01*
X118100344Y-56921913D01*
X118145715Y-57091240D01*
X118145717Y-57091246D01*
X118242477Y-57298749D01*
X118298029Y-57378086D01*
X118373802Y-57486300D01*
X118535700Y-57648198D01*
X118723251Y-57779523D01*
X118930757Y-57876284D01*
X119151913Y-57935543D01*
X119380000Y-57955498D01*
X119608087Y-57935543D01*
X119829243Y-57876284D01*
X120036749Y-57779523D01*
X120224300Y-57648198D01*
X120386198Y-57486300D01*
X120517523Y-57298749D01*
X120614284Y-57091243D01*
X120673543Y-56870087D01*
X120693498Y-56642000D01*
X128226502Y-56642000D01*
X128246457Y-56870087D01*
X128260344Y-56921913D01*
X128305715Y-57091240D01*
X128305717Y-57091246D01*
X128402477Y-57298749D01*
X128458029Y-57378086D01*
X128533802Y-57486300D01*
X128695700Y-57648198D01*
X128883251Y-57779523D01*
X129090757Y-57876284D01*
X129311913Y-57935543D01*
X129540000Y-57955498D01*
X129768087Y-57935543D01*
X129989243Y-57876284D01*
X130196749Y-57779523D01*
X130384300Y-57648198D01*
X130546198Y-57486300D01*
X130677523Y-57298749D01*
X130774284Y-57091243D01*
X130833543Y-56870087D01*
X130853498Y-56642000D01*
X131274502Y-56642000D01*
X131294457Y-56870087D01*
X131308344Y-56921913D01*
X131353715Y-57091240D01*
X131353717Y-57091246D01*
X131450477Y-57298749D01*
X131506029Y-57378086D01*
X131581802Y-57486300D01*
X131743700Y-57648198D01*
X131931251Y-57779523D01*
X132138757Y-57876284D01*
X132359913Y-57935543D01*
X132588000Y-57955498D01*
X132816087Y-57935543D01*
X133037243Y-57876284D01*
X133244749Y-57779523D01*
X133432300Y-57648198D01*
X133594198Y-57486300D01*
X133725523Y-57298749D01*
X133822284Y-57091243D01*
X133881543Y-56870087D01*
X133901498Y-56642000D01*
X133881543Y-56413913D01*
X133874600Y-56388000D01*
X141461917Y-56388000D01*
X142436314Y-56388000D01*
X142420359Y-56403955D01*
X142362835Y-56516852D01*
X142343014Y-56642000D01*
X142362835Y-56767148D01*
X142420359Y-56880045D01*
X142436314Y-56896000D01*
X141461918Y-56896000D01*
X141514186Y-57091068D01*
X141514188Y-57091073D01*
X141610912Y-57298498D01*
X141742184Y-57485974D01*
X141742189Y-57485980D01*
X141904019Y-57647810D01*
X141904025Y-57647815D01*
X142091501Y-57779087D01*
X142298926Y-57875811D01*
X142298931Y-57875813D01*
X142494000Y-57928081D01*
X142494000Y-56953686D01*
X142509955Y-56969641D01*
X142622852Y-57027165D01*
X142716519Y-57042000D01*
X142779481Y-57042000D01*
X142873148Y-57027165D01*
X142986045Y-56969641D01*
X143002000Y-56953686D01*
X143002000Y-57928081D01*
X143197068Y-57875813D01*
X143197073Y-57875811D01*
X143404498Y-57779087D01*
X143591974Y-57647815D01*
X143591980Y-57647810D01*
X143753810Y-57485980D01*
X143753815Y-57485974D01*
X143885087Y-57298498D01*
X143981811Y-57091073D01*
X143981813Y-57091068D01*
X144034082Y-56896000D01*
X143059686Y-56896000D01*
X143075641Y-56880045D01*
X143133165Y-56767148D01*
X143152986Y-56642000D01*
X145753004Y-56642000D01*
X145772951Y-56870002D01*
X145832186Y-57091068D01*
X145832188Y-57091073D01*
X145928913Y-57298501D01*
X145978899Y-57369888D01*
X146667272Y-56681516D01*
X146680835Y-56767148D01*
X146738359Y-56880045D01*
X146827955Y-56969641D01*
X146940852Y-57027165D01*
X147026482Y-57040727D01*
X146338110Y-57729098D01*
X146338110Y-57729100D01*
X146409498Y-57779086D01*
X146616926Y-57875811D01*
X146616931Y-57875813D01*
X146837999Y-57935048D01*
X146837995Y-57935048D01*
X147066000Y-57954995D01*
X147294002Y-57935048D01*
X147515068Y-57875813D01*
X147515073Y-57875811D01*
X147722497Y-57779088D01*
X147793888Y-57729099D01*
X147793888Y-57729097D01*
X147105518Y-57040727D01*
X147191148Y-57027165D01*
X147304045Y-56969641D01*
X147393641Y-56880045D01*
X147451165Y-56767148D01*
X147464727Y-56681518D01*
X148153097Y-57369888D01*
X148153099Y-57369888D01*
X148203088Y-57298497D01*
X148299811Y-57091073D01*
X148299813Y-57091068D01*
X148359048Y-56870002D01*
X148378995Y-56642000D01*
X150752502Y-56642000D01*
X150772457Y-56870087D01*
X150786344Y-56921913D01*
X150831715Y-57091240D01*
X150831717Y-57091246D01*
X150928477Y-57298749D01*
X150984029Y-57378086D01*
X151059802Y-57486300D01*
X151221700Y-57648198D01*
X151409251Y-57779523D01*
X151616757Y-57876284D01*
X151837913Y-57935543D01*
X152066000Y-57955498D01*
X152294087Y-57935543D01*
X152515243Y-57876284D01*
X152722749Y-57779523D01*
X152910300Y-57648198D01*
X153072198Y-57486300D01*
X153203523Y-57298749D01*
X153300284Y-57091243D01*
X153359543Y-56870087D01*
X153379498Y-56642000D01*
X153359543Y-56413913D01*
X153300284Y-56192757D01*
X153203523Y-55985251D01*
X153072198Y-55797700D01*
X152910300Y-55635802D01*
X152794757Y-55554898D01*
X152722749Y-55504477D01*
X152515246Y-55407717D01*
X152515240Y-55407715D01*
X152421771Y-55382670D01*
X152294087Y-55348457D01*
X152066000Y-55328502D01*
X151837913Y-55348457D01*
X151616759Y-55407715D01*
X151616753Y-55407717D01*
X151409250Y-55504477D01*
X151221703Y-55635799D01*
X151221697Y-55635804D01*
X151059804Y-55797697D01*
X151059799Y-55797703D01*
X150928477Y-55985250D01*
X150831717Y-56192753D01*
X150831715Y-56192759D01*
X150779400Y-56388000D01*
X150772457Y-56413913D01*
X150752502Y-56642000D01*
X148378995Y-56642000D01*
X148359048Y-56413997D01*
X148299813Y-56192931D01*
X148299811Y-56192926D01*
X148203086Y-55985498D01*
X148153100Y-55914110D01*
X148153098Y-55914110D01*
X147464727Y-56602481D01*
X147451165Y-56516852D01*
X147393641Y-56403955D01*
X147304045Y-56314359D01*
X147191148Y-56256835D01*
X147105517Y-56243272D01*
X147793888Y-55554899D01*
X147793888Y-55554898D01*
X147722501Y-55504913D01*
X147515073Y-55408188D01*
X147515068Y-55408186D01*
X147294000Y-55348951D01*
X147294004Y-55348951D01*
X147066000Y-55329004D01*
X146837997Y-55348951D01*
X146616931Y-55408186D01*
X146616926Y-55408188D01*
X146409500Y-55504913D01*
X146338109Y-55554900D01*
X147026481Y-56243272D01*
X146940852Y-56256835D01*
X146827955Y-56314359D01*
X146738359Y-56403955D01*
X146680835Y-56516852D01*
X146667272Y-56602481D01*
X145978900Y-55914109D01*
X145928913Y-55985500D01*
X145832188Y-56192926D01*
X145832186Y-56192931D01*
X145772951Y-56413997D01*
X145753004Y-56642000D01*
X143152986Y-56642000D01*
X143133165Y-56516852D01*
X143075641Y-56403955D01*
X143059686Y-56388000D01*
X144034082Y-56388000D01*
X143981813Y-56192931D01*
X143981811Y-56192926D01*
X143885087Y-55985501D01*
X143753815Y-55798025D01*
X143753810Y-55798019D01*
X143591980Y-55636189D01*
X143591974Y-55636184D01*
X143404498Y-55504912D01*
X143197073Y-55408188D01*
X143197071Y-55408187D01*
X143002000Y-55355917D01*
X143002000Y-56330314D01*
X142986045Y-56314359D01*
X142873148Y-56256835D01*
X142779481Y-56242000D01*
X142716519Y-56242000D01*
X142622852Y-56256835D01*
X142509955Y-56314359D01*
X142494000Y-56330314D01*
X142494000Y-55355917D01*
X142493999Y-55355917D01*
X142298928Y-55408187D01*
X142298926Y-55408188D01*
X142091501Y-55504912D01*
X141904025Y-55636184D01*
X141904019Y-55636189D01*
X141742189Y-55798019D01*
X141742184Y-55798025D01*
X141610912Y-55985501D01*
X141514188Y-56192926D01*
X141514186Y-56192931D01*
X141461917Y-56388000D01*
X133874600Y-56388000D01*
X133822284Y-56192757D01*
X133725523Y-55985251D01*
X133594198Y-55797700D01*
X133432300Y-55635802D01*
X133316757Y-55554898D01*
X133244749Y-55504477D01*
X133037246Y-55407717D01*
X133037240Y-55407715D01*
X132943771Y-55382670D01*
X132816087Y-55348457D01*
X132588000Y-55328502D01*
X132359913Y-55348457D01*
X132138759Y-55407715D01*
X132138753Y-55407717D01*
X131931250Y-55504477D01*
X131743703Y-55635799D01*
X131743697Y-55635804D01*
X131581804Y-55797697D01*
X131581799Y-55797703D01*
X131450477Y-55985250D01*
X131353717Y-56192753D01*
X131353715Y-56192759D01*
X131301400Y-56388000D01*
X131294457Y-56413913D01*
X131274502Y-56642000D01*
X130853498Y-56642000D01*
X130833543Y-56413913D01*
X130774284Y-56192757D01*
X130677523Y-55985251D01*
X130546198Y-55797700D01*
X130384300Y-55635802D01*
X130268757Y-55554898D01*
X130196749Y-55504477D01*
X129989246Y-55407717D01*
X129989240Y-55407715D01*
X129895771Y-55382670D01*
X129768087Y-55348457D01*
X129540000Y-55328502D01*
X129311913Y-55348457D01*
X129090759Y-55407715D01*
X129090753Y-55407717D01*
X128883250Y-55504477D01*
X128695703Y-55635799D01*
X128695697Y-55635804D01*
X128533804Y-55797697D01*
X128533799Y-55797703D01*
X128402477Y-55985250D01*
X128305717Y-56192753D01*
X128305715Y-56192759D01*
X128253400Y-56388000D01*
X128246457Y-56413913D01*
X128226502Y-56642000D01*
X120693498Y-56642000D01*
X120673543Y-56413913D01*
X120614284Y-56192757D01*
X120517523Y-55985251D01*
X120386198Y-55797700D01*
X120224300Y-55635802D01*
X120108757Y-55554898D01*
X120036749Y-55504477D01*
X119829246Y-55407717D01*
X119829240Y-55407715D01*
X119735771Y-55382670D01*
X119608087Y-55348457D01*
X119380000Y-55328502D01*
X119151913Y-55348457D01*
X118930759Y-55407715D01*
X118930753Y-55407717D01*
X118723250Y-55504477D01*
X118535703Y-55635799D01*
X118535697Y-55635804D01*
X118373804Y-55797697D01*
X118373799Y-55797703D01*
X118242477Y-55985250D01*
X118145717Y-56192753D01*
X118145715Y-56192759D01*
X118093400Y-56388000D01*
X118086457Y-56413913D01*
X118066502Y-56642000D01*
X116776885Y-56642000D01*
X116707523Y-56493251D01*
X116576198Y-56305700D01*
X116414300Y-56143802D01*
X116226749Y-56012477D01*
X116019246Y-55915717D01*
X116019240Y-55915715D01*
X115925771Y-55890670D01*
X115798087Y-55856457D01*
X115570000Y-55836502D01*
X115341913Y-55856457D01*
X115120759Y-55915715D01*
X115120753Y-55915717D01*
X114913250Y-56012477D01*
X114725703Y-56143799D01*
X114725697Y-56143804D01*
X114563804Y-56305697D01*
X114563799Y-56305703D01*
X114432477Y-56493250D01*
X114335717Y-56700753D01*
X114335715Y-56700759D01*
X114276457Y-56921913D01*
X114256502Y-57150000D01*
X111883498Y-57150000D01*
X111863543Y-56921913D01*
X111804284Y-56700757D01*
X111707523Y-56493251D01*
X111576198Y-56305700D01*
X111414300Y-56143802D01*
X111226749Y-56012477D01*
X111019246Y-55915717D01*
X111019240Y-55915715D01*
X110925771Y-55890670D01*
X110798087Y-55856457D01*
X110570000Y-55836502D01*
X110341913Y-55856457D01*
X110120759Y-55915715D01*
X110120753Y-55915717D01*
X109913250Y-56012477D01*
X109725703Y-56143799D01*
X109725697Y-56143804D01*
X109563804Y-56305697D01*
X109563799Y-56305703D01*
X109432477Y-56493250D01*
X109335717Y-56700753D01*
X109335715Y-56700759D01*
X109276457Y-56921913D01*
X109256502Y-57150000D01*
X108140885Y-57150000D01*
X108168284Y-57091243D01*
X108227543Y-56870087D01*
X108247498Y-56642000D01*
X108227543Y-56413913D01*
X108168284Y-56192757D01*
X108071523Y-55985251D01*
X107940198Y-55797700D01*
X107778300Y-55635802D01*
X107662757Y-55554898D01*
X107590749Y-55504477D01*
X107383246Y-55407717D01*
X107383240Y-55407715D01*
X107289771Y-55382670D01*
X107162087Y-55348457D01*
X106934000Y-55328502D01*
X106705913Y-55348457D01*
X106484759Y-55407715D01*
X106484753Y-55407717D01*
X106277250Y-55504477D01*
X106089703Y-55635799D01*
X106089697Y-55635804D01*
X105927804Y-55797697D01*
X105927799Y-55797703D01*
X105796477Y-55985250D01*
X105699717Y-56192753D01*
X105699715Y-56192759D01*
X105647400Y-56388000D01*
X105640457Y-56413913D01*
X105620502Y-56642000D01*
X103247498Y-56642000D01*
X103227543Y-56413913D01*
X103168284Y-56192757D01*
X103071523Y-55985251D01*
X102940198Y-55797700D01*
X102778300Y-55635802D01*
X102662757Y-55554898D01*
X102590749Y-55504477D01*
X102383246Y-55407717D01*
X102383240Y-55407715D01*
X102289771Y-55382670D01*
X102162087Y-55348457D01*
X101934000Y-55328502D01*
X101705913Y-55348457D01*
X101484759Y-55407715D01*
X101484753Y-55407717D01*
X101277250Y-55504477D01*
X101089703Y-55635799D01*
X101089697Y-55635804D01*
X100927804Y-55797697D01*
X100927799Y-55797703D01*
X100796477Y-55985250D01*
X100699717Y-56192753D01*
X100699715Y-56192759D01*
X100647400Y-56388000D01*
X100640457Y-56413913D01*
X100620502Y-56642000D01*
X99651033Y-56642000D01*
X99629762Y-52324000D01*
X105664793Y-52324000D01*
X105683593Y-52574869D01*
X105683594Y-52574873D01*
X105739571Y-52820129D01*
X105831479Y-53054309D01*
X105831481Y-53054313D01*
X105957266Y-53272180D01*
X106114125Y-53468876D01*
X106238411Y-53584195D01*
X106298538Y-53639984D01*
X106298544Y-53639988D01*
X106506387Y-53781694D01*
X106506394Y-53781698D01*
X106506397Y-53781700D01*
X106733055Y-53890853D01*
X106733058Y-53890853D01*
X106733063Y-53890856D01*
X106973440Y-53965002D01*
X106973442Y-53965002D01*
X106973451Y-53965005D01*
X107222214Y-54002500D01*
X107222218Y-54002500D01*
X107473782Y-54002500D01*
X107473786Y-54002500D01*
X107722549Y-53965005D01*
X107722559Y-53965002D01*
X107962936Y-53890856D01*
X107962938Y-53890854D01*
X107962945Y-53890853D01*
X108189604Y-53781700D01*
X108397462Y-53639984D01*
X108581878Y-53468872D01*
X108738731Y-53272184D01*
X108864517Y-53054316D01*
X108875143Y-53027243D01*
X108883633Y-53005607D01*
X108956427Y-52820134D01*
X109012407Y-52574869D01*
X109031207Y-52324000D01*
X110664793Y-52324000D01*
X110683593Y-52574869D01*
X110683594Y-52574873D01*
X110739571Y-52820129D01*
X110831479Y-53054309D01*
X110831481Y-53054313D01*
X110957266Y-53272180D01*
X111114125Y-53468876D01*
X111238411Y-53584195D01*
X111298538Y-53639984D01*
X111298544Y-53639988D01*
X111506387Y-53781694D01*
X111506394Y-53781698D01*
X111506397Y-53781700D01*
X111733055Y-53890853D01*
X111733058Y-53890853D01*
X111733063Y-53890856D01*
X111973440Y-53965002D01*
X111973442Y-53965002D01*
X111973451Y-53965005D01*
X112222214Y-54002500D01*
X112222218Y-54002500D01*
X112473782Y-54002500D01*
X112473786Y-54002500D01*
X112722549Y-53965005D01*
X112722559Y-53965002D01*
X112962936Y-53890856D01*
X112962938Y-53890854D01*
X112962945Y-53890853D01*
X113189604Y-53781700D01*
X113397462Y-53639984D01*
X113581878Y-53468872D01*
X113738731Y-53272184D01*
X113864517Y-53054316D01*
X113875143Y-53027243D01*
X113883633Y-53005607D01*
X113956427Y-52820134D01*
X114012407Y-52574869D01*
X114031207Y-52324000D01*
X115664793Y-52324000D01*
X115683593Y-52574869D01*
X115683594Y-52574873D01*
X115739571Y-52820129D01*
X115831479Y-53054309D01*
X115831481Y-53054313D01*
X115957266Y-53272180D01*
X116114125Y-53468876D01*
X116238411Y-53584195D01*
X116298538Y-53639984D01*
X116298544Y-53639988D01*
X116506387Y-53781694D01*
X116506394Y-53781698D01*
X116506397Y-53781700D01*
X116733055Y-53890853D01*
X116733058Y-53890853D01*
X116733063Y-53890856D01*
X116973440Y-53965002D01*
X116973442Y-53965002D01*
X116973451Y-53965005D01*
X117222214Y-54002500D01*
X117222218Y-54002500D01*
X117473782Y-54002500D01*
X117473786Y-54002500D01*
X117722549Y-53965005D01*
X117722559Y-53965002D01*
X117962936Y-53890856D01*
X117962938Y-53890854D01*
X117962945Y-53890853D01*
X118189604Y-53781700D01*
X118397462Y-53639984D01*
X118581878Y-53468872D01*
X118738731Y-53272184D01*
X118864517Y-53054316D01*
X118875143Y-53027243D01*
X118883633Y-53005607D01*
X118956427Y-52820134D01*
X119011692Y-52578000D01*
X122130502Y-52578000D01*
X122150457Y-52806087D01*
X122209716Y-53027243D01*
X122306477Y-53234749D01*
X122437802Y-53422300D01*
X122599700Y-53584198D01*
X122787251Y-53715523D01*
X122994757Y-53812284D01*
X123215913Y-53871543D01*
X123444000Y-53891498D01*
X123672087Y-53871543D01*
X123893243Y-53812284D01*
X124100749Y-53715523D01*
X124288300Y-53584198D01*
X124450198Y-53422300D01*
X124581523Y-53234749D01*
X124678284Y-53027243D01*
X124737543Y-52806087D01*
X124757498Y-52578000D01*
X127130502Y-52578000D01*
X127150457Y-52806087D01*
X127209716Y-53027243D01*
X127306477Y-53234749D01*
X127437802Y-53422300D01*
X127599700Y-53584198D01*
X127787251Y-53715523D01*
X127994757Y-53812284D01*
X128215913Y-53871543D01*
X128444000Y-53891498D01*
X128672087Y-53871543D01*
X128893243Y-53812284D01*
X129100749Y-53715523D01*
X129288300Y-53584198D01*
X129450198Y-53422300D01*
X129581523Y-53234749D01*
X129678284Y-53027243D01*
X129737543Y-52806087D01*
X129757498Y-52578000D01*
X129737543Y-52349913D01*
X129730600Y-52324000D01*
X134366793Y-52324000D01*
X134385593Y-52574869D01*
X134385594Y-52574873D01*
X134441571Y-52820129D01*
X134533479Y-53054309D01*
X134533481Y-53054313D01*
X134659266Y-53272180D01*
X134816125Y-53468876D01*
X134940411Y-53584195D01*
X135000538Y-53639984D01*
X135000544Y-53639988D01*
X135208387Y-53781694D01*
X135208394Y-53781698D01*
X135208397Y-53781700D01*
X135435055Y-53890853D01*
X135435058Y-53890853D01*
X135435063Y-53890856D01*
X135675440Y-53965002D01*
X135675442Y-53965002D01*
X135675451Y-53965005D01*
X135924214Y-54002500D01*
X135924218Y-54002500D01*
X136175782Y-54002500D01*
X136175786Y-54002500D01*
X136424549Y-53965005D01*
X136424559Y-53965002D01*
X136664936Y-53890856D01*
X136664938Y-53890854D01*
X136664945Y-53890853D01*
X136891604Y-53781700D01*
X137099462Y-53639984D01*
X137283878Y-53468872D01*
X137440731Y-53272184D01*
X137566517Y-53054316D01*
X137577143Y-53027243D01*
X137585633Y-53005607D01*
X137658427Y-52820134D01*
X137714407Y-52574869D01*
X137733207Y-52324000D01*
X139366793Y-52324000D01*
X139385593Y-52574869D01*
X139385594Y-52574873D01*
X139441571Y-52820129D01*
X139533479Y-53054309D01*
X139533481Y-53054313D01*
X139659266Y-53272180D01*
X139816125Y-53468876D01*
X139940411Y-53584195D01*
X140000538Y-53639984D01*
X140000544Y-53639988D01*
X140208387Y-53781694D01*
X140208394Y-53781698D01*
X140208397Y-53781700D01*
X140435055Y-53890853D01*
X140435058Y-53890853D01*
X140435063Y-53890856D01*
X140675440Y-53965002D01*
X140675442Y-53965002D01*
X140675451Y-53965005D01*
X140924214Y-54002500D01*
X140924218Y-54002500D01*
X141175782Y-54002500D01*
X141175786Y-54002500D01*
X141424549Y-53965005D01*
X141424559Y-53965002D01*
X141664936Y-53890856D01*
X141664938Y-53890854D01*
X141664945Y-53890853D01*
X141891604Y-53781700D01*
X142099462Y-53639984D01*
X142283878Y-53468872D01*
X142440731Y-53272184D01*
X142566517Y-53054316D01*
X142577143Y-53027243D01*
X142585633Y-53005607D01*
X142658427Y-52820134D01*
X142714407Y-52574869D01*
X142733207Y-52324000D01*
X144366793Y-52324000D01*
X144385593Y-52574869D01*
X144385594Y-52574873D01*
X144441571Y-52820129D01*
X144533479Y-53054309D01*
X144533481Y-53054313D01*
X144659266Y-53272180D01*
X144816125Y-53468876D01*
X144940411Y-53584195D01*
X145000538Y-53639984D01*
X145000544Y-53639988D01*
X145208387Y-53781694D01*
X145208394Y-53781698D01*
X145208397Y-53781700D01*
X145435055Y-53890853D01*
X145435058Y-53890853D01*
X145435063Y-53890856D01*
X145675440Y-53965002D01*
X145675442Y-53965002D01*
X145675451Y-53965005D01*
X145924214Y-54002500D01*
X145924218Y-54002500D01*
X146175782Y-54002500D01*
X146175786Y-54002500D01*
X146424549Y-53965005D01*
X146424559Y-53965002D01*
X146664936Y-53890856D01*
X146664938Y-53890854D01*
X146664945Y-53890853D01*
X146891604Y-53781700D01*
X147099462Y-53639984D01*
X147283878Y-53468872D01*
X147440731Y-53272184D01*
X147566517Y-53054316D01*
X147577143Y-53027243D01*
X147585633Y-53005607D01*
X147658427Y-52820134D01*
X147714407Y-52574869D01*
X147733207Y-52324000D01*
X147714407Y-52073131D01*
X147658427Y-51827866D01*
X147615320Y-51718033D01*
X147566520Y-51593690D01*
X147566518Y-51593686D01*
X147553884Y-51571804D01*
X147440731Y-51375816D01*
X147283878Y-51179128D01*
X147283877Y-51179127D01*
X147283874Y-51179123D01*
X147099467Y-51008021D01*
X147099461Y-51008015D01*
X147030176Y-50960777D01*
X146891606Y-50866301D01*
X146664949Y-50757148D01*
X146664936Y-50757143D01*
X146424559Y-50682997D01*
X146424551Y-50682995D01*
X146424549Y-50682995D01*
X146175786Y-50645500D01*
X145924214Y-50645500D01*
X145675451Y-50682995D01*
X145675449Y-50682995D01*
X145675440Y-50682997D01*
X145435063Y-50757143D01*
X145435051Y-50757148D01*
X145208394Y-50866301D01*
X145208387Y-50866305D01*
X145000544Y-51008011D01*
X145000532Y-51008021D01*
X144816125Y-51179123D01*
X144659266Y-51375819D01*
X144533481Y-51593686D01*
X144533479Y-51593690D01*
X144441571Y-51827870D01*
X144385594Y-52073126D01*
X144385593Y-52073131D01*
X144366793Y-52324000D01*
X142733207Y-52324000D01*
X142714407Y-52073131D01*
X142658427Y-51827866D01*
X142615320Y-51718033D01*
X142566520Y-51593690D01*
X142566518Y-51593686D01*
X142553884Y-51571804D01*
X142440731Y-51375816D01*
X142283878Y-51179128D01*
X142283877Y-51179127D01*
X142283874Y-51179123D01*
X142099467Y-51008021D01*
X142099461Y-51008015D01*
X142030176Y-50960777D01*
X141891606Y-50866301D01*
X141664949Y-50757148D01*
X141664936Y-50757143D01*
X141424559Y-50682997D01*
X141424551Y-50682995D01*
X141424549Y-50682995D01*
X141175786Y-50645500D01*
X140924214Y-50645500D01*
X140675451Y-50682995D01*
X140675449Y-50682995D01*
X140675440Y-50682997D01*
X140435063Y-50757143D01*
X140435051Y-50757148D01*
X140208394Y-50866301D01*
X140208387Y-50866305D01*
X140000544Y-51008011D01*
X140000532Y-51008021D01*
X139816125Y-51179123D01*
X139659266Y-51375819D01*
X139533481Y-51593686D01*
X139533479Y-51593690D01*
X139441571Y-51827870D01*
X139385594Y-52073126D01*
X139385593Y-52073131D01*
X139366793Y-52324000D01*
X137733207Y-52324000D01*
X137714407Y-52073131D01*
X137658427Y-51827866D01*
X137615320Y-51718033D01*
X137566520Y-51593690D01*
X137566518Y-51593686D01*
X137553884Y-51571804D01*
X137440731Y-51375816D01*
X137283878Y-51179128D01*
X137283877Y-51179127D01*
X137283874Y-51179123D01*
X137099467Y-51008021D01*
X137099461Y-51008015D01*
X137030176Y-50960777D01*
X136891606Y-50866301D01*
X136664949Y-50757148D01*
X136664936Y-50757143D01*
X136424559Y-50682997D01*
X136424551Y-50682995D01*
X136424549Y-50682995D01*
X136175786Y-50645500D01*
X135924214Y-50645500D01*
X135675451Y-50682995D01*
X135675449Y-50682995D01*
X135675440Y-50682997D01*
X135435063Y-50757143D01*
X135435051Y-50757148D01*
X135208394Y-50866301D01*
X135208387Y-50866305D01*
X135000544Y-51008011D01*
X135000532Y-51008021D01*
X134816125Y-51179123D01*
X134659266Y-51375819D01*
X134533481Y-51593686D01*
X134533479Y-51593690D01*
X134441571Y-51827870D01*
X134385594Y-52073126D01*
X134385593Y-52073131D01*
X134366793Y-52324000D01*
X129730600Y-52324000D01*
X129678284Y-52128757D01*
X129581523Y-51921251D01*
X129450198Y-51733700D01*
X129288300Y-51571802D01*
X129100749Y-51440477D01*
X128962089Y-51375819D01*
X128893246Y-51343717D01*
X128893240Y-51343715D01*
X128799771Y-51318670D01*
X128672087Y-51284457D01*
X128444000Y-51264502D01*
X128215913Y-51284457D01*
X127994759Y-51343715D01*
X127994753Y-51343717D01*
X127787250Y-51440477D01*
X127599703Y-51571799D01*
X127599697Y-51571804D01*
X127437804Y-51733697D01*
X127437799Y-51733703D01*
X127306477Y-51921250D01*
X127209717Y-52128753D01*
X127209716Y-52128757D01*
X127150457Y-52349913D01*
X127130502Y-52578000D01*
X124757498Y-52578000D01*
X124737543Y-52349913D01*
X124678284Y-52128757D01*
X124581523Y-51921251D01*
X124450198Y-51733700D01*
X124288300Y-51571802D01*
X124100749Y-51440477D01*
X123962089Y-51375819D01*
X123893246Y-51343717D01*
X123893240Y-51343715D01*
X123799771Y-51318670D01*
X123672087Y-51284457D01*
X123444000Y-51264502D01*
X123215913Y-51284457D01*
X122994759Y-51343715D01*
X122994753Y-51343717D01*
X122787250Y-51440477D01*
X122599703Y-51571799D01*
X122599697Y-51571804D01*
X122437804Y-51733697D01*
X122437799Y-51733703D01*
X122306477Y-51921250D01*
X122209717Y-52128753D01*
X122209716Y-52128757D01*
X122150457Y-52349913D01*
X122130502Y-52578000D01*
X119011692Y-52578000D01*
X119012407Y-52574869D01*
X119031207Y-52324000D01*
X119012407Y-52073131D01*
X118956427Y-51827866D01*
X118913320Y-51718033D01*
X118864520Y-51593690D01*
X118864518Y-51593686D01*
X118851884Y-51571804D01*
X118738731Y-51375816D01*
X118581878Y-51179128D01*
X118581877Y-51179127D01*
X118581874Y-51179123D01*
X118397467Y-51008021D01*
X118397461Y-51008015D01*
X118328176Y-50960777D01*
X118189606Y-50866301D01*
X117962949Y-50757148D01*
X117962936Y-50757143D01*
X117722559Y-50682997D01*
X117722551Y-50682995D01*
X117722549Y-50682995D01*
X117473786Y-50645500D01*
X117222214Y-50645500D01*
X116973451Y-50682995D01*
X116973449Y-50682995D01*
X116973440Y-50682997D01*
X116733063Y-50757143D01*
X116733051Y-50757148D01*
X116506394Y-50866301D01*
X116506387Y-50866305D01*
X116298544Y-51008011D01*
X116298532Y-51008021D01*
X116114125Y-51179123D01*
X115957266Y-51375819D01*
X115831481Y-51593686D01*
X115831479Y-51593690D01*
X115739571Y-51827870D01*
X115683594Y-52073126D01*
X115683593Y-52073131D01*
X115664793Y-52324000D01*
X114031207Y-52324000D01*
X114012407Y-52073131D01*
X113956427Y-51827866D01*
X113913320Y-51718033D01*
X113864520Y-51593690D01*
X113864518Y-51593686D01*
X113851884Y-51571804D01*
X113738731Y-51375816D01*
X113581878Y-51179128D01*
X113581877Y-51179127D01*
X113581874Y-51179123D01*
X113397467Y-51008021D01*
X113397461Y-51008015D01*
X113328176Y-50960777D01*
X113189606Y-50866301D01*
X112962949Y-50757148D01*
X112962936Y-50757143D01*
X112722559Y-50682997D01*
X112722551Y-50682995D01*
X112722549Y-50682995D01*
X112473786Y-50645500D01*
X112222214Y-50645500D01*
X111973451Y-50682995D01*
X111973449Y-50682995D01*
X111973440Y-50682997D01*
X111733063Y-50757143D01*
X111733051Y-50757148D01*
X111506394Y-50866301D01*
X111506387Y-50866305D01*
X111298544Y-51008011D01*
X111298532Y-51008021D01*
X111114125Y-51179123D01*
X110957266Y-51375819D01*
X110831481Y-51593686D01*
X110831479Y-51593690D01*
X110739571Y-51827870D01*
X110683594Y-52073126D01*
X110683593Y-52073131D01*
X110664793Y-52324000D01*
X109031207Y-52324000D01*
X109012407Y-52073131D01*
X108956427Y-51827866D01*
X108913320Y-51718033D01*
X108864520Y-51593690D01*
X108864518Y-51593686D01*
X108851884Y-51571804D01*
X108738731Y-51375816D01*
X108581878Y-51179128D01*
X108581877Y-51179127D01*
X108581874Y-51179123D01*
X108397467Y-51008021D01*
X108397461Y-51008015D01*
X108328176Y-50960777D01*
X108189606Y-50866301D01*
X107962949Y-50757148D01*
X107962936Y-50757143D01*
X107722559Y-50682997D01*
X107722551Y-50682995D01*
X107722549Y-50682995D01*
X107473786Y-50645500D01*
X107222214Y-50645500D01*
X106973451Y-50682995D01*
X106973449Y-50682995D01*
X106973440Y-50682997D01*
X106733063Y-50757143D01*
X106733051Y-50757148D01*
X106506394Y-50866301D01*
X106506387Y-50866305D01*
X106298544Y-51008011D01*
X106298532Y-51008021D01*
X106114125Y-51179123D01*
X105957266Y-51375819D01*
X105831481Y-51593686D01*
X105831479Y-51593690D01*
X105739571Y-51827870D01*
X105683594Y-52073126D01*
X105683593Y-52073131D01*
X105664793Y-52324000D01*
X99629762Y-52324000D01*
X99619373Y-50215121D01*
X99639039Y-50146902D01*
X99692465Y-50100146D01*
X99745371Y-50088500D01*
X99811955Y-50088500D01*
X100065955Y-50088500D01*
X154003230Y-50088500D01*
X154071351Y-50108502D01*
G37*
G04 #@! TD.AperFunction*
G04 #@! TA.AperFunction,Conductor*
G36*
X133652507Y-98850156D02*
G01*
X133612000Y-98988111D01*
X133612000Y-99131889D01*
X133652507Y-99269844D01*
X133680884Y-99314000D01*
X132003116Y-99314000D01*
X132031493Y-99269844D01*
X132072000Y-99131889D01*
X132072000Y-98988111D01*
X132031493Y-98850156D01*
X132003116Y-98806000D01*
X133680884Y-98806000D01*
X133652507Y-98850156D01*
G37*
G04 #@! TD.AperFunction*
G04 #@! TA.AperFunction,Conductor*
G36*
X122494318Y-73468997D02*
G01*
X122514455Y-73485357D01*
X128952641Y-79923544D01*
X128986667Y-79985856D01*
X128981602Y-80056671D01*
X128939055Y-80113507D01*
X128916798Y-80126833D01*
X128883254Y-80142475D01*
X128883250Y-80142477D01*
X128695708Y-80273795D01*
X128695697Y-80273804D01*
X128533804Y-80435697D01*
X128533799Y-80435703D01*
X128402477Y-80623250D01*
X128305717Y-80830753D01*
X128305715Y-80830759D01*
X128257633Y-81010204D01*
X128246457Y-81051913D01*
X128226502Y-81280000D01*
X128246457Y-81508087D01*
X128277687Y-81624638D01*
X128305715Y-81729240D01*
X128305717Y-81729246D01*
X128402477Y-81936749D01*
X128513454Y-82095241D01*
X128533802Y-82124300D01*
X128695700Y-82286198D01*
X128883251Y-82417523D01*
X129090757Y-82514284D01*
X129311913Y-82573543D01*
X129540000Y-82593498D01*
X129768087Y-82573543D01*
X129989243Y-82514284D01*
X130196749Y-82417523D01*
X130384300Y-82286198D01*
X130546198Y-82124300D01*
X130677523Y-81936749D01*
X130693166Y-81903201D01*
X130740081Y-81849918D01*
X130808358Y-81830456D01*
X130876318Y-81850997D01*
X130896449Y-81867352D01*
X134267243Y-85238145D01*
X137699595Y-88670497D01*
X137733621Y-88732809D01*
X137736500Y-88759592D01*
X137736500Y-92138146D01*
X137734751Y-92153988D01*
X137735044Y-92154016D01*
X137734298Y-92161907D01*
X137734298Y-92161909D01*
X137734818Y-92178457D01*
X137736438Y-92229984D01*
X137736500Y-92233943D01*
X137736500Y-92261851D01*
X137736501Y-92261869D01*
X137737007Y-92265877D01*
X137737937Y-92277696D01*
X137739326Y-92321888D01*
X137739327Y-92321893D01*
X137744977Y-92341339D01*
X137748986Y-92360697D01*
X137751525Y-92380793D01*
X137751526Y-92380800D01*
X137767800Y-92421903D01*
X137771644Y-92433129D01*
X137783982Y-92475593D01*
X137794294Y-92493031D01*
X137802988Y-92510779D01*
X137810444Y-92529609D01*
X137810450Y-92529620D01*
X137836432Y-92565381D01*
X137842949Y-92575301D01*
X137865458Y-92613362D01*
X137865459Y-92613363D01*
X137865461Y-92613366D01*
X137879779Y-92627684D01*
X137892617Y-92642714D01*
X137904526Y-92659104D01*
X137904530Y-92659109D01*
X137938592Y-92687287D01*
X137947373Y-92695277D01*
X138310848Y-93058753D01*
X138344873Y-93121065D01*
X138343459Y-93180459D01*
X138326457Y-93243909D01*
X138311642Y-93413246D01*
X138306502Y-93472000D01*
X138326457Y-93700087D01*
X138353133Y-93799641D01*
X138385715Y-93921240D01*
X138385717Y-93921246D01*
X138451342Y-94061980D01*
X138482477Y-94128749D01*
X138613802Y-94316300D01*
X138775700Y-94478198D01*
X138963251Y-94609523D01*
X139170757Y-94706284D01*
X139391913Y-94765543D01*
X139493903Y-94774466D01*
X139560020Y-94800328D01*
X139601659Y-94857832D01*
X139605600Y-94928719D01*
X139572015Y-94989081D01*
X135685095Y-98876002D01*
X135622783Y-98910028D01*
X135551968Y-98904963D01*
X135495132Y-98862416D01*
X135470321Y-98795896D01*
X135470000Y-98786907D01*
X135470000Y-98161414D01*
X135469999Y-98161402D01*
X135463494Y-98100906D01*
X135412444Y-97964035D01*
X135412444Y-97964034D01*
X135324904Y-97847095D01*
X135207965Y-97759555D01*
X135071093Y-97708505D01*
X135010597Y-97702000D01*
X134366000Y-97702000D01*
X134366000Y-98626325D01*
X134254315Y-98575320D01*
X134147763Y-98560000D01*
X134076237Y-98560000D01*
X133969685Y-98575320D01*
X133858000Y-98626325D01*
X133858000Y-97702000D01*
X133213402Y-97702000D01*
X133152906Y-97708505D01*
X133016035Y-97759555D01*
X133016034Y-97759555D01*
X132899095Y-97847095D01*
X132811555Y-97964034D01*
X132811553Y-97964039D01*
X132767184Y-98082996D01*
X132724637Y-98139832D01*
X132658117Y-98164642D01*
X132588743Y-98149550D01*
X132556427Y-98124300D01*
X132494902Y-98057465D01*
X132317301Y-97919232D01*
X132317300Y-97919231D01*
X132119371Y-97812117D01*
X132119369Y-97812116D01*
X131906512Y-97739043D01*
X131906501Y-97739040D01*
X131826000Y-97725606D01*
X131826000Y-98626325D01*
X131714315Y-98575320D01*
X131607763Y-98560000D01*
X131536237Y-98560000D01*
X131429685Y-98575320D01*
X131318000Y-98626325D01*
X131318000Y-97725607D01*
X131317999Y-97725606D01*
X131237498Y-97739040D01*
X131237487Y-97739043D01*
X131024630Y-97812116D01*
X131024628Y-97812117D01*
X130826699Y-97919231D01*
X130826698Y-97919232D01*
X130649097Y-98057465D01*
X130496670Y-98223045D01*
X130407780Y-98359101D01*
X130353776Y-98405189D01*
X130283428Y-98414764D01*
X130219071Y-98384786D01*
X130196816Y-98359101D01*
X130157884Y-98299511D01*
X130107724Y-98222734D01*
X130107720Y-98222729D01*
X129979085Y-98082996D01*
X129955240Y-98057094D01*
X129955239Y-98057093D01*
X129955237Y-98057091D01*
X129835679Y-97964035D01*
X129777576Y-97918811D01*
X129579574Y-97811658D01*
X129579572Y-97811657D01*
X129579571Y-97811656D01*
X129366639Y-97738557D01*
X129366630Y-97738555D01*
X129289029Y-97725606D01*
X129144569Y-97701500D01*
X128919431Y-97701500D01*
X128774971Y-97725606D01*
X128697369Y-97738555D01*
X128697360Y-97738557D01*
X128484428Y-97811656D01*
X128484426Y-97811658D01*
X128286426Y-97918810D01*
X128286424Y-97918811D01*
X128108762Y-98057091D01*
X127956279Y-98222729D01*
X127867483Y-98358643D01*
X127813479Y-98404731D01*
X127743131Y-98414306D01*
X127678774Y-98384329D01*
X127656517Y-98358643D01*
X127567720Y-98222729D01*
X127439085Y-98082996D01*
X127415240Y-98057094D01*
X127415239Y-98057093D01*
X127415237Y-98057091D01*
X127295679Y-97964035D01*
X127237576Y-97918811D01*
X127039574Y-97811658D01*
X127039572Y-97811657D01*
X127039571Y-97811656D01*
X126826639Y-97738557D01*
X126826630Y-97738555D01*
X126749029Y-97725606D01*
X126604569Y-97701500D01*
X126379431Y-97701500D01*
X126280306Y-97718041D01*
X126157355Y-97738557D01*
X126154213Y-97739353D01*
X126152889Y-97739303D01*
X126152224Y-97739414D01*
X126152201Y-97739277D01*
X126083267Y-97736675D01*
X126034204Y-97706299D01*
X124085404Y-95757499D01*
X124051378Y-95695187D01*
X124048499Y-95668404D01*
X124048499Y-90643187D01*
X124068501Y-90575066D01*
X124122157Y-90528573D01*
X124192431Y-90518469D01*
X124257011Y-90547963D01*
X124263594Y-90554092D01*
X124377700Y-90668198D01*
X124565251Y-90799523D01*
X124772757Y-90896284D01*
X124993913Y-90955543D01*
X125222000Y-90975498D01*
X125450087Y-90955543D01*
X125671243Y-90896284D01*
X125878749Y-90799523D01*
X126066300Y-90668198D01*
X126228198Y-90506300D01*
X126359523Y-90318749D01*
X126456284Y-90111243D01*
X126515543Y-89890087D01*
X126535498Y-89662000D01*
X126515543Y-89433913D01*
X126456284Y-89212757D01*
X126359523Y-89005251D01*
X126228198Y-88817700D01*
X126066300Y-88655802D01*
X126054746Y-88647712D01*
X125878749Y-88524477D01*
X125671246Y-88427717D01*
X125671240Y-88427715D01*
X125461458Y-88371504D01*
X125450087Y-88368457D01*
X125222000Y-88348502D01*
X124993913Y-88368457D01*
X124772759Y-88427715D01*
X124772753Y-88427717D01*
X124565250Y-88524477D01*
X124377703Y-88655799D01*
X124377697Y-88655804D01*
X124263594Y-88769908D01*
X124201282Y-88803934D01*
X124130467Y-88798869D01*
X124073631Y-88756322D01*
X124048820Y-88689802D01*
X124048499Y-88680813D01*
X124048499Y-87301585D01*
X124068501Y-87233464D01*
X124122157Y-87186971D01*
X124192431Y-87176867D01*
X124246769Y-87198372D01*
X124282209Y-87223188D01*
X124311249Y-87243522D01*
X124311250Y-87243522D01*
X124311251Y-87243523D01*
X124518757Y-87340284D01*
X124739913Y-87399543D01*
X124968000Y-87419498D01*
X125196087Y-87399543D01*
X125417243Y-87340284D01*
X125624749Y-87243523D01*
X125812300Y-87112198D01*
X125974198Y-86950300D01*
X126105523Y-86762749D01*
X126202284Y-86555243D01*
X126261543Y-86334087D01*
X126273391Y-86198653D01*
X126299254Y-86132537D01*
X126356758Y-86090898D01*
X126427645Y-86086957D01*
X126488007Y-86120542D01*
X128643388Y-88275923D01*
X128677414Y-88338235D01*
X128672349Y-88409050D01*
X128643389Y-88454113D01*
X128533799Y-88563703D01*
X128402477Y-88751250D01*
X128305717Y-88958753D01*
X128305715Y-88958759D01*
X128250099Y-89166320D01*
X128246457Y-89179913D01*
X128226502Y-89408000D01*
X128246457Y-89636087D01*
X128269145Y-89720759D01*
X128305715Y-89857240D01*
X128305717Y-89857246D01*
X128402477Y-90064749D01*
X128435032Y-90111243D01*
X128533802Y-90252300D01*
X128695700Y-90414198D01*
X128883251Y-90545523D01*
X129090757Y-90642284D01*
X129311913Y-90701543D01*
X129540000Y-90721498D01*
X129768087Y-90701543D01*
X129989243Y-90642284D01*
X130196749Y-90545523D01*
X130384300Y-90414198D01*
X130546198Y-90252300D01*
X130677523Y-90064749D01*
X130774284Y-89857243D01*
X130833543Y-89636087D01*
X130853498Y-89408000D01*
X130833543Y-89179913D01*
X130774284Y-88958757D01*
X130677523Y-88751251D01*
X130546198Y-88563700D01*
X130384300Y-88401802D01*
X130341030Y-88371504D01*
X130224784Y-88290107D01*
X130180456Y-88234650D01*
X130171117Y-88190849D01*
X130170674Y-88176741D01*
X130165017Y-88157272D01*
X130161012Y-88137928D01*
X130158474Y-88117833D01*
X130142196Y-88076722D01*
X130138356Y-88065507D01*
X130126018Y-88023037D01*
X130115706Y-88005600D01*
X130107010Y-87987851D01*
X130099552Y-87969013D01*
X130073552Y-87933228D01*
X130067059Y-87923344D01*
X130044542Y-87885268D01*
X130030214Y-87870940D01*
X130017384Y-87855919D01*
X130005472Y-87839523D01*
X130005469Y-87839521D01*
X130005469Y-87839520D01*
X129971394Y-87811330D01*
X129962616Y-87803342D01*
X129533152Y-87373878D01*
X129499126Y-87311566D01*
X129504191Y-87240751D01*
X129546738Y-87183915D01*
X129611262Y-87159263D01*
X129768087Y-87145543D01*
X129831541Y-87128540D01*
X129902516Y-87130228D01*
X129953247Y-87161151D01*
X131765195Y-88973099D01*
X131799221Y-89035411D01*
X131802100Y-89062194D01*
X131802100Y-91744606D01*
X131782098Y-91812727D01*
X131748371Y-91847819D01*
X131591303Y-91957799D01*
X131591297Y-91957804D01*
X131429404Y-92119697D01*
X131429399Y-92119703D01*
X131298077Y-92307250D01*
X131201317Y-92514753D01*
X131201315Y-92514759D01*
X131167030Y-92642714D01*
X131142057Y-92735913D01*
X131122102Y-92964000D01*
X131142057Y-93192087D01*
X131168733Y-93291641D01*
X131201315Y-93413240D01*
X131201317Y-93413246D01*
X131298077Y-93620749D01*
X131353629Y-93700086D01*
X131429402Y-93808300D01*
X131591300Y-93970198D01*
X131778851Y-94101523D01*
X131986357Y-94198284D01*
X132207513Y-94257543D01*
X132435600Y-94277498D01*
X132663687Y-94257543D01*
X132884843Y-94198284D01*
X133092349Y-94101523D01*
X133254291Y-93988129D01*
X133321563Y-93965442D01*
X133390423Y-93982727D01*
X133439007Y-94034496D01*
X133440755Y-94038093D01*
X133482913Y-94128501D01*
X133532898Y-94199888D01*
X133532900Y-94199888D01*
X134221272Y-93511516D01*
X134234835Y-93597148D01*
X134292359Y-93710045D01*
X134381955Y-93799641D01*
X134494852Y-93857165D01*
X134580482Y-93870727D01*
X133892110Y-94559098D01*
X133892110Y-94559100D01*
X133963498Y-94609086D01*
X134170926Y-94705811D01*
X134170931Y-94705813D01*
X134391999Y-94765048D01*
X134391995Y-94765048D01*
X134620000Y-94784995D01*
X134848002Y-94765048D01*
X135069068Y-94705813D01*
X135069073Y-94705811D01*
X135276497Y-94609088D01*
X135347888Y-94559099D01*
X135347888Y-94559097D01*
X134659518Y-93870727D01*
X134745148Y-93857165D01*
X134858045Y-93799641D01*
X134947641Y-93710045D01*
X135005165Y-93597148D01*
X135018727Y-93511518D01*
X135707097Y-94199888D01*
X135707099Y-94199888D01*
X135757088Y-94128497D01*
X135853811Y-93921073D01*
X135853813Y-93921068D01*
X135913048Y-93700002D01*
X135932995Y-93472000D01*
X135913048Y-93243997D01*
X135853813Y-93022931D01*
X135853811Y-93022926D01*
X135757086Y-92815498D01*
X135707100Y-92744110D01*
X135707098Y-92744110D01*
X135018727Y-93432481D01*
X135005165Y-93346852D01*
X134947641Y-93233955D01*
X134858045Y-93144359D01*
X134745148Y-93086835D01*
X134659516Y-93073272D01*
X135347888Y-92384899D01*
X135347888Y-92384898D01*
X135276501Y-92334913D01*
X135069073Y-92238188D01*
X135069068Y-92238186D01*
X134848000Y-92178951D01*
X134848004Y-92178951D01*
X134620000Y-92159004D01*
X134391997Y-92178951D01*
X134170931Y-92238186D01*
X134170926Y-92238188D01*
X133963498Y-92334913D01*
X133801939Y-92448038D01*
X133734665Y-92470726D01*
X133665805Y-92453441D01*
X133617221Y-92401671D01*
X133615474Y-92398074D01*
X133573123Y-92307251D01*
X133441798Y-92119700D01*
X133279900Y-91957802D01*
X133269970Y-91950849D01*
X133122829Y-91847819D01*
X133078501Y-91792362D01*
X133069100Y-91744606D01*
X133069100Y-88831453D01*
X133070849Y-88815611D01*
X133070556Y-88815584D01*
X133071302Y-88807691D01*
X133069162Y-88739600D01*
X133069100Y-88735642D01*
X133069100Y-88707750D01*
X133069100Y-88707744D01*
X133068593Y-88703735D01*
X133067662Y-88691906D01*
X133067596Y-88689802D01*
X133066274Y-88647711D01*
X133060617Y-88628242D01*
X133056612Y-88608898D01*
X133054074Y-88588803D01*
X133037796Y-88547692D01*
X133033956Y-88536477D01*
X133021618Y-88494007D01*
X133011306Y-88476570D01*
X133002610Y-88458821D01*
X132995152Y-88439983D01*
X132969152Y-88404198D01*
X132962659Y-88394314D01*
X132940142Y-88356238D01*
X132925814Y-88341910D01*
X132912984Y-88326889D01*
X132901072Y-88310493D01*
X132901069Y-88310491D01*
X132901069Y-88310490D01*
X132866994Y-88282300D01*
X132858216Y-88274312D01*
X130849151Y-86265246D01*
X130815125Y-86202934D01*
X130816539Y-86143541D01*
X130833543Y-86080087D01*
X130853498Y-85852000D01*
X130833543Y-85623913D01*
X130774284Y-85402757D01*
X130677523Y-85195251D01*
X130546198Y-85007700D01*
X130384300Y-84845802D01*
X130370301Y-84836000D01*
X130196749Y-84714477D01*
X129989246Y-84617717D01*
X129989240Y-84617715D01*
X129892520Y-84591799D01*
X129768087Y-84558457D01*
X129540000Y-84538502D01*
X129311913Y-84558457D01*
X129090759Y-84617715D01*
X129090753Y-84617717D01*
X128883250Y-84714477D01*
X128695703Y-84845799D01*
X128695697Y-84845804D01*
X128533804Y-85007697D01*
X128533799Y-85007703D01*
X128402477Y-85195250D01*
X128305717Y-85402753D01*
X128305715Y-85402759D01*
X128300546Y-85422050D01*
X128248428Y-85616560D01*
X128246456Y-85623918D01*
X128232736Y-85780733D01*
X128206873Y-85846851D01*
X128149369Y-85888491D01*
X128078482Y-85892431D01*
X128018121Y-85858846D01*
X126460405Y-84301130D01*
X126426379Y-84238818D01*
X126423500Y-84212035D01*
X126423500Y-82613853D01*
X126425249Y-82598011D01*
X126424956Y-82597984D01*
X126425702Y-82590091D01*
X126423562Y-82522000D01*
X126423500Y-82518042D01*
X126423500Y-82490150D01*
X126423500Y-82490144D01*
X126422993Y-82486135D01*
X126422062Y-82474306D01*
X126420674Y-82430111D01*
X126415017Y-82410642D01*
X126411012Y-82391298D01*
X126408474Y-82371203D01*
X126392196Y-82330092D01*
X126388356Y-82318877D01*
X126376018Y-82276407D01*
X126365706Y-82258970D01*
X126357010Y-82241221D01*
X126349552Y-82222383D01*
X126323552Y-82186598D01*
X126317059Y-82176714D01*
X126294542Y-82138638D01*
X126280214Y-82124310D01*
X126267384Y-82109289D01*
X126255472Y-82092893D01*
X126255469Y-82092891D01*
X126255469Y-82092890D01*
X126221400Y-82064705D01*
X126212621Y-82056717D01*
X125849150Y-81693245D01*
X125815125Y-81630933D01*
X125816539Y-81571542D01*
X125833543Y-81508087D01*
X125853498Y-81280000D01*
X125833543Y-81051913D01*
X125774284Y-80830757D01*
X125677523Y-80623251D01*
X125546198Y-80435700D01*
X125384300Y-80273802D01*
X125381012Y-80271500D01*
X125196749Y-80142477D01*
X124989246Y-80045717D01*
X124989240Y-80045715D01*
X124872890Y-80014539D01*
X124768087Y-79986457D01*
X124540000Y-79966502D01*
X124311913Y-79986457D01*
X124207110Y-80014539D01*
X124136133Y-80012849D01*
X124077338Y-79973055D01*
X124049390Y-79907790D01*
X124048499Y-79892832D01*
X124048499Y-77129850D01*
X124050248Y-77114008D01*
X124049955Y-77113981D01*
X124050701Y-77106088D01*
X124048561Y-77037997D01*
X124048499Y-77034039D01*
X124048499Y-77006147D01*
X124048499Y-77006141D01*
X124047992Y-77002132D01*
X124047061Y-76990303D01*
X124046669Y-76977825D01*
X124045673Y-76946108D01*
X124040016Y-76926639D01*
X124036011Y-76907295D01*
X124033473Y-76887200D01*
X124017195Y-76846089D01*
X124013355Y-76834874D01*
X124001017Y-76792404D01*
X123990705Y-76774967D01*
X123982009Y-76757218D01*
X123974551Y-76738380D01*
X123948551Y-76702595D01*
X123942058Y-76692711D01*
X123919541Y-76654635D01*
X123905213Y-76640307D01*
X123892383Y-76625286D01*
X123880471Y-76608890D01*
X123880468Y-76608888D01*
X123880468Y-76608887D01*
X123846393Y-76580697D01*
X123837615Y-76572709D01*
X121591232Y-74326325D01*
X121557206Y-74264013D01*
X121562271Y-74193197D01*
X121604818Y-74136362D01*
X121627078Y-74123035D01*
X121814747Y-74035524D01*
X121814747Y-74035523D01*
X121814749Y-74035523D01*
X122002300Y-73904198D01*
X122164198Y-73742300D01*
X122295523Y-73554749D01*
X122311166Y-73521201D01*
X122358081Y-73467918D01*
X122426358Y-73448456D01*
X122494318Y-73468997D01*
G37*
G04 #@! TD.AperFunction*
G04 #@! TA.AperFunction,Conductor*
G36*
X124753528Y-69124501D02*
G01*
X124774502Y-69141404D01*
X130730642Y-75097544D01*
X130764668Y-75159856D01*
X130759603Y-75230671D01*
X130717056Y-75287507D01*
X130694797Y-75300834D01*
X130661250Y-75316477D01*
X130473703Y-75447799D01*
X130473697Y-75447804D01*
X130311804Y-75609697D01*
X130311799Y-75609703D01*
X130180477Y-75797250D01*
X130083717Y-76004753D01*
X130083715Y-76004759D01*
X130049407Y-76132800D01*
X130024457Y-76225913D01*
X130004502Y-76454000D01*
X130024457Y-76682087D01*
X130055726Y-76798784D01*
X130083715Y-76903240D01*
X130083717Y-76903246D01*
X130180477Y-77110749D01*
X130293033Y-77271496D01*
X130311802Y-77298300D01*
X130473700Y-77460198D01*
X130661251Y-77591523D01*
X130868757Y-77688284D01*
X131089913Y-77747543D01*
X131318000Y-77767498D01*
X131546087Y-77747543D01*
X131767243Y-77688284D01*
X131974749Y-77591523D01*
X132162300Y-77460198D01*
X132324198Y-77298300D01*
X132455523Y-77110749D01*
X132471166Y-77077201D01*
X132518081Y-77023918D01*
X132586358Y-77004456D01*
X132654318Y-77024997D01*
X132674455Y-77041357D01*
X133619503Y-77986405D01*
X133653529Y-78048717D01*
X133648464Y-78119532D01*
X133605917Y-78176368D01*
X133539397Y-78201179D01*
X133530408Y-78201500D01*
X133284996Y-78201500D01*
X133153552Y-78216310D01*
X133153549Y-78216310D01*
X133153549Y-78216311D01*
X132986900Y-78274624D01*
X132986898Y-78274625D01*
X132837403Y-78368558D01*
X132712558Y-78493403D01*
X132618625Y-78642898D01*
X132618624Y-78642900D01*
X132573931Y-78770625D01*
X132560310Y-78809552D01*
X132545500Y-78940996D01*
X132545500Y-80279004D01*
X132560310Y-80410448D01*
X132600569Y-80525500D01*
X132618624Y-80577099D01*
X132618625Y-80577101D01*
X132712558Y-80726596D01*
X132837403Y-80851441D01*
X132912126Y-80898392D01*
X132986901Y-80945376D01*
X133153552Y-81003690D01*
X133284996Y-81018500D01*
X133689500Y-81018500D01*
X133757621Y-81038502D01*
X133804114Y-81092158D01*
X133815500Y-81144500D01*
X133815500Y-82349004D01*
X133830310Y-82480448D01*
X133872123Y-82599942D01*
X133888624Y-82647099D01*
X133888625Y-82647101D01*
X133982558Y-82796596D01*
X134107403Y-82921441D01*
X134164984Y-82957621D01*
X134256901Y-83015376D01*
X134423552Y-83073690D01*
X134554996Y-83088500D01*
X135193004Y-83088500D01*
X135324448Y-83073690D01*
X135491099Y-83015376D01*
X135640596Y-82921441D01*
X135765441Y-82796596D01*
X135859376Y-82647099D01*
X135917690Y-82480448D01*
X135932500Y-82349004D01*
X135932500Y-81144500D01*
X135952502Y-81076379D01*
X136006158Y-81029886D01*
X136058500Y-81018500D01*
X136742632Y-81018500D01*
X136742638Y-81018500D01*
X136757372Y-81016916D01*
X136772032Y-81015340D01*
X136841901Y-81027946D01*
X136893863Y-81076324D01*
X136911501Y-81140618D01*
X136911501Y-81948145D01*
X136909752Y-81963987D01*
X136910045Y-81964015D01*
X136909299Y-81971906D01*
X136909299Y-81971908D01*
X136910650Y-82014887D01*
X136911439Y-82039983D01*
X136911501Y-82043942D01*
X136911501Y-82071850D01*
X136911502Y-82071868D01*
X136912008Y-82075876D01*
X136912938Y-82087695D01*
X136914327Y-82131887D01*
X136914328Y-82131892D01*
X136919978Y-82151338D01*
X136923987Y-82170696D01*
X136926526Y-82190792D01*
X136926527Y-82190799D01*
X136942801Y-82231902D01*
X136946645Y-82243128D01*
X136958983Y-82285592D01*
X136969295Y-82303030D01*
X136977989Y-82320778D01*
X136985445Y-82339608D01*
X136985451Y-82339619D01*
X137011433Y-82375380D01*
X137017950Y-82385300D01*
X137040459Y-82423361D01*
X137040460Y-82423362D01*
X137040462Y-82423365D01*
X137054780Y-82437683D01*
X137067618Y-82452713D01*
X137079527Y-82469103D01*
X137079531Y-82469108D01*
X137113599Y-82497291D01*
X137122379Y-82505281D01*
X139112641Y-84495544D01*
X139146667Y-84557856D01*
X139141602Y-84628672D01*
X139099055Y-84685507D01*
X139076798Y-84698833D01*
X139043254Y-84714475D01*
X139043250Y-84714477D01*
X138855708Y-84845795D01*
X138855697Y-84845804D01*
X138693804Y-85007697D01*
X138693799Y-85007703D01*
X138562477Y-85195250D01*
X138465717Y-85402753D01*
X138465715Y-85402759D01*
X138416618Y-85585991D01*
X138406457Y-85623913D01*
X138386502Y-85852000D01*
X138406457Y-86080087D01*
X138418089Y-86123499D01*
X138465715Y-86301240D01*
X138465717Y-86301246D01*
X138562477Y-86508749D01*
X138595032Y-86555243D01*
X138693802Y-86696300D01*
X138855700Y-86858198D01*
X139043251Y-86989523D01*
X139250757Y-87086284D01*
X139471913Y-87145543D01*
X139700000Y-87165498D01*
X139928087Y-87145543D01*
X140149243Y-87086284D01*
X140356749Y-86989523D01*
X140544300Y-86858198D01*
X140706198Y-86696300D01*
X140837523Y-86508749D01*
X140853166Y-86475201D01*
X140900081Y-86421918D01*
X140968358Y-86402456D01*
X141036318Y-86422997D01*
X141056450Y-86439353D01*
X141524249Y-86907151D01*
X142077595Y-87460497D01*
X142111621Y-87522809D01*
X142114500Y-87549592D01*
X142114500Y-88442606D01*
X142094498Y-88510727D01*
X142060771Y-88545819D01*
X141903703Y-88655799D01*
X141903697Y-88655804D01*
X141741804Y-88817697D01*
X141741799Y-88817703D01*
X141610477Y-89005250D01*
X141513717Y-89212753D01*
X141513715Y-89212759D01*
X141454457Y-89433913D01*
X141434502Y-89662000D01*
X141454457Y-89890090D01*
X141471459Y-89953540D01*
X141469769Y-90024516D01*
X141438847Y-90075246D01*
X140980335Y-90533758D01*
X140967900Y-90543722D01*
X140968088Y-90543949D01*
X140961978Y-90549003D01*
X140915369Y-90598636D01*
X140912619Y-90601474D01*
X140892862Y-90621232D01*
X140890373Y-90624440D01*
X140882687Y-90633437D01*
X140852417Y-90665674D01*
X140852410Y-90665684D01*
X140842650Y-90683436D01*
X140831802Y-90699951D01*
X140819385Y-90715959D01*
X140801823Y-90756541D01*
X140796603Y-90767196D01*
X140775304Y-90805940D01*
X140775302Y-90805945D01*
X140770266Y-90825560D01*
X140763863Y-90844263D01*
X140755818Y-90862853D01*
X140748900Y-90906526D01*
X140746494Y-90918143D01*
X140735499Y-90960969D01*
X140735499Y-90981224D01*
X140733948Y-91000934D01*
X140730779Y-91020943D01*
X140734940Y-91064962D01*
X140735499Y-91076820D01*
X140735499Y-92432810D01*
X140715497Y-92500931D01*
X140661841Y-92547424D01*
X140591567Y-92557528D01*
X140526987Y-92528034D01*
X140520404Y-92521906D01*
X140499429Y-92500931D01*
X140464300Y-92465802D01*
X140438930Y-92448038D01*
X140276749Y-92334477D01*
X140069246Y-92237717D01*
X140069240Y-92237715D01*
X139973957Y-92212184D01*
X139848087Y-92178457D01*
X139620000Y-92158502D01*
X139391913Y-92178457D01*
X139391910Y-92178457D01*
X139391907Y-92178458D01*
X139328457Y-92195459D01*
X139257481Y-92193769D01*
X139206752Y-92162847D01*
X139040405Y-91996500D01*
X139006379Y-91934188D01*
X139003500Y-91907405D01*
X139003500Y-90724215D01*
X139023502Y-90656094D01*
X139077158Y-90609601D01*
X139147432Y-90599497D01*
X139182751Y-90610021D01*
X139250921Y-90641809D01*
X139250931Y-90641813D01*
X139471999Y-90701048D01*
X139471995Y-90701048D01*
X139700000Y-90720995D01*
X139928002Y-90701048D01*
X140149068Y-90641813D01*
X140149073Y-90641811D01*
X140356497Y-90545088D01*
X140427888Y-90495099D01*
X140427888Y-90495097D01*
X139739518Y-89806727D01*
X139825148Y-89793165D01*
X139938045Y-89735641D01*
X140027641Y-89646045D01*
X140085165Y-89533148D01*
X140098727Y-89447518D01*
X140787097Y-90135888D01*
X140787099Y-90135888D01*
X140837088Y-90064497D01*
X140933811Y-89857073D01*
X140933813Y-89857068D01*
X140993048Y-89636002D01*
X141012995Y-89408000D01*
X140993048Y-89179997D01*
X140933813Y-88958931D01*
X140933811Y-88958926D01*
X140837086Y-88751498D01*
X140787100Y-88680110D01*
X140787098Y-88680110D01*
X140098727Y-89368481D01*
X140085165Y-89282852D01*
X140027641Y-89169955D01*
X139938045Y-89080359D01*
X139825148Y-89022835D01*
X139739516Y-89009272D01*
X140427888Y-88320899D01*
X140427888Y-88320898D01*
X140356501Y-88270913D01*
X140149073Y-88174188D01*
X140149068Y-88174186D01*
X139928000Y-88114951D01*
X139928004Y-88114951D01*
X139700000Y-88095004D01*
X139471997Y-88114951D01*
X139250931Y-88174186D01*
X139250921Y-88174190D01*
X139115329Y-88237417D01*
X139045138Y-88248078D01*
X138980325Y-88219098D01*
X138953626Y-88187361D01*
X138947346Y-88176742D01*
X138945703Y-88173963D01*
X138937010Y-88156219D01*
X138929552Y-88137381D01*
X138903552Y-88101596D01*
X138897059Y-88091712D01*
X138874542Y-88053636D01*
X138860214Y-88039308D01*
X138847384Y-88024287D01*
X138835472Y-88007891D01*
X138835469Y-88007889D01*
X138835469Y-88007888D01*
X138801394Y-87979698D01*
X138792616Y-87971710D01*
X122205245Y-71384338D01*
X122195280Y-71371900D01*
X122195053Y-71372089D01*
X122190002Y-71365983D01*
X122190001Y-71365981D01*
X122140349Y-71319355D01*
X122137506Y-71316599D01*
X122117778Y-71296870D01*
X122117772Y-71296865D01*
X122114568Y-71294379D01*
X122105557Y-71286682D01*
X122073326Y-71256416D01*
X122073320Y-71256412D01*
X122055564Y-71246650D01*
X122039048Y-71235801D01*
X122023042Y-71223385D01*
X121982465Y-71205826D01*
X121971808Y-71200604D01*
X121933064Y-71179305D01*
X121933061Y-71179304D01*
X121913437Y-71174265D01*
X121894737Y-71167863D01*
X121876146Y-71159818D01*
X121876144Y-71159817D01*
X121876142Y-71159817D01*
X121832475Y-71152900D01*
X121820856Y-71150494D01*
X121778031Y-71139499D01*
X121757777Y-71139499D01*
X121738067Y-71137948D01*
X121718058Y-71134779D01*
X121674040Y-71138940D01*
X121662182Y-71139499D01*
X121151814Y-71139499D01*
X121083693Y-71119497D01*
X121037200Y-71065841D01*
X121027096Y-70995567D01*
X121056590Y-70930987D01*
X121116316Y-70892603D01*
X121129939Y-70889412D01*
X121132001Y-70889048D01*
X121353068Y-70829813D01*
X121353073Y-70829811D01*
X121560498Y-70733087D01*
X121747974Y-70601815D01*
X121747980Y-70601810D01*
X121909810Y-70439980D01*
X121909815Y-70439974D01*
X122041087Y-70252498D01*
X122137811Y-70045073D01*
X122137813Y-70045068D01*
X122190082Y-69850000D01*
X121215686Y-69850000D01*
X121231641Y-69834045D01*
X121289165Y-69721148D01*
X121308986Y-69596000D01*
X121289165Y-69470852D01*
X121231641Y-69357955D01*
X121215686Y-69342000D01*
X122190081Y-69342000D01*
X122168943Y-69263111D01*
X122170633Y-69192134D01*
X122210427Y-69133338D01*
X122275691Y-69105390D01*
X122290650Y-69104499D01*
X124685407Y-69104499D01*
X124753528Y-69124501D01*
G37*
G04 #@! TD.AperFunction*
G04 #@! TA.AperFunction,Conductor*
G36*
X119585471Y-69124501D02*
G01*
X119631964Y-69178157D01*
X119642068Y-69248431D01*
X119639057Y-69263111D01*
X119617919Y-69342000D01*
X120592314Y-69342000D01*
X120576359Y-69357955D01*
X120518835Y-69470852D01*
X120499014Y-69596000D01*
X120518835Y-69721148D01*
X120576359Y-69834045D01*
X120592314Y-69850000D01*
X119617918Y-69850000D01*
X119670186Y-70045068D01*
X119670188Y-70045073D01*
X119766912Y-70252498D01*
X119898184Y-70439974D01*
X119898189Y-70439980D01*
X120060019Y-70601810D01*
X120060025Y-70601815D01*
X120247501Y-70733087D01*
X120454926Y-70829811D01*
X120454931Y-70829813D01*
X120675998Y-70889048D01*
X120678061Y-70889412D01*
X120678891Y-70889823D01*
X120681315Y-70890473D01*
X120681184Y-70890959D01*
X120741675Y-70920937D01*
X120778146Y-70981850D01*
X120775896Y-71052811D01*
X120735639Y-71111291D01*
X120670156Y-71138722D01*
X120656186Y-71139499D01*
X118993261Y-71139499D01*
X118925140Y-71119497D01*
X118878647Y-71065841D01*
X118868543Y-70995567D01*
X118872071Y-70979018D01*
X118918293Y-70816562D01*
X118918292Y-70816562D01*
X118918294Y-70816559D01*
X118937249Y-70612000D01*
X118918294Y-70407441D01*
X118862074Y-70209848D01*
X118862070Y-70209839D01*
X118770506Y-70025954D01*
X118770502Y-70025949D01*
X118646702Y-69862009D01*
X118494883Y-69723608D01*
X118320223Y-69615463D01*
X118320222Y-69615462D01*
X118320218Y-69615460D01*
X118179928Y-69561112D01*
X118128656Y-69541249D01*
X118078170Y-69531811D01*
X117926718Y-69503500D01*
X117721282Y-69503500D01*
X117600119Y-69526149D01*
X117519343Y-69541249D01*
X117378015Y-69596000D01*
X117327782Y-69615460D01*
X117327781Y-69615460D01*
X117327780Y-69615461D01*
X117327776Y-69615463D01*
X117153115Y-69723609D01*
X117153112Y-69723611D01*
X117070552Y-69798875D01*
X117006735Y-69829986D01*
X116936229Y-69821656D01*
X116881419Y-69776530D01*
X116875075Y-69766138D01*
X116874890Y-69765799D01*
X116874889Y-69765796D01*
X116874886Y-69765792D01*
X116874884Y-69765788D01*
X116872343Y-69762394D01*
X116870859Y-69758416D01*
X116870566Y-69757879D01*
X116870643Y-69757836D01*
X116847531Y-69695874D01*
X116862622Y-69626500D01*
X116884111Y-69597792D01*
X117340502Y-69141403D01*
X117402814Y-69107378D01*
X117429597Y-69104499D01*
X119517350Y-69104499D01*
X119585471Y-69124501D01*
G37*
G04 #@! TD.AperFunction*
M02*
