G04 #@! TF.GenerationSoftware,KiCad,Pcbnew,7.0.11+dfsg-1build4*
G04 #@! TF.CreationDate,2025-11-30T20:34:08-05:00*
G04 #@! TF.ProjectId,timmy,74696d6d-792e-46b6-9963-61645f706362,rev?*
G04 #@! TF.SameCoordinates,Original*
G04 #@! TF.FileFunction,Soldermask,Top*
G04 #@! TF.FilePolarity,Negative*
%FSLAX46Y46*%
G04 Gerber Fmt 4.6, Leading zero omitted, Abs format (unit mm)*
G04 Created by KiCad (PCBNEW 7.0.11+dfsg-1build4) date 2025-11-30 20:34:08*
%MOMM*%
%LPD*%
G01*
G04 APERTURE LIST*
G04 APERTURE END LIST*
G36*
X108802938Y-82774017D02*
G01*
X108848923Y-82774017D01*
X108900139Y-82783590D01*
X108957040Y-82789195D01*
X109000261Y-82802306D01*
X109039474Y-82809636D01*
X109093785Y-82830676D01*
X109154200Y-82849003D01*
X109188720Y-82867454D01*
X109220232Y-82879662D01*
X109274977Y-82913559D01*
X109335904Y-82946125D01*
X109361506Y-82967136D01*
X109385048Y-82981713D01*
X109437212Y-83029267D01*
X109495169Y-83076831D01*
X109512342Y-83097757D01*
X109528301Y-83112305D01*
X109574629Y-83173653D01*
X109625875Y-83236096D01*
X109635783Y-83254634D01*
X109645122Y-83267000D01*
X109682274Y-83341613D01*
X109722997Y-83417800D01*
X109727340Y-83432117D01*
X109731528Y-83440528D01*
X109756267Y-83527476D01*
X109782805Y-83614960D01*
X109783676Y-83623811D01*
X109784577Y-83626975D01*
X109793938Y-83728002D01*
X109803000Y-83820000D01*
X109793938Y-83912005D01*
X109784577Y-84013024D01*
X109783676Y-84016187D01*
X109782805Y-84025040D01*
X109756262Y-84112538D01*
X109731528Y-84199471D01*
X109727341Y-84207879D01*
X109722997Y-84222200D01*
X109682267Y-84298399D01*
X109645122Y-84372999D01*
X109635785Y-84385362D01*
X109625875Y-84403904D01*
X109574620Y-84466357D01*
X109528301Y-84527694D01*
X109512345Y-84542238D01*
X109495169Y-84563169D01*
X109437201Y-84610741D01*
X109385048Y-84658286D01*
X109361511Y-84672859D01*
X109335904Y-84693875D01*
X109274965Y-84726447D01*
X109220232Y-84760337D01*
X109188726Y-84772542D01*
X109154200Y-84790997D01*
X109093773Y-84809327D01*
X109039474Y-84830363D01*
X109000268Y-84837691D01*
X108957040Y-84850805D01*
X108900136Y-84856409D01*
X108848923Y-84865983D01*
X108802938Y-84865983D01*
X108752000Y-84871000D01*
X108701062Y-84865983D01*
X108655077Y-84865983D01*
X108603863Y-84856409D01*
X108546960Y-84850805D01*
X108503732Y-84837692D01*
X108464525Y-84830363D01*
X108410221Y-84809325D01*
X108349800Y-84790997D01*
X108315275Y-84772543D01*
X108283767Y-84760337D01*
X108229027Y-84726443D01*
X108168096Y-84693875D01*
X108142491Y-84672861D01*
X108118951Y-84658286D01*
X108066788Y-84610733D01*
X108008831Y-84563169D01*
X107991656Y-84542242D01*
X107975698Y-84527694D01*
X107929367Y-84466342D01*
X107878125Y-84403904D01*
X107868216Y-84385366D01*
X107858877Y-84372999D01*
X107821717Y-84298372D01*
X107781003Y-84222200D01*
X107776660Y-84207884D01*
X107772471Y-84199471D01*
X107747721Y-84112485D01*
X107721195Y-84025040D01*
X107720323Y-84016192D01*
X107719422Y-84013024D01*
X107710044Y-83911833D01*
X107701000Y-83820000D01*
X107710044Y-83728173D01*
X107719422Y-83626975D01*
X107720323Y-83623805D01*
X107721195Y-83614960D01*
X107747716Y-83527529D01*
X107772471Y-83440528D01*
X107776661Y-83432112D01*
X107781003Y-83417800D01*
X107821710Y-83341641D01*
X107858877Y-83267000D01*
X107868218Y-83254629D01*
X107878125Y-83236096D01*
X107929357Y-83173668D01*
X107975698Y-83112305D01*
X107991660Y-83097753D01*
X108008831Y-83076831D01*
X108066777Y-83029275D01*
X108118951Y-82981713D01*
X108142496Y-82967134D01*
X108168096Y-82946125D01*
X108229015Y-82913563D01*
X108283767Y-82879662D01*
X108315282Y-82867452D01*
X108349800Y-82849003D01*
X108410209Y-82830677D01*
X108464525Y-82809636D01*
X108503739Y-82802305D01*
X108546960Y-82789195D01*
X108603860Y-82783590D01*
X108655077Y-82774017D01*
X108701062Y-82774017D01*
X108752000Y-82769000D01*
X108802938Y-82774017D01*
G37*
G36*
X113802938Y-82774017D02*
G01*
X113848923Y-82774017D01*
X113900139Y-82783590D01*
X113957040Y-82789195D01*
X114000261Y-82802306D01*
X114039474Y-82809636D01*
X114093785Y-82830676D01*
X114154200Y-82849003D01*
X114188720Y-82867454D01*
X114220232Y-82879662D01*
X114274977Y-82913559D01*
X114335904Y-82946125D01*
X114361506Y-82967136D01*
X114385048Y-82981713D01*
X114437212Y-83029267D01*
X114495169Y-83076831D01*
X114512342Y-83097757D01*
X114528301Y-83112305D01*
X114574629Y-83173653D01*
X114625875Y-83236096D01*
X114635783Y-83254634D01*
X114645122Y-83267000D01*
X114682274Y-83341613D01*
X114722997Y-83417800D01*
X114727340Y-83432117D01*
X114731528Y-83440528D01*
X114756267Y-83527476D01*
X114782805Y-83614960D01*
X114783676Y-83623811D01*
X114784577Y-83626975D01*
X114793938Y-83728002D01*
X114803000Y-83820000D01*
X114793938Y-83912005D01*
X114784577Y-84013024D01*
X114783676Y-84016187D01*
X114782805Y-84025040D01*
X114756262Y-84112538D01*
X114731528Y-84199471D01*
X114727341Y-84207879D01*
X114722997Y-84222200D01*
X114682267Y-84298399D01*
X114645122Y-84372999D01*
X114635785Y-84385362D01*
X114625875Y-84403904D01*
X114574620Y-84466357D01*
X114528301Y-84527694D01*
X114512345Y-84542238D01*
X114495169Y-84563169D01*
X114437201Y-84610741D01*
X114385048Y-84658286D01*
X114361511Y-84672859D01*
X114335904Y-84693875D01*
X114274965Y-84726447D01*
X114220232Y-84760337D01*
X114188726Y-84772542D01*
X114154200Y-84790997D01*
X114093773Y-84809327D01*
X114039474Y-84830363D01*
X114000268Y-84837691D01*
X113957040Y-84850805D01*
X113900136Y-84856409D01*
X113848923Y-84865983D01*
X113802938Y-84865983D01*
X113752000Y-84871000D01*
X113701062Y-84865983D01*
X113655077Y-84865983D01*
X113603863Y-84856409D01*
X113546960Y-84850805D01*
X113503732Y-84837692D01*
X113464525Y-84830363D01*
X113410221Y-84809325D01*
X113349800Y-84790997D01*
X113315275Y-84772543D01*
X113283767Y-84760337D01*
X113229027Y-84726443D01*
X113168096Y-84693875D01*
X113142491Y-84672861D01*
X113118951Y-84658286D01*
X113066788Y-84610733D01*
X113008831Y-84563169D01*
X112991656Y-84542242D01*
X112975698Y-84527694D01*
X112929367Y-84466342D01*
X112878125Y-84403904D01*
X112868216Y-84385366D01*
X112858877Y-84372999D01*
X112821717Y-84298372D01*
X112781003Y-84222200D01*
X112776660Y-84207884D01*
X112772471Y-84199471D01*
X112747721Y-84112485D01*
X112721195Y-84025040D01*
X112720323Y-84016192D01*
X112719422Y-84013024D01*
X112710044Y-83911833D01*
X112701000Y-83820000D01*
X112710044Y-83728173D01*
X112719422Y-83626975D01*
X112720323Y-83623805D01*
X112721195Y-83614960D01*
X112747716Y-83527529D01*
X112772471Y-83440528D01*
X112776661Y-83432112D01*
X112781003Y-83417800D01*
X112821710Y-83341641D01*
X112858877Y-83267000D01*
X112868218Y-83254629D01*
X112878125Y-83236096D01*
X112929357Y-83173668D01*
X112975698Y-83112305D01*
X112991660Y-83097753D01*
X113008831Y-83076831D01*
X113066777Y-83029275D01*
X113118951Y-82981713D01*
X113142496Y-82967134D01*
X113168096Y-82946125D01*
X113229015Y-82913563D01*
X113283767Y-82879662D01*
X113315282Y-82867452D01*
X113349800Y-82849003D01*
X113410209Y-82830677D01*
X113464525Y-82809636D01*
X113503739Y-82802305D01*
X113546960Y-82789195D01*
X113603860Y-82783590D01*
X113655077Y-82774017D01*
X113701062Y-82774017D01*
X113752000Y-82769000D01*
X113802938Y-82774017D01*
G37*
G36*
X130165517Y-82922882D02*
G01*
X130182062Y-82933938D01*
X130193118Y-82950483D01*
X130197000Y-82970000D01*
X130197000Y-84670000D01*
X130193118Y-84689517D01*
X130182062Y-84706062D01*
X130165517Y-84717118D01*
X130146000Y-84721000D01*
X128446000Y-84721000D01*
X128426483Y-84717118D01*
X128409938Y-84706062D01*
X128398882Y-84689517D01*
X128395000Y-84670000D01*
X128395000Y-82970000D01*
X128398882Y-82950483D01*
X128409938Y-82933938D01*
X128426483Y-82922882D01*
X128446000Y-82919000D01*
X130146000Y-82919000D01*
X130165517Y-82922882D01*
G37*
G36*
X131879983Y-82923936D02*
G01*
X131930180Y-82923936D01*
X131973524Y-82933149D01*
X132011659Y-82936905D01*
X132059566Y-82951437D01*
X132114424Y-82963098D01*
X132149530Y-82978728D01*
X132180566Y-82988143D01*
X132229884Y-83014504D01*
X132286500Y-83039711D01*
X132312822Y-83058835D01*
X132336232Y-83071348D01*
X132383988Y-83110540D01*
X132438887Y-83150427D01*
X132456711Y-83170223D01*
X132472675Y-83183324D01*
X132515572Y-83235594D01*
X132564924Y-83290405D01*
X132575292Y-83308363D01*
X132584651Y-83319767D01*
X132619273Y-83384542D01*
X132659104Y-83453530D01*
X132663685Y-83467630D01*
X132667856Y-83475433D01*
X132690852Y-83551242D01*
X132717311Y-83632672D01*
X132718242Y-83641532D01*
X132719094Y-83644340D01*
X132727384Y-83728513D01*
X132737000Y-83820000D01*
X132727383Y-83911494D01*
X132719094Y-83995659D01*
X132718242Y-83998466D01*
X132717311Y-84007328D01*
X132690848Y-84088771D01*
X132667856Y-84164566D01*
X132663686Y-84172366D01*
X132659104Y-84186470D01*
X132619266Y-84255470D01*
X132584651Y-84320232D01*
X132575294Y-84331633D01*
X132564924Y-84349595D01*
X132515563Y-84404415D01*
X132472675Y-84456675D01*
X132456714Y-84469773D01*
X132438887Y-84489573D01*
X132383977Y-84529467D01*
X132336232Y-84568651D01*
X132312827Y-84581161D01*
X132286500Y-84600289D01*
X132229873Y-84625500D01*
X132180566Y-84651856D01*
X132149537Y-84661268D01*
X132114424Y-84676902D01*
X132059555Y-84688564D01*
X132011659Y-84703094D01*
X131973532Y-84706849D01*
X131930180Y-84716064D01*
X131879973Y-84716064D01*
X131836000Y-84720395D01*
X131792027Y-84716064D01*
X131741820Y-84716064D01*
X131698467Y-84706849D01*
X131660340Y-84703094D01*
X131612441Y-84688563D01*
X131557576Y-84676902D01*
X131522464Y-84661269D01*
X131491433Y-84651856D01*
X131442120Y-84625498D01*
X131385500Y-84600289D01*
X131359175Y-84581163D01*
X131335767Y-84568651D01*
X131288013Y-84529460D01*
X131233113Y-84489573D01*
X131215287Y-84469776D01*
X131199324Y-84456675D01*
X131156425Y-84404402D01*
X131107076Y-84349595D01*
X131096708Y-84331637D01*
X131087348Y-84320232D01*
X131052719Y-84255447D01*
X131012896Y-84186470D01*
X131008315Y-84172371D01*
X131004143Y-84164566D01*
X130981136Y-84088725D01*
X130954689Y-84007328D01*
X130953758Y-83998471D01*
X130952905Y-83995659D01*
X130944600Y-83911342D01*
X130935000Y-83820000D01*
X130944599Y-83728664D01*
X130952905Y-83644340D01*
X130953758Y-83641527D01*
X130954689Y-83632672D01*
X130981132Y-83551288D01*
X131004143Y-83475433D01*
X131008315Y-83467626D01*
X131012896Y-83453530D01*
X131052712Y-83384565D01*
X131087348Y-83319767D01*
X131096710Y-83308359D01*
X131107076Y-83290405D01*
X131156416Y-83235607D01*
X131199324Y-83183324D01*
X131215291Y-83170219D01*
X131233113Y-83150427D01*
X131288002Y-83110546D01*
X131335767Y-83071348D01*
X131359180Y-83058833D01*
X131385500Y-83039711D01*
X131442109Y-83014506D01*
X131491433Y-82988143D01*
X131522471Y-82978727D01*
X131557576Y-82963098D01*
X131612430Y-82951438D01*
X131660340Y-82936905D01*
X131698476Y-82933148D01*
X131741820Y-82923936D01*
X131792016Y-82923936D01*
X131836000Y-82919604D01*
X131879983Y-82923936D01*
G37*
G36*
X134419983Y-82923936D02*
G01*
X134470180Y-82923936D01*
X134513524Y-82933149D01*
X134551659Y-82936905D01*
X134599566Y-82951437D01*
X134654424Y-82963098D01*
X134689530Y-82978728D01*
X134720566Y-82988143D01*
X134769884Y-83014504D01*
X134826500Y-83039711D01*
X134852822Y-83058835D01*
X134876232Y-83071348D01*
X134923988Y-83110540D01*
X134978887Y-83150427D01*
X134996711Y-83170223D01*
X135012675Y-83183324D01*
X135055572Y-83235594D01*
X135104924Y-83290405D01*
X135115292Y-83308363D01*
X135124651Y-83319767D01*
X135159273Y-83384542D01*
X135199104Y-83453530D01*
X135203685Y-83467630D01*
X135207856Y-83475433D01*
X135230852Y-83551242D01*
X135257311Y-83632672D01*
X135258242Y-83641532D01*
X135259094Y-83644340D01*
X135267384Y-83728513D01*
X135277000Y-83820000D01*
X135267383Y-83911494D01*
X135259094Y-83995659D01*
X135258242Y-83998466D01*
X135257311Y-84007328D01*
X135230848Y-84088771D01*
X135207856Y-84164566D01*
X135203686Y-84172366D01*
X135199104Y-84186470D01*
X135159266Y-84255470D01*
X135124651Y-84320232D01*
X135115294Y-84331633D01*
X135104924Y-84349595D01*
X135055563Y-84404415D01*
X135012675Y-84456675D01*
X134996714Y-84469773D01*
X134978887Y-84489573D01*
X134923977Y-84529467D01*
X134876232Y-84568651D01*
X134852827Y-84581161D01*
X134826500Y-84600289D01*
X134769873Y-84625500D01*
X134720566Y-84651856D01*
X134689537Y-84661268D01*
X134654424Y-84676902D01*
X134599555Y-84688564D01*
X134551659Y-84703094D01*
X134513532Y-84706849D01*
X134470180Y-84716064D01*
X134419973Y-84716064D01*
X134376000Y-84720395D01*
X134332027Y-84716064D01*
X134281820Y-84716064D01*
X134238467Y-84706849D01*
X134200340Y-84703094D01*
X134152441Y-84688563D01*
X134097576Y-84676902D01*
X134062464Y-84661269D01*
X134031433Y-84651856D01*
X133982120Y-84625498D01*
X133925500Y-84600289D01*
X133899175Y-84581163D01*
X133875767Y-84568651D01*
X133828013Y-84529460D01*
X133773113Y-84489573D01*
X133755287Y-84469776D01*
X133739324Y-84456675D01*
X133696425Y-84404402D01*
X133647076Y-84349595D01*
X133636708Y-84331637D01*
X133627348Y-84320232D01*
X133592719Y-84255447D01*
X133552896Y-84186470D01*
X133548315Y-84172371D01*
X133544143Y-84164566D01*
X133521136Y-84088725D01*
X133494689Y-84007328D01*
X133493758Y-83998471D01*
X133492905Y-83995659D01*
X133484600Y-83911342D01*
X133475000Y-83820000D01*
X133484599Y-83728664D01*
X133492905Y-83644340D01*
X133493758Y-83641527D01*
X133494689Y-83632672D01*
X133521132Y-83551288D01*
X133544143Y-83475433D01*
X133548315Y-83467626D01*
X133552896Y-83453530D01*
X133592712Y-83384565D01*
X133627348Y-83319767D01*
X133636710Y-83308359D01*
X133647076Y-83290405D01*
X133696416Y-83235607D01*
X133739324Y-83183324D01*
X133755291Y-83170219D01*
X133773113Y-83150427D01*
X133828002Y-83110546D01*
X133875767Y-83071348D01*
X133899180Y-83058833D01*
X133925500Y-83039711D01*
X133982109Y-83014506D01*
X134031433Y-82988143D01*
X134062471Y-82978727D01*
X134097576Y-82963098D01*
X134152430Y-82951438D01*
X134200340Y-82936905D01*
X134238476Y-82933148D01*
X134281820Y-82923936D01*
X134332016Y-82923936D01*
X134376000Y-82919604D01*
X134419983Y-82923936D01*
G37*
G36*
X136959983Y-82923936D02*
G01*
X137010180Y-82923936D01*
X137053524Y-82933149D01*
X137091659Y-82936905D01*
X137139566Y-82951437D01*
X137194424Y-82963098D01*
X137229530Y-82978728D01*
X137260566Y-82988143D01*
X137309884Y-83014504D01*
X137366500Y-83039711D01*
X137392822Y-83058835D01*
X137416232Y-83071348D01*
X137463988Y-83110540D01*
X137518887Y-83150427D01*
X137536711Y-83170223D01*
X137552675Y-83183324D01*
X137595572Y-83235594D01*
X137644924Y-83290405D01*
X137655292Y-83308363D01*
X137664651Y-83319767D01*
X137699273Y-83384542D01*
X137739104Y-83453530D01*
X137743685Y-83467630D01*
X137747856Y-83475433D01*
X137770852Y-83551242D01*
X137797311Y-83632672D01*
X137798242Y-83641532D01*
X137799094Y-83644340D01*
X137807384Y-83728513D01*
X137817000Y-83820000D01*
X137807383Y-83911494D01*
X137799094Y-83995659D01*
X137798242Y-83998466D01*
X137797311Y-84007328D01*
X137770848Y-84088771D01*
X137747856Y-84164566D01*
X137743686Y-84172366D01*
X137739104Y-84186470D01*
X137699266Y-84255470D01*
X137664651Y-84320232D01*
X137655294Y-84331633D01*
X137644924Y-84349595D01*
X137595563Y-84404415D01*
X137552675Y-84456675D01*
X137536714Y-84469773D01*
X137518887Y-84489573D01*
X137463977Y-84529467D01*
X137416232Y-84568651D01*
X137392827Y-84581161D01*
X137366500Y-84600289D01*
X137309873Y-84625500D01*
X137260566Y-84651856D01*
X137229537Y-84661268D01*
X137194424Y-84676902D01*
X137139555Y-84688564D01*
X137091659Y-84703094D01*
X137053532Y-84706849D01*
X137010180Y-84716064D01*
X136959973Y-84716064D01*
X136916000Y-84720395D01*
X136872027Y-84716064D01*
X136821820Y-84716064D01*
X136778467Y-84706849D01*
X136740340Y-84703094D01*
X136692441Y-84688563D01*
X136637576Y-84676902D01*
X136602464Y-84661269D01*
X136571433Y-84651856D01*
X136522120Y-84625498D01*
X136465500Y-84600289D01*
X136439175Y-84581163D01*
X136415767Y-84568651D01*
X136368013Y-84529460D01*
X136313113Y-84489573D01*
X136295287Y-84469776D01*
X136279324Y-84456675D01*
X136236425Y-84404402D01*
X136187076Y-84349595D01*
X136176708Y-84331637D01*
X136167348Y-84320232D01*
X136132719Y-84255447D01*
X136092896Y-84186470D01*
X136088315Y-84172371D01*
X136084143Y-84164566D01*
X136061136Y-84088725D01*
X136034689Y-84007328D01*
X136033758Y-83998471D01*
X136032905Y-83995659D01*
X136024600Y-83911342D01*
X136015000Y-83820000D01*
X136024599Y-83728664D01*
X136032905Y-83644340D01*
X136033758Y-83641527D01*
X136034689Y-83632672D01*
X136061132Y-83551288D01*
X136084143Y-83475433D01*
X136088315Y-83467626D01*
X136092896Y-83453530D01*
X136132712Y-83384565D01*
X136167348Y-83319767D01*
X136176710Y-83308359D01*
X136187076Y-83290405D01*
X136236416Y-83235607D01*
X136279324Y-83183324D01*
X136295291Y-83170219D01*
X136313113Y-83150427D01*
X136368002Y-83110546D01*
X136415767Y-83071348D01*
X136439180Y-83058833D01*
X136465500Y-83039711D01*
X136522109Y-83014506D01*
X136571433Y-82988143D01*
X136602471Y-82978727D01*
X136637576Y-82963098D01*
X136692430Y-82951438D01*
X136740340Y-82936905D01*
X136778476Y-82933148D01*
X136821820Y-82923936D01*
X136872016Y-82923936D01*
X136916000Y-82919604D01*
X136959983Y-82923936D01*
G37*
G36*
X95545199Y-82973662D02*
G01*
X95592954Y-82973662D01*
X95634194Y-82982427D01*
X95669901Y-82985945D01*
X95714759Y-82999552D01*
X95766973Y-83010651D01*
X95800384Y-83025526D01*
X95829435Y-83034339D01*
X95875602Y-83059015D01*
X95929500Y-83083012D01*
X95954554Y-83101215D01*
X95976453Y-83112920D01*
X96021128Y-83149584D01*
X96073430Y-83187584D01*
X96090411Y-83206443D01*
X96105320Y-83218679D01*
X96145387Y-83267501D01*
X96192473Y-83319795D01*
X96202364Y-83336927D01*
X96211079Y-83347546D01*
X96243306Y-83407840D01*
X96281427Y-83473867D01*
X96285813Y-83487368D01*
X96289660Y-83494564D01*
X96310861Y-83564455D01*
X96336404Y-83643067D01*
X96337303Y-83651623D01*
X96338054Y-83654098D01*
X96345371Y-83728389D01*
X96355000Y-83820000D01*
X96345370Y-83911619D01*
X96338054Y-83985901D01*
X96337303Y-83988375D01*
X96336404Y-83996933D01*
X96310856Y-84075558D01*
X96289660Y-84145435D01*
X96285814Y-84152629D01*
X96281427Y-84166133D01*
X96243299Y-84232172D01*
X96211079Y-84292453D01*
X96202366Y-84303069D01*
X96192473Y-84320205D01*
X96145378Y-84372509D01*
X96105320Y-84421320D01*
X96090414Y-84433552D01*
X96073430Y-84452416D01*
X96021118Y-84490423D01*
X95976453Y-84527079D01*
X95954559Y-84538780D01*
X95929500Y-84556988D01*
X95875591Y-84580989D01*
X95829435Y-84605660D01*
X95800391Y-84614470D01*
X95766973Y-84629349D01*
X95714748Y-84640449D01*
X95669901Y-84654054D01*
X95634203Y-84657570D01*
X95592954Y-84666338D01*
X95545188Y-84666338D01*
X95504000Y-84670395D01*
X95462811Y-84666338D01*
X95415046Y-84666338D01*
X95373797Y-84657570D01*
X95338098Y-84654054D01*
X95293248Y-84640448D01*
X95241027Y-84629349D01*
X95207610Y-84614471D01*
X95178564Y-84605660D01*
X95132402Y-84580986D01*
X95078500Y-84556988D01*
X95053443Y-84538783D01*
X95031546Y-84527079D01*
X94986873Y-84490416D01*
X94934570Y-84452416D01*
X94917588Y-84433555D01*
X94902679Y-84421320D01*
X94862610Y-84372496D01*
X94815527Y-84320205D01*
X94805636Y-84303073D01*
X94796920Y-84292453D01*
X94764687Y-84232148D01*
X94726573Y-84166133D01*
X94722186Y-84152634D01*
X94718339Y-84145435D01*
X94697128Y-84075512D01*
X94671596Y-83996933D01*
X94670697Y-83988380D01*
X94669945Y-83985901D01*
X94662613Y-83911467D01*
X94653000Y-83820000D01*
X94662612Y-83728540D01*
X94669945Y-83654098D01*
X94670697Y-83651618D01*
X94671596Y-83643067D01*
X94697123Y-83564502D01*
X94718339Y-83494564D01*
X94722187Y-83487363D01*
X94726573Y-83473867D01*
X94764680Y-83407863D01*
X94796920Y-83347546D01*
X94805638Y-83336923D01*
X94815527Y-83319795D01*
X94862601Y-83267513D01*
X94902679Y-83218679D01*
X94917591Y-83206440D01*
X94934570Y-83187584D01*
X94986862Y-83149591D01*
X95031546Y-83112920D01*
X95053448Y-83101213D01*
X95078500Y-83083012D01*
X95132391Y-83059018D01*
X95178564Y-83034339D01*
X95207617Y-83025525D01*
X95241027Y-83010651D01*
X95293237Y-82999553D01*
X95338098Y-82985945D01*
X95373806Y-82982427D01*
X95415046Y-82973662D01*
X95462801Y-82973662D01*
X95504000Y-82969604D01*
X95545199Y-82973662D01*
G37*
G36*
X105705199Y-82973662D02*
G01*
X105752954Y-82973662D01*
X105794194Y-82982427D01*
X105829901Y-82985945D01*
X105874759Y-82999552D01*
X105926973Y-83010651D01*
X105960384Y-83025526D01*
X105989435Y-83034339D01*
X106035602Y-83059015D01*
X106089500Y-83083012D01*
X106114554Y-83101215D01*
X106136453Y-83112920D01*
X106181128Y-83149584D01*
X106233430Y-83187584D01*
X106250411Y-83206443D01*
X106265320Y-83218679D01*
X106305387Y-83267501D01*
X106352473Y-83319795D01*
X106362364Y-83336927D01*
X106371079Y-83347546D01*
X106403306Y-83407840D01*
X106441427Y-83473867D01*
X106445813Y-83487368D01*
X106449660Y-83494564D01*
X106470861Y-83564455D01*
X106496404Y-83643067D01*
X106497303Y-83651623D01*
X106498054Y-83654098D01*
X106505371Y-83728389D01*
X106515000Y-83820000D01*
X106505370Y-83911619D01*
X106498054Y-83985901D01*
X106497303Y-83988375D01*
X106496404Y-83996933D01*
X106470856Y-84075558D01*
X106449660Y-84145435D01*
X106445814Y-84152629D01*
X106441427Y-84166133D01*
X106403299Y-84232172D01*
X106371079Y-84292453D01*
X106362366Y-84303069D01*
X106352473Y-84320205D01*
X106305378Y-84372509D01*
X106265320Y-84421320D01*
X106250414Y-84433552D01*
X106233430Y-84452416D01*
X106181118Y-84490423D01*
X106136453Y-84527079D01*
X106114559Y-84538780D01*
X106089500Y-84556988D01*
X106035591Y-84580989D01*
X105989435Y-84605660D01*
X105960391Y-84614470D01*
X105926973Y-84629349D01*
X105874748Y-84640449D01*
X105829901Y-84654054D01*
X105794203Y-84657570D01*
X105752954Y-84666338D01*
X105705188Y-84666338D01*
X105664000Y-84670395D01*
X105622811Y-84666338D01*
X105575046Y-84666338D01*
X105533797Y-84657570D01*
X105498098Y-84654054D01*
X105453248Y-84640448D01*
X105401027Y-84629349D01*
X105367610Y-84614471D01*
X105338564Y-84605660D01*
X105292402Y-84580986D01*
X105238500Y-84556988D01*
X105213443Y-84538783D01*
X105191546Y-84527079D01*
X105146873Y-84490416D01*
X105094570Y-84452416D01*
X105077588Y-84433555D01*
X105062679Y-84421320D01*
X105022610Y-84372496D01*
X104975527Y-84320205D01*
X104965636Y-84303073D01*
X104956920Y-84292453D01*
X104924687Y-84232148D01*
X104886573Y-84166133D01*
X104882186Y-84152634D01*
X104878339Y-84145435D01*
X104857128Y-84075512D01*
X104831596Y-83996933D01*
X104830697Y-83988380D01*
X104829945Y-83985901D01*
X104822613Y-83911467D01*
X104813000Y-83820000D01*
X104822612Y-83728540D01*
X104829945Y-83654098D01*
X104830697Y-83651618D01*
X104831596Y-83643067D01*
X104857123Y-83564502D01*
X104878339Y-83494564D01*
X104882187Y-83487363D01*
X104886573Y-83473867D01*
X104924680Y-83407863D01*
X104956920Y-83347546D01*
X104965638Y-83336923D01*
X104975527Y-83319795D01*
X105022601Y-83267513D01*
X105062679Y-83218679D01*
X105077591Y-83206440D01*
X105094570Y-83187584D01*
X105146862Y-83149591D01*
X105191546Y-83112920D01*
X105213448Y-83101213D01*
X105238500Y-83083012D01*
X105292391Y-83059018D01*
X105338564Y-83034339D01*
X105367617Y-83025525D01*
X105401027Y-83010651D01*
X105453237Y-82999553D01*
X105498098Y-82985945D01*
X105533806Y-82982427D01*
X105575046Y-82973662D01*
X105622801Y-82973662D01*
X105664000Y-82969604D01*
X105705199Y-82973662D01*
G37*
G36*
X117470405Y-79924882D02*
G01*
X117486950Y-79935938D01*
X117498006Y-79952483D01*
X117501888Y-79972000D01*
X117501888Y-81572000D01*
X117498006Y-81591517D01*
X117486950Y-81608062D01*
X117470405Y-81619118D01*
X117450888Y-81623000D01*
X115850888Y-81623000D01*
X115831371Y-81619118D01*
X115814826Y-81608062D01*
X115803770Y-81591517D01*
X115799888Y-81572000D01*
X115799888Y-79972000D01*
X115803770Y-79952483D01*
X115814826Y-79935938D01*
X115831371Y-79924882D01*
X115850888Y-79921000D01*
X117450888Y-79921000D01*
X117470405Y-79924882D01*
G37*
G36*
X123566405Y-79924882D02*
G01*
X123582950Y-79935938D01*
X123594006Y-79952483D01*
X123597888Y-79972000D01*
X123597888Y-81572000D01*
X123594006Y-81591517D01*
X123582950Y-81608062D01*
X123566405Y-81619118D01*
X123546888Y-81623000D01*
X121946888Y-81623000D01*
X121927371Y-81619118D01*
X121910826Y-81608062D01*
X121899770Y-81591517D01*
X121895888Y-81572000D01*
X121895888Y-79972000D01*
X121899770Y-79952483D01*
X121910826Y-79935938D01*
X121927371Y-79924882D01*
X121946888Y-79921000D01*
X123546888Y-79921000D01*
X123566405Y-79924882D01*
G37*
G36*
X95545199Y-79925662D02*
G01*
X95592954Y-79925662D01*
X95634194Y-79934427D01*
X95669901Y-79937945D01*
X95714759Y-79951552D01*
X95766973Y-79962651D01*
X95800384Y-79977526D01*
X95829435Y-79986339D01*
X95875602Y-80011015D01*
X95929500Y-80035012D01*
X95954554Y-80053215D01*
X95976453Y-80064920D01*
X96021128Y-80101584D01*
X96073430Y-80139584D01*
X96090411Y-80158443D01*
X96105320Y-80170679D01*
X96145387Y-80219501D01*
X96192473Y-80271795D01*
X96202364Y-80288927D01*
X96211079Y-80299546D01*
X96243306Y-80359840D01*
X96281427Y-80425867D01*
X96285813Y-80439368D01*
X96289660Y-80446564D01*
X96310861Y-80516455D01*
X96336404Y-80595067D01*
X96337303Y-80603623D01*
X96338054Y-80606098D01*
X96345371Y-80680389D01*
X96355000Y-80772000D01*
X96345370Y-80863619D01*
X96338054Y-80937901D01*
X96337303Y-80940375D01*
X96336404Y-80948933D01*
X96310856Y-81027558D01*
X96289660Y-81097435D01*
X96285814Y-81104629D01*
X96281427Y-81118133D01*
X96243299Y-81184172D01*
X96211079Y-81244453D01*
X96202366Y-81255069D01*
X96192473Y-81272205D01*
X96145378Y-81324509D01*
X96105320Y-81373320D01*
X96090414Y-81385552D01*
X96073430Y-81404416D01*
X96021118Y-81442423D01*
X95976453Y-81479079D01*
X95954559Y-81490780D01*
X95929500Y-81508988D01*
X95875591Y-81532989D01*
X95829435Y-81557660D01*
X95800391Y-81566470D01*
X95766973Y-81581349D01*
X95714748Y-81592449D01*
X95669901Y-81606054D01*
X95634203Y-81609570D01*
X95592954Y-81618338D01*
X95545188Y-81618338D01*
X95504000Y-81622395D01*
X95462811Y-81618338D01*
X95415046Y-81618338D01*
X95373797Y-81609570D01*
X95338098Y-81606054D01*
X95293248Y-81592448D01*
X95241027Y-81581349D01*
X95207610Y-81566471D01*
X95178564Y-81557660D01*
X95132402Y-81532986D01*
X95078500Y-81508988D01*
X95053443Y-81490783D01*
X95031546Y-81479079D01*
X94986873Y-81442416D01*
X94934570Y-81404416D01*
X94917588Y-81385555D01*
X94902679Y-81373320D01*
X94862610Y-81324496D01*
X94815527Y-81272205D01*
X94805636Y-81255073D01*
X94796920Y-81244453D01*
X94764687Y-81184148D01*
X94726573Y-81118133D01*
X94722186Y-81104634D01*
X94718339Y-81097435D01*
X94697128Y-81027512D01*
X94671596Y-80948933D01*
X94670697Y-80940380D01*
X94669945Y-80937901D01*
X94662613Y-80863467D01*
X94653000Y-80772000D01*
X94662612Y-80680540D01*
X94669945Y-80606098D01*
X94670697Y-80603618D01*
X94671596Y-80595067D01*
X94697123Y-80516502D01*
X94718339Y-80446564D01*
X94722187Y-80439363D01*
X94726573Y-80425867D01*
X94764680Y-80359863D01*
X94796920Y-80299546D01*
X94805638Y-80288923D01*
X94815527Y-80271795D01*
X94862601Y-80219513D01*
X94902679Y-80170679D01*
X94917591Y-80158440D01*
X94934570Y-80139584D01*
X94986862Y-80101591D01*
X95031546Y-80064920D01*
X95053448Y-80053213D01*
X95078500Y-80035012D01*
X95132391Y-80011018D01*
X95178564Y-79986339D01*
X95207617Y-79977525D01*
X95241027Y-79962651D01*
X95293237Y-79951553D01*
X95338098Y-79937945D01*
X95373806Y-79934427D01*
X95415046Y-79925662D01*
X95462801Y-79925662D01*
X95504000Y-79921604D01*
X95545199Y-79925662D01*
G37*
G36*
X105705199Y-79925662D02*
G01*
X105752954Y-79925662D01*
X105794194Y-79934427D01*
X105829901Y-79937945D01*
X105874759Y-79951552D01*
X105926973Y-79962651D01*
X105960384Y-79977526D01*
X105989435Y-79986339D01*
X106035602Y-80011015D01*
X106089500Y-80035012D01*
X106114554Y-80053215D01*
X106136453Y-80064920D01*
X106181128Y-80101584D01*
X106233430Y-80139584D01*
X106250411Y-80158443D01*
X106265320Y-80170679D01*
X106305387Y-80219501D01*
X106352473Y-80271795D01*
X106362364Y-80288927D01*
X106371079Y-80299546D01*
X106403306Y-80359840D01*
X106441427Y-80425867D01*
X106445813Y-80439368D01*
X106449660Y-80446564D01*
X106470861Y-80516455D01*
X106496404Y-80595067D01*
X106497303Y-80603623D01*
X106498054Y-80606098D01*
X106505371Y-80680389D01*
X106515000Y-80772000D01*
X106505370Y-80863619D01*
X106498054Y-80937901D01*
X106497303Y-80940375D01*
X106496404Y-80948933D01*
X106470856Y-81027558D01*
X106449660Y-81097435D01*
X106445814Y-81104629D01*
X106441427Y-81118133D01*
X106403299Y-81184172D01*
X106371079Y-81244453D01*
X106362366Y-81255069D01*
X106352473Y-81272205D01*
X106305378Y-81324509D01*
X106265320Y-81373320D01*
X106250414Y-81385552D01*
X106233430Y-81404416D01*
X106181118Y-81442423D01*
X106136453Y-81479079D01*
X106114559Y-81490780D01*
X106089500Y-81508988D01*
X106035591Y-81532989D01*
X105989435Y-81557660D01*
X105960391Y-81566470D01*
X105926973Y-81581349D01*
X105874748Y-81592449D01*
X105829901Y-81606054D01*
X105794203Y-81609570D01*
X105752954Y-81618338D01*
X105705188Y-81618338D01*
X105664000Y-81622395D01*
X105622811Y-81618338D01*
X105575046Y-81618338D01*
X105533797Y-81609570D01*
X105498098Y-81606054D01*
X105453248Y-81592448D01*
X105401027Y-81581349D01*
X105367610Y-81566471D01*
X105338564Y-81557660D01*
X105292402Y-81532986D01*
X105238500Y-81508988D01*
X105213443Y-81490783D01*
X105191546Y-81479079D01*
X105146873Y-81442416D01*
X105094570Y-81404416D01*
X105077588Y-81385555D01*
X105062679Y-81373320D01*
X105022610Y-81324496D01*
X104975527Y-81272205D01*
X104965636Y-81255073D01*
X104956920Y-81244453D01*
X104924687Y-81184148D01*
X104886573Y-81118133D01*
X104882186Y-81104634D01*
X104878339Y-81097435D01*
X104857128Y-81027512D01*
X104831596Y-80948933D01*
X104830697Y-80940380D01*
X104829945Y-80937901D01*
X104822613Y-80863467D01*
X104813000Y-80772000D01*
X104822612Y-80680540D01*
X104829945Y-80606098D01*
X104830697Y-80603618D01*
X104831596Y-80595067D01*
X104857123Y-80516502D01*
X104878339Y-80446564D01*
X104882187Y-80439363D01*
X104886573Y-80425867D01*
X104924680Y-80359863D01*
X104956920Y-80299546D01*
X104965638Y-80288923D01*
X104975527Y-80271795D01*
X105022601Y-80219513D01*
X105062679Y-80170679D01*
X105077591Y-80158440D01*
X105094570Y-80139584D01*
X105146862Y-80101591D01*
X105191546Y-80064920D01*
X105213448Y-80053213D01*
X105238500Y-80035012D01*
X105292391Y-80011018D01*
X105338564Y-79986339D01*
X105367617Y-79977525D01*
X105401027Y-79962651D01*
X105453237Y-79951553D01*
X105498098Y-79937945D01*
X105533806Y-79934427D01*
X105575046Y-79925662D01*
X105622801Y-79925662D01*
X105664000Y-79921604D01*
X105705199Y-79925662D01*
G37*
G36*
X119192087Y-79925662D02*
G01*
X119239842Y-79925662D01*
X119281082Y-79934427D01*
X119316789Y-79937945D01*
X119361647Y-79951552D01*
X119413861Y-79962651D01*
X119447272Y-79977526D01*
X119476323Y-79986339D01*
X119522490Y-80011015D01*
X119576388Y-80035012D01*
X119601442Y-80053215D01*
X119623341Y-80064920D01*
X119668016Y-80101584D01*
X119720318Y-80139584D01*
X119737299Y-80158443D01*
X119752208Y-80170679D01*
X119792275Y-80219501D01*
X119839361Y-80271795D01*
X119849252Y-80288927D01*
X119857967Y-80299546D01*
X119890194Y-80359840D01*
X119928315Y-80425867D01*
X119932701Y-80439368D01*
X119936548Y-80446564D01*
X119957749Y-80516455D01*
X119983292Y-80595067D01*
X119984191Y-80603623D01*
X119984942Y-80606098D01*
X119992259Y-80680389D01*
X120001888Y-80772000D01*
X119992258Y-80863619D01*
X119984942Y-80937901D01*
X119984191Y-80940375D01*
X119983292Y-80948933D01*
X119957744Y-81027558D01*
X119936548Y-81097435D01*
X119932702Y-81104629D01*
X119928315Y-81118133D01*
X119890187Y-81184172D01*
X119857967Y-81244453D01*
X119849254Y-81255069D01*
X119839361Y-81272205D01*
X119792266Y-81324509D01*
X119752208Y-81373320D01*
X119737302Y-81385552D01*
X119720318Y-81404416D01*
X119668006Y-81442423D01*
X119623341Y-81479079D01*
X119601447Y-81490780D01*
X119576388Y-81508988D01*
X119522479Y-81532989D01*
X119476323Y-81557660D01*
X119447279Y-81566470D01*
X119413861Y-81581349D01*
X119361636Y-81592449D01*
X119316789Y-81606054D01*
X119281091Y-81609570D01*
X119239842Y-81618338D01*
X119192076Y-81618338D01*
X119150888Y-81622395D01*
X119109699Y-81618338D01*
X119061934Y-81618338D01*
X119020685Y-81609570D01*
X118984986Y-81606054D01*
X118940136Y-81592448D01*
X118887915Y-81581349D01*
X118854498Y-81566471D01*
X118825452Y-81557660D01*
X118779290Y-81532986D01*
X118725388Y-81508988D01*
X118700331Y-81490783D01*
X118678434Y-81479079D01*
X118633761Y-81442416D01*
X118581458Y-81404416D01*
X118564476Y-81385555D01*
X118549567Y-81373320D01*
X118509498Y-81324496D01*
X118462415Y-81272205D01*
X118452524Y-81255073D01*
X118443808Y-81244453D01*
X118411575Y-81184148D01*
X118373461Y-81118133D01*
X118369074Y-81104634D01*
X118365227Y-81097435D01*
X118344016Y-81027512D01*
X118318484Y-80948933D01*
X118317585Y-80940380D01*
X118316833Y-80937901D01*
X118309501Y-80863467D01*
X118299888Y-80772000D01*
X118309500Y-80680540D01*
X118316833Y-80606098D01*
X118317585Y-80603618D01*
X118318484Y-80595067D01*
X118344011Y-80516502D01*
X118365227Y-80446564D01*
X118369075Y-80439363D01*
X118373461Y-80425867D01*
X118411568Y-80359863D01*
X118443808Y-80299546D01*
X118452526Y-80288923D01*
X118462415Y-80271795D01*
X118509489Y-80219513D01*
X118549567Y-80170679D01*
X118564479Y-80158440D01*
X118581458Y-80139584D01*
X118633750Y-80101591D01*
X118678434Y-80064920D01*
X118700336Y-80053213D01*
X118725388Y-80035012D01*
X118779279Y-80011018D01*
X118825452Y-79986339D01*
X118854505Y-79977525D01*
X118887915Y-79962651D01*
X118940125Y-79951553D01*
X118984986Y-79937945D01*
X119020694Y-79934427D01*
X119061934Y-79925662D01*
X119109689Y-79925662D01*
X119150888Y-79921604D01*
X119192087Y-79925662D01*
G37*
G36*
X125288087Y-79925662D02*
G01*
X125335842Y-79925662D01*
X125377082Y-79934427D01*
X125412789Y-79937945D01*
X125457647Y-79951552D01*
X125509861Y-79962651D01*
X125543272Y-79977526D01*
X125572323Y-79986339D01*
X125618490Y-80011015D01*
X125672388Y-80035012D01*
X125697442Y-80053215D01*
X125719341Y-80064920D01*
X125764016Y-80101584D01*
X125816318Y-80139584D01*
X125833299Y-80158443D01*
X125848208Y-80170679D01*
X125888275Y-80219501D01*
X125935361Y-80271795D01*
X125945252Y-80288927D01*
X125953967Y-80299546D01*
X125986194Y-80359840D01*
X126024315Y-80425867D01*
X126028701Y-80439368D01*
X126032548Y-80446564D01*
X126053749Y-80516455D01*
X126079292Y-80595067D01*
X126080191Y-80603623D01*
X126080942Y-80606098D01*
X126088259Y-80680389D01*
X126097888Y-80772000D01*
X126088258Y-80863619D01*
X126080942Y-80937901D01*
X126080191Y-80940375D01*
X126079292Y-80948933D01*
X126053744Y-81027558D01*
X126032548Y-81097435D01*
X126028702Y-81104629D01*
X126024315Y-81118133D01*
X125986187Y-81184172D01*
X125953967Y-81244453D01*
X125945254Y-81255069D01*
X125935361Y-81272205D01*
X125888266Y-81324509D01*
X125848208Y-81373320D01*
X125833302Y-81385552D01*
X125816318Y-81404416D01*
X125764006Y-81442423D01*
X125719341Y-81479079D01*
X125697447Y-81490780D01*
X125672388Y-81508988D01*
X125618479Y-81532989D01*
X125572323Y-81557660D01*
X125543279Y-81566470D01*
X125509861Y-81581349D01*
X125457636Y-81592449D01*
X125412789Y-81606054D01*
X125377091Y-81609570D01*
X125335842Y-81618338D01*
X125288076Y-81618338D01*
X125246888Y-81622395D01*
X125205699Y-81618338D01*
X125157934Y-81618338D01*
X125116685Y-81609570D01*
X125080986Y-81606054D01*
X125036136Y-81592448D01*
X124983915Y-81581349D01*
X124950498Y-81566471D01*
X124921452Y-81557660D01*
X124875290Y-81532986D01*
X124821388Y-81508988D01*
X124796331Y-81490783D01*
X124774434Y-81479079D01*
X124729761Y-81442416D01*
X124677458Y-81404416D01*
X124660476Y-81385555D01*
X124645567Y-81373320D01*
X124605498Y-81324496D01*
X124558415Y-81272205D01*
X124548524Y-81255073D01*
X124539808Y-81244453D01*
X124507575Y-81184148D01*
X124469461Y-81118133D01*
X124465074Y-81104634D01*
X124461227Y-81097435D01*
X124440016Y-81027512D01*
X124414484Y-80948933D01*
X124413585Y-80940380D01*
X124412833Y-80937901D01*
X124405501Y-80863467D01*
X124395888Y-80772000D01*
X124405500Y-80680540D01*
X124412833Y-80606098D01*
X124413585Y-80603618D01*
X124414484Y-80595067D01*
X124440011Y-80516502D01*
X124461227Y-80446564D01*
X124465075Y-80439363D01*
X124469461Y-80425867D01*
X124507568Y-80359863D01*
X124539808Y-80299546D01*
X124548526Y-80288923D01*
X124558415Y-80271795D01*
X124605489Y-80219513D01*
X124645567Y-80170679D01*
X124660479Y-80158440D01*
X124677458Y-80139584D01*
X124729750Y-80101591D01*
X124774434Y-80064920D01*
X124796336Y-80053213D01*
X124821388Y-80035012D01*
X124875279Y-80011018D01*
X124921452Y-79986339D01*
X124950505Y-79977525D01*
X124983915Y-79962651D01*
X125036125Y-79951553D01*
X125080986Y-79937945D01*
X125116694Y-79934427D01*
X125157934Y-79925662D01*
X125205689Y-79925662D01*
X125246888Y-79921604D01*
X125288087Y-79925662D01*
G37*
G36*
X131105199Y-77893662D02*
G01*
X131152954Y-77893662D01*
X131194194Y-77902427D01*
X131229901Y-77905945D01*
X131274759Y-77919552D01*
X131326973Y-77930651D01*
X131360384Y-77945526D01*
X131389435Y-77954339D01*
X131435602Y-77979015D01*
X131489500Y-78003012D01*
X131514554Y-78021215D01*
X131536453Y-78032920D01*
X131581128Y-78069584D01*
X131633430Y-78107584D01*
X131650411Y-78126443D01*
X131665320Y-78138679D01*
X131705387Y-78187501D01*
X131752473Y-78239795D01*
X131762364Y-78256927D01*
X131771079Y-78267546D01*
X131803306Y-78327840D01*
X131841427Y-78393867D01*
X131845813Y-78407368D01*
X131849660Y-78414564D01*
X131870861Y-78484455D01*
X131896404Y-78563067D01*
X131897303Y-78571623D01*
X131898054Y-78574098D01*
X131905371Y-78648389D01*
X131915000Y-78740000D01*
X131905370Y-78831619D01*
X131898054Y-78905901D01*
X131897303Y-78908375D01*
X131896404Y-78916933D01*
X131870856Y-78995558D01*
X131849660Y-79065435D01*
X131845814Y-79072629D01*
X131841427Y-79086133D01*
X131803299Y-79152172D01*
X131771079Y-79212453D01*
X131762366Y-79223069D01*
X131752473Y-79240205D01*
X131705378Y-79292509D01*
X131665320Y-79341320D01*
X131650414Y-79353552D01*
X131633430Y-79372416D01*
X131581118Y-79410423D01*
X131536453Y-79447079D01*
X131514559Y-79458780D01*
X131489500Y-79476988D01*
X131435591Y-79500989D01*
X131389435Y-79525660D01*
X131360391Y-79534470D01*
X131326973Y-79549349D01*
X131274748Y-79560449D01*
X131229901Y-79574054D01*
X131194203Y-79577570D01*
X131152954Y-79586338D01*
X131105188Y-79586338D01*
X131064000Y-79590395D01*
X131022811Y-79586338D01*
X130975046Y-79586338D01*
X130933797Y-79577570D01*
X130898098Y-79574054D01*
X130853248Y-79560448D01*
X130801027Y-79549349D01*
X130767610Y-79534471D01*
X130738564Y-79525660D01*
X130692402Y-79500986D01*
X130638500Y-79476988D01*
X130613443Y-79458783D01*
X130591546Y-79447079D01*
X130546873Y-79410416D01*
X130494570Y-79372416D01*
X130477588Y-79353555D01*
X130462679Y-79341320D01*
X130422610Y-79292496D01*
X130375527Y-79240205D01*
X130365636Y-79223073D01*
X130356920Y-79212453D01*
X130324687Y-79152148D01*
X130286573Y-79086133D01*
X130282186Y-79072634D01*
X130278339Y-79065435D01*
X130257128Y-78995512D01*
X130231596Y-78916933D01*
X130230697Y-78908380D01*
X130229945Y-78905901D01*
X130222613Y-78831467D01*
X130213000Y-78740000D01*
X130222612Y-78648540D01*
X130229945Y-78574098D01*
X130230697Y-78571618D01*
X130231596Y-78563067D01*
X130257123Y-78484502D01*
X130278339Y-78414564D01*
X130282187Y-78407363D01*
X130286573Y-78393867D01*
X130324680Y-78327863D01*
X130356920Y-78267546D01*
X130365638Y-78256923D01*
X130375527Y-78239795D01*
X130422601Y-78187513D01*
X130462679Y-78138679D01*
X130477591Y-78126440D01*
X130494570Y-78107584D01*
X130546862Y-78069591D01*
X130591546Y-78032920D01*
X130613448Y-78021213D01*
X130638500Y-78003012D01*
X130692391Y-77979018D01*
X130738564Y-77954339D01*
X130767617Y-77945525D01*
X130801027Y-77930651D01*
X130853237Y-77919553D01*
X130898098Y-77905945D01*
X130933806Y-77902427D01*
X130975046Y-77893662D01*
X131022801Y-77893662D01*
X131064000Y-77889604D01*
X131105199Y-77893662D01*
G37*
G36*
X141265199Y-77893662D02*
G01*
X141312954Y-77893662D01*
X141354194Y-77902427D01*
X141389901Y-77905945D01*
X141434759Y-77919552D01*
X141486973Y-77930651D01*
X141520384Y-77945526D01*
X141549435Y-77954339D01*
X141595602Y-77979015D01*
X141649500Y-78003012D01*
X141674554Y-78021215D01*
X141696453Y-78032920D01*
X141741128Y-78069584D01*
X141793430Y-78107584D01*
X141810411Y-78126443D01*
X141825320Y-78138679D01*
X141865387Y-78187501D01*
X141912473Y-78239795D01*
X141922364Y-78256927D01*
X141931079Y-78267546D01*
X141963306Y-78327840D01*
X142001427Y-78393867D01*
X142005813Y-78407368D01*
X142009660Y-78414564D01*
X142030861Y-78484455D01*
X142056404Y-78563067D01*
X142057303Y-78571623D01*
X142058054Y-78574098D01*
X142065371Y-78648389D01*
X142075000Y-78740000D01*
X142065370Y-78831619D01*
X142058054Y-78905901D01*
X142057303Y-78908375D01*
X142056404Y-78916933D01*
X142030856Y-78995558D01*
X142009660Y-79065435D01*
X142005814Y-79072629D01*
X142001427Y-79086133D01*
X141963299Y-79152172D01*
X141931079Y-79212453D01*
X141922366Y-79223069D01*
X141912473Y-79240205D01*
X141865378Y-79292509D01*
X141825320Y-79341320D01*
X141810414Y-79353552D01*
X141793430Y-79372416D01*
X141741118Y-79410423D01*
X141696453Y-79447079D01*
X141674559Y-79458780D01*
X141649500Y-79476988D01*
X141595591Y-79500989D01*
X141549435Y-79525660D01*
X141520391Y-79534470D01*
X141486973Y-79549349D01*
X141434748Y-79560449D01*
X141389901Y-79574054D01*
X141354203Y-79577570D01*
X141312954Y-79586338D01*
X141265188Y-79586338D01*
X141224000Y-79590395D01*
X141182811Y-79586338D01*
X141135046Y-79586338D01*
X141093797Y-79577570D01*
X141058098Y-79574054D01*
X141013248Y-79560448D01*
X140961027Y-79549349D01*
X140927610Y-79534471D01*
X140898564Y-79525660D01*
X140852402Y-79500986D01*
X140798500Y-79476988D01*
X140773443Y-79458783D01*
X140751546Y-79447079D01*
X140706873Y-79410416D01*
X140654570Y-79372416D01*
X140637588Y-79353555D01*
X140622679Y-79341320D01*
X140582610Y-79292496D01*
X140535527Y-79240205D01*
X140525636Y-79223073D01*
X140516920Y-79212453D01*
X140484687Y-79152148D01*
X140446573Y-79086133D01*
X140442186Y-79072634D01*
X140438339Y-79065435D01*
X140417128Y-78995512D01*
X140391596Y-78916933D01*
X140390697Y-78908380D01*
X140389945Y-78905901D01*
X140382613Y-78831467D01*
X140373000Y-78740000D01*
X140382612Y-78648540D01*
X140389945Y-78574098D01*
X140390697Y-78571618D01*
X140391596Y-78563067D01*
X140417123Y-78484502D01*
X140438339Y-78414564D01*
X140442187Y-78407363D01*
X140446573Y-78393867D01*
X140484680Y-78327863D01*
X140516920Y-78267546D01*
X140525638Y-78256923D01*
X140535527Y-78239795D01*
X140582601Y-78187513D01*
X140622679Y-78138679D01*
X140637591Y-78126440D01*
X140654570Y-78107584D01*
X140706862Y-78069591D01*
X140751546Y-78032920D01*
X140773448Y-78021213D01*
X140798500Y-78003012D01*
X140852391Y-77979018D01*
X140898564Y-77954339D01*
X140927617Y-77945525D01*
X140961027Y-77930651D01*
X141013237Y-77919553D01*
X141058098Y-77905945D01*
X141093806Y-77902427D01*
X141135046Y-77893662D01*
X141182801Y-77893662D01*
X141224000Y-77889604D01*
X141265199Y-77893662D01*
G37*
G36*
X95545199Y-76877662D02*
G01*
X95592954Y-76877662D01*
X95634194Y-76886427D01*
X95669901Y-76889945D01*
X95714759Y-76903552D01*
X95766973Y-76914651D01*
X95800384Y-76929526D01*
X95829435Y-76938339D01*
X95875602Y-76963015D01*
X95929500Y-76987012D01*
X95954554Y-77005215D01*
X95976453Y-77016920D01*
X96021128Y-77053584D01*
X96073430Y-77091584D01*
X96090411Y-77110443D01*
X96105320Y-77122679D01*
X96145387Y-77171501D01*
X96192473Y-77223795D01*
X96202364Y-77240927D01*
X96211079Y-77251546D01*
X96243306Y-77311840D01*
X96281427Y-77377867D01*
X96285813Y-77391368D01*
X96289660Y-77398564D01*
X96310861Y-77468455D01*
X96336404Y-77547067D01*
X96337303Y-77555623D01*
X96338054Y-77558098D01*
X96345371Y-77632389D01*
X96355000Y-77724000D01*
X96345370Y-77815619D01*
X96338054Y-77889901D01*
X96337303Y-77892375D01*
X96336404Y-77900933D01*
X96310856Y-77979558D01*
X96289660Y-78049435D01*
X96285814Y-78056629D01*
X96281427Y-78070133D01*
X96243299Y-78136172D01*
X96211079Y-78196453D01*
X96202366Y-78207069D01*
X96192473Y-78224205D01*
X96145378Y-78276509D01*
X96105320Y-78325320D01*
X96090414Y-78337552D01*
X96073430Y-78356416D01*
X96021118Y-78394423D01*
X95976453Y-78431079D01*
X95954559Y-78442780D01*
X95929500Y-78460988D01*
X95875591Y-78484989D01*
X95829435Y-78509660D01*
X95800391Y-78518470D01*
X95766973Y-78533349D01*
X95714748Y-78544449D01*
X95669901Y-78558054D01*
X95634203Y-78561570D01*
X95592954Y-78570338D01*
X95545188Y-78570338D01*
X95504000Y-78574395D01*
X95462811Y-78570338D01*
X95415046Y-78570338D01*
X95373797Y-78561570D01*
X95338098Y-78558054D01*
X95293248Y-78544448D01*
X95241027Y-78533349D01*
X95207610Y-78518471D01*
X95178564Y-78509660D01*
X95132402Y-78484986D01*
X95078500Y-78460988D01*
X95053443Y-78442783D01*
X95031546Y-78431079D01*
X94986873Y-78394416D01*
X94934570Y-78356416D01*
X94917588Y-78337555D01*
X94902679Y-78325320D01*
X94862610Y-78276496D01*
X94815527Y-78224205D01*
X94805636Y-78207073D01*
X94796920Y-78196453D01*
X94764687Y-78136148D01*
X94726573Y-78070133D01*
X94722186Y-78056634D01*
X94718339Y-78049435D01*
X94697128Y-77979512D01*
X94671596Y-77900933D01*
X94670697Y-77892380D01*
X94669945Y-77889901D01*
X94662613Y-77815467D01*
X94653000Y-77724000D01*
X94662612Y-77632540D01*
X94669945Y-77558098D01*
X94670697Y-77555618D01*
X94671596Y-77547067D01*
X94697123Y-77468502D01*
X94718339Y-77398564D01*
X94722187Y-77391363D01*
X94726573Y-77377867D01*
X94764680Y-77311863D01*
X94796920Y-77251546D01*
X94805638Y-77240923D01*
X94815527Y-77223795D01*
X94862601Y-77171513D01*
X94902679Y-77122679D01*
X94917591Y-77110440D01*
X94934570Y-77091584D01*
X94986862Y-77053591D01*
X95031546Y-77016920D01*
X95053448Y-77005213D01*
X95078500Y-76987012D01*
X95132391Y-76963018D01*
X95178564Y-76938339D01*
X95207617Y-76929525D01*
X95241027Y-76914651D01*
X95293237Y-76903553D01*
X95338098Y-76889945D01*
X95373806Y-76886427D01*
X95415046Y-76877662D01*
X95462801Y-76877662D01*
X95504000Y-76873604D01*
X95545199Y-76877662D01*
G37*
G36*
X105705199Y-76877662D02*
G01*
X105752954Y-76877662D01*
X105794194Y-76886427D01*
X105829901Y-76889945D01*
X105874759Y-76903552D01*
X105926973Y-76914651D01*
X105960384Y-76929526D01*
X105989435Y-76938339D01*
X106035602Y-76963015D01*
X106089500Y-76987012D01*
X106114554Y-77005215D01*
X106136453Y-77016920D01*
X106181128Y-77053584D01*
X106233430Y-77091584D01*
X106250411Y-77110443D01*
X106265320Y-77122679D01*
X106305387Y-77171501D01*
X106352473Y-77223795D01*
X106362364Y-77240927D01*
X106371079Y-77251546D01*
X106403306Y-77311840D01*
X106441427Y-77377867D01*
X106445813Y-77391368D01*
X106449660Y-77398564D01*
X106470861Y-77468455D01*
X106496404Y-77547067D01*
X106497303Y-77555623D01*
X106498054Y-77558098D01*
X106505371Y-77632389D01*
X106515000Y-77724000D01*
X106505370Y-77815619D01*
X106498054Y-77889901D01*
X106497303Y-77892375D01*
X106496404Y-77900933D01*
X106470856Y-77979558D01*
X106449660Y-78049435D01*
X106445814Y-78056629D01*
X106441427Y-78070133D01*
X106403299Y-78136172D01*
X106371079Y-78196453D01*
X106362366Y-78207069D01*
X106352473Y-78224205D01*
X106305378Y-78276509D01*
X106265320Y-78325320D01*
X106250414Y-78337552D01*
X106233430Y-78356416D01*
X106181118Y-78394423D01*
X106136453Y-78431079D01*
X106114559Y-78442780D01*
X106089500Y-78460988D01*
X106035591Y-78484989D01*
X105989435Y-78509660D01*
X105960391Y-78518470D01*
X105926973Y-78533349D01*
X105874748Y-78544449D01*
X105829901Y-78558054D01*
X105794203Y-78561570D01*
X105752954Y-78570338D01*
X105705188Y-78570338D01*
X105664000Y-78574395D01*
X105622811Y-78570338D01*
X105575046Y-78570338D01*
X105533797Y-78561570D01*
X105498098Y-78558054D01*
X105453248Y-78544448D01*
X105401027Y-78533349D01*
X105367610Y-78518471D01*
X105338564Y-78509660D01*
X105292402Y-78484986D01*
X105238500Y-78460988D01*
X105213443Y-78442783D01*
X105191546Y-78431079D01*
X105146873Y-78394416D01*
X105094570Y-78356416D01*
X105077588Y-78337555D01*
X105062679Y-78325320D01*
X105022610Y-78276496D01*
X104975527Y-78224205D01*
X104965636Y-78207073D01*
X104956920Y-78196453D01*
X104924687Y-78136148D01*
X104886573Y-78070133D01*
X104882186Y-78056634D01*
X104878339Y-78049435D01*
X104857128Y-77979512D01*
X104831596Y-77900933D01*
X104830697Y-77892380D01*
X104829945Y-77889901D01*
X104822613Y-77815467D01*
X104813000Y-77724000D01*
X104822612Y-77632540D01*
X104829945Y-77558098D01*
X104830697Y-77555618D01*
X104831596Y-77547067D01*
X104857123Y-77468502D01*
X104878339Y-77398564D01*
X104882187Y-77391363D01*
X104886573Y-77377867D01*
X104924680Y-77311863D01*
X104956920Y-77251546D01*
X104965638Y-77240923D01*
X104975527Y-77223795D01*
X105022601Y-77171513D01*
X105062679Y-77122679D01*
X105077591Y-77110440D01*
X105094570Y-77091584D01*
X105146862Y-77053591D01*
X105191546Y-77016920D01*
X105213448Y-77005213D01*
X105238500Y-76987012D01*
X105292391Y-76963018D01*
X105338564Y-76938339D01*
X105367617Y-76929525D01*
X105401027Y-76914651D01*
X105453237Y-76903553D01*
X105498098Y-76889945D01*
X105533806Y-76886427D01*
X105575046Y-76877662D01*
X105622801Y-76877662D01*
X105664000Y-76873604D01*
X105705199Y-76877662D01*
G37*
G36*
X128565199Y-75353662D02*
G01*
X128612954Y-75353662D01*
X128654194Y-75362427D01*
X128689901Y-75365945D01*
X128734759Y-75379552D01*
X128786973Y-75390651D01*
X128820384Y-75405526D01*
X128849435Y-75414339D01*
X128895602Y-75439015D01*
X128949500Y-75463012D01*
X128974554Y-75481215D01*
X128996453Y-75492920D01*
X129041128Y-75529584D01*
X129093430Y-75567584D01*
X129110411Y-75586443D01*
X129125320Y-75598679D01*
X129165387Y-75647501D01*
X129212473Y-75699795D01*
X129222364Y-75716927D01*
X129231079Y-75727546D01*
X129263306Y-75787840D01*
X129301427Y-75853867D01*
X129305813Y-75867368D01*
X129309660Y-75874564D01*
X129330861Y-75944455D01*
X129356404Y-76023067D01*
X129357303Y-76031623D01*
X129358054Y-76034098D01*
X129365371Y-76108389D01*
X129375000Y-76200000D01*
X129365370Y-76291619D01*
X129358054Y-76365901D01*
X129357303Y-76368375D01*
X129356404Y-76376933D01*
X129330856Y-76455558D01*
X129309660Y-76525435D01*
X129305814Y-76532629D01*
X129301427Y-76546133D01*
X129263299Y-76612172D01*
X129231079Y-76672453D01*
X129222366Y-76683069D01*
X129212473Y-76700205D01*
X129165378Y-76752509D01*
X129125320Y-76801320D01*
X129110414Y-76813552D01*
X129093430Y-76832416D01*
X129041118Y-76870423D01*
X128996453Y-76907079D01*
X128974559Y-76918780D01*
X128949500Y-76936988D01*
X128895591Y-76960989D01*
X128849435Y-76985660D01*
X128820391Y-76994470D01*
X128786973Y-77009349D01*
X128734748Y-77020449D01*
X128689901Y-77034054D01*
X128654203Y-77037570D01*
X128612954Y-77046338D01*
X128565188Y-77046338D01*
X128524000Y-77050395D01*
X128482811Y-77046338D01*
X128435046Y-77046338D01*
X128393797Y-77037570D01*
X128358098Y-77034054D01*
X128313248Y-77020448D01*
X128261027Y-77009349D01*
X128227610Y-76994471D01*
X128198564Y-76985660D01*
X128152402Y-76960986D01*
X128098500Y-76936988D01*
X128073443Y-76918783D01*
X128051546Y-76907079D01*
X128006873Y-76870416D01*
X127954570Y-76832416D01*
X127937588Y-76813555D01*
X127922679Y-76801320D01*
X127882610Y-76752496D01*
X127835527Y-76700205D01*
X127825636Y-76683073D01*
X127816920Y-76672453D01*
X127784687Y-76612148D01*
X127746573Y-76546133D01*
X127742186Y-76532634D01*
X127738339Y-76525435D01*
X127717128Y-76455512D01*
X127691596Y-76376933D01*
X127690697Y-76368380D01*
X127689945Y-76365901D01*
X127682613Y-76291467D01*
X127673000Y-76200000D01*
X127682612Y-76108540D01*
X127689945Y-76034098D01*
X127690697Y-76031618D01*
X127691596Y-76023067D01*
X127717123Y-75944502D01*
X127738339Y-75874564D01*
X127742187Y-75867363D01*
X127746573Y-75853867D01*
X127784680Y-75787863D01*
X127816920Y-75727546D01*
X127825638Y-75716923D01*
X127835527Y-75699795D01*
X127882601Y-75647513D01*
X127922679Y-75598679D01*
X127937591Y-75586440D01*
X127954570Y-75567584D01*
X128006862Y-75529591D01*
X128051546Y-75492920D01*
X128073448Y-75481213D01*
X128098500Y-75463012D01*
X128152391Y-75439018D01*
X128198564Y-75414339D01*
X128227617Y-75405525D01*
X128261027Y-75390651D01*
X128313237Y-75379553D01*
X128358098Y-75365945D01*
X128393806Y-75362427D01*
X128435046Y-75353662D01*
X128482801Y-75353662D01*
X128524000Y-75349604D01*
X128565199Y-75353662D01*
G37*
G36*
X116881199Y-73829662D02*
G01*
X116928954Y-73829662D01*
X116970194Y-73838427D01*
X117005901Y-73841945D01*
X117050759Y-73855552D01*
X117102973Y-73866651D01*
X117136384Y-73881526D01*
X117165435Y-73890339D01*
X117211602Y-73915015D01*
X117265500Y-73939012D01*
X117290554Y-73957215D01*
X117312453Y-73968920D01*
X117357128Y-74005584D01*
X117409430Y-74043584D01*
X117426411Y-74062443D01*
X117441320Y-74074679D01*
X117481387Y-74123501D01*
X117528473Y-74175795D01*
X117538364Y-74192927D01*
X117547079Y-74203546D01*
X117579306Y-74263840D01*
X117617427Y-74329867D01*
X117621813Y-74343368D01*
X117625660Y-74350564D01*
X117646861Y-74420455D01*
X117672404Y-74499067D01*
X117673303Y-74507623D01*
X117674054Y-74510098D01*
X117681371Y-74584389D01*
X117691000Y-74676000D01*
X117681370Y-74767619D01*
X117674054Y-74841901D01*
X117673303Y-74844375D01*
X117672404Y-74852933D01*
X117646856Y-74931558D01*
X117625660Y-75001435D01*
X117621814Y-75008629D01*
X117617427Y-75022133D01*
X117579299Y-75088172D01*
X117547079Y-75148453D01*
X117538366Y-75159069D01*
X117528473Y-75176205D01*
X117481378Y-75228509D01*
X117441320Y-75277320D01*
X117426414Y-75289552D01*
X117409430Y-75308416D01*
X117357118Y-75346423D01*
X117312453Y-75383079D01*
X117290559Y-75394780D01*
X117265500Y-75412988D01*
X117211591Y-75436989D01*
X117165435Y-75461660D01*
X117136391Y-75470470D01*
X117102973Y-75485349D01*
X117050748Y-75496449D01*
X117005901Y-75510054D01*
X116970203Y-75513570D01*
X116928954Y-75522338D01*
X116881188Y-75522338D01*
X116840000Y-75526395D01*
X116798811Y-75522338D01*
X116751046Y-75522338D01*
X116709797Y-75513570D01*
X116674098Y-75510054D01*
X116629248Y-75496448D01*
X116577027Y-75485349D01*
X116543610Y-75470471D01*
X116514564Y-75461660D01*
X116468402Y-75436986D01*
X116414500Y-75412988D01*
X116389443Y-75394783D01*
X116367546Y-75383079D01*
X116322873Y-75346416D01*
X116270570Y-75308416D01*
X116253588Y-75289555D01*
X116238679Y-75277320D01*
X116198610Y-75228496D01*
X116151527Y-75176205D01*
X116141636Y-75159073D01*
X116132920Y-75148453D01*
X116100687Y-75088148D01*
X116062573Y-75022133D01*
X116058186Y-75008634D01*
X116054339Y-75001435D01*
X116033128Y-74931512D01*
X116007596Y-74852933D01*
X116006697Y-74844380D01*
X116005945Y-74841901D01*
X115998613Y-74767467D01*
X115989000Y-74676000D01*
X115998612Y-74584540D01*
X116005945Y-74510098D01*
X116006697Y-74507618D01*
X116007596Y-74499067D01*
X116033123Y-74420502D01*
X116054339Y-74350564D01*
X116058187Y-74343363D01*
X116062573Y-74329867D01*
X116100680Y-74263863D01*
X116132920Y-74203546D01*
X116141638Y-74192923D01*
X116151527Y-74175795D01*
X116198601Y-74123513D01*
X116238679Y-74074679D01*
X116253591Y-74062440D01*
X116270570Y-74043584D01*
X116322862Y-74005591D01*
X116367546Y-73968920D01*
X116389448Y-73957213D01*
X116414500Y-73939012D01*
X116468391Y-73915018D01*
X116514564Y-73890339D01*
X116543617Y-73881525D01*
X116577027Y-73866651D01*
X116629237Y-73855553D01*
X116674098Y-73841945D01*
X116709806Y-73838427D01*
X116751046Y-73829662D01*
X116798801Y-73829662D01*
X116840000Y-73825604D01*
X116881199Y-73829662D01*
G37*
G36*
X124501199Y-73829662D02*
G01*
X124548954Y-73829662D01*
X124590194Y-73838427D01*
X124625901Y-73841945D01*
X124670759Y-73855552D01*
X124722973Y-73866651D01*
X124756384Y-73881526D01*
X124785435Y-73890339D01*
X124831602Y-73915015D01*
X124885500Y-73939012D01*
X124910554Y-73957215D01*
X124932453Y-73968920D01*
X124977128Y-74005584D01*
X125029430Y-74043584D01*
X125046411Y-74062443D01*
X125061320Y-74074679D01*
X125101387Y-74123501D01*
X125148473Y-74175795D01*
X125158364Y-74192927D01*
X125167079Y-74203546D01*
X125199306Y-74263840D01*
X125237427Y-74329867D01*
X125241813Y-74343368D01*
X125245660Y-74350564D01*
X125266861Y-74420455D01*
X125292404Y-74499067D01*
X125293303Y-74507623D01*
X125294054Y-74510098D01*
X125301371Y-74584389D01*
X125311000Y-74676000D01*
X125301370Y-74767619D01*
X125294054Y-74841901D01*
X125293303Y-74844375D01*
X125292404Y-74852933D01*
X125266856Y-74931558D01*
X125245660Y-75001435D01*
X125241814Y-75008629D01*
X125237427Y-75022133D01*
X125199299Y-75088172D01*
X125167079Y-75148453D01*
X125158366Y-75159069D01*
X125148473Y-75176205D01*
X125101378Y-75228509D01*
X125061320Y-75277320D01*
X125046414Y-75289552D01*
X125029430Y-75308416D01*
X124977118Y-75346423D01*
X124932453Y-75383079D01*
X124910559Y-75394780D01*
X124885500Y-75412988D01*
X124831591Y-75436989D01*
X124785435Y-75461660D01*
X124756391Y-75470470D01*
X124722973Y-75485349D01*
X124670748Y-75496449D01*
X124625901Y-75510054D01*
X124590203Y-75513570D01*
X124548954Y-75522338D01*
X124501188Y-75522338D01*
X124460000Y-75526395D01*
X124418811Y-75522338D01*
X124371046Y-75522338D01*
X124329797Y-75513570D01*
X124294098Y-75510054D01*
X124249248Y-75496448D01*
X124197027Y-75485349D01*
X124163610Y-75470471D01*
X124134564Y-75461660D01*
X124088402Y-75436986D01*
X124034500Y-75412988D01*
X124009443Y-75394783D01*
X123987546Y-75383079D01*
X123942873Y-75346416D01*
X123890570Y-75308416D01*
X123873588Y-75289555D01*
X123858679Y-75277320D01*
X123818610Y-75228496D01*
X123771527Y-75176205D01*
X123761636Y-75159073D01*
X123752920Y-75148453D01*
X123720687Y-75088148D01*
X123682573Y-75022133D01*
X123678186Y-75008634D01*
X123674339Y-75001435D01*
X123653128Y-74931512D01*
X123627596Y-74852933D01*
X123626697Y-74844380D01*
X123625945Y-74841901D01*
X123618613Y-74767467D01*
X123609000Y-74676000D01*
X123618612Y-74584540D01*
X123625945Y-74510098D01*
X123626697Y-74507618D01*
X123627596Y-74499067D01*
X123653123Y-74420502D01*
X123674339Y-74350564D01*
X123678187Y-74343363D01*
X123682573Y-74329867D01*
X123720680Y-74263863D01*
X123752920Y-74203546D01*
X123761638Y-74192923D01*
X123771527Y-74175795D01*
X123818601Y-74123513D01*
X123858679Y-74074679D01*
X123873591Y-74062440D01*
X123890570Y-74043584D01*
X123942862Y-74005591D01*
X123987546Y-73968920D01*
X124009448Y-73957213D01*
X124034500Y-73939012D01*
X124088391Y-73915018D01*
X124134564Y-73890339D01*
X124163617Y-73881525D01*
X124197027Y-73866651D01*
X124249237Y-73855553D01*
X124294098Y-73841945D01*
X124329806Y-73838427D01*
X124371046Y-73829662D01*
X124418801Y-73829662D01*
X124460000Y-73825604D01*
X124501199Y-73829662D01*
G37*
G36*
X98888708Y-72330371D02*
G01*
X99102965Y-72403925D01*
X99302194Y-72511742D01*
X99480959Y-72650881D01*
X99634385Y-72817546D01*
X99758286Y-73007191D01*
X99849283Y-73214642D01*
X99904893Y-73434242D01*
X99923600Y-73660000D01*
X99904893Y-73885758D01*
X99849283Y-74105358D01*
X99758286Y-74312809D01*
X99634385Y-74502454D01*
X99480959Y-74669119D01*
X99302194Y-74808258D01*
X99102965Y-74916075D01*
X98888708Y-74989629D01*
X98665266Y-75026915D01*
X98438734Y-75026915D01*
X98215292Y-74989629D01*
X98001035Y-74916075D01*
X97801806Y-74808258D01*
X97623041Y-74669119D01*
X97469615Y-74502454D01*
X97345714Y-74312809D01*
X97254717Y-74105358D01*
X97199107Y-73885758D01*
X97180400Y-73660000D01*
X97199107Y-73434242D01*
X97254717Y-73214642D01*
X97345714Y-73007191D01*
X97469615Y-72817546D01*
X97623041Y-72650881D01*
X97801806Y-72511742D01*
X98001035Y-72403925D01*
X98215292Y-72330371D01*
X98438734Y-72293085D01*
X98665266Y-72293085D01*
X98888708Y-72330371D01*
G37*
G36*
X103968708Y-72330371D02*
G01*
X104182965Y-72403925D01*
X104382194Y-72511742D01*
X104560959Y-72650881D01*
X104714385Y-72817546D01*
X104838286Y-73007191D01*
X104929283Y-73214642D01*
X104984893Y-73434242D01*
X105003600Y-73660000D01*
X104984893Y-73885758D01*
X104929283Y-74105358D01*
X104838286Y-74312809D01*
X104714385Y-74502454D01*
X104560959Y-74669119D01*
X104382194Y-74808258D01*
X104182965Y-74916075D01*
X103968708Y-74989629D01*
X103745266Y-75026915D01*
X103518734Y-75026915D01*
X103295292Y-74989629D01*
X103081035Y-74916075D01*
X102881806Y-74808258D01*
X102703041Y-74669119D01*
X102549615Y-74502454D01*
X102425714Y-74312809D01*
X102334717Y-74105358D01*
X102279107Y-73885758D01*
X102260400Y-73660000D01*
X102279107Y-73434242D01*
X102334717Y-73214642D01*
X102425714Y-73007191D01*
X102549615Y-72817546D01*
X102703041Y-72650881D01*
X102881806Y-72511742D01*
X103081035Y-72403925D01*
X103295292Y-72330371D01*
X103518734Y-72293085D01*
X103745266Y-72293085D01*
X103968708Y-72330371D01*
G37*
G36*
X109048708Y-72330371D02*
G01*
X109262965Y-72403925D01*
X109462194Y-72511742D01*
X109640959Y-72650881D01*
X109794385Y-72817546D01*
X109918286Y-73007191D01*
X110009283Y-73214642D01*
X110064893Y-73434242D01*
X110083600Y-73660000D01*
X110064893Y-73885758D01*
X110009283Y-74105358D01*
X109918286Y-74312809D01*
X109794385Y-74502454D01*
X109640959Y-74669119D01*
X109462194Y-74808258D01*
X109262965Y-74916075D01*
X109048708Y-74989629D01*
X108825266Y-75026915D01*
X108598734Y-75026915D01*
X108375292Y-74989629D01*
X108161035Y-74916075D01*
X107961806Y-74808258D01*
X107783041Y-74669119D01*
X107629615Y-74502454D01*
X107505714Y-74312809D01*
X107414717Y-74105358D01*
X107359107Y-73885758D01*
X107340400Y-73660000D01*
X107359107Y-73434242D01*
X107414717Y-73214642D01*
X107505714Y-73007191D01*
X107629615Y-72817546D01*
X107783041Y-72650881D01*
X107961806Y-72511742D01*
X108161035Y-72403925D01*
X108375292Y-72330371D01*
X108598734Y-72293085D01*
X108825266Y-72293085D01*
X109048708Y-72330371D01*
G37*
G36*
X132924708Y-72330371D02*
G01*
X133138965Y-72403925D01*
X133338194Y-72511742D01*
X133516959Y-72650881D01*
X133670385Y-72817546D01*
X133794286Y-73007191D01*
X133885283Y-73214642D01*
X133940893Y-73434242D01*
X133959600Y-73660000D01*
X133940893Y-73885758D01*
X133885283Y-74105358D01*
X133794286Y-74312809D01*
X133670385Y-74502454D01*
X133516959Y-74669119D01*
X133338194Y-74808258D01*
X133138965Y-74916075D01*
X132924708Y-74989629D01*
X132701266Y-75026915D01*
X132474734Y-75026915D01*
X132251292Y-74989629D01*
X132037035Y-74916075D01*
X131837806Y-74808258D01*
X131659041Y-74669119D01*
X131505615Y-74502454D01*
X131381714Y-74312809D01*
X131290717Y-74105358D01*
X131235107Y-73885758D01*
X131216400Y-73660000D01*
X131235107Y-73434242D01*
X131290717Y-73214642D01*
X131381714Y-73007191D01*
X131505615Y-72817546D01*
X131659041Y-72650881D01*
X131837806Y-72511742D01*
X132037035Y-72403925D01*
X132251292Y-72330371D01*
X132474734Y-72293085D01*
X132701266Y-72293085D01*
X132924708Y-72330371D01*
G37*
G36*
X138004708Y-72330371D02*
G01*
X138218965Y-72403925D01*
X138418194Y-72511742D01*
X138596959Y-72650881D01*
X138750385Y-72817546D01*
X138874286Y-73007191D01*
X138965283Y-73214642D01*
X139020893Y-73434242D01*
X139039600Y-73660000D01*
X139020893Y-73885758D01*
X138965283Y-74105358D01*
X138874286Y-74312809D01*
X138750385Y-74502454D01*
X138596959Y-74669119D01*
X138418194Y-74808258D01*
X138218965Y-74916075D01*
X138004708Y-74989629D01*
X137781266Y-75026915D01*
X137554734Y-75026915D01*
X137331292Y-74989629D01*
X137117035Y-74916075D01*
X136917806Y-74808258D01*
X136739041Y-74669119D01*
X136585615Y-74502454D01*
X136461714Y-74312809D01*
X136370717Y-74105358D01*
X136315107Y-73885758D01*
X136296400Y-73660000D01*
X136315107Y-73434242D01*
X136370717Y-73214642D01*
X136461714Y-73007191D01*
X136585615Y-72817546D01*
X136739041Y-72650881D01*
X136917806Y-72511742D01*
X137117035Y-72403925D01*
X137331292Y-72330371D01*
X137554734Y-72293085D01*
X137781266Y-72293085D01*
X138004708Y-72330371D01*
G37*
G36*
X143084708Y-72330371D02*
G01*
X143298965Y-72403925D01*
X143498194Y-72511742D01*
X143676959Y-72650881D01*
X143830385Y-72817546D01*
X143954286Y-73007191D01*
X144045283Y-73214642D01*
X144100893Y-73434242D01*
X144119600Y-73660000D01*
X144100893Y-73885758D01*
X144045283Y-74105358D01*
X143954286Y-74312809D01*
X143830385Y-74502454D01*
X143676959Y-74669119D01*
X143498194Y-74808258D01*
X143298965Y-74916075D01*
X143084708Y-74989629D01*
X142861266Y-75026915D01*
X142634734Y-75026915D01*
X142411292Y-74989629D01*
X142197035Y-74916075D01*
X141997806Y-74808258D01*
X141819041Y-74669119D01*
X141665615Y-74502454D01*
X141541714Y-74312809D01*
X141450717Y-74105358D01*
X141395107Y-73885758D01*
X141376400Y-73660000D01*
X141395107Y-73434242D01*
X141450717Y-73214642D01*
X141541714Y-73007191D01*
X141665615Y-72817546D01*
X141819041Y-72650881D01*
X141997806Y-72511742D01*
X142197035Y-72403925D01*
X142411292Y-72330371D01*
X142634734Y-72293085D01*
X142861266Y-72293085D01*
X143084708Y-72330371D01*
G37*
G36*
X116881199Y-71289662D02*
G01*
X116928954Y-71289662D01*
X116970194Y-71298427D01*
X117005901Y-71301945D01*
X117050759Y-71315552D01*
X117102973Y-71326651D01*
X117136384Y-71341526D01*
X117165435Y-71350339D01*
X117211602Y-71375015D01*
X117265500Y-71399012D01*
X117290554Y-71417215D01*
X117312453Y-71428920D01*
X117357128Y-71465584D01*
X117409430Y-71503584D01*
X117426411Y-71522443D01*
X117441320Y-71534679D01*
X117481387Y-71583501D01*
X117528473Y-71635795D01*
X117538364Y-71652927D01*
X117547079Y-71663546D01*
X117579306Y-71723840D01*
X117617427Y-71789867D01*
X117621813Y-71803368D01*
X117625660Y-71810564D01*
X117646861Y-71880455D01*
X117672404Y-71959067D01*
X117673303Y-71967623D01*
X117674054Y-71970098D01*
X117681371Y-72044389D01*
X117691000Y-72136000D01*
X117681370Y-72227619D01*
X117674054Y-72301901D01*
X117673303Y-72304375D01*
X117672404Y-72312933D01*
X117646856Y-72391558D01*
X117625660Y-72461435D01*
X117621814Y-72468629D01*
X117617427Y-72482133D01*
X117579299Y-72548172D01*
X117547079Y-72608453D01*
X117538366Y-72619069D01*
X117528473Y-72636205D01*
X117481378Y-72688509D01*
X117441320Y-72737320D01*
X117426414Y-72749552D01*
X117409430Y-72768416D01*
X117357118Y-72806423D01*
X117312453Y-72843079D01*
X117290559Y-72854780D01*
X117265500Y-72872988D01*
X117211591Y-72896989D01*
X117165435Y-72921660D01*
X117136391Y-72930470D01*
X117102973Y-72945349D01*
X117050748Y-72956449D01*
X117005901Y-72970054D01*
X116970203Y-72973570D01*
X116928954Y-72982338D01*
X116881188Y-72982338D01*
X116840000Y-72986395D01*
X116798811Y-72982338D01*
X116751046Y-72982338D01*
X116709797Y-72973570D01*
X116674098Y-72970054D01*
X116629248Y-72956448D01*
X116577027Y-72945349D01*
X116543610Y-72930471D01*
X116514564Y-72921660D01*
X116468402Y-72896986D01*
X116414500Y-72872988D01*
X116389443Y-72854783D01*
X116367546Y-72843079D01*
X116322873Y-72806416D01*
X116270570Y-72768416D01*
X116253588Y-72749555D01*
X116238679Y-72737320D01*
X116198610Y-72688496D01*
X116151527Y-72636205D01*
X116141636Y-72619073D01*
X116132920Y-72608453D01*
X116100687Y-72548148D01*
X116062573Y-72482133D01*
X116058186Y-72468634D01*
X116054339Y-72461435D01*
X116033128Y-72391512D01*
X116007596Y-72312933D01*
X116006697Y-72304380D01*
X116005945Y-72301901D01*
X115998613Y-72227467D01*
X115989000Y-72136000D01*
X115998612Y-72044540D01*
X116005945Y-71970098D01*
X116006697Y-71967618D01*
X116007596Y-71959067D01*
X116033123Y-71880502D01*
X116054339Y-71810564D01*
X116058187Y-71803363D01*
X116062573Y-71789867D01*
X116100680Y-71723863D01*
X116132920Y-71663546D01*
X116141638Y-71652923D01*
X116151527Y-71635795D01*
X116198601Y-71583513D01*
X116238679Y-71534679D01*
X116253591Y-71522440D01*
X116270570Y-71503584D01*
X116322862Y-71465591D01*
X116367546Y-71428920D01*
X116389448Y-71417213D01*
X116414500Y-71399012D01*
X116468391Y-71375018D01*
X116514564Y-71350339D01*
X116543617Y-71341525D01*
X116577027Y-71326651D01*
X116629237Y-71315553D01*
X116674098Y-71301945D01*
X116709806Y-71298427D01*
X116751046Y-71289662D01*
X116798801Y-71289662D01*
X116840000Y-71285604D01*
X116881199Y-71289662D01*
G37*
G36*
X124501199Y-71289662D02*
G01*
X124548954Y-71289662D01*
X124590194Y-71298427D01*
X124625901Y-71301945D01*
X124670759Y-71315552D01*
X124722973Y-71326651D01*
X124756384Y-71341526D01*
X124785435Y-71350339D01*
X124831602Y-71375015D01*
X124885500Y-71399012D01*
X124910554Y-71417215D01*
X124932453Y-71428920D01*
X124977128Y-71465584D01*
X125029430Y-71503584D01*
X125046411Y-71522443D01*
X125061320Y-71534679D01*
X125101387Y-71583501D01*
X125148473Y-71635795D01*
X125158364Y-71652927D01*
X125167079Y-71663546D01*
X125199306Y-71723840D01*
X125237427Y-71789867D01*
X125241813Y-71803368D01*
X125245660Y-71810564D01*
X125266861Y-71880455D01*
X125292404Y-71959067D01*
X125293303Y-71967623D01*
X125294054Y-71970098D01*
X125301371Y-72044389D01*
X125311000Y-72136000D01*
X125301370Y-72227619D01*
X125294054Y-72301901D01*
X125293303Y-72304375D01*
X125292404Y-72312933D01*
X125266856Y-72391558D01*
X125245660Y-72461435D01*
X125241814Y-72468629D01*
X125237427Y-72482133D01*
X125199299Y-72548172D01*
X125167079Y-72608453D01*
X125158366Y-72619069D01*
X125148473Y-72636205D01*
X125101378Y-72688509D01*
X125061320Y-72737320D01*
X125046414Y-72749552D01*
X125029430Y-72768416D01*
X124977118Y-72806423D01*
X124932453Y-72843079D01*
X124910559Y-72854780D01*
X124885500Y-72872988D01*
X124831591Y-72896989D01*
X124785435Y-72921660D01*
X124756391Y-72930470D01*
X124722973Y-72945349D01*
X124670748Y-72956449D01*
X124625901Y-72970054D01*
X124590203Y-72973570D01*
X124548954Y-72982338D01*
X124501188Y-72982338D01*
X124460000Y-72986395D01*
X124418811Y-72982338D01*
X124371046Y-72982338D01*
X124329797Y-72973570D01*
X124294098Y-72970054D01*
X124249248Y-72956448D01*
X124197027Y-72945349D01*
X124163610Y-72930471D01*
X124134564Y-72921660D01*
X124088402Y-72896986D01*
X124034500Y-72872988D01*
X124009443Y-72854783D01*
X123987546Y-72843079D01*
X123942873Y-72806416D01*
X123890570Y-72768416D01*
X123873588Y-72749555D01*
X123858679Y-72737320D01*
X123818610Y-72688496D01*
X123771527Y-72636205D01*
X123761636Y-72619073D01*
X123752920Y-72608453D01*
X123720687Y-72548148D01*
X123682573Y-72482133D01*
X123678186Y-72468634D01*
X123674339Y-72461435D01*
X123653128Y-72391512D01*
X123627596Y-72312933D01*
X123626697Y-72304380D01*
X123625945Y-72301901D01*
X123618613Y-72227467D01*
X123609000Y-72136000D01*
X123618612Y-72044540D01*
X123625945Y-71970098D01*
X123626697Y-71967618D01*
X123627596Y-71959067D01*
X123653123Y-71880502D01*
X123674339Y-71810564D01*
X123678187Y-71803363D01*
X123682573Y-71789867D01*
X123720680Y-71723863D01*
X123752920Y-71663546D01*
X123761638Y-71652923D01*
X123771527Y-71635795D01*
X123818601Y-71583513D01*
X123858679Y-71534679D01*
X123873591Y-71522440D01*
X123890570Y-71503584D01*
X123942862Y-71465591D01*
X123987546Y-71428920D01*
X124009448Y-71417213D01*
X124034500Y-71399012D01*
X124088391Y-71375018D01*
X124134564Y-71350339D01*
X124163617Y-71341525D01*
X124197027Y-71326651D01*
X124249237Y-71315553D01*
X124294098Y-71301945D01*
X124329806Y-71298427D01*
X124371046Y-71289662D01*
X124418801Y-71289662D01*
X124460000Y-71285604D01*
X124501199Y-71289662D01*
G37*
G36*
X112826938Y-70074017D02*
G01*
X112872923Y-70074017D01*
X112924139Y-70083590D01*
X112981040Y-70089195D01*
X113024261Y-70102306D01*
X113063474Y-70109636D01*
X113117785Y-70130676D01*
X113178200Y-70149003D01*
X113212720Y-70167454D01*
X113244232Y-70179662D01*
X113298977Y-70213559D01*
X113359904Y-70246125D01*
X113385506Y-70267136D01*
X113409048Y-70281713D01*
X113461212Y-70329267D01*
X113519169Y-70376831D01*
X113536342Y-70397757D01*
X113552301Y-70412305D01*
X113598629Y-70473653D01*
X113649875Y-70536096D01*
X113659783Y-70554634D01*
X113669122Y-70567000D01*
X113706274Y-70641613D01*
X113746997Y-70717800D01*
X113751340Y-70732117D01*
X113755528Y-70740528D01*
X113780267Y-70827476D01*
X113806805Y-70914960D01*
X113807676Y-70923811D01*
X113808577Y-70926975D01*
X113817938Y-71028002D01*
X113827000Y-71120000D01*
X113817938Y-71212005D01*
X113808577Y-71313024D01*
X113807676Y-71316187D01*
X113806805Y-71325040D01*
X113780262Y-71412538D01*
X113755528Y-71499471D01*
X113751341Y-71507879D01*
X113746997Y-71522200D01*
X113706267Y-71598399D01*
X113669122Y-71672999D01*
X113659785Y-71685362D01*
X113649875Y-71703904D01*
X113598620Y-71766357D01*
X113552301Y-71827694D01*
X113536345Y-71842238D01*
X113519169Y-71863169D01*
X113461201Y-71910741D01*
X113409048Y-71958286D01*
X113385511Y-71972859D01*
X113359904Y-71993875D01*
X113298965Y-72026447D01*
X113244232Y-72060337D01*
X113212726Y-72072542D01*
X113178200Y-72090997D01*
X113117773Y-72109327D01*
X113063474Y-72130363D01*
X113024268Y-72137691D01*
X112981040Y-72150805D01*
X112924136Y-72156409D01*
X112872923Y-72165983D01*
X112826938Y-72165983D01*
X112776000Y-72171000D01*
X112725062Y-72165983D01*
X112679077Y-72165983D01*
X112627863Y-72156409D01*
X112570960Y-72150805D01*
X112527732Y-72137692D01*
X112488525Y-72130363D01*
X112434221Y-72109325D01*
X112373800Y-72090997D01*
X112339275Y-72072543D01*
X112307767Y-72060337D01*
X112253027Y-72026443D01*
X112192096Y-71993875D01*
X112166491Y-71972861D01*
X112142951Y-71958286D01*
X112090788Y-71910733D01*
X112032831Y-71863169D01*
X112015656Y-71842242D01*
X111999698Y-71827694D01*
X111953367Y-71766342D01*
X111902125Y-71703904D01*
X111892216Y-71685366D01*
X111882877Y-71672999D01*
X111845717Y-71598372D01*
X111805003Y-71522200D01*
X111800660Y-71507884D01*
X111796471Y-71499471D01*
X111771721Y-71412485D01*
X111745195Y-71325040D01*
X111744323Y-71316192D01*
X111743422Y-71313024D01*
X111734044Y-71211833D01*
X111725000Y-71120000D01*
X111734044Y-71028173D01*
X111743422Y-70926975D01*
X111744323Y-70923805D01*
X111745195Y-70914960D01*
X111771716Y-70827529D01*
X111796471Y-70740528D01*
X111800661Y-70732112D01*
X111805003Y-70717800D01*
X111845710Y-70641641D01*
X111882877Y-70567000D01*
X111892218Y-70554629D01*
X111902125Y-70536096D01*
X111953357Y-70473668D01*
X111999698Y-70412305D01*
X112015660Y-70397753D01*
X112032831Y-70376831D01*
X112090777Y-70329275D01*
X112142951Y-70281713D01*
X112166496Y-70267134D01*
X112192096Y-70246125D01*
X112253015Y-70213563D01*
X112307767Y-70179662D01*
X112339282Y-70167452D01*
X112373800Y-70149003D01*
X112434209Y-70130677D01*
X112488525Y-70109636D01*
X112527739Y-70102305D01*
X112570960Y-70089195D01*
X112627860Y-70083590D01*
X112679077Y-70074017D01*
X112725062Y-70074017D01*
X112776000Y-70069000D01*
X112826938Y-70074017D01*
G37*
G36*
X116881199Y-68749662D02*
G01*
X116928954Y-68749662D01*
X116970194Y-68758427D01*
X117005901Y-68761945D01*
X117050759Y-68775552D01*
X117102973Y-68786651D01*
X117136384Y-68801526D01*
X117165435Y-68810339D01*
X117211602Y-68835015D01*
X117265500Y-68859012D01*
X117290554Y-68877215D01*
X117312453Y-68888920D01*
X117357128Y-68925584D01*
X117409430Y-68963584D01*
X117426411Y-68982443D01*
X117441320Y-68994679D01*
X117481387Y-69043501D01*
X117528473Y-69095795D01*
X117538364Y-69112927D01*
X117547079Y-69123546D01*
X117579306Y-69183840D01*
X117617427Y-69249867D01*
X117621813Y-69263368D01*
X117625660Y-69270564D01*
X117646861Y-69340455D01*
X117672404Y-69419067D01*
X117673303Y-69427623D01*
X117674054Y-69430098D01*
X117681371Y-69504389D01*
X117691000Y-69596000D01*
X117681370Y-69687619D01*
X117674054Y-69761901D01*
X117673303Y-69764375D01*
X117672404Y-69772933D01*
X117646856Y-69851558D01*
X117625660Y-69921435D01*
X117621814Y-69928629D01*
X117617427Y-69942133D01*
X117579299Y-70008172D01*
X117547079Y-70068453D01*
X117538366Y-70079069D01*
X117528473Y-70096205D01*
X117481378Y-70148509D01*
X117441320Y-70197320D01*
X117426414Y-70209552D01*
X117409430Y-70228416D01*
X117357118Y-70266423D01*
X117312453Y-70303079D01*
X117290559Y-70314780D01*
X117265500Y-70332988D01*
X117211591Y-70356989D01*
X117165435Y-70381660D01*
X117136391Y-70390470D01*
X117102973Y-70405349D01*
X117050748Y-70416449D01*
X117005901Y-70430054D01*
X116970203Y-70433570D01*
X116928954Y-70442338D01*
X116881188Y-70442338D01*
X116840000Y-70446395D01*
X116798811Y-70442338D01*
X116751046Y-70442338D01*
X116709797Y-70433570D01*
X116674098Y-70430054D01*
X116629248Y-70416448D01*
X116577027Y-70405349D01*
X116543610Y-70390471D01*
X116514564Y-70381660D01*
X116468402Y-70356986D01*
X116414500Y-70332988D01*
X116389443Y-70314783D01*
X116367546Y-70303079D01*
X116322873Y-70266416D01*
X116270570Y-70228416D01*
X116253588Y-70209555D01*
X116238679Y-70197320D01*
X116198610Y-70148496D01*
X116151527Y-70096205D01*
X116141636Y-70079073D01*
X116132920Y-70068453D01*
X116100687Y-70008148D01*
X116062573Y-69942133D01*
X116058186Y-69928634D01*
X116054339Y-69921435D01*
X116033128Y-69851512D01*
X116007596Y-69772933D01*
X116006697Y-69764380D01*
X116005945Y-69761901D01*
X115998613Y-69687467D01*
X115989000Y-69596000D01*
X115998612Y-69504540D01*
X116005945Y-69430098D01*
X116006697Y-69427618D01*
X116007596Y-69419067D01*
X116033123Y-69340502D01*
X116054339Y-69270564D01*
X116058187Y-69263363D01*
X116062573Y-69249867D01*
X116100680Y-69183863D01*
X116132920Y-69123546D01*
X116141638Y-69112923D01*
X116151527Y-69095795D01*
X116198601Y-69043513D01*
X116238679Y-68994679D01*
X116253591Y-68982440D01*
X116270570Y-68963584D01*
X116322862Y-68925591D01*
X116367546Y-68888920D01*
X116389448Y-68877213D01*
X116414500Y-68859012D01*
X116468391Y-68835018D01*
X116514564Y-68810339D01*
X116543617Y-68801525D01*
X116577027Y-68786651D01*
X116629237Y-68775553D01*
X116674098Y-68761945D01*
X116709806Y-68758427D01*
X116751046Y-68749662D01*
X116798801Y-68749662D01*
X116840000Y-68745604D01*
X116881199Y-68749662D01*
G37*
G36*
X124501199Y-68749662D02*
G01*
X124548954Y-68749662D01*
X124590194Y-68758427D01*
X124625901Y-68761945D01*
X124670759Y-68775552D01*
X124722973Y-68786651D01*
X124756384Y-68801526D01*
X124785435Y-68810339D01*
X124831602Y-68835015D01*
X124885500Y-68859012D01*
X124910554Y-68877215D01*
X124932453Y-68888920D01*
X124977128Y-68925584D01*
X125029430Y-68963584D01*
X125046411Y-68982443D01*
X125061320Y-68994679D01*
X125101387Y-69043501D01*
X125148473Y-69095795D01*
X125158364Y-69112927D01*
X125167079Y-69123546D01*
X125199306Y-69183840D01*
X125237427Y-69249867D01*
X125241813Y-69263368D01*
X125245660Y-69270564D01*
X125266861Y-69340455D01*
X125292404Y-69419067D01*
X125293303Y-69427623D01*
X125294054Y-69430098D01*
X125301371Y-69504389D01*
X125311000Y-69596000D01*
X125301370Y-69687619D01*
X125294054Y-69761901D01*
X125293303Y-69764375D01*
X125292404Y-69772933D01*
X125266856Y-69851558D01*
X125245660Y-69921435D01*
X125241814Y-69928629D01*
X125237427Y-69942133D01*
X125199299Y-70008172D01*
X125167079Y-70068453D01*
X125158366Y-70079069D01*
X125148473Y-70096205D01*
X125101378Y-70148509D01*
X125061320Y-70197320D01*
X125046414Y-70209552D01*
X125029430Y-70228416D01*
X124977118Y-70266423D01*
X124932453Y-70303079D01*
X124910559Y-70314780D01*
X124885500Y-70332988D01*
X124831591Y-70356989D01*
X124785435Y-70381660D01*
X124756391Y-70390470D01*
X124722973Y-70405349D01*
X124670748Y-70416449D01*
X124625901Y-70430054D01*
X124590203Y-70433570D01*
X124548954Y-70442338D01*
X124501188Y-70442338D01*
X124460000Y-70446395D01*
X124418811Y-70442338D01*
X124371046Y-70442338D01*
X124329797Y-70433570D01*
X124294098Y-70430054D01*
X124249248Y-70416448D01*
X124197027Y-70405349D01*
X124163610Y-70390471D01*
X124134564Y-70381660D01*
X124088402Y-70356986D01*
X124034500Y-70332988D01*
X124009443Y-70314783D01*
X123987546Y-70303079D01*
X123942873Y-70266416D01*
X123890570Y-70228416D01*
X123873588Y-70209555D01*
X123858679Y-70197320D01*
X123818610Y-70148496D01*
X123771527Y-70096205D01*
X123761636Y-70079073D01*
X123752920Y-70068453D01*
X123720687Y-70008148D01*
X123682573Y-69942133D01*
X123678186Y-69928634D01*
X123674339Y-69921435D01*
X123653128Y-69851512D01*
X123627596Y-69772933D01*
X123626697Y-69764380D01*
X123625945Y-69761901D01*
X123618613Y-69687467D01*
X123609000Y-69596000D01*
X123618612Y-69504540D01*
X123625945Y-69430098D01*
X123626697Y-69427618D01*
X123627596Y-69419067D01*
X123653123Y-69340502D01*
X123674339Y-69270564D01*
X123678187Y-69263363D01*
X123682573Y-69249867D01*
X123720680Y-69183863D01*
X123752920Y-69123546D01*
X123761638Y-69112923D01*
X123771527Y-69095795D01*
X123818601Y-69043513D01*
X123858679Y-68994679D01*
X123873591Y-68982440D01*
X123890570Y-68963584D01*
X123942862Y-68925591D01*
X123987546Y-68888920D01*
X124009448Y-68877213D01*
X124034500Y-68859012D01*
X124088391Y-68835018D01*
X124134564Y-68810339D01*
X124163617Y-68801525D01*
X124197027Y-68786651D01*
X124249237Y-68775553D01*
X124294098Y-68761945D01*
X124329806Y-68758427D01*
X124371046Y-68749662D01*
X124418801Y-68749662D01*
X124460000Y-68745604D01*
X124501199Y-68749662D01*
G37*
G36*
X133137199Y-66717662D02*
G01*
X133184954Y-66717662D01*
X133226194Y-66726427D01*
X133261901Y-66729945D01*
X133306759Y-66743552D01*
X133358973Y-66754651D01*
X133392384Y-66769526D01*
X133421435Y-66778339D01*
X133467602Y-66803015D01*
X133521500Y-66827012D01*
X133546554Y-66845215D01*
X133568453Y-66856920D01*
X133613128Y-66893584D01*
X133665430Y-66931584D01*
X133682411Y-66950443D01*
X133697320Y-66962679D01*
X133737387Y-67011501D01*
X133784473Y-67063795D01*
X133794364Y-67080927D01*
X133803079Y-67091546D01*
X133835306Y-67151840D01*
X133873427Y-67217867D01*
X133877813Y-67231368D01*
X133881660Y-67238564D01*
X133902861Y-67308455D01*
X133928404Y-67387067D01*
X133929303Y-67395623D01*
X133930054Y-67398098D01*
X133937371Y-67472389D01*
X133947000Y-67564000D01*
X133937370Y-67655619D01*
X133930054Y-67729901D01*
X133929303Y-67732375D01*
X133928404Y-67740933D01*
X133902856Y-67819558D01*
X133881660Y-67889435D01*
X133877814Y-67896629D01*
X133873427Y-67910133D01*
X133835299Y-67976172D01*
X133803079Y-68036453D01*
X133794366Y-68047069D01*
X133784473Y-68064205D01*
X133737378Y-68116509D01*
X133697320Y-68165320D01*
X133682414Y-68177552D01*
X133665430Y-68196416D01*
X133613118Y-68234423D01*
X133568453Y-68271079D01*
X133546559Y-68282780D01*
X133521500Y-68300988D01*
X133467591Y-68324989D01*
X133421435Y-68349660D01*
X133392391Y-68358470D01*
X133358973Y-68373349D01*
X133306748Y-68384449D01*
X133261901Y-68398054D01*
X133226203Y-68401570D01*
X133184954Y-68410338D01*
X133137188Y-68410338D01*
X133096000Y-68414395D01*
X133054811Y-68410338D01*
X133007046Y-68410338D01*
X132965797Y-68401570D01*
X132930098Y-68398054D01*
X132885248Y-68384448D01*
X132833027Y-68373349D01*
X132799610Y-68358471D01*
X132770564Y-68349660D01*
X132724402Y-68324986D01*
X132670500Y-68300988D01*
X132645443Y-68282783D01*
X132623546Y-68271079D01*
X132578873Y-68234416D01*
X132526570Y-68196416D01*
X132509588Y-68177555D01*
X132494679Y-68165320D01*
X132454610Y-68116496D01*
X132407527Y-68064205D01*
X132397636Y-68047073D01*
X132388920Y-68036453D01*
X132356687Y-67976148D01*
X132318573Y-67910133D01*
X132314186Y-67896634D01*
X132310339Y-67889435D01*
X132289128Y-67819512D01*
X132263596Y-67740933D01*
X132262697Y-67732380D01*
X132261945Y-67729901D01*
X132254613Y-67655467D01*
X132245000Y-67564000D01*
X132254612Y-67472540D01*
X132261945Y-67398098D01*
X132262697Y-67395618D01*
X132263596Y-67387067D01*
X132289123Y-67308502D01*
X132310339Y-67238564D01*
X132314187Y-67231363D01*
X132318573Y-67217867D01*
X132356680Y-67151863D01*
X132388920Y-67091546D01*
X132397638Y-67080923D01*
X132407527Y-67063795D01*
X132454601Y-67011513D01*
X132494679Y-66962679D01*
X132509591Y-66950440D01*
X132526570Y-66931584D01*
X132578862Y-66893591D01*
X132623546Y-66856920D01*
X132645448Y-66845213D01*
X132670500Y-66827012D01*
X132724391Y-66803018D01*
X132770564Y-66778339D01*
X132799617Y-66769525D01*
X132833027Y-66754651D01*
X132885237Y-66743553D01*
X132930098Y-66729945D01*
X132965806Y-66726427D01*
X133007046Y-66717662D01*
X133054801Y-66717662D01*
X133096000Y-66713604D01*
X133137199Y-66717662D01*
G37*
G36*
X143297199Y-66717662D02*
G01*
X143344954Y-66717662D01*
X143386194Y-66726427D01*
X143421901Y-66729945D01*
X143466759Y-66743552D01*
X143518973Y-66754651D01*
X143552384Y-66769526D01*
X143581435Y-66778339D01*
X143627602Y-66803015D01*
X143681500Y-66827012D01*
X143706554Y-66845215D01*
X143728453Y-66856920D01*
X143773128Y-66893584D01*
X143825430Y-66931584D01*
X143842411Y-66950443D01*
X143857320Y-66962679D01*
X143897387Y-67011501D01*
X143944473Y-67063795D01*
X143954364Y-67080927D01*
X143963079Y-67091546D01*
X143995306Y-67151840D01*
X144033427Y-67217867D01*
X144037813Y-67231368D01*
X144041660Y-67238564D01*
X144062861Y-67308455D01*
X144088404Y-67387067D01*
X144089303Y-67395623D01*
X144090054Y-67398098D01*
X144097371Y-67472389D01*
X144107000Y-67564000D01*
X144097370Y-67655619D01*
X144090054Y-67729901D01*
X144089303Y-67732375D01*
X144088404Y-67740933D01*
X144062856Y-67819558D01*
X144041660Y-67889435D01*
X144037814Y-67896629D01*
X144033427Y-67910133D01*
X143995299Y-67976172D01*
X143963079Y-68036453D01*
X143954366Y-68047069D01*
X143944473Y-68064205D01*
X143897378Y-68116509D01*
X143857320Y-68165320D01*
X143842414Y-68177552D01*
X143825430Y-68196416D01*
X143773118Y-68234423D01*
X143728453Y-68271079D01*
X143706559Y-68282780D01*
X143681500Y-68300988D01*
X143627591Y-68324989D01*
X143581435Y-68349660D01*
X143552391Y-68358470D01*
X143518973Y-68373349D01*
X143466748Y-68384449D01*
X143421901Y-68398054D01*
X143386203Y-68401570D01*
X143344954Y-68410338D01*
X143297188Y-68410338D01*
X143256000Y-68414395D01*
X143214811Y-68410338D01*
X143167046Y-68410338D01*
X143125797Y-68401570D01*
X143090098Y-68398054D01*
X143045248Y-68384448D01*
X142993027Y-68373349D01*
X142959610Y-68358471D01*
X142930564Y-68349660D01*
X142884402Y-68324986D01*
X142830500Y-68300988D01*
X142805443Y-68282783D01*
X142783546Y-68271079D01*
X142738873Y-68234416D01*
X142686570Y-68196416D01*
X142669588Y-68177555D01*
X142654679Y-68165320D01*
X142614610Y-68116496D01*
X142567527Y-68064205D01*
X142557636Y-68047073D01*
X142548920Y-68036453D01*
X142516687Y-67976148D01*
X142478573Y-67910133D01*
X142474186Y-67896634D01*
X142470339Y-67889435D01*
X142449128Y-67819512D01*
X142423596Y-67740933D01*
X142422697Y-67732380D01*
X142421945Y-67729901D01*
X142414613Y-67655467D01*
X142405000Y-67564000D01*
X142414612Y-67472540D01*
X142421945Y-67398098D01*
X142422697Y-67395618D01*
X142423596Y-67387067D01*
X142449123Y-67308502D01*
X142470339Y-67238564D01*
X142474187Y-67231363D01*
X142478573Y-67217867D01*
X142516680Y-67151863D01*
X142548920Y-67091546D01*
X142557638Y-67080923D01*
X142567527Y-67063795D01*
X142614601Y-67011513D01*
X142654679Y-66962679D01*
X142669591Y-66950440D01*
X142686570Y-66931584D01*
X142738862Y-66893591D01*
X142783546Y-66856920D01*
X142805448Y-66845213D01*
X142830500Y-66827012D01*
X142884391Y-66803018D01*
X142930564Y-66778339D01*
X142959617Y-66769525D01*
X142993027Y-66754651D01*
X143045237Y-66743553D01*
X143090098Y-66729945D01*
X143125806Y-66726427D01*
X143167046Y-66717662D01*
X143214801Y-66717662D01*
X143256000Y-66713604D01*
X143297199Y-66717662D01*
G37*
G36*
X117659517Y-66208882D02*
G01*
X117676062Y-66219938D01*
X117687118Y-66236483D01*
X117691000Y-66256000D01*
X117691000Y-67856000D01*
X117687118Y-67875517D01*
X117676062Y-67892062D01*
X117659517Y-67903118D01*
X117640000Y-67907000D01*
X116040000Y-67907000D01*
X116020483Y-67903118D01*
X116003938Y-67892062D01*
X115992882Y-67875517D01*
X115989000Y-67856000D01*
X115989000Y-66256000D01*
X115992882Y-66236483D01*
X116003938Y-66219938D01*
X116020483Y-66208882D01*
X116040000Y-66205000D01*
X117640000Y-66205000D01*
X117659517Y-66208882D01*
G37*
G36*
X96053199Y-66209662D02*
G01*
X96100954Y-66209662D01*
X96142194Y-66218427D01*
X96177901Y-66221945D01*
X96222759Y-66235552D01*
X96274973Y-66246651D01*
X96308384Y-66261526D01*
X96337435Y-66270339D01*
X96383602Y-66295015D01*
X96437500Y-66319012D01*
X96462554Y-66337215D01*
X96484453Y-66348920D01*
X96529128Y-66385584D01*
X96581430Y-66423584D01*
X96598411Y-66442443D01*
X96613320Y-66454679D01*
X96653387Y-66503501D01*
X96700473Y-66555795D01*
X96710364Y-66572927D01*
X96719079Y-66583546D01*
X96751306Y-66643840D01*
X96789427Y-66709867D01*
X96793813Y-66723368D01*
X96797660Y-66730564D01*
X96818861Y-66800455D01*
X96844404Y-66879067D01*
X96845303Y-66887623D01*
X96846054Y-66890098D01*
X96853371Y-66964389D01*
X96863000Y-67056000D01*
X96853370Y-67147619D01*
X96846054Y-67221901D01*
X96845303Y-67224375D01*
X96844404Y-67232933D01*
X96818856Y-67311558D01*
X96797660Y-67381435D01*
X96793814Y-67388629D01*
X96789427Y-67402133D01*
X96751299Y-67468172D01*
X96719079Y-67528453D01*
X96710366Y-67539069D01*
X96700473Y-67556205D01*
X96653378Y-67608509D01*
X96613320Y-67657320D01*
X96598414Y-67669552D01*
X96581430Y-67688416D01*
X96529118Y-67726423D01*
X96484453Y-67763079D01*
X96462559Y-67774780D01*
X96437500Y-67792988D01*
X96383591Y-67816989D01*
X96337435Y-67841660D01*
X96308391Y-67850470D01*
X96274973Y-67865349D01*
X96222748Y-67876449D01*
X96177901Y-67890054D01*
X96142203Y-67893570D01*
X96100954Y-67902338D01*
X96053188Y-67902338D01*
X96012000Y-67906395D01*
X95970811Y-67902338D01*
X95923046Y-67902338D01*
X95881797Y-67893570D01*
X95846098Y-67890054D01*
X95801248Y-67876448D01*
X95749027Y-67865349D01*
X95715610Y-67850471D01*
X95686564Y-67841660D01*
X95640402Y-67816986D01*
X95586500Y-67792988D01*
X95561443Y-67774783D01*
X95539546Y-67763079D01*
X95494873Y-67726416D01*
X95442570Y-67688416D01*
X95425588Y-67669555D01*
X95410679Y-67657320D01*
X95370610Y-67608496D01*
X95323527Y-67556205D01*
X95313636Y-67539073D01*
X95304920Y-67528453D01*
X95272687Y-67468148D01*
X95234573Y-67402133D01*
X95230186Y-67388634D01*
X95226339Y-67381435D01*
X95205128Y-67311512D01*
X95179596Y-67232933D01*
X95178697Y-67224380D01*
X95177945Y-67221901D01*
X95170613Y-67147467D01*
X95161000Y-67056000D01*
X95170612Y-66964540D01*
X95177945Y-66890098D01*
X95178697Y-66887618D01*
X95179596Y-66879067D01*
X95205123Y-66800502D01*
X95226339Y-66730564D01*
X95230187Y-66723363D01*
X95234573Y-66709867D01*
X95272680Y-66643863D01*
X95304920Y-66583546D01*
X95313638Y-66572923D01*
X95323527Y-66555795D01*
X95370601Y-66503513D01*
X95410679Y-66454679D01*
X95425591Y-66442440D01*
X95442570Y-66423584D01*
X95494862Y-66385591D01*
X95539546Y-66348920D01*
X95561448Y-66337213D01*
X95586500Y-66319012D01*
X95640391Y-66295018D01*
X95686564Y-66270339D01*
X95715617Y-66261525D01*
X95749027Y-66246651D01*
X95801237Y-66235553D01*
X95846098Y-66221945D01*
X95881806Y-66218427D01*
X95923046Y-66209662D01*
X95970801Y-66209662D01*
X96012000Y-66205604D01*
X96053199Y-66209662D01*
G37*
G36*
X106213199Y-66209662D02*
G01*
X106260954Y-66209662D01*
X106302194Y-66218427D01*
X106337901Y-66221945D01*
X106382759Y-66235552D01*
X106434973Y-66246651D01*
X106468384Y-66261526D01*
X106497435Y-66270339D01*
X106543602Y-66295015D01*
X106597500Y-66319012D01*
X106622554Y-66337215D01*
X106644453Y-66348920D01*
X106689128Y-66385584D01*
X106741430Y-66423584D01*
X106758411Y-66442443D01*
X106773320Y-66454679D01*
X106813387Y-66503501D01*
X106860473Y-66555795D01*
X106870364Y-66572927D01*
X106879079Y-66583546D01*
X106911306Y-66643840D01*
X106949427Y-66709867D01*
X106953813Y-66723368D01*
X106957660Y-66730564D01*
X106978861Y-66800455D01*
X107004404Y-66879067D01*
X107005303Y-66887623D01*
X107006054Y-66890098D01*
X107013371Y-66964389D01*
X107023000Y-67056000D01*
X107013370Y-67147619D01*
X107006054Y-67221901D01*
X107005303Y-67224375D01*
X107004404Y-67232933D01*
X106978856Y-67311558D01*
X106957660Y-67381435D01*
X106953814Y-67388629D01*
X106949427Y-67402133D01*
X106911299Y-67468172D01*
X106879079Y-67528453D01*
X106870366Y-67539069D01*
X106860473Y-67556205D01*
X106813378Y-67608509D01*
X106773320Y-67657320D01*
X106758414Y-67669552D01*
X106741430Y-67688416D01*
X106689118Y-67726423D01*
X106644453Y-67763079D01*
X106622559Y-67774780D01*
X106597500Y-67792988D01*
X106543591Y-67816989D01*
X106497435Y-67841660D01*
X106468391Y-67850470D01*
X106434973Y-67865349D01*
X106382748Y-67876449D01*
X106337901Y-67890054D01*
X106302203Y-67893570D01*
X106260954Y-67902338D01*
X106213188Y-67902338D01*
X106172000Y-67906395D01*
X106130811Y-67902338D01*
X106083046Y-67902338D01*
X106041797Y-67893570D01*
X106006098Y-67890054D01*
X105961248Y-67876448D01*
X105909027Y-67865349D01*
X105875610Y-67850471D01*
X105846564Y-67841660D01*
X105800402Y-67816986D01*
X105746500Y-67792988D01*
X105721443Y-67774783D01*
X105699546Y-67763079D01*
X105654873Y-67726416D01*
X105602570Y-67688416D01*
X105585588Y-67669555D01*
X105570679Y-67657320D01*
X105530610Y-67608496D01*
X105483527Y-67556205D01*
X105473636Y-67539073D01*
X105464920Y-67528453D01*
X105432687Y-67468148D01*
X105394573Y-67402133D01*
X105390186Y-67388634D01*
X105386339Y-67381435D01*
X105365128Y-67311512D01*
X105339596Y-67232933D01*
X105338697Y-67224380D01*
X105337945Y-67221901D01*
X105330613Y-67147467D01*
X105321000Y-67056000D01*
X105330612Y-66964540D01*
X105337945Y-66890098D01*
X105338697Y-66887618D01*
X105339596Y-66879067D01*
X105365123Y-66800502D01*
X105386339Y-66730564D01*
X105390187Y-66723363D01*
X105394573Y-66709867D01*
X105432680Y-66643863D01*
X105464920Y-66583546D01*
X105473638Y-66572923D01*
X105483527Y-66555795D01*
X105530601Y-66503513D01*
X105570679Y-66454679D01*
X105585591Y-66442440D01*
X105602570Y-66423584D01*
X105654862Y-66385591D01*
X105699546Y-66348920D01*
X105721448Y-66337213D01*
X105746500Y-66319012D01*
X105800391Y-66295018D01*
X105846564Y-66270339D01*
X105875617Y-66261525D01*
X105909027Y-66246651D01*
X105961237Y-66235553D01*
X106006098Y-66221945D01*
X106041806Y-66218427D01*
X106083046Y-66209662D01*
X106130801Y-66209662D01*
X106172000Y-66205604D01*
X106213199Y-66209662D01*
G37*
G36*
X124501199Y-66209662D02*
G01*
X124548954Y-66209662D01*
X124590194Y-66218427D01*
X124625901Y-66221945D01*
X124670759Y-66235552D01*
X124722973Y-66246651D01*
X124756384Y-66261526D01*
X124785435Y-66270339D01*
X124831602Y-66295015D01*
X124885500Y-66319012D01*
X124910554Y-66337215D01*
X124932453Y-66348920D01*
X124977128Y-66385584D01*
X125029430Y-66423584D01*
X125046411Y-66442443D01*
X125061320Y-66454679D01*
X125101387Y-66503501D01*
X125148473Y-66555795D01*
X125158364Y-66572927D01*
X125167079Y-66583546D01*
X125199306Y-66643840D01*
X125237427Y-66709867D01*
X125241813Y-66723368D01*
X125245660Y-66730564D01*
X125266861Y-66800455D01*
X125292404Y-66879067D01*
X125293303Y-66887623D01*
X125294054Y-66890098D01*
X125301371Y-66964389D01*
X125311000Y-67056000D01*
X125301370Y-67147619D01*
X125294054Y-67221901D01*
X125293303Y-67224375D01*
X125292404Y-67232933D01*
X125266856Y-67311558D01*
X125245660Y-67381435D01*
X125241814Y-67388629D01*
X125237427Y-67402133D01*
X125199299Y-67468172D01*
X125167079Y-67528453D01*
X125158366Y-67539069D01*
X125148473Y-67556205D01*
X125101378Y-67608509D01*
X125061320Y-67657320D01*
X125046414Y-67669552D01*
X125029430Y-67688416D01*
X124977118Y-67726423D01*
X124932453Y-67763079D01*
X124910559Y-67774780D01*
X124885500Y-67792988D01*
X124831591Y-67816989D01*
X124785435Y-67841660D01*
X124756391Y-67850470D01*
X124722973Y-67865349D01*
X124670748Y-67876449D01*
X124625901Y-67890054D01*
X124590203Y-67893570D01*
X124548954Y-67902338D01*
X124501188Y-67902338D01*
X124460000Y-67906395D01*
X124418811Y-67902338D01*
X124371046Y-67902338D01*
X124329797Y-67893570D01*
X124294098Y-67890054D01*
X124249248Y-67876448D01*
X124197027Y-67865349D01*
X124163610Y-67850471D01*
X124134564Y-67841660D01*
X124088402Y-67816986D01*
X124034500Y-67792988D01*
X124009443Y-67774783D01*
X123987546Y-67763079D01*
X123942873Y-67726416D01*
X123890570Y-67688416D01*
X123873588Y-67669555D01*
X123858679Y-67657320D01*
X123818610Y-67608496D01*
X123771527Y-67556205D01*
X123761636Y-67539073D01*
X123752920Y-67528453D01*
X123720687Y-67468148D01*
X123682573Y-67402133D01*
X123678186Y-67388634D01*
X123674339Y-67381435D01*
X123653128Y-67311512D01*
X123627596Y-67232933D01*
X123626697Y-67224380D01*
X123625945Y-67221901D01*
X123618613Y-67147467D01*
X123609000Y-67056000D01*
X123618612Y-66964540D01*
X123625945Y-66890098D01*
X123626697Y-66887618D01*
X123627596Y-66879067D01*
X123653123Y-66800502D01*
X123674339Y-66730564D01*
X123678187Y-66723363D01*
X123682573Y-66709867D01*
X123720680Y-66643863D01*
X123752920Y-66583546D01*
X123761638Y-66572923D01*
X123771527Y-66555795D01*
X123818601Y-66503513D01*
X123858679Y-66454679D01*
X123873591Y-66442440D01*
X123890570Y-66423584D01*
X123942862Y-66385591D01*
X123987546Y-66348920D01*
X124009448Y-66337213D01*
X124034500Y-66319012D01*
X124088391Y-66295018D01*
X124134564Y-66270339D01*
X124163617Y-66261525D01*
X124197027Y-66246651D01*
X124249237Y-66235553D01*
X124294098Y-66221945D01*
X124329806Y-66218427D01*
X124371046Y-66209662D01*
X124418801Y-66209662D01*
X124460000Y-66205604D01*
X124501199Y-66209662D01*
G37*
G36*
X112826938Y-65074017D02*
G01*
X112872923Y-65074017D01*
X112924139Y-65083590D01*
X112981040Y-65089195D01*
X113024261Y-65102306D01*
X113063474Y-65109636D01*
X113117785Y-65130676D01*
X113178200Y-65149003D01*
X113212720Y-65167454D01*
X113244232Y-65179662D01*
X113298977Y-65213559D01*
X113359904Y-65246125D01*
X113385506Y-65267136D01*
X113409048Y-65281713D01*
X113461212Y-65329267D01*
X113519169Y-65376831D01*
X113536342Y-65397757D01*
X113552301Y-65412305D01*
X113598629Y-65473653D01*
X113649875Y-65536096D01*
X113659783Y-65554634D01*
X113669122Y-65567000D01*
X113706274Y-65641613D01*
X113746997Y-65717800D01*
X113751340Y-65732117D01*
X113755528Y-65740528D01*
X113780267Y-65827476D01*
X113806805Y-65914960D01*
X113807676Y-65923811D01*
X113808577Y-65926975D01*
X113817938Y-66028002D01*
X113827000Y-66120000D01*
X113817938Y-66212005D01*
X113808577Y-66313024D01*
X113807676Y-66316187D01*
X113806805Y-66325040D01*
X113780262Y-66412538D01*
X113755528Y-66499471D01*
X113751341Y-66507879D01*
X113746997Y-66522200D01*
X113706267Y-66598399D01*
X113669122Y-66672999D01*
X113659785Y-66685362D01*
X113649875Y-66703904D01*
X113598620Y-66766357D01*
X113552301Y-66827694D01*
X113536345Y-66842238D01*
X113519169Y-66863169D01*
X113461201Y-66910741D01*
X113409048Y-66958286D01*
X113385511Y-66972859D01*
X113359904Y-66993875D01*
X113298965Y-67026447D01*
X113244232Y-67060337D01*
X113212726Y-67072542D01*
X113178200Y-67090997D01*
X113117773Y-67109327D01*
X113063474Y-67130363D01*
X113024268Y-67137691D01*
X112981040Y-67150805D01*
X112924136Y-67156409D01*
X112872923Y-67165983D01*
X112826938Y-67165983D01*
X112776000Y-67171000D01*
X112725062Y-67165983D01*
X112679077Y-67165983D01*
X112627863Y-67156409D01*
X112570960Y-67150805D01*
X112527732Y-67137692D01*
X112488525Y-67130363D01*
X112434221Y-67109325D01*
X112373800Y-67090997D01*
X112339275Y-67072543D01*
X112307767Y-67060337D01*
X112253027Y-67026443D01*
X112192096Y-66993875D01*
X112166491Y-66972861D01*
X112142951Y-66958286D01*
X112090788Y-66910733D01*
X112032831Y-66863169D01*
X112015656Y-66842242D01*
X111999698Y-66827694D01*
X111953367Y-66766342D01*
X111902125Y-66703904D01*
X111892216Y-66685366D01*
X111882877Y-66672999D01*
X111845717Y-66598372D01*
X111805003Y-66522200D01*
X111800660Y-66507884D01*
X111796471Y-66499471D01*
X111771721Y-66412485D01*
X111745195Y-66325040D01*
X111744323Y-66316192D01*
X111743422Y-66313024D01*
X111734044Y-66211833D01*
X111725000Y-66120000D01*
X111734044Y-66028173D01*
X111743422Y-65926975D01*
X111744323Y-65923805D01*
X111745195Y-65914960D01*
X111771716Y-65827529D01*
X111796471Y-65740528D01*
X111800661Y-65732112D01*
X111805003Y-65717800D01*
X111845710Y-65641641D01*
X111882877Y-65567000D01*
X111892218Y-65554629D01*
X111902125Y-65536096D01*
X111953357Y-65473668D01*
X111999698Y-65412305D01*
X112015660Y-65397753D01*
X112032831Y-65376831D01*
X112090777Y-65329275D01*
X112142951Y-65281713D01*
X112166496Y-65267134D01*
X112192096Y-65246125D01*
X112253015Y-65213563D01*
X112307767Y-65179662D01*
X112339282Y-65167452D01*
X112373800Y-65149003D01*
X112434209Y-65130677D01*
X112488525Y-65109636D01*
X112527739Y-65102305D01*
X112570960Y-65089195D01*
X112627860Y-65083590D01*
X112679077Y-65074017D01*
X112725062Y-65074017D01*
X112776000Y-65069000D01*
X112826938Y-65074017D01*
G37*
G36*
X128565199Y-65193662D02*
G01*
X128612954Y-65193662D01*
X128654194Y-65202427D01*
X128689901Y-65205945D01*
X128734759Y-65219552D01*
X128786973Y-65230651D01*
X128820384Y-65245526D01*
X128849435Y-65254339D01*
X128895602Y-65279015D01*
X128949500Y-65303012D01*
X128974554Y-65321215D01*
X128996453Y-65332920D01*
X129041128Y-65369584D01*
X129093430Y-65407584D01*
X129110411Y-65426443D01*
X129125320Y-65438679D01*
X129165387Y-65487501D01*
X129212473Y-65539795D01*
X129222364Y-65556927D01*
X129231079Y-65567546D01*
X129263306Y-65627840D01*
X129301427Y-65693867D01*
X129305813Y-65707368D01*
X129309660Y-65714564D01*
X129330861Y-65784455D01*
X129356404Y-65863067D01*
X129357303Y-65871623D01*
X129358054Y-65874098D01*
X129365371Y-65948389D01*
X129375000Y-66040000D01*
X129365370Y-66131619D01*
X129358054Y-66205901D01*
X129357303Y-66208375D01*
X129356404Y-66216933D01*
X129330856Y-66295558D01*
X129309660Y-66365435D01*
X129305814Y-66372629D01*
X129301427Y-66386133D01*
X129263299Y-66452172D01*
X129231079Y-66512453D01*
X129222366Y-66523069D01*
X129212473Y-66540205D01*
X129165378Y-66592509D01*
X129125320Y-66641320D01*
X129110414Y-66653552D01*
X129093430Y-66672416D01*
X129041118Y-66710423D01*
X128996453Y-66747079D01*
X128974559Y-66758780D01*
X128949500Y-66776988D01*
X128895591Y-66800989D01*
X128849435Y-66825660D01*
X128820391Y-66834470D01*
X128786973Y-66849349D01*
X128734748Y-66860449D01*
X128689901Y-66874054D01*
X128654203Y-66877570D01*
X128612954Y-66886338D01*
X128565188Y-66886338D01*
X128524000Y-66890395D01*
X128482811Y-66886338D01*
X128435046Y-66886338D01*
X128393797Y-66877570D01*
X128358098Y-66874054D01*
X128313248Y-66860448D01*
X128261027Y-66849349D01*
X128227610Y-66834471D01*
X128198564Y-66825660D01*
X128152402Y-66800986D01*
X128098500Y-66776988D01*
X128073443Y-66758783D01*
X128051546Y-66747079D01*
X128006873Y-66710416D01*
X127954570Y-66672416D01*
X127937588Y-66653555D01*
X127922679Y-66641320D01*
X127882610Y-66592496D01*
X127835527Y-66540205D01*
X127825636Y-66523073D01*
X127816920Y-66512453D01*
X127784687Y-66452148D01*
X127746573Y-66386133D01*
X127742186Y-66372634D01*
X127738339Y-66365435D01*
X127717128Y-66295512D01*
X127691596Y-66216933D01*
X127690697Y-66208380D01*
X127689945Y-66205901D01*
X127682613Y-66131467D01*
X127673000Y-66040000D01*
X127682612Y-65948540D01*
X127689945Y-65874098D01*
X127690697Y-65871618D01*
X127691596Y-65863067D01*
X127717123Y-65784502D01*
X127738339Y-65714564D01*
X127742187Y-65707363D01*
X127746573Y-65693867D01*
X127784680Y-65627863D01*
X127816920Y-65567546D01*
X127825638Y-65556923D01*
X127835527Y-65539795D01*
X127882601Y-65487513D01*
X127922679Y-65438679D01*
X127937591Y-65426440D01*
X127954570Y-65407584D01*
X128006862Y-65369591D01*
X128051546Y-65332920D01*
X128073448Y-65321213D01*
X128098500Y-65303012D01*
X128152391Y-65279018D01*
X128198564Y-65254339D01*
X128227617Y-65245525D01*
X128261027Y-65230651D01*
X128313237Y-65219553D01*
X128358098Y-65205945D01*
X128393806Y-65202427D01*
X128435046Y-65193662D01*
X128482801Y-65193662D01*
X128524000Y-65189604D01*
X128565199Y-65193662D01*
G37*
G36*
X133137199Y-63669662D02*
G01*
X133184954Y-63669662D01*
X133226194Y-63678427D01*
X133261901Y-63681945D01*
X133306759Y-63695552D01*
X133358973Y-63706651D01*
X133392384Y-63721526D01*
X133421435Y-63730339D01*
X133467602Y-63755015D01*
X133521500Y-63779012D01*
X133546554Y-63797215D01*
X133568453Y-63808920D01*
X133613128Y-63845584D01*
X133665430Y-63883584D01*
X133682411Y-63902443D01*
X133697320Y-63914679D01*
X133737387Y-63963501D01*
X133784473Y-64015795D01*
X133794364Y-64032927D01*
X133803079Y-64043546D01*
X133835306Y-64103840D01*
X133873427Y-64169867D01*
X133877813Y-64183368D01*
X133881660Y-64190564D01*
X133902861Y-64260455D01*
X133928404Y-64339067D01*
X133929303Y-64347623D01*
X133930054Y-64350098D01*
X133937371Y-64424389D01*
X133947000Y-64516000D01*
X133937370Y-64607619D01*
X133930054Y-64681901D01*
X133929303Y-64684375D01*
X133928404Y-64692933D01*
X133902856Y-64771558D01*
X133881660Y-64841435D01*
X133877814Y-64848629D01*
X133873427Y-64862133D01*
X133835299Y-64928172D01*
X133803079Y-64988453D01*
X133794366Y-64999069D01*
X133784473Y-65016205D01*
X133737378Y-65068509D01*
X133697320Y-65117320D01*
X133682414Y-65129552D01*
X133665430Y-65148416D01*
X133613118Y-65186423D01*
X133568453Y-65223079D01*
X133546559Y-65234780D01*
X133521500Y-65252988D01*
X133467591Y-65276989D01*
X133421435Y-65301660D01*
X133392391Y-65310470D01*
X133358973Y-65325349D01*
X133306748Y-65336449D01*
X133261901Y-65350054D01*
X133226203Y-65353570D01*
X133184954Y-65362338D01*
X133137188Y-65362338D01*
X133096000Y-65366395D01*
X133054811Y-65362338D01*
X133007046Y-65362338D01*
X132965797Y-65353570D01*
X132930098Y-65350054D01*
X132885248Y-65336448D01*
X132833027Y-65325349D01*
X132799610Y-65310471D01*
X132770564Y-65301660D01*
X132724402Y-65276986D01*
X132670500Y-65252988D01*
X132645443Y-65234783D01*
X132623546Y-65223079D01*
X132578873Y-65186416D01*
X132526570Y-65148416D01*
X132509588Y-65129555D01*
X132494679Y-65117320D01*
X132454610Y-65068496D01*
X132407527Y-65016205D01*
X132397636Y-64999073D01*
X132388920Y-64988453D01*
X132356687Y-64928148D01*
X132318573Y-64862133D01*
X132314186Y-64848634D01*
X132310339Y-64841435D01*
X132289128Y-64771512D01*
X132263596Y-64692933D01*
X132262697Y-64684380D01*
X132261945Y-64681901D01*
X132254613Y-64607467D01*
X132245000Y-64516000D01*
X132254612Y-64424540D01*
X132261945Y-64350098D01*
X132262697Y-64347618D01*
X132263596Y-64339067D01*
X132289123Y-64260502D01*
X132310339Y-64190564D01*
X132314187Y-64183363D01*
X132318573Y-64169867D01*
X132356680Y-64103863D01*
X132388920Y-64043546D01*
X132397638Y-64032923D01*
X132407527Y-64015795D01*
X132454601Y-63963513D01*
X132494679Y-63914679D01*
X132509591Y-63902440D01*
X132526570Y-63883584D01*
X132578862Y-63845591D01*
X132623546Y-63808920D01*
X132645448Y-63797213D01*
X132670500Y-63779012D01*
X132724391Y-63755018D01*
X132770564Y-63730339D01*
X132799617Y-63721525D01*
X132833027Y-63706651D01*
X132885237Y-63695553D01*
X132930098Y-63681945D01*
X132965806Y-63678427D01*
X133007046Y-63669662D01*
X133054801Y-63669662D01*
X133096000Y-63665604D01*
X133137199Y-63669662D01*
G37*
G36*
X143297199Y-63669662D02*
G01*
X143344954Y-63669662D01*
X143386194Y-63678427D01*
X143421901Y-63681945D01*
X143466759Y-63695552D01*
X143518973Y-63706651D01*
X143552384Y-63721526D01*
X143581435Y-63730339D01*
X143627602Y-63755015D01*
X143681500Y-63779012D01*
X143706554Y-63797215D01*
X143728453Y-63808920D01*
X143773128Y-63845584D01*
X143825430Y-63883584D01*
X143842411Y-63902443D01*
X143857320Y-63914679D01*
X143897387Y-63963501D01*
X143944473Y-64015795D01*
X143954364Y-64032927D01*
X143963079Y-64043546D01*
X143995306Y-64103840D01*
X144033427Y-64169867D01*
X144037813Y-64183368D01*
X144041660Y-64190564D01*
X144062861Y-64260455D01*
X144088404Y-64339067D01*
X144089303Y-64347623D01*
X144090054Y-64350098D01*
X144097371Y-64424389D01*
X144107000Y-64516000D01*
X144097370Y-64607619D01*
X144090054Y-64681901D01*
X144089303Y-64684375D01*
X144088404Y-64692933D01*
X144062856Y-64771558D01*
X144041660Y-64841435D01*
X144037814Y-64848629D01*
X144033427Y-64862133D01*
X143995299Y-64928172D01*
X143963079Y-64988453D01*
X143954366Y-64999069D01*
X143944473Y-65016205D01*
X143897378Y-65068509D01*
X143857320Y-65117320D01*
X143842414Y-65129552D01*
X143825430Y-65148416D01*
X143773118Y-65186423D01*
X143728453Y-65223079D01*
X143706559Y-65234780D01*
X143681500Y-65252988D01*
X143627591Y-65276989D01*
X143581435Y-65301660D01*
X143552391Y-65310470D01*
X143518973Y-65325349D01*
X143466748Y-65336449D01*
X143421901Y-65350054D01*
X143386203Y-65353570D01*
X143344954Y-65362338D01*
X143297188Y-65362338D01*
X143256000Y-65366395D01*
X143214811Y-65362338D01*
X143167046Y-65362338D01*
X143125797Y-65353570D01*
X143090098Y-65350054D01*
X143045248Y-65336448D01*
X142993027Y-65325349D01*
X142959610Y-65310471D01*
X142930564Y-65301660D01*
X142884402Y-65276986D01*
X142830500Y-65252988D01*
X142805443Y-65234783D01*
X142783546Y-65223079D01*
X142738873Y-65186416D01*
X142686570Y-65148416D01*
X142669588Y-65129555D01*
X142654679Y-65117320D01*
X142614610Y-65068496D01*
X142567527Y-65016205D01*
X142557636Y-64999073D01*
X142548920Y-64988453D01*
X142516687Y-64928148D01*
X142478573Y-64862133D01*
X142474186Y-64848634D01*
X142470339Y-64841435D01*
X142449128Y-64771512D01*
X142423596Y-64692933D01*
X142422697Y-64684380D01*
X142421945Y-64681901D01*
X142414613Y-64607467D01*
X142405000Y-64516000D01*
X142414612Y-64424540D01*
X142421945Y-64350098D01*
X142422697Y-64347618D01*
X142423596Y-64339067D01*
X142449123Y-64260502D01*
X142470339Y-64190564D01*
X142474187Y-64183363D01*
X142478573Y-64169867D01*
X142516680Y-64103863D01*
X142548920Y-64043546D01*
X142557638Y-64032923D01*
X142567527Y-64015795D01*
X142614601Y-63963513D01*
X142654679Y-63914679D01*
X142669591Y-63902440D01*
X142686570Y-63883584D01*
X142738862Y-63845591D01*
X142783546Y-63808920D01*
X142805448Y-63797213D01*
X142830500Y-63779012D01*
X142884391Y-63755018D01*
X142930564Y-63730339D01*
X142959617Y-63721525D01*
X142993027Y-63706651D01*
X143045237Y-63695553D01*
X143090098Y-63681945D01*
X143125806Y-63678427D01*
X143167046Y-63669662D01*
X143214801Y-63669662D01*
X143256000Y-63665604D01*
X143297199Y-63669662D01*
G37*
G36*
X96053199Y-63161662D02*
G01*
X96100954Y-63161662D01*
X96142194Y-63170427D01*
X96177901Y-63173945D01*
X96222759Y-63187552D01*
X96274973Y-63198651D01*
X96308384Y-63213526D01*
X96337435Y-63222339D01*
X96383602Y-63247015D01*
X96437500Y-63271012D01*
X96462554Y-63289215D01*
X96484453Y-63300920D01*
X96529128Y-63337584D01*
X96581430Y-63375584D01*
X96598411Y-63394443D01*
X96613320Y-63406679D01*
X96653387Y-63455501D01*
X96700473Y-63507795D01*
X96710364Y-63524927D01*
X96719079Y-63535546D01*
X96751306Y-63595840D01*
X96789427Y-63661867D01*
X96793813Y-63675368D01*
X96797660Y-63682564D01*
X96818861Y-63752455D01*
X96844404Y-63831067D01*
X96845303Y-63839623D01*
X96846054Y-63842098D01*
X96853371Y-63916389D01*
X96863000Y-64008000D01*
X96853370Y-64099619D01*
X96846054Y-64173901D01*
X96845303Y-64176375D01*
X96844404Y-64184933D01*
X96818856Y-64263558D01*
X96797660Y-64333435D01*
X96793814Y-64340629D01*
X96789427Y-64354133D01*
X96751299Y-64420172D01*
X96719079Y-64480453D01*
X96710366Y-64491069D01*
X96700473Y-64508205D01*
X96653378Y-64560509D01*
X96613320Y-64609320D01*
X96598414Y-64621552D01*
X96581430Y-64640416D01*
X96529118Y-64678423D01*
X96484453Y-64715079D01*
X96462559Y-64726780D01*
X96437500Y-64744988D01*
X96383591Y-64768989D01*
X96337435Y-64793660D01*
X96308391Y-64802470D01*
X96274973Y-64817349D01*
X96222748Y-64828449D01*
X96177901Y-64842054D01*
X96142203Y-64845570D01*
X96100954Y-64854338D01*
X96053188Y-64854338D01*
X96012000Y-64858395D01*
X95970811Y-64854338D01*
X95923046Y-64854338D01*
X95881797Y-64845570D01*
X95846098Y-64842054D01*
X95801248Y-64828448D01*
X95749027Y-64817349D01*
X95715610Y-64802471D01*
X95686564Y-64793660D01*
X95640402Y-64768986D01*
X95586500Y-64744988D01*
X95561443Y-64726783D01*
X95539546Y-64715079D01*
X95494873Y-64678416D01*
X95442570Y-64640416D01*
X95425588Y-64621555D01*
X95410679Y-64609320D01*
X95370610Y-64560496D01*
X95323527Y-64508205D01*
X95313636Y-64491073D01*
X95304920Y-64480453D01*
X95272687Y-64420148D01*
X95234573Y-64354133D01*
X95230186Y-64340634D01*
X95226339Y-64333435D01*
X95205128Y-64263512D01*
X95179596Y-64184933D01*
X95178697Y-64176380D01*
X95177945Y-64173901D01*
X95170613Y-64099467D01*
X95161000Y-64008000D01*
X95170612Y-63916540D01*
X95177945Y-63842098D01*
X95178697Y-63839618D01*
X95179596Y-63831067D01*
X95205123Y-63752502D01*
X95226339Y-63682564D01*
X95230187Y-63675363D01*
X95234573Y-63661867D01*
X95272680Y-63595863D01*
X95304920Y-63535546D01*
X95313638Y-63524923D01*
X95323527Y-63507795D01*
X95370601Y-63455513D01*
X95410679Y-63406679D01*
X95425591Y-63394440D01*
X95442570Y-63375584D01*
X95494862Y-63337591D01*
X95539546Y-63300920D01*
X95561448Y-63289213D01*
X95586500Y-63271012D01*
X95640391Y-63247018D01*
X95686564Y-63222339D01*
X95715617Y-63213525D01*
X95749027Y-63198651D01*
X95801237Y-63187553D01*
X95846098Y-63173945D01*
X95881806Y-63170427D01*
X95923046Y-63161662D01*
X95970801Y-63161662D01*
X96012000Y-63157604D01*
X96053199Y-63161662D01*
G37*
G36*
X106213199Y-63161662D02*
G01*
X106260954Y-63161662D01*
X106302194Y-63170427D01*
X106337901Y-63173945D01*
X106382759Y-63187552D01*
X106434973Y-63198651D01*
X106468384Y-63213526D01*
X106497435Y-63222339D01*
X106543602Y-63247015D01*
X106597500Y-63271012D01*
X106622554Y-63289215D01*
X106644453Y-63300920D01*
X106689128Y-63337584D01*
X106741430Y-63375584D01*
X106758411Y-63394443D01*
X106773320Y-63406679D01*
X106813387Y-63455501D01*
X106860473Y-63507795D01*
X106870364Y-63524927D01*
X106879079Y-63535546D01*
X106911306Y-63595840D01*
X106949427Y-63661867D01*
X106953813Y-63675368D01*
X106957660Y-63682564D01*
X106978861Y-63752455D01*
X107004404Y-63831067D01*
X107005303Y-63839623D01*
X107006054Y-63842098D01*
X107013371Y-63916389D01*
X107023000Y-64008000D01*
X107013370Y-64099619D01*
X107006054Y-64173901D01*
X107005303Y-64176375D01*
X107004404Y-64184933D01*
X106978856Y-64263558D01*
X106957660Y-64333435D01*
X106953814Y-64340629D01*
X106949427Y-64354133D01*
X106911299Y-64420172D01*
X106879079Y-64480453D01*
X106870366Y-64491069D01*
X106860473Y-64508205D01*
X106813378Y-64560509D01*
X106773320Y-64609320D01*
X106758414Y-64621552D01*
X106741430Y-64640416D01*
X106689118Y-64678423D01*
X106644453Y-64715079D01*
X106622559Y-64726780D01*
X106597500Y-64744988D01*
X106543591Y-64768989D01*
X106497435Y-64793660D01*
X106468391Y-64802470D01*
X106434973Y-64817349D01*
X106382748Y-64828449D01*
X106337901Y-64842054D01*
X106302203Y-64845570D01*
X106260954Y-64854338D01*
X106213188Y-64854338D01*
X106172000Y-64858395D01*
X106130811Y-64854338D01*
X106083046Y-64854338D01*
X106041797Y-64845570D01*
X106006098Y-64842054D01*
X105961248Y-64828448D01*
X105909027Y-64817349D01*
X105875610Y-64802471D01*
X105846564Y-64793660D01*
X105800402Y-64768986D01*
X105746500Y-64744988D01*
X105721443Y-64726783D01*
X105699546Y-64715079D01*
X105654873Y-64678416D01*
X105602570Y-64640416D01*
X105585588Y-64621555D01*
X105570679Y-64609320D01*
X105530610Y-64560496D01*
X105483527Y-64508205D01*
X105473636Y-64491073D01*
X105464920Y-64480453D01*
X105432687Y-64420148D01*
X105394573Y-64354133D01*
X105390186Y-64340634D01*
X105386339Y-64333435D01*
X105365128Y-64263512D01*
X105339596Y-64184933D01*
X105338697Y-64176380D01*
X105337945Y-64173901D01*
X105330613Y-64099467D01*
X105321000Y-64008000D01*
X105330612Y-63916540D01*
X105337945Y-63842098D01*
X105338697Y-63839618D01*
X105339596Y-63831067D01*
X105365123Y-63752502D01*
X105386339Y-63682564D01*
X105390187Y-63675363D01*
X105394573Y-63661867D01*
X105432680Y-63595863D01*
X105464920Y-63535546D01*
X105473638Y-63524923D01*
X105483527Y-63507795D01*
X105530601Y-63455513D01*
X105570679Y-63406679D01*
X105585591Y-63394440D01*
X105602570Y-63375584D01*
X105654862Y-63337591D01*
X105699546Y-63300920D01*
X105721448Y-63289213D01*
X105746500Y-63271012D01*
X105800391Y-63247018D01*
X105846564Y-63222339D01*
X105875617Y-63213525D01*
X105909027Y-63198651D01*
X105961237Y-63187553D01*
X106006098Y-63173945D01*
X106041806Y-63170427D01*
X106083046Y-63161662D01*
X106130801Y-63161662D01*
X106172000Y-63157604D01*
X106213199Y-63161662D01*
G37*
G36*
X118987168Y-61639199D02*
G01*
X119036872Y-61641431D01*
X119037884Y-61641614D01*
X119045657Y-61641985D01*
X119138023Y-61659787D01*
X119233772Y-61677163D01*
X119239678Y-61679379D01*
X119251188Y-61681598D01*
X119335137Y-61715206D01*
X119418486Y-61746488D01*
X119429069Y-61752811D01*
X119445507Y-61759392D01*
X119517208Y-61805471D01*
X119587853Y-61847680D01*
X119601672Y-61859754D01*
X119621593Y-61872556D01*
X119679246Y-61927528D01*
X119736431Y-61977489D01*
X119751622Y-61996538D01*
X119773080Y-62016998D01*
X119815960Y-62077215D01*
X119859442Y-62131739D01*
X119873841Y-62158497D01*
X119894494Y-62187500D01*
X119922789Y-62249458D01*
X119952936Y-62305480D01*
X119964185Y-62340103D01*
X119981446Y-62377898D01*
X119996121Y-62438392D01*
X120013902Y-62493115D01*
X120019598Y-62535165D01*
X120030793Y-62581311D01*
X120033474Y-62637599D01*
X120040387Y-62688628D01*
X120038212Y-62737049D01*
X120040753Y-62790388D01*
X120033573Y-62840326D01*
X120031534Y-62885722D01*
X120019407Y-62938853D01*
X120010965Y-62997571D01*
X119996401Y-63039649D01*
X119987632Y-63078071D01*
X119963829Y-63133760D01*
X119942505Y-63195372D01*
X119923211Y-63228788D01*
X119910089Y-63259491D01*
X119873364Y-63315126D01*
X119837848Y-63376643D01*
X119816481Y-63401300D01*
X119801400Y-63424149D01*
X119751070Y-63476789D01*
X119700777Y-63534831D01*
X119679817Y-63551313D01*
X119665058Y-63566751D01*
X119601078Y-63613234D01*
X119536246Y-63664220D01*
X119517852Y-63673702D01*
X119505445Y-63682717D01*
X119428360Y-63719838D01*
X119350200Y-63760133D01*
X119336075Y-63764280D01*
X119327685Y-63768321D01*
X119238271Y-63792998D01*
X119149366Y-63819103D01*
X119140678Y-63819932D01*
X119137503Y-63820809D01*
X119033080Y-63830207D01*
X118941000Y-63839000D01*
X118935384Y-63839000D01*
X118043804Y-63839000D01*
X118041000Y-63839000D01*
X117994657Y-63836792D01*
X117945127Y-63834568D01*
X117944121Y-63834385D01*
X117936343Y-63834015D01*
X117843903Y-63816198D01*
X117748227Y-63798836D01*
X117742325Y-63796620D01*
X117730812Y-63794402D01*
X117646837Y-63760783D01*
X117563513Y-63729511D01*
X117552932Y-63723189D01*
X117536493Y-63716608D01*
X117464782Y-63670522D01*
X117394146Y-63628319D01*
X117380327Y-63616246D01*
X117360407Y-63603444D01*
X117302751Y-63548470D01*
X117245568Y-63498510D01*
X117230376Y-63479460D01*
X117208920Y-63459002D01*
X117166040Y-63398786D01*
X117122557Y-63344260D01*
X117108156Y-63317500D01*
X117087506Y-63288500D01*
X117059213Y-63226547D01*
X117029063Y-63170519D01*
X117017811Y-63135891D01*
X117000554Y-63098102D01*
X116985880Y-63037615D01*
X116968097Y-62982884D01*
X116962399Y-62940826D01*
X116951207Y-62894689D01*
X116948525Y-62838410D01*
X116941612Y-62787371D01*
X116943787Y-62738939D01*
X116941247Y-62685612D01*
X116948425Y-62635684D01*
X116950465Y-62590277D01*
X116962594Y-62537131D01*
X116971035Y-62478429D01*
X116985595Y-62436360D01*
X116994367Y-62397928D01*
X117018176Y-62342222D01*
X117039495Y-62280628D01*
X117058782Y-62247220D01*
X117071910Y-62216508D01*
X117108646Y-62160853D01*
X117144152Y-62099357D01*
X117165511Y-62074707D01*
X117180599Y-62051850D01*
X117230948Y-61999188D01*
X117281223Y-61941169D01*
X117302174Y-61924692D01*
X117316941Y-61909248D01*
X117380949Y-61862742D01*
X117445754Y-61811780D01*
X117464139Y-61802301D01*
X117476554Y-61793282D01*
X117553683Y-61756138D01*
X117631800Y-61715867D01*
X117645916Y-61711722D01*
X117654314Y-61707678D01*
X117743801Y-61682980D01*
X117832634Y-61656897D01*
X117841314Y-61656068D01*
X117844496Y-61655190D01*
X117949015Y-61645783D01*
X118041000Y-61637000D01*
X118941000Y-61637000D01*
X118987168Y-61639199D01*
G37*
G36*
X123749668Y-61639199D02*
G01*
X123799372Y-61641431D01*
X123800384Y-61641614D01*
X123808157Y-61641985D01*
X123900523Y-61659787D01*
X123996272Y-61677163D01*
X124002178Y-61679379D01*
X124013688Y-61681598D01*
X124097637Y-61715206D01*
X124180986Y-61746488D01*
X124191569Y-61752811D01*
X124208007Y-61759392D01*
X124279708Y-61805471D01*
X124350353Y-61847680D01*
X124364172Y-61859754D01*
X124384093Y-61872556D01*
X124441746Y-61927528D01*
X124498931Y-61977489D01*
X124514122Y-61996538D01*
X124535580Y-62016998D01*
X124578460Y-62077215D01*
X124621942Y-62131739D01*
X124636341Y-62158497D01*
X124656994Y-62187500D01*
X124685289Y-62249458D01*
X124715436Y-62305480D01*
X124726685Y-62340103D01*
X124743946Y-62377898D01*
X124758621Y-62438392D01*
X124776402Y-62493115D01*
X124782098Y-62535165D01*
X124793293Y-62581311D01*
X124795974Y-62637599D01*
X124802887Y-62688628D01*
X124800712Y-62737049D01*
X124803253Y-62790388D01*
X124796073Y-62840326D01*
X124794034Y-62885722D01*
X124781907Y-62938853D01*
X124773465Y-62997571D01*
X124758901Y-63039649D01*
X124750132Y-63078071D01*
X124726329Y-63133760D01*
X124705005Y-63195372D01*
X124685711Y-63228788D01*
X124672589Y-63259491D01*
X124635864Y-63315126D01*
X124600348Y-63376643D01*
X124578981Y-63401300D01*
X124563900Y-63424149D01*
X124513570Y-63476789D01*
X124463277Y-63534831D01*
X124442317Y-63551313D01*
X124427558Y-63566751D01*
X124363578Y-63613234D01*
X124298746Y-63664220D01*
X124280352Y-63673702D01*
X124267945Y-63682717D01*
X124190860Y-63719838D01*
X124112700Y-63760133D01*
X124098575Y-63764280D01*
X124090185Y-63768321D01*
X124000771Y-63792998D01*
X123911866Y-63819103D01*
X123903178Y-63819932D01*
X123900003Y-63820809D01*
X123795580Y-63830207D01*
X123703500Y-63839000D01*
X123697884Y-63839000D01*
X122806304Y-63839000D01*
X122803500Y-63839000D01*
X122757157Y-63836792D01*
X122707627Y-63834568D01*
X122706621Y-63834385D01*
X122698843Y-63834015D01*
X122606403Y-63816198D01*
X122510727Y-63798836D01*
X122504825Y-63796620D01*
X122493312Y-63794402D01*
X122409337Y-63760783D01*
X122326013Y-63729511D01*
X122315432Y-63723189D01*
X122298993Y-63716608D01*
X122227282Y-63670522D01*
X122156646Y-63628319D01*
X122142827Y-63616246D01*
X122122907Y-63603444D01*
X122065251Y-63548470D01*
X122008068Y-63498510D01*
X121992876Y-63479460D01*
X121971420Y-63459002D01*
X121928540Y-63398786D01*
X121885057Y-63344260D01*
X121870656Y-63317500D01*
X121850006Y-63288500D01*
X121821713Y-63226547D01*
X121791563Y-63170519D01*
X121780311Y-63135891D01*
X121763054Y-63098102D01*
X121748380Y-63037615D01*
X121730597Y-62982884D01*
X121724899Y-62940826D01*
X121713707Y-62894689D01*
X121711025Y-62838410D01*
X121704112Y-62787371D01*
X121706287Y-62738939D01*
X121703747Y-62685612D01*
X121710925Y-62635684D01*
X121712965Y-62590277D01*
X121725094Y-62537131D01*
X121733535Y-62478429D01*
X121748095Y-62436360D01*
X121756867Y-62397928D01*
X121780676Y-62342222D01*
X121801995Y-62280628D01*
X121821282Y-62247220D01*
X121834410Y-62216508D01*
X121871146Y-62160853D01*
X121906652Y-62099357D01*
X121928011Y-62074707D01*
X121943099Y-62051850D01*
X121993448Y-61999188D01*
X122043723Y-61941169D01*
X122064674Y-61924692D01*
X122079441Y-61909248D01*
X122143449Y-61862742D01*
X122208254Y-61811780D01*
X122226639Y-61802301D01*
X122239054Y-61793282D01*
X122316183Y-61756138D01*
X122394300Y-61715867D01*
X122408416Y-61711722D01*
X122416814Y-61707678D01*
X122506301Y-61682980D01*
X122595134Y-61656897D01*
X122603814Y-61656068D01*
X122606996Y-61655190D01*
X122711515Y-61645783D01*
X122803500Y-61637000D01*
X123703500Y-61637000D01*
X123749668Y-61639199D01*
G37*
G36*
X133407517Y-60874882D02*
G01*
X133424062Y-60885938D01*
X133435118Y-60902483D01*
X133439000Y-60922000D01*
X133439000Y-62522000D01*
X133435118Y-62541517D01*
X133424062Y-62558062D01*
X133407517Y-62569118D01*
X133388000Y-62573000D01*
X131788000Y-62573000D01*
X131768483Y-62569118D01*
X131751938Y-62558062D01*
X131740882Y-62541517D01*
X131737000Y-62522000D01*
X131737000Y-60922000D01*
X131740882Y-60902483D01*
X131751938Y-60885938D01*
X131768483Y-60874882D01*
X131788000Y-60871000D01*
X133388000Y-60871000D01*
X133407517Y-60874882D01*
G37*
G36*
X129581199Y-60875662D02*
G01*
X129628954Y-60875662D01*
X129670194Y-60884427D01*
X129705901Y-60887945D01*
X129750759Y-60901552D01*
X129802973Y-60912651D01*
X129836384Y-60927526D01*
X129865435Y-60936339D01*
X129911602Y-60961015D01*
X129965500Y-60985012D01*
X129990554Y-61003215D01*
X130012453Y-61014920D01*
X130057128Y-61051584D01*
X130109430Y-61089584D01*
X130126411Y-61108443D01*
X130141320Y-61120679D01*
X130181387Y-61169501D01*
X130228473Y-61221795D01*
X130238364Y-61238927D01*
X130247079Y-61249546D01*
X130279306Y-61309840D01*
X130317427Y-61375867D01*
X130321813Y-61389368D01*
X130325660Y-61396564D01*
X130346861Y-61466455D01*
X130372404Y-61545067D01*
X130373303Y-61553623D01*
X130374054Y-61556098D01*
X130381371Y-61630389D01*
X130391000Y-61722000D01*
X130381370Y-61813619D01*
X130374054Y-61887901D01*
X130373303Y-61890375D01*
X130372404Y-61898933D01*
X130346856Y-61977558D01*
X130325660Y-62047435D01*
X130321814Y-62054629D01*
X130317427Y-62068133D01*
X130279299Y-62134172D01*
X130247079Y-62194453D01*
X130238366Y-62205069D01*
X130228473Y-62222205D01*
X130181378Y-62274509D01*
X130141320Y-62323320D01*
X130126414Y-62335552D01*
X130109430Y-62354416D01*
X130057118Y-62392423D01*
X130012453Y-62429079D01*
X129990559Y-62440780D01*
X129965500Y-62458988D01*
X129911591Y-62482989D01*
X129865435Y-62507660D01*
X129836391Y-62516470D01*
X129802973Y-62531349D01*
X129750748Y-62542449D01*
X129705901Y-62556054D01*
X129670203Y-62559570D01*
X129628954Y-62568338D01*
X129581188Y-62568338D01*
X129540000Y-62572395D01*
X129498811Y-62568338D01*
X129451046Y-62568338D01*
X129409797Y-62559570D01*
X129374098Y-62556054D01*
X129329248Y-62542448D01*
X129277027Y-62531349D01*
X129243610Y-62516471D01*
X129214564Y-62507660D01*
X129168402Y-62482986D01*
X129114500Y-62458988D01*
X129089443Y-62440783D01*
X129067546Y-62429079D01*
X129022873Y-62392416D01*
X128970570Y-62354416D01*
X128953588Y-62335555D01*
X128938679Y-62323320D01*
X128898610Y-62274496D01*
X128851527Y-62222205D01*
X128841636Y-62205073D01*
X128832920Y-62194453D01*
X128800687Y-62134148D01*
X128762573Y-62068133D01*
X128758186Y-62054634D01*
X128754339Y-62047435D01*
X128733121Y-61977489D01*
X128707596Y-61898933D01*
X128706697Y-61890380D01*
X128705945Y-61887901D01*
X128698613Y-61813467D01*
X128689000Y-61722000D01*
X128698612Y-61630540D01*
X128705945Y-61556098D01*
X128706697Y-61553618D01*
X128707596Y-61545067D01*
X128733123Y-61466502D01*
X128754339Y-61396564D01*
X128758187Y-61389363D01*
X128762573Y-61375867D01*
X128800680Y-61309863D01*
X128832920Y-61249546D01*
X128841638Y-61238923D01*
X128851527Y-61221795D01*
X128898601Y-61169513D01*
X128938679Y-61120679D01*
X128953591Y-61108440D01*
X128970570Y-61089584D01*
X129022862Y-61051591D01*
X129067546Y-61014920D01*
X129089448Y-61003213D01*
X129114500Y-60985012D01*
X129168391Y-60961018D01*
X129214564Y-60936339D01*
X129243617Y-60927525D01*
X129277027Y-60912651D01*
X129329237Y-60901553D01*
X129374098Y-60887945D01*
X129409806Y-60884427D01*
X129451046Y-60875662D01*
X129498801Y-60875662D01*
X129540000Y-60871604D01*
X129581199Y-60875662D01*
G37*
G36*
X111055517Y-60620882D02*
G01*
X111072062Y-60631938D01*
X111083118Y-60648483D01*
X111087000Y-60668000D01*
X111087000Y-62268000D01*
X111083118Y-62287517D01*
X111072062Y-62304062D01*
X111055517Y-62315118D01*
X111036000Y-62319000D01*
X109436000Y-62319000D01*
X109416483Y-62315118D01*
X109399938Y-62304062D01*
X109388882Y-62287517D01*
X109385000Y-62268000D01*
X109385000Y-60668000D01*
X109388882Y-60648483D01*
X109399938Y-60631938D01*
X109416483Y-60620882D01*
X109436000Y-60617000D01*
X111036000Y-60617000D01*
X111055517Y-60620882D01*
G37*
G36*
X107229199Y-60621662D02*
G01*
X107276954Y-60621662D01*
X107318194Y-60630427D01*
X107353901Y-60633945D01*
X107398759Y-60647552D01*
X107450973Y-60658651D01*
X107484384Y-60673526D01*
X107513435Y-60682339D01*
X107559602Y-60707015D01*
X107613500Y-60731012D01*
X107638554Y-60749215D01*
X107660453Y-60760920D01*
X107705128Y-60797584D01*
X107757430Y-60835584D01*
X107774411Y-60854443D01*
X107789320Y-60866679D01*
X107829387Y-60915501D01*
X107876473Y-60967795D01*
X107886364Y-60984927D01*
X107895079Y-60995546D01*
X107927306Y-61055840D01*
X107965427Y-61121867D01*
X107969813Y-61135368D01*
X107973660Y-61142564D01*
X107994861Y-61212455D01*
X108020404Y-61291067D01*
X108021303Y-61299623D01*
X108022054Y-61302098D01*
X108029371Y-61376389D01*
X108039000Y-61468000D01*
X108029370Y-61559619D01*
X108022054Y-61633901D01*
X108021303Y-61636375D01*
X108020404Y-61644933D01*
X107994856Y-61723558D01*
X107973660Y-61793435D01*
X107969814Y-61800629D01*
X107965427Y-61814133D01*
X107927299Y-61880172D01*
X107895079Y-61940453D01*
X107886366Y-61951069D01*
X107876473Y-61968205D01*
X107829378Y-62020509D01*
X107789320Y-62069320D01*
X107774414Y-62081552D01*
X107757430Y-62100416D01*
X107705118Y-62138423D01*
X107660453Y-62175079D01*
X107638559Y-62186780D01*
X107613500Y-62204988D01*
X107559591Y-62228989D01*
X107513435Y-62253660D01*
X107484391Y-62262470D01*
X107450973Y-62277349D01*
X107398748Y-62288449D01*
X107353901Y-62302054D01*
X107318203Y-62305570D01*
X107276954Y-62314338D01*
X107229188Y-62314338D01*
X107188000Y-62318395D01*
X107146811Y-62314338D01*
X107099046Y-62314338D01*
X107057797Y-62305570D01*
X107022098Y-62302054D01*
X106977248Y-62288448D01*
X106925027Y-62277349D01*
X106891610Y-62262471D01*
X106862564Y-62253660D01*
X106816402Y-62228986D01*
X106762500Y-62204988D01*
X106737443Y-62186783D01*
X106715546Y-62175079D01*
X106670873Y-62138416D01*
X106618570Y-62100416D01*
X106601588Y-62081555D01*
X106586679Y-62069320D01*
X106546610Y-62020496D01*
X106499527Y-61968205D01*
X106489636Y-61951073D01*
X106480920Y-61940453D01*
X106448687Y-61880148D01*
X106410573Y-61814133D01*
X106406186Y-61800634D01*
X106402339Y-61793435D01*
X106381128Y-61723512D01*
X106355596Y-61644933D01*
X106354697Y-61636380D01*
X106353945Y-61633901D01*
X106346613Y-61559467D01*
X106337000Y-61468000D01*
X106346612Y-61376540D01*
X106353945Y-61302098D01*
X106354697Y-61299618D01*
X106355596Y-61291067D01*
X106381123Y-61212502D01*
X106402339Y-61142564D01*
X106406187Y-61135363D01*
X106410573Y-61121867D01*
X106448680Y-61055863D01*
X106480920Y-60995546D01*
X106489638Y-60984923D01*
X106499527Y-60967795D01*
X106546601Y-60915513D01*
X106586679Y-60866679D01*
X106601591Y-60854440D01*
X106618570Y-60835584D01*
X106670862Y-60797591D01*
X106715546Y-60760920D01*
X106737448Y-60749213D01*
X106762500Y-60731012D01*
X106816391Y-60707018D01*
X106862564Y-60682339D01*
X106891617Y-60673525D01*
X106925027Y-60658651D01*
X106977237Y-60647553D01*
X107022098Y-60633945D01*
X107057806Y-60630427D01*
X107099046Y-60621662D01*
X107146801Y-60621662D01*
X107188000Y-60617604D01*
X107229199Y-60621662D01*
G37*
G36*
X113325199Y-60621662D02*
G01*
X113372954Y-60621662D01*
X113414194Y-60630427D01*
X113449901Y-60633945D01*
X113494759Y-60647552D01*
X113546973Y-60658651D01*
X113580384Y-60673526D01*
X113609435Y-60682339D01*
X113655602Y-60707015D01*
X113709500Y-60731012D01*
X113734554Y-60749215D01*
X113756453Y-60760920D01*
X113801128Y-60797584D01*
X113853430Y-60835584D01*
X113870411Y-60854443D01*
X113885320Y-60866679D01*
X113925387Y-60915501D01*
X113972473Y-60967795D01*
X113982364Y-60984927D01*
X113991079Y-60995546D01*
X114023306Y-61055840D01*
X114061427Y-61121867D01*
X114065813Y-61135368D01*
X114069660Y-61142564D01*
X114090861Y-61212455D01*
X114116404Y-61291067D01*
X114117303Y-61299623D01*
X114118054Y-61302098D01*
X114125371Y-61376389D01*
X114135000Y-61468000D01*
X114125370Y-61559619D01*
X114118054Y-61633901D01*
X114117303Y-61636375D01*
X114116404Y-61644933D01*
X114090856Y-61723558D01*
X114069660Y-61793435D01*
X114065814Y-61800629D01*
X114061427Y-61814133D01*
X114023299Y-61880172D01*
X113991079Y-61940453D01*
X113982366Y-61951069D01*
X113972473Y-61968205D01*
X113925378Y-62020509D01*
X113885320Y-62069320D01*
X113870414Y-62081552D01*
X113853430Y-62100416D01*
X113801118Y-62138423D01*
X113756453Y-62175079D01*
X113734559Y-62186780D01*
X113709500Y-62204988D01*
X113655591Y-62228989D01*
X113609435Y-62253660D01*
X113580391Y-62262470D01*
X113546973Y-62277349D01*
X113494748Y-62288449D01*
X113449901Y-62302054D01*
X113414203Y-62305570D01*
X113372954Y-62314338D01*
X113325188Y-62314338D01*
X113284000Y-62318395D01*
X113242811Y-62314338D01*
X113195046Y-62314338D01*
X113153797Y-62305570D01*
X113118098Y-62302054D01*
X113073248Y-62288448D01*
X113021027Y-62277349D01*
X112987610Y-62262471D01*
X112958564Y-62253660D01*
X112912402Y-62228986D01*
X112858500Y-62204988D01*
X112833443Y-62186783D01*
X112811546Y-62175079D01*
X112766873Y-62138416D01*
X112714570Y-62100416D01*
X112697588Y-62081555D01*
X112682679Y-62069320D01*
X112642610Y-62020496D01*
X112595527Y-61968205D01*
X112585636Y-61951073D01*
X112576920Y-61940453D01*
X112544687Y-61880148D01*
X112506573Y-61814133D01*
X112502186Y-61800634D01*
X112498339Y-61793435D01*
X112477128Y-61723512D01*
X112451596Y-61644933D01*
X112450697Y-61636380D01*
X112449945Y-61633901D01*
X112442613Y-61559467D01*
X112433000Y-61468000D01*
X112442612Y-61376540D01*
X112449945Y-61302098D01*
X112450697Y-61299618D01*
X112451596Y-61291067D01*
X112477123Y-61212502D01*
X112498339Y-61142564D01*
X112502187Y-61135363D01*
X112506573Y-61121867D01*
X112544680Y-61055863D01*
X112576920Y-60995546D01*
X112585638Y-60984923D01*
X112595527Y-60967795D01*
X112642601Y-60915513D01*
X112682679Y-60866679D01*
X112697591Y-60854440D01*
X112714570Y-60835584D01*
X112766862Y-60797591D01*
X112811546Y-60760920D01*
X112833448Y-60749213D01*
X112858500Y-60731012D01*
X112912391Y-60707018D01*
X112958564Y-60682339D01*
X112987617Y-60673525D01*
X113021027Y-60658651D01*
X113073237Y-60647553D01*
X113118098Y-60633945D01*
X113153806Y-60630427D01*
X113195046Y-60621662D01*
X113242801Y-60621662D01*
X113284000Y-60617604D01*
X113325199Y-60621662D01*
G37*
G36*
X104959517Y-60366882D02*
G01*
X104976062Y-60377938D01*
X104987118Y-60394483D01*
X104991000Y-60414000D01*
X104991000Y-62014000D01*
X104987118Y-62033517D01*
X104976062Y-62050062D01*
X104959517Y-62061118D01*
X104940000Y-62065000D01*
X103340000Y-62065000D01*
X103320483Y-62061118D01*
X103303938Y-62050062D01*
X103292882Y-62033517D01*
X103289000Y-62014000D01*
X103289000Y-60414000D01*
X103292882Y-60394483D01*
X103303938Y-60377938D01*
X103320483Y-60366882D01*
X103340000Y-60363000D01*
X104940000Y-60363000D01*
X104959517Y-60366882D01*
G37*
G36*
X136702938Y-58858017D02*
G01*
X136748923Y-58858017D01*
X136800139Y-58867590D01*
X136857040Y-58873195D01*
X136900261Y-58886306D01*
X136939474Y-58893636D01*
X136993785Y-58914676D01*
X137054200Y-58933003D01*
X137088720Y-58951454D01*
X137120232Y-58963662D01*
X137174977Y-58997559D01*
X137235904Y-59030125D01*
X137261506Y-59051136D01*
X137285048Y-59065713D01*
X137337212Y-59113267D01*
X137395169Y-59160831D01*
X137412342Y-59181757D01*
X137428301Y-59196305D01*
X137474629Y-59257653D01*
X137525875Y-59320096D01*
X137535783Y-59338634D01*
X137545122Y-59351000D01*
X137582274Y-59425613D01*
X137622997Y-59501800D01*
X137627340Y-59516117D01*
X137631528Y-59524528D01*
X137656267Y-59611476D01*
X137682805Y-59698960D01*
X137683676Y-59707811D01*
X137684577Y-59710975D01*
X137693938Y-59812002D01*
X137703000Y-59904000D01*
X137693938Y-59996005D01*
X137684577Y-60097024D01*
X137683676Y-60100187D01*
X137682805Y-60109040D01*
X137656262Y-60196538D01*
X137631528Y-60283471D01*
X137627341Y-60291879D01*
X137622997Y-60306200D01*
X137582267Y-60382399D01*
X137545122Y-60456999D01*
X137535785Y-60469362D01*
X137525875Y-60487904D01*
X137474620Y-60550357D01*
X137428301Y-60611694D01*
X137412345Y-60626238D01*
X137395169Y-60647169D01*
X137337201Y-60694741D01*
X137285048Y-60742286D01*
X137261511Y-60756859D01*
X137235904Y-60777875D01*
X137174965Y-60810447D01*
X137120232Y-60844337D01*
X137088726Y-60856542D01*
X137054200Y-60874997D01*
X136993773Y-60893327D01*
X136939474Y-60914363D01*
X136900268Y-60921691D01*
X136857040Y-60934805D01*
X136800136Y-60940409D01*
X136748923Y-60949983D01*
X136702938Y-60949983D01*
X136652000Y-60955000D01*
X136601062Y-60949983D01*
X136555077Y-60949983D01*
X136503863Y-60940409D01*
X136446960Y-60934805D01*
X136403732Y-60921692D01*
X136364525Y-60914363D01*
X136310221Y-60893325D01*
X136249800Y-60874997D01*
X136215275Y-60856543D01*
X136183767Y-60844337D01*
X136129027Y-60810443D01*
X136068096Y-60777875D01*
X136042491Y-60756861D01*
X136018951Y-60742286D01*
X135966788Y-60694733D01*
X135908831Y-60647169D01*
X135891656Y-60626242D01*
X135875698Y-60611694D01*
X135829367Y-60550342D01*
X135778125Y-60487904D01*
X135768216Y-60469366D01*
X135758877Y-60456999D01*
X135721717Y-60382372D01*
X135681003Y-60306200D01*
X135676660Y-60291884D01*
X135672471Y-60283471D01*
X135647721Y-60196485D01*
X135621195Y-60109040D01*
X135620323Y-60100192D01*
X135619422Y-60097024D01*
X135610044Y-59995833D01*
X135601000Y-59904000D01*
X135610044Y-59812173D01*
X135619422Y-59710975D01*
X135620323Y-59707805D01*
X135621195Y-59698960D01*
X135647716Y-59611529D01*
X135672471Y-59524528D01*
X135676661Y-59516112D01*
X135681003Y-59501800D01*
X135721710Y-59425641D01*
X135758877Y-59351000D01*
X135768218Y-59338629D01*
X135778125Y-59320096D01*
X135829357Y-59257668D01*
X135875698Y-59196305D01*
X135891660Y-59181753D01*
X135908831Y-59160831D01*
X135966777Y-59113275D01*
X136018951Y-59065713D01*
X136042496Y-59051134D01*
X136068096Y-59030125D01*
X136129015Y-58997563D01*
X136183767Y-58963662D01*
X136215282Y-58951452D01*
X136249800Y-58933003D01*
X136310209Y-58914677D01*
X136364525Y-58893636D01*
X136403739Y-58886305D01*
X136446960Y-58873195D01*
X136503860Y-58867590D01*
X136555077Y-58858017D01*
X136601062Y-58858017D01*
X136652000Y-58853000D01*
X136702938Y-58858017D01*
G37*
G36*
X139750938Y-58858017D02*
G01*
X139796923Y-58858017D01*
X139848139Y-58867590D01*
X139905040Y-58873195D01*
X139948261Y-58886306D01*
X139987474Y-58893636D01*
X140041785Y-58914676D01*
X140102200Y-58933003D01*
X140136720Y-58951454D01*
X140168232Y-58963662D01*
X140222977Y-58997559D01*
X140283904Y-59030125D01*
X140309506Y-59051136D01*
X140333048Y-59065713D01*
X140385212Y-59113267D01*
X140443169Y-59160831D01*
X140460342Y-59181757D01*
X140476301Y-59196305D01*
X140522629Y-59257653D01*
X140573875Y-59320096D01*
X140583783Y-59338634D01*
X140593122Y-59351000D01*
X140630274Y-59425613D01*
X140670997Y-59501800D01*
X140675340Y-59516117D01*
X140679528Y-59524528D01*
X140704267Y-59611476D01*
X140730805Y-59698960D01*
X140731676Y-59707811D01*
X140732577Y-59710975D01*
X140741938Y-59812002D01*
X140751000Y-59904000D01*
X140741938Y-59996005D01*
X140732577Y-60097024D01*
X140731676Y-60100187D01*
X140730805Y-60109040D01*
X140704262Y-60196538D01*
X140679528Y-60283471D01*
X140675341Y-60291879D01*
X140670997Y-60306200D01*
X140630267Y-60382399D01*
X140593122Y-60456999D01*
X140583785Y-60469362D01*
X140573875Y-60487904D01*
X140522620Y-60550357D01*
X140476301Y-60611694D01*
X140460345Y-60626238D01*
X140443169Y-60647169D01*
X140385201Y-60694741D01*
X140333048Y-60742286D01*
X140309511Y-60756859D01*
X140283904Y-60777875D01*
X140222965Y-60810447D01*
X140168232Y-60844337D01*
X140136726Y-60856542D01*
X140102200Y-60874997D01*
X140041773Y-60893327D01*
X139987474Y-60914363D01*
X139948268Y-60921691D01*
X139905040Y-60934805D01*
X139848136Y-60940409D01*
X139796923Y-60949983D01*
X139750938Y-60949983D01*
X139700000Y-60955000D01*
X139649062Y-60949983D01*
X139603077Y-60949983D01*
X139551863Y-60940409D01*
X139494960Y-60934805D01*
X139451732Y-60921692D01*
X139412525Y-60914363D01*
X139358221Y-60893325D01*
X139297800Y-60874997D01*
X139263275Y-60856543D01*
X139231767Y-60844337D01*
X139177027Y-60810443D01*
X139116096Y-60777875D01*
X139090491Y-60756861D01*
X139066951Y-60742286D01*
X139014788Y-60694733D01*
X138956831Y-60647169D01*
X138939656Y-60626242D01*
X138923698Y-60611694D01*
X138877367Y-60550342D01*
X138826125Y-60487904D01*
X138816216Y-60469366D01*
X138806877Y-60456999D01*
X138769717Y-60382372D01*
X138729003Y-60306200D01*
X138724660Y-60291884D01*
X138720471Y-60283471D01*
X138695721Y-60196485D01*
X138669195Y-60109040D01*
X138668323Y-60100192D01*
X138667422Y-60097024D01*
X138658044Y-59995833D01*
X138649000Y-59904000D01*
X138658044Y-59812173D01*
X138667422Y-59710975D01*
X138668323Y-59707805D01*
X138669195Y-59698960D01*
X138695716Y-59611529D01*
X138720471Y-59524528D01*
X138724661Y-59516112D01*
X138729003Y-59501800D01*
X138769710Y-59425641D01*
X138806877Y-59351000D01*
X138816218Y-59338629D01*
X138826125Y-59320096D01*
X138877357Y-59257668D01*
X138923698Y-59196305D01*
X138939660Y-59181753D01*
X138956831Y-59160831D01*
X139014777Y-59113275D01*
X139066951Y-59065713D01*
X139090496Y-59051134D01*
X139116096Y-59030125D01*
X139177015Y-58997563D01*
X139231767Y-58963662D01*
X139263282Y-58951452D01*
X139297800Y-58933003D01*
X139358209Y-58914677D01*
X139412525Y-58893636D01*
X139451739Y-58886305D01*
X139494960Y-58873195D01*
X139551860Y-58867590D01*
X139603077Y-58858017D01*
X139649062Y-58858017D01*
X139700000Y-58853000D01*
X139750938Y-58858017D01*
G37*
G36*
X143306938Y-58858017D02*
G01*
X143352923Y-58858017D01*
X143404139Y-58867590D01*
X143461040Y-58873195D01*
X143504261Y-58886306D01*
X143543474Y-58893636D01*
X143597785Y-58914676D01*
X143658200Y-58933003D01*
X143692720Y-58951454D01*
X143724232Y-58963662D01*
X143778977Y-58997559D01*
X143839904Y-59030125D01*
X143865506Y-59051136D01*
X143889048Y-59065713D01*
X143941212Y-59113267D01*
X143999169Y-59160831D01*
X144016342Y-59181757D01*
X144032301Y-59196305D01*
X144078629Y-59257653D01*
X144129875Y-59320096D01*
X144139783Y-59338634D01*
X144149122Y-59351000D01*
X144186274Y-59425613D01*
X144226997Y-59501800D01*
X144231340Y-59516117D01*
X144235528Y-59524528D01*
X144260267Y-59611476D01*
X144286805Y-59698960D01*
X144287676Y-59707811D01*
X144288577Y-59710975D01*
X144297938Y-59812002D01*
X144307000Y-59904000D01*
X144297938Y-59996005D01*
X144288577Y-60097024D01*
X144287676Y-60100187D01*
X144286805Y-60109040D01*
X144260262Y-60196538D01*
X144235528Y-60283471D01*
X144231341Y-60291879D01*
X144226997Y-60306200D01*
X144186267Y-60382399D01*
X144149122Y-60456999D01*
X144139785Y-60469362D01*
X144129875Y-60487904D01*
X144078620Y-60550357D01*
X144032301Y-60611694D01*
X144016345Y-60626238D01*
X143999169Y-60647169D01*
X143941201Y-60694741D01*
X143889048Y-60742286D01*
X143865511Y-60756859D01*
X143839904Y-60777875D01*
X143778965Y-60810447D01*
X143724232Y-60844337D01*
X143692726Y-60856542D01*
X143658200Y-60874997D01*
X143597773Y-60893327D01*
X143543474Y-60914363D01*
X143504268Y-60921691D01*
X143461040Y-60934805D01*
X143404136Y-60940409D01*
X143352923Y-60949983D01*
X143306938Y-60949983D01*
X143256000Y-60955000D01*
X143205062Y-60949983D01*
X143159077Y-60949983D01*
X143107863Y-60940409D01*
X143050960Y-60934805D01*
X143007732Y-60921692D01*
X142968525Y-60914363D01*
X142914221Y-60893325D01*
X142853800Y-60874997D01*
X142819275Y-60856543D01*
X142787767Y-60844337D01*
X142733027Y-60810443D01*
X142672096Y-60777875D01*
X142646491Y-60756861D01*
X142622951Y-60742286D01*
X142570788Y-60694733D01*
X142512831Y-60647169D01*
X142495656Y-60626242D01*
X142479698Y-60611694D01*
X142433367Y-60550342D01*
X142382125Y-60487904D01*
X142372216Y-60469366D01*
X142362877Y-60456999D01*
X142325717Y-60382372D01*
X142285003Y-60306200D01*
X142280660Y-60291884D01*
X142276471Y-60283471D01*
X142251721Y-60196485D01*
X142225195Y-60109040D01*
X142224323Y-60100192D01*
X142223422Y-60097024D01*
X142214044Y-59995833D01*
X142205000Y-59904000D01*
X142214044Y-59812173D01*
X142223422Y-59710975D01*
X142224323Y-59707805D01*
X142225195Y-59698960D01*
X142251716Y-59611529D01*
X142276471Y-59524528D01*
X142280661Y-59516112D01*
X142285003Y-59501800D01*
X142325710Y-59425641D01*
X142362877Y-59351000D01*
X142372218Y-59338629D01*
X142382125Y-59320096D01*
X142433357Y-59257668D01*
X142479698Y-59196305D01*
X142495660Y-59181753D01*
X142512831Y-59160831D01*
X142570777Y-59113275D01*
X142622951Y-59065713D01*
X142646496Y-59051134D01*
X142672096Y-59030125D01*
X142733015Y-58997563D01*
X142787767Y-58963662D01*
X142819282Y-58951452D01*
X142853800Y-58933003D01*
X142914209Y-58914677D01*
X142968525Y-58893636D01*
X143007739Y-58886305D01*
X143050960Y-58873195D01*
X143107860Y-58867590D01*
X143159077Y-58858017D01*
X143205062Y-58858017D01*
X143256000Y-58853000D01*
X143306938Y-58858017D01*
G37*
G36*
X98602938Y-58818017D02*
G01*
X98648923Y-58818017D01*
X98700139Y-58827590D01*
X98757040Y-58833195D01*
X98800261Y-58846306D01*
X98839474Y-58853636D01*
X98893785Y-58874676D01*
X98954200Y-58893003D01*
X98988720Y-58911454D01*
X99020232Y-58923662D01*
X99074977Y-58957559D01*
X99135904Y-58990125D01*
X99161506Y-59011136D01*
X99185048Y-59025713D01*
X99237212Y-59073267D01*
X99295169Y-59120831D01*
X99312342Y-59141757D01*
X99328301Y-59156305D01*
X99374629Y-59217653D01*
X99425875Y-59280096D01*
X99435783Y-59298634D01*
X99445122Y-59311000D01*
X99482274Y-59385613D01*
X99522997Y-59461800D01*
X99527340Y-59476117D01*
X99531528Y-59484528D01*
X99556267Y-59571476D01*
X99582805Y-59658960D01*
X99583676Y-59667811D01*
X99584577Y-59670975D01*
X99593938Y-59772002D01*
X99603000Y-59864000D01*
X99593938Y-59956005D01*
X99584577Y-60057024D01*
X99583676Y-60060187D01*
X99582805Y-60069040D01*
X99556262Y-60156538D01*
X99531528Y-60243471D01*
X99527341Y-60251879D01*
X99522997Y-60266200D01*
X99482267Y-60342399D01*
X99445122Y-60416999D01*
X99435785Y-60429362D01*
X99425875Y-60447904D01*
X99374620Y-60510357D01*
X99328301Y-60571694D01*
X99312345Y-60586238D01*
X99295169Y-60607169D01*
X99237201Y-60654741D01*
X99185048Y-60702286D01*
X99161511Y-60716859D01*
X99135904Y-60737875D01*
X99074965Y-60770447D01*
X99020232Y-60804337D01*
X98988726Y-60816542D01*
X98954200Y-60834997D01*
X98893773Y-60853327D01*
X98839474Y-60874363D01*
X98800268Y-60881691D01*
X98757040Y-60894805D01*
X98700136Y-60900409D01*
X98648923Y-60909983D01*
X98602938Y-60909983D01*
X98552000Y-60915000D01*
X98501062Y-60909983D01*
X98455077Y-60909983D01*
X98403863Y-60900409D01*
X98346960Y-60894805D01*
X98303732Y-60881692D01*
X98264525Y-60874363D01*
X98210221Y-60853325D01*
X98149800Y-60834997D01*
X98115275Y-60816543D01*
X98083767Y-60804337D01*
X98029027Y-60770443D01*
X97968096Y-60737875D01*
X97942491Y-60716861D01*
X97918951Y-60702286D01*
X97866788Y-60654733D01*
X97808831Y-60607169D01*
X97791656Y-60586242D01*
X97775698Y-60571694D01*
X97729367Y-60510342D01*
X97678125Y-60447904D01*
X97668216Y-60429366D01*
X97658877Y-60416999D01*
X97621717Y-60342372D01*
X97581003Y-60266200D01*
X97576660Y-60251884D01*
X97572471Y-60243471D01*
X97547721Y-60156485D01*
X97521195Y-60069040D01*
X97520323Y-60060192D01*
X97519422Y-60057024D01*
X97510044Y-59955833D01*
X97501000Y-59864000D01*
X97510044Y-59772173D01*
X97519422Y-59670975D01*
X97520323Y-59667805D01*
X97521195Y-59658960D01*
X97547716Y-59571529D01*
X97572471Y-59484528D01*
X97576661Y-59476112D01*
X97581003Y-59461800D01*
X97621710Y-59385641D01*
X97658877Y-59311000D01*
X97668218Y-59298629D01*
X97678125Y-59280096D01*
X97729357Y-59217668D01*
X97775698Y-59156305D01*
X97791660Y-59141753D01*
X97808831Y-59120831D01*
X97866777Y-59073275D01*
X97918951Y-59025713D01*
X97942496Y-59011134D01*
X97968096Y-58990125D01*
X98029015Y-58957563D01*
X98083767Y-58923662D01*
X98115282Y-58911452D01*
X98149800Y-58893003D01*
X98210209Y-58874677D01*
X98264525Y-58853636D01*
X98303739Y-58846305D01*
X98346960Y-58833195D01*
X98403860Y-58827590D01*
X98455077Y-58818017D01*
X98501062Y-58818017D01*
X98552000Y-58813000D01*
X98602938Y-58818017D01*
G37*
G36*
X118987168Y-56813199D02*
G01*
X119036872Y-56815431D01*
X119037884Y-56815614D01*
X119045657Y-56815985D01*
X119138023Y-56833787D01*
X119233772Y-56851163D01*
X119239678Y-56853379D01*
X119251188Y-56855598D01*
X119335137Y-56889206D01*
X119418486Y-56920488D01*
X119429069Y-56926811D01*
X119445507Y-56933392D01*
X119517208Y-56979471D01*
X119587853Y-57021680D01*
X119601672Y-57033754D01*
X119621593Y-57046556D01*
X119679246Y-57101528D01*
X119736431Y-57151489D01*
X119751622Y-57170538D01*
X119773080Y-57190998D01*
X119815960Y-57251215D01*
X119859442Y-57305739D01*
X119873841Y-57332497D01*
X119894494Y-57361500D01*
X119922789Y-57423458D01*
X119952936Y-57479480D01*
X119964185Y-57514103D01*
X119981446Y-57551898D01*
X119996121Y-57612392D01*
X120013902Y-57667115D01*
X120019598Y-57709165D01*
X120030793Y-57755311D01*
X120033474Y-57811599D01*
X120040387Y-57862628D01*
X120038212Y-57911049D01*
X120040753Y-57964388D01*
X120033573Y-58014326D01*
X120031534Y-58059722D01*
X120019407Y-58112853D01*
X120010965Y-58171571D01*
X119996401Y-58213649D01*
X119987632Y-58252071D01*
X119963829Y-58307760D01*
X119942505Y-58369372D01*
X119923211Y-58402788D01*
X119910089Y-58433491D01*
X119873364Y-58489126D01*
X119837848Y-58550643D01*
X119816481Y-58575300D01*
X119801400Y-58598149D01*
X119751070Y-58650789D01*
X119700777Y-58708831D01*
X119679817Y-58725313D01*
X119665058Y-58740751D01*
X119601078Y-58787234D01*
X119536246Y-58838220D01*
X119517852Y-58847702D01*
X119505445Y-58856717D01*
X119428360Y-58893838D01*
X119350200Y-58934133D01*
X119336075Y-58938280D01*
X119327685Y-58942321D01*
X119238271Y-58966998D01*
X119149366Y-58993103D01*
X119140678Y-58993932D01*
X119137503Y-58994809D01*
X119033080Y-59004207D01*
X118941000Y-59013000D01*
X118935384Y-59013000D01*
X118043804Y-59013000D01*
X118041000Y-59013000D01*
X117994657Y-59010792D01*
X117945127Y-59008568D01*
X117944121Y-59008385D01*
X117936343Y-59008015D01*
X117843903Y-58990198D01*
X117748227Y-58972836D01*
X117742325Y-58970620D01*
X117730812Y-58968402D01*
X117646837Y-58934783D01*
X117563513Y-58903511D01*
X117552932Y-58897189D01*
X117536493Y-58890608D01*
X117464782Y-58844522D01*
X117394146Y-58802319D01*
X117380327Y-58790246D01*
X117360407Y-58777444D01*
X117302751Y-58722470D01*
X117245568Y-58672510D01*
X117230376Y-58653460D01*
X117208920Y-58633002D01*
X117166040Y-58572786D01*
X117122557Y-58518260D01*
X117108156Y-58491500D01*
X117087506Y-58462500D01*
X117059213Y-58400547D01*
X117029063Y-58344519D01*
X117017811Y-58309891D01*
X117000554Y-58272102D01*
X116985880Y-58211615D01*
X116968097Y-58156884D01*
X116962399Y-58114826D01*
X116951207Y-58068689D01*
X116948525Y-58012410D01*
X116941612Y-57961371D01*
X116943787Y-57912939D01*
X116941247Y-57859612D01*
X116948425Y-57809684D01*
X116950465Y-57764277D01*
X116962594Y-57711131D01*
X116971035Y-57652429D01*
X116985595Y-57610360D01*
X116994367Y-57571928D01*
X117018176Y-57516222D01*
X117039495Y-57454628D01*
X117058782Y-57421220D01*
X117071910Y-57390508D01*
X117108646Y-57334853D01*
X117144152Y-57273357D01*
X117165511Y-57248707D01*
X117180599Y-57225850D01*
X117230948Y-57173188D01*
X117281223Y-57115169D01*
X117302174Y-57098692D01*
X117316941Y-57083248D01*
X117380949Y-57036742D01*
X117445754Y-56985780D01*
X117464139Y-56976301D01*
X117476554Y-56967282D01*
X117553683Y-56930138D01*
X117631800Y-56889867D01*
X117645916Y-56885722D01*
X117654314Y-56881678D01*
X117743801Y-56856980D01*
X117832634Y-56830897D01*
X117841314Y-56830068D01*
X117844496Y-56829190D01*
X117949015Y-56819783D01*
X118041000Y-56811000D01*
X118941000Y-56811000D01*
X118987168Y-56813199D01*
G37*
G36*
X123749668Y-56813199D02*
G01*
X123799372Y-56815431D01*
X123800384Y-56815614D01*
X123808157Y-56815985D01*
X123900523Y-56833787D01*
X123996272Y-56851163D01*
X124002178Y-56853379D01*
X124013688Y-56855598D01*
X124097637Y-56889206D01*
X124180986Y-56920488D01*
X124191569Y-56926811D01*
X124208007Y-56933392D01*
X124279708Y-56979471D01*
X124350353Y-57021680D01*
X124364172Y-57033754D01*
X124384093Y-57046556D01*
X124441746Y-57101528D01*
X124498931Y-57151489D01*
X124514122Y-57170538D01*
X124535580Y-57190998D01*
X124578460Y-57251215D01*
X124621942Y-57305739D01*
X124636341Y-57332497D01*
X124656994Y-57361500D01*
X124685289Y-57423458D01*
X124715436Y-57479480D01*
X124726685Y-57514103D01*
X124743946Y-57551898D01*
X124758621Y-57612392D01*
X124776402Y-57667115D01*
X124782098Y-57709165D01*
X124793293Y-57755311D01*
X124795974Y-57811599D01*
X124802887Y-57862628D01*
X124800712Y-57911049D01*
X124803253Y-57964388D01*
X124796073Y-58014326D01*
X124794034Y-58059722D01*
X124781907Y-58112853D01*
X124773465Y-58171571D01*
X124758901Y-58213649D01*
X124750132Y-58252071D01*
X124726329Y-58307760D01*
X124705005Y-58369372D01*
X124685711Y-58402788D01*
X124672589Y-58433491D01*
X124635864Y-58489126D01*
X124600348Y-58550643D01*
X124578981Y-58575300D01*
X124563900Y-58598149D01*
X124513570Y-58650789D01*
X124463277Y-58708831D01*
X124442317Y-58725313D01*
X124427558Y-58740751D01*
X124363578Y-58787234D01*
X124298746Y-58838220D01*
X124280352Y-58847702D01*
X124267945Y-58856717D01*
X124190860Y-58893838D01*
X124112700Y-58934133D01*
X124098575Y-58938280D01*
X124090185Y-58942321D01*
X124000771Y-58966998D01*
X123911866Y-58993103D01*
X123903178Y-58993932D01*
X123900003Y-58994809D01*
X123795580Y-59004207D01*
X123703500Y-59013000D01*
X123697884Y-59013000D01*
X122806304Y-59013000D01*
X122803500Y-59013000D01*
X122757157Y-59010792D01*
X122707627Y-59008568D01*
X122706621Y-59008385D01*
X122698843Y-59008015D01*
X122606403Y-58990198D01*
X122510727Y-58972836D01*
X122504825Y-58970620D01*
X122493312Y-58968402D01*
X122409337Y-58934783D01*
X122326013Y-58903511D01*
X122315432Y-58897189D01*
X122298993Y-58890608D01*
X122227282Y-58844522D01*
X122156646Y-58802319D01*
X122142827Y-58790246D01*
X122122907Y-58777444D01*
X122065251Y-58722470D01*
X122008068Y-58672510D01*
X121992876Y-58653460D01*
X121971420Y-58633002D01*
X121928540Y-58572786D01*
X121885057Y-58518260D01*
X121870656Y-58491500D01*
X121850006Y-58462500D01*
X121821713Y-58400547D01*
X121791563Y-58344519D01*
X121780311Y-58309891D01*
X121763054Y-58272102D01*
X121748380Y-58211615D01*
X121730597Y-58156884D01*
X121724899Y-58114826D01*
X121713707Y-58068689D01*
X121711025Y-58012410D01*
X121704112Y-57961371D01*
X121706287Y-57912939D01*
X121703747Y-57859612D01*
X121710925Y-57809684D01*
X121712965Y-57764277D01*
X121725094Y-57711131D01*
X121733535Y-57652429D01*
X121748095Y-57610360D01*
X121756867Y-57571928D01*
X121780676Y-57516222D01*
X121801995Y-57454628D01*
X121821282Y-57421220D01*
X121834410Y-57390508D01*
X121871146Y-57334853D01*
X121906652Y-57273357D01*
X121928011Y-57248707D01*
X121943099Y-57225850D01*
X121993448Y-57173188D01*
X122043723Y-57115169D01*
X122064674Y-57098692D01*
X122079441Y-57083248D01*
X122143449Y-57036742D01*
X122208254Y-56985780D01*
X122226639Y-56976301D01*
X122239054Y-56967282D01*
X122316183Y-56930138D01*
X122394300Y-56889867D01*
X122408416Y-56885722D01*
X122416814Y-56881678D01*
X122506301Y-56856980D01*
X122595134Y-56830897D01*
X122603814Y-56830068D01*
X122606996Y-56829190D01*
X122711515Y-56819783D01*
X122803500Y-56811000D01*
X123703500Y-56811000D01*
X123749668Y-56813199D01*
G37*
G36*
X136702938Y-53858017D02*
G01*
X136748923Y-53858017D01*
X136800139Y-53867590D01*
X136857040Y-53873195D01*
X136900261Y-53886306D01*
X136939474Y-53893636D01*
X136993785Y-53914676D01*
X137054200Y-53933003D01*
X137088720Y-53951454D01*
X137120232Y-53963662D01*
X137174977Y-53997559D01*
X137235904Y-54030125D01*
X137261506Y-54051136D01*
X137285048Y-54065713D01*
X137337212Y-54113267D01*
X137395169Y-54160831D01*
X137412342Y-54181757D01*
X137428301Y-54196305D01*
X137474629Y-54257653D01*
X137525875Y-54320096D01*
X137535783Y-54338634D01*
X137545122Y-54351000D01*
X137582274Y-54425613D01*
X137622997Y-54501800D01*
X137627340Y-54516117D01*
X137631528Y-54524528D01*
X137656267Y-54611476D01*
X137682805Y-54698960D01*
X137683676Y-54707811D01*
X137684577Y-54710975D01*
X137693938Y-54812002D01*
X137703000Y-54904000D01*
X137693938Y-54996005D01*
X137684577Y-55097024D01*
X137683676Y-55100187D01*
X137682805Y-55109040D01*
X137656262Y-55196538D01*
X137631528Y-55283471D01*
X137627341Y-55291879D01*
X137622997Y-55306200D01*
X137582267Y-55382399D01*
X137545122Y-55456999D01*
X137535785Y-55469362D01*
X137525875Y-55487904D01*
X137474620Y-55550357D01*
X137428301Y-55611694D01*
X137412345Y-55626238D01*
X137395169Y-55647169D01*
X137337201Y-55694741D01*
X137285048Y-55742286D01*
X137261511Y-55756859D01*
X137235904Y-55777875D01*
X137174965Y-55810447D01*
X137120232Y-55844337D01*
X137088726Y-55856542D01*
X137054200Y-55874997D01*
X136993773Y-55893327D01*
X136939474Y-55914363D01*
X136900268Y-55921691D01*
X136857040Y-55934805D01*
X136800136Y-55940409D01*
X136748923Y-55949983D01*
X136702938Y-55949983D01*
X136652000Y-55955000D01*
X136601062Y-55949983D01*
X136555077Y-55949983D01*
X136503863Y-55940409D01*
X136446960Y-55934805D01*
X136403732Y-55921692D01*
X136364525Y-55914363D01*
X136310221Y-55893325D01*
X136249800Y-55874997D01*
X136215275Y-55856543D01*
X136183767Y-55844337D01*
X136129027Y-55810443D01*
X136068096Y-55777875D01*
X136042491Y-55756861D01*
X136018951Y-55742286D01*
X135966788Y-55694733D01*
X135908831Y-55647169D01*
X135891656Y-55626242D01*
X135875698Y-55611694D01*
X135829367Y-55550342D01*
X135778125Y-55487904D01*
X135768216Y-55469366D01*
X135758877Y-55456999D01*
X135721717Y-55382372D01*
X135681003Y-55306200D01*
X135676660Y-55291884D01*
X135672471Y-55283471D01*
X135647721Y-55196485D01*
X135621195Y-55109040D01*
X135620323Y-55100192D01*
X135619422Y-55097024D01*
X135610044Y-54995833D01*
X135601000Y-54904000D01*
X135610044Y-54812173D01*
X135619422Y-54710975D01*
X135620323Y-54707805D01*
X135621195Y-54698960D01*
X135647716Y-54611529D01*
X135672471Y-54524528D01*
X135676661Y-54516112D01*
X135681003Y-54501800D01*
X135721710Y-54425641D01*
X135758877Y-54351000D01*
X135768218Y-54338629D01*
X135778125Y-54320096D01*
X135829357Y-54257668D01*
X135875698Y-54196305D01*
X135891660Y-54181753D01*
X135908831Y-54160831D01*
X135966777Y-54113275D01*
X136018951Y-54065713D01*
X136042496Y-54051134D01*
X136068096Y-54030125D01*
X136129015Y-53997563D01*
X136183767Y-53963662D01*
X136215282Y-53951452D01*
X136249800Y-53933003D01*
X136310209Y-53914677D01*
X136364525Y-53893636D01*
X136403739Y-53886305D01*
X136446960Y-53873195D01*
X136503860Y-53867590D01*
X136555077Y-53858017D01*
X136601062Y-53858017D01*
X136652000Y-53853000D01*
X136702938Y-53858017D01*
G37*
G36*
X139750938Y-53858017D02*
G01*
X139796923Y-53858017D01*
X139848139Y-53867590D01*
X139905040Y-53873195D01*
X139948261Y-53886306D01*
X139987474Y-53893636D01*
X140041785Y-53914676D01*
X140102200Y-53933003D01*
X140136720Y-53951454D01*
X140168232Y-53963662D01*
X140222977Y-53997559D01*
X140283904Y-54030125D01*
X140309506Y-54051136D01*
X140333048Y-54065713D01*
X140385212Y-54113267D01*
X140443169Y-54160831D01*
X140460342Y-54181757D01*
X140476301Y-54196305D01*
X140522629Y-54257653D01*
X140573875Y-54320096D01*
X140583783Y-54338634D01*
X140593122Y-54351000D01*
X140630274Y-54425613D01*
X140670997Y-54501800D01*
X140675340Y-54516117D01*
X140679528Y-54524528D01*
X140704267Y-54611476D01*
X140730805Y-54698960D01*
X140731676Y-54707811D01*
X140732577Y-54710975D01*
X140741938Y-54812002D01*
X140751000Y-54904000D01*
X140741938Y-54996005D01*
X140732577Y-55097024D01*
X140731676Y-55100187D01*
X140730805Y-55109040D01*
X140704262Y-55196538D01*
X140679528Y-55283471D01*
X140675341Y-55291879D01*
X140670997Y-55306200D01*
X140630267Y-55382399D01*
X140593122Y-55456999D01*
X140583785Y-55469362D01*
X140573875Y-55487904D01*
X140522620Y-55550357D01*
X140476301Y-55611694D01*
X140460345Y-55626238D01*
X140443169Y-55647169D01*
X140385201Y-55694741D01*
X140333048Y-55742286D01*
X140309511Y-55756859D01*
X140283904Y-55777875D01*
X140222965Y-55810447D01*
X140168232Y-55844337D01*
X140136726Y-55856542D01*
X140102200Y-55874997D01*
X140041773Y-55893327D01*
X139987474Y-55914363D01*
X139948268Y-55921691D01*
X139905040Y-55934805D01*
X139848136Y-55940409D01*
X139796923Y-55949983D01*
X139750938Y-55949983D01*
X139700000Y-55955000D01*
X139649062Y-55949983D01*
X139603077Y-55949983D01*
X139551863Y-55940409D01*
X139494960Y-55934805D01*
X139451732Y-55921692D01*
X139412525Y-55914363D01*
X139358221Y-55893325D01*
X139297800Y-55874997D01*
X139263275Y-55856543D01*
X139231767Y-55844337D01*
X139177027Y-55810443D01*
X139116096Y-55777875D01*
X139090491Y-55756861D01*
X139066951Y-55742286D01*
X139014788Y-55694733D01*
X138956831Y-55647169D01*
X138939656Y-55626242D01*
X138923698Y-55611694D01*
X138877367Y-55550342D01*
X138826125Y-55487904D01*
X138816216Y-55469366D01*
X138806877Y-55456999D01*
X138769717Y-55382372D01*
X138729003Y-55306200D01*
X138724660Y-55291884D01*
X138720471Y-55283471D01*
X138695721Y-55196485D01*
X138669195Y-55109040D01*
X138668323Y-55100192D01*
X138667422Y-55097024D01*
X138658044Y-54995833D01*
X138649000Y-54904000D01*
X138658044Y-54812173D01*
X138667422Y-54710975D01*
X138668323Y-54707805D01*
X138669195Y-54698960D01*
X138695716Y-54611529D01*
X138720471Y-54524528D01*
X138724661Y-54516112D01*
X138729003Y-54501800D01*
X138769710Y-54425641D01*
X138806877Y-54351000D01*
X138816218Y-54338629D01*
X138826125Y-54320096D01*
X138877357Y-54257668D01*
X138923698Y-54196305D01*
X138939660Y-54181753D01*
X138956831Y-54160831D01*
X139014777Y-54113275D01*
X139066951Y-54065713D01*
X139090496Y-54051134D01*
X139116096Y-54030125D01*
X139177015Y-53997563D01*
X139231767Y-53963662D01*
X139263282Y-53951452D01*
X139297800Y-53933003D01*
X139358209Y-53914677D01*
X139412525Y-53893636D01*
X139451739Y-53886305D01*
X139494960Y-53873195D01*
X139551860Y-53867590D01*
X139603077Y-53858017D01*
X139649062Y-53858017D01*
X139700000Y-53853000D01*
X139750938Y-53858017D01*
G37*
G36*
X143306938Y-53858017D02*
G01*
X143352923Y-53858017D01*
X143404139Y-53867590D01*
X143461040Y-53873195D01*
X143504261Y-53886306D01*
X143543474Y-53893636D01*
X143597785Y-53914676D01*
X143658200Y-53933003D01*
X143692720Y-53951454D01*
X143724232Y-53963662D01*
X143778977Y-53997559D01*
X143839904Y-54030125D01*
X143865506Y-54051136D01*
X143889048Y-54065713D01*
X143941212Y-54113267D01*
X143999169Y-54160831D01*
X144016342Y-54181757D01*
X144032301Y-54196305D01*
X144078629Y-54257653D01*
X144129875Y-54320096D01*
X144139783Y-54338634D01*
X144149122Y-54351000D01*
X144186274Y-54425613D01*
X144226997Y-54501800D01*
X144231340Y-54516117D01*
X144235528Y-54524528D01*
X144260267Y-54611476D01*
X144286805Y-54698960D01*
X144287676Y-54707811D01*
X144288577Y-54710975D01*
X144297938Y-54812002D01*
X144307000Y-54904000D01*
X144297938Y-54996005D01*
X144288577Y-55097024D01*
X144287676Y-55100187D01*
X144286805Y-55109040D01*
X144260262Y-55196538D01*
X144235528Y-55283471D01*
X144231341Y-55291879D01*
X144226997Y-55306200D01*
X144186267Y-55382399D01*
X144149122Y-55456999D01*
X144139785Y-55469362D01*
X144129875Y-55487904D01*
X144078620Y-55550357D01*
X144032301Y-55611694D01*
X144016345Y-55626238D01*
X143999169Y-55647169D01*
X143941201Y-55694741D01*
X143889048Y-55742286D01*
X143865511Y-55756859D01*
X143839904Y-55777875D01*
X143778965Y-55810447D01*
X143724232Y-55844337D01*
X143692726Y-55856542D01*
X143658200Y-55874997D01*
X143597773Y-55893327D01*
X143543474Y-55914363D01*
X143504268Y-55921691D01*
X143461040Y-55934805D01*
X143404136Y-55940409D01*
X143352923Y-55949983D01*
X143306938Y-55949983D01*
X143256000Y-55955000D01*
X143205062Y-55949983D01*
X143159077Y-55949983D01*
X143107863Y-55940409D01*
X143050960Y-55934805D01*
X143007732Y-55921692D01*
X142968525Y-55914363D01*
X142914221Y-55893325D01*
X142853800Y-55874997D01*
X142819275Y-55856543D01*
X142787767Y-55844337D01*
X142733027Y-55810443D01*
X142672096Y-55777875D01*
X142646491Y-55756861D01*
X142622951Y-55742286D01*
X142570788Y-55694733D01*
X142512831Y-55647169D01*
X142495656Y-55626242D01*
X142479698Y-55611694D01*
X142433367Y-55550342D01*
X142382125Y-55487904D01*
X142372216Y-55469366D01*
X142362877Y-55456999D01*
X142325717Y-55382372D01*
X142285003Y-55306200D01*
X142280660Y-55291884D01*
X142276471Y-55283471D01*
X142251721Y-55196485D01*
X142225195Y-55109040D01*
X142224323Y-55100192D01*
X142223422Y-55097024D01*
X142214044Y-54995833D01*
X142205000Y-54904000D01*
X142214044Y-54812173D01*
X142223422Y-54710975D01*
X142224323Y-54707805D01*
X142225195Y-54698960D01*
X142251716Y-54611529D01*
X142276471Y-54524528D01*
X142280661Y-54516112D01*
X142285003Y-54501800D01*
X142325710Y-54425641D01*
X142362877Y-54351000D01*
X142372218Y-54338629D01*
X142382125Y-54320096D01*
X142433357Y-54257668D01*
X142479698Y-54196305D01*
X142495660Y-54181753D01*
X142512831Y-54160831D01*
X142570777Y-54113275D01*
X142622951Y-54065713D01*
X142646496Y-54051134D01*
X142672096Y-54030125D01*
X142733015Y-53997563D01*
X142787767Y-53963662D01*
X142819282Y-53951452D01*
X142853800Y-53933003D01*
X142914209Y-53914677D01*
X142968525Y-53893636D01*
X143007739Y-53886305D01*
X143050960Y-53873195D01*
X143107860Y-53867590D01*
X143159077Y-53858017D01*
X143205062Y-53858017D01*
X143256000Y-53853000D01*
X143306938Y-53858017D01*
G37*
G36*
X98602938Y-53818017D02*
G01*
X98648923Y-53818017D01*
X98700139Y-53827590D01*
X98757040Y-53833195D01*
X98800261Y-53846306D01*
X98839474Y-53853636D01*
X98893785Y-53874676D01*
X98954200Y-53893003D01*
X98988720Y-53911454D01*
X99020232Y-53923662D01*
X99074977Y-53957559D01*
X99135904Y-53990125D01*
X99161506Y-54011136D01*
X99185048Y-54025713D01*
X99237212Y-54073267D01*
X99295169Y-54120831D01*
X99312342Y-54141757D01*
X99328301Y-54156305D01*
X99374629Y-54217653D01*
X99425875Y-54280096D01*
X99435783Y-54298633D01*
X99445122Y-54311000D01*
X99482274Y-54385613D01*
X99522997Y-54461800D01*
X99527340Y-54476117D01*
X99531528Y-54484528D01*
X99556267Y-54571476D01*
X99582805Y-54658960D01*
X99583676Y-54667811D01*
X99584577Y-54670975D01*
X99593938Y-54772002D01*
X99603000Y-54864000D01*
X99593938Y-54956005D01*
X99584577Y-55057024D01*
X99583676Y-55060187D01*
X99582805Y-55069040D01*
X99556262Y-55156538D01*
X99531528Y-55243471D01*
X99527341Y-55251879D01*
X99522997Y-55266200D01*
X99482267Y-55342399D01*
X99445122Y-55416999D01*
X99435785Y-55429362D01*
X99425875Y-55447904D01*
X99374620Y-55510357D01*
X99328301Y-55571694D01*
X99312345Y-55586238D01*
X99295169Y-55607169D01*
X99237201Y-55654741D01*
X99185048Y-55702286D01*
X99161511Y-55716859D01*
X99135904Y-55737875D01*
X99074965Y-55770447D01*
X99020232Y-55804337D01*
X98988726Y-55816542D01*
X98954200Y-55834997D01*
X98893773Y-55853327D01*
X98839474Y-55874363D01*
X98800268Y-55881691D01*
X98757040Y-55894805D01*
X98700136Y-55900409D01*
X98648923Y-55909983D01*
X98602938Y-55909983D01*
X98552000Y-55915000D01*
X98501062Y-55909983D01*
X98455077Y-55909983D01*
X98403863Y-55900409D01*
X98346960Y-55894805D01*
X98303732Y-55881692D01*
X98264525Y-55874363D01*
X98210221Y-55853325D01*
X98149800Y-55834997D01*
X98115275Y-55816543D01*
X98083767Y-55804337D01*
X98029027Y-55770443D01*
X97968096Y-55737875D01*
X97942491Y-55716861D01*
X97918951Y-55702286D01*
X97866788Y-55654733D01*
X97808831Y-55607169D01*
X97791656Y-55586242D01*
X97775698Y-55571694D01*
X97729367Y-55510342D01*
X97678125Y-55447904D01*
X97668216Y-55429366D01*
X97658877Y-55416999D01*
X97621717Y-55342372D01*
X97581003Y-55266200D01*
X97576660Y-55251884D01*
X97572471Y-55243471D01*
X97547721Y-55156485D01*
X97521195Y-55069040D01*
X97520323Y-55060192D01*
X97519422Y-55057024D01*
X97510044Y-54955833D01*
X97501000Y-54864000D01*
X97510044Y-54772173D01*
X97519422Y-54670975D01*
X97520323Y-54667805D01*
X97521195Y-54658960D01*
X97547716Y-54571529D01*
X97572471Y-54484528D01*
X97576661Y-54476112D01*
X97581003Y-54461800D01*
X97621710Y-54385641D01*
X97658877Y-54311000D01*
X97668218Y-54298629D01*
X97678125Y-54280096D01*
X97729357Y-54217668D01*
X97775698Y-54156305D01*
X97791660Y-54141753D01*
X97808831Y-54120831D01*
X97866777Y-54073275D01*
X97918951Y-54025713D01*
X97942496Y-54011134D01*
X97968096Y-53990125D01*
X98029015Y-53957563D01*
X98083767Y-53923662D01*
X98115282Y-53911452D01*
X98149800Y-53893003D01*
X98210209Y-53874677D01*
X98264525Y-53853636D01*
X98303739Y-53846305D01*
X98346960Y-53833195D01*
X98403860Y-53827590D01*
X98455077Y-53818017D01*
X98501062Y-53818017D01*
X98552000Y-53813000D01*
X98602938Y-53818017D01*
G37*
G36*
X130359517Y-53254882D02*
G01*
X130376062Y-53265938D01*
X130387118Y-53282483D01*
X130391000Y-53302000D01*
X130391000Y-54902000D01*
X130387118Y-54921517D01*
X130376062Y-54938062D01*
X130359517Y-54949118D01*
X130340000Y-54953000D01*
X128740000Y-54953000D01*
X128720483Y-54949118D01*
X128703938Y-54938062D01*
X128692882Y-54921517D01*
X128689000Y-54902000D01*
X128689000Y-53302000D01*
X128692882Y-53282483D01*
X128703938Y-53265938D01*
X128720483Y-53254882D01*
X128740000Y-53251000D01*
X130340000Y-53251000D01*
X130359517Y-53254882D01*
G37*
G36*
X132629199Y-53255662D02*
G01*
X132676954Y-53255662D01*
X132718194Y-53264427D01*
X132753901Y-53267945D01*
X132798759Y-53281552D01*
X132850973Y-53292651D01*
X132884384Y-53307526D01*
X132913435Y-53316339D01*
X132959602Y-53341015D01*
X133013500Y-53365012D01*
X133038554Y-53383215D01*
X133060453Y-53394920D01*
X133105128Y-53431584D01*
X133157430Y-53469584D01*
X133174411Y-53488443D01*
X133189320Y-53500679D01*
X133229387Y-53549501D01*
X133276473Y-53601795D01*
X133286364Y-53618927D01*
X133295079Y-53629546D01*
X133327306Y-53689840D01*
X133365427Y-53755867D01*
X133369813Y-53769368D01*
X133373660Y-53776564D01*
X133394861Y-53846455D01*
X133420404Y-53925067D01*
X133421303Y-53933623D01*
X133422054Y-53936098D01*
X133429371Y-54010389D01*
X133439000Y-54102000D01*
X133429370Y-54193619D01*
X133422054Y-54267901D01*
X133421303Y-54270375D01*
X133420404Y-54278933D01*
X133394856Y-54357558D01*
X133373660Y-54427435D01*
X133369814Y-54434629D01*
X133365427Y-54448133D01*
X133327299Y-54514172D01*
X133295079Y-54574453D01*
X133286366Y-54585069D01*
X133276473Y-54602205D01*
X133229378Y-54654509D01*
X133189320Y-54703320D01*
X133174414Y-54715552D01*
X133157430Y-54734416D01*
X133105118Y-54772423D01*
X133060453Y-54809079D01*
X133038559Y-54820780D01*
X133013500Y-54838988D01*
X132959591Y-54862989D01*
X132913435Y-54887660D01*
X132884391Y-54896470D01*
X132850973Y-54911349D01*
X132798748Y-54922449D01*
X132753901Y-54936054D01*
X132718203Y-54939570D01*
X132676954Y-54948338D01*
X132629188Y-54948338D01*
X132588000Y-54952395D01*
X132546811Y-54948338D01*
X132499046Y-54948338D01*
X132457797Y-54939570D01*
X132422098Y-54936054D01*
X132377248Y-54922448D01*
X132325027Y-54911349D01*
X132291610Y-54896471D01*
X132262564Y-54887660D01*
X132216402Y-54862986D01*
X132162500Y-54838988D01*
X132137443Y-54820783D01*
X132115546Y-54809079D01*
X132070873Y-54772416D01*
X132018570Y-54734416D01*
X132001588Y-54715555D01*
X131986679Y-54703320D01*
X131946610Y-54654496D01*
X131899527Y-54602205D01*
X131889636Y-54585073D01*
X131880920Y-54574453D01*
X131848687Y-54514148D01*
X131810573Y-54448133D01*
X131806186Y-54434634D01*
X131802339Y-54427435D01*
X131781128Y-54357512D01*
X131755596Y-54278933D01*
X131754697Y-54270380D01*
X131753945Y-54267901D01*
X131746613Y-54193467D01*
X131737000Y-54102000D01*
X131746612Y-54010540D01*
X131753945Y-53936098D01*
X131754697Y-53933618D01*
X131755596Y-53925067D01*
X131781123Y-53846502D01*
X131802339Y-53776564D01*
X131806187Y-53769363D01*
X131810573Y-53755867D01*
X131848680Y-53689863D01*
X131880920Y-53629546D01*
X131889638Y-53618923D01*
X131899527Y-53601795D01*
X131946601Y-53549513D01*
X131986679Y-53500679D01*
X132001591Y-53488440D01*
X132018570Y-53469584D01*
X132070862Y-53431591D01*
X132115546Y-53394920D01*
X132137448Y-53383213D01*
X132162500Y-53365012D01*
X132216391Y-53341018D01*
X132262564Y-53316339D01*
X132291617Y-53307525D01*
X132325027Y-53292651D01*
X132377237Y-53281553D01*
X132422098Y-53267945D01*
X132457806Y-53264427D01*
X132499046Y-53255662D01*
X132546801Y-53255662D01*
X132588000Y-53251604D01*
X132629199Y-53255662D01*
G37*
G36*
X108007517Y-53000882D02*
G01*
X108024062Y-53011938D01*
X108035118Y-53028483D01*
X108039000Y-53048000D01*
X108039000Y-54648000D01*
X108035118Y-54667517D01*
X108024062Y-54684062D01*
X108007517Y-54695118D01*
X107988000Y-54699000D01*
X106388000Y-54699000D01*
X106368483Y-54695118D01*
X106351938Y-54684062D01*
X106340882Y-54667517D01*
X106337000Y-54648000D01*
X106337000Y-53048000D01*
X106340882Y-53028483D01*
X106351938Y-53011938D01*
X106368483Y-53000882D01*
X106388000Y-52997000D01*
X107988000Y-52997000D01*
X108007517Y-53000882D01*
G37*
G36*
X114103517Y-53000882D02*
G01*
X114120062Y-53011938D01*
X114131118Y-53028483D01*
X114135000Y-53048000D01*
X114135000Y-54648000D01*
X114131118Y-54667517D01*
X114120062Y-54684062D01*
X114103517Y-54695118D01*
X114084000Y-54699000D01*
X112484000Y-54699000D01*
X112464483Y-54695118D01*
X112447938Y-54684062D01*
X112436882Y-54667517D01*
X112433000Y-54648000D01*
X112433000Y-53048000D01*
X112436882Y-53028483D01*
X112447938Y-53011938D01*
X112464483Y-53000882D01*
X112484000Y-52997000D01*
X114084000Y-52997000D01*
X114103517Y-53000882D01*
G37*
G36*
X110277199Y-53001662D02*
G01*
X110324954Y-53001662D01*
X110366194Y-53010427D01*
X110401901Y-53013945D01*
X110446759Y-53027552D01*
X110498973Y-53038651D01*
X110532384Y-53053526D01*
X110561435Y-53062339D01*
X110607602Y-53087015D01*
X110661500Y-53111012D01*
X110686554Y-53129215D01*
X110708453Y-53140920D01*
X110753128Y-53177584D01*
X110805430Y-53215584D01*
X110822411Y-53234443D01*
X110837320Y-53246679D01*
X110877387Y-53295501D01*
X110924473Y-53347795D01*
X110934364Y-53364927D01*
X110943079Y-53375546D01*
X110975306Y-53435840D01*
X111013427Y-53501867D01*
X111017813Y-53515368D01*
X111021660Y-53522564D01*
X111042861Y-53592455D01*
X111068404Y-53671067D01*
X111069303Y-53679623D01*
X111070054Y-53682098D01*
X111077371Y-53756389D01*
X111087000Y-53848000D01*
X111077370Y-53939619D01*
X111070054Y-54013901D01*
X111069303Y-54016375D01*
X111068404Y-54024933D01*
X111042856Y-54103558D01*
X111021660Y-54173435D01*
X111017814Y-54180629D01*
X111013427Y-54194133D01*
X110975299Y-54260172D01*
X110943079Y-54320453D01*
X110934366Y-54331069D01*
X110924473Y-54348205D01*
X110877378Y-54400509D01*
X110837320Y-54449320D01*
X110822414Y-54461552D01*
X110805430Y-54480416D01*
X110753118Y-54518423D01*
X110708453Y-54555079D01*
X110686559Y-54566780D01*
X110661500Y-54584988D01*
X110607591Y-54608989D01*
X110561435Y-54633660D01*
X110532391Y-54642470D01*
X110498973Y-54657349D01*
X110446748Y-54668449D01*
X110401901Y-54682054D01*
X110366203Y-54685570D01*
X110324954Y-54694338D01*
X110277188Y-54694338D01*
X110236000Y-54698395D01*
X110194811Y-54694338D01*
X110147046Y-54694338D01*
X110105797Y-54685570D01*
X110070098Y-54682054D01*
X110025248Y-54668448D01*
X109973027Y-54657349D01*
X109939610Y-54642471D01*
X109910564Y-54633660D01*
X109864402Y-54608986D01*
X109810500Y-54584988D01*
X109785443Y-54566783D01*
X109763546Y-54555079D01*
X109718873Y-54518416D01*
X109666570Y-54480416D01*
X109649588Y-54461555D01*
X109634679Y-54449320D01*
X109594610Y-54400496D01*
X109547527Y-54348205D01*
X109537636Y-54331073D01*
X109528920Y-54320453D01*
X109496687Y-54260148D01*
X109458573Y-54194133D01*
X109454186Y-54180634D01*
X109450339Y-54173435D01*
X109429128Y-54103512D01*
X109403596Y-54024933D01*
X109402697Y-54016380D01*
X109401945Y-54013901D01*
X109394613Y-53939467D01*
X109385000Y-53848000D01*
X109394612Y-53756540D01*
X109401945Y-53682098D01*
X109402697Y-53679618D01*
X109403596Y-53671067D01*
X109429123Y-53592502D01*
X109450339Y-53522564D01*
X109454187Y-53515363D01*
X109458573Y-53501867D01*
X109496680Y-53435863D01*
X109528920Y-53375546D01*
X109537638Y-53364923D01*
X109547527Y-53347795D01*
X109594601Y-53295513D01*
X109634679Y-53246679D01*
X109649591Y-53234440D01*
X109666570Y-53215584D01*
X109718862Y-53177591D01*
X109763546Y-53140920D01*
X109785448Y-53129213D01*
X109810500Y-53111012D01*
X109864391Y-53087018D01*
X109910564Y-53062339D01*
X109939617Y-53053525D01*
X109973027Y-53038651D01*
X110025237Y-53027553D01*
X110070098Y-53013945D01*
X110105806Y-53010427D01*
X110147046Y-53001662D01*
X110194801Y-53001662D01*
X110236000Y-52997604D01*
X110277199Y-53001662D01*
G37*
G36*
X104181199Y-52747662D02*
G01*
X104228954Y-52747662D01*
X104270194Y-52756427D01*
X104305901Y-52759945D01*
X104350759Y-52773552D01*
X104402973Y-52784651D01*
X104436384Y-52799526D01*
X104465435Y-52808339D01*
X104511602Y-52833015D01*
X104565500Y-52857012D01*
X104590554Y-52875215D01*
X104612453Y-52886920D01*
X104657128Y-52923584D01*
X104709430Y-52961584D01*
X104726411Y-52980443D01*
X104741320Y-52992679D01*
X104781387Y-53041501D01*
X104828473Y-53093795D01*
X104838364Y-53110927D01*
X104847079Y-53121546D01*
X104879306Y-53181840D01*
X104917427Y-53247867D01*
X104921813Y-53261368D01*
X104925660Y-53268564D01*
X104946861Y-53338455D01*
X104972404Y-53417067D01*
X104973303Y-53425623D01*
X104974054Y-53428098D01*
X104981371Y-53502389D01*
X104991000Y-53594000D01*
X104981370Y-53685619D01*
X104974054Y-53759901D01*
X104973303Y-53762375D01*
X104972404Y-53770933D01*
X104946856Y-53849558D01*
X104925660Y-53919435D01*
X104921814Y-53926629D01*
X104917427Y-53940133D01*
X104879299Y-54006172D01*
X104847079Y-54066453D01*
X104838366Y-54077069D01*
X104828473Y-54094205D01*
X104781378Y-54146509D01*
X104741320Y-54195320D01*
X104726414Y-54207552D01*
X104709430Y-54226416D01*
X104657118Y-54264423D01*
X104612453Y-54301079D01*
X104590559Y-54312780D01*
X104565500Y-54330988D01*
X104511591Y-54354989D01*
X104465435Y-54379660D01*
X104436391Y-54388470D01*
X104402973Y-54403349D01*
X104350748Y-54414449D01*
X104305901Y-54428054D01*
X104270203Y-54431570D01*
X104228954Y-54440338D01*
X104181188Y-54440338D01*
X104140000Y-54444395D01*
X104098811Y-54440338D01*
X104051046Y-54440338D01*
X104009797Y-54431570D01*
X103974098Y-54428054D01*
X103929248Y-54414448D01*
X103877027Y-54403349D01*
X103843610Y-54388471D01*
X103814564Y-54379660D01*
X103768402Y-54354986D01*
X103714500Y-54330988D01*
X103689443Y-54312783D01*
X103667546Y-54301079D01*
X103622873Y-54264416D01*
X103570570Y-54226416D01*
X103553588Y-54207555D01*
X103538679Y-54195320D01*
X103498610Y-54146496D01*
X103451527Y-54094205D01*
X103441636Y-54077073D01*
X103432920Y-54066453D01*
X103400687Y-54006148D01*
X103362573Y-53940133D01*
X103358186Y-53926634D01*
X103354339Y-53919435D01*
X103333128Y-53849512D01*
X103307596Y-53770933D01*
X103306697Y-53762380D01*
X103305945Y-53759901D01*
X103298613Y-53685467D01*
X103289000Y-53594000D01*
X103298612Y-53502540D01*
X103305945Y-53428098D01*
X103306697Y-53425618D01*
X103307596Y-53417067D01*
X103333123Y-53338502D01*
X103354339Y-53268564D01*
X103358187Y-53261363D01*
X103362573Y-53247867D01*
X103400680Y-53181863D01*
X103432920Y-53121546D01*
X103441638Y-53110923D01*
X103451527Y-53093795D01*
X103498601Y-53041513D01*
X103538679Y-52992679D01*
X103553591Y-52980440D01*
X103570570Y-52961584D01*
X103622862Y-52923591D01*
X103667546Y-52886920D01*
X103689448Y-52875213D01*
X103714500Y-52857012D01*
X103768391Y-52833018D01*
X103814564Y-52808339D01*
X103843617Y-52799525D01*
X103877027Y-52784651D01*
X103929237Y-52773553D01*
X103974098Y-52759945D01*
X104009806Y-52756427D01*
X104051046Y-52747662D01*
X104098801Y-52747662D01*
X104140000Y-52743604D01*
X104181199Y-52747662D01*
G37*
G36*
X118987168Y-52177699D02*
G01*
X119036872Y-52179931D01*
X119037884Y-52180114D01*
X119045657Y-52180485D01*
X119138023Y-52198287D01*
X119233772Y-52215663D01*
X119239678Y-52217879D01*
X119251188Y-52220098D01*
X119335137Y-52253706D01*
X119418486Y-52284988D01*
X119429069Y-52291311D01*
X119445507Y-52297892D01*
X119517208Y-52343971D01*
X119587853Y-52386180D01*
X119601672Y-52398254D01*
X119621593Y-52411056D01*
X119679246Y-52466028D01*
X119736431Y-52515989D01*
X119751622Y-52535038D01*
X119773080Y-52555498D01*
X119815960Y-52615715D01*
X119859442Y-52670239D01*
X119873841Y-52696997D01*
X119894494Y-52726000D01*
X119922789Y-52787958D01*
X119952936Y-52843980D01*
X119964185Y-52878603D01*
X119981446Y-52916398D01*
X119996121Y-52976892D01*
X120013902Y-53031615D01*
X120019598Y-53073665D01*
X120030793Y-53119811D01*
X120033474Y-53176099D01*
X120040387Y-53227128D01*
X120038212Y-53275549D01*
X120040753Y-53328888D01*
X120033573Y-53378826D01*
X120031534Y-53424222D01*
X120019407Y-53477353D01*
X120010965Y-53536071D01*
X119996401Y-53578149D01*
X119987632Y-53616571D01*
X119963829Y-53672260D01*
X119942505Y-53733872D01*
X119923211Y-53767288D01*
X119910089Y-53797991D01*
X119873364Y-53853626D01*
X119837848Y-53915143D01*
X119816481Y-53939800D01*
X119801400Y-53962649D01*
X119751070Y-54015289D01*
X119700777Y-54073331D01*
X119679817Y-54089813D01*
X119665058Y-54105251D01*
X119601078Y-54151734D01*
X119536246Y-54202720D01*
X119517852Y-54212202D01*
X119505445Y-54221217D01*
X119428360Y-54258338D01*
X119350200Y-54298633D01*
X119336075Y-54302780D01*
X119327685Y-54306821D01*
X119238271Y-54331498D01*
X119149366Y-54357603D01*
X119140678Y-54358432D01*
X119137503Y-54359309D01*
X119033080Y-54368707D01*
X118941000Y-54377500D01*
X118935384Y-54377500D01*
X118043804Y-54377500D01*
X118041000Y-54377500D01*
X117994657Y-54375292D01*
X117945127Y-54373068D01*
X117944121Y-54372885D01*
X117936343Y-54372515D01*
X117843903Y-54354698D01*
X117748227Y-54337336D01*
X117742325Y-54335120D01*
X117730812Y-54332902D01*
X117646837Y-54299283D01*
X117563513Y-54268011D01*
X117552932Y-54261689D01*
X117536493Y-54255108D01*
X117464782Y-54209022D01*
X117394146Y-54166819D01*
X117380327Y-54154746D01*
X117360407Y-54141944D01*
X117302751Y-54086970D01*
X117245568Y-54037010D01*
X117230376Y-54017960D01*
X117208920Y-53997502D01*
X117166040Y-53937286D01*
X117122557Y-53882760D01*
X117108156Y-53856000D01*
X117087506Y-53827000D01*
X117059213Y-53765047D01*
X117029063Y-53709019D01*
X117017811Y-53674391D01*
X117000554Y-53636602D01*
X116985880Y-53576115D01*
X116968097Y-53521384D01*
X116962399Y-53479326D01*
X116951207Y-53433189D01*
X116948525Y-53376910D01*
X116941612Y-53325871D01*
X116943787Y-53277439D01*
X116941247Y-53224112D01*
X116948425Y-53174184D01*
X116950465Y-53128777D01*
X116962594Y-53075631D01*
X116971035Y-53016929D01*
X116985595Y-52974860D01*
X116994367Y-52936428D01*
X117018176Y-52880722D01*
X117039495Y-52819128D01*
X117058782Y-52785720D01*
X117071910Y-52755008D01*
X117108646Y-52699353D01*
X117144152Y-52637857D01*
X117165511Y-52613207D01*
X117180599Y-52590350D01*
X117230948Y-52537688D01*
X117281223Y-52479669D01*
X117302174Y-52463192D01*
X117316941Y-52447748D01*
X117380949Y-52401242D01*
X117445754Y-52350280D01*
X117464139Y-52340801D01*
X117476554Y-52331782D01*
X117553683Y-52294638D01*
X117631800Y-52254367D01*
X117645916Y-52250222D01*
X117654314Y-52246178D01*
X117743801Y-52221480D01*
X117832634Y-52195397D01*
X117841314Y-52194568D01*
X117844496Y-52193690D01*
X117949015Y-52184283D01*
X118041000Y-52175500D01*
X118941000Y-52175500D01*
X118987168Y-52177699D01*
G37*
G36*
X123749668Y-52114199D02*
G01*
X123799372Y-52116431D01*
X123800384Y-52116614D01*
X123808157Y-52116985D01*
X123900523Y-52134787D01*
X123996272Y-52152163D01*
X124002178Y-52154379D01*
X124013688Y-52156598D01*
X124097637Y-52190206D01*
X124180986Y-52221488D01*
X124191569Y-52227811D01*
X124208007Y-52234392D01*
X124279708Y-52280471D01*
X124350353Y-52322680D01*
X124364172Y-52334754D01*
X124384093Y-52347556D01*
X124441746Y-52402528D01*
X124498931Y-52452489D01*
X124514122Y-52471538D01*
X124535580Y-52491998D01*
X124578460Y-52552215D01*
X124621942Y-52606739D01*
X124636341Y-52633497D01*
X124656994Y-52662500D01*
X124685289Y-52724458D01*
X124715436Y-52780480D01*
X124726685Y-52815103D01*
X124743946Y-52852898D01*
X124758621Y-52913392D01*
X124776402Y-52968115D01*
X124782098Y-53010165D01*
X124793293Y-53056311D01*
X124795974Y-53112599D01*
X124802887Y-53163628D01*
X124800712Y-53212049D01*
X124803253Y-53265388D01*
X124796073Y-53315326D01*
X124794034Y-53360722D01*
X124781907Y-53413853D01*
X124773465Y-53472571D01*
X124758901Y-53514649D01*
X124750132Y-53553071D01*
X124726329Y-53608760D01*
X124705005Y-53670372D01*
X124685711Y-53703788D01*
X124672589Y-53734491D01*
X124635864Y-53790126D01*
X124600348Y-53851643D01*
X124578981Y-53876300D01*
X124563900Y-53899149D01*
X124513570Y-53951789D01*
X124463277Y-54009831D01*
X124442317Y-54026313D01*
X124427558Y-54041751D01*
X124363578Y-54088234D01*
X124298746Y-54139220D01*
X124280352Y-54148702D01*
X124267945Y-54157717D01*
X124190860Y-54194838D01*
X124112700Y-54235133D01*
X124098575Y-54239280D01*
X124090185Y-54243321D01*
X124000771Y-54267998D01*
X123911866Y-54294103D01*
X123903178Y-54294932D01*
X123900003Y-54295809D01*
X123795580Y-54305207D01*
X123703500Y-54314000D01*
X123697884Y-54314000D01*
X122806304Y-54314000D01*
X122803500Y-54314000D01*
X122757157Y-54311792D01*
X122707627Y-54309568D01*
X122706621Y-54309385D01*
X122698843Y-54309015D01*
X122606403Y-54291198D01*
X122510727Y-54273836D01*
X122504825Y-54271620D01*
X122493312Y-54269402D01*
X122409337Y-54235783D01*
X122326013Y-54204511D01*
X122315432Y-54198189D01*
X122298993Y-54191608D01*
X122227282Y-54145522D01*
X122156646Y-54103319D01*
X122142827Y-54091246D01*
X122122907Y-54078444D01*
X122065251Y-54023470D01*
X122008068Y-53973510D01*
X121992876Y-53954460D01*
X121971420Y-53934002D01*
X121928540Y-53873786D01*
X121885057Y-53819260D01*
X121870656Y-53792500D01*
X121850006Y-53763500D01*
X121821713Y-53701547D01*
X121791563Y-53645519D01*
X121780311Y-53610891D01*
X121763054Y-53573102D01*
X121748380Y-53512615D01*
X121730597Y-53457884D01*
X121724899Y-53415826D01*
X121713707Y-53369689D01*
X121711025Y-53313410D01*
X121704112Y-53262371D01*
X121706287Y-53213939D01*
X121703747Y-53160612D01*
X121710925Y-53110684D01*
X121712965Y-53065277D01*
X121725094Y-53012131D01*
X121733535Y-52953429D01*
X121748095Y-52911360D01*
X121756867Y-52872928D01*
X121780676Y-52817222D01*
X121801995Y-52755628D01*
X121821282Y-52722220D01*
X121834410Y-52691508D01*
X121871146Y-52635853D01*
X121906652Y-52574357D01*
X121928011Y-52549707D01*
X121943099Y-52526850D01*
X121993448Y-52474188D01*
X122043723Y-52416169D01*
X122064674Y-52399692D01*
X122079441Y-52384248D01*
X122143449Y-52337742D01*
X122208254Y-52286780D01*
X122226639Y-52277301D01*
X122239054Y-52268282D01*
X122316183Y-52231138D01*
X122394300Y-52190867D01*
X122408416Y-52186722D01*
X122416814Y-52182678D01*
X122506301Y-52157980D01*
X122595134Y-52131897D01*
X122603814Y-52131068D01*
X122606996Y-52130190D01*
X122711515Y-52120783D01*
X122803500Y-52112000D01*
X123703500Y-52112000D01*
X123749668Y-52114199D01*
G37*
G36*
X98888708Y-49470371D02*
G01*
X99102965Y-49543925D01*
X99302194Y-49651742D01*
X99480959Y-49790881D01*
X99634385Y-49957546D01*
X99758286Y-50147191D01*
X99849283Y-50354642D01*
X99904893Y-50574242D01*
X99923600Y-50800000D01*
X99904893Y-51025758D01*
X99849283Y-51245358D01*
X99758286Y-51452809D01*
X99634385Y-51642454D01*
X99480959Y-51809119D01*
X99302194Y-51948258D01*
X99102965Y-52056075D01*
X98888708Y-52129629D01*
X98665266Y-52166915D01*
X98438734Y-52166915D01*
X98215292Y-52129629D01*
X98001035Y-52056075D01*
X97801806Y-51948258D01*
X97623041Y-51809119D01*
X97469615Y-51642454D01*
X97345714Y-51452809D01*
X97254717Y-51245358D01*
X97199107Y-51025758D01*
X97180400Y-50800000D01*
X97199107Y-50574242D01*
X97254717Y-50354642D01*
X97345714Y-50147191D01*
X97469615Y-49957546D01*
X97623041Y-49790881D01*
X97801806Y-49651742D01*
X98001035Y-49543925D01*
X98215292Y-49470371D01*
X98438734Y-49433085D01*
X98665266Y-49433085D01*
X98888708Y-49470371D01*
G37*
G36*
X103968708Y-49470371D02*
G01*
X104182965Y-49543925D01*
X104382194Y-49651742D01*
X104560959Y-49790881D01*
X104714385Y-49957546D01*
X104838286Y-50147191D01*
X104929283Y-50354642D01*
X104984893Y-50574242D01*
X105003600Y-50800000D01*
X104984893Y-51025758D01*
X104929283Y-51245358D01*
X104838286Y-51452809D01*
X104714385Y-51642454D01*
X104560959Y-51809119D01*
X104382194Y-51948258D01*
X104182965Y-52056075D01*
X103968708Y-52129629D01*
X103745266Y-52166915D01*
X103518734Y-52166915D01*
X103295292Y-52129629D01*
X103081035Y-52056075D01*
X102881806Y-51948258D01*
X102703041Y-51809119D01*
X102549615Y-51642454D01*
X102425714Y-51452809D01*
X102334717Y-51245358D01*
X102279107Y-51025758D01*
X102260400Y-50800000D01*
X102279107Y-50574242D01*
X102334717Y-50354642D01*
X102425714Y-50147191D01*
X102549615Y-49957546D01*
X102703041Y-49790881D01*
X102881806Y-49651742D01*
X103081035Y-49543925D01*
X103295292Y-49470371D01*
X103518734Y-49433085D01*
X103745266Y-49433085D01*
X103968708Y-49470371D01*
G37*
G36*
X109048708Y-49470371D02*
G01*
X109262965Y-49543925D01*
X109462194Y-49651742D01*
X109640959Y-49790881D01*
X109794385Y-49957546D01*
X109918286Y-50147191D01*
X110009283Y-50354642D01*
X110064893Y-50574242D01*
X110083600Y-50800000D01*
X110064893Y-51025758D01*
X110009283Y-51245358D01*
X109918286Y-51452809D01*
X109794385Y-51642454D01*
X109640959Y-51809119D01*
X109462194Y-51948258D01*
X109262965Y-52056075D01*
X109048708Y-52129629D01*
X108825266Y-52166915D01*
X108598734Y-52166915D01*
X108375292Y-52129629D01*
X108161035Y-52056075D01*
X107961806Y-51948258D01*
X107783041Y-51809119D01*
X107629615Y-51642454D01*
X107505714Y-51452809D01*
X107414717Y-51245358D01*
X107359107Y-51025758D01*
X107340400Y-50800000D01*
X107359107Y-50574242D01*
X107414717Y-50354642D01*
X107505714Y-50147191D01*
X107629615Y-49957546D01*
X107783041Y-49790881D01*
X107961806Y-49651742D01*
X108161035Y-49543925D01*
X108375292Y-49470371D01*
X108598734Y-49433085D01*
X108825266Y-49433085D01*
X109048708Y-49470371D01*
G37*
G36*
X132924708Y-49470371D02*
G01*
X133138965Y-49543925D01*
X133338194Y-49651742D01*
X133516959Y-49790881D01*
X133670385Y-49957546D01*
X133794286Y-50147191D01*
X133885283Y-50354642D01*
X133940893Y-50574242D01*
X133959600Y-50800000D01*
X133940893Y-51025758D01*
X133885283Y-51245358D01*
X133794286Y-51452809D01*
X133670385Y-51642454D01*
X133516959Y-51809119D01*
X133338194Y-51948258D01*
X133138965Y-52056075D01*
X132924708Y-52129629D01*
X132701266Y-52166915D01*
X132474734Y-52166915D01*
X132251292Y-52129629D01*
X132037035Y-52056075D01*
X131837806Y-51948258D01*
X131659041Y-51809119D01*
X131505615Y-51642454D01*
X131381714Y-51452809D01*
X131290717Y-51245358D01*
X131235107Y-51025758D01*
X131216400Y-50800000D01*
X131235107Y-50574242D01*
X131290717Y-50354642D01*
X131381714Y-50147191D01*
X131505615Y-49957546D01*
X131659041Y-49790881D01*
X131837806Y-49651742D01*
X132037035Y-49543925D01*
X132251292Y-49470371D01*
X132474734Y-49433085D01*
X132701266Y-49433085D01*
X132924708Y-49470371D01*
G37*
G36*
X138004708Y-49470371D02*
G01*
X138218965Y-49543925D01*
X138418194Y-49651742D01*
X138596959Y-49790881D01*
X138750385Y-49957546D01*
X138874286Y-50147191D01*
X138965283Y-50354642D01*
X139020893Y-50574242D01*
X139039600Y-50800000D01*
X139020893Y-51025758D01*
X138965283Y-51245358D01*
X138874286Y-51452809D01*
X138750385Y-51642454D01*
X138596959Y-51809119D01*
X138418194Y-51948258D01*
X138218965Y-52056075D01*
X138004708Y-52129629D01*
X137781266Y-52166915D01*
X137554734Y-52166915D01*
X137331292Y-52129629D01*
X137117035Y-52056075D01*
X136917806Y-51948258D01*
X136739041Y-51809119D01*
X136585615Y-51642454D01*
X136461714Y-51452809D01*
X136370717Y-51245358D01*
X136315107Y-51025758D01*
X136296400Y-50800000D01*
X136315107Y-50574242D01*
X136370717Y-50354642D01*
X136461714Y-50147191D01*
X136585615Y-49957546D01*
X136739041Y-49790881D01*
X136917806Y-49651742D01*
X137117035Y-49543925D01*
X137331292Y-49470371D01*
X137554734Y-49433085D01*
X137781266Y-49433085D01*
X138004708Y-49470371D01*
G37*
G36*
X143084708Y-49470371D02*
G01*
X143298965Y-49543925D01*
X143498194Y-49651742D01*
X143676959Y-49790881D01*
X143830385Y-49957546D01*
X143954286Y-50147191D01*
X144045283Y-50354642D01*
X144100893Y-50574242D01*
X144119600Y-50800000D01*
X144100893Y-51025758D01*
X144045283Y-51245358D01*
X143954286Y-51452809D01*
X143830385Y-51642454D01*
X143676959Y-51809119D01*
X143498194Y-51948258D01*
X143298965Y-52056075D01*
X143084708Y-52129629D01*
X142861266Y-52166915D01*
X142634734Y-52166915D01*
X142411292Y-52129629D01*
X142197035Y-52056075D01*
X141997806Y-51948258D01*
X141819041Y-51809119D01*
X141665615Y-51642454D01*
X141541714Y-51452809D01*
X141450717Y-51245358D01*
X141395107Y-51025758D01*
X141376400Y-50800000D01*
X141395107Y-50574242D01*
X141450717Y-50354642D01*
X141541714Y-50147191D01*
X141665615Y-49957546D01*
X141819041Y-49790881D01*
X141997806Y-49651742D01*
X142197035Y-49543925D01*
X142411292Y-49470371D01*
X142634734Y-49433085D01*
X142861266Y-49433085D01*
X143084708Y-49470371D01*
G37*
G36*
X126041517Y-48936882D02*
G01*
X126058062Y-48947938D01*
X126069118Y-48964483D01*
X126073000Y-48984000D01*
X126073000Y-50584000D01*
X126069118Y-50603517D01*
X126058062Y-50620062D01*
X126041517Y-50631118D01*
X126022000Y-50635000D01*
X124422000Y-50635000D01*
X124402483Y-50631118D01*
X124385938Y-50620062D01*
X124374882Y-50603517D01*
X124371000Y-50584000D01*
X124371000Y-48984000D01*
X124374882Y-48964483D01*
X124385938Y-48947938D01*
X124402483Y-48936882D01*
X124422000Y-48933000D01*
X126022000Y-48933000D01*
X126041517Y-48936882D01*
G37*
G36*
X117643199Y-48937662D02*
G01*
X117690954Y-48937662D01*
X117732194Y-48946427D01*
X117767901Y-48949945D01*
X117812759Y-48963552D01*
X117864973Y-48974651D01*
X117898384Y-48989526D01*
X117927435Y-48998339D01*
X117973602Y-49023015D01*
X118027500Y-49047012D01*
X118052554Y-49065215D01*
X118074453Y-49076920D01*
X118119128Y-49113584D01*
X118171430Y-49151584D01*
X118188411Y-49170443D01*
X118203320Y-49182679D01*
X118243387Y-49231501D01*
X118290473Y-49283795D01*
X118300364Y-49300927D01*
X118309079Y-49311546D01*
X118341306Y-49371840D01*
X118379427Y-49437867D01*
X118383813Y-49451368D01*
X118387660Y-49458564D01*
X118408861Y-49528455D01*
X118434404Y-49607067D01*
X118435303Y-49615623D01*
X118436054Y-49618098D01*
X118443371Y-49692389D01*
X118453000Y-49784000D01*
X118443370Y-49875619D01*
X118436054Y-49949901D01*
X118435303Y-49952375D01*
X118434404Y-49960933D01*
X118408856Y-50039558D01*
X118387660Y-50109435D01*
X118383814Y-50116629D01*
X118379427Y-50130133D01*
X118341299Y-50196172D01*
X118309079Y-50256453D01*
X118300366Y-50267069D01*
X118290473Y-50284205D01*
X118243378Y-50336509D01*
X118203320Y-50385320D01*
X118188414Y-50397552D01*
X118171430Y-50416416D01*
X118119118Y-50454423D01*
X118074453Y-50491079D01*
X118052559Y-50502780D01*
X118027500Y-50520988D01*
X117973591Y-50544989D01*
X117927435Y-50569660D01*
X117898391Y-50578470D01*
X117864973Y-50593349D01*
X117812748Y-50604449D01*
X117767901Y-50618054D01*
X117732203Y-50621570D01*
X117690954Y-50630338D01*
X117643188Y-50630338D01*
X117602000Y-50634395D01*
X117560811Y-50630338D01*
X117513046Y-50630338D01*
X117471797Y-50621570D01*
X117436098Y-50618054D01*
X117391248Y-50604448D01*
X117339027Y-50593349D01*
X117305610Y-50578471D01*
X117276564Y-50569660D01*
X117230402Y-50544986D01*
X117176500Y-50520988D01*
X117151443Y-50502783D01*
X117129546Y-50491079D01*
X117084873Y-50454416D01*
X117032570Y-50416416D01*
X117015588Y-50397555D01*
X117000679Y-50385320D01*
X116960610Y-50336496D01*
X116913527Y-50284205D01*
X116903636Y-50267073D01*
X116894920Y-50256453D01*
X116862687Y-50196148D01*
X116824573Y-50130133D01*
X116820186Y-50116634D01*
X116816339Y-50109435D01*
X116795128Y-50039512D01*
X116769596Y-49960933D01*
X116768697Y-49952380D01*
X116767945Y-49949901D01*
X116760613Y-49875467D01*
X116751000Y-49784000D01*
X116760612Y-49692540D01*
X116767945Y-49618098D01*
X116768697Y-49615618D01*
X116769596Y-49607067D01*
X116795123Y-49528502D01*
X116816339Y-49458564D01*
X116820187Y-49451363D01*
X116824573Y-49437867D01*
X116862680Y-49371863D01*
X116894920Y-49311546D01*
X116903638Y-49300923D01*
X116913527Y-49283795D01*
X116960601Y-49231513D01*
X117000679Y-49182679D01*
X117015591Y-49170440D01*
X117032570Y-49151584D01*
X117084862Y-49113591D01*
X117129546Y-49076920D01*
X117151448Y-49065213D01*
X117176500Y-49047012D01*
X117230391Y-49023018D01*
X117276564Y-48998339D01*
X117305617Y-48989525D01*
X117339027Y-48974651D01*
X117391237Y-48963553D01*
X117436098Y-48949945D01*
X117471806Y-48946427D01*
X117513046Y-48937662D01*
X117560801Y-48937662D01*
X117602000Y-48933604D01*
X117643199Y-48937662D01*
G37*
M02*
