M48
; DRILL file {KiCad 7.0.11+dfsg-1build4} date Sun 22 Feb 2026 11:15:38 AM EST
; FORMAT={-:-/ absolute / metric / decimal}
; #@! TF.CreationDate,2026-02-22T11:15:38-05:00
; #@! TF.GenerationSoftware,Kicad,Pcbnew,7.0.11+dfsg-1build4
; #@! TF.FileFunction,Plated,1,2,PTH
FMAT,2
METRIC
; #@! TA.AperFunction,Plated,PTH,ComponentDrill
T1C0.800
; #@! TA.AperFunction,Plated,PTH,ComponentDrill
T2C1.000
; #@! TA.AperFunction,Plated,PTH,ComponentDrill
T3C1.400
%
G90
G05
T1
X95.504Y-77.724
X95.504Y-80.772
X95.504Y-83.82
X96.012Y-64.008
X96.012Y-67.056
X104.14Y-53.594
X104.14Y-61.214
X105.664Y-77.724
X105.664Y-80.772
X105.664Y-83.82
X106.172Y-64.008
X106.172Y-67.056
X107.188Y-53.848
X107.188Y-61.468
X110.236Y-53.848
X110.236Y-61.468
X113.284Y-53.848
X113.284Y-61.468
X116.651Y-80.772
X116.84Y-67.056
X116.84Y-69.596
X116.84Y-72.136
X116.84Y-74.676
X117.602Y-49.784
X119.151Y-80.772
X122.747Y-80.772
X124.46Y-67.056
X124.46Y-69.596
X124.46Y-72.136
X124.46Y-74.676
X125.222Y-49.784
X125.247Y-80.772
X128.524Y-66.04
X128.524Y-76.2
X129.54Y-54.102
X129.54Y-61.722
X131.064Y-78.74
X132.588Y-54.102
X132.588Y-61.722
X133.096Y-64.516
X133.096Y-67.564
X141.224Y-78.74
X143.256Y-64.516
X143.256Y-67.564
T2
X98.552Y-54.864
X98.552Y-59.864
X108.752Y-83.82
X112.776Y-66.12
X112.776Y-71.12
X113.752Y-83.82
X129.296Y-83.82
X131.836Y-83.82
X134.376Y-83.82
X136.652Y-54.904
X136.652Y-59.904
X136.916Y-83.82
X139.7Y-54.904
X139.7Y-59.904
X143.256Y-54.904
X143.256Y-59.904
T3
X98.552Y-50.8
X98.552Y-73.66
X103.632Y-50.8
X103.632Y-73.66
X108.712Y-50.8
X108.712Y-73.66
X132.588Y-50.8
X132.588Y-73.66
X137.668Y-50.8
X137.668Y-73.66
X142.748Y-50.8
X142.748Y-73.66
T3
X117.941Y-53.276G85X119.041Y-53.276
G05
X117.941Y-57.912G85X119.041Y-57.912
G05
X117.941Y-62.738G85X119.041Y-62.738
G05
X122.703Y-53.213G85X123.803Y-53.213
G05
X122.703Y-57.912G85X123.803Y-57.912
G05
X122.703Y-62.738G85X123.803Y-62.738
G05
M30
