G04 #@! TF.GenerationSoftware,KiCad,Pcbnew,7.0.11+dfsg-1build4*
G04 #@! TF.CreationDate,2026-02-13T01:43:53-05:00*
G04 #@! TF.ProjectId,stomp-chargepump,73746f6d-702d-4636-9861-72676570756d,rev?*
G04 #@! TF.SameCoordinates,Original*
G04 #@! TF.FileFunction,Soldermask,Top*
G04 #@! TF.FilePolarity,Negative*
%FSLAX46Y46*%
G04 Gerber Fmt 4.6, Leading zero omitted, Abs format (unit mm)*
G04 Created by KiCad (PCBNEW 7.0.11+dfsg-1build4) date 2026-02-13 01:43:53*
%MOMM*%
%LPD*%
G01*
G04 APERTURE LIST*
%ADD10R,1.700000X1.700000*%
%ADD11O,1.700000X1.700000*%
%ADD12R,1.600000X1.600000*%
%ADD13C,1.600000*%
%ADD14R,1.600000X2.400000*%
%ADD15O,1.600000X2.400000*%
%ADD16R,2.800000X2.800000*%
%ADD17O,2.800000X2.800000*%
%ADD18R,1.800000X1.800000*%
%ADD19C,1.800000*%
%ADD20O,1.600000X1.600000*%
%ADD21O,3.203200X2.203200*%
G04 APERTURE END LIST*
D10*
X141400000Y-70400000D03*
D11*
X143940000Y-70400000D03*
X146480000Y-70400000D03*
X149020000Y-70400000D03*
D12*
X145617621Y-78400000D03*
D13*
X148117621Y-78400000D03*
D14*
X109900000Y-86475000D03*
D15*
X107360000Y-86475000D03*
X104820000Y-86475000D03*
X102280000Y-86475000D03*
X102280000Y-94095000D03*
X104820000Y-94095000D03*
X107360000Y-94095000D03*
X109900000Y-94095000D03*
D10*
X126920000Y-70400000D03*
D11*
X129460000Y-70400000D03*
X132000000Y-70400000D03*
X134540000Y-70400000D03*
D16*
X149225000Y-93345000D03*
D17*
X139065000Y-93345000D03*
D12*
X110169888Y-81915000D03*
D13*
X112169888Y-81915000D03*
D12*
X102957621Y-81280000D03*
D13*
X105457621Y-81280000D03*
D18*
X123725000Y-75400000D03*
D19*
X126265000Y-75400000D03*
D16*
X139065000Y-88900000D03*
D17*
X149225000Y-88900000D03*
D12*
X139300000Y-79000000D03*
D13*
X141300000Y-79000000D03*
D16*
X139220000Y-84000000D03*
D17*
X149380000Y-84000000D03*
D13*
X118760000Y-77300000D03*
D20*
X108600000Y-77300000D03*
D21*
X119796560Y-82831940D03*
X119796560Y-87630000D03*
X119796560Y-92428060D03*
X125095000Y-82831940D03*
X125095000Y-87630000D03*
X125095000Y-92428060D03*
X130393440Y-82831940D03*
X130393440Y-87630000D03*
X130393440Y-92428060D03*
D10*
X115020000Y-70400000D03*
D11*
X117560000Y-70400000D03*
X120100000Y-70400000D03*
X122640000Y-70400000D03*
D10*
X103280000Y-70400000D03*
D11*
X105820000Y-70400000D03*
X108360000Y-70400000D03*
X110900000Y-70400000D03*
M02*
