G04 #@! TF.GenerationSoftware,KiCad,Pcbnew,7.0.11+dfsg-1build4*
G04 #@! TF.CreationDate,2026-01-27T20:44:15-05:00*
G04 #@! TF.ProjectId,Overdrive-01-KoT,4f766572-6472-4697-9665-2d30312d4b6f,rev?*
G04 #@! TF.SameCoordinates,Original*
G04 #@! TF.FileFunction,Copper,L2,Bot*
G04 #@! TF.FilePolarity,Positive*
%FSLAX46Y46*%
G04 Gerber Fmt 4.6, Leading zero omitted, Abs format (unit mm)*
G04 Created by KiCad (PCBNEW 7.0.11+dfsg-1build4) date 2026-01-27 20:44:15*
%MOMM*%
%LPD*%
G01*
G04 APERTURE LIST*
G04 #@! TA.AperFunction,ComponentPad*
%ADD10C,1.600000*%
G04 #@! TD*
G04 #@! TA.AperFunction,ComponentPad*
%ADD11O,1.600000X1.600000*%
G04 #@! TD*
G04 #@! TA.AperFunction,ComponentPad*
%ADD12R,1.600000X1.600000*%
G04 #@! TD*
G04 #@! TA.AperFunction,ComponentPad*
%ADD13R,1.700000X1.700000*%
G04 #@! TD*
G04 #@! TA.AperFunction,ComponentPad*
%ADD14O,1.700000X1.700000*%
G04 #@! TD*
G04 #@! TA.AperFunction,ComponentPad*
%ADD15O,4.000000X2.416000*%
G04 #@! TD*
G04 #@! TA.AperFunction,ComponentPad*
%ADD16C,2.540000*%
G04 #@! TD*
G04 #@! TA.AperFunction,ComponentPad*
%ADD17R,1.800000X1.800000*%
G04 #@! TD*
G04 #@! TA.AperFunction,ComponentPad*
%ADD18O,1.800000X1.800000*%
G04 #@! TD*
G04 #@! TA.AperFunction,Conductor*
%ADD19C,0.250000*%
G04 #@! TD*
G04 APERTURE END LIST*
D10*
X143510000Y-100330000D03*
D11*
X133350000Y-100330000D03*
D12*
X94702621Y-104775000D03*
D10*
X97202621Y-104775000D03*
X113665000Y-80010000D03*
D11*
X123825000Y-80010000D03*
D13*
X121920000Y-113030000D03*
D14*
X124460000Y-113030000D03*
X127000000Y-113030000D03*
X129540000Y-113030000D03*
D10*
X110490000Y-73025000D03*
D11*
X110490000Y-83185000D03*
D12*
X94615000Y-111760000D03*
D10*
X97115000Y-111760000D03*
D15*
X116455000Y-84250000D03*
X116455000Y-88950000D03*
X116455000Y-93730000D03*
X121325000Y-84250000D03*
X121325000Y-88950000D03*
X121325000Y-93730000D03*
D10*
X133350000Y-103505000D03*
D11*
X143510000Y-103505000D03*
D10*
X140970000Y-96520000D03*
X135970000Y-96520000D03*
D16*
X105410000Y-88265000D03*
X100330000Y-88265000D03*
X95250000Y-88265000D03*
D17*
X98425000Y-78105000D03*
D18*
X98425000Y-70485000D03*
D17*
X102235000Y-78105000D03*
D18*
X102235000Y-70485000D03*
D10*
X104140000Y-95885000D03*
D11*
X93980000Y-95885000D03*
D10*
X93980000Y-99060000D03*
D11*
X104140000Y-99060000D03*
D10*
X140930000Y-113665000D03*
X135930000Y-113665000D03*
D16*
X143510000Y-66040000D03*
X138430000Y-66040000D03*
X133350000Y-66040000D03*
D10*
X101600000Y-113030000D03*
D11*
X101600000Y-102870000D03*
D10*
X110490000Y-70445000D03*
X110490000Y-65445000D03*
X142875000Y-70485000D03*
D11*
X132715000Y-70485000D03*
D12*
X109942621Y-106045000D03*
D10*
X112442621Y-106045000D03*
D15*
X116800000Y-66165000D03*
X116800000Y-70865000D03*
X116800000Y-75645000D03*
X121670000Y-66165000D03*
X121670000Y-70865000D03*
X121670000Y-75645000D03*
D10*
X104775000Y-102870000D03*
D11*
X104775000Y-113030000D03*
D16*
X105410000Y-66040000D03*
X100330000Y-66040000D03*
X95250000Y-66040000D03*
D10*
X109855000Y-100290000D03*
X109855000Y-95290000D03*
X140295000Y-83820000D03*
X135295000Y-83820000D03*
X127000000Y-69850000D03*
X127000000Y-64850000D03*
X128270000Y-95925000D03*
X128270000Y-100925000D03*
X143510000Y-92964000D03*
D11*
X133350000Y-92964000D03*
D10*
X135295000Y-80645000D03*
X140295000Y-80645000D03*
X93980000Y-92710000D03*
D11*
X104140000Y-92710000D03*
D17*
X94615000Y-78105000D03*
D18*
X94615000Y-70485000D03*
D10*
X143510000Y-109855000D03*
D11*
X133350000Y-109855000D03*
D12*
X116850000Y-99070000D03*
D11*
X116850000Y-101610000D03*
X116850000Y-104150000D03*
X116850000Y-106690000D03*
X124470000Y-106690000D03*
X124470000Y-104150000D03*
X124470000Y-101610000D03*
X124470000Y-99070000D03*
D10*
X105410000Y-82550000D03*
D11*
X95250000Y-82550000D03*
D17*
X106045000Y-70485000D03*
D18*
X106045000Y-78105000D03*
D10*
X127635000Y-82550000D03*
D11*
X127635000Y-92710000D03*
D10*
X110490000Y-92670000D03*
X110490000Y-87670000D03*
D16*
X143510000Y-88265000D03*
X138430000Y-88265000D03*
X133350000Y-88265000D03*
D10*
X143510000Y-106680000D03*
D11*
X133350000Y-106680000D03*
D10*
X135295000Y-77470000D03*
X140295000Y-77470000D03*
D17*
X109855000Y-112395000D03*
D18*
X117475000Y-112395000D03*
D10*
X142875000Y-74295000D03*
D11*
X132715000Y-74295000D03*
D19*
X135930000Y-113665000D02*
X135930000Y-109260000D01*
X135930000Y-109260000D02*
X133350000Y-106680000D01*
X111760000Y-100330000D02*
X107950000Y-104140000D01*
X124470000Y-99070000D02*
X123210000Y-100330000D01*
X107950000Y-104140000D02*
X107950000Y-110490000D01*
X123210000Y-100330000D02*
X111760000Y-100330000D01*
X107950000Y-110490000D02*
X109855000Y-112395000D01*
X127635000Y-69215000D02*
X127000000Y-69850000D01*
X133035300Y-69215000D02*
X127635000Y-69215000D01*
X136419511Y-72599211D02*
X133035300Y-69215000D01*
X136419511Y-79944511D02*
X136419511Y-72599211D01*
X140295000Y-83820000D02*
X136419511Y-79944511D01*
X116850000Y-101610000D02*
X118110000Y-102870000D01*
X130810000Y-102870000D02*
X133350000Y-100330000D01*
X118110000Y-102870000D02*
X130810000Y-102870000D01*
X138811000Y-88265000D02*
X138430000Y-88265000D01*
X118765000Y-97155000D02*
X131953000Y-97155000D01*
X131953000Y-97155000D02*
X138430000Y-90678000D01*
X143510000Y-92964000D02*
X138811000Y-88265000D01*
X138430000Y-90678000D02*
X138430000Y-88265000D01*
X141419511Y-78594511D02*
X140295000Y-77470000D01*
X116850000Y-99070000D02*
X118765000Y-97155000D01*
X138430000Y-88265000D02*
X141419511Y-85275489D01*
X141419511Y-85275489D02*
X141419511Y-78594511D01*
X122340000Y-70865000D02*
X121670000Y-70865000D01*
X135295000Y-83820000D02*
X122340000Y-70865000D01*
X97790000Y-95250000D02*
X93980000Y-99060000D01*
X99060000Y-86360000D02*
X97790000Y-87630000D01*
X97790000Y-87630000D02*
X97790000Y-95250000D01*
X109180000Y-86360000D02*
X99060000Y-86360000D01*
X110490000Y-87670000D02*
X109180000Y-86360000D01*
X107500489Y-97935489D02*
X101745489Y-97935489D01*
X101745489Y-97935489D02*
X100330000Y-96520000D01*
X109855000Y-100290000D02*
X107500489Y-97935489D01*
X100330000Y-96520000D02*
X100330000Y-88265000D01*
X124460000Y-113030000D02*
X121285000Y-109855000D01*
X116252621Y-109855000D02*
X112442621Y-106045000D01*
X121285000Y-109855000D02*
X116252621Y-109855000D01*
X116455000Y-88950000D02*
X114350000Y-88950000D01*
X109855000Y-84455000D02*
X103505000Y-84455000D01*
X103505000Y-84455000D02*
X98425000Y-79375000D01*
X114350000Y-88950000D02*
X109855000Y-84455000D01*
X98425000Y-79375000D02*
X98425000Y-78105000D01*
X104140000Y-95885000D02*
X106085718Y-95885000D01*
X106045000Y-72390000D02*
X106045000Y-70485000D01*
X106615229Y-96414511D02*
X122660489Y-96414511D01*
X124460000Y-92085000D02*
X121325000Y-88950000D01*
X124460000Y-94615000D02*
X124460000Y-92085000D01*
X114300000Y-86360000D02*
X111760000Y-83820000D01*
X106085718Y-95885000D02*
X106615229Y-96414511D01*
X121325000Y-88950000D02*
X118735000Y-86360000D01*
X111760000Y-78105000D02*
X106045000Y-72390000D01*
X118735000Y-86360000D02*
X114300000Y-86360000D01*
X111760000Y-83820000D02*
X111760000Y-78105000D01*
X122660489Y-96414511D02*
X124460000Y-94615000D01*
X133350000Y-86468949D02*
X126891051Y-80010000D01*
X119345480Y-70230210D02*
X120850201Y-68725489D01*
X123825000Y-80010000D02*
X122693630Y-80010000D01*
X122693630Y-80010000D02*
X119345480Y-76661850D01*
X141115489Y-68725489D02*
X142875000Y-70485000D01*
X126891051Y-80010000D02*
X123825000Y-80010000D01*
X119345480Y-76661850D02*
X119345480Y-70230210D01*
X134305300Y-88265000D02*
X133350000Y-88265000D01*
X133350000Y-88265000D02*
X133350000Y-86468949D01*
X120850201Y-68725489D02*
X141115489Y-68725489D01*
X144780000Y-89535000D02*
X143827859Y-88582859D01*
X144780000Y-102235000D02*
X144780000Y-89535000D01*
X143510000Y-103505000D02*
X144780000Y-102235000D01*
X113665000Y-80010000D02*
X113665000Y-74000000D01*
X113665000Y-74000000D02*
X116800000Y-70865000D01*
X93345000Y-80645000D02*
X93345000Y-69850000D01*
X95250000Y-82550000D02*
X93345000Y-80645000D01*
X95497480Y-67697520D02*
X131692480Y-67697520D01*
X131692480Y-67697520D02*
X133350000Y-66040000D01*
X93345000Y-69850000D02*
X95497480Y-67697520D01*
G04 #@! TA.AperFunction,Conductor*
G36*
X126314485Y-63520502D02*
G01*
X126360978Y-63574158D01*
X126371082Y-63644432D01*
X126341588Y-63709012D01*
X126318635Y-63729713D01*
X126155703Y-63843799D01*
X126155697Y-63843804D01*
X125993804Y-64005697D01*
X125993799Y-64005703D01*
X125862477Y-64193250D01*
X125765717Y-64400753D01*
X125765715Y-64400759D01*
X125706457Y-64621913D01*
X125686502Y-64850000D01*
X125706457Y-65078086D01*
X125765715Y-65299240D01*
X125765717Y-65299246D01*
X125803114Y-65379444D01*
X125862477Y-65506749D01*
X125993802Y-65694300D01*
X126155700Y-65856198D01*
X126343251Y-65987523D01*
X126550757Y-66084284D01*
X126771913Y-66143543D01*
X127000000Y-66163498D01*
X127228087Y-66143543D01*
X127449243Y-66084284D01*
X127656749Y-65987523D01*
X127844300Y-65856198D01*
X128006198Y-65694300D01*
X128137523Y-65506749D01*
X128234284Y-65299243D01*
X128293543Y-65078087D01*
X128313498Y-64850000D01*
X128293543Y-64621913D01*
X128234284Y-64400757D01*
X128137523Y-64193251D01*
X128006198Y-64005700D01*
X127844300Y-63843802D01*
X127844296Y-63843799D01*
X127681365Y-63729713D01*
X127637037Y-63674256D01*
X127629728Y-63603636D01*
X127661759Y-63540276D01*
X127722960Y-63504291D01*
X127753636Y-63500500D01*
X146558500Y-63500500D01*
X146626621Y-63520502D01*
X146673114Y-63574158D01*
X146684500Y-63626500D01*
X146684500Y-116714000D01*
X146664498Y-116782121D01*
X146610842Y-116828614D01*
X146558500Y-116840000D01*
X92201500Y-116840000D01*
X92133379Y-116819998D01*
X92086886Y-116766342D01*
X92075500Y-116714000D01*
X92075500Y-112608649D01*
X93306500Y-112608649D01*
X93313009Y-112669196D01*
X93313011Y-112669204D01*
X93364110Y-112806202D01*
X93364112Y-112806207D01*
X93451738Y-112923261D01*
X93568792Y-113010887D01*
X93568794Y-113010888D01*
X93568796Y-113010889D01*
X93620034Y-113030000D01*
X93705795Y-113061988D01*
X93705803Y-113061990D01*
X93766350Y-113068499D01*
X93766355Y-113068499D01*
X93766362Y-113068500D01*
X93766368Y-113068500D01*
X95463632Y-113068500D01*
X95463638Y-113068500D01*
X95463645Y-113068499D01*
X95463649Y-113068499D01*
X95524196Y-113061990D01*
X95524199Y-113061989D01*
X95524201Y-113061989D01*
X95661204Y-113010889D01*
X95664730Y-113008250D01*
X95778261Y-112923261D01*
X95865887Y-112806207D01*
X95865887Y-112806206D01*
X95865889Y-112806204D01*
X95916989Y-112669201D01*
X95918108Y-112658799D01*
X95923861Y-112605283D01*
X95924908Y-112605395D01*
X95947056Y-112542567D01*
X96003113Y-112499000D01*
X96019105Y-112496682D01*
X96716272Y-111799516D01*
X96729835Y-111885148D01*
X96787359Y-111998045D01*
X96876955Y-112087641D01*
X96989852Y-112145165D01*
X97075482Y-112158727D01*
X96387110Y-112847098D01*
X96387110Y-112847100D01*
X96458498Y-112897086D01*
X96665926Y-112993811D01*
X96665931Y-112993813D01*
X96886999Y-113053048D01*
X96886995Y-113053048D01*
X97115000Y-113072995D01*
X97343002Y-113053048D01*
X97429018Y-113030000D01*
X100287004Y-113030000D01*
X100306951Y-113258002D01*
X100366186Y-113479068D01*
X100366188Y-113479073D01*
X100462913Y-113686501D01*
X100512899Y-113757888D01*
X101201272Y-113069516D01*
X101214835Y-113155148D01*
X101272359Y-113268045D01*
X101361955Y-113357641D01*
X101474852Y-113415165D01*
X101560482Y-113428727D01*
X100872110Y-114117098D01*
X100872110Y-114117100D01*
X100943498Y-114167086D01*
X101150926Y-114263811D01*
X101150931Y-114263813D01*
X101371999Y-114323048D01*
X101371995Y-114323048D01*
X101600000Y-114342995D01*
X101828002Y-114323048D01*
X102049068Y-114263813D01*
X102049073Y-114263811D01*
X102256497Y-114167088D01*
X102327888Y-114117099D01*
X102327888Y-114117097D01*
X101639518Y-113428727D01*
X101725148Y-113415165D01*
X101838045Y-113357641D01*
X101927641Y-113268045D01*
X101985165Y-113155148D01*
X101998727Y-113069518D01*
X102687097Y-113757888D01*
X102687099Y-113757888D01*
X102737088Y-113686497D01*
X102833811Y-113479073D01*
X102833813Y-113479068D01*
X102893048Y-113258002D01*
X102912995Y-113030000D01*
X103461502Y-113030000D01*
X103481457Y-113258087D01*
X103508133Y-113357641D01*
X103540715Y-113479240D01*
X103540717Y-113479246D01*
X103637477Y-113686749D01*
X103763879Y-113867270D01*
X103768802Y-113874300D01*
X103930700Y-114036198D01*
X104118251Y-114167523D01*
X104325757Y-114264284D01*
X104546913Y-114323543D01*
X104775000Y-114343498D01*
X105003087Y-114323543D01*
X105224243Y-114264284D01*
X105431749Y-114167523D01*
X105619300Y-114036198D01*
X105781198Y-113874300D01*
X105912523Y-113686749D01*
X106009284Y-113479243D01*
X106068543Y-113258087D01*
X106088498Y-113030000D01*
X106068543Y-112801913D01*
X106009284Y-112580757D01*
X105912523Y-112373251D01*
X105781198Y-112185700D01*
X105619300Y-112023802D01*
X105582515Y-111998045D01*
X105431749Y-111892477D01*
X105224246Y-111795717D01*
X105224240Y-111795715D01*
X105130771Y-111770670D01*
X105003087Y-111736457D01*
X104775000Y-111716502D01*
X104546913Y-111736457D01*
X104325759Y-111795715D01*
X104325753Y-111795717D01*
X104118250Y-111892477D01*
X103930703Y-112023799D01*
X103930697Y-112023804D01*
X103768804Y-112185697D01*
X103768799Y-112185703D01*
X103637477Y-112373250D01*
X103540717Y-112580753D01*
X103540715Y-112580759D01*
X103488401Y-112775999D01*
X103481457Y-112801913D01*
X103461502Y-113030000D01*
X102912995Y-113030000D01*
X102893048Y-112801997D01*
X102833813Y-112580931D01*
X102833811Y-112580926D01*
X102737086Y-112373498D01*
X102687100Y-112302110D01*
X102687098Y-112302110D01*
X101998727Y-112990481D01*
X101985165Y-112904852D01*
X101927641Y-112791955D01*
X101838045Y-112702359D01*
X101725148Y-112644835D01*
X101639517Y-112631272D01*
X102327888Y-111942899D01*
X102327888Y-111942898D01*
X102256501Y-111892913D01*
X102049073Y-111796188D01*
X102049068Y-111796186D01*
X101828000Y-111736951D01*
X101828004Y-111736951D01*
X101600000Y-111717004D01*
X101371997Y-111736951D01*
X101150931Y-111796186D01*
X101150926Y-111796188D01*
X100943500Y-111892913D01*
X100872109Y-111942900D01*
X101560481Y-112631272D01*
X101474852Y-112644835D01*
X101361955Y-112702359D01*
X101272359Y-112791955D01*
X101214835Y-112904852D01*
X101201272Y-112990481D01*
X100512900Y-112302109D01*
X100462913Y-112373500D01*
X100366188Y-112580926D01*
X100366186Y-112580931D01*
X100306951Y-112801997D01*
X100287004Y-113030000D01*
X97429018Y-113030000D01*
X97564068Y-112993813D01*
X97564073Y-112993811D01*
X97771497Y-112897088D01*
X97842888Y-112847099D01*
X97842888Y-112847097D01*
X97154518Y-112158727D01*
X97240148Y-112145165D01*
X97353045Y-112087641D01*
X97442641Y-111998045D01*
X97500165Y-111885148D01*
X97513727Y-111799518D01*
X98202097Y-112487888D01*
X98202099Y-112487888D01*
X98252088Y-112416497D01*
X98348811Y-112209073D01*
X98348813Y-112209068D01*
X98408048Y-111988002D01*
X98427995Y-111760000D01*
X98408048Y-111531997D01*
X98348813Y-111310931D01*
X98348811Y-111310926D01*
X98252086Y-111103498D01*
X98202100Y-111032110D01*
X98202098Y-111032110D01*
X97513727Y-111720481D01*
X97500165Y-111634852D01*
X97442641Y-111521955D01*
X97353045Y-111432359D01*
X97240148Y-111374835D01*
X97154517Y-111361272D01*
X97842888Y-110672899D01*
X97842888Y-110672898D01*
X97771501Y-110622913D01*
X97564073Y-110526188D01*
X97564068Y-110526186D01*
X97343000Y-110466951D01*
X97343004Y-110466951D01*
X97115000Y-110447004D01*
X96886997Y-110466951D01*
X96665931Y-110526186D01*
X96665926Y-110526188D01*
X96458500Y-110622913D01*
X96387109Y-110672900D01*
X97075481Y-111361272D01*
X96989852Y-111374835D01*
X96876955Y-111432359D01*
X96787359Y-111521955D01*
X96729835Y-111634852D01*
X96716272Y-111720481D01*
X96016219Y-111020428D01*
X95990649Y-111015289D01*
X95939657Y-110965890D01*
X95924666Y-110914630D01*
X95923861Y-110914717D01*
X95916990Y-110850803D01*
X95916988Y-110850795D01*
X95865889Y-110713797D01*
X95865887Y-110713792D01*
X95778261Y-110596738D01*
X95661207Y-110509112D01*
X95661202Y-110509110D01*
X95524204Y-110458011D01*
X95524196Y-110458009D01*
X95463649Y-110451500D01*
X95463638Y-110451500D01*
X93766362Y-110451500D01*
X93766350Y-110451500D01*
X93705803Y-110458009D01*
X93705795Y-110458011D01*
X93568797Y-110509110D01*
X93568792Y-110509112D01*
X93451738Y-110596738D01*
X93364112Y-110713792D01*
X93364110Y-110713797D01*
X93313011Y-110850795D01*
X93313009Y-110850803D01*
X93306500Y-110911350D01*
X93306500Y-112608649D01*
X92075500Y-112608649D01*
X92075500Y-105623649D01*
X93394121Y-105623649D01*
X93400630Y-105684196D01*
X93400632Y-105684204D01*
X93451731Y-105821202D01*
X93451733Y-105821207D01*
X93539359Y-105938261D01*
X93656413Y-106025887D01*
X93656415Y-106025888D01*
X93656417Y-106025889D01*
X93707655Y-106045000D01*
X93793416Y-106076988D01*
X93793424Y-106076990D01*
X93853971Y-106083499D01*
X93853976Y-106083499D01*
X93853983Y-106083500D01*
X93853989Y-106083500D01*
X95551253Y-106083500D01*
X95551259Y-106083500D01*
X95551266Y-106083499D01*
X95551270Y-106083499D01*
X95611817Y-106076990D01*
X95611820Y-106076989D01*
X95611822Y-106076989D01*
X95748825Y-106025889D01*
X95752351Y-106023250D01*
X95865882Y-105938261D01*
X95953508Y-105821207D01*
X95953508Y-105821206D01*
X95953510Y-105821204D01*
X96004610Y-105684201D01*
X96004612Y-105684189D01*
X96011482Y-105620283D01*
X96012529Y-105620395D01*
X96034677Y-105557567D01*
X96090734Y-105514000D01*
X96106726Y-105511682D01*
X96803893Y-104814516D01*
X96817456Y-104900148D01*
X96874980Y-105013045D01*
X96964576Y-105102641D01*
X97077473Y-105160165D01*
X97163103Y-105173727D01*
X96474731Y-105862098D01*
X96474731Y-105862100D01*
X96546119Y-105912086D01*
X96753547Y-106008811D01*
X96753552Y-106008813D01*
X96974620Y-106068048D01*
X96974616Y-106068048D01*
X97202621Y-106087995D01*
X97430623Y-106068048D01*
X97651689Y-106008813D01*
X97651694Y-106008811D01*
X97859118Y-105912088D01*
X97930509Y-105862099D01*
X97930509Y-105862097D01*
X97242139Y-105173727D01*
X97327769Y-105160165D01*
X97440666Y-105102641D01*
X97530262Y-105013045D01*
X97587786Y-104900148D01*
X97601348Y-104814518D01*
X98289718Y-105502888D01*
X98289720Y-105502888D01*
X98339709Y-105431497D01*
X98436432Y-105224073D01*
X98436434Y-105224068D01*
X98495669Y-105003002D01*
X98515616Y-104775000D01*
X98495669Y-104546997D01*
X98436434Y-104325931D01*
X98436432Y-104325926D01*
X98339707Y-104118498D01*
X98289721Y-104047110D01*
X98289719Y-104047110D01*
X97601348Y-104735481D01*
X97587786Y-104649852D01*
X97530262Y-104536955D01*
X97440666Y-104447359D01*
X97327769Y-104389835D01*
X97242138Y-104376272D01*
X97930509Y-103687899D01*
X97930509Y-103687898D01*
X97859122Y-103637913D01*
X97651694Y-103541188D01*
X97651689Y-103541186D01*
X97430621Y-103481951D01*
X97430625Y-103481951D01*
X97202621Y-103462004D01*
X96974618Y-103481951D01*
X96753552Y-103541186D01*
X96753547Y-103541188D01*
X96546121Y-103637913D01*
X96474730Y-103687900D01*
X97163102Y-104376272D01*
X97077473Y-104389835D01*
X96964576Y-104447359D01*
X96874980Y-104536955D01*
X96817456Y-104649852D01*
X96803893Y-104735481D01*
X96103840Y-104035428D01*
X96078270Y-104030289D01*
X96027278Y-103980890D01*
X96012287Y-103929630D01*
X96011482Y-103929717D01*
X96004611Y-103865803D01*
X96004609Y-103865795D01*
X95975545Y-103787875D01*
X95953510Y-103728796D01*
X95953509Y-103728794D01*
X95953508Y-103728792D01*
X95865882Y-103611738D01*
X95748828Y-103524112D01*
X95748823Y-103524110D01*
X95611825Y-103473011D01*
X95611817Y-103473009D01*
X95551270Y-103466500D01*
X95551259Y-103466500D01*
X93853983Y-103466500D01*
X93853971Y-103466500D01*
X93793424Y-103473009D01*
X93793416Y-103473011D01*
X93656418Y-103524110D01*
X93656413Y-103524112D01*
X93539359Y-103611738D01*
X93451733Y-103728792D01*
X93451731Y-103728797D01*
X93400632Y-103865795D01*
X93400630Y-103865803D01*
X93394121Y-103926350D01*
X93394121Y-105623649D01*
X92075500Y-105623649D01*
X92075500Y-102870000D01*
X100286502Y-102870000D01*
X100306457Y-103098087D01*
X100318707Y-103143804D01*
X100365715Y-103319240D01*
X100365717Y-103319246D01*
X100462477Y-103526749D01*
X100547379Y-103648002D01*
X100593802Y-103714300D01*
X100755700Y-103876198D01*
X100943251Y-104007523D01*
X101150757Y-104104284D01*
X101371913Y-104163543D01*
X101600000Y-104183498D01*
X101828087Y-104163543D01*
X102049243Y-104104284D01*
X102256749Y-104007523D01*
X102444300Y-103876198D01*
X102606198Y-103714300D01*
X102737523Y-103526749D01*
X102834284Y-103319243D01*
X102893543Y-103098087D01*
X102913498Y-102870000D01*
X103461502Y-102870000D01*
X103481457Y-103098087D01*
X103493707Y-103143804D01*
X103540715Y-103319240D01*
X103540717Y-103319246D01*
X103637477Y-103526749D01*
X103722379Y-103648002D01*
X103768802Y-103714300D01*
X103930700Y-103876198D01*
X104118251Y-104007523D01*
X104325757Y-104104284D01*
X104546913Y-104163543D01*
X104775000Y-104183498D01*
X105003087Y-104163543D01*
X105224243Y-104104284D01*
X105431749Y-104007523D01*
X105619300Y-103876198D01*
X105781198Y-103714300D01*
X105912523Y-103526749D01*
X106009284Y-103319243D01*
X106068543Y-103098087D01*
X106088498Y-102870000D01*
X106068543Y-102641913D01*
X106009284Y-102420757D01*
X105912523Y-102213251D01*
X105781198Y-102025700D01*
X105619300Y-101863802D01*
X105582575Y-101838087D01*
X105431749Y-101732477D01*
X105224246Y-101635717D01*
X105224240Y-101635715D01*
X105115357Y-101606540D01*
X105003087Y-101576457D01*
X104775000Y-101556502D01*
X104546913Y-101576457D01*
X104325759Y-101635715D01*
X104325753Y-101635717D01*
X104118250Y-101732477D01*
X103930703Y-101863799D01*
X103930697Y-101863804D01*
X103768804Y-102025697D01*
X103768799Y-102025703D01*
X103637477Y-102213250D01*
X103540717Y-102420753D01*
X103540717Y-102420754D01*
X103540716Y-102420757D01*
X103481457Y-102641913D01*
X103461502Y-102870000D01*
X102913498Y-102870000D01*
X102893543Y-102641913D01*
X102834284Y-102420757D01*
X102737523Y-102213251D01*
X102606198Y-102025700D01*
X102444300Y-101863802D01*
X102407575Y-101838087D01*
X102256749Y-101732477D01*
X102049246Y-101635717D01*
X102049240Y-101635715D01*
X101940357Y-101606540D01*
X101828087Y-101576457D01*
X101600000Y-101556502D01*
X101371913Y-101576457D01*
X101150759Y-101635715D01*
X101150753Y-101635717D01*
X100943250Y-101732477D01*
X100755703Y-101863799D01*
X100755697Y-101863804D01*
X100593804Y-102025697D01*
X100593799Y-102025703D01*
X100462477Y-102213250D01*
X100365717Y-102420753D01*
X100365717Y-102420754D01*
X100365716Y-102420757D01*
X100306457Y-102641913D01*
X100286502Y-102870000D01*
X92075500Y-102870000D01*
X92075500Y-99060000D01*
X92666502Y-99060000D01*
X92686457Y-99288087D01*
X92706139Y-99361540D01*
X92745715Y-99509240D01*
X92745717Y-99509246D01*
X92842477Y-99716749D01*
X92945952Y-99864527D01*
X92973802Y-99904300D01*
X93135700Y-100066198D01*
X93323251Y-100197523D01*
X93530757Y-100294284D01*
X93751913Y-100353543D01*
X93980000Y-100373498D01*
X94208087Y-100353543D01*
X94429243Y-100294284D01*
X94636749Y-100197523D01*
X94824300Y-100066198D01*
X94986198Y-99904300D01*
X95117523Y-99716749D01*
X95214284Y-99509243D01*
X95273543Y-99288087D01*
X95293498Y-99060000D01*
X95273543Y-98831913D01*
X95256540Y-98768457D01*
X95258229Y-98697481D01*
X95289149Y-98646753D01*
X98178657Y-95757245D01*
X98191092Y-95747284D01*
X98190905Y-95747057D01*
X98197016Y-95742001D01*
X98197015Y-95742001D01*
X98197018Y-95742000D01*
X98243676Y-95692312D01*
X98246367Y-95689535D01*
X98266135Y-95669769D01*
X98268614Y-95666571D01*
X98276299Y-95657571D01*
X98306586Y-95625321D01*
X98316345Y-95607567D01*
X98327204Y-95591038D01*
X98339614Y-95575040D01*
X98357177Y-95534451D01*
X98362396Y-95523801D01*
X98383695Y-95485060D01*
X98388733Y-95465435D01*
X98395138Y-95446730D01*
X98395238Y-95446499D01*
X98403181Y-95428145D01*
X98410096Y-95384481D01*
X98412504Y-95372852D01*
X98423500Y-95330030D01*
X98423500Y-95309775D01*
X98425051Y-95290063D01*
X98425061Y-95290000D01*
X98428220Y-95270057D01*
X98424059Y-95226036D01*
X98423500Y-95214179D01*
X98423500Y-88941297D01*
X98443502Y-88873176D01*
X98497158Y-88826683D01*
X98567432Y-88816579D01*
X98632012Y-88846073D01*
X98666790Y-88895264D01*
X98723130Y-89038819D01*
X98723132Y-89038823D01*
X98856411Y-89269670D01*
X98856413Y-89269673D01*
X98856414Y-89269674D01*
X99022612Y-89478079D01*
X99218014Y-89659386D01*
X99218020Y-89659390D01*
X99438247Y-89809539D01*
X99438255Y-89809543D01*
X99438257Y-89809545D01*
X99596558Y-89885779D01*
X99625169Y-89899557D01*
X99677866Y-89947135D01*
X99696500Y-90013079D01*
X99696500Y-96436146D01*
X99694751Y-96451988D01*
X99695044Y-96452016D01*
X99694298Y-96459907D01*
X99696438Y-96527984D01*
X99696500Y-96531943D01*
X99696500Y-96559851D01*
X99696501Y-96559869D01*
X99697007Y-96563877D01*
X99697937Y-96575696D01*
X99699326Y-96619888D01*
X99699327Y-96619893D01*
X99704977Y-96639339D01*
X99708986Y-96658697D01*
X99711525Y-96678793D01*
X99711526Y-96678800D01*
X99727800Y-96719903D01*
X99731644Y-96731129D01*
X99743982Y-96773593D01*
X99754294Y-96791031D01*
X99762988Y-96808779D01*
X99770444Y-96827609D01*
X99770450Y-96827620D01*
X99796432Y-96863381D01*
X99802949Y-96873301D01*
X99825458Y-96911362D01*
X99825459Y-96911363D01*
X99825461Y-96911366D01*
X99839779Y-96925684D01*
X99852617Y-96940714D01*
X99864526Y-96957104D01*
X99864530Y-96957109D01*
X99898598Y-96985292D01*
X99907378Y-96993282D01*
X101238244Y-98324149D01*
X101248209Y-98336586D01*
X101248436Y-98336399D01*
X101253488Y-98342506D01*
X101303139Y-98389131D01*
X101305983Y-98391888D01*
X101325712Y-98411618D01*
X101325713Y-98411619D01*
X101325717Y-98411622D01*
X101325719Y-98411624D01*
X101328924Y-98414110D01*
X101337931Y-98421803D01*
X101370168Y-98452075D01*
X101387917Y-98461832D01*
X101404442Y-98472687D01*
X101420448Y-98485103D01*
X101461031Y-98502664D01*
X101471682Y-98507882D01*
X101510429Y-98529184D01*
X101510437Y-98529186D01*
X101530047Y-98534221D01*
X101548756Y-98540626D01*
X101567344Y-98548670D01*
X101611019Y-98555587D01*
X101622630Y-98557991D01*
X101665459Y-98568989D01*
X101685713Y-98568989D01*
X101705423Y-98570540D01*
X101707630Y-98570889D01*
X101725432Y-98573709D01*
X101769450Y-98569547D01*
X101781308Y-98568989D01*
X102752701Y-98568989D01*
X102820822Y-98588991D01*
X102867315Y-98642647D01*
X102877419Y-98712921D01*
X102874408Y-98727596D01*
X102846457Y-98831913D01*
X102826502Y-99060000D01*
X102846457Y-99288087D01*
X102866139Y-99361540D01*
X102905715Y-99509240D01*
X102905717Y-99509246D01*
X103002477Y-99716749D01*
X103105952Y-99864527D01*
X103133802Y-99904300D01*
X103295700Y-100066198D01*
X103483251Y-100197523D01*
X103690757Y-100294284D01*
X103911913Y-100353543D01*
X104140000Y-100373498D01*
X104368087Y-100353543D01*
X104589243Y-100294284D01*
X104796749Y-100197523D01*
X104984300Y-100066198D01*
X105146198Y-99904300D01*
X105277523Y-99716749D01*
X105374284Y-99509243D01*
X105433543Y-99288087D01*
X105453498Y-99060000D01*
X105433543Y-98831913D01*
X105405592Y-98727599D01*
X105407282Y-98656623D01*
X105447076Y-98597828D01*
X105512341Y-98569880D01*
X105527299Y-98568989D01*
X107185895Y-98568989D01*
X107254016Y-98588991D01*
X107274990Y-98605894D01*
X108545847Y-99876751D01*
X108579873Y-99939063D01*
X108578459Y-99998456D01*
X108561458Y-100061907D01*
X108561457Y-100061910D01*
X108561457Y-100061913D01*
X108541502Y-100290000D01*
X108561457Y-100518087D01*
X108584425Y-100603804D01*
X108620715Y-100739240D01*
X108620717Y-100739246D01*
X108717477Y-100946749D01*
X108799702Y-101064179D01*
X108848802Y-101134300D01*
X109010700Y-101296198D01*
X109198251Y-101427523D01*
X109405757Y-101524284D01*
X109405762Y-101524285D01*
X109410926Y-101526165D01*
X109410286Y-101527922D01*
X109463812Y-101560533D01*
X109494847Y-101624387D01*
X109486433Y-101694883D01*
X109459691Y-101734402D01*
X107561336Y-103632757D01*
X107548901Y-103642721D01*
X107549089Y-103642948D01*
X107542979Y-103648002D01*
X107496370Y-103697635D01*
X107493620Y-103700473D01*
X107473863Y-103720231D01*
X107471374Y-103723439D01*
X107463688Y-103732436D01*
X107433418Y-103764673D01*
X107433411Y-103764683D01*
X107423651Y-103782435D01*
X107412803Y-103798950D01*
X107400386Y-103814958D01*
X107382824Y-103855540D01*
X107377604Y-103866195D01*
X107356305Y-103904939D01*
X107356303Y-103904944D01*
X107351267Y-103924559D01*
X107344864Y-103943262D01*
X107336819Y-103961852D01*
X107329901Y-104005525D01*
X107327495Y-104017142D01*
X107316500Y-104059968D01*
X107316500Y-104080223D01*
X107314949Y-104099933D01*
X107311780Y-104119942D01*
X107315941Y-104163961D01*
X107316500Y-104175819D01*
X107316500Y-110406146D01*
X107314751Y-110421988D01*
X107315044Y-110422016D01*
X107314298Y-110429907D01*
X107314298Y-110429909D01*
X107315748Y-110476026D01*
X107316438Y-110497984D01*
X107316500Y-110501943D01*
X107316500Y-110529851D01*
X107316501Y-110529869D01*
X107317007Y-110533877D01*
X107317937Y-110545696D01*
X107319326Y-110589888D01*
X107319327Y-110589893D01*
X107324977Y-110609339D01*
X107328986Y-110628697D01*
X107331525Y-110648793D01*
X107331526Y-110648800D01*
X107347800Y-110689903D01*
X107351644Y-110701129D01*
X107363982Y-110743593D01*
X107374294Y-110761031D01*
X107382988Y-110778779D01*
X107390444Y-110797609D01*
X107390450Y-110797620D01*
X107416432Y-110833381D01*
X107422949Y-110843301D01*
X107445458Y-110881362D01*
X107445459Y-110881363D01*
X107445461Y-110881366D01*
X107459779Y-110895684D01*
X107472617Y-110910714D01*
X107484526Y-110927104D01*
X107484530Y-110927109D01*
X107518598Y-110955292D01*
X107527378Y-110963282D01*
X108409595Y-111845499D01*
X108443621Y-111907811D01*
X108446500Y-111934594D01*
X108446500Y-113343649D01*
X108453009Y-113404196D01*
X108453011Y-113404204D01*
X108504110Y-113541202D01*
X108504112Y-113541207D01*
X108591738Y-113658261D01*
X108708792Y-113745887D01*
X108708794Y-113745888D01*
X108708796Y-113745889D01*
X108760243Y-113765078D01*
X108845795Y-113796988D01*
X108845803Y-113796990D01*
X108906350Y-113803499D01*
X108906355Y-113803499D01*
X108906362Y-113803500D01*
X108906368Y-113803500D01*
X110803632Y-113803500D01*
X110803638Y-113803500D01*
X110803645Y-113803499D01*
X110803649Y-113803499D01*
X110864196Y-113796990D01*
X110864199Y-113796989D01*
X110864201Y-113796989D01*
X111001204Y-113745889D01*
X111021229Y-113730899D01*
X111118261Y-113658261D01*
X111205887Y-113541207D01*
X111205887Y-113541206D01*
X111205889Y-113541204D01*
X111256989Y-113404201D01*
X111263500Y-113343638D01*
X111263500Y-112395000D01*
X116061673Y-112395000D01*
X116079078Y-112605048D01*
X116080950Y-112627633D01*
X116138249Y-112853903D01*
X116138252Y-112853910D01*
X116232015Y-113067668D01*
X116359685Y-113263083D01*
X116517774Y-113434813D01*
X116517778Y-113434817D01*
X116574632Y-113479068D01*
X116701983Y-113578190D01*
X116907273Y-113689287D01*
X117128049Y-113765080D01*
X117358288Y-113803500D01*
X117358292Y-113803500D01*
X117591708Y-113803500D01*
X117591712Y-113803500D01*
X117821951Y-113765080D01*
X118042727Y-113689287D01*
X118248017Y-113578190D01*
X118432220Y-113434818D01*
X118436656Y-113430000D01*
X118590314Y-113263083D01*
X118621232Y-113215759D01*
X118717984Y-113067669D01*
X118811749Y-112853907D01*
X118869051Y-112627626D01*
X118888327Y-112395000D01*
X118869051Y-112162374D01*
X118845860Y-112070795D01*
X118811750Y-111936096D01*
X118811747Y-111936089D01*
X118810739Y-111933792D01*
X118717984Y-111722331D01*
X118700524Y-111695606D01*
X118590314Y-111526916D01*
X118432225Y-111355186D01*
X118432221Y-111355182D01*
X118340118Y-111283496D01*
X118248017Y-111211810D01*
X118042727Y-111100713D01*
X118042724Y-111100712D01*
X118042723Y-111100711D01*
X117821955Y-111024921D01*
X117821948Y-111024919D01*
X117723411Y-111008476D01*
X117591712Y-110986500D01*
X117358288Y-110986500D01*
X117243066Y-111005727D01*
X117128051Y-111024919D01*
X117128044Y-111024921D01*
X116907276Y-111100711D01*
X116907273Y-111100713D01*
X116818893Y-111148542D01*
X116701985Y-111211809D01*
X116701983Y-111211810D01*
X116517778Y-111355182D01*
X116517774Y-111355186D01*
X116359685Y-111526916D01*
X116232015Y-111722331D01*
X116138252Y-111936089D01*
X116138249Y-111936096D01*
X116080950Y-112162366D01*
X116080949Y-112162372D01*
X116080949Y-112162374D01*
X116061673Y-112395000D01*
X111263500Y-112395000D01*
X111263500Y-111446362D01*
X111258601Y-111400790D01*
X111256990Y-111385803D01*
X111256988Y-111385795D01*
X111205889Y-111248797D01*
X111205887Y-111248792D01*
X111118261Y-111131738D01*
X111001207Y-111044112D01*
X111001202Y-111044110D01*
X110864204Y-110993011D01*
X110864196Y-110993009D01*
X110803649Y-110986500D01*
X110803638Y-110986500D01*
X109394595Y-110986500D01*
X109326474Y-110966498D01*
X109305500Y-110949595D01*
X108620405Y-110264500D01*
X108586379Y-110202188D01*
X108583500Y-110175405D01*
X108583500Y-107313358D01*
X108603502Y-107245237D01*
X108657158Y-107198744D01*
X108727432Y-107188640D01*
X108785009Y-107212490D01*
X108896413Y-107295887D01*
X108896415Y-107295888D01*
X108896417Y-107295889D01*
X108943253Y-107313358D01*
X109033416Y-107346988D01*
X109033424Y-107346990D01*
X109093971Y-107353499D01*
X109093976Y-107353499D01*
X109093983Y-107353500D01*
X109093989Y-107353500D01*
X110791253Y-107353500D01*
X110791259Y-107353500D01*
X110791266Y-107353499D01*
X110791270Y-107353499D01*
X110851817Y-107346990D01*
X110851820Y-107346989D01*
X110851822Y-107346989D01*
X110852466Y-107346749D01*
X110879276Y-107336749D01*
X110988825Y-107295889D01*
X111011010Y-107279282D01*
X111105882Y-107208261D01*
X111193507Y-107091208D01*
X111193506Y-107091208D01*
X111193510Y-107091204D01*
X111244610Y-106954201D01*
X111244610Y-106954197D01*
X111245832Y-106950922D01*
X111288379Y-106894087D01*
X111354900Y-106869276D01*
X111424274Y-106884368D01*
X111452983Y-106905860D01*
X111598321Y-107051198D01*
X111785872Y-107182523D01*
X111993378Y-107279284D01*
X112214534Y-107338543D01*
X112442621Y-107358498D01*
X112670708Y-107338543D01*
X112734162Y-107321540D01*
X112805137Y-107323228D01*
X112855868Y-107354151D01*
X115745374Y-110243657D01*
X115755341Y-110256097D01*
X115755568Y-110255910D01*
X115760620Y-110262017D01*
X115760621Y-110262018D01*
X115805586Y-110304243D01*
X115810287Y-110308657D01*
X115813131Y-110311414D01*
X115832851Y-110331134D01*
X115836037Y-110333605D01*
X115845068Y-110341318D01*
X115877299Y-110371585D01*
X115877303Y-110371588D01*
X115895051Y-110381345D01*
X115911578Y-110392201D01*
X115927581Y-110404614D01*
X115968160Y-110422174D01*
X115978808Y-110427391D01*
X116017555Y-110448692D01*
X116017557Y-110448693D01*
X116017561Y-110448695D01*
X116037183Y-110453733D01*
X116055884Y-110460135D01*
X116068435Y-110465567D01*
X116074473Y-110468180D01*
X116074474Y-110468180D01*
X116074476Y-110468181D01*
X116118151Y-110475098D01*
X116129762Y-110477502D01*
X116172591Y-110488500D01*
X116192845Y-110488500D01*
X116212555Y-110490051D01*
X116214762Y-110490400D01*
X116232564Y-110493220D01*
X116276582Y-110489058D01*
X116288440Y-110488500D01*
X120970406Y-110488500D01*
X121038527Y-110508502D01*
X121059501Y-110525405D01*
X121990501Y-111456405D01*
X122024527Y-111518717D01*
X122019462Y-111589532D01*
X121976915Y-111646368D01*
X121910395Y-111671179D01*
X121901406Y-111671500D01*
X121021350Y-111671500D01*
X120960803Y-111678009D01*
X120960795Y-111678011D01*
X120823797Y-111729110D01*
X120823792Y-111729112D01*
X120706738Y-111816738D01*
X120619112Y-111933792D01*
X120619110Y-111933797D01*
X120568011Y-112070795D01*
X120568009Y-112070803D01*
X120561500Y-112131350D01*
X120561500Y-113928639D01*
X120568009Y-113989196D01*
X120568011Y-113989204D01*
X120619110Y-114126202D01*
X120619112Y-114126207D01*
X120706738Y-114243261D01*
X120823792Y-114330887D01*
X120823794Y-114330888D01*
X120823796Y-114330889D01*
X120877600Y-114350957D01*
X120960795Y-114381988D01*
X120960803Y-114381990D01*
X121021350Y-114388499D01*
X121021355Y-114388499D01*
X121021362Y-114388500D01*
X121021368Y-114388500D01*
X122818632Y-114388500D01*
X122818638Y-114388500D01*
X122818645Y-114388499D01*
X122818649Y-114388499D01*
X122879196Y-114381990D01*
X122879199Y-114381989D01*
X122879201Y-114381989D01*
X123016204Y-114330889D01*
X123026019Y-114323542D01*
X123133261Y-114243261D01*
X123220886Y-114126208D01*
X123220885Y-114126208D01*
X123220889Y-114126204D01*
X123264999Y-114007939D01*
X123307545Y-113951107D01*
X123374066Y-113926296D01*
X123443440Y-113941388D01*
X123475753Y-113966635D01*
X123496529Y-113989204D01*
X123536762Y-114032908D01*
X123540992Y-114036200D01*
X123714424Y-114171189D01*
X123912426Y-114278342D01*
X123912427Y-114278342D01*
X123912428Y-114278343D01*
X124024227Y-114316723D01*
X124125365Y-114351444D01*
X124347431Y-114388500D01*
X124347435Y-114388500D01*
X124572565Y-114388500D01*
X124572569Y-114388500D01*
X124794635Y-114351444D01*
X125007574Y-114278342D01*
X125205576Y-114171189D01*
X125383240Y-114032906D01*
X125535722Y-113867268D01*
X125624518Y-113731354D01*
X125678520Y-113685268D01*
X125748868Y-113675692D01*
X125813225Y-113705669D01*
X125835480Y-113731353D01*
X125868607Y-113782058D01*
X125924275Y-113867265D01*
X125924279Y-113867270D01*
X126076762Y-114032908D01*
X126080992Y-114036200D01*
X126254424Y-114171189D01*
X126452426Y-114278342D01*
X126452427Y-114278342D01*
X126452428Y-114278343D01*
X126564227Y-114316723D01*
X126665365Y-114351444D01*
X126887431Y-114388500D01*
X126887435Y-114388500D01*
X127112565Y-114388500D01*
X127112569Y-114388500D01*
X127334635Y-114351444D01*
X127547574Y-114278342D01*
X127745576Y-114171189D01*
X127923240Y-114032906D01*
X128075722Y-113867268D01*
X128164816Y-113730898D01*
X128218819Y-113684810D01*
X128289167Y-113675235D01*
X128353524Y-113705212D01*
X128375782Y-113730898D01*
X128464674Y-113866958D01*
X128617097Y-114032534D01*
X128794698Y-114170767D01*
X128794699Y-114170768D01*
X128992628Y-114277882D01*
X128992630Y-114277883D01*
X129205483Y-114350955D01*
X129205492Y-114350957D01*
X129286000Y-114364391D01*
X129286000Y-113463674D01*
X129397685Y-113514680D01*
X129504237Y-113530000D01*
X129575763Y-113530000D01*
X129682315Y-113514680D01*
X129794000Y-113463674D01*
X129794000Y-114364390D01*
X129874507Y-114350957D01*
X129874516Y-114350955D01*
X130087369Y-114277883D01*
X130087371Y-114277882D01*
X130285300Y-114170768D01*
X130285301Y-114170767D01*
X130462902Y-114032534D01*
X130615325Y-113866958D01*
X130738419Y-113678548D01*
X130828820Y-113472456D01*
X130828823Y-113472449D01*
X130876544Y-113284000D01*
X129971116Y-113284000D01*
X129999493Y-113239844D01*
X130040000Y-113101889D01*
X130040000Y-112958111D01*
X129999493Y-112820156D01*
X129971116Y-112776000D01*
X130876544Y-112776000D01*
X130876544Y-112775999D01*
X130828823Y-112587550D01*
X130828820Y-112587543D01*
X130738419Y-112381451D01*
X130615325Y-112193041D01*
X130462902Y-112027465D01*
X130285301Y-111889232D01*
X130285300Y-111889231D01*
X130087371Y-111782117D01*
X130087369Y-111782116D01*
X129874512Y-111709043D01*
X129874501Y-111709040D01*
X129794000Y-111695606D01*
X129794000Y-112596325D01*
X129682315Y-112545320D01*
X129575763Y-112530000D01*
X129504237Y-112530000D01*
X129397685Y-112545320D01*
X129286000Y-112596325D01*
X129286000Y-111695607D01*
X129285999Y-111695606D01*
X129205498Y-111709040D01*
X129205487Y-111709043D01*
X128992630Y-111782116D01*
X128992628Y-111782117D01*
X128794699Y-111889231D01*
X128794698Y-111889232D01*
X128617097Y-112027465D01*
X128464670Y-112193045D01*
X128375780Y-112329101D01*
X128321776Y-112375189D01*
X128251428Y-112384764D01*
X128187071Y-112354786D01*
X128164816Y-112329101D01*
X128125884Y-112269511D01*
X128075724Y-112192734D01*
X128075720Y-112192729D01*
X127959570Y-112066559D01*
X127923240Y-112027094D01*
X127923239Y-112027093D01*
X127923237Y-112027091D01*
X127841382Y-111963381D01*
X127745576Y-111888811D01*
X127547574Y-111781658D01*
X127547572Y-111781657D01*
X127547571Y-111781656D01*
X127334639Y-111708557D01*
X127334630Y-111708555D01*
X127257029Y-111695606D01*
X127112569Y-111671500D01*
X126887431Y-111671500D01*
X126742971Y-111695606D01*
X126665369Y-111708555D01*
X126665360Y-111708557D01*
X126452428Y-111781656D01*
X126452426Y-111781658D01*
X126254426Y-111888810D01*
X126254424Y-111888811D01*
X126076762Y-112027091D01*
X125924279Y-112192729D01*
X125835483Y-112328643D01*
X125781479Y-112374731D01*
X125711131Y-112384306D01*
X125646774Y-112354329D01*
X125624517Y-112328643D01*
X125535720Y-112192729D01*
X125419570Y-112066559D01*
X125383240Y-112027094D01*
X125383239Y-112027093D01*
X125383237Y-112027091D01*
X125301382Y-111963381D01*
X125205576Y-111888811D01*
X125007574Y-111781658D01*
X125007572Y-111781657D01*
X125007571Y-111781656D01*
X124794639Y-111708557D01*
X124794630Y-111708555D01*
X124717029Y-111695606D01*
X124572569Y-111671500D01*
X124347431Y-111671500D01*
X124220664Y-111692653D01*
X124125356Y-111708557D01*
X124122227Y-111709350D01*
X124120905Y-111709300D01*
X124120224Y-111709414D01*
X124120200Y-111709273D01*
X124051281Y-111706681D01*
X124002204Y-111676300D01*
X122915797Y-110589893D01*
X121926905Y-109601000D01*
X132063917Y-109601000D01*
X133038314Y-109601000D01*
X133022359Y-109616955D01*
X132964835Y-109729852D01*
X132945014Y-109855000D01*
X132964835Y-109980148D01*
X133022359Y-110093045D01*
X133038314Y-110109000D01*
X132063918Y-110109000D01*
X132116186Y-110304068D01*
X132116188Y-110304073D01*
X132212912Y-110511498D01*
X132344184Y-110698974D01*
X132344189Y-110698980D01*
X132506019Y-110860810D01*
X132506025Y-110860815D01*
X132693501Y-110992087D01*
X132900926Y-111088811D01*
X132900931Y-111088813D01*
X133096000Y-111141081D01*
X133096000Y-110166686D01*
X133111955Y-110182641D01*
X133224852Y-110240165D01*
X133318519Y-110255000D01*
X133381481Y-110255000D01*
X133475148Y-110240165D01*
X133588045Y-110182641D01*
X133604000Y-110166686D01*
X133604000Y-111141081D01*
X133799068Y-111088813D01*
X133799073Y-111088811D01*
X134006498Y-110992087D01*
X134193974Y-110860815D01*
X134193980Y-110860810D01*
X134355810Y-110698980D01*
X134355815Y-110698974D01*
X134487087Y-110511498D01*
X134583811Y-110304073D01*
X134583813Y-110304068D01*
X134636082Y-110109000D01*
X133661686Y-110109000D01*
X133677641Y-110093045D01*
X133735165Y-109980148D01*
X133754986Y-109855000D01*
X133735165Y-109729852D01*
X133677641Y-109616955D01*
X133661686Y-109601000D01*
X134636082Y-109601000D01*
X134583813Y-109405931D01*
X134583811Y-109405926D01*
X134487087Y-109198501D01*
X134355815Y-109011025D01*
X134355810Y-109011019D01*
X134193980Y-108849189D01*
X134193974Y-108849184D01*
X134006498Y-108717912D01*
X133799073Y-108621188D01*
X133799071Y-108621187D01*
X133604000Y-108568917D01*
X133604000Y-109543314D01*
X133588045Y-109527359D01*
X133475148Y-109469835D01*
X133381481Y-109455000D01*
X133318519Y-109455000D01*
X133224852Y-109469835D01*
X133111955Y-109527359D01*
X133096000Y-109543314D01*
X133096000Y-108568917D01*
X133095999Y-108568917D01*
X132900928Y-108621187D01*
X132900926Y-108621188D01*
X132693501Y-108717912D01*
X132506025Y-108849184D01*
X132506019Y-108849189D01*
X132344189Y-109011019D01*
X132344184Y-109011025D01*
X132212912Y-109198501D01*
X132116188Y-109405926D01*
X132116186Y-109405931D01*
X132063917Y-109601000D01*
X121926905Y-109601000D01*
X121792244Y-109466339D01*
X121782279Y-109453901D01*
X121782052Y-109454090D01*
X121777001Y-109447984D01*
X121777000Y-109447982D01*
X121727348Y-109401356D01*
X121724505Y-109398600D01*
X121704777Y-109378871D01*
X121704771Y-109378866D01*
X121701567Y-109376380D01*
X121692556Y-109368683D01*
X121660325Y-109338417D01*
X121660319Y-109338413D01*
X121642563Y-109328651D01*
X121626047Y-109317802D01*
X121610041Y-109305386D01*
X121569464Y-109287827D01*
X121558807Y-109282605D01*
X121520063Y-109261306D01*
X121520060Y-109261305D01*
X121500436Y-109256266D01*
X121481736Y-109249864D01*
X121463145Y-109241819D01*
X121463143Y-109241818D01*
X121463141Y-109241818D01*
X121419474Y-109234901D01*
X121407855Y-109232495D01*
X121365030Y-109221500D01*
X121344776Y-109221500D01*
X121325066Y-109219949D01*
X121305057Y-109216780D01*
X121261039Y-109220941D01*
X121249181Y-109221500D01*
X116567215Y-109221500D01*
X116499094Y-109201498D01*
X116478120Y-109184595D01*
X113751772Y-106458246D01*
X113717746Y-106395934D01*
X113719160Y-106336541D01*
X113736164Y-106273087D01*
X113756119Y-106045000D01*
X113736164Y-105816913D01*
X113676905Y-105595757D01*
X113580144Y-105388251D01*
X113448819Y-105200700D01*
X113286921Y-105038802D01*
X113250136Y-105013045D01*
X113099370Y-104907477D01*
X112891867Y-104810717D01*
X112891861Y-104810715D01*
X112764695Y-104776641D01*
X112670708Y-104751457D01*
X112442621Y-104731502D01*
X112214534Y-104751457D01*
X111993380Y-104810715D01*
X111993374Y-104810717D01*
X111785871Y-104907477D01*
X111598324Y-105038799D01*
X111452983Y-105184140D01*
X111390671Y-105218165D01*
X111319855Y-105213100D01*
X111263020Y-105170553D01*
X111245833Y-105139077D01*
X111193510Y-104998796D01*
X111193508Y-104998792D01*
X111105882Y-104881738D01*
X110988828Y-104794112D01*
X110988823Y-104794110D01*
X110851825Y-104743011D01*
X110851817Y-104743009D01*
X110791270Y-104736500D01*
X110791259Y-104736500D01*
X109093983Y-104736500D01*
X109093971Y-104736500D01*
X109033424Y-104743009D01*
X109033416Y-104743011D01*
X108896418Y-104794110D01*
X108896413Y-104794113D01*
X108785009Y-104877509D01*
X108718489Y-104902320D01*
X108649114Y-104887228D01*
X108598912Y-104837026D01*
X108583500Y-104776641D01*
X108583500Y-104454594D01*
X108603502Y-104386473D01*
X108620405Y-104365499D01*
X111985499Y-101000405D01*
X112047811Y-100966379D01*
X112074594Y-100963500D01*
X115509918Y-100963500D01*
X115578039Y-100983502D01*
X115624532Y-101037158D01*
X115634636Y-101107432D01*
X115624112Y-101142751D01*
X115615719Y-101160749D01*
X115615715Y-101160759D01*
X115579425Y-101296195D01*
X115556457Y-101381913D01*
X115536502Y-101610000D01*
X115556457Y-101838087D01*
X115563348Y-101863804D01*
X115615715Y-102059240D01*
X115615717Y-102059246D01*
X115712477Y-102266749D01*
X115746284Y-102315031D01*
X115843802Y-102454300D01*
X116005700Y-102616198D01*
X116193251Y-102747523D01*
X116228359Y-102763894D01*
X116232457Y-102765805D01*
X116285742Y-102812722D01*
X116305203Y-102880999D01*
X116284661Y-102948959D01*
X116232457Y-102994195D01*
X116193250Y-103012477D01*
X116005703Y-103143799D01*
X116005697Y-103143804D01*
X115843804Y-103305697D01*
X115843799Y-103305703D01*
X115712477Y-103493250D01*
X115615717Y-103700753D01*
X115615715Y-103700759D01*
X115585115Y-103814959D01*
X115556457Y-103921913D01*
X115536502Y-104150000D01*
X115553938Y-104349300D01*
X115556457Y-104378086D01*
X115615715Y-104599240D01*
X115615717Y-104599246D01*
X115712477Y-104806749D01*
X115843802Y-104994300D01*
X116005700Y-105156198D01*
X116193251Y-105287523D01*
X116232457Y-105305805D01*
X116233047Y-105306080D01*
X116286332Y-105352996D01*
X116305794Y-105421273D01*
X116285253Y-105489233D01*
X116233051Y-105534468D01*
X116193504Y-105552910D01*
X116006025Y-105684184D01*
X116006019Y-105684189D01*
X115844189Y-105846019D01*
X115844184Y-105846025D01*
X115712912Y-106033501D01*
X115616188Y-106240926D01*
X115616186Y-106240931D01*
X115563917Y-106436000D01*
X116538314Y-106436000D01*
X116522359Y-106451955D01*
X116464835Y-106564852D01*
X116445014Y-106690000D01*
X116464835Y-106815148D01*
X116522359Y-106928045D01*
X116538314Y-106944000D01*
X115563918Y-106944000D01*
X115616186Y-107139068D01*
X115616188Y-107139073D01*
X115712912Y-107346498D01*
X115844184Y-107533974D01*
X115844189Y-107533980D01*
X116006019Y-107695810D01*
X116006025Y-107695815D01*
X116193501Y-107827087D01*
X116400926Y-107923811D01*
X116400931Y-107923813D01*
X116596000Y-107976081D01*
X116596000Y-107001686D01*
X116611955Y-107017641D01*
X116724852Y-107075165D01*
X116818519Y-107090000D01*
X116881481Y-107090000D01*
X116975148Y-107075165D01*
X117088045Y-107017641D01*
X117104000Y-107001686D01*
X117104000Y-107976081D01*
X117299068Y-107923813D01*
X117299073Y-107923811D01*
X117506498Y-107827087D01*
X117693974Y-107695815D01*
X117693980Y-107695810D01*
X117855810Y-107533980D01*
X117855815Y-107533974D01*
X117987087Y-107346498D01*
X118083811Y-107139073D01*
X118083813Y-107139068D01*
X118136082Y-106944000D01*
X117161686Y-106944000D01*
X117177641Y-106928045D01*
X117235165Y-106815148D01*
X117254986Y-106690000D01*
X117235165Y-106564852D01*
X117177641Y-106451955D01*
X117161686Y-106436000D01*
X118136082Y-106436000D01*
X118083813Y-106240931D01*
X118083811Y-106240926D01*
X117987087Y-106033501D01*
X117855815Y-105846025D01*
X117855810Y-105846019D01*
X117693980Y-105684189D01*
X117693974Y-105684184D01*
X117506497Y-105552911D01*
X117466949Y-105534469D01*
X117413665Y-105487551D01*
X117394205Y-105419273D01*
X117414748Y-105351314D01*
X117466950Y-105306081D01*
X117506749Y-105287523D01*
X117694300Y-105156198D01*
X117856198Y-104994300D01*
X117987523Y-104806749D01*
X118084284Y-104599243D01*
X118143543Y-104378087D01*
X118163498Y-104150000D01*
X118143543Y-103921913D01*
X118084284Y-103700757D01*
X118075888Y-103682751D01*
X118065226Y-103612559D01*
X118094205Y-103547746D01*
X118153625Y-103508890D01*
X118190082Y-103503500D01*
X123129918Y-103503500D01*
X123198039Y-103523502D01*
X123244532Y-103577158D01*
X123254636Y-103647432D01*
X123244112Y-103682751D01*
X123235719Y-103700749D01*
X123235715Y-103700759D01*
X123205115Y-103814959D01*
X123176457Y-103921913D01*
X123156502Y-104150000D01*
X123173938Y-104349300D01*
X123176457Y-104378086D01*
X123235715Y-104599240D01*
X123235717Y-104599246D01*
X123332477Y-104806749D01*
X123463802Y-104994300D01*
X123625700Y-105156198D01*
X123813251Y-105287523D01*
X123848359Y-105303894D01*
X123852457Y-105305805D01*
X123905742Y-105352722D01*
X123925203Y-105420999D01*
X123904661Y-105488959D01*
X123852457Y-105534195D01*
X123813250Y-105552477D01*
X123625703Y-105683799D01*
X123625697Y-105683804D01*
X123463804Y-105845697D01*
X123463799Y-105845703D01*
X123332477Y-106033250D01*
X123235717Y-106240753D01*
X123235715Y-106240759D01*
X123179125Y-106451955D01*
X123176457Y-106461913D01*
X123156502Y-106690000D01*
X123176457Y-106918087D01*
X123209608Y-107041807D01*
X123235715Y-107139240D01*
X123235717Y-107139246D01*
X123332360Y-107346498D01*
X123332477Y-107346749D01*
X123463802Y-107534300D01*
X123625700Y-107696198D01*
X123813251Y-107827523D01*
X124020757Y-107924284D01*
X124241913Y-107983543D01*
X124470000Y-108003498D01*
X124698087Y-107983543D01*
X124919243Y-107924284D01*
X125126749Y-107827523D01*
X125314300Y-107696198D01*
X125476198Y-107534300D01*
X125607523Y-107346749D01*
X125704284Y-107139243D01*
X125763543Y-106918087D01*
X125783498Y-106690000D01*
X125782623Y-106680000D01*
X132036502Y-106680000D01*
X132056457Y-106908087D01*
X132059136Y-106918086D01*
X132115715Y-107129240D01*
X132115717Y-107129246D01*
X132212477Y-107336749D01*
X132224205Y-107353499D01*
X132343802Y-107524300D01*
X132505700Y-107686198D01*
X132693251Y-107817523D01*
X132900757Y-107914284D01*
X133121913Y-107973543D01*
X133350000Y-107993498D01*
X133578087Y-107973543D01*
X133641541Y-107956540D01*
X133712514Y-107958228D01*
X133763246Y-107989151D01*
X135259595Y-109485499D01*
X135293620Y-109547811D01*
X135296500Y-109574594D01*
X135296500Y-112445606D01*
X135276498Y-112513727D01*
X135242771Y-112548819D01*
X135085703Y-112658799D01*
X135085697Y-112658804D01*
X134923804Y-112820697D01*
X134923799Y-112820703D01*
X134792477Y-113008250D01*
X134695717Y-113215753D01*
X134695715Y-113215759D01*
X134645222Y-113404201D01*
X134636457Y-113436913D01*
X134616502Y-113665000D01*
X134636457Y-113893087D01*
X134645983Y-113928638D01*
X134695715Y-114114240D01*
X134695717Y-114114246D01*
X134792477Y-114321749D01*
X134923802Y-114509300D01*
X135085700Y-114671198D01*
X135273251Y-114802523D01*
X135480757Y-114899284D01*
X135701913Y-114958543D01*
X135930000Y-114978498D01*
X136158087Y-114958543D01*
X136379243Y-114899284D01*
X136586749Y-114802523D01*
X136774300Y-114671198D01*
X136936198Y-114509300D01*
X137067523Y-114321749D01*
X137164284Y-114114243D01*
X137223543Y-113893087D01*
X137243498Y-113665000D01*
X139616502Y-113665000D01*
X139636457Y-113893087D01*
X139645983Y-113928638D01*
X139695715Y-114114240D01*
X139695717Y-114114246D01*
X139792477Y-114321749D01*
X139923802Y-114509300D01*
X140085700Y-114671198D01*
X140273251Y-114802523D01*
X140480757Y-114899284D01*
X140701913Y-114958543D01*
X140930000Y-114978498D01*
X141158087Y-114958543D01*
X141379243Y-114899284D01*
X141586749Y-114802523D01*
X141774300Y-114671198D01*
X141936198Y-114509300D01*
X142067523Y-114321749D01*
X142164284Y-114114243D01*
X142223543Y-113893087D01*
X142243498Y-113665000D01*
X142223543Y-113436913D01*
X142164284Y-113215757D01*
X142067523Y-113008251D01*
X141936198Y-112820700D01*
X141774300Y-112658802D01*
X141586749Y-112527477D01*
X141557262Y-112513727D01*
X141379246Y-112430717D01*
X141379240Y-112430715D01*
X141245950Y-112395000D01*
X141158087Y-112371457D01*
X140930000Y-112351502D01*
X140701913Y-112371457D01*
X140480759Y-112430715D01*
X140480753Y-112430717D01*
X140273250Y-112527477D01*
X140085703Y-112658799D01*
X140085697Y-112658804D01*
X139923804Y-112820697D01*
X139923799Y-112820703D01*
X139792477Y-113008250D01*
X139695717Y-113215753D01*
X139695715Y-113215759D01*
X139645222Y-113404201D01*
X139636457Y-113436913D01*
X139616502Y-113665000D01*
X137243498Y-113665000D01*
X137223543Y-113436913D01*
X137164284Y-113215757D01*
X137067523Y-113008251D01*
X136936198Y-112820700D01*
X136774300Y-112658802D01*
X136733167Y-112630000D01*
X136617229Y-112548819D01*
X136572901Y-112493362D01*
X136563500Y-112445606D01*
X136563500Y-109855000D01*
X142196502Y-109855000D01*
X142216457Y-110083087D01*
X142241194Y-110175405D01*
X142275715Y-110304240D01*
X142275717Y-110304246D01*
X142372477Y-110511749D01*
X142468436Y-110648793D01*
X142503802Y-110699300D01*
X142665700Y-110861198D01*
X142853251Y-110992523D01*
X143060757Y-111089284D01*
X143281913Y-111148543D01*
X143510000Y-111168498D01*
X143738087Y-111148543D01*
X143959243Y-111089284D01*
X144166749Y-110992523D01*
X144354300Y-110861198D01*
X144516198Y-110699300D01*
X144647523Y-110511749D01*
X144744284Y-110304243D01*
X144803543Y-110083087D01*
X144823498Y-109855000D01*
X144803543Y-109626913D01*
X144744284Y-109405757D01*
X144647523Y-109198251D01*
X144516198Y-109010700D01*
X144354300Y-108848802D01*
X144271640Y-108790923D01*
X144166749Y-108717477D01*
X143959246Y-108620717D01*
X143959240Y-108620715D01*
X143865771Y-108595670D01*
X143738087Y-108561457D01*
X143510000Y-108541502D01*
X143281913Y-108561457D01*
X143060759Y-108620715D01*
X143060753Y-108620717D01*
X142853250Y-108717477D01*
X142665703Y-108848799D01*
X142665697Y-108848804D01*
X142503804Y-109010697D01*
X142503799Y-109010703D01*
X142372477Y-109198250D01*
X142275717Y-109405753D01*
X142275715Y-109405759D01*
X142237652Y-109547811D01*
X142216457Y-109626913D01*
X142196502Y-109855000D01*
X136563500Y-109855000D01*
X136563500Y-109343853D01*
X136565249Y-109328011D01*
X136564956Y-109327984D01*
X136565700Y-109320098D01*
X136565702Y-109320091D01*
X136563562Y-109252014D01*
X136563500Y-109248055D01*
X136563500Y-109220149D01*
X136563500Y-109220144D01*
X136562992Y-109216130D01*
X136562061Y-109204297D01*
X136561442Y-109184595D01*
X136560673Y-109160111D01*
X136555022Y-109140664D01*
X136551012Y-109121300D01*
X136548474Y-109101203D01*
X136532193Y-109060084D01*
X136528355Y-109048873D01*
X136516018Y-109006407D01*
X136505706Y-108988970D01*
X136497010Y-108971221D01*
X136489552Y-108952383D01*
X136463552Y-108916598D01*
X136457059Y-108906714D01*
X136434542Y-108868638D01*
X136420214Y-108854310D01*
X136407384Y-108839289D01*
X136395472Y-108822893D01*
X136395469Y-108822891D01*
X136395469Y-108822890D01*
X136361394Y-108794700D01*
X136352616Y-108786712D01*
X134659151Y-107093246D01*
X134625125Y-107030934D01*
X134626539Y-106971541D01*
X134643543Y-106908087D01*
X134663498Y-106680000D01*
X142196502Y-106680000D01*
X142216457Y-106908087D01*
X142219136Y-106918086D01*
X142275715Y-107129240D01*
X142275717Y-107129246D01*
X142372477Y-107336749D01*
X142384205Y-107353499D01*
X142503802Y-107524300D01*
X142665700Y-107686198D01*
X142853251Y-107817523D01*
X143060757Y-107914284D01*
X143281913Y-107973543D01*
X143510000Y-107993498D01*
X143738087Y-107973543D01*
X143959243Y-107914284D01*
X144166749Y-107817523D01*
X144354300Y-107686198D01*
X144516198Y-107524300D01*
X144647523Y-107336749D01*
X144744284Y-107129243D01*
X144803543Y-106908087D01*
X144823498Y-106680000D01*
X144803543Y-106451913D01*
X144744284Y-106230757D01*
X144647523Y-106023251D01*
X144516198Y-105835700D01*
X144354300Y-105673802D01*
X144166749Y-105542477D01*
X144148988Y-105534195D01*
X143959246Y-105445717D01*
X143959240Y-105445715D01*
X143859546Y-105419002D01*
X143738087Y-105386457D01*
X143510000Y-105366502D01*
X143281913Y-105386457D01*
X143060759Y-105445715D01*
X143060753Y-105445717D01*
X142853250Y-105542477D01*
X142665703Y-105673799D01*
X142665697Y-105673804D01*
X142503804Y-105835697D01*
X142503799Y-105835703D01*
X142372477Y-106023250D01*
X142275717Y-106230753D01*
X142275715Y-106230759D01*
X142247372Y-106336538D01*
X142216457Y-106451913D01*
X142196502Y-106680000D01*
X134663498Y-106680000D01*
X134643543Y-106451913D01*
X134584284Y-106230757D01*
X134487523Y-106023251D01*
X134356198Y-105835700D01*
X134194300Y-105673802D01*
X134006749Y-105542477D01*
X133988988Y-105534195D01*
X133799246Y-105445717D01*
X133799240Y-105445715D01*
X133699546Y-105419002D01*
X133578087Y-105386457D01*
X133350000Y-105366502D01*
X133121913Y-105386457D01*
X132900759Y-105445715D01*
X132900753Y-105445717D01*
X132693250Y-105542477D01*
X132505703Y-105673799D01*
X132505697Y-105673804D01*
X132343804Y-105835697D01*
X132343799Y-105835703D01*
X132212477Y-106023250D01*
X132115717Y-106230753D01*
X132115715Y-106230759D01*
X132087372Y-106336538D01*
X132056457Y-106451913D01*
X132036502Y-106680000D01*
X125782623Y-106680000D01*
X125763543Y-106461913D01*
X125704284Y-106240757D01*
X125607523Y-106033251D01*
X125476198Y-105845700D01*
X125314300Y-105683802D01*
X125300021Y-105673804D01*
X125134018Y-105557567D01*
X125126749Y-105552477D01*
X125088130Y-105534469D01*
X125087543Y-105534195D01*
X125034258Y-105487279D01*
X125014796Y-105419002D01*
X125035337Y-105351042D01*
X125087543Y-105305805D01*
X125089997Y-105304660D01*
X125126749Y-105287523D01*
X125314300Y-105156198D01*
X125476198Y-104994300D01*
X125607523Y-104806749D01*
X125704284Y-104599243D01*
X125763543Y-104378087D01*
X125783498Y-104150000D01*
X125763543Y-103921913D01*
X125704284Y-103700757D01*
X125695888Y-103682751D01*
X125685226Y-103612559D01*
X125714205Y-103547746D01*
X125773625Y-103508890D01*
X125810082Y-103503500D01*
X130726147Y-103503500D01*
X130741988Y-103505249D01*
X130742016Y-103504956D01*
X130749902Y-103505700D01*
X130749909Y-103505702D01*
X130772241Y-103505000D01*
X132036502Y-103505000D01*
X132056457Y-103733087D01*
X132094803Y-103876195D01*
X132115715Y-103954239D01*
X132115717Y-103954246D01*
X132153573Y-104035428D01*
X132212477Y-104161749D01*
X132343802Y-104349300D01*
X132505700Y-104511198D01*
X132693251Y-104642523D01*
X132900757Y-104739284D01*
X133121913Y-104798543D01*
X133350000Y-104818498D01*
X133578087Y-104798543D01*
X133799243Y-104739284D01*
X134006749Y-104642523D01*
X134194300Y-104511198D01*
X134356198Y-104349300D01*
X134487523Y-104161749D01*
X134584284Y-103954243D01*
X134643543Y-103733087D01*
X134663498Y-103505000D01*
X134643543Y-103276913D01*
X134584284Y-103055757D01*
X134487523Y-102848251D01*
X134356198Y-102660700D01*
X134194300Y-102498802D01*
X134153252Y-102470060D01*
X134006749Y-102367477D01*
X133799246Y-102270717D01*
X133799240Y-102270715D01*
X133671548Y-102236500D01*
X133578087Y-102211457D01*
X133350000Y-102191502D01*
X133121913Y-102211457D01*
X132900759Y-102270715D01*
X132900753Y-102270717D01*
X132693250Y-102367477D01*
X132505703Y-102498799D01*
X132505697Y-102498804D01*
X132343804Y-102660697D01*
X132343799Y-102660703D01*
X132212477Y-102848250D01*
X132115717Y-103055753D01*
X132115715Y-103055759D01*
X132073460Y-103213458D01*
X132056457Y-103276913D01*
X132036502Y-103505000D01*
X130772241Y-103505000D01*
X130817986Y-103503562D01*
X130821945Y-103503500D01*
X130849851Y-103503500D01*
X130849856Y-103503500D01*
X130853867Y-103502992D01*
X130865699Y-103502061D01*
X130909889Y-103500673D01*
X130929347Y-103495019D01*
X130948694Y-103491013D01*
X130968797Y-103488474D01*
X131009910Y-103472195D01*
X131021130Y-103468353D01*
X131045913Y-103461154D01*
X131063591Y-103456019D01*
X131063595Y-103456017D01*
X131081026Y-103445708D01*
X131098780Y-103437009D01*
X131117617Y-103429552D01*
X131153392Y-103403558D01*
X131163298Y-103397051D01*
X131201362Y-103374542D01*
X131215685Y-103360218D01*
X131230724Y-103347374D01*
X131247107Y-103335472D01*
X131275303Y-103301386D01*
X131283272Y-103292630D01*
X132936753Y-101639149D01*
X132999063Y-101605125D01*
X133058457Y-101606539D01*
X133121913Y-101623543D01*
X133350000Y-101643498D01*
X133578087Y-101623543D01*
X133799243Y-101564284D01*
X134006749Y-101467523D01*
X134194300Y-101336198D01*
X134356198Y-101174300D01*
X134487523Y-100986749D01*
X134584284Y-100779243D01*
X134643543Y-100558087D01*
X134663498Y-100330000D01*
X134643543Y-100101913D01*
X134584284Y-99880757D01*
X134487523Y-99673251D01*
X134356198Y-99485700D01*
X134194300Y-99323802D01*
X134157575Y-99298087D01*
X134006749Y-99192477D01*
X133799246Y-99095717D01*
X133799240Y-99095715D01*
X133665950Y-99060000D01*
X133578087Y-99036457D01*
X133350000Y-99016502D01*
X133121913Y-99036457D01*
X132900759Y-99095715D01*
X132900753Y-99095717D01*
X132693250Y-99192477D01*
X132505703Y-99323799D01*
X132505697Y-99323804D01*
X132343804Y-99485697D01*
X132343799Y-99485703D01*
X132212477Y-99673250D01*
X132115717Y-99880753D01*
X132115715Y-99880759D01*
X132056457Y-100101913D01*
X132036502Y-100330000D01*
X132056457Y-100558090D01*
X132073459Y-100621540D01*
X132071769Y-100692516D01*
X132040847Y-100743246D01*
X130584498Y-102199596D01*
X130522188Y-102233620D01*
X130495405Y-102236500D01*
X129077905Y-102236500D01*
X129009784Y-102216498D01*
X128963291Y-102162842D01*
X128953187Y-102092568D01*
X128982681Y-102027988D01*
X129005634Y-102007287D01*
X129055179Y-101972595D01*
X129114300Y-101931198D01*
X129276198Y-101769300D01*
X129407523Y-101581749D01*
X129504284Y-101374243D01*
X129563543Y-101153087D01*
X129583498Y-100925000D01*
X129563543Y-100696913D01*
X129504284Y-100475757D01*
X129407523Y-100268251D01*
X129276198Y-100080700D01*
X129114300Y-99918802D01*
X129107873Y-99914302D01*
X128926749Y-99787477D01*
X128719246Y-99690717D01*
X128719240Y-99690715D01*
X128603099Y-99659595D01*
X128498087Y-99631457D01*
X128270000Y-99611502D01*
X128041913Y-99631457D01*
X127820759Y-99690715D01*
X127820753Y-99690717D01*
X127613250Y-99787477D01*
X127425703Y-99918799D01*
X127425697Y-99918804D01*
X127263804Y-100080697D01*
X127263799Y-100080703D01*
X127132477Y-100268250D01*
X127035717Y-100475753D01*
X127035715Y-100475759D01*
X126976457Y-100696913D01*
X126956502Y-100925000D01*
X126976457Y-101153086D01*
X127035715Y-101374240D01*
X127035717Y-101374246D01*
X127132477Y-101581749D01*
X127211694Y-101694883D01*
X127263802Y-101769300D01*
X127425700Y-101931198D01*
X127484821Y-101972595D01*
X127534366Y-102007287D01*
X127578694Y-102062744D01*
X127586003Y-102133363D01*
X127553972Y-102196724D01*
X127492771Y-102232709D01*
X127462095Y-102236500D01*
X125819408Y-102236500D01*
X125751287Y-102216498D01*
X125704794Y-102162842D01*
X125694690Y-102092568D01*
X125703013Y-102064635D01*
X125702402Y-102064413D01*
X125704279Y-102059253D01*
X125704284Y-102059243D01*
X125763543Y-101838087D01*
X125783498Y-101610000D01*
X125763543Y-101381913D01*
X125704284Y-101160757D01*
X125607523Y-100953251D01*
X125476198Y-100765700D01*
X125314300Y-100603802D01*
X125126749Y-100472477D01*
X125087543Y-100454195D01*
X125034258Y-100407279D01*
X125014796Y-100339002D01*
X125035337Y-100271042D01*
X125087543Y-100225805D01*
X125089997Y-100224660D01*
X125126749Y-100207523D01*
X125314300Y-100076198D01*
X125476198Y-99914300D01*
X125607523Y-99726749D01*
X125704284Y-99519243D01*
X125763543Y-99298087D01*
X125783498Y-99070000D01*
X125763543Y-98841913D01*
X125704284Y-98620757D01*
X125607523Y-98413251D01*
X125476198Y-98225700D01*
X125314300Y-98063802D01*
X125314296Y-98063799D01*
X125314291Y-98063795D01*
X125248479Y-98017713D01*
X125204150Y-97962256D01*
X125196841Y-97891637D01*
X125228871Y-97828276D01*
X125290073Y-97792291D01*
X125320749Y-97788500D01*
X131869147Y-97788500D01*
X131884988Y-97790249D01*
X131885016Y-97789956D01*
X131892902Y-97790700D01*
X131892909Y-97790702D01*
X131960986Y-97788562D01*
X131964945Y-97788500D01*
X131992851Y-97788500D01*
X131992856Y-97788500D01*
X131996867Y-97787992D01*
X132008699Y-97787061D01*
X132052889Y-97785673D01*
X132072347Y-97780019D01*
X132091694Y-97776013D01*
X132111797Y-97773474D01*
X132152910Y-97757195D01*
X132164130Y-97753353D01*
X132188913Y-97746154D01*
X132206591Y-97741019D01*
X132206595Y-97741017D01*
X132224026Y-97730708D01*
X132241780Y-97722009D01*
X132260617Y-97714552D01*
X132296392Y-97688558D01*
X132306298Y-97682051D01*
X132344362Y-97659542D01*
X132358685Y-97645218D01*
X132373724Y-97632374D01*
X132390107Y-97620472D01*
X132418303Y-97586386D01*
X132426272Y-97577630D01*
X133483902Y-96520000D01*
X134657004Y-96520000D01*
X134676951Y-96748002D01*
X134736186Y-96969068D01*
X134736188Y-96969073D01*
X134832913Y-97176501D01*
X134882899Y-97247888D01*
X135571272Y-96559516D01*
X135584835Y-96645148D01*
X135642359Y-96758045D01*
X135731955Y-96847641D01*
X135844852Y-96905165D01*
X135930482Y-96918727D01*
X135242110Y-97607098D01*
X135242110Y-97607100D01*
X135313498Y-97657086D01*
X135520926Y-97753811D01*
X135520931Y-97753813D01*
X135741999Y-97813048D01*
X135741995Y-97813048D01*
X135970000Y-97832995D01*
X136198002Y-97813048D01*
X136419068Y-97753813D01*
X136419073Y-97753811D01*
X136626497Y-97657088D01*
X136697888Y-97607099D01*
X136697888Y-97607097D01*
X136009518Y-96918727D01*
X136095148Y-96905165D01*
X136208045Y-96847641D01*
X136297641Y-96758045D01*
X136355165Y-96645148D01*
X136368727Y-96559518D01*
X137057097Y-97247888D01*
X137057099Y-97247888D01*
X137107088Y-97176497D01*
X137203811Y-96969073D01*
X137203813Y-96969068D01*
X137263048Y-96748002D01*
X137282995Y-96520000D01*
X139656502Y-96520000D01*
X139676457Y-96748087D01*
X139693852Y-96813006D01*
X139735715Y-96969240D01*
X139735717Y-96969246D01*
X139832477Y-97176749D01*
X139962957Y-97363094D01*
X139963802Y-97364300D01*
X140125700Y-97526198D01*
X140313251Y-97657523D01*
X140520757Y-97754284D01*
X140741913Y-97813543D01*
X140970000Y-97833498D01*
X141198087Y-97813543D01*
X141419243Y-97754284D01*
X141626749Y-97657523D01*
X141814300Y-97526198D01*
X141976198Y-97364300D01*
X142107523Y-97176749D01*
X142204284Y-96969243D01*
X142263543Y-96748087D01*
X142283498Y-96520000D01*
X142263543Y-96291913D01*
X142204284Y-96070757D01*
X142107523Y-95863251D01*
X141976198Y-95675700D01*
X141814300Y-95513802D01*
X141789357Y-95496337D01*
X141626749Y-95382477D01*
X141419246Y-95285717D01*
X141419240Y-95285715D01*
X141289462Y-95250941D01*
X141198087Y-95226457D01*
X140970000Y-95206502D01*
X140741913Y-95226457D01*
X140520759Y-95285715D01*
X140520753Y-95285717D01*
X140313250Y-95382477D01*
X140125703Y-95513799D01*
X140125697Y-95513804D01*
X139963804Y-95675697D01*
X139963799Y-95675703D01*
X139832477Y-95863250D01*
X139735717Y-96070753D01*
X139735715Y-96070759D01*
X139679125Y-96281955D01*
X139676457Y-96291913D01*
X139656502Y-96520000D01*
X137282995Y-96520000D01*
X137263048Y-96291997D01*
X137203813Y-96070931D01*
X137203811Y-96070926D01*
X137107086Y-95863498D01*
X137057100Y-95792110D01*
X137057098Y-95792110D01*
X136368727Y-96480481D01*
X136355165Y-96394852D01*
X136297641Y-96281955D01*
X136208045Y-96192359D01*
X136095148Y-96134835D01*
X136009517Y-96121272D01*
X136697888Y-95432899D01*
X136697888Y-95432898D01*
X136626501Y-95382913D01*
X136419073Y-95286188D01*
X136419068Y-95286186D01*
X136198000Y-95226951D01*
X136198004Y-95226951D01*
X135970000Y-95207004D01*
X135741997Y-95226951D01*
X135520931Y-95286186D01*
X135520926Y-95286188D01*
X135313500Y-95382913D01*
X135242109Y-95432900D01*
X135930481Y-96121272D01*
X135844852Y-96134835D01*
X135731955Y-96192359D01*
X135642359Y-96281955D01*
X135584835Y-96394852D01*
X135571272Y-96480481D01*
X134882900Y-95792109D01*
X134832913Y-95863500D01*
X134736188Y-96070926D01*
X134736186Y-96070931D01*
X134676951Y-96291997D01*
X134657004Y-96520000D01*
X133483902Y-96520000D01*
X138818657Y-91185245D01*
X138831092Y-91175284D01*
X138830905Y-91175057D01*
X138837016Y-91170001D01*
X138837015Y-91170001D01*
X138837018Y-91170000D01*
X138883676Y-91120312D01*
X138886367Y-91117535D01*
X138906134Y-91097770D01*
X138908617Y-91094567D01*
X138916308Y-91085562D01*
X138946586Y-91053321D01*
X138956345Y-91035567D01*
X138967197Y-91019046D01*
X138979613Y-91003041D01*
X138997168Y-90962470D01*
X139002392Y-90951808D01*
X139023694Y-90913061D01*
X139023695Y-90913060D01*
X139028733Y-90893435D01*
X139035138Y-90874730D01*
X139043181Y-90856145D01*
X139050096Y-90812481D01*
X139052504Y-90800852D01*
X139063500Y-90758030D01*
X139063500Y-90737775D01*
X139065051Y-90718063D01*
X139068220Y-90698057D01*
X139064059Y-90654036D01*
X139063500Y-90642179D01*
X139063500Y-90013079D01*
X139083502Y-89944958D01*
X139134830Y-89899557D01*
X139321744Y-89809545D01*
X139321752Y-89809538D01*
X139325421Y-89807421D01*
X139394414Y-89790673D01*
X139461509Y-89813884D01*
X139477532Y-89827436D01*
X142200847Y-92550751D01*
X142234873Y-92613063D01*
X142233459Y-92672456D01*
X142216458Y-92735907D01*
X142216457Y-92735910D01*
X142216457Y-92735913D01*
X142196502Y-92964000D01*
X142216457Y-93192087D01*
X142226191Y-93228415D01*
X142275715Y-93413240D01*
X142275717Y-93413246D01*
X142341492Y-93554302D01*
X142372477Y-93620749D01*
X142503802Y-93808300D01*
X142665700Y-93970198D01*
X142853251Y-94101523D01*
X143060757Y-94198284D01*
X143281913Y-94257543D01*
X143510000Y-94277498D01*
X143738087Y-94257543D01*
X143959243Y-94198284D01*
X143967248Y-94194550D01*
X144037440Y-94183889D01*
X144102253Y-94212868D01*
X144141110Y-94272287D01*
X144146500Y-94308745D01*
X144146500Y-98985254D01*
X144126498Y-99053375D01*
X144072842Y-99099868D01*
X144002568Y-99109972D01*
X143967255Y-99099451D01*
X143959252Y-99095719D01*
X143959240Y-99095715D01*
X143825950Y-99060000D01*
X143738087Y-99036457D01*
X143510000Y-99016502D01*
X143281913Y-99036457D01*
X143060759Y-99095715D01*
X143060753Y-99095717D01*
X142853250Y-99192477D01*
X142665703Y-99323799D01*
X142665697Y-99323804D01*
X142503804Y-99485697D01*
X142503799Y-99485703D01*
X142372477Y-99673250D01*
X142275717Y-99880753D01*
X142275715Y-99880759D01*
X142244178Y-99998456D01*
X142216457Y-100101913D01*
X142196502Y-100330000D01*
X142216457Y-100558087D01*
X142228707Y-100603804D01*
X142275715Y-100779240D01*
X142275717Y-100779246D01*
X142372477Y-100986749D01*
X142475793Y-101134300D01*
X142503802Y-101174300D01*
X142665700Y-101336198D01*
X142853251Y-101467523D01*
X143060757Y-101564284D01*
X143281913Y-101623543D01*
X143510000Y-101643498D01*
X143738087Y-101623543D01*
X143959243Y-101564284D01*
X143967248Y-101560550D01*
X144037440Y-101549889D01*
X144102253Y-101578868D01*
X144141110Y-101638287D01*
X144146500Y-101674745D01*
X144146500Y-101920403D01*
X144126498Y-101988524D01*
X144109595Y-102009498D01*
X143923246Y-102195847D01*
X143860934Y-102229873D01*
X143801540Y-102228459D01*
X143738090Y-102211457D01*
X143510000Y-102191502D01*
X143281913Y-102211457D01*
X143060759Y-102270715D01*
X143060753Y-102270717D01*
X142853250Y-102367477D01*
X142665703Y-102498799D01*
X142665697Y-102498804D01*
X142503804Y-102660697D01*
X142503799Y-102660703D01*
X142372477Y-102848250D01*
X142275717Y-103055753D01*
X142275715Y-103055759D01*
X142233460Y-103213458D01*
X142216457Y-103276913D01*
X142196502Y-103505000D01*
X142216457Y-103733087D01*
X142254803Y-103876195D01*
X142275715Y-103954239D01*
X142275717Y-103954246D01*
X142313573Y-104035428D01*
X142372477Y-104161749D01*
X142503802Y-104349300D01*
X142665700Y-104511198D01*
X142853251Y-104642523D01*
X143060757Y-104739284D01*
X143281913Y-104798543D01*
X143510000Y-104818498D01*
X143738087Y-104798543D01*
X143959243Y-104739284D01*
X144166749Y-104642523D01*
X144354300Y-104511198D01*
X144516198Y-104349300D01*
X144647523Y-104161749D01*
X144744284Y-103954243D01*
X144803543Y-103733087D01*
X144823498Y-103505000D01*
X144803543Y-103276913D01*
X144786540Y-103213457D01*
X144788229Y-103142481D01*
X144819149Y-103091753D01*
X145168657Y-102742245D01*
X145181092Y-102732284D01*
X145180905Y-102732057D01*
X145187016Y-102727001D01*
X145187015Y-102727001D01*
X145187018Y-102727000D01*
X145233676Y-102677312D01*
X145236367Y-102674535D01*
X145256134Y-102654770D01*
X145258617Y-102651567D01*
X145266308Y-102642562D01*
X145296586Y-102610321D01*
X145306345Y-102592567D01*
X145317197Y-102576046D01*
X145329613Y-102560041D01*
X145347168Y-102519470D01*
X145352392Y-102508808D01*
X145373694Y-102470061D01*
X145373695Y-102470060D01*
X145378733Y-102450435D01*
X145385138Y-102431730D01*
X145393181Y-102413145D01*
X145400096Y-102369481D01*
X145402504Y-102357852D01*
X145413500Y-102315030D01*
X145413500Y-102294775D01*
X145415051Y-102275063D01*
X145418220Y-102255057D01*
X145414059Y-102211036D01*
X145413500Y-102199179D01*
X145413500Y-89618854D01*
X145415249Y-89603012D01*
X145414956Y-89602985D01*
X145415700Y-89595099D01*
X145415702Y-89595092D01*
X145413562Y-89527000D01*
X145413500Y-89523042D01*
X145413500Y-89495150D01*
X145413500Y-89495144D01*
X145412993Y-89491135D01*
X145412062Y-89479306D01*
X145410674Y-89435111D01*
X145405017Y-89415642D01*
X145401012Y-89396298D01*
X145398474Y-89376203D01*
X145382196Y-89335092D01*
X145378356Y-89323877D01*
X145366018Y-89281407D01*
X145355706Y-89263970D01*
X145347010Y-89246221D01*
X145339552Y-89227383D01*
X145313552Y-89191598D01*
X145307059Y-89181714D01*
X145284542Y-89143638D01*
X145270214Y-89129310D01*
X145257384Y-89114289D01*
X145245472Y-89097893D01*
X145245469Y-89097891D01*
X145245469Y-89097890D01*
X145211394Y-89069700D01*
X145202616Y-89061712D01*
X145192918Y-89052014D01*
X145158892Y-88989702D01*
X145163957Y-88918887D01*
X145164675Y-88917009D01*
X145214252Y-88790692D01*
X145273567Y-88530815D01*
X145293487Y-88265000D01*
X145273567Y-87999185D01*
X145214252Y-87739308D01*
X145136772Y-87541893D01*
X145116869Y-87491180D01*
X145116867Y-87491176D01*
X145115112Y-87488137D01*
X145011503Y-87308679D01*
X144983588Y-87260329D01*
X144983586Y-87260326D01*
X144817388Y-87051921D01*
X144621986Y-86870614D01*
X144580382Y-86842249D01*
X144470039Y-86767018D01*
X144401744Y-86720455D01*
X144401741Y-86720454D01*
X144401739Y-86720452D01*
X144401738Y-86720451D01*
X144161590Y-86604802D01*
X144161572Y-86604795D01*
X143906873Y-86526231D01*
X143906865Y-86526229D01*
X143906863Y-86526229D01*
X143643280Y-86486500D01*
X143376720Y-86486500D01*
X143113137Y-86526229D01*
X143113135Y-86526229D01*
X143113126Y-86526231D01*
X142858427Y-86604795D01*
X142858414Y-86604800D01*
X142618254Y-86720456D01*
X142618247Y-86720460D01*
X142398020Y-86870609D01*
X142398015Y-86870613D01*
X142202613Y-87051920D01*
X142036411Y-87260329D01*
X141903132Y-87491176D01*
X141903130Y-87491180D01*
X141805746Y-87739312D01*
X141767621Y-87906352D01*
X141746433Y-87999185D01*
X141726513Y-88265000D01*
X141746433Y-88530815D01*
X141746434Y-88530819D01*
X141805746Y-88790687D01*
X141903130Y-89038819D01*
X141903132Y-89038823D01*
X142036411Y-89269670D01*
X142036413Y-89269673D01*
X142036414Y-89269674D01*
X142202612Y-89478079D01*
X142398014Y-89659386D01*
X142398020Y-89659390D01*
X142618247Y-89809539D01*
X142618254Y-89809543D01*
X142618257Y-89809545D01*
X142756711Y-89876221D01*
X142858414Y-89925199D01*
X142858427Y-89925204D01*
X143113126Y-90003768D01*
X143113128Y-90003768D01*
X143113137Y-90003771D01*
X143376720Y-90043500D01*
X143376725Y-90043500D01*
X143643275Y-90043500D01*
X143643280Y-90043500D01*
X143906863Y-90003771D01*
X143983361Y-89980173D01*
X144054350Y-89979208D01*
X144114593Y-90016775D01*
X144144962Y-90080949D01*
X144146500Y-90100576D01*
X144146500Y-91619254D01*
X144126498Y-91687375D01*
X144072842Y-91733868D01*
X144002568Y-91743972D01*
X143967255Y-91733451D01*
X143959252Y-91729719D01*
X143959240Y-91729715D01*
X143824595Y-91693637D01*
X143738087Y-91670457D01*
X143510000Y-91650502D01*
X143281913Y-91670457D01*
X143281910Y-91670457D01*
X143281907Y-91670458D01*
X143218456Y-91687459D01*
X143147479Y-91685769D01*
X143096751Y-91654847D01*
X140201768Y-88759863D01*
X140167742Y-88697551D01*
X140168021Y-88642734D01*
X140193567Y-88530815D01*
X140213487Y-88265000D01*
X140193567Y-87999185D01*
X140134252Y-87739308D01*
X140084722Y-87613111D01*
X140078455Y-87542393D01*
X140111416Y-87479511D01*
X140112855Y-87478047D01*
X141808170Y-85782732D01*
X141820609Y-85772769D01*
X141820421Y-85772542D01*
X141826527Y-85767490D01*
X141826526Y-85767490D01*
X141826529Y-85767489D01*
X141873172Y-85717817D01*
X141875862Y-85715041D01*
X141895646Y-85695259D01*
X141898125Y-85692062D01*
X141905822Y-85683048D01*
X141936097Y-85650810D01*
X141945857Y-85633054D01*
X141956706Y-85616539D01*
X141969125Y-85600530D01*
X141986690Y-85559935D01*
X141991895Y-85549310D01*
X142013206Y-85510549D01*
X142018244Y-85490923D01*
X142024648Y-85472221D01*
X142032691Y-85453636D01*
X142032690Y-85453636D01*
X142032692Y-85453634D01*
X142039607Y-85409970D01*
X142042015Y-85398341D01*
X142042772Y-85395393D01*
X142053011Y-85355519D01*
X142053011Y-85335264D01*
X142054562Y-85315552D01*
X142057731Y-85295546D01*
X142053570Y-85251525D01*
X142053011Y-85239668D01*
X142053011Y-78678365D01*
X142054760Y-78662523D01*
X142054467Y-78662496D01*
X142055211Y-78654610D01*
X142055213Y-78654603D01*
X142053073Y-78586511D01*
X142053011Y-78582553D01*
X142053011Y-78554661D01*
X142053011Y-78554655D01*
X142052504Y-78550646D01*
X142051573Y-78538817D01*
X142050185Y-78494622D01*
X142044528Y-78475153D01*
X142040523Y-78455809D01*
X142037985Y-78435714D01*
X142021707Y-78394603D01*
X142017867Y-78383388D01*
X142005529Y-78340918D01*
X141995217Y-78323481D01*
X141986521Y-78305732D01*
X141979063Y-78286894D01*
X141953063Y-78251109D01*
X141946570Y-78241225D01*
X141924053Y-78203149D01*
X141909725Y-78188821D01*
X141896895Y-78173800D01*
X141884983Y-78157404D01*
X141884980Y-78157402D01*
X141884980Y-78157401D01*
X141850911Y-78129216D01*
X141842132Y-78121228D01*
X141604150Y-77883245D01*
X141570125Y-77820933D01*
X141571539Y-77761542D01*
X141588543Y-77698087D01*
X141608498Y-77470000D01*
X141588543Y-77241913D01*
X141529284Y-77020757D01*
X141432523Y-76813251D01*
X141301198Y-76625700D01*
X141139300Y-76463802D01*
X140951749Y-76332477D01*
X140786010Y-76255192D01*
X140744246Y-76235717D01*
X140744240Y-76235715D01*
X140627401Y-76204408D01*
X140523087Y-76176457D01*
X140295000Y-76156502D01*
X140066913Y-76176457D01*
X139845759Y-76235715D01*
X139845753Y-76235717D01*
X139638250Y-76332477D01*
X139450703Y-76463799D01*
X139450697Y-76463804D01*
X139288804Y-76625697D01*
X139288799Y-76625703D01*
X139157477Y-76813250D01*
X139060717Y-77020753D01*
X139060715Y-77020759D01*
X139032841Y-77124788D01*
X139001457Y-77241913D01*
X138981502Y-77470000D01*
X139001457Y-77698087D01*
X139028064Y-77797385D01*
X139060715Y-77919240D01*
X139060717Y-77919246D01*
X139157477Y-78126749D01*
X139200963Y-78188854D01*
X139288802Y-78314300D01*
X139450700Y-78476198D01*
X139638251Y-78607523D01*
X139845757Y-78704284D01*
X140066913Y-78763543D01*
X140295000Y-78783498D01*
X140523087Y-78763543D01*
X140586541Y-78746540D01*
X140657516Y-78748228D01*
X140708247Y-78779151D01*
X140749106Y-78820010D01*
X140783132Y-78882322D01*
X140786011Y-78909105D01*
X140786011Y-79257701D01*
X140766009Y-79325822D01*
X140712353Y-79372315D01*
X140642079Y-79382419D01*
X140627403Y-79379408D01*
X140523087Y-79351457D01*
X140295000Y-79331502D01*
X140066913Y-79351457D01*
X139845759Y-79410715D01*
X139845753Y-79410717D01*
X139638250Y-79507477D01*
X139450703Y-79638799D01*
X139450697Y-79638804D01*
X139288804Y-79800697D01*
X139288799Y-79800703D01*
X139157477Y-79988250D01*
X139060717Y-80195753D01*
X139060715Y-80195759D01*
X139003015Y-80411097D01*
X139001457Y-80416913D01*
X138981502Y-80645000D01*
X139001457Y-80873087D01*
X139022765Y-80952609D01*
X139060715Y-81094240D01*
X139060717Y-81094246D01*
X139087587Y-81151868D01*
X139157477Y-81301749D01*
X139288802Y-81489300D01*
X139450700Y-81651198D01*
X139638251Y-81782523D01*
X139845757Y-81879284D01*
X140066913Y-81938543D01*
X140295000Y-81958498D01*
X140523087Y-81938543D01*
X140627400Y-81910592D01*
X140698375Y-81912281D01*
X140757172Y-81952074D01*
X140785120Y-82017339D01*
X140786011Y-82032298D01*
X140786011Y-82432701D01*
X140766009Y-82500822D01*
X140712353Y-82547315D01*
X140642079Y-82557419D01*
X140627403Y-82554408D01*
X140523087Y-82526457D01*
X140295000Y-82506502D01*
X140066913Y-82526457D01*
X140066910Y-82526457D01*
X140066907Y-82526458D01*
X140003456Y-82543459D01*
X139932479Y-82541769D01*
X139881751Y-82510847D01*
X138489186Y-81118282D01*
X137089916Y-79719011D01*
X137055890Y-79656699D01*
X137053011Y-79629916D01*
X137053011Y-74295000D01*
X141561502Y-74295000D01*
X141565307Y-74338497D01*
X141581457Y-74523086D01*
X141640715Y-74744240D01*
X141640717Y-74744246D01*
X141677245Y-74822581D01*
X141737477Y-74951749D01*
X141868802Y-75139300D01*
X142030700Y-75301198D01*
X142218251Y-75432523D01*
X142425757Y-75529284D01*
X142646913Y-75588543D01*
X142875000Y-75608498D01*
X143103087Y-75588543D01*
X143324243Y-75529284D01*
X143531749Y-75432523D01*
X143719300Y-75301198D01*
X143881198Y-75139300D01*
X144012523Y-74951749D01*
X144109284Y-74744243D01*
X144168543Y-74523087D01*
X144188498Y-74295000D01*
X144168543Y-74066913D01*
X144109284Y-73845757D01*
X144012523Y-73638251D01*
X143881198Y-73450700D01*
X143719300Y-73288802D01*
X143668292Y-73253086D01*
X143531749Y-73157477D01*
X143324246Y-73060717D01*
X143324240Y-73060715D01*
X143190950Y-73025000D01*
X143103087Y-73001457D01*
X142875000Y-72981502D01*
X142646913Y-73001457D01*
X142425759Y-73060715D01*
X142425753Y-73060717D01*
X142218250Y-73157477D01*
X142030703Y-73288799D01*
X142030697Y-73288804D01*
X141868804Y-73450697D01*
X141868799Y-73450703D01*
X141737477Y-73638250D01*
X141640717Y-73845753D01*
X141640715Y-73845759D01*
X141598400Y-74003680D01*
X141581457Y-74066913D01*
X141561502Y-74295000D01*
X137053011Y-74295000D01*
X137053011Y-72683066D01*
X137054760Y-72667225D01*
X137054467Y-72667198D01*
X137055212Y-72659305D01*
X137055213Y-72659302D01*
X137053073Y-72591224D01*
X137053011Y-72587265D01*
X137053011Y-72559360D01*
X137053011Y-72559355D01*
X137052503Y-72555341D01*
X137051572Y-72543508D01*
X137051502Y-72541266D01*
X137050184Y-72499321D01*
X137044533Y-72479874D01*
X137040523Y-72460511D01*
X137038652Y-72445696D01*
X137037985Y-72440414D01*
X137021706Y-72399301D01*
X137017864Y-72388080D01*
X137005529Y-72345618D01*
X136995217Y-72328181D01*
X136986521Y-72310432D01*
X136979063Y-72291594D01*
X136953063Y-72255809D01*
X136946570Y-72245925D01*
X136924053Y-72207849D01*
X136909725Y-72193521D01*
X136896895Y-72178500D01*
X136884983Y-72162104D01*
X136884980Y-72162102D01*
X136884980Y-72162101D01*
X136850905Y-72133911D01*
X136842127Y-72125923D01*
X134290289Y-69574084D01*
X134256263Y-69511772D01*
X134261328Y-69440956D01*
X134303875Y-69384121D01*
X134370395Y-69359310D01*
X134379384Y-69358989D01*
X140800895Y-69358989D01*
X140869016Y-69378991D01*
X140889990Y-69395894D01*
X141565847Y-70071751D01*
X141599873Y-70134063D01*
X141598459Y-70193456D01*
X141581458Y-70256907D01*
X141581457Y-70256910D01*
X141581457Y-70256913D01*
X141561502Y-70485000D01*
X141577957Y-70673087D01*
X141581457Y-70713086D01*
X141640715Y-70934240D01*
X141640717Y-70934246D01*
X141737477Y-71141749D01*
X141863115Y-71321179D01*
X141868802Y-71329300D01*
X142030700Y-71491198D01*
X142218251Y-71622523D01*
X142425757Y-71719284D01*
X142646913Y-71778543D01*
X142875000Y-71798498D01*
X143103087Y-71778543D01*
X143324243Y-71719284D01*
X143531749Y-71622523D01*
X143719300Y-71491198D01*
X143881198Y-71329300D01*
X144012523Y-71141749D01*
X144109284Y-70934243D01*
X144168543Y-70713087D01*
X144188498Y-70485000D01*
X144168543Y-70256913D01*
X144109284Y-70035757D01*
X144012523Y-69828251D01*
X143881198Y-69640700D01*
X143719300Y-69478802D01*
X143715011Y-69475799D01*
X143531749Y-69347477D01*
X143324246Y-69250717D01*
X143324240Y-69250715D01*
X143216096Y-69221738D01*
X143103087Y-69191457D01*
X142875000Y-69171502D01*
X142646913Y-69191457D01*
X142646910Y-69191457D01*
X142646907Y-69191458D01*
X142583457Y-69208459D01*
X142512481Y-69206769D01*
X142461752Y-69175847D01*
X141622733Y-68336828D01*
X141612768Y-68324390D01*
X141612541Y-68324579D01*
X141607490Y-68318473D01*
X141607489Y-68318471D01*
X141557837Y-68271845D01*
X141554994Y-68269089D01*
X141535266Y-68249360D01*
X141535260Y-68249355D01*
X141532056Y-68246869D01*
X141523045Y-68239172D01*
X141490814Y-68208906D01*
X141490808Y-68208902D01*
X141473052Y-68199140D01*
X141456536Y-68188291D01*
X141440530Y-68175875D01*
X141399953Y-68158316D01*
X141389296Y-68153094D01*
X141350552Y-68131795D01*
X141350549Y-68131794D01*
X141330925Y-68126755D01*
X141312225Y-68120353D01*
X141293634Y-68112308D01*
X141293632Y-68112307D01*
X141293630Y-68112307D01*
X141249963Y-68105390D01*
X141238344Y-68102984D01*
X141195519Y-68091989D01*
X141175265Y-68091989D01*
X141155555Y-68090438D01*
X141135546Y-68087269D01*
X141091528Y-68091430D01*
X141079670Y-68091989D01*
X132498105Y-68091989D01*
X132429984Y-68071987D01*
X132383491Y-68018331D01*
X132373387Y-67948057D01*
X132402881Y-67883477D01*
X132409009Y-67876894D01*
X132478808Y-67807095D01*
X132559138Y-67726764D01*
X132621448Y-67692741D01*
X132692264Y-67697805D01*
X132694266Y-67698571D01*
X132698410Y-67700196D01*
X132698419Y-67700201D01*
X132698429Y-67700204D01*
X132953126Y-67778768D01*
X132953128Y-67778768D01*
X132953137Y-67778771D01*
X133216720Y-67818500D01*
X133216725Y-67818500D01*
X133483275Y-67818500D01*
X133483280Y-67818500D01*
X133746863Y-67778771D01*
X133874514Y-67739396D01*
X134001572Y-67700204D01*
X134001574Y-67700202D01*
X134001581Y-67700201D01*
X134001586Y-67700198D01*
X134001590Y-67700197D01*
X134241738Y-67584548D01*
X134241738Y-67584547D01*
X134241744Y-67584545D01*
X134461986Y-67434386D01*
X134657388Y-67253079D01*
X134823586Y-67044674D01*
X134956866Y-66813826D01*
X135054252Y-66565692D01*
X135113567Y-66305815D01*
X135133487Y-66040000D01*
X136646513Y-66040000D01*
X136666433Y-66305815D01*
X136666434Y-66305819D01*
X136725746Y-66565687D01*
X136823130Y-66813819D01*
X136823132Y-66813823D01*
X136956411Y-67044670D01*
X136956413Y-67044673D01*
X136956414Y-67044674D01*
X137122612Y-67253079D01*
X137318014Y-67434386D01*
X137318020Y-67434390D01*
X137538247Y-67584539D01*
X137538254Y-67584543D01*
X137538257Y-67584545D01*
X137618743Y-67623305D01*
X137778414Y-67700199D01*
X137778427Y-67700204D01*
X138033126Y-67778768D01*
X138033128Y-67778768D01*
X138033137Y-67778771D01*
X138296720Y-67818500D01*
X138296725Y-67818500D01*
X138563275Y-67818500D01*
X138563280Y-67818500D01*
X138826863Y-67778771D01*
X138954514Y-67739396D01*
X139081572Y-67700204D01*
X139081574Y-67700202D01*
X139081581Y-67700201D01*
X139081586Y-67700198D01*
X139081590Y-67700197D01*
X139321738Y-67584548D01*
X139321738Y-67584547D01*
X139321744Y-67584545D01*
X139541986Y-67434386D01*
X139737388Y-67253079D01*
X139903586Y-67044674D01*
X140036866Y-66813826D01*
X140134252Y-66565692D01*
X140193567Y-66305815D01*
X140213487Y-66040000D01*
X141726513Y-66040000D01*
X141746433Y-66305815D01*
X141746434Y-66305819D01*
X141805746Y-66565687D01*
X141903130Y-66813819D01*
X141903132Y-66813823D01*
X142036411Y-67044670D01*
X142036413Y-67044673D01*
X142036414Y-67044674D01*
X142202612Y-67253079D01*
X142398014Y-67434386D01*
X142398020Y-67434390D01*
X142618247Y-67584539D01*
X142618254Y-67584543D01*
X142618257Y-67584545D01*
X142698743Y-67623305D01*
X142858414Y-67700199D01*
X142858427Y-67700204D01*
X143113126Y-67778768D01*
X143113128Y-67778768D01*
X143113137Y-67778771D01*
X143376720Y-67818500D01*
X143376725Y-67818500D01*
X143643275Y-67818500D01*
X143643280Y-67818500D01*
X143906863Y-67778771D01*
X144034514Y-67739396D01*
X144161572Y-67700204D01*
X144161574Y-67700202D01*
X144161581Y-67700201D01*
X144161586Y-67700198D01*
X144161590Y-67700197D01*
X144401738Y-67584548D01*
X144401738Y-67584547D01*
X144401744Y-67584545D01*
X144621986Y-67434386D01*
X144817388Y-67253079D01*
X144983586Y-67044674D01*
X145116866Y-66813826D01*
X145214252Y-66565692D01*
X145273567Y-66305815D01*
X145293487Y-66040000D01*
X145273567Y-65774185D01*
X145214252Y-65514308D01*
X145164716Y-65388093D01*
X145116869Y-65266180D01*
X145116867Y-65266176D01*
X144983588Y-65035329D01*
X144971051Y-65019608D01*
X144817388Y-64826921D01*
X144621986Y-64645614D01*
X144587651Y-64622205D01*
X144525604Y-64579902D01*
X144401744Y-64495455D01*
X144401741Y-64495454D01*
X144401739Y-64495452D01*
X144401738Y-64495451D01*
X144161590Y-64379802D01*
X144161572Y-64379795D01*
X143906873Y-64301231D01*
X143906865Y-64301229D01*
X143906863Y-64301229D01*
X143643280Y-64261500D01*
X143376720Y-64261500D01*
X143113137Y-64301229D01*
X143113135Y-64301229D01*
X143113126Y-64301231D01*
X142858427Y-64379795D01*
X142858414Y-64379800D01*
X142618254Y-64495456D01*
X142618247Y-64495460D01*
X142398020Y-64645609D01*
X142398015Y-64645613D01*
X142398014Y-64645614D01*
X142202612Y-64826921D01*
X142184207Y-64850000D01*
X142036411Y-65035329D01*
X141903132Y-65266176D01*
X141903130Y-65266180D01*
X141805746Y-65514312D01*
X141761351Y-65708825D01*
X141746433Y-65774185D01*
X141726513Y-66040000D01*
X140213487Y-66040000D01*
X140193567Y-65774185D01*
X140134252Y-65514308D01*
X140084716Y-65388093D01*
X140036869Y-65266180D01*
X140036867Y-65266176D01*
X139903588Y-65035329D01*
X139891051Y-65019608D01*
X139737388Y-64826921D01*
X139541986Y-64645614D01*
X139507651Y-64622205D01*
X139445604Y-64579902D01*
X139321744Y-64495455D01*
X139321741Y-64495454D01*
X139321739Y-64495452D01*
X139321738Y-64495451D01*
X139081590Y-64379802D01*
X139081572Y-64379795D01*
X138826873Y-64301231D01*
X138826865Y-64301229D01*
X138826863Y-64301229D01*
X138563280Y-64261500D01*
X138296720Y-64261500D01*
X138033137Y-64301229D01*
X138033135Y-64301229D01*
X138033126Y-64301231D01*
X137778427Y-64379795D01*
X137778414Y-64379800D01*
X137538254Y-64495456D01*
X137538247Y-64495460D01*
X137318020Y-64645609D01*
X137318015Y-64645613D01*
X137318014Y-64645614D01*
X137122612Y-64826921D01*
X137104207Y-64850000D01*
X136956411Y-65035329D01*
X136823132Y-65266176D01*
X136823130Y-65266180D01*
X136725746Y-65514312D01*
X136681351Y-65708825D01*
X136666433Y-65774185D01*
X136646513Y-66040000D01*
X135133487Y-66040000D01*
X135113567Y-65774185D01*
X135054252Y-65514308D01*
X135004716Y-65388093D01*
X134956869Y-65266180D01*
X134956867Y-65266176D01*
X134823588Y-65035329D01*
X134811051Y-65019608D01*
X134657388Y-64826921D01*
X134461986Y-64645614D01*
X134427651Y-64622205D01*
X134365604Y-64579902D01*
X134241744Y-64495455D01*
X134241741Y-64495454D01*
X134241739Y-64495452D01*
X134241738Y-64495451D01*
X134001590Y-64379802D01*
X134001572Y-64379795D01*
X133746873Y-64301231D01*
X133746865Y-64301229D01*
X133746863Y-64301229D01*
X133483280Y-64261500D01*
X133216720Y-64261500D01*
X132953137Y-64301229D01*
X132953135Y-64301229D01*
X132953126Y-64301231D01*
X132698427Y-64379795D01*
X132698414Y-64379800D01*
X132458254Y-64495456D01*
X132458247Y-64495460D01*
X132238020Y-64645609D01*
X132238015Y-64645613D01*
X132238014Y-64645614D01*
X132042612Y-64826921D01*
X132024207Y-64850000D01*
X131876411Y-65035329D01*
X131743132Y-65266176D01*
X131743130Y-65266180D01*
X131645746Y-65514312D01*
X131601351Y-65708825D01*
X131586433Y-65774185D01*
X131566513Y-66040000D01*
X131586433Y-66305815D01*
X131586434Y-66305819D01*
X131645746Y-66565687D01*
X131695275Y-66691884D01*
X131701543Y-66762604D01*
X131668582Y-66825485D01*
X131667081Y-66827012D01*
X131466980Y-67027115D01*
X131404668Y-67061140D01*
X131377884Y-67064020D01*
X124134631Y-67064020D01*
X124066510Y-67044018D01*
X124020017Y-66990362D01*
X124009913Y-66920088D01*
X124019655Y-66886478D01*
X124082221Y-66746913D01*
X124152061Y-66492768D01*
X124182288Y-66230940D01*
X124172192Y-65967567D01*
X124146914Y-65837226D01*
X124122013Y-65708825D01*
X124116796Y-65694300D01*
X124032922Y-65460767D01*
X123907010Y-65229221D01*
X123747229Y-65019608D01*
X123747227Y-65019606D01*
X123747228Y-65019606D01*
X123557325Y-64836843D01*
X123557320Y-64836839D01*
X123341751Y-64685211D01*
X123341744Y-64685206D01*
X123171063Y-64600697D01*
X123105545Y-64568257D01*
X123105542Y-64568256D01*
X123105540Y-64568255D01*
X122854259Y-64488733D01*
X122593793Y-64448500D01*
X122593783Y-64448500D01*
X120812210Y-64448500D01*
X120812207Y-64448500D01*
X120615212Y-64463623D01*
X120358567Y-64523680D01*
X120114116Y-64622203D01*
X119887560Y-64756892D01*
X119684227Y-64924578D01*
X119684221Y-64924584D01*
X119508857Y-65121358D01*
X119365595Y-65342580D01*
X119349070Y-65379444D01*
X119302952Y-65433421D01*
X119234972Y-65453897D01*
X119166713Y-65434369D01*
X119123403Y-65388093D01*
X119037010Y-65229221D01*
X119027628Y-65216913D01*
X118877229Y-65019608D01*
X118877227Y-65019606D01*
X118877228Y-65019606D01*
X118687325Y-64836843D01*
X118687320Y-64836839D01*
X118471751Y-64685211D01*
X118471744Y-64685206D01*
X118301063Y-64600697D01*
X118235545Y-64568257D01*
X118235542Y-64568256D01*
X118235540Y-64568255D01*
X117984259Y-64488733D01*
X117723793Y-64448500D01*
X117723783Y-64448500D01*
X115942210Y-64448500D01*
X115942207Y-64448500D01*
X115745212Y-64463623D01*
X115488567Y-64523680D01*
X115244116Y-64622203D01*
X115017560Y-64756892D01*
X114814227Y-64924578D01*
X114814221Y-64924584D01*
X114638857Y-65121358D01*
X114495596Y-65342579D01*
X114387779Y-65583087D01*
X114387778Y-65583091D01*
X114317940Y-65837226D01*
X114317938Y-65837233D01*
X114287712Y-66099058D01*
X114287712Y-66099060D01*
X114297808Y-66362436D01*
X114347986Y-66621174D01*
X114437078Y-66869234D01*
X114441750Y-66877824D01*
X114456722Y-66947224D01*
X114431798Y-67013702D01*
X114374889Y-67056151D01*
X114331059Y-67064020D01*
X107090655Y-67064020D01*
X107022534Y-67044018D01*
X106976041Y-66990362D01*
X106965937Y-66920088D01*
X106981535Y-66875021D01*
X106984877Y-66869233D01*
X107016866Y-66813826D01*
X107114252Y-66565692D01*
X107173567Y-66305815D01*
X107193487Y-66040000D01*
X107173567Y-65774185D01*
X107114252Y-65514308D01*
X107087050Y-65445000D01*
X109176502Y-65445000D01*
X109196457Y-65673086D01*
X109255715Y-65894240D01*
X109255717Y-65894246D01*
X109352477Y-66101749D01*
X109395713Y-66163497D01*
X109483802Y-66289300D01*
X109645700Y-66451198D01*
X109833251Y-66582523D01*
X110040757Y-66679284D01*
X110261913Y-66738543D01*
X110490000Y-66758498D01*
X110718087Y-66738543D01*
X110939243Y-66679284D01*
X111146749Y-66582523D01*
X111334300Y-66451198D01*
X111496198Y-66289300D01*
X111627523Y-66101749D01*
X111724284Y-65894243D01*
X111783543Y-65673087D01*
X111803498Y-65445000D01*
X111783543Y-65216913D01*
X111724284Y-64995757D01*
X111627523Y-64788251D01*
X111496198Y-64600700D01*
X111334300Y-64438802D01*
X111146749Y-64307477D01*
X111133350Y-64301229D01*
X110939246Y-64210717D01*
X110939240Y-64210715D01*
X110845771Y-64185670D01*
X110718087Y-64151457D01*
X110490000Y-64131502D01*
X110261913Y-64151457D01*
X110040759Y-64210715D01*
X110040753Y-64210717D01*
X109833250Y-64307477D01*
X109645703Y-64438799D01*
X109645697Y-64438804D01*
X109483804Y-64600697D01*
X109483799Y-64600703D01*
X109352477Y-64788250D01*
X109255717Y-64995753D01*
X109255715Y-64995759D01*
X109196457Y-65216913D01*
X109176502Y-65445000D01*
X107087050Y-65445000D01*
X107064716Y-65388093D01*
X107016869Y-65266180D01*
X107016867Y-65266176D01*
X106883588Y-65035329D01*
X106871051Y-65019608D01*
X106717388Y-64826921D01*
X106521986Y-64645614D01*
X106487651Y-64622205D01*
X106425604Y-64579902D01*
X106301744Y-64495455D01*
X106301741Y-64495454D01*
X106301739Y-64495452D01*
X106301738Y-64495451D01*
X106061590Y-64379802D01*
X106061572Y-64379795D01*
X105806873Y-64301231D01*
X105806865Y-64301229D01*
X105806863Y-64301229D01*
X105543280Y-64261500D01*
X105276720Y-64261500D01*
X105013137Y-64301229D01*
X105013135Y-64301229D01*
X105013126Y-64301231D01*
X104758427Y-64379795D01*
X104758414Y-64379800D01*
X104518254Y-64495456D01*
X104518247Y-64495460D01*
X104298020Y-64645609D01*
X104298015Y-64645613D01*
X104298014Y-64645614D01*
X104102612Y-64826921D01*
X104084207Y-64850000D01*
X103936411Y-65035329D01*
X103803132Y-65266176D01*
X103803130Y-65266180D01*
X103705746Y-65514312D01*
X103661351Y-65708825D01*
X103646433Y-65774185D01*
X103626513Y-66040000D01*
X103646433Y-66305815D01*
X103646434Y-66305819D01*
X103705746Y-66565687D01*
X103803130Y-66813819D01*
X103838465Y-66875021D01*
X103855202Y-66944016D01*
X103831981Y-67011108D01*
X103776174Y-67054995D01*
X103729345Y-67064020D01*
X102010655Y-67064020D01*
X101942534Y-67044018D01*
X101896041Y-66990362D01*
X101885937Y-66920088D01*
X101901535Y-66875021D01*
X101904877Y-66869233D01*
X101936866Y-66813826D01*
X102034252Y-66565692D01*
X102093567Y-66305815D01*
X102113487Y-66040000D01*
X102093567Y-65774185D01*
X102034252Y-65514308D01*
X101984716Y-65388093D01*
X101936869Y-65266180D01*
X101936867Y-65266176D01*
X101803588Y-65035329D01*
X101791051Y-65019608D01*
X101637388Y-64826921D01*
X101441986Y-64645614D01*
X101407651Y-64622205D01*
X101345604Y-64579902D01*
X101221744Y-64495455D01*
X101221741Y-64495454D01*
X101221739Y-64495452D01*
X101221738Y-64495451D01*
X100981590Y-64379802D01*
X100981572Y-64379795D01*
X100726873Y-64301231D01*
X100726865Y-64301229D01*
X100726863Y-64301229D01*
X100463280Y-64261500D01*
X100196720Y-64261500D01*
X99933137Y-64301229D01*
X99933135Y-64301229D01*
X99933126Y-64301231D01*
X99678427Y-64379795D01*
X99678414Y-64379800D01*
X99438254Y-64495456D01*
X99438247Y-64495460D01*
X99218020Y-64645609D01*
X99218015Y-64645613D01*
X99218014Y-64645614D01*
X99022612Y-64826921D01*
X99004207Y-64850000D01*
X98856411Y-65035329D01*
X98723132Y-65266176D01*
X98723130Y-65266180D01*
X98625746Y-65514312D01*
X98581351Y-65708825D01*
X98566433Y-65774185D01*
X98546513Y-66040000D01*
X98566433Y-66305815D01*
X98566434Y-66305819D01*
X98625746Y-66565687D01*
X98723130Y-66813819D01*
X98758465Y-66875021D01*
X98775202Y-66944016D01*
X98751981Y-67011108D01*
X98696174Y-67054995D01*
X98649345Y-67064020D01*
X96930655Y-67064020D01*
X96862534Y-67044018D01*
X96816041Y-66990362D01*
X96805937Y-66920088D01*
X96821535Y-66875021D01*
X96824877Y-66869233D01*
X96856866Y-66813826D01*
X96954252Y-66565692D01*
X97013567Y-66305815D01*
X97033487Y-66040000D01*
X97013567Y-65774185D01*
X96954252Y-65514308D01*
X96904716Y-65388093D01*
X96856869Y-65266180D01*
X96856867Y-65266176D01*
X96723588Y-65035329D01*
X96711051Y-65019608D01*
X96557388Y-64826921D01*
X96361986Y-64645614D01*
X96327651Y-64622205D01*
X96265604Y-64579902D01*
X96141744Y-64495455D01*
X96141741Y-64495454D01*
X96141739Y-64495452D01*
X96141738Y-64495451D01*
X95901590Y-64379802D01*
X95901572Y-64379795D01*
X95646873Y-64301231D01*
X95646865Y-64301229D01*
X95646863Y-64301229D01*
X95383280Y-64261500D01*
X95116720Y-64261500D01*
X94853137Y-64301229D01*
X94853135Y-64301229D01*
X94853126Y-64301231D01*
X94598427Y-64379795D01*
X94598414Y-64379800D01*
X94358254Y-64495456D01*
X94358247Y-64495460D01*
X94138020Y-64645609D01*
X94138015Y-64645613D01*
X94138014Y-64645614D01*
X93942612Y-64826921D01*
X93924207Y-64850000D01*
X93776411Y-65035329D01*
X93643132Y-65266176D01*
X93643130Y-65266180D01*
X93545746Y-65514312D01*
X93501351Y-65708825D01*
X93486433Y-65774185D01*
X93466513Y-66040000D01*
X93486433Y-66305815D01*
X93486434Y-66305819D01*
X93545746Y-66565687D01*
X93643130Y-66813819D01*
X93643132Y-66813823D01*
X93776411Y-67044670D01*
X93776413Y-67044673D01*
X93776414Y-67044674D01*
X93942612Y-67253079D01*
X94138014Y-67434386D01*
X94138020Y-67434390D01*
X94358247Y-67584539D01*
X94358251Y-67584541D01*
X94358257Y-67584545D01*
X94438747Y-67623307D01*
X94491441Y-67670882D01*
X94510050Y-67739396D01*
X94488663Y-67807095D01*
X94473171Y-67825922D01*
X92956336Y-69342757D01*
X92943901Y-69352721D01*
X92944089Y-69352948D01*
X92937979Y-69358002D01*
X92891370Y-69407635D01*
X92888620Y-69410473D01*
X92868863Y-69430231D01*
X92866374Y-69433439D01*
X92858688Y-69442436D01*
X92828418Y-69474673D01*
X92828411Y-69474683D01*
X92818651Y-69492435D01*
X92807803Y-69508950D01*
X92795386Y-69524958D01*
X92777827Y-69565536D01*
X92772604Y-69576196D01*
X92751307Y-69614934D01*
X92751303Y-69614944D01*
X92746267Y-69634559D01*
X92739864Y-69653262D01*
X92731819Y-69671852D01*
X92724901Y-69715525D01*
X92722495Y-69727142D01*
X92711500Y-69769968D01*
X92711500Y-69790223D01*
X92709949Y-69809933D01*
X92706780Y-69829942D01*
X92710941Y-69873961D01*
X92711500Y-69885819D01*
X92711500Y-80561146D01*
X92709751Y-80576988D01*
X92710044Y-80577016D01*
X92709298Y-80584907D01*
X92709298Y-80584909D01*
X92710748Y-80631026D01*
X92711438Y-80652984D01*
X92711500Y-80656943D01*
X92711500Y-80684851D01*
X92711501Y-80684869D01*
X92712007Y-80688877D01*
X92712937Y-80700696D01*
X92714326Y-80744888D01*
X92714327Y-80744893D01*
X92719977Y-80764339D01*
X92723986Y-80783697D01*
X92726525Y-80803793D01*
X92726526Y-80803800D01*
X92742800Y-80844903D01*
X92746644Y-80856129D01*
X92758982Y-80898593D01*
X92769294Y-80916031D01*
X92777988Y-80933779D01*
X92785444Y-80952609D01*
X92785450Y-80952620D01*
X92811432Y-80988381D01*
X92817949Y-80998301D01*
X92840458Y-81036362D01*
X92840459Y-81036363D01*
X92840461Y-81036366D01*
X92854779Y-81050684D01*
X92867617Y-81065714D01*
X92879526Y-81082104D01*
X92879530Y-81082109D01*
X92913598Y-81110292D01*
X92922378Y-81118282D01*
X93940847Y-82136752D01*
X93974873Y-82199064D01*
X93973459Y-82258457D01*
X93956458Y-82321907D01*
X93956457Y-82321910D01*
X93956457Y-82321913D01*
X93936502Y-82550000D01*
X93956457Y-82778087D01*
X93973554Y-82841892D01*
X94015715Y-82999240D01*
X94015717Y-82999246D01*
X94030816Y-83031625D01*
X94112477Y-83206749D01*
X94243802Y-83394300D01*
X94405700Y-83556198D01*
X94593251Y-83687523D01*
X94800757Y-83784284D01*
X95021913Y-83843543D01*
X95250000Y-83863498D01*
X95478087Y-83843543D01*
X95699243Y-83784284D01*
X95906749Y-83687523D01*
X96094300Y-83556198D01*
X96256198Y-83394300D01*
X96387523Y-83206749D01*
X96484284Y-82999243D01*
X96543543Y-82778087D01*
X96563498Y-82550000D01*
X96543543Y-82321913D01*
X96484284Y-82100757D01*
X96387523Y-81893251D01*
X96256198Y-81705700D01*
X96094300Y-81543802D01*
X95906749Y-81412477D01*
X95906745Y-81412475D01*
X95699246Y-81315717D01*
X95699240Y-81315715D01*
X95584591Y-81284995D01*
X95478087Y-81256457D01*
X95250000Y-81236502D01*
X95021913Y-81256457D01*
X95021910Y-81256457D01*
X95021907Y-81256458D01*
X94958457Y-81273459D01*
X94887481Y-81271769D01*
X94836752Y-81240847D01*
X94015405Y-80419500D01*
X93981379Y-80357188D01*
X93978500Y-80330405D01*
X93978500Y-79639500D01*
X93998502Y-79571379D01*
X94052158Y-79524886D01*
X94104500Y-79513500D01*
X95563632Y-79513500D01*
X95563638Y-79513500D01*
X95563645Y-79513499D01*
X95563649Y-79513499D01*
X95624196Y-79506990D01*
X95624199Y-79506989D01*
X95624201Y-79506989D01*
X95761204Y-79455889D01*
X95780728Y-79441274D01*
X95878261Y-79368261D01*
X95965887Y-79251207D01*
X95965887Y-79251206D01*
X95965889Y-79251204D01*
X96016989Y-79114201D01*
X96017077Y-79113389D01*
X96023499Y-79053649D01*
X96023500Y-79053632D01*
X96023500Y-77156367D01*
X96023499Y-77156350D01*
X96016990Y-77095803D01*
X96016988Y-77095795D01*
X95972177Y-76975655D01*
X95965889Y-76958796D01*
X95965888Y-76958794D01*
X95965887Y-76958792D01*
X95878261Y-76841738D01*
X95761207Y-76754112D01*
X95761202Y-76754110D01*
X95624204Y-76703011D01*
X95624196Y-76703009D01*
X95563649Y-76696500D01*
X95563638Y-76696500D01*
X94104500Y-76696500D01*
X94036379Y-76676498D01*
X93989886Y-76622842D01*
X93978500Y-76570500D01*
X93978500Y-71932151D01*
X93998502Y-71864030D01*
X94052158Y-71817537D01*
X94122432Y-71807433D01*
X94145405Y-71812976D01*
X94268049Y-71855080D01*
X94498288Y-71893500D01*
X94498292Y-71893500D01*
X94731708Y-71893500D01*
X94731712Y-71893500D01*
X94961951Y-71855080D01*
X95182727Y-71779287D01*
X95388017Y-71668190D01*
X95572220Y-71524818D01*
X95600403Y-71494204D01*
X95730314Y-71353083D01*
X95835049Y-71192773D01*
X95857984Y-71157669D01*
X95951749Y-70943907D01*
X96009051Y-70717626D01*
X96028327Y-70485000D01*
X97011673Y-70485000D01*
X97029016Y-70694302D01*
X97030950Y-70717633D01*
X97088249Y-70943903D01*
X97088252Y-70943910D01*
X97182015Y-71157668D01*
X97309685Y-71353083D01*
X97467774Y-71524813D01*
X97467778Y-71524817D01*
X97510088Y-71557748D01*
X97651983Y-71668190D01*
X97857273Y-71779287D01*
X98078049Y-71855080D01*
X98308288Y-71893500D01*
X98308292Y-71893500D01*
X98541708Y-71893500D01*
X98541712Y-71893500D01*
X98771951Y-71855080D01*
X98992727Y-71779287D01*
X99198017Y-71668190D01*
X99382220Y-71524818D01*
X99410403Y-71494204D01*
X99540314Y-71353083D01*
X99645049Y-71192773D01*
X99667984Y-71157669D01*
X99761749Y-70943907D01*
X99819051Y-70717626D01*
X99838327Y-70485000D01*
X100821673Y-70485000D01*
X100839016Y-70694302D01*
X100840950Y-70717633D01*
X100898249Y-70943903D01*
X100898252Y-70943910D01*
X100992015Y-71157668D01*
X101119685Y-71353083D01*
X101277774Y-71524813D01*
X101277778Y-71524817D01*
X101320088Y-71557748D01*
X101461983Y-71668190D01*
X101667273Y-71779287D01*
X101888049Y-71855080D01*
X102118288Y-71893500D01*
X102118292Y-71893500D01*
X102351708Y-71893500D01*
X102351712Y-71893500D01*
X102581951Y-71855080D01*
X102802727Y-71779287D01*
X103008017Y-71668190D01*
X103192220Y-71524818D01*
X103220403Y-71494204D01*
X103350314Y-71353083D01*
X103455049Y-71192773D01*
X103477984Y-71157669D01*
X103571749Y-70943907D01*
X103629051Y-70717626D01*
X103648327Y-70485000D01*
X103629051Y-70252374D01*
X103599091Y-70134063D01*
X103571750Y-70026096D01*
X103571747Y-70026089D01*
X103558440Y-69995753D01*
X103477984Y-69812331D01*
X103447627Y-69765866D01*
X103350314Y-69616916D01*
X103192225Y-69445186D01*
X103192221Y-69445182D01*
X103080209Y-69358000D01*
X103008017Y-69301810D01*
X102802727Y-69190713D01*
X102802724Y-69190712D01*
X102802723Y-69190711D01*
X102581955Y-69114921D01*
X102581948Y-69114919D01*
X102483411Y-69098476D01*
X102351712Y-69076500D01*
X102118288Y-69076500D01*
X102003066Y-69095727D01*
X101888051Y-69114919D01*
X101888044Y-69114921D01*
X101667276Y-69190711D01*
X101667273Y-69190713D01*
X101523988Y-69268255D01*
X101461985Y-69301809D01*
X101461983Y-69301810D01*
X101277778Y-69445182D01*
X101277774Y-69445186D01*
X101119685Y-69616916D01*
X100992015Y-69812331D01*
X100898252Y-70026089D01*
X100898249Y-70026096D01*
X100840950Y-70252366D01*
X100840949Y-70252372D01*
X100840949Y-70252374D01*
X100821673Y-70485000D01*
X99838327Y-70485000D01*
X99819051Y-70252374D01*
X99789091Y-70134063D01*
X99761750Y-70026096D01*
X99761747Y-70026089D01*
X99748440Y-69995753D01*
X99667984Y-69812331D01*
X99637627Y-69765866D01*
X99540314Y-69616916D01*
X99382225Y-69445186D01*
X99382221Y-69445182D01*
X99270209Y-69358000D01*
X99198017Y-69301810D01*
X98992727Y-69190713D01*
X98992724Y-69190712D01*
X98992723Y-69190711D01*
X98771955Y-69114921D01*
X98771948Y-69114919D01*
X98673411Y-69098476D01*
X98541712Y-69076500D01*
X98308288Y-69076500D01*
X98193066Y-69095727D01*
X98078051Y-69114919D01*
X98078044Y-69114921D01*
X97857276Y-69190711D01*
X97857273Y-69190713D01*
X97713988Y-69268255D01*
X97651985Y-69301809D01*
X97651983Y-69301810D01*
X97467778Y-69445182D01*
X97467774Y-69445186D01*
X97309685Y-69616916D01*
X97182015Y-69812331D01*
X97088252Y-70026089D01*
X97088249Y-70026096D01*
X97030950Y-70252366D01*
X97030949Y-70252372D01*
X97030949Y-70252374D01*
X97011673Y-70485000D01*
X96028327Y-70485000D01*
X96009051Y-70252374D01*
X95979091Y-70134063D01*
X95951750Y-70026096D01*
X95951747Y-70026089D01*
X95938440Y-69995753D01*
X95857984Y-69812331D01*
X95827627Y-69765866D01*
X95730314Y-69616916D01*
X95572225Y-69445186D01*
X95572221Y-69445182D01*
X95460209Y-69358000D01*
X95388017Y-69301810D01*
X95182727Y-69190713D01*
X95182723Y-69190711D01*
X95182720Y-69190710D01*
X95163306Y-69184045D01*
X95105372Y-69143008D01*
X95078821Y-69077163D01*
X95092083Y-69007416D01*
X95115121Y-68975781D01*
X95722980Y-68367924D01*
X95785292Y-68333899D01*
X95812075Y-68331020D01*
X120044575Y-68331020D01*
X120112696Y-68351022D01*
X120159189Y-68404678D01*
X120169293Y-68474952D01*
X120139799Y-68539532D01*
X120133674Y-68546111D01*
X119283890Y-69395894D01*
X119006902Y-69672882D01*
X118944590Y-69706907D01*
X118873774Y-69701842D01*
X118830434Y-69674572D01*
X118687325Y-69536843D01*
X118687320Y-69536839D01*
X118471751Y-69385211D01*
X118471744Y-69385206D01*
X118314756Y-69307477D01*
X118235545Y-69268257D01*
X118235542Y-69268256D01*
X118235540Y-69268255D01*
X117984259Y-69188733D01*
X117723793Y-69148500D01*
X117723783Y-69148500D01*
X115942210Y-69148500D01*
X115942207Y-69148500D01*
X115745212Y-69163623D01*
X115488567Y-69223680D01*
X115244116Y-69322203D01*
X115017560Y-69456892D01*
X114814227Y-69624578D01*
X114814221Y-69624584D01*
X114638857Y-69821358D01*
X114495596Y-70042579D01*
X114387779Y-70283087D01*
X114387778Y-70283091D01*
X114317940Y-70537226D01*
X114317938Y-70537233D01*
X114287712Y-70799058D01*
X114287712Y-70799060D01*
X114297808Y-71062436D01*
X114347986Y-71321174D01*
X114437078Y-71569234D01*
X114437082Y-71569241D01*
X114562987Y-71800774D01*
X114562990Y-71800779D01*
X114671543Y-71943187D01*
X114696931Y-72009486D01*
X114682444Y-72078989D01*
X114660430Y-72108664D01*
X113276336Y-73492757D01*
X113263901Y-73502721D01*
X113264089Y-73502948D01*
X113257979Y-73508002D01*
X113211370Y-73557635D01*
X113208620Y-73560473D01*
X113188863Y-73580231D01*
X113186374Y-73583439D01*
X113178688Y-73592436D01*
X113148418Y-73624673D01*
X113148411Y-73624683D01*
X113138651Y-73642435D01*
X113127803Y-73658950D01*
X113115386Y-73674958D01*
X113097824Y-73715540D01*
X113092604Y-73726195D01*
X113071305Y-73764939D01*
X113071303Y-73764944D01*
X113066267Y-73784559D01*
X113059864Y-73803262D01*
X113051819Y-73821852D01*
X113044901Y-73865525D01*
X113042495Y-73877142D01*
X113031500Y-73919968D01*
X113031500Y-73940223D01*
X113029949Y-73959933D01*
X113026780Y-73979942D01*
X113030941Y-74023961D01*
X113031500Y-74035819D01*
X113031500Y-78790606D01*
X113011498Y-78858727D01*
X112977771Y-78893819D01*
X112820703Y-79003799D01*
X112820697Y-79003804D01*
X112658804Y-79165697D01*
X112658799Y-79165703D01*
X112622713Y-79217240D01*
X112567256Y-79261568D01*
X112496636Y-79268877D01*
X112433276Y-79236846D01*
X112397291Y-79175645D01*
X112393500Y-79144969D01*
X112393500Y-78188854D01*
X112395249Y-78173012D01*
X112394956Y-78172985D01*
X112395700Y-78165099D01*
X112395702Y-78165092D01*
X112393562Y-78097000D01*
X112393500Y-78093042D01*
X112393500Y-78065150D01*
X112393500Y-78065144D01*
X112392993Y-78061135D01*
X112392062Y-78049306D01*
X112390674Y-78005111D01*
X112385020Y-77985652D01*
X112381012Y-77966297D01*
X112378474Y-77946203D01*
X112362195Y-77905087D01*
X112358356Y-77893872D01*
X112346019Y-77851407D01*
X112335703Y-77833964D01*
X112327005Y-77816209D01*
X112319552Y-77797383D01*
X112293563Y-77761612D01*
X112287052Y-77751700D01*
X112264542Y-77713638D01*
X112250214Y-77699310D01*
X112237384Y-77684289D01*
X112225472Y-77667893D01*
X112225469Y-77667891D01*
X112225469Y-77667890D01*
X112191394Y-77639700D01*
X112182616Y-77631712D01*
X107575905Y-73025000D01*
X109176502Y-73025000D01*
X109196457Y-73253087D01*
X109230670Y-73380771D01*
X109255715Y-73474240D01*
X109255717Y-73474246D01*
X109352477Y-73681749D01*
X109450580Y-73821855D01*
X109483802Y-73869300D01*
X109645700Y-74031198D01*
X109833251Y-74162523D01*
X110040757Y-74259284D01*
X110261913Y-74318543D01*
X110490000Y-74338498D01*
X110718087Y-74318543D01*
X110939243Y-74259284D01*
X111146749Y-74162523D01*
X111334300Y-74031198D01*
X111496198Y-73869300D01*
X111627523Y-73681749D01*
X111724284Y-73474243D01*
X111783543Y-73253087D01*
X111803498Y-73025000D01*
X111783543Y-72796913D01*
X111724284Y-72575757D01*
X111627523Y-72368251D01*
X111496198Y-72180700D01*
X111334300Y-72018802D01*
X111334296Y-72018799D01*
X111146747Y-71887475D01*
X111064653Y-71849195D01*
X111011367Y-71802278D01*
X110991906Y-71734001D01*
X111012448Y-71666041D01*
X111064653Y-71620805D01*
X111146747Y-71582524D01*
X111146747Y-71582523D01*
X111146749Y-71582523D01*
X111334300Y-71451198D01*
X111496198Y-71289300D01*
X111627523Y-71101749D01*
X111724284Y-70894243D01*
X111783543Y-70673087D01*
X111803498Y-70445000D01*
X111783543Y-70216913D01*
X111724284Y-69995757D01*
X111627523Y-69788251D01*
X111496198Y-69600700D01*
X111334300Y-69438802D01*
X111322059Y-69430231D01*
X111146749Y-69307477D01*
X110939246Y-69210717D01*
X110939240Y-69210715D01*
X110763498Y-69163625D01*
X110718087Y-69151457D01*
X110490000Y-69131502D01*
X110261913Y-69151457D01*
X110040759Y-69210715D01*
X110040753Y-69210717D01*
X109833250Y-69307477D01*
X109645703Y-69438799D01*
X109645697Y-69438804D01*
X109483804Y-69600697D01*
X109483799Y-69600703D01*
X109352477Y-69788250D01*
X109255717Y-69995753D01*
X109255715Y-69995759D01*
X109196457Y-70216913D01*
X109176502Y-70445000D01*
X109196457Y-70673086D01*
X109255715Y-70894240D01*
X109255717Y-70894246D01*
X109352477Y-71101749D01*
X109395713Y-71163497D01*
X109483802Y-71289300D01*
X109645700Y-71451198D01*
X109833251Y-71582523D01*
X109888559Y-71608313D01*
X109915347Y-71620805D01*
X109968632Y-71667722D01*
X109988093Y-71736000D01*
X109967551Y-71803960D01*
X109915347Y-71849195D01*
X109833250Y-71887477D01*
X109645703Y-72018799D01*
X109645697Y-72018804D01*
X109483804Y-72180697D01*
X109483799Y-72180703D01*
X109352477Y-72368250D01*
X109255717Y-72575753D01*
X109255715Y-72575759D01*
X109213480Y-72733381D01*
X109196457Y-72796913D01*
X109176502Y-73025000D01*
X107575905Y-73025000D01*
X106715405Y-72164500D01*
X106681379Y-72102188D01*
X106678500Y-72075405D01*
X106678500Y-72019500D01*
X106698502Y-71951379D01*
X106752158Y-71904886D01*
X106804500Y-71893500D01*
X106993632Y-71893500D01*
X106993638Y-71893500D01*
X106993645Y-71893499D01*
X106993649Y-71893499D01*
X107054196Y-71886990D01*
X107054199Y-71886989D01*
X107054201Y-71886989D01*
X107191204Y-71835889D01*
X107215720Y-71817537D01*
X107308261Y-71748261D01*
X107395887Y-71631207D01*
X107395887Y-71631206D01*
X107395889Y-71631204D01*
X107446989Y-71494201D01*
X107447313Y-71491195D01*
X107453499Y-71433649D01*
X107453500Y-71433632D01*
X107453500Y-69536367D01*
X107453499Y-69536350D01*
X107446990Y-69475803D01*
X107446988Y-69475795D01*
X107417186Y-69395894D01*
X107395889Y-69338796D01*
X107395888Y-69338794D01*
X107395887Y-69338792D01*
X107308261Y-69221738D01*
X107191207Y-69134112D01*
X107191202Y-69134110D01*
X107054204Y-69083011D01*
X107054196Y-69083009D01*
X106993649Y-69076500D01*
X106993638Y-69076500D01*
X105096362Y-69076500D01*
X105096350Y-69076500D01*
X105035803Y-69083009D01*
X105035795Y-69083011D01*
X104898797Y-69134110D01*
X104898792Y-69134112D01*
X104781738Y-69221738D01*
X104694112Y-69338792D01*
X104694110Y-69338797D01*
X104643011Y-69475795D01*
X104643009Y-69475803D01*
X104636500Y-69536350D01*
X104636500Y-71433649D01*
X104643009Y-71494196D01*
X104643011Y-71494204D01*
X104694110Y-71631202D01*
X104694112Y-71631207D01*
X104781738Y-71748261D01*
X104898792Y-71835887D01*
X104898794Y-71835888D01*
X104898796Y-71835889D01*
X104950243Y-71855078D01*
X105035795Y-71886988D01*
X105035803Y-71886990D01*
X105096350Y-71893499D01*
X105096355Y-71893499D01*
X105096362Y-71893500D01*
X105285500Y-71893500D01*
X105353621Y-71913502D01*
X105400114Y-71967158D01*
X105411500Y-72019500D01*
X105411500Y-72306146D01*
X105409751Y-72321988D01*
X105410044Y-72322016D01*
X105409298Y-72329907D01*
X105411438Y-72397984D01*
X105411500Y-72401943D01*
X105411500Y-72429851D01*
X105411501Y-72429869D01*
X105412007Y-72433877D01*
X105412937Y-72445696D01*
X105414326Y-72489888D01*
X105414327Y-72489893D01*
X105419977Y-72509339D01*
X105423986Y-72528697D01*
X105426525Y-72548793D01*
X105426526Y-72548800D01*
X105442800Y-72589903D01*
X105446644Y-72601129D01*
X105458982Y-72643593D01*
X105469294Y-72661031D01*
X105477988Y-72678779D01*
X105485444Y-72697609D01*
X105485450Y-72697620D01*
X105511432Y-72733381D01*
X105517949Y-72743301D01*
X105540458Y-72781362D01*
X105540459Y-72781363D01*
X105540461Y-72781366D01*
X105554779Y-72795684D01*
X105567617Y-72810714D01*
X105577156Y-72823843D01*
X105577786Y-72824710D01*
X105579526Y-72827104D01*
X105579530Y-72827109D01*
X105613598Y-72855292D01*
X105622378Y-72863282D01*
X111089595Y-78330499D01*
X111123621Y-78392811D01*
X111126500Y-78419594D01*
X111126500Y-81840254D01*
X111106498Y-81908375D01*
X111052842Y-81954868D01*
X110982568Y-81964972D01*
X110947255Y-81954451D01*
X110939252Y-81950719D01*
X110939240Y-81950715D01*
X110845771Y-81925670D01*
X110718087Y-81891457D01*
X110490000Y-81871502D01*
X110261913Y-81891457D01*
X110040759Y-81950715D01*
X110040753Y-81950717D01*
X109833250Y-82047477D01*
X109645703Y-82178799D01*
X109645697Y-82178804D01*
X109483804Y-82340697D01*
X109483799Y-82340703D01*
X109352477Y-82528250D01*
X109255717Y-82735753D01*
X109255715Y-82735759D01*
X109209440Y-82908461D01*
X109196457Y-82956913D01*
X109176502Y-83185000D01*
X109196457Y-83413087D01*
X109200341Y-83427581D01*
X109255715Y-83634240D01*
X109255717Y-83634245D01*
X109259449Y-83642248D01*
X109270111Y-83712440D01*
X109241132Y-83777253D01*
X109181713Y-83816110D01*
X109145255Y-83821500D01*
X106275031Y-83821500D01*
X106206910Y-83801498D01*
X106160417Y-83747842D01*
X106150313Y-83677568D01*
X106179807Y-83612988D01*
X106202760Y-83592287D01*
X106213064Y-83585071D01*
X106254300Y-83556198D01*
X106416198Y-83394300D01*
X106547523Y-83206749D01*
X106644284Y-82999243D01*
X106703543Y-82778087D01*
X106723498Y-82550000D01*
X106703543Y-82321913D01*
X106644284Y-82100757D01*
X106547523Y-81893251D01*
X106416198Y-81705700D01*
X106254300Y-81543802D01*
X106066749Y-81412477D01*
X106066745Y-81412475D01*
X105859246Y-81315717D01*
X105859240Y-81315715D01*
X105744591Y-81284995D01*
X105638087Y-81256457D01*
X105410000Y-81236502D01*
X105181913Y-81256457D01*
X104960759Y-81315715D01*
X104960753Y-81315717D01*
X104753250Y-81412477D01*
X104565703Y-81543799D01*
X104565697Y-81543804D01*
X104403804Y-81705697D01*
X104403799Y-81705703D01*
X104272477Y-81893250D01*
X104175717Y-82100753D01*
X104175715Y-82100759D01*
X104133460Y-82258457D01*
X104116457Y-82321913D01*
X104096502Y-82550000D01*
X104116457Y-82778087D01*
X104133554Y-82841892D01*
X104175715Y-82999240D01*
X104175717Y-82999246D01*
X104190816Y-83031625D01*
X104272477Y-83206749D01*
X104403802Y-83394300D01*
X104565700Y-83556198D01*
X104565703Y-83556200D01*
X104617240Y-83592287D01*
X104661568Y-83647744D01*
X104668877Y-83718364D01*
X104636846Y-83781724D01*
X104575645Y-83817709D01*
X104544969Y-83821500D01*
X103819594Y-83821500D01*
X103751473Y-83801498D01*
X103730499Y-83784595D01*
X99577142Y-79631237D01*
X99543116Y-79568925D01*
X99548181Y-79498109D01*
X99590728Y-79441274D01*
X99688261Y-79368261D01*
X99775887Y-79251207D01*
X99775887Y-79251206D01*
X99775889Y-79251204D01*
X99826989Y-79114201D01*
X99827077Y-79113389D01*
X99833499Y-79053649D01*
X100826500Y-79053649D01*
X100833009Y-79114196D01*
X100833011Y-79114204D01*
X100884110Y-79251202D01*
X100884112Y-79251207D01*
X100971738Y-79368261D01*
X101088792Y-79455887D01*
X101088794Y-79455888D01*
X101088796Y-79455889D01*
X101134133Y-79472799D01*
X101225795Y-79506988D01*
X101225803Y-79506990D01*
X101286350Y-79513499D01*
X101286355Y-79513499D01*
X101286362Y-79513500D01*
X101286368Y-79513500D01*
X103183632Y-79513500D01*
X103183638Y-79513500D01*
X103183645Y-79513499D01*
X103183649Y-79513499D01*
X103244196Y-79506990D01*
X103244199Y-79506989D01*
X103244201Y-79506989D01*
X103381204Y-79455889D01*
X103400728Y-79441274D01*
X103498261Y-79368261D01*
X103585887Y-79251207D01*
X103585887Y-79251206D01*
X103585889Y-79251204D01*
X103636989Y-79114201D01*
X103637077Y-79113389D01*
X103643499Y-79053649D01*
X103643500Y-79053632D01*
X103643500Y-78105000D01*
X104631673Y-78105000D01*
X104650358Y-78330499D01*
X104650950Y-78337633D01*
X104708249Y-78563903D01*
X104708252Y-78563910D01*
X104802015Y-78777668D01*
X104929685Y-78973083D01*
X105087774Y-79144813D01*
X105087778Y-79144817D01*
X105127386Y-79175645D01*
X105271983Y-79288190D01*
X105477273Y-79399287D01*
X105698049Y-79475080D01*
X105928288Y-79513500D01*
X105928292Y-79513500D01*
X106161708Y-79513500D01*
X106161712Y-79513500D01*
X106391951Y-79475080D01*
X106612727Y-79399287D01*
X106818017Y-79288190D01*
X107002220Y-79144818D01*
X107030403Y-79114204D01*
X107160314Y-78973083D01*
X107202113Y-78909105D01*
X107287984Y-78777669D01*
X107381749Y-78563907D01*
X107439051Y-78337626D01*
X107458327Y-78105000D01*
X107439051Y-77872374D01*
X107398854Y-77713638D01*
X107381750Y-77646096D01*
X107381747Y-77646089D01*
X107323931Y-77514283D01*
X107287984Y-77432331D01*
X107160314Y-77236916D01*
X107002225Y-77065186D01*
X107002221Y-77065182D01*
X106902374Y-76987468D01*
X106818017Y-76921810D01*
X106612727Y-76810713D01*
X106612724Y-76810712D01*
X106612723Y-76810711D01*
X106391955Y-76734921D01*
X106391948Y-76734919D01*
X106293411Y-76718476D01*
X106161712Y-76696500D01*
X105928288Y-76696500D01*
X105813066Y-76715727D01*
X105698051Y-76734919D01*
X105698044Y-76734921D01*
X105477276Y-76810711D01*
X105477273Y-76810713D01*
X105271985Y-76921809D01*
X105271983Y-76921810D01*
X105087778Y-77065182D01*
X105087774Y-77065186D01*
X104929685Y-77236916D01*
X104802015Y-77432331D01*
X104708252Y-77646089D01*
X104708249Y-77646096D01*
X104650950Y-77872366D01*
X104650949Y-77872372D01*
X104650949Y-77872374D01*
X104631673Y-78105000D01*
X103643500Y-78105000D01*
X103643500Y-77156367D01*
X103643499Y-77156350D01*
X103636990Y-77095803D01*
X103636988Y-77095795D01*
X103592177Y-76975655D01*
X103585889Y-76958796D01*
X103585888Y-76958794D01*
X103585887Y-76958792D01*
X103498261Y-76841738D01*
X103381207Y-76754112D01*
X103381202Y-76754110D01*
X103244204Y-76703011D01*
X103244196Y-76703009D01*
X103183649Y-76696500D01*
X103183638Y-76696500D01*
X101286362Y-76696500D01*
X101286350Y-76696500D01*
X101225803Y-76703009D01*
X101225795Y-76703011D01*
X101088797Y-76754110D01*
X101088792Y-76754112D01*
X100971738Y-76841738D01*
X100884112Y-76958792D01*
X100884110Y-76958797D01*
X100833011Y-77095795D01*
X100833009Y-77095803D01*
X100826500Y-77156350D01*
X100826500Y-79053649D01*
X99833499Y-79053649D01*
X99833500Y-79053632D01*
X99833500Y-77156367D01*
X99833499Y-77156350D01*
X99826990Y-77095803D01*
X99826988Y-77095795D01*
X99782177Y-76975655D01*
X99775889Y-76958796D01*
X99775888Y-76958794D01*
X99775887Y-76958792D01*
X99688261Y-76841738D01*
X99571207Y-76754112D01*
X99571202Y-76754110D01*
X99434204Y-76703011D01*
X99434196Y-76703009D01*
X99373649Y-76696500D01*
X99373638Y-76696500D01*
X97476362Y-76696500D01*
X97476350Y-76696500D01*
X97415803Y-76703009D01*
X97415795Y-76703011D01*
X97278797Y-76754110D01*
X97278792Y-76754112D01*
X97161738Y-76841738D01*
X97074112Y-76958792D01*
X97074110Y-76958797D01*
X97023011Y-77095795D01*
X97023009Y-77095803D01*
X97016500Y-77156350D01*
X97016500Y-79053649D01*
X97023009Y-79114196D01*
X97023011Y-79114204D01*
X97074110Y-79251202D01*
X97074112Y-79251207D01*
X97161738Y-79368261D01*
X97278792Y-79455887D01*
X97278794Y-79455888D01*
X97278796Y-79455889D01*
X97324133Y-79472799D01*
X97415795Y-79506988D01*
X97415803Y-79506990D01*
X97476350Y-79513499D01*
X97476355Y-79513499D01*
X97476362Y-79513500D01*
X97710941Y-79513500D01*
X97779062Y-79533502D01*
X97825555Y-79587158D01*
X97831935Y-79604338D01*
X97838982Y-79628593D01*
X97838983Y-79628595D01*
X97849294Y-79646031D01*
X97857988Y-79663779D01*
X97865444Y-79682609D01*
X97865450Y-79682620D01*
X97891432Y-79718381D01*
X97897949Y-79728301D01*
X97920458Y-79766362D01*
X97920459Y-79766363D01*
X97920461Y-79766366D01*
X97934779Y-79780684D01*
X97947617Y-79795714D01*
X97959526Y-79812104D01*
X97959530Y-79812109D01*
X97993598Y-79840292D01*
X98002378Y-79848282D01*
X102997755Y-84843660D01*
X103007720Y-84856097D01*
X103007947Y-84855910D01*
X103012999Y-84862017D01*
X103062649Y-84908641D01*
X103065493Y-84911398D01*
X103085223Y-84931129D01*
X103085224Y-84931130D01*
X103085228Y-84931133D01*
X103085230Y-84931135D01*
X103088435Y-84933621D01*
X103097442Y-84941314D01*
X103129679Y-84971586D01*
X103147428Y-84981343D01*
X103163953Y-84992198D01*
X103179959Y-85004614D01*
X103220542Y-85022175D01*
X103231193Y-85027393D01*
X103269940Y-85048695D01*
X103269948Y-85048697D01*
X103289558Y-85053732D01*
X103308267Y-85060137D01*
X103326855Y-85068181D01*
X103370530Y-85075098D01*
X103382141Y-85077502D01*
X103424970Y-85088500D01*
X103445224Y-85088500D01*
X103464934Y-85090051D01*
X103467141Y-85090400D01*
X103484943Y-85093220D01*
X103528961Y-85089058D01*
X103540819Y-85088500D01*
X109540406Y-85088500D01*
X109608527Y-85108502D01*
X109629501Y-85125405D01*
X110651342Y-86147246D01*
X110685368Y-86209558D01*
X110680303Y-86280373D01*
X110637756Y-86337209D01*
X110571236Y-86362020D01*
X110551266Y-86361862D01*
X110490000Y-86356502D01*
X110261913Y-86376457D01*
X110261910Y-86376457D01*
X110261907Y-86376458D01*
X110198457Y-86393459D01*
X110127481Y-86391769D01*
X110076752Y-86360847D01*
X109687244Y-85971339D01*
X109677279Y-85958901D01*
X109677052Y-85959090D01*
X109672001Y-85952984D01*
X109672000Y-85952982D01*
X109622347Y-85906355D01*
X109619504Y-85903599D01*
X109599777Y-85883871D01*
X109599771Y-85883866D01*
X109596567Y-85881380D01*
X109587556Y-85873683D01*
X109555325Y-85843417D01*
X109555319Y-85843413D01*
X109537563Y-85833651D01*
X109521047Y-85822802D01*
X109505041Y-85810386D01*
X109472691Y-85796387D01*
X109464464Y-85792827D01*
X109453807Y-85787605D01*
X109415063Y-85766306D01*
X109415060Y-85766305D01*
X109395436Y-85761266D01*
X109376736Y-85754864D01*
X109358145Y-85746819D01*
X109358143Y-85746818D01*
X109358141Y-85746818D01*
X109314474Y-85739901D01*
X109302855Y-85737495D01*
X109260030Y-85726500D01*
X109239776Y-85726500D01*
X109220066Y-85724949D01*
X109200057Y-85721780D01*
X109156039Y-85725941D01*
X109144181Y-85726500D01*
X99143853Y-85726500D01*
X99128011Y-85724750D01*
X99127984Y-85725044D01*
X99120092Y-85724298D01*
X99120091Y-85724298D01*
X99099382Y-85724949D01*
X99052014Y-85726438D01*
X99048055Y-85726500D01*
X99020144Y-85726500D01*
X99020141Y-85726500D01*
X99020126Y-85726501D01*
X99016121Y-85727007D01*
X99004304Y-85727937D01*
X98960112Y-85729326D01*
X98960110Y-85729327D01*
X98940655Y-85734978D01*
X98921302Y-85738986D01*
X98901210Y-85741524D01*
X98901203Y-85741526D01*
X98860096Y-85757801D01*
X98848871Y-85761644D01*
X98818212Y-85770552D01*
X98806407Y-85773982D01*
X98806405Y-85773982D01*
X98806402Y-85773984D01*
X98788963Y-85784297D01*
X98771218Y-85792990D01*
X98752379Y-85800449D01*
X98716627Y-85826426D01*
X98706704Y-85832944D01*
X98668640Y-85855454D01*
X98654307Y-85869787D01*
X98639281Y-85882620D01*
X98622895Y-85894525D01*
X98594711Y-85928593D01*
X98586723Y-85937370D01*
X97401336Y-87122757D01*
X97388901Y-87132721D01*
X97389089Y-87132948D01*
X97382979Y-87138002D01*
X97336370Y-87187635D01*
X97333620Y-87190473D01*
X97313863Y-87210231D01*
X97311374Y-87213439D01*
X97303688Y-87222436D01*
X97273418Y-87254673D01*
X97273411Y-87254683D01*
X97263651Y-87272435D01*
X97252803Y-87288950D01*
X97240386Y-87304958D01*
X97222824Y-87345540D01*
X97217604Y-87356195D01*
X97196305Y-87394939D01*
X97196303Y-87394944D01*
X97191267Y-87414559D01*
X97184864Y-87433262D01*
X97176819Y-87451852D01*
X97169901Y-87495525D01*
X97167495Y-87507142D01*
X97156500Y-87549968D01*
X97156500Y-87570223D01*
X97154948Y-87589940D01*
X97152862Y-87603106D01*
X97122446Y-87667258D01*
X97062176Y-87704781D01*
X96991187Y-87703764D01*
X96932017Y-87664528D01*
X96911124Y-87629421D01*
X96908148Y-87621839D01*
X96879942Y-87549970D01*
X96856871Y-87491184D01*
X96856867Y-87491176D01*
X96855112Y-87488137D01*
X96751503Y-87308679D01*
X96723588Y-87260329D01*
X96723586Y-87260326D01*
X96557388Y-87051921D01*
X96361986Y-86870614D01*
X96320382Y-86842249D01*
X96210039Y-86767018D01*
X96141744Y-86720455D01*
X96141741Y-86720454D01*
X96141739Y-86720452D01*
X96141738Y-86720451D01*
X95901590Y-86604802D01*
X95901572Y-86604795D01*
X95646873Y-86526231D01*
X95646865Y-86526229D01*
X95646863Y-86526229D01*
X95383280Y-86486500D01*
X95116720Y-86486500D01*
X94853137Y-86526229D01*
X94853135Y-86526229D01*
X94853126Y-86526231D01*
X94598427Y-86604795D01*
X94598414Y-86604800D01*
X94358254Y-86720456D01*
X94358247Y-86720460D01*
X94138020Y-86870609D01*
X94138015Y-86870613D01*
X93942613Y-87051920D01*
X93776411Y-87260329D01*
X93643132Y-87491176D01*
X93643130Y-87491180D01*
X93545746Y-87739312D01*
X93507621Y-87906352D01*
X93486433Y-87999185D01*
X93466513Y-88265000D01*
X93486433Y-88530815D01*
X93486434Y-88530819D01*
X93545746Y-88790687D01*
X93643130Y-89038819D01*
X93643132Y-89038823D01*
X93776411Y-89269670D01*
X93776413Y-89269673D01*
X93776414Y-89269674D01*
X93942612Y-89478079D01*
X94138014Y-89659386D01*
X94138020Y-89659390D01*
X94358247Y-89809539D01*
X94358254Y-89809543D01*
X94358257Y-89809545D01*
X94496711Y-89876221D01*
X94598414Y-89925199D01*
X94598427Y-89925204D01*
X94853126Y-90003768D01*
X94853128Y-90003768D01*
X94853137Y-90003771D01*
X95116720Y-90043500D01*
X95116725Y-90043500D01*
X95383275Y-90043500D01*
X95383280Y-90043500D01*
X95646863Y-90003771D01*
X95679681Y-89993648D01*
X95901572Y-89925204D01*
X95901574Y-89925202D01*
X95901581Y-89925201D01*
X95901586Y-89925198D01*
X95901590Y-89925197D01*
X96141738Y-89809548D01*
X96141738Y-89809547D01*
X96141744Y-89809545D01*
X96361986Y-89659386D01*
X96557388Y-89478079D01*
X96723586Y-89269674D01*
X96856866Y-89038826D01*
X96913210Y-88895263D01*
X96956716Y-88839160D01*
X97023649Y-88815483D01*
X97092756Y-88831752D01*
X97142098Y-88882800D01*
X97156500Y-88941297D01*
X97156500Y-94935404D01*
X97136498Y-95003525D01*
X97119595Y-95024499D01*
X94393246Y-97750847D01*
X94330934Y-97784873D01*
X94271540Y-97783459D01*
X94208090Y-97766457D01*
X93980000Y-97746502D01*
X93751913Y-97766457D01*
X93530759Y-97825715D01*
X93530753Y-97825717D01*
X93323250Y-97922477D01*
X93135703Y-98053799D01*
X93135697Y-98053804D01*
X92973804Y-98215697D01*
X92973799Y-98215703D01*
X92842477Y-98403250D01*
X92745717Y-98610753D01*
X92745715Y-98610759D01*
X92743036Y-98620757D01*
X92686457Y-98831913D01*
X92666502Y-99060000D01*
X92075500Y-99060000D01*
X92075500Y-95885000D01*
X92666502Y-95885000D01*
X92686457Y-96113087D01*
X92697175Y-96153086D01*
X92745715Y-96334240D01*
X92745717Y-96334246D01*
X92842477Y-96541749D01*
X92938436Y-96678793D01*
X92973802Y-96729300D01*
X93135700Y-96891198D01*
X93323251Y-97022523D01*
X93530757Y-97119284D01*
X93751913Y-97178543D01*
X93980000Y-97198498D01*
X94208087Y-97178543D01*
X94429243Y-97119284D01*
X94636749Y-97022523D01*
X94824300Y-96891198D01*
X94986198Y-96729300D01*
X95117523Y-96541749D01*
X95214284Y-96334243D01*
X95273543Y-96113087D01*
X95293498Y-95885000D01*
X95273543Y-95656913D01*
X95214284Y-95435757D01*
X95117523Y-95228251D01*
X94986198Y-95040700D01*
X94824300Y-94878802D01*
X94819431Y-94875393D01*
X94636749Y-94747477D01*
X94429246Y-94650717D01*
X94429240Y-94650715D01*
X94282895Y-94611502D01*
X94208087Y-94591457D01*
X93980000Y-94571502D01*
X93751913Y-94591457D01*
X93530759Y-94650715D01*
X93530753Y-94650717D01*
X93323250Y-94747477D01*
X93135703Y-94878799D01*
X93135697Y-94878804D01*
X92973804Y-95040697D01*
X92973799Y-95040703D01*
X92842477Y-95228250D01*
X92745717Y-95435753D01*
X92745717Y-95435754D01*
X92745716Y-95435757D01*
X92686457Y-95656913D01*
X92666502Y-95885000D01*
X92075500Y-95885000D01*
X92075500Y-92710000D01*
X92666502Y-92710000D01*
X92686457Y-92938087D01*
X92702624Y-92998421D01*
X92745715Y-93159240D01*
X92745717Y-93159246D01*
X92842477Y-93366749D01*
X92945793Y-93514300D01*
X92973802Y-93554300D01*
X93135700Y-93716198D01*
X93323251Y-93847523D01*
X93530757Y-93944284D01*
X93751913Y-94003543D01*
X93980000Y-94023498D01*
X94208087Y-94003543D01*
X94429243Y-93944284D01*
X94636749Y-93847523D01*
X94824300Y-93716198D01*
X94986198Y-93554300D01*
X95117523Y-93366749D01*
X95214284Y-93159243D01*
X95273543Y-92938087D01*
X95293498Y-92710000D01*
X95273543Y-92481913D01*
X95214284Y-92260757D01*
X95117523Y-92053251D01*
X94986198Y-91865700D01*
X94824300Y-91703802D01*
X94809784Y-91693638D01*
X94636749Y-91572477D01*
X94429246Y-91475717D01*
X94429240Y-91475715D01*
X94335771Y-91450670D01*
X94208087Y-91416457D01*
X93980000Y-91396502D01*
X93751913Y-91416457D01*
X93530759Y-91475715D01*
X93530753Y-91475717D01*
X93323250Y-91572477D01*
X93135703Y-91703799D01*
X93135697Y-91703804D01*
X92973804Y-91865697D01*
X92973799Y-91865703D01*
X92842477Y-92053250D01*
X92745717Y-92260753D01*
X92745715Y-92260759D01*
X92722499Y-92347404D01*
X92686457Y-92481913D01*
X92666502Y-92710000D01*
X92075500Y-92710000D01*
X92075500Y-63626500D01*
X92095502Y-63558379D01*
X92149158Y-63511886D01*
X92201500Y-63500500D01*
X126246364Y-63500500D01*
X126314485Y-63520502D01*
G37*
G04 #@! TD.AperFunction*
M02*
