%TF.GenerationSoftware,KiCad,Pcbnew,7.0.11+dfsg-1build4*%
%TF.CreationDate,2026-06-05T22:11:55-04:00*%
%TF.ProjectId,bmp-ramshead,626d702d-7261-46d7-9368-6561642e6b69,rev?*%
%TF.SameCoordinates,Original*%
%TF.FileFunction,Legend,Top*%
%TF.FilePolarity,Positive*%
%FSLAX46Y46*%
G04 Gerber Fmt 4.6, Leading zero omitted, Abs format (unit mm)*
G04 Created by KiCad (PCBNEW 7.0.11+dfsg-1build4) date 2026-06-05 22:11:55*
%MOMM*%
%LPD*%
G01*
G04 APERTURE LIST*
%ADD10C,0.300000*%
%ADD11C,0.150000*%
%ADD12C,0.100000*%
%ADD13C,0.120000*%
G04 APERTURE END LIST*
D10*
X97517368Y-54340828D02*
X97517368Y-55555114D01*
X97517368Y-55555114D02*
X97445939Y-55697971D01*
X97445939Y-55697971D02*
X97374510Y-55769400D01*
X97374510Y-55769400D02*
X97231653Y-55840828D01*
X97231653Y-55840828D02*
X97017368Y-55840828D01*
X97017368Y-55840828D02*
X96874510Y-55769400D01*
X97517368Y-55269400D02*
X97374510Y-55340828D01*
X97374510Y-55340828D02*
X97088796Y-55340828D01*
X97088796Y-55340828D02*
X96945939Y-55269400D01*
X96945939Y-55269400D02*
X96874510Y-55197971D01*
X96874510Y-55197971D02*
X96803082Y-55055114D01*
X96803082Y-55055114D02*
X96803082Y-54626542D01*
X96803082Y-54626542D02*
X96874510Y-54483685D01*
X96874510Y-54483685D02*
X96945939Y-54412257D01*
X96945939Y-54412257D02*
X97088796Y-54340828D01*
X97088796Y-54340828D02*
X97374510Y-54340828D01*
X97374510Y-54340828D02*
X97517368Y-54412257D01*
X98874511Y-55340828D02*
X98874511Y-54555114D01*
X98874511Y-54555114D02*
X98803082Y-54412257D01*
X98803082Y-54412257D02*
X98660225Y-54340828D01*
X98660225Y-54340828D02*
X98374511Y-54340828D01*
X98374511Y-54340828D02*
X98231653Y-54412257D01*
X98874511Y-55269400D02*
X98731653Y-55340828D01*
X98731653Y-55340828D02*
X98374511Y-55340828D01*
X98374511Y-55340828D02*
X98231653Y-55269400D01*
X98231653Y-55269400D02*
X98160225Y-55126542D01*
X98160225Y-55126542D02*
X98160225Y-54983685D01*
X98160225Y-54983685D02*
X98231653Y-54840828D01*
X98231653Y-54840828D02*
X98374511Y-54769400D01*
X98374511Y-54769400D02*
X98731653Y-54769400D01*
X98731653Y-54769400D02*
X98874511Y-54697971D01*
X99588796Y-55340828D02*
X99588796Y-54340828D01*
X99588796Y-53840828D02*
X99517368Y-53912257D01*
X99517368Y-53912257D02*
X99588796Y-53983685D01*
X99588796Y-53983685D02*
X99660225Y-53912257D01*
X99660225Y-53912257D02*
X99588796Y-53840828D01*
X99588796Y-53840828D02*
X99588796Y-53983685D01*
X100303082Y-54340828D02*
X100303082Y-55340828D01*
X100303082Y-54483685D02*
X100374511Y-54412257D01*
X100374511Y-54412257D02*
X100517368Y-54340828D01*
X100517368Y-54340828D02*
X100731654Y-54340828D01*
X100731654Y-54340828D02*
X100874511Y-54412257D01*
X100874511Y-54412257D02*
X100945940Y-54555114D01*
X100945940Y-54555114D02*
X100945940Y-55340828D01*
X76700225Y-53310828D02*
X77271653Y-53310828D01*
X76914510Y-52810828D02*
X76914510Y-54096542D01*
X76914510Y-54096542D02*
X76985939Y-54239400D01*
X76985939Y-54239400D02*
X77128796Y-54310828D01*
X77128796Y-54310828D02*
X77271653Y-54310828D01*
X77985939Y-54310828D02*
X77843082Y-54239400D01*
X77843082Y-54239400D02*
X77771653Y-54167971D01*
X77771653Y-54167971D02*
X77700225Y-54025114D01*
X77700225Y-54025114D02*
X77700225Y-53596542D01*
X77700225Y-53596542D02*
X77771653Y-53453685D01*
X77771653Y-53453685D02*
X77843082Y-53382257D01*
X77843082Y-53382257D02*
X77985939Y-53310828D01*
X77985939Y-53310828D02*
X78200225Y-53310828D01*
X78200225Y-53310828D02*
X78343082Y-53382257D01*
X78343082Y-53382257D02*
X78414511Y-53453685D01*
X78414511Y-53453685D02*
X78485939Y-53596542D01*
X78485939Y-53596542D02*
X78485939Y-54025114D01*
X78485939Y-54025114D02*
X78414511Y-54167971D01*
X78414511Y-54167971D02*
X78343082Y-54239400D01*
X78343082Y-54239400D02*
X78200225Y-54310828D01*
X78200225Y-54310828D02*
X77985939Y-54310828D01*
X79128796Y-53310828D02*
X79128796Y-54310828D01*
X79128796Y-53453685D02*
X79200225Y-53382257D01*
X79200225Y-53382257D02*
X79343082Y-53310828D01*
X79343082Y-53310828D02*
X79557368Y-53310828D01*
X79557368Y-53310828D02*
X79700225Y-53382257D01*
X79700225Y-53382257D02*
X79771654Y-53525114D01*
X79771654Y-53525114D02*
X79771654Y-54310828D01*
X81057368Y-54239400D02*
X80914511Y-54310828D01*
X80914511Y-54310828D02*
X80628797Y-54310828D01*
X80628797Y-54310828D02*
X80485939Y-54239400D01*
X80485939Y-54239400D02*
X80414511Y-54096542D01*
X80414511Y-54096542D02*
X80414511Y-53525114D01*
X80414511Y-53525114D02*
X80485939Y-53382257D01*
X80485939Y-53382257D02*
X80628797Y-53310828D01*
X80628797Y-53310828D02*
X80914511Y-53310828D01*
X80914511Y-53310828D02*
X81057368Y-53382257D01*
X81057368Y-53382257D02*
X81128797Y-53525114D01*
X81128797Y-53525114D02*
X81128797Y-53667971D01*
X81128797Y-53667971D02*
X80414511Y-53810828D01*
X57701653Y-53100828D02*
X58058796Y-54100828D01*
X58058796Y-54100828D02*
X58415939Y-53100828D01*
X59201653Y-54100828D02*
X59058796Y-54029400D01*
X59058796Y-54029400D02*
X58987367Y-53957971D01*
X58987367Y-53957971D02*
X58915939Y-53815114D01*
X58915939Y-53815114D02*
X58915939Y-53386542D01*
X58915939Y-53386542D02*
X58987367Y-53243685D01*
X58987367Y-53243685D02*
X59058796Y-53172257D01*
X59058796Y-53172257D02*
X59201653Y-53100828D01*
X59201653Y-53100828D02*
X59415939Y-53100828D01*
X59415939Y-53100828D02*
X59558796Y-53172257D01*
X59558796Y-53172257D02*
X59630225Y-53243685D01*
X59630225Y-53243685D02*
X59701653Y-53386542D01*
X59701653Y-53386542D02*
X59701653Y-53815114D01*
X59701653Y-53815114D02*
X59630225Y-53957971D01*
X59630225Y-53957971D02*
X59558796Y-54029400D01*
X59558796Y-54029400D02*
X59415939Y-54100828D01*
X59415939Y-54100828D02*
X59201653Y-54100828D01*
X60558796Y-54100828D02*
X60415939Y-54029400D01*
X60415939Y-54029400D02*
X60344510Y-53886542D01*
X60344510Y-53886542D02*
X60344510Y-52600828D01*
D11*
X68954761Y-58180057D02*
X68859523Y-58132438D01*
X68859523Y-58132438D02*
X68764285Y-58037200D01*
X68764285Y-58037200D02*
X68621428Y-57894342D01*
X68621428Y-57894342D02*
X68526190Y-57846723D01*
X68526190Y-57846723D02*
X68430952Y-57846723D01*
X68478571Y-58084819D02*
X68383333Y-58037200D01*
X68383333Y-58037200D02*
X68288095Y-57941961D01*
X68288095Y-57941961D02*
X68240476Y-57751485D01*
X68240476Y-57751485D02*
X68240476Y-57418152D01*
X68240476Y-57418152D02*
X68288095Y-57227676D01*
X68288095Y-57227676D02*
X68383333Y-57132438D01*
X68383333Y-57132438D02*
X68478571Y-57084819D01*
X68478571Y-57084819D02*
X68669047Y-57084819D01*
X68669047Y-57084819D02*
X68764285Y-57132438D01*
X68764285Y-57132438D02*
X68859523Y-57227676D01*
X68859523Y-57227676D02*
X68907142Y-57418152D01*
X68907142Y-57418152D02*
X68907142Y-57751485D01*
X68907142Y-57751485D02*
X68859523Y-57941961D01*
X68859523Y-57941961D02*
X68764285Y-58037200D01*
X68764285Y-58037200D02*
X68669047Y-58084819D01*
X68669047Y-58084819D02*
X68478571Y-58084819D01*
X69240476Y-57084819D02*
X69859523Y-57084819D01*
X69859523Y-57084819D02*
X69526190Y-57465771D01*
X69526190Y-57465771D02*
X69669047Y-57465771D01*
X69669047Y-57465771D02*
X69764285Y-57513390D01*
X69764285Y-57513390D02*
X69811904Y-57561009D01*
X69811904Y-57561009D02*
X69859523Y-57656247D01*
X69859523Y-57656247D02*
X69859523Y-57894342D01*
X69859523Y-57894342D02*
X69811904Y-57989580D01*
X69811904Y-57989580D02*
X69764285Y-58037200D01*
X69764285Y-58037200D02*
X69669047Y-58084819D01*
X69669047Y-58084819D02*
X69383333Y-58084819D01*
X69383333Y-58084819D02*
X69288095Y-58037200D01*
X69288095Y-58037200D02*
X69240476Y-57989580D01*
D12*
X90123333Y-81191966D02*
X90090000Y-81225300D01*
X90090000Y-81225300D02*
X89990000Y-81258633D01*
X89990000Y-81258633D02*
X89923333Y-81258633D01*
X89923333Y-81258633D02*
X89823333Y-81225300D01*
X89823333Y-81225300D02*
X89756667Y-81158633D01*
X89756667Y-81158633D02*
X89723333Y-81091966D01*
X89723333Y-81091966D02*
X89690000Y-80958633D01*
X89690000Y-80958633D02*
X89690000Y-80858633D01*
X89690000Y-80858633D02*
X89723333Y-80725300D01*
X89723333Y-80725300D02*
X89756667Y-80658633D01*
X89756667Y-80658633D02*
X89823333Y-80591966D01*
X89823333Y-80591966D02*
X89923333Y-80558633D01*
X89923333Y-80558633D02*
X89990000Y-80558633D01*
X89990000Y-80558633D02*
X90090000Y-80591966D01*
X90090000Y-80591966D02*
X90123333Y-80625300D01*
X90723333Y-80558633D02*
X90590000Y-80558633D01*
X90590000Y-80558633D02*
X90523333Y-80591966D01*
X90523333Y-80591966D02*
X90490000Y-80625300D01*
X90490000Y-80625300D02*
X90423333Y-80725300D01*
X90423333Y-80725300D02*
X90390000Y-80858633D01*
X90390000Y-80858633D02*
X90390000Y-81125300D01*
X90390000Y-81125300D02*
X90423333Y-81191966D01*
X90423333Y-81191966D02*
X90456667Y-81225300D01*
X90456667Y-81225300D02*
X90523333Y-81258633D01*
X90523333Y-81258633D02*
X90656667Y-81258633D01*
X90656667Y-81258633D02*
X90723333Y-81225300D01*
X90723333Y-81225300D02*
X90756667Y-81191966D01*
X90756667Y-81191966D02*
X90790000Y-81125300D01*
X90790000Y-81125300D02*
X90790000Y-80958633D01*
X90790000Y-80958633D02*
X90756667Y-80891966D01*
X90756667Y-80891966D02*
X90723333Y-80858633D01*
X90723333Y-80858633D02*
X90656667Y-80825300D01*
X90656667Y-80825300D02*
X90523333Y-80825300D01*
X90523333Y-80825300D02*
X90456667Y-80858633D01*
X90456667Y-80858633D02*
X90423333Y-80891966D01*
X90423333Y-80891966D02*
X90390000Y-80958633D01*
X89479999Y-81981966D02*
X89479999Y-82448633D01*
X89313333Y-81715300D02*
X89146666Y-82215300D01*
X89146666Y-82215300D02*
X89579999Y-82215300D01*
X89780000Y-81748633D02*
X90246666Y-81748633D01*
X90246666Y-81748633D02*
X89946666Y-82448633D01*
X90646667Y-81748633D02*
X90713333Y-81748633D01*
X90713333Y-81748633D02*
X90780000Y-81781966D01*
X90780000Y-81781966D02*
X90813333Y-81815300D01*
X90813333Y-81815300D02*
X90846667Y-81881966D01*
X90846667Y-81881966D02*
X90880000Y-82015300D01*
X90880000Y-82015300D02*
X90880000Y-82181966D01*
X90880000Y-82181966D02*
X90846667Y-82315300D01*
X90846667Y-82315300D02*
X90813333Y-82381966D01*
X90813333Y-82381966D02*
X90780000Y-82415300D01*
X90780000Y-82415300D02*
X90713333Y-82448633D01*
X90713333Y-82448633D02*
X90646667Y-82448633D01*
X90646667Y-82448633D02*
X90580000Y-82415300D01*
X90580000Y-82415300D02*
X90546667Y-82381966D01*
X90546667Y-82381966D02*
X90513333Y-82315300D01*
X90513333Y-82315300D02*
X90480000Y-82181966D01*
X90480000Y-82181966D02*
X90480000Y-82015300D01*
X90480000Y-82015300D02*
X90513333Y-81881966D01*
X90513333Y-81881966D02*
X90546667Y-81815300D01*
X90546667Y-81815300D02*
X90580000Y-81781966D01*
X90580000Y-81781966D02*
X90646667Y-81748633D01*
X91180000Y-81981966D02*
X91180000Y-82681966D01*
X91180000Y-82015300D02*
X91246667Y-81981966D01*
X91246667Y-81981966D02*
X91380000Y-81981966D01*
X91380000Y-81981966D02*
X91446667Y-82015300D01*
X91446667Y-82015300D02*
X91480000Y-82048633D01*
X91480000Y-82048633D02*
X91513334Y-82115300D01*
X91513334Y-82115300D02*
X91513334Y-82315300D01*
X91513334Y-82315300D02*
X91480000Y-82381966D01*
X91480000Y-82381966D02*
X91446667Y-82415300D01*
X91446667Y-82415300D02*
X91380000Y-82448633D01*
X91380000Y-82448633D02*
X91246667Y-82448633D01*
X91246667Y-82448633D02*
X91180000Y-82415300D01*
X53869999Y-87308633D02*
X53636666Y-86975300D01*
X53469999Y-87308633D02*
X53469999Y-86608633D01*
X53469999Y-86608633D02*
X53736666Y-86608633D01*
X53736666Y-86608633D02*
X53803333Y-86641966D01*
X53803333Y-86641966D02*
X53836666Y-86675300D01*
X53836666Y-86675300D02*
X53869999Y-86741966D01*
X53869999Y-86741966D02*
X53869999Y-86841966D01*
X53869999Y-86841966D02*
X53836666Y-86908633D01*
X53836666Y-86908633D02*
X53803333Y-86941966D01*
X53803333Y-86941966D02*
X53736666Y-86975300D01*
X53736666Y-86975300D02*
X53469999Y-86975300D01*
X54136666Y-86675300D02*
X54169999Y-86641966D01*
X54169999Y-86641966D02*
X54236666Y-86608633D01*
X54236666Y-86608633D02*
X54403333Y-86608633D01*
X54403333Y-86608633D02*
X54469999Y-86641966D01*
X54469999Y-86641966D02*
X54503333Y-86675300D01*
X54503333Y-86675300D02*
X54536666Y-86741966D01*
X54536666Y-86741966D02*
X54536666Y-86808633D01*
X54536666Y-86808633D02*
X54503333Y-86908633D01*
X54503333Y-86908633D02*
X54103333Y-87308633D01*
X54103333Y-87308633D02*
X54536666Y-87308633D01*
X55203333Y-87308633D02*
X54803333Y-87308633D01*
X55003333Y-87308633D02*
X55003333Y-86608633D01*
X55003333Y-86608633D02*
X54936666Y-86708633D01*
X54936666Y-86708633D02*
X54870000Y-86775300D01*
X54870000Y-86775300D02*
X54803333Y-86808633D01*
X56356666Y-87895300D02*
X56389999Y-87861966D01*
X56389999Y-87861966D02*
X56456666Y-87828633D01*
X56456666Y-87828633D02*
X56623333Y-87828633D01*
X56623333Y-87828633D02*
X56689999Y-87861966D01*
X56689999Y-87861966D02*
X56723333Y-87895300D01*
X56723333Y-87895300D02*
X56756666Y-87961966D01*
X56756666Y-87961966D02*
X56756666Y-88028633D01*
X56756666Y-88028633D02*
X56723333Y-88128633D01*
X56723333Y-88128633D02*
X56323333Y-88528633D01*
X56323333Y-88528633D02*
X56756666Y-88528633D01*
X57056666Y-88461966D02*
X57090000Y-88495300D01*
X57090000Y-88495300D02*
X57056666Y-88528633D01*
X57056666Y-88528633D02*
X57023333Y-88495300D01*
X57023333Y-88495300D02*
X57056666Y-88461966D01*
X57056666Y-88461966D02*
X57056666Y-88528633D01*
X57323333Y-87828633D02*
X57789999Y-87828633D01*
X57789999Y-87828633D02*
X57489999Y-88528633D01*
X58056666Y-88528633D02*
X58056666Y-87828633D01*
X58123333Y-88261966D02*
X58323333Y-88528633D01*
X58323333Y-88061966D02*
X58056666Y-88328633D01*
X53929999Y-84668633D02*
X53696666Y-84335300D01*
X53529999Y-84668633D02*
X53529999Y-83968633D01*
X53529999Y-83968633D02*
X53796666Y-83968633D01*
X53796666Y-83968633D02*
X53863333Y-84001966D01*
X53863333Y-84001966D02*
X53896666Y-84035300D01*
X53896666Y-84035300D02*
X53929999Y-84101966D01*
X53929999Y-84101966D02*
X53929999Y-84201966D01*
X53929999Y-84201966D02*
X53896666Y-84268633D01*
X53896666Y-84268633D02*
X53863333Y-84301966D01*
X53863333Y-84301966D02*
X53796666Y-84335300D01*
X53796666Y-84335300D02*
X53529999Y-84335300D01*
X54196666Y-84035300D02*
X54229999Y-84001966D01*
X54229999Y-84001966D02*
X54296666Y-83968633D01*
X54296666Y-83968633D02*
X54463333Y-83968633D01*
X54463333Y-83968633D02*
X54529999Y-84001966D01*
X54529999Y-84001966D02*
X54563333Y-84035300D01*
X54563333Y-84035300D02*
X54596666Y-84101966D01*
X54596666Y-84101966D02*
X54596666Y-84168633D01*
X54596666Y-84168633D02*
X54563333Y-84268633D01*
X54563333Y-84268633D02*
X54163333Y-84668633D01*
X54163333Y-84668633D02*
X54596666Y-84668633D01*
X55030000Y-83968633D02*
X55096666Y-83968633D01*
X55096666Y-83968633D02*
X55163333Y-84001966D01*
X55163333Y-84001966D02*
X55196666Y-84035300D01*
X55196666Y-84035300D02*
X55230000Y-84101966D01*
X55230000Y-84101966D02*
X55263333Y-84235300D01*
X55263333Y-84235300D02*
X55263333Y-84401966D01*
X55263333Y-84401966D02*
X55230000Y-84535300D01*
X55230000Y-84535300D02*
X55196666Y-84601966D01*
X55196666Y-84601966D02*
X55163333Y-84635300D01*
X55163333Y-84635300D02*
X55096666Y-84668633D01*
X55096666Y-84668633D02*
X55030000Y-84668633D01*
X55030000Y-84668633D02*
X54963333Y-84635300D01*
X54963333Y-84635300D02*
X54930000Y-84601966D01*
X54930000Y-84601966D02*
X54896666Y-84535300D01*
X54896666Y-84535300D02*
X54863333Y-84401966D01*
X54863333Y-84401966D02*
X54863333Y-84235300D01*
X54863333Y-84235300D02*
X54896666Y-84101966D01*
X54896666Y-84101966D02*
X54930000Y-84035300D01*
X54930000Y-84035300D02*
X54963333Y-84001966D01*
X54963333Y-84001966D02*
X55030000Y-83968633D01*
X56763333Y-85478633D02*
X56363333Y-85478633D01*
X56563333Y-85478633D02*
X56563333Y-84778633D01*
X56563333Y-84778633D02*
X56496666Y-84878633D01*
X56496666Y-84878633D02*
X56430000Y-84945300D01*
X56430000Y-84945300D02*
X56363333Y-84978633D01*
X57030000Y-84845300D02*
X57063333Y-84811966D01*
X57063333Y-84811966D02*
X57130000Y-84778633D01*
X57130000Y-84778633D02*
X57296667Y-84778633D01*
X57296667Y-84778633D02*
X57363333Y-84811966D01*
X57363333Y-84811966D02*
X57396667Y-84845300D01*
X57396667Y-84845300D02*
X57430000Y-84911966D01*
X57430000Y-84911966D02*
X57430000Y-84978633D01*
X57430000Y-84978633D02*
X57396667Y-85078633D01*
X57396667Y-85078633D02*
X56996667Y-85478633D01*
X56996667Y-85478633D02*
X57430000Y-85478633D01*
X57730000Y-85478633D02*
X57730000Y-84778633D01*
X57796667Y-85211966D02*
X57996667Y-85478633D01*
X57996667Y-85011966D02*
X57730000Y-85278633D01*
X54189999Y-74958633D02*
X53956666Y-74625300D01*
X53789999Y-74958633D02*
X53789999Y-74258633D01*
X53789999Y-74258633D02*
X54056666Y-74258633D01*
X54056666Y-74258633D02*
X54123333Y-74291966D01*
X54123333Y-74291966D02*
X54156666Y-74325300D01*
X54156666Y-74325300D02*
X54189999Y-74391966D01*
X54189999Y-74391966D02*
X54189999Y-74491966D01*
X54189999Y-74491966D02*
X54156666Y-74558633D01*
X54156666Y-74558633D02*
X54123333Y-74591966D01*
X54123333Y-74591966D02*
X54056666Y-74625300D01*
X54056666Y-74625300D02*
X53789999Y-74625300D01*
X54856666Y-74958633D02*
X54456666Y-74958633D01*
X54656666Y-74958633D02*
X54656666Y-74258633D01*
X54656666Y-74258633D02*
X54589999Y-74358633D01*
X54589999Y-74358633D02*
X54523333Y-74425300D01*
X54523333Y-74425300D02*
X54456666Y-74458633D01*
X55190000Y-74958633D02*
X55323333Y-74958633D01*
X55323333Y-74958633D02*
X55390000Y-74925300D01*
X55390000Y-74925300D02*
X55423333Y-74891966D01*
X55423333Y-74891966D02*
X55490000Y-74791966D01*
X55490000Y-74791966D02*
X55523333Y-74658633D01*
X55523333Y-74658633D02*
X55523333Y-74391966D01*
X55523333Y-74391966D02*
X55490000Y-74325300D01*
X55490000Y-74325300D02*
X55456666Y-74291966D01*
X55456666Y-74291966D02*
X55390000Y-74258633D01*
X55390000Y-74258633D02*
X55256666Y-74258633D01*
X55256666Y-74258633D02*
X55190000Y-74291966D01*
X55190000Y-74291966D02*
X55156666Y-74325300D01*
X55156666Y-74325300D02*
X55123333Y-74391966D01*
X55123333Y-74391966D02*
X55123333Y-74558633D01*
X55123333Y-74558633D02*
X55156666Y-74625300D01*
X55156666Y-74625300D02*
X55190000Y-74658633D01*
X55190000Y-74658633D02*
X55256666Y-74691966D01*
X55256666Y-74691966D02*
X55390000Y-74691966D01*
X55390000Y-74691966D02*
X55456666Y-74658633D01*
X55456666Y-74658633D02*
X55490000Y-74625300D01*
X55490000Y-74625300D02*
X55523333Y-74558633D01*
X57039999Y-76178633D02*
X56639999Y-76178633D01*
X56839999Y-76178633D02*
X56839999Y-75478633D01*
X56839999Y-75478633D02*
X56773332Y-75578633D01*
X56773332Y-75578633D02*
X56706666Y-75645300D01*
X56706666Y-75645300D02*
X56639999Y-75678633D01*
X57473333Y-75478633D02*
X57539999Y-75478633D01*
X57539999Y-75478633D02*
X57606666Y-75511966D01*
X57606666Y-75511966D02*
X57639999Y-75545300D01*
X57639999Y-75545300D02*
X57673333Y-75611966D01*
X57673333Y-75611966D02*
X57706666Y-75745300D01*
X57706666Y-75745300D02*
X57706666Y-75911966D01*
X57706666Y-75911966D02*
X57673333Y-76045300D01*
X57673333Y-76045300D02*
X57639999Y-76111966D01*
X57639999Y-76111966D02*
X57606666Y-76145300D01*
X57606666Y-76145300D02*
X57539999Y-76178633D01*
X57539999Y-76178633D02*
X57473333Y-76178633D01*
X57473333Y-76178633D02*
X57406666Y-76145300D01*
X57406666Y-76145300D02*
X57373333Y-76111966D01*
X57373333Y-76111966D02*
X57339999Y-76045300D01*
X57339999Y-76045300D02*
X57306666Y-75911966D01*
X57306666Y-75911966D02*
X57306666Y-75745300D01*
X57306666Y-75745300D02*
X57339999Y-75611966D01*
X57339999Y-75611966D02*
X57373333Y-75545300D01*
X57373333Y-75545300D02*
X57406666Y-75511966D01*
X57406666Y-75511966D02*
X57473333Y-75478633D01*
X58140000Y-75478633D02*
X58206666Y-75478633D01*
X58206666Y-75478633D02*
X58273333Y-75511966D01*
X58273333Y-75511966D02*
X58306666Y-75545300D01*
X58306666Y-75545300D02*
X58340000Y-75611966D01*
X58340000Y-75611966D02*
X58373333Y-75745300D01*
X58373333Y-75745300D02*
X58373333Y-75911966D01*
X58373333Y-75911966D02*
X58340000Y-76045300D01*
X58340000Y-76045300D02*
X58306666Y-76111966D01*
X58306666Y-76111966D02*
X58273333Y-76145300D01*
X58273333Y-76145300D02*
X58206666Y-76178633D01*
X58206666Y-76178633D02*
X58140000Y-76178633D01*
X58140000Y-76178633D02*
X58073333Y-76145300D01*
X58073333Y-76145300D02*
X58040000Y-76111966D01*
X58040000Y-76111966D02*
X58006666Y-76045300D01*
X58006666Y-76045300D02*
X57973333Y-75911966D01*
X57973333Y-75911966D02*
X57973333Y-75745300D01*
X57973333Y-75745300D02*
X58006666Y-75611966D01*
X58006666Y-75611966D02*
X58040000Y-75545300D01*
X58040000Y-75545300D02*
X58073333Y-75511966D01*
X58073333Y-75511966D02*
X58140000Y-75478633D01*
X58673333Y-76178633D02*
X58673333Y-75478633D01*
X58740000Y-75911966D02*
X58940000Y-76178633D01*
X58940000Y-75711966D02*
X58673333Y-75978633D01*
X56149999Y-70068633D02*
X55916666Y-69735300D01*
X55749999Y-70068633D02*
X55749999Y-69368633D01*
X55749999Y-69368633D02*
X56016666Y-69368633D01*
X56016666Y-69368633D02*
X56083333Y-69401966D01*
X56083333Y-69401966D02*
X56116666Y-69435300D01*
X56116666Y-69435300D02*
X56149999Y-69501966D01*
X56149999Y-69501966D02*
X56149999Y-69601966D01*
X56149999Y-69601966D02*
X56116666Y-69668633D01*
X56116666Y-69668633D02*
X56083333Y-69701966D01*
X56083333Y-69701966D02*
X56016666Y-69735300D01*
X56016666Y-69735300D02*
X55749999Y-69735300D01*
X56816666Y-70068633D02*
X56416666Y-70068633D01*
X56616666Y-70068633D02*
X56616666Y-69368633D01*
X56616666Y-69368633D02*
X56549999Y-69468633D01*
X56549999Y-69468633D02*
X56483333Y-69535300D01*
X56483333Y-69535300D02*
X56416666Y-69568633D01*
X57216666Y-69668633D02*
X57150000Y-69635300D01*
X57150000Y-69635300D02*
X57116666Y-69601966D01*
X57116666Y-69601966D02*
X57083333Y-69535300D01*
X57083333Y-69535300D02*
X57083333Y-69501966D01*
X57083333Y-69501966D02*
X57116666Y-69435300D01*
X57116666Y-69435300D02*
X57150000Y-69401966D01*
X57150000Y-69401966D02*
X57216666Y-69368633D01*
X57216666Y-69368633D02*
X57350000Y-69368633D01*
X57350000Y-69368633D02*
X57416666Y-69401966D01*
X57416666Y-69401966D02*
X57450000Y-69435300D01*
X57450000Y-69435300D02*
X57483333Y-69501966D01*
X57483333Y-69501966D02*
X57483333Y-69535300D01*
X57483333Y-69535300D02*
X57450000Y-69601966D01*
X57450000Y-69601966D02*
X57416666Y-69635300D01*
X57416666Y-69635300D02*
X57350000Y-69668633D01*
X57350000Y-69668633D02*
X57216666Y-69668633D01*
X57216666Y-69668633D02*
X57150000Y-69701966D01*
X57150000Y-69701966D02*
X57116666Y-69735300D01*
X57116666Y-69735300D02*
X57083333Y-69801966D01*
X57083333Y-69801966D02*
X57083333Y-69935300D01*
X57083333Y-69935300D02*
X57116666Y-70001966D01*
X57116666Y-70001966D02*
X57150000Y-70035300D01*
X57150000Y-70035300D02*
X57216666Y-70068633D01*
X57216666Y-70068633D02*
X57350000Y-70068633D01*
X57350000Y-70068633D02*
X57416666Y-70035300D01*
X57416666Y-70035300D02*
X57450000Y-70001966D01*
X57450000Y-70001966D02*
X57483333Y-69935300D01*
X57483333Y-69935300D02*
X57483333Y-69801966D01*
X57483333Y-69801966D02*
X57450000Y-69735300D01*
X57450000Y-69735300D02*
X57416666Y-69701966D01*
X57416666Y-69701966D02*
X57350000Y-69668633D01*
X56873332Y-72851966D02*
X56873332Y-73318633D01*
X56706666Y-72585300D02*
X56539999Y-73085300D01*
X56539999Y-73085300D02*
X56973332Y-73085300D01*
X57173333Y-72618633D02*
X57639999Y-72618633D01*
X57639999Y-72618633D02*
X57339999Y-73318633D01*
X58040000Y-72618633D02*
X58106666Y-72618633D01*
X58106666Y-72618633D02*
X58173333Y-72651966D01*
X58173333Y-72651966D02*
X58206666Y-72685300D01*
X58206666Y-72685300D02*
X58240000Y-72751966D01*
X58240000Y-72751966D02*
X58273333Y-72885300D01*
X58273333Y-72885300D02*
X58273333Y-73051966D01*
X58273333Y-73051966D02*
X58240000Y-73185300D01*
X58240000Y-73185300D02*
X58206666Y-73251966D01*
X58206666Y-73251966D02*
X58173333Y-73285300D01*
X58173333Y-73285300D02*
X58106666Y-73318633D01*
X58106666Y-73318633D02*
X58040000Y-73318633D01*
X58040000Y-73318633D02*
X57973333Y-73285300D01*
X57973333Y-73285300D02*
X57940000Y-73251966D01*
X57940000Y-73251966D02*
X57906666Y-73185300D01*
X57906666Y-73185300D02*
X57873333Y-73051966D01*
X57873333Y-73051966D02*
X57873333Y-72885300D01*
X57873333Y-72885300D02*
X57906666Y-72751966D01*
X57906666Y-72751966D02*
X57940000Y-72685300D01*
X57940000Y-72685300D02*
X57973333Y-72651966D01*
X57973333Y-72651966D02*
X58040000Y-72618633D01*
X58573333Y-73318633D02*
X58573333Y-72618633D01*
X58640000Y-73051966D02*
X58840000Y-73318633D01*
X58840000Y-72851966D02*
X58573333Y-73118633D01*
X56179999Y-66928633D02*
X55946666Y-66595300D01*
X55779999Y-66928633D02*
X55779999Y-66228633D01*
X55779999Y-66228633D02*
X56046666Y-66228633D01*
X56046666Y-66228633D02*
X56113333Y-66261966D01*
X56113333Y-66261966D02*
X56146666Y-66295300D01*
X56146666Y-66295300D02*
X56179999Y-66361966D01*
X56179999Y-66361966D02*
X56179999Y-66461966D01*
X56179999Y-66461966D02*
X56146666Y-66528633D01*
X56146666Y-66528633D02*
X56113333Y-66561966D01*
X56113333Y-66561966D02*
X56046666Y-66595300D01*
X56046666Y-66595300D02*
X55779999Y-66595300D01*
X56846666Y-66928633D02*
X56446666Y-66928633D01*
X56646666Y-66928633D02*
X56646666Y-66228633D01*
X56646666Y-66228633D02*
X56579999Y-66328633D01*
X56579999Y-66328633D02*
X56513333Y-66395300D01*
X56513333Y-66395300D02*
X56446666Y-66428633D01*
X57080000Y-66228633D02*
X57546666Y-66228633D01*
X57546666Y-66228633D02*
X57246666Y-66928633D01*
X55780000Y-70968633D02*
X56213333Y-70968633D01*
X56213333Y-70968633D02*
X55980000Y-71235300D01*
X55980000Y-71235300D02*
X56080000Y-71235300D01*
X56080000Y-71235300D02*
X56146666Y-71268633D01*
X56146666Y-71268633D02*
X56180000Y-71301966D01*
X56180000Y-71301966D02*
X56213333Y-71368633D01*
X56213333Y-71368633D02*
X56213333Y-71535300D01*
X56213333Y-71535300D02*
X56180000Y-71601966D01*
X56180000Y-71601966D02*
X56146666Y-71635300D01*
X56146666Y-71635300D02*
X56080000Y-71668633D01*
X56080000Y-71668633D02*
X55880000Y-71668633D01*
X55880000Y-71668633D02*
X55813333Y-71635300D01*
X55813333Y-71635300D02*
X55780000Y-71601966D01*
X56446667Y-70968633D02*
X56880000Y-70968633D01*
X56880000Y-70968633D02*
X56646667Y-71235300D01*
X56646667Y-71235300D02*
X56746667Y-71235300D01*
X56746667Y-71235300D02*
X56813333Y-71268633D01*
X56813333Y-71268633D02*
X56846667Y-71301966D01*
X56846667Y-71301966D02*
X56880000Y-71368633D01*
X56880000Y-71368633D02*
X56880000Y-71535300D01*
X56880000Y-71535300D02*
X56846667Y-71601966D01*
X56846667Y-71601966D02*
X56813333Y-71635300D01*
X56813333Y-71635300D02*
X56746667Y-71668633D01*
X56746667Y-71668633D02*
X56546667Y-71668633D01*
X56546667Y-71668633D02*
X56480000Y-71635300D01*
X56480000Y-71635300D02*
X56446667Y-71601966D01*
X57180000Y-71668633D02*
X57180000Y-70968633D01*
X57246667Y-71401966D02*
X57446667Y-71668633D01*
X57446667Y-71201966D02*
X57180000Y-71468633D01*
X56139999Y-63798633D02*
X55906666Y-63465300D01*
X55739999Y-63798633D02*
X55739999Y-63098633D01*
X55739999Y-63098633D02*
X56006666Y-63098633D01*
X56006666Y-63098633D02*
X56073333Y-63131966D01*
X56073333Y-63131966D02*
X56106666Y-63165300D01*
X56106666Y-63165300D02*
X56139999Y-63231966D01*
X56139999Y-63231966D02*
X56139999Y-63331966D01*
X56139999Y-63331966D02*
X56106666Y-63398633D01*
X56106666Y-63398633D02*
X56073333Y-63431966D01*
X56073333Y-63431966D02*
X56006666Y-63465300D01*
X56006666Y-63465300D02*
X55739999Y-63465300D01*
X56806666Y-63798633D02*
X56406666Y-63798633D01*
X56606666Y-63798633D02*
X56606666Y-63098633D01*
X56606666Y-63098633D02*
X56539999Y-63198633D01*
X56539999Y-63198633D02*
X56473333Y-63265300D01*
X56473333Y-63265300D02*
X56406666Y-63298633D01*
X57406666Y-63098633D02*
X57273333Y-63098633D01*
X57273333Y-63098633D02*
X57206666Y-63131966D01*
X57206666Y-63131966D02*
X57173333Y-63165300D01*
X57173333Y-63165300D02*
X57106666Y-63265300D01*
X57106666Y-63265300D02*
X57073333Y-63398633D01*
X57073333Y-63398633D02*
X57073333Y-63665300D01*
X57073333Y-63665300D02*
X57106666Y-63731966D01*
X57106666Y-63731966D02*
X57140000Y-63765300D01*
X57140000Y-63765300D02*
X57206666Y-63798633D01*
X57206666Y-63798633D02*
X57340000Y-63798633D01*
X57340000Y-63798633D02*
X57406666Y-63765300D01*
X57406666Y-63765300D02*
X57440000Y-63731966D01*
X57440000Y-63731966D02*
X57473333Y-63665300D01*
X57473333Y-63665300D02*
X57473333Y-63498633D01*
X57473333Y-63498633D02*
X57440000Y-63431966D01*
X57440000Y-63431966D02*
X57406666Y-63398633D01*
X57406666Y-63398633D02*
X57340000Y-63365300D01*
X57340000Y-63365300D02*
X57206666Y-63365300D01*
X57206666Y-63365300D02*
X57140000Y-63398633D01*
X57140000Y-63398633D02*
X57106666Y-63431966D01*
X57106666Y-63431966D02*
X57073333Y-63498633D01*
X55740000Y-67838633D02*
X56173333Y-67838633D01*
X56173333Y-67838633D02*
X55940000Y-68105300D01*
X55940000Y-68105300D02*
X56040000Y-68105300D01*
X56040000Y-68105300D02*
X56106666Y-68138633D01*
X56106666Y-68138633D02*
X56140000Y-68171966D01*
X56140000Y-68171966D02*
X56173333Y-68238633D01*
X56173333Y-68238633D02*
X56173333Y-68405300D01*
X56173333Y-68405300D02*
X56140000Y-68471966D01*
X56140000Y-68471966D02*
X56106666Y-68505300D01*
X56106666Y-68505300D02*
X56040000Y-68538633D01*
X56040000Y-68538633D02*
X55840000Y-68538633D01*
X55840000Y-68538633D02*
X55773333Y-68505300D01*
X55773333Y-68505300D02*
X55740000Y-68471966D01*
X56406667Y-67838633D02*
X56840000Y-67838633D01*
X56840000Y-67838633D02*
X56606667Y-68105300D01*
X56606667Y-68105300D02*
X56706667Y-68105300D01*
X56706667Y-68105300D02*
X56773333Y-68138633D01*
X56773333Y-68138633D02*
X56806667Y-68171966D01*
X56806667Y-68171966D02*
X56840000Y-68238633D01*
X56840000Y-68238633D02*
X56840000Y-68405300D01*
X56840000Y-68405300D02*
X56806667Y-68471966D01*
X56806667Y-68471966D02*
X56773333Y-68505300D01*
X56773333Y-68505300D02*
X56706667Y-68538633D01*
X56706667Y-68538633D02*
X56506667Y-68538633D01*
X56506667Y-68538633D02*
X56440000Y-68505300D01*
X56440000Y-68505300D02*
X56406667Y-68471966D01*
X57140000Y-68538633D02*
X57140000Y-67838633D01*
X57206667Y-68271966D02*
X57406667Y-68538633D01*
X57406667Y-68071966D02*
X57140000Y-68338633D01*
X67339999Y-74738633D02*
X67106666Y-74405300D01*
X66939999Y-74738633D02*
X66939999Y-74038633D01*
X66939999Y-74038633D02*
X67206666Y-74038633D01*
X67206666Y-74038633D02*
X67273333Y-74071966D01*
X67273333Y-74071966D02*
X67306666Y-74105300D01*
X67306666Y-74105300D02*
X67339999Y-74171966D01*
X67339999Y-74171966D02*
X67339999Y-74271966D01*
X67339999Y-74271966D02*
X67306666Y-74338633D01*
X67306666Y-74338633D02*
X67273333Y-74371966D01*
X67273333Y-74371966D02*
X67206666Y-74405300D01*
X67206666Y-74405300D02*
X66939999Y-74405300D01*
X68006666Y-74738633D02*
X67606666Y-74738633D01*
X67806666Y-74738633D02*
X67806666Y-74038633D01*
X67806666Y-74038633D02*
X67739999Y-74138633D01*
X67739999Y-74138633D02*
X67673333Y-74205300D01*
X67673333Y-74205300D02*
X67606666Y-74238633D01*
X68640000Y-74038633D02*
X68306666Y-74038633D01*
X68306666Y-74038633D02*
X68273333Y-74371966D01*
X68273333Y-74371966D02*
X68306666Y-74338633D01*
X68306666Y-74338633D02*
X68373333Y-74305300D01*
X68373333Y-74305300D02*
X68540000Y-74305300D01*
X68540000Y-74305300D02*
X68606666Y-74338633D01*
X68606666Y-74338633D02*
X68640000Y-74371966D01*
X68640000Y-74371966D02*
X68673333Y-74438633D01*
X68673333Y-74438633D02*
X68673333Y-74605300D01*
X68673333Y-74605300D02*
X68640000Y-74671966D01*
X68640000Y-74671966D02*
X68606666Y-74705300D01*
X68606666Y-74705300D02*
X68540000Y-74738633D01*
X68540000Y-74738633D02*
X68373333Y-74738633D01*
X68373333Y-74738633D02*
X68306666Y-74705300D01*
X68306666Y-74705300D02*
X68273333Y-74671966D01*
X70753333Y-76028633D02*
X70353333Y-76028633D01*
X70553333Y-76028633D02*
X70553333Y-75328633D01*
X70553333Y-75328633D02*
X70486666Y-75428633D01*
X70486666Y-75428633D02*
X70420000Y-75495300D01*
X70420000Y-75495300D02*
X70353333Y-75528633D01*
X71186667Y-75328633D02*
X71253333Y-75328633D01*
X71253333Y-75328633D02*
X71320000Y-75361966D01*
X71320000Y-75361966D02*
X71353333Y-75395300D01*
X71353333Y-75395300D02*
X71386667Y-75461966D01*
X71386667Y-75461966D02*
X71420000Y-75595300D01*
X71420000Y-75595300D02*
X71420000Y-75761966D01*
X71420000Y-75761966D02*
X71386667Y-75895300D01*
X71386667Y-75895300D02*
X71353333Y-75961966D01*
X71353333Y-75961966D02*
X71320000Y-75995300D01*
X71320000Y-75995300D02*
X71253333Y-76028633D01*
X71253333Y-76028633D02*
X71186667Y-76028633D01*
X71186667Y-76028633D02*
X71120000Y-75995300D01*
X71120000Y-75995300D02*
X71086667Y-75961966D01*
X71086667Y-75961966D02*
X71053333Y-75895300D01*
X71053333Y-75895300D02*
X71020000Y-75761966D01*
X71020000Y-75761966D02*
X71020000Y-75595300D01*
X71020000Y-75595300D02*
X71053333Y-75461966D01*
X71053333Y-75461966D02*
X71086667Y-75395300D01*
X71086667Y-75395300D02*
X71120000Y-75361966D01*
X71120000Y-75361966D02*
X71186667Y-75328633D01*
X71853334Y-75328633D02*
X71920000Y-75328633D01*
X71920000Y-75328633D02*
X71986667Y-75361966D01*
X71986667Y-75361966D02*
X72020000Y-75395300D01*
X72020000Y-75395300D02*
X72053334Y-75461966D01*
X72053334Y-75461966D02*
X72086667Y-75595300D01*
X72086667Y-75595300D02*
X72086667Y-75761966D01*
X72086667Y-75761966D02*
X72053334Y-75895300D01*
X72053334Y-75895300D02*
X72020000Y-75961966D01*
X72020000Y-75961966D02*
X71986667Y-75995300D01*
X71986667Y-75995300D02*
X71920000Y-76028633D01*
X71920000Y-76028633D02*
X71853334Y-76028633D01*
X71853334Y-76028633D02*
X71786667Y-75995300D01*
X71786667Y-75995300D02*
X71753334Y-75961966D01*
X71753334Y-75961966D02*
X71720000Y-75895300D01*
X71720000Y-75895300D02*
X71686667Y-75761966D01*
X71686667Y-75761966D02*
X71686667Y-75595300D01*
X71686667Y-75595300D02*
X71720000Y-75461966D01*
X71720000Y-75461966D02*
X71753334Y-75395300D01*
X71753334Y-75395300D02*
X71786667Y-75361966D01*
X71786667Y-75361966D02*
X71853334Y-75328633D01*
X67049999Y-71708633D02*
X66816666Y-71375300D01*
X66649999Y-71708633D02*
X66649999Y-71008633D01*
X66649999Y-71008633D02*
X66916666Y-71008633D01*
X66916666Y-71008633D02*
X66983333Y-71041966D01*
X66983333Y-71041966D02*
X67016666Y-71075300D01*
X67016666Y-71075300D02*
X67049999Y-71141966D01*
X67049999Y-71141966D02*
X67049999Y-71241966D01*
X67049999Y-71241966D02*
X67016666Y-71308633D01*
X67016666Y-71308633D02*
X66983333Y-71341966D01*
X66983333Y-71341966D02*
X66916666Y-71375300D01*
X66916666Y-71375300D02*
X66649999Y-71375300D01*
X67716666Y-71708633D02*
X67316666Y-71708633D01*
X67516666Y-71708633D02*
X67516666Y-71008633D01*
X67516666Y-71008633D02*
X67449999Y-71108633D01*
X67449999Y-71108633D02*
X67383333Y-71175300D01*
X67383333Y-71175300D02*
X67316666Y-71208633D01*
X68316666Y-71241966D02*
X68316666Y-71708633D01*
X68150000Y-70975300D02*
X67983333Y-71475300D01*
X67983333Y-71475300D02*
X68416666Y-71475300D01*
X71053333Y-73058633D02*
X70653333Y-73058633D01*
X70853333Y-73058633D02*
X70853333Y-72358633D01*
X70853333Y-72358633D02*
X70786666Y-72458633D01*
X70786666Y-72458633D02*
X70720000Y-72525300D01*
X70720000Y-72525300D02*
X70653333Y-72558633D01*
X71320000Y-72425300D02*
X71353333Y-72391966D01*
X71353333Y-72391966D02*
X71420000Y-72358633D01*
X71420000Y-72358633D02*
X71586667Y-72358633D01*
X71586667Y-72358633D02*
X71653333Y-72391966D01*
X71653333Y-72391966D02*
X71686667Y-72425300D01*
X71686667Y-72425300D02*
X71720000Y-72491966D01*
X71720000Y-72491966D02*
X71720000Y-72558633D01*
X71720000Y-72558633D02*
X71686667Y-72658633D01*
X71686667Y-72658633D02*
X71286667Y-73058633D01*
X71286667Y-73058633D02*
X71720000Y-73058633D01*
X72020000Y-73058633D02*
X72020000Y-72358633D01*
X72086667Y-72791966D02*
X72286667Y-73058633D01*
X72286667Y-72591966D02*
X72020000Y-72858633D01*
X67109999Y-68628633D02*
X66876666Y-68295300D01*
X66709999Y-68628633D02*
X66709999Y-67928633D01*
X66709999Y-67928633D02*
X66976666Y-67928633D01*
X66976666Y-67928633D02*
X67043333Y-67961966D01*
X67043333Y-67961966D02*
X67076666Y-67995300D01*
X67076666Y-67995300D02*
X67109999Y-68061966D01*
X67109999Y-68061966D02*
X67109999Y-68161966D01*
X67109999Y-68161966D02*
X67076666Y-68228633D01*
X67076666Y-68228633D02*
X67043333Y-68261966D01*
X67043333Y-68261966D02*
X66976666Y-68295300D01*
X66976666Y-68295300D02*
X66709999Y-68295300D01*
X67776666Y-68628633D02*
X67376666Y-68628633D01*
X67576666Y-68628633D02*
X67576666Y-67928633D01*
X67576666Y-67928633D02*
X67509999Y-68028633D01*
X67509999Y-68028633D02*
X67443333Y-68095300D01*
X67443333Y-68095300D02*
X67376666Y-68128633D01*
X68010000Y-67928633D02*
X68443333Y-67928633D01*
X68443333Y-67928633D02*
X68210000Y-68195300D01*
X68210000Y-68195300D02*
X68310000Y-68195300D01*
X68310000Y-68195300D02*
X68376666Y-68228633D01*
X68376666Y-68228633D02*
X68410000Y-68261966D01*
X68410000Y-68261966D02*
X68443333Y-68328633D01*
X68443333Y-68328633D02*
X68443333Y-68495300D01*
X68443333Y-68495300D02*
X68410000Y-68561966D01*
X68410000Y-68561966D02*
X68376666Y-68595300D01*
X68376666Y-68595300D02*
X68310000Y-68628633D01*
X68310000Y-68628633D02*
X68110000Y-68628633D01*
X68110000Y-68628633D02*
X68043333Y-68595300D01*
X68043333Y-68595300D02*
X68010000Y-68561966D01*
X70603332Y-69531966D02*
X70603332Y-69998633D01*
X70436666Y-69265300D02*
X70269999Y-69765300D01*
X70269999Y-69765300D02*
X70703332Y-69765300D01*
X70903333Y-69298633D02*
X71369999Y-69298633D01*
X71369999Y-69298633D02*
X71069999Y-69998633D01*
X71770000Y-69298633D02*
X71836666Y-69298633D01*
X71836666Y-69298633D02*
X71903333Y-69331966D01*
X71903333Y-69331966D02*
X71936666Y-69365300D01*
X71936666Y-69365300D02*
X71970000Y-69431966D01*
X71970000Y-69431966D02*
X72003333Y-69565300D01*
X72003333Y-69565300D02*
X72003333Y-69731966D01*
X72003333Y-69731966D02*
X71970000Y-69865300D01*
X71970000Y-69865300D02*
X71936666Y-69931966D01*
X71936666Y-69931966D02*
X71903333Y-69965300D01*
X71903333Y-69965300D02*
X71836666Y-69998633D01*
X71836666Y-69998633D02*
X71770000Y-69998633D01*
X71770000Y-69998633D02*
X71703333Y-69965300D01*
X71703333Y-69965300D02*
X71670000Y-69931966D01*
X71670000Y-69931966D02*
X71636666Y-69865300D01*
X71636666Y-69865300D02*
X71603333Y-69731966D01*
X71603333Y-69731966D02*
X71603333Y-69565300D01*
X71603333Y-69565300D02*
X71636666Y-69431966D01*
X71636666Y-69431966D02*
X71670000Y-69365300D01*
X71670000Y-69365300D02*
X71703333Y-69331966D01*
X71703333Y-69331966D02*
X71770000Y-69298633D01*
X72303333Y-69998633D02*
X72303333Y-69298633D01*
X72370000Y-69731966D02*
X72570000Y-69998633D01*
X72570000Y-69531966D02*
X72303333Y-69798633D01*
X67019999Y-65568633D02*
X66786666Y-65235300D01*
X66619999Y-65568633D02*
X66619999Y-64868633D01*
X66619999Y-64868633D02*
X66886666Y-64868633D01*
X66886666Y-64868633D02*
X66953333Y-64901966D01*
X66953333Y-64901966D02*
X66986666Y-64935300D01*
X66986666Y-64935300D02*
X67019999Y-65001966D01*
X67019999Y-65001966D02*
X67019999Y-65101966D01*
X67019999Y-65101966D02*
X66986666Y-65168633D01*
X66986666Y-65168633D02*
X66953333Y-65201966D01*
X66953333Y-65201966D02*
X66886666Y-65235300D01*
X66886666Y-65235300D02*
X66619999Y-65235300D01*
X67686666Y-65568633D02*
X67286666Y-65568633D01*
X67486666Y-65568633D02*
X67486666Y-64868633D01*
X67486666Y-64868633D02*
X67419999Y-64968633D01*
X67419999Y-64968633D02*
X67353333Y-65035300D01*
X67353333Y-65035300D02*
X67286666Y-65068633D01*
X67953333Y-64935300D02*
X67986666Y-64901966D01*
X67986666Y-64901966D02*
X68053333Y-64868633D01*
X68053333Y-64868633D02*
X68220000Y-64868633D01*
X68220000Y-64868633D02*
X68286666Y-64901966D01*
X68286666Y-64901966D02*
X68320000Y-64935300D01*
X68320000Y-64935300D02*
X68353333Y-65001966D01*
X68353333Y-65001966D02*
X68353333Y-65068633D01*
X68353333Y-65068633D02*
X68320000Y-65168633D01*
X68320000Y-65168633D02*
X67920000Y-65568633D01*
X67920000Y-65568633D02*
X68353333Y-65568633D01*
X70463333Y-65998633D02*
X70929999Y-65998633D01*
X70929999Y-65998633D02*
X70629999Y-66698633D01*
X71196666Y-66698633D02*
X71196666Y-65998633D01*
X71596666Y-66698633D02*
X71296666Y-66298633D01*
X71596666Y-65998633D02*
X71196666Y-66398633D01*
X72230000Y-65998633D02*
X71896666Y-65998633D01*
X71896666Y-65998633D02*
X71863333Y-66331966D01*
X71863333Y-66331966D02*
X71896666Y-66298633D01*
X71896666Y-66298633D02*
X71963333Y-66265300D01*
X71963333Y-66265300D02*
X72130000Y-66265300D01*
X72130000Y-66265300D02*
X72196666Y-66298633D01*
X72196666Y-66298633D02*
X72230000Y-66331966D01*
X72230000Y-66331966D02*
X72263333Y-66398633D01*
X72263333Y-66398633D02*
X72263333Y-66565300D01*
X72263333Y-66565300D02*
X72230000Y-66631966D01*
X72230000Y-66631966D02*
X72196666Y-66665300D01*
X72196666Y-66665300D02*
X72130000Y-66698633D01*
X72130000Y-66698633D02*
X71963333Y-66698633D01*
X71963333Y-66698633D02*
X71896666Y-66665300D01*
X71896666Y-66665300D02*
X71863333Y-66631966D01*
X80329999Y-75048633D02*
X80096666Y-74715300D01*
X79929999Y-75048633D02*
X79929999Y-74348633D01*
X79929999Y-74348633D02*
X80196666Y-74348633D01*
X80196666Y-74348633D02*
X80263333Y-74381966D01*
X80263333Y-74381966D02*
X80296666Y-74415300D01*
X80296666Y-74415300D02*
X80329999Y-74481966D01*
X80329999Y-74481966D02*
X80329999Y-74581966D01*
X80329999Y-74581966D02*
X80296666Y-74648633D01*
X80296666Y-74648633D02*
X80263333Y-74681966D01*
X80263333Y-74681966D02*
X80196666Y-74715300D01*
X80196666Y-74715300D02*
X79929999Y-74715300D01*
X80996666Y-75048633D02*
X80596666Y-75048633D01*
X80796666Y-75048633D02*
X80796666Y-74348633D01*
X80796666Y-74348633D02*
X80729999Y-74448633D01*
X80729999Y-74448633D02*
X80663333Y-74515300D01*
X80663333Y-74515300D02*
X80596666Y-74548633D01*
X81663333Y-75048633D02*
X81263333Y-75048633D01*
X81463333Y-75048633D02*
X81463333Y-74348633D01*
X81463333Y-74348633D02*
X81396666Y-74448633D01*
X81396666Y-74448633D02*
X81330000Y-74515300D01*
X81330000Y-74515300D02*
X81263333Y-74548633D01*
X83503333Y-75808633D02*
X83103333Y-75808633D01*
X83303333Y-75808633D02*
X83303333Y-75108633D01*
X83303333Y-75108633D02*
X83236666Y-75208633D01*
X83236666Y-75208633D02*
X83170000Y-75275300D01*
X83170000Y-75275300D02*
X83103333Y-75308633D01*
X83936667Y-75108633D02*
X84003333Y-75108633D01*
X84003333Y-75108633D02*
X84070000Y-75141966D01*
X84070000Y-75141966D02*
X84103333Y-75175300D01*
X84103333Y-75175300D02*
X84136667Y-75241966D01*
X84136667Y-75241966D02*
X84170000Y-75375300D01*
X84170000Y-75375300D02*
X84170000Y-75541966D01*
X84170000Y-75541966D02*
X84136667Y-75675300D01*
X84136667Y-75675300D02*
X84103333Y-75741966D01*
X84103333Y-75741966D02*
X84070000Y-75775300D01*
X84070000Y-75775300D02*
X84003333Y-75808633D01*
X84003333Y-75808633D02*
X83936667Y-75808633D01*
X83936667Y-75808633D02*
X83870000Y-75775300D01*
X83870000Y-75775300D02*
X83836667Y-75741966D01*
X83836667Y-75741966D02*
X83803333Y-75675300D01*
X83803333Y-75675300D02*
X83770000Y-75541966D01*
X83770000Y-75541966D02*
X83770000Y-75375300D01*
X83770000Y-75375300D02*
X83803333Y-75241966D01*
X83803333Y-75241966D02*
X83836667Y-75175300D01*
X83836667Y-75175300D02*
X83870000Y-75141966D01*
X83870000Y-75141966D02*
X83936667Y-75108633D01*
X84603334Y-75108633D02*
X84670000Y-75108633D01*
X84670000Y-75108633D02*
X84736667Y-75141966D01*
X84736667Y-75141966D02*
X84770000Y-75175300D01*
X84770000Y-75175300D02*
X84803334Y-75241966D01*
X84803334Y-75241966D02*
X84836667Y-75375300D01*
X84836667Y-75375300D02*
X84836667Y-75541966D01*
X84836667Y-75541966D02*
X84803334Y-75675300D01*
X84803334Y-75675300D02*
X84770000Y-75741966D01*
X84770000Y-75741966D02*
X84736667Y-75775300D01*
X84736667Y-75775300D02*
X84670000Y-75808633D01*
X84670000Y-75808633D02*
X84603334Y-75808633D01*
X84603334Y-75808633D02*
X84536667Y-75775300D01*
X84536667Y-75775300D02*
X84503334Y-75741966D01*
X84503334Y-75741966D02*
X84470000Y-75675300D01*
X84470000Y-75675300D02*
X84436667Y-75541966D01*
X84436667Y-75541966D02*
X84436667Y-75375300D01*
X84436667Y-75375300D02*
X84470000Y-75241966D01*
X84470000Y-75241966D02*
X84503334Y-75175300D01*
X84503334Y-75175300D02*
X84536667Y-75141966D01*
X84536667Y-75141966D02*
X84603334Y-75108633D01*
X80019999Y-78398633D02*
X79786666Y-78065300D01*
X79619999Y-78398633D02*
X79619999Y-77698633D01*
X79619999Y-77698633D02*
X79886666Y-77698633D01*
X79886666Y-77698633D02*
X79953333Y-77731966D01*
X79953333Y-77731966D02*
X79986666Y-77765300D01*
X79986666Y-77765300D02*
X80019999Y-77831966D01*
X80019999Y-77831966D02*
X80019999Y-77931966D01*
X80019999Y-77931966D02*
X79986666Y-77998633D01*
X79986666Y-77998633D02*
X79953333Y-78031966D01*
X79953333Y-78031966D02*
X79886666Y-78065300D01*
X79886666Y-78065300D02*
X79619999Y-78065300D01*
X80686666Y-78398633D02*
X80286666Y-78398633D01*
X80486666Y-78398633D02*
X80486666Y-77698633D01*
X80486666Y-77698633D02*
X80419999Y-77798633D01*
X80419999Y-77798633D02*
X80353333Y-77865300D01*
X80353333Y-77865300D02*
X80286666Y-77898633D01*
X81120000Y-77698633D02*
X81186666Y-77698633D01*
X81186666Y-77698633D02*
X81253333Y-77731966D01*
X81253333Y-77731966D02*
X81286666Y-77765300D01*
X81286666Y-77765300D02*
X81320000Y-77831966D01*
X81320000Y-77831966D02*
X81353333Y-77965300D01*
X81353333Y-77965300D02*
X81353333Y-78131966D01*
X81353333Y-78131966D02*
X81320000Y-78265300D01*
X81320000Y-78265300D02*
X81286666Y-78331966D01*
X81286666Y-78331966D02*
X81253333Y-78365300D01*
X81253333Y-78365300D02*
X81186666Y-78398633D01*
X81186666Y-78398633D02*
X81120000Y-78398633D01*
X81120000Y-78398633D02*
X81053333Y-78365300D01*
X81053333Y-78365300D02*
X81020000Y-78331966D01*
X81020000Y-78331966D02*
X80986666Y-78265300D01*
X80986666Y-78265300D02*
X80953333Y-78131966D01*
X80953333Y-78131966D02*
X80953333Y-77965300D01*
X80953333Y-77965300D02*
X80986666Y-77831966D01*
X80986666Y-77831966D02*
X81020000Y-77765300D01*
X81020000Y-77765300D02*
X81053333Y-77731966D01*
X81053333Y-77731966D02*
X81120000Y-77698633D01*
X82953333Y-79358633D02*
X82553333Y-79358633D01*
X82753333Y-79358633D02*
X82753333Y-78658633D01*
X82753333Y-78658633D02*
X82686666Y-78758633D01*
X82686666Y-78758633D02*
X82620000Y-78825300D01*
X82620000Y-78825300D02*
X82553333Y-78858633D01*
X83220000Y-78725300D02*
X83253333Y-78691966D01*
X83253333Y-78691966D02*
X83320000Y-78658633D01*
X83320000Y-78658633D02*
X83486667Y-78658633D01*
X83486667Y-78658633D02*
X83553333Y-78691966D01*
X83553333Y-78691966D02*
X83586667Y-78725300D01*
X83586667Y-78725300D02*
X83620000Y-78791966D01*
X83620000Y-78791966D02*
X83620000Y-78858633D01*
X83620000Y-78858633D02*
X83586667Y-78958633D01*
X83586667Y-78958633D02*
X83186667Y-79358633D01*
X83186667Y-79358633D02*
X83620000Y-79358633D01*
X83920000Y-79358633D02*
X83920000Y-78658633D01*
X83986667Y-79091966D02*
X84186667Y-79358633D01*
X84186667Y-78891966D02*
X83920000Y-79158633D01*
X80193333Y-71898633D02*
X79960000Y-71565300D01*
X79793333Y-71898633D02*
X79793333Y-71198633D01*
X79793333Y-71198633D02*
X80060000Y-71198633D01*
X80060000Y-71198633D02*
X80126667Y-71231966D01*
X80126667Y-71231966D02*
X80160000Y-71265300D01*
X80160000Y-71265300D02*
X80193333Y-71331966D01*
X80193333Y-71331966D02*
X80193333Y-71431966D01*
X80193333Y-71431966D02*
X80160000Y-71498633D01*
X80160000Y-71498633D02*
X80126667Y-71531966D01*
X80126667Y-71531966D02*
X80060000Y-71565300D01*
X80060000Y-71565300D02*
X79793333Y-71565300D01*
X80526667Y-71898633D02*
X80660000Y-71898633D01*
X80660000Y-71898633D02*
X80726667Y-71865300D01*
X80726667Y-71865300D02*
X80760000Y-71831966D01*
X80760000Y-71831966D02*
X80826667Y-71731966D01*
X80826667Y-71731966D02*
X80860000Y-71598633D01*
X80860000Y-71598633D02*
X80860000Y-71331966D01*
X80860000Y-71331966D02*
X80826667Y-71265300D01*
X80826667Y-71265300D02*
X80793333Y-71231966D01*
X80793333Y-71231966D02*
X80726667Y-71198633D01*
X80726667Y-71198633D02*
X80593333Y-71198633D01*
X80593333Y-71198633D02*
X80526667Y-71231966D01*
X80526667Y-71231966D02*
X80493333Y-71265300D01*
X80493333Y-71265300D02*
X80460000Y-71331966D01*
X80460000Y-71331966D02*
X80460000Y-71498633D01*
X80460000Y-71498633D02*
X80493333Y-71565300D01*
X80493333Y-71565300D02*
X80526667Y-71598633D01*
X80526667Y-71598633D02*
X80593333Y-71631966D01*
X80593333Y-71631966D02*
X80726667Y-71631966D01*
X80726667Y-71631966D02*
X80793333Y-71598633D01*
X80793333Y-71598633D02*
X80826667Y-71565300D01*
X80826667Y-71565300D02*
X80860000Y-71498633D01*
X83043332Y-72731966D02*
X83043332Y-73198633D01*
X82876666Y-72465300D02*
X82709999Y-72965300D01*
X82709999Y-72965300D02*
X83143332Y-72965300D01*
X83343333Y-72498633D02*
X83809999Y-72498633D01*
X83809999Y-72498633D02*
X83509999Y-73198633D01*
X84210000Y-72498633D02*
X84276666Y-72498633D01*
X84276666Y-72498633D02*
X84343333Y-72531966D01*
X84343333Y-72531966D02*
X84376666Y-72565300D01*
X84376666Y-72565300D02*
X84410000Y-72631966D01*
X84410000Y-72631966D02*
X84443333Y-72765300D01*
X84443333Y-72765300D02*
X84443333Y-72931966D01*
X84443333Y-72931966D02*
X84410000Y-73065300D01*
X84410000Y-73065300D02*
X84376666Y-73131966D01*
X84376666Y-73131966D02*
X84343333Y-73165300D01*
X84343333Y-73165300D02*
X84276666Y-73198633D01*
X84276666Y-73198633D02*
X84210000Y-73198633D01*
X84210000Y-73198633D02*
X84143333Y-73165300D01*
X84143333Y-73165300D02*
X84110000Y-73131966D01*
X84110000Y-73131966D02*
X84076666Y-73065300D01*
X84076666Y-73065300D02*
X84043333Y-72931966D01*
X84043333Y-72931966D02*
X84043333Y-72765300D01*
X84043333Y-72765300D02*
X84076666Y-72631966D01*
X84076666Y-72631966D02*
X84110000Y-72565300D01*
X84110000Y-72565300D02*
X84143333Y-72531966D01*
X84143333Y-72531966D02*
X84210000Y-72498633D01*
X84743333Y-73198633D02*
X84743333Y-72498633D01*
X84810000Y-72931966D02*
X85010000Y-73198633D01*
X85010000Y-72731966D02*
X84743333Y-72998633D01*
X79773333Y-68568633D02*
X79540000Y-68235300D01*
X79373333Y-68568633D02*
X79373333Y-67868633D01*
X79373333Y-67868633D02*
X79640000Y-67868633D01*
X79640000Y-67868633D02*
X79706667Y-67901966D01*
X79706667Y-67901966D02*
X79740000Y-67935300D01*
X79740000Y-67935300D02*
X79773333Y-68001966D01*
X79773333Y-68001966D02*
X79773333Y-68101966D01*
X79773333Y-68101966D02*
X79740000Y-68168633D01*
X79740000Y-68168633D02*
X79706667Y-68201966D01*
X79706667Y-68201966D02*
X79640000Y-68235300D01*
X79640000Y-68235300D02*
X79373333Y-68235300D01*
X80173333Y-68168633D02*
X80106667Y-68135300D01*
X80106667Y-68135300D02*
X80073333Y-68101966D01*
X80073333Y-68101966D02*
X80040000Y-68035300D01*
X80040000Y-68035300D02*
X80040000Y-68001966D01*
X80040000Y-68001966D02*
X80073333Y-67935300D01*
X80073333Y-67935300D02*
X80106667Y-67901966D01*
X80106667Y-67901966D02*
X80173333Y-67868633D01*
X80173333Y-67868633D02*
X80306667Y-67868633D01*
X80306667Y-67868633D02*
X80373333Y-67901966D01*
X80373333Y-67901966D02*
X80406667Y-67935300D01*
X80406667Y-67935300D02*
X80440000Y-68001966D01*
X80440000Y-68001966D02*
X80440000Y-68035300D01*
X80440000Y-68035300D02*
X80406667Y-68101966D01*
X80406667Y-68101966D02*
X80373333Y-68135300D01*
X80373333Y-68135300D02*
X80306667Y-68168633D01*
X80306667Y-68168633D02*
X80173333Y-68168633D01*
X80173333Y-68168633D02*
X80106667Y-68201966D01*
X80106667Y-68201966D02*
X80073333Y-68235300D01*
X80073333Y-68235300D02*
X80040000Y-68301966D01*
X80040000Y-68301966D02*
X80040000Y-68435300D01*
X80040000Y-68435300D02*
X80073333Y-68501966D01*
X80073333Y-68501966D02*
X80106667Y-68535300D01*
X80106667Y-68535300D02*
X80173333Y-68568633D01*
X80173333Y-68568633D02*
X80306667Y-68568633D01*
X80306667Y-68568633D02*
X80373333Y-68535300D01*
X80373333Y-68535300D02*
X80406667Y-68501966D01*
X80406667Y-68501966D02*
X80440000Y-68435300D01*
X80440000Y-68435300D02*
X80440000Y-68301966D01*
X80440000Y-68301966D02*
X80406667Y-68235300D01*
X80406667Y-68235300D02*
X80373333Y-68201966D01*
X80373333Y-68201966D02*
X80306667Y-68168633D01*
X82959999Y-69468633D02*
X82559999Y-69468633D01*
X82759999Y-69468633D02*
X82759999Y-68768633D01*
X82759999Y-68768633D02*
X82693332Y-68868633D01*
X82693332Y-68868633D02*
X82626666Y-68935300D01*
X82626666Y-68935300D02*
X82559999Y-68968633D01*
X83393333Y-68768633D02*
X83459999Y-68768633D01*
X83459999Y-68768633D02*
X83526666Y-68801966D01*
X83526666Y-68801966D02*
X83559999Y-68835300D01*
X83559999Y-68835300D02*
X83593333Y-68901966D01*
X83593333Y-68901966D02*
X83626666Y-69035300D01*
X83626666Y-69035300D02*
X83626666Y-69201966D01*
X83626666Y-69201966D02*
X83593333Y-69335300D01*
X83593333Y-69335300D02*
X83559999Y-69401966D01*
X83559999Y-69401966D02*
X83526666Y-69435300D01*
X83526666Y-69435300D02*
X83459999Y-69468633D01*
X83459999Y-69468633D02*
X83393333Y-69468633D01*
X83393333Y-69468633D02*
X83326666Y-69435300D01*
X83326666Y-69435300D02*
X83293333Y-69401966D01*
X83293333Y-69401966D02*
X83259999Y-69335300D01*
X83259999Y-69335300D02*
X83226666Y-69201966D01*
X83226666Y-69201966D02*
X83226666Y-69035300D01*
X83226666Y-69035300D02*
X83259999Y-68901966D01*
X83259999Y-68901966D02*
X83293333Y-68835300D01*
X83293333Y-68835300D02*
X83326666Y-68801966D01*
X83326666Y-68801966D02*
X83393333Y-68768633D01*
X84060000Y-68768633D02*
X84126666Y-68768633D01*
X84126666Y-68768633D02*
X84193333Y-68801966D01*
X84193333Y-68801966D02*
X84226666Y-68835300D01*
X84226666Y-68835300D02*
X84260000Y-68901966D01*
X84260000Y-68901966D02*
X84293333Y-69035300D01*
X84293333Y-69035300D02*
X84293333Y-69201966D01*
X84293333Y-69201966D02*
X84260000Y-69335300D01*
X84260000Y-69335300D02*
X84226666Y-69401966D01*
X84226666Y-69401966D02*
X84193333Y-69435300D01*
X84193333Y-69435300D02*
X84126666Y-69468633D01*
X84126666Y-69468633D02*
X84060000Y-69468633D01*
X84060000Y-69468633D02*
X83993333Y-69435300D01*
X83993333Y-69435300D02*
X83960000Y-69401966D01*
X83960000Y-69401966D02*
X83926666Y-69335300D01*
X83926666Y-69335300D02*
X83893333Y-69201966D01*
X83893333Y-69201966D02*
X83893333Y-69035300D01*
X83893333Y-69035300D02*
X83926666Y-68901966D01*
X83926666Y-68901966D02*
X83960000Y-68835300D01*
X83960000Y-68835300D02*
X83993333Y-68801966D01*
X83993333Y-68801966D02*
X84060000Y-68768633D01*
X84593333Y-69468633D02*
X84593333Y-68768633D01*
X84660000Y-69201966D02*
X84860000Y-69468633D01*
X84860000Y-69001966D02*
X84593333Y-69268633D01*
X80333333Y-65628633D02*
X80100000Y-65295300D01*
X79933333Y-65628633D02*
X79933333Y-64928633D01*
X79933333Y-64928633D02*
X80200000Y-64928633D01*
X80200000Y-64928633D02*
X80266667Y-64961966D01*
X80266667Y-64961966D02*
X80300000Y-64995300D01*
X80300000Y-64995300D02*
X80333333Y-65061966D01*
X80333333Y-65061966D02*
X80333333Y-65161966D01*
X80333333Y-65161966D02*
X80300000Y-65228633D01*
X80300000Y-65228633D02*
X80266667Y-65261966D01*
X80266667Y-65261966D02*
X80200000Y-65295300D01*
X80200000Y-65295300D02*
X79933333Y-65295300D01*
X80566667Y-64928633D02*
X81033333Y-64928633D01*
X81033333Y-64928633D02*
X80733333Y-65628633D01*
X82953333Y-66038633D02*
X83419999Y-66038633D01*
X83419999Y-66038633D02*
X83119999Y-66738633D01*
X83686666Y-66671966D02*
X83720000Y-66705300D01*
X83720000Y-66705300D02*
X83686666Y-66738633D01*
X83686666Y-66738633D02*
X83653333Y-66705300D01*
X83653333Y-66705300D02*
X83686666Y-66671966D01*
X83686666Y-66671966D02*
X83686666Y-66738633D01*
X84353333Y-66038633D02*
X84019999Y-66038633D01*
X84019999Y-66038633D02*
X83986666Y-66371966D01*
X83986666Y-66371966D02*
X84019999Y-66338633D01*
X84019999Y-66338633D02*
X84086666Y-66305300D01*
X84086666Y-66305300D02*
X84253333Y-66305300D01*
X84253333Y-66305300D02*
X84319999Y-66338633D01*
X84319999Y-66338633D02*
X84353333Y-66371966D01*
X84353333Y-66371966D02*
X84386666Y-66438633D01*
X84386666Y-66438633D02*
X84386666Y-66605300D01*
X84386666Y-66605300D02*
X84353333Y-66671966D01*
X84353333Y-66671966D02*
X84319999Y-66705300D01*
X84319999Y-66705300D02*
X84253333Y-66738633D01*
X84253333Y-66738633D02*
X84086666Y-66738633D01*
X84086666Y-66738633D02*
X84019999Y-66705300D01*
X84019999Y-66705300D02*
X83986666Y-66671966D01*
X84686666Y-66738633D02*
X84686666Y-66038633D01*
X84753333Y-66471966D02*
X84953333Y-66738633D01*
X84953333Y-66271966D02*
X84686666Y-66538633D01*
X99113333Y-67168633D02*
X98880000Y-66835300D01*
X98713333Y-67168633D02*
X98713333Y-66468633D01*
X98713333Y-66468633D02*
X98980000Y-66468633D01*
X98980000Y-66468633D02*
X99046667Y-66501966D01*
X99046667Y-66501966D02*
X99080000Y-66535300D01*
X99080000Y-66535300D02*
X99113333Y-66601966D01*
X99113333Y-66601966D02*
X99113333Y-66701966D01*
X99113333Y-66701966D02*
X99080000Y-66768633D01*
X99080000Y-66768633D02*
X99046667Y-66801966D01*
X99046667Y-66801966D02*
X98980000Y-66835300D01*
X98980000Y-66835300D02*
X98713333Y-66835300D01*
X99713333Y-66468633D02*
X99580000Y-66468633D01*
X99580000Y-66468633D02*
X99513333Y-66501966D01*
X99513333Y-66501966D02*
X99480000Y-66535300D01*
X99480000Y-66535300D02*
X99413333Y-66635300D01*
X99413333Y-66635300D02*
X99380000Y-66768633D01*
X99380000Y-66768633D02*
X99380000Y-67035300D01*
X99380000Y-67035300D02*
X99413333Y-67101966D01*
X99413333Y-67101966D02*
X99446667Y-67135300D01*
X99446667Y-67135300D02*
X99513333Y-67168633D01*
X99513333Y-67168633D02*
X99646667Y-67168633D01*
X99646667Y-67168633D02*
X99713333Y-67135300D01*
X99713333Y-67135300D02*
X99746667Y-67101966D01*
X99746667Y-67101966D02*
X99780000Y-67035300D01*
X99780000Y-67035300D02*
X99780000Y-66868633D01*
X99780000Y-66868633D02*
X99746667Y-66801966D01*
X99746667Y-66801966D02*
X99713333Y-66768633D01*
X99713333Y-66768633D02*
X99646667Y-66735300D01*
X99646667Y-66735300D02*
X99513333Y-66735300D01*
X99513333Y-66735300D02*
X99446667Y-66768633D01*
X99446667Y-66768633D02*
X99413333Y-66801966D01*
X99413333Y-66801966D02*
X99380000Y-66868633D01*
X102026666Y-68308633D02*
X101626666Y-68308633D01*
X101826666Y-68308633D02*
X101826666Y-67608633D01*
X101826666Y-67608633D02*
X101759999Y-67708633D01*
X101759999Y-67708633D02*
X101693333Y-67775300D01*
X101693333Y-67775300D02*
X101626666Y-67808633D01*
X102326666Y-68308633D02*
X102326666Y-67608633D01*
X102726666Y-68308633D02*
X102426666Y-67908633D01*
X102726666Y-67608633D02*
X102326666Y-68008633D01*
X102993333Y-67675300D02*
X103026666Y-67641966D01*
X103026666Y-67641966D02*
X103093333Y-67608633D01*
X103093333Y-67608633D02*
X103260000Y-67608633D01*
X103260000Y-67608633D02*
X103326666Y-67641966D01*
X103326666Y-67641966D02*
X103360000Y-67675300D01*
X103360000Y-67675300D02*
X103393333Y-67741966D01*
X103393333Y-67741966D02*
X103393333Y-67808633D01*
X103393333Y-67808633D02*
X103360000Y-67908633D01*
X103360000Y-67908633D02*
X102960000Y-68308633D01*
X102960000Y-68308633D02*
X103393333Y-68308633D01*
X99603333Y-84378633D02*
X99370000Y-84045300D01*
X99203333Y-84378633D02*
X99203333Y-83678633D01*
X99203333Y-83678633D02*
X99470000Y-83678633D01*
X99470000Y-83678633D02*
X99536667Y-83711966D01*
X99536667Y-83711966D02*
X99570000Y-83745300D01*
X99570000Y-83745300D02*
X99603333Y-83811966D01*
X99603333Y-83811966D02*
X99603333Y-83911966D01*
X99603333Y-83911966D02*
X99570000Y-83978633D01*
X99570000Y-83978633D02*
X99536667Y-84011966D01*
X99536667Y-84011966D02*
X99470000Y-84045300D01*
X99470000Y-84045300D02*
X99203333Y-84045300D01*
X100236667Y-83678633D02*
X99903333Y-83678633D01*
X99903333Y-83678633D02*
X99870000Y-84011966D01*
X99870000Y-84011966D02*
X99903333Y-83978633D01*
X99903333Y-83978633D02*
X99970000Y-83945300D01*
X99970000Y-83945300D02*
X100136667Y-83945300D01*
X100136667Y-83945300D02*
X100203333Y-83978633D01*
X100203333Y-83978633D02*
X100236667Y-84011966D01*
X100236667Y-84011966D02*
X100270000Y-84078633D01*
X100270000Y-84078633D02*
X100270000Y-84245300D01*
X100270000Y-84245300D02*
X100236667Y-84311966D01*
X100236667Y-84311966D02*
X100203333Y-84345300D01*
X100203333Y-84345300D02*
X100136667Y-84378633D01*
X100136667Y-84378633D02*
X99970000Y-84378633D01*
X99970000Y-84378633D02*
X99903333Y-84345300D01*
X99903333Y-84345300D02*
X99870000Y-84311966D01*
X102403333Y-86058633D02*
X102003333Y-86058633D01*
X102203333Y-86058633D02*
X102203333Y-85358633D01*
X102203333Y-85358633D02*
X102136666Y-85458633D01*
X102136666Y-85458633D02*
X102070000Y-85525300D01*
X102070000Y-85525300D02*
X102003333Y-85558633D01*
X102836667Y-85358633D02*
X102903333Y-85358633D01*
X102903333Y-85358633D02*
X102970000Y-85391966D01*
X102970000Y-85391966D02*
X103003333Y-85425300D01*
X103003333Y-85425300D02*
X103036667Y-85491966D01*
X103036667Y-85491966D02*
X103070000Y-85625300D01*
X103070000Y-85625300D02*
X103070000Y-85791966D01*
X103070000Y-85791966D02*
X103036667Y-85925300D01*
X103036667Y-85925300D02*
X103003333Y-85991966D01*
X103003333Y-85991966D02*
X102970000Y-86025300D01*
X102970000Y-86025300D02*
X102903333Y-86058633D01*
X102903333Y-86058633D02*
X102836667Y-86058633D01*
X102836667Y-86058633D02*
X102770000Y-86025300D01*
X102770000Y-86025300D02*
X102736667Y-85991966D01*
X102736667Y-85991966D02*
X102703333Y-85925300D01*
X102703333Y-85925300D02*
X102670000Y-85791966D01*
X102670000Y-85791966D02*
X102670000Y-85625300D01*
X102670000Y-85625300D02*
X102703333Y-85491966D01*
X102703333Y-85491966D02*
X102736667Y-85425300D01*
X102736667Y-85425300D02*
X102770000Y-85391966D01*
X102770000Y-85391966D02*
X102836667Y-85358633D01*
X103503334Y-85358633D02*
X103570000Y-85358633D01*
X103570000Y-85358633D02*
X103636667Y-85391966D01*
X103636667Y-85391966D02*
X103670000Y-85425300D01*
X103670000Y-85425300D02*
X103703334Y-85491966D01*
X103703334Y-85491966D02*
X103736667Y-85625300D01*
X103736667Y-85625300D02*
X103736667Y-85791966D01*
X103736667Y-85791966D02*
X103703334Y-85925300D01*
X103703334Y-85925300D02*
X103670000Y-85991966D01*
X103670000Y-85991966D02*
X103636667Y-86025300D01*
X103636667Y-86025300D02*
X103570000Y-86058633D01*
X103570000Y-86058633D02*
X103503334Y-86058633D01*
X103503334Y-86058633D02*
X103436667Y-86025300D01*
X103436667Y-86025300D02*
X103403334Y-85991966D01*
X103403334Y-85991966D02*
X103370000Y-85925300D01*
X103370000Y-85925300D02*
X103336667Y-85791966D01*
X103336667Y-85791966D02*
X103336667Y-85625300D01*
X103336667Y-85625300D02*
X103370000Y-85491966D01*
X103370000Y-85491966D02*
X103403334Y-85425300D01*
X103403334Y-85425300D02*
X103436667Y-85391966D01*
X103436667Y-85391966D02*
X103503334Y-85358633D01*
X99673333Y-70738633D02*
X99440000Y-70405300D01*
X99273333Y-70738633D02*
X99273333Y-70038633D01*
X99273333Y-70038633D02*
X99540000Y-70038633D01*
X99540000Y-70038633D02*
X99606667Y-70071966D01*
X99606667Y-70071966D02*
X99640000Y-70105300D01*
X99640000Y-70105300D02*
X99673333Y-70171966D01*
X99673333Y-70171966D02*
X99673333Y-70271966D01*
X99673333Y-70271966D02*
X99640000Y-70338633D01*
X99640000Y-70338633D02*
X99606667Y-70371966D01*
X99606667Y-70371966D02*
X99540000Y-70405300D01*
X99540000Y-70405300D02*
X99273333Y-70405300D01*
X100273333Y-70271966D02*
X100273333Y-70738633D01*
X100106667Y-70005300D02*
X99940000Y-70505300D01*
X99940000Y-70505300D02*
X100373333Y-70505300D01*
X101933333Y-71738633D02*
X101533333Y-71738633D01*
X101733333Y-71738633D02*
X101733333Y-71038633D01*
X101733333Y-71038633D02*
X101666666Y-71138633D01*
X101666666Y-71138633D02*
X101600000Y-71205300D01*
X101600000Y-71205300D02*
X101533333Y-71238633D01*
X102200000Y-71105300D02*
X102233333Y-71071966D01*
X102233333Y-71071966D02*
X102300000Y-71038633D01*
X102300000Y-71038633D02*
X102466667Y-71038633D01*
X102466667Y-71038633D02*
X102533333Y-71071966D01*
X102533333Y-71071966D02*
X102566667Y-71105300D01*
X102566667Y-71105300D02*
X102600000Y-71171966D01*
X102600000Y-71171966D02*
X102600000Y-71238633D01*
X102600000Y-71238633D02*
X102566667Y-71338633D01*
X102566667Y-71338633D02*
X102166667Y-71738633D01*
X102166667Y-71738633D02*
X102600000Y-71738633D01*
X102900000Y-71738633D02*
X102900000Y-71038633D01*
X102966667Y-71471966D02*
X103166667Y-71738633D01*
X103166667Y-71271966D02*
X102900000Y-71538633D01*
X99963333Y-81708633D02*
X99730000Y-81375300D01*
X99563333Y-81708633D02*
X99563333Y-81008633D01*
X99563333Y-81008633D02*
X99830000Y-81008633D01*
X99830000Y-81008633D02*
X99896667Y-81041966D01*
X99896667Y-81041966D02*
X99930000Y-81075300D01*
X99930000Y-81075300D02*
X99963333Y-81141966D01*
X99963333Y-81141966D02*
X99963333Y-81241966D01*
X99963333Y-81241966D02*
X99930000Y-81308633D01*
X99930000Y-81308633D02*
X99896667Y-81341966D01*
X99896667Y-81341966D02*
X99830000Y-81375300D01*
X99830000Y-81375300D02*
X99563333Y-81375300D01*
X100196667Y-81008633D02*
X100630000Y-81008633D01*
X100630000Y-81008633D02*
X100396667Y-81275300D01*
X100396667Y-81275300D02*
X100496667Y-81275300D01*
X100496667Y-81275300D02*
X100563333Y-81308633D01*
X100563333Y-81308633D02*
X100596667Y-81341966D01*
X100596667Y-81341966D02*
X100630000Y-81408633D01*
X100630000Y-81408633D02*
X100630000Y-81575300D01*
X100630000Y-81575300D02*
X100596667Y-81641966D01*
X100596667Y-81641966D02*
X100563333Y-81675300D01*
X100563333Y-81675300D02*
X100496667Y-81708633D01*
X100496667Y-81708633D02*
X100296667Y-81708633D01*
X100296667Y-81708633D02*
X100230000Y-81675300D01*
X100230000Y-81675300D02*
X100196667Y-81641966D01*
X101863332Y-82241966D02*
X101863332Y-82708633D01*
X101696666Y-81975300D02*
X101529999Y-82475300D01*
X101529999Y-82475300D02*
X101963332Y-82475300D01*
X102163333Y-82008633D02*
X102629999Y-82008633D01*
X102629999Y-82008633D02*
X102329999Y-82708633D01*
X103030000Y-82008633D02*
X103096666Y-82008633D01*
X103096666Y-82008633D02*
X103163333Y-82041966D01*
X103163333Y-82041966D02*
X103196666Y-82075300D01*
X103196666Y-82075300D02*
X103230000Y-82141966D01*
X103230000Y-82141966D02*
X103263333Y-82275300D01*
X103263333Y-82275300D02*
X103263333Y-82441966D01*
X103263333Y-82441966D02*
X103230000Y-82575300D01*
X103230000Y-82575300D02*
X103196666Y-82641966D01*
X103196666Y-82641966D02*
X103163333Y-82675300D01*
X103163333Y-82675300D02*
X103096666Y-82708633D01*
X103096666Y-82708633D02*
X103030000Y-82708633D01*
X103030000Y-82708633D02*
X102963333Y-82675300D01*
X102963333Y-82675300D02*
X102930000Y-82641966D01*
X102930000Y-82641966D02*
X102896666Y-82575300D01*
X102896666Y-82575300D02*
X102863333Y-82441966D01*
X102863333Y-82441966D02*
X102863333Y-82275300D01*
X102863333Y-82275300D02*
X102896666Y-82141966D01*
X102896666Y-82141966D02*
X102930000Y-82075300D01*
X102930000Y-82075300D02*
X102963333Y-82041966D01*
X102963333Y-82041966D02*
X103030000Y-82008633D01*
X103563333Y-82708633D02*
X103563333Y-82008633D01*
X103630000Y-82441966D02*
X103830000Y-82708633D01*
X103830000Y-82241966D02*
X103563333Y-82508633D01*
X99573333Y-87918633D02*
X99340000Y-87585300D01*
X99173333Y-87918633D02*
X99173333Y-87218633D01*
X99173333Y-87218633D02*
X99440000Y-87218633D01*
X99440000Y-87218633D02*
X99506667Y-87251966D01*
X99506667Y-87251966D02*
X99540000Y-87285300D01*
X99540000Y-87285300D02*
X99573333Y-87351966D01*
X99573333Y-87351966D02*
X99573333Y-87451966D01*
X99573333Y-87451966D02*
X99540000Y-87518633D01*
X99540000Y-87518633D02*
X99506667Y-87551966D01*
X99506667Y-87551966D02*
X99440000Y-87585300D01*
X99440000Y-87585300D02*
X99173333Y-87585300D01*
X99840000Y-87285300D02*
X99873333Y-87251966D01*
X99873333Y-87251966D02*
X99940000Y-87218633D01*
X99940000Y-87218633D02*
X100106667Y-87218633D01*
X100106667Y-87218633D02*
X100173333Y-87251966D01*
X100173333Y-87251966D02*
X100206667Y-87285300D01*
X100206667Y-87285300D02*
X100240000Y-87351966D01*
X100240000Y-87351966D02*
X100240000Y-87418633D01*
X100240000Y-87418633D02*
X100206667Y-87518633D01*
X100206667Y-87518633D02*
X99806667Y-87918633D01*
X99806667Y-87918633D02*
X100240000Y-87918633D01*
X101769999Y-89008633D02*
X101369999Y-89008633D01*
X101569999Y-89008633D02*
X101569999Y-88308633D01*
X101569999Y-88308633D02*
X101503332Y-88408633D01*
X101503332Y-88408633D02*
X101436666Y-88475300D01*
X101436666Y-88475300D02*
X101369999Y-88508633D01*
X102203333Y-88308633D02*
X102269999Y-88308633D01*
X102269999Y-88308633D02*
X102336666Y-88341966D01*
X102336666Y-88341966D02*
X102369999Y-88375300D01*
X102369999Y-88375300D02*
X102403333Y-88441966D01*
X102403333Y-88441966D02*
X102436666Y-88575300D01*
X102436666Y-88575300D02*
X102436666Y-88741966D01*
X102436666Y-88741966D02*
X102403333Y-88875300D01*
X102403333Y-88875300D02*
X102369999Y-88941966D01*
X102369999Y-88941966D02*
X102336666Y-88975300D01*
X102336666Y-88975300D02*
X102269999Y-89008633D01*
X102269999Y-89008633D02*
X102203333Y-89008633D01*
X102203333Y-89008633D02*
X102136666Y-88975300D01*
X102136666Y-88975300D02*
X102103333Y-88941966D01*
X102103333Y-88941966D02*
X102069999Y-88875300D01*
X102069999Y-88875300D02*
X102036666Y-88741966D01*
X102036666Y-88741966D02*
X102036666Y-88575300D01*
X102036666Y-88575300D02*
X102069999Y-88441966D01*
X102069999Y-88441966D02*
X102103333Y-88375300D01*
X102103333Y-88375300D02*
X102136666Y-88341966D01*
X102136666Y-88341966D02*
X102203333Y-88308633D01*
X102870000Y-88308633D02*
X102936666Y-88308633D01*
X102936666Y-88308633D02*
X103003333Y-88341966D01*
X103003333Y-88341966D02*
X103036666Y-88375300D01*
X103036666Y-88375300D02*
X103070000Y-88441966D01*
X103070000Y-88441966D02*
X103103333Y-88575300D01*
X103103333Y-88575300D02*
X103103333Y-88741966D01*
X103103333Y-88741966D02*
X103070000Y-88875300D01*
X103070000Y-88875300D02*
X103036666Y-88941966D01*
X103036666Y-88941966D02*
X103003333Y-88975300D01*
X103003333Y-88975300D02*
X102936666Y-89008633D01*
X102936666Y-89008633D02*
X102870000Y-89008633D01*
X102870000Y-89008633D02*
X102803333Y-88975300D01*
X102803333Y-88975300D02*
X102770000Y-88941966D01*
X102770000Y-88941966D02*
X102736666Y-88875300D01*
X102736666Y-88875300D02*
X102703333Y-88741966D01*
X102703333Y-88741966D02*
X102703333Y-88575300D01*
X102703333Y-88575300D02*
X102736666Y-88441966D01*
X102736666Y-88441966D02*
X102770000Y-88375300D01*
X102770000Y-88375300D02*
X102803333Y-88341966D01*
X102803333Y-88341966D02*
X102870000Y-88308633D01*
X103403333Y-89008633D02*
X103403333Y-88308633D01*
X103470000Y-88741966D02*
X103670000Y-89008633D01*
X103670000Y-88541966D02*
X103403333Y-88808633D01*
X99383333Y-91268633D02*
X99150000Y-90935300D01*
X98983333Y-91268633D02*
X98983333Y-90568633D01*
X98983333Y-90568633D02*
X99250000Y-90568633D01*
X99250000Y-90568633D02*
X99316667Y-90601966D01*
X99316667Y-90601966D02*
X99350000Y-90635300D01*
X99350000Y-90635300D02*
X99383333Y-90701966D01*
X99383333Y-90701966D02*
X99383333Y-90801966D01*
X99383333Y-90801966D02*
X99350000Y-90868633D01*
X99350000Y-90868633D02*
X99316667Y-90901966D01*
X99316667Y-90901966D02*
X99250000Y-90935300D01*
X99250000Y-90935300D02*
X98983333Y-90935300D01*
X100050000Y-91268633D02*
X99650000Y-91268633D01*
X99850000Y-91268633D02*
X99850000Y-90568633D01*
X99850000Y-90568633D02*
X99783333Y-90668633D01*
X99783333Y-90668633D02*
X99716667Y-90735300D01*
X99716667Y-90735300D02*
X99650000Y-90768633D01*
X101700000Y-91528633D02*
X102133333Y-91528633D01*
X102133333Y-91528633D02*
X101900000Y-91795300D01*
X101900000Y-91795300D02*
X102000000Y-91795300D01*
X102000000Y-91795300D02*
X102066666Y-91828633D01*
X102066666Y-91828633D02*
X102100000Y-91861966D01*
X102100000Y-91861966D02*
X102133333Y-91928633D01*
X102133333Y-91928633D02*
X102133333Y-92095300D01*
X102133333Y-92095300D02*
X102100000Y-92161966D01*
X102100000Y-92161966D02*
X102066666Y-92195300D01*
X102066666Y-92195300D02*
X102000000Y-92228633D01*
X102000000Y-92228633D02*
X101800000Y-92228633D01*
X101800000Y-92228633D02*
X101733333Y-92195300D01*
X101733333Y-92195300D02*
X101700000Y-92161966D01*
X102366667Y-91528633D02*
X102800000Y-91528633D01*
X102800000Y-91528633D02*
X102566667Y-91795300D01*
X102566667Y-91795300D02*
X102666667Y-91795300D01*
X102666667Y-91795300D02*
X102733333Y-91828633D01*
X102733333Y-91828633D02*
X102766667Y-91861966D01*
X102766667Y-91861966D02*
X102800000Y-91928633D01*
X102800000Y-91928633D02*
X102800000Y-92095300D01*
X102800000Y-92095300D02*
X102766667Y-92161966D01*
X102766667Y-92161966D02*
X102733333Y-92195300D01*
X102733333Y-92195300D02*
X102666667Y-92228633D01*
X102666667Y-92228633D02*
X102466667Y-92228633D01*
X102466667Y-92228633D02*
X102400000Y-92195300D01*
X102400000Y-92195300D02*
X102366667Y-92161966D01*
X103100000Y-92228633D02*
X103100000Y-91528633D01*
X103166667Y-91961966D02*
X103366667Y-92228633D01*
X103366667Y-91761966D02*
X103100000Y-92028633D01*
X65483333Y-88105300D02*
X65416666Y-88071966D01*
X65416666Y-88071966D02*
X65350000Y-88005300D01*
X65350000Y-88005300D02*
X65250000Y-87905300D01*
X65250000Y-87905300D02*
X65183333Y-87871966D01*
X65183333Y-87871966D02*
X65116666Y-87871966D01*
X65150000Y-88038633D02*
X65083333Y-88005300D01*
X65083333Y-88005300D02*
X65016666Y-87938633D01*
X65016666Y-87938633D02*
X64983333Y-87805300D01*
X64983333Y-87805300D02*
X64983333Y-87571966D01*
X64983333Y-87571966D02*
X65016666Y-87438633D01*
X65016666Y-87438633D02*
X65083333Y-87371966D01*
X65083333Y-87371966D02*
X65150000Y-87338633D01*
X65150000Y-87338633D02*
X65283333Y-87338633D01*
X65283333Y-87338633D02*
X65350000Y-87371966D01*
X65350000Y-87371966D02*
X65416666Y-87438633D01*
X65416666Y-87438633D02*
X65450000Y-87571966D01*
X65450000Y-87571966D02*
X65450000Y-87805300D01*
X65450000Y-87805300D02*
X65416666Y-87938633D01*
X65416666Y-87938633D02*
X65350000Y-88005300D01*
X65350000Y-88005300D02*
X65283333Y-88038633D01*
X65283333Y-88038633D02*
X65150000Y-88038633D01*
X66049999Y-87571966D02*
X66049999Y-88038633D01*
X65883333Y-87305300D02*
X65716666Y-87805300D01*
X65716666Y-87805300D02*
X66149999Y-87805300D01*
X63269999Y-90135300D02*
X63303332Y-90101966D01*
X63303332Y-90101966D02*
X63369999Y-90068633D01*
X63369999Y-90068633D02*
X63536666Y-90068633D01*
X63536666Y-90068633D02*
X63603332Y-90101966D01*
X63603332Y-90101966D02*
X63636666Y-90135300D01*
X63636666Y-90135300D02*
X63669999Y-90201966D01*
X63669999Y-90201966D02*
X63669999Y-90268633D01*
X63669999Y-90268633D02*
X63636666Y-90368633D01*
X63636666Y-90368633D02*
X63236666Y-90768633D01*
X63236666Y-90768633D02*
X63669999Y-90768633D01*
X63969999Y-90768633D02*
X63969999Y-90068633D01*
X63969999Y-90068633D02*
X64369999Y-90768633D01*
X64369999Y-90768633D02*
X64369999Y-90068633D01*
X65036666Y-90068633D02*
X64703332Y-90068633D01*
X64703332Y-90068633D02*
X64669999Y-90401966D01*
X64669999Y-90401966D02*
X64703332Y-90368633D01*
X64703332Y-90368633D02*
X64769999Y-90335300D01*
X64769999Y-90335300D02*
X64936666Y-90335300D01*
X64936666Y-90335300D02*
X65003332Y-90368633D01*
X65003332Y-90368633D02*
X65036666Y-90401966D01*
X65036666Y-90401966D02*
X65069999Y-90468633D01*
X65069999Y-90468633D02*
X65069999Y-90635300D01*
X65069999Y-90635300D02*
X65036666Y-90701966D01*
X65036666Y-90701966D02*
X65003332Y-90735300D01*
X65003332Y-90735300D02*
X64936666Y-90768633D01*
X64936666Y-90768633D02*
X64769999Y-90768633D01*
X64769999Y-90768633D02*
X64703332Y-90735300D01*
X64703332Y-90735300D02*
X64669999Y-90701966D01*
X65503333Y-90068633D02*
X65569999Y-90068633D01*
X65569999Y-90068633D02*
X65636666Y-90101966D01*
X65636666Y-90101966D02*
X65669999Y-90135300D01*
X65669999Y-90135300D02*
X65703333Y-90201966D01*
X65703333Y-90201966D02*
X65736666Y-90335300D01*
X65736666Y-90335300D02*
X65736666Y-90501966D01*
X65736666Y-90501966D02*
X65703333Y-90635300D01*
X65703333Y-90635300D02*
X65669999Y-90701966D01*
X65669999Y-90701966D02*
X65636666Y-90735300D01*
X65636666Y-90735300D02*
X65569999Y-90768633D01*
X65569999Y-90768633D02*
X65503333Y-90768633D01*
X65503333Y-90768633D02*
X65436666Y-90735300D01*
X65436666Y-90735300D02*
X65403333Y-90701966D01*
X65403333Y-90701966D02*
X65369999Y-90635300D01*
X65369999Y-90635300D02*
X65336666Y-90501966D01*
X65336666Y-90501966D02*
X65336666Y-90335300D01*
X65336666Y-90335300D02*
X65369999Y-90201966D01*
X65369999Y-90201966D02*
X65403333Y-90135300D01*
X65403333Y-90135300D02*
X65436666Y-90101966D01*
X65436666Y-90101966D02*
X65503333Y-90068633D01*
X66136666Y-90368633D02*
X66070000Y-90335300D01*
X66070000Y-90335300D02*
X66036666Y-90301966D01*
X66036666Y-90301966D02*
X66003333Y-90235300D01*
X66003333Y-90235300D02*
X66003333Y-90201966D01*
X66003333Y-90201966D02*
X66036666Y-90135300D01*
X66036666Y-90135300D02*
X66070000Y-90101966D01*
X66070000Y-90101966D02*
X66136666Y-90068633D01*
X66136666Y-90068633D02*
X66270000Y-90068633D01*
X66270000Y-90068633D02*
X66336666Y-90101966D01*
X66336666Y-90101966D02*
X66370000Y-90135300D01*
X66370000Y-90135300D02*
X66403333Y-90201966D01*
X66403333Y-90201966D02*
X66403333Y-90235300D01*
X66403333Y-90235300D02*
X66370000Y-90301966D01*
X66370000Y-90301966D02*
X66336666Y-90335300D01*
X66336666Y-90335300D02*
X66270000Y-90368633D01*
X66270000Y-90368633D02*
X66136666Y-90368633D01*
X66136666Y-90368633D02*
X66070000Y-90401966D01*
X66070000Y-90401966D02*
X66036666Y-90435300D01*
X66036666Y-90435300D02*
X66003333Y-90501966D01*
X66003333Y-90501966D02*
X66003333Y-90635300D01*
X66003333Y-90635300D02*
X66036666Y-90701966D01*
X66036666Y-90701966D02*
X66070000Y-90735300D01*
X66070000Y-90735300D02*
X66136666Y-90768633D01*
X66136666Y-90768633D02*
X66270000Y-90768633D01*
X66270000Y-90768633D02*
X66336666Y-90735300D01*
X66336666Y-90735300D02*
X66370000Y-90701966D01*
X66370000Y-90701966D02*
X66403333Y-90635300D01*
X66403333Y-90635300D02*
X66403333Y-90501966D01*
X66403333Y-90501966D02*
X66370000Y-90435300D01*
X66370000Y-90435300D02*
X66336666Y-90401966D01*
X66336666Y-90401966D02*
X66270000Y-90368633D01*
X66736667Y-90768633D02*
X66870000Y-90768633D01*
X66870000Y-90768633D02*
X66936667Y-90735300D01*
X66936667Y-90735300D02*
X66970000Y-90701966D01*
X66970000Y-90701966D02*
X67036667Y-90601966D01*
X67036667Y-90601966D02*
X67070000Y-90468633D01*
X67070000Y-90468633D02*
X67070000Y-90201966D01*
X67070000Y-90201966D02*
X67036667Y-90135300D01*
X67036667Y-90135300D02*
X67003333Y-90101966D01*
X67003333Y-90101966D02*
X66936667Y-90068633D01*
X66936667Y-90068633D02*
X66803333Y-90068633D01*
X66803333Y-90068633D02*
X66736667Y-90101966D01*
X66736667Y-90101966D02*
X66703333Y-90135300D01*
X66703333Y-90135300D02*
X66670000Y-90201966D01*
X66670000Y-90201966D02*
X66670000Y-90368633D01*
X66670000Y-90368633D02*
X66703333Y-90435300D01*
X66703333Y-90435300D02*
X66736667Y-90468633D01*
X66736667Y-90468633D02*
X66803333Y-90501966D01*
X66803333Y-90501966D02*
X66936667Y-90501966D01*
X66936667Y-90501966D02*
X67003333Y-90468633D01*
X67003333Y-90468633D02*
X67036667Y-90435300D01*
X67036667Y-90435300D02*
X67070000Y-90368633D01*
X88663333Y-60305300D02*
X88596666Y-60271966D01*
X88596666Y-60271966D02*
X88530000Y-60205300D01*
X88530000Y-60205300D02*
X88430000Y-60105300D01*
X88430000Y-60105300D02*
X88363333Y-60071966D01*
X88363333Y-60071966D02*
X88296666Y-60071966D01*
X88330000Y-60238633D02*
X88263333Y-60205300D01*
X88263333Y-60205300D02*
X88196666Y-60138633D01*
X88196666Y-60138633D02*
X88163333Y-60005300D01*
X88163333Y-60005300D02*
X88163333Y-59771966D01*
X88163333Y-59771966D02*
X88196666Y-59638633D01*
X88196666Y-59638633D02*
X88263333Y-59571966D01*
X88263333Y-59571966D02*
X88330000Y-59538633D01*
X88330000Y-59538633D02*
X88463333Y-59538633D01*
X88463333Y-59538633D02*
X88530000Y-59571966D01*
X88530000Y-59571966D02*
X88596666Y-59638633D01*
X88596666Y-59638633D02*
X88630000Y-59771966D01*
X88630000Y-59771966D02*
X88630000Y-60005300D01*
X88630000Y-60005300D02*
X88596666Y-60138633D01*
X88596666Y-60138633D02*
X88530000Y-60205300D01*
X88530000Y-60205300D02*
X88463333Y-60238633D01*
X88463333Y-60238633D02*
X88330000Y-60238633D01*
X88896666Y-59605300D02*
X88929999Y-59571966D01*
X88929999Y-59571966D02*
X88996666Y-59538633D01*
X88996666Y-59538633D02*
X89163333Y-59538633D01*
X89163333Y-59538633D02*
X89229999Y-59571966D01*
X89229999Y-59571966D02*
X89263333Y-59605300D01*
X89263333Y-59605300D02*
X89296666Y-59671966D01*
X89296666Y-59671966D02*
X89296666Y-59738633D01*
X89296666Y-59738633D02*
X89263333Y-59838633D01*
X89263333Y-59838633D02*
X88863333Y-60238633D01*
X88863333Y-60238633D02*
X89296666Y-60238633D01*
X86699999Y-62425300D02*
X86733332Y-62391966D01*
X86733332Y-62391966D02*
X86799999Y-62358633D01*
X86799999Y-62358633D02*
X86966666Y-62358633D01*
X86966666Y-62358633D02*
X87033332Y-62391966D01*
X87033332Y-62391966D02*
X87066666Y-62425300D01*
X87066666Y-62425300D02*
X87099999Y-62491966D01*
X87099999Y-62491966D02*
X87099999Y-62558633D01*
X87099999Y-62558633D02*
X87066666Y-62658633D01*
X87066666Y-62658633D02*
X86666666Y-63058633D01*
X86666666Y-63058633D02*
X87099999Y-63058633D01*
X87399999Y-63058633D02*
X87399999Y-62358633D01*
X87399999Y-62358633D02*
X87799999Y-63058633D01*
X87799999Y-63058633D02*
X87799999Y-62358633D01*
X88466666Y-62358633D02*
X88133332Y-62358633D01*
X88133332Y-62358633D02*
X88099999Y-62691966D01*
X88099999Y-62691966D02*
X88133332Y-62658633D01*
X88133332Y-62658633D02*
X88199999Y-62625300D01*
X88199999Y-62625300D02*
X88366666Y-62625300D01*
X88366666Y-62625300D02*
X88433332Y-62658633D01*
X88433332Y-62658633D02*
X88466666Y-62691966D01*
X88466666Y-62691966D02*
X88499999Y-62758633D01*
X88499999Y-62758633D02*
X88499999Y-62925300D01*
X88499999Y-62925300D02*
X88466666Y-62991966D01*
X88466666Y-62991966D02*
X88433332Y-63025300D01*
X88433332Y-63025300D02*
X88366666Y-63058633D01*
X88366666Y-63058633D02*
X88199999Y-63058633D01*
X88199999Y-63058633D02*
X88133332Y-63025300D01*
X88133332Y-63025300D02*
X88099999Y-62991966D01*
X88933333Y-62358633D02*
X88999999Y-62358633D01*
X88999999Y-62358633D02*
X89066666Y-62391966D01*
X89066666Y-62391966D02*
X89099999Y-62425300D01*
X89099999Y-62425300D02*
X89133333Y-62491966D01*
X89133333Y-62491966D02*
X89166666Y-62625300D01*
X89166666Y-62625300D02*
X89166666Y-62791966D01*
X89166666Y-62791966D02*
X89133333Y-62925300D01*
X89133333Y-62925300D02*
X89099999Y-62991966D01*
X89099999Y-62991966D02*
X89066666Y-63025300D01*
X89066666Y-63025300D02*
X88999999Y-63058633D01*
X88999999Y-63058633D02*
X88933333Y-63058633D01*
X88933333Y-63058633D02*
X88866666Y-63025300D01*
X88866666Y-63025300D02*
X88833333Y-62991966D01*
X88833333Y-62991966D02*
X88799999Y-62925300D01*
X88799999Y-62925300D02*
X88766666Y-62791966D01*
X88766666Y-62791966D02*
X88766666Y-62625300D01*
X88766666Y-62625300D02*
X88799999Y-62491966D01*
X88799999Y-62491966D02*
X88833333Y-62425300D01*
X88833333Y-62425300D02*
X88866666Y-62391966D01*
X88866666Y-62391966D02*
X88933333Y-62358633D01*
X89566666Y-62658633D02*
X89500000Y-62625300D01*
X89500000Y-62625300D02*
X89466666Y-62591966D01*
X89466666Y-62591966D02*
X89433333Y-62525300D01*
X89433333Y-62525300D02*
X89433333Y-62491966D01*
X89433333Y-62491966D02*
X89466666Y-62425300D01*
X89466666Y-62425300D02*
X89500000Y-62391966D01*
X89500000Y-62391966D02*
X89566666Y-62358633D01*
X89566666Y-62358633D02*
X89700000Y-62358633D01*
X89700000Y-62358633D02*
X89766666Y-62391966D01*
X89766666Y-62391966D02*
X89800000Y-62425300D01*
X89800000Y-62425300D02*
X89833333Y-62491966D01*
X89833333Y-62491966D02*
X89833333Y-62525300D01*
X89833333Y-62525300D02*
X89800000Y-62591966D01*
X89800000Y-62591966D02*
X89766666Y-62625300D01*
X89766666Y-62625300D02*
X89700000Y-62658633D01*
X89700000Y-62658633D02*
X89566666Y-62658633D01*
X89566666Y-62658633D02*
X89500000Y-62691966D01*
X89500000Y-62691966D02*
X89466666Y-62725300D01*
X89466666Y-62725300D02*
X89433333Y-62791966D01*
X89433333Y-62791966D02*
X89433333Y-62925300D01*
X89433333Y-62925300D02*
X89466666Y-62991966D01*
X89466666Y-62991966D02*
X89500000Y-63025300D01*
X89500000Y-63025300D02*
X89566666Y-63058633D01*
X89566666Y-63058633D02*
X89700000Y-63058633D01*
X89700000Y-63058633D02*
X89766666Y-63025300D01*
X89766666Y-63025300D02*
X89800000Y-62991966D01*
X89800000Y-62991966D02*
X89833333Y-62925300D01*
X89833333Y-62925300D02*
X89833333Y-62791966D01*
X89833333Y-62791966D02*
X89800000Y-62725300D01*
X89800000Y-62725300D02*
X89766666Y-62691966D01*
X89766666Y-62691966D02*
X89700000Y-62658633D01*
X90166667Y-63058633D02*
X90300000Y-63058633D01*
X90300000Y-63058633D02*
X90366667Y-63025300D01*
X90366667Y-63025300D02*
X90400000Y-62991966D01*
X90400000Y-62991966D02*
X90466667Y-62891966D01*
X90466667Y-62891966D02*
X90500000Y-62758633D01*
X90500000Y-62758633D02*
X90500000Y-62491966D01*
X90500000Y-62491966D02*
X90466667Y-62425300D01*
X90466667Y-62425300D02*
X90433333Y-62391966D01*
X90433333Y-62391966D02*
X90366667Y-62358633D01*
X90366667Y-62358633D02*
X90233333Y-62358633D01*
X90233333Y-62358633D02*
X90166667Y-62391966D01*
X90166667Y-62391966D02*
X90133333Y-62425300D01*
X90133333Y-62425300D02*
X90100000Y-62491966D01*
X90100000Y-62491966D02*
X90100000Y-62658633D01*
X90100000Y-62658633D02*
X90133333Y-62725300D01*
X90133333Y-62725300D02*
X90166667Y-62758633D01*
X90166667Y-62758633D02*
X90233333Y-62791966D01*
X90233333Y-62791966D02*
X90366667Y-62791966D01*
X90366667Y-62791966D02*
X90433333Y-62758633D01*
X90433333Y-62758633D02*
X90466667Y-62725300D01*
X90466667Y-62725300D02*
X90500000Y-62658633D01*
X95343333Y-75605300D02*
X95276666Y-75571966D01*
X95276666Y-75571966D02*
X95210000Y-75505300D01*
X95210000Y-75505300D02*
X95110000Y-75405300D01*
X95110000Y-75405300D02*
X95043333Y-75371966D01*
X95043333Y-75371966D02*
X94976666Y-75371966D01*
X95010000Y-75538633D02*
X94943333Y-75505300D01*
X94943333Y-75505300D02*
X94876666Y-75438633D01*
X94876666Y-75438633D02*
X94843333Y-75305300D01*
X94843333Y-75305300D02*
X94843333Y-75071966D01*
X94843333Y-75071966D02*
X94876666Y-74938633D01*
X94876666Y-74938633D02*
X94943333Y-74871966D01*
X94943333Y-74871966D02*
X95010000Y-74838633D01*
X95010000Y-74838633D02*
X95143333Y-74838633D01*
X95143333Y-74838633D02*
X95210000Y-74871966D01*
X95210000Y-74871966D02*
X95276666Y-74938633D01*
X95276666Y-74938633D02*
X95310000Y-75071966D01*
X95310000Y-75071966D02*
X95310000Y-75305300D01*
X95310000Y-75305300D02*
X95276666Y-75438633D01*
X95276666Y-75438633D02*
X95210000Y-75505300D01*
X95210000Y-75505300D02*
X95143333Y-75538633D01*
X95143333Y-75538633D02*
X95010000Y-75538633D01*
X95976666Y-75538633D02*
X95576666Y-75538633D01*
X95776666Y-75538633D02*
X95776666Y-74838633D01*
X95776666Y-74838633D02*
X95709999Y-74938633D01*
X95709999Y-74938633D02*
X95643333Y-75005300D01*
X95643333Y-75005300D02*
X95576666Y-75038633D01*
X93659999Y-77765300D02*
X93693332Y-77731966D01*
X93693332Y-77731966D02*
X93759999Y-77698633D01*
X93759999Y-77698633D02*
X93926666Y-77698633D01*
X93926666Y-77698633D02*
X93993332Y-77731966D01*
X93993332Y-77731966D02*
X94026666Y-77765300D01*
X94026666Y-77765300D02*
X94059999Y-77831966D01*
X94059999Y-77831966D02*
X94059999Y-77898633D01*
X94059999Y-77898633D02*
X94026666Y-77998633D01*
X94026666Y-77998633D02*
X93626666Y-78398633D01*
X93626666Y-78398633D02*
X94059999Y-78398633D01*
X94359999Y-78398633D02*
X94359999Y-77698633D01*
X94359999Y-77698633D02*
X94759999Y-78398633D01*
X94759999Y-78398633D02*
X94759999Y-77698633D01*
X95426666Y-77698633D02*
X95093332Y-77698633D01*
X95093332Y-77698633D02*
X95059999Y-78031966D01*
X95059999Y-78031966D02*
X95093332Y-77998633D01*
X95093332Y-77998633D02*
X95159999Y-77965300D01*
X95159999Y-77965300D02*
X95326666Y-77965300D01*
X95326666Y-77965300D02*
X95393332Y-77998633D01*
X95393332Y-77998633D02*
X95426666Y-78031966D01*
X95426666Y-78031966D02*
X95459999Y-78098633D01*
X95459999Y-78098633D02*
X95459999Y-78265300D01*
X95459999Y-78265300D02*
X95426666Y-78331966D01*
X95426666Y-78331966D02*
X95393332Y-78365300D01*
X95393332Y-78365300D02*
X95326666Y-78398633D01*
X95326666Y-78398633D02*
X95159999Y-78398633D01*
X95159999Y-78398633D02*
X95093332Y-78365300D01*
X95093332Y-78365300D02*
X95059999Y-78331966D01*
X95893333Y-77698633D02*
X95959999Y-77698633D01*
X95959999Y-77698633D02*
X96026666Y-77731966D01*
X96026666Y-77731966D02*
X96059999Y-77765300D01*
X96059999Y-77765300D02*
X96093333Y-77831966D01*
X96093333Y-77831966D02*
X96126666Y-77965300D01*
X96126666Y-77965300D02*
X96126666Y-78131966D01*
X96126666Y-78131966D02*
X96093333Y-78265300D01*
X96093333Y-78265300D02*
X96059999Y-78331966D01*
X96059999Y-78331966D02*
X96026666Y-78365300D01*
X96026666Y-78365300D02*
X95959999Y-78398633D01*
X95959999Y-78398633D02*
X95893333Y-78398633D01*
X95893333Y-78398633D02*
X95826666Y-78365300D01*
X95826666Y-78365300D02*
X95793333Y-78331966D01*
X95793333Y-78331966D02*
X95759999Y-78265300D01*
X95759999Y-78265300D02*
X95726666Y-78131966D01*
X95726666Y-78131966D02*
X95726666Y-77965300D01*
X95726666Y-77965300D02*
X95759999Y-77831966D01*
X95759999Y-77831966D02*
X95793333Y-77765300D01*
X95793333Y-77765300D02*
X95826666Y-77731966D01*
X95826666Y-77731966D02*
X95893333Y-77698633D01*
X96526666Y-77998633D02*
X96460000Y-77965300D01*
X96460000Y-77965300D02*
X96426666Y-77931966D01*
X96426666Y-77931966D02*
X96393333Y-77865300D01*
X96393333Y-77865300D02*
X96393333Y-77831966D01*
X96393333Y-77831966D02*
X96426666Y-77765300D01*
X96426666Y-77765300D02*
X96460000Y-77731966D01*
X96460000Y-77731966D02*
X96526666Y-77698633D01*
X96526666Y-77698633D02*
X96660000Y-77698633D01*
X96660000Y-77698633D02*
X96726666Y-77731966D01*
X96726666Y-77731966D02*
X96760000Y-77765300D01*
X96760000Y-77765300D02*
X96793333Y-77831966D01*
X96793333Y-77831966D02*
X96793333Y-77865300D01*
X96793333Y-77865300D02*
X96760000Y-77931966D01*
X96760000Y-77931966D02*
X96726666Y-77965300D01*
X96726666Y-77965300D02*
X96660000Y-77998633D01*
X96660000Y-77998633D02*
X96526666Y-77998633D01*
X96526666Y-77998633D02*
X96460000Y-78031966D01*
X96460000Y-78031966D02*
X96426666Y-78065300D01*
X96426666Y-78065300D02*
X96393333Y-78131966D01*
X96393333Y-78131966D02*
X96393333Y-78265300D01*
X96393333Y-78265300D02*
X96426666Y-78331966D01*
X96426666Y-78331966D02*
X96460000Y-78365300D01*
X96460000Y-78365300D02*
X96526666Y-78398633D01*
X96526666Y-78398633D02*
X96660000Y-78398633D01*
X96660000Y-78398633D02*
X96726666Y-78365300D01*
X96726666Y-78365300D02*
X96760000Y-78331966D01*
X96760000Y-78331966D02*
X96793333Y-78265300D01*
X96793333Y-78265300D02*
X96793333Y-78131966D01*
X96793333Y-78131966D02*
X96760000Y-78065300D01*
X96760000Y-78065300D02*
X96726666Y-78031966D01*
X96726666Y-78031966D02*
X96660000Y-77998633D01*
X97126667Y-78398633D02*
X97260000Y-78398633D01*
X97260000Y-78398633D02*
X97326667Y-78365300D01*
X97326667Y-78365300D02*
X97360000Y-78331966D01*
X97360000Y-78331966D02*
X97426667Y-78231966D01*
X97426667Y-78231966D02*
X97460000Y-78098633D01*
X97460000Y-78098633D02*
X97460000Y-77831966D01*
X97460000Y-77831966D02*
X97426667Y-77765300D01*
X97426667Y-77765300D02*
X97393333Y-77731966D01*
X97393333Y-77731966D02*
X97326667Y-77698633D01*
X97326667Y-77698633D02*
X97193333Y-77698633D01*
X97193333Y-77698633D02*
X97126667Y-77731966D01*
X97126667Y-77731966D02*
X97093333Y-77765300D01*
X97093333Y-77765300D02*
X97060000Y-77831966D01*
X97060000Y-77831966D02*
X97060000Y-77998633D01*
X97060000Y-77998633D02*
X97093333Y-78065300D01*
X97093333Y-78065300D02*
X97126667Y-78098633D01*
X97126667Y-78098633D02*
X97193333Y-78131966D01*
X97193333Y-78131966D02*
X97326667Y-78131966D01*
X97326667Y-78131966D02*
X97393333Y-78098633D01*
X97393333Y-78098633D02*
X97426667Y-78065300D01*
X97426667Y-78065300D02*
X97460000Y-77998633D01*
X49358633Y-91713333D02*
X49858633Y-91713333D01*
X49858633Y-91713333D02*
X49958633Y-91746666D01*
X49958633Y-91746666D02*
X50025300Y-91813333D01*
X50025300Y-91813333D02*
X50058633Y-91913333D01*
X50058633Y-91913333D02*
X50058633Y-91980000D01*
X50058633Y-91013333D02*
X50058633Y-91413333D01*
X50058633Y-91213333D02*
X49358633Y-91213333D01*
X49358633Y-91213333D02*
X49458633Y-91280000D01*
X49458633Y-91280000D02*
X49525300Y-91346667D01*
X49525300Y-91346667D02*
X49558633Y-91413333D01*
X72543333Y-91038633D02*
X72543333Y-90338633D01*
X72543333Y-90338633D02*
X72710000Y-90338633D01*
X72710000Y-90338633D02*
X72810000Y-90371966D01*
X72810000Y-90371966D02*
X72876667Y-90438633D01*
X72876667Y-90438633D02*
X72910000Y-90505300D01*
X72910000Y-90505300D02*
X72943333Y-90638633D01*
X72943333Y-90638633D02*
X72943333Y-90738633D01*
X72943333Y-90738633D02*
X72910000Y-90871966D01*
X72910000Y-90871966D02*
X72876667Y-90938633D01*
X72876667Y-90938633D02*
X72810000Y-91005300D01*
X72810000Y-91005300D02*
X72710000Y-91038633D01*
X72710000Y-91038633D02*
X72543333Y-91038633D01*
X73543333Y-90571966D02*
X73543333Y-91038633D01*
X73376667Y-90305300D02*
X73210000Y-90805300D01*
X73210000Y-90805300D02*
X73643333Y-90805300D01*
X72959999Y-92488633D02*
X72559999Y-92488633D01*
X72759999Y-92488633D02*
X72759999Y-91788633D01*
X72759999Y-91788633D02*
X72693332Y-91888633D01*
X72693332Y-91888633D02*
X72626666Y-91955300D01*
X72626666Y-91955300D02*
X72559999Y-91988633D01*
X73259999Y-92021966D02*
X73259999Y-92488633D01*
X73259999Y-92088633D02*
X73293333Y-92055300D01*
X73293333Y-92055300D02*
X73359999Y-92021966D01*
X73359999Y-92021966D02*
X73459999Y-92021966D01*
X73459999Y-92021966D02*
X73526666Y-92055300D01*
X73526666Y-92055300D02*
X73559999Y-92121966D01*
X73559999Y-92121966D02*
X73559999Y-92488633D01*
X74193332Y-92021966D02*
X74193332Y-92488633D01*
X74026666Y-91755300D02*
X73859999Y-92255300D01*
X73859999Y-92255300D02*
X74293332Y-92255300D01*
X74926666Y-92488633D02*
X74526666Y-92488633D01*
X74726666Y-92488633D02*
X74726666Y-91788633D01*
X74726666Y-91788633D02*
X74659999Y-91888633D01*
X74659999Y-91888633D02*
X74593333Y-91955300D01*
X74593333Y-91955300D02*
X74526666Y-91988633D01*
X75526666Y-92021966D02*
X75526666Y-92488633D01*
X75360000Y-91755300D02*
X75193333Y-92255300D01*
X75193333Y-92255300D02*
X75626666Y-92255300D01*
X75993333Y-92088633D02*
X75926667Y-92055300D01*
X75926667Y-92055300D02*
X75893333Y-92021966D01*
X75893333Y-92021966D02*
X75860000Y-91955300D01*
X75860000Y-91955300D02*
X75860000Y-91921966D01*
X75860000Y-91921966D02*
X75893333Y-91855300D01*
X75893333Y-91855300D02*
X75926667Y-91821966D01*
X75926667Y-91821966D02*
X75993333Y-91788633D01*
X75993333Y-91788633D02*
X76126667Y-91788633D01*
X76126667Y-91788633D02*
X76193333Y-91821966D01*
X76193333Y-91821966D02*
X76226667Y-91855300D01*
X76226667Y-91855300D02*
X76260000Y-91921966D01*
X76260000Y-91921966D02*
X76260000Y-91955300D01*
X76260000Y-91955300D02*
X76226667Y-92021966D01*
X76226667Y-92021966D02*
X76193333Y-92055300D01*
X76193333Y-92055300D02*
X76126667Y-92088633D01*
X76126667Y-92088633D02*
X75993333Y-92088633D01*
X75993333Y-92088633D02*
X75926667Y-92121966D01*
X75926667Y-92121966D02*
X75893333Y-92155300D01*
X75893333Y-92155300D02*
X75860000Y-92221966D01*
X75860000Y-92221966D02*
X75860000Y-92355300D01*
X75860000Y-92355300D02*
X75893333Y-92421966D01*
X75893333Y-92421966D02*
X75926667Y-92455300D01*
X75926667Y-92455300D02*
X75993333Y-92488633D01*
X75993333Y-92488633D02*
X76126667Y-92488633D01*
X76126667Y-92488633D02*
X76193333Y-92455300D01*
X76193333Y-92455300D02*
X76226667Y-92421966D01*
X76226667Y-92421966D02*
X76260000Y-92355300D01*
X76260000Y-92355300D02*
X76260000Y-92221966D01*
X76260000Y-92221966D02*
X76226667Y-92155300D01*
X76226667Y-92155300D02*
X76193333Y-92121966D01*
X76193333Y-92121966D02*
X76126667Y-92088633D01*
X74303333Y-88088633D02*
X74303333Y-87388633D01*
X74303333Y-87388633D02*
X74470000Y-87388633D01*
X74470000Y-87388633D02*
X74570000Y-87421966D01*
X74570000Y-87421966D02*
X74636667Y-87488633D01*
X74636667Y-87488633D02*
X74670000Y-87555300D01*
X74670000Y-87555300D02*
X74703333Y-87688633D01*
X74703333Y-87688633D02*
X74703333Y-87788633D01*
X74703333Y-87788633D02*
X74670000Y-87921966D01*
X74670000Y-87921966D02*
X74636667Y-87988633D01*
X74636667Y-87988633D02*
X74570000Y-88055300D01*
X74570000Y-88055300D02*
X74470000Y-88088633D01*
X74470000Y-88088633D02*
X74303333Y-88088633D01*
X74936667Y-87388633D02*
X75370000Y-87388633D01*
X75370000Y-87388633D02*
X75136667Y-87655300D01*
X75136667Y-87655300D02*
X75236667Y-87655300D01*
X75236667Y-87655300D02*
X75303333Y-87688633D01*
X75303333Y-87688633D02*
X75336667Y-87721966D01*
X75336667Y-87721966D02*
X75370000Y-87788633D01*
X75370000Y-87788633D02*
X75370000Y-87955300D01*
X75370000Y-87955300D02*
X75336667Y-88021966D01*
X75336667Y-88021966D02*
X75303333Y-88055300D01*
X75303333Y-88055300D02*
X75236667Y-88088633D01*
X75236667Y-88088633D02*
X75036667Y-88088633D01*
X75036667Y-88088633D02*
X74970000Y-88055300D01*
X74970000Y-88055300D02*
X74936667Y-88021966D01*
X73289999Y-89008633D02*
X72889999Y-89008633D01*
X73089999Y-89008633D02*
X73089999Y-88308633D01*
X73089999Y-88308633D02*
X73023332Y-88408633D01*
X73023332Y-88408633D02*
X72956666Y-88475300D01*
X72956666Y-88475300D02*
X72889999Y-88508633D01*
X73589999Y-88541966D02*
X73589999Y-89008633D01*
X73589999Y-88608633D02*
X73623333Y-88575300D01*
X73623333Y-88575300D02*
X73689999Y-88541966D01*
X73689999Y-88541966D02*
X73789999Y-88541966D01*
X73789999Y-88541966D02*
X73856666Y-88575300D01*
X73856666Y-88575300D02*
X73889999Y-88641966D01*
X73889999Y-88641966D02*
X73889999Y-89008633D01*
X74523332Y-88541966D02*
X74523332Y-89008633D01*
X74356666Y-88275300D02*
X74189999Y-88775300D01*
X74189999Y-88775300D02*
X74623332Y-88775300D01*
X75256666Y-89008633D02*
X74856666Y-89008633D01*
X75056666Y-89008633D02*
X75056666Y-88308633D01*
X75056666Y-88308633D02*
X74989999Y-88408633D01*
X74989999Y-88408633D02*
X74923333Y-88475300D01*
X74923333Y-88475300D02*
X74856666Y-88508633D01*
X75856666Y-88541966D02*
X75856666Y-89008633D01*
X75690000Y-88275300D02*
X75523333Y-88775300D01*
X75523333Y-88775300D02*
X75956666Y-88775300D01*
X76323333Y-88608633D02*
X76256667Y-88575300D01*
X76256667Y-88575300D02*
X76223333Y-88541966D01*
X76223333Y-88541966D02*
X76190000Y-88475300D01*
X76190000Y-88475300D02*
X76190000Y-88441966D01*
X76190000Y-88441966D02*
X76223333Y-88375300D01*
X76223333Y-88375300D02*
X76256667Y-88341966D01*
X76256667Y-88341966D02*
X76323333Y-88308633D01*
X76323333Y-88308633D02*
X76456667Y-88308633D01*
X76456667Y-88308633D02*
X76523333Y-88341966D01*
X76523333Y-88341966D02*
X76556667Y-88375300D01*
X76556667Y-88375300D02*
X76590000Y-88441966D01*
X76590000Y-88441966D02*
X76590000Y-88475300D01*
X76590000Y-88475300D02*
X76556667Y-88541966D01*
X76556667Y-88541966D02*
X76523333Y-88575300D01*
X76523333Y-88575300D02*
X76456667Y-88608633D01*
X76456667Y-88608633D02*
X76323333Y-88608633D01*
X76323333Y-88608633D02*
X76256667Y-88641966D01*
X76256667Y-88641966D02*
X76223333Y-88675300D01*
X76223333Y-88675300D02*
X76190000Y-88741966D01*
X76190000Y-88741966D02*
X76190000Y-88875300D01*
X76190000Y-88875300D02*
X76223333Y-88941966D01*
X76223333Y-88941966D02*
X76256667Y-88975300D01*
X76256667Y-88975300D02*
X76323333Y-89008633D01*
X76323333Y-89008633D02*
X76456667Y-89008633D01*
X76456667Y-89008633D02*
X76523333Y-88975300D01*
X76523333Y-88975300D02*
X76556667Y-88941966D01*
X76556667Y-88941966D02*
X76590000Y-88875300D01*
X76590000Y-88875300D02*
X76590000Y-88741966D01*
X76590000Y-88741966D02*
X76556667Y-88675300D01*
X76556667Y-88675300D02*
X76523333Y-88641966D01*
X76523333Y-88641966D02*
X76456667Y-88608633D01*
X83563333Y-90368633D02*
X83563333Y-89668633D01*
X83563333Y-89668633D02*
X83730000Y-89668633D01*
X83730000Y-89668633D02*
X83830000Y-89701966D01*
X83830000Y-89701966D02*
X83896667Y-89768633D01*
X83896667Y-89768633D02*
X83930000Y-89835300D01*
X83930000Y-89835300D02*
X83963333Y-89968633D01*
X83963333Y-89968633D02*
X83963333Y-90068633D01*
X83963333Y-90068633D02*
X83930000Y-90201966D01*
X83930000Y-90201966D02*
X83896667Y-90268633D01*
X83896667Y-90268633D02*
X83830000Y-90335300D01*
X83830000Y-90335300D02*
X83730000Y-90368633D01*
X83730000Y-90368633D02*
X83563333Y-90368633D01*
X84230000Y-89735300D02*
X84263333Y-89701966D01*
X84263333Y-89701966D02*
X84330000Y-89668633D01*
X84330000Y-89668633D02*
X84496667Y-89668633D01*
X84496667Y-89668633D02*
X84563333Y-89701966D01*
X84563333Y-89701966D02*
X84596667Y-89735300D01*
X84596667Y-89735300D02*
X84630000Y-89801966D01*
X84630000Y-89801966D02*
X84630000Y-89868633D01*
X84630000Y-89868633D02*
X84596667Y-89968633D01*
X84596667Y-89968633D02*
X84196667Y-90368633D01*
X84196667Y-90368633D02*
X84630000Y-90368633D01*
X82899999Y-92458633D02*
X82499999Y-92458633D01*
X82699999Y-92458633D02*
X82699999Y-91758633D01*
X82699999Y-91758633D02*
X82633332Y-91858633D01*
X82633332Y-91858633D02*
X82566666Y-91925300D01*
X82566666Y-91925300D02*
X82499999Y-91958633D01*
X83199999Y-91991966D02*
X83199999Y-92458633D01*
X83199999Y-92058633D02*
X83233333Y-92025300D01*
X83233333Y-92025300D02*
X83299999Y-91991966D01*
X83299999Y-91991966D02*
X83399999Y-91991966D01*
X83399999Y-91991966D02*
X83466666Y-92025300D01*
X83466666Y-92025300D02*
X83499999Y-92091966D01*
X83499999Y-92091966D02*
X83499999Y-92458633D01*
X84133332Y-91991966D02*
X84133332Y-92458633D01*
X83966666Y-91725300D02*
X83799999Y-92225300D01*
X83799999Y-92225300D02*
X84233332Y-92225300D01*
X84866666Y-92458633D02*
X84466666Y-92458633D01*
X84666666Y-92458633D02*
X84666666Y-91758633D01*
X84666666Y-91758633D02*
X84599999Y-91858633D01*
X84599999Y-91858633D02*
X84533333Y-91925300D01*
X84533333Y-91925300D02*
X84466666Y-91958633D01*
X85466666Y-91991966D02*
X85466666Y-92458633D01*
X85300000Y-91725300D02*
X85133333Y-92225300D01*
X85133333Y-92225300D02*
X85566666Y-92225300D01*
X85933333Y-92058633D02*
X85866667Y-92025300D01*
X85866667Y-92025300D02*
X85833333Y-91991966D01*
X85833333Y-91991966D02*
X85800000Y-91925300D01*
X85800000Y-91925300D02*
X85800000Y-91891966D01*
X85800000Y-91891966D02*
X85833333Y-91825300D01*
X85833333Y-91825300D02*
X85866667Y-91791966D01*
X85866667Y-91791966D02*
X85933333Y-91758633D01*
X85933333Y-91758633D02*
X86066667Y-91758633D01*
X86066667Y-91758633D02*
X86133333Y-91791966D01*
X86133333Y-91791966D02*
X86166667Y-91825300D01*
X86166667Y-91825300D02*
X86200000Y-91891966D01*
X86200000Y-91891966D02*
X86200000Y-91925300D01*
X86200000Y-91925300D02*
X86166667Y-91991966D01*
X86166667Y-91991966D02*
X86133333Y-92025300D01*
X86133333Y-92025300D02*
X86066667Y-92058633D01*
X86066667Y-92058633D02*
X85933333Y-92058633D01*
X85933333Y-92058633D02*
X85866667Y-92091966D01*
X85866667Y-92091966D02*
X85833333Y-92125300D01*
X85833333Y-92125300D02*
X85800000Y-92191966D01*
X85800000Y-92191966D02*
X85800000Y-92325300D01*
X85800000Y-92325300D02*
X85833333Y-92391966D01*
X85833333Y-92391966D02*
X85866667Y-92425300D01*
X85866667Y-92425300D02*
X85933333Y-92458633D01*
X85933333Y-92458633D02*
X86066667Y-92458633D01*
X86066667Y-92458633D02*
X86133333Y-92425300D01*
X86133333Y-92425300D02*
X86166667Y-92391966D01*
X86166667Y-92391966D02*
X86200000Y-92325300D01*
X86200000Y-92325300D02*
X86200000Y-92191966D01*
X86200000Y-92191966D02*
X86166667Y-92125300D01*
X86166667Y-92125300D02*
X86133333Y-92091966D01*
X86133333Y-92091966D02*
X86066667Y-92058633D01*
X83863333Y-87728633D02*
X83863333Y-87028633D01*
X83863333Y-87028633D02*
X84030000Y-87028633D01*
X84030000Y-87028633D02*
X84130000Y-87061966D01*
X84130000Y-87061966D02*
X84196667Y-87128633D01*
X84196667Y-87128633D02*
X84230000Y-87195300D01*
X84230000Y-87195300D02*
X84263333Y-87328633D01*
X84263333Y-87328633D02*
X84263333Y-87428633D01*
X84263333Y-87428633D02*
X84230000Y-87561966D01*
X84230000Y-87561966D02*
X84196667Y-87628633D01*
X84196667Y-87628633D02*
X84130000Y-87695300D01*
X84130000Y-87695300D02*
X84030000Y-87728633D01*
X84030000Y-87728633D02*
X83863333Y-87728633D01*
X84930000Y-87728633D02*
X84530000Y-87728633D01*
X84730000Y-87728633D02*
X84730000Y-87028633D01*
X84730000Y-87028633D02*
X84663333Y-87128633D01*
X84663333Y-87128633D02*
X84596667Y-87195300D01*
X84596667Y-87195300D02*
X84530000Y-87228633D01*
X83059999Y-89238633D02*
X82659999Y-89238633D01*
X82859999Y-89238633D02*
X82859999Y-88538633D01*
X82859999Y-88538633D02*
X82793332Y-88638633D01*
X82793332Y-88638633D02*
X82726666Y-88705300D01*
X82726666Y-88705300D02*
X82659999Y-88738633D01*
X83359999Y-88771966D02*
X83359999Y-89238633D01*
X83359999Y-88838633D02*
X83393333Y-88805300D01*
X83393333Y-88805300D02*
X83459999Y-88771966D01*
X83459999Y-88771966D02*
X83559999Y-88771966D01*
X83559999Y-88771966D02*
X83626666Y-88805300D01*
X83626666Y-88805300D02*
X83659999Y-88871966D01*
X83659999Y-88871966D02*
X83659999Y-89238633D01*
X84293332Y-88771966D02*
X84293332Y-89238633D01*
X84126666Y-88505300D02*
X83959999Y-89005300D01*
X83959999Y-89005300D02*
X84393332Y-89005300D01*
X85026666Y-89238633D02*
X84626666Y-89238633D01*
X84826666Y-89238633D02*
X84826666Y-88538633D01*
X84826666Y-88538633D02*
X84759999Y-88638633D01*
X84759999Y-88638633D02*
X84693333Y-88705300D01*
X84693333Y-88705300D02*
X84626666Y-88738633D01*
X85626666Y-88771966D02*
X85626666Y-89238633D01*
X85460000Y-88505300D02*
X85293333Y-89005300D01*
X85293333Y-89005300D02*
X85726666Y-89005300D01*
X86093333Y-88838633D02*
X86026667Y-88805300D01*
X86026667Y-88805300D02*
X85993333Y-88771966D01*
X85993333Y-88771966D02*
X85960000Y-88705300D01*
X85960000Y-88705300D02*
X85960000Y-88671966D01*
X85960000Y-88671966D02*
X85993333Y-88605300D01*
X85993333Y-88605300D02*
X86026667Y-88571966D01*
X86026667Y-88571966D02*
X86093333Y-88538633D01*
X86093333Y-88538633D02*
X86226667Y-88538633D01*
X86226667Y-88538633D02*
X86293333Y-88571966D01*
X86293333Y-88571966D02*
X86326667Y-88605300D01*
X86326667Y-88605300D02*
X86360000Y-88671966D01*
X86360000Y-88671966D02*
X86360000Y-88705300D01*
X86360000Y-88705300D02*
X86326667Y-88771966D01*
X86326667Y-88771966D02*
X86293333Y-88805300D01*
X86293333Y-88805300D02*
X86226667Y-88838633D01*
X86226667Y-88838633D02*
X86093333Y-88838633D01*
X86093333Y-88838633D02*
X86026667Y-88871966D01*
X86026667Y-88871966D02*
X85993333Y-88905300D01*
X85993333Y-88905300D02*
X85960000Y-88971966D01*
X85960000Y-88971966D02*
X85960000Y-89105300D01*
X85960000Y-89105300D02*
X85993333Y-89171966D01*
X85993333Y-89171966D02*
X86026667Y-89205300D01*
X86026667Y-89205300D02*
X86093333Y-89238633D01*
X86093333Y-89238633D02*
X86226667Y-89238633D01*
X86226667Y-89238633D02*
X86293333Y-89205300D01*
X86293333Y-89205300D02*
X86326667Y-89171966D01*
X86326667Y-89171966D02*
X86360000Y-89105300D01*
X86360000Y-89105300D02*
X86360000Y-88971966D01*
X86360000Y-88971966D02*
X86326667Y-88905300D01*
X86326667Y-88905300D02*
X86293333Y-88871966D01*
X86293333Y-88871966D02*
X86226667Y-88838633D01*
X61999999Y-78111966D02*
X61966666Y-78145300D01*
X61966666Y-78145300D02*
X61866666Y-78178633D01*
X61866666Y-78178633D02*
X61799999Y-78178633D01*
X61799999Y-78178633D02*
X61699999Y-78145300D01*
X61699999Y-78145300D02*
X61633333Y-78078633D01*
X61633333Y-78078633D02*
X61599999Y-78011966D01*
X61599999Y-78011966D02*
X61566666Y-77878633D01*
X61566666Y-77878633D02*
X61566666Y-77778633D01*
X61566666Y-77778633D02*
X61599999Y-77645300D01*
X61599999Y-77645300D02*
X61633333Y-77578633D01*
X61633333Y-77578633D02*
X61699999Y-77511966D01*
X61699999Y-77511966D02*
X61799999Y-77478633D01*
X61799999Y-77478633D02*
X61866666Y-77478633D01*
X61866666Y-77478633D02*
X61966666Y-77511966D01*
X61966666Y-77511966D02*
X61999999Y-77545300D01*
X62666666Y-78178633D02*
X62266666Y-78178633D01*
X62466666Y-78178633D02*
X62466666Y-77478633D01*
X62466666Y-77478633D02*
X62399999Y-77578633D01*
X62399999Y-77578633D02*
X62333333Y-77645300D01*
X62333333Y-77645300D02*
X62266666Y-77678633D01*
X62900000Y-77478633D02*
X63333333Y-77478633D01*
X63333333Y-77478633D02*
X63100000Y-77745300D01*
X63100000Y-77745300D02*
X63200000Y-77745300D01*
X63200000Y-77745300D02*
X63266666Y-77778633D01*
X63266666Y-77778633D02*
X63300000Y-77811966D01*
X63300000Y-77811966D02*
X63333333Y-77878633D01*
X63333333Y-77878633D02*
X63333333Y-78045300D01*
X63333333Y-78045300D02*
X63300000Y-78111966D01*
X63300000Y-78111966D02*
X63266666Y-78145300D01*
X63266666Y-78145300D02*
X63200000Y-78178633D01*
X63200000Y-78178633D02*
X63000000Y-78178633D01*
X63000000Y-78178633D02*
X62933333Y-78145300D01*
X62933333Y-78145300D02*
X62900000Y-78111966D01*
X61919999Y-81411966D02*
X61919999Y-81878633D01*
X61753333Y-81145300D02*
X61586666Y-81645300D01*
X61586666Y-81645300D02*
X62019999Y-81645300D01*
X62220000Y-81178633D02*
X62686666Y-81178633D01*
X62686666Y-81178633D02*
X62386666Y-81878633D01*
X63086667Y-81178633D02*
X63153333Y-81178633D01*
X63153333Y-81178633D02*
X63220000Y-81211966D01*
X63220000Y-81211966D02*
X63253333Y-81245300D01*
X63253333Y-81245300D02*
X63286667Y-81311966D01*
X63286667Y-81311966D02*
X63320000Y-81445300D01*
X63320000Y-81445300D02*
X63320000Y-81611966D01*
X63320000Y-81611966D02*
X63286667Y-81745300D01*
X63286667Y-81745300D02*
X63253333Y-81811966D01*
X63253333Y-81811966D02*
X63220000Y-81845300D01*
X63220000Y-81845300D02*
X63153333Y-81878633D01*
X63153333Y-81878633D02*
X63086667Y-81878633D01*
X63086667Y-81878633D02*
X63020000Y-81845300D01*
X63020000Y-81845300D02*
X62986667Y-81811966D01*
X62986667Y-81811966D02*
X62953333Y-81745300D01*
X62953333Y-81745300D02*
X62920000Y-81611966D01*
X62920000Y-81611966D02*
X62920000Y-81445300D01*
X62920000Y-81445300D02*
X62953333Y-81311966D01*
X62953333Y-81311966D02*
X62986667Y-81245300D01*
X62986667Y-81245300D02*
X63020000Y-81211966D01*
X63020000Y-81211966D02*
X63086667Y-81178633D01*
X63620000Y-81411966D02*
X63620000Y-81878633D01*
X63620000Y-81478633D02*
X63653334Y-81445300D01*
X63653334Y-81445300D02*
X63720000Y-81411966D01*
X63720000Y-81411966D02*
X63820000Y-81411966D01*
X63820000Y-81411966D02*
X63886667Y-81445300D01*
X63886667Y-81445300D02*
X63920000Y-81511966D01*
X63920000Y-81511966D02*
X63920000Y-81878633D01*
X53059999Y-78491966D02*
X53026666Y-78525300D01*
X53026666Y-78525300D02*
X52926666Y-78558633D01*
X52926666Y-78558633D02*
X52859999Y-78558633D01*
X52859999Y-78558633D02*
X52759999Y-78525300D01*
X52759999Y-78525300D02*
X52693333Y-78458633D01*
X52693333Y-78458633D02*
X52659999Y-78391966D01*
X52659999Y-78391966D02*
X52626666Y-78258633D01*
X52626666Y-78258633D02*
X52626666Y-78158633D01*
X52626666Y-78158633D02*
X52659999Y-78025300D01*
X52659999Y-78025300D02*
X52693333Y-77958633D01*
X52693333Y-77958633D02*
X52759999Y-77891966D01*
X52759999Y-77891966D02*
X52859999Y-77858633D01*
X52859999Y-77858633D02*
X52926666Y-77858633D01*
X52926666Y-77858633D02*
X53026666Y-77891966D01*
X53026666Y-77891966D02*
X53059999Y-77925300D01*
X53726666Y-78558633D02*
X53326666Y-78558633D01*
X53526666Y-78558633D02*
X53526666Y-77858633D01*
X53526666Y-77858633D02*
X53459999Y-77958633D01*
X53459999Y-77958633D02*
X53393333Y-78025300D01*
X53393333Y-78025300D02*
X53326666Y-78058633D01*
X53993333Y-77925300D02*
X54026666Y-77891966D01*
X54026666Y-77891966D02*
X54093333Y-77858633D01*
X54093333Y-77858633D02*
X54260000Y-77858633D01*
X54260000Y-77858633D02*
X54326666Y-77891966D01*
X54326666Y-77891966D02*
X54360000Y-77925300D01*
X54360000Y-77925300D02*
X54393333Y-77991966D01*
X54393333Y-77991966D02*
X54393333Y-78058633D01*
X54393333Y-78058633D02*
X54360000Y-78158633D01*
X54360000Y-78158633D02*
X53960000Y-78558633D01*
X53960000Y-78558633D02*
X54393333Y-78558633D01*
X53759999Y-80991966D02*
X53759999Y-81458633D01*
X53593333Y-80725300D02*
X53426666Y-81225300D01*
X53426666Y-81225300D02*
X53859999Y-81225300D01*
X54060000Y-80758633D02*
X54526666Y-80758633D01*
X54526666Y-80758633D02*
X54226666Y-81458633D01*
X54926667Y-80758633D02*
X54993333Y-80758633D01*
X54993333Y-80758633D02*
X55060000Y-80791966D01*
X55060000Y-80791966D02*
X55093333Y-80825300D01*
X55093333Y-80825300D02*
X55126667Y-80891966D01*
X55126667Y-80891966D02*
X55160000Y-81025300D01*
X55160000Y-81025300D02*
X55160000Y-81191966D01*
X55160000Y-81191966D02*
X55126667Y-81325300D01*
X55126667Y-81325300D02*
X55093333Y-81391966D01*
X55093333Y-81391966D02*
X55060000Y-81425300D01*
X55060000Y-81425300D02*
X54993333Y-81458633D01*
X54993333Y-81458633D02*
X54926667Y-81458633D01*
X54926667Y-81458633D02*
X54860000Y-81425300D01*
X54860000Y-81425300D02*
X54826667Y-81391966D01*
X54826667Y-81391966D02*
X54793333Y-81325300D01*
X54793333Y-81325300D02*
X54760000Y-81191966D01*
X54760000Y-81191966D02*
X54760000Y-81025300D01*
X54760000Y-81025300D02*
X54793333Y-80891966D01*
X54793333Y-80891966D02*
X54826667Y-80825300D01*
X54826667Y-80825300D02*
X54860000Y-80791966D01*
X54860000Y-80791966D02*
X54926667Y-80758633D01*
X55460000Y-80991966D02*
X55460000Y-81458633D01*
X55460000Y-81058633D02*
X55493334Y-81025300D01*
X55493334Y-81025300D02*
X55560000Y-80991966D01*
X55560000Y-80991966D02*
X55660000Y-80991966D01*
X55660000Y-80991966D02*
X55726667Y-81025300D01*
X55726667Y-81025300D02*
X55760000Y-81091966D01*
X55760000Y-81091966D02*
X55760000Y-81458633D01*
X70589999Y-78061966D02*
X70556666Y-78095300D01*
X70556666Y-78095300D02*
X70456666Y-78128633D01*
X70456666Y-78128633D02*
X70389999Y-78128633D01*
X70389999Y-78128633D02*
X70289999Y-78095300D01*
X70289999Y-78095300D02*
X70223333Y-78028633D01*
X70223333Y-78028633D02*
X70189999Y-77961966D01*
X70189999Y-77961966D02*
X70156666Y-77828633D01*
X70156666Y-77828633D02*
X70156666Y-77728633D01*
X70156666Y-77728633D02*
X70189999Y-77595300D01*
X70189999Y-77595300D02*
X70223333Y-77528633D01*
X70223333Y-77528633D02*
X70289999Y-77461966D01*
X70289999Y-77461966D02*
X70389999Y-77428633D01*
X70389999Y-77428633D02*
X70456666Y-77428633D01*
X70456666Y-77428633D02*
X70556666Y-77461966D01*
X70556666Y-77461966D02*
X70589999Y-77495300D01*
X71256666Y-78128633D02*
X70856666Y-78128633D01*
X71056666Y-78128633D02*
X71056666Y-77428633D01*
X71056666Y-77428633D02*
X70989999Y-77528633D01*
X70989999Y-77528633D02*
X70923333Y-77595300D01*
X70923333Y-77595300D02*
X70856666Y-77628633D01*
X71923333Y-78128633D02*
X71523333Y-78128633D01*
X71723333Y-78128633D02*
X71723333Y-77428633D01*
X71723333Y-77428633D02*
X71656666Y-77528633D01*
X71656666Y-77528633D02*
X71590000Y-77595300D01*
X71590000Y-77595300D02*
X71523333Y-77628633D01*
X71510000Y-79398633D02*
X71110000Y-79398633D01*
X71310000Y-79398633D02*
X71310000Y-78698633D01*
X71310000Y-78698633D02*
X71243333Y-78798633D01*
X71243333Y-78798633D02*
X71176667Y-78865300D01*
X71176667Y-78865300D02*
X71110000Y-78898633D01*
X71776667Y-78765300D02*
X71810000Y-78731966D01*
X71810000Y-78731966D02*
X71876667Y-78698633D01*
X71876667Y-78698633D02*
X72043334Y-78698633D01*
X72043334Y-78698633D02*
X72110000Y-78731966D01*
X72110000Y-78731966D02*
X72143334Y-78765300D01*
X72143334Y-78765300D02*
X72176667Y-78831966D01*
X72176667Y-78831966D02*
X72176667Y-78898633D01*
X72176667Y-78898633D02*
X72143334Y-78998633D01*
X72143334Y-78998633D02*
X71743334Y-79398633D01*
X71743334Y-79398633D02*
X72176667Y-79398633D01*
X72476667Y-78931966D02*
X72476667Y-79398633D01*
X72476667Y-78998633D02*
X72510001Y-78965300D01*
X72510001Y-78965300D02*
X72576667Y-78931966D01*
X72576667Y-78931966D02*
X72676667Y-78931966D01*
X72676667Y-78931966D02*
X72743334Y-78965300D01*
X72743334Y-78965300D02*
X72776667Y-79031966D01*
X72776667Y-79031966D02*
X72776667Y-79398633D01*
X81399999Y-81101966D02*
X81366666Y-81135300D01*
X81366666Y-81135300D02*
X81266666Y-81168633D01*
X81266666Y-81168633D02*
X81199999Y-81168633D01*
X81199999Y-81168633D02*
X81099999Y-81135300D01*
X81099999Y-81135300D02*
X81033333Y-81068633D01*
X81033333Y-81068633D02*
X80999999Y-81001966D01*
X80999999Y-81001966D02*
X80966666Y-80868633D01*
X80966666Y-80868633D02*
X80966666Y-80768633D01*
X80966666Y-80768633D02*
X80999999Y-80635300D01*
X80999999Y-80635300D02*
X81033333Y-80568633D01*
X81033333Y-80568633D02*
X81099999Y-80501966D01*
X81099999Y-80501966D02*
X81199999Y-80468633D01*
X81199999Y-80468633D02*
X81266666Y-80468633D01*
X81266666Y-80468633D02*
X81366666Y-80501966D01*
X81366666Y-80501966D02*
X81399999Y-80535300D01*
X82066666Y-81168633D02*
X81666666Y-81168633D01*
X81866666Y-81168633D02*
X81866666Y-80468633D01*
X81866666Y-80468633D02*
X81799999Y-80568633D01*
X81799999Y-80568633D02*
X81733333Y-80635300D01*
X81733333Y-80635300D02*
X81666666Y-80668633D01*
X82500000Y-80468633D02*
X82566666Y-80468633D01*
X82566666Y-80468633D02*
X82633333Y-80501966D01*
X82633333Y-80501966D02*
X82666666Y-80535300D01*
X82666666Y-80535300D02*
X82700000Y-80601966D01*
X82700000Y-80601966D02*
X82733333Y-80735300D01*
X82733333Y-80735300D02*
X82733333Y-80901966D01*
X82733333Y-80901966D02*
X82700000Y-81035300D01*
X82700000Y-81035300D02*
X82666666Y-81101966D01*
X82666666Y-81101966D02*
X82633333Y-81135300D01*
X82633333Y-81135300D02*
X82566666Y-81168633D01*
X82566666Y-81168633D02*
X82500000Y-81168633D01*
X82500000Y-81168633D02*
X82433333Y-81135300D01*
X82433333Y-81135300D02*
X82400000Y-81101966D01*
X82400000Y-81101966D02*
X82366666Y-81035300D01*
X82366666Y-81035300D02*
X82333333Y-80901966D01*
X82333333Y-80901966D02*
X82333333Y-80735300D01*
X82333333Y-80735300D02*
X82366666Y-80601966D01*
X82366666Y-80601966D02*
X82400000Y-80535300D01*
X82400000Y-80535300D02*
X82433333Y-80501966D01*
X82433333Y-80501966D02*
X82500000Y-80468633D01*
X82356666Y-82321966D02*
X82356666Y-82788633D01*
X82190000Y-82055300D02*
X82023333Y-82555300D01*
X82023333Y-82555300D02*
X82456666Y-82555300D01*
X82723333Y-82321966D02*
X82723333Y-82788633D01*
X82723333Y-82388633D02*
X82756667Y-82355300D01*
X82756667Y-82355300D02*
X82823333Y-82321966D01*
X82823333Y-82321966D02*
X82923333Y-82321966D01*
X82923333Y-82321966D02*
X82990000Y-82355300D01*
X82990000Y-82355300D02*
X83023333Y-82421966D01*
X83023333Y-82421966D02*
X83023333Y-82788633D01*
X81773333Y-84451966D02*
X81740000Y-84485300D01*
X81740000Y-84485300D02*
X81640000Y-84518633D01*
X81640000Y-84518633D02*
X81573333Y-84518633D01*
X81573333Y-84518633D02*
X81473333Y-84485300D01*
X81473333Y-84485300D02*
X81406667Y-84418633D01*
X81406667Y-84418633D02*
X81373333Y-84351966D01*
X81373333Y-84351966D02*
X81340000Y-84218633D01*
X81340000Y-84218633D02*
X81340000Y-84118633D01*
X81340000Y-84118633D02*
X81373333Y-83985300D01*
X81373333Y-83985300D02*
X81406667Y-83918633D01*
X81406667Y-83918633D02*
X81473333Y-83851966D01*
X81473333Y-83851966D02*
X81573333Y-83818633D01*
X81573333Y-83818633D02*
X81640000Y-83818633D01*
X81640000Y-83818633D02*
X81740000Y-83851966D01*
X81740000Y-83851966D02*
X81773333Y-83885300D01*
X82106667Y-84518633D02*
X82240000Y-84518633D01*
X82240000Y-84518633D02*
X82306667Y-84485300D01*
X82306667Y-84485300D02*
X82340000Y-84451966D01*
X82340000Y-84451966D02*
X82406667Y-84351966D01*
X82406667Y-84351966D02*
X82440000Y-84218633D01*
X82440000Y-84218633D02*
X82440000Y-83951966D01*
X82440000Y-83951966D02*
X82406667Y-83885300D01*
X82406667Y-83885300D02*
X82373333Y-83851966D01*
X82373333Y-83851966D02*
X82306667Y-83818633D01*
X82306667Y-83818633D02*
X82173333Y-83818633D01*
X82173333Y-83818633D02*
X82106667Y-83851966D01*
X82106667Y-83851966D02*
X82073333Y-83885300D01*
X82073333Y-83885300D02*
X82040000Y-83951966D01*
X82040000Y-83951966D02*
X82040000Y-84118633D01*
X82040000Y-84118633D02*
X82073333Y-84185300D01*
X82073333Y-84185300D02*
X82106667Y-84218633D01*
X82106667Y-84218633D02*
X82173333Y-84251966D01*
X82173333Y-84251966D02*
X82306667Y-84251966D01*
X82306667Y-84251966D02*
X82373333Y-84218633D01*
X82373333Y-84218633D02*
X82406667Y-84185300D01*
X82406667Y-84185300D02*
X82440000Y-84118633D01*
X81469999Y-85331966D02*
X81469999Y-85798633D01*
X81303333Y-85065300D02*
X81136666Y-85565300D01*
X81136666Y-85565300D02*
X81569999Y-85565300D01*
X81770000Y-85098633D02*
X82236666Y-85098633D01*
X82236666Y-85098633D02*
X81936666Y-85798633D01*
X82636667Y-85098633D02*
X82703333Y-85098633D01*
X82703333Y-85098633D02*
X82770000Y-85131966D01*
X82770000Y-85131966D02*
X82803333Y-85165300D01*
X82803333Y-85165300D02*
X82836667Y-85231966D01*
X82836667Y-85231966D02*
X82870000Y-85365300D01*
X82870000Y-85365300D02*
X82870000Y-85531966D01*
X82870000Y-85531966D02*
X82836667Y-85665300D01*
X82836667Y-85665300D02*
X82803333Y-85731966D01*
X82803333Y-85731966D02*
X82770000Y-85765300D01*
X82770000Y-85765300D02*
X82703333Y-85798633D01*
X82703333Y-85798633D02*
X82636667Y-85798633D01*
X82636667Y-85798633D02*
X82570000Y-85765300D01*
X82570000Y-85765300D02*
X82536667Y-85731966D01*
X82536667Y-85731966D02*
X82503333Y-85665300D01*
X82503333Y-85665300D02*
X82470000Y-85531966D01*
X82470000Y-85531966D02*
X82470000Y-85365300D01*
X82470000Y-85365300D02*
X82503333Y-85231966D01*
X82503333Y-85231966D02*
X82536667Y-85165300D01*
X82536667Y-85165300D02*
X82570000Y-85131966D01*
X82570000Y-85131966D02*
X82636667Y-85098633D01*
X83170000Y-85331966D02*
X83170000Y-86031966D01*
X83170000Y-85365300D02*
X83236667Y-85331966D01*
X83236667Y-85331966D02*
X83370000Y-85331966D01*
X83370000Y-85331966D02*
X83436667Y-85365300D01*
X83436667Y-85365300D02*
X83470000Y-85398633D01*
X83470000Y-85398633D02*
X83503334Y-85465300D01*
X83503334Y-85465300D02*
X83503334Y-85665300D01*
X83503334Y-85665300D02*
X83470000Y-85731966D01*
X83470000Y-85731966D02*
X83436667Y-85765300D01*
X83436667Y-85765300D02*
X83370000Y-85798633D01*
X83370000Y-85798633D02*
X83236667Y-85798633D01*
X83236667Y-85798633D02*
X83170000Y-85765300D01*
X70903333Y-84401966D02*
X70870000Y-84435300D01*
X70870000Y-84435300D02*
X70770000Y-84468633D01*
X70770000Y-84468633D02*
X70703333Y-84468633D01*
X70703333Y-84468633D02*
X70603333Y-84435300D01*
X70603333Y-84435300D02*
X70536667Y-84368633D01*
X70536667Y-84368633D02*
X70503333Y-84301966D01*
X70503333Y-84301966D02*
X70470000Y-84168633D01*
X70470000Y-84168633D02*
X70470000Y-84068633D01*
X70470000Y-84068633D02*
X70503333Y-83935300D01*
X70503333Y-83935300D02*
X70536667Y-83868633D01*
X70536667Y-83868633D02*
X70603333Y-83801966D01*
X70603333Y-83801966D02*
X70703333Y-83768633D01*
X70703333Y-83768633D02*
X70770000Y-83768633D01*
X70770000Y-83768633D02*
X70870000Y-83801966D01*
X70870000Y-83801966D02*
X70903333Y-83835300D01*
X71303333Y-84068633D02*
X71236667Y-84035300D01*
X71236667Y-84035300D02*
X71203333Y-84001966D01*
X71203333Y-84001966D02*
X71170000Y-83935300D01*
X71170000Y-83935300D02*
X71170000Y-83901966D01*
X71170000Y-83901966D02*
X71203333Y-83835300D01*
X71203333Y-83835300D02*
X71236667Y-83801966D01*
X71236667Y-83801966D02*
X71303333Y-83768633D01*
X71303333Y-83768633D02*
X71436667Y-83768633D01*
X71436667Y-83768633D02*
X71503333Y-83801966D01*
X71503333Y-83801966D02*
X71536667Y-83835300D01*
X71536667Y-83835300D02*
X71570000Y-83901966D01*
X71570000Y-83901966D02*
X71570000Y-83935300D01*
X71570000Y-83935300D02*
X71536667Y-84001966D01*
X71536667Y-84001966D02*
X71503333Y-84035300D01*
X71503333Y-84035300D02*
X71436667Y-84068633D01*
X71436667Y-84068633D02*
X71303333Y-84068633D01*
X71303333Y-84068633D02*
X71236667Y-84101966D01*
X71236667Y-84101966D02*
X71203333Y-84135300D01*
X71203333Y-84135300D02*
X71170000Y-84201966D01*
X71170000Y-84201966D02*
X71170000Y-84335300D01*
X71170000Y-84335300D02*
X71203333Y-84401966D01*
X71203333Y-84401966D02*
X71236667Y-84435300D01*
X71236667Y-84435300D02*
X71303333Y-84468633D01*
X71303333Y-84468633D02*
X71436667Y-84468633D01*
X71436667Y-84468633D02*
X71503333Y-84435300D01*
X71503333Y-84435300D02*
X71536667Y-84401966D01*
X71536667Y-84401966D02*
X71570000Y-84335300D01*
X71570000Y-84335300D02*
X71570000Y-84201966D01*
X71570000Y-84201966D02*
X71536667Y-84135300D01*
X71536667Y-84135300D02*
X71503333Y-84101966D01*
X71503333Y-84101966D02*
X71436667Y-84068633D01*
X71773333Y-85331966D02*
X71773333Y-85798633D01*
X71606667Y-85065300D02*
X71440000Y-85565300D01*
X71440000Y-85565300D02*
X71873333Y-85565300D01*
X72073334Y-85098633D02*
X72540000Y-85098633D01*
X72540000Y-85098633D02*
X72240000Y-85798633D01*
X72806667Y-85331966D02*
X72806667Y-85798633D01*
X72806667Y-85398633D02*
X72840001Y-85365300D01*
X72840001Y-85365300D02*
X72906667Y-85331966D01*
X72906667Y-85331966D02*
X73006667Y-85331966D01*
X73006667Y-85331966D02*
X73073334Y-85365300D01*
X73073334Y-85365300D02*
X73106667Y-85431966D01*
X73106667Y-85431966D02*
X73106667Y-85798633D01*
X70903333Y-81171966D02*
X70870000Y-81205300D01*
X70870000Y-81205300D02*
X70770000Y-81238633D01*
X70770000Y-81238633D02*
X70703333Y-81238633D01*
X70703333Y-81238633D02*
X70603333Y-81205300D01*
X70603333Y-81205300D02*
X70536667Y-81138633D01*
X70536667Y-81138633D02*
X70503333Y-81071966D01*
X70503333Y-81071966D02*
X70470000Y-80938633D01*
X70470000Y-80938633D02*
X70470000Y-80838633D01*
X70470000Y-80838633D02*
X70503333Y-80705300D01*
X70503333Y-80705300D02*
X70536667Y-80638633D01*
X70536667Y-80638633D02*
X70603333Y-80571966D01*
X70603333Y-80571966D02*
X70703333Y-80538633D01*
X70703333Y-80538633D02*
X70770000Y-80538633D01*
X70770000Y-80538633D02*
X70870000Y-80571966D01*
X70870000Y-80571966D02*
X70903333Y-80605300D01*
X71136667Y-80538633D02*
X71603333Y-80538633D01*
X71603333Y-80538633D02*
X71303333Y-81238633D01*
X71643333Y-81901966D02*
X71643333Y-82368633D01*
X71476667Y-81635300D02*
X71310000Y-82135300D01*
X71310000Y-82135300D02*
X71743333Y-82135300D01*
X71943334Y-81668633D02*
X72410000Y-81668633D01*
X72410000Y-81668633D02*
X72110000Y-82368633D01*
X72676667Y-81901966D02*
X72676667Y-82368633D01*
X72676667Y-81968633D02*
X72710001Y-81935300D01*
X72710001Y-81935300D02*
X72776667Y-81901966D01*
X72776667Y-81901966D02*
X72876667Y-81901966D01*
X72876667Y-81901966D02*
X72943334Y-81935300D01*
X72943334Y-81935300D02*
X72976667Y-82001966D01*
X72976667Y-82001966D02*
X72976667Y-82368633D01*
X68081966Y-54566666D02*
X68115300Y-54599999D01*
X68115300Y-54599999D02*
X68148633Y-54699999D01*
X68148633Y-54699999D02*
X68148633Y-54766666D01*
X68148633Y-54766666D02*
X68115300Y-54866666D01*
X68115300Y-54866666D02*
X68048633Y-54933333D01*
X68048633Y-54933333D02*
X67981966Y-54966666D01*
X67981966Y-54966666D02*
X67848633Y-54999999D01*
X67848633Y-54999999D02*
X67748633Y-54999999D01*
X67748633Y-54999999D02*
X67615300Y-54966666D01*
X67615300Y-54966666D02*
X67548633Y-54933333D01*
X67548633Y-54933333D02*
X67481966Y-54866666D01*
X67481966Y-54866666D02*
X67448633Y-54766666D01*
X67448633Y-54766666D02*
X67448633Y-54699999D01*
X67448633Y-54699999D02*
X67481966Y-54599999D01*
X67481966Y-54599999D02*
X67515300Y-54566666D01*
X67448633Y-53933333D02*
X67448633Y-54266666D01*
X67448633Y-54266666D02*
X67781966Y-54299999D01*
X67781966Y-54299999D02*
X67748633Y-54266666D01*
X67748633Y-54266666D02*
X67715300Y-54199999D01*
X67715300Y-54199999D02*
X67715300Y-54033333D01*
X67715300Y-54033333D02*
X67748633Y-53966666D01*
X67748633Y-53966666D02*
X67781966Y-53933333D01*
X67781966Y-53933333D02*
X67848633Y-53899999D01*
X67848633Y-53899999D02*
X68015300Y-53899999D01*
X68015300Y-53899999D02*
X68081966Y-53933333D01*
X68081966Y-53933333D02*
X68115300Y-53966666D01*
X68115300Y-53966666D02*
X68148633Y-54033333D01*
X68148633Y-54033333D02*
X68148633Y-54199999D01*
X68148633Y-54199999D02*
X68115300Y-54266666D01*
X68115300Y-54266666D02*
X68081966Y-54299999D01*
X70761966Y-54950000D02*
X71228633Y-54950000D01*
X70495300Y-55116667D02*
X70995300Y-55283333D01*
X70995300Y-55283333D02*
X70995300Y-54850000D01*
X70528633Y-54650000D02*
X70528633Y-54183333D01*
X70528633Y-54183333D02*
X71228633Y-54483333D01*
X70528633Y-53783333D02*
X70528633Y-53716666D01*
X70528633Y-53716666D02*
X70561966Y-53649999D01*
X70561966Y-53649999D02*
X70595300Y-53616666D01*
X70595300Y-53616666D02*
X70661966Y-53583333D01*
X70661966Y-53583333D02*
X70795300Y-53549999D01*
X70795300Y-53549999D02*
X70961966Y-53549999D01*
X70961966Y-53549999D02*
X71095300Y-53583333D01*
X71095300Y-53583333D02*
X71161966Y-53616666D01*
X71161966Y-53616666D02*
X71195300Y-53649999D01*
X71195300Y-53649999D02*
X71228633Y-53716666D01*
X71228633Y-53716666D02*
X71228633Y-53783333D01*
X71228633Y-53783333D02*
X71195300Y-53849999D01*
X71195300Y-53849999D02*
X71161966Y-53883333D01*
X71161966Y-53883333D02*
X71095300Y-53916666D01*
X71095300Y-53916666D02*
X70961966Y-53949999D01*
X70961966Y-53949999D02*
X70795300Y-53949999D01*
X70795300Y-53949999D02*
X70661966Y-53916666D01*
X70661966Y-53916666D02*
X70595300Y-53883333D01*
X70595300Y-53883333D02*
X70561966Y-53849999D01*
X70561966Y-53849999D02*
X70528633Y-53783333D01*
X70761966Y-53249999D02*
X71228633Y-53249999D01*
X70828633Y-53249999D02*
X70795300Y-53216666D01*
X70795300Y-53216666D02*
X70761966Y-53149999D01*
X70761966Y-53149999D02*
X70761966Y-53049999D01*
X70761966Y-53049999D02*
X70795300Y-52983332D01*
X70795300Y-52983332D02*
X70861966Y-52949999D01*
X70861966Y-52949999D02*
X71228633Y-52949999D01*
X87731966Y-54766666D02*
X87765300Y-54799999D01*
X87765300Y-54799999D02*
X87798633Y-54899999D01*
X87798633Y-54899999D02*
X87798633Y-54966666D01*
X87798633Y-54966666D02*
X87765300Y-55066666D01*
X87765300Y-55066666D02*
X87698633Y-55133333D01*
X87698633Y-55133333D02*
X87631966Y-55166666D01*
X87631966Y-55166666D02*
X87498633Y-55199999D01*
X87498633Y-55199999D02*
X87398633Y-55199999D01*
X87398633Y-55199999D02*
X87265300Y-55166666D01*
X87265300Y-55166666D02*
X87198633Y-55133333D01*
X87198633Y-55133333D02*
X87131966Y-55066666D01*
X87131966Y-55066666D02*
X87098633Y-54966666D01*
X87098633Y-54966666D02*
X87098633Y-54899999D01*
X87098633Y-54899999D02*
X87131966Y-54799999D01*
X87131966Y-54799999D02*
X87165300Y-54766666D01*
X87331966Y-54166666D02*
X87798633Y-54166666D01*
X87065300Y-54333333D02*
X87565300Y-54499999D01*
X87565300Y-54499999D02*
X87565300Y-54066666D01*
X90121966Y-55240000D02*
X90588633Y-55240000D01*
X89855300Y-55406667D02*
X90355300Y-55573333D01*
X90355300Y-55573333D02*
X90355300Y-55140000D01*
X89888633Y-54940000D02*
X89888633Y-54473333D01*
X89888633Y-54473333D02*
X90588633Y-54773333D01*
X89888633Y-54073333D02*
X89888633Y-54006666D01*
X89888633Y-54006666D02*
X89921966Y-53939999D01*
X89921966Y-53939999D02*
X89955300Y-53906666D01*
X89955300Y-53906666D02*
X90021966Y-53873333D01*
X90021966Y-53873333D02*
X90155300Y-53839999D01*
X90155300Y-53839999D02*
X90321966Y-53839999D01*
X90321966Y-53839999D02*
X90455300Y-53873333D01*
X90455300Y-53873333D02*
X90521966Y-53906666D01*
X90521966Y-53906666D02*
X90555300Y-53939999D01*
X90555300Y-53939999D02*
X90588633Y-54006666D01*
X90588633Y-54006666D02*
X90588633Y-54073333D01*
X90588633Y-54073333D02*
X90555300Y-54139999D01*
X90555300Y-54139999D02*
X90521966Y-54173333D01*
X90521966Y-54173333D02*
X90455300Y-54206666D01*
X90455300Y-54206666D02*
X90321966Y-54239999D01*
X90321966Y-54239999D02*
X90155300Y-54239999D01*
X90155300Y-54239999D02*
X90021966Y-54206666D01*
X90021966Y-54206666D02*
X89955300Y-54173333D01*
X89955300Y-54173333D02*
X89921966Y-54139999D01*
X89921966Y-54139999D02*
X89888633Y-54073333D01*
X90121966Y-53539999D02*
X90588633Y-53539999D01*
X90188633Y-53539999D02*
X90155300Y-53506666D01*
X90155300Y-53506666D02*
X90121966Y-53439999D01*
X90121966Y-53439999D02*
X90121966Y-53339999D01*
X90121966Y-53339999D02*
X90155300Y-53273332D01*
X90155300Y-53273332D02*
X90221966Y-53239999D01*
X90221966Y-53239999D02*
X90588633Y-53239999D01*
X102723333Y-76341966D02*
X102690000Y-76375300D01*
X102690000Y-76375300D02*
X102590000Y-76408633D01*
X102590000Y-76408633D02*
X102523333Y-76408633D01*
X102523333Y-76408633D02*
X102423333Y-76375300D01*
X102423333Y-76375300D02*
X102356667Y-76308633D01*
X102356667Y-76308633D02*
X102323333Y-76241966D01*
X102323333Y-76241966D02*
X102290000Y-76108633D01*
X102290000Y-76108633D02*
X102290000Y-76008633D01*
X102290000Y-76008633D02*
X102323333Y-75875300D01*
X102323333Y-75875300D02*
X102356667Y-75808633D01*
X102356667Y-75808633D02*
X102423333Y-75741966D01*
X102423333Y-75741966D02*
X102523333Y-75708633D01*
X102523333Y-75708633D02*
X102590000Y-75708633D01*
X102590000Y-75708633D02*
X102690000Y-75741966D01*
X102690000Y-75741966D02*
X102723333Y-75775300D01*
X102956667Y-75708633D02*
X103390000Y-75708633D01*
X103390000Y-75708633D02*
X103156667Y-75975300D01*
X103156667Y-75975300D02*
X103256667Y-75975300D01*
X103256667Y-75975300D02*
X103323333Y-76008633D01*
X103323333Y-76008633D02*
X103356667Y-76041966D01*
X103356667Y-76041966D02*
X103390000Y-76108633D01*
X103390000Y-76108633D02*
X103390000Y-76275300D01*
X103390000Y-76275300D02*
X103356667Y-76341966D01*
X103356667Y-76341966D02*
X103323333Y-76375300D01*
X103323333Y-76375300D02*
X103256667Y-76408633D01*
X103256667Y-76408633D02*
X103056667Y-76408633D01*
X103056667Y-76408633D02*
X102990000Y-76375300D01*
X102990000Y-76375300D02*
X102956667Y-76341966D01*
X101889999Y-77841966D02*
X101889999Y-78308633D01*
X101723333Y-77575300D02*
X101556666Y-78075300D01*
X101556666Y-78075300D02*
X101989999Y-78075300D01*
X102190000Y-77608633D02*
X102656666Y-77608633D01*
X102656666Y-77608633D02*
X102356666Y-78308633D01*
X103056667Y-77608633D02*
X103123333Y-77608633D01*
X103123333Y-77608633D02*
X103190000Y-77641966D01*
X103190000Y-77641966D02*
X103223333Y-77675300D01*
X103223333Y-77675300D02*
X103256667Y-77741966D01*
X103256667Y-77741966D02*
X103290000Y-77875300D01*
X103290000Y-77875300D02*
X103290000Y-78041966D01*
X103290000Y-78041966D02*
X103256667Y-78175300D01*
X103256667Y-78175300D02*
X103223333Y-78241966D01*
X103223333Y-78241966D02*
X103190000Y-78275300D01*
X103190000Y-78275300D02*
X103123333Y-78308633D01*
X103123333Y-78308633D02*
X103056667Y-78308633D01*
X103056667Y-78308633D02*
X102990000Y-78275300D01*
X102990000Y-78275300D02*
X102956667Y-78241966D01*
X102956667Y-78241966D02*
X102923333Y-78175300D01*
X102923333Y-78175300D02*
X102890000Y-78041966D01*
X102890000Y-78041966D02*
X102890000Y-77875300D01*
X102890000Y-77875300D02*
X102923333Y-77741966D01*
X102923333Y-77741966D02*
X102956667Y-77675300D01*
X102956667Y-77675300D02*
X102990000Y-77641966D01*
X102990000Y-77641966D02*
X103056667Y-77608633D01*
X103590000Y-77841966D02*
X103590000Y-78308633D01*
X103590000Y-77908633D02*
X103623334Y-77875300D01*
X103623334Y-77875300D02*
X103690000Y-77841966D01*
X103690000Y-77841966D02*
X103790000Y-77841966D01*
X103790000Y-77841966D02*
X103856667Y-77875300D01*
X103856667Y-77875300D02*
X103890000Y-77941966D01*
X103890000Y-77941966D02*
X103890000Y-78308633D01*
X91011966Y-68776666D02*
X91045300Y-68809999D01*
X91045300Y-68809999D02*
X91078633Y-68909999D01*
X91078633Y-68909999D02*
X91078633Y-68976666D01*
X91078633Y-68976666D02*
X91045300Y-69076666D01*
X91045300Y-69076666D02*
X90978633Y-69143333D01*
X90978633Y-69143333D02*
X90911966Y-69176666D01*
X90911966Y-69176666D02*
X90778633Y-69209999D01*
X90778633Y-69209999D02*
X90678633Y-69209999D01*
X90678633Y-69209999D02*
X90545300Y-69176666D01*
X90545300Y-69176666D02*
X90478633Y-69143333D01*
X90478633Y-69143333D02*
X90411966Y-69076666D01*
X90411966Y-69076666D02*
X90378633Y-68976666D01*
X90378633Y-68976666D02*
X90378633Y-68909999D01*
X90378633Y-68909999D02*
X90411966Y-68809999D01*
X90411966Y-68809999D02*
X90445300Y-68776666D01*
X90445300Y-68509999D02*
X90411966Y-68476666D01*
X90411966Y-68476666D02*
X90378633Y-68409999D01*
X90378633Y-68409999D02*
X90378633Y-68243333D01*
X90378633Y-68243333D02*
X90411966Y-68176666D01*
X90411966Y-68176666D02*
X90445300Y-68143333D01*
X90445300Y-68143333D02*
X90511966Y-68109999D01*
X90511966Y-68109999D02*
X90578633Y-68109999D01*
X90578633Y-68109999D02*
X90678633Y-68143333D01*
X90678633Y-68143333D02*
X91078633Y-68543333D01*
X91078633Y-68543333D02*
X91078633Y-68109999D01*
X91841966Y-69970000D02*
X92308633Y-69970000D01*
X91575300Y-70136667D02*
X92075300Y-70303333D01*
X92075300Y-70303333D02*
X92075300Y-69870000D01*
X91608633Y-69670000D02*
X91608633Y-69203333D01*
X91608633Y-69203333D02*
X92308633Y-69503333D01*
X91608633Y-68803333D02*
X91608633Y-68736666D01*
X91608633Y-68736666D02*
X91641966Y-68669999D01*
X91641966Y-68669999D02*
X91675300Y-68636666D01*
X91675300Y-68636666D02*
X91741966Y-68603333D01*
X91741966Y-68603333D02*
X91875300Y-68569999D01*
X91875300Y-68569999D02*
X92041966Y-68569999D01*
X92041966Y-68569999D02*
X92175300Y-68603333D01*
X92175300Y-68603333D02*
X92241966Y-68636666D01*
X92241966Y-68636666D02*
X92275300Y-68669999D01*
X92275300Y-68669999D02*
X92308633Y-68736666D01*
X92308633Y-68736666D02*
X92308633Y-68803333D01*
X92308633Y-68803333D02*
X92275300Y-68869999D01*
X92275300Y-68869999D02*
X92241966Y-68903333D01*
X92241966Y-68903333D02*
X92175300Y-68936666D01*
X92175300Y-68936666D02*
X92041966Y-68969999D01*
X92041966Y-68969999D02*
X91875300Y-68969999D01*
X91875300Y-68969999D02*
X91741966Y-68936666D01*
X91741966Y-68936666D02*
X91675300Y-68903333D01*
X91675300Y-68903333D02*
X91641966Y-68869999D01*
X91641966Y-68869999D02*
X91608633Y-68803333D01*
X91841966Y-68269999D02*
X92541966Y-68269999D01*
X91875300Y-68269999D02*
X91841966Y-68203332D01*
X91841966Y-68203332D02*
X91841966Y-68069999D01*
X91841966Y-68069999D02*
X91875300Y-68003332D01*
X91875300Y-68003332D02*
X91908633Y-67969999D01*
X91908633Y-67969999D02*
X91975300Y-67936666D01*
X91975300Y-67936666D02*
X92175300Y-67936666D01*
X92175300Y-67936666D02*
X92241966Y-67969999D01*
X92241966Y-67969999D02*
X92275300Y-68003332D01*
X92275300Y-68003332D02*
X92308633Y-68069999D01*
X92308633Y-68069999D02*
X92308633Y-68203332D01*
X92308633Y-68203332D02*
X92275300Y-68269999D01*
X90681966Y-89516666D02*
X90715300Y-89549999D01*
X90715300Y-89549999D02*
X90748633Y-89649999D01*
X90748633Y-89649999D02*
X90748633Y-89716666D01*
X90748633Y-89716666D02*
X90715300Y-89816666D01*
X90715300Y-89816666D02*
X90648633Y-89883333D01*
X90648633Y-89883333D02*
X90581966Y-89916666D01*
X90581966Y-89916666D02*
X90448633Y-89949999D01*
X90448633Y-89949999D02*
X90348633Y-89949999D01*
X90348633Y-89949999D02*
X90215300Y-89916666D01*
X90215300Y-89916666D02*
X90148633Y-89883333D01*
X90148633Y-89883333D02*
X90081966Y-89816666D01*
X90081966Y-89816666D02*
X90048633Y-89716666D01*
X90048633Y-89716666D02*
X90048633Y-89649999D01*
X90048633Y-89649999D02*
X90081966Y-89549999D01*
X90081966Y-89549999D02*
X90115300Y-89516666D01*
X90748633Y-88849999D02*
X90748633Y-89249999D01*
X90748633Y-89049999D02*
X90048633Y-89049999D01*
X90048633Y-89049999D02*
X90148633Y-89116666D01*
X90148633Y-89116666D02*
X90215300Y-89183333D01*
X90215300Y-89183333D02*
X90248633Y-89249999D01*
X93271966Y-90160000D02*
X93738633Y-90160000D01*
X93005300Y-90326667D02*
X93505300Y-90493333D01*
X93505300Y-90493333D02*
X93505300Y-90060000D01*
X93038633Y-89860000D02*
X93038633Y-89393333D01*
X93038633Y-89393333D02*
X93738633Y-89693333D01*
X93038633Y-88993333D02*
X93038633Y-88926666D01*
X93038633Y-88926666D02*
X93071966Y-88859999D01*
X93071966Y-88859999D02*
X93105300Y-88826666D01*
X93105300Y-88826666D02*
X93171966Y-88793333D01*
X93171966Y-88793333D02*
X93305300Y-88759999D01*
X93305300Y-88759999D02*
X93471966Y-88759999D01*
X93471966Y-88759999D02*
X93605300Y-88793333D01*
X93605300Y-88793333D02*
X93671966Y-88826666D01*
X93671966Y-88826666D02*
X93705300Y-88859999D01*
X93705300Y-88859999D02*
X93738633Y-88926666D01*
X93738633Y-88926666D02*
X93738633Y-88993333D01*
X93738633Y-88993333D02*
X93705300Y-89059999D01*
X93705300Y-89059999D02*
X93671966Y-89093333D01*
X93671966Y-89093333D02*
X93605300Y-89126666D01*
X93605300Y-89126666D02*
X93471966Y-89159999D01*
X93471966Y-89159999D02*
X93305300Y-89159999D01*
X93305300Y-89159999D02*
X93171966Y-89126666D01*
X93171966Y-89126666D02*
X93105300Y-89093333D01*
X93105300Y-89093333D02*
X93071966Y-89059999D01*
X93071966Y-89059999D02*
X93038633Y-88993333D01*
X93271966Y-88459999D02*
X93738633Y-88459999D01*
X93338633Y-88459999D02*
X93305300Y-88426666D01*
X93305300Y-88426666D02*
X93271966Y-88359999D01*
X93271966Y-88359999D02*
X93271966Y-88259999D01*
X93271966Y-88259999D02*
X93305300Y-88193332D01*
X93305300Y-88193332D02*
X93371966Y-88159999D01*
X93371966Y-88159999D02*
X93738633Y-88159999D01*
D13*
%TO.C,Q3*%
X69050000Y-58590000D02*
G75*
G03*
X67211522Y-63028478I0J-2600000D01*
G01*
X70888478Y-63028478D02*
G75*
G03*
X69050000Y-58590000I-1838478J1838478D01*
G01*
X67250000Y-63040000D02*
X70850000Y-63040000D01*
%TO.C,C6*%
X86570000Y-80270000D02*
X86570000Y-83010000D01*
X86570000Y-83010000D02*
X94310000Y-83010000D01*
X94310000Y-80270000D02*
X94310000Y-83010000D01*
X86570000Y-80270000D02*
X94310000Y-80270000D01*
%TO.C,R21*%
X60340000Y-87700000D02*
X59570000Y-87700000D01*
X52260000Y-87700000D02*
X53030000Y-87700000D01*
X53030000Y-86330000D02*
X53030000Y-89070000D01*
X59570000Y-89070000D02*
X59570000Y-86330000D01*
X53030000Y-89070000D02*
X59570000Y-89070000D01*
X59570000Y-86330000D02*
X53030000Y-86330000D01*
%TO.C,R20*%
X60310000Y-84560000D02*
X59540000Y-84560000D01*
X52230000Y-84560000D02*
X53000000Y-84560000D01*
X53000000Y-83190000D02*
X53000000Y-85930000D01*
X59540000Y-85930000D02*
X59540000Y-83190000D01*
X53000000Y-85930000D02*
X59540000Y-85930000D01*
X59540000Y-83190000D02*
X53000000Y-83190000D01*
%TO.C,R19*%
X60640000Y-75250000D02*
X59870000Y-75250000D01*
X52560000Y-75250000D02*
X53330000Y-75250000D01*
X53330000Y-73880000D02*
X53330000Y-76620000D01*
X59870000Y-76620000D02*
X59870000Y-73880000D01*
X53330000Y-76620000D02*
X59870000Y-76620000D01*
X59870000Y-73880000D02*
X53330000Y-73880000D01*
%TO.C,R18*%
X60640000Y-72120000D02*
X59870000Y-72120000D01*
X52560000Y-72120000D02*
X53330000Y-72120000D01*
X53330000Y-70750000D02*
X53330000Y-73490000D01*
X59870000Y-73490000D02*
X59870000Y-70750000D01*
X53330000Y-73490000D02*
X59870000Y-73490000D01*
X59870000Y-70750000D02*
X53330000Y-70750000D01*
%TO.C,R17*%
X59900000Y-67610000D02*
X53360000Y-67610000D01*
X53360000Y-70350000D02*
X59900000Y-70350000D01*
X59900000Y-70350000D02*
X59900000Y-67610000D01*
X53360000Y-67610000D02*
X53360000Y-70350000D01*
X52590000Y-68980000D02*
X53360000Y-68980000D01*
X60670000Y-68980000D02*
X59900000Y-68980000D01*
%TO.C,R16*%
X60630000Y-65850000D02*
X59860000Y-65850000D01*
X52550000Y-65850000D02*
X53320000Y-65850000D01*
X53320000Y-64480000D02*
X53320000Y-67220000D01*
X59860000Y-67220000D02*
X59860000Y-64480000D01*
X53320000Y-67220000D02*
X59860000Y-67220000D01*
X59860000Y-64480000D02*
X53320000Y-64480000D01*
%TO.C,R15*%
X72960000Y-73820000D02*
X66420000Y-73820000D01*
X66420000Y-76560000D02*
X72960000Y-76560000D01*
X72960000Y-76560000D02*
X72960000Y-73820000D01*
X66420000Y-73820000D02*
X66420000Y-76560000D01*
X65650000Y-75190000D02*
X66420000Y-75190000D01*
X73730000Y-75190000D02*
X72960000Y-75190000D01*
%TO.C,R14*%
X72940000Y-70690000D02*
X66400000Y-70690000D01*
X66400000Y-73430000D02*
X72940000Y-73430000D01*
X72940000Y-73430000D02*
X72940000Y-70690000D01*
X66400000Y-70690000D02*
X66400000Y-73430000D01*
X65630000Y-72060000D02*
X66400000Y-72060000D01*
X73710000Y-72060000D02*
X72940000Y-72060000D01*
%TO.C,R13*%
X72920000Y-67520000D02*
X66380000Y-67520000D01*
X66380000Y-70260000D02*
X72920000Y-70260000D01*
X72920000Y-70260000D02*
X72920000Y-67520000D01*
X66380000Y-67520000D02*
X66380000Y-70260000D01*
X65610000Y-68890000D02*
X66380000Y-68890000D01*
X73690000Y-68890000D02*
X72920000Y-68890000D01*
%TO.C,R12*%
X72890000Y-64360000D02*
X66350000Y-64360000D01*
X66350000Y-67100000D02*
X72890000Y-67100000D01*
X72890000Y-67100000D02*
X72890000Y-64360000D01*
X66350000Y-64360000D02*
X66350000Y-67100000D01*
X65580000Y-65730000D02*
X66350000Y-65730000D01*
X73660000Y-65730000D02*
X72890000Y-65730000D01*
%TO.C,R11*%
X86360000Y-75260000D02*
X85590000Y-75260000D01*
X78280000Y-75260000D02*
X79050000Y-75260000D01*
X79050000Y-73890000D02*
X79050000Y-76630000D01*
X85590000Y-76630000D02*
X85590000Y-73890000D01*
X79050000Y-76630000D02*
X85590000Y-76630000D01*
X85590000Y-73890000D02*
X79050000Y-73890000D01*
%TO.C,R10*%
X86320000Y-78370000D02*
X85550000Y-78370000D01*
X78240000Y-78370000D02*
X79010000Y-78370000D01*
X79010000Y-77000000D02*
X79010000Y-79740000D01*
X85550000Y-79740000D02*
X85550000Y-77000000D01*
X79010000Y-79740000D02*
X85550000Y-79740000D01*
X85550000Y-77000000D02*
X79010000Y-77000000D01*
%TO.C,R9*%
X86440000Y-72080000D02*
X85670000Y-72080000D01*
X78360000Y-72080000D02*
X79130000Y-72080000D01*
X79130000Y-70710000D02*
X79130000Y-73450000D01*
X85670000Y-73450000D02*
X85670000Y-70710000D01*
X79130000Y-73450000D02*
X85670000Y-73450000D01*
X85670000Y-70710000D02*
X79130000Y-70710000D01*
%TO.C,R8*%
X86400000Y-68900000D02*
X85630000Y-68900000D01*
X78320000Y-68900000D02*
X79090000Y-68900000D01*
X79090000Y-67530000D02*
X79090000Y-70270000D01*
X85630000Y-70270000D02*
X85630000Y-67530000D01*
X79090000Y-70270000D02*
X85630000Y-70270000D01*
X85630000Y-67530000D02*
X79090000Y-67530000D01*
%TO.C,R7*%
X86370000Y-65730000D02*
X85600000Y-65730000D01*
X78290000Y-65730000D02*
X79060000Y-65730000D01*
X79060000Y-64360000D02*
X79060000Y-67100000D01*
X85600000Y-67100000D02*
X85600000Y-64360000D01*
X79060000Y-67100000D02*
X85600000Y-67100000D01*
X85600000Y-64360000D02*
X79060000Y-64360000D01*
%TO.C,R6*%
X105210000Y-67470000D02*
X104440000Y-67470000D01*
X97130000Y-67470000D02*
X97900000Y-67470000D01*
X97900000Y-66100000D02*
X97900000Y-68840000D01*
X104440000Y-68840000D02*
X104440000Y-66100000D01*
X97900000Y-68840000D02*
X104440000Y-68840000D01*
X104440000Y-66100000D02*
X97900000Y-66100000D01*
%TO.C,R5*%
X105450000Y-84990000D02*
X104680000Y-84990000D01*
X97370000Y-84990000D02*
X98140000Y-84990000D01*
X98140000Y-83620000D02*
X98140000Y-86360000D01*
X104680000Y-86360000D02*
X104680000Y-83620000D01*
X98140000Y-86360000D02*
X104680000Y-86360000D01*
X104680000Y-83620000D02*
X98140000Y-83620000D01*
%TO.C,R4*%
X105210000Y-70640000D02*
X104440000Y-70640000D01*
X97130000Y-70640000D02*
X97900000Y-70640000D01*
X97900000Y-69270000D02*
X97900000Y-72010000D01*
X104440000Y-72010000D02*
X104440000Y-69270000D01*
X97900000Y-72010000D02*
X104440000Y-72010000D01*
X104440000Y-69270000D02*
X97900000Y-69270000D01*
%TO.C,R3*%
X105470000Y-81780000D02*
X104700000Y-81780000D01*
X97390000Y-81780000D02*
X98160000Y-81780000D01*
X98160000Y-80410000D02*
X98160000Y-83150000D01*
X104700000Y-83150000D02*
X104700000Y-80410000D01*
X98160000Y-83150000D02*
X104700000Y-83150000D01*
X104700000Y-80410000D02*
X98160000Y-80410000D01*
%TO.C,R2*%
X105480000Y-88130000D02*
X104710000Y-88130000D01*
X97400000Y-88130000D02*
X98170000Y-88130000D01*
X98170000Y-86760000D02*
X98170000Y-89500000D01*
X104710000Y-89500000D02*
X104710000Y-86760000D01*
X98170000Y-89500000D02*
X104710000Y-89500000D01*
X104710000Y-86760000D02*
X98170000Y-86760000D01*
%TO.C,R1*%
X104730000Y-89870000D02*
X98190000Y-89870000D01*
X98190000Y-92610000D02*
X104730000Y-92610000D01*
X104730000Y-92610000D02*
X104730000Y-89870000D01*
X98190000Y-89870000D02*
X98190000Y-92610000D01*
X97420000Y-91240000D02*
X98190000Y-91240000D01*
X105500000Y-91240000D02*
X104730000Y-91240000D01*
%TO.C,Q4*%
X63800000Y-91080000D02*
X67400000Y-91080000D01*
X67438478Y-91068478D02*
G75*
G03*
X65600000Y-86630000I-1838478J1838478D01*
G01*
X65600000Y-86630000D02*
G75*
G03*
X63761522Y-91068478I0J-2600000D01*
G01*
%TO.C,Q2*%
X87020000Y-63370000D02*
X90620000Y-63370000D01*
X90658478Y-63358478D02*
G75*
G03*
X88820000Y-58920000I-1838478J1838478D01*
G01*
X88820000Y-58920000D02*
G75*
G03*
X86981522Y-63358478I0J-2600000D01*
G01*
%TO.C,Q1*%
X93790000Y-78640000D02*
X97390000Y-78640000D01*
X97428478Y-78628478D02*
G75*
G03*
X95590000Y-74190000I-1838478J1838478D01*
G01*
X95590000Y-74190000D02*
G75*
G03*
X93751522Y-78628478I0J-2600000D01*
G01*
%TO.C,J1*%
X53340000Y-90150000D02*
X61020000Y-90150000D01*
X52070000Y-92810000D02*
X50740000Y-92810000D01*
X61020000Y-92810000D02*
X61020000Y-90150000D01*
X53340000Y-92810000D02*
X53340000Y-90150000D01*
X50740000Y-92810000D02*
X50740000Y-91480000D01*
X53340000Y-92810000D02*
X61020000Y-92810000D01*
%TO.C,D4*%
X72030000Y-89990000D02*
X72030000Y-92930000D01*
X71130000Y-89990000D02*
X76570000Y-89990000D01*
X71910000Y-89990000D02*
X71910000Y-92930000D01*
X71130000Y-90320000D02*
X71130000Y-89990000D01*
X71130000Y-92930000D02*
X76570000Y-92930000D01*
X72150000Y-89990000D02*
X72150000Y-92930000D01*
X71130000Y-92600000D02*
X71130000Y-92930000D01*
X76570000Y-92930000D02*
X76570000Y-92600000D01*
X76570000Y-89990000D02*
X76570000Y-90320000D01*
%TO.C,D3*%
X71990000Y-86670000D02*
X71990000Y-89610000D01*
X71090000Y-86670000D02*
X76530000Y-86670000D01*
X71870000Y-86670000D02*
X71870000Y-89610000D01*
X71090000Y-87000000D02*
X71090000Y-86670000D01*
X71090000Y-89610000D02*
X76530000Y-89610000D01*
X72110000Y-86670000D02*
X72110000Y-89610000D01*
X71090000Y-89280000D02*
X71090000Y-89610000D01*
X76530000Y-89610000D02*
X76530000Y-89280000D01*
X76530000Y-86670000D02*
X76530000Y-87000000D01*
%TO.C,D2*%
X82260000Y-90050000D02*
X82260000Y-92990000D01*
X81360000Y-90050000D02*
X86800000Y-90050000D01*
X82140000Y-90050000D02*
X82140000Y-92990000D01*
X81360000Y-90380000D02*
X81360000Y-90050000D01*
X81360000Y-92990000D02*
X86800000Y-92990000D01*
X82380000Y-90050000D02*
X82380000Y-92990000D01*
X81360000Y-92660000D02*
X81360000Y-92990000D01*
X86800000Y-92990000D02*
X86800000Y-92660000D01*
X86800000Y-90050000D02*
X86800000Y-90380000D01*
%TO.C,D1*%
X82260000Y-86700000D02*
X82260000Y-89640000D01*
X81360000Y-86700000D02*
X86800000Y-86700000D01*
X82140000Y-86700000D02*
X82140000Y-89640000D01*
X81360000Y-87030000D02*
X81360000Y-86700000D01*
X81360000Y-89640000D02*
X86800000Y-89640000D01*
X82380000Y-86700000D02*
X82380000Y-89640000D01*
X81360000Y-89310000D02*
X81360000Y-89640000D01*
X86800000Y-89640000D02*
X86800000Y-89310000D01*
X86800000Y-86700000D02*
X86800000Y-87030000D01*
%TO.C,C13*%
X58840000Y-77100000D02*
X66580000Y-77100000D01*
X58840000Y-82340000D02*
X66580000Y-82340000D01*
X58840000Y-77100000D02*
X58840000Y-82340000D01*
X66580000Y-77100000D02*
X66580000Y-82340000D01*
%TO.C,C12*%
X58180000Y-77060000D02*
X58180000Y-82300000D01*
X50440000Y-77060000D02*
X50440000Y-82300000D01*
X50440000Y-82300000D02*
X58180000Y-82300000D01*
X50440000Y-77060000D02*
X58180000Y-77060000D01*
%TO.C,C11*%
X75610000Y-79830000D02*
X75610000Y-77090000D01*
X75610000Y-77090000D02*
X67870000Y-77090000D01*
X67870000Y-79830000D02*
X67870000Y-77090000D01*
X75610000Y-79830000D02*
X67870000Y-79830000D01*
%TO.C,C10*%
X78120000Y-80260000D02*
X78120000Y-83000000D01*
X78120000Y-83000000D02*
X85860000Y-83000000D01*
X85860000Y-80260000D02*
X85860000Y-83000000D01*
X78120000Y-80260000D02*
X85860000Y-80260000D01*
%TO.C,C9*%
X78150000Y-83420000D02*
X78150000Y-86160000D01*
X78150000Y-86160000D02*
X85890000Y-86160000D01*
X85890000Y-83420000D02*
X85890000Y-86160000D01*
X78150000Y-83420000D02*
X85890000Y-83420000D01*
%TO.C,C8*%
X67870000Y-83470000D02*
X75610000Y-83470000D01*
X75610000Y-83470000D02*
X75610000Y-86210000D01*
X67870000Y-86210000D02*
X75610000Y-86210000D01*
X67870000Y-83470000D02*
X67870000Y-86210000D01*
%TO.C,C7*%
X75580000Y-82980000D02*
X67840000Y-82980000D01*
X67840000Y-82980000D02*
X67840000Y-80240000D01*
X75580000Y-80240000D02*
X67840000Y-80240000D01*
X75580000Y-82980000D02*
X75580000Y-80240000D01*
%TO.C,C5*%
X66450000Y-58130000D02*
X66450000Y-50390000D01*
X71690000Y-58130000D02*
X71690000Y-50390000D01*
X66450000Y-58130000D02*
X71690000Y-58130000D01*
X66450000Y-50390000D02*
X71690000Y-50390000D01*
%TO.C,C4*%
X86260000Y-58370000D02*
X86260000Y-50630000D01*
X91500000Y-58370000D02*
X91500000Y-50630000D01*
X86260000Y-58370000D02*
X91500000Y-58370000D01*
X86260000Y-50630000D02*
X91500000Y-50630000D01*
%TO.C,C3*%
X107050000Y-79420000D02*
X99310000Y-79420000D01*
X107050000Y-74180000D02*
X99310000Y-74180000D01*
X107050000Y-79420000D02*
X107050000Y-74180000D01*
X99310000Y-79420000D02*
X99310000Y-74180000D01*
%TO.C,C2*%
X92730000Y-65220000D02*
X89990000Y-65220000D01*
X89990000Y-65220000D02*
X89990000Y-72960000D01*
X92730000Y-72960000D02*
X89990000Y-72960000D01*
X92730000Y-65220000D02*
X92730000Y-72960000D01*
%TO.C,C1*%
X89460000Y-93100000D02*
X89460000Y-85360000D01*
X94700000Y-93100000D02*
X94700000Y-85360000D01*
X89460000Y-93100000D02*
X94700000Y-93100000D01*
X89460000Y-85360000D02*
X94700000Y-85360000D01*
%TD*%
M02*
