G04 #@! TF.GenerationSoftware,KiCad,Pcbnew,7.0.11+dfsg-1build4*
G04 #@! TF.CreationDate,2026-01-25T21:38:33-05:00*
G04 #@! TF.ProjectId,Envelope-01-mutronv,456e7665-6c6f-4706-952d-30312d6d7574,rev?*
G04 #@! TF.SameCoordinates,Original*
G04 #@! TF.FileFunction,AssemblyDrawing,Top*
%FSLAX46Y46*%
G04 Gerber Fmt 4.6, Leading zero omitted, Abs format (unit mm)*
G04 Created by KiCad (PCBNEW 7.0.11+dfsg-1build4) date 2026-01-25 21:38:33*
%MOMM*%
%LPD*%
G01*
G04 APERTURE LIST*
%ADD10C,0.150000*%
%ADD11C,0.100000*%
G04 APERTURE END LIST*
D10*
X132724762Y-99934819D02*
X132724762Y-98934819D01*
X132724762Y-98934819D02*
X133058095Y-99649104D01*
X133058095Y-99649104D02*
X133391428Y-98934819D01*
X133391428Y-98934819D02*
X133391428Y-99934819D01*
X133867619Y-98934819D02*
X133867619Y-99744342D01*
X133867619Y-99744342D02*
X133915238Y-99839580D01*
X133915238Y-99839580D02*
X133962857Y-99887200D01*
X133962857Y-99887200D02*
X134058095Y-99934819D01*
X134058095Y-99934819D02*
X134248571Y-99934819D01*
X134248571Y-99934819D02*
X134343809Y-99887200D01*
X134343809Y-99887200D02*
X134391428Y-99839580D01*
X134391428Y-99839580D02*
X134439047Y-99744342D01*
X134439047Y-99744342D02*
X134439047Y-98934819D01*
X134772381Y-98934819D02*
X135343809Y-98934819D01*
X135058095Y-99934819D02*
X135058095Y-98934819D01*
X136248571Y-99934819D02*
X135915238Y-99458628D01*
X135677143Y-99934819D02*
X135677143Y-98934819D01*
X135677143Y-98934819D02*
X136058095Y-98934819D01*
X136058095Y-98934819D02*
X136153333Y-98982438D01*
X136153333Y-98982438D02*
X136200952Y-99030057D01*
X136200952Y-99030057D02*
X136248571Y-99125295D01*
X136248571Y-99125295D02*
X136248571Y-99268152D01*
X136248571Y-99268152D02*
X136200952Y-99363390D01*
X136200952Y-99363390D02*
X136153333Y-99411009D01*
X136153333Y-99411009D02*
X136058095Y-99458628D01*
X136058095Y-99458628D02*
X135677143Y-99458628D01*
X136867619Y-98934819D02*
X137058095Y-98934819D01*
X137058095Y-98934819D02*
X137153333Y-98982438D01*
X137153333Y-98982438D02*
X137248571Y-99077676D01*
X137248571Y-99077676D02*
X137296190Y-99268152D01*
X137296190Y-99268152D02*
X137296190Y-99601485D01*
X137296190Y-99601485D02*
X137248571Y-99791961D01*
X137248571Y-99791961D02*
X137153333Y-99887200D01*
X137153333Y-99887200D02*
X137058095Y-99934819D01*
X137058095Y-99934819D02*
X136867619Y-99934819D01*
X136867619Y-99934819D02*
X136772381Y-99887200D01*
X136772381Y-99887200D02*
X136677143Y-99791961D01*
X136677143Y-99791961D02*
X136629524Y-99601485D01*
X136629524Y-99601485D02*
X136629524Y-99268152D01*
X136629524Y-99268152D02*
X136677143Y-99077676D01*
X136677143Y-99077676D02*
X136772381Y-98982438D01*
X136772381Y-98982438D02*
X136867619Y-98934819D01*
X137724762Y-99934819D02*
X137724762Y-98934819D01*
X137724762Y-98934819D02*
X138296190Y-99934819D01*
X138296190Y-99934819D02*
X138296190Y-98934819D01*
X139391429Y-98934819D02*
X139724762Y-99934819D01*
X139724762Y-99934819D02*
X140058095Y-98934819D01*
D11*
X134858000Y-77498000D02*
X127858000Y-77498000D01*
X127858000Y-80998000D02*
X134858000Y-80998000D01*
X127858000Y-77498000D02*
X127858000Y-80998000D01*
X134858000Y-80998000D02*
X134858000Y-77498000D01*
X140726861Y-96675500D02*
X139726861Y-96675500D01*
X140226861Y-97175500D02*
X140226861Y-96175500D01*
X141438000Y-94488000D02*
G75*
G03*
X131438000Y-94488000I-5000000J0D01*
G01*
X131438000Y-94488000D02*
G75*
G03*
X141438000Y-94488000I5000000J0D01*
G01*
X110266000Y-58496000D02*
X115366000Y-58496000D01*
X115366000Y-55296000D02*
X110266000Y-55296000D01*
X110266000Y-55296000D02*
X110266000Y-58496000D01*
X115366000Y-58496000D02*
X115366000Y-55296000D01*
X140226861Y-72791500D02*
X140226861Y-71791500D01*
X140726861Y-72291500D02*
X139726861Y-72291500D01*
X141438000Y-70104000D02*
G75*
G03*
X131438000Y-70104000I-5000000J0D01*
G01*
X131438000Y-70104000D02*
G75*
G03*
X141438000Y-70104000I5000000J0D01*
G01*
X109668554Y-63859500D02*
X109268554Y-63859500D01*
X109468554Y-64059500D02*
X109468554Y-63659500D01*
X109966000Y-62992000D02*
G75*
G03*
X105966000Y-62992000I-2000000J0D01*
G01*
X105966000Y-62992000D02*
G75*
G03*
X109966000Y-62992000I2000000J0D01*
G01*
X116316000Y-75156000D02*
X116316000Y-71656000D01*
X109316000Y-71656000D02*
X109316000Y-75156000D01*
X109316000Y-75156000D02*
X116316000Y-75156000D01*
X116316000Y-71656000D02*
X109316000Y-71656000D01*
X108362000Y-55146000D02*
X101362000Y-55146000D01*
X101362000Y-55146000D02*
X101362000Y-58646000D01*
X108362000Y-58646000D02*
X108362000Y-55146000D01*
X101362000Y-58646000D02*
X108362000Y-58646000D01*
X101188000Y-75156000D02*
X108188000Y-75156000D01*
X108188000Y-71656000D02*
X101188000Y-71656000D01*
X101188000Y-71656000D02*
X101188000Y-75156000D01*
X108188000Y-75156000D02*
X108188000Y-71656000D01*
X104642554Y-63805500D02*
X104642554Y-63405500D01*
X104842554Y-63605500D02*
X104442554Y-63605500D01*
X105140000Y-62738000D02*
G75*
G03*
X101140000Y-62738000I-2000000J0D01*
G01*
X101140000Y-62738000D02*
G75*
G03*
X105140000Y-62738000I2000000J0D01*
G01*
X113634000Y-86078000D02*
X120634000Y-86078000D01*
X120634000Y-82578000D02*
X113634000Y-82578000D01*
X113634000Y-82578000D02*
X113634000Y-86078000D01*
X120634000Y-86078000D02*
X120634000Y-82578000D01*
X103474000Y-99032000D02*
X110474000Y-99032000D01*
X110474000Y-99032000D02*
X110474000Y-95532000D01*
X110474000Y-95532000D02*
X103474000Y-95532000D01*
X103474000Y-95532000D02*
X103474000Y-99032000D01*
X120634000Y-86896000D02*
X113634000Y-86896000D01*
X113634000Y-86896000D02*
X113634000Y-90396000D01*
X113634000Y-90396000D02*
X120634000Y-90396000D01*
X120634000Y-90396000D02*
X120634000Y-86896000D01*
X118570000Y-78740000D02*
G75*
G03*
X114570000Y-78740000I-2000000J0D01*
G01*
X114570000Y-78740000D02*
G75*
G03*
X118570000Y-78740000I2000000J0D01*
G01*
X115067446Y-77672500D02*
X115067446Y-78072500D01*
X114867446Y-77872500D02*
X115267446Y-77872500D01*
X120590000Y-55546000D02*
X120590000Y-58246000D01*
X127000000Y-56896000D02*
X125790000Y-56896000D01*
X120590000Y-58246000D02*
X125790000Y-58246000D01*
X124910000Y-58246000D02*
X124910000Y-55546000D01*
X125790000Y-55546000D02*
X120590000Y-55546000D01*
X125010000Y-58246000D02*
X125010000Y-55546000D01*
X125790000Y-58246000D02*
X125790000Y-55546000D01*
X125110000Y-58246000D02*
X125110000Y-55546000D01*
X119380000Y-56896000D02*
X120590000Y-56896000D01*
X125536000Y-62564000D02*
X125536000Y-59864000D01*
X119126000Y-61214000D02*
X120336000Y-61214000D01*
X121116000Y-59864000D02*
X121116000Y-62564000D01*
X121216000Y-59864000D02*
X121216000Y-62564000D01*
X120336000Y-59864000D02*
X120336000Y-62564000D01*
X120336000Y-62564000D02*
X125536000Y-62564000D01*
X121016000Y-59864000D02*
X121016000Y-62564000D01*
X126746000Y-61214000D02*
X125536000Y-61214000D01*
X125536000Y-59864000D02*
X120336000Y-59864000D01*
X117856000Y-97536000D02*
X129921000Y-97536000D01*
X117856000Y-100076000D02*
X117856000Y-97536000D01*
X130556000Y-98171000D02*
X130556000Y-100076000D01*
X130556000Y-100076000D02*
X117856000Y-100076000D01*
X129921000Y-97536000D02*
X130556000Y-98171000D01*
X125468000Y-77498000D02*
X121968000Y-77498000D01*
X121944375Y-77494375D02*
G75*
G03*
X123698000Y-81728000I1753625J-1753625D01*
G01*
X123698000Y-81728000D02*
G75*
G03*
X125451625Y-77494375I0J2480000D01*
G01*
X135390000Y-58900000D02*
X138890000Y-58900000D01*
X138913625Y-58903625D02*
G75*
G03*
X137160000Y-54670000I-1753625J1753625D01*
G01*
X137160000Y-54670000D02*
G75*
G03*
X135406375Y-58903625I0J-2480000D01*
G01*
X135992000Y-82316000D02*
X129692000Y-82316000D01*
X127762000Y-83566000D02*
X129692000Y-83566000D01*
X129692000Y-84816000D02*
X135992000Y-84816000D01*
X129692000Y-82316000D02*
X129692000Y-84816000D01*
X137922000Y-83566000D02*
X135992000Y-83566000D01*
X135992000Y-84816000D02*
X135992000Y-82316000D01*
X144678000Y-56876000D02*
X150978000Y-56876000D01*
X150978000Y-56876000D02*
X150978000Y-54376000D01*
X142748000Y-55626000D02*
X144678000Y-55626000D01*
X152908000Y-55626000D02*
X150978000Y-55626000D01*
X144678000Y-54376000D02*
X144678000Y-56876000D01*
X150978000Y-54376000D02*
X144678000Y-54376000D01*
X150978000Y-99294000D02*
X150978000Y-96794000D01*
X142748000Y-98044000D02*
X144678000Y-98044000D01*
X150978000Y-96794000D02*
X144678000Y-96794000D01*
X144678000Y-96794000D02*
X144678000Y-99294000D01*
X152908000Y-98044000D02*
X150978000Y-98044000D01*
X144678000Y-99294000D02*
X150978000Y-99294000D01*
X114046000Y-68834000D02*
X112116000Y-68834000D01*
X112116000Y-67584000D02*
X105816000Y-67584000D01*
X105816000Y-67584000D02*
X105816000Y-70084000D01*
X105816000Y-70084000D02*
X112116000Y-70084000D01*
X112116000Y-70084000D02*
X112116000Y-67584000D01*
X103886000Y-68834000D02*
X105816000Y-68834000D01*
X120802000Y-70846000D02*
X127102000Y-70846000D01*
X127102000Y-68346000D02*
X120802000Y-68346000D01*
X129032000Y-69596000D02*
X127102000Y-69596000D01*
X118872000Y-69596000D02*
X120802000Y-69596000D01*
X127102000Y-70846000D02*
X127102000Y-68346000D01*
X120802000Y-68346000D02*
X120802000Y-70846000D01*
X128372000Y-72410000D02*
X122072000Y-72410000D01*
X120142000Y-73660000D02*
X122072000Y-73660000D01*
X128372000Y-74910000D02*
X128372000Y-72410000D01*
X130302000Y-73660000D02*
X128372000Y-73660000D01*
X122072000Y-74910000D02*
X128372000Y-74910000D01*
X122072000Y-72410000D02*
X122072000Y-74910000D01*
X126594000Y-64536000D02*
X120294000Y-64536000D01*
X118364000Y-65786000D02*
X120294000Y-65786000D01*
X120294000Y-64536000D02*
X120294000Y-67036000D01*
X126594000Y-67036000D02*
X126594000Y-64536000D01*
X120294000Y-67036000D02*
X126594000Y-67036000D01*
X128524000Y-65786000D02*
X126594000Y-65786000D01*
X137770000Y-62972000D02*
X137770000Y-60472000D01*
X129540000Y-61722000D02*
X131470000Y-61722000D01*
X131470000Y-62972000D02*
X137770000Y-62972000D01*
X137770000Y-60472000D02*
X131470000Y-60472000D01*
X139700000Y-61722000D02*
X137770000Y-61722000D01*
X131470000Y-60472000D02*
X131470000Y-62972000D01*
X150978000Y-60980000D02*
X144678000Y-60980000D01*
X152908000Y-62230000D02*
X150978000Y-62230000D01*
X142748000Y-62230000D02*
X144678000Y-62230000D01*
X144678000Y-63480000D02*
X150978000Y-63480000D01*
X144678000Y-60980000D02*
X144678000Y-63480000D01*
X150978000Y-63480000D02*
X150978000Y-60980000D01*
X109830000Y-94722000D02*
X109830000Y-92222000D01*
X111760000Y-93472000D02*
X109830000Y-93472000D01*
X109830000Y-92222000D02*
X103530000Y-92222000D01*
X101600000Y-93472000D02*
X103530000Y-93472000D01*
X103530000Y-94722000D02*
X109830000Y-94722000D01*
X103530000Y-92222000D02*
X103530000Y-94722000D01*
X144678000Y-51074000D02*
X144678000Y-53574000D01*
X142748000Y-52324000D02*
X144678000Y-52324000D01*
X144678000Y-53574000D02*
X150978000Y-53574000D01*
X150978000Y-53574000D02*
X150978000Y-51074000D01*
X152908000Y-52324000D02*
X150978000Y-52324000D01*
X150978000Y-51074000D02*
X144678000Y-51074000D01*
X144678000Y-95230000D02*
X150978000Y-95230000D01*
X144678000Y-92730000D02*
X144678000Y-95230000D01*
X150978000Y-92730000D02*
X144678000Y-92730000D01*
X142748000Y-93980000D02*
X144678000Y-93980000D01*
X150978000Y-95230000D02*
X150978000Y-92730000D01*
X152908000Y-93980000D02*
X150978000Y-93980000D01*
X116230000Y-92222000D02*
X116230000Y-94722000D01*
X124460000Y-93472000D02*
X122530000Y-93472000D01*
X114300000Y-93472000D02*
X116230000Y-93472000D01*
X122530000Y-92222000D02*
X116230000Y-92222000D01*
X116230000Y-94722000D02*
X122530000Y-94722000D01*
X122530000Y-94722000D02*
X122530000Y-92222000D01*
X103784000Y-76474000D02*
X103784000Y-78974000D01*
X101854000Y-77724000D02*
X103784000Y-77724000D01*
X110084000Y-78974000D02*
X110084000Y-76474000D01*
X110084000Y-76474000D02*
X103784000Y-76474000D01*
X103784000Y-78974000D02*
X110084000Y-78974000D01*
X112014000Y-77724000D02*
X110084000Y-77724000D01*
X129946000Y-85872000D02*
X129946000Y-88372000D01*
X128016000Y-87122000D02*
X129946000Y-87122000D01*
X136246000Y-85872000D02*
X129946000Y-85872000D01*
X136246000Y-88372000D02*
X136246000Y-85872000D01*
X129946000Y-88372000D02*
X136246000Y-88372000D01*
X138176000Y-87122000D02*
X136246000Y-87122000D01*
X119646000Y-39774000D02*
X119646000Y-50574000D01*
X136546000Y-50574000D02*
X136546000Y-39774000D01*
X119646000Y-50574000D02*
X136546000Y-50574000D01*
X130096000Y-39774000D02*
G75*
G03*
X126096000Y-39774000I-2000000J0D01*
G01*
X126096000Y-39774000D02*
G75*
G03*
X130096000Y-39774000I2000000J0D01*
G01*
X136546000Y-39774000D02*
G75*
G03*
X119646000Y-39774000I-8450000J0D01*
G01*
X119646000Y-39774000D02*
G75*
G03*
X136546000Y-39774000I8450000J0D01*
G01*
X103759000Y-81518000D02*
X104759000Y-80518000D01*
X103759000Y-90678000D02*
X103759000Y-81518000D01*
X104759000Y-80518000D02*
X110109000Y-80518000D01*
X110109000Y-80518000D02*
X110109000Y-90678000D01*
X110109000Y-90678000D02*
X103759000Y-90678000D01*
X145907000Y-68834000D02*
X151257000Y-68834000D01*
X144907000Y-89154000D02*
X144907000Y-69834000D01*
X144907000Y-69834000D02*
X145907000Y-68834000D01*
X151257000Y-68834000D02*
X151257000Y-89154000D01*
X151257000Y-89154000D02*
X144907000Y-89154000D01*
X144678000Y-57678000D02*
X144678000Y-60178000D01*
X150978000Y-60178000D02*
X150978000Y-57678000D01*
X144678000Y-60178000D02*
X150978000Y-60178000D01*
X152908000Y-58928000D02*
X150978000Y-58928000D01*
X142748000Y-58928000D02*
X144678000Y-58928000D01*
X150978000Y-57678000D02*
X144678000Y-57678000D01*
X142494000Y-65532000D02*
X144424000Y-65532000D01*
X150724000Y-66782000D02*
X150724000Y-64282000D01*
X150724000Y-64282000D02*
X144424000Y-64282000D01*
X144424000Y-66782000D02*
X150724000Y-66782000D01*
X144424000Y-64282000D02*
X144424000Y-66782000D01*
X152654000Y-65532000D02*
X150724000Y-65532000D01*
X102362000Y-52832000D02*
X104292000Y-52832000D01*
X112522000Y-52832000D02*
X110592000Y-52832000D01*
X104292000Y-54082000D02*
X110592000Y-54082000D01*
X110592000Y-54082000D02*
X110592000Y-51582000D01*
X104292000Y-51582000D02*
X104292000Y-54082000D01*
X110592000Y-51582000D02*
X104292000Y-51582000D01*
X115562000Y-60988000D02*
X112062000Y-60988000D01*
X113792000Y-65218000D02*
G75*
G03*
X115545625Y-60984375I0J2480000D01*
G01*
X112038375Y-60984375D02*
G75*
G03*
X113792000Y-65218000I1753625J-1753625D01*
G01*
M02*
