%FSLAX45Y45*%
G04 Gerber Fmt 4.5, Leading zero omitted, Abs format (unit mm)*
G04 Created by KiCad (PCBNEW 6.0.2+dfsg-1) date 2023-04-09 17:36:26*
%MOMM*%
%LPD*%
G01*
G04 APERTURE LIST*
%TA.AperFunction,Profile*%
%ADD10C,0.100000*%
%TD*%
%ADD11C,0.200000*%
G04 APERTURE END LIST*
D10*
X10007600Y-5003800D02*
X9982200Y-5003800D01*
X15468600Y-10083800D02*
X9982200Y-10083800D01*
X15417800Y-4978400D02*
X15443200Y-4978400D01*
X15443200Y-4978400D02*
X15468600Y-10083800D01*
X10007600Y-5003800D02*
X15417800Y-4978400D01*
X9982200Y-10083800D02*
X9982200Y-5003800D01*
D11*
X10234819Y-10399276D02*
X10234819Y-10199276D01*
X10282438Y-10199276D01*
X10311010Y-10208800D01*
X10330057Y-10227848D01*
X10339581Y-10246895D01*
X10349105Y-10284990D01*
X10349105Y-10313562D01*
X10339581Y-10351657D01*
X10330057Y-10370705D01*
X10311010Y-10389752D01*
X10282438Y-10399276D01*
X10234819Y-10399276D01*
X10434819Y-10399276D02*
X10434819Y-10265943D01*
X10434819Y-10304038D02*
X10444343Y-10284990D01*
X10453867Y-10275467D01*
X10472914Y-10265943D01*
X10491962Y-10265943D01*
X10558629Y-10399276D02*
X10558629Y-10265943D01*
X10558629Y-10199276D02*
X10549105Y-10208800D01*
X10558629Y-10218324D01*
X10568152Y-10208800D01*
X10558629Y-10199276D01*
X10558629Y-10218324D01*
X10682438Y-10399276D02*
X10663390Y-10389752D01*
X10653867Y-10370705D01*
X10653867Y-10199276D01*
X10787200Y-10399276D02*
X10768152Y-10389752D01*
X10758629Y-10370705D01*
X10758629Y-10199276D01*
X11015771Y-10399276D02*
X11015771Y-10199276D01*
X11082438Y-10342133D01*
X11149105Y-10199276D01*
X11149105Y-10399276D01*
X11330057Y-10399276D02*
X11330057Y-10294514D01*
X11320533Y-10275467D01*
X11301486Y-10265943D01*
X11263390Y-10265943D01*
X11244343Y-10275467D01*
X11330057Y-10389752D02*
X11311009Y-10399276D01*
X11263390Y-10399276D01*
X11244343Y-10389752D01*
X11234819Y-10370705D01*
X11234819Y-10351657D01*
X11244343Y-10332610D01*
X11263390Y-10323086D01*
X11311009Y-10323086D01*
X11330057Y-10313562D01*
X11425295Y-10265943D02*
X11425295Y-10465943D01*
X11425295Y-10275467D02*
X11444343Y-10265943D01*
X11482438Y-10265943D01*
X11501486Y-10275467D01*
X11511009Y-10284990D01*
X11520533Y-10304038D01*
X11520533Y-10361181D01*
X11511009Y-10380229D01*
X11501486Y-10389752D01*
X11482438Y-10399276D01*
X11444343Y-10399276D01*
X11425295Y-10389752D01*
X11606248Y-10380229D02*
X11615771Y-10389752D01*
X11606248Y-10399276D01*
X11596724Y-10389752D01*
X11606248Y-10380229D01*
X11606248Y-10399276D01*
X11606248Y-10275467D02*
X11615771Y-10284990D01*
X11606248Y-10294514D01*
X11596724Y-10284990D01*
X11606248Y-10275467D01*
X11606248Y-10294514D01*
M02*
