%TF.GenerationSoftware,KiCad,Pcbnew,7.0.11+dfsg-1build4*%
%TF.CreationDate,2026-01-28T23:18:33-05:00*%
%TF.ProjectId,acapulcogold,61636170-756c-4636-9f67-6f6c642e6b69,rev?*%
%TF.SameCoordinates,Original*%
%TF.FileFunction,Legend,Top*%
%TF.FilePolarity,Positive*%
%FSLAX46Y46*%
G04 Gerber Fmt 4.6, Leading zero omitted, Abs format (unit mm)*
G04 Created by KiCad (PCBNEW 7.0.11+dfsg-1build4) date 2026-01-28 23:18:33*
%MOMM*%
%LPD*%
G01*
G04 APERTURE LIST*
%ADD10C,0.100000*%
%ADD11C,0.150000*%
%ADD12C,0.120000*%
G04 APERTURE END LIST*
D10*
X108656265Y-127386704D02*
X109132455Y-127386704D01*
X108561027Y-127672419D02*
X108894360Y-126672419D01*
X108894360Y-126672419D02*
X109227693Y-127672419D01*
X109561027Y-127291466D02*
X110322932Y-127291466D01*
X111227693Y-127005752D02*
X111227693Y-127815276D01*
X111227693Y-127815276D02*
X111180074Y-127910514D01*
X111180074Y-127910514D02*
X111132455Y-127958133D01*
X111132455Y-127958133D02*
X111037217Y-128005752D01*
X111037217Y-128005752D02*
X110894360Y-128005752D01*
X110894360Y-128005752D02*
X110799122Y-127958133D01*
X111227693Y-127624800D02*
X111132455Y-127672419D01*
X111132455Y-127672419D02*
X110941979Y-127672419D01*
X110941979Y-127672419D02*
X110846741Y-127624800D01*
X110846741Y-127624800D02*
X110799122Y-127577180D01*
X110799122Y-127577180D02*
X110751503Y-127481942D01*
X110751503Y-127481942D02*
X110751503Y-127196228D01*
X110751503Y-127196228D02*
X110799122Y-127100990D01*
X110799122Y-127100990D02*
X110846741Y-127053371D01*
X110846741Y-127053371D02*
X110941979Y-127005752D01*
X110941979Y-127005752D02*
X111132455Y-127005752D01*
X111132455Y-127005752D02*
X111227693Y-127053371D01*
X111846741Y-127672419D02*
X111751503Y-127624800D01*
X111751503Y-127624800D02*
X111703884Y-127577180D01*
X111703884Y-127577180D02*
X111656265Y-127481942D01*
X111656265Y-127481942D02*
X111656265Y-127196228D01*
X111656265Y-127196228D02*
X111703884Y-127100990D01*
X111703884Y-127100990D02*
X111751503Y-127053371D01*
X111751503Y-127053371D02*
X111846741Y-127005752D01*
X111846741Y-127005752D02*
X111989598Y-127005752D01*
X111989598Y-127005752D02*
X112084836Y-127053371D01*
X112084836Y-127053371D02*
X112132455Y-127100990D01*
X112132455Y-127100990D02*
X112180074Y-127196228D01*
X112180074Y-127196228D02*
X112180074Y-127481942D01*
X112180074Y-127481942D02*
X112132455Y-127577180D01*
X112132455Y-127577180D02*
X112084836Y-127624800D01*
X112084836Y-127624800D02*
X111989598Y-127672419D01*
X111989598Y-127672419D02*
X111846741Y-127672419D01*
X112751503Y-127672419D02*
X112656265Y-127624800D01*
X112656265Y-127624800D02*
X112608646Y-127529561D01*
X112608646Y-127529561D02*
X112608646Y-126672419D01*
X113561027Y-127672419D02*
X113561027Y-126672419D01*
X113561027Y-127624800D02*
X113465789Y-127672419D01*
X113465789Y-127672419D02*
X113275313Y-127672419D01*
X113275313Y-127672419D02*
X113180075Y-127624800D01*
X113180075Y-127624800D02*
X113132456Y-127577180D01*
X113132456Y-127577180D02*
X113084837Y-127481942D01*
X113084837Y-127481942D02*
X113084837Y-127196228D01*
X113084837Y-127196228D02*
X113132456Y-127100990D01*
X113132456Y-127100990D02*
X113180075Y-127053371D01*
X113180075Y-127053371D02*
X113275313Y-127005752D01*
X113275313Y-127005752D02*
X113465789Y-127005752D01*
X113465789Y-127005752D02*
X113561027Y-127053371D01*
X131732455Y-126105752D02*
X131732455Y-126915276D01*
X131732455Y-126915276D02*
X131684836Y-127010514D01*
X131684836Y-127010514D02*
X131637217Y-127058133D01*
X131637217Y-127058133D02*
X131541979Y-127105752D01*
X131541979Y-127105752D02*
X131399122Y-127105752D01*
X131399122Y-127105752D02*
X131303884Y-127058133D01*
X131732455Y-126724800D02*
X131637217Y-126772419D01*
X131637217Y-126772419D02*
X131446741Y-126772419D01*
X131446741Y-126772419D02*
X131351503Y-126724800D01*
X131351503Y-126724800D02*
X131303884Y-126677180D01*
X131303884Y-126677180D02*
X131256265Y-126581942D01*
X131256265Y-126581942D02*
X131256265Y-126296228D01*
X131256265Y-126296228D02*
X131303884Y-126200990D01*
X131303884Y-126200990D02*
X131351503Y-126153371D01*
X131351503Y-126153371D02*
X131446741Y-126105752D01*
X131446741Y-126105752D02*
X131637217Y-126105752D01*
X131637217Y-126105752D02*
X131732455Y-126153371D01*
X132208646Y-126105752D02*
X132208646Y-126772419D01*
X132208646Y-126200990D02*
X132256265Y-126153371D01*
X132256265Y-126153371D02*
X132351503Y-126105752D01*
X132351503Y-126105752D02*
X132494360Y-126105752D01*
X132494360Y-126105752D02*
X132589598Y-126153371D01*
X132589598Y-126153371D02*
X132637217Y-126248609D01*
X132637217Y-126248609D02*
X132637217Y-126772419D01*
X133541979Y-126772419D02*
X133541979Y-125772419D01*
X133541979Y-126724800D02*
X133446741Y-126772419D01*
X133446741Y-126772419D02*
X133256265Y-126772419D01*
X133256265Y-126772419D02*
X133161027Y-126724800D01*
X133161027Y-126724800D02*
X133113408Y-126677180D01*
X133113408Y-126677180D02*
X133065789Y-126581942D01*
X133065789Y-126581942D02*
X133065789Y-126296228D01*
X133065789Y-126296228D02*
X133113408Y-126200990D01*
X133113408Y-126200990D02*
X133161027Y-126153371D01*
X133161027Y-126153371D02*
X133256265Y-126105752D01*
X133256265Y-126105752D02*
X133446741Y-126105752D01*
X133446741Y-126105752D02*
X133541979Y-126153371D01*
X129203884Y-126572419D02*
X129203884Y-125905752D01*
X129203884Y-125572419D02*
X129156265Y-125620038D01*
X129156265Y-125620038D02*
X129203884Y-125667657D01*
X129203884Y-125667657D02*
X129251503Y-125620038D01*
X129251503Y-125620038D02*
X129203884Y-125572419D01*
X129203884Y-125572419D02*
X129203884Y-125667657D01*
X129680074Y-125905752D02*
X129680074Y-126572419D01*
X129680074Y-126000990D02*
X129727693Y-125953371D01*
X129727693Y-125953371D02*
X129822931Y-125905752D01*
X129822931Y-125905752D02*
X129965788Y-125905752D01*
X129965788Y-125905752D02*
X130061026Y-125953371D01*
X130061026Y-125953371D02*
X130108645Y-126048609D01*
X130108645Y-126048609D02*
X130108645Y-126572419D01*
X126146741Y-126772419D02*
X126051503Y-126724800D01*
X126051503Y-126724800D02*
X126003884Y-126677180D01*
X126003884Y-126677180D02*
X125956265Y-126581942D01*
X125956265Y-126581942D02*
X125956265Y-126296228D01*
X125956265Y-126296228D02*
X126003884Y-126200990D01*
X126003884Y-126200990D02*
X126051503Y-126153371D01*
X126051503Y-126153371D02*
X126146741Y-126105752D01*
X126146741Y-126105752D02*
X126289598Y-126105752D01*
X126289598Y-126105752D02*
X126384836Y-126153371D01*
X126384836Y-126153371D02*
X126432455Y-126200990D01*
X126432455Y-126200990D02*
X126480074Y-126296228D01*
X126480074Y-126296228D02*
X126480074Y-126581942D01*
X126480074Y-126581942D02*
X126432455Y-126677180D01*
X126432455Y-126677180D02*
X126384836Y-126724800D01*
X126384836Y-126724800D02*
X126289598Y-126772419D01*
X126289598Y-126772419D02*
X126146741Y-126772419D01*
X127337217Y-126105752D02*
X127337217Y-126772419D01*
X126908646Y-126105752D02*
X126908646Y-126629561D01*
X126908646Y-126629561D02*
X126956265Y-126724800D01*
X126956265Y-126724800D02*
X127051503Y-126772419D01*
X127051503Y-126772419D02*
X127194360Y-126772419D01*
X127194360Y-126772419D02*
X127289598Y-126724800D01*
X127289598Y-126724800D02*
X127337217Y-126677180D01*
X127670551Y-126105752D02*
X128051503Y-126105752D01*
X127813408Y-125772419D02*
X127813408Y-126629561D01*
X127813408Y-126629561D02*
X127861027Y-126724800D01*
X127861027Y-126724800D02*
X127956265Y-126772419D01*
X127956265Y-126772419D02*
X128051503Y-126772419D01*
X123151503Y-126772419D02*
X123341979Y-126772419D01*
X123341979Y-126772419D02*
X123437217Y-126724800D01*
X123437217Y-126724800D02*
X123484836Y-126677180D01*
X123484836Y-126677180D02*
X123580074Y-126534323D01*
X123580074Y-126534323D02*
X123627693Y-126343847D01*
X123627693Y-126343847D02*
X123627693Y-125962895D01*
X123627693Y-125962895D02*
X123580074Y-125867657D01*
X123580074Y-125867657D02*
X123532455Y-125820038D01*
X123532455Y-125820038D02*
X123437217Y-125772419D01*
X123437217Y-125772419D02*
X123246741Y-125772419D01*
X123246741Y-125772419D02*
X123151503Y-125820038D01*
X123151503Y-125820038D02*
X123103884Y-125867657D01*
X123103884Y-125867657D02*
X123056265Y-125962895D01*
X123056265Y-125962895D02*
X123056265Y-126200990D01*
X123056265Y-126200990D02*
X123103884Y-126296228D01*
X123103884Y-126296228D02*
X123151503Y-126343847D01*
X123151503Y-126343847D02*
X123246741Y-126391466D01*
X123246741Y-126391466D02*
X123437217Y-126391466D01*
X123437217Y-126391466D02*
X123532455Y-126343847D01*
X123532455Y-126343847D02*
X123580074Y-126296228D01*
X123580074Y-126296228D02*
X123627693Y-126200990D01*
X123961027Y-126105752D02*
X124199122Y-126772419D01*
X124199122Y-126772419D02*
X124437217Y-126105752D01*
D11*
X128324819Y-111051904D02*
X129134342Y-111051904D01*
X129134342Y-111051904D02*
X129229580Y-111004285D01*
X129229580Y-111004285D02*
X129277200Y-110956666D01*
X129277200Y-110956666D02*
X129324819Y-110861428D01*
X129324819Y-110861428D02*
X129324819Y-110670952D01*
X129324819Y-110670952D02*
X129277200Y-110575714D01*
X129277200Y-110575714D02*
X129229580Y-110528095D01*
X129229580Y-110528095D02*
X129134342Y-110480476D01*
X129134342Y-110480476D02*
X128324819Y-110480476D01*
X128420057Y-110051904D02*
X128372438Y-110004285D01*
X128372438Y-110004285D02*
X128324819Y-109909047D01*
X128324819Y-109909047D02*
X128324819Y-109670952D01*
X128324819Y-109670952D02*
X128372438Y-109575714D01*
X128372438Y-109575714D02*
X128420057Y-109528095D01*
X128420057Y-109528095D02*
X128515295Y-109480476D01*
X128515295Y-109480476D02*
X128610533Y-109480476D01*
X128610533Y-109480476D02*
X128753390Y-109528095D01*
X128753390Y-109528095D02*
X129324819Y-110099523D01*
X129324819Y-110099523D02*
X129324819Y-109480476D01*
X133409523Y-110954819D02*
X132933333Y-110954819D01*
X132933333Y-110954819D02*
X132933333Y-109954819D01*
X133742857Y-110954819D02*
X133742857Y-109954819D01*
X133742857Y-109954819D02*
X134076190Y-110669104D01*
X134076190Y-110669104D02*
X134409523Y-109954819D01*
X134409523Y-109954819D02*
X134409523Y-110954819D01*
X134790476Y-109954819D02*
X135409523Y-109954819D01*
X135409523Y-109954819D02*
X135076190Y-110335771D01*
X135076190Y-110335771D02*
X135219047Y-110335771D01*
X135219047Y-110335771D02*
X135314285Y-110383390D01*
X135314285Y-110383390D02*
X135361904Y-110431009D01*
X135361904Y-110431009D02*
X135409523Y-110526247D01*
X135409523Y-110526247D02*
X135409523Y-110764342D01*
X135409523Y-110764342D02*
X135361904Y-110859580D01*
X135361904Y-110859580D02*
X135314285Y-110907200D01*
X135314285Y-110907200D02*
X135219047Y-110954819D01*
X135219047Y-110954819D02*
X134933333Y-110954819D01*
X134933333Y-110954819D02*
X134838095Y-110907200D01*
X134838095Y-110907200D02*
X134790476Y-110859580D01*
X135980952Y-110383390D02*
X135885714Y-110335771D01*
X135885714Y-110335771D02*
X135838095Y-110288152D01*
X135838095Y-110288152D02*
X135790476Y-110192914D01*
X135790476Y-110192914D02*
X135790476Y-110145295D01*
X135790476Y-110145295D02*
X135838095Y-110050057D01*
X135838095Y-110050057D02*
X135885714Y-110002438D01*
X135885714Y-110002438D02*
X135980952Y-109954819D01*
X135980952Y-109954819D02*
X136171428Y-109954819D01*
X136171428Y-109954819D02*
X136266666Y-110002438D01*
X136266666Y-110002438D02*
X136314285Y-110050057D01*
X136314285Y-110050057D02*
X136361904Y-110145295D01*
X136361904Y-110145295D02*
X136361904Y-110192914D01*
X136361904Y-110192914D02*
X136314285Y-110288152D01*
X136314285Y-110288152D02*
X136266666Y-110335771D01*
X136266666Y-110335771D02*
X136171428Y-110383390D01*
X136171428Y-110383390D02*
X135980952Y-110383390D01*
X135980952Y-110383390D02*
X135885714Y-110431009D01*
X135885714Y-110431009D02*
X135838095Y-110478628D01*
X135838095Y-110478628D02*
X135790476Y-110573866D01*
X135790476Y-110573866D02*
X135790476Y-110764342D01*
X135790476Y-110764342D02*
X135838095Y-110859580D01*
X135838095Y-110859580D02*
X135885714Y-110907200D01*
X135885714Y-110907200D02*
X135980952Y-110954819D01*
X135980952Y-110954819D02*
X136171428Y-110954819D01*
X136171428Y-110954819D02*
X136266666Y-110907200D01*
X136266666Y-110907200D02*
X136314285Y-110859580D01*
X136314285Y-110859580D02*
X136361904Y-110764342D01*
X136361904Y-110764342D02*
X136361904Y-110573866D01*
X136361904Y-110573866D02*
X136314285Y-110478628D01*
X136314285Y-110478628D02*
X136266666Y-110431009D01*
X136266666Y-110431009D02*
X136171428Y-110383390D01*
X137219047Y-109954819D02*
X137028571Y-109954819D01*
X137028571Y-109954819D02*
X136933333Y-110002438D01*
X136933333Y-110002438D02*
X136885714Y-110050057D01*
X136885714Y-110050057D02*
X136790476Y-110192914D01*
X136790476Y-110192914D02*
X136742857Y-110383390D01*
X136742857Y-110383390D02*
X136742857Y-110764342D01*
X136742857Y-110764342D02*
X136790476Y-110859580D01*
X136790476Y-110859580D02*
X136838095Y-110907200D01*
X136838095Y-110907200D02*
X136933333Y-110954819D01*
X136933333Y-110954819D02*
X137123809Y-110954819D01*
X137123809Y-110954819D02*
X137219047Y-110907200D01*
X137219047Y-110907200D02*
X137266666Y-110859580D01*
X137266666Y-110859580D02*
X137314285Y-110764342D01*
X137314285Y-110764342D02*
X137314285Y-110526247D01*
X137314285Y-110526247D02*
X137266666Y-110431009D01*
X137266666Y-110431009D02*
X137219047Y-110383390D01*
X137219047Y-110383390D02*
X137123809Y-110335771D01*
X137123809Y-110335771D02*
X136933333Y-110335771D01*
X136933333Y-110335771D02*
X136838095Y-110383390D01*
X136838095Y-110383390D02*
X136790476Y-110431009D01*
X136790476Y-110431009D02*
X136742857Y-110526247D01*
X114104819Y-111071904D02*
X114914342Y-111071904D01*
X114914342Y-111071904D02*
X115009580Y-111024285D01*
X115009580Y-111024285D02*
X115057200Y-110976666D01*
X115057200Y-110976666D02*
X115104819Y-110881428D01*
X115104819Y-110881428D02*
X115104819Y-110690952D01*
X115104819Y-110690952D02*
X115057200Y-110595714D01*
X115057200Y-110595714D02*
X115009580Y-110548095D01*
X115009580Y-110548095D02*
X114914342Y-110500476D01*
X114914342Y-110500476D02*
X114104819Y-110500476D01*
X115104819Y-109500476D02*
X115104819Y-110071904D01*
X115104819Y-109786190D02*
X114104819Y-109786190D01*
X114104819Y-109786190D02*
X114247676Y-109881428D01*
X114247676Y-109881428D02*
X114342914Y-109976666D01*
X114342914Y-109976666D02*
X114390533Y-110071904D01*
X119309523Y-110854819D02*
X118833333Y-110854819D01*
X118833333Y-110854819D02*
X118833333Y-109854819D01*
X119642857Y-110854819D02*
X119642857Y-109854819D01*
X119642857Y-109854819D02*
X119976190Y-110569104D01*
X119976190Y-110569104D02*
X120309523Y-109854819D01*
X120309523Y-109854819D02*
X120309523Y-110854819D01*
X120690476Y-109854819D02*
X121309523Y-109854819D01*
X121309523Y-109854819D02*
X120976190Y-110235771D01*
X120976190Y-110235771D02*
X121119047Y-110235771D01*
X121119047Y-110235771D02*
X121214285Y-110283390D01*
X121214285Y-110283390D02*
X121261904Y-110331009D01*
X121261904Y-110331009D02*
X121309523Y-110426247D01*
X121309523Y-110426247D02*
X121309523Y-110664342D01*
X121309523Y-110664342D02*
X121261904Y-110759580D01*
X121261904Y-110759580D02*
X121214285Y-110807200D01*
X121214285Y-110807200D02*
X121119047Y-110854819D01*
X121119047Y-110854819D02*
X120833333Y-110854819D01*
X120833333Y-110854819D02*
X120738095Y-110807200D01*
X120738095Y-110807200D02*
X120690476Y-110759580D01*
X121880952Y-110283390D02*
X121785714Y-110235771D01*
X121785714Y-110235771D02*
X121738095Y-110188152D01*
X121738095Y-110188152D02*
X121690476Y-110092914D01*
X121690476Y-110092914D02*
X121690476Y-110045295D01*
X121690476Y-110045295D02*
X121738095Y-109950057D01*
X121738095Y-109950057D02*
X121785714Y-109902438D01*
X121785714Y-109902438D02*
X121880952Y-109854819D01*
X121880952Y-109854819D02*
X122071428Y-109854819D01*
X122071428Y-109854819D02*
X122166666Y-109902438D01*
X122166666Y-109902438D02*
X122214285Y-109950057D01*
X122214285Y-109950057D02*
X122261904Y-110045295D01*
X122261904Y-110045295D02*
X122261904Y-110092914D01*
X122261904Y-110092914D02*
X122214285Y-110188152D01*
X122214285Y-110188152D02*
X122166666Y-110235771D01*
X122166666Y-110235771D02*
X122071428Y-110283390D01*
X122071428Y-110283390D02*
X121880952Y-110283390D01*
X121880952Y-110283390D02*
X121785714Y-110331009D01*
X121785714Y-110331009D02*
X121738095Y-110378628D01*
X121738095Y-110378628D02*
X121690476Y-110473866D01*
X121690476Y-110473866D02*
X121690476Y-110664342D01*
X121690476Y-110664342D02*
X121738095Y-110759580D01*
X121738095Y-110759580D02*
X121785714Y-110807200D01*
X121785714Y-110807200D02*
X121880952Y-110854819D01*
X121880952Y-110854819D02*
X122071428Y-110854819D01*
X122071428Y-110854819D02*
X122166666Y-110807200D01*
X122166666Y-110807200D02*
X122214285Y-110759580D01*
X122214285Y-110759580D02*
X122261904Y-110664342D01*
X122261904Y-110664342D02*
X122261904Y-110473866D01*
X122261904Y-110473866D02*
X122214285Y-110378628D01*
X122214285Y-110378628D02*
X122166666Y-110331009D01*
X122166666Y-110331009D02*
X122071428Y-110283390D01*
X123119047Y-109854819D02*
X122928571Y-109854819D01*
X122928571Y-109854819D02*
X122833333Y-109902438D01*
X122833333Y-109902438D02*
X122785714Y-109950057D01*
X122785714Y-109950057D02*
X122690476Y-110092914D01*
X122690476Y-110092914D02*
X122642857Y-110283390D01*
X122642857Y-110283390D02*
X122642857Y-110664342D01*
X122642857Y-110664342D02*
X122690476Y-110759580D01*
X122690476Y-110759580D02*
X122738095Y-110807200D01*
X122738095Y-110807200D02*
X122833333Y-110854819D01*
X122833333Y-110854819D02*
X123023809Y-110854819D01*
X123023809Y-110854819D02*
X123119047Y-110807200D01*
X123119047Y-110807200D02*
X123166666Y-110759580D01*
X123166666Y-110759580D02*
X123214285Y-110664342D01*
X123214285Y-110664342D02*
X123214285Y-110426247D01*
X123214285Y-110426247D02*
X123166666Y-110331009D01*
X123166666Y-110331009D02*
X123119047Y-110283390D01*
X123119047Y-110283390D02*
X123023809Y-110235771D01*
X123023809Y-110235771D02*
X122833333Y-110235771D01*
X122833333Y-110235771D02*
X122738095Y-110283390D01*
X122738095Y-110283390D02*
X122690476Y-110331009D01*
X122690476Y-110331009D02*
X122642857Y-110426247D01*
X117254819Y-92780238D02*
X116778628Y-93113571D01*
X117254819Y-93351666D02*
X116254819Y-93351666D01*
X116254819Y-93351666D02*
X116254819Y-92970714D01*
X116254819Y-92970714D02*
X116302438Y-92875476D01*
X116302438Y-92875476D02*
X116350057Y-92827857D01*
X116350057Y-92827857D02*
X116445295Y-92780238D01*
X116445295Y-92780238D02*
X116588152Y-92780238D01*
X116588152Y-92780238D02*
X116683390Y-92827857D01*
X116683390Y-92827857D02*
X116731009Y-92875476D01*
X116731009Y-92875476D02*
X116778628Y-92970714D01*
X116778628Y-92970714D02*
X116778628Y-93351666D01*
X116254819Y-92494523D02*
X117254819Y-92161190D01*
X117254819Y-92161190D02*
X116254819Y-91827857D01*
X117254819Y-90970714D02*
X117254819Y-91542142D01*
X117254819Y-91256428D02*
X116254819Y-91256428D01*
X116254819Y-91256428D02*
X116397676Y-91351666D01*
X116397676Y-91351666D02*
X116492914Y-91446904D01*
X116492914Y-91446904D02*
X116540533Y-91542142D01*
X136369104Y-94351666D02*
X136369104Y-93875476D01*
X136654819Y-94446904D02*
X135654819Y-94113571D01*
X135654819Y-94113571D02*
X136654819Y-93780238D01*
X136654819Y-92923095D02*
X136654819Y-93494523D01*
X136654819Y-93208809D02*
X135654819Y-93208809D01*
X135654819Y-93208809D02*
X135797676Y-93304047D01*
X135797676Y-93304047D02*
X135892914Y-93399285D01*
X135892914Y-93399285D02*
X135940533Y-93494523D01*
X135654819Y-92304047D02*
X135654819Y-92208809D01*
X135654819Y-92208809D02*
X135702438Y-92113571D01*
X135702438Y-92113571D02*
X135750057Y-92065952D01*
X135750057Y-92065952D02*
X135845295Y-92018333D01*
X135845295Y-92018333D02*
X136035771Y-91970714D01*
X136035771Y-91970714D02*
X136273866Y-91970714D01*
X136273866Y-91970714D02*
X136464342Y-92018333D01*
X136464342Y-92018333D02*
X136559580Y-92065952D01*
X136559580Y-92065952D02*
X136607200Y-92113571D01*
X136607200Y-92113571D02*
X136654819Y-92208809D01*
X136654819Y-92208809D02*
X136654819Y-92304047D01*
X136654819Y-92304047D02*
X136607200Y-92399285D01*
X136607200Y-92399285D02*
X136559580Y-92446904D01*
X136559580Y-92446904D02*
X136464342Y-92494523D01*
X136464342Y-92494523D02*
X136273866Y-92542142D01*
X136273866Y-92542142D02*
X136035771Y-92542142D01*
X136035771Y-92542142D02*
X135845295Y-92494523D01*
X135845295Y-92494523D02*
X135750057Y-92446904D01*
X135750057Y-92446904D02*
X135702438Y-92399285D01*
X135702438Y-92399285D02*
X135654819Y-92304047D01*
X135654819Y-91351666D02*
X135654819Y-91256428D01*
X135654819Y-91256428D02*
X135702438Y-91161190D01*
X135702438Y-91161190D02*
X135750057Y-91113571D01*
X135750057Y-91113571D02*
X135845295Y-91065952D01*
X135845295Y-91065952D02*
X136035771Y-91018333D01*
X136035771Y-91018333D02*
X136273866Y-91018333D01*
X136273866Y-91018333D02*
X136464342Y-91065952D01*
X136464342Y-91065952D02*
X136559580Y-91113571D01*
X136559580Y-91113571D02*
X136607200Y-91161190D01*
X136607200Y-91161190D02*
X136654819Y-91256428D01*
X136654819Y-91256428D02*
X136654819Y-91351666D01*
X136654819Y-91351666D02*
X136607200Y-91446904D01*
X136607200Y-91446904D02*
X136559580Y-91494523D01*
X136559580Y-91494523D02*
X136464342Y-91542142D01*
X136464342Y-91542142D02*
X136273866Y-91589761D01*
X136273866Y-91589761D02*
X136035771Y-91589761D01*
X136035771Y-91589761D02*
X135845295Y-91542142D01*
X135845295Y-91542142D02*
X135750057Y-91494523D01*
X135750057Y-91494523D02*
X135702438Y-91446904D01*
X135702438Y-91446904D02*
X135654819Y-91351666D01*
X136654819Y-90589761D02*
X135654819Y-90589761D01*
X136654819Y-90018333D02*
X136083390Y-90446904D01*
X135654819Y-90018333D02*
X136226247Y-90589761D01*
X132733333Y-120454819D02*
X132400000Y-119978628D01*
X132161905Y-120454819D02*
X132161905Y-119454819D01*
X132161905Y-119454819D02*
X132542857Y-119454819D01*
X132542857Y-119454819D02*
X132638095Y-119502438D01*
X132638095Y-119502438D02*
X132685714Y-119550057D01*
X132685714Y-119550057D02*
X132733333Y-119645295D01*
X132733333Y-119645295D02*
X132733333Y-119788152D01*
X132733333Y-119788152D02*
X132685714Y-119883390D01*
X132685714Y-119883390D02*
X132638095Y-119931009D01*
X132638095Y-119931009D02*
X132542857Y-119978628D01*
X132542857Y-119978628D02*
X132161905Y-119978628D01*
X133114286Y-119550057D02*
X133161905Y-119502438D01*
X133161905Y-119502438D02*
X133257143Y-119454819D01*
X133257143Y-119454819D02*
X133495238Y-119454819D01*
X133495238Y-119454819D02*
X133590476Y-119502438D01*
X133590476Y-119502438D02*
X133638095Y-119550057D01*
X133638095Y-119550057D02*
X133685714Y-119645295D01*
X133685714Y-119645295D02*
X133685714Y-119740533D01*
X133685714Y-119740533D02*
X133638095Y-119883390D01*
X133638095Y-119883390D02*
X133066667Y-120454819D01*
X133066667Y-120454819D02*
X133685714Y-120454819D01*
X135214285Y-117454819D02*
X135023809Y-117454819D01*
X135023809Y-117454819D02*
X134928571Y-117502438D01*
X134928571Y-117502438D02*
X134880952Y-117550057D01*
X134880952Y-117550057D02*
X134785714Y-117692914D01*
X134785714Y-117692914D02*
X134738095Y-117883390D01*
X134738095Y-117883390D02*
X134738095Y-118264342D01*
X134738095Y-118264342D02*
X134785714Y-118359580D01*
X134785714Y-118359580D02*
X134833333Y-118407200D01*
X134833333Y-118407200D02*
X134928571Y-118454819D01*
X134928571Y-118454819D02*
X135119047Y-118454819D01*
X135119047Y-118454819D02*
X135214285Y-118407200D01*
X135214285Y-118407200D02*
X135261904Y-118359580D01*
X135261904Y-118359580D02*
X135309523Y-118264342D01*
X135309523Y-118264342D02*
X135309523Y-118026247D01*
X135309523Y-118026247D02*
X135261904Y-117931009D01*
X135261904Y-117931009D02*
X135214285Y-117883390D01*
X135214285Y-117883390D02*
X135119047Y-117835771D01*
X135119047Y-117835771D02*
X134928571Y-117835771D01*
X134928571Y-117835771D02*
X134833333Y-117883390D01*
X134833333Y-117883390D02*
X134785714Y-117931009D01*
X134785714Y-117931009D02*
X134738095Y-118026247D01*
X135880952Y-117883390D02*
X135785714Y-117835771D01*
X135785714Y-117835771D02*
X135738095Y-117788152D01*
X135738095Y-117788152D02*
X135690476Y-117692914D01*
X135690476Y-117692914D02*
X135690476Y-117645295D01*
X135690476Y-117645295D02*
X135738095Y-117550057D01*
X135738095Y-117550057D02*
X135785714Y-117502438D01*
X135785714Y-117502438D02*
X135880952Y-117454819D01*
X135880952Y-117454819D02*
X136071428Y-117454819D01*
X136071428Y-117454819D02*
X136166666Y-117502438D01*
X136166666Y-117502438D02*
X136214285Y-117550057D01*
X136214285Y-117550057D02*
X136261904Y-117645295D01*
X136261904Y-117645295D02*
X136261904Y-117692914D01*
X136261904Y-117692914D02*
X136214285Y-117788152D01*
X136214285Y-117788152D02*
X136166666Y-117835771D01*
X136166666Y-117835771D02*
X136071428Y-117883390D01*
X136071428Y-117883390D02*
X135880952Y-117883390D01*
X135880952Y-117883390D02*
X135785714Y-117931009D01*
X135785714Y-117931009D02*
X135738095Y-117978628D01*
X135738095Y-117978628D02*
X135690476Y-118073866D01*
X135690476Y-118073866D02*
X135690476Y-118264342D01*
X135690476Y-118264342D02*
X135738095Y-118359580D01*
X135738095Y-118359580D02*
X135785714Y-118407200D01*
X135785714Y-118407200D02*
X135880952Y-118454819D01*
X135880952Y-118454819D02*
X136071428Y-118454819D01*
X136071428Y-118454819D02*
X136166666Y-118407200D01*
X136166666Y-118407200D02*
X136214285Y-118359580D01*
X136214285Y-118359580D02*
X136261904Y-118264342D01*
X136261904Y-118264342D02*
X136261904Y-118073866D01*
X136261904Y-118073866D02*
X136214285Y-117978628D01*
X136214285Y-117978628D02*
X136166666Y-117931009D01*
X136166666Y-117931009D02*
X136071428Y-117883390D01*
X136690476Y-118454819D02*
X136690476Y-117454819D01*
X137261904Y-118454819D02*
X136833333Y-117883390D01*
X137261904Y-117454819D02*
X136690476Y-118026247D01*
X120633333Y-120124819D02*
X120300000Y-119648628D01*
X120061905Y-120124819D02*
X120061905Y-119124819D01*
X120061905Y-119124819D02*
X120442857Y-119124819D01*
X120442857Y-119124819D02*
X120538095Y-119172438D01*
X120538095Y-119172438D02*
X120585714Y-119220057D01*
X120585714Y-119220057D02*
X120633333Y-119315295D01*
X120633333Y-119315295D02*
X120633333Y-119458152D01*
X120633333Y-119458152D02*
X120585714Y-119553390D01*
X120585714Y-119553390D02*
X120538095Y-119601009D01*
X120538095Y-119601009D02*
X120442857Y-119648628D01*
X120442857Y-119648628D02*
X120061905Y-119648628D01*
X121585714Y-120124819D02*
X121014286Y-120124819D01*
X121300000Y-120124819D02*
X121300000Y-119124819D01*
X121300000Y-119124819D02*
X121204762Y-119267676D01*
X121204762Y-119267676D02*
X121109524Y-119362914D01*
X121109524Y-119362914D02*
X121014286Y-119410533D01*
X120514285Y-117954819D02*
X119942857Y-117954819D01*
X120228571Y-117954819D02*
X120228571Y-116954819D01*
X120228571Y-116954819D02*
X120133333Y-117097676D01*
X120133333Y-117097676D02*
X120038095Y-117192914D01*
X120038095Y-117192914D02*
X119942857Y-117240533D01*
X120942857Y-117954819D02*
X120942857Y-116954819D01*
X120942857Y-116954819D02*
X121276190Y-117669104D01*
X121276190Y-117669104D02*
X121609523Y-116954819D01*
X121609523Y-116954819D02*
X121609523Y-117954819D01*
X121424819Y-124233333D02*
X122139104Y-124233333D01*
X122139104Y-124233333D02*
X122281961Y-124280952D01*
X122281961Y-124280952D02*
X122377200Y-124376190D01*
X122377200Y-124376190D02*
X122424819Y-124519047D01*
X122424819Y-124519047D02*
X122424819Y-124614285D01*
X122424819Y-123233333D02*
X122424819Y-123804761D01*
X122424819Y-123519047D02*
X121424819Y-123519047D01*
X121424819Y-123519047D02*
X121567676Y-123614285D01*
X121567676Y-123614285D02*
X121662914Y-123709523D01*
X121662914Y-123709523D02*
X121710533Y-123804761D01*
X101659580Y-108966666D02*
X101707200Y-109014285D01*
X101707200Y-109014285D02*
X101754819Y-109157142D01*
X101754819Y-109157142D02*
X101754819Y-109252380D01*
X101754819Y-109252380D02*
X101707200Y-109395237D01*
X101707200Y-109395237D02*
X101611961Y-109490475D01*
X101611961Y-109490475D02*
X101516723Y-109538094D01*
X101516723Y-109538094D02*
X101326247Y-109585713D01*
X101326247Y-109585713D02*
X101183390Y-109585713D01*
X101183390Y-109585713D02*
X100992914Y-109538094D01*
X100992914Y-109538094D02*
X100897676Y-109490475D01*
X100897676Y-109490475D02*
X100802438Y-109395237D01*
X100802438Y-109395237D02*
X100754819Y-109252380D01*
X100754819Y-109252380D02*
X100754819Y-109157142D01*
X100754819Y-109157142D02*
X100802438Y-109014285D01*
X100802438Y-109014285D02*
X100850057Y-108966666D01*
X100754819Y-108633332D02*
X100754819Y-107966666D01*
X100754819Y-107966666D02*
X101754819Y-108395237D01*
X106754819Y-109919047D02*
X106754819Y-110490475D01*
X106754819Y-110204761D02*
X105754819Y-110204761D01*
X105754819Y-110204761D02*
X105897676Y-110299999D01*
X105897676Y-110299999D02*
X105992914Y-110395237D01*
X105992914Y-110395237D02*
X106040533Y-110490475D01*
X105754819Y-109299999D02*
X105754819Y-109204761D01*
X105754819Y-109204761D02*
X105802438Y-109109523D01*
X105802438Y-109109523D02*
X105850057Y-109061904D01*
X105850057Y-109061904D02*
X105945295Y-109014285D01*
X105945295Y-109014285D02*
X106135771Y-108966666D01*
X106135771Y-108966666D02*
X106373866Y-108966666D01*
X106373866Y-108966666D02*
X106564342Y-109014285D01*
X106564342Y-109014285D02*
X106659580Y-109061904D01*
X106659580Y-109061904D02*
X106707200Y-109109523D01*
X106707200Y-109109523D02*
X106754819Y-109204761D01*
X106754819Y-109204761D02*
X106754819Y-109299999D01*
X106754819Y-109299999D02*
X106707200Y-109395237D01*
X106707200Y-109395237D02*
X106659580Y-109442856D01*
X106659580Y-109442856D02*
X106564342Y-109490475D01*
X106564342Y-109490475D02*
X106373866Y-109538094D01*
X106373866Y-109538094D02*
X106135771Y-109538094D01*
X106135771Y-109538094D02*
X105945295Y-109490475D01*
X105945295Y-109490475D02*
X105850057Y-109442856D01*
X105850057Y-109442856D02*
X105802438Y-109395237D01*
X105802438Y-109395237D02*
X105754819Y-109299999D01*
X105754819Y-108347618D02*
X105754819Y-108252380D01*
X105754819Y-108252380D02*
X105802438Y-108157142D01*
X105802438Y-108157142D02*
X105850057Y-108109523D01*
X105850057Y-108109523D02*
X105945295Y-108061904D01*
X105945295Y-108061904D02*
X106135771Y-108014285D01*
X106135771Y-108014285D02*
X106373866Y-108014285D01*
X106373866Y-108014285D02*
X106564342Y-108061904D01*
X106564342Y-108061904D02*
X106659580Y-108109523D01*
X106659580Y-108109523D02*
X106707200Y-108157142D01*
X106707200Y-108157142D02*
X106754819Y-108252380D01*
X106754819Y-108252380D02*
X106754819Y-108347618D01*
X106754819Y-108347618D02*
X106707200Y-108442856D01*
X106707200Y-108442856D02*
X106659580Y-108490475D01*
X106659580Y-108490475D02*
X106564342Y-108538094D01*
X106564342Y-108538094D02*
X106373866Y-108585713D01*
X106373866Y-108585713D02*
X106135771Y-108585713D01*
X106135771Y-108585713D02*
X105945295Y-108538094D01*
X105945295Y-108538094D02*
X105850057Y-108490475D01*
X105850057Y-108490475D02*
X105802438Y-108442856D01*
X105802438Y-108442856D02*
X105754819Y-108347618D01*
X106088152Y-107585713D02*
X106754819Y-107585713D01*
X106183390Y-107585713D02*
X106135771Y-107538094D01*
X106135771Y-107538094D02*
X106088152Y-107442856D01*
X106088152Y-107442856D02*
X106088152Y-107299999D01*
X106088152Y-107299999D02*
X106135771Y-107204761D01*
X106135771Y-107204761D02*
X106231009Y-107157142D01*
X106231009Y-107157142D02*
X106754819Y-107157142D01*
X103883333Y-116159580D02*
X103835714Y-116207200D01*
X103835714Y-116207200D02*
X103692857Y-116254819D01*
X103692857Y-116254819D02*
X103597619Y-116254819D01*
X103597619Y-116254819D02*
X103454762Y-116207200D01*
X103454762Y-116207200D02*
X103359524Y-116111961D01*
X103359524Y-116111961D02*
X103311905Y-116016723D01*
X103311905Y-116016723D02*
X103264286Y-115826247D01*
X103264286Y-115826247D02*
X103264286Y-115683390D01*
X103264286Y-115683390D02*
X103311905Y-115492914D01*
X103311905Y-115492914D02*
X103359524Y-115397676D01*
X103359524Y-115397676D02*
X103454762Y-115302438D01*
X103454762Y-115302438D02*
X103597619Y-115254819D01*
X103597619Y-115254819D02*
X103692857Y-115254819D01*
X103692857Y-115254819D02*
X103835714Y-115302438D01*
X103835714Y-115302438D02*
X103883333Y-115350057D01*
X104740476Y-115254819D02*
X104550000Y-115254819D01*
X104550000Y-115254819D02*
X104454762Y-115302438D01*
X104454762Y-115302438D02*
X104407143Y-115350057D01*
X104407143Y-115350057D02*
X104311905Y-115492914D01*
X104311905Y-115492914D02*
X104264286Y-115683390D01*
X104264286Y-115683390D02*
X104264286Y-116064342D01*
X104264286Y-116064342D02*
X104311905Y-116159580D01*
X104311905Y-116159580D02*
X104359524Y-116207200D01*
X104359524Y-116207200D02*
X104454762Y-116254819D01*
X104454762Y-116254819D02*
X104645238Y-116254819D01*
X104645238Y-116254819D02*
X104740476Y-116207200D01*
X104740476Y-116207200D02*
X104788095Y-116159580D01*
X104788095Y-116159580D02*
X104835714Y-116064342D01*
X104835714Y-116064342D02*
X104835714Y-115826247D01*
X104835714Y-115826247D02*
X104788095Y-115731009D01*
X104788095Y-115731009D02*
X104740476Y-115683390D01*
X104740476Y-115683390D02*
X104645238Y-115635771D01*
X104645238Y-115635771D02*
X104454762Y-115635771D01*
X104454762Y-115635771D02*
X104359524Y-115683390D01*
X104359524Y-115683390D02*
X104311905Y-115731009D01*
X104311905Y-115731009D02*
X104264286Y-115826247D01*
X102930952Y-125054819D02*
X102359524Y-125054819D01*
X102645238Y-125054819D02*
X102645238Y-124054819D01*
X102645238Y-124054819D02*
X102550000Y-124197676D01*
X102550000Y-124197676D02*
X102454762Y-124292914D01*
X102454762Y-124292914D02*
X102359524Y-124340533D01*
X103550000Y-124054819D02*
X103645238Y-124054819D01*
X103645238Y-124054819D02*
X103740476Y-124102438D01*
X103740476Y-124102438D02*
X103788095Y-124150057D01*
X103788095Y-124150057D02*
X103835714Y-124245295D01*
X103835714Y-124245295D02*
X103883333Y-124435771D01*
X103883333Y-124435771D02*
X103883333Y-124673866D01*
X103883333Y-124673866D02*
X103835714Y-124864342D01*
X103835714Y-124864342D02*
X103788095Y-124959580D01*
X103788095Y-124959580D02*
X103740476Y-125007200D01*
X103740476Y-125007200D02*
X103645238Y-125054819D01*
X103645238Y-125054819D02*
X103550000Y-125054819D01*
X103550000Y-125054819D02*
X103454762Y-125007200D01*
X103454762Y-125007200D02*
X103407143Y-124959580D01*
X103407143Y-124959580D02*
X103359524Y-124864342D01*
X103359524Y-124864342D02*
X103311905Y-124673866D01*
X103311905Y-124673866D02*
X103311905Y-124435771D01*
X103311905Y-124435771D02*
X103359524Y-124245295D01*
X103359524Y-124245295D02*
X103407143Y-124150057D01*
X103407143Y-124150057D02*
X103454762Y-124102438D01*
X103454762Y-124102438D02*
X103550000Y-124054819D01*
X104502381Y-124054819D02*
X104597619Y-124054819D01*
X104597619Y-124054819D02*
X104692857Y-124102438D01*
X104692857Y-124102438D02*
X104740476Y-124150057D01*
X104740476Y-124150057D02*
X104788095Y-124245295D01*
X104788095Y-124245295D02*
X104835714Y-124435771D01*
X104835714Y-124435771D02*
X104835714Y-124673866D01*
X104835714Y-124673866D02*
X104788095Y-124864342D01*
X104788095Y-124864342D02*
X104740476Y-124959580D01*
X104740476Y-124959580D02*
X104692857Y-125007200D01*
X104692857Y-125007200D02*
X104597619Y-125054819D01*
X104597619Y-125054819D02*
X104502381Y-125054819D01*
X104502381Y-125054819D02*
X104407143Y-125007200D01*
X104407143Y-125007200D02*
X104359524Y-124959580D01*
X104359524Y-124959580D02*
X104311905Y-124864342D01*
X104311905Y-124864342D02*
X104264286Y-124673866D01*
X104264286Y-124673866D02*
X104264286Y-124435771D01*
X104264286Y-124435771D02*
X104311905Y-124245295D01*
X104311905Y-124245295D02*
X104359524Y-124150057D01*
X104359524Y-124150057D02*
X104407143Y-124102438D01*
X104407143Y-124102438D02*
X104502381Y-124054819D01*
X105692857Y-124388152D02*
X105692857Y-125054819D01*
X105264286Y-124388152D02*
X105264286Y-124911961D01*
X105264286Y-124911961D02*
X105311905Y-125007200D01*
X105311905Y-125007200D02*
X105407143Y-125054819D01*
X105407143Y-125054819D02*
X105550000Y-125054819D01*
X105550000Y-125054819D02*
X105645238Y-125007200D01*
X105645238Y-125007200D02*
X105692857Y-124959580D01*
X109233333Y-119959580D02*
X109185714Y-120007200D01*
X109185714Y-120007200D02*
X109042857Y-120054819D01*
X109042857Y-120054819D02*
X108947619Y-120054819D01*
X108947619Y-120054819D02*
X108804762Y-120007200D01*
X108804762Y-120007200D02*
X108709524Y-119911961D01*
X108709524Y-119911961D02*
X108661905Y-119816723D01*
X108661905Y-119816723D02*
X108614286Y-119626247D01*
X108614286Y-119626247D02*
X108614286Y-119483390D01*
X108614286Y-119483390D02*
X108661905Y-119292914D01*
X108661905Y-119292914D02*
X108709524Y-119197676D01*
X108709524Y-119197676D02*
X108804762Y-119102438D01*
X108804762Y-119102438D02*
X108947619Y-119054819D01*
X108947619Y-119054819D02*
X109042857Y-119054819D01*
X109042857Y-119054819D02*
X109185714Y-119102438D01*
X109185714Y-119102438D02*
X109233333Y-119150057D01*
X110138095Y-119054819D02*
X109661905Y-119054819D01*
X109661905Y-119054819D02*
X109614286Y-119531009D01*
X109614286Y-119531009D02*
X109661905Y-119483390D01*
X109661905Y-119483390D02*
X109757143Y-119435771D01*
X109757143Y-119435771D02*
X109995238Y-119435771D01*
X109995238Y-119435771D02*
X110090476Y-119483390D01*
X110090476Y-119483390D02*
X110138095Y-119531009D01*
X110138095Y-119531009D02*
X110185714Y-119626247D01*
X110185714Y-119626247D02*
X110185714Y-119864342D01*
X110185714Y-119864342D02*
X110138095Y-119959580D01*
X110138095Y-119959580D02*
X110090476Y-120007200D01*
X110090476Y-120007200D02*
X109995238Y-120054819D01*
X109995238Y-120054819D02*
X109757143Y-120054819D01*
X109757143Y-120054819D02*
X109661905Y-120007200D01*
X109661905Y-120007200D02*
X109614286Y-119959580D01*
X112333333Y-120054819D02*
X111761905Y-120054819D01*
X112047619Y-120054819D02*
X112047619Y-119054819D01*
X112047619Y-119054819D02*
X111952381Y-119197676D01*
X111952381Y-119197676D02*
X111857143Y-119292914D01*
X111857143Y-119292914D02*
X111761905Y-119340533D01*
X113190476Y-119388152D02*
X113190476Y-120054819D01*
X112761905Y-119388152D02*
X112761905Y-119911961D01*
X112761905Y-119911961D02*
X112809524Y-120007200D01*
X112809524Y-120007200D02*
X112904762Y-120054819D01*
X112904762Y-120054819D02*
X113047619Y-120054819D01*
X113047619Y-120054819D02*
X113142857Y-120007200D01*
X113142857Y-120007200D02*
X113190476Y-119959580D01*
X142633333Y-119759580D02*
X142585714Y-119807200D01*
X142585714Y-119807200D02*
X142442857Y-119854819D01*
X142442857Y-119854819D02*
X142347619Y-119854819D01*
X142347619Y-119854819D02*
X142204762Y-119807200D01*
X142204762Y-119807200D02*
X142109524Y-119711961D01*
X142109524Y-119711961D02*
X142061905Y-119616723D01*
X142061905Y-119616723D02*
X142014286Y-119426247D01*
X142014286Y-119426247D02*
X142014286Y-119283390D01*
X142014286Y-119283390D02*
X142061905Y-119092914D01*
X142061905Y-119092914D02*
X142109524Y-118997676D01*
X142109524Y-118997676D02*
X142204762Y-118902438D01*
X142204762Y-118902438D02*
X142347619Y-118854819D01*
X142347619Y-118854819D02*
X142442857Y-118854819D01*
X142442857Y-118854819D02*
X142585714Y-118902438D01*
X142585714Y-118902438D02*
X142633333Y-118950057D01*
X143490476Y-119188152D02*
X143490476Y-119854819D01*
X143252381Y-118807200D02*
X143014286Y-119521485D01*
X143014286Y-119521485D02*
X143633333Y-119521485D01*
X147733333Y-119154819D02*
X147161905Y-119154819D01*
X147447619Y-119154819D02*
X147447619Y-118154819D01*
X147447619Y-118154819D02*
X147352381Y-118297676D01*
X147352381Y-118297676D02*
X147257143Y-118392914D01*
X147257143Y-118392914D02*
X147161905Y-118440533D01*
X148590476Y-118488152D02*
X148590476Y-119154819D01*
X148161905Y-118488152D02*
X148161905Y-119011961D01*
X148161905Y-119011961D02*
X148209524Y-119107200D01*
X148209524Y-119107200D02*
X148304762Y-119154819D01*
X148304762Y-119154819D02*
X148447619Y-119154819D01*
X148447619Y-119154819D02*
X148542857Y-119107200D01*
X148542857Y-119107200D02*
X148590476Y-119059580D01*
X138433333Y-125659580D02*
X138385714Y-125707200D01*
X138385714Y-125707200D02*
X138242857Y-125754819D01*
X138242857Y-125754819D02*
X138147619Y-125754819D01*
X138147619Y-125754819D02*
X138004762Y-125707200D01*
X138004762Y-125707200D02*
X137909524Y-125611961D01*
X137909524Y-125611961D02*
X137861905Y-125516723D01*
X137861905Y-125516723D02*
X137814286Y-125326247D01*
X137814286Y-125326247D02*
X137814286Y-125183390D01*
X137814286Y-125183390D02*
X137861905Y-124992914D01*
X137861905Y-124992914D02*
X137909524Y-124897676D01*
X137909524Y-124897676D02*
X138004762Y-124802438D01*
X138004762Y-124802438D02*
X138147619Y-124754819D01*
X138147619Y-124754819D02*
X138242857Y-124754819D01*
X138242857Y-124754819D02*
X138385714Y-124802438D01*
X138385714Y-124802438D02*
X138433333Y-124850057D01*
X138766667Y-124754819D02*
X139385714Y-124754819D01*
X139385714Y-124754819D02*
X139052381Y-125135771D01*
X139052381Y-125135771D02*
X139195238Y-125135771D01*
X139195238Y-125135771D02*
X139290476Y-125183390D01*
X139290476Y-125183390D02*
X139338095Y-125231009D01*
X139338095Y-125231009D02*
X139385714Y-125326247D01*
X139385714Y-125326247D02*
X139385714Y-125564342D01*
X139385714Y-125564342D02*
X139338095Y-125659580D01*
X139338095Y-125659580D02*
X139290476Y-125707200D01*
X139290476Y-125707200D02*
X139195238Y-125754819D01*
X139195238Y-125754819D02*
X138909524Y-125754819D01*
X138909524Y-125754819D02*
X138814286Y-125707200D01*
X138814286Y-125707200D02*
X138766667Y-125659580D01*
X137761904Y-122488152D02*
X137761904Y-123154819D01*
X137523809Y-122107200D02*
X137285714Y-122821485D01*
X137285714Y-122821485D02*
X137904761Y-122821485D01*
X138285714Y-122488152D02*
X138285714Y-123154819D01*
X138285714Y-122583390D02*
X138333333Y-122535771D01*
X138333333Y-122535771D02*
X138428571Y-122488152D01*
X138428571Y-122488152D02*
X138571428Y-122488152D01*
X138571428Y-122488152D02*
X138666666Y-122535771D01*
X138666666Y-122535771D02*
X138714285Y-122631009D01*
X138714285Y-122631009D02*
X138714285Y-123154819D01*
X139095238Y-122154819D02*
X139761904Y-122154819D01*
X139761904Y-122154819D02*
X139333333Y-123154819D01*
X144733333Y-103809580D02*
X144685714Y-103857200D01*
X144685714Y-103857200D02*
X144542857Y-103904819D01*
X144542857Y-103904819D02*
X144447619Y-103904819D01*
X144447619Y-103904819D02*
X144304762Y-103857200D01*
X144304762Y-103857200D02*
X144209524Y-103761961D01*
X144209524Y-103761961D02*
X144161905Y-103666723D01*
X144161905Y-103666723D02*
X144114286Y-103476247D01*
X144114286Y-103476247D02*
X144114286Y-103333390D01*
X144114286Y-103333390D02*
X144161905Y-103142914D01*
X144161905Y-103142914D02*
X144209524Y-103047676D01*
X144209524Y-103047676D02*
X144304762Y-102952438D01*
X144304762Y-102952438D02*
X144447619Y-102904819D01*
X144447619Y-102904819D02*
X144542857Y-102904819D01*
X144542857Y-102904819D02*
X144685714Y-102952438D01*
X144685714Y-102952438D02*
X144733333Y-103000057D01*
X145114286Y-103000057D02*
X145161905Y-102952438D01*
X145161905Y-102952438D02*
X145257143Y-102904819D01*
X145257143Y-102904819D02*
X145495238Y-102904819D01*
X145495238Y-102904819D02*
X145590476Y-102952438D01*
X145590476Y-102952438D02*
X145638095Y-103000057D01*
X145638095Y-103000057D02*
X145685714Y-103095295D01*
X145685714Y-103095295D02*
X145685714Y-103190533D01*
X145685714Y-103190533D02*
X145638095Y-103333390D01*
X145638095Y-103333390D02*
X145066667Y-103904819D01*
X145066667Y-103904819D02*
X145685714Y-103904819D01*
X148133333Y-109754819D02*
X147561905Y-109754819D01*
X147847619Y-109754819D02*
X147847619Y-108754819D01*
X147847619Y-108754819D02*
X147752381Y-108897676D01*
X147752381Y-108897676D02*
X147657143Y-108992914D01*
X147657143Y-108992914D02*
X147561905Y-109040533D01*
X148990476Y-109088152D02*
X148990476Y-109754819D01*
X148561905Y-109088152D02*
X148561905Y-109611961D01*
X148561905Y-109611961D02*
X148609524Y-109707200D01*
X148609524Y-109707200D02*
X148704762Y-109754819D01*
X148704762Y-109754819D02*
X148847619Y-109754819D01*
X148847619Y-109754819D02*
X148942857Y-109707200D01*
X148942857Y-109707200D02*
X148990476Y-109659580D01*
X110533333Y-104309580D02*
X110485714Y-104357200D01*
X110485714Y-104357200D02*
X110342857Y-104404819D01*
X110342857Y-104404819D02*
X110247619Y-104404819D01*
X110247619Y-104404819D02*
X110104762Y-104357200D01*
X110104762Y-104357200D02*
X110009524Y-104261961D01*
X110009524Y-104261961D02*
X109961905Y-104166723D01*
X109961905Y-104166723D02*
X109914286Y-103976247D01*
X109914286Y-103976247D02*
X109914286Y-103833390D01*
X109914286Y-103833390D02*
X109961905Y-103642914D01*
X109961905Y-103642914D02*
X110009524Y-103547676D01*
X110009524Y-103547676D02*
X110104762Y-103452438D01*
X110104762Y-103452438D02*
X110247619Y-103404819D01*
X110247619Y-103404819D02*
X110342857Y-103404819D01*
X110342857Y-103404819D02*
X110485714Y-103452438D01*
X110485714Y-103452438D02*
X110533333Y-103500057D01*
X111485714Y-104404819D02*
X110914286Y-104404819D01*
X111200000Y-104404819D02*
X111200000Y-103404819D01*
X111200000Y-103404819D02*
X111104762Y-103547676D01*
X111104762Y-103547676D02*
X111009524Y-103642914D01*
X111009524Y-103642914D02*
X110914286Y-103690533D01*
X110057142Y-111904819D02*
X109485714Y-111904819D01*
X109771428Y-111904819D02*
X109771428Y-110904819D01*
X109771428Y-110904819D02*
X109676190Y-111047676D01*
X109676190Y-111047676D02*
X109580952Y-111142914D01*
X109580952Y-111142914D02*
X109485714Y-111190533D01*
X110676190Y-110904819D02*
X110771428Y-110904819D01*
X110771428Y-110904819D02*
X110866666Y-110952438D01*
X110866666Y-110952438D02*
X110914285Y-111000057D01*
X110914285Y-111000057D02*
X110961904Y-111095295D01*
X110961904Y-111095295D02*
X111009523Y-111285771D01*
X111009523Y-111285771D02*
X111009523Y-111523866D01*
X111009523Y-111523866D02*
X110961904Y-111714342D01*
X110961904Y-111714342D02*
X110914285Y-111809580D01*
X110914285Y-111809580D02*
X110866666Y-111857200D01*
X110866666Y-111857200D02*
X110771428Y-111904819D01*
X110771428Y-111904819D02*
X110676190Y-111904819D01*
X110676190Y-111904819D02*
X110580952Y-111857200D01*
X110580952Y-111857200D02*
X110533333Y-111809580D01*
X110533333Y-111809580D02*
X110485714Y-111714342D01*
X110485714Y-111714342D02*
X110438095Y-111523866D01*
X110438095Y-111523866D02*
X110438095Y-111285771D01*
X110438095Y-111285771D02*
X110485714Y-111095295D01*
X110485714Y-111095295D02*
X110533333Y-111000057D01*
X110533333Y-111000057D02*
X110580952Y-110952438D01*
X110580952Y-110952438D02*
X110676190Y-110904819D01*
X111866666Y-111238152D02*
X111866666Y-111904819D01*
X111438095Y-111238152D02*
X111438095Y-111761961D01*
X111438095Y-111761961D02*
X111485714Y-111857200D01*
X111485714Y-111857200D02*
X111580952Y-111904819D01*
X111580952Y-111904819D02*
X111723809Y-111904819D01*
X111723809Y-111904819D02*
X111819047Y-111857200D01*
X111819047Y-111857200D02*
X111866666Y-111809580D01*
D12*
%TO.C,U2*%
X129870000Y-107640000D02*
X129870000Y-109290000D01*
X129870000Y-112940000D02*
X140150000Y-112940000D01*
X140150000Y-107640000D02*
X129870000Y-107640000D01*
X129870000Y-111290000D02*
X129870000Y-112940000D01*
X140150000Y-112940000D02*
X140150000Y-107640000D01*
X129870000Y-111290000D02*
G75*
G03*
X129870000Y-109290000I0J1000000D01*
G01*
%TO.C,U1*%
X115650000Y-107660000D02*
X115650000Y-109310000D01*
X115650000Y-112960000D02*
X125930000Y-112960000D01*
X125930000Y-107660000D02*
X115650000Y-107660000D01*
X115650000Y-111310000D02*
X115650000Y-112960000D01*
X125930000Y-112960000D02*
X125930000Y-107660000D01*
X115650000Y-111310000D02*
G75*
G03*
X115650000Y-109310000I0J1000000D01*
G01*
%TO.C,RV1*%
X117930000Y-100470000D02*
X117930000Y-89550000D01*
X135070000Y-100470000D02*
X135070000Y-89550000D01*
X117930000Y-100470000D02*
X135070000Y-100470000D01*
X135070000Y-89550000D02*
G75*
G03*
X117930000Y-89550000I-8570000J0D01*
G01*
X117930000Y-89550000D02*
G75*
G03*
X135070000Y-89550000I8570000J0D01*
G01*
%TO.C,R2*%
X137870000Y-118870000D02*
X137870000Y-118540000D01*
X131330000Y-116130000D02*
X137870000Y-116130000D01*
X131330000Y-118870000D02*
X137870000Y-118870000D01*
X131330000Y-118540000D02*
X131330000Y-118870000D01*
X131330000Y-116460000D02*
X131330000Y-116130000D01*
X137870000Y-116130000D02*
X137870000Y-116460000D01*
%TO.C,R1*%
X117530000Y-115930000D02*
X117530000Y-116260000D01*
X124070000Y-118670000D02*
X117530000Y-118670000D01*
X124070000Y-115930000D02*
X117530000Y-115930000D01*
X124070000Y-116260000D02*
X124070000Y-115930000D01*
X124070000Y-118340000D02*
X124070000Y-118670000D01*
X117530000Y-118670000D02*
X117530000Y-118340000D01*
%TO.C,J1*%
X125570000Y-122570000D02*
X133250000Y-122570000D01*
X124300000Y-125230000D02*
X122970000Y-125230000D01*
X133250000Y-125230000D02*
X133250000Y-122570000D01*
X125570000Y-125230000D02*
X125570000Y-122570000D01*
X122970000Y-125230000D02*
X122970000Y-123900000D01*
X125570000Y-125230000D02*
X133250000Y-125230000D01*
%TO.C,C7*%
X104855000Y-106180000D02*
X105170000Y-106180000D01*
X102430000Y-111420000D02*
X102430000Y-106180000D01*
X105170000Y-111420000D02*
X105170000Y-106180000D01*
X102430000Y-106180000D02*
X102745000Y-106180000D01*
X104855000Y-111420000D02*
X105170000Y-111420000D01*
X102430000Y-111420000D02*
X102745000Y-111420000D01*
%TO.C,C6*%
X106051000Y-121240000D02*
X106051000Y-122748000D01*
X105531000Y-121240000D02*
X105531000Y-123076000D01*
X105131000Y-117153000D02*
X105131000Y-119160000D01*
X106691000Y-118310000D02*
X106691000Y-122090000D01*
X104851000Y-117069000D02*
X104851000Y-119160000D01*
X104130000Y-116970000D02*
X104130000Y-123430000D01*
X104931000Y-121240000D02*
X104931000Y-123310000D01*
X105051000Y-121240000D02*
X105051000Y-123274000D01*
X104090000Y-116970000D02*
X104090000Y-123430000D01*
X106731000Y-118366000D02*
X106731000Y-122034000D01*
X106611000Y-118205000D02*
X106611000Y-122195000D01*
X104610000Y-121240000D02*
X104610000Y-123382000D01*
X105651000Y-121240000D02*
X105651000Y-123012000D01*
X105571000Y-117344000D02*
X105571000Y-119160000D01*
X106331000Y-117895000D02*
X106331000Y-119160000D01*
X104610000Y-117018000D02*
X104610000Y-119160000D01*
X107211000Y-119398000D02*
X107211000Y-121002000D01*
X104170000Y-116972000D02*
X104170000Y-123428000D01*
X105691000Y-121240000D02*
X105691000Y-122990000D01*
X100549759Y-118361000D02*
X101179759Y-118361000D01*
X105771000Y-121240000D02*
X105771000Y-122942000D01*
X107291000Y-119798000D02*
X107291000Y-120602000D01*
X104690000Y-121240000D02*
X104690000Y-123367000D01*
X105291000Y-121240000D02*
X105291000Y-123186000D01*
X105651000Y-117388000D02*
X105651000Y-119160000D01*
X105811000Y-121240000D02*
X105811000Y-122916000D01*
X104570000Y-121240000D02*
X104570000Y-123389000D01*
X106931000Y-118691000D02*
X106931000Y-121709000D01*
X106411000Y-117976000D02*
X106411000Y-122424000D01*
X105211000Y-121240000D02*
X105211000Y-123218000D01*
X106131000Y-117716000D02*
X106131000Y-119160000D01*
X106851000Y-118550000D02*
X106851000Y-121850000D01*
X104650000Y-121240000D02*
X104650000Y-123375000D01*
X104330000Y-121240000D02*
X104330000Y-123418000D01*
X105891000Y-117536000D02*
X105891000Y-119160000D01*
X106971000Y-118768000D02*
X106971000Y-121632000D01*
X104490000Y-116999000D02*
X104490000Y-119160000D01*
X105611000Y-117366000D02*
X105611000Y-119160000D01*
X104851000Y-121240000D02*
X104851000Y-123331000D01*
X104290000Y-116978000D02*
X104290000Y-119160000D01*
X106211000Y-117784000D02*
X106211000Y-119160000D01*
X105851000Y-117510000D02*
X105851000Y-119160000D01*
X106771000Y-118424000D02*
X106771000Y-121976000D01*
X105931000Y-121240000D02*
X105931000Y-122836000D01*
X107251000Y-119567000D02*
X107251000Y-120833000D01*
X106331000Y-121240000D02*
X106331000Y-122505000D01*
X106011000Y-121240000D02*
X106011000Y-122778000D01*
X104370000Y-121240000D02*
X104370000Y-123415000D01*
X105331000Y-117230000D02*
X105331000Y-119160000D01*
X104370000Y-116985000D02*
X104370000Y-119160000D01*
X105691000Y-117410000D02*
X105691000Y-119160000D01*
X105371000Y-117248000D02*
X105371000Y-119160000D01*
X105731000Y-121240000D02*
X105731000Y-122966000D01*
X106491000Y-118063000D02*
X106491000Y-122337000D01*
X105971000Y-117593000D02*
X105971000Y-119160000D01*
X104811000Y-121240000D02*
X104811000Y-123341000D01*
X105331000Y-121240000D02*
X105331000Y-123170000D01*
X105451000Y-121240000D02*
X105451000Y-123116000D01*
X106571000Y-118156000D02*
X106571000Y-122244000D01*
X106531000Y-118108000D02*
X106531000Y-122292000D01*
X105371000Y-121240000D02*
X105371000Y-123152000D01*
X106291000Y-117857000D02*
X106291000Y-119160000D01*
X105011000Y-121240000D02*
X105011000Y-123286000D01*
X107011000Y-118850000D02*
X107011000Y-121550000D01*
X104771000Y-117050000D02*
X104771000Y-119160000D01*
X105411000Y-117266000D02*
X105411000Y-119160000D01*
X106291000Y-121240000D02*
X106291000Y-122543000D01*
X105211000Y-117182000D02*
X105211000Y-119160000D01*
X105571000Y-121240000D02*
X105571000Y-123056000D01*
X104530000Y-121240000D02*
X104530000Y-123395000D01*
X104931000Y-117090000D02*
X104931000Y-119160000D01*
X105971000Y-121240000D02*
X105971000Y-122807000D01*
X106211000Y-121240000D02*
X106211000Y-122616000D01*
X105171000Y-117167000D02*
X105171000Y-119160000D01*
X104771000Y-121240000D02*
X104771000Y-123350000D01*
X100864759Y-118046000D02*
X100864759Y-118676000D01*
X105611000Y-121240000D02*
X105611000Y-123034000D01*
X106811000Y-118486000D02*
X106811000Y-121914000D01*
X106251000Y-117820000D02*
X106251000Y-119160000D01*
X106891000Y-118619000D02*
X106891000Y-121781000D01*
X104650000Y-117025000D02*
X104650000Y-119160000D01*
X107131000Y-119141000D02*
X107131000Y-121259000D01*
X107171000Y-119260000D02*
X107171000Y-121140000D01*
X104490000Y-121240000D02*
X104490000Y-123401000D01*
X105491000Y-117304000D02*
X105491000Y-119160000D01*
X105091000Y-121240000D02*
X105091000Y-123261000D01*
X104570000Y-117011000D02*
X104570000Y-119160000D01*
X104730000Y-117041000D02*
X104730000Y-119160000D01*
X104971000Y-117102000D02*
X104971000Y-119160000D01*
X104050000Y-116970000D02*
X104050000Y-123430000D01*
X104891000Y-121240000D02*
X104891000Y-123321000D01*
X105731000Y-117434000D02*
X105731000Y-119160000D01*
X104891000Y-117079000D02*
X104891000Y-119160000D01*
X105171000Y-121240000D02*
X105171000Y-123233000D01*
X104811000Y-117059000D02*
X104811000Y-119160000D01*
X104330000Y-116982000D02*
X104330000Y-119160000D01*
X106171000Y-117750000D02*
X106171000Y-119160000D01*
X106371000Y-117935000D02*
X106371000Y-122465000D01*
X105491000Y-121240000D02*
X105491000Y-123096000D01*
X106011000Y-117622000D02*
X106011000Y-119160000D01*
X104290000Y-121240000D02*
X104290000Y-123422000D01*
X105011000Y-117114000D02*
X105011000Y-119160000D01*
X104971000Y-121240000D02*
X104971000Y-123298000D01*
X107091000Y-119035000D02*
X107091000Y-121365000D01*
X105931000Y-117564000D02*
X105931000Y-119160000D01*
X106091000Y-121240000D02*
X106091000Y-122716000D01*
X105131000Y-121240000D02*
X105131000Y-123247000D01*
X106451000Y-118018000D02*
X106451000Y-122382000D01*
X106651000Y-118256000D02*
X106651000Y-122144000D01*
X107051000Y-118938000D02*
X107051000Y-121462000D01*
X104450000Y-121240000D02*
X104450000Y-123406000D01*
X106251000Y-121240000D02*
X106251000Y-122580000D01*
X105771000Y-117458000D02*
X105771000Y-119160000D01*
X104690000Y-117033000D02*
X104690000Y-119160000D01*
X105411000Y-121240000D02*
X105411000Y-123134000D01*
X104210000Y-116973000D02*
X104210000Y-123427000D01*
X106131000Y-121240000D02*
X106131000Y-122684000D01*
X105851000Y-121240000D02*
X105851000Y-122890000D01*
X106051000Y-117652000D02*
X106051000Y-119160000D01*
X104410000Y-121240000D02*
X104410000Y-123411000D01*
X105531000Y-117324000D02*
X105531000Y-119160000D01*
X105891000Y-121240000D02*
X105891000Y-122864000D01*
X104450000Y-116994000D02*
X104450000Y-119160000D01*
X106091000Y-117684000D02*
X106091000Y-119160000D01*
X105291000Y-117214000D02*
X105291000Y-119160000D01*
X105051000Y-117126000D02*
X105051000Y-119160000D01*
X105091000Y-117139000D02*
X105091000Y-119160000D01*
X104410000Y-116989000D02*
X104410000Y-119160000D01*
X105251000Y-117198000D02*
X105251000Y-119160000D01*
X105251000Y-121240000D02*
X105251000Y-123202000D01*
X104530000Y-117005000D02*
X104530000Y-119160000D01*
X105451000Y-117284000D02*
X105451000Y-119160000D01*
X104730000Y-121240000D02*
X104730000Y-123359000D01*
X106171000Y-121240000D02*
X106171000Y-122650000D01*
X105811000Y-117484000D02*
X105811000Y-119160000D01*
X104250000Y-116976000D02*
X104250000Y-123424000D01*
X107320000Y-120200000D02*
G75*
G03*
X100780000Y-120200000I-3270000J0D01*
G01*
X100780000Y-120200000D02*
G75*
G03*
X107320000Y-120200000I3270000J0D01*
G01*
%TO.C,C5*%
X113001000Y-117040000D02*
X113001000Y-117653000D01*
X112321000Y-117040000D02*
X112321000Y-118224000D01*
X111200000Y-117040000D02*
X111200000Y-118573000D01*
X112241000Y-113732000D02*
X112241000Y-114960000D01*
X112121000Y-113671000D02*
X112121000Y-114960000D01*
X112161000Y-113690000D02*
X112161000Y-114960000D01*
X112681000Y-114029000D02*
X112681000Y-114960000D01*
X112961000Y-117040000D02*
X112961000Y-117699000D01*
X112641000Y-117040000D02*
X112641000Y-118004000D01*
X111160000Y-113424000D02*
X111160000Y-114960000D01*
X112561000Y-113935000D02*
X112561000Y-114960000D01*
X111040000Y-117040000D02*
X111040000Y-118580000D01*
X111721000Y-117040000D02*
X111721000Y-118480000D01*
X111881000Y-113572000D02*
X111881000Y-114960000D01*
X111921000Y-113586000D02*
X111921000Y-114960000D01*
X112761000Y-114099000D02*
X112761000Y-114960000D01*
X111600000Y-113489000D02*
X111600000Y-114960000D01*
X111240000Y-117040000D02*
X111240000Y-118569000D01*
X111841000Y-117040000D02*
X111841000Y-118442000D01*
X111560000Y-117040000D02*
X111560000Y-118520000D01*
X112281000Y-117040000D02*
X112281000Y-118247000D01*
X112401000Y-117040000D02*
X112401000Y-118175000D01*
X111120000Y-117040000D02*
X111120000Y-118578000D01*
X111520000Y-113472000D02*
X111520000Y-114960000D01*
X112441000Y-113851000D02*
X112441000Y-114960000D01*
X112841000Y-114174000D02*
X112841000Y-114960000D01*
X113001000Y-114347000D02*
X113001000Y-114960000D01*
X112041000Y-117040000D02*
X112041000Y-118365000D01*
X111000000Y-113420000D02*
X111000000Y-114960000D01*
X111320000Y-113439000D02*
X111320000Y-114960000D01*
X112041000Y-113635000D02*
X112041000Y-114960000D01*
X111480000Y-113464000D02*
X111480000Y-114960000D01*
X113481000Y-115195000D02*
X113481000Y-116805000D01*
X113281000Y-114749000D02*
X113281000Y-117251000D01*
X113121000Y-114500000D02*
X113121000Y-117500000D01*
X111360000Y-117040000D02*
X111360000Y-118556000D01*
X112081000Y-117040000D02*
X112081000Y-118348000D01*
X113521000Y-115323000D02*
X113521000Y-116677000D01*
X112561000Y-117040000D02*
X112561000Y-118065000D01*
X112521000Y-117040000D02*
X112521000Y-118095000D01*
X111761000Y-113532000D02*
X111761000Y-114960000D01*
X112001000Y-117040000D02*
X112001000Y-118382000D01*
X111881000Y-117040000D02*
X111881000Y-118428000D01*
X112081000Y-113652000D02*
X112081000Y-114960000D01*
X112241000Y-117040000D02*
X112241000Y-118268000D01*
X112881000Y-114215000D02*
X112881000Y-114960000D01*
X112521000Y-113905000D02*
X112521000Y-114960000D01*
X111320000Y-117040000D02*
X111320000Y-118561000D01*
X111921000Y-117040000D02*
X111921000Y-118414000D01*
X111961000Y-117040000D02*
X111961000Y-118398000D01*
X111160000Y-117040000D02*
X111160000Y-118576000D01*
X112001000Y-113618000D02*
X112001000Y-114960000D01*
X111680000Y-113509000D02*
X111680000Y-114960000D01*
X113401000Y-114989000D02*
X113401000Y-117011000D01*
X113081000Y-114446000D02*
X113081000Y-117554000D01*
X113441000Y-115085000D02*
X113441000Y-116915000D01*
X108195225Y-114525000D02*
X108695225Y-114525000D01*
X111000000Y-117040000D02*
X111000000Y-118580000D01*
X111801000Y-113545000D02*
X111801000Y-114960000D01*
X112481000Y-113878000D02*
X112481000Y-114960000D01*
X112201000Y-117040000D02*
X112201000Y-118290000D01*
X112361000Y-113800000D02*
X112361000Y-114960000D01*
X112801000Y-114136000D02*
X112801000Y-114960000D01*
X112921000Y-117040000D02*
X112921000Y-117743000D01*
X113361000Y-114902000D02*
X113361000Y-117098000D01*
X111120000Y-113422000D02*
X111120000Y-114960000D01*
X111280000Y-113435000D02*
X111280000Y-114960000D01*
X111080000Y-113421000D02*
X111080000Y-114960000D01*
X111200000Y-113427000D02*
X111200000Y-114960000D01*
X112801000Y-117040000D02*
X112801000Y-117864000D01*
X112121000Y-117040000D02*
X112121000Y-118329000D01*
X113561000Y-115482000D02*
X113561000Y-116518000D01*
X113601000Y-115716000D02*
X113601000Y-116284000D01*
X111600000Y-117040000D02*
X111600000Y-118511000D01*
X112721000Y-117040000D02*
X112721000Y-117937000D01*
X112161000Y-117040000D02*
X112161000Y-118310000D01*
X111400000Y-117040000D02*
X111400000Y-118550000D01*
X113241000Y-114681000D02*
X113241000Y-117319000D01*
X113201000Y-114617000D02*
X113201000Y-117383000D01*
X111961000Y-113602000D02*
X111961000Y-114960000D01*
X112281000Y-113753000D02*
X112281000Y-114960000D01*
X113321000Y-114822000D02*
X113321000Y-117178000D01*
X112361000Y-117040000D02*
X112361000Y-118200000D01*
X112921000Y-114257000D02*
X112921000Y-114960000D01*
X112601000Y-113965000D02*
X112601000Y-114960000D01*
X113041000Y-114395000D02*
X113041000Y-117605000D01*
X112481000Y-117040000D02*
X112481000Y-118122000D01*
X111761000Y-117040000D02*
X111761000Y-118468000D01*
X111520000Y-117040000D02*
X111520000Y-118528000D01*
X111841000Y-113558000D02*
X111841000Y-114960000D01*
X111360000Y-113444000D02*
X111360000Y-114960000D01*
X111440000Y-117040000D02*
X111440000Y-118543000D01*
X113161000Y-114557000D02*
X113161000Y-117443000D01*
X112841000Y-117040000D02*
X112841000Y-117826000D01*
X111801000Y-117040000D02*
X111801000Y-118455000D01*
X111280000Y-117040000D02*
X111280000Y-118565000D01*
X111080000Y-117040000D02*
X111080000Y-118579000D01*
X111680000Y-117040000D02*
X111680000Y-118491000D01*
X112881000Y-117040000D02*
X112881000Y-117785000D01*
X111721000Y-113520000D02*
X111721000Y-114960000D01*
X112641000Y-113996000D02*
X112641000Y-114960000D01*
X112441000Y-117040000D02*
X112441000Y-118149000D01*
X112401000Y-113825000D02*
X112401000Y-114960000D01*
X112201000Y-113710000D02*
X112201000Y-114960000D01*
X111240000Y-113431000D02*
X111240000Y-114960000D01*
X112721000Y-114063000D02*
X112721000Y-114960000D01*
X111440000Y-113457000D02*
X111440000Y-114960000D01*
X111640000Y-117040000D02*
X111640000Y-118501000D01*
X112321000Y-113776000D02*
X112321000Y-114960000D01*
X108445225Y-114275000D02*
X108445225Y-114775000D01*
X111400000Y-113450000D02*
X111400000Y-114960000D01*
X112681000Y-117040000D02*
X112681000Y-117971000D01*
X111480000Y-117040000D02*
X111480000Y-118536000D01*
X111560000Y-113480000D02*
X111560000Y-114960000D01*
X112601000Y-117040000D02*
X112601000Y-118035000D01*
X112761000Y-117040000D02*
X112761000Y-117901000D01*
X111040000Y-113420000D02*
X111040000Y-114960000D01*
X111640000Y-113499000D02*
X111640000Y-114960000D01*
X112961000Y-114301000D02*
X112961000Y-114960000D01*
X113620000Y-116000000D02*
G75*
G03*
X108380000Y-116000000I-2620000J0D01*
G01*
X108380000Y-116000000D02*
G75*
G03*
X113620000Y-116000000I2620000J0D01*
G01*
%TO.C,C4*%
X147301000Y-116640000D02*
X147301000Y-117253000D01*
X146621000Y-116640000D02*
X146621000Y-117824000D01*
X145500000Y-116640000D02*
X145500000Y-118173000D01*
X146541000Y-113332000D02*
X146541000Y-114560000D01*
X146421000Y-113271000D02*
X146421000Y-114560000D01*
X146461000Y-113290000D02*
X146461000Y-114560000D01*
X146981000Y-113629000D02*
X146981000Y-114560000D01*
X147261000Y-116640000D02*
X147261000Y-117299000D01*
X146941000Y-116640000D02*
X146941000Y-117604000D01*
X145460000Y-113024000D02*
X145460000Y-114560000D01*
X146861000Y-113535000D02*
X146861000Y-114560000D01*
X145340000Y-116640000D02*
X145340000Y-118180000D01*
X146021000Y-116640000D02*
X146021000Y-118080000D01*
X146181000Y-113172000D02*
X146181000Y-114560000D01*
X146221000Y-113186000D02*
X146221000Y-114560000D01*
X147061000Y-113699000D02*
X147061000Y-114560000D01*
X145900000Y-113089000D02*
X145900000Y-114560000D01*
X145540000Y-116640000D02*
X145540000Y-118169000D01*
X146141000Y-116640000D02*
X146141000Y-118042000D01*
X145860000Y-116640000D02*
X145860000Y-118120000D01*
X146581000Y-116640000D02*
X146581000Y-117847000D01*
X146701000Y-116640000D02*
X146701000Y-117775000D01*
X145420000Y-116640000D02*
X145420000Y-118178000D01*
X145820000Y-113072000D02*
X145820000Y-114560000D01*
X146741000Y-113451000D02*
X146741000Y-114560000D01*
X147141000Y-113774000D02*
X147141000Y-114560000D01*
X147301000Y-113947000D02*
X147301000Y-114560000D01*
X146341000Y-116640000D02*
X146341000Y-117965000D01*
X145300000Y-113020000D02*
X145300000Y-114560000D01*
X145620000Y-113039000D02*
X145620000Y-114560000D01*
X146341000Y-113235000D02*
X146341000Y-114560000D01*
X145780000Y-113064000D02*
X145780000Y-114560000D01*
X147781000Y-114795000D02*
X147781000Y-116405000D01*
X147581000Y-114349000D02*
X147581000Y-116851000D01*
X147421000Y-114100000D02*
X147421000Y-117100000D01*
X145660000Y-116640000D02*
X145660000Y-118156000D01*
X146381000Y-116640000D02*
X146381000Y-117948000D01*
X147821000Y-114923000D02*
X147821000Y-116277000D01*
X146861000Y-116640000D02*
X146861000Y-117665000D01*
X146821000Y-116640000D02*
X146821000Y-117695000D01*
X146061000Y-113132000D02*
X146061000Y-114560000D01*
X146301000Y-116640000D02*
X146301000Y-117982000D01*
X146181000Y-116640000D02*
X146181000Y-118028000D01*
X146381000Y-113252000D02*
X146381000Y-114560000D01*
X146541000Y-116640000D02*
X146541000Y-117868000D01*
X147181000Y-113815000D02*
X147181000Y-114560000D01*
X146821000Y-113505000D02*
X146821000Y-114560000D01*
X145620000Y-116640000D02*
X145620000Y-118161000D01*
X146221000Y-116640000D02*
X146221000Y-118014000D01*
X146261000Y-116640000D02*
X146261000Y-117998000D01*
X145460000Y-116640000D02*
X145460000Y-118176000D01*
X146301000Y-113218000D02*
X146301000Y-114560000D01*
X145980000Y-113109000D02*
X145980000Y-114560000D01*
X147701000Y-114589000D02*
X147701000Y-116611000D01*
X147381000Y-114046000D02*
X147381000Y-117154000D01*
X147741000Y-114685000D02*
X147741000Y-116515000D01*
X142495225Y-114125000D02*
X142995225Y-114125000D01*
X145300000Y-116640000D02*
X145300000Y-118180000D01*
X146101000Y-113145000D02*
X146101000Y-114560000D01*
X146781000Y-113478000D02*
X146781000Y-114560000D01*
X146501000Y-116640000D02*
X146501000Y-117890000D01*
X146661000Y-113400000D02*
X146661000Y-114560000D01*
X147101000Y-113736000D02*
X147101000Y-114560000D01*
X147221000Y-116640000D02*
X147221000Y-117343000D01*
X147661000Y-114502000D02*
X147661000Y-116698000D01*
X145420000Y-113022000D02*
X145420000Y-114560000D01*
X145580000Y-113035000D02*
X145580000Y-114560000D01*
X145380000Y-113021000D02*
X145380000Y-114560000D01*
X145500000Y-113027000D02*
X145500000Y-114560000D01*
X147101000Y-116640000D02*
X147101000Y-117464000D01*
X146421000Y-116640000D02*
X146421000Y-117929000D01*
X147861000Y-115082000D02*
X147861000Y-116118000D01*
X147901000Y-115316000D02*
X147901000Y-115884000D01*
X145900000Y-116640000D02*
X145900000Y-118111000D01*
X147021000Y-116640000D02*
X147021000Y-117537000D01*
X146461000Y-116640000D02*
X146461000Y-117910000D01*
X145700000Y-116640000D02*
X145700000Y-118150000D01*
X147541000Y-114281000D02*
X147541000Y-116919000D01*
X147501000Y-114217000D02*
X147501000Y-116983000D01*
X146261000Y-113202000D02*
X146261000Y-114560000D01*
X146581000Y-113353000D02*
X146581000Y-114560000D01*
X147621000Y-114422000D02*
X147621000Y-116778000D01*
X146661000Y-116640000D02*
X146661000Y-117800000D01*
X147221000Y-113857000D02*
X147221000Y-114560000D01*
X146901000Y-113565000D02*
X146901000Y-114560000D01*
X147341000Y-113995000D02*
X147341000Y-117205000D01*
X146781000Y-116640000D02*
X146781000Y-117722000D01*
X146061000Y-116640000D02*
X146061000Y-118068000D01*
X145820000Y-116640000D02*
X145820000Y-118128000D01*
X146141000Y-113158000D02*
X146141000Y-114560000D01*
X145660000Y-113044000D02*
X145660000Y-114560000D01*
X145740000Y-116640000D02*
X145740000Y-118143000D01*
X147461000Y-114157000D02*
X147461000Y-117043000D01*
X147141000Y-116640000D02*
X147141000Y-117426000D01*
X146101000Y-116640000D02*
X146101000Y-118055000D01*
X145580000Y-116640000D02*
X145580000Y-118165000D01*
X145380000Y-116640000D02*
X145380000Y-118179000D01*
X145980000Y-116640000D02*
X145980000Y-118091000D01*
X147181000Y-116640000D02*
X147181000Y-117385000D01*
X146021000Y-113120000D02*
X146021000Y-114560000D01*
X146941000Y-113596000D02*
X146941000Y-114560000D01*
X146741000Y-116640000D02*
X146741000Y-117749000D01*
X146701000Y-113425000D02*
X146701000Y-114560000D01*
X146501000Y-113310000D02*
X146501000Y-114560000D01*
X145540000Y-113031000D02*
X145540000Y-114560000D01*
X147021000Y-113663000D02*
X147021000Y-114560000D01*
X145740000Y-113057000D02*
X145740000Y-114560000D01*
X145940000Y-116640000D02*
X145940000Y-118101000D01*
X146621000Y-113376000D02*
X146621000Y-114560000D01*
X142745225Y-113875000D02*
X142745225Y-114375000D01*
X145700000Y-113050000D02*
X145700000Y-114560000D01*
X146981000Y-116640000D02*
X146981000Y-117571000D01*
X145780000Y-116640000D02*
X145780000Y-118136000D01*
X145860000Y-113080000D02*
X145860000Y-114560000D01*
X146901000Y-116640000D02*
X146901000Y-117635000D01*
X147061000Y-116640000D02*
X147061000Y-117501000D01*
X145340000Y-113020000D02*
X145340000Y-114560000D01*
X145940000Y-113099000D02*
X145940000Y-114560000D01*
X147261000Y-113901000D02*
X147261000Y-114560000D01*
X147920000Y-115600000D02*
G75*
G03*
X142680000Y-115600000I-2620000J0D01*
G01*
X142680000Y-115600000D02*
G75*
G03*
X147920000Y-115600000I2620000J0D01*
G01*
%TO.C,C3*%
X135980000Y-121745000D02*
X135980000Y-121430000D01*
X141220000Y-124170000D02*
X135980000Y-124170000D01*
X141220000Y-121430000D02*
X135980000Y-121430000D01*
X135980000Y-124170000D02*
X135980000Y-123855000D01*
X141220000Y-121745000D02*
X141220000Y-121430000D01*
X141220000Y-124170000D02*
X141220000Y-123855000D01*
%TO.C,C2*%
X146901000Y-108240000D02*
X146901000Y-108853000D01*
X146221000Y-108240000D02*
X146221000Y-109424000D01*
X145100000Y-108240000D02*
X145100000Y-109773000D01*
X146141000Y-104932000D02*
X146141000Y-106160000D01*
X146021000Y-104871000D02*
X146021000Y-106160000D01*
X146061000Y-104890000D02*
X146061000Y-106160000D01*
X146581000Y-105229000D02*
X146581000Y-106160000D01*
X146861000Y-108240000D02*
X146861000Y-108899000D01*
X146541000Y-108240000D02*
X146541000Y-109204000D01*
X145060000Y-104624000D02*
X145060000Y-106160000D01*
X146461000Y-105135000D02*
X146461000Y-106160000D01*
X144940000Y-108240000D02*
X144940000Y-109780000D01*
X145621000Y-108240000D02*
X145621000Y-109680000D01*
X145781000Y-104772000D02*
X145781000Y-106160000D01*
X145821000Y-104786000D02*
X145821000Y-106160000D01*
X146661000Y-105299000D02*
X146661000Y-106160000D01*
X145500000Y-104689000D02*
X145500000Y-106160000D01*
X145140000Y-108240000D02*
X145140000Y-109769000D01*
X145741000Y-108240000D02*
X145741000Y-109642000D01*
X145460000Y-108240000D02*
X145460000Y-109720000D01*
X146181000Y-108240000D02*
X146181000Y-109447000D01*
X146301000Y-108240000D02*
X146301000Y-109375000D01*
X145020000Y-108240000D02*
X145020000Y-109778000D01*
X145420000Y-104672000D02*
X145420000Y-106160000D01*
X146341000Y-105051000D02*
X146341000Y-106160000D01*
X146741000Y-105374000D02*
X146741000Y-106160000D01*
X146901000Y-105547000D02*
X146901000Y-106160000D01*
X145941000Y-108240000D02*
X145941000Y-109565000D01*
X144900000Y-104620000D02*
X144900000Y-106160000D01*
X145220000Y-104639000D02*
X145220000Y-106160000D01*
X145941000Y-104835000D02*
X145941000Y-106160000D01*
X145380000Y-104664000D02*
X145380000Y-106160000D01*
X147381000Y-106395000D02*
X147381000Y-108005000D01*
X147181000Y-105949000D02*
X147181000Y-108451000D01*
X147021000Y-105700000D02*
X147021000Y-108700000D01*
X145260000Y-108240000D02*
X145260000Y-109756000D01*
X145981000Y-108240000D02*
X145981000Y-109548000D01*
X147421000Y-106523000D02*
X147421000Y-107877000D01*
X146461000Y-108240000D02*
X146461000Y-109265000D01*
X146421000Y-108240000D02*
X146421000Y-109295000D01*
X145661000Y-104732000D02*
X145661000Y-106160000D01*
X145901000Y-108240000D02*
X145901000Y-109582000D01*
X145781000Y-108240000D02*
X145781000Y-109628000D01*
X145981000Y-104852000D02*
X145981000Y-106160000D01*
X146141000Y-108240000D02*
X146141000Y-109468000D01*
X146781000Y-105415000D02*
X146781000Y-106160000D01*
X146421000Y-105105000D02*
X146421000Y-106160000D01*
X145220000Y-108240000D02*
X145220000Y-109761000D01*
X145821000Y-108240000D02*
X145821000Y-109614000D01*
X145861000Y-108240000D02*
X145861000Y-109598000D01*
X145060000Y-108240000D02*
X145060000Y-109776000D01*
X145901000Y-104818000D02*
X145901000Y-106160000D01*
X145580000Y-104709000D02*
X145580000Y-106160000D01*
X147301000Y-106189000D02*
X147301000Y-108211000D01*
X146981000Y-105646000D02*
X146981000Y-108754000D01*
X147341000Y-106285000D02*
X147341000Y-108115000D01*
X142095225Y-105725000D02*
X142595225Y-105725000D01*
X144900000Y-108240000D02*
X144900000Y-109780000D01*
X145701000Y-104745000D02*
X145701000Y-106160000D01*
X146381000Y-105078000D02*
X146381000Y-106160000D01*
X146101000Y-108240000D02*
X146101000Y-109490000D01*
X146261000Y-105000000D02*
X146261000Y-106160000D01*
X146701000Y-105336000D02*
X146701000Y-106160000D01*
X146821000Y-108240000D02*
X146821000Y-108943000D01*
X147261000Y-106102000D02*
X147261000Y-108298000D01*
X145020000Y-104622000D02*
X145020000Y-106160000D01*
X145180000Y-104635000D02*
X145180000Y-106160000D01*
X144980000Y-104621000D02*
X144980000Y-106160000D01*
X145100000Y-104627000D02*
X145100000Y-106160000D01*
X146701000Y-108240000D02*
X146701000Y-109064000D01*
X146021000Y-108240000D02*
X146021000Y-109529000D01*
X147461000Y-106682000D02*
X147461000Y-107718000D01*
X147501000Y-106916000D02*
X147501000Y-107484000D01*
X145500000Y-108240000D02*
X145500000Y-109711000D01*
X146621000Y-108240000D02*
X146621000Y-109137000D01*
X146061000Y-108240000D02*
X146061000Y-109510000D01*
X145300000Y-108240000D02*
X145300000Y-109750000D01*
X147141000Y-105881000D02*
X147141000Y-108519000D01*
X147101000Y-105817000D02*
X147101000Y-108583000D01*
X145861000Y-104802000D02*
X145861000Y-106160000D01*
X146181000Y-104953000D02*
X146181000Y-106160000D01*
X147221000Y-106022000D02*
X147221000Y-108378000D01*
X146261000Y-108240000D02*
X146261000Y-109400000D01*
X146821000Y-105457000D02*
X146821000Y-106160000D01*
X146501000Y-105165000D02*
X146501000Y-106160000D01*
X146941000Y-105595000D02*
X146941000Y-108805000D01*
X146381000Y-108240000D02*
X146381000Y-109322000D01*
X145661000Y-108240000D02*
X145661000Y-109668000D01*
X145420000Y-108240000D02*
X145420000Y-109728000D01*
X145741000Y-104758000D02*
X145741000Y-106160000D01*
X145260000Y-104644000D02*
X145260000Y-106160000D01*
X145340000Y-108240000D02*
X145340000Y-109743000D01*
X147061000Y-105757000D02*
X147061000Y-108643000D01*
X146741000Y-108240000D02*
X146741000Y-109026000D01*
X145701000Y-108240000D02*
X145701000Y-109655000D01*
X145180000Y-108240000D02*
X145180000Y-109765000D01*
X144980000Y-108240000D02*
X144980000Y-109779000D01*
X145580000Y-108240000D02*
X145580000Y-109691000D01*
X146781000Y-108240000D02*
X146781000Y-108985000D01*
X145621000Y-104720000D02*
X145621000Y-106160000D01*
X146541000Y-105196000D02*
X146541000Y-106160000D01*
X146341000Y-108240000D02*
X146341000Y-109349000D01*
X146301000Y-105025000D02*
X146301000Y-106160000D01*
X146101000Y-104910000D02*
X146101000Y-106160000D01*
X145140000Y-104631000D02*
X145140000Y-106160000D01*
X146621000Y-105263000D02*
X146621000Y-106160000D01*
X145340000Y-104657000D02*
X145340000Y-106160000D01*
X145540000Y-108240000D02*
X145540000Y-109701000D01*
X146221000Y-104976000D02*
X146221000Y-106160000D01*
X142345225Y-105475000D02*
X142345225Y-105975000D01*
X145300000Y-104650000D02*
X145300000Y-106160000D01*
X146581000Y-108240000D02*
X146581000Y-109171000D01*
X145380000Y-108240000D02*
X145380000Y-109736000D01*
X145460000Y-104680000D02*
X145460000Y-106160000D01*
X146501000Y-108240000D02*
X146501000Y-109235000D01*
X146661000Y-108240000D02*
X146661000Y-109101000D01*
X144940000Y-104620000D02*
X144940000Y-106160000D01*
X145540000Y-104699000D02*
X145540000Y-106160000D01*
X146861000Y-105501000D02*
X146861000Y-106160000D01*
X147520000Y-107200000D02*
G75*
G03*
X142280000Y-107200000I-2620000J0D01*
G01*
X142280000Y-107200000D02*
G75*
G03*
X147520000Y-107200000I2620000J0D01*
G01*
%TO.C,C1*%
X112701000Y-108740000D02*
X112701000Y-109353000D01*
X112021000Y-108740000D02*
X112021000Y-109924000D01*
X110900000Y-108740000D02*
X110900000Y-110273000D01*
X111941000Y-105432000D02*
X111941000Y-106660000D01*
X111821000Y-105371000D02*
X111821000Y-106660000D01*
X111861000Y-105390000D02*
X111861000Y-106660000D01*
X112381000Y-105729000D02*
X112381000Y-106660000D01*
X112661000Y-108740000D02*
X112661000Y-109399000D01*
X112341000Y-108740000D02*
X112341000Y-109704000D01*
X110860000Y-105124000D02*
X110860000Y-106660000D01*
X112261000Y-105635000D02*
X112261000Y-106660000D01*
X110740000Y-108740000D02*
X110740000Y-110280000D01*
X111421000Y-108740000D02*
X111421000Y-110180000D01*
X111581000Y-105272000D02*
X111581000Y-106660000D01*
X111621000Y-105286000D02*
X111621000Y-106660000D01*
X112461000Y-105799000D02*
X112461000Y-106660000D01*
X111300000Y-105189000D02*
X111300000Y-106660000D01*
X110940000Y-108740000D02*
X110940000Y-110269000D01*
X111541000Y-108740000D02*
X111541000Y-110142000D01*
X111260000Y-108740000D02*
X111260000Y-110220000D01*
X111981000Y-108740000D02*
X111981000Y-109947000D01*
X112101000Y-108740000D02*
X112101000Y-109875000D01*
X110820000Y-108740000D02*
X110820000Y-110278000D01*
X111220000Y-105172000D02*
X111220000Y-106660000D01*
X112141000Y-105551000D02*
X112141000Y-106660000D01*
X112541000Y-105874000D02*
X112541000Y-106660000D01*
X112701000Y-106047000D02*
X112701000Y-106660000D01*
X111741000Y-108740000D02*
X111741000Y-110065000D01*
X110700000Y-105120000D02*
X110700000Y-106660000D01*
X111020000Y-105139000D02*
X111020000Y-106660000D01*
X111741000Y-105335000D02*
X111741000Y-106660000D01*
X111180000Y-105164000D02*
X111180000Y-106660000D01*
X113181000Y-106895000D02*
X113181000Y-108505000D01*
X112981000Y-106449000D02*
X112981000Y-108951000D01*
X112821000Y-106200000D02*
X112821000Y-109200000D01*
X111060000Y-108740000D02*
X111060000Y-110256000D01*
X111781000Y-108740000D02*
X111781000Y-110048000D01*
X113221000Y-107023000D02*
X113221000Y-108377000D01*
X112261000Y-108740000D02*
X112261000Y-109765000D01*
X112221000Y-108740000D02*
X112221000Y-109795000D01*
X111461000Y-105232000D02*
X111461000Y-106660000D01*
X111701000Y-108740000D02*
X111701000Y-110082000D01*
X111581000Y-108740000D02*
X111581000Y-110128000D01*
X111781000Y-105352000D02*
X111781000Y-106660000D01*
X111941000Y-108740000D02*
X111941000Y-109968000D01*
X112581000Y-105915000D02*
X112581000Y-106660000D01*
X112221000Y-105605000D02*
X112221000Y-106660000D01*
X111020000Y-108740000D02*
X111020000Y-110261000D01*
X111621000Y-108740000D02*
X111621000Y-110114000D01*
X111661000Y-108740000D02*
X111661000Y-110098000D01*
X110860000Y-108740000D02*
X110860000Y-110276000D01*
X111701000Y-105318000D02*
X111701000Y-106660000D01*
X111380000Y-105209000D02*
X111380000Y-106660000D01*
X113101000Y-106689000D02*
X113101000Y-108711000D01*
X112781000Y-106146000D02*
X112781000Y-109254000D01*
X113141000Y-106785000D02*
X113141000Y-108615000D01*
X107895225Y-106225000D02*
X108395225Y-106225000D01*
X110700000Y-108740000D02*
X110700000Y-110280000D01*
X111501000Y-105245000D02*
X111501000Y-106660000D01*
X112181000Y-105578000D02*
X112181000Y-106660000D01*
X111901000Y-108740000D02*
X111901000Y-109990000D01*
X112061000Y-105500000D02*
X112061000Y-106660000D01*
X112501000Y-105836000D02*
X112501000Y-106660000D01*
X112621000Y-108740000D02*
X112621000Y-109443000D01*
X113061000Y-106602000D02*
X113061000Y-108798000D01*
X110820000Y-105122000D02*
X110820000Y-106660000D01*
X110980000Y-105135000D02*
X110980000Y-106660000D01*
X110780000Y-105121000D02*
X110780000Y-106660000D01*
X110900000Y-105127000D02*
X110900000Y-106660000D01*
X112501000Y-108740000D02*
X112501000Y-109564000D01*
X111821000Y-108740000D02*
X111821000Y-110029000D01*
X113261000Y-107182000D02*
X113261000Y-108218000D01*
X113301000Y-107416000D02*
X113301000Y-107984000D01*
X111300000Y-108740000D02*
X111300000Y-110211000D01*
X112421000Y-108740000D02*
X112421000Y-109637000D01*
X111861000Y-108740000D02*
X111861000Y-110010000D01*
X111100000Y-108740000D02*
X111100000Y-110250000D01*
X112941000Y-106381000D02*
X112941000Y-109019000D01*
X112901000Y-106317000D02*
X112901000Y-109083000D01*
X111661000Y-105302000D02*
X111661000Y-106660000D01*
X111981000Y-105453000D02*
X111981000Y-106660000D01*
X113021000Y-106522000D02*
X113021000Y-108878000D01*
X112061000Y-108740000D02*
X112061000Y-109900000D01*
X112621000Y-105957000D02*
X112621000Y-106660000D01*
X112301000Y-105665000D02*
X112301000Y-106660000D01*
X112741000Y-106095000D02*
X112741000Y-109305000D01*
X112181000Y-108740000D02*
X112181000Y-109822000D01*
X111461000Y-108740000D02*
X111461000Y-110168000D01*
X111220000Y-108740000D02*
X111220000Y-110228000D01*
X111541000Y-105258000D02*
X111541000Y-106660000D01*
X111060000Y-105144000D02*
X111060000Y-106660000D01*
X111140000Y-108740000D02*
X111140000Y-110243000D01*
X112861000Y-106257000D02*
X112861000Y-109143000D01*
X112541000Y-108740000D02*
X112541000Y-109526000D01*
X111501000Y-108740000D02*
X111501000Y-110155000D01*
X110980000Y-108740000D02*
X110980000Y-110265000D01*
X110780000Y-108740000D02*
X110780000Y-110279000D01*
X111380000Y-108740000D02*
X111380000Y-110191000D01*
X112581000Y-108740000D02*
X112581000Y-109485000D01*
X111421000Y-105220000D02*
X111421000Y-106660000D01*
X112341000Y-105696000D02*
X112341000Y-106660000D01*
X112141000Y-108740000D02*
X112141000Y-109849000D01*
X112101000Y-105525000D02*
X112101000Y-106660000D01*
X111901000Y-105410000D02*
X111901000Y-106660000D01*
X110940000Y-105131000D02*
X110940000Y-106660000D01*
X112421000Y-105763000D02*
X112421000Y-106660000D01*
X111140000Y-105157000D02*
X111140000Y-106660000D01*
X111340000Y-108740000D02*
X111340000Y-110201000D01*
X112021000Y-105476000D02*
X112021000Y-106660000D01*
X108145225Y-105975000D02*
X108145225Y-106475000D01*
X111100000Y-105150000D02*
X111100000Y-106660000D01*
X112381000Y-108740000D02*
X112381000Y-109671000D01*
X111180000Y-108740000D02*
X111180000Y-110236000D01*
X111260000Y-105180000D02*
X111260000Y-106660000D01*
X112301000Y-108740000D02*
X112301000Y-109735000D01*
X112461000Y-108740000D02*
X112461000Y-109601000D01*
X110740000Y-105120000D02*
X110740000Y-106660000D01*
X111340000Y-105199000D02*
X111340000Y-106660000D01*
X112661000Y-106001000D02*
X112661000Y-106660000D01*
X113320000Y-107700000D02*
G75*
G03*
X108080000Y-107700000I-2620000J0D01*
G01*
X108080000Y-107700000D02*
G75*
G03*
X113320000Y-107700000I2620000J0D01*
G01*
%TD*%
M02*
