%TF.GenerationSoftware,KiCad,Pcbnew,7.0.11+dfsg-1build4*%
%TF.CreationDate,2026-03-08T20:48:39-04:00*%
%TF.ProjectId,ecstacy,65637374-6163-4792-9e6b-696361645f70,rev?*%
%TF.SameCoordinates,Original*%
%TF.FileFunction,Copper,L1,Top*%
%TF.FilePolarity,Positive*%
%FSLAX46Y46*%
G04 Gerber Fmt 4.6, Leading zero omitted, Abs format (unit mm)*
G04 Created by KiCad (PCBNEW 7.0.11+dfsg-1build4) date 2026-03-08 20:48:39*
%MOMM*%
%LPD*%
G01*
G04 APERTURE LIST*
%TA.AperFunction,ComponentPad*%
%ADD10C,2.340000*%
%TD*%
%TA.AperFunction,ComponentPad*%
%ADD11R,1.600000X1.600000*%
%TD*%
%TA.AperFunction,ComponentPad*%
%ADD12O,1.600000X1.600000*%
%TD*%
%TA.AperFunction,ComponentPad*%
%ADD13C,1.600000*%
%TD*%
%TA.AperFunction,ComponentPad*%
%ADD14O,3.000000X2.000000*%
%TD*%
%TA.AperFunction,ComponentPad*%
%ADD15R,1.700000X1.700000*%
%TD*%
%TA.AperFunction,ComponentPad*%
%ADD16O,1.700000X1.700000*%
%TD*%
%TA.AperFunction,ViaPad*%
%ADD17C,0.600000*%
%TD*%
%TA.AperFunction,Conductor*%
%ADD18C,0.200000*%
%TD*%
G04 APERTURE END LIST*
D10*
%TO.P,RV1,1,1*%
%TO.N,Net-(R9-Pad2)*%
X142900000Y-106800000D03*
%TO.P,RV1,2,2*%
%TO.N,Net-(SW1A-B)*%
X147900000Y-106800000D03*
%TO.P,RV1,3,3*%
X152900000Y-106800000D03*
%TD*%
D11*
%TO.P,D5,1,K*%
%TO.N,Net-(D5-K)*%
X149380000Y-117600000D03*
D12*
%TO.P,D5,2,A*%
%TO.N,Net-(D5-A)*%
X157000000Y-117600000D03*
%TD*%
D11*
%TO.P,C1,1*%
%TO.N,9v*%
X102700000Y-132800000D03*
D13*
%TO.P,C1,2*%
%TO.N,GND*%
X105200000Y-132800000D03*
%TD*%
D11*
%TO.P,D6,1,K*%
%TO.N,Net-(D5-A)*%
X149390000Y-120400000D03*
D12*
%TO.P,D6,2,A*%
%TO.N,Net-(D5-K)*%
X157010000Y-120400000D03*
%TD*%
D13*
%TO.P,C7,1*%
%TO.N,GND*%
X122400000Y-123000000D03*
%TO.P,C7,2*%
%TO.N,Net-(C7-Pad2)*%
X122400000Y-118000000D03*
%TD*%
%TO.P,R1,1*%
%TO.N,in*%
X127190000Y-130600000D03*
D12*
%TO.P,R1,2*%
%TO.N,GND*%
X134810000Y-130600000D03*
%TD*%
D11*
%TO.P,D2,1,K*%
%TO.N,Net-(D2-K)*%
X111590000Y-120400000D03*
D12*
%TO.P,D2,2,A*%
%TO.N,Net-(D1-K)*%
X119210000Y-120400000D03*
%TD*%
D13*
%TO.P,R5,1*%
%TO.N,9v*%
X101590000Y-111500000D03*
D12*
%TO.P,R5,2*%
%TO.N,VB2*%
X109210000Y-111500000D03*
%TD*%
D13*
%TO.P,R9,1*%
%TO.N,Net-(D2-K)*%
X111500000Y-111400000D03*
D12*
%TO.P,R9,2*%
%TO.N,Net-(R9-Pad2)*%
X119120000Y-111400000D03*
%TD*%
D11*
%TO.P,D1,1,K*%
%TO.N,Net-(D1-K)*%
X111600000Y-117700000D03*
D12*
%TO.P,D1,2,A*%
%TO.N,Net-(D1-A)*%
X119220000Y-117700000D03*
%TD*%
D13*
%TO.P,C9,1*%
%TO.N,Net-(C12-Pad1)*%
X138500000Y-116700000D03*
%TO.P,C9,2*%
%TO.N,Net-(U1B--)*%
X138500000Y-111700000D03*
%TD*%
%TO.P,C2,1*%
%TO.N,in*%
X128300000Y-134000000D03*
%TO.P,C2,2*%
%TO.N,GND*%
X133300000Y-134000000D03*
%TD*%
%TO.P,R14,1*%
%TO.N,Net-(C12-Pad2)*%
X149390000Y-111000000D03*
D12*
%TO.P,R14,2*%
%TO.N,Net-(R14-Pad2)*%
X157010000Y-111000000D03*
%TD*%
D13*
%TO.P,R8,1*%
%TO.N,VB3*%
X101590000Y-121100000D03*
D12*
%TO.P,R8,2*%
%TO.N,GND*%
X109210000Y-121100000D03*
%TD*%
D11*
%TO.P,C4,1*%
%TO.N,VB1*%
X110100000Y-132600000D03*
D13*
%TO.P,C4,2*%
%TO.N,GND*%
X112100000Y-132600000D03*
%TD*%
D11*
%TO.P,U1,1*%
%TO.N,Net-(SW1A-B)*%
X127000000Y-115800000D03*
D12*
%TO.P,U1,2,-*%
%TO.N,Net-(D2-K)*%
X127000000Y-118340000D03*
%TO.P,U1,3,+*%
%TO.N,Net-(U1A-+)*%
X127000000Y-120880000D03*
%TO.P,U1,4,V-*%
%TO.N,GND*%
X127000000Y-123420000D03*
%TO.P,U1,5,+*%
%TO.N,Net-(D5-K)*%
X134620000Y-123420000D03*
%TO.P,U1,6,-*%
%TO.N,Net-(U1B--)*%
X134620000Y-120880000D03*
%TO.P,U1,7*%
%TO.N,Net-(C12-Pad1)*%
X134620000Y-118340000D03*
%TO.P,U1,8,V+*%
%TO.N,9v*%
X134620000Y-115800000D03*
%TD*%
D11*
%TO.P,C11,1*%
%TO.N,Net-(C11-Pad1)*%
X142600000Y-114600000D03*
D13*
%TO.P,C11,2*%
%TO.N,GND*%
X144600000Y-114600000D03*
%TD*%
%TO.P,R13,1*%
%TO.N,Net-(C11-Pad1)*%
X138390000Y-119900000D03*
D12*
%TO.P,R13,2*%
%TO.N,Net-(U1B--)*%
X146010000Y-119900000D03*
%TD*%
D13*
%TO.P,R7,1*%
%TO.N,9v*%
X101590000Y-117900000D03*
D12*
%TO.P,R7,2*%
%TO.N,VB3*%
X109210000Y-117900000D03*
%TD*%
D11*
%TO.P,C6,1*%
%TO.N,VB2*%
X155244888Y-124500000D03*
D13*
%TO.P,C6,2*%
%TO.N,GND*%
X157244888Y-124500000D03*
%TD*%
%TO.P,R10,1*%
%TO.N,Net-(C7-Pad2)*%
X111500000Y-114600000D03*
D12*
%TO.P,R10,2*%
%TO.N,Net-(D2-K)*%
X119120000Y-114600000D03*
%TD*%
D11*
%TO.P,D3,1,K*%
%TO.N,Net-(D1-A)*%
X111590000Y-123000000D03*
D12*
%TO.P,D3,2,A*%
%TO.N,Net-(D3-A)*%
X119210000Y-123000000D03*
%TD*%
D13*
%TO.P,R15,1*%
%TO.N,Net-(SW1A-B)*%
X149390000Y-114600000D03*
D12*
%TO.P,R15,2*%
%TO.N,Net-(D5-K)*%
X157010000Y-114600000D03*
%TD*%
D11*
%TO.P,C12,1*%
%TO.N,Net-(C12-Pad1)*%
X144300000Y-131400000D03*
D13*
%TO.P,C12,2*%
%TO.N,Net-(C12-Pad2)*%
X146300000Y-131400000D03*
%TD*%
%TO.P,R12,1*%
%TO.N,Net-(D5-K)*%
X138480000Y-126700000D03*
D12*
%TO.P,R12,2*%
%TO.N,VB3*%
X146100000Y-126700000D03*
%TD*%
D11*
%TO.P,D4,1,K*%
%TO.N,Net-(D3-A)*%
X111590000Y-125600000D03*
D12*
%TO.P,D4,2,A*%
%TO.N,Net-(D2-K)*%
X119210000Y-125600000D03*
%TD*%
D13*
%TO.P,R2,1*%
%TO.N,Net-(U1A-+)*%
X127090000Y-127200000D03*
D12*
%TO.P,R2,2*%
%TO.N,VB1*%
X134710000Y-127200000D03*
%TD*%
D13*
%TO.P,C5,1*%
%TO.N,Net-(SW1A-B)*%
X122500000Y-115700000D03*
%TO.P,C5,2*%
%TO.N,Net-(D2-K)*%
X122500000Y-110700000D03*
%TD*%
%TO.P,R3,1*%
%TO.N,VB1*%
X101590000Y-127500000D03*
D12*
%TO.P,R3,2*%
%TO.N,GND*%
X109210000Y-127500000D03*
%TD*%
D11*
%TO.P,C10,1*%
%TO.N,VB3*%
X138100000Y-131400000D03*
D13*
%TO.P,C10,2*%
%TO.N,GND*%
X140100000Y-131400000D03*
%TD*%
%TO.P,C13,1*%
%TO.N,GND*%
X149000000Y-128500000D03*
%TO.P,C13,2*%
%TO.N,Net-(C13-Pad2)*%
X154000000Y-128500000D03*
%TD*%
%TO.P,R11,1*%
%TO.N,Net-(U1B--)*%
X138490000Y-123300000D03*
D12*
%TO.P,R11,2*%
%TO.N,Net-(C12-Pad1)*%
X146110000Y-123300000D03*
%TD*%
D10*
%TO.P,RV2,1,1*%
%TO.N,Net-(C8-Pad1)*%
X117200000Y-103100000D03*
%TO.P,RV2,2,2*%
X112200000Y-103100000D03*
%TO.P,RV2,3,3*%
%TO.N,Net-(C7-Pad2)*%
X107200000Y-103100000D03*
%TD*%
D11*
%TO.P,C8,1*%
%TO.N,Net-(C8-Pad1)*%
X116000000Y-132500000D03*
D13*
%TO.P,C8,2*%
%TO.N,GND*%
X118000000Y-132500000D03*
%TD*%
%TO.P,R4,1*%
%TO.N,9v*%
X101590000Y-124300000D03*
D12*
%TO.P,R4,2*%
%TO.N,VB1*%
X109210000Y-124300000D03*
%TD*%
D14*
%TO.P,SW1,1,A*%
%TO.N,Net-(D1-A)*%
X128374000Y-102565500D03*
%TO.P,SW1,2,B*%
%TO.N,Net-(SW1A-B)*%
X128374000Y-107201000D03*
%TO.P,SW1,3,C*%
%TO.N,unconnected-(SW1A-C-Pad3)*%
X128374000Y-111900000D03*
%TO.P,SW1,4,A*%
%TO.N,unconnected-(SW1B-A-Pad4)*%
X133200000Y-102565500D03*
%TO.P,SW1,5,B*%
%TO.N,VB2*%
X133200000Y-107201000D03*
%TO.P,SW1,6,C*%
%TO.N,Net-(D5-A)*%
X133200000Y-111900000D03*
%TD*%
D13*
%TO.P,R6,1*%
%TO.N,VB2*%
X101590000Y-114700000D03*
D12*
%TO.P,R6,2*%
%TO.N,GND*%
X109210000Y-114700000D03*
%TD*%
D15*
%TO.P,J1,1,Pin_1*%
%TO.N,9v*%
X149900000Y-133700000D03*
D16*
%TO.P,J1,2,Pin_2*%
%TO.N,out*%
X152440000Y-133700000D03*
%TO.P,J1,3,Pin_3*%
%TO.N,in*%
X154980000Y-133700000D03*
%TO.P,J1,4,Pin_4*%
%TO.N,GND*%
X157520000Y-133700000D03*
%TD*%
D10*
%TO.P,RV4,1,1*%
%TO.N,GND*%
X107200000Y-106900000D03*
%TO.P,RV4,2,2*%
%TO.N,out*%
X112200000Y-106900000D03*
%TO.P,RV4,3,3*%
%TO.N,Net-(RV3-Pad1)*%
X117200000Y-106900000D03*
%TD*%
%TO.P,RV3,1,1*%
%TO.N,Net-(RV3-Pad1)*%
X152900000Y-103400000D03*
%TO.P,RV3,2,2*%
%TO.N,Net-(C13-Pad2)*%
X147900000Y-103400000D03*
%TO.P,RV3,3,3*%
%TO.N,Net-(R14-Pad2)*%
X142900000Y-103400000D03*
%TD*%
D13*
%TO.P,C3,1*%
%TO.N,in*%
X122400000Y-130600000D03*
%TO.P,C3,2*%
%TO.N,Net-(U1A-+)*%
X122400000Y-125600000D03*
%TD*%
D17*
%TO.N,9v*%
X134596300Y-132475700D03*
%TO.N,GND*%
X144500000Y-111800000D03*
%TO.N,VB2*%
X154400000Y-115400000D03*
X133963000Y-110059000D03*
%TO.N,Net-(C12-Pad2)*%
X146900000Y-110100000D03*
%TO.N,Net-(D1-A)*%
X116886000Y-122141200D03*
%TO.N,out*%
X151900000Y-135745400D03*
X119993200Y-133700800D03*
%TD*%
D18*
%TO.N,Net-(D5-K)*%
X138480000Y-126700000D02*
X139480000Y-125700000D01*
X139480000Y-125700000D02*
X139480000Y-125310000D01*
%TO.N,Net-(SW1A-B)*%
X128374000Y-107201000D02*
X130175900Y-107201000D01*
X132076900Y-105300000D02*
X147236500Y-105300000D01*
X130175900Y-107201000D02*
X132076900Y-105300000D01*
X147236500Y-105300000D02*
X148836500Y-106900000D01*
%TO.N,Net-(R14-Pad2)*%
X157010000Y-111000000D02*
X157010000Y-107721500D01*
X157010000Y-107721500D02*
X154158500Y-104870000D01*
X154158500Y-104870000D02*
X145670000Y-104870000D01*
X145670000Y-104870000D02*
X144100000Y-103300000D01*
%TO.N,Net-(C12-Pad2)*%
X146900000Y-110100000D02*
X148174400Y-110100000D01*
X148174400Y-110100000D02*
X148974400Y-110900000D01*
%TO.N,Net-(SW1A-B)*%
X147900000Y-106800000D02*
X152900000Y-106800000D01*
%TO.N,VB2*%
X154400000Y-115400000D02*
X151655000Y-112655000D01*
X151655000Y-112655000D02*
X148155000Y-112655000D01*
X148155000Y-112655000D02*
X145559000Y-110059000D01*
X145559000Y-110059000D02*
X133963000Y-110059000D01*
%TO.N,Net-(D5-K)*%
X149380000Y-117700000D02*
X149480000Y-117600000D01*
X149480000Y-117600000D02*
X155002600Y-117600000D01*
X155002600Y-117600000D02*
X157010000Y-115592600D01*
X157010000Y-115592600D02*
X157010000Y-114600000D01*
X157010000Y-114600000D02*
X157210000Y-114400000D01*
%TO.N,Net-(D5-A)*%
X149978100Y-118701900D02*
X149390000Y-119290000D01*
X149390000Y-119290000D02*
X149390000Y-119911900D01*
X149390000Y-119911900D02*
X149978100Y-120500000D01*
%TO.N,Net-(D5-K)*%
X139480000Y-125310000D02*
X148353500Y-125310000D01*
X148353500Y-125310000D02*
X153263500Y-120400000D01*
X153263500Y-120400000D02*
X157010000Y-120400000D01*
%TO.N,in*%
X154980000Y-133700000D02*
X154336100Y-133700000D01*
X154336100Y-133700000D02*
X152890700Y-135145400D01*
X152890700Y-135145400D02*
X129445400Y-135145400D01*
X129445400Y-135145400D02*
X128300000Y-134000000D01*
%TO.N,Net-(U1B--)*%
X139480000Y-121101900D02*
X139500000Y-121121900D01*
X139500000Y-121121900D02*
X139500000Y-122290000D01*
X139500000Y-122290000D02*
X138490000Y-123300000D01*
X139480000Y-121101900D02*
X144808100Y-121101900D01*
X144808100Y-121101900D02*
X146010000Y-119900000D01*
%TO.N,Net-(C12-Pad1)*%
X134620000Y-118340000D02*
X136860000Y-118340000D01*
X136860000Y-118340000D02*
X138500000Y-116700000D01*
X138600000Y-116600000D02*
X136860000Y-118340000D01*
%TO.N,9v*%
X104628200Y-133901900D02*
X103801900Y-133075600D01*
X150120000Y-133700000D02*
X148968100Y-133700000D01*
X119954600Y-132888300D02*
X118941000Y-133901900D01*
X134596300Y-132475700D02*
X134596300Y-132888300D01*
X148156400Y-132888300D02*
X134596300Y-132888300D01*
X134596300Y-132888300D02*
X119954600Y-132888300D01*
X118941000Y-133901900D02*
X104628200Y-133901900D01*
X103801900Y-133075600D02*
X103801900Y-132800000D01*
X102700000Y-132800000D02*
X103801900Y-132800000D01*
X148968100Y-133700000D02*
X148156400Y-132888300D01*
%TO.N,in*%
X127190000Y-130600000D02*
X122400000Y-130600000D01*
%TO.N,Net-(U1A-+)*%
X124000000Y-127200000D02*
X122400000Y-125600000D01*
X127090000Y-127200000D02*
X124000000Y-127200000D01*
%TO.N,VB1*%
X104790000Y-124300000D02*
X109210000Y-124300000D01*
X110100000Y-132600000D02*
X113850000Y-128850000D01*
X113850000Y-128850000D02*
X131958100Y-128850000D01*
X101590000Y-127500000D02*
X104790000Y-124300000D01*
X134710000Y-127200000D02*
X133608100Y-127200000D01*
X131958100Y-128850000D02*
X133608100Y-127200000D01*
%TO.N,Net-(SW1A-B)*%
X122600000Y-115800000D02*
X122500000Y-115700000D01*
X127000000Y-115800000D02*
X122600000Y-115800000D01*
%TO.N,Net-(D2-K)*%
X112601900Y-112501900D02*
X111500000Y-111400000D01*
X119120000Y-114600000D02*
X118018100Y-114600000D01*
X118018100Y-112501900D02*
X112601900Y-112501900D01*
X120698100Y-112501900D02*
X118018100Y-112501900D01*
X118018100Y-114600000D02*
X118018100Y-112501900D01*
X122500000Y-110700000D02*
X120698100Y-112501900D01*
%TO.N,VB2*%
X111639600Y-108519500D02*
X130079600Y-108519500D01*
X109210000Y-111500000D02*
X108659100Y-111500000D01*
X133200000Y-107201000D02*
X131398100Y-107201000D01*
X108659100Y-111500000D02*
X111639600Y-108519500D01*
X108108100Y-111500000D02*
X104908100Y-114700000D01*
X130079600Y-108519500D02*
X131398100Y-107201000D01*
X108659100Y-111500000D02*
X108108100Y-111500000D01*
X104908100Y-114700000D02*
X101590000Y-114700000D01*
%TO.N,Net-(C7-Pad2)*%
X112908300Y-116008300D02*
X120408300Y-116008300D01*
X111500000Y-114600000D02*
X112908300Y-116008300D01*
X120408300Y-116008300D02*
X122400000Y-118000000D01*
%TO.N,Net-(C8-Pad1)*%
X117900000Y-103300000D02*
X112900000Y-103300000D01*
%TO.N,Net-(U1B--)*%
X135943800Y-121101900D02*
X139480000Y-121101900D01*
X135721900Y-120880000D02*
X135943800Y-121101900D01*
X134620000Y-120880000D02*
X135721900Y-120880000D01*
%TO.N,VB3*%
X110311900Y-117900000D02*
X110311900Y-118514400D01*
X123535100Y-121513500D02*
X128021800Y-126000200D01*
X108659100Y-117900000D02*
X109210000Y-117900000D01*
X135740200Y-126000200D02*
X138100000Y-128360000D01*
X114817900Y-121513500D02*
X123535100Y-121513500D01*
X109210000Y-117900000D02*
X110311900Y-117900000D01*
X138100000Y-128360000D02*
X138100000Y-131400000D01*
X108659100Y-117900000D02*
X108108100Y-117900000D01*
X110599400Y-118801900D02*
X112106300Y-118801900D01*
X110311900Y-118514400D02*
X110599400Y-118801900D01*
X145998100Y-126700000D02*
X144338100Y-128360000D01*
X144338100Y-128360000D02*
X138100000Y-128360000D01*
X112106300Y-118801900D02*
X114817900Y-121513500D01*
X108108100Y-117900000D02*
X104908100Y-121100000D01*
X104908100Y-121100000D02*
X101590000Y-121100000D01*
X128021800Y-126000200D02*
X135740200Y-126000200D01*
%TO.N,Net-(D1-K)*%
X115401900Y-120400000D02*
X112701900Y-117700000D01*
X119210000Y-120400000D02*
X115401900Y-120400000D01*
X111600000Y-117700000D02*
X112701900Y-117700000D01*
%TO.N,Net-(D1-A)*%
X113550700Y-122141200D02*
X112691900Y-123000000D01*
X116886000Y-122141200D02*
X113550700Y-122141200D01*
X111590000Y-123000000D02*
X112691900Y-123000000D01*
%TO.N,Net-(D3-A)*%
X112691900Y-125600000D02*
X115291900Y-123000000D01*
X111590000Y-125600000D02*
X112691900Y-125600000D01*
X115291900Y-123000000D02*
X119210000Y-123000000D01*
%TO.N,Net-(D5-K)*%
X137611900Y-125310000D02*
X135721900Y-123420000D01*
X134620000Y-123420000D02*
X135721900Y-123420000D01*
X137653200Y-125310000D02*
X139001900Y-125310000D01*
X139001900Y-125310000D02*
X139480000Y-125310000D01*
X137611900Y-125310000D02*
X137653200Y-125310000D01*
%TO.N,Net-(D5-A)*%
X136958400Y-111900000D02*
X133200000Y-111900000D01*
X157698100Y-117600000D02*
X156596200Y-118701900D01*
X143760300Y-118701900D02*
X136958400Y-111900000D01*
X149978100Y-118701900D02*
X143760300Y-118701900D01*
X156596200Y-118701900D02*
X149978100Y-118701900D01*
%TO.N,Net-(R9-Pad2)*%
X141882000Y-109118000D02*
X122503900Y-109118000D01*
X122503900Y-109118000D02*
X120221900Y-111400000D01*
X144100000Y-106900000D02*
X141882000Y-109118000D01*
X119120000Y-111400000D02*
X120221900Y-111400000D01*
%TO.N,Net-(RV3-Pad1)*%
X119816800Y-104883200D02*
X117900000Y-106800000D01*
X154100000Y-103300000D02*
X152590400Y-101790400D01*
X152590400Y-101790400D02*
X138084200Y-101790400D01*
X138084200Y-101790400D02*
X134991400Y-104883200D01*
X134991400Y-104883200D02*
X119816800Y-104883200D01*
%TO.N,out*%
X151854600Y-135700000D02*
X121992400Y-135700000D01*
X121992400Y-135700000D02*
X119993200Y-133700800D01*
X151900000Y-135745400D02*
X151854600Y-135700000D01*
%TD*%
%TA.AperFunction,Conductor*%
%TO.N,GND*%
G36*
X121262214Y-122133685D02*
G01*
X121307969Y-122186489D01*
X121317913Y-122255647D01*
X121296749Y-122309124D01*
X121269870Y-122347510D01*
X121269866Y-122347516D01*
X121173734Y-122553673D01*
X121173730Y-122553682D01*
X121114860Y-122773389D01*
X121114858Y-122773400D01*
X121095034Y-122999997D01*
X121095034Y-123000002D01*
X121114858Y-123226599D01*
X121114860Y-123226610D01*
X121173730Y-123446317D01*
X121173735Y-123446331D01*
X121269863Y-123652478D01*
X121320974Y-123725472D01*
X122002046Y-123044400D01*
X122014835Y-123125148D01*
X122072359Y-123238045D01*
X122161955Y-123327641D01*
X122274852Y-123385165D01*
X122355599Y-123397953D01*
X121674526Y-124079025D01*
X121747513Y-124130132D01*
X121747517Y-124130134D01*
X121870200Y-124187342D01*
X121922639Y-124233514D01*
X121941791Y-124300708D01*
X121921575Y-124367589D01*
X121870201Y-124412106D01*
X121747264Y-124469433D01*
X121560858Y-124599954D01*
X121399954Y-124760858D01*
X121269432Y-124947265D01*
X121269431Y-124947267D01*
X121173261Y-125153502D01*
X121173258Y-125153511D01*
X121114366Y-125373302D01*
X121114364Y-125373313D01*
X121094532Y-125599998D01*
X121094532Y-125600001D01*
X121114364Y-125826686D01*
X121114366Y-125826697D01*
X121173258Y-126046488D01*
X121173261Y-126046497D01*
X121269431Y-126252732D01*
X121269432Y-126252734D01*
X121399954Y-126439141D01*
X121560858Y-126600045D01*
X121562816Y-126601416D01*
X121747266Y-126730568D01*
X121953504Y-126826739D01*
X122173308Y-126885635D01*
X122335230Y-126899801D01*
X122399998Y-126905468D01*
X122400000Y-126905468D01*
X122400002Y-126905468D01*
X122456807Y-126900498D01*
X122626692Y-126885635D01*
X122722932Y-126859847D01*
X122792781Y-126861510D01*
X122842706Y-126891941D01*
X123541799Y-127591034D01*
X123552493Y-127603228D01*
X123571715Y-127628279D01*
X123571716Y-127628280D01*
X123571718Y-127628282D01*
X123608834Y-127656762D01*
X123697157Y-127724535D01*
X123697158Y-127724535D01*
X123697159Y-127724536D01*
X123843238Y-127785044D01*
X123921619Y-127795363D01*
X123999999Y-127805682D01*
X124000000Y-127805682D01*
X124031302Y-127801560D01*
X124047487Y-127800500D01*
X125858308Y-127800500D01*
X125925347Y-127820185D01*
X125959880Y-127853374D01*
X126011252Y-127926741D01*
X126089956Y-128039144D01*
X126093434Y-128043289D01*
X126092189Y-128044333D01*
X126122117Y-128099142D01*
X126117133Y-128168834D01*
X126075261Y-128224767D01*
X126009797Y-128249184D01*
X126000951Y-128249500D01*
X113897487Y-128249500D01*
X113881302Y-128248439D01*
X113850000Y-128244318D01*
X113810639Y-128249500D01*
X113693239Y-128264955D01*
X113693237Y-128264956D01*
X113547160Y-128325463D01*
X113421714Y-128421721D01*
X113402495Y-128446769D01*
X113391800Y-128458964D01*
X110587582Y-131263181D01*
X110526259Y-131296666D01*
X110499901Y-131299500D01*
X109252129Y-131299500D01*
X109252123Y-131299501D01*
X109192516Y-131305908D01*
X109057671Y-131356202D01*
X109057664Y-131356206D01*
X108942455Y-131442452D01*
X108942452Y-131442455D01*
X108856206Y-131557664D01*
X108856202Y-131557671D01*
X108805908Y-131692517D01*
X108799738Y-131749911D01*
X108799500Y-131752127D01*
X108799500Y-132526400D01*
X108799501Y-133177400D01*
X108779816Y-133244439D01*
X108727013Y-133290194D01*
X108675501Y-133301400D01*
X106573110Y-133301400D01*
X106506071Y-133281715D01*
X106460316Y-133228911D01*
X106450372Y-133159753D01*
X106453335Y-133145307D01*
X106485139Y-133026610D01*
X106485141Y-133026599D01*
X106504966Y-132800002D01*
X106504966Y-132799997D01*
X106485141Y-132573400D01*
X106485139Y-132573389D01*
X106426269Y-132353682D01*
X106426264Y-132353668D01*
X106330136Y-132147521D01*
X106330132Y-132147513D01*
X106279025Y-132074526D01*
X105597953Y-132755597D01*
X105585165Y-132674852D01*
X105527641Y-132561955D01*
X105438045Y-132472359D01*
X105325148Y-132414835D01*
X105244401Y-132402046D01*
X105925472Y-131720974D01*
X105852478Y-131669863D01*
X105646331Y-131573735D01*
X105646317Y-131573730D01*
X105426610Y-131514860D01*
X105426599Y-131514858D01*
X105200002Y-131495034D01*
X105199998Y-131495034D01*
X104973400Y-131514858D01*
X104973389Y-131514860D01*
X104753682Y-131573730D01*
X104753673Y-131573734D01*
X104547516Y-131669866D01*
X104547512Y-131669868D01*
X104474526Y-131720973D01*
X104474526Y-131720974D01*
X105155599Y-132402046D01*
X105074852Y-132414835D01*
X104961955Y-132472359D01*
X104872359Y-132561955D01*
X104814835Y-132674852D01*
X104802046Y-132755598D01*
X104115799Y-132069351D01*
X104066805Y-132059505D01*
X104016622Y-132010889D01*
X104001981Y-131955366D01*
X104000900Y-131955423D01*
X104000854Y-131955429D01*
X104000853Y-131955426D01*
X104000676Y-131955436D01*
X104000499Y-131952135D01*
X104000499Y-131952128D01*
X103994091Y-131892517D01*
X103991524Y-131885635D01*
X103943797Y-131757671D01*
X103943793Y-131757664D01*
X103857547Y-131642455D01*
X103857544Y-131642452D01*
X103742335Y-131556206D01*
X103742328Y-131556202D01*
X103607482Y-131505908D01*
X103607483Y-131505908D01*
X103547883Y-131499501D01*
X103547881Y-131499500D01*
X103547873Y-131499500D01*
X103547864Y-131499500D01*
X101852129Y-131499500D01*
X101852123Y-131499501D01*
X101792516Y-131505908D01*
X101657671Y-131556202D01*
X101657664Y-131556206D01*
X101542455Y-131642452D01*
X101542452Y-131642455D01*
X101456206Y-131757664D01*
X101456202Y-131757671D01*
X101405908Y-131892517D01*
X101399996Y-131947513D01*
X101399501Y-131952123D01*
X101399500Y-131952135D01*
X101399500Y-133647870D01*
X101399501Y-133647876D01*
X101405908Y-133707483D01*
X101456202Y-133842328D01*
X101456206Y-133842335D01*
X101542452Y-133957544D01*
X101542455Y-133957547D01*
X101657664Y-134043793D01*
X101657671Y-134043797D01*
X101792517Y-134094091D01*
X101792516Y-134094091D01*
X101799444Y-134094835D01*
X101852127Y-134100500D01*
X103547872Y-134100499D01*
X103607483Y-134094091D01*
X103742331Y-134043796D01*
X103758414Y-134031755D01*
X103823875Y-134007338D01*
X103892148Y-134022188D01*
X103920406Y-134043341D01*
X104169999Y-134292934D01*
X104180693Y-134305128D01*
X104199918Y-134330182D01*
X104218792Y-134344664D01*
X104281609Y-134392865D01*
X104281610Y-134392867D01*
X104317100Y-134420098D01*
X104325359Y-134426436D01*
X104325361Y-134426436D01*
X104325363Y-134426438D01*
X104373788Y-134446496D01*
X104471438Y-134486944D01*
X104539922Y-134495960D01*
X104628199Y-134507582D01*
X104628200Y-134507582D01*
X104659502Y-134503460D01*
X104675687Y-134502400D01*
X118893513Y-134502400D01*
X118909697Y-134503460D01*
X118941000Y-134507582D01*
X118941001Y-134507582D01*
X119029278Y-134495960D01*
X119097762Y-134486944D01*
X119243841Y-134426436D01*
X119287590Y-134392866D01*
X119355316Y-134340898D01*
X119420483Y-134315705D01*
X119488928Y-134329744D01*
X119496765Y-134334277D01*
X119566079Y-134377830D01*
X119643437Y-134426438D01*
X119643678Y-134426589D01*
X119813945Y-134486168D01*
X119900869Y-134495961D01*
X119965280Y-134523026D01*
X119974665Y-134531500D01*
X121530984Y-136087819D01*
X121564469Y-136149142D01*
X121559485Y-136218834D01*
X121517613Y-136274767D01*
X121452149Y-136299184D01*
X121443303Y-136299500D01*
X100624500Y-136299500D01*
X100557461Y-136279815D01*
X100511706Y-136227011D01*
X100500500Y-136175500D01*
X100500500Y-128549049D01*
X100520185Y-128482010D01*
X100572989Y-128436255D01*
X100642147Y-128426311D01*
X100705703Y-128455336D01*
X100712181Y-128461368D01*
X100750858Y-128500045D01*
X100750861Y-128500047D01*
X100937266Y-128630568D01*
X101143504Y-128726739D01*
X101363308Y-128785635D01*
X101525230Y-128799801D01*
X101589998Y-128805468D01*
X101590000Y-128805468D01*
X101590002Y-128805468D01*
X101646673Y-128800509D01*
X101816692Y-128785635D01*
X102036496Y-128726739D01*
X102242734Y-128630568D01*
X102429139Y-128500047D01*
X102590047Y-128339139D01*
X102720568Y-128152734D01*
X102816739Y-127946496D01*
X102875635Y-127726692D01*
X102895468Y-127500000D01*
X102875635Y-127273308D01*
X102849847Y-127177066D01*
X102851510Y-127107217D01*
X102881939Y-127057294D01*
X105002416Y-124936819D01*
X105063739Y-124903334D01*
X105090097Y-124900500D01*
X107978308Y-124900500D01*
X108045347Y-124920185D01*
X108079880Y-124953374D01*
X108130500Y-125025667D01*
X108209954Y-125139141D01*
X108370858Y-125300045D01*
X108370861Y-125300047D01*
X108557266Y-125430568D01*
X108763504Y-125526739D01*
X108983308Y-125585635D01*
X109145230Y-125599801D01*
X109209998Y-125605468D01*
X109210000Y-125605468D01*
X109210002Y-125605468D01*
X109272522Y-125599998D01*
X109436692Y-125585635D01*
X109656496Y-125526739D01*
X109862734Y-125430568D01*
X110049139Y-125300047D01*
X110077819Y-125271366D01*
X110139140Y-125237882D01*
X110208832Y-125242866D01*
X110264766Y-125284736D01*
X110289184Y-125350200D01*
X110289500Y-125359048D01*
X110289500Y-126441660D01*
X110269815Y-126508699D01*
X110217011Y-126554454D01*
X110147853Y-126564398D01*
X110084297Y-126535373D01*
X110077819Y-126529341D01*
X110048820Y-126500342D01*
X109862482Y-126369865D01*
X109656328Y-126273734D01*
X109460000Y-126221127D01*
X109460000Y-127184314D01*
X109448045Y-127172359D01*
X109335148Y-127114835D01*
X109241481Y-127100000D01*
X109178519Y-127100000D01*
X109084852Y-127114835D01*
X108971955Y-127172359D01*
X108960000Y-127184314D01*
X108960000Y-126221127D01*
X108763671Y-126273734D01*
X108557517Y-126369865D01*
X108371179Y-126500342D01*
X108210342Y-126661179D01*
X108079865Y-126847517D01*
X107983734Y-127053673D01*
X107983730Y-127053682D01*
X107931127Y-127249999D01*
X107931128Y-127250000D01*
X108894314Y-127250000D01*
X108882359Y-127261955D01*
X108824835Y-127374852D01*
X108805014Y-127500000D01*
X108824835Y-127625148D01*
X108882359Y-127738045D01*
X108894314Y-127750000D01*
X107931128Y-127750000D01*
X107983730Y-127946317D01*
X107983734Y-127946326D01*
X108079865Y-128152482D01*
X108210342Y-128338820D01*
X108371179Y-128499657D01*
X108557517Y-128630134D01*
X108763673Y-128726265D01*
X108763682Y-128726269D01*
X108959999Y-128778872D01*
X108960000Y-128778871D01*
X108960000Y-127815686D01*
X108971955Y-127827641D01*
X109084852Y-127885165D01*
X109178519Y-127900000D01*
X109241481Y-127900000D01*
X109335148Y-127885165D01*
X109448045Y-127827641D01*
X109460000Y-127815686D01*
X109460000Y-128778872D01*
X109656317Y-128726269D01*
X109656326Y-128726265D01*
X109862482Y-128630134D01*
X110048820Y-128499657D01*
X110209657Y-128338820D01*
X110340134Y-128152482D01*
X110436265Y-127946326D01*
X110436269Y-127946317D01*
X110488872Y-127750000D01*
X109525686Y-127750000D01*
X109537641Y-127738045D01*
X109595165Y-127625148D01*
X109614986Y-127500000D01*
X109595165Y-127374852D01*
X109537641Y-127261955D01*
X109525686Y-127250000D01*
X110488872Y-127250000D01*
X110488872Y-127249999D01*
X110436269Y-127053682D01*
X110436266Y-127053673D01*
X110422288Y-127023699D01*
X110411795Y-126954622D01*
X110440313Y-126890837D01*
X110498789Y-126852596D01*
X110568656Y-126852041D01*
X110578002Y-126855110D01*
X110682517Y-126894091D01*
X110682516Y-126894091D01*
X110689444Y-126894835D01*
X110742127Y-126900500D01*
X112437872Y-126900499D01*
X112497483Y-126894091D01*
X112632331Y-126843796D01*
X112747546Y-126757546D01*
X112833796Y-126642331D01*
X112884091Y-126507483D01*
X112890500Y-126447873D01*
X112890499Y-126250567D01*
X112910183Y-126183529D01*
X112962987Y-126137774D01*
X112967015Y-126136020D01*
X112994741Y-126124536D01*
X113066554Y-126069432D01*
X113120182Y-126028282D01*
X113139410Y-126003222D01*
X113150089Y-125991044D01*
X115504316Y-123636819D01*
X115565639Y-123603334D01*
X115591997Y-123600500D01*
X117978308Y-123600500D01*
X118045347Y-123620185D01*
X118079880Y-123653374D01*
X118145079Y-123746488D01*
X118209954Y-123839141D01*
X118370858Y-124000045D01*
X118370861Y-124000047D01*
X118557266Y-124130568D01*
X118651079Y-124174314D01*
X118679609Y-124187618D01*
X118732048Y-124233791D01*
X118751200Y-124300984D01*
X118730984Y-124367865D01*
X118679609Y-124412382D01*
X118557267Y-124469431D01*
X118557265Y-124469432D01*
X118370858Y-124599954D01*
X118209954Y-124760858D01*
X118079432Y-124947265D01*
X118079431Y-124947267D01*
X117983261Y-125153502D01*
X117983258Y-125153511D01*
X117924366Y-125373302D01*
X117924364Y-125373313D01*
X117904532Y-125599998D01*
X117904532Y-125600001D01*
X117924364Y-125826686D01*
X117924366Y-125826697D01*
X117983258Y-126046488D01*
X117983261Y-126046497D01*
X118079431Y-126252732D01*
X118079432Y-126252734D01*
X118209954Y-126439141D01*
X118370858Y-126600045D01*
X118372816Y-126601416D01*
X118557266Y-126730568D01*
X118763504Y-126826739D01*
X118983308Y-126885635D01*
X119145230Y-126899801D01*
X119209998Y-126905468D01*
X119210000Y-126905468D01*
X119210002Y-126905468D01*
X119266807Y-126900498D01*
X119436692Y-126885635D01*
X119656496Y-126826739D01*
X119862734Y-126730568D01*
X120049139Y-126600047D01*
X120210047Y-126439139D01*
X120340568Y-126252734D01*
X120436739Y-126046496D01*
X120495635Y-125826692D01*
X120515468Y-125600000D01*
X120513011Y-125571922D01*
X120504590Y-125475663D01*
X120495635Y-125373308D01*
X120436739Y-125153504D01*
X120340568Y-124947266D01*
X120210047Y-124760861D01*
X120210045Y-124760858D01*
X120049141Y-124599954D01*
X119862734Y-124469432D01*
X119862732Y-124469431D01*
X119756828Y-124420047D01*
X119740389Y-124412381D01*
X119687951Y-124366210D01*
X119668799Y-124299016D01*
X119689015Y-124232135D01*
X119740389Y-124187618D01*
X119862734Y-124130568D01*
X120049139Y-124000047D01*
X120210047Y-123839139D01*
X120340568Y-123652734D01*
X120436739Y-123446496D01*
X120495635Y-123226692D01*
X120515468Y-123000000D01*
X120514743Y-122991718D01*
X120507412Y-122907916D01*
X120495635Y-122773308D01*
X120447279Y-122592841D01*
X120436741Y-122553511D01*
X120436738Y-122553502D01*
X120340568Y-122347266D01*
X120313859Y-122309122D01*
X120291533Y-122242917D01*
X120308544Y-122175149D01*
X120359492Y-122127337D01*
X120415435Y-122114000D01*
X121195175Y-122114000D01*
X121262214Y-122133685D01*
G37*
%TD.AperFunction*%
%TA.AperFunction,Conductor*%
G36*
X157770000Y-135030633D02*
G01*
X157983483Y-134973433D01*
X157983492Y-134973429D01*
X158197578Y-134873600D01*
X158391082Y-134738105D01*
X158558108Y-134571079D01*
X158573925Y-134548491D01*
X158628502Y-134504866D01*
X158698000Y-134497672D01*
X158760355Y-134529195D01*
X158795769Y-134589425D01*
X158799500Y-134619614D01*
X158799500Y-136175500D01*
X158779815Y-136242539D01*
X158727011Y-136288294D01*
X158675500Y-136299500D01*
X152721606Y-136299500D01*
X152654567Y-136279815D01*
X152608812Y-136227011D01*
X152598868Y-136157853D01*
X152616612Y-136109529D01*
X152625788Y-136094924D01*
X152628274Y-136087819D01*
X152685368Y-135924655D01*
X152693102Y-135856017D01*
X152720168Y-135791603D01*
X152777763Y-135752048D01*
X152816322Y-135745900D01*
X152843213Y-135745900D01*
X152859397Y-135746960D01*
X152890700Y-135751082D01*
X152890701Y-135751082D01*
X152942954Y-135744202D01*
X153047462Y-135730444D01*
X153193541Y-135669936D01*
X153318982Y-135573682D01*
X153338209Y-135548623D01*
X153348890Y-135536443D01*
X154057519Y-134827814D01*
X154118840Y-134794331D01*
X154188532Y-134799315D01*
X154216311Y-134813916D01*
X154302170Y-134874035D01*
X154516337Y-134973903D01*
X154744592Y-135035063D01*
X154932918Y-135051539D01*
X154979999Y-135055659D01*
X154980000Y-135055659D01*
X154980001Y-135055659D01*
X155019234Y-135052226D01*
X155215408Y-135035063D01*
X155443663Y-134973903D01*
X155657830Y-134874035D01*
X155851401Y-134738495D01*
X156018495Y-134571401D01*
X156148730Y-134385405D01*
X156203307Y-134341781D01*
X156272805Y-134334587D01*
X156335160Y-134366110D01*
X156351879Y-134385405D01*
X156481890Y-134571078D01*
X156648917Y-134738105D01*
X156842421Y-134873600D01*
X157056507Y-134973429D01*
X157056516Y-134973433D01*
X157270000Y-135030634D01*
X157270000Y-134135501D01*
X157377685Y-134184680D01*
X157484237Y-134200000D01*
X157555763Y-134200000D01*
X157662315Y-134184680D01*
X157770000Y-134135501D01*
X157770000Y-135030633D01*
G37*
%TD.AperFunction*%
%TA.AperFunction,Conductor*%
G36*
X136209558Y-127318793D02*
G01*
X137463181Y-128572416D01*
X137496666Y-128633739D01*
X137499500Y-128660097D01*
X137499500Y-129975500D01*
X137479815Y-130042539D01*
X137427011Y-130088294D01*
X137375501Y-130099500D01*
X137252130Y-130099500D01*
X137252123Y-130099501D01*
X137192516Y-130105908D01*
X137057671Y-130156202D01*
X137057664Y-130156206D01*
X136942455Y-130242452D01*
X136942452Y-130242455D01*
X136856206Y-130357664D01*
X136856202Y-130357671D01*
X136805908Y-130492517D01*
X136799501Y-130552116D01*
X136799500Y-130552127D01*
X136799500Y-131399998D01*
X136799501Y-132163800D01*
X136779816Y-132230839D01*
X136727013Y-132276594D01*
X136675501Y-132287800D01*
X135466626Y-132287800D01*
X135399587Y-132268115D01*
X135353832Y-132215311D01*
X135349584Y-132204754D01*
X135338248Y-132172359D01*
X135322089Y-132126178D01*
X135236197Y-131989482D01*
X135217197Y-131922247D01*
X135237564Y-131855412D01*
X135288787Y-131811129D01*
X135462479Y-131730135D01*
X135462481Y-131730134D01*
X135648820Y-131599657D01*
X135809657Y-131438820D01*
X135940134Y-131252482D01*
X136036265Y-131046326D01*
X136036269Y-131046317D01*
X136088872Y-130850000D01*
X135125686Y-130850000D01*
X135137641Y-130838045D01*
X135195165Y-130725148D01*
X135214986Y-130600000D01*
X135195165Y-130474852D01*
X135137641Y-130361955D01*
X135125686Y-130350000D01*
X136088872Y-130350000D01*
X136088872Y-130349999D01*
X136036269Y-130153682D01*
X136036265Y-130153673D01*
X135940134Y-129947517D01*
X135809657Y-129761179D01*
X135648820Y-129600342D01*
X135462482Y-129469865D01*
X135256328Y-129373734D01*
X135060000Y-129321127D01*
X135060000Y-130284314D01*
X135048045Y-130272359D01*
X134935148Y-130214835D01*
X134841481Y-130200000D01*
X134778519Y-130200000D01*
X134684852Y-130214835D01*
X134571955Y-130272359D01*
X134560000Y-130284314D01*
X134560000Y-129321127D01*
X134363671Y-129373734D01*
X134157517Y-129469865D01*
X133971179Y-129600342D01*
X133810342Y-129761179D01*
X133679865Y-129947517D01*
X133583734Y-130153673D01*
X133583730Y-130153682D01*
X133531127Y-130349999D01*
X133531128Y-130350000D01*
X134494314Y-130350000D01*
X134482359Y-130361955D01*
X134424835Y-130474852D01*
X134405014Y-130600000D01*
X134424835Y-130725148D01*
X134482359Y-130838045D01*
X134494314Y-130850000D01*
X133531128Y-130850000D01*
X133583730Y-131046317D01*
X133583734Y-131046326D01*
X133679865Y-131252482D01*
X133810342Y-131438820D01*
X133971183Y-131599661D01*
X134067209Y-131666900D01*
X134110834Y-131721477D01*
X134118026Y-131790975D01*
X134086504Y-131853330D01*
X134083767Y-131856155D01*
X133966483Y-131973439D01*
X133870510Y-132126178D01*
X133843016Y-132204754D01*
X133802294Y-132261530D01*
X133737342Y-132287278D01*
X133725974Y-132287800D01*
X120002087Y-132287800D01*
X119985902Y-132286739D01*
X119954600Y-132282618D01*
X119915239Y-132287800D01*
X119797839Y-132303255D01*
X119797837Y-132303256D01*
X119651757Y-132363764D01*
X119526320Y-132460015D01*
X119518590Y-132470089D01*
X119462160Y-132511288D01*
X119392414Y-132515440D01*
X119331495Y-132481224D01*
X119298745Y-132419505D01*
X119296690Y-132405404D01*
X119285141Y-132273400D01*
X119285139Y-132273389D01*
X119226269Y-132053682D01*
X119226264Y-132053668D01*
X119130136Y-131847521D01*
X119130132Y-131847513D01*
X119079025Y-131774526D01*
X118397953Y-132455597D01*
X118385165Y-132374852D01*
X118327641Y-132261955D01*
X118238045Y-132172359D01*
X118125148Y-132114835D01*
X118044400Y-132102046D01*
X118725472Y-131420974D01*
X118652478Y-131369863D01*
X118446331Y-131273735D01*
X118446317Y-131273730D01*
X118226610Y-131214860D01*
X118226599Y-131214858D01*
X118000002Y-131195034D01*
X117999998Y-131195034D01*
X117773400Y-131214858D01*
X117773389Y-131214860D01*
X117553682Y-131273730D01*
X117553673Y-131273734D01*
X117347512Y-131369868D01*
X117347507Y-131369871D01*
X117334736Y-131378813D01*
X117268529Y-131401138D01*
X117200763Y-131384124D01*
X117164352Y-131351546D01*
X117157546Y-131342454D01*
X117157544Y-131342453D01*
X117157544Y-131342452D01*
X117042335Y-131256206D01*
X117042328Y-131256202D01*
X116907482Y-131205908D01*
X116907483Y-131205908D01*
X116847883Y-131199501D01*
X116847881Y-131199500D01*
X116847873Y-131199500D01*
X116847864Y-131199500D01*
X115152129Y-131199500D01*
X115152123Y-131199501D01*
X115092516Y-131205908D01*
X114957671Y-131256202D01*
X114957664Y-131256206D01*
X114842455Y-131342452D01*
X114842452Y-131342455D01*
X114756206Y-131457664D01*
X114756202Y-131457671D01*
X114705908Y-131592517D01*
X114702234Y-131626697D01*
X114699500Y-131652127D01*
X114699500Y-132474852D01*
X114699501Y-133177400D01*
X114679816Y-133244439D01*
X114627013Y-133290194D01*
X114575501Y-133301400D01*
X113401964Y-133301400D01*
X113334925Y-133281715D01*
X113289170Y-133228911D01*
X113279226Y-133159753D01*
X113289582Y-133124995D01*
X113326266Y-133046326D01*
X113326269Y-133046317D01*
X113385139Y-132826610D01*
X113385141Y-132826599D01*
X113404966Y-132600002D01*
X113404966Y-132599997D01*
X113385141Y-132373400D01*
X113385139Y-132373389D01*
X113326269Y-132153682D01*
X113326264Y-132153668D01*
X113230136Y-131947521D01*
X113230132Y-131947513D01*
X113179025Y-131874526D01*
X112497953Y-132555597D01*
X112485165Y-132474852D01*
X112427641Y-132361955D01*
X112338045Y-132272359D01*
X112225148Y-132214835D01*
X112144400Y-132202046D01*
X112825472Y-131520974D01*
X112752478Y-131469863D01*
X112546331Y-131373735D01*
X112546317Y-131373730D01*
X112461321Y-131350956D01*
X112401660Y-131314591D01*
X112371131Y-131251744D01*
X112379426Y-131182369D01*
X112405730Y-131143504D01*
X114062416Y-129486819D01*
X114123739Y-129453334D01*
X114150097Y-129450500D01*
X121410951Y-129450500D01*
X121477990Y-129470185D01*
X121523745Y-129522989D01*
X121533689Y-129592147D01*
X121504664Y-129655703D01*
X121498632Y-129662181D01*
X121399954Y-129760858D01*
X121269432Y-129947265D01*
X121269431Y-129947267D01*
X121173261Y-130153502D01*
X121173258Y-130153511D01*
X121114366Y-130373302D01*
X121114364Y-130373313D01*
X121094532Y-130599998D01*
X121094532Y-130600001D01*
X121114364Y-130826686D01*
X121114366Y-130826697D01*
X121173258Y-131046488D01*
X121173261Y-131046497D01*
X121269431Y-131252732D01*
X121269432Y-131252734D01*
X121399954Y-131439141D01*
X121560858Y-131600045D01*
X121560861Y-131600047D01*
X121747266Y-131730568D01*
X121953504Y-131826739D01*
X122173308Y-131885635D01*
X122335230Y-131899801D01*
X122399998Y-131905468D01*
X122400000Y-131905468D01*
X122400002Y-131905468D01*
X122456673Y-131900509D01*
X122626692Y-131885635D01*
X122846496Y-131826739D01*
X123052734Y-131730568D01*
X123239139Y-131600047D01*
X123400047Y-131439139D01*
X123530118Y-131253375D01*
X123584693Y-131209752D01*
X123631692Y-131200500D01*
X125958308Y-131200500D01*
X126025347Y-131220185D01*
X126059880Y-131253374D01*
X126144154Y-131373730D01*
X126189954Y-131439141D01*
X126350858Y-131600045D01*
X126350861Y-131600047D01*
X126537266Y-131730568D01*
X126743504Y-131826739D01*
X126963308Y-131885635D01*
X127125230Y-131899801D01*
X127189998Y-131905468D01*
X127190000Y-131905468D01*
X127190002Y-131905468D01*
X127246673Y-131900509D01*
X127416692Y-131885635D01*
X127636496Y-131826739D01*
X127842734Y-131730568D01*
X128029139Y-131600047D01*
X128190047Y-131439139D01*
X128320568Y-131252734D01*
X128416739Y-131046496D01*
X128475635Y-130826692D01*
X128495468Y-130600000D01*
X128475635Y-130373308D01*
X128417463Y-130156206D01*
X128416741Y-130153511D01*
X128416738Y-130153502D01*
X128398718Y-130114858D01*
X128320568Y-129947266D01*
X128207048Y-129785141D01*
X128190045Y-129760858D01*
X128091368Y-129662181D01*
X128057883Y-129600858D01*
X128062867Y-129531166D01*
X128104739Y-129475233D01*
X128170203Y-129450816D01*
X128179049Y-129450500D01*
X131910613Y-129450500D01*
X131926797Y-129451560D01*
X131958100Y-129455682D01*
X131958101Y-129455682D01*
X132010354Y-129448802D01*
X132114862Y-129435044D01*
X132260941Y-129374536D01*
X132322658Y-129327179D01*
X132386382Y-129278282D01*
X132405609Y-129253223D01*
X132416290Y-129241043D01*
X133576394Y-128080939D01*
X133637715Y-128047456D01*
X133707407Y-128052440D01*
X133751754Y-128080941D01*
X133870858Y-128200045D01*
X133870861Y-128200047D01*
X134057266Y-128330568D01*
X134263504Y-128426739D01*
X134483308Y-128485635D01*
X134643580Y-128499657D01*
X134709998Y-128505468D01*
X134710000Y-128505468D01*
X134710002Y-128505468D01*
X134771985Y-128500045D01*
X134936692Y-128485635D01*
X135156496Y-128426739D01*
X135362734Y-128330568D01*
X135549139Y-128200047D01*
X135710047Y-128039139D01*
X135840568Y-127852734D01*
X135936739Y-127646496D01*
X135995635Y-127426692D01*
X135998349Y-127395667D01*
X136023801Y-127330599D01*
X136080391Y-127289620D01*
X136150153Y-127285741D01*
X136209558Y-127318793D01*
G37*
%TD.AperFunction*%
%TA.AperFunction,Conductor*%
G36*
X158742539Y-100520185D02*
G01*
X158788294Y-100572989D01*
X158799500Y-100624500D01*
X158799500Y-132780384D01*
X158779815Y-132847423D01*
X158727011Y-132893178D01*
X158657853Y-132903122D01*
X158594297Y-132874097D01*
X158573926Y-132851508D01*
X158558116Y-132828929D01*
X158558108Y-132828920D01*
X158391082Y-132661894D01*
X158197578Y-132526399D01*
X157983492Y-132426570D01*
X157983486Y-132426567D01*
X157770000Y-132369364D01*
X157770000Y-133264498D01*
X157662315Y-133215320D01*
X157555763Y-133200000D01*
X157484237Y-133200000D01*
X157377685Y-133215320D01*
X157270000Y-133264498D01*
X157270000Y-132369364D01*
X157269999Y-132369364D01*
X157056513Y-132426567D01*
X157056507Y-132426570D01*
X156842422Y-132526399D01*
X156842420Y-132526400D01*
X156648926Y-132661886D01*
X156648920Y-132661891D01*
X156481891Y-132828920D01*
X156481890Y-132828922D01*
X156351880Y-133014595D01*
X156297303Y-133058219D01*
X156227804Y-133065412D01*
X156165450Y-133033890D01*
X156148730Y-133014594D01*
X156018494Y-132828597D01*
X155851402Y-132661506D01*
X155851395Y-132661501D01*
X155657834Y-132525967D01*
X155657830Y-132525965D01*
X155602148Y-132500000D01*
X155443663Y-132426097D01*
X155443659Y-132426096D01*
X155443655Y-132426094D01*
X155215413Y-132364938D01*
X155215403Y-132364936D01*
X154980001Y-132344341D01*
X154979999Y-132344341D01*
X154744596Y-132364936D01*
X154744586Y-132364938D01*
X154516344Y-132426094D01*
X154516335Y-132426098D01*
X154302171Y-132525964D01*
X154302169Y-132525965D01*
X154108597Y-132661505D01*
X153941505Y-132828597D01*
X153811575Y-133014158D01*
X153756998Y-133057783D01*
X153687500Y-133064977D01*
X153625145Y-133033454D01*
X153608425Y-133014158D01*
X153478494Y-132828597D01*
X153311402Y-132661506D01*
X153311395Y-132661501D01*
X153117834Y-132525967D01*
X153117830Y-132525965D01*
X153062148Y-132500000D01*
X152903663Y-132426097D01*
X152903659Y-132426096D01*
X152903655Y-132426094D01*
X152675413Y-132364938D01*
X152675403Y-132364936D01*
X152440001Y-132344341D01*
X152439999Y-132344341D01*
X152204596Y-132364936D01*
X152204586Y-132364938D01*
X151976344Y-132426094D01*
X151976335Y-132426098D01*
X151762171Y-132525964D01*
X151762169Y-132525965D01*
X151568600Y-132661503D01*
X151446673Y-132783430D01*
X151385350Y-132816914D01*
X151315658Y-132811930D01*
X151259725Y-132770058D01*
X151242810Y-132739081D01*
X151193797Y-132607671D01*
X151193793Y-132607664D01*
X151107547Y-132492455D01*
X151107544Y-132492452D01*
X150992335Y-132406206D01*
X150992328Y-132406202D01*
X150857482Y-132355908D01*
X150857483Y-132355908D01*
X150797883Y-132349501D01*
X150797881Y-132349500D01*
X150797873Y-132349500D01*
X150797864Y-132349500D01*
X149002129Y-132349500D01*
X149002123Y-132349501D01*
X148942516Y-132355908D01*
X148807671Y-132406202D01*
X148807668Y-132406204D01*
X148734535Y-132460952D01*
X148669071Y-132485369D01*
X148600798Y-132470517D01*
X148584738Y-132460061D01*
X148459242Y-132363764D01*
X148313162Y-132303256D01*
X148313160Y-132303255D01*
X148195761Y-132287800D01*
X148156400Y-132282618D01*
X148125097Y-132286739D01*
X148108913Y-132287800D01*
X147504175Y-132287800D01*
X147437136Y-132268115D01*
X147391381Y-132215311D01*
X147381437Y-132146153D01*
X147402599Y-132092678D01*
X147430568Y-132052734D01*
X147526739Y-131846496D01*
X147585635Y-131626692D01*
X147603633Y-131420974D01*
X147605468Y-131400001D01*
X147605468Y-131399998D01*
X147593498Y-131263181D01*
X147585635Y-131173308D01*
X147539198Y-131000000D01*
X147526741Y-130953511D01*
X147526738Y-130953502D01*
X147472899Y-130838045D01*
X147430568Y-130747266D01*
X147300047Y-130560861D01*
X147300045Y-130560858D01*
X147139141Y-130399954D01*
X146952734Y-130269432D01*
X146952732Y-130269431D01*
X146746497Y-130173261D01*
X146746488Y-130173258D01*
X146526697Y-130114366D01*
X146526693Y-130114365D01*
X146526692Y-130114365D01*
X146526691Y-130114364D01*
X146526686Y-130114364D01*
X146300002Y-130094532D01*
X146299998Y-130094532D01*
X146073313Y-130114364D01*
X146073302Y-130114366D01*
X145853511Y-130173258D01*
X145853502Y-130173261D01*
X145647267Y-130269431D01*
X145647262Y-130269434D01*
X145634435Y-130278415D01*
X145568227Y-130300738D01*
X145500461Y-130283722D01*
X145464052Y-130251145D01*
X145457546Y-130242454D01*
X145457545Y-130242453D01*
X145457544Y-130242452D01*
X145342335Y-130156206D01*
X145342328Y-130156202D01*
X145207482Y-130105908D01*
X145207483Y-130105908D01*
X145147883Y-130099501D01*
X145147881Y-130099500D01*
X145147873Y-130099500D01*
X145147864Y-130099500D01*
X143452129Y-130099500D01*
X143452123Y-130099501D01*
X143392516Y-130105908D01*
X143257671Y-130156202D01*
X143257664Y-130156206D01*
X143142455Y-130242452D01*
X143142452Y-130242455D01*
X143056206Y-130357664D01*
X143056202Y-130357671D01*
X143005908Y-130492517D01*
X142999501Y-130552116D01*
X142999500Y-130552127D01*
X142999500Y-131399998D01*
X142999501Y-132163800D01*
X142979816Y-132230839D01*
X142927013Y-132276594D01*
X142875501Y-132287800D01*
X141303565Y-132287800D01*
X141236526Y-132268115D01*
X141190771Y-132215311D01*
X141180827Y-132146153D01*
X141201990Y-132092676D01*
X141230133Y-132052482D01*
X141326265Y-131846326D01*
X141326269Y-131846317D01*
X141385139Y-131626610D01*
X141385141Y-131626599D01*
X141404966Y-131400002D01*
X141404966Y-131399997D01*
X141385141Y-131173400D01*
X141385139Y-131173389D01*
X141326269Y-130953682D01*
X141326264Y-130953668D01*
X141230136Y-130747521D01*
X141230132Y-130747513D01*
X141179025Y-130674526D01*
X140497953Y-131355597D01*
X140485165Y-131274852D01*
X140427641Y-131161955D01*
X140338045Y-131072359D01*
X140225148Y-131014835D01*
X140144400Y-131002046D01*
X140825472Y-130320974D01*
X140752478Y-130269863D01*
X140546331Y-130173735D01*
X140546317Y-130173730D01*
X140326610Y-130114860D01*
X140326599Y-130114858D01*
X140100002Y-130095034D01*
X140099998Y-130095034D01*
X139873400Y-130114858D01*
X139873389Y-130114860D01*
X139653682Y-130173730D01*
X139653673Y-130173734D01*
X139447512Y-130269868D01*
X139447507Y-130269871D01*
X139434736Y-130278813D01*
X139368529Y-130301138D01*
X139300763Y-130284124D01*
X139264352Y-130251546D01*
X139257546Y-130242454D01*
X139257544Y-130242453D01*
X139257544Y-130242452D01*
X139142335Y-130156206D01*
X139142328Y-130156202D01*
X139007482Y-130105908D01*
X139007483Y-130105908D01*
X138947883Y-130099501D01*
X138947881Y-130099500D01*
X138947873Y-130099500D01*
X138947865Y-130099500D01*
X138824500Y-130099500D01*
X138757461Y-130079815D01*
X138711706Y-130027011D01*
X138700500Y-129975500D01*
X138700500Y-129084500D01*
X138720185Y-129017461D01*
X138772989Y-128971706D01*
X138824500Y-128960500D01*
X144290613Y-128960500D01*
X144306797Y-128961560D01*
X144338100Y-128965682D01*
X144338101Y-128965682D01*
X144390354Y-128958802D01*
X144494862Y-128945044D01*
X144640941Y-128884536D01*
X144685949Y-128850000D01*
X144766382Y-128788282D01*
X144785609Y-128763223D01*
X144796290Y-128751043D01*
X145047331Y-128500002D01*
X147695034Y-128500002D01*
X147714858Y-128726599D01*
X147714860Y-128726610D01*
X147773730Y-128946317D01*
X147773735Y-128946331D01*
X147869863Y-129152478D01*
X147920974Y-129225472D01*
X148602046Y-128544400D01*
X148614835Y-128625148D01*
X148672359Y-128738045D01*
X148761955Y-128827641D01*
X148874852Y-128885165D01*
X148955599Y-128897953D01*
X148274526Y-129579025D01*
X148347513Y-129630132D01*
X148347521Y-129630136D01*
X148553668Y-129726264D01*
X148553682Y-129726269D01*
X148773389Y-129785139D01*
X148773400Y-129785141D01*
X148999998Y-129804966D01*
X149000002Y-129804966D01*
X149226599Y-129785141D01*
X149226610Y-129785139D01*
X149446317Y-129726269D01*
X149446331Y-129726264D01*
X149652478Y-129630136D01*
X149725471Y-129579024D01*
X149044400Y-128897953D01*
X149125148Y-128885165D01*
X149238045Y-128827641D01*
X149327641Y-128738045D01*
X149385165Y-128625148D01*
X149397953Y-128544400D01*
X150079024Y-129225471D01*
X150130136Y-129152478D01*
X150226264Y-128946331D01*
X150226269Y-128946317D01*
X150285139Y-128726610D01*
X150285141Y-128726599D01*
X150304966Y-128500002D01*
X150304966Y-128500001D01*
X152694532Y-128500001D01*
X152714364Y-128726686D01*
X152714366Y-128726697D01*
X152773258Y-128946488D01*
X152773261Y-128946497D01*
X152869431Y-129152732D01*
X152869432Y-129152734D01*
X152999954Y-129339141D01*
X153160858Y-129500045D01*
X153160861Y-129500047D01*
X153347266Y-129630568D01*
X153553504Y-129726739D01*
X153773308Y-129785635D01*
X153935230Y-129799801D01*
X153999998Y-129805468D01*
X154000000Y-129805468D01*
X154000002Y-129805468D01*
X154056673Y-129800509D01*
X154226692Y-129785635D01*
X154446496Y-129726739D01*
X154652734Y-129630568D01*
X154839139Y-129500047D01*
X155000047Y-129339139D01*
X155130568Y-129152734D01*
X155226739Y-128946496D01*
X155285635Y-128726692D01*
X155305468Y-128500000D01*
X155285635Y-128273308D01*
X155226739Y-128053504D01*
X155130568Y-127847266D01*
X155000047Y-127660861D01*
X155000045Y-127660858D01*
X154839141Y-127499954D01*
X154652734Y-127369432D01*
X154652732Y-127369431D01*
X154446497Y-127273261D01*
X154446488Y-127273258D01*
X154226697Y-127214366D01*
X154226693Y-127214365D01*
X154226692Y-127214365D01*
X154226691Y-127214364D01*
X154226686Y-127214364D01*
X154000002Y-127194532D01*
X153999998Y-127194532D01*
X153773313Y-127214364D01*
X153773302Y-127214366D01*
X153553511Y-127273258D01*
X153553502Y-127273261D01*
X153347267Y-127369431D01*
X153347265Y-127369432D01*
X153160858Y-127499954D01*
X152999954Y-127660858D01*
X152869432Y-127847265D01*
X152869431Y-127847267D01*
X152773261Y-128053502D01*
X152773258Y-128053511D01*
X152714366Y-128273302D01*
X152714364Y-128273313D01*
X152694532Y-128499998D01*
X152694532Y-128500001D01*
X150304966Y-128500001D01*
X150304966Y-128499997D01*
X150285141Y-128273400D01*
X150285139Y-128273389D01*
X150226269Y-128053682D01*
X150226264Y-128053668D01*
X150130136Y-127847521D01*
X150130132Y-127847513D01*
X150079025Y-127774526D01*
X149397953Y-128455598D01*
X149385165Y-128374852D01*
X149327641Y-128261955D01*
X149238045Y-128172359D01*
X149125148Y-128114835D01*
X149044401Y-128102046D01*
X149725472Y-127420974D01*
X149652478Y-127369863D01*
X149446331Y-127273735D01*
X149446317Y-127273730D01*
X149226610Y-127214860D01*
X149226599Y-127214858D01*
X149000002Y-127195034D01*
X148999998Y-127195034D01*
X148773400Y-127214858D01*
X148773389Y-127214860D01*
X148553682Y-127273730D01*
X148553673Y-127273734D01*
X148347516Y-127369866D01*
X148347512Y-127369868D01*
X148274526Y-127420973D01*
X148274526Y-127420974D01*
X148955599Y-128102046D01*
X148874852Y-128114835D01*
X148761955Y-128172359D01*
X148672359Y-128261955D01*
X148614835Y-128374852D01*
X148602046Y-128455598D01*
X147920974Y-127774526D01*
X147920973Y-127774526D01*
X147869868Y-127847512D01*
X147869866Y-127847516D01*
X147773734Y-128053673D01*
X147773730Y-128053682D01*
X147714860Y-128273389D01*
X147714858Y-128273400D01*
X147695034Y-128499997D01*
X147695034Y-128500002D01*
X145047331Y-128500002D01*
X145576928Y-127970405D01*
X145638249Y-127936922D01*
X145696698Y-127938312D01*
X145873308Y-127985635D01*
X146035230Y-127999801D01*
X146099998Y-128005468D01*
X146100000Y-128005468D01*
X146100002Y-128005468D01*
X146156673Y-128000509D01*
X146326692Y-127985635D01*
X146546496Y-127926739D01*
X146752734Y-127830568D01*
X146939139Y-127700047D01*
X147100047Y-127539139D01*
X147230568Y-127352734D01*
X147326739Y-127146496D01*
X147385635Y-126926692D01*
X147405468Y-126700000D01*
X147385635Y-126473308D01*
X147326739Y-126253504D01*
X147249051Y-126086904D01*
X147238560Y-126017827D01*
X147267080Y-125954043D01*
X147325556Y-125915804D01*
X147361434Y-125910500D01*
X148306013Y-125910500D01*
X148322197Y-125911560D01*
X148353500Y-125915682D01*
X148353501Y-125915682D01*
X148405754Y-125908802D01*
X148510262Y-125895044D01*
X148656341Y-125834536D01*
X148781782Y-125738282D01*
X148801010Y-125713222D01*
X148811689Y-125701044D01*
X149164863Y-125347870D01*
X153944388Y-125347870D01*
X153944389Y-125347876D01*
X153950796Y-125407483D01*
X154001090Y-125542328D01*
X154001094Y-125542335D01*
X154087340Y-125657544D01*
X154087343Y-125657547D01*
X154202552Y-125743793D01*
X154202559Y-125743797D01*
X154337405Y-125794091D01*
X154337404Y-125794091D01*
X154344332Y-125794835D01*
X154397015Y-125800500D01*
X156092760Y-125800499D01*
X156152371Y-125794091D01*
X156287219Y-125743796D01*
X156402434Y-125657546D01*
X156409238Y-125648455D01*
X156465168Y-125606584D01*
X156534859Y-125601597D01*
X156579628Y-125621188D01*
X156592400Y-125630130D01*
X156592406Y-125630134D01*
X156798561Y-125726265D01*
X156798570Y-125726269D01*
X157018277Y-125785139D01*
X157018288Y-125785141D01*
X157244886Y-125804966D01*
X157244890Y-125804966D01*
X157471487Y-125785141D01*
X157471498Y-125785139D01*
X157691205Y-125726269D01*
X157691219Y-125726264D01*
X157897366Y-125630136D01*
X157970359Y-125579024D01*
X157289288Y-124897953D01*
X157370036Y-124885165D01*
X157482933Y-124827641D01*
X157572529Y-124738045D01*
X157630053Y-124625148D01*
X157642841Y-124544400D01*
X158323912Y-125225471D01*
X158375024Y-125152478D01*
X158471152Y-124946331D01*
X158471157Y-124946317D01*
X158530027Y-124726610D01*
X158530029Y-124726599D01*
X158549854Y-124500002D01*
X158549854Y-124499997D01*
X158530029Y-124273400D01*
X158530027Y-124273389D01*
X158471157Y-124053682D01*
X158471152Y-124053668D01*
X158375024Y-123847521D01*
X158375020Y-123847513D01*
X158323913Y-123774526D01*
X157642841Y-124455598D01*
X157630053Y-124374852D01*
X157572529Y-124261955D01*
X157482933Y-124172359D01*
X157370036Y-124114835D01*
X157289288Y-124102046D01*
X157970360Y-123420974D01*
X157897366Y-123369863D01*
X157691219Y-123273735D01*
X157691205Y-123273730D01*
X157471498Y-123214860D01*
X157471487Y-123214858D01*
X157244890Y-123195034D01*
X157244886Y-123195034D01*
X157018288Y-123214858D01*
X157018277Y-123214860D01*
X156798570Y-123273730D01*
X156798561Y-123273734D01*
X156592400Y-123369868D01*
X156592395Y-123369871D01*
X156579624Y-123378813D01*
X156513417Y-123401138D01*
X156445651Y-123384124D01*
X156409240Y-123351546D01*
X156402434Y-123342454D01*
X156402432Y-123342453D01*
X156402432Y-123342452D01*
X156287223Y-123256206D01*
X156287216Y-123256202D01*
X156152370Y-123205908D01*
X156152371Y-123205908D01*
X156092771Y-123199501D01*
X156092769Y-123199500D01*
X156092761Y-123199500D01*
X156092752Y-123199500D01*
X154397017Y-123199500D01*
X154397011Y-123199501D01*
X154337404Y-123205908D01*
X154202559Y-123256202D01*
X154202552Y-123256206D01*
X154087343Y-123342452D01*
X154087340Y-123342455D01*
X154001094Y-123457664D01*
X154001090Y-123457671D01*
X153950796Y-123592517D01*
X153944389Y-123652116D01*
X153944388Y-123652135D01*
X153944388Y-125347870D01*
X149164863Y-125347870D01*
X153475916Y-121036819D01*
X153537239Y-121003334D01*
X153563597Y-121000500D01*
X155778308Y-121000500D01*
X155845347Y-121020185D01*
X155879880Y-121053374D01*
X155931252Y-121126741D01*
X156009954Y-121239141D01*
X156170858Y-121400045D01*
X156170861Y-121400047D01*
X156357266Y-121530568D01*
X156563504Y-121626739D01*
X156783308Y-121685635D01*
X156945230Y-121699801D01*
X157009998Y-121705468D01*
X157010000Y-121705468D01*
X157010002Y-121705468D01*
X157072511Y-121699999D01*
X157236692Y-121685635D01*
X157456496Y-121626739D01*
X157662734Y-121530568D01*
X157849139Y-121400047D01*
X158010047Y-121239139D01*
X158140568Y-121052734D01*
X158236739Y-120846496D01*
X158295635Y-120626692D01*
X158315468Y-120400000D01*
X158295635Y-120173308D01*
X158236739Y-119953504D01*
X158140568Y-119747266D01*
X158010047Y-119560861D01*
X158010045Y-119560858D01*
X157849141Y-119399954D01*
X157662734Y-119269432D01*
X157662732Y-119269431D01*
X157456497Y-119173261D01*
X157456490Y-119173259D01*
X157283476Y-119126900D01*
X157223816Y-119090535D01*
X157193287Y-119027688D01*
X157201582Y-118958312D01*
X157227886Y-118919447D01*
X157251020Y-118896313D01*
X157306605Y-118864222D01*
X157400218Y-118839139D01*
X157446486Y-118826742D01*
X157446489Y-118826740D01*
X157446496Y-118826739D01*
X157652734Y-118730568D01*
X157839139Y-118600047D01*
X158000047Y-118439139D01*
X158130568Y-118252734D01*
X158226739Y-118046496D01*
X158285635Y-117826692D01*
X158303839Y-117618616D01*
X158305468Y-117600001D01*
X158305468Y-117599998D01*
X158294245Y-117471718D01*
X158285635Y-117373308D01*
X158228710Y-117160861D01*
X158226741Y-117153511D01*
X158226738Y-117153502D01*
X158225972Y-117151859D01*
X158130568Y-116947266D01*
X158010742Y-116776135D01*
X158000045Y-116760858D01*
X157839141Y-116599954D01*
X157652734Y-116469432D01*
X157652732Y-116469431D01*
X157446497Y-116373261D01*
X157446488Y-116373258D01*
X157363780Y-116351097D01*
X157304119Y-116314732D01*
X157273590Y-116251885D01*
X157281885Y-116182509D01*
X157308189Y-116143644D01*
X157401043Y-116050790D01*
X157413223Y-116040109D01*
X157438282Y-116020882D01*
X157534536Y-115895441D01*
X157570034Y-115809737D01*
X157613872Y-115755337D01*
X157632188Y-115744811D01*
X157662734Y-115730568D01*
X157849139Y-115600047D01*
X158010047Y-115439139D01*
X158140568Y-115252734D01*
X158236739Y-115046496D01*
X158295635Y-114826692D01*
X158315468Y-114600000D01*
X158295635Y-114373308D01*
X158236739Y-114153504D01*
X158140568Y-113947266D01*
X158042839Y-113807693D01*
X158010045Y-113760858D01*
X157849141Y-113599954D01*
X157662734Y-113469432D01*
X157662732Y-113469431D01*
X157456497Y-113373261D01*
X157456488Y-113373258D01*
X157236697Y-113314366D01*
X157236693Y-113314365D01*
X157236692Y-113314365D01*
X157236691Y-113314364D01*
X157236686Y-113314364D01*
X157010002Y-113294532D01*
X157009998Y-113294532D01*
X156783313Y-113314364D01*
X156783302Y-113314366D01*
X156563511Y-113373258D01*
X156563502Y-113373261D01*
X156357267Y-113469431D01*
X156357265Y-113469432D01*
X156170858Y-113599954D01*
X156009954Y-113760858D01*
X155879432Y-113947265D01*
X155879431Y-113947267D01*
X155783261Y-114153502D01*
X155783258Y-114153511D01*
X155724366Y-114373302D01*
X155724364Y-114373313D01*
X155704532Y-114599998D01*
X155704532Y-114600001D01*
X155724364Y-114826686D01*
X155724366Y-114826697D01*
X155783258Y-115046488D01*
X155783261Y-115046497D01*
X155879431Y-115252732D01*
X155879432Y-115252734D01*
X156009954Y-115439141D01*
X156074407Y-115503594D01*
X156107892Y-115564917D01*
X156102908Y-115634609D01*
X156074407Y-115678956D01*
X154790184Y-116963181D01*
X154728861Y-116996666D01*
X154702503Y-116999500D01*
X150804499Y-116999500D01*
X150737460Y-116979815D01*
X150691705Y-116927011D01*
X150680499Y-116875500D01*
X150680499Y-116752129D01*
X150680498Y-116752123D01*
X150680497Y-116752116D01*
X150674091Y-116692517D01*
X150669903Y-116681289D01*
X150623797Y-116557671D01*
X150623793Y-116557664D01*
X150537547Y-116442455D01*
X150537544Y-116442452D01*
X150422335Y-116356206D01*
X150422328Y-116356202D01*
X150287482Y-116305908D01*
X150287483Y-116305908D01*
X150227883Y-116299501D01*
X150227881Y-116299500D01*
X150227873Y-116299500D01*
X150227864Y-116299500D01*
X148532129Y-116299500D01*
X148532123Y-116299501D01*
X148472516Y-116305908D01*
X148337671Y-116356202D01*
X148337664Y-116356206D01*
X148222455Y-116442452D01*
X148222452Y-116442455D01*
X148136206Y-116557664D01*
X148136202Y-116557671D01*
X148085908Y-116692517D01*
X148079501Y-116752116D01*
X148079500Y-116752127D01*
X148079500Y-117375464D01*
X148079501Y-117977400D01*
X148059816Y-118044439D01*
X148007013Y-118090194D01*
X147955501Y-118101400D01*
X144060397Y-118101400D01*
X143993358Y-118081715D01*
X143972716Y-118065081D01*
X142019815Y-116112180D01*
X141986330Y-116050857D01*
X141991314Y-115981165D01*
X142033186Y-115925232D01*
X142098650Y-115900815D01*
X142107496Y-115900499D01*
X143447871Y-115900499D01*
X143447872Y-115900499D01*
X143507483Y-115894091D01*
X143642331Y-115843796D01*
X143757546Y-115757546D01*
X143764350Y-115748455D01*
X143820280Y-115706584D01*
X143889971Y-115701597D01*
X143934740Y-115721188D01*
X143947512Y-115730130D01*
X143947518Y-115730134D01*
X144153673Y-115826265D01*
X144153682Y-115826269D01*
X144373389Y-115885139D01*
X144373400Y-115885141D01*
X144599998Y-115904966D01*
X144600002Y-115904966D01*
X144826599Y-115885141D01*
X144826610Y-115885139D01*
X145046317Y-115826269D01*
X145046331Y-115826264D01*
X145252478Y-115730136D01*
X145325471Y-115679024D01*
X144644400Y-114997953D01*
X144725148Y-114985165D01*
X144838045Y-114927641D01*
X144927641Y-114838045D01*
X144985165Y-114725148D01*
X144997953Y-114644400D01*
X145679024Y-115325471D01*
X145730136Y-115252478D01*
X145826264Y-115046331D01*
X145826269Y-115046317D01*
X145885139Y-114826610D01*
X145885141Y-114826599D01*
X145904966Y-114600002D01*
X145904966Y-114599997D01*
X145885141Y-114373400D01*
X145885139Y-114373389D01*
X145826269Y-114153682D01*
X145826264Y-114153668D01*
X145730136Y-113947521D01*
X145730132Y-113947513D01*
X145679025Y-113874526D01*
X144997953Y-114555598D01*
X144985165Y-114474852D01*
X144927641Y-114361955D01*
X144838045Y-114272359D01*
X144725148Y-114214835D01*
X144644400Y-114202046D01*
X145325472Y-113520974D01*
X145252478Y-113469863D01*
X145046331Y-113373735D01*
X145046317Y-113373730D01*
X144826610Y-113314860D01*
X144826599Y-113314858D01*
X144600002Y-113295034D01*
X144599998Y-113295034D01*
X144373400Y-113314858D01*
X144373389Y-113314860D01*
X144153682Y-113373730D01*
X144153673Y-113373734D01*
X143947512Y-113469868D01*
X143947507Y-113469871D01*
X143934736Y-113478813D01*
X143868529Y-113501138D01*
X143800763Y-113484124D01*
X143764352Y-113451546D01*
X143757546Y-113442454D01*
X143757544Y-113442453D01*
X143757544Y-113442452D01*
X143642335Y-113356206D01*
X143642328Y-113356202D01*
X143507482Y-113305908D01*
X143507483Y-113305908D01*
X143447883Y-113299501D01*
X143447881Y-113299500D01*
X143447873Y-113299500D01*
X143447864Y-113299500D01*
X141752129Y-113299500D01*
X141752123Y-113299501D01*
X141692516Y-113305908D01*
X141557671Y-113356202D01*
X141557664Y-113356206D01*
X141442455Y-113442452D01*
X141442452Y-113442455D01*
X141356206Y-113557664D01*
X141356202Y-113557671D01*
X141305908Y-113692517D01*
X141299501Y-113752116D01*
X141299500Y-113752135D01*
X141299500Y-115092503D01*
X141279815Y-115159542D01*
X141227011Y-115205297D01*
X141157853Y-115215241D01*
X141094297Y-115186216D01*
X141087819Y-115180184D01*
X138995251Y-113087616D01*
X138961766Y-113026293D01*
X138966750Y-112956601D01*
X139008622Y-112900668D01*
X139030520Y-112887557D01*
X139152734Y-112830568D01*
X139339139Y-112700047D01*
X139500047Y-112539139D01*
X139630568Y-112352734D01*
X139726739Y-112146496D01*
X139785635Y-111926692D01*
X139805468Y-111700000D01*
X139785635Y-111473308D01*
X139732047Y-111273313D01*
X139726741Y-111253511D01*
X139726738Y-111253502D01*
X139717886Y-111234518D01*
X139630568Y-111047266D01*
X139547253Y-110928279D01*
X139496942Y-110856426D01*
X139498554Y-110855297D01*
X139474002Y-110799202D01*
X139485039Y-110730209D01*
X139531624Y-110678136D01*
X139597004Y-110659500D01*
X145258903Y-110659500D01*
X145325942Y-110679185D01*
X145346584Y-110695819D01*
X147696799Y-113046034D01*
X147707493Y-113058228D01*
X147726715Y-113083279D01*
X147726716Y-113083280D01*
X147726718Y-113083282D01*
X147852159Y-113179536D01*
X147998238Y-113240044D01*
X148076619Y-113250363D01*
X148154999Y-113260682D01*
X148155000Y-113260682D01*
X148186302Y-113256560D01*
X148202487Y-113255500D01*
X148649515Y-113255500D01*
X148716554Y-113275185D01*
X148762309Y-113327989D01*
X148772253Y-113397147D01*
X148743228Y-113460703D01*
X148720638Y-113481075D01*
X148550858Y-113599954D01*
X148389954Y-113760858D01*
X148259432Y-113947265D01*
X148259431Y-113947267D01*
X148163261Y-114153502D01*
X148163258Y-114153511D01*
X148104366Y-114373302D01*
X148104364Y-114373313D01*
X148084532Y-114599998D01*
X148084532Y-114600001D01*
X148104364Y-114826686D01*
X148104366Y-114826697D01*
X148163258Y-115046488D01*
X148163261Y-115046497D01*
X148259431Y-115252732D01*
X148259432Y-115252734D01*
X148389954Y-115439141D01*
X148550858Y-115600045D01*
X148550861Y-115600047D01*
X148737266Y-115730568D01*
X148943504Y-115826739D01*
X149163308Y-115885635D01*
X149325230Y-115899801D01*
X149389998Y-115905468D01*
X149390000Y-115905468D01*
X149390002Y-115905468D01*
X149446807Y-115900498D01*
X149616692Y-115885635D01*
X149836496Y-115826739D01*
X150042734Y-115730568D01*
X150229139Y-115600047D01*
X150390047Y-115439139D01*
X150520568Y-115252734D01*
X150616739Y-115046496D01*
X150675635Y-114826692D01*
X150695468Y-114600000D01*
X150675635Y-114373308D01*
X150616739Y-114153504D01*
X150520568Y-113947266D01*
X150422839Y-113807693D01*
X150390045Y-113760858D01*
X150229141Y-113599954D01*
X150079822Y-113495401D01*
X150059361Y-113481074D01*
X150015737Y-113426499D01*
X150008543Y-113357000D01*
X150040065Y-113294645D01*
X150100295Y-113259231D01*
X150130485Y-113255500D01*
X151354903Y-113255500D01*
X151421942Y-113275185D01*
X151442584Y-113291819D01*
X153569298Y-115418533D01*
X153602783Y-115479856D01*
X153604837Y-115492330D01*
X153614630Y-115579249D01*
X153674210Y-115749521D01*
X153731890Y-115841318D01*
X153770184Y-115902262D01*
X153897738Y-116029816D01*
X154050478Y-116125789D01*
X154212574Y-116182509D01*
X154220745Y-116185368D01*
X154220750Y-116185369D01*
X154399996Y-116205565D01*
X154400000Y-116205565D01*
X154400004Y-116205565D01*
X154579249Y-116185369D01*
X154579252Y-116185368D01*
X154579255Y-116185368D01*
X154749522Y-116125789D01*
X154902262Y-116029816D01*
X155029816Y-115902262D01*
X155125789Y-115749522D01*
X155185368Y-115579255D01*
X155185369Y-115579249D01*
X155205565Y-115400003D01*
X155205565Y-115399996D01*
X155185369Y-115220750D01*
X155185368Y-115220745D01*
X155182686Y-115213080D01*
X155125789Y-115050478D01*
X155123771Y-115047267D01*
X155063992Y-114952129D01*
X155029816Y-114897738D01*
X154902262Y-114770184D01*
X154790492Y-114699954D01*
X154749521Y-114674210D01*
X154579249Y-114614630D01*
X154492330Y-114604837D01*
X154427916Y-114577770D01*
X154418533Y-114569298D01*
X152113199Y-112263964D01*
X152102503Y-112251767D01*
X152083286Y-112226722D01*
X152083283Y-112226720D01*
X152083282Y-112226718D01*
X151957841Y-112130464D01*
X151811762Y-112069956D01*
X151811760Y-112069955D01*
X151694361Y-112054500D01*
X151655000Y-112049318D01*
X151623697Y-112053439D01*
X151607513Y-112054500D01*
X150474049Y-112054500D01*
X150407010Y-112034815D01*
X150361255Y-111982011D01*
X150351311Y-111912853D01*
X150380336Y-111849297D01*
X150386368Y-111842819D01*
X150390045Y-111839141D01*
X150390047Y-111839139D01*
X150520568Y-111652734D01*
X150616739Y-111446496D01*
X150675635Y-111226692D01*
X150695468Y-111000000D01*
X150675635Y-110773308D01*
X150618710Y-110560861D01*
X150616741Y-110553511D01*
X150616738Y-110553502D01*
X150591768Y-110499954D01*
X150520568Y-110347266D01*
X150421079Y-110205179D01*
X150390045Y-110160858D01*
X150229141Y-109999954D01*
X150042734Y-109869432D01*
X150042732Y-109869431D01*
X149836497Y-109773261D01*
X149836488Y-109773258D01*
X149616697Y-109714366D01*
X149616693Y-109714365D01*
X149616692Y-109714365D01*
X149616691Y-109714364D01*
X149616686Y-109714364D01*
X149390002Y-109694532D01*
X149389998Y-109694532D01*
X149163313Y-109714364D01*
X149163302Y-109714366D01*
X148943511Y-109773258D01*
X148943502Y-109773262D01*
X148854009Y-109814992D01*
X148784932Y-109825483D01*
X148721148Y-109796962D01*
X148713925Y-109790290D01*
X148632599Y-109708964D01*
X148621904Y-109696769D01*
X148602683Y-109671719D01*
X148602682Y-109671718D01*
X148477241Y-109575464D01*
X148378258Y-109534464D01*
X148331162Y-109514956D01*
X148331160Y-109514955D01*
X148213761Y-109499500D01*
X148174400Y-109494318D01*
X148143097Y-109498439D01*
X148126913Y-109499500D01*
X147482412Y-109499500D01*
X147415373Y-109479815D01*
X147405097Y-109472445D01*
X147402263Y-109470185D01*
X147402262Y-109470184D01*
X147268302Y-109386011D01*
X147249523Y-109374211D01*
X147079254Y-109314631D01*
X147079249Y-109314630D01*
X146900004Y-109294435D01*
X146899996Y-109294435D01*
X146720750Y-109314630D01*
X146720745Y-109314631D01*
X146550476Y-109374211D01*
X146397737Y-109470184D01*
X146270184Y-109597737D01*
X146228190Y-109664571D01*
X146175855Y-109710862D01*
X146106801Y-109721510D01*
X146042953Y-109693135D01*
X146035515Y-109686280D01*
X146017199Y-109667964D01*
X146006504Y-109655769D01*
X145987283Y-109630719D01*
X145987282Y-109630718D01*
X145861841Y-109534464D01*
X145715762Y-109473956D01*
X145715760Y-109473955D01*
X145598361Y-109458500D01*
X145559000Y-109453318D01*
X145527697Y-109457439D01*
X145511513Y-109458500D01*
X142690097Y-109458500D01*
X142623058Y-109438815D01*
X142577303Y-109386011D01*
X142567359Y-109316853D01*
X142596384Y-109253297D01*
X142602416Y-109246819D01*
X142739380Y-109109854D01*
X143458219Y-108391014D01*
X143507742Y-108361177D01*
X143507703Y-108361076D01*
X143508297Y-108360842D01*
X143509357Y-108360203D01*
X143512013Y-108359385D01*
X143512017Y-108359382D01*
X143512020Y-108359382D01*
X143623244Y-108305819D01*
X143737592Y-108250752D01*
X143944460Y-108109712D01*
X144127997Y-107939414D01*
X144284102Y-107743665D01*
X144409289Y-107526835D01*
X144455967Y-107407897D01*
X144483711Y-107365522D01*
X144552450Y-107296785D01*
X144624536Y-107202841D01*
X144685044Y-107056762D01*
X144700266Y-106941138D01*
X144705682Y-106900001D01*
X144705682Y-106899998D01*
X144685044Y-106743239D01*
X144685042Y-106743234D01*
X144624538Y-106597163D01*
X144624535Y-106597158D01*
X144559359Y-106512218D01*
X144536844Y-106464324D01*
X144500760Y-106306228D01*
X144407969Y-106069802D01*
X144401800Y-106000206D01*
X144434238Y-105938322D01*
X144494983Y-105903799D01*
X144523397Y-105900500D01*
X146276603Y-105900500D01*
X146343642Y-105920185D01*
X146389397Y-105972989D01*
X146399341Y-106042147D01*
X146392031Y-106069802D01*
X146299242Y-106306225D01*
X146299236Y-106306244D01*
X146243525Y-106550331D01*
X146243524Y-106550336D01*
X146224816Y-106799995D01*
X146224816Y-106800004D01*
X146243524Y-107049663D01*
X146243525Y-107049668D01*
X146299236Y-107293755D01*
X146299238Y-107293764D01*
X146299240Y-107293769D01*
X146390711Y-107526835D01*
X146515898Y-107743665D01*
X146628575Y-107884957D01*
X146672006Y-107939418D01*
X146830489Y-108086468D01*
X146855540Y-108109712D01*
X147062408Y-108250752D01*
X147062413Y-108250754D01*
X147062414Y-108250755D01*
X147062415Y-108250756D01*
X147143949Y-108290020D01*
X147287983Y-108359383D01*
X147287984Y-108359383D01*
X147287987Y-108359385D01*
X147527236Y-108433184D01*
X147527237Y-108433184D01*
X147527240Y-108433185D01*
X147774805Y-108470499D01*
X147774810Y-108470499D01*
X147774813Y-108470500D01*
X147774814Y-108470500D01*
X148025186Y-108470500D01*
X148025187Y-108470500D01*
X148025194Y-108470499D01*
X148272759Y-108433185D01*
X148272760Y-108433184D01*
X148272764Y-108433184D01*
X148512013Y-108359385D01*
X148737592Y-108250752D01*
X148944460Y-108109712D01*
X149127997Y-107939414D01*
X149284102Y-107743665D01*
X149409289Y-107526835D01*
X149427985Y-107479195D01*
X149470800Y-107423984D01*
X149536670Y-107400683D01*
X149543413Y-107400500D01*
X151256587Y-107400500D01*
X151323626Y-107420185D01*
X151369381Y-107472989D01*
X151372004Y-107479171D01*
X151390711Y-107526835D01*
X151515898Y-107743665D01*
X151628575Y-107884957D01*
X151672006Y-107939418D01*
X151830489Y-108086468D01*
X151855540Y-108109712D01*
X152062408Y-108250752D01*
X152062413Y-108250754D01*
X152062414Y-108250755D01*
X152062415Y-108250756D01*
X152143949Y-108290020D01*
X152287983Y-108359383D01*
X152287984Y-108359383D01*
X152287987Y-108359385D01*
X152527236Y-108433184D01*
X152527237Y-108433184D01*
X152527240Y-108433185D01*
X152774805Y-108470499D01*
X152774810Y-108470499D01*
X152774813Y-108470500D01*
X152774814Y-108470500D01*
X153025186Y-108470500D01*
X153025187Y-108470500D01*
X153025194Y-108470499D01*
X153272759Y-108433185D01*
X153272760Y-108433184D01*
X153272764Y-108433184D01*
X153512013Y-108359385D01*
X153737592Y-108250752D01*
X153944460Y-108109712D01*
X154127997Y-107939414D01*
X154284102Y-107743665D01*
X154409289Y-107526835D01*
X154500760Y-107293769D01*
X154556474Y-107049673D01*
X154556475Y-107049663D01*
X154575184Y-106800004D01*
X154575184Y-106799995D01*
X154556475Y-106550336D01*
X154556475Y-106550335D01*
X154556474Y-106550331D01*
X154556474Y-106550327D01*
X154524156Y-106408735D01*
X154528429Y-106338999D01*
X154569728Y-106282641D01*
X154634939Y-106257558D01*
X154703360Y-106271712D01*
X154732728Y-106293464D01*
X156373181Y-107933916D01*
X156406666Y-107995239D01*
X156409500Y-108021597D01*
X156409500Y-109768306D01*
X156389815Y-109835345D01*
X156356623Y-109869881D01*
X156170859Y-109999953D01*
X156009954Y-110160858D01*
X155879432Y-110347265D01*
X155879431Y-110347267D01*
X155783261Y-110553502D01*
X155783258Y-110553511D01*
X155724366Y-110773302D01*
X155724364Y-110773313D01*
X155704532Y-110999998D01*
X155704532Y-111000001D01*
X155724364Y-111226686D01*
X155724366Y-111226697D01*
X155783258Y-111446488D01*
X155783261Y-111446497D01*
X155879431Y-111652732D01*
X155879432Y-111652734D01*
X156009954Y-111839141D01*
X156170858Y-112000045D01*
X156170861Y-112000047D01*
X156357266Y-112130568D01*
X156563504Y-112226739D01*
X156563509Y-112226740D01*
X156563511Y-112226741D01*
X156565187Y-112227190D01*
X156783308Y-112285635D01*
X156945230Y-112299801D01*
X157009998Y-112305468D01*
X157010000Y-112305468D01*
X157010002Y-112305468D01*
X157066673Y-112300509D01*
X157236692Y-112285635D01*
X157456496Y-112226739D01*
X157662734Y-112130568D01*
X157849139Y-112000047D01*
X158010047Y-111839139D01*
X158140568Y-111652734D01*
X158236739Y-111446496D01*
X158295635Y-111226692D01*
X158315468Y-111000000D01*
X158295635Y-110773308D01*
X158238710Y-110560861D01*
X158236741Y-110553511D01*
X158236738Y-110553502D01*
X158211768Y-110499954D01*
X158140568Y-110347266D01*
X158041079Y-110205179D01*
X158010045Y-110160858D01*
X157849140Y-109999953D01*
X157663377Y-109869881D01*
X157619752Y-109815304D01*
X157610500Y-109768306D01*
X157610500Y-107768987D01*
X157611561Y-107752801D01*
X157615682Y-107721500D01*
X157615682Y-107721498D01*
X157595818Y-107570616D01*
X157595044Y-107564738D01*
X157534536Y-107418659D01*
X157462450Y-107324715D01*
X157438705Y-107293769D01*
X157438281Y-107293216D01*
X157413229Y-107273994D01*
X157401034Y-107263299D01*
X154616699Y-104478964D01*
X154606003Y-104466767D01*
X154586784Y-104441720D01*
X154586785Y-104441720D01*
X154545071Y-104409712D01*
X154461341Y-104345464D01*
X154461337Y-104345462D01*
X154461336Y-104345461D01*
X154448099Y-104339978D01*
X154393696Y-104296136D01*
X154371633Y-104229841D01*
X154388167Y-104163418D01*
X154409289Y-104126835D01*
X154463164Y-103989563D01*
X154500760Y-103893771D01*
X154532737Y-103753666D01*
X154536844Y-103735671D01*
X154559359Y-103687780D01*
X154624535Y-103602842D01*
X154624534Y-103602842D01*
X154624536Y-103602841D01*
X154685044Y-103456762D01*
X154705682Y-103300000D01*
X154685044Y-103143238D01*
X154624536Y-102997159D01*
X154552450Y-102903215D01*
X154552445Y-102903209D01*
X154483715Y-102834479D01*
X154455968Y-102792101D01*
X154433818Y-102735667D01*
X154409289Y-102673165D01*
X154284102Y-102456335D01*
X154127997Y-102260586D01*
X154127996Y-102260585D01*
X154127993Y-102260581D01*
X153944460Y-102090288D01*
X153737592Y-101949248D01*
X153737588Y-101949246D01*
X153737585Y-101949244D01*
X153737584Y-101949243D01*
X153512013Y-101840615D01*
X153512006Y-101840612D01*
X153509341Y-101839790D01*
X153508275Y-101839148D01*
X153507692Y-101838919D01*
X153507730Y-101838819D01*
X153458218Y-101808983D01*
X153048599Y-101399364D01*
X153037904Y-101387169D01*
X153018683Y-101362119D01*
X153018679Y-101362116D01*
X152893241Y-101265864D01*
X152747162Y-101205356D01*
X152747160Y-101205355D01*
X152629761Y-101189900D01*
X152590400Y-101184718D01*
X152559097Y-101188839D01*
X152542913Y-101189900D01*
X138131687Y-101189900D01*
X138115502Y-101188839D01*
X138084200Y-101184718D01*
X138044839Y-101189900D01*
X137927439Y-101205355D01*
X137927437Y-101205356D01*
X137781357Y-101265864D01*
X137655918Y-101362116D01*
X137636689Y-101387175D01*
X137625998Y-101399365D01*
X134778984Y-104246381D01*
X134717661Y-104279866D01*
X134691303Y-104282700D01*
X134026098Y-104282700D01*
X133959059Y-104263015D01*
X133913304Y-104210211D01*
X133903360Y-104141053D01*
X133932385Y-104077497D01*
X133991163Y-104039723D01*
X133995658Y-104038494D01*
X134188881Y-103989563D01*
X134250578Y-103962500D01*
X134416607Y-103889673D01*
X134624785Y-103753664D01*
X134807738Y-103585244D01*
X134960474Y-103389009D01*
X135078828Y-103170310D01*
X135159571Y-102935114D01*
X135200500Y-102689835D01*
X135200500Y-102441165D01*
X135159571Y-102195886D01*
X135078828Y-101960690D01*
X134960474Y-101741991D01*
X134807738Y-101545756D01*
X134635473Y-101387175D01*
X134624782Y-101377333D01*
X134416606Y-101241326D01*
X134188881Y-101141436D01*
X133947824Y-101080392D01*
X133947813Y-101080390D01*
X133762077Y-101065000D01*
X133762067Y-101065000D01*
X132637933Y-101065000D01*
X132637922Y-101065000D01*
X132452186Y-101080390D01*
X132452175Y-101080392D01*
X132211118Y-101141436D01*
X131983393Y-101241326D01*
X131775217Y-101377333D01*
X131592261Y-101545757D01*
X131439524Y-101741993D01*
X131321172Y-101960688D01*
X131321169Y-101960697D01*
X131240429Y-102195883D01*
X131207415Y-102393734D01*
X131199500Y-102441165D01*
X131199500Y-102689835D01*
X131201113Y-102699500D01*
X131240429Y-102935116D01*
X131321169Y-103170302D01*
X131321172Y-103170311D01*
X131418238Y-103349673D01*
X131439526Y-103389009D01*
X131592262Y-103585244D01*
X131662251Y-103649673D01*
X131775217Y-103753666D01*
X131983393Y-103889673D01*
X132211118Y-103989563D01*
X132404342Y-104038494D01*
X132464498Y-104074034D01*
X132495890Y-104136454D01*
X132488552Y-104205938D01*
X132444813Y-104260423D01*
X132378561Y-104282612D01*
X132373902Y-104282700D01*
X129200098Y-104282700D01*
X129133059Y-104263015D01*
X129087304Y-104210211D01*
X129077360Y-104141053D01*
X129106385Y-104077497D01*
X129165163Y-104039723D01*
X129169658Y-104038494D01*
X129362881Y-103989563D01*
X129424578Y-103962500D01*
X129590607Y-103889673D01*
X129798785Y-103753664D01*
X129981738Y-103585244D01*
X130134474Y-103389009D01*
X130252828Y-103170310D01*
X130333571Y-102935114D01*
X130374500Y-102689835D01*
X130374500Y-102441165D01*
X130333571Y-102195886D01*
X130252828Y-101960690D01*
X130134474Y-101741991D01*
X129981738Y-101545756D01*
X129809473Y-101387175D01*
X129798782Y-101377333D01*
X129590606Y-101241326D01*
X129362881Y-101141436D01*
X129121824Y-101080392D01*
X129121813Y-101080390D01*
X128936077Y-101065000D01*
X128936067Y-101065000D01*
X127811933Y-101065000D01*
X127811922Y-101065000D01*
X127626186Y-101080390D01*
X127626175Y-101080392D01*
X127385118Y-101141436D01*
X127157393Y-101241326D01*
X126949217Y-101377333D01*
X126766261Y-101545757D01*
X126613524Y-101741993D01*
X126495172Y-101960688D01*
X126495169Y-101960697D01*
X126414429Y-102195883D01*
X126381415Y-102393734D01*
X126373500Y-102441165D01*
X126373500Y-102689835D01*
X126375113Y-102699500D01*
X126414429Y-102935116D01*
X126495169Y-103170302D01*
X126495172Y-103170311D01*
X126592238Y-103349673D01*
X126613526Y-103389009D01*
X126766262Y-103585244D01*
X126836251Y-103649673D01*
X126949217Y-103753666D01*
X127157393Y-103889673D01*
X127385118Y-103989563D01*
X127578342Y-104038494D01*
X127638498Y-104074034D01*
X127669890Y-104136454D01*
X127662552Y-104205938D01*
X127618813Y-104260423D01*
X127552561Y-104282612D01*
X127547902Y-104282700D01*
X119864294Y-104282700D01*
X119848108Y-104281639D01*
X119816801Y-104277517D01*
X119816799Y-104277517D01*
X119660038Y-104298155D01*
X119513960Y-104358663D01*
X119388514Y-104454921D01*
X119369295Y-104479969D01*
X119358600Y-104492164D01*
X118326630Y-105524134D01*
X118265307Y-105557619D01*
X118195615Y-105552635D01*
X118169098Y-105538907D01*
X118037592Y-105449248D01*
X118037584Y-105449243D01*
X117812015Y-105340616D01*
X117812017Y-105340616D01*
X117572765Y-105266816D01*
X117572759Y-105266814D01*
X117325194Y-105229500D01*
X117325187Y-105229500D01*
X117074813Y-105229500D01*
X117074805Y-105229500D01*
X116827240Y-105266814D01*
X116827234Y-105266816D01*
X116587983Y-105340616D01*
X116362415Y-105449243D01*
X116362414Y-105449244D01*
X116155539Y-105590288D01*
X115972006Y-105760581D01*
X115815898Y-105956335D01*
X115690711Y-106173164D01*
X115599242Y-106406225D01*
X115599236Y-106406244D01*
X115543525Y-106650331D01*
X115543524Y-106650336D01*
X115524816Y-106899995D01*
X115524816Y-106900004D01*
X115543524Y-107149663D01*
X115543525Y-107149668D01*
X115599236Y-107393755D01*
X115599242Y-107393774D01*
X115690711Y-107626835D01*
X115752005Y-107733000D01*
X115768478Y-107800900D01*
X115745625Y-107866927D01*
X115690704Y-107910118D01*
X115644618Y-107919000D01*
X113755382Y-107919000D01*
X113688343Y-107899315D01*
X113642588Y-107846511D01*
X113632644Y-107777353D01*
X113647995Y-107733000D01*
X113667318Y-107699529D01*
X113709289Y-107626835D01*
X113800760Y-107393769D01*
X113856474Y-107149673D01*
X113856480Y-107149597D01*
X113875184Y-106900004D01*
X113875184Y-106899995D01*
X113856475Y-106650336D01*
X113856474Y-106650331D01*
X113856474Y-106650327D01*
X113800760Y-106406231D01*
X113709289Y-106173165D01*
X113584102Y-105956335D01*
X113427997Y-105760586D01*
X113427996Y-105760585D01*
X113427993Y-105760581D01*
X113244460Y-105590288D01*
X113175085Y-105542989D01*
X113037592Y-105449248D01*
X113037588Y-105449246D01*
X113037585Y-105449244D01*
X113037584Y-105449243D01*
X112812015Y-105340616D01*
X112812017Y-105340616D01*
X112572765Y-105266816D01*
X112572759Y-105266814D01*
X112325194Y-105229500D01*
X112325187Y-105229500D01*
X112074813Y-105229500D01*
X112074805Y-105229500D01*
X111827240Y-105266814D01*
X111827234Y-105266816D01*
X111587983Y-105340616D01*
X111362415Y-105449243D01*
X111362414Y-105449244D01*
X111155539Y-105590288D01*
X110972006Y-105760581D01*
X110815898Y-105956335D01*
X110690711Y-106173164D01*
X110599242Y-106406225D01*
X110599236Y-106406244D01*
X110543525Y-106650331D01*
X110543524Y-106650336D01*
X110524816Y-106899995D01*
X110524816Y-106900004D01*
X110543524Y-107149663D01*
X110543525Y-107149668D01*
X110599236Y-107393755D01*
X110599238Y-107393764D01*
X110599240Y-107393769D01*
X110690711Y-107626835D01*
X110815898Y-107843665D01*
X110936775Y-107995239D01*
X110972006Y-108039418D01*
X111032446Y-108095497D01*
X111068201Y-108155525D01*
X111065826Y-108225355D01*
X111035786Y-108274077D01*
X109138169Y-110171694D01*
X109076846Y-110205179D01*
X109061297Y-110207541D01*
X108983312Y-110214364D01*
X108983302Y-110214366D01*
X108763511Y-110273258D01*
X108763502Y-110273261D01*
X108557267Y-110369431D01*
X108557265Y-110369432D01*
X108370858Y-110499954D01*
X108209954Y-110660858D01*
X108079431Y-110847267D01*
X108078239Y-110849332D01*
X108077477Y-110850057D01*
X108076327Y-110851701D01*
X108075996Y-110851469D01*
X108027664Y-110897539D01*
X107987049Y-110910254D01*
X107951338Y-110914956D01*
X107805260Y-110975463D01*
X107679814Y-111071721D01*
X107660595Y-111096769D01*
X107649900Y-111108964D01*
X104695684Y-114063181D01*
X104634361Y-114096666D01*
X104608003Y-114099500D01*
X102821692Y-114099500D01*
X102754653Y-114079815D01*
X102720119Y-114046625D01*
X102590047Y-113860861D01*
X102590045Y-113860858D01*
X102429141Y-113699954D01*
X102242734Y-113569432D01*
X102242732Y-113569431D01*
X102036497Y-113473261D01*
X102036488Y-113473258D01*
X101816697Y-113414366D01*
X101816693Y-113414365D01*
X101816692Y-113414365D01*
X101816691Y-113414364D01*
X101816686Y-113414364D01*
X101590002Y-113394532D01*
X101589998Y-113394532D01*
X101363313Y-113414364D01*
X101363302Y-113414366D01*
X101143511Y-113473258D01*
X101143502Y-113473261D01*
X100937267Y-113569431D01*
X100937265Y-113569432D01*
X100750858Y-113699954D01*
X100712181Y-113738632D01*
X100650858Y-113772117D01*
X100581166Y-113767133D01*
X100525233Y-113725261D01*
X100500816Y-113659797D01*
X100500500Y-113650951D01*
X100500500Y-112549049D01*
X100520185Y-112482010D01*
X100572989Y-112436255D01*
X100642147Y-112426311D01*
X100705703Y-112455336D01*
X100712181Y-112461368D01*
X100750858Y-112500045D01*
X100750861Y-112500047D01*
X100937266Y-112630568D01*
X101143504Y-112726739D01*
X101363308Y-112785635D01*
X101525230Y-112799801D01*
X101589998Y-112805468D01*
X101590000Y-112805468D01*
X101590002Y-112805468D01*
X101646673Y-112800509D01*
X101816692Y-112785635D01*
X102036496Y-112726739D01*
X102242734Y-112630568D01*
X102429139Y-112500047D01*
X102590047Y-112339139D01*
X102720568Y-112152734D01*
X102816739Y-111946496D01*
X102875635Y-111726692D01*
X102895468Y-111500000D01*
X102875635Y-111273308D01*
X102816739Y-111053504D01*
X102720568Y-110847266D01*
X102608623Y-110687390D01*
X102590045Y-110660858D01*
X102429141Y-110499954D01*
X102242734Y-110369432D01*
X102242732Y-110369431D01*
X102036497Y-110273261D01*
X102036488Y-110273258D01*
X101816697Y-110214366D01*
X101816693Y-110214365D01*
X101816692Y-110214365D01*
X101816691Y-110214364D01*
X101816686Y-110214364D01*
X101590002Y-110194532D01*
X101589998Y-110194532D01*
X101363313Y-110214364D01*
X101363302Y-110214366D01*
X101143511Y-110273258D01*
X101143502Y-110273261D01*
X100937267Y-110369431D01*
X100937265Y-110369432D01*
X100750858Y-110499954D01*
X100712181Y-110538632D01*
X100650858Y-110572117D01*
X100581166Y-110567133D01*
X100525233Y-110525261D01*
X100500816Y-110459797D01*
X100500500Y-110450951D01*
X100500500Y-106900004D01*
X105525317Y-106900004D01*
X105544021Y-107149597D01*
X105544021Y-107149599D01*
X105599714Y-107393607D01*
X105599720Y-107393626D01*
X105691163Y-107626618D01*
X105816311Y-107843381D01*
X105816318Y-107843392D01*
X105854799Y-107891645D01*
X105854800Y-107891645D01*
X106597452Y-107148993D01*
X106607188Y-107178956D01*
X106695186Y-107317619D01*
X106814903Y-107430040D01*
X106949510Y-107504041D01*
X106208403Y-108245148D01*
X106362658Y-108350317D01*
X106362666Y-108350322D01*
X106588167Y-108458916D01*
X106588165Y-108458916D01*
X106827346Y-108532694D01*
X106827352Y-108532696D01*
X107074843Y-108569999D01*
X107074852Y-108570000D01*
X107325148Y-108570000D01*
X107325156Y-108569999D01*
X107572647Y-108532696D01*
X107572653Y-108532694D01*
X107811833Y-108458916D01*
X108037334Y-108350322D01*
X108037344Y-108350315D01*
X108191595Y-108245148D01*
X107447534Y-107501086D01*
X107515629Y-107474126D01*
X107648492Y-107377595D01*
X107753175Y-107251055D01*
X107801631Y-107148079D01*
X108545197Y-107891645D01*
X108545198Y-107891644D01*
X108583690Y-107843379D01*
X108708836Y-107626618D01*
X108800279Y-107393626D01*
X108800285Y-107393607D01*
X108855978Y-107149599D01*
X108855978Y-107149597D01*
X108874683Y-106900004D01*
X108874683Y-106899995D01*
X108855978Y-106650402D01*
X108855978Y-106650400D01*
X108800285Y-106406392D01*
X108800279Y-106406373D01*
X108708836Y-106173381D01*
X108583688Y-105956618D01*
X108583681Y-105956607D01*
X108545199Y-105908354D01*
X108545198Y-105908353D01*
X107802546Y-106651004D01*
X107792812Y-106621044D01*
X107704814Y-106482381D01*
X107585097Y-106369960D01*
X107450488Y-106295957D01*
X108191595Y-105554850D01*
X108037335Y-105449678D01*
X108037334Y-105449677D01*
X107811832Y-105341083D01*
X107811834Y-105341083D01*
X107572653Y-105267305D01*
X107572647Y-105267303D01*
X107325156Y-105230000D01*
X107074843Y-105230000D01*
X106827352Y-105267303D01*
X106827346Y-105267305D01*
X106588166Y-105341083D01*
X106362664Y-105449679D01*
X106362651Y-105449686D01*
X106208403Y-105554849D01*
X106952466Y-106298912D01*
X106884371Y-106325874D01*
X106751508Y-106422405D01*
X106646825Y-106548945D01*
X106598367Y-106651921D01*
X105854800Y-105908354D01*
X105816311Y-105956617D01*
X105691163Y-106173381D01*
X105599720Y-106406373D01*
X105599714Y-106406392D01*
X105544021Y-106650400D01*
X105544021Y-106650402D01*
X105525317Y-106899995D01*
X105525317Y-106900004D01*
X100500500Y-106900004D01*
X100500500Y-103100004D01*
X105524816Y-103100004D01*
X105543524Y-103349663D01*
X105543525Y-103349668D01*
X105599236Y-103593755D01*
X105599238Y-103593764D01*
X105599240Y-103593769D01*
X105690711Y-103826835D01*
X105815898Y-104043665D01*
X105916484Y-104169795D01*
X105972006Y-104239418D01*
X106145264Y-104400177D01*
X106155540Y-104409712D01*
X106362408Y-104550752D01*
X106362413Y-104550754D01*
X106362414Y-104550755D01*
X106362415Y-104550756D01*
X106482218Y-104608449D01*
X106587983Y-104659383D01*
X106587984Y-104659383D01*
X106587987Y-104659385D01*
X106827236Y-104733184D01*
X106827237Y-104733184D01*
X106827240Y-104733185D01*
X107074805Y-104770499D01*
X107074810Y-104770499D01*
X107074813Y-104770500D01*
X107074814Y-104770500D01*
X107325186Y-104770500D01*
X107325187Y-104770500D01*
X107325194Y-104770499D01*
X107572759Y-104733185D01*
X107572760Y-104733184D01*
X107572764Y-104733184D01*
X107812013Y-104659385D01*
X107990264Y-104573543D01*
X108037584Y-104550756D01*
X108037584Y-104550755D01*
X108037592Y-104550752D01*
X108244460Y-104409712D01*
X108405355Y-104260423D01*
X108427993Y-104239418D01*
X108427993Y-104239416D01*
X108427997Y-104239414D01*
X108584102Y-104043665D01*
X108709289Y-103826835D01*
X108800760Y-103593769D01*
X108856474Y-103349673D01*
X108856475Y-103349663D01*
X108875184Y-103100004D01*
X110524816Y-103100004D01*
X110543524Y-103349663D01*
X110543525Y-103349668D01*
X110599236Y-103593755D01*
X110599238Y-103593764D01*
X110599240Y-103593769D01*
X110690711Y-103826835D01*
X110815898Y-104043665D01*
X110916484Y-104169795D01*
X110972006Y-104239418D01*
X111145264Y-104400177D01*
X111155540Y-104409712D01*
X111362408Y-104550752D01*
X111362413Y-104550754D01*
X111362414Y-104550755D01*
X111362415Y-104550756D01*
X111482218Y-104608449D01*
X111587983Y-104659383D01*
X111587984Y-104659383D01*
X111587987Y-104659385D01*
X111827236Y-104733184D01*
X111827237Y-104733184D01*
X111827240Y-104733185D01*
X112074805Y-104770499D01*
X112074810Y-104770499D01*
X112074813Y-104770500D01*
X112074814Y-104770500D01*
X112325186Y-104770500D01*
X112325187Y-104770500D01*
X112325194Y-104770499D01*
X112572759Y-104733185D01*
X112572760Y-104733184D01*
X112572764Y-104733184D01*
X112812013Y-104659385D01*
X112990264Y-104573543D01*
X113037584Y-104550756D01*
X113037584Y-104550755D01*
X113037592Y-104550752D01*
X113244460Y-104409712D01*
X113405355Y-104260423D01*
X113427993Y-104239418D01*
X113427993Y-104239416D01*
X113427997Y-104239414D01*
X113584102Y-104043665D01*
X113630962Y-103962499D01*
X113681528Y-103914285D01*
X113738349Y-103900500D01*
X115661651Y-103900500D01*
X115728690Y-103920185D01*
X115769036Y-103962498D01*
X115815898Y-104043665D01*
X115916484Y-104169795D01*
X115972006Y-104239418D01*
X116145264Y-104400177D01*
X116155540Y-104409712D01*
X116362408Y-104550752D01*
X116362413Y-104550754D01*
X116362414Y-104550755D01*
X116362415Y-104550756D01*
X116482218Y-104608449D01*
X116587983Y-104659383D01*
X116587984Y-104659383D01*
X116587987Y-104659385D01*
X116827236Y-104733184D01*
X116827237Y-104733184D01*
X116827240Y-104733185D01*
X117074805Y-104770499D01*
X117074810Y-104770499D01*
X117074813Y-104770500D01*
X117074814Y-104770500D01*
X117325186Y-104770500D01*
X117325187Y-104770500D01*
X117325194Y-104770499D01*
X117572759Y-104733185D01*
X117572760Y-104733184D01*
X117572764Y-104733184D01*
X117812013Y-104659385D01*
X117990264Y-104573543D01*
X118037584Y-104550756D01*
X118037584Y-104550755D01*
X118037592Y-104550752D01*
X118244460Y-104409712D01*
X118405355Y-104260423D01*
X118427993Y-104239418D01*
X118427993Y-104239416D01*
X118427997Y-104239414D01*
X118584102Y-104043665D01*
X118709289Y-103826835D01*
X118800760Y-103593769D01*
X118856474Y-103349673D01*
X118856475Y-103349663D01*
X118875184Y-103100004D01*
X118875184Y-103099995D01*
X118856475Y-102850336D01*
X118856474Y-102850331D01*
X118856474Y-102850327D01*
X118800760Y-102606231D01*
X118709289Y-102373165D01*
X118584102Y-102156335D01*
X118427997Y-101960586D01*
X118427996Y-101960585D01*
X118427993Y-101960581D01*
X118244460Y-101790288D01*
X118173621Y-101741991D01*
X118037592Y-101649248D01*
X118037588Y-101649246D01*
X118037585Y-101649244D01*
X118037584Y-101649243D01*
X117812015Y-101540616D01*
X117812017Y-101540616D01*
X117572765Y-101466816D01*
X117572759Y-101466814D01*
X117325194Y-101429500D01*
X117325187Y-101429500D01*
X117074813Y-101429500D01*
X117074805Y-101429500D01*
X116827240Y-101466814D01*
X116827234Y-101466816D01*
X116587983Y-101540616D01*
X116362415Y-101649243D01*
X116362414Y-101649244D01*
X116155539Y-101790288D01*
X115972006Y-101960581D01*
X115815898Y-102156335D01*
X115690711Y-102373164D01*
X115599238Y-102606231D01*
X115597872Y-102610663D01*
X115596035Y-102610096D01*
X115565854Y-102664064D01*
X115504196Y-102696927D01*
X115479065Y-102699500D01*
X113920935Y-102699500D01*
X113853896Y-102679815D01*
X113808141Y-102627011D01*
X113802562Y-102610529D01*
X113802128Y-102610663D01*
X113800761Y-102606231D01*
X113723975Y-102410585D01*
X113709289Y-102373165D01*
X113709288Y-102373164D01*
X113709289Y-102373164D01*
X113644291Y-102260586D01*
X113584102Y-102156335D01*
X113427997Y-101960586D01*
X113427996Y-101960585D01*
X113427993Y-101960581D01*
X113244460Y-101790288D01*
X113173621Y-101741991D01*
X113037592Y-101649248D01*
X113037588Y-101649246D01*
X113037585Y-101649244D01*
X113037584Y-101649243D01*
X112812015Y-101540616D01*
X112812017Y-101540616D01*
X112572765Y-101466816D01*
X112572759Y-101466814D01*
X112325194Y-101429500D01*
X112325187Y-101429500D01*
X112074813Y-101429500D01*
X112074805Y-101429500D01*
X111827240Y-101466814D01*
X111827234Y-101466816D01*
X111587983Y-101540616D01*
X111362415Y-101649243D01*
X111362414Y-101649244D01*
X111155539Y-101790288D01*
X110972006Y-101960581D01*
X110815898Y-102156335D01*
X110690711Y-102373164D01*
X110599242Y-102606225D01*
X110599236Y-102606244D01*
X110543525Y-102850331D01*
X110543524Y-102850336D01*
X110524816Y-103099995D01*
X110524816Y-103100004D01*
X108875184Y-103100004D01*
X108875184Y-103099995D01*
X108856475Y-102850336D01*
X108856474Y-102850331D01*
X108856474Y-102850327D01*
X108800760Y-102606231D01*
X108709289Y-102373165D01*
X108584102Y-102156335D01*
X108427997Y-101960586D01*
X108427996Y-101960585D01*
X108427993Y-101960581D01*
X108244460Y-101790288D01*
X108173621Y-101741991D01*
X108037592Y-101649248D01*
X108037588Y-101649246D01*
X108037585Y-101649244D01*
X108037584Y-101649243D01*
X107812015Y-101540616D01*
X107812017Y-101540616D01*
X107572765Y-101466816D01*
X107572759Y-101466814D01*
X107325194Y-101429500D01*
X107325187Y-101429500D01*
X107074813Y-101429500D01*
X107074805Y-101429500D01*
X106827240Y-101466814D01*
X106827234Y-101466816D01*
X106587983Y-101540616D01*
X106362415Y-101649243D01*
X106362414Y-101649244D01*
X106155539Y-101790288D01*
X105972006Y-101960581D01*
X105815898Y-102156335D01*
X105690711Y-102373164D01*
X105599242Y-102606225D01*
X105599236Y-102606244D01*
X105543525Y-102850331D01*
X105543524Y-102850336D01*
X105524816Y-103099995D01*
X105524816Y-103100004D01*
X100500500Y-103100004D01*
X100500500Y-100624500D01*
X100520185Y-100557461D01*
X100572989Y-100511706D01*
X100624500Y-100500500D01*
X158675500Y-100500500D01*
X158742539Y-100520185D01*
G37*
%TD.AperFunction*%
%TA.AperFunction,Conductor*%
G36*
X123886100Y-122715937D02*
G01*
X123901055Y-122728690D01*
X126887647Y-125715282D01*
X126921132Y-125776605D01*
X126916148Y-125846297D01*
X126874276Y-125902230D01*
X126832059Y-125922738D01*
X126643511Y-125973258D01*
X126643502Y-125973261D01*
X126437267Y-126069431D01*
X126437265Y-126069432D01*
X126250858Y-126199954D01*
X126089954Y-126360858D01*
X126013450Y-126470118D01*
X125959881Y-126546624D01*
X125905307Y-126590248D01*
X125858308Y-126599500D01*
X124300097Y-126599500D01*
X124233058Y-126579815D01*
X124212416Y-126563181D01*
X123691941Y-126042706D01*
X123658456Y-125981383D01*
X123659847Y-125922931D01*
X123661757Y-125915804D01*
X123685635Y-125826692D01*
X123705468Y-125600000D01*
X123703011Y-125571922D01*
X123694590Y-125475663D01*
X123685635Y-125373308D01*
X123626739Y-125153504D01*
X123530568Y-124947266D01*
X123400047Y-124760861D01*
X123400045Y-124760858D01*
X123239141Y-124599954D01*
X123052734Y-124469432D01*
X123052732Y-124469431D01*
X122929799Y-124412106D01*
X122877360Y-124365933D01*
X122858208Y-124298740D01*
X122878424Y-124231859D01*
X122929800Y-124187342D01*
X123052478Y-124130136D01*
X123125471Y-124079024D01*
X122444400Y-123397953D01*
X122525148Y-123385165D01*
X122638045Y-123327641D01*
X122727641Y-123238045D01*
X122785165Y-123125148D01*
X122797953Y-123044400D01*
X123479024Y-123725471D01*
X123530136Y-123652478D01*
X123626264Y-123446331D01*
X123626269Y-123446317D01*
X123685139Y-123226610D01*
X123685141Y-123226599D01*
X123704966Y-123000002D01*
X123704966Y-122999998D01*
X123689846Y-122827178D01*
X123703613Y-122758678D01*
X123752228Y-122708495D01*
X123820256Y-122692562D01*
X123886100Y-122715937D01*
G37*
%TD.AperFunction*%
%TA.AperFunction,Conductor*%
G36*
X108207407Y-118752440D02*
G01*
X108251754Y-118780941D01*
X108370858Y-118900045D01*
X108370861Y-118900047D01*
X108557266Y-119030568D01*
X108763504Y-119126739D01*
X108763509Y-119126740D01*
X108763511Y-119126741D01*
X108777790Y-119130567D01*
X108983308Y-119185635D01*
X109145230Y-119199801D01*
X109209998Y-119205468D01*
X109210000Y-119205468D01*
X109210002Y-119205468D01*
X109266673Y-119200509D01*
X109436692Y-119185635D01*
X109656496Y-119126739D01*
X109862734Y-119030568D01*
X109862733Y-119030568D01*
X109863221Y-119030341D01*
X109932299Y-119019849D01*
X109996083Y-119048369D01*
X110003307Y-119055042D01*
X110141199Y-119192934D01*
X110151893Y-119205128D01*
X110171117Y-119230181D01*
X110171118Y-119230182D01*
X110222270Y-119269432D01*
X110266617Y-119303461D01*
X110271480Y-119307192D01*
X110312683Y-119363620D01*
X110316838Y-119433366D01*
X110312176Y-119448900D01*
X110295909Y-119492514D01*
X110295908Y-119492516D01*
X110290574Y-119542135D01*
X110289501Y-119552123D01*
X110289500Y-119552135D01*
X110289500Y-120041660D01*
X110269815Y-120108699D01*
X110217011Y-120154454D01*
X110147853Y-120164398D01*
X110084297Y-120135373D01*
X110077819Y-120129341D01*
X110048820Y-120100342D01*
X109862482Y-119969865D01*
X109656328Y-119873734D01*
X109460000Y-119821127D01*
X109460000Y-120784314D01*
X109448045Y-120772359D01*
X109335148Y-120714835D01*
X109241481Y-120700000D01*
X109178519Y-120700000D01*
X109084852Y-120714835D01*
X108971955Y-120772359D01*
X108960000Y-120784314D01*
X108960000Y-119821127D01*
X108763671Y-119873734D01*
X108557517Y-119969865D01*
X108371179Y-120100342D01*
X108210342Y-120261179D01*
X108079865Y-120447517D01*
X107983734Y-120653673D01*
X107983730Y-120653682D01*
X107931127Y-120849999D01*
X107931128Y-120850000D01*
X108894314Y-120850000D01*
X108882359Y-120861955D01*
X108824835Y-120974852D01*
X108805014Y-121100000D01*
X108824835Y-121225148D01*
X108882359Y-121338045D01*
X108894314Y-121350000D01*
X107931128Y-121350000D01*
X107983730Y-121546317D01*
X107983734Y-121546326D01*
X108079865Y-121752482D01*
X108210342Y-121938820D01*
X108371179Y-122099657D01*
X108557517Y-122230134D01*
X108763673Y-122326265D01*
X108763682Y-122326269D01*
X108959999Y-122378872D01*
X108960000Y-122378871D01*
X108960000Y-121415686D01*
X108971955Y-121427641D01*
X109084852Y-121485165D01*
X109178519Y-121500000D01*
X109241481Y-121500000D01*
X109335148Y-121485165D01*
X109448045Y-121427641D01*
X109460000Y-121415686D01*
X109460000Y-122378872D01*
X109656317Y-122326269D01*
X109656326Y-122326265D01*
X109862482Y-122230134D01*
X110048820Y-122099657D01*
X110077819Y-122070659D01*
X110139142Y-122037174D01*
X110208834Y-122042158D01*
X110264767Y-122084030D01*
X110289184Y-122149494D01*
X110289500Y-122158340D01*
X110289500Y-123240951D01*
X110269815Y-123307990D01*
X110217011Y-123353745D01*
X110147853Y-123363689D01*
X110084297Y-123334664D01*
X110077819Y-123328632D01*
X110049141Y-123299954D01*
X109862734Y-123169432D01*
X109862732Y-123169431D01*
X109656497Y-123073261D01*
X109656488Y-123073258D01*
X109436697Y-123014366D01*
X109436693Y-123014365D01*
X109436692Y-123014365D01*
X109436691Y-123014364D01*
X109436686Y-123014364D01*
X109210002Y-122994532D01*
X109209998Y-122994532D01*
X108983313Y-123014364D01*
X108983302Y-123014366D01*
X108763511Y-123073258D01*
X108763502Y-123073261D01*
X108557267Y-123169431D01*
X108557265Y-123169432D01*
X108370858Y-123299954D01*
X108209954Y-123460858D01*
X108135134Y-123567714D01*
X108079881Y-123646624D01*
X108025307Y-123690248D01*
X107978308Y-123699500D01*
X104837487Y-123699500D01*
X104821302Y-123698439D01*
X104790000Y-123694318D01*
X104750639Y-123699500D01*
X104633239Y-123714955D01*
X104633237Y-123714956D01*
X104487157Y-123775464D01*
X104361718Y-123871716D01*
X104342489Y-123896775D01*
X104331798Y-123908965D01*
X102032705Y-126208058D01*
X101971382Y-126241543D01*
X101912931Y-126240152D01*
X101816697Y-126214366D01*
X101816693Y-126214365D01*
X101816692Y-126214365D01*
X101816691Y-126214364D01*
X101816686Y-126214364D01*
X101590002Y-126194532D01*
X101589998Y-126194532D01*
X101363313Y-126214364D01*
X101363302Y-126214366D01*
X101143511Y-126273258D01*
X101143502Y-126273261D01*
X100937267Y-126369431D01*
X100937265Y-126369432D01*
X100750858Y-126499954D01*
X100712181Y-126538632D01*
X100650858Y-126572117D01*
X100581166Y-126567133D01*
X100525233Y-126525261D01*
X100500816Y-126459797D01*
X100500500Y-126450951D01*
X100500500Y-125349049D01*
X100520185Y-125282010D01*
X100572989Y-125236255D01*
X100642147Y-125226311D01*
X100705703Y-125255336D01*
X100712181Y-125261368D01*
X100750858Y-125300045D01*
X100750861Y-125300047D01*
X100937266Y-125430568D01*
X101143504Y-125526739D01*
X101363308Y-125585635D01*
X101525230Y-125599801D01*
X101589998Y-125605468D01*
X101590000Y-125605468D01*
X101590002Y-125605468D01*
X101652522Y-125599998D01*
X101816692Y-125585635D01*
X102036496Y-125526739D01*
X102242734Y-125430568D01*
X102429139Y-125300047D01*
X102590047Y-125139139D01*
X102720568Y-124952734D01*
X102816739Y-124746496D01*
X102875635Y-124526692D01*
X102895468Y-124300000D01*
X102892139Y-124261955D01*
X102883005Y-124157546D01*
X102875635Y-124073308D01*
X102821619Y-123871716D01*
X102816741Y-123853511D01*
X102816738Y-123853502D01*
X102780348Y-123775464D01*
X102720568Y-123647266D01*
X102590047Y-123460861D01*
X102590045Y-123460858D01*
X102429141Y-123299954D01*
X102242734Y-123169432D01*
X102242732Y-123169431D01*
X102036497Y-123073261D01*
X102036488Y-123073258D01*
X101816697Y-123014366D01*
X101816693Y-123014365D01*
X101816692Y-123014365D01*
X101816691Y-123014364D01*
X101816686Y-123014364D01*
X101590002Y-122994532D01*
X101589998Y-122994532D01*
X101363313Y-123014364D01*
X101363302Y-123014366D01*
X101143511Y-123073258D01*
X101143502Y-123073261D01*
X100937267Y-123169431D01*
X100937265Y-123169432D01*
X100750858Y-123299954D01*
X100712181Y-123338632D01*
X100650858Y-123372117D01*
X100581166Y-123367133D01*
X100525233Y-123325261D01*
X100500816Y-123259797D01*
X100500500Y-123250951D01*
X100500500Y-122149049D01*
X100520185Y-122082010D01*
X100572989Y-122036255D01*
X100642147Y-122026311D01*
X100705703Y-122055336D01*
X100712181Y-122061368D01*
X100750858Y-122100045D01*
X100797693Y-122132839D01*
X100937266Y-122230568D01*
X101143504Y-122326739D01*
X101143509Y-122326740D01*
X101143511Y-122326741D01*
X101153289Y-122329361D01*
X101363308Y-122385635D01*
X101521786Y-122399500D01*
X101589998Y-122405468D01*
X101590000Y-122405468D01*
X101590002Y-122405468D01*
X101658214Y-122399500D01*
X101816692Y-122385635D01*
X102036496Y-122326739D01*
X102242734Y-122230568D01*
X102429139Y-122100047D01*
X102590047Y-121939139D01*
X102720118Y-121753375D01*
X102774693Y-121709752D01*
X102821692Y-121700500D01*
X104860613Y-121700500D01*
X104876797Y-121701560D01*
X104908100Y-121705682D01*
X104908101Y-121705682D01*
X104960354Y-121698802D01*
X105064862Y-121685044D01*
X105210941Y-121624536D01*
X105240419Y-121601917D01*
X105336382Y-121528282D01*
X105355609Y-121503223D01*
X105366290Y-121491043D01*
X108076394Y-118780939D01*
X108137715Y-118747456D01*
X108207407Y-118752440D01*
G37*
%TD.AperFunction*%
%TA.AperFunction,Conductor*%
G36*
X133126331Y-109738185D02*
G01*
X133172086Y-109790989D01*
X133182030Y-109860147D01*
X133178914Y-109872891D01*
X133179182Y-109872953D01*
X133177630Y-109879750D01*
X133157435Y-110058996D01*
X133157435Y-110059003D01*
X133177630Y-110238249D01*
X133179182Y-110245047D01*
X133176894Y-110245569D01*
X133179897Y-110304317D01*
X133145172Y-110364946D01*
X133083180Y-110397177D01*
X133059292Y-110399500D01*
X132637922Y-110399500D01*
X132452186Y-110414890D01*
X132452175Y-110414892D01*
X132211118Y-110475936D01*
X131983393Y-110575826D01*
X131775217Y-110711833D01*
X131592261Y-110880257D01*
X131439524Y-111076493D01*
X131321172Y-111295188D01*
X131321169Y-111295197D01*
X131240429Y-111530383D01*
X131207673Y-111726686D01*
X131199500Y-111775665D01*
X131199500Y-112024335D01*
X131207113Y-112069956D01*
X131240429Y-112269616D01*
X131321169Y-112504802D01*
X131321172Y-112504811D01*
X131439524Y-112723506D01*
X131439526Y-112723509D01*
X131592262Y-112919744D01*
X131708162Y-113026437D01*
X131775217Y-113088166D01*
X131983393Y-113224173D01*
X132211118Y-113324063D01*
X132407264Y-113373734D01*
X132452179Y-113385108D01*
X132452181Y-113385108D01*
X132452186Y-113385109D01*
X132597468Y-113397147D01*
X132637933Y-113400500D01*
X132637937Y-113400500D01*
X133762063Y-113400500D01*
X133762067Y-113400500D01*
X133834090Y-113394532D01*
X133947813Y-113385109D01*
X133947816Y-113385108D01*
X133947821Y-113385108D01*
X134188881Y-113324063D01*
X134416607Y-113224173D01*
X134624785Y-113088164D01*
X134807738Y-112919744D01*
X134960474Y-112723509D01*
X135045994Y-112565482D01*
X135095214Y-112515892D01*
X135155049Y-112500500D01*
X136658303Y-112500500D01*
X136725342Y-112520185D01*
X136745984Y-112536819D01*
X143302099Y-119092934D01*
X143312793Y-119105128D01*
X143332017Y-119130181D01*
X143332018Y-119130182D01*
X143404286Y-119185635D01*
X143457459Y-119226436D01*
X143603538Y-119286944D01*
X143681919Y-119297263D01*
X143760299Y-119307582D01*
X143760300Y-119307582D01*
X143791602Y-119303460D01*
X143807787Y-119302400D01*
X144662149Y-119302400D01*
X144729188Y-119322085D01*
X144774943Y-119374889D01*
X144784887Y-119444047D01*
X144781924Y-119458493D01*
X144724366Y-119673302D01*
X144724364Y-119673313D01*
X144704532Y-119899998D01*
X144704532Y-119900001D01*
X144724364Y-120126686D01*
X144724366Y-120126697D01*
X144750152Y-120222931D01*
X144748489Y-120292781D01*
X144718058Y-120342705D01*
X144595682Y-120465082D01*
X144534362Y-120498566D01*
X144508003Y-120501400D01*
X139736833Y-120501400D01*
X139669794Y-120481715D01*
X139624039Y-120428911D01*
X139614095Y-120359753D01*
X139617058Y-120345307D01*
X139647498Y-120231701D01*
X139675635Y-120126692D01*
X139695468Y-119900000D01*
X139675635Y-119673308D01*
X139616739Y-119453504D01*
X139520568Y-119247266D01*
X139415682Y-119097472D01*
X139390045Y-119060858D01*
X139229141Y-118899954D01*
X139042734Y-118769432D01*
X139042732Y-118769431D01*
X138836497Y-118673261D01*
X138836488Y-118673258D01*
X138616697Y-118614366D01*
X138616693Y-118614365D01*
X138616692Y-118614365D01*
X138616691Y-118614364D01*
X138616686Y-118614364D01*
X138390002Y-118594532D01*
X138389998Y-118594532D01*
X138163313Y-118614364D01*
X138163302Y-118614366D01*
X137943511Y-118673258D01*
X137943502Y-118673261D01*
X137737267Y-118769431D01*
X137737265Y-118769432D01*
X137550858Y-118899954D01*
X137389954Y-119060858D01*
X137259432Y-119247265D01*
X137259431Y-119247267D01*
X137163261Y-119453502D01*
X137163258Y-119453511D01*
X137104366Y-119673302D01*
X137104364Y-119673313D01*
X137084532Y-119899998D01*
X137084532Y-119900001D01*
X137104364Y-120126686D01*
X137104366Y-120126697D01*
X137162942Y-120345307D01*
X137161279Y-120415157D01*
X137122116Y-120473019D01*
X137057888Y-120500523D01*
X137043167Y-120501400D01*
X136249454Y-120501400D01*
X136182415Y-120481715D01*
X136155989Y-120457404D01*
X136155929Y-120457465D01*
X136154487Y-120456023D01*
X136151081Y-120452890D01*
X136150182Y-120451718D01*
X136024741Y-120355464D01*
X136003090Y-120346496D01*
X135878662Y-120294956D01*
X135842951Y-120290254D01*
X135779055Y-120261986D01*
X135753718Y-120231669D01*
X135753674Y-120231701D01*
X135753307Y-120231178D01*
X135751755Y-120229320D01*
X135750570Y-120227269D01*
X135620045Y-120040858D01*
X135459141Y-119879954D01*
X135272734Y-119749432D01*
X135272728Y-119749429D01*
X135214725Y-119722382D01*
X135162285Y-119676210D01*
X135143133Y-119609017D01*
X135163348Y-119542135D01*
X135214725Y-119497618D01*
X135225662Y-119492518D01*
X135272734Y-119470568D01*
X135459139Y-119340047D01*
X135620047Y-119179139D01*
X135750118Y-118993375D01*
X135804693Y-118949752D01*
X135851692Y-118940500D01*
X136812513Y-118940500D01*
X136828697Y-118941560D01*
X136860000Y-118945682D01*
X136860001Y-118945682D01*
X136912254Y-118938802D01*
X137016762Y-118925044D01*
X137162841Y-118864536D01*
X137207109Y-118830568D01*
X137288282Y-118768282D01*
X137307509Y-118743223D01*
X137318190Y-118731043D01*
X138057294Y-117991939D01*
X138118615Y-117958456D01*
X138177066Y-117959847D01*
X138196604Y-117965082D01*
X138273308Y-117985635D01*
X138435230Y-117999801D01*
X138499998Y-118005468D01*
X138500000Y-118005468D01*
X138500002Y-118005468D01*
X138562522Y-117999998D01*
X138726692Y-117985635D01*
X138946496Y-117926739D01*
X139152734Y-117830568D01*
X139339139Y-117700047D01*
X139500047Y-117539139D01*
X139630568Y-117352734D01*
X139726739Y-117146496D01*
X139785635Y-116926692D01*
X139805468Y-116700000D01*
X139800907Y-116647873D01*
X139793016Y-116557671D01*
X139785635Y-116473308D01*
X139726739Y-116253504D01*
X139630568Y-116047266D01*
X139517048Y-115885141D01*
X139500045Y-115860858D01*
X139339141Y-115699954D01*
X139152734Y-115569432D01*
X139152732Y-115569431D01*
X138946497Y-115473261D01*
X138946488Y-115473258D01*
X138726697Y-115414366D01*
X138726693Y-115414365D01*
X138726692Y-115414365D01*
X138726691Y-115414364D01*
X138726686Y-115414364D01*
X138500002Y-115394532D01*
X138499998Y-115394532D01*
X138273313Y-115414364D01*
X138273302Y-115414366D01*
X138053511Y-115473258D01*
X138053502Y-115473261D01*
X137847267Y-115569431D01*
X137847265Y-115569432D01*
X137660858Y-115699954D01*
X137499954Y-115860858D01*
X137369432Y-116047265D01*
X137369431Y-116047267D01*
X137273261Y-116253502D01*
X137273258Y-116253511D01*
X137214366Y-116473302D01*
X137214364Y-116473313D01*
X137194532Y-116699998D01*
X137194532Y-116700001D01*
X137214364Y-116926686D01*
X137214366Y-116926697D01*
X137240152Y-117022931D01*
X137238489Y-117092781D01*
X137208058Y-117142705D01*
X136647584Y-117703181D01*
X136586261Y-117736666D01*
X136559903Y-117739500D01*
X135851692Y-117739500D01*
X135784653Y-117719815D01*
X135750119Y-117686625D01*
X135620047Y-117500861D01*
X135620045Y-117500858D01*
X135459141Y-117339954D01*
X135272734Y-117209432D01*
X135272728Y-117209429D01*
X135214725Y-117182382D01*
X135162285Y-117136210D01*
X135143133Y-117069017D01*
X135163348Y-117002135D01*
X135214725Y-116957618D01*
X135272734Y-116930568D01*
X135459139Y-116800047D01*
X135620047Y-116639139D01*
X135750568Y-116452734D01*
X135846739Y-116246496D01*
X135905635Y-116026692D01*
X135925468Y-115800000D01*
X135922422Y-115765189D01*
X135919356Y-115730136D01*
X135905635Y-115573308D01*
X135846739Y-115353504D01*
X135750568Y-115147266D01*
X135620047Y-114960861D01*
X135620045Y-114960858D01*
X135459141Y-114799954D01*
X135272734Y-114669432D01*
X135272732Y-114669431D01*
X135066497Y-114573261D01*
X135066488Y-114573258D01*
X134846697Y-114514366D01*
X134846693Y-114514365D01*
X134846692Y-114514365D01*
X134846691Y-114514364D01*
X134846686Y-114514364D01*
X134620002Y-114494532D01*
X134619998Y-114494532D01*
X134393313Y-114514364D01*
X134393302Y-114514366D01*
X134173511Y-114573258D01*
X134173502Y-114573261D01*
X133967267Y-114669431D01*
X133967265Y-114669432D01*
X133780858Y-114799954D01*
X133619954Y-114960858D01*
X133489432Y-115147265D01*
X133489431Y-115147267D01*
X133393261Y-115353502D01*
X133393258Y-115353511D01*
X133334366Y-115573302D01*
X133334364Y-115573313D01*
X133314532Y-115799998D01*
X133314532Y-115800001D01*
X133334364Y-116026686D01*
X133334366Y-116026697D01*
X133393258Y-116246488D01*
X133393261Y-116246497D01*
X133489431Y-116452732D01*
X133489432Y-116452734D01*
X133619954Y-116639141D01*
X133780858Y-116800045D01*
X133780861Y-116800047D01*
X133967266Y-116930568D01*
X134025275Y-116957618D01*
X134077714Y-117003791D01*
X134096866Y-117070984D01*
X134076650Y-117137865D01*
X134025275Y-117182382D01*
X133967267Y-117209431D01*
X133967265Y-117209432D01*
X133780858Y-117339954D01*
X133619954Y-117500858D01*
X133489432Y-117687265D01*
X133489431Y-117687267D01*
X133393261Y-117893502D01*
X133393258Y-117893511D01*
X133334366Y-118113302D01*
X133334364Y-118113313D01*
X133314532Y-118339998D01*
X133314532Y-118340001D01*
X133334364Y-118566686D01*
X133334366Y-118566697D01*
X133393258Y-118786488D01*
X133393261Y-118786497D01*
X133489431Y-118992732D01*
X133489432Y-118992734D01*
X133619954Y-119179141D01*
X133780858Y-119340045D01*
X133780861Y-119340047D01*
X133967266Y-119470568D01*
X134014338Y-119492518D01*
X134025275Y-119497618D01*
X134077714Y-119543791D01*
X134096866Y-119610984D01*
X134076650Y-119677865D01*
X134025275Y-119722382D01*
X133967267Y-119749431D01*
X133967265Y-119749432D01*
X133780858Y-119879954D01*
X133619954Y-120040858D01*
X133489432Y-120227265D01*
X133489431Y-120227267D01*
X133393261Y-120433502D01*
X133393258Y-120433511D01*
X133334366Y-120653302D01*
X133334364Y-120653313D01*
X133314532Y-120879998D01*
X133314532Y-120880001D01*
X133334364Y-121106686D01*
X133334366Y-121106697D01*
X133393258Y-121326488D01*
X133393261Y-121326497D01*
X133489431Y-121532732D01*
X133489432Y-121532734D01*
X133619954Y-121719141D01*
X133780858Y-121880045D01*
X133827693Y-121912839D01*
X133967266Y-122010568D01*
X134025275Y-122037618D01*
X134077714Y-122083791D01*
X134096866Y-122150984D01*
X134076650Y-122217865D01*
X134025275Y-122262382D01*
X133967267Y-122289431D01*
X133967265Y-122289432D01*
X133780858Y-122419954D01*
X133619954Y-122580858D01*
X133489432Y-122767265D01*
X133489431Y-122767267D01*
X133393261Y-122973502D01*
X133393258Y-122973511D01*
X133334366Y-123193302D01*
X133334364Y-123193313D01*
X133314532Y-123419998D01*
X133314532Y-123420001D01*
X133334364Y-123646686D01*
X133334366Y-123646697D01*
X133393258Y-123866488D01*
X133393261Y-123866497D01*
X133489431Y-124072732D01*
X133489432Y-124072734D01*
X133619954Y-124259141D01*
X133780858Y-124420045D01*
X133780861Y-124420047D01*
X133967266Y-124550568D01*
X134173504Y-124646739D01*
X134173509Y-124646740D01*
X134173511Y-124646741D01*
X134226415Y-124660916D01*
X134393308Y-124705635D01*
X134555230Y-124719801D01*
X134619998Y-124725468D01*
X134620000Y-124725468D01*
X134620002Y-124725468D01*
X134676673Y-124720509D01*
X134846692Y-124705635D01*
X135066496Y-124646739D01*
X135272734Y-124550568D01*
X135459139Y-124420047D01*
X135513253Y-124365933D01*
X135578245Y-124300942D01*
X135639568Y-124267457D01*
X135709260Y-124272441D01*
X135753607Y-124300942D01*
X137153699Y-125701034D01*
X137164393Y-125713228D01*
X137183615Y-125738279D01*
X137183616Y-125738280D01*
X137183618Y-125738282D01*
X137309059Y-125834536D01*
X137313078Y-125836200D01*
X137315949Y-125838514D01*
X137316096Y-125838599D01*
X137316082Y-125838621D01*
X137367481Y-125880038D01*
X137389548Y-125946332D01*
X137372271Y-126014032D01*
X137367204Y-126021882D01*
X137349434Y-126047260D01*
X137349434Y-126047261D01*
X137253261Y-126253502D01*
X137253258Y-126253511D01*
X137222095Y-126369816D01*
X137185730Y-126429477D01*
X137122883Y-126460006D01*
X137053507Y-126451711D01*
X137014639Y-126425404D01*
X136198399Y-125609164D01*
X136187703Y-125596967D01*
X136168486Y-125571922D01*
X136168483Y-125571920D01*
X136168482Y-125571918D01*
X136043041Y-125475664D01*
X135896962Y-125415156D01*
X135896960Y-125415155D01*
X135779561Y-125399700D01*
X135740200Y-125394518D01*
X135708897Y-125398639D01*
X135692713Y-125399700D01*
X128321897Y-125399700D01*
X128254858Y-125380015D01*
X128234216Y-125363381D01*
X127619815Y-124748980D01*
X127586330Y-124687657D01*
X127591314Y-124617965D01*
X127633186Y-124562032D01*
X127647988Y-124553171D01*
X127647797Y-124552839D01*
X127652481Y-124550134D01*
X127838820Y-124419657D01*
X127999657Y-124258820D01*
X128130134Y-124072482D01*
X128226265Y-123866326D01*
X128226269Y-123866317D01*
X128278872Y-123670000D01*
X127315686Y-123670000D01*
X127327641Y-123658045D01*
X127385165Y-123545148D01*
X127404986Y-123420000D01*
X127385165Y-123294852D01*
X127327641Y-123181955D01*
X127315686Y-123170000D01*
X128278872Y-123170000D01*
X128278872Y-123169999D01*
X128226269Y-122973682D01*
X128226265Y-122973673D01*
X128130134Y-122767517D01*
X127999657Y-122581179D01*
X127838820Y-122420342D01*
X127652482Y-122289865D01*
X127594133Y-122262657D01*
X127541694Y-122216484D01*
X127522542Y-122149291D01*
X127542758Y-122082410D01*
X127594129Y-122037895D01*
X127652734Y-122010568D01*
X127839139Y-121880047D01*
X128000047Y-121719139D01*
X128130568Y-121532734D01*
X128226739Y-121326496D01*
X128285635Y-121106692D01*
X128305468Y-120880000D01*
X128285635Y-120653308D01*
X128230494Y-120447517D01*
X128226741Y-120433511D01*
X128226738Y-120433502D01*
X128224597Y-120428911D01*
X128130568Y-120227266D01*
X128007112Y-120050951D01*
X128000045Y-120040858D01*
X127839141Y-119879954D01*
X127652734Y-119749432D01*
X127652728Y-119749429D01*
X127594725Y-119722382D01*
X127542285Y-119676210D01*
X127523133Y-119609017D01*
X127543348Y-119542135D01*
X127594725Y-119497618D01*
X127605662Y-119492518D01*
X127652734Y-119470568D01*
X127839139Y-119340047D01*
X128000047Y-119179139D01*
X128130568Y-118992734D01*
X128226739Y-118786496D01*
X128285635Y-118566692D01*
X128305468Y-118340000D01*
X128285635Y-118113308D01*
X128226739Y-117893504D01*
X128130568Y-117687266D01*
X128026849Y-117539139D01*
X128000045Y-117500858D01*
X127839143Y-117339956D01*
X127814536Y-117322726D01*
X127770912Y-117268149D01*
X127763719Y-117198650D01*
X127795241Y-117136296D01*
X127855471Y-117100882D01*
X127872404Y-117097861D01*
X127907483Y-117094091D01*
X128042331Y-117043796D01*
X128157546Y-116957546D01*
X128243796Y-116842331D01*
X128294091Y-116707483D01*
X128300500Y-116647873D01*
X128300499Y-114952128D01*
X128294091Y-114892517D01*
X128273774Y-114838045D01*
X128243797Y-114757671D01*
X128243793Y-114757664D01*
X128157547Y-114642455D01*
X128157544Y-114642452D01*
X128042335Y-114556206D01*
X128042328Y-114556202D01*
X127907482Y-114505908D01*
X127907483Y-114505908D01*
X127847883Y-114499501D01*
X127847881Y-114499500D01*
X127847873Y-114499500D01*
X127847864Y-114499500D01*
X126152129Y-114499500D01*
X126152123Y-114499501D01*
X126092516Y-114505908D01*
X125957671Y-114556202D01*
X125957664Y-114556206D01*
X125842455Y-114642452D01*
X125842452Y-114642455D01*
X125756206Y-114757664D01*
X125756202Y-114757671D01*
X125705908Y-114892517D01*
X125699501Y-114952116D01*
X125699501Y-114952123D01*
X125699500Y-114952135D01*
X125699500Y-115075500D01*
X125679815Y-115142539D01*
X125627011Y-115188294D01*
X125575500Y-115199500D01*
X123780553Y-115199500D01*
X123713514Y-115179815D01*
X123668171Y-115127905D01*
X123643734Y-115075500D01*
X123630568Y-115047266D01*
X123500047Y-114860861D01*
X123500045Y-114860858D01*
X123339141Y-114699954D01*
X123152734Y-114569432D01*
X123152732Y-114569431D01*
X122946497Y-114473261D01*
X122946488Y-114473258D01*
X122726697Y-114414366D01*
X122726693Y-114414365D01*
X122726692Y-114414365D01*
X122726691Y-114414364D01*
X122726686Y-114414364D01*
X122500002Y-114394532D01*
X122499998Y-114394532D01*
X122273313Y-114414364D01*
X122273302Y-114414366D01*
X122053511Y-114473258D01*
X122053502Y-114473261D01*
X121847267Y-114569431D01*
X121847265Y-114569432D01*
X121660858Y-114699954D01*
X121499954Y-114860858D01*
X121369432Y-115047265D01*
X121369431Y-115047267D01*
X121273261Y-115253502D01*
X121273258Y-115253511D01*
X121214366Y-115473302D01*
X121214364Y-115473313D01*
X121197974Y-115660656D01*
X121172522Y-115725725D01*
X121115931Y-115766704D01*
X121046169Y-115770582D01*
X120986765Y-115737530D01*
X120866499Y-115617264D01*
X120855803Y-115605067D01*
X120836586Y-115580022D01*
X120836583Y-115580020D01*
X120836582Y-115580018D01*
X120711141Y-115483764D01*
X120701706Y-115479856D01*
X120565062Y-115423256D01*
X120565060Y-115423255D01*
X120447661Y-115407800D01*
X120408300Y-115402618D01*
X120408296Y-115402618D01*
X120389873Y-115405043D01*
X120320838Y-115394276D01*
X120268583Y-115347895D01*
X120249699Y-115280626D01*
X120261306Y-115229706D01*
X120346739Y-115046496D01*
X120405635Y-114826692D01*
X120425468Y-114600000D01*
X120405635Y-114373308D01*
X120346739Y-114153504D01*
X120250568Y-113947266D01*
X120152839Y-113807693D01*
X120120045Y-113760858D01*
X119959141Y-113599954D01*
X119772734Y-113469432D01*
X119772732Y-113469431D01*
X119566497Y-113373261D01*
X119566488Y-113373258D01*
X119465410Y-113346175D01*
X119405749Y-113309810D01*
X119375220Y-113246963D01*
X119383515Y-113177588D01*
X119428000Y-113123710D01*
X119494552Y-113102435D01*
X119497503Y-113102400D01*
X120650613Y-113102400D01*
X120666797Y-113103460D01*
X120698100Y-113107582D01*
X120698101Y-113107582D01*
X120750354Y-113100702D01*
X120854862Y-113086944D01*
X121000941Y-113026436D01*
X121054114Y-112985635D01*
X121126382Y-112930182D01*
X121145609Y-112905123D01*
X121156290Y-112892943D01*
X122024898Y-112024335D01*
X126373500Y-112024335D01*
X126381113Y-112069956D01*
X126414429Y-112269616D01*
X126495169Y-112504802D01*
X126495172Y-112504811D01*
X126613524Y-112723506D01*
X126613526Y-112723509D01*
X126766262Y-112919744D01*
X126882162Y-113026437D01*
X126949217Y-113088166D01*
X127157393Y-113224173D01*
X127385118Y-113324063D01*
X127581264Y-113373734D01*
X127626179Y-113385108D01*
X127626181Y-113385108D01*
X127626186Y-113385109D01*
X127771468Y-113397147D01*
X127811933Y-113400500D01*
X127811937Y-113400500D01*
X128936063Y-113400500D01*
X128936067Y-113400500D01*
X129008090Y-113394532D01*
X129121813Y-113385109D01*
X129121816Y-113385108D01*
X129121821Y-113385108D01*
X129362881Y-113324063D01*
X129590607Y-113224173D01*
X129798785Y-113088164D01*
X129981738Y-112919744D01*
X130134474Y-112723509D01*
X130252828Y-112504810D01*
X130333571Y-112269614D01*
X130374500Y-112024335D01*
X130374500Y-111775665D01*
X130333571Y-111530386D01*
X130252828Y-111295190D01*
X130244507Y-111279815D01*
X130186869Y-111173308D01*
X130134474Y-111076491D01*
X129981738Y-110880256D01*
X129820677Y-110731989D01*
X129798782Y-110711833D01*
X129590606Y-110575826D01*
X129362881Y-110475936D01*
X129121824Y-110414892D01*
X129121813Y-110414890D01*
X128936077Y-110399500D01*
X128936067Y-110399500D01*
X127811933Y-110399500D01*
X127811922Y-110399500D01*
X127626186Y-110414890D01*
X127626175Y-110414892D01*
X127385118Y-110475936D01*
X127157393Y-110575826D01*
X126949217Y-110711833D01*
X126766261Y-110880257D01*
X126613524Y-111076493D01*
X126495172Y-111295188D01*
X126495169Y-111295197D01*
X126414429Y-111530383D01*
X126381673Y-111726686D01*
X126373500Y-111775665D01*
X126373500Y-112024335D01*
X122024898Y-112024335D01*
X122057294Y-111991939D01*
X122118615Y-111958456D01*
X122177066Y-111959847D01*
X122196604Y-111965082D01*
X122273308Y-111985635D01*
X122435230Y-111999801D01*
X122499998Y-112005468D01*
X122500000Y-112005468D01*
X122500002Y-112005468D01*
X122561985Y-112000045D01*
X122726692Y-111985635D01*
X122946496Y-111926739D01*
X123152734Y-111830568D01*
X123339139Y-111700047D01*
X123500047Y-111539139D01*
X123630568Y-111352734D01*
X123726739Y-111146496D01*
X123785635Y-110926692D01*
X123803702Y-110720185D01*
X123805468Y-110700001D01*
X123805468Y-110699998D01*
X123794280Y-110572117D01*
X123785635Y-110473308D01*
X123726739Y-110253504D01*
X123630568Y-110047266D01*
X123536990Y-109913622D01*
X123514664Y-109847417D01*
X123531674Y-109779649D01*
X123582623Y-109731837D01*
X123638566Y-109718500D01*
X133059292Y-109718500D01*
X133126331Y-109738185D01*
G37*
%TD.AperFunction*%
%TA.AperFunction,Conductor*%
G36*
X110474864Y-112207891D02*
G01*
X110491583Y-112227185D01*
X110499953Y-112239139D01*
X110499956Y-112239143D01*
X110660858Y-112400045D01*
X110660861Y-112400047D01*
X110847266Y-112530568D01*
X111053504Y-112626739D01*
X111273308Y-112685635D01*
X111435230Y-112699801D01*
X111499998Y-112705468D01*
X111500000Y-112705468D01*
X111500002Y-112705468D01*
X111561985Y-112700045D01*
X111726692Y-112685635D01*
X111822932Y-112659847D01*
X111892781Y-112661510D01*
X111942706Y-112691941D01*
X112143699Y-112892934D01*
X112154393Y-112905128D01*
X112170976Y-112926739D01*
X112173618Y-112930182D01*
X112245886Y-112985635D01*
X112299059Y-113026436D01*
X112445138Y-113086944D01*
X112523519Y-113097263D01*
X112601899Y-113107582D01*
X112601900Y-113107582D01*
X112633202Y-113103460D01*
X112649387Y-113102400D01*
X117293600Y-113102400D01*
X117360639Y-113122085D01*
X117406394Y-113174889D01*
X117417600Y-113226400D01*
X117417600Y-114552512D01*
X117416539Y-114568697D01*
X117412418Y-114599998D01*
X117412418Y-114600000D01*
X117417600Y-114639360D01*
X117417600Y-114639361D01*
X117433055Y-114756760D01*
X117433056Y-114756762D01*
X117489287Y-114892517D01*
X117493564Y-114902841D01*
X117589818Y-115028282D01*
X117715259Y-115124536D01*
X117823182Y-115169239D01*
X117877585Y-115213080D01*
X117899650Y-115279374D01*
X117882371Y-115347073D01*
X117831234Y-115394684D01*
X117775729Y-115407800D01*
X113208397Y-115407800D01*
X113141358Y-115388115D01*
X113120716Y-115371481D01*
X112791941Y-115042706D01*
X112758456Y-114981383D01*
X112759847Y-114922931D01*
X112785635Y-114826692D01*
X112805468Y-114600000D01*
X112785635Y-114373308D01*
X112726739Y-114153504D01*
X112630568Y-113947266D01*
X112532839Y-113807693D01*
X112500045Y-113760858D01*
X112339141Y-113599954D01*
X112152734Y-113469432D01*
X112152732Y-113469431D01*
X111946497Y-113373261D01*
X111946488Y-113373258D01*
X111726697Y-113314366D01*
X111726693Y-113314365D01*
X111726692Y-113314365D01*
X111726691Y-113314364D01*
X111726686Y-113314364D01*
X111500002Y-113294532D01*
X111499998Y-113294532D01*
X111273313Y-113314364D01*
X111273302Y-113314366D01*
X111053511Y-113373258D01*
X111053502Y-113373261D01*
X110847267Y-113469431D01*
X110847265Y-113469432D01*
X110660858Y-113599954D01*
X110499954Y-113760858D01*
X110421259Y-113873248D01*
X110366682Y-113916873D01*
X110297184Y-113924067D01*
X110234829Y-113892544D01*
X110218110Y-113873250D01*
X110209658Y-113861180D01*
X110048820Y-113700342D01*
X109862482Y-113569865D01*
X109656328Y-113473734D01*
X109460000Y-113421127D01*
X109460000Y-114384314D01*
X109448045Y-114372359D01*
X109335148Y-114314835D01*
X109241481Y-114300000D01*
X109178519Y-114300000D01*
X109084852Y-114314835D01*
X108971955Y-114372359D01*
X108960000Y-114384314D01*
X108960000Y-113421127D01*
X108763671Y-113473734D01*
X108557517Y-113569865D01*
X108371179Y-113700342D01*
X108210342Y-113861179D01*
X108079865Y-114047517D01*
X107983734Y-114253673D01*
X107983730Y-114253682D01*
X107931127Y-114449999D01*
X107931128Y-114450000D01*
X108894314Y-114450000D01*
X108882359Y-114461955D01*
X108824835Y-114574852D01*
X108805014Y-114700000D01*
X108824835Y-114825148D01*
X108882359Y-114938045D01*
X108894314Y-114950000D01*
X107931128Y-114950000D01*
X107983730Y-115146317D01*
X107983734Y-115146326D01*
X108079865Y-115352482D01*
X108210342Y-115538820D01*
X108371179Y-115699657D01*
X108557517Y-115830134D01*
X108763673Y-115926265D01*
X108763682Y-115926269D01*
X108959999Y-115978872D01*
X108960000Y-115978871D01*
X108960000Y-115015686D01*
X108971955Y-115027641D01*
X109084852Y-115085165D01*
X109178519Y-115100000D01*
X109241481Y-115100000D01*
X109335148Y-115085165D01*
X109448045Y-115027641D01*
X109460000Y-115015686D01*
X109460000Y-115978872D01*
X109656317Y-115926269D01*
X109656326Y-115926265D01*
X109862482Y-115830134D01*
X110048820Y-115699657D01*
X110209660Y-115538817D01*
X110288129Y-115426752D01*
X110342706Y-115383127D01*
X110412204Y-115375933D01*
X110474559Y-115407456D01*
X110491279Y-115426751D01*
X110499956Y-115439143D01*
X110660858Y-115600045D01*
X110660861Y-115600047D01*
X110847266Y-115730568D01*
X111053504Y-115826739D01*
X111273308Y-115885635D01*
X111435230Y-115899801D01*
X111499998Y-115905468D01*
X111500000Y-115905468D01*
X111500002Y-115905468D01*
X111556807Y-115900498D01*
X111726692Y-115885635D01*
X111822932Y-115859847D01*
X111892781Y-115861510D01*
X111942706Y-115891941D01*
X112238584Y-116187819D01*
X112272069Y-116249142D01*
X112267085Y-116318834D01*
X112225213Y-116374767D01*
X112159749Y-116399184D01*
X112150903Y-116399500D01*
X110752129Y-116399500D01*
X110752123Y-116399501D01*
X110692516Y-116405908D01*
X110557671Y-116456202D01*
X110557664Y-116456206D01*
X110442455Y-116542452D01*
X110442452Y-116542455D01*
X110356206Y-116657664D01*
X110356202Y-116657671D01*
X110305908Y-116792517D01*
X110299626Y-116850951D01*
X110299501Y-116852123D01*
X110299322Y-116855452D01*
X110298196Y-116855391D01*
X110279815Y-116917990D01*
X110227011Y-116963745D01*
X110157853Y-116973689D01*
X110094297Y-116944664D01*
X110087819Y-116938632D01*
X110049141Y-116899954D01*
X109862734Y-116769432D01*
X109862732Y-116769431D01*
X109656497Y-116673261D01*
X109656488Y-116673258D01*
X109436697Y-116614366D01*
X109436693Y-116614365D01*
X109436692Y-116614365D01*
X109436691Y-116614364D01*
X109436686Y-116614364D01*
X109210002Y-116594532D01*
X109209998Y-116594532D01*
X108983313Y-116614364D01*
X108983302Y-116614366D01*
X108763511Y-116673258D01*
X108763502Y-116673261D01*
X108557267Y-116769431D01*
X108557265Y-116769432D01*
X108370858Y-116899954D01*
X108209954Y-117060858D01*
X108079433Y-117247264D01*
X108078243Y-117249326D01*
X108077481Y-117250051D01*
X108076327Y-117251701D01*
X108075995Y-117251468D01*
X108027671Y-117297537D01*
X107987047Y-117310254D01*
X107951338Y-117314956D01*
X107951337Y-117314956D01*
X107805257Y-117375464D01*
X107679818Y-117471716D01*
X107660589Y-117496775D01*
X107649898Y-117508965D01*
X104695684Y-120463181D01*
X104634361Y-120496666D01*
X104608003Y-120499500D01*
X102821692Y-120499500D01*
X102754653Y-120479815D01*
X102720119Y-120446625D01*
X102590047Y-120260861D01*
X102590045Y-120260858D01*
X102429141Y-120099954D01*
X102242734Y-119969432D01*
X102242732Y-119969431D01*
X102036497Y-119873261D01*
X102036488Y-119873258D01*
X101816697Y-119814366D01*
X101816693Y-119814365D01*
X101816692Y-119814365D01*
X101816691Y-119814364D01*
X101816686Y-119814364D01*
X101590002Y-119794532D01*
X101589998Y-119794532D01*
X101363313Y-119814364D01*
X101363302Y-119814366D01*
X101143511Y-119873258D01*
X101143502Y-119873261D01*
X100937267Y-119969431D01*
X100937265Y-119969432D01*
X100750858Y-120099954D01*
X100712181Y-120138632D01*
X100650858Y-120172117D01*
X100581166Y-120167133D01*
X100525233Y-120125261D01*
X100500816Y-120059797D01*
X100500500Y-120050951D01*
X100500500Y-118949049D01*
X100520185Y-118882010D01*
X100572989Y-118836255D01*
X100642147Y-118826311D01*
X100705703Y-118855336D01*
X100712181Y-118861368D01*
X100750858Y-118900045D01*
X100750861Y-118900047D01*
X100937266Y-119030568D01*
X101143504Y-119126739D01*
X101143509Y-119126740D01*
X101143511Y-119126741D01*
X101157790Y-119130567D01*
X101363308Y-119185635D01*
X101525230Y-119199801D01*
X101589998Y-119205468D01*
X101590000Y-119205468D01*
X101590002Y-119205468D01*
X101646673Y-119200509D01*
X101816692Y-119185635D01*
X102036496Y-119126739D01*
X102242734Y-119030568D01*
X102429139Y-118900047D01*
X102590047Y-118739139D01*
X102720568Y-118552734D01*
X102816739Y-118346496D01*
X102875635Y-118126692D01*
X102895468Y-117900000D01*
X102894899Y-117893502D01*
X102879704Y-117719815D01*
X102875635Y-117673308D01*
X102822047Y-117473313D01*
X102816741Y-117453511D01*
X102816738Y-117453502D01*
X102769748Y-117352732D01*
X102720568Y-117247266D01*
X102590047Y-117060861D01*
X102590045Y-117060858D01*
X102429141Y-116899954D01*
X102242734Y-116769432D01*
X102242732Y-116769431D01*
X102036497Y-116673261D01*
X102036488Y-116673258D01*
X101816697Y-116614366D01*
X101816693Y-116614365D01*
X101816692Y-116614365D01*
X101816691Y-116614364D01*
X101816686Y-116614364D01*
X101590002Y-116594532D01*
X101589998Y-116594532D01*
X101363313Y-116614364D01*
X101363302Y-116614366D01*
X101143511Y-116673258D01*
X101143502Y-116673261D01*
X100937267Y-116769431D01*
X100937265Y-116769432D01*
X100750858Y-116899954D01*
X100712181Y-116938632D01*
X100650858Y-116972117D01*
X100581166Y-116967133D01*
X100525233Y-116925261D01*
X100500816Y-116859797D01*
X100500500Y-116850951D01*
X100500500Y-115749049D01*
X100520185Y-115682010D01*
X100572989Y-115636255D01*
X100642147Y-115626311D01*
X100705703Y-115655336D01*
X100712181Y-115661368D01*
X100750858Y-115700045D01*
X100750861Y-115700047D01*
X100937266Y-115830568D01*
X101143504Y-115926739D01*
X101363308Y-115985635D01*
X101525230Y-115999801D01*
X101589998Y-116005468D01*
X101590000Y-116005468D01*
X101590002Y-116005468D01*
X101646673Y-116000509D01*
X101816692Y-115985635D01*
X102036496Y-115926739D01*
X102242734Y-115830568D01*
X102429139Y-115700047D01*
X102590047Y-115539139D01*
X102720118Y-115353375D01*
X102774693Y-115309752D01*
X102821692Y-115300500D01*
X104860613Y-115300500D01*
X104876797Y-115301560D01*
X104908100Y-115305682D01*
X104908101Y-115305682D01*
X104960354Y-115298802D01*
X105064862Y-115285044D01*
X105210941Y-115224536D01*
X105226603Y-115212518D01*
X105242264Y-115200501D01*
X105242265Y-115200500D01*
X105262408Y-115185044D01*
X105336382Y-115128282D01*
X105355609Y-115103223D01*
X105366290Y-115091043D01*
X108076394Y-112380939D01*
X108137715Y-112347456D01*
X108207407Y-112352440D01*
X108251754Y-112380941D01*
X108370858Y-112500045D01*
X108370861Y-112500047D01*
X108557266Y-112630568D01*
X108763504Y-112726739D01*
X108983308Y-112785635D01*
X109145230Y-112799801D01*
X109209998Y-112805468D01*
X109210000Y-112805468D01*
X109210002Y-112805468D01*
X109266673Y-112800509D01*
X109436692Y-112785635D01*
X109656496Y-112726739D01*
X109862734Y-112630568D01*
X110049139Y-112500047D01*
X110210047Y-112339139D01*
X110288435Y-112227187D01*
X110343011Y-112183563D01*
X110412510Y-112176369D01*
X110474864Y-112207891D01*
G37*
%TD.AperFunction*%
%TD*%
M02*
