%TF.GenerationSoftware,KiCad,Pcbnew,7.0.11+dfsg-1build4*%
%TF.CreationDate,2026-03-08T23:07:14-04:00*%
%TF.ProjectId,eq,65712e6b-6963-4616-945f-706362585858,rev?*%
%TF.SameCoordinates,Original*%
%TF.FileFunction,Legend,Bot*%
%TF.FilePolarity,Positive*%
%FSLAX46Y46*%
G04 Gerber Fmt 4.6, Leading zero omitted, Abs format (unit mm)*
G04 Created by KiCad (PCBNEW 7.0.11+dfsg-1build4) date 2026-03-08 23:07:14*
%MOMM*%
%LPD*%
G01*
G04 APERTURE LIST*
%ADD10C,0.150000*%
%ADD11C,0.120000*%
G04 APERTURE END LIST*
D10*
X112681009Y-108269047D02*
X112728628Y-108411904D01*
X112728628Y-108411904D02*
X112776247Y-108459523D01*
X112776247Y-108459523D02*
X112871485Y-108507142D01*
X112871485Y-108507142D02*
X113014342Y-108507142D01*
X113014342Y-108507142D02*
X113109580Y-108459523D01*
X113109580Y-108459523D02*
X113157200Y-108411904D01*
X113157200Y-108411904D02*
X113204819Y-108316666D01*
X113204819Y-108316666D02*
X113204819Y-107935714D01*
X113204819Y-107935714D02*
X112204819Y-107935714D01*
X112204819Y-107935714D02*
X112204819Y-108269047D01*
X112204819Y-108269047D02*
X112252438Y-108364285D01*
X112252438Y-108364285D02*
X112300057Y-108411904D01*
X112300057Y-108411904D02*
X112395295Y-108459523D01*
X112395295Y-108459523D02*
X112490533Y-108459523D01*
X112490533Y-108459523D02*
X112585771Y-108411904D01*
X112585771Y-108411904D02*
X112633390Y-108364285D01*
X112633390Y-108364285D02*
X112681009Y-108269047D01*
X112681009Y-108269047D02*
X112681009Y-107935714D01*
X112204819Y-109411904D02*
X112204819Y-108935714D01*
X112204819Y-108935714D02*
X112681009Y-108888095D01*
X112681009Y-108888095D02*
X112633390Y-108935714D01*
X112633390Y-108935714D02*
X112585771Y-109030952D01*
X112585771Y-109030952D02*
X112585771Y-109269047D01*
X112585771Y-109269047D02*
X112633390Y-109364285D01*
X112633390Y-109364285D02*
X112681009Y-109411904D01*
X112681009Y-109411904D02*
X112776247Y-109459523D01*
X112776247Y-109459523D02*
X113014342Y-109459523D01*
X113014342Y-109459523D02*
X113109580Y-109411904D01*
X113109580Y-109411904D02*
X113157200Y-109364285D01*
X113157200Y-109364285D02*
X113204819Y-109269047D01*
X113204819Y-109269047D02*
X113204819Y-109030952D01*
X113204819Y-109030952D02*
X113157200Y-108935714D01*
X113157200Y-108935714D02*
X113109580Y-108888095D01*
X112204819Y-110078571D02*
X112204819Y-110173809D01*
X112204819Y-110173809D02*
X112252438Y-110269047D01*
X112252438Y-110269047D02*
X112300057Y-110316666D01*
X112300057Y-110316666D02*
X112395295Y-110364285D01*
X112395295Y-110364285D02*
X112585771Y-110411904D01*
X112585771Y-110411904D02*
X112823866Y-110411904D01*
X112823866Y-110411904D02*
X113014342Y-110364285D01*
X113014342Y-110364285D02*
X113109580Y-110316666D01*
X113109580Y-110316666D02*
X113157200Y-110269047D01*
X113157200Y-110269047D02*
X113204819Y-110173809D01*
X113204819Y-110173809D02*
X113204819Y-110078571D01*
X113204819Y-110078571D02*
X113157200Y-109983333D01*
X113157200Y-109983333D02*
X113109580Y-109935714D01*
X113109580Y-109935714D02*
X113014342Y-109888095D01*
X113014342Y-109888095D02*
X112823866Y-109840476D01*
X112823866Y-109840476D02*
X112585771Y-109840476D01*
X112585771Y-109840476D02*
X112395295Y-109888095D01*
X112395295Y-109888095D02*
X112300057Y-109935714D01*
X112300057Y-109935714D02*
X112252438Y-109983333D01*
X112252438Y-109983333D02*
X112204819Y-110078571D01*
X113204819Y-110840476D02*
X112204819Y-110840476D01*
X113204819Y-111411904D02*
X112633390Y-110983333D01*
X112204819Y-111411904D02*
X112776247Y-110840476D01*
D11*
%TO.C,RV6*%
X101880000Y-112570000D02*
X101880000Y-107904000D01*
X104680000Y-112570000D02*
X101880000Y-112570000D01*
X107179000Y-112570000D02*
X106420000Y-112570000D01*
X109350000Y-112570000D02*
X108920000Y-112570000D01*
X114220000Y-112570000D02*
X111750000Y-112570000D01*
X114220000Y-112570000D02*
X114220000Y-107904000D01*
X101880000Y-103995000D02*
X101880000Y-100980000D01*
X114220000Y-103995000D02*
X114220000Y-100980000D01*
X114220000Y-100980000D02*
X101880000Y-100980000D01*
X110050000Y-110950000D02*
X106050000Y-110950000D01*
X106050000Y-110950000D02*
X106050000Y-109450000D01*
X106050000Y-109450000D02*
X110050000Y-109450000D01*
X110050000Y-109450000D02*
X110050000Y-110950000D01*
X110050000Y-102450000D02*
X106050000Y-102450000D01*
X106050000Y-102450000D02*
X106050000Y-100950000D01*
X106050000Y-100950000D02*
X110050000Y-100950000D01*
X110050000Y-100950000D02*
X110050000Y-102450000D01*
%TO.C,RV3*%
X114120000Y-117230000D02*
X114120000Y-121896000D01*
X111320000Y-117230000D02*
X114120000Y-117230000D01*
X108821000Y-117230000D02*
X109580000Y-117230000D01*
X106650000Y-117230000D02*
X107080000Y-117230000D01*
X101780000Y-117230000D02*
X104250000Y-117230000D01*
X101780000Y-117230000D02*
X101780000Y-121896000D01*
X114120000Y-125805000D02*
X114120000Y-128820000D01*
X101780000Y-125805000D02*
X101780000Y-128820000D01*
X101780000Y-128820000D02*
X114120000Y-128820000D01*
X105950000Y-118850000D02*
X109950000Y-118850000D01*
X109950000Y-118850000D02*
X109950000Y-120350000D01*
X109950000Y-120350000D02*
X105950000Y-120350000D01*
X105950000Y-120350000D02*
X105950000Y-118850000D01*
X105950000Y-127350000D02*
X109950000Y-127350000D01*
X109950000Y-127350000D02*
X109950000Y-128850000D01*
X109950000Y-128850000D02*
X105950000Y-128850000D01*
X105950000Y-128850000D02*
X105950000Y-127350000D01*
%TO.C,RV5*%
X123580000Y-112520000D02*
X123580000Y-107854000D01*
X126380000Y-112520000D02*
X123580000Y-112520000D01*
X128879000Y-112520000D02*
X128120000Y-112520000D01*
X131050000Y-112520000D02*
X130620000Y-112520000D01*
X135920000Y-112520000D02*
X133450000Y-112520000D01*
X135920000Y-112520000D02*
X135920000Y-107854000D01*
X123580000Y-103945000D02*
X123580000Y-100930000D01*
X135920000Y-103945000D02*
X135920000Y-100930000D01*
X135920000Y-100930000D02*
X123580000Y-100930000D01*
X131750000Y-110900000D02*
X127750000Y-110900000D01*
X127750000Y-110900000D02*
X127750000Y-109400000D01*
X127750000Y-109400000D02*
X131750000Y-109400000D01*
X131750000Y-109400000D02*
X131750000Y-110900000D01*
X131750000Y-102400000D02*
X127750000Y-102400000D01*
X127750000Y-102400000D02*
X127750000Y-100900000D01*
X127750000Y-100900000D02*
X131750000Y-100900000D01*
X131750000Y-100900000D02*
X131750000Y-102400000D01*
%TO.C,RV4*%
X145080000Y-112620000D02*
X145080000Y-107954000D01*
X147880000Y-112620000D02*
X145080000Y-112620000D01*
X150379000Y-112620000D02*
X149620000Y-112620000D01*
X152550000Y-112620000D02*
X152120000Y-112620000D01*
X157420000Y-112620000D02*
X154950000Y-112620000D01*
X157420000Y-112620000D02*
X157420000Y-107954000D01*
X145080000Y-104045000D02*
X145080000Y-101030000D01*
X157420000Y-104045000D02*
X157420000Y-101030000D01*
X157420000Y-101030000D02*
X145080000Y-101030000D01*
X153250000Y-111000000D02*
X149250000Y-111000000D01*
X149250000Y-111000000D02*
X149250000Y-109500000D01*
X149250000Y-109500000D02*
X153250000Y-109500000D01*
X153250000Y-109500000D02*
X153250000Y-111000000D01*
X153250000Y-102500000D02*
X149250000Y-102500000D01*
X149250000Y-102500000D02*
X149250000Y-101000000D01*
X149250000Y-101000000D02*
X153250000Y-101000000D01*
X153250000Y-101000000D02*
X153250000Y-102500000D01*
%TO.C,RV1*%
X157420000Y-117330000D02*
X157420000Y-121996000D01*
X154620000Y-117330000D02*
X157420000Y-117330000D01*
X152121000Y-117330000D02*
X152880000Y-117330000D01*
X149950000Y-117330000D02*
X150380000Y-117330000D01*
X145080000Y-117330000D02*
X147550000Y-117330000D01*
X145080000Y-117330000D02*
X145080000Y-121996000D01*
X157420000Y-125905000D02*
X157420000Y-128920000D01*
X145080000Y-125905000D02*
X145080000Y-128920000D01*
X145080000Y-128920000D02*
X157420000Y-128920000D01*
X149250000Y-118950000D02*
X153250000Y-118950000D01*
X153250000Y-118950000D02*
X153250000Y-120450000D01*
X153250000Y-120450000D02*
X149250000Y-120450000D01*
X149250000Y-120450000D02*
X149250000Y-118950000D01*
X149250000Y-127450000D02*
X153250000Y-127450000D01*
X153250000Y-127450000D02*
X153250000Y-128950000D01*
X153250000Y-128950000D02*
X149250000Y-128950000D01*
X149250000Y-128950000D02*
X149250000Y-127450000D01*
%TO.C,RV2*%
X135920000Y-117180000D02*
X135920000Y-121846000D01*
X133120000Y-117180000D02*
X135920000Y-117180000D01*
X130621000Y-117180000D02*
X131380000Y-117180000D01*
X128450000Y-117180000D02*
X128880000Y-117180000D01*
X123580000Y-117180000D02*
X126050000Y-117180000D01*
X123580000Y-117180000D02*
X123580000Y-121846000D01*
X135920000Y-125755000D02*
X135920000Y-128770000D01*
X123580000Y-125755000D02*
X123580000Y-128770000D01*
X123580000Y-128770000D02*
X135920000Y-128770000D01*
X127750000Y-118800000D02*
X131750000Y-118800000D01*
X131750000Y-118800000D02*
X131750000Y-120300000D01*
X131750000Y-120300000D02*
X127750000Y-120300000D01*
X127750000Y-120300000D02*
X127750000Y-118800000D01*
X127750000Y-127300000D02*
X131750000Y-127300000D01*
X131750000Y-127300000D02*
X131750000Y-128800000D01*
X131750000Y-128800000D02*
X127750000Y-128800000D01*
X127750000Y-128800000D02*
X127750000Y-127300000D01*
%TD*%
M02*
