M48
; DRILL file {KiCad 7.0.11+dfsg-1build4} date Sun 08 Mar 2026 11:07:16 PM EDT
; FORMAT={-:-/ absolute / metric / decimal}
; #@! TF.CreationDate,2026-03-08T23:07:16-04:00
; #@! TF.GenerationSoftware,Kicad,Pcbnew,7.0.11+dfsg-1build4
; #@! TF.FileFunction,Plated,1,2,PTH
FMAT,2
METRIC
; #@! TA.AperFunction,Plated,PTH,ViaDrill
T1C0.300
; #@! TA.AperFunction,Plated,PTH,ComponentDrill
T2C0.800
; #@! TA.AperFunction,Plated,PTH,ComponentDrill
T3C1.000
; #@! TA.AperFunction,Plated,PTH,ComponentDrill
T4C1.100
%
G90
G05
T1
X118.397Y-128.981
X119.14Y-136.783
X122.15Y-124.752
X135.314Y-141.568
X135.991Y-142.055
X136.621Y-130.893
X139.081Y-133.416
X139.502Y-119.529
X148.63Y-155.031
T2
X101.68Y-137.55
X101.68Y-140.9
X101.68Y-144.3
X101.68Y-147.5
X102.9Y-131.0
X102.9Y-134.2
X107.9Y-131.0
X107.9Y-134.2
X109.3Y-137.55
X109.3Y-140.9
X109.3Y-144.3
X109.3Y-147.5
X112.1Y-130.85
X112.1Y-135.85
X112.25Y-138.55
X112.25Y-143.55
X115.58Y-135.36
X115.58Y-137.9
X115.58Y-140.44
X115.58Y-142.98
X115.58Y-145.52
X115.58Y-148.06
X115.58Y-150.6
X115.89Y-153.9
X116.55Y-111.65
X116.6Y-114.9
X116.6Y-128.35
X116.7Y-131.65
X117.0Y-101.3
X117.0Y-108.92
X117.1Y-117.7
X117.1Y-125.32
X120.6Y-101.29
X120.6Y-108.91
X120.8Y-117.65
X120.8Y-125.27
X121.55Y-111.65
X121.6Y-114.9
X121.6Y-128.35
X121.7Y-131.65
X123.2Y-135.36
X123.2Y-137.9
X123.2Y-140.44
X123.2Y-142.98
X123.2Y-145.52
X123.2Y-148.06
X123.2Y-150.6
X123.51Y-153.9
X126.14Y-130.7
X126.14Y-134.2
X126.19Y-137.55
X126.19Y-144.35
X126.29Y-147.6
X126.29Y-150.95
X127.35Y-140.9
X132.35Y-140.9
X133.76Y-130.7
X133.76Y-134.2
X133.81Y-137.55
X133.81Y-144.35
X133.91Y-147.6
X133.91Y-150.95
X137.85Y-127.8
X137.95Y-131.0
X138.0Y-111.55
X138.0Y-114.7
X138.525Y-134.925
X138.525Y-137.465
X138.525Y-140.005
X138.525Y-142.545
X138.525Y-145.085
X138.525Y-147.625
X138.525Y-150.165
X138.65Y-101.3
X138.65Y-108.92
X138.65Y-117.5
X138.65Y-125.12
X139.8Y-153.7
X142.5Y-101.3
X142.5Y-108.92
X142.55Y-117.49
X142.55Y-125.11
X142.85Y-127.8
X142.95Y-131.0
X143.0Y-111.55
X143.0Y-114.7
X144.8Y-153.7
X146.145Y-134.925
X146.145Y-137.465
X146.145Y-140.005
X146.145Y-142.545
X146.145Y-145.085
X146.145Y-147.625
X146.145Y-150.165
X148.89Y-131.95
X149.09Y-139.1
X149.54Y-150.2
X149.85Y-135.45
X150.8Y-153.7
X153.168Y-144.3
X154.85Y-135.45
X155.668Y-144.3
X155.8Y-153.7
X156.51Y-131.95
X156.71Y-139.1
X157.16Y-150.2
T3
X103.98Y-152.5
X105.45Y-116.35
X105.55Y-113.45
X106.52Y-152.5
X107.95Y-116.35
X108.05Y-113.45
X109.06Y-152.5
X110.45Y-116.35
X110.55Y-113.45
X111.6Y-152.5
X127.25Y-113.4
X127.25Y-116.3
X129.75Y-113.4
X129.75Y-116.3
X132.25Y-113.4
X132.25Y-116.3
X148.75Y-113.5
X148.75Y-116.45
X151.25Y-113.5
X151.25Y-116.45
X153.75Y-113.5
X153.75Y-116.45
T4
X103.55Y-123.85G85X102.85Y-123.85
G05
X102.95Y-105.95G85X103.65Y-105.95
G05
X113.05Y-123.85G85X112.35Y-123.85
G05
X112.45Y-105.95G85X113.15Y-105.95
G05
X124.65Y-105.9G85X125.35Y-105.9
G05
X125.35Y-123.8G85X124.65Y-123.8
G05
X134.15Y-105.9G85X134.85Y-105.9
G05
X134.85Y-123.8G85X134.15Y-123.8
G05
X146.15Y-106.0G85X146.85Y-106.0
G05
X146.85Y-123.95G85X146.15Y-123.95
G05
X155.65Y-106.0G85X156.35Y-106.0
G05
X156.35Y-123.95G85X155.65Y-123.95
G05
M30
