G04 #@! TF.GenerationSoftware,KiCad,Pcbnew,7.0.11+dfsg-1build4*
G04 #@! TF.CreationDate,2026-01-25T21:49:34-05:00*
G04 #@! TF.ProjectId,compressor-01-bearhug,636f6d70-7265-4737-936f-722d30312d62,rev?*
G04 #@! TF.SameCoordinates,Original*
G04 #@! TF.FileFunction,Other,User*
%FSLAX46Y46*%
G04 Gerber Fmt 4.6, Leading zero omitted, Abs format (unit mm)*
G04 Created by KiCad (PCBNEW 7.0.11+dfsg-1build4) date 2026-01-25 21:49:34*
%MOMM*%
%LPD*%
G01*
G04 APERTURE LIST*
%ADD10C,0.050000*%
G04 APERTURE END LIST*
D10*
X154850000Y-45950000D02*
X154850000Y-48950000D01*
X154850000Y-48950000D02*
X162850000Y-48950000D01*
X162850000Y-45950000D02*
X154850000Y-45950000D01*
X162850000Y-48950000D02*
X162850000Y-45950000D01*
X133350000Y-66900000D02*
G75*
G03*
X126550000Y-66900000I-3400000J0D01*
G01*
X126550000Y-66900000D02*
G75*
G03*
X133350000Y-66900000I3400000J0D01*
G01*
X136850000Y-86050000D02*
X136850000Y-89050000D01*
X136850000Y-89050000D02*
X144850000Y-89050000D01*
X144850000Y-86050000D02*
X136850000Y-86050000D01*
X144850000Y-89050000D02*
X144850000Y-86050000D01*
X169334000Y-92710000D02*
G75*
G03*
X161334000Y-92710000I-4000000J0D01*
G01*
X161334000Y-92710000D02*
G75*
G03*
X169334000Y-92710000I4000000J0D01*
G01*
X132200000Y-87250000D02*
G75*
G03*
X124200000Y-87250000I-4000000J0D01*
G01*
X124200000Y-87250000D02*
G75*
G03*
X132200000Y-87250000I4000000J0D01*
G01*
X118100000Y-66200000D02*
G75*
G03*
X111300000Y-66200000I-3400000J0D01*
G01*
X111300000Y-66200000D02*
G75*
G03*
X118100000Y-66200000I3400000J0D01*
G01*
X168572000Y-84582000D02*
G75*
G03*
X160572000Y-84582000I-4000000J0D01*
G01*
X160572000Y-84582000D02*
G75*
G03*
X168572000Y-84582000I4000000J0D01*
G01*
X125600000Y-66550000D02*
G75*
G03*
X118800000Y-66550000I-3400000J0D01*
G01*
X118800000Y-66550000D02*
G75*
G03*
X125600000Y-66550000I3400000J0D01*
G01*
X132300000Y-76500000D02*
G75*
G03*
X124300000Y-76500000I-4000000J0D01*
G01*
X124300000Y-76500000D02*
G75*
G03*
X132300000Y-76500000I4000000J0D01*
G01*
X114872000Y-50200000D02*
X114872000Y-53200000D01*
X114872000Y-53200000D02*
X122872000Y-53200000D01*
X122872000Y-50200000D02*
X114872000Y-50200000D01*
X122872000Y-53200000D02*
X122872000Y-50200000D01*
X136150000Y-68650000D02*
X136150000Y-71850000D01*
X136150000Y-71850000D02*
X146070000Y-71850000D01*
X146070000Y-68650000D02*
X136150000Y-68650000D01*
X146070000Y-71850000D02*
X146070000Y-68650000D01*
X111600000Y-72000000D02*
X111600000Y-75200000D01*
X111600000Y-75200000D02*
X121520000Y-75200000D01*
X121520000Y-72000000D02*
X111600000Y-72000000D01*
X121520000Y-75200000D02*
X121520000Y-72000000D01*
X111450000Y-76500000D02*
X111450000Y-79700000D01*
X111450000Y-79700000D02*
X121370000Y-79700000D01*
X121370000Y-76500000D02*
X111450000Y-76500000D01*
X121370000Y-79700000D02*
X121370000Y-76500000D01*
X111250000Y-92300000D02*
X111250000Y-95500000D01*
X111250000Y-95500000D02*
X121170000Y-95500000D01*
X121170000Y-92300000D02*
X111250000Y-92300000D01*
X121170000Y-95500000D02*
X121170000Y-92300000D01*
X128700000Y-97250000D02*
X142450000Y-97250000D01*
X142450000Y-97250000D02*
X142450000Y-93650000D01*
X128700000Y-93650000D02*
X128700000Y-97250000D01*
X142450000Y-93650000D02*
X128700000Y-93650000D01*
X163290000Y-61370000D02*
X163290000Y-66110000D01*
X163290000Y-61370000D02*
X168750000Y-61370000D01*
X168750000Y-66110000D02*
X163290000Y-66110000D01*
X168750000Y-66110000D02*
X168750000Y-61370000D01*
X135840000Y-60920000D02*
X135840000Y-65660000D01*
X135840000Y-60920000D02*
X141300000Y-60920000D01*
X141300000Y-65660000D02*
X135840000Y-65660000D01*
X141300000Y-65660000D02*
X141300000Y-60920000D01*
X151990000Y-61470000D02*
X151990000Y-66210000D01*
X151990000Y-61470000D02*
X157450000Y-61470000D01*
X157450000Y-66210000D02*
X151990000Y-66210000D01*
X157450000Y-66210000D02*
X157450000Y-61470000D01*
X135700000Y-73450000D02*
X135700000Y-76450000D01*
X135700000Y-76450000D02*
X145420000Y-76450000D01*
X145420000Y-73450000D02*
X135700000Y-73450000D01*
X145420000Y-76450000D02*
X145420000Y-73450000D01*
X135900000Y-81600000D02*
X135900000Y-84600000D01*
X135900000Y-84600000D02*
X145620000Y-84600000D01*
X145620000Y-81600000D02*
X135900000Y-81600000D01*
X145620000Y-84600000D02*
X145620000Y-81600000D01*
X145576000Y-80748000D02*
X145576000Y-77748000D01*
X145576000Y-77748000D02*
X135856000Y-77748000D01*
X135856000Y-80748000D02*
X145576000Y-80748000D01*
X135856000Y-77748000D02*
X135856000Y-80748000D01*
X149900000Y-92350000D02*
X149900000Y-95350000D01*
X149900000Y-95350000D02*
X159620000Y-95350000D01*
X159620000Y-92350000D02*
X149900000Y-92350000D01*
X159620000Y-95350000D02*
X159620000Y-92350000D01*
X114000000Y-45350000D02*
X114000000Y-48350000D01*
X114000000Y-48350000D02*
X123720000Y-48350000D01*
X123720000Y-45350000D02*
X114000000Y-45350000D01*
X123720000Y-48350000D02*
X123720000Y-45350000D01*
X159986000Y-73200000D02*
X159986000Y-76200000D01*
X159986000Y-76200000D02*
X169706000Y-76200000D01*
X169706000Y-73200000D02*
X159986000Y-73200000D01*
X169706000Y-76200000D02*
X169706000Y-73200000D01*
X169706000Y-71604000D02*
X169706000Y-68604000D01*
X169706000Y-68604000D02*
X159986000Y-68604000D01*
X159986000Y-71604000D02*
X169706000Y-71604000D01*
X159986000Y-68604000D02*
X159986000Y-71604000D01*
X149900000Y-77500000D02*
X149900000Y-80500000D01*
X149900000Y-80500000D02*
X159620000Y-80500000D01*
X159620000Y-77500000D02*
X149900000Y-77500000D01*
X159620000Y-80500000D02*
X159620000Y-77500000D01*
X149900000Y-68750000D02*
X149900000Y-71750000D01*
X149900000Y-71750000D02*
X159620000Y-71750000D01*
X159620000Y-68750000D02*
X149900000Y-68750000D01*
X159620000Y-71750000D02*
X159620000Y-68750000D01*
X154300000Y-50600000D02*
X154300000Y-53600000D01*
X154300000Y-53600000D02*
X164020000Y-53600000D01*
X164020000Y-50600000D02*
X154300000Y-50600000D01*
X164020000Y-53600000D02*
X164020000Y-50600000D01*
X159986000Y-77494000D02*
X159986000Y-80494000D01*
X159986000Y-80494000D02*
X169706000Y-80494000D01*
X169706000Y-77494000D02*
X159986000Y-77494000D01*
X169706000Y-80494000D02*
X169706000Y-77494000D01*
X120800000Y-90250000D02*
X120800000Y-87250000D01*
X120800000Y-87250000D02*
X111080000Y-87250000D01*
X111080000Y-90250000D02*
X120800000Y-90250000D01*
X111080000Y-87250000D02*
X111080000Y-90250000D01*
X111500000Y-82200000D02*
X111500000Y-85200000D01*
X111500000Y-85200000D02*
X121220000Y-85200000D01*
X121220000Y-82200000D02*
X111500000Y-82200000D01*
X121220000Y-85200000D02*
X121220000Y-82200000D01*
X110900000Y-59600000D02*
X128300000Y-59600000D01*
X128300000Y-59600000D02*
X128300000Y-56250000D01*
X110900000Y-56250000D02*
X110900000Y-59600000D01*
X128300000Y-56250000D02*
X110900000Y-56250000D01*
X150150000Y-59650000D02*
X167550000Y-59650000D01*
X167550000Y-59650000D02*
X167550000Y-56300000D01*
X150150000Y-56300000D02*
X150150000Y-59650000D01*
X167550000Y-56300000D02*
X150150000Y-56300000D01*
X150000000Y-87450000D02*
X150000000Y-90450000D01*
X150000000Y-90450000D02*
X159720000Y-90450000D01*
X159720000Y-87450000D02*
X150000000Y-87450000D01*
X159720000Y-90450000D02*
X159720000Y-87450000D01*
X159550000Y-76250000D02*
X159550000Y-73250000D01*
X159550000Y-73250000D02*
X149830000Y-73250000D01*
X149830000Y-76250000D02*
X159550000Y-76250000D01*
X149830000Y-73250000D02*
X149830000Y-76250000D01*
X158550000Y-85050000D02*
X158550000Y-82050000D01*
X158550000Y-82050000D02*
X150550000Y-82050000D01*
X150550000Y-85050000D02*
X158550000Y-85050000D01*
X150550000Y-82050000D02*
X150550000Y-85050000D01*
M02*
